<?xml version="1.0" standalone="yes"?><svg version="1.1" xmlns = 'http://www.w3.org/2000/svg'><defs><font id='web' horiz-adv-x="1000">
<font-face font-family="web" descent="-140" cap-height="720" units-per-em="1000" bbox="-621,-929,1943,1635" x-height="500" ascent="860" />
<missing-glyph horiz-adv-x="1000" d="M 900 -4 L 900 724 C 900 749 889 760 864 760 L 136 760 C 111 760 100 749 100 724 L 100 -4 C 100 -29 111 -40 136 -40 L 864 -40 C 889 -40 900 -29 900 -4 Z M 850 10 L 150 10 L 150 710 L 850 710 Z" /><glyph horiz-adv-x="734" d="M 106 257 L 628 257 C 653 257 664 267 664 293 L 664 427 C 664 453 653 463 628 463 L 106 463 C 81 463 70 452 70 427 L 70 293 C 70 267 81 257 106 257 Z" unicode="–" />
<glyph horiz-adv-x="1134" d="M 106 257 L 1028 257 C 1053 257 1064 267 1064 293 L 1064 427 C 1064 453 1053 463 1028 463 L 106 463 C 81 463 70 452 70 427 L 70 293 C 70 267 81 257 106 257 Z" unicode="—" />
<glyph horiz-adv-x="384" d="M 203 720 C 113 720 55 671 55 569 L 55 381 C 55 356 66 345 91 345 L 293 345 C 318 345 329 356 329 381 L 329 529 C 329 554 318 565 293 565 L 184 565 L 184 580 C 184 598 193 608 211 608 L 280 608 C 305 608 316 619 316 644 L 316 684 C 316 710 305 720 280 720 Z" unicode="‘" />
<glyph horiz-adv-x="384" d="M 181 345 C 271 345 329 394 329 496 L 329 684 C 329 709 318 720 293 720 L 91 720 C 66 720 55 709 55 684 L 55 536 C 55 511 66 500 91 500 L 200 500 L 200 485 C 200 467 191 457 173 457 L 104 457 C 79 457 68 446 68 421 L 68 381 C 68 355 79 345 104 345 Z" unicode="’" />
<glyph horiz-adv-x="384" d="M 181 -100 C 271 -100 329 -51 329 51 L 329 239 C 329 264 318 275 293 275 L 91 275 C 66 275 55 264 55 239 L 55 91 C 55 66 66 55 91 55 L 200 55 L 200 40 C 200 22 191 12 173 12 L 104 12 C 79 12 68 1 68 -24 L 68 -64 C 68 -90 79 -100 104 -100 Z" unicode="‚" />
<glyph horiz-adv-x="684" d="M 193 720 C 103 720 45 671 45 569 L 45 381 C 45 356 56 345 81 345 L 283 345 C 308 345 319 356 319 381 L 319 529 C 319 554 308 565 283 565 L 174 565 L 174 580 C 174 598 183 608 201 608 L 270 608 C 295 608 306 619 306 644 L 306 684 C 306 710 295 720 270 720 Z M 513 720 C 423 720 365 671 365 569 L 365 381 C 365 356 376 345 401 345 L 603 345 C 628 345 639 356 639 381 L 639 529 C 639 554 628 565 603 565 L 494 565 L 494 580 C 494 598 503 608 521 608 L 590 608 C 615 608 626 619 626 644 L 626 684 C 626 710 615 720 590 720 Z" unicode="“" />
<glyph horiz-adv-x="684" d="M 491 345 C 581 345 639 394 639 496 L 639 684 C 639 709 628 720 603 720 L 401 720 C 376 720 365 709 365 684 L 365 536 C 365 511 376 500 401 500 L 510 500 L 510 485 C 510 467 501 457 483 457 L 414 457 C 389 457 378 446 378 421 L 378 381 C 378 355 389 345 414 345 Z M 171 345 C 261 345 319 394 319 496 L 319 684 C 319 709 308 720 283 720 L 81 720 C 56 720 45 709 45 684 L 45 536 C 45 511 56 500 81 500 L 190 500 L 190 485 C 190 467 181 457 163 457 L 94 457 C 69 457 58 446 58 421 L 58 381 C 58 355 69 345 94 345 Z" unicode="”" />
<glyph horiz-adv-x="684" d="M 491 -100 C 581 -100 639 -51 639 51 L 639 239 C 639 264 628 275 603 275 L 401 275 C 376 275 365 264 365 239 L 365 91 C 365 66 376 55 401 55 L 510 55 L 510 40 C 510 22 501 12 483 12 L 414 12 C 389 12 378 1 378 -24 L 378 -64 C 378 -90 389 -100 414 -100 Z M 171 -100 C 261 -100 319 -51 319 51 L 319 239 C 319 264 308 275 283 275 L 81 275 C 56 275 45 264 45 239 L 45 91 C 45 66 56 55 81 55 L 190 55 L 190 40 C 190 22 181 12 163 12 L 94 12 C 69 12 58 1 58 -24 L 58 -64 C 58 -90 69 -100 94 -100 Z" unicode="„" />
<glyph horiz-adv-x="225" d="" unicode=" " />
<glyph horiz-adv-x="424" d="M 289 262 C 314 262 326 273 327 298 L 341 684 C 342 709 332 720 307 720 L 116 720 C 91 720 81 709 82 684 L 97 298 C 98 273 109 262 134 262 Z M 304 0 C 329 0 340 11 340 36 L 340 167 C 340 193 329 203 304 203 L 120 203 C 95 203 84 193 84 167 L 84 36 C 84 11 95 0 120 0 Z" unicode="!" />
<glyph horiz-adv-x="646" d="M 550 345 C 585 345 590 351 592 386 L 600 679 C 601 714 595 720 561 720 L 396 720 C 361 720 355 714 356 679 L 364 386 C 365 351 371 345 406 345 Z M 240 345 C 275 345 280 351 282 386 L 290 679 C 291 714 285 720 251 720 L 86 720 C 51 720 45 714 46 679 L 54 386 C 55 351 61 345 96 345 Z" unicode="&#x22;" />
<glyph horiz-adv-x="750" d="M 425 314 L 312 314 L 326 411 L 439 411 Z M 272 36 L 286 135 L 399 135 L 385 36 C 382 11 396 0 421 0 L 526 0 C 551 0 559 11 562 36 L 576 135 L 643 135 C 668 135 679 145 679 171 L 679 278 C 679 304 668 314 643 314 L 602 314 L 616 411 L 679 411 C 704 411 715 421 715 447 L 715 554 C 715 580 704 590 679 590 L 642 590 L 655 684 C 658 709 644 720 619 720 L 514 720 C 489 720 481 709 478 684 L 465 590 L 352 590 L 365 684 C 368 709 354 720 329 720 L 224 720 C 199 720 191 709 188 684 L 175 590 L 107 590 C 82 590 71 579 71 554 L 71 447 C 71 421 82 411 107 411 L 149 411 L 135 314 L 71 314 C 46 314 35 303 35 278 L 35 171 C 35 145 46 135 71 135 L 109 135 L 95 36 C 92 11 106 0 131 0 L 236 0 C 261 0 269 11 272 36 Z" unicode="#" />
<glyph horiz-adv-x="650" d="M 441 622 L 441 774 C 441 799 430 810 405 810 L 260 810 C 235 810 224 799 224 774 L 224 622 Z M 224 83 L 224 -54 C 224 -79 235 -90 260 -90 L 405 -90 C 430 -90 441 -79 441 -54 L 441 83 Z M 403 0 C 532 0 610 62 610 176 L 610 281 C 610 393 548 433 454 447 L 305 467 C 288 469 278 481 278 499 C 278 517 288 529 305 529 L 538 529 C 563 529 574 540 574 565 L 574 684 C 574 709 563 720 538 720 L 258 720 C 128 720 51 658 51 544 L 51 439 C 51 327 112 287 206 273 L 356 252 C 373 250 382 241 382 218 C 382 202 373 189 356 189 L 87 189 C 62 189 51 178 51 153 L 51 36 C 51 11 62 0 87 0 Z" unicode="$" />
<glyph horiz-adv-x="1031" d="M 398 416 L 398 606 C 398 677 364 725 221 725 C 78 725 42 677 42 606 L 42 416 C 42 345 78 297 221 297 C 364 297 398 345 398 416 Z M 352 36 C 346 12 358 0 383 0 L 488 0 C 513 0 523 12 529 36 L 689 684 C 695 708 683 720 658 720 L 553 720 C 528 720 518 708 512 684 Z M 187 447 L 187 575 C 187 583 192 592 221 592 C 249 592 254 583 254 575 L 254 447 C 254 437 249 429 221 429 C 192 429 187 437 187 447 Z M 996 113 L 996 303 C 996 374 962 422 819 422 C 676 422 640 374 640 303 L 640 113 C 640 42 676 -6 819 -6 C 962 -6 996 42 996 113 Z M 785 144 L 785 272 C 785 280 790 289 819 289 C 847 289 852 280 852 272 L 852 144 C 852 134 847 126 819 126 C 790 126 785 134 785 144 Z" unicode="%" />
<glyph horiz-adv-x="766" d="M 296 187 C 264 187 258 201 258 217 L 258 248 C 258 264 264 277 296 277 L 376 277 C 401 277 412 288 412 313 L 412 416 C 412 441 401 452 376 452 L 361 452 C 329 452 323 466 323 482 L 323 503 C 323 519 329 533 361 533 L 507 533 C 532 533 543 544 543 569 L 543 684 C 543 709 532 720 507 720 L 296 720 C 160 720 104 655 104 567 L 104 519 C 104 468 119 430 163 411 C 91 404 37 350 37 256 L 37 176 C 37 69 103 0 226 0 L 504 0 C 620 0 683 69 683 176 L 683 221 L 706 221 C 731 221 742 232 742 257 L 742 365 C 742 391 731 401 706 401 L 512 401 C 487 401 476 390 476 365 L 476 227 C 476 200 467 187 438 187 Z" unicode="&#x26;" />
<glyph horiz-adv-x="356" d="M 250 345 C 285 345 290 351 292 386 L 300 679 C 301 714 295 720 261 720 L 96 720 C 61 720 55 714 56 679 L 64 386 C 65 351 71 345 106 345 Z" unicode="'" />
<glyph horiz-adv-x="429" d="M 348 -80 C 373 -80 384 -69 384 -44 L 384 75 C 384 100 373 111 348 111 L 317 111 C 285 111 276 126 276 161 L 276 557 C 276 592 285 607 317 607 L 348 607 C 373 607 384 618 384 643 L 384 764 C 384 789 373 800 348 800 L 294 800 C 105 800 48 717 48 595 L 48 124 C 48 3 105 -80 294 -80 Z" unicode="(" />
<glyph horiz-adv-x="429" d="M 135 -80 C 324 -80 381 3 381 124 L 381 595 C 381 717 324 800 135 800 L 81 800 C 56 800 45 789 45 764 L 45 643 C 45 618 56 607 81 607 L 112 607 C 144 607 153 592 153 557 L 153 161 C 153 126 144 111 112 111 L 81 111 C 56 111 45 100 45 75 L 45 -44 C 45 -69 56 -80 81 -80 Z" unicode=")" />
<glyph horiz-adv-x="718" d="M 286 165 L 359 306 L 433 165 C 449 137 456 134 485 153 L 579 221 C 607 241 608 250 585 275 L 475 390 L 628 415 C 662 421 667 428 656 461 L 619 572 C 608 605 600 609 570 594 L 433 530 L 453 679 C 459 713 453 720 419 720 L 302 720 C 268 720 261 713 266 679 L 289 530 L 147 594 C 117 609 108 605 98 572 L 62 461 C 51 428 56 421 90 415 L 242 390 L 133 275 C 110 250 111 241 139 221 L 233 153 C 262 134 270 137 286 165 Z" unicode="*" />
<glyph horiz-adv-x="734" d="M 465 99 L 465 267 L 628 267 C 653 267 664 277 664 303 L 664 417 C 664 443 653 453 628 453 L 465 453 L 465 621 C 465 646 454 657 429 657 L 305 657 C 279 657 269 646 269 621 L 269 453 L 106 453 C 81 453 70 442 70 417 L 70 303 C 70 277 81 267 106 267 L 269 267 L 269 99 C 269 74 279 63 305 63 L 429 63 C 455 63 465 74 465 99 Z" unicode="+" />
<glyph horiz-adv-x="384" d="M 181 -100 C 271 -100 329 -51 329 51 L 329 239 C 329 264 318 275 293 275 L 91 275 C 66 275 55 264 55 239 L 55 91 C 55 66 66 55 91 55 L 200 55 L 200 40 C 200 22 191 12 173 12 L 104 12 C 79 12 68 1 68 -24 L 68 -64 C 68 -90 79 -100 104 -100 Z" unicode="," />
<glyph horiz-adv-x="420" d="M 76 257 L 344 257 C 369 257 380 267 380 293 L 380 427 C 380 453 369 463 344 463 L 76 463 C 51 463 40 452 40 427 L 40 293 C 40 267 51 257 76 257 Z" unicode="-" />
<glyph horiz-adv-x="384" d="M 293 0 C 318 0 329 11 329 36 L 329 239 C 329 265 318 275 293 275 L 91 275 C 66 275 55 265 55 239 L 55 36 C 55 11 66 0 91 0 Z" unicode="." />
<glyph horiz-adv-x="347" d="M 5 -54 C 2 -79 16 -90 41 -90 L 186 -90 C 211 -90 219 -79 222 -54 L 342 774 C 345 799 331 810 306 810 L 161 810 C 136 810 128 799 125 774 Z" unicode="/" />
<glyph horiz-adv-x="727" d="M 669 189 L 669 530 C 669 652 610 735 364 735 C 118 735 58 652 58 530 L 58 189 C 58 67 118 -15 364 -15 C 610 -15 669 67 669 189 Z M 284 225 L 284 494 C 284 520 296 540 364 540 C 433 540 444 520 444 494 L 444 225 C 444 198 433 178 364 178 C 296 178 284 198 284 225 Z" unicode="0" />
<glyph horiz-adv-x="601" d="M 526 0 C 551 0 562 11 562 36 L 562 157 C 562 182 551 193 526 193 L 430 193 L 430 684 C 430 709 419 720 394 720 L 104 720 C 79 720 68 709 68 684 L 68 563 C 68 538 79 527 104 527 L 196 527 L 196 193 L 84 193 C 59 193 48 182 48 157 L 48 36 C 48 11 59 0 84 0 Z" unicode="1" />
<glyph horiz-adv-x="639" d="M 552 0 C 577 0 588 11 588 36 L 588 153 C 588 178 577 189 552 189 L 267 189 L 267 210 C 267 232 273 234 293 240 L 429 283 C 526 313 585 359 585 460 L 585 554 C 585 662 523 720 409 720 L 114 720 C 89 720 78 709 78 684 L 78 567 C 78 542 89 531 114 531 L 331 531 C 351 531 358 525 358 505 C 358 483 352 475 331 469 L 197 427 C 105 399 40 363 40 208 L 40 36 C 40 11 51 0 76 0 Z" unicode="2" />
<glyph horiz-adv-x="637" d="M 85 189 C 60 189 49 178 49 153 L 49 36 C 49 11 60 0 85 0 L 401 0 C 529 0 595 63 595 166 L 595 266 C 595 354 564 400 469 411 C 513 430 528 468 528 519 L 528 577 C 528 665 475 720 364 720 L 85 720 C 60 720 49 709 49 684 L 49 565 C 49 540 60 529 85 529 L 271 529 C 303 529 309 515 309 499 L 309 484 C 309 468 303 454 271 454 L 166 454 C 141 454 130 443 130 418 L 130 311 C 130 286 141 275 166 275 L 336 275 C 368 275 374 262 374 246 L 374 219 C 374 203 368 189 336 189 Z" unicode="3" />
<glyph horiz-adv-x="709" d="M 414 167 L 414 36 C 414 11 425 0 450 0 L 604 0 C 629 0 640 11 640 36 L 640 684 C 640 709 629 720 604 720 L 450 720 C 425 720 414 709 414 684 L 414 376 L 321 376 C 302 376 290 389 290 410 L 290 684 C 290 709 279 720 254 720 L 99 720 C 74 720 63 709 63 684 L 63 333 C 63 219 115 167 245 167 Z" unicode="4" />
<glyph horiz-adv-x="647" d="M 409 0 C 529 0 604 64 604 166 L 604 305 C 604 411 537 464 429 464 L 292 464 L 292 529 L 532 529 C 557 529 568 540 568 565 L 568 684 C 568 709 557 720 532 720 L 101 720 C 76 720 65 709 65 684 L 65 310 C 65 285 76 274 101 274 L 349 274 C 365 274 376 267 376 251 L 376 212 C 376 196 365 189 349 189 L 91 189 C 66 189 55 178 55 153 L 55 36 C 55 11 66 0 91 0 Z" unicode="5" />
<glyph horiz-adv-x="693" d="M 358 -15 C 588 -15 646 65 646 187 L 646 283 C 646 402 592 463 411 463 C 358 463 316 458 284 448 L 284 470 C 284 519 298 530 347 530 L 534 530 C 559 530 570 541 570 566 L 570 684 C 570 709 560 720 534 720 L 304 720 C 115 720 58 637 58 515 L 58 187 C 58 65 112 -15 358 -15 Z M 284 262 C 284 282 293 298 351 298 C 411 298 420 282 420 262 L 420 203 C 420 182 411 166 351 166 C 293 166 284 182 284 203 Z" unicode="6" />
<glyph horiz-adv-x="627" d="M 539 720 L 74 720 C 49 720 38 709 38 684 L 38 563 C 38 538 49 527 74 527 L 348 527 L 348 437 L 267 415 C 160 383 111 344 111 217 L 111 36 C 111 11 122 0 147 0 L 309 0 C 334 0 345 11 345 36 L 345 211 L 419 233 C 526 265 575 304 575 431 L 575 684 C 575 709 564 720 539 720 Z" unicode="7" />
<glyph horiz-adv-x="711" d="M 664 256 C 664 350 618 399 558 411 C 602 430 617 468 617 519 L 617 577 C 617 675 558 735 357 735 C 156 735 94 675 94 577 L 94 519 C 94 468 109 430 153 411 C 93 399 47 350 47 256 L 47 159 C 47 55 115 -15 356 -15 C 597 -15 664 55 664 159 Z M 293 480 L 293 524 C 293 544 300 560 356 560 C 413 560 418 544 418 524 L 418 480 C 418 459 413 443 356 443 C 300 443 293 459 293 480 Z M 268 197 L 268 250 C 268 270 284 286 356 286 C 429 286 443 270 443 250 L 443 197 C 443 176 429 160 356 160 C 284 160 268 176 268 197 Z" unicode="8" />
<glyph horiz-adv-x="693" d="M 389 0 C 578 0 635 83 635 205 L 635 533 C 635 655 581 735 335 735 C 105 735 47 655 47 533 L 47 437 C 47 318 101 257 282 257 C 335 257 377 262 409 272 L 409 250 C 409 201 395 190 346 190 L 159 190 C 134 190 123 179 123 154 L 123 36 C 123 11 133 0 159 0 Z M 409 458 C 409 438 400 422 342 422 C 282 422 273 438 273 458 L 273 517 C 273 538 282 554 342 554 C 400 554 409 538 409 517 Z" unicode="9" />
<glyph horiz-adv-x="384" d="M 293 0 C 318 0 329 11 329 36 L 329 239 C 329 265 318 275 293 275 L 91 275 C 66 275 55 265 55 239 L 55 36 C 55 11 66 0 91 0 Z M 293 355 C 318 355 329 366 329 391 L 329 594 C 329 620 318 630 293 630 L 91 630 C 66 630 55 620 55 594 L 55 391 C 55 366 66 355 91 355 Z" unicode=":" />
<glyph horiz-adv-x="384" d="M 181 -100 C 271 -100 329 -51 329 51 L 329 239 C 329 264 318 275 293 275 L 91 275 C 66 275 55 264 55 239 L 55 91 C 55 66 66 55 91 55 L 200 55 L 200 40 C 200 22 191 12 173 12 L 104 12 C 79 12 68 1 68 -24 L 68 -64 C 68 -90 79 -100 104 -100 Z M 293 355 C 318 355 329 366 329 391 L 329 594 C 329 620 318 630 293 630 L 91 630 C 66 630 55 620 55 594 L 55 391 C 55 366 66 355 91 355 Z" unicode=";" />
<glyph horiz-adv-x="714" d="M 588 59 C 613 54 624 64 624 90 L 624 222 C 624 248 613 259 588 263 L 301 340 C 287 343 284 347 284 359 C 284 371 287 375 301 378 L 588 455 C 613 459 624 470 624 496 L 624 628 C 624 654 613 664 588 659 L 207 550 C 124 526 80 494 80 395 L 80 323 C 80 224 124 192 207 168 Z" unicode="&#x3C;" />
<glyph horiz-adv-x="734" d="M 106 417 L 628 417 C 653 417 664 427 664 453 L 664 567 C 664 593 653 603 628 603 L 106 603 C 81 603 70 592 70 567 L 70 453 C 70 427 81 417 106 417 Z M 106 117 L 628 117 C 653 117 664 127 664 153 L 664 267 C 664 293 653 303 628 303 L 106 303 C 81 303 70 292 70 267 L 70 153 C 70 127 81 117 106 117 Z" unicode="=" />
<glyph horiz-adv-x="714" d="M 507 168 C 590 192 634 224 634 323 L 634 395 C 634 494 590 526 507 550 L 126 659 C 101 664 90 654 90 628 L 90 496 C 90 470 101 459 126 455 L 413 378 C 427 375 430 371 430 359 C 430 347 427 343 413 340 L 126 263 C 101 259 90 248 90 222 L 90 90 C 90 64 101 54 126 59 Z" unicode="&#x3E;" />
<glyph horiz-adv-x="656" d="M 456 273 C 551 286 611 327 611 439 L 611 544 C 611 658 534 720 404 720 L 81 720 C 56 720 45 709 45 684 L 45 563 C 45 537 56 527 81 527 L 357 527 C 374 527 384 518 384 499 C 384 479 377 471 357 468 L 158 440 C 133 437 121 425 125 399 L 146 267 C 150 242 160 233 185 236 Z M 344 0 C 369 0 380 11 380 36 L 380 167 C 380 193 369 203 344 203 L 161 203 C 135 203 125 193 125 167 L 125 36 C 125 11 135 0 161 0 Z" unicode="?" />
<glyph horiz-adv-x="867" d="M 624 -91 C 649 -91 658 -82 658 -57 L 658 -29 C 658 -4 649 5 624 5 L 434 5 C 214 5 160 64 160 150 L 160 568 C 160 655 214 715 434 715 C 654 715 707 655 707 568 L 707 302 C 707 249 697 211 645 211 L 645 560 C 645 578 637 586 619 586 L 394 586 C 258 586 218 527 218 439 L 218 246 C 218 159 258 100 394 100 L 583 100 C 771 100 807 182 807 304 L 807 564 C 807 711 735 811 434 811 C 134 811 60 711 60 564 L 60 154 C 60 8 134 -91 434 -91 Z M 415 237 C 388 237 381 251 381 271 L 381 422 C 381 440 387 458 425 458 L 482 458 L 482 237 Z" unicode="@" />
<glyph horiz-adv-x="730" d="M 330 510 C 335 522 341 527 349 527 L 374 527 C 382 527 388 522 393 510 L 440 358 L 283 358 Z M 273 36 L 273 176 L 450 176 L 450 36 C 450 11 462 0 489 0 L 640 0 C 665 0 676 11 676 36 L 676 300 C 676 340 664 390 637 460 L 550 687 C 542 710 526 720 500 720 L 231 720 C 204 720 188 710 180 687 L 93 460 C 66 390 54 340 54 300 L 54 36 C 54 11 65 0 90 0 L 237 0 C 262 0 273 11 273 36 Z" unicode="A" />
<glyph horiz-adv-x="725" d="M 489 0 C 622 0 683 52 683 164 L 683 256 C 683 354 643 403 557 411 C 597 428 616 463 616 519 L 616 567 C 616 672 555 720 424 720 L 105 720 C 80 720 69 709 69 684 L 69 36 C 69 11 80 0 105 0 Z M 294 550 L 379 550 C 405 550 417 537 417 510 L 417 482 C 417 455 405 442 379 442 L 294 442 Z M 294 288 L 424 288 C 450 288 462 276 462 249 L 462 210 C 462 183 450 170 424 170 L 294 170 Z" unicode="B" />
<glyph horiz-adv-x="628" d="M 548 0 C 573 0 584 11 584 36 L 584 155 C 584 180 573 191 548 191 L 347 191 C 305 191 286 206 286 239 L 286 477 C 286 511 305 527 347 527 L 548 527 C 573 527 584 538 584 563 L 584 684 C 584 709 573 720 548 720 L 304 720 C 136 720 58 655 58 515 L 58 204 C 58 65 136 0 304 0 Z" unicode="C" />
<glyph horiz-adv-x="746" d="M 442 0 C 610 0 688 65 688 204 L 688 516 C 688 655 610 720 442 720 L 105 720 C 80 720 69 709 69 684 L 69 36 C 69 11 80 0 105 0 Z M 296 529 L 415 529 C 447 529 462 514 462 481 L 462 238 C 462 204 447 189 415 189 L 296 189 Z" unicode="D" />
<glyph horiz-adv-x="654" d="M 569 0 C 594 0 605 11 605 36 L 605 153 C 605 178 594 189 569 189 L 293 189 L 293 275 L 488 275 C 513 275 524 286 524 311 L 524 418 C 524 443 513 454 488 454 L 293 454 L 293 531 L 569 531 C 594 531 605 542 605 567 L 605 684 C 605 709 594 720 569 720 L 105 720 C 80 720 69 709 69 684 L 69 36 C 69 11 80 0 105 0 Z" unicode="E" />
<glyph horiz-adv-x="618" d="M 260 0 C 285 0 296 11 296 36 L 296 233 L 470 233 C 495 233 506 244 506 269 L 506 389 C 506 414 495 425 470 425 L 296 425 L 296 529 L 551 529 C 576 529 587 540 587 565 L 587 684 C 587 709 576 720 551 720 L 105 720 C 80 720 69 709 69 684 L 69 36 C 69 11 80 0 105 0 Z" unicode="F" />
<glyph horiz-adv-x="708" d="M 619 0 C 644 0 655 11 655 36 L 655 345 C 655 370 644 381 619 381 L 464 381 C 439 381 428 370 428 345 L 428 189 L 331 189 C 300 189 285 204 285 238 L 285 477 C 285 511 304 527 346 527 L 554 527 C 579 527 590 538 590 563 L 590 684 C 590 709 579 720 554 720 L 304 720 C 136 720 58 655 58 516 L 58 204 C 58 65 136 0 304 0 Z" unicode="G" />
<glyph horiz-adv-x="759" d="M 260 0 C 285 0 296 11 296 36 L 296 258 L 463 258 L 463 36 C 463 11 474 0 499 0 L 654 0 C 679 0 690 11 690 36 L 690 684 C 690 709 679 720 654 720 L 499 720 C 474 720 463 709 463 684 L 463 467 L 296 467 L 296 684 C 296 709 285 720 260 720 L 105 720 C 80 720 69 709 69 684 L 69 36 C 69 11 80 0 105 0 Z" unicode="H" />
<glyph horiz-adv-x="605" d="M 89 0 L 515 0 C 540 0 551 11 551 36 L 551 155 C 551 180 540 191 515 191 L 418 191 L 418 527 L 515 527 C 540 527 551 538 551 563 L 551 684 C 551 709 540 720 515 720 L 89 720 C 64 720 53 709 53 684 L 53 563 C 53 538 64 527 89 527 L 188 527 L 188 191 L 89 191 C 64 191 53 180 53 155 L 53 36 C 53 11 64 0 89 0 Z" unicode="I" />
<glyph horiz-adv-x="688" d="M 624 189 L 624 684 C 624 709 613 720 588 720 L 431 720 C 406 720 395 709 395 684 L 395 229 C 395 202 387 182 329 182 C 267 182 258 202 258 229 L 258 351 C 258 377 247 387 222 387 L 77 387 C 52 387 41 377 41 351 L 41 189 C 41 67 98 -15 331 -15 C 566 -15 624 67 624 189 Z" unicode="J" />
<glyph horiz-adv-x="746" d="M 260 0 C 285 0 296 11 296 36 L 296 265 L 428 265 C 449 265 460 253 460 231 L 460 36 C 460 11 471 0 496 0 L 650 0 C 675 0 686 11 686 36 L 686 318 C 686 398 638 450 563 454 L 665 687 C 674 708 666 720 643 720 L 489 720 C 463 720 449 711 439 687 L 336 454 L 296 454 L 296 684 C 296 709 285 720 260 720 L 105 720 C 80 720 69 709 69 684 L 69 36 C 69 11 80 0 105 0 Z" unicode="K" />
<glyph horiz-adv-x="695" d="M 614 0 C 639 0 650 11 650 36 L 650 351 C 650 376 639 387 614 387 L 469 387 C 444 387 433 376 433 351 L 433 189 L 296 189 L 296 684 C 296 709 285 720 260 720 L 105 720 C 80 720 69 709 69 684 L 69 36 C 69 11 80 0 105 0 Z" unicode="L" />
<glyph horiz-adv-x="849" d="M 254 0 C 279 0 290 11 290 36 L 290 388 L 349 279 C 361 256 376 247 402 247 L 442 247 C 468 247 483 256 495 279 L 554 388 L 554 36 C 554 11 564 0 590 0 L 744 0 C 769 0 780 11 780 36 L 780 684 C 780 709 769 720 744 720 L 582 720 C 561 720 548 712 536 690 L 447 527 C 440 515 437 510 429 510 L 420 510 C 412 510 409 515 402 527 L 312 690 C 300 712 287 720 266 720 L 105 720 C 80 720 69 709 69 684 L 69 36 C 69 11 80 0 105 0 Z" unicode="M" />
<glyph horiz-adv-x="753" d="M 255 0 C 280 0 291 11 291 36 L 291 366 L 462 159 L 462 36 C 462 11 473 0 498 0 L 648 0 C 673 0 684 11 684 36 L 684 684 C 684 709 673 720 648 720 L 498 720 C 473 720 462 709 462 684 L 462 471 L 268 693 C 251 713 235 720 209 720 L 105 720 C 80 720 69 709 69 684 L 69 36 C 69 11 80 0 105 0 Z" unicode="N" />
<glyph horiz-adv-x="737" d="M 679 189 L 679 530 C 679 652 619 735 369 735 C 119 735 58 652 58 530 L 58 189 C 58 67 119 -15 369 -15 C 619 -15 679 67 679 189 Z M 285 225 L 285 494 C 285 520 297 540 369 540 C 442 540 453 520 453 494 L 453 225 C 453 198 442 178 369 178 C 297 178 285 198 285 225 Z" unicode="O" />
<glyph horiz-adv-x="682" d="M 260 0 C 285 0 296 11 296 36 L 296 202 L 411 202 C 593 202 647 281 647 397 L 647 525 C 647 641 593 720 411 720 L 105 720 C 80 720 69 709 69 684 L 69 36 C 69 11 80 0 105 0 Z M 294 533 L 384 533 C 423 533 431 510 431 484 L 431 431 C 431 405 423 382 384 382 L 294 382 Z" unicode="P" />
<glyph horiz-adv-x="737" d="M 445 -90 C 470 -90 481 -79 481 -54 L 481 1 C 638 23 679 97 679 198 L 679 530 C 679 652 619 735 369 735 C 119 735 58 652 58 530 L 58 198 C 58 97 100 24 255 1 L 255 -54 C 255 -79 266 -90 291 -90 Z M 285 220 L 285 493 C 285 519 297 539 369 539 C 442 539 453 519 453 493 L 453 220 C 453 193 442 173 369 173 C 297 173 285 193 285 220 Z" unicode="Q" />
<glyph horiz-adv-x="743" d="M 295 540 L 370 540 C 405 540 414 520 414 493 L 414 459 C 414 432 405 412 370 412 L 295 412 Z M 259 0 C 284 0 295 11 295 36 L 295 232 L 435 232 C 463 232 473 219 473 189 L 473 36 C 473 11 484 0 509 0 L 664 0 C 689 0 700 11 700 36 L 700 248 C 700 332 652 385 579 393 C 621 411 635 451 635 507 L 635 553 C 635 652 588 720 438 720 L 105 720 C 80 720 69 709 69 684 L 69 36 C 69 11 80 0 105 0 Z" unicode="R" />
<glyph horiz-adv-x="650" d="M 403 0 C 532 0 610 62 610 176 L 610 281 C 610 393 548 433 454 447 L 305 467 C 288 469 278 481 278 499 C 278 517 288 529 305 529 L 538 529 C 563 529 574 540 574 565 L 574 684 C 574 709 563 720 538 720 L 258 720 C 128 720 51 658 51 544 L 51 439 C 51 327 112 287 206 273 L 356 252 C 373 250 382 241 382 218 C 382 202 373 189 356 189 L 87 189 C 62 189 51 178 51 153 L 51 36 C 51 11 62 0 87 0 Z" unicode="S" />
<glyph horiz-adv-x="656" d="M 409 0 C 434 0 445 11 445 36 L 445 527 L 592 527 C 617 527 628 538 628 563 L 628 684 C 628 709 617 720 592 720 L 64 720 C 39 720 28 709 28 684 L 28 563 C 28 538 39 527 64 527 L 211 527 L 211 36 C 211 11 222 0 247 0 Z" unicode="T" />
<glyph horiz-adv-x="746" d="M 682 189 L 682 684 C 682 709 671 720 646 720 L 494 720 C 468 720 458 709 458 684 L 458 228 C 458 201 446 181 375 181 C 305 181 293 201 293 228 L 293 684 C 293 709 282 720 257 720 L 100 720 C 75 720 64 709 64 684 L 64 189 C 64 67 125 -15 373 -15 C 621 -15 682 67 682 189 Z" unicode="U" />
<glyph horiz-adv-x="730" d="M 495 0 C 521 0 536 8 546 33 L 644 278 C 668 338 676 357 676 420 L 676 684 C 676 709 666 720 640 720 L 483 720 C 458 720 447 709 447 684 L 447 409 C 447 395 444 383 439 368 L 392 227 C 388 214 384 210 373 210 L 362 210 C 351 210 347 214 343 227 L 296 367 C 291 382 288 394 288 408 L 288 684 C 288 709 274 720 249 720 L 90 720 C 65 720 54 709 54 684 L 54 420 C 54 357 62 338 86 278 L 184 33 C 194 8 209 0 235 0 Z" unicode="V" />
<glyph horiz-adv-x="831" d="M 586 720 C 560 720 550 709 550 684 L 550 316 L 492 442 C 481 465 465 473 439 473 L 397 473 C 371 473 355 465 344 442 L 286 316 L 286 684 C 286 709 275 720 250 720 L 96 720 C 71 720 60 709 60 684 L 60 298 C 60 255 60 223 78 174 L 128 36 C 135 15 150 0 172 0 L 304 0 C 325 0 340 10 346 30 L 393 193 C 397 206 403 210 411 210 L 420 210 C 428 210 434 206 438 193 L 484 30 C 490 9 508 0 530 0 L 663 0 C 684 0 696 16 703 36 L 753 172 C 771 221 771 253 771 296 L 771 684 C 771 709 760 720 735 720 Z" unicode="W" />
<glyph horiz-adv-x="737" d="M 251 0 C 276 0 287 11 287 36 L 287 230 C 287 252 298 265 319 265 L 419 265 C 440 265 451 252 451 230 L 451 36 C 451 11 462 0 487 0 L 641 0 C 666 0 677 11 677 36 L 677 317 C 677 382 645 430 591 446 L 656 685 C 662 708 654 720 629 720 L 477 720 C 451 720 440 710 434 685 L 386 454 L 353 454 L 305 685 C 299 710 287 720 261 720 L 110 720 C 86 720 78 708 84 685 L 149 446 C 93 431 60 383 60 317 L 60 36 C 60 11 71 0 96 0 Z" unicode="X" />
<glyph horiz-adv-x="705" d="M 434 0 C 459 0 470 11 470 36 L 470 163 L 622 369 C 652 410 660 430 660 492 L 660 684 C 660 709 649 720 624 720 L 475 720 C 450 720 439 709 439 684 L 439 520 C 439 506 439 492 430 478 L 384 406 C 377 394 371 389 360 389 L 350 389 C 339 389 333 394 326 406 L 280 478 C 271 492 271 506 271 520 L 271 684 C 271 709 260 720 235 720 L 81 720 C 56 720 45 709 45 684 L 45 492 C 45 430 52 410 83 369 L 236 164 L 236 36 C 236 11 246 0 272 0 Z" unicode="Y" />
<glyph horiz-adv-x="660" d="M 578 0 C 603 0 614 11 614 36 L 614 155 C 614 180 603 191 578 191 L 339 191 L 571 472 C 589 491 596 508 596 535 L 596 684 C 596 709 585 720 560 720 L 100 720 C 75 720 64 709 64 684 L 64 563 C 64 538 75 527 100 527 L 314 527 L 71 232 C 53 213 46 196 46 170 L 46 36 C 46 11 57 0 82 0 Z" unicode="Z" />
<glyph horiz-adv-x="429" d="M 276 607 L 348 607 C 373 607 384 618 384 643 L 384 764 C 384 789 373 800 348 800 L 84 800 C 59 800 48 789 48 764 L 48 -44 C 48 -69 59 -80 84 -80 L 348 -80 C 373 -80 384 -69 384 -44 L 384 75 C 384 100 373 111 348 111 L 276 111 Z" unicode="[" />
<glyph horiz-adv-x="347" d="M 222 774 C 219 799 211 810 186 810 L 41 810 C 16 810 2 799 5 774 L 125 -54 C 128 -79 136 -90 161 -90 L 306 -90 C 331 -90 345 -79 342 -54 Z" unicode="\" />
<glyph horiz-adv-x="429" d="M 153 111 L 81 111 C 56 111 45 100 45 75 L 45 -44 C 45 -69 56 -80 81 -80 L 345 -80 C 370 -80 381 -69 381 -44 L 381 764 C 381 789 370 800 345 800 L 81 800 C 56 800 45 789 45 764 L 45 643 C 45 618 56 607 81 607 L 153 607 Z" unicode="]" />
<glyph horiz-adv-x="714" d="M 40 208 C 35 183 45 172 70 172 L 202 171 C 228 170 240 181 243 206 L 321 495 C 324 509 327 513 340 512 C 352 513 355 509 358 495 L 436 206 C 439 181 451 170 477 171 L 609 172 C 634 172 644 183 639 208 L 531 589 C 506 672 475 717 376 717 L 303 717 C 204 717 172 672 148 589 Z" unicode="^" />
<glyph horiz-adv-x="734" d="M 106 -103 L 628 -103 C 653 -103 664 -93 664 -67 L 664 67 C 664 93 653 103 628 103 L 106 103 C 81 103 70 92 70 67 L 70 -67 C 70 -93 81 -103 106 -103 Z" unicode="_" />
<glyph horiz-adv-x="500" d="M 425 753 C 448 750 459 763 459 786 L 459 882 C 459 907 448 915 423 918 L 74 961 C 51 964 40 951 40 928 L 40 832 C 40 807 51 799 76 796 Z" unicode="`" />
<glyph horiz-adv-x="730" d="M 330 510 C 335 522 341 527 349 527 L 374 527 C 382 527 388 522 393 510 L 440 358 L 283 358 Z M 273 36 L 273 176 L 450 176 L 450 36 C 450 11 462 0 489 0 L 640 0 C 665 0 676 11 676 36 L 676 300 C 676 340 664 390 637 460 L 550 687 C 542 710 526 720 500 720 L 231 720 C 204 720 188 710 180 687 L 93 460 C 66 390 54 340 54 300 L 54 36 C 54 11 65 0 90 0 L 237 0 C 262 0 273 11 273 36 Z" unicode="a" />
<glyph horiz-adv-x="725" d="M 489 0 C 622 0 683 52 683 164 L 683 256 C 683 354 643 403 557 411 C 597 428 616 463 616 519 L 616 567 C 616 672 555 720 424 720 L 105 720 C 80 720 69 709 69 684 L 69 36 C 69 11 80 0 105 0 Z M 294 550 L 379 550 C 405 550 417 537 417 510 L 417 482 C 417 455 405 442 379 442 L 294 442 Z M 294 288 L 424 288 C 450 288 462 276 462 249 L 462 210 C 462 183 450 170 424 170 L 294 170 Z" unicode="b" />
<glyph horiz-adv-x="628" d="M 548 0 C 573 0 584 11 584 36 L 584 155 C 584 180 573 191 548 191 L 347 191 C 305 191 286 206 286 239 L 286 477 C 286 511 305 527 347 527 L 548 527 C 573 527 584 538 584 563 L 584 684 C 584 709 573 720 548 720 L 304 720 C 136 720 58 655 58 515 L 58 204 C 58 65 136 0 304 0 Z" unicode="c" />
<glyph horiz-adv-x="746" d="M 442 0 C 610 0 688 65 688 204 L 688 516 C 688 655 610 720 442 720 L 105 720 C 80 720 69 709 69 684 L 69 36 C 69 11 80 0 105 0 Z M 296 529 L 415 529 C 447 529 462 514 462 481 L 462 238 C 462 204 447 189 415 189 L 296 189 Z" unicode="d" />
<glyph horiz-adv-x="654" d="M 569 0 C 594 0 605 11 605 36 L 605 153 C 605 178 594 189 569 189 L 293 189 L 293 275 L 488 275 C 513 275 524 286 524 311 L 524 418 C 524 443 513 454 488 454 L 293 454 L 293 531 L 569 531 C 594 531 605 542 605 567 L 605 684 C 605 709 594 720 569 720 L 105 720 C 80 720 69 709 69 684 L 69 36 C 69 11 80 0 105 0 Z" unicode="e" />
<glyph horiz-adv-x="618" d="M 260 0 C 285 0 296 11 296 36 L 296 233 L 470 233 C 495 233 506 244 506 269 L 506 389 C 506 414 495 425 470 425 L 296 425 L 296 529 L 551 529 C 576 529 587 540 587 565 L 587 684 C 587 709 576 720 551 720 L 105 720 C 80 720 69 709 69 684 L 69 36 C 69 11 80 0 105 0 Z" unicode="f" />
<glyph horiz-adv-x="708" d="M 619 0 C 644 0 655 11 655 36 L 655 345 C 655 370 644 381 619 381 L 464 381 C 439 381 428 370 428 345 L 428 189 L 331 189 C 300 189 285 204 285 238 L 285 477 C 285 511 304 527 346 527 L 554 527 C 579 527 590 538 590 563 L 590 684 C 590 709 579 720 554 720 L 304 720 C 136 720 58 655 58 516 L 58 204 C 58 65 136 0 304 0 Z" unicode="g" />
<glyph horiz-adv-x="759" d="M 260 0 C 285 0 296 11 296 36 L 296 258 L 463 258 L 463 36 C 463 11 474 0 499 0 L 654 0 C 679 0 690 11 690 36 L 690 684 C 690 709 679 720 654 720 L 499 720 C 474 720 463 709 463 684 L 463 467 L 296 467 L 296 684 C 296 709 285 720 260 720 L 105 720 C 80 720 69 709 69 684 L 69 36 C 69 11 80 0 105 0 Z" unicode="h" />
<glyph horiz-adv-x="605" d="M 89 0 L 515 0 C 540 0 551 11 551 36 L 551 155 C 551 180 540 191 515 191 L 418 191 L 418 527 L 515 527 C 540 527 551 538 551 563 L 551 684 C 551 709 540 720 515 720 L 89 720 C 64 720 53 709 53 684 L 53 563 C 53 538 64 527 89 527 L 188 527 L 188 191 L 89 191 C 64 191 53 180 53 155 L 53 36 C 53 11 64 0 89 0 Z" unicode="i" />
<glyph horiz-adv-x="688" d="M 624 189 L 624 684 C 624 709 613 720 588 720 L 431 720 C 406 720 395 709 395 684 L 395 229 C 395 202 387 182 329 182 C 267 182 258 202 258 229 L 258 351 C 258 377 247 387 222 387 L 77 387 C 52 387 41 377 41 351 L 41 189 C 41 67 98 -15 331 -15 C 566 -15 624 67 624 189 Z" unicode="j" />
<glyph horiz-adv-x="746" d="M 260 0 C 285 0 296 11 296 36 L 296 265 L 428 265 C 449 265 460 253 460 231 L 460 36 C 460 11 471 0 496 0 L 650 0 C 675 0 686 11 686 36 L 686 318 C 686 398 638 450 563 454 L 665 687 C 674 708 666 720 643 720 L 489 720 C 463 720 449 711 439 687 L 336 454 L 296 454 L 296 684 C 296 709 285 720 260 720 L 105 720 C 80 720 69 709 69 684 L 69 36 C 69 11 80 0 105 0 Z" unicode="k" />
<glyph horiz-adv-x="695" d="M 614 0 C 639 0 650 11 650 36 L 650 351 C 650 376 639 387 614 387 L 469 387 C 444 387 433 376 433 351 L 433 189 L 296 189 L 296 684 C 296 709 285 720 260 720 L 105 720 C 80 720 69 709 69 684 L 69 36 C 69 11 80 0 105 0 Z" unicode="l" />
<glyph horiz-adv-x="849" d="M 254 0 C 279 0 290 11 290 36 L 290 388 L 349 279 C 361 256 376 247 402 247 L 442 247 C 468 247 483 256 495 279 L 554 388 L 554 36 C 554 11 564 0 590 0 L 744 0 C 769 0 780 11 780 36 L 780 684 C 780 709 769 720 744 720 L 582 720 C 561 720 548 712 536 690 L 447 527 C 440 515 437 510 429 510 L 420 510 C 412 510 409 515 402 527 L 312 690 C 300 712 287 720 266 720 L 105 720 C 80 720 69 709 69 684 L 69 36 C 69 11 80 0 105 0 Z" unicode="m" />
<glyph horiz-adv-x="753" d="M 255 0 C 280 0 291 11 291 36 L 291 366 L 462 159 L 462 36 C 462 11 473 0 498 0 L 648 0 C 673 0 684 11 684 36 L 684 684 C 684 709 673 720 648 720 L 498 720 C 473 720 462 709 462 684 L 462 471 L 268 693 C 251 713 235 720 209 720 L 105 720 C 80 720 69 709 69 684 L 69 36 C 69 11 80 0 105 0 Z" unicode="n" />
<glyph horiz-adv-x="737" d="M 679 189 L 679 530 C 679 652 619 735 369 735 C 119 735 58 652 58 530 L 58 189 C 58 67 119 -15 369 -15 C 619 -15 679 67 679 189 Z M 285 225 L 285 494 C 285 520 297 540 369 540 C 442 540 453 520 453 494 L 453 225 C 453 198 442 178 369 178 C 297 178 285 198 285 225 Z" unicode="o" />
<glyph horiz-adv-x="682" d="M 260 0 C 285 0 296 11 296 36 L 296 202 L 411 202 C 593 202 647 281 647 397 L 647 525 C 647 641 593 720 411 720 L 105 720 C 80 720 69 709 69 684 L 69 36 C 69 11 80 0 105 0 Z M 294 533 L 384 533 C 423 533 431 510 431 484 L 431 431 C 431 405 423 382 384 382 L 294 382 Z" unicode="p" />
<glyph horiz-adv-x="737" d="M 445 -90 C 470 -90 481 -79 481 -54 L 481 1 C 638 23 679 97 679 198 L 679 530 C 679 652 619 735 369 735 C 119 735 58 652 58 530 L 58 198 C 58 97 100 24 255 1 L 255 -54 C 255 -79 266 -90 291 -90 Z M 285 220 L 285 493 C 285 519 297 539 369 539 C 442 539 453 519 453 493 L 453 220 C 453 193 442 173 369 173 C 297 173 285 193 285 220 Z" unicode="q" />
<glyph horiz-adv-x="743" d="M 295 540 L 370 540 C 405 540 414 520 414 493 L 414 459 C 414 432 405 412 370 412 L 295 412 Z M 259 0 C 284 0 295 11 295 36 L 295 232 L 435 232 C 463 232 473 219 473 189 L 473 36 C 473 11 484 0 509 0 L 664 0 C 689 0 700 11 700 36 L 700 248 C 700 332 652 385 579 393 C 621 411 635 451 635 507 L 635 553 C 635 652 588 720 438 720 L 105 720 C 80 720 69 709 69 684 L 69 36 C 69 11 80 0 105 0 Z" unicode="r" />
<glyph horiz-adv-x="650" d="M 403 0 C 532 0 610 62 610 176 L 610 281 C 610 393 548 433 454 447 L 305 467 C 288 469 278 481 278 499 C 278 517 288 529 305 529 L 538 529 C 563 529 574 540 574 565 L 574 684 C 574 709 563 720 538 720 L 258 720 C 128 720 51 658 51 544 L 51 439 C 51 327 112 287 206 273 L 356 252 C 373 250 382 241 382 218 C 382 202 373 189 356 189 L 87 189 C 62 189 51 178 51 153 L 51 36 C 51 11 62 0 87 0 Z" unicode="s" />
<glyph horiz-adv-x="656" d="M 409 0 C 434 0 445 11 445 36 L 445 527 L 592 527 C 617 527 628 538 628 563 L 628 684 C 628 709 617 720 592 720 L 64 720 C 39 720 28 709 28 684 L 28 563 C 28 538 39 527 64 527 L 211 527 L 211 36 C 211 11 222 0 247 0 Z" unicode="t" />
<glyph horiz-adv-x="746" d="M 682 189 L 682 684 C 682 709 671 720 646 720 L 494 720 C 468 720 458 709 458 684 L 458 228 C 458 201 446 181 375 181 C 305 181 293 201 293 228 L 293 684 C 293 709 282 720 257 720 L 100 720 C 75 720 64 709 64 684 L 64 189 C 64 67 125 -15 373 -15 C 621 -15 682 67 682 189 Z" unicode="u" />
<glyph horiz-adv-x="730" d="M 495 0 C 521 0 536 8 546 33 L 644 278 C 668 338 676 357 676 420 L 676 684 C 676 709 666 720 640 720 L 483 720 C 458 720 447 709 447 684 L 447 409 C 447 395 444 383 439 368 L 392 227 C 388 214 384 210 373 210 L 362 210 C 351 210 347 214 343 227 L 296 367 C 291 382 288 394 288 408 L 288 684 C 288 709 274 720 249 720 L 90 720 C 65 720 54 709 54 684 L 54 420 C 54 357 62 338 86 278 L 184 33 C 194 8 209 0 235 0 Z" unicode="v" />
<glyph horiz-adv-x="831" d="M 586 720 C 560 720 550 709 550 684 L 550 316 L 492 442 C 481 465 465 473 439 473 L 397 473 C 371 473 355 465 344 442 L 286 316 L 286 684 C 286 709 275 720 250 720 L 96 720 C 71 720 60 709 60 684 L 60 298 C 60 255 60 223 78 174 L 128 36 C 135 15 150 0 172 0 L 304 0 C 325 0 340 10 346 30 L 393 193 C 397 206 403 210 411 210 L 420 210 C 428 210 434 206 438 193 L 484 30 C 490 9 508 0 530 0 L 663 0 C 684 0 696 16 703 36 L 753 172 C 771 221 771 253 771 296 L 771 684 C 771 709 760 720 735 720 Z" unicode="w" />
<glyph horiz-adv-x="737" d="M 251 0 C 276 0 287 11 287 36 L 287 230 C 287 252 298 265 319 265 L 419 265 C 440 265 451 252 451 230 L 451 36 C 451 11 462 0 487 0 L 641 0 C 666 0 677 11 677 36 L 677 317 C 677 382 645 430 591 446 L 656 685 C 662 708 654 720 629 720 L 477 720 C 451 720 440 710 434 685 L 386 454 L 353 454 L 305 685 C 299 710 287 720 261 720 L 110 720 C 86 720 78 708 84 685 L 149 446 C 93 431 60 383 60 317 L 60 36 C 60 11 71 0 96 0 Z" unicode="x" />
<glyph horiz-adv-x="705" d="M 434 0 C 459 0 470 11 470 36 L 470 163 L 622 369 C 652 410 660 430 660 492 L 660 684 C 660 709 649 720 624 720 L 475 720 C 450 720 439 709 439 684 L 439 520 C 439 506 439 492 430 478 L 384 406 C 377 394 371 389 360 389 L 350 389 C 339 389 333 394 326 406 L 280 478 C 271 492 271 506 271 520 L 271 684 C 271 709 260 720 235 720 L 81 720 C 56 720 45 709 45 684 L 45 492 C 45 430 52 410 83 369 L 236 164 L 236 36 C 236 11 246 0 272 0 Z" unicode="y" />
<glyph horiz-adv-x="660" d="M 578 0 C 603 0 614 11 614 36 L 614 155 C 614 180 603 191 578 191 L 339 191 L 571 472 C 589 491 596 508 596 535 L 596 684 C 596 709 585 720 560 720 L 100 720 C 75 720 64 709 64 684 L 64 563 C 64 538 75 527 100 527 L 314 527 L 71 232 C 53 213 46 196 46 170 L 46 36 C 46 11 57 0 82 0 Z" unicode="z" />
<glyph horiz-adv-x="455" d="M 312 161 L 312 276 C 312 316 302 332 267 338 L 234 344 C 224 346 221 349 221 358 C 221 367 224 371 234 372 L 267 378 C 302 384 312 400 312 440 L 312 557 C 312 592 321 607 353 607 L 374 607 C 399 607 410 618 410 643 L 410 764 C 410 789 399 800 374 800 L 330 800 C 141 800 84 717 84 595 L 84 462 C 41 449 20 424 20 376 L 20 341 C 20 293 41 267 84 254 L 84 124 C 84 3 141 -80 330 -80 L 374 -80 C 399 -80 410 -69 410 -44 L 410 75 C 410 100 399 111 374 111 L 353 111 C 321 111 312 126 312 161 Z" unicode="{" />
<glyph horiz-adv-x="347" d="M 282 774 C 282 799 271 810 246 810 L 101 810 C 76 810 65 799 65 774 L 65 -54 C 65 -79 76 -90 101 -90 L 246 -90 C 271 -90 282 -79 282 -54 Z" unicode="|" />
<glyph horiz-adv-x="455" d="M 143 161 C 143 126 134 111 102 111 L 81 111 C 56 111 45 100 45 75 L 45 -44 C 45 -69 56 -80 81 -80 L 125 -80 C 314 -80 371 3 371 124 L 371 254 C 414 267 435 293 435 341 L 435 376 C 435 424 414 449 371 462 L 371 595 C 371 717 314 800 125 800 L 81 800 C 56 800 45 789 45 764 L 45 643 C 45 618 56 607 81 607 L 102 607 C 134 607 143 592 143 557 L 143 440 C 143 400 153 384 188 378 L 221 372 C 231 371 234 367 234 358 C 234 349 231 346 221 344 L 188 338 C 153 332 143 316 143 276 Z" unicode="}" />
<glyph horiz-adv-x="734" d="M 367 277 L 390 274 C 503 257 524 250 627 286 C 645 293 664 304 664 339 L 664 438 C 664 468 647 479 612 469 C 529 444 523 440 398 458 L 367 462 L 343 465 C 229 482 210 489 107 453 C 87 446 70 435 70 400 L 70 294 C 70 271 87 260 121 269 C 196 292 219 298 327 282 Z" unicode="~" />
<glyph horiz-adv-x="423" d="M 120 720 C 95 720 84 709 84 684 L 84 553 C 84 527 95 517 120 517 L 304 517 C 329 517 340 527 340 553 L 340 684 C 340 709 329 720 304 720 Z M 134 458 C 109 458 98 447 97 422 L 82 36 C 81 11 91 0 116 0 L 307 0 C 332 0 342 11 341 36 L 327 422 C 326 447 314 458 289 458 Z" unicode="¡" />
<glyph horiz-adv-x="628" d="M 471 -14 L 471 40 L 548 40 C 573 40 584 51 584 76 L 584 195 C 584 220 573 231 548 231 L 347 231 C 295 231 286 251 286 279 L 286 437 C 286 463 295 487 347 487 L 548 487 C 573 487 584 498 584 523 L 584 644 C 584 669 573 680 548 680 L 471 680 L 471 734 C 471 759 460 770 435 770 L 290 770 C 265 770 254 759 254 734 L 254 678 C 105 664 58 585 58 475 L 58 244 C 58 134 105 56 254 42 L 254 -14 C 254 -39 265 -50 290 -50 L 435 -50 C 460 -50 471 -39 471 -14 Z" unicode="¢" />
<glyph horiz-adv-x="695" d="M 650 36 L 650 291 C 650 316 639 327 614 327 L 469 327 C 444 327 433 316 433 291 L 433 189 L 296 189 L 296 265 L 344 265 C 369 265 380 275 380 301 L 380 408 C 380 434 369 444 344 444 L 296 444 L 296 477 C 296 503 305 527 357 527 L 505 527 C 530 527 541 538 541 563 L 541 684 C 541 709 530 720 505 720 L 315 720 C 126 720 69 637 69 516 L 69 444 L 56 444 C 31 444 20 433 20 408 L 20 301 C 20 275 31 265 56 265 L 69 265 L 69 36 C 69 11 80 0 105 0 L 614 0 C 639 0 650 11 650 36 Z" unicode="£" />
<glyph horiz-adv-x="821" d="M 333 289 L 333 430 C 333 455 345 474 413 474 C 482 474 493 455 493 430 L 493 289 C 493 263 482 244 413 244 C 345 244 333 263 333 289 Z M 184 8 L 269 93 C 306 82 353 76 413 76 C 471 76 518 82 554 92 L 638 8 C 654 -9 668 -10 686 8 L 762 84 C 781 103 780 117 762 133 L 672 223 C 673 235 674 247 674 260 L 674 459 C 674 472 673 485 672 497 L 762 587 C 780 603 781 617 762 635 L 686 711 C 668 730 654 729 638 711 L 554 627 C 518 638 472 644 413 644 C 353 644 305 638 269 626 L 184 711 C 168 729 153 729 135 711 L 59 635 C 41 617 42 603 59 587 L 153 493 C 152 482 151 471 151 459 L 151 260 C 151 249 152 237 153 227 L 59 133 C 42 117 42 102 59 84 L 135 8 C 154 -10 168 -9 184 8 Z" unicode="¤" />
<glyph horiz-adv-x="703" d="M 464 36 L 464 130 L 573 130 C 598 130 609 140 609 166 L 609 263 C 609 289 598 299 573 299 L 520 299 L 630 441 C 658 479 659 520 659 571 L 659 684 C 659 709 648 720 623 720 L 476 720 C 450 720 440 709 440 684 L 440 539 C 440 525 441 512 432 498 L 389 434 C 381 422 374 417 363 417 L 351 417 C 340 417 333 423 325 434 L 279 499 C 272 514 271 526 271 540 L 271 684 C 271 709 260 720 235 720 L 80 720 C 55 720 44 709 44 684 L 44 572 C 44 521 44 480 73 442 L 184 299 L 131 299 C 106 299 95 288 95 263 L 95 166 C 95 140 106 130 131 130 L 240 130 L 240 36 C 240 11 250 0 276 0 L 428 0 C 453 0 464 11 464 36 Z" unicode="¥" />
<glyph horiz-adv-x="347" d="M 282 774 C 282 799 271 810 246 810 L 101 810 C 76 810 65 799 65 774 L 65 436 C 65 411 76 400 101 400 L 246 400 C 271 400 282 411 282 436 Z M 282 284 C 282 309 271 320 246 320 L 101 320 C 76 320 65 309 65 284 L 65 -54 C 65 -79 76 -90 101 -90 L 246 -90 C 271 -90 282 -79 282 -54 Z" unicode="¦" />
<glyph horiz-adv-x="650" d="M 364 0 C 553 0 610 83 610 205 L 610 311 C 610 432 553 515 364 515 L 270 515 L 270 517 C 270 543 279 567 331 567 L 538 567 C 563 567 574 578 574 603 L 574 684 C 574 709 563 720 538 720 L 298 720 C 109 720 52 637 52 515 L 52 409 C 52 288 109 205 298 205 L 392 205 L 392 203 C 392 177 383 153 331 153 L 98 153 C 73 153 62 142 62 117 L 62 36 C 62 11 73 0 98 0 Z M 331 326 C 279 326 270 346 270 374 L 270 394 L 331 394 C 383 394 392 374 392 346 L 392 326 Z" unicode="§" />
<glyph horiz-adv-x="500" d="M 446 760 C 469 760 479 770 479 793 L 479 914 C 479 937 469 947 446 947 L 308 947 C 285 947 275 937 275 914 L 275 793 C 275 770 285 760 308 760 Z M 188 760 C 211 760 221 770 221 793 L 221 914 C 221 937 211 947 188 947 L 50 947 C 27 947 16 937 16 914 L 16 793 C 16 770 27 760 50 760 Z" unicode="¨" />
<glyph horiz-adv-x="867" d="M 807 154 L 807 564 C 807 711 735 811 434 811 C 134 811 60 711 60 564 L 60 154 C 60 8 134 -91 434 -91 C 735 -91 807 8 807 154 Z M 707 150 C 707 64 654 5 434 5 C 214 5 160 64 160 150 L 160 568 C 160 655 214 715 434 715 C 654 715 707 655 707 568 Z M 589 110 C 607 110 615 118 615 136 L 615 221 C 615 239 607 247 589 247 L 445 247 C 407 247 401 261 401 281 L 401 452 C 401 470 407 488 445 488 L 589 488 C 607 488 615 496 615 513 L 615 600 C 615 618 607 626 589 626 L 414 626 C 278 626 238 567 238 479 L 238 256 C 238 169 278 110 414 110 Z" unicode="©" />
<glyph horiz-adv-x="520" d="M 243 568 C 244 573 247 578 251 578 L 264 578 C 267 578 271 573 273 568 L 307 463 L 208 463 Z M 199 232 L 199 327 L 316 327 L 316 232 C 316 212 326 202 346 202 L 454 202 C 476 202 484 212 484 232 L 484 411 C 484 451 475 488 464 519 L 402 688 C 392 711 381 720 355 720 L 166 720 C 139 720 128 711 118 688 C 99 634 76 574 57 519 C 45 488 36 451 36 411 L 36 232 C 36 212 46 202 66 202 L 169 202 C 190 202 199 212 199 232 Z M 72 0 L 448 0 C 473 0 484 10 484 36 L 484 103 C 484 129 473 139 448 139 L 72 139 C 47 139 36 128 36 103 L 36 36 C 36 10 47 0 72 0 Z" unicode="ª" />
<glyph horiz-adv-x="812" d="M 356 106 C 380 99 392 113 392 137 L 392 254 C 392 280 380 296 356 303 L 261 330 C 247 335 244 337 244 349 C 244 361 248 363 261 368 L 356 396 C 379 405 392 419 392 445 L 392 562 C 392 588 377 599 356 593 L 177 541 C 94 516 50 485 50 386 L 50 312 C 50 213 94 181 177 157 Z M 716 109 C 740 102 752 116 752 140 L 752 254 C 752 280 740 296 716 303 L 621 330 C 607 334 604 337 604 349 C 604 361 608 364 621 368 L 716 396 C 739 405 752 419 752 445 L 752 559 C 752 582 739 597 716 590 L 547 541 C 463 517 420 485 420 386 L 420 312 C 420 213 464 181 547 157 Z" unicode="«" />
<glyph horiz-adv-x="734" d="M 628 63 C 654 63 664 74 664 99 L 664 457 C 664 483 653 493 628 493 L 106 493 C 81 493 70 482 70 457 L 70 343 C 70 317 81 307 106 307 L 468 307 L 468 99 C 468 74 478 63 504 63 Z" unicode="¬" />
<glyph horiz-adv-x="560" d="M 504 345 L 504 591 C 504 680 461 740 280 740 C 100 740 56 680 56 591 L 56 345 C 56 258 100 198 280 198 C 461 198 504 258 504 345 Z M 444 343 C 444 291 412 256 280 256 C 148 256 116 291 116 343 L 116 594 C 116 646 148 682 280 682 C 412 682 444 646 444 594 Z M 248 548 L 279 548 C 294 548 297 539 297 528 L 297 515 C 297 503 294 495 279 495 L 248 495 Z M 234 326 C 244 326 248 331 248 341 L 248 424 L 306 424 C 317 424 321 419 321 407 L 321 341 C 321 331 326 326 336 326 L 400 326 C 410 326 414 331 414 341 L 414 428 C 414 462 394 484 364 488 C 382 495 388 511 388 534 L 388 553 C 388 594 369 621 307 621 L 171 621 C 160 621 156 617 156 606 L 156 341 C 156 331 160 326 171 326 Z" unicode="®" />
<glyph horiz-adv-x="500" d="M 423 760 C 448 760 459 771 459 796 L 459 889 C 459 914 448 925 423 925 L 76 925 C 51 925 40 914 40 889 L 40 796 C 40 771 51 760 76 760 Z" unicode="¯" />
<glyph horiz-adv-x="483" d="M 438 425 L 438 609 C 438 678 400 725 242 725 C 84 725 45 678 45 609 L 45 425 C 45 356 84 309 242 309 C 400 309 438 356 438 425 Z M 192 474 L 192 559 C 192 574 200 587 242 587 C 286 587 292 574 292 559 L 292 474 C 292 458 284 447 242 447 C 200 447 192 458 192 474 Z" unicode="°" />
<glyph horiz-adv-x="734" d="M 465 161 L 465 329 L 628 329 C 653 329 664 339 664 365 L 664 479 C 664 505 653 515 628 515 L 465 515 L 465 683 C 465 708 454 719 429 719 L 305 719 C 279 719 269 708 269 683 L 269 515 L 106 515 C 81 515 70 504 70 479 L 70 365 C 70 339 81 329 106 329 L 269 329 L 269 161 C 269 136 279 125 305 125 L 429 125 C 455 125 465 136 465 161 Z M 106 1 L 628 1 C 653 1 664 11 664 37 L 664 151 C 664 177 653 187 628 187 L 106 187 C 81 187 70 176 70 151 L 70 37 C 70 11 81 1 106 1 Z" unicode="±" />
<glyph horiz-adv-x="485" d="M 408 202 C 426 202 434 210 434 228 L 434 312 C 434 330 426 338 408 338 L 203 338 L 203 353 C 203 369 207 370 222 375 L 320 406 C 390 427 432 460 432 533 L 432 601 C 432 678 387 720 305 720 L 93 720 C 75 720 67 712 67 694 L 67 610 C 67 592 75 584 93 584 L 249 584 C 264 584 269 580 269 565 C 269 550 264 544 249 539 L 153 509 C 87 489 40 463 40 352 L 40 228 C 40 210 48 202 66 202 Z" unicode="²" />
<glyph horiz-adv-x="484" d="M 75 338 C 57 338 49 330 49 312 L 49 228 C 49 210 57 202 75 202 L 303 202 C 395 202 443 247 443 321 L 443 393 C 443 457 420 490 352 498 C 384 511 394 539 394 575 L 394 617 C 394 681 356 720 276 720 L 75 720 C 57 720 49 712 49 694 L 49 609 C 49 591 57 583 75 583 L 209 583 C 232 583 237 573 237 561 L 237 550 C 237 539 232 529 209 529 L 134 529 C 116 529 108 521 108 503 L 108 426 C 108 408 116 400 134 400 L 256 400 C 279 400 283 390 283 379 L 283 359 C 283 348 279 338 256 338 Z" unicode="³" />
<glyph horiz-adv-x="500" d="M 423 796 C 448 799 459 807 459 832 L 459 928 C 459 951 448 964 425 961 L 76 918 C 51 915 40 907 40 882 L 40 786 C 40 763 51 750 74 753 Z" unicode="´" />
<glyph horiz-adv-x="713" d="M 288 -54 L 288 -7 C 314 -12 344 -15 378 -15 C 602 -15 657 67 657 189 L 657 534 C 657 559 646 570 621 570 L 469 570 C 443 570 433 559 433 534 L 433 218 C 433 191 422 171 360 171 C 299 171 288 191 288 218 L 288 534 C 288 559 277 570 252 570 L 97 570 C 72 570 61 559 61 534 L 61 -54 C 61 -79 72 -90 97 -90 L 252 -90 C 277 -90 288 -79 288 -54 Z" unicode="µ" />
<glyph horiz-adv-x="682" d="M 339 0 C 364 0 375 11 375 36 L 375 202 L 426 202 L 426 36 C 426 11 437 0 462 0 L 577 0 C 602 0 613 11 613 36 L 613 684 C 613 709 602 720 577 720 L 271 720 C 89 720 35 641 35 525 L 35 397 C 35 301 72 230 188 209 L 188 36 C 188 11 199 0 224 0 Z" unicode="¶" />
<glyph horiz-adv-x="364" d="M 283 220 C 308 220 319 231 319 256 L 319 459 C 319 485 308 495 283 495 L 81 495 C 56 495 45 485 45 459 L 45 256 C 45 231 56 220 81 220 Z" unicode="·" />
<glyph horiz-adv-x="500" d="M 264 -126 C 290 -126 303 -117 310 -96 L 373 81 C 380 100 375 113 353 121 L 237 164 C 213 173 201 166 193 144 L 108 -86 C 99 -110 104 -126 138 -126 Z" unicode="¸" />
<glyph horiz-adv-x="457" d="M 392 202 C 410 202 418 210 418 228 L 418 315 C 418 333 410 341 392 341 L 323 341 L 323 694 C 323 712 315 720 297 720 L 88 720 C 70 720 62 712 62 694 L 62 607 C 62 589 70 581 88 581 L 155 581 L 155 341 L 74 341 C 56 341 48 333 48 315 L 48 228 C 48 210 56 202 74 202 Z" unicode="¹" />
<glyph horiz-adv-x="525" d="M 486 340 L 486 581 C 486 670 443 730 263 730 C 83 730 39 670 39 581 L 39 340 C 39 252 83 192 263 192 C 443 192 486 252 486 340 Z M 208 365 L 208 555 C 208 571 216 584 263 584 C 311 584 318 571 318 555 L 318 365 C 318 349 311 337 263 337 C 216 337 208 349 208 365 Z M 75 0 L 450 0 C 475 0 486 10 486 36 L 486 103 C 486 129 475 139 450 139 L 75 139 C 50 139 39 128 39 103 L 39 36 C 39 10 50 0 75 0 Z" unicode="º" />
<glyph horiz-adv-x="812" d="M 456 106 L 635 157 C 718 181 762 213 762 312 L 762 386 C 762 485 718 517 635 541 L 456 593 C 432 600 420 588 420 562 L 420 445 C 420 419 432 403 456 396 L 551 368 C 564 363 568 361 568 349 C 568 337 565 335 551 330 L 456 303 C 432 296 420 280 420 254 L 420 137 C 420 111 432 99 456 106 Z M 265 157 C 348 181 392 213 392 312 L 392 386 C 392 485 349 517 265 541 L 96 590 C 72 598 60 585 60 559 L 60 445 C 60 419 73 405 96 396 L 191 368 C 204 364 208 361 208 349 C 208 337 205 334 191 330 L 96 303 C 72 296 60 280 60 254 L 60 140 C 60 114 72 102 96 109 Z" unicode="»" />
<glyph horiz-adv-x="1203" d="M 392 202 C 410 202 418 210 418 228 L 418 315 C 418 333 410 341 392 341 L 323 341 L 323 694 C 323 712 315 720 297 720 L 88 720 C 70 720 62 712 62 694 L 62 607 C 62 589 70 581 88 581 L 155 581 L 155 341 L 74 341 C 56 341 48 333 48 315 L 48 228 C 48 210 56 202 74 202 Z M 991 120 L 991 26 C 991 8 999 0 1017 0 L 1128 0 C 1146 0 1153 8 1153 26 L 1153 492 C 1153 510 1146 518 1128 518 L 1017 518 C 999 518 991 510 991 492 L 991 270 L 924 270 C 910 270 901 280 901 295 L 901 492 C 901 510 894 518 876 518 L 764 518 C 746 518 738 510 738 492 L 738 239 C 738 157 775 120 869 120 Z M 425 36 C 420 11 436 0 461 0 L 576 0 C 601 0 607 11 612 36 L 732 684 C 737 709 721 720 696 720 L 581 720 C 556 720 550 709 545 684 Z" unicode="¼" />
<glyph horiz-adv-x="1160" d="M 392 202 C 410 202 418 210 418 228 L 418 315 C 418 333 410 341 392 341 L 323 341 L 323 694 C 323 712 315 720 297 720 L 88 720 C 70 720 62 712 62 694 L 62 607 C 62 589 70 581 88 581 L 155 581 L 155 341 L 74 341 C 56 341 48 333 48 315 L 48 228 C 48 210 56 202 74 202 Z M 1083 0 C 1101 0 1109 8 1109 26 L 1109 110 C 1109 128 1101 136 1083 136 L 878 136 L 878 151 C 878 167 882 168 897 173 L 995 204 C 1065 225 1107 258 1107 331 L 1107 399 C 1107 476 1062 518 980 518 L 768 518 C 750 518 742 510 742 492 L 742 408 C 742 390 750 382 768 382 L 924 382 C 939 382 944 378 944 363 C 944 348 939 342 924 337 L 828 307 C 762 287 715 261 715 150 L 715 26 C 715 8 723 0 741 0 Z M 425 36 C 420 11 436 0 461 0 L 576 0 C 601 0 607 11 612 36 L 732 684 C 737 709 721 720 696 720 L 581 720 C 556 720 550 709 545 684 Z" unicode="½" />
<glyph horiz-adv-x="1213" d="M 75 338 C 57 338 49 330 49 312 L 49 228 C 49 210 57 202 75 202 L 303 202 C 395 202 443 247 443 321 L 443 393 C 443 457 420 490 352 498 C 384 511 394 539 394 575 L 394 617 C 394 681 356 720 276 720 L 75 720 C 57 720 49 712 49 694 L 49 609 C 49 591 57 583 75 583 L 209 583 C 232 583 237 573 237 561 L 237 550 C 237 539 232 529 209 529 L 134 529 C 116 529 108 521 108 503 L 108 426 C 108 408 116 400 134 400 L 256 400 C 279 400 283 390 283 379 L 283 359 C 283 348 279 338 256 338 Z M 1001 120 L 1001 26 C 1001 8 1009 0 1027 0 L 1138 0 C 1156 0 1163 8 1163 26 L 1163 492 C 1163 510 1156 518 1138 518 L 1027 518 C 1009 518 1001 510 1001 492 L 1001 270 L 934 270 C 920 270 911 280 911 295 L 911 492 C 911 510 904 518 886 518 L 774 518 C 756 518 748 510 748 492 L 748 239 C 748 157 785 120 879 120 Z M 435 36 C 430 11 446 0 471 0 L 586 0 C 611 0 617 11 622 36 L 742 684 C 747 709 731 720 706 720 L 591 720 C 566 720 560 709 555 684 Z" unicode="¾" />
<glyph horiz-adv-x="656" d="M 312 720 C 287 720 276 709 276 684 L 276 553 C 276 527 287 517 312 517 L 495 517 C 521 517 531 527 531 553 L 531 684 C 531 709 521 720 495 720 Z M 200 447 C 105 434 45 393 45 281 L 45 176 C 45 62 122 0 252 0 L 575 0 C 600 0 611 11 611 36 L 611 157 C 611 183 600 193 575 193 L 299 193 C 282 193 272 202 272 221 C 272 241 279 249 299 252 L 498 280 C 523 283 535 295 531 321 L 510 453 C 506 478 496 487 471 484 Z" unicode="¿" />
<glyph horiz-adv-x="730" d="M 330 510 C 335 522 341 527 349 527 L 374 527 C 382 527 388 522 393 510 L 440 358 L 283 358 Z M 273 36 L 273 176 L 450 176 L 450 36 C 450 11 462 0 489 0 L 640 0 C 665 0 676 11 676 36 L 676 300 C 676 340 664 390 637 460 L 550 687 C 542 710 526 720 500 720 L 231 720 C 204 720 188 710 180 687 L 93 460 C 66 390 54 340 54 300 L 54 36 C 54 11 65 0 90 0 L 237 0 C 262 0 273 11 273 36 Z M 540 753 C 563 750 574 763 574 786 L 574 882 C 574 907 563 915 538 918 L 189 961 C 166 964 155 951 155 928 L 155 832 C 155 807 166 799 191 796 Z" unicode="À" />
<glyph horiz-adv-x="730" d="M 330 510 C 335 522 341 527 349 527 L 374 527 C 382 527 388 522 393 510 L 440 358 L 283 358 Z M 273 36 L 273 176 L 450 176 L 450 36 C 450 11 462 0 489 0 L 640 0 C 665 0 676 11 676 36 L 676 300 C 676 340 664 390 637 460 L 550 687 C 542 710 526 720 500 720 L 231 720 C 204 720 188 710 180 687 L 93 460 C 66 390 54 340 54 300 L 54 36 C 54 11 65 0 90 0 L 237 0 C 262 0 273 11 273 36 Z M 538 796 C 563 799 574 807 574 832 L 574 928 C 574 951 563 964 540 961 L 191 918 C 166 915 155 907 155 882 L 155 786 C 155 763 166 750 189 753 Z" unicode="Á" />
<glyph horiz-adv-x="730" d="M 330 510 C 335 522 341 527 349 527 L 374 527 C 382 527 388 522 393 510 L 440 358 L 283 358 Z M 273 36 L 273 176 L 450 176 L 450 36 C 450 11 462 0 489 0 L 640 0 C 665 0 676 11 676 36 L 676 300 C 676 340 664 390 637 460 L 550 687 C 542 710 526 720 500 720 L 231 720 C 204 720 188 710 180 687 L 93 460 C 66 390 54 340 54 300 L 54 36 C 54 11 65 0 90 0 L 237 0 C 262 0 273 11 273 36 Z M 333 797 C 356 803 372 803 395 797 L 532 757 C 567 746 574 752 574 788 L 574 869 C 574 905 566 909 532 922 L 395 972 C 385 976 375 977 363 977 C 351 976 336 973 324 968 L 196 922 C 164 909 155 905 155 869 L 155 788 C 155 752 162 746 196 757 Z" unicode="Â" />
<glyph horiz-adv-x="730" d="M 330 510 C 335 522 341 527 349 527 L 374 527 C 382 527 388 522 393 510 L 440 358 L 283 358 Z M 273 36 L 273 176 L 450 176 L 450 36 C 450 11 462 0 489 0 L 640 0 C 665 0 676 11 676 36 L 676 300 C 676 340 664 390 637 460 L 550 687 C 542 710 526 720 500 720 L 231 720 C 204 720 188 710 180 687 L 93 460 C 66 390 54 340 54 300 L 54 36 C 54 11 65 0 90 0 L 237 0 C 262 0 273 11 273 36 Z M 364 764 L 380 762 C 460 750 474 748 537 767 C 560 776 573 783 573 808 L 573 909 C 573 934 561 942 537 935 C 478 917 474 914 386 927 L 364 930 L 347 932 C 267 944 254 946 191 927 C 168 918 155 911 155 886 L 155 785 C 155 760 167 752 191 759 C 244 775 260 779 336 768 Z" unicode="Ã" />
<glyph horiz-adv-x="730" d="M 330 510 C 335 522 341 527 349 527 L 374 527 C 382 527 388 522 393 510 L 440 358 L 283 358 Z M 273 36 L 273 176 L 450 176 L 450 36 C 450 11 462 0 489 0 L 640 0 C 665 0 676 11 676 36 L 676 300 C 676 340 664 390 637 460 L 550 687 C 542 710 526 720 500 720 L 231 720 C 204 720 188 710 180 687 L 93 460 C 66 390 54 340 54 300 L 54 36 C 54 11 65 0 90 0 L 237 0 C 262 0 273 11 273 36 Z M 561 760 C 584 760 594 770 594 793 L 594 914 C 594 937 584 947 561 947 L 423 947 C 400 947 390 937 390 914 L 390 793 C 390 770 400 760 423 760 Z M 303 760 C 326 760 336 770 336 793 L 336 914 C 336 937 326 947 303 947 L 165 947 C 142 947 131 937 131 914 L 131 793 C 131 770 142 760 165 760 Z" unicode="Ä" />
<glyph horiz-adv-x="730" d="M 425 764 C 425 735 416 721 366 721 C 317 721 309 735 309 764 L 309 799 C 309 825 317 839 366 839 C 416 839 425 825 425 799 Z M 330 510 C 334 522 341 527 349 527 L 374 527 C 382 527 389 522 393 510 L 440 358 L 283 358 Z M 273 36 L 273 176 L 450 176 L 450 36 C 450 11 462 0 489 0 L 640 0 C 665 0 676 11 676 36 L 676 300 C 676 340 664 390 637 460 L 553 680 C 574 704 582 735 582 771 L 582 829 C 582 914 539 972 365 972 C 191 972 148 914 148 829 L 148 771 C 148 735 156 704 177 680 L 93 460 C 66 390 54 340 54 300 L 54 36 C 54 11 65 0 90 0 L 237 0 C 262 0 273 11 273 36 Z" unicode="Å" />
<glyph horiz-adv-x="1005" d="M 334 514 C 339 527 342 531 353 531 L 440 531 L 440 358 L 282 358 Z M 272 36 L 272 176 L 440 176 L 440 36 C 440 11 451 0 476 0 L 920 0 C 945 0 956 11 956 36 L 956 153 C 956 178 945 189 920 189 L 667 189 L 667 275 L 839 275 C 864 275 875 286 875 311 L 875 418 C 875 444 864 454 839 454 L 667 454 L 667 531 L 920 531 C 945 531 956 542 956 567 L 956 684 C 956 709 945 720 920 720 L 232 720 C 198 720 181 710 170 679 L 83 440 C 64 390 54 349 54 290 L 54 36 C 54 11 65 0 90 0 L 236 0 C 261 0 272 11 272 36 Z" unicode="Æ" />
<glyph horiz-adv-x="628" d="M 548 0 C 573 0 584 11 584 36 L 584 155 C 584 180 573 191 548 191 L 347 191 C 305 191 286 206 286 239 L 286 477 C 286 511 305 527 347 527 L 548 527 C 573 527 584 538 584 563 L 584 684 C 584 709 573 720 548 720 L 304 720 C 136 720 58 655 58 515 L 58 204 C 58 65 136 0 304 0 Z M 389 -126 C 415 -126 428 -117 435 -96 L 498 81 C 505 100 500 113 478 121 L 362 164 C 338 173 326 166 318 144 L 233 -86 C 224 -110 229 -126 263 -126 Z" unicode="Ç" />
<glyph horiz-adv-x="654" d="M 569 0 C 594 0 605 11 605 36 L 605 153 C 605 178 594 189 569 189 L 293 189 L 293 275 L 488 275 C 513 275 524 286 524 311 L 524 418 C 524 443 513 454 488 454 L 293 454 L 293 531 L 569 531 C 594 531 605 542 605 567 L 605 684 C 605 709 594 720 569 720 L 105 720 C 80 720 69 709 69 684 L 69 36 C 69 11 80 0 105 0 Z M 502 753 C 525 750 536 763 536 786 L 536 882 C 536 907 525 915 500 918 L 151 961 C 128 964 117 951 117 928 L 117 832 C 117 807 128 799 153 796 Z" unicode="È" />
<glyph horiz-adv-x="654" d="M 569 0 C 594 0 605 11 605 36 L 605 153 C 605 178 594 189 569 189 L 293 189 L 293 275 L 488 275 C 513 275 524 286 524 311 L 524 418 C 524 443 513 454 488 454 L 293 454 L 293 531 L 569 531 C 594 531 605 542 605 567 L 605 684 C 605 709 594 720 569 720 L 105 720 C 80 720 69 709 69 684 L 69 36 C 69 11 80 0 105 0 Z M 530 796 C 555 799 566 807 566 832 L 566 928 C 566 951 555 964 532 961 L 183 918 C 158 915 147 907 147 882 L 147 786 C 147 763 158 750 181 753 Z" unicode="É" />
<glyph horiz-adv-x="654" d="M 569 0 C 594 0 605 11 605 36 L 605 153 C 605 178 594 189 569 189 L 293 189 L 293 275 L 488 275 C 513 275 524 286 524 311 L 524 418 C 524 443 513 454 488 454 L 293 454 L 293 531 L 569 531 C 594 531 605 542 605 567 L 605 684 C 605 709 594 720 569 720 L 105 720 C 80 720 69 709 69 684 L 69 36 C 69 11 80 0 105 0 Z M 305 797 C 328 803 344 803 367 797 L 504 757 C 539 746 546 752 546 788 L 546 869 C 546 905 538 909 504 922 L 367 972 C 357 976 347 977 335 977 C 323 976 308 973 296 968 L 168 922 C 136 909 127 905 127 869 L 127 788 C 127 752 134 746 168 757 Z" unicode="Ê" />
<glyph horiz-adv-x="654" d="M 569 0 C 594 0 605 11 605 36 L 605 153 C 605 178 594 189 569 189 L 293 189 L 293 275 L 488 275 C 513 275 524 286 524 311 L 524 418 C 524 443 513 454 488 454 L 293 454 L 293 531 L 569 531 C 594 531 605 542 605 567 L 605 684 C 605 709 594 720 569 720 L 105 720 C 80 720 69 709 69 684 L 69 36 C 69 11 80 0 105 0 Z M 543 760 C 566 760 576 770 576 793 L 576 914 C 576 937 566 947 543 947 L 405 947 C 382 947 372 937 372 914 L 372 793 C 372 770 382 760 405 760 Z M 285 760 C 308 760 318 770 318 793 L 318 914 C 318 937 308 947 285 947 L 147 947 C 124 947 113 937 113 914 L 113 793 C 113 770 124 760 147 760 Z" unicode="Ë" />
<glyph horiz-adv-x="605" d="M 89 0 L 515 0 C 540 0 551 11 551 36 L 551 155 C 551 180 540 191 515 191 L 418 191 L 418 527 L 515 527 C 540 527 551 538 551 563 L 551 684 C 551 709 540 720 515 720 L 89 720 C 64 720 53 709 53 684 L 53 563 C 53 538 64 527 89 527 L 188 527 L 188 191 L 89 191 C 64 191 53 180 53 155 L 53 36 C 53 11 64 0 89 0 Z M 477 753 C 500 750 511 763 511 786 L 511 882 C 511 907 500 915 475 918 L 126 961 C 103 964 92 951 92 928 L 92 832 C 92 807 103 799 128 796 Z" unicode="Ì" />
<glyph horiz-adv-x="605" d="M 89 0 L 515 0 C 540 0 551 11 551 36 L 551 155 C 551 180 540 191 515 191 L 418 191 L 418 527 L 515 527 C 540 527 551 538 551 563 L 551 684 C 551 709 540 720 515 720 L 89 720 C 64 720 53 709 53 684 L 53 563 C 53 538 64 527 89 527 L 188 527 L 188 191 L 89 191 C 64 191 53 180 53 155 L 53 36 C 53 11 64 0 89 0 Z M 475 796 C 500 799 511 807 511 832 L 511 928 C 511 951 500 964 477 961 L 128 918 C 103 915 92 907 92 882 L 92 786 C 92 763 103 750 126 753 Z" unicode="Í" />
<glyph horiz-adv-x="605" d="M 89 0 L 515 0 C 540 0 551 11 551 36 L 551 155 C 551 180 540 191 515 191 L 418 191 L 418 527 L 515 527 C 540 527 551 538 551 563 L 551 684 C 551 709 540 720 515 720 L 89 720 C 64 720 53 709 53 684 L 53 563 C 53 538 64 527 89 527 L 188 527 L 188 191 L 89 191 C 64 191 53 180 53 155 L 53 36 C 53 11 64 0 89 0 Z M 270 797 C 293 803 309 803 332 797 L 469 757 C 504 746 511 752 511 788 L 511 869 C 511 905 503 909 469 922 L 332 972 C 322 976 312 977 300 977 C 288 976 273 973 261 968 L 133 922 C 101 909 92 905 92 869 L 92 788 C 92 752 99 746 133 757 Z" unicode="Î" />
<glyph horiz-adv-x="605" d="M 89 0 L 515 0 C 540 0 551 11 551 36 L 551 155 C 551 180 540 191 515 191 L 418 191 L 418 527 L 515 527 C 540 527 551 538 551 563 L 551 684 C 551 709 540 720 515 720 L 89 720 C 64 720 53 709 53 684 L 53 563 C 53 538 64 527 89 527 L 188 527 L 188 191 L 89 191 C 64 191 53 180 53 155 L 53 36 C 53 11 64 0 89 0 Z M 498 760 C 521 760 531 770 531 793 L 531 914 C 531 937 521 947 498 947 L 360 947 C 337 947 327 937 327 914 L 327 793 C 327 770 337 760 360 760 Z M 240 760 C 263 760 273 770 273 793 L 273 914 C 273 937 263 947 240 947 L 102 947 C 79 947 68 937 68 914 L 68 793 C 68 770 79 760 102 760 Z" unicode="Ï" />
<glyph horiz-adv-x="756" d="M 452 0 C 641 0 698 83 698 204 L 698 516 C 698 637 641 720 452 720 L 115 720 C 90 720 79 709 79 684 L 79 444 L 56 444 C 31 444 20 433 20 408 L 20 301 C 20 275 31 265 56 265 L 79 265 L 79 36 C 79 11 90 0 115 0 Z M 303 189 L 303 265 L 344 265 C 369 265 380 275 380 301 L 380 408 C 380 434 369 444 344 444 L 303 444 L 303 529 L 425 529 C 465 529 472 507 472 481 L 472 238 C 472 211 465 189 425 189 Z" unicode="Ð" />
<glyph horiz-adv-x="753" d="M 255 0 C 280 0 291 11 291 36 L 291 366 L 462 159 L 462 36 C 462 11 473 0 498 0 L 648 0 C 673 0 684 11 684 36 L 684 684 C 684 709 673 720 648 720 L 498 720 C 473 720 462 709 462 684 L 462 471 L 268 693 C 251 713 235 720 209 720 L 105 720 C 80 720 69 709 69 684 L 69 36 C 69 11 80 0 105 0 Z M 375 764 L 391 762 C 471 750 485 748 548 767 C 571 776 584 783 584 808 L 584 909 C 584 934 572 942 548 935 C 489 917 485 914 397 927 L 375 930 L 358 932 C 278 944 265 946 202 927 C 179 918 166 911 166 886 L 166 785 C 166 760 178 752 202 759 C 255 775 271 779 347 768 Z" unicode="Ñ" />
<glyph horiz-adv-x="737" d="M 679 189 L 679 530 C 679 652 619 735 369 735 C 119 735 58 652 58 530 L 58 189 C 58 67 119 -15 369 -15 C 619 -15 679 67 679 189 Z M 285 225 L 285 494 C 285 520 297 540 369 540 C 442 540 453 520 453 494 L 453 225 C 453 198 442 178 369 178 C 297 178 285 198 285 225 Z M 543 753 C 566 750 577 763 577 786 L 577 882 C 577 907 566 915 541 918 L 192 961 C 169 964 158 951 158 928 L 158 832 C 158 807 169 799 194 796 Z" unicode="Ò" />
<glyph horiz-adv-x="737" d="M 679 189 L 679 530 C 679 652 619 735 369 735 C 119 735 58 652 58 530 L 58 189 C 58 67 119 -15 369 -15 C 619 -15 679 67 679 189 Z M 285 225 L 285 494 C 285 520 297 540 369 540 C 442 540 453 520 453 494 L 453 225 C 453 198 442 178 369 178 C 297 178 285 198 285 225 Z M 541 796 C 566 799 577 807 577 832 L 577 928 C 577 951 566 964 543 961 L 194 918 C 169 915 158 907 158 882 L 158 786 C 158 763 169 750 192 753 Z" unicode="Ó" />
<glyph horiz-adv-x="737" d="M 679 189 L 679 530 C 679 652 619 735 369 735 C 119 735 58 652 58 530 L 58 189 C 58 67 119 -15 369 -15 C 619 -15 679 67 679 189 Z M 285 225 L 285 494 C 285 520 297 540 369 540 C 442 540 453 520 453 494 L 453 225 C 453 198 442 178 369 178 C 297 178 285 198 285 225 Z M 336 797 C 359 803 375 803 398 797 L 535 757 C 570 746 577 752 577 788 L 577 869 C 577 905 569 909 535 922 L 398 972 C 388 976 378 977 366 977 C 354 976 339 973 327 968 L 199 922 C 167 909 158 905 158 869 L 158 788 C 158 752 165 746 199 757 Z" unicode="Ô" />
<glyph horiz-adv-x="737" d="M 679 189 L 679 530 C 679 652 619 735 369 735 C 119 735 58 652 58 530 L 58 189 C 58 67 119 -15 369 -15 C 619 -15 679 67 679 189 Z M 285 225 L 285 494 C 285 520 297 540 369 540 C 442 540 453 520 453 494 L 453 225 C 453 198 442 178 369 178 C 297 178 285 198 285 225 Z M 367 764 L 383 762 C 463 750 477 748 540 767 C 563 776 576 783 576 808 L 576 909 C 576 934 564 942 540 935 C 481 917 477 914 389 927 L 367 930 L 350 932 C 270 944 257 946 194 927 C 171 918 158 911 158 886 L 158 785 C 158 760 170 752 194 759 C 247 775 263 779 339 768 Z" unicode="Õ" />
<glyph horiz-adv-x="737" d="M 679 189 L 679 530 C 679 652 619 735 369 735 C 119 735 58 652 58 530 L 58 189 C 58 67 119 -15 369 -15 C 619 -15 679 67 679 189 Z M 285 225 L 285 494 C 285 520 297 540 369 540 C 442 540 453 520 453 494 L 453 225 C 453 198 442 178 369 178 C 297 178 285 198 285 225 Z M 564 760 C 587 760 597 770 597 793 L 597 914 C 597 937 587 947 564 947 L 426 947 C 403 947 393 937 393 914 L 393 793 C 393 770 403 760 426 760 Z M 306 760 C 329 760 339 770 339 793 L 339 914 C 339 937 329 947 306 947 L 168 947 C 145 947 134 937 134 914 L 134 793 C 134 770 145 760 168 760 Z" unicode="Ö" />
<glyph horiz-adv-x="734" d="M 557 90 L 637 170 C 656 189 655 204 637 221 L 498 360 L 637 499 C 655 516 656 531 637 550 L 557 630 C 538 649 523 648 506 630 L 367 491 L 228 630 C 211 648 195 648 177 630 L 97 550 C 78 531 79 516 97 499 L 236 360 L 97 221 C 79 204 79 188 97 170 L 177 90 C 196 71 211 72 228 90 L 367 229 L 506 90 C 523 72 538 71 557 90 Z" unicode="×" />
<glyph horiz-adv-x="737" d="M 265 494 C 265 526 279 550 369 550 C 373 550 377 550 381 550 L 265 277 Z M 369 168 C 364 168 359 168 355 168 L 473 446 L 473 225 C 473 192 460 168 369 168 Z M 295 -34 L 304 -13 C 324 -14 346 -15 369 -15 C 619 -15 679 67 679 189 L 679 530 C 679 598 661 653 602 689 L 629 754 C 641 776 628 790 603 790 L 488 790 C 463 790 454 776 442 754 L 433 733 C 413 734 392 735 369 735 C 119 735 58 652 58 530 L 58 189 C 58 122 77 67 135 31 L 108 -34 C 96 -56 109 -70 134 -70 L 249 -70 C 274 -70 283 -56 295 -34 Z" unicode="Ø" />
<glyph horiz-adv-x="746" d="M 682 189 L 682 684 C 682 709 671 720 646 720 L 494 720 C 468 720 458 709 458 684 L 458 228 C 458 201 446 181 375 181 C 305 181 293 201 293 228 L 293 684 C 293 709 282 720 257 720 L 100 720 C 75 720 64 709 64 684 L 64 189 C 64 67 125 -15 373 -15 C 621 -15 682 67 682 189 Z M 538 753 C 561 750 572 763 572 786 L 572 882 C 572 907 561 915 536 918 L 187 961 C 164 964 153 951 153 928 L 153 832 C 153 807 164 799 189 796 Z" unicode="Ù" />
<glyph horiz-adv-x="746" d="M 682 189 L 682 684 C 682 709 671 720 646 720 L 494 720 C 468 720 458 709 458 684 L 458 228 C 458 201 446 181 375 181 C 305 181 293 201 293 228 L 293 684 C 293 709 282 720 257 720 L 100 720 C 75 720 64 709 64 684 L 64 189 C 64 67 125 -15 373 -15 C 621 -15 682 67 682 189 Z M 556 796 C 581 799 592 807 592 832 L 592 928 C 592 951 581 964 558 961 L 209 918 C 184 915 173 907 173 882 L 173 786 C 173 763 184 750 207 753 Z" unicode="Ú" />
<glyph horiz-adv-x="746" d="M 682 189 L 682 684 C 682 709 671 720 646 720 L 494 720 C 468 720 458 709 458 684 L 458 228 C 458 201 446 181 375 181 C 305 181 293 201 293 228 L 293 684 C 293 709 282 720 257 720 L 100 720 C 75 720 64 709 64 684 L 64 189 C 64 67 125 -15 373 -15 C 621 -15 682 67 682 189 Z M 341 797 C 364 803 380 803 403 797 L 540 757 C 575 746 582 752 582 788 L 582 869 C 582 905 574 909 540 922 L 403 972 C 393 976 383 977 371 977 C 359 976 344 973 332 968 L 204 922 C 172 909 163 905 163 869 L 163 788 C 163 752 170 746 204 757 Z" unicode="Û" />
<glyph horiz-adv-x="746" d="M 682 189 L 682 684 C 682 709 671 720 646 720 L 494 720 C 468 720 458 709 458 684 L 458 228 C 458 201 446 181 375 181 C 305 181 293 201 293 228 L 293 684 C 293 709 282 720 257 720 L 100 720 C 75 720 64 709 64 684 L 64 189 C 64 67 125 -15 373 -15 C 621 -15 682 67 682 189 Z M 569 760 C 592 760 602 770 602 793 L 602 914 C 602 937 592 947 569 947 L 431 947 C 408 947 398 937 398 914 L 398 793 C 398 770 408 760 431 760 Z M 311 760 C 334 760 344 770 344 793 L 344 914 C 344 937 334 947 311 947 L 173 947 C 150 947 139 937 139 914 L 139 793 C 139 770 150 760 173 760 Z" unicode="Ü" />
<glyph horiz-adv-x="705" d="M 434 0 C 459 0 470 11 470 36 L 470 163 L 622 369 C 652 410 660 430 660 492 L 660 684 C 660 709 649 720 624 720 L 475 720 C 450 720 439 709 439 684 L 439 520 C 439 506 439 492 430 478 L 384 406 C 377 394 371 389 360 389 L 350 389 C 339 389 333 394 326 406 L 280 478 C 271 492 271 506 271 520 L 271 684 C 271 709 260 720 235 720 L 81 720 C 56 720 45 709 45 684 L 45 492 C 45 430 52 410 83 369 L 236 164 L 236 36 C 236 11 246 0 272 0 Z M 535 796 C 560 799 571 807 571 832 L 571 928 C 571 951 560 964 537 961 L 188 918 C 163 915 152 907 152 882 L 152 786 C 152 763 163 750 186 753 Z" unicode="Ý" />
<glyph horiz-adv-x="692" d="M 260 0 C 285 0 296 11 296 36 L 296 102 L 411 102 C 593 102 647 181 647 297 L 647 425 C 647 541 593 620 411 620 L 296 620 L 296 684 C 296 709 285 720 260 720 L 105 720 C 80 720 69 709 69 684 L 69 36 C 69 11 80 0 105 0 Z M 294 433 L 384 433 C 423 433 431 410 431 384 L 431 331 C 431 305 423 282 384 282 L 294 282 Z" unicode="Þ" />
<glyph horiz-adv-x="759" d="M 296 36 L 296 531 L 375 531 C 392 531 397 518 394 503 L 361 340 C 353 303 366 284 398 284 L 470 284 C 486 284 497 277 497 261 L 497 212 C 497 196 486 189 470 189 L 392 189 C 367 189 356 178 356 153 L 356 36 C 356 11 367 0 392 0 L 530 0 C 650 0 725 64 725 166 L 725 289 C 725 382 668 433 597 446 L 620 529 C 651 640 594 720 476 720 L 105 720 C 81 720 69 708 69 684 L 69 36 C 69 11 80 0 105 0 L 260 0 C 285 0 296 11 296 36 Z" unicode="ß" />
<glyph horiz-adv-x="730" d="M 330 510 C 335 522 341 527 349 527 L 374 527 C 382 527 388 522 393 510 L 440 358 L 283 358 Z M 273 36 L 273 176 L 450 176 L 450 36 C 450 11 462 0 489 0 L 640 0 C 665 0 676 11 676 36 L 676 300 C 676 340 664 390 637 460 L 550 687 C 542 710 526 720 500 720 L 231 720 C 204 720 188 710 180 687 L 93 460 C 66 390 54 340 54 300 L 54 36 C 54 11 65 0 90 0 L 237 0 C 262 0 273 11 273 36 Z M 540 753 C 563 750 574 763 574 786 L 574 882 C 574 907 563 915 538 918 L 189 961 C 166 964 155 951 155 928 L 155 832 C 155 807 166 799 191 796 Z" unicode="à" />
<glyph horiz-adv-x="730" d="M 330 510 C 335 522 341 527 349 527 L 374 527 C 382 527 388 522 393 510 L 440 358 L 283 358 Z M 273 36 L 273 176 L 450 176 L 450 36 C 450 11 462 0 489 0 L 640 0 C 665 0 676 11 676 36 L 676 300 C 676 340 664 390 637 460 L 550 687 C 542 710 526 720 500 720 L 231 720 C 204 720 188 710 180 687 L 93 460 C 66 390 54 340 54 300 L 54 36 C 54 11 65 0 90 0 L 237 0 C 262 0 273 11 273 36 Z M 538 796 C 563 799 574 807 574 832 L 574 928 C 574 951 563 964 540 961 L 191 918 C 166 915 155 907 155 882 L 155 786 C 155 763 166 750 189 753 Z" unicode="á" />
<glyph horiz-adv-x="730" d="M 330 510 C 335 522 341 527 349 527 L 374 527 C 382 527 388 522 393 510 L 440 358 L 283 358 Z M 273 36 L 273 176 L 450 176 L 450 36 C 450 11 462 0 489 0 L 640 0 C 665 0 676 11 676 36 L 676 300 C 676 340 664 390 637 460 L 550 687 C 542 710 526 720 500 720 L 231 720 C 204 720 188 710 180 687 L 93 460 C 66 390 54 340 54 300 L 54 36 C 54 11 65 0 90 0 L 237 0 C 262 0 273 11 273 36 Z M 333 797 C 356 803 372 803 395 797 L 532 757 C 567 746 574 752 574 788 L 574 869 C 574 905 566 909 532 922 L 395 972 C 385 976 375 977 363 977 C 351 976 336 973 324 968 L 196 922 C 164 909 155 905 155 869 L 155 788 C 155 752 162 746 196 757 Z" unicode="â" />
<glyph horiz-adv-x="730" d="M 330 510 C 335 522 341 527 349 527 L 374 527 C 382 527 388 522 393 510 L 440 358 L 283 358 Z M 273 36 L 273 176 L 450 176 L 450 36 C 450 11 462 0 489 0 L 640 0 C 665 0 676 11 676 36 L 676 300 C 676 340 664 390 637 460 L 550 687 C 542 710 526 720 500 720 L 231 720 C 204 720 188 710 180 687 L 93 460 C 66 390 54 340 54 300 L 54 36 C 54 11 65 0 90 0 L 237 0 C 262 0 273 11 273 36 Z M 364 764 L 380 762 C 460 750 474 748 537 767 C 560 776 573 783 573 808 L 573 909 C 573 934 561 942 537 935 C 478 917 474 914 386 927 L 364 930 L 347 932 C 267 944 254 946 191 927 C 168 918 155 911 155 886 L 155 785 C 155 760 167 752 191 759 C 244 775 260 779 336 768 Z" unicode="ã" />
<glyph horiz-adv-x="730" d="M 330 510 C 335 522 341 527 349 527 L 374 527 C 382 527 388 522 393 510 L 440 358 L 283 358 Z M 273 36 L 273 176 L 450 176 L 450 36 C 450 11 462 0 489 0 L 640 0 C 665 0 676 11 676 36 L 676 300 C 676 340 664 390 637 460 L 550 687 C 542 710 526 720 500 720 L 231 720 C 204 720 188 710 180 687 L 93 460 C 66 390 54 340 54 300 L 54 36 C 54 11 65 0 90 0 L 237 0 C 262 0 273 11 273 36 Z M 561 760 C 584 760 594 770 594 793 L 594 914 C 594 937 584 947 561 947 L 423 947 C 400 947 390 937 390 914 L 390 793 C 390 770 400 760 423 760 Z M 303 760 C 326 760 336 770 336 793 L 336 914 C 336 937 326 947 303 947 L 165 947 C 142 947 131 937 131 914 L 131 793 C 131 770 142 760 165 760 Z" unicode="ä" />
<glyph horiz-adv-x="730" d="M 425 764 C 425 735 416 721 366 721 C 317 721 309 735 309 764 L 309 799 C 309 825 317 839 366 839 C 416 839 425 825 425 799 Z M 330 510 C 334 522 341 527 349 527 L 374 527 C 382 527 389 522 393 510 L 440 358 L 283 358 Z M 273 36 L 273 176 L 450 176 L 450 36 C 450 11 462 0 489 0 L 640 0 C 665 0 676 11 676 36 L 676 300 C 676 340 664 390 637 460 L 553 680 C 574 704 582 735 582 771 L 582 829 C 582 914 539 972 365 972 C 191 972 148 914 148 829 L 148 771 C 148 735 156 704 177 680 L 93 460 C 66 390 54 340 54 300 L 54 36 C 54 11 65 0 90 0 L 237 0 C 262 0 273 11 273 36 Z" unicode="å" />
<glyph horiz-adv-x="1005" d="M 334 514 C 339 527 342 531 353 531 L 440 531 L 440 358 L 282 358 Z M 272 36 L 272 176 L 440 176 L 440 36 C 440 11 451 0 476 0 L 920 0 C 945 0 956 11 956 36 L 956 153 C 956 178 945 189 920 189 L 667 189 L 667 275 L 839 275 C 864 275 875 286 875 311 L 875 418 C 875 444 864 454 839 454 L 667 454 L 667 531 L 920 531 C 945 531 956 542 956 567 L 956 684 C 956 709 945 720 920 720 L 232 720 C 198 720 181 710 170 679 L 83 440 C 64 390 54 349 54 290 L 54 36 C 54 11 65 0 90 0 L 236 0 C 261 0 272 11 272 36 Z" unicode="æ" />
<glyph horiz-adv-x="628" d="M 548 0 C 573 0 584 11 584 36 L 584 155 C 584 180 573 191 548 191 L 347 191 C 305 191 286 206 286 239 L 286 477 C 286 511 305 527 347 527 L 548 527 C 573 527 584 538 584 563 L 584 684 C 584 709 573 720 548 720 L 304 720 C 136 720 58 655 58 515 L 58 204 C 58 65 136 0 304 0 Z M 389 -126 C 415 -126 428 -117 435 -96 L 498 81 C 505 100 500 113 478 121 L 362 164 C 338 173 326 166 318 144 L 233 -86 C 224 -110 229 -126 263 -126 Z" unicode="ç" />
<glyph horiz-adv-x="654" d="M 569 0 C 594 0 605 11 605 36 L 605 153 C 605 178 594 189 569 189 L 293 189 L 293 275 L 488 275 C 513 275 524 286 524 311 L 524 418 C 524 443 513 454 488 454 L 293 454 L 293 531 L 569 531 C 594 531 605 542 605 567 L 605 684 C 605 709 594 720 569 720 L 105 720 C 80 720 69 709 69 684 L 69 36 C 69 11 80 0 105 0 Z M 502 753 C 525 750 536 763 536 786 L 536 882 C 536 907 525 915 500 918 L 151 961 C 128 964 117 951 117 928 L 117 832 C 117 807 128 799 153 796 Z" unicode="è" />
<glyph horiz-adv-x="654" d="M 569 0 C 594 0 605 11 605 36 L 605 153 C 605 178 594 189 569 189 L 293 189 L 293 275 L 488 275 C 513 275 524 286 524 311 L 524 418 C 524 443 513 454 488 454 L 293 454 L 293 531 L 569 531 C 594 531 605 542 605 567 L 605 684 C 605 709 594 720 569 720 L 105 720 C 80 720 69 709 69 684 L 69 36 C 69 11 80 0 105 0 Z M 530 796 C 555 799 566 807 566 832 L 566 928 C 566 951 555 964 532 961 L 183 918 C 158 915 147 907 147 882 L 147 786 C 147 763 158 750 181 753 Z" unicode="é" />
<glyph horiz-adv-x="654" d="M 569 0 C 594 0 605 11 605 36 L 605 153 C 605 178 594 189 569 189 L 293 189 L 293 275 L 488 275 C 513 275 524 286 524 311 L 524 418 C 524 443 513 454 488 454 L 293 454 L 293 531 L 569 531 C 594 531 605 542 605 567 L 605 684 C 605 709 594 720 569 720 L 105 720 C 80 720 69 709 69 684 L 69 36 C 69 11 80 0 105 0 Z M 305 797 C 328 803 344 803 367 797 L 504 757 C 539 746 546 752 546 788 L 546 869 C 546 905 538 909 504 922 L 367 972 C 357 976 347 977 335 977 C 323 976 308 973 296 968 L 168 922 C 136 909 127 905 127 869 L 127 788 C 127 752 134 746 168 757 Z" unicode="ê" />
<glyph horiz-adv-x="654" d="M 569 0 C 594 0 605 11 605 36 L 605 153 C 605 178 594 189 569 189 L 293 189 L 293 275 L 488 275 C 513 275 524 286 524 311 L 524 418 C 524 443 513 454 488 454 L 293 454 L 293 531 L 569 531 C 594 531 605 542 605 567 L 605 684 C 605 709 594 720 569 720 L 105 720 C 80 720 69 709 69 684 L 69 36 C 69 11 80 0 105 0 Z M 543 760 C 566 760 576 770 576 793 L 576 914 C 576 937 566 947 543 947 L 405 947 C 382 947 372 937 372 914 L 372 793 C 372 770 382 760 405 760 Z M 285 760 C 308 760 318 770 318 793 L 318 914 C 318 937 308 947 285 947 L 147 947 C 124 947 113 937 113 914 L 113 793 C 113 770 124 760 147 760 Z" unicode="ë" />
<glyph horiz-adv-x="605" d="M 89 0 L 515 0 C 540 0 551 11 551 36 L 551 155 C 551 180 540 191 515 191 L 418 191 L 418 527 L 515 527 C 540 527 551 538 551 563 L 551 684 C 551 709 540 720 515 720 L 89 720 C 64 720 53 709 53 684 L 53 563 C 53 538 64 527 89 527 L 188 527 L 188 191 L 89 191 C 64 191 53 180 53 155 L 53 36 C 53 11 64 0 89 0 Z M 477 753 C 500 750 511 763 511 786 L 511 882 C 511 907 500 915 475 918 L 126 961 C 103 964 92 951 92 928 L 92 832 C 92 807 103 799 128 796 Z" unicode="ì" />
<glyph horiz-adv-x="605" d="M 89 0 L 515 0 C 540 0 551 11 551 36 L 551 155 C 551 180 540 191 515 191 L 418 191 L 418 527 L 515 527 C 540 527 551 538 551 563 L 551 684 C 551 709 540 720 515 720 L 89 720 C 64 720 53 709 53 684 L 53 563 C 53 538 64 527 89 527 L 188 527 L 188 191 L 89 191 C 64 191 53 180 53 155 L 53 36 C 53 11 64 0 89 0 Z M 475 796 C 500 799 511 807 511 832 L 511 928 C 511 951 500 964 477 961 L 128 918 C 103 915 92 907 92 882 L 92 786 C 92 763 103 750 126 753 Z" unicode="í" />
<glyph horiz-adv-x="605" d="M 89 0 L 515 0 C 540 0 551 11 551 36 L 551 155 C 551 180 540 191 515 191 L 418 191 L 418 527 L 515 527 C 540 527 551 538 551 563 L 551 684 C 551 709 540 720 515 720 L 89 720 C 64 720 53 709 53 684 L 53 563 C 53 538 64 527 89 527 L 188 527 L 188 191 L 89 191 C 64 191 53 180 53 155 L 53 36 C 53 11 64 0 89 0 Z M 270 797 C 293 803 309 803 332 797 L 469 757 C 504 746 511 752 511 788 L 511 869 C 511 905 503 909 469 922 L 332 972 C 322 976 312 977 300 977 C 288 976 273 973 261 968 L 133 922 C 101 909 92 905 92 869 L 92 788 C 92 752 99 746 133 757 Z" unicode="î" />
<glyph horiz-adv-x="605" d="M 89 0 L 515 0 C 540 0 551 11 551 36 L 551 155 C 551 180 540 191 515 191 L 418 191 L 418 527 L 515 527 C 540 527 551 538 551 563 L 551 684 C 551 709 540 720 515 720 L 89 720 C 64 720 53 709 53 684 L 53 563 C 53 538 64 527 89 527 L 188 527 L 188 191 L 89 191 C 64 191 53 180 53 155 L 53 36 C 53 11 64 0 89 0 Z M 498 760 C 521 760 531 770 531 793 L 531 914 C 531 937 521 947 498 947 L 360 947 C 337 947 327 937 327 914 L 327 793 C 327 770 337 760 360 760 Z M 240 760 C 263 760 273 770 273 793 L 273 914 C 273 937 263 947 240 947 L 102 947 C 79 947 68 937 68 914 L 68 793 C 68 770 79 760 102 760 Z" unicode="ï" />
<glyph horiz-adv-x="756" d="M 452 0 C 641 0 698 83 698 204 L 698 516 C 698 637 641 720 452 720 L 115 720 C 90 720 79 709 79 684 L 79 444 L 56 444 C 31 444 20 433 20 408 L 20 301 C 20 275 31 265 56 265 L 79 265 L 79 36 C 79 11 90 0 115 0 Z M 303 189 L 303 265 L 344 265 C 369 265 380 275 380 301 L 380 408 C 380 434 369 444 344 444 L 303 444 L 303 529 L 425 529 C 465 529 472 507 472 481 L 472 238 C 472 211 465 189 425 189 Z" unicode="ð" />
<glyph horiz-adv-x="753" d="M 255 0 C 280 0 291 11 291 36 L 291 366 L 462 159 L 462 36 C 462 11 473 0 498 0 L 648 0 C 673 0 684 11 684 36 L 684 684 C 684 709 673 720 648 720 L 498 720 C 473 720 462 709 462 684 L 462 471 L 268 693 C 251 713 235 720 209 720 L 105 720 C 80 720 69 709 69 684 L 69 36 C 69 11 80 0 105 0 Z M 375 764 L 391 762 C 471 750 485 748 548 767 C 571 776 584 783 584 808 L 584 909 C 584 934 572 942 548 935 C 489 917 485 914 397 927 L 375 930 L 358 932 C 278 944 265 946 202 927 C 179 918 166 911 166 886 L 166 785 C 166 760 178 752 202 759 C 255 775 271 779 347 768 Z" unicode="ñ" />
<glyph horiz-adv-x="737" d="M 679 189 L 679 530 C 679 652 619 735 369 735 C 119 735 58 652 58 530 L 58 189 C 58 67 119 -15 369 -15 C 619 -15 679 67 679 189 Z M 285 225 L 285 494 C 285 520 297 540 369 540 C 442 540 453 520 453 494 L 453 225 C 453 198 442 178 369 178 C 297 178 285 198 285 225 Z M 543 753 C 566 750 577 763 577 786 L 577 882 C 577 907 566 915 541 918 L 192 961 C 169 964 158 951 158 928 L 158 832 C 158 807 169 799 194 796 Z" unicode="ò" />
<glyph horiz-adv-x="737" d="M 679 189 L 679 530 C 679 652 619 735 369 735 C 119 735 58 652 58 530 L 58 189 C 58 67 119 -15 369 -15 C 619 -15 679 67 679 189 Z M 285 225 L 285 494 C 285 520 297 540 369 540 C 442 540 453 520 453 494 L 453 225 C 453 198 442 178 369 178 C 297 178 285 198 285 225 Z M 541 796 C 566 799 577 807 577 832 L 577 928 C 577 951 566 964 543 961 L 194 918 C 169 915 158 907 158 882 L 158 786 C 158 763 169 750 192 753 Z" unicode="ó" />
<glyph horiz-adv-x="737" d="M 679 189 L 679 530 C 679 652 619 735 369 735 C 119 735 58 652 58 530 L 58 189 C 58 67 119 -15 369 -15 C 619 -15 679 67 679 189 Z M 285 225 L 285 494 C 285 520 297 540 369 540 C 442 540 453 520 453 494 L 453 225 C 453 198 442 178 369 178 C 297 178 285 198 285 225 Z M 336 797 C 359 803 375 803 398 797 L 535 757 C 570 746 577 752 577 788 L 577 869 C 577 905 569 909 535 922 L 398 972 C 388 976 378 977 366 977 C 354 976 339 973 327 968 L 199 922 C 167 909 158 905 158 869 L 158 788 C 158 752 165 746 199 757 Z" unicode="ô" />
<glyph horiz-adv-x="737" d="M 679 189 L 679 530 C 679 652 619 735 369 735 C 119 735 58 652 58 530 L 58 189 C 58 67 119 -15 369 -15 C 619 -15 679 67 679 189 Z M 285 225 L 285 494 C 285 520 297 540 369 540 C 442 540 453 520 453 494 L 453 225 C 453 198 442 178 369 178 C 297 178 285 198 285 225 Z M 367 764 L 383 762 C 463 750 477 748 540 767 C 563 776 576 783 576 808 L 576 909 C 576 934 564 942 540 935 C 481 917 477 914 389 927 L 367 930 L 350 932 C 270 944 257 946 194 927 C 171 918 158 911 158 886 L 158 785 C 158 760 170 752 194 759 C 247 775 263 779 339 768 Z" unicode="õ" />
<glyph horiz-adv-x="737" d="M 679 189 L 679 530 C 679 652 619 735 369 735 C 119 735 58 652 58 530 L 58 189 C 58 67 119 -15 369 -15 C 619 -15 679 67 679 189 Z M 285 225 L 285 494 C 285 520 297 540 369 540 C 442 540 453 520 453 494 L 453 225 C 453 198 442 178 369 178 C 297 178 285 198 285 225 Z M 564 760 C 587 760 597 770 597 793 L 597 914 C 597 937 587 947 564 947 L 426 947 C 403 947 393 937 393 914 L 393 793 C 393 770 403 760 426 760 Z M 306 760 C 329 760 339 770 339 793 L 339 914 C 339 937 329 947 306 947 L 168 947 C 145 947 134 937 134 914 L 134 793 C 134 770 145 760 168 760 Z" unicode="ö" />
<glyph horiz-adv-x="734" d="M 448 483 C 473 483 484 494 484 519 L 484 642 C 484 668 473 678 448 678 L 286 678 C 261 678 250 668 250 642 L 250 519 C 250 494 261 483 286 483 Z M 106 277 L 628 277 C 653 277 664 287 664 313 L 664 407 C 664 433 653 443 628 443 L 106 443 C 81 443 70 432 70 407 L 70 313 C 70 287 81 277 106 277 Z M 448 42 C 473 42 484 53 484 78 L 484 201 C 484 227 473 237 448 237 L 286 237 C 261 237 250 227 250 201 L 250 78 C 250 53 261 42 286 42 Z" unicode="÷" />
<glyph horiz-adv-x="737" d="M 265 494 C 265 526 279 550 369 550 C 373 550 377 550 381 550 L 265 277 Z M 369 168 C 364 168 359 168 355 168 L 473 446 L 473 225 C 473 192 460 168 369 168 Z M 295 -34 L 304 -13 C 324 -14 346 -15 369 -15 C 619 -15 679 67 679 189 L 679 530 C 679 598 661 653 602 689 L 629 754 C 641 776 628 790 603 790 L 488 790 C 463 790 454 776 442 754 L 433 733 C 413 734 392 735 369 735 C 119 735 58 652 58 530 L 58 189 C 58 122 77 67 135 31 L 108 -34 C 96 -56 109 -70 134 -70 L 249 -70 C 274 -70 283 -56 295 -34 Z" unicode="ø" />
<glyph horiz-adv-x="746" d="M 682 189 L 682 684 C 682 709 671 720 646 720 L 494 720 C 468 720 458 709 458 684 L 458 228 C 458 201 446 181 375 181 C 305 181 293 201 293 228 L 293 684 C 293 709 282 720 257 720 L 100 720 C 75 720 64 709 64 684 L 64 189 C 64 67 125 -15 373 -15 C 621 -15 682 67 682 189 Z M 538 753 C 561 750 572 763 572 786 L 572 882 C 572 907 561 915 536 918 L 187 961 C 164 964 153 951 153 928 L 153 832 C 153 807 164 799 189 796 Z" unicode="ù" />
<glyph horiz-adv-x="746" d="M 682 189 L 682 684 C 682 709 671 720 646 720 L 494 720 C 468 720 458 709 458 684 L 458 228 C 458 201 446 181 375 181 C 305 181 293 201 293 228 L 293 684 C 293 709 282 720 257 720 L 100 720 C 75 720 64 709 64 684 L 64 189 C 64 67 125 -15 373 -15 C 621 -15 682 67 682 189 Z M 556 796 C 581 799 592 807 592 832 L 592 928 C 592 951 581 964 558 961 L 209 918 C 184 915 173 907 173 882 L 173 786 C 173 763 184 750 207 753 Z" unicode="ú" />
<glyph horiz-adv-x="746" d="M 682 189 L 682 684 C 682 709 671 720 646 720 L 494 720 C 468 720 458 709 458 684 L 458 228 C 458 201 446 181 375 181 C 305 181 293 201 293 228 L 293 684 C 293 709 282 720 257 720 L 100 720 C 75 720 64 709 64 684 L 64 189 C 64 67 125 -15 373 -15 C 621 -15 682 67 682 189 Z M 341 797 C 364 803 380 803 403 797 L 540 757 C 575 746 582 752 582 788 L 582 869 C 582 905 574 909 540 922 L 403 972 C 393 976 383 977 371 977 C 359 976 344 973 332 968 L 204 922 C 172 909 163 905 163 869 L 163 788 C 163 752 170 746 204 757 Z" unicode="û" />
<glyph horiz-adv-x="746" d="M 682 189 L 682 684 C 682 709 671 720 646 720 L 494 720 C 468 720 458 709 458 684 L 458 228 C 458 201 446 181 375 181 C 305 181 293 201 293 228 L 293 684 C 293 709 282 720 257 720 L 100 720 C 75 720 64 709 64 684 L 64 189 C 64 67 125 -15 373 -15 C 621 -15 682 67 682 189 Z M 569 760 C 592 760 602 770 602 793 L 602 914 C 602 937 592 947 569 947 L 431 947 C 408 947 398 937 398 914 L 398 793 C 398 770 408 760 431 760 Z M 311 760 C 334 760 344 770 344 793 L 344 914 C 344 937 334 947 311 947 L 173 947 C 150 947 139 937 139 914 L 139 793 C 139 770 150 760 173 760 Z" unicode="ü" />
<glyph horiz-adv-x="705" d="M 434 0 C 459 0 470 11 470 36 L 470 163 L 622 369 C 652 410 660 430 660 492 L 660 684 C 660 709 649 720 624 720 L 475 720 C 450 720 439 709 439 684 L 439 520 C 439 506 439 492 430 478 L 384 406 C 377 394 371 389 360 389 L 350 389 C 339 389 333 394 326 406 L 280 478 C 271 492 271 506 271 520 L 271 684 C 271 709 260 720 235 720 L 81 720 C 56 720 45 709 45 684 L 45 492 C 45 430 52 410 83 369 L 236 164 L 236 36 C 236 11 246 0 272 0 Z M 535 796 C 560 799 571 807 571 832 L 571 928 C 571 951 560 964 537 961 L 188 918 C 163 915 152 907 152 882 L 152 786 C 152 763 163 750 186 753 Z" unicode="ý" />
<glyph horiz-adv-x="692" d="M 260 0 C 285 0 296 11 296 36 L 296 102 L 411 102 C 593 102 647 181 647 297 L 647 425 C 647 541 593 620 411 620 L 296 620 L 296 684 C 296 709 285 720 260 720 L 105 720 C 80 720 69 709 69 684 L 69 36 C 69 11 80 0 105 0 Z M 294 433 L 384 433 C 423 433 431 410 431 384 L 431 331 C 431 305 423 282 384 282 L 294 282 Z" unicode="þ" />
<glyph horiz-adv-x="705" d="M 434 0 C 459 0 470 11 470 36 L 470 163 L 622 369 C 652 410 660 430 660 492 L 660 684 C 660 709 649 720 624 720 L 475 720 C 450 720 439 709 439 684 L 439 520 C 439 506 439 492 430 478 L 384 406 C 377 394 371 389 360 389 L 350 389 C 339 389 333 394 326 406 L 280 478 C 271 492 271 506 271 520 L 271 684 C 271 709 260 720 235 720 L 81 720 C 56 720 45 709 45 684 L 45 492 C 45 430 52 410 83 369 L 236 164 L 236 36 C 236 11 246 0 272 0 Z M 548 760 C 571 760 581 770 581 793 L 581 914 C 581 937 571 947 548 947 L 410 947 C 387 947 377 937 377 914 L 377 793 C 377 770 387 760 410 760 Z M 290 760 C 313 760 323 770 323 793 L 323 914 C 323 937 313 947 290 947 L 152 947 C 129 947 118 937 118 914 L 118 793 C 118 770 129 760 152 760 Z" unicode="ÿ" />
<glyph horiz-adv-x="730" d="M 330 510 C 335 522 341 527 349 527 L 374 527 C 382 527 388 522 393 510 L 440 358 L 283 358 Z M 273 36 L 273 176 L 450 176 L 450 36 C 450 11 462 0 489 0 L 640 0 C 665 0 676 11 676 36 L 676 300 C 676 340 664 390 637 460 L 550 687 C 542 710 526 720 500 720 L 231 720 C 204 720 188 710 180 687 L 93 460 C 66 390 54 340 54 300 L 54 36 C 54 11 65 0 90 0 L 237 0 C 262 0 273 11 273 36 Z M 538 760 C 563 760 574 771 574 796 L 574 889 C 574 914 563 925 538 925 L 191 925 C 166 925 155 914 155 889 L 155 796 C 155 771 166 760 191 760 Z" unicode="Ā" />
<glyph horiz-adv-x="730" d="M 330 510 C 335 522 341 527 349 527 L 374 527 C 382 527 388 522 393 510 L 440 358 L 283 358 Z M 273 36 L 273 176 L 450 176 L 450 36 C 450 11 462 0 489 0 L 640 0 C 665 0 676 11 676 36 L 676 300 C 676 340 664 390 637 460 L 550 687 C 542 710 526 720 500 720 L 231 720 C 204 720 188 710 180 687 L 93 460 C 66 390 54 340 54 300 L 54 36 C 54 11 65 0 90 0 L 237 0 C 262 0 273 11 273 36 Z M 538 760 C 563 760 574 771 574 796 L 574 889 C 574 914 563 925 538 925 L 191 925 C 166 925 155 914 155 889 L 155 796 C 155 771 166 760 191 760 Z" unicode="ā" />
<glyph horiz-adv-x="730" d="M 330 510 C 335 522 341 527 349 527 L 374 527 C 382 527 388 522 393 510 L 440 358 L 283 358 Z M 273 36 L 273 176 L 450 176 L 450 36 C 450 11 462 0 489 0 L 640 0 C 665 0 676 11 676 36 L 676 300 C 676 340 664 390 637 460 L 550 687 C 542 710 526 720 500 720 L 231 720 C 204 720 188 710 180 687 L 93 460 C 66 390 54 340 54 300 L 54 36 C 54 11 65 0 90 0 L 237 0 C 262 0 273 11 273 36 Z M 582 897 L 582 941 C 582 966 571 977 546 977 L 455 977 C 432 977 425 970 425 946 L 425 925 C 425 906 416 892 366 892 C 317 892 309 906 309 925 L 309 946 C 309 970 301 977 280 977 L 184 977 C 159 977 148 966 148 941 L 148 897 C 148 812 191 754 365 754 C 539 754 582 812 582 897 Z" unicode="Ă" />
<glyph horiz-adv-x="730" d="M 330 510 C 335 522 341 527 349 527 L 374 527 C 382 527 388 522 393 510 L 440 358 L 283 358 Z M 273 36 L 273 176 L 450 176 L 450 36 C 450 11 462 0 489 0 L 640 0 C 665 0 676 11 676 36 L 676 300 C 676 340 664 390 637 460 L 550 687 C 542 710 526 720 500 720 L 231 720 C 204 720 188 710 180 687 L 93 460 C 66 390 54 340 54 300 L 54 36 C 54 11 65 0 90 0 L 237 0 C 262 0 273 11 273 36 Z M 582 897 L 582 941 C 582 966 571 977 546 977 L 455 977 C 432 977 425 970 425 946 L 425 925 C 425 906 416 892 366 892 C 317 892 309 906 309 925 L 309 946 C 309 970 301 977 280 977 L 184 977 C 159 977 148 966 148 941 L 148 897 C 148 812 191 754 365 754 C 539 754 582 812 582 897 Z" unicode="ă" />
<glyph horiz-adv-x="730" d="M 330 510 C 335 522 341 527 349 527 L 374 527 C 382 527 388 522 393 510 L 440 358 L 283 358 Z M 273 36 L 273 176 L 450 176 L 450 36 C 450 11 462 0 489 0 L 640 0 C 665 0 676 11 676 36 L 676 300 C 676 340 664 390 637 460 L 550 687 C 542 710 526 720 500 720 L 231 720 C 204 720 188 710 180 687 L 93 460 C 66 390 54 340 54 300 L 54 36 C 54 11 65 0 90 0 L 237 0 C 262 0 273 11 273 36 Z M 615 67 L 452 67 L 431 -51 C 417 -144 446 -186 532 -186 L 643 -186 C 669 -186 676 -178 676 -152 L 676 -80 C 676 -54 668 -46 640 -46 L 599 -46 Z" unicode="Ą" />
<glyph horiz-adv-x="730" d="M 330 510 C 335 522 341 527 349 527 L 374 527 C 382 527 388 522 393 510 L 440 358 L 283 358 Z M 273 36 L 273 176 L 450 176 L 450 36 C 450 11 462 0 489 0 L 640 0 C 665 0 676 11 676 36 L 676 300 C 676 340 664 390 637 460 L 550 687 C 542 710 526 720 500 720 L 231 720 C 204 720 188 710 180 687 L 93 460 C 66 390 54 340 54 300 L 54 36 C 54 11 65 0 90 0 L 237 0 C 262 0 273 11 273 36 Z M 615 67 L 452 67 L 431 -51 C 417 -144 446 -186 532 -186 L 643 -186 C 669 -186 676 -178 676 -152 L 676 -80 C 676 -54 668 -46 640 -46 L 599 -46 Z" unicode="ą" />
<glyph horiz-adv-x="628" d="M 548 0 C 573 0 584 11 584 36 L 584 155 C 584 180 573 191 548 191 L 347 191 C 305 191 286 206 286 239 L 286 477 C 286 511 305 527 347 527 L 548 527 C 573 527 584 538 584 563 L 584 684 C 584 709 573 720 548 720 L 304 720 C 136 720 58 655 58 515 L 58 204 C 58 65 136 0 304 0 Z M 548 796 C 573 799 584 807 584 832 L 584 928 C 584 951 573 964 550 961 L 201 918 C 176 915 165 907 165 882 L 165 786 C 165 763 176 750 199 753 Z" unicode="Ć" />
<glyph horiz-adv-x="628" d="M 548 0 C 573 0 584 11 584 36 L 584 155 C 584 180 573 191 548 191 L 347 191 C 305 191 286 206 286 239 L 286 477 C 286 511 305 527 347 527 L 548 527 C 573 527 584 538 584 563 L 584 684 C 584 709 573 720 548 720 L 304 720 C 136 720 58 655 58 515 L 58 204 C 58 65 136 0 304 0 Z M 548 796 C 573 799 584 807 584 832 L 584 928 C 584 951 573 964 550 961 L 201 918 C 176 915 165 907 165 882 L 165 786 C 165 763 176 750 199 753 Z" unicode="ć" />
<glyph horiz-adv-x="628" d="M 548 0 C 573 0 584 11 584 36 L 584 155 C 584 180 573 191 548 191 L 347 191 C 305 191 286 206 286 239 L 286 477 C 286 511 305 527 347 527 L 548 527 C 573 527 584 538 584 563 L 584 684 C 584 709 573 720 548 720 L 304 720 C 136 720 58 655 58 515 L 58 204 C 58 65 136 0 304 0 Z M 313 797 C 336 803 352 803 375 797 L 512 757 C 547 746 554 752 554 788 L 554 869 C 554 905 546 909 512 922 L 375 972 C 365 976 355 977 343 977 C 331 976 316 973 304 968 L 176 922 C 144 909 135 905 135 869 L 135 788 C 135 752 142 746 176 757 Z" unicode="Ĉ" />
<glyph horiz-adv-x="628" d="M 548 0 C 573 0 584 11 584 36 L 584 155 C 584 180 573 191 548 191 L 347 191 C 305 191 286 206 286 239 L 286 477 C 286 511 305 527 347 527 L 548 527 C 573 527 584 538 584 563 L 584 684 C 584 709 573 720 548 720 L 304 720 C 136 720 58 655 58 515 L 58 204 C 58 65 136 0 304 0 Z M 313 797 C 336 803 352 803 375 797 L 512 757 C 547 746 554 752 554 788 L 554 869 C 554 905 546 909 512 922 L 375 972 C 365 976 355 977 343 977 C 331 976 316 973 304 968 L 176 922 C 144 909 135 905 135 869 L 135 788 C 135 752 142 746 176 757 Z" unicode="ĉ" />
<glyph horiz-adv-x="628" d="M 548 0 C 573 0 584 11 584 36 L 584 155 C 584 180 573 191 548 191 L 347 191 C 305 191 286 206 286 239 L 286 477 C 286 511 305 527 347 527 L 548 527 C 573 527 584 538 584 563 L 584 684 C 584 709 573 720 548 720 L 304 720 C 136 720 58 655 58 515 L 58 204 C 58 65 136 0 304 0 Z M 435 760 C 460 760 471 771 471 796 L 471 923 C 471 948 460 959 435 959 L 277 959 C 252 959 241 948 241 923 L 241 796 C 241 771 252 760 277 760 Z" unicode="Ċ" />
<glyph horiz-adv-x="628" d="M 548 0 C 573 0 584 11 584 36 L 584 155 C 584 180 573 191 548 191 L 347 191 C 305 191 286 206 286 239 L 286 477 C 286 511 305 527 347 527 L 548 527 C 573 527 584 538 584 563 L 584 684 C 584 709 573 720 548 720 L 304 720 C 136 720 58 655 58 515 L 58 204 C 58 65 136 0 304 0 Z M 435 760 C 460 760 471 771 471 796 L 471 923 C 471 948 460 959 435 959 L 277 959 C 252 959 241 948 241 923 L 241 796 C 241 771 252 760 277 760 Z" unicode="ċ" />
<glyph horiz-adv-x="628" d="M 548 0 C 573 0 584 11 584 36 L 584 155 C 584 180 573 191 548 191 L 347 191 C 305 191 286 206 286 239 L 286 477 C 286 511 305 527 347 527 L 548 527 C 573 527 584 538 584 563 L 584 684 C 584 709 573 720 548 720 L 304 720 C 136 720 58 655 58 515 L 58 204 C 58 65 136 0 304 0 Z M 376 932 C 353 926 337 926 314 932 L 177 972 C 142 983 135 977 135 941 L 135 860 C 135 824 143 820 177 807 L 314 757 C 324 753 334 752 346 752 C 358 753 373 756 385 761 L 513 807 C 545 820 554 824 554 860 L 554 941 C 554 977 547 983 513 972 Z" unicode="Č" />
<glyph horiz-adv-x="628" d="M 548 0 C 573 0 584 11 584 36 L 584 155 C 584 180 573 191 548 191 L 347 191 C 305 191 286 206 286 239 L 286 477 C 286 511 305 527 347 527 L 548 527 C 573 527 584 538 584 563 L 584 684 C 584 709 573 720 548 720 L 304 720 C 136 720 58 655 58 515 L 58 204 C 58 65 136 0 304 0 Z M 376 932 C 353 926 337 926 314 932 L 177 972 C 142 983 135 977 135 941 L 135 860 C 135 824 143 820 177 807 L 314 757 C 324 753 334 752 346 752 C 358 753 373 756 385 761 L 513 807 C 545 820 554 824 554 860 L 554 941 C 554 977 547 983 513 972 Z" unicode="č" />
<glyph horiz-adv-x="746" d="M 442 0 C 610 0 688 65 688 204 L 688 516 C 688 655 610 720 442 720 L 105 720 C 80 720 69 709 69 684 L 69 36 C 69 11 80 0 105 0 Z M 296 529 L 415 529 C 447 529 462 514 462 481 L 462 238 C 462 204 447 189 415 189 L 296 189 Z M 404 932 C 381 926 365 926 342 932 L 205 972 C 170 983 163 977 163 941 L 163 860 C 163 824 171 820 205 807 L 342 757 C 352 753 362 752 374 752 C 386 753 401 756 413 761 L 541 807 C 573 820 582 824 582 860 L 582 941 C 582 977 575 983 541 972 Z" unicode="Ď" />
<glyph horiz-adv-x="746" d="M 442 0 C 610 0 688 65 688 204 L 688 516 C 688 655 610 720 442 720 L 105 720 C 80 720 69 709 69 684 L 69 36 C 69 11 80 0 105 0 Z M 296 529 L 415 529 C 447 529 462 514 462 481 L 462 238 C 462 204 447 189 415 189 L 296 189 Z M 404 932 C 381 926 365 926 342 932 L 205 972 C 170 983 163 977 163 941 L 163 860 C 163 824 171 820 205 807 L 342 757 C 352 753 362 752 374 752 C 386 753 401 756 413 761 L 541 807 C 573 820 582 824 582 860 L 582 941 C 582 977 575 983 541 972 Z" unicode="ď" />
<glyph horiz-adv-x="756" d="M 452 0 C 641 0 698 83 698 204 L 698 516 C 698 637 641 720 452 720 L 115 720 C 90 720 79 709 79 684 L 79 444 L 56 444 C 31 444 20 433 20 408 L 20 301 C 20 275 31 265 56 265 L 79 265 L 79 36 C 79 11 90 0 115 0 Z M 303 189 L 303 265 L 344 265 C 369 265 380 275 380 301 L 380 408 C 380 434 369 444 344 444 L 303 444 L 303 529 L 425 529 C 465 529 472 507 472 481 L 472 238 C 472 211 465 189 425 189 Z" unicode="Đ" />
<glyph horiz-adv-x="756" d="M 452 0 C 641 0 698 83 698 204 L 698 516 C 698 637 641 720 452 720 L 115 720 C 90 720 79 709 79 684 L 79 444 L 56 444 C 31 444 20 433 20 408 L 20 301 C 20 275 31 265 56 265 L 79 265 L 79 36 C 79 11 90 0 115 0 Z M 303 189 L 303 265 L 344 265 C 369 265 380 275 380 301 L 380 408 C 380 434 369 444 344 444 L 303 444 L 303 529 L 425 529 C 465 529 472 507 472 481 L 472 238 C 472 211 465 189 425 189 Z" unicode="đ" />
<glyph horiz-adv-x="654" d="M 569 0 C 594 0 605 11 605 36 L 605 153 C 605 178 594 189 569 189 L 293 189 L 293 275 L 488 275 C 513 275 524 286 524 311 L 524 418 C 524 443 513 454 488 454 L 293 454 L 293 531 L 569 531 C 594 531 605 542 605 567 L 605 684 C 605 709 594 720 569 720 L 105 720 C 80 720 69 709 69 684 L 69 36 C 69 11 80 0 105 0 Z M 510 760 C 535 760 546 771 546 796 L 546 889 C 546 914 535 925 510 925 L 163 925 C 138 925 127 914 127 889 L 127 796 C 127 771 138 760 163 760 Z" unicode="Ē" />
<glyph horiz-adv-x="654" d="M 569 0 C 594 0 605 11 605 36 L 605 153 C 605 178 594 189 569 189 L 293 189 L 293 275 L 488 275 C 513 275 524 286 524 311 L 524 418 C 524 443 513 454 488 454 L 293 454 L 293 531 L 569 531 C 594 531 605 542 605 567 L 605 684 C 605 709 594 720 569 720 L 105 720 C 80 720 69 709 69 684 L 69 36 C 69 11 80 0 105 0 Z M 510 760 C 535 760 546 771 546 796 L 546 889 C 546 914 535 925 510 925 L 163 925 C 138 925 127 914 127 889 L 127 796 C 127 771 138 760 163 760 Z" unicode="ē" />
<glyph horiz-adv-x="654" d="M 569 0 C 594 0 605 11 605 36 L 605 153 C 605 178 594 189 569 189 L 293 189 L 293 275 L 488 275 C 513 275 524 286 524 311 L 524 418 C 524 443 513 454 488 454 L 293 454 L 293 531 L 569 531 C 594 531 605 542 605 567 L 605 684 C 605 709 594 720 569 720 L 105 720 C 80 720 69 709 69 684 L 69 36 C 69 11 80 0 105 0 Z M 564 897 L 564 941 C 564 966 553 977 528 977 L 437 977 C 414 977 407 970 407 946 L 407 925 C 407 906 398 892 348 892 C 299 892 291 906 291 925 L 291 946 C 291 970 283 977 262 977 L 166 977 C 141 977 130 966 130 941 L 130 897 C 130 812 173 754 347 754 C 521 754 564 812 564 897 Z" unicode="Ĕ" />
<glyph horiz-adv-x="654" d="M 569 0 C 594 0 605 11 605 36 L 605 153 C 605 178 594 189 569 189 L 293 189 L 293 275 L 488 275 C 513 275 524 286 524 311 L 524 418 C 524 443 513 454 488 454 L 293 454 L 293 531 L 569 531 C 594 531 605 542 605 567 L 605 684 C 605 709 594 720 569 720 L 105 720 C 80 720 69 709 69 684 L 69 36 C 69 11 80 0 105 0 Z M 564 897 L 564 941 C 564 966 553 977 528 977 L 437 977 C 414 977 407 970 407 946 L 407 925 C 407 906 398 892 348 892 C 299 892 291 906 291 925 L 291 946 C 291 970 283 977 262 977 L 166 977 C 141 977 130 966 130 941 L 130 897 C 130 812 173 754 347 754 C 521 754 564 812 564 897 Z" unicode="ĕ" />
<glyph horiz-adv-x="654" d="M 569 0 C 594 0 605 11 605 36 L 605 153 C 605 178 594 189 569 189 L 293 189 L 293 275 L 488 275 C 513 275 524 286 524 311 L 524 418 C 524 443 513 454 488 454 L 293 454 L 293 531 L 569 531 C 594 531 605 542 605 567 L 605 684 C 605 709 594 720 569 720 L 105 720 C 80 720 69 709 69 684 L 69 36 C 69 11 80 0 105 0 Z M 405 760 C 430 760 441 771 441 796 L 441 923 C 441 948 430 959 405 959 L 247 959 C 222 959 211 948 211 923 L 211 796 C 211 771 222 760 247 760 Z" unicode="Ė" />
<glyph horiz-adv-x="654" d="M 569 0 C 594 0 605 11 605 36 L 605 153 C 605 178 594 189 569 189 L 293 189 L 293 275 L 488 275 C 513 275 524 286 524 311 L 524 418 C 524 443 513 454 488 454 L 293 454 L 293 531 L 569 531 C 594 531 605 542 605 567 L 605 684 C 605 709 594 720 569 720 L 105 720 C 80 720 69 709 69 684 L 69 36 C 69 11 80 0 105 0 Z M 405 760 C 430 760 441 771 441 796 L 441 923 C 441 948 430 959 405 959 L 247 959 C 222 959 211 948 211 923 L 211 796 C 211 771 222 760 247 760 Z" unicode="ė" />
<glyph horiz-adv-x="654" d="M 569 0 C 594 0 605 11 605 36 L 605 153 C 605 178 594 189 569 189 L 293 189 L 293 275 L 488 275 C 513 275 524 286 524 311 L 524 418 C 524 443 513 454 488 454 L 293 454 L 293 531 L 569 531 C 594 531 605 542 605 567 L 605 684 C 605 709 594 720 569 720 L 105 720 C 80 720 69 709 69 684 L 69 36 C 69 11 80 0 105 0 Z M 544 67 L 381 67 L 360 -51 C 346 -144 375 -186 461 -186 L 572 -186 C 598 -186 605 -178 605 -152 L 605 -80 C 605 -54 597 -46 569 -46 L 528 -46 Z" unicode="Ę" />
<glyph horiz-adv-x="654" d="M 569 0 C 594 0 605 11 605 36 L 605 153 C 605 178 594 189 569 189 L 293 189 L 293 275 L 488 275 C 513 275 524 286 524 311 L 524 418 C 524 443 513 454 488 454 L 293 454 L 293 531 L 569 531 C 594 531 605 542 605 567 L 605 684 C 605 709 594 720 569 720 L 105 720 C 80 720 69 709 69 684 L 69 36 C 69 11 80 0 105 0 Z M 544 67 L 381 67 L 360 -51 C 346 -144 375 -186 461 -186 L 572 -186 C 598 -186 605 -178 605 -152 L 605 -80 C 605 -54 597 -46 569 -46 L 528 -46 Z" unicode="ę" />
<glyph horiz-adv-x="654" d="M 569 0 C 594 0 605 11 605 36 L 605 153 C 605 178 594 189 569 189 L 293 189 L 293 275 L 488 275 C 513 275 524 286 524 311 L 524 418 C 524 443 513 454 488 454 L 293 454 L 293 531 L 569 531 C 594 531 605 542 605 567 L 605 684 C 605 709 594 720 569 720 L 105 720 C 80 720 69 709 69 684 L 69 36 C 69 11 80 0 105 0 Z M 375 932 C 352 926 336 926 313 932 L 176 972 C 141 983 134 977 134 941 L 134 860 C 134 824 142 820 176 807 L 313 757 C 323 753 333 752 345 752 C 357 753 372 756 384 761 L 512 807 C 544 820 553 824 553 860 L 553 941 C 553 977 546 983 512 972 Z" unicode="Ě" />
<glyph horiz-adv-x="654" d="M 569 0 C 594 0 605 11 605 36 L 605 153 C 605 178 594 189 569 189 L 293 189 L 293 275 L 488 275 C 513 275 524 286 524 311 L 524 418 C 524 443 513 454 488 454 L 293 454 L 293 531 L 569 531 C 594 531 605 542 605 567 L 605 684 C 605 709 594 720 569 720 L 105 720 C 80 720 69 709 69 684 L 69 36 C 69 11 80 0 105 0 Z M 375 932 C 352 926 336 926 313 932 L 176 972 C 141 983 134 977 134 941 L 134 860 C 134 824 142 820 176 807 L 313 757 C 323 753 333 752 345 752 C 357 753 372 756 384 761 L 512 807 C 544 820 553 824 553 860 L 553 941 C 553 977 546 983 512 972 Z" unicode="ě" />
<glyph horiz-adv-x="708" d="M 619 0 C 644 0 655 11 655 36 L 655 345 C 655 370 644 381 619 381 L 464 381 C 439 381 428 370 428 345 L 428 189 L 331 189 C 300 189 285 204 285 238 L 285 477 C 285 511 304 527 346 527 L 554 527 C 579 527 590 538 590 563 L 590 684 C 590 709 579 720 554 720 L 304 720 C 136 720 58 655 58 516 L 58 204 C 58 65 136 0 304 0 Z M 349 797 C 372 803 388 803 411 797 L 548 757 C 583 746 590 752 590 788 L 590 869 C 590 905 582 909 548 922 L 411 972 C 401 976 391 977 379 977 C 367 976 352 973 340 968 L 212 922 C 180 909 171 905 171 869 L 171 788 C 171 752 178 746 212 757 Z" unicode="Ĝ" />
<glyph horiz-adv-x="708" d="M 619 0 C 644 0 655 11 655 36 L 655 345 C 655 370 644 381 619 381 L 464 381 C 439 381 428 370 428 345 L 428 189 L 331 189 C 300 189 285 204 285 238 L 285 477 C 285 511 304 527 346 527 L 554 527 C 579 527 590 538 590 563 L 590 684 C 590 709 579 720 554 720 L 304 720 C 136 720 58 655 58 516 L 58 204 C 58 65 136 0 304 0 Z M 349 797 C 372 803 388 803 411 797 L 548 757 C 583 746 590 752 590 788 L 590 869 C 590 905 582 909 548 922 L 411 972 C 401 976 391 977 379 977 C 367 976 352 973 340 968 L 212 922 C 180 909 171 905 171 869 L 171 788 C 171 752 178 746 212 757 Z" unicode="ĝ" />
<glyph horiz-adv-x="708" d="M 619 0 C 644 0 655 11 655 36 L 655 345 C 655 370 644 381 619 381 L 464 381 C 439 381 428 370 428 345 L 428 189 L 331 189 C 300 189 285 204 285 238 L 285 477 C 285 511 304 527 346 527 L 554 527 C 579 527 590 538 590 563 L 590 684 C 590 709 579 720 554 720 L 304 720 C 136 720 58 655 58 516 L 58 204 C 58 65 136 0 304 0 Z M 591 897 L 591 941 C 591 966 580 977 555 977 L 464 977 C 441 977 434 970 434 946 L 434 925 C 434 906 425 892 375 892 C 326 892 318 906 318 925 L 318 946 C 318 970 310 977 289 977 L 193 977 C 168 977 157 966 157 941 L 157 897 C 157 812 200 754 374 754 C 548 754 591 812 591 897 Z" unicode="Ğ" />
<glyph horiz-adv-x="708" d="M 619 0 C 644 0 655 11 655 36 L 655 345 C 655 370 644 381 619 381 L 464 381 C 439 381 428 370 428 345 L 428 189 L 331 189 C 300 189 285 204 285 238 L 285 477 C 285 511 304 527 346 527 L 554 527 C 579 527 590 538 590 563 L 590 684 C 590 709 579 720 554 720 L 304 720 C 136 720 58 655 58 516 L 58 204 C 58 65 136 0 304 0 Z M 591 897 L 591 941 C 591 966 580 977 555 977 L 464 977 C 441 977 434 970 434 946 L 434 925 C 434 906 425 892 375 892 C 326 892 318 906 318 925 L 318 946 C 318 970 310 977 289 977 L 193 977 C 168 977 157 966 157 941 L 157 897 C 157 812 200 754 374 754 C 548 754 591 812 591 897 Z" unicode="ğ" />
<glyph horiz-adv-x="708" d="M 619 0 C 644 0 655 11 655 36 L 655 345 C 655 370 644 381 619 381 L 464 381 C 439 381 428 370 428 345 L 428 189 L 331 189 C 300 189 285 204 285 238 L 285 477 C 285 511 304 527 346 527 L 554 527 C 579 527 590 538 590 563 L 590 684 C 590 709 579 720 554 720 L 304 720 C 136 720 58 655 58 516 L 58 204 C 58 65 136 0 304 0 Z M 454 760 C 479 760 490 771 490 796 L 490 923 C 490 948 479 959 454 959 L 296 959 C 271 959 260 948 260 923 L 260 796 C 260 771 271 760 296 760 Z" unicode="Ġ" />
<glyph horiz-adv-x="708" d="M 619 0 C 644 0 655 11 655 36 L 655 345 C 655 370 644 381 619 381 L 464 381 C 439 381 428 370 428 345 L 428 189 L 331 189 C 300 189 285 204 285 238 L 285 477 C 285 511 304 527 346 527 L 554 527 C 579 527 590 538 590 563 L 590 684 C 590 709 579 720 554 720 L 304 720 C 136 720 58 655 58 516 L 58 204 C 58 65 136 0 304 0 Z M 454 760 C 479 760 490 771 490 796 L 490 923 C 490 948 479 959 454 959 L 296 959 C 271 959 260 948 260 923 L 260 796 C 260 771 271 760 296 760 Z" unicode="ġ" />
<glyph horiz-adv-x="708" d="M 619 0 C 644 0 655 11 655 36 L 655 345 C 655 370 644 381 619 381 L 464 381 C 439 381 428 370 428 345 L 428 189 L 331 189 C 300 189 285 204 285 238 L 285 477 C 285 511 304 527 346 527 L 554 527 C 579 527 590 538 590 563 L 590 684 C 590 709 579 720 554 720 L 304 720 C 136 720 58 655 58 516 L 58 204 C 58 65 136 0 304 0 Z M 365 -362 C 441 -362 490 -320 490 -234 L 490 -82 C 490 -52 481 -43 453 -43 L 295 -43 C 267 -43 258 -52 258 -82 L 258 -191 C 258 -221 267 -230 295 -230 L 381 -230 L 381 -243 C 381 -258 373 -267 358 -267 L 299 -267 C 278 -267 269 -276 269 -297 L 269 -331 C 269 -353 278 -362 299 -362 Z" unicode="Ģ" />
<glyph horiz-adv-x="708" d="M 619 0 C 644 0 655 11 655 36 L 655 345 C 655 370 644 381 619 381 L 464 381 C 439 381 428 370 428 345 L 428 189 L 331 189 C 300 189 285 204 285 238 L 285 477 C 285 511 304 527 346 527 L 554 527 C 579 527 590 538 590 563 L 590 684 C 590 709 579 720 554 720 L 304 720 C 136 720 58 655 58 516 L 58 204 C 58 65 136 0 304 0 Z M 365 -362 C 441 -362 490 -320 490 -234 L 490 -82 C 490 -52 481 -43 453 -43 L 295 -43 C 267 -43 258 -52 258 -82 L 258 -191 C 258 -221 267 -230 295 -230 L 381 -230 L 381 -243 C 381 -258 373 -267 358 -267 L 299 -267 C 278 -267 269 -276 269 -297 L 269 -331 C 269 -353 278 -362 299 -362 Z" unicode="ģ" />
<glyph horiz-adv-x="759" d="M 260 0 C 285 0 296 11 296 36 L 296 258 L 463 258 L 463 36 C 463 11 474 0 499 0 L 654 0 C 679 0 690 11 690 36 L 690 684 C 690 709 679 720 654 720 L 499 720 C 474 720 463 709 463 684 L 463 467 L 296 467 L 296 684 C 296 709 285 720 260 720 L 105 720 C 80 720 69 709 69 684 L 69 36 C 69 11 80 0 105 0 Z M 347 797 C 370 803 386 803 409 797 L 546 757 C 581 746 588 752 588 788 L 588 869 C 588 905 580 909 546 922 L 409 972 C 399 976 389 977 377 977 C 365 976 350 973 338 968 L 210 922 C 178 909 169 905 169 869 L 169 788 C 169 752 176 746 210 757 Z" unicode="Ĥ" />
<glyph horiz-adv-x="759" d="M 260 0 C 285 0 296 11 296 36 L 296 258 L 463 258 L 463 36 C 463 11 474 0 499 0 L 654 0 C 679 0 690 11 690 36 L 690 684 C 690 709 679 720 654 720 L 499 720 C 474 720 463 709 463 684 L 463 467 L 296 467 L 296 684 C 296 709 285 720 260 720 L 105 720 C 80 720 69 709 69 684 L 69 36 C 69 11 80 0 105 0 Z M 347 797 C 370 803 386 803 409 797 L 546 757 C 581 746 588 752 588 788 L 588 869 C 588 905 580 909 546 922 L 409 972 C 399 976 389 977 377 977 C 365 976 350 973 338 968 L 210 922 C 178 909 169 905 169 869 L 169 788 C 169 752 176 746 210 757 Z" unicode="ĥ" />
<glyph horiz-adv-x="779" d="M 303 347 L 303 425 L 476 425 L 476 347 Z M 303 36 L 303 148 L 476 148 L 476 36 C 476 11 487 0 512 0 L 664 0 C 689 0 700 11 700 36 L 700 425 L 713 425 C 738 425 749 435 749 461 L 749 558 C 749 584 738 594 713 594 L 700 594 L 700 684 C 700 709 689 720 664 720 L 512 720 C 487 720 476 709 476 684 L 476 594 L 303 594 L 303 684 C 303 709 292 720 267 720 L 115 720 C 90 720 79 709 79 684 L 79 594 L 66 594 C 41 594 30 583 30 558 L 30 461 C 30 435 41 425 66 425 L 79 425 L 79 36 C 79 11 90 0 115 0 L 267 0 C 292 0 303 11 303 36 Z" unicode="Ħ" />
<glyph horiz-adv-x="779" d="M 303 347 L 303 425 L 476 425 L 476 347 Z M 303 36 L 303 148 L 476 148 L 476 36 C 476 11 487 0 512 0 L 664 0 C 689 0 700 11 700 36 L 700 425 L 713 425 C 738 425 749 435 749 461 L 749 558 C 749 584 738 594 713 594 L 700 594 L 700 684 C 700 709 689 720 664 720 L 512 720 C 487 720 476 709 476 684 L 476 594 L 303 594 L 303 684 C 303 709 292 720 267 720 L 115 720 C 90 720 79 709 79 684 L 79 594 L 66 594 C 41 594 30 583 30 558 L 30 461 C 30 435 41 425 66 425 L 79 425 L 79 36 C 79 11 90 0 115 0 L 267 0 C 292 0 303 11 303 36 Z" unicode="ħ" />
<glyph horiz-adv-x="605" d="M 89 0 L 515 0 C 540 0 551 11 551 36 L 551 155 C 551 180 540 191 515 191 L 418 191 L 418 527 L 515 527 C 540 527 551 538 551 563 L 551 684 C 551 709 540 720 515 720 L 89 720 C 64 720 53 709 53 684 L 53 563 C 53 538 64 527 89 527 L 188 527 L 188 191 L 89 191 C 64 191 53 180 53 155 L 53 36 C 53 11 64 0 89 0 Z M 301 764 L 317 762 C 397 750 411 748 474 767 C 497 776 510 783 510 808 L 510 909 C 510 934 498 942 474 935 C 415 917 411 914 323 927 L 301 930 L 284 932 C 204 944 191 946 128 927 C 105 918 92 911 92 886 L 92 785 C 92 760 104 752 128 759 C 181 775 197 779 273 768 Z" unicode="Ĩ" />
<glyph horiz-adv-x="605" d="M 89 0 L 515 0 C 540 0 551 11 551 36 L 551 155 C 551 180 540 191 515 191 L 418 191 L 418 527 L 515 527 C 540 527 551 538 551 563 L 551 684 C 551 709 540 720 515 720 L 89 720 C 64 720 53 709 53 684 L 53 563 C 53 538 64 527 89 527 L 188 527 L 188 191 L 89 191 C 64 191 53 180 53 155 L 53 36 C 53 11 64 0 89 0 Z M 301 764 L 317 762 C 397 750 411 748 474 767 C 497 776 510 783 510 808 L 510 909 C 510 934 498 942 474 935 C 415 917 411 914 323 927 L 301 930 L 284 932 C 204 944 191 946 128 927 C 105 918 92 911 92 886 L 92 785 C 92 760 104 752 128 759 C 181 775 197 779 273 768 Z" unicode="ĩ" />
<glyph horiz-adv-x="605" d="M 89 0 L 515 0 C 540 0 551 11 551 36 L 551 155 C 551 180 540 191 515 191 L 418 191 L 418 527 L 515 527 C 540 527 551 538 551 563 L 551 684 C 551 709 540 720 515 720 L 89 720 C 64 720 53 709 53 684 L 53 563 C 53 538 64 527 89 527 L 188 527 L 188 191 L 89 191 C 64 191 53 180 53 155 L 53 36 C 53 11 64 0 89 0 Z M 475 760 C 500 760 511 771 511 796 L 511 889 C 511 914 500 925 475 925 L 128 925 C 103 925 92 914 92 889 L 92 796 C 92 771 103 760 128 760 Z" unicode="Ī" />
<glyph horiz-adv-x="605" d="M 89 0 L 515 0 C 540 0 551 11 551 36 L 551 155 C 551 180 540 191 515 191 L 418 191 L 418 527 L 515 527 C 540 527 551 538 551 563 L 551 684 C 551 709 540 720 515 720 L 89 720 C 64 720 53 709 53 684 L 53 563 C 53 538 64 527 89 527 L 188 527 L 188 191 L 89 191 C 64 191 53 180 53 155 L 53 36 C 53 11 64 0 89 0 Z M 475 760 C 500 760 511 771 511 796 L 511 889 C 511 914 500 925 475 925 L 128 925 C 103 925 92 914 92 889 L 92 796 C 92 771 103 760 128 760 Z" unicode="ī" />
<glyph horiz-adv-x="605" d="M 89 0 L 515 0 C 540 0 551 11 551 36 L 551 155 C 551 180 540 191 515 191 L 418 191 L 418 527 L 515 527 C 540 527 551 538 551 563 L 551 684 C 551 709 540 720 515 720 L 89 720 C 64 720 53 709 53 684 L 53 563 C 53 538 64 527 89 527 L 188 527 L 188 191 L 89 191 C 64 191 53 180 53 155 L 53 36 C 53 11 64 0 89 0 Z M 519 897 L 519 941 C 519 966 508 977 483 977 L 392 977 C 369 977 362 970 362 946 L 362 925 C 362 906 353 892 303 892 C 254 892 246 906 246 925 L 246 946 C 246 970 238 977 217 977 L 121 977 C 96 977 85 966 85 941 L 85 897 C 85 812 128 754 302 754 C 476 754 519 812 519 897 Z" unicode="Ĭ" />
<glyph horiz-adv-x="605" d="M 89 0 L 515 0 C 540 0 551 11 551 36 L 551 155 C 551 180 540 191 515 191 L 418 191 L 418 527 L 515 527 C 540 527 551 538 551 563 L 551 684 C 551 709 540 720 515 720 L 89 720 C 64 720 53 709 53 684 L 53 563 C 53 538 64 527 89 527 L 188 527 L 188 191 L 89 191 C 64 191 53 180 53 155 L 53 36 C 53 11 64 0 89 0 Z M 519 897 L 519 941 C 519 966 508 977 483 977 L 392 977 C 369 977 362 970 362 946 L 362 925 C 362 906 353 892 303 892 C 254 892 246 906 246 925 L 246 946 C 246 970 238 977 217 977 L 121 977 C 96 977 85 966 85 941 L 85 897 C 85 812 128 754 302 754 C 476 754 519 812 519 897 Z" unicode="ĭ" />
<glyph horiz-adv-x="605" d="M 89 0 L 515 0 C 540 0 551 11 551 36 L 551 155 C 551 180 540 191 515 191 L 418 191 L 418 527 L 515 527 C 540 527 551 538 551 563 L 551 684 C 551 709 540 720 515 720 L 89 720 C 64 720 53 709 53 684 L 53 563 C 53 538 64 527 89 527 L 188 527 L 188 191 L 89 191 C 64 191 53 180 53 155 L 53 36 C 53 11 64 0 89 0 Z M 490 67 L 327 67 L 306 -51 C 292 -144 321 -186 407 -186 L 518 -186 C 544 -186 551 -178 551 -152 L 551 -80 C 551 -54 543 -46 515 -46 L 474 -46 Z" unicode="Į" />
<glyph horiz-adv-x="605" d="M 89 0 L 515 0 C 540 0 551 11 551 36 L 551 155 C 551 180 540 191 515 191 L 418 191 L 418 527 L 515 527 C 540 527 551 538 551 563 L 551 684 C 551 709 540 720 515 720 L 89 720 C 64 720 53 709 53 684 L 53 563 C 53 538 64 527 89 527 L 188 527 L 188 191 L 89 191 C 64 191 53 180 53 155 L 53 36 C 53 11 64 0 89 0 Z M 490 67 L 327 67 L 306 -51 C 292 -144 321 -186 407 -186 L 518 -186 C 544 -186 551 -178 551 -152 L 551 -80 C 551 -54 543 -46 515 -46 L 474 -46 Z" unicode="į" />
<glyph horiz-adv-x="605" d="M 89 0 L 515 0 C 540 0 551 11 551 36 L 551 155 C 551 180 540 191 515 191 L 418 191 L 418 527 L 515 527 C 540 527 551 538 551 563 L 551 684 C 551 709 540 720 515 720 L 89 720 C 64 720 53 709 53 684 L 53 563 C 53 538 64 527 89 527 L 188 527 L 188 191 L 89 191 C 64 191 53 180 53 155 L 53 36 C 53 11 64 0 89 0 Z M 382 760 C 407 760 418 771 418 796 L 418 923 C 418 948 407 959 382 959 L 224 959 C 199 959 188 948 188 923 L 188 796 C 188 771 199 760 224 760 Z" unicode="İ" />
<glyph horiz-adv-x="605" d="M 89 0 L 515 0 C 540 0 551 11 551 36 L 551 155 C 551 180 540 191 515 191 L 418 191 L 418 527 L 515 527 C 540 527 551 538 551 563 L 551 684 C 551 709 540 720 515 720 L 89 720 C 64 720 53 709 53 684 L 53 563 C 53 538 64 527 89 527 L 188 527 L 188 191 L 89 191 C 64 191 53 180 53 155 L 53 36 C 53 11 64 0 89 0 Z" unicode="ı" />
<glyph horiz-adv-x="744" d="M 260 310 C 285 310 296 321 296 346 L 296 684 C 296 709 285 720 260 720 L 105 720 C 80 720 69 709 69 684 L 69 346 C 69 321 80 310 105 310 Z M 69 36 C 69 11 80 0 105 0 L 467 0 C 599 0 680 78 680 210 L 680 684 C 680 709 669 720 644 720 L 489 720 C 464 720 453 709 453 684 L 453 260 C 453 212 428 193 380 193 L 105 193 C 80 193 69 182 69 157 Z" unicode="Ĳ" />
<glyph horiz-adv-x="744" d="M 260 310 C 285 310 296 321 296 346 L 296 684 C 296 709 285 720 260 720 L 105 720 C 80 720 69 709 69 684 L 69 346 C 69 321 80 310 105 310 Z M 69 36 C 69 11 80 0 105 0 L 467 0 C 599 0 680 78 680 210 L 680 684 C 680 709 669 720 644 720 L 489 720 C 464 720 453 709 453 684 L 453 260 C 453 212 428 193 380 193 L 105 193 C 80 193 69 182 69 157 Z" unicode="ĳ" />
<glyph horiz-adv-x="688" d="M 624 189 L 624 684 C 624 709 613 720 588 720 L 431 720 C 406 720 395 709 395 684 L 395 229 C 395 202 387 182 329 182 C 267 182 258 202 258 229 L 258 351 C 258 377 247 387 222 387 L 77 387 C 52 387 41 377 41 351 L 41 189 C 41 67 98 -15 331 -15 C 566 -15 624 67 624 189 Z M 470 797 C 493 803 509 803 532 797 L 669 757 C 704 746 711 752 711 788 L 711 869 C 711 905 703 909 669 922 L 532 972 C 522 976 512 977 500 977 C 488 976 473 973 461 968 L 333 922 C 301 909 292 905 292 869 L 292 788 C 292 752 299 746 333 757 Z" unicode="Ĵ" />
<glyph horiz-adv-x="688" d="M 624 189 L 624 684 C 624 709 613 720 588 720 L 431 720 C 406 720 395 709 395 684 L 395 229 C 395 202 387 182 329 182 C 267 182 258 202 258 229 L 258 351 C 258 377 247 387 222 387 L 77 387 C 52 387 41 377 41 351 L 41 189 C 41 67 98 -15 331 -15 C 566 -15 624 67 624 189 Z M 470 797 C 493 803 509 803 532 797 L 669 757 C 704 746 711 752 711 788 L 711 869 C 711 905 703 909 669 922 L 532 972 C 522 976 512 977 500 977 C 488 976 473 973 461 968 L 333 922 C 301 909 292 905 292 869 L 292 788 C 292 752 299 746 333 757 Z" unicode="ĵ" />
<glyph horiz-adv-x="746" d="M 260 0 C 285 0 296 11 296 36 L 296 265 L 428 265 C 449 265 460 253 460 231 L 460 36 C 460 11 471 0 496 0 L 650 0 C 675 0 686 11 686 36 L 686 318 C 686 398 638 450 563 454 L 665 687 C 674 708 666 720 643 720 L 489 720 C 463 720 449 711 439 687 L 336 454 L 296 454 L 296 684 C 296 709 285 720 260 720 L 105 720 C 80 720 69 709 69 684 L 69 36 C 69 11 80 0 105 0 Z M 364 -362 C 440 -362 489 -320 489 -234 L 489 -82 C 489 -52 480 -43 452 -43 L 294 -43 C 266 -43 257 -52 257 -82 L 257 -191 C 257 -221 266 -230 294 -230 L 380 -230 L 380 -243 C 380 -258 372 -267 357 -267 L 298 -267 C 277 -267 268 -276 268 -297 L 268 -331 C 268 -353 277 -362 298 -362 Z" unicode="Ķ" />
<glyph horiz-adv-x="746" d="M 260 0 C 285 0 296 11 296 36 L 296 265 L 428 265 C 449 265 460 253 460 231 L 460 36 C 460 11 471 0 496 0 L 650 0 C 675 0 686 11 686 36 L 686 318 C 686 398 638 450 563 454 L 665 687 C 674 708 666 720 643 720 L 489 720 C 463 720 449 711 439 687 L 336 454 L 296 454 L 296 684 C 296 709 285 720 260 720 L 105 720 C 80 720 69 709 69 684 L 69 36 C 69 11 80 0 105 0 Z M 364 -362 C 440 -362 489 -320 489 -234 L 489 -82 C 489 -52 480 -43 452 -43 L 294 -43 C 266 -43 257 -52 257 -82 L 257 -191 C 257 -221 266 -230 294 -230 L 380 -230 L 380 -243 C 380 -258 372 -267 357 -267 L 298 -267 C 277 -267 268 -276 268 -297 L 268 -331 C 268 -353 277 -362 298 -362 Z" unicode="ķ" />
<glyph horiz-adv-x="695" d="M 614 0 C 639 0 650 11 650 36 L 650 351 C 650 376 639 387 614 387 L 469 387 C 444 387 433 376 433 351 L 433 189 L 296 189 L 296 684 C 296 709 285 720 260 720 L 105 720 C 80 720 69 709 69 684 L 69 36 C 69 11 80 0 105 0 Z M 452 796 C 477 799 488 807 488 832 L 488 928 C 488 951 477 964 454 961 L 105 918 C 80 915 69 907 69 882 L 69 786 C 69 763 80 750 103 753 Z" unicode="Ĺ" />
<glyph horiz-adv-x="695" d="M 614 0 C 639 0 650 11 650 36 L 650 351 C 650 376 639 387 614 387 L 469 387 C 444 387 433 376 433 351 L 433 189 L 296 189 L 296 684 C 296 709 285 720 260 720 L 105 720 C 80 720 69 709 69 684 L 69 36 C 69 11 80 0 105 0 Z M 452 796 C 477 799 488 807 488 832 L 488 928 C 488 951 477 964 454 961 L 105 918 C 80 915 69 907 69 882 L 69 786 C 69 763 80 750 103 753 Z" unicode="ĺ" />
<glyph horiz-adv-x="695" d="M 614 0 C 639 0 650 11 650 36 L 650 351 C 650 376 639 387 614 387 L 469 387 C 444 387 433 376 433 351 L 433 189 L 296 189 L 296 684 C 296 709 285 720 260 720 L 105 720 C 80 720 69 709 69 684 L 69 36 C 69 11 80 0 105 0 Z M 355 -362 C 431 -362 480 -320 480 -234 L 480 -82 C 480 -52 471 -43 443 -43 L 285 -43 C 257 -43 248 -52 248 -82 L 248 -191 C 248 -221 257 -230 285 -230 L 371 -230 L 371 -243 C 371 -258 363 -267 348 -267 L 289 -267 C 268 -267 259 -276 259 -297 L 259 -331 C 259 -353 268 -362 289 -362 Z" unicode="Ļ" />
<glyph horiz-adv-x="695" d="M 614 0 C 639 0 650 11 650 36 L 650 351 C 650 376 639 387 614 387 L 469 387 C 444 387 433 376 433 351 L 433 189 L 296 189 L 296 684 C 296 709 285 720 260 720 L 105 720 C 80 720 69 709 69 684 L 69 36 C 69 11 80 0 105 0 Z M 355 -362 C 431 -362 480 -320 480 -234 L 480 -82 C 480 -52 471 -43 443 -43 L 285 -43 C 257 -43 248 -52 248 -82 L 248 -191 C 248 -221 257 -230 285 -230 L 371 -230 L 371 -243 C 371 -258 363 -267 348 -267 L 289 -267 C 268 -267 259 -276 259 -297 L 259 -331 C 259 -353 268 -362 289 -362 Z" unicode="ļ" />
<glyph horiz-adv-x="695" d="M 614 0 C 639 0 650 11 650 36 L 650 351 C 650 376 639 387 614 387 L 469 387 C 444 387 433 376 433 351 L 433 189 L 296 189 L 296 684 C 296 709 285 720 260 720 L 105 720 C 80 720 69 709 69 684 L 69 36 C 69 11 80 0 105 0 Z M 560 452 C 585 452 590 464 596 488 L 643 684 C 649 708 632 720 607 720 L 469 720 C 444 720 437 709 433 684 L 400 488 C 396 463 411 452 436 452 Z" unicode="Ľ" />
<glyph horiz-adv-x="695" d="M 614 0 C 639 0 650 11 650 36 L 650 351 C 650 376 639 387 614 387 L 469 387 C 444 387 433 376 433 351 L 433 189 L 296 189 L 296 684 C 296 709 285 720 260 720 L 105 720 C 80 720 69 709 69 684 L 69 36 C 69 11 80 0 105 0 Z M 560 452 C 585 452 590 464 596 488 L 643 684 C 649 708 632 720 607 720 L 469 720 C 444 720 437 709 433 684 L 400 488 C 396 463 411 452 436 452 Z" unicode="ľ" />
<glyph horiz-adv-x="695" d="M 614 0 C 639 0 650 11 650 36 L 650 271 C 650 296 639 307 614 307 L 469 307 C 444 307 433 296 433 271 L 433 189 L 296 189 L 296 684 C 296 709 285 720 260 720 L 105 720 C 80 720 69 709 69 684 L 69 36 C 69 11 80 0 105 0 Z M 604 372 C 629 372 640 383 640 408 L 640 535 C 640 560 629 571 604 571 L 459 571 C 434 571 423 560 423 535 L 423 408 C 423 383 434 372 459 372 Z" unicode="Ŀ" />
<glyph horiz-adv-x="695" d="M 614 0 C 639 0 650 11 650 36 L 650 271 C 650 296 639 307 614 307 L 469 307 C 444 307 433 296 433 271 L 433 189 L 296 189 L 296 684 C 296 709 285 720 260 720 L 105 720 C 80 720 69 709 69 684 L 69 36 C 69 11 80 0 105 0 Z M 604 372 C 629 372 640 383 640 408 L 640 535 C 640 560 629 571 604 571 L 459 571 C 434 571 423 560 423 535 L 423 408 C 423 383 434 372 459 372 Z" unicode="ŀ" />
<glyph horiz-adv-x="705" d="M 20 428 L 20 321 C 20 295 31 281 56 285 L 364 335 C 389 339 400 345 400 371 L 400 478 C 400 504 389 518 364 514 L 56 464 C 31 460 20 453 20 428 Z M 624 0 C 649 0 660 11 660 36 L 660 351 C 660 376 649 387 624 387 L 479 387 C 454 387 443 376 443 351 L 443 189 L 306 189 L 306 684 C 306 709 295 720 270 720 L 115 720 C 90 720 79 709 79 684 L 79 36 C 79 11 90 0 115 0 Z" unicode="Ł" />
<glyph horiz-adv-x="705" d="M 20 428 L 20 321 C 20 295 31 281 56 285 L 364 335 C 389 339 400 345 400 371 L 400 478 C 400 504 389 518 364 514 L 56 464 C 31 460 20 453 20 428 Z M 624 0 C 649 0 660 11 660 36 L 660 351 C 660 376 649 387 624 387 L 479 387 C 454 387 443 376 443 351 L 443 189 L 306 189 L 306 684 C 306 709 295 720 270 720 L 115 720 C 90 720 79 709 79 684 L 79 36 C 79 11 90 0 115 0 Z" unicode="ł" />
<glyph horiz-adv-x="753" d="M 255 0 C 280 0 291 11 291 36 L 291 366 L 462 159 L 462 36 C 462 11 473 0 498 0 L 648 0 C 673 0 684 11 684 36 L 684 684 C 684 709 673 720 648 720 L 498 720 C 473 720 462 709 462 684 L 462 471 L 268 693 C 251 713 235 720 209 720 L 105 720 C 80 720 69 709 69 684 L 69 36 C 69 11 80 0 105 0 Z M 559 796 C 584 799 595 807 595 832 L 595 928 C 595 951 584 964 561 961 L 212 918 C 187 915 176 907 176 882 L 176 786 C 176 763 187 750 210 753 Z" unicode="Ń" />
<glyph horiz-adv-x="753" d="M 255 0 C 280 0 291 11 291 36 L 291 366 L 462 159 L 462 36 C 462 11 473 0 498 0 L 648 0 C 673 0 684 11 684 36 L 684 684 C 684 709 673 720 648 720 L 498 720 C 473 720 462 709 462 684 L 462 471 L 268 693 C 251 713 235 720 209 720 L 105 720 C 80 720 69 709 69 684 L 69 36 C 69 11 80 0 105 0 Z M 559 796 C 584 799 595 807 595 832 L 595 928 C 595 951 584 964 561 961 L 212 918 C 187 915 176 907 176 882 L 176 786 C 176 763 187 750 210 753 Z" unicode="ń" />
<glyph horiz-adv-x="753" d="M 255 0 C 280 0 291 11 291 36 L 291 366 L 462 159 L 462 36 C 462 11 473 0 498 0 L 648 0 C 673 0 684 11 684 36 L 684 684 C 684 709 673 720 648 720 L 498 720 C 473 720 462 709 462 684 L 462 471 L 268 693 C 251 713 235 720 209 720 L 105 720 C 80 720 69 709 69 684 L 69 36 C 69 11 80 0 105 0 Z M 367 -362 C 443 -362 492 -320 492 -234 L 492 -82 C 492 -52 483 -43 455 -43 L 297 -43 C 269 -43 260 -52 260 -82 L 260 -191 C 260 -221 269 -230 297 -230 L 383 -230 L 383 -243 C 383 -258 375 -267 360 -267 L 301 -267 C 280 -267 271 -276 271 -297 L 271 -331 C 271 -353 280 -362 301 -362 Z" unicode="Ņ" />
<glyph horiz-adv-x="753" d="M 255 0 C 280 0 291 11 291 36 L 291 366 L 462 159 L 462 36 C 462 11 473 0 498 0 L 648 0 C 673 0 684 11 684 36 L 684 684 C 684 709 673 720 648 720 L 498 720 C 473 720 462 709 462 684 L 462 471 L 268 693 C 251 713 235 720 209 720 L 105 720 C 80 720 69 709 69 684 L 69 36 C 69 11 80 0 105 0 Z M 367 -362 C 443 -362 492 -320 492 -234 L 492 -82 C 492 -52 483 -43 455 -43 L 297 -43 C 269 -43 260 -52 260 -82 L 260 -191 C 260 -221 269 -230 297 -230 L 383 -230 L 383 -243 C 383 -258 375 -267 360 -267 L 301 -267 C 280 -267 271 -276 271 -297 L 271 -331 C 271 -353 280 -362 301 -362 Z" unicode="ņ" />
<glyph horiz-adv-x="753" d="M 255 0 C 280 0 291 11 291 36 L 291 366 L 462 159 L 462 36 C 462 11 473 0 498 0 L 648 0 C 673 0 684 11 684 36 L 684 684 C 684 709 673 720 648 720 L 498 720 C 473 720 462 709 462 684 L 462 471 L 268 693 C 251 713 235 720 209 720 L 105 720 C 80 720 69 709 69 684 L 69 36 C 69 11 80 0 105 0 Z M 397 932 C 374 926 358 926 335 932 L 198 972 C 163 983 156 977 156 941 L 156 860 C 156 824 164 820 198 807 L 335 757 C 345 753 355 752 367 752 C 379 753 394 756 406 761 L 534 807 C 566 820 575 824 575 860 L 575 941 C 575 977 568 983 534 972 Z" unicode="Ň" />
<glyph horiz-adv-x="753" d="M 255 0 C 280 0 291 11 291 36 L 291 366 L 462 159 L 462 36 C 462 11 473 0 498 0 L 648 0 C 673 0 684 11 684 36 L 684 684 C 684 709 673 720 648 720 L 498 720 C 473 720 462 709 462 684 L 462 471 L 268 693 C 251 713 235 720 209 720 L 105 720 C 80 720 69 709 69 684 L 69 36 C 69 11 80 0 105 0 Z M 397 932 C 374 926 358 926 335 932 L 198 972 C 163 983 156 977 156 941 L 156 860 C 156 824 164 820 198 807 L 335 757 C 345 753 355 752 367 752 C 379 753 394 756 406 761 L 534 807 C 566 820 575 824 575 860 L 575 941 C 575 977 568 983 534 972 Z" unicode="ň" />
<glyph horiz-adv-x="746" d="M 64 531 L 64 36 C 64 11 75 0 100 0 L 252 0 C 278 0 288 11 288 36 L 288 492 C 288 519 300 539 371 539 C 441 539 453 519 453 492 L 453 149 C 453 121 447 101 412 101 L 391 101 C 366 101 355 90 355 65 L 355 -54 C 355 -79 366 -90 391 -90 L 436 -90 C 625 -90 682 -7 682 114 L 682 531 C 682 653 621 735 373 735 C 125 735 64 653 64 531 Z" unicode="Ŋ" />
<glyph horiz-adv-x="746" d="M 64 531 L 64 36 C 64 11 75 0 100 0 L 252 0 C 278 0 288 11 288 36 L 288 492 C 288 519 300 539 371 539 C 441 539 453 519 453 492 L 453 149 C 453 121 447 101 412 101 L 391 101 C 366 101 355 90 355 65 L 355 -54 C 355 -79 366 -90 391 -90 L 436 -90 C 625 -90 682 -7 682 114 L 682 531 C 682 653 621 735 373 735 C 125 735 64 653 64 531 Z" unicode="ŋ" />
<glyph horiz-adv-x="737" d="M 679 189 L 679 530 C 679 652 619 735 369 735 C 119 735 58 652 58 530 L 58 189 C 58 67 119 -15 369 -15 C 619 -15 679 67 679 189 Z M 285 225 L 285 494 C 285 520 297 540 369 540 C 442 540 453 520 453 494 L 453 225 C 453 198 442 178 369 178 C 297 178 285 198 285 225 Z M 541 760 C 566 760 577 771 577 796 L 577 889 C 577 914 566 925 541 925 L 194 925 C 169 925 158 914 158 889 L 158 796 C 158 771 169 760 194 760 Z" unicode="Ō" />
<glyph horiz-adv-x="737" d="M 679 189 L 679 530 C 679 652 619 735 369 735 C 119 735 58 652 58 530 L 58 189 C 58 67 119 -15 369 -15 C 619 -15 679 67 679 189 Z M 285 225 L 285 494 C 285 520 297 540 369 540 C 442 540 453 520 453 494 L 453 225 C 453 198 442 178 369 178 C 297 178 285 198 285 225 Z M 541 760 C 566 760 577 771 577 796 L 577 889 C 577 914 566 925 541 925 L 194 925 C 169 925 158 914 158 889 L 158 796 C 158 771 169 760 194 760 Z" unicode="ō" />
<glyph horiz-adv-x="737" d="M 679 189 L 679 530 C 679 652 619 735 369 735 C 119 735 58 652 58 530 L 58 189 C 58 67 119 -15 369 -15 C 619 -15 679 67 679 189 Z M 285 225 L 285 494 C 285 520 297 540 369 540 C 442 540 453 520 453 494 L 453 225 C 453 198 442 178 369 178 C 297 178 285 198 285 225 Z M 585 897 L 585 941 C 585 966 574 977 549 977 L 458 977 C 435 977 428 970 428 946 L 428 925 C 428 906 419 892 369 892 C 320 892 312 906 312 925 L 312 946 C 312 970 304 977 283 977 L 187 977 C 162 977 151 966 151 941 L 151 897 C 151 812 194 754 368 754 C 542 754 585 812 585 897 Z" unicode="Ŏ" />
<glyph horiz-adv-x="737" d="M 679 189 L 679 530 C 679 652 619 735 369 735 C 119 735 58 652 58 530 L 58 189 C 58 67 119 -15 369 -15 C 619 -15 679 67 679 189 Z M 285 225 L 285 494 C 285 520 297 540 369 540 C 442 540 453 520 453 494 L 453 225 C 453 198 442 178 369 178 C 297 178 285 198 285 225 Z M 585 897 L 585 941 C 585 966 574 977 549 977 L 458 977 C 435 977 428 970 428 946 L 428 925 C 428 906 419 892 369 892 C 320 892 312 906 312 925 L 312 946 C 312 970 304 977 283 977 L 187 977 C 162 977 151 966 151 941 L 151 897 C 151 812 194 754 368 754 C 542 754 585 812 585 897 Z" unicode="ŏ" />
<glyph horiz-adv-x="737" d="M 679 189 L 679 530 C 679 652 619 735 369 735 C 119 735 58 652 58 530 L 58 189 C 58 67 119 -15 369 -15 C 619 -15 679 67 679 189 Z M 285 225 L 285 494 C 285 520 297 540 369 540 C 442 540 453 520 453 494 L 453 225 C 453 198 442 178 369 178 C 297 178 285 198 285 225 Z M 408 794 C 402 772 418 760 441 760 L 547 760 C 572 760 577 772 583 796 L 636 1003 C 642 1025 626 1037 603 1037 L 497 1037 C 472 1037 467 1025 461 1001 Z M 148 794 C 142 772 158 760 181 760 L 287 760 C 312 760 317 772 323 796 L 376 1003 C 382 1025 366 1037 343 1037 L 237 1037 C 212 1037 207 1025 201 1001 Z" unicode="Ő" />
<glyph horiz-adv-x="737" d="M 679 189 L 679 530 C 679 652 619 735 369 735 C 119 735 58 652 58 530 L 58 189 C 58 67 119 -15 369 -15 C 619 -15 679 67 679 189 Z M 285 225 L 285 494 C 285 520 297 540 369 540 C 442 540 453 520 453 494 L 453 225 C 453 198 442 178 369 178 C 297 178 285 198 285 225 Z M 408 794 C 402 772 418 760 441 760 L 547 760 C 572 760 577 772 583 796 L 636 1003 C 642 1025 626 1037 603 1037 L 497 1037 C 472 1037 467 1025 461 1001 Z M 148 794 C 142 772 158 760 181 760 L 287 760 C 312 760 317 772 323 796 L 376 1003 C 382 1025 366 1037 343 1037 L 237 1037 C 212 1037 207 1025 201 1001 Z" unicode="ő" />
<glyph horiz-adv-x="1015" d="M 440 189 L 331 189 C 291 189 284 211 284 238 L 284 481 C 284 507 291 529 331 529 L 440 529 Z M 304 0 L 930 0 C 955 0 966 11 966 36 L 966 153 C 966 178 955 189 930 189 L 667 189 L 667 275 L 849 275 C 874 275 885 286 885 311 L 885 418 C 885 444 874 454 849 454 L 667 454 L 667 531 L 930 531 C 955 531 966 542 966 567 L 966 684 C 966 709 955 720 930 720 L 304 720 C 115 720 58 637 58 516 L 58 204 C 58 83 115 0 304 0 Z" unicode="Œ" />
<glyph horiz-adv-x="1015" d="M 440 189 L 331 189 C 291 189 284 211 284 238 L 284 481 C 284 507 291 529 331 529 L 440 529 Z M 304 0 L 930 0 C 955 0 966 11 966 36 L 966 153 C 966 178 955 189 930 189 L 667 189 L 667 275 L 849 275 C 874 275 885 286 885 311 L 885 418 C 885 444 874 454 849 454 L 667 454 L 667 531 L 930 531 C 955 531 966 542 966 567 L 966 684 C 966 709 955 720 930 720 L 304 720 C 115 720 58 637 58 516 L 58 204 C 58 83 115 0 304 0 Z" unicode="œ" />
<glyph horiz-adv-x="743" d="M 295 540 L 370 540 C 405 540 414 520 414 493 L 414 459 C 414 432 405 412 370 412 L 295 412 Z M 259 0 C 284 0 295 11 295 36 L 295 232 L 435 232 C 463 232 473 219 473 189 L 473 36 C 473 11 484 0 509 0 L 664 0 C 689 0 700 11 700 36 L 700 248 C 700 332 652 385 579 393 C 621 411 635 451 635 507 L 635 553 C 635 652 588 720 438 720 L 105 720 C 80 720 69 709 69 684 L 69 36 C 69 11 80 0 105 0 Z M 534 796 C 559 799 570 807 570 832 L 570 928 C 570 951 559 964 536 961 L 187 918 C 162 915 151 907 151 882 L 151 786 C 151 763 162 750 185 753 Z" unicode="Ŕ" />
<glyph horiz-adv-x="743" d="M 295 540 L 370 540 C 405 540 414 520 414 493 L 414 459 C 414 432 405 412 370 412 L 295 412 Z M 259 0 C 284 0 295 11 295 36 L 295 232 L 435 232 C 463 232 473 219 473 189 L 473 36 C 473 11 484 0 509 0 L 664 0 C 689 0 700 11 700 36 L 700 248 C 700 332 652 385 579 393 C 621 411 635 451 635 507 L 635 553 C 635 652 588 720 438 720 L 105 720 C 80 720 69 709 69 684 L 69 36 C 69 11 80 0 105 0 Z M 534 796 C 559 799 570 807 570 832 L 570 928 C 570 951 559 964 536 961 L 187 918 C 162 915 151 907 151 882 L 151 786 C 151 763 162 750 185 753 Z" unicode="ŕ" />
<glyph horiz-adv-x="743" d="M 295 540 L 370 540 C 405 540 414 520 414 493 L 414 459 C 414 432 405 412 370 412 L 295 412 Z M 259 0 C 284 0 295 11 295 36 L 295 232 L 435 232 C 463 232 473 219 473 189 L 473 36 C 473 11 484 0 509 0 L 664 0 C 689 0 700 11 700 36 L 700 248 C 700 332 652 385 579 393 C 621 411 635 451 635 507 L 635 553 C 635 652 588 720 438 720 L 105 720 C 80 720 69 709 69 684 L 69 36 C 69 11 80 0 105 0 Z M 372 -362 C 448 -362 497 -320 497 -234 L 497 -82 C 497 -52 488 -43 460 -43 L 302 -43 C 274 -43 265 -52 265 -82 L 265 -191 C 265 -221 274 -230 302 -230 L 388 -230 L 388 -243 C 388 -258 380 -267 365 -267 L 306 -267 C 285 -267 276 -276 276 -297 L 276 -331 C 276 -353 285 -362 306 -362 Z" unicode="Ŗ" />
<glyph horiz-adv-x="743" d="M 295 540 L 370 540 C 405 540 414 520 414 493 L 414 459 C 414 432 405 412 370 412 L 295 412 Z M 259 0 C 284 0 295 11 295 36 L 295 232 L 435 232 C 463 232 473 219 473 189 L 473 36 C 473 11 484 0 509 0 L 664 0 C 689 0 700 11 700 36 L 700 248 C 700 332 652 385 579 393 C 621 411 635 451 635 507 L 635 553 C 635 652 588 720 438 720 L 105 720 C 80 720 69 709 69 684 L 69 36 C 69 11 80 0 105 0 Z M 372 -362 C 448 -362 497 -320 497 -234 L 497 -82 C 497 -52 488 -43 460 -43 L 302 -43 C 274 -43 265 -52 265 -82 L 265 -191 C 265 -221 274 -230 302 -230 L 388 -230 L 388 -243 C 388 -258 380 -267 365 -267 L 306 -267 C 285 -267 276 -276 276 -297 L 276 -331 C 276 -353 285 -362 306 -362 Z" unicode="ŗ" />
<glyph horiz-adv-x="743" d="M 295 540 L 370 540 C 405 540 414 520 414 493 L 414 459 C 414 432 405 412 370 412 L 295 412 Z M 259 0 C 284 0 295 11 295 36 L 295 232 L 435 232 C 463 232 473 219 473 189 L 473 36 C 473 11 484 0 509 0 L 664 0 C 689 0 700 11 700 36 L 700 248 C 700 332 652 385 579 393 C 621 411 635 451 635 507 L 635 553 C 635 652 588 720 438 720 L 105 720 C 80 720 69 709 69 684 L 69 36 C 69 11 80 0 105 0 Z M 402 932 C 379 926 363 926 340 932 L 203 972 C 168 983 161 977 161 941 L 161 860 C 161 824 169 820 203 807 L 340 757 C 350 753 360 752 372 752 C 384 753 399 756 411 761 L 539 807 C 571 820 580 824 580 860 L 580 941 C 580 977 573 983 539 972 Z" unicode="Ř" />
<glyph horiz-adv-x="743" d="M 295 540 L 370 540 C 405 540 414 520 414 493 L 414 459 C 414 432 405 412 370 412 L 295 412 Z M 259 0 C 284 0 295 11 295 36 L 295 232 L 435 232 C 463 232 473 219 473 189 L 473 36 C 473 11 484 0 509 0 L 664 0 C 689 0 700 11 700 36 L 700 248 C 700 332 652 385 579 393 C 621 411 635 451 635 507 L 635 553 C 635 652 588 720 438 720 L 105 720 C 80 720 69 709 69 684 L 69 36 C 69 11 80 0 105 0 Z M 402 932 C 379 926 363 926 340 932 L 203 972 C 168 983 161 977 161 941 L 161 860 C 161 824 169 820 203 807 L 340 757 C 350 753 360 752 372 752 C 384 753 399 756 411 761 L 539 807 C 571 820 580 824 580 860 L 580 941 C 580 977 573 983 539 972 Z" unicode="ř" />
<glyph horiz-adv-x="650" d="M 403 0 C 532 0 610 62 610 176 L 610 281 C 610 393 548 433 454 447 L 305 467 C 288 469 278 481 278 499 C 278 517 288 529 305 529 L 538 529 C 563 529 574 540 574 565 L 574 684 C 574 709 563 720 538 720 L 258 720 C 128 720 51 658 51 544 L 51 439 C 51 327 112 287 206 273 L 356 252 C 373 250 382 241 382 218 C 382 202 373 189 356 189 L 87 189 C 62 189 51 178 51 153 L 51 36 C 51 11 62 0 87 0 Z M 508 796 C 533 799 544 807 544 832 L 544 928 C 544 951 533 964 510 961 L 161 918 C 136 915 125 907 125 882 L 125 786 C 125 763 136 750 159 753 Z" unicode="Ś" />
<glyph horiz-adv-x="650" d="M 403 0 C 532 0 610 62 610 176 L 610 281 C 610 393 548 433 454 447 L 305 467 C 288 469 278 481 278 499 C 278 517 288 529 305 529 L 538 529 C 563 529 574 540 574 565 L 574 684 C 574 709 563 720 538 720 L 258 720 C 128 720 51 658 51 544 L 51 439 C 51 327 112 287 206 273 L 356 252 C 373 250 382 241 382 218 C 382 202 373 189 356 189 L 87 189 C 62 189 51 178 51 153 L 51 36 C 51 11 62 0 87 0 Z M 508 796 C 533 799 544 807 544 832 L 544 928 C 544 951 533 964 510 961 L 161 918 C 136 915 125 907 125 882 L 125 786 C 125 763 136 750 159 753 Z" unicode="ś" />
<glyph horiz-adv-x="650" d="M 403 0 C 532 0 610 62 610 176 L 610 281 C 610 393 548 433 454 447 L 305 467 C 288 469 278 481 278 499 C 278 517 288 529 305 529 L 538 529 C 563 529 574 540 574 565 L 574 684 C 574 709 563 720 538 720 L 258 720 C 128 720 51 658 51 544 L 51 439 C 51 327 112 287 206 273 L 356 252 C 373 250 382 241 382 218 C 382 202 373 189 356 189 L 87 189 C 62 189 51 178 51 153 L 51 36 C 51 11 62 0 87 0 Z M 293 797 C 316 803 332 803 355 797 L 492 757 C 527 746 534 752 534 788 L 534 869 C 534 905 526 909 492 922 L 355 972 C 345 976 335 977 323 977 C 311 976 296 973 284 968 L 156 922 C 124 909 115 905 115 869 L 115 788 C 115 752 122 746 156 757 Z" unicode="Ŝ" />
<glyph horiz-adv-x="650" d="M 403 0 C 532 0 610 62 610 176 L 610 281 C 610 393 548 433 454 447 L 305 467 C 288 469 278 481 278 499 C 278 517 288 529 305 529 L 538 529 C 563 529 574 540 574 565 L 574 684 C 574 709 563 720 538 720 L 258 720 C 128 720 51 658 51 544 L 51 439 C 51 327 112 287 206 273 L 356 252 C 373 250 382 241 382 218 C 382 202 373 189 356 189 L 87 189 C 62 189 51 178 51 153 L 51 36 C 51 11 62 0 87 0 Z M 293 797 C 316 803 332 803 355 797 L 492 757 C 527 746 534 752 534 788 L 534 869 C 534 905 526 909 492 922 L 355 972 C 345 976 335 977 323 977 C 311 976 296 973 284 968 L 156 922 C 124 909 115 905 115 869 L 115 788 C 115 752 122 746 156 757 Z" unicode="ŝ" />
<glyph horiz-adv-x="650" d="M 403 0 C 532 0 610 62 610 176 L 610 281 C 610 393 548 433 454 447 L 305 467 C 288 469 278 481 278 499 C 278 517 288 529 305 529 L 538 529 C 563 529 574 540 574 565 L 574 684 C 574 709 563 720 538 720 L 258 720 C 128 720 51 658 51 544 L 51 439 C 51 327 112 287 206 273 L 356 252 C 373 250 382 241 382 218 C 382 202 373 189 356 189 L 87 189 C 62 189 51 178 51 153 L 51 36 C 51 11 62 0 87 0 Z M 339 -126 C 365 -126 378 -117 385 -96 L 448 81 C 455 100 450 113 428 121 L 312 164 C 288 173 276 166 268 144 L 183 -86 C 174 -110 179 -126 213 -126 Z" unicode="Ş" />
<glyph horiz-adv-x="650" d="M 403 0 C 532 0 610 62 610 176 L 610 281 C 610 393 548 433 454 447 L 305 467 C 288 469 278 481 278 499 C 278 517 288 529 305 529 L 538 529 C 563 529 574 540 574 565 L 574 684 C 574 709 563 720 538 720 L 258 720 C 128 720 51 658 51 544 L 51 439 C 51 327 112 287 206 273 L 356 252 C 373 250 382 241 382 218 C 382 202 373 189 356 189 L 87 189 C 62 189 51 178 51 153 L 51 36 C 51 11 62 0 87 0 Z M 339 -126 C 365 -126 378 -117 385 -96 L 448 81 C 455 100 450 113 428 121 L 312 164 C 288 173 276 166 268 144 L 183 -86 C 174 -110 179 -126 213 -126 Z" unicode="ş" />
<glyph horiz-adv-x="650" d="M 403 0 C 532 0 610 62 610 176 L 610 281 C 610 393 548 433 454 447 L 305 467 C 288 469 278 481 278 499 C 278 517 288 529 305 529 L 538 529 C 563 529 574 540 574 565 L 574 684 C 574 709 563 720 538 720 L 258 720 C 128 720 51 658 51 544 L 51 439 C 51 327 112 287 206 273 L 356 252 C 373 250 382 241 382 218 C 382 202 373 189 356 189 L 87 189 C 62 189 51 178 51 153 L 51 36 C 51 11 62 0 87 0 Z M 366 932 C 343 926 327 926 304 932 L 167 972 C 132 983 125 977 125 941 L 125 860 C 125 824 133 820 167 807 L 304 757 C 314 753 324 752 336 752 C 348 753 363 756 375 761 L 503 807 C 535 820 544 824 544 860 L 544 941 C 544 977 537 983 503 972 Z" unicode="Š" />
<glyph horiz-adv-x="650" d="M 403 0 C 532 0 610 62 610 176 L 610 281 C 610 393 548 433 454 447 L 305 467 C 288 469 278 481 278 499 C 278 517 288 529 305 529 L 538 529 C 563 529 574 540 574 565 L 574 684 C 574 709 563 720 538 720 L 258 720 C 128 720 51 658 51 544 L 51 439 C 51 327 112 287 206 273 L 356 252 C 373 250 382 241 382 218 C 382 202 373 189 356 189 L 87 189 C 62 189 51 178 51 153 L 51 36 C 51 11 62 0 87 0 Z M 366 932 C 343 926 327 926 304 932 L 167 972 C 132 983 125 977 125 941 L 125 860 C 125 824 133 820 167 807 L 304 757 C 314 753 324 752 336 752 C 348 753 363 756 375 761 L 503 807 C 535 820 544 824 544 860 L 544 941 C 544 977 537 983 503 972 Z" unicode="š" />
<glyph horiz-adv-x="656" d="M 409 0 C 434 0 445 11 445 36 L 445 527 L 592 527 C 617 527 628 538 628 563 L 628 684 C 628 709 617 720 592 720 L 64 720 C 39 720 28 709 28 684 L 28 563 C 28 538 39 527 64 527 L 211 527 L 211 36 C 211 11 222 0 247 0 Z M 319 -362 C 395 -362 444 -320 444 -234 L 444 -82 C 444 -52 435 -43 407 -43 L 249 -43 C 221 -43 212 -52 212 -82 L 212 -191 C 212 -221 221 -230 249 -230 L 335 -230 L 335 -243 C 335 -258 327 -267 312 -267 L 253 -267 C 232 -267 223 -276 223 -297 L 223 -331 C 223 -353 232 -362 253 -362 Z" unicode="Ţ" />
<glyph horiz-adv-x="656" d="M 409 0 C 434 0 445 11 445 36 L 445 527 L 592 527 C 617 527 628 538 628 563 L 628 684 C 628 709 617 720 592 720 L 64 720 C 39 720 28 709 28 684 L 28 563 C 28 538 39 527 64 527 L 211 527 L 211 36 C 211 11 222 0 247 0 Z M 319 -362 C 395 -362 444 -320 444 -234 L 444 -82 C 444 -52 435 -43 407 -43 L 249 -43 C 221 -43 212 -52 212 -82 L 212 -191 C 212 -221 221 -230 249 -230 L 335 -230 L 335 -243 C 335 -258 327 -267 312 -267 L 253 -267 C 232 -267 223 -276 223 -297 L 223 -331 C 223 -353 232 -362 253 -362 Z" unicode="ţ" />
<glyph horiz-adv-x="656" d="M 409 0 C 434 0 445 11 445 36 L 445 527 L 592 527 C 617 527 628 538 628 563 L 628 684 C 628 709 617 720 592 720 L 64 720 C 39 720 28 709 28 684 L 28 563 C 28 538 39 527 64 527 L 211 527 L 211 36 C 211 11 222 0 247 0 Z M 359 932 C 336 926 320 926 297 932 L 160 972 C 125 983 118 977 118 941 L 118 860 C 118 824 126 820 160 807 L 297 757 C 307 753 317 752 329 752 C 341 753 356 756 368 761 L 496 807 C 528 820 537 824 537 860 L 537 941 C 537 977 530 983 496 972 Z" unicode="Ť" />
<glyph horiz-adv-x="656" d="M 409 0 C 434 0 445 11 445 36 L 445 527 L 592 527 C 617 527 628 538 628 563 L 628 684 C 628 709 617 720 592 720 L 64 720 C 39 720 28 709 28 684 L 28 563 C 28 538 39 527 64 527 L 211 527 L 211 36 C 211 11 222 0 247 0 Z M 359 932 C 336 926 320 926 297 932 L 160 972 C 125 983 118 977 118 941 L 118 860 C 118 824 126 820 160 807 L 297 757 C 307 753 317 752 329 752 C 341 753 356 756 368 761 L 496 807 C 528 820 537 824 537 860 L 537 941 C 537 977 530 983 496 972 Z" unicode="ť" />
<glyph horiz-adv-x="656" d="M 521 222 C 546 222 557 233 557 258 L 557 365 C 557 390 546 401 521 401 L 134 401 C 109 401 98 390 98 365 L 98 258 C 98 233 109 222 134 222 Z M 409 0 C 434 0 445 11 445 36 L 445 527 L 592 527 C 617 527 628 538 628 563 L 628 684 C 628 709 617 720 592 720 L 64 720 C 39 720 28 709 28 684 L 28 563 C 28 538 39 527 64 527 L 211 527 L 211 36 C 211 11 222 0 247 0 Z" unicode="Ŧ" />
<glyph horiz-adv-x="656" d="M 521 222 C 546 222 557 233 557 258 L 557 365 C 557 390 546 401 521 401 L 134 401 C 109 401 98 390 98 365 L 98 258 C 98 233 109 222 134 222 Z M 409 0 C 434 0 445 11 445 36 L 445 527 L 592 527 C 617 527 628 538 628 563 L 628 684 C 628 709 617 720 592 720 L 64 720 C 39 720 28 709 28 684 L 28 563 C 28 538 39 527 64 527 L 211 527 L 211 36 C 211 11 222 0 247 0 Z" unicode="ŧ" />
<glyph horiz-adv-x="746" d="M 682 189 L 682 684 C 682 709 671 720 646 720 L 494 720 C 468 720 458 709 458 684 L 458 228 C 458 201 446 181 375 181 C 305 181 293 201 293 228 L 293 684 C 293 709 282 720 257 720 L 100 720 C 75 720 64 709 64 684 L 64 189 C 64 67 125 -15 373 -15 C 621 -15 682 67 682 189 Z M 372 764 L 388 762 C 468 750 482 748 545 767 C 568 776 581 783 581 808 L 581 909 C 581 934 569 942 545 935 C 486 917 482 914 394 927 L 372 930 L 355 932 C 275 944 262 946 199 927 C 176 918 163 911 163 886 L 163 785 C 163 760 175 752 199 759 C 252 775 268 779 344 768 Z" unicode="Ũ" />
<glyph horiz-adv-x="746" d="M 682 189 L 682 684 C 682 709 671 720 646 720 L 494 720 C 468 720 458 709 458 684 L 458 228 C 458 201 446 181 375 181 C 305 181 293 201 293 228 L 293 684 C 293 709 282 720 257 720 L 100 720 C 75 720 64 709 64 684 L 64 189 C 64 67 125 -15 373 -15 C 621 -15 682 67 682 189 Z M 372 764 L 388 762 C 468 750 482 748 545 767 C 568 776 581 783 581 808 L 581 909 C 581 934 569 942 545 935 C 486 917 482 914 394 927 L 372 930 L 355 932 C 275 944 262 946 199 927 C 176 918 163 911 163 886 L 163 785 C 163 760 175 752 199 759 C 252 775 268 779 344 768 Z" unicode="ũ" />
<glyph horiz-adv-x="746" d="M 682 189 L 682 684 C 682 709 671 720 646 720 L 494 720 C 468 720 458 709 458 684 L 458 228 C 458 201 446 181 375 181 C 305 181 293 201 293 228 L 293 684 C 293 709 282 720 257 720 L 100 720 C 75 720 64 709 64 684 L 64 189 C 64 67 125 -15 373 -15 C 621 -15 682 67 682 189 Z M 546 760 C 571 760 582 771 582 796 L 582 889 C 582 914 571 925 546 925 L 199 925 C 174 925 163 914 163 889 L 163 796 C 163 771 174 760 199 760 Z" unicode="Ū" />
<glyph horiz-adv-x="746" d="M 682 189 L 682 684 C 682 709 671 720 646 720 L 494 720 C 468 720 458 709 458 684 L 458 228 C 458 201 446 181 375 181 C 305 181 293 201 293 228 L 293 684 C 293 709 282 720 257 720 L 100 720 C 75 720 64 709 64 684 L 64 189 C 64 67 125 -15 373 -15 C 621 -15 682 67 682 189 Z M 546 760 C 571 760 582 771 582 796 L 582 889 C 582 914 571 925 546 925 L 199 925 C 174 925 163 914 163 889 L 163 796 C 163 771 174 760 199 760 Z" unicode="ū" />
<glyph horiz-adv-x="746" d="M 682 189 L 682 684 C 682 709 671 720 646 720 L 494 720 C 468 720 458 709 458 684 L 458 228 C 458 201 446 181 375 181 C 305 181 293 201 293 228 L 293 684 C 293 709 282 720 257 720 L 100 720 C 75 720 64 709 64 684 L 64 189 C 64 67 125 -15 373 -15 C 621 -15 682 67 682 189 Z M 590 897 L 590 941 C 590 966 579 977 554 977 L 463 977 C 440 977 433 970 433 946 L 433 925 C 433 906 424 892 374 892 C 325 892 317 906 317 925 L 317 946 C 317 970 309 977 288 977 L 192 977 C 167 977 156 966 156 941 L 156 897 C 156 812 199 754 373 754 C 547 754 590 812 590 897 Z" unicode="Ŭ" />
<glyph horiz-adv-x="746" d="M 682 189 L 682 684 C 682 709 671 720 646 720 L 494 720 C 468 720 458 709 458 684 L 458 228 C 458 201 446 181 375 181 C 305 181 293 201 293 228 L 293 684 C 293 709 282 720 257 720 L 100 720 C 75 720 64 709 64 684 L 64 189 C 64 67 125 -15 373 -15 C 621 -15 682 67 682 189 Z M 590 897 L 590 941 C 590 966 579 977 554 977 L 463 977 C 440 977 433 970 433 946 L 433 925 C 433 906 424 892 374 892 C 325 892 317 906 317 925 L 317 946 C 317 970 309 977 288 977 L 192 977 C 167 977 156 966 156 941 L 156 897 C 156 812 199 754 373 754 C 547 754 590 812 590 897 Z" unicode="ŭ" />
<glyph horiz-adv-x="746" d="M 682 189 L 682 684 C 682 709 671 720 646 720 L 494 720 C 468 720 458 709 458 684 L 458 228 C 458 201 446 181 375 181 C 305 181 293 201 293 228 L 293 684 C 293 709 282 720 257 720 L 100 720 C 75 720 64 709 64 684 L 64 189 C 64 67 125 -15 373 -15 C 621 -15 682 67 682 189 Z M 590 995 C 590 1080 547 1138 373 1138 C 199 1138 156 1080 156 995 L 156 897 C 156 812 199 754 373 754 C 547 754 590 812 590 897 Z M 433 930 C 433 901 424 887 374 887 C 325 887 317 901 317 930 L 317 965 C 317 991 325 1005 374 1005 C 424 1005 433 991 433 965 Z" unicode="Ů" />
<glyph horiz-adv-x="746" d="M 682 189 L 682 684 C 682 709 671 720 646 720 L 494 720 C 468 720 458 709 458 684 L 458 228 C 458 201 446 181 375 181 C 305 181 293 201 293 228 L 293 684 C 293 709 282 720 257 720 L 100 720 C 75 720 64 709 64 684 L 64 189 C 64 67 125 -15 373 -15 C 621 -15 682 67 682 189 Z M 590 995 C 590 1080 547 1138 373 1138 C 199 1138 156 1080 156 995 L 156 897 C 156 812 199 754 373 754 C 547 754 590 812 590 897 Z M 433 930 C 433 901 424 887 374 887 C 325 887 317 901 317 930 L 317 965 C 317 991 325 1005 374 1005 C 424 1005 433 991 433 965 Z" unicode="ů" />
<glyph horiz-adv-x="746" d="M 682 189 L 682 684 C 682 709 671 720 646 720 L 494 720 C 468 720 458 709 458 684 L 458 228 C 458 201 446 181 375 181 C 305 181 293 201 293 228 L 293 684 C 293 709 282 720 257 720 L 100 720 C 75 720 64 709 64 684 L 64 189 C 64 67 125 -15 373 -15 C 621 -15 682 67 682 189 Z M 417 794 C 411 772 427 760 450 760 L 556 760 C 581 760 586 772 592 796 L 645 1003 C 651 1025 635 1037 612 1037 L 506 1037 C 481 1037 476 1025 470 1001 Z M 157 794 C 151 772 167 760 190 760 L 296 760 C 321 760 326 772 332 796 L 385 1003 C 391 1025 375 1037 352 1037 L 246 1037 C 221 1037 216 1025 210 1001 Z" unicode="Ű" />
<glyph horiz-adv-x="746" d="M 682 189 L 682 684 C 682 709 671 720 646 720 L 494 720 C 468 720 458 709 458 684 L 458 228 C 458 201 446 181 375 181 C 305 181 293 201 293 228 L 293 684 C 293 709 282 720 257 720 L 100 720 C 75 720 64 709 64 684 L 64 189 C 64 67 125 -15 373 -15 C 621 -15 682 67 682 189 Z M 417 794 C 411 772 427 760 450 760 L 556 760 C 581 760 586 772 592 796 L 645 1003 C 651 1025 635 1037 612 1037 L 506 1037 C 481 1037 476 1025 470 1001 Z M 157 794 C 151 772 167 760 190 760 L 296 760 C 321 760 326 772 332 796 L 385 1003 C 391 1025 375 1037 352 1037 L 246 1037 C 221 1037 216 1025 210 1001 Z" unicode="ű" />
<glyph horiz-adv-x="746" d="M 682 189 L 682 684 C 682 709 671 720 646 720 L 494 720 C 468 720 458 709 458 684 L 458 228 C 458 201 446 181 375 181 C 305 181 293 201 293 228 L 293 684 C 293 709 282 720 257 720 L 100 720 C 75 720 64 709 64 684 L 64 189 C 64 67 125 -15 373 -15 C 621 -15 682 67 682 189 Z M 460 57 L 297 57 L 276 -61 C 262 -154 291 -196 377 -196 L 488 -196 C 514 -196 521 -188 521 -162 L 521 -90 C 521 -64 513 -56 485 -56 L 444 -56 Z" unicode="Ų" />
<glyph horiz-adv-x="746" d="M 682 189 L 682 684 C 682 709 671 720 646 720 L 494 720 C 468 720 458 709 458 684 L 458 228 C 458 201 446 181 375 181 C 305 181 293 201 293 228 L 293 684 C 293 709 282 720 257 720 L 100 720 C 75 720 64 709 64 684 L 64 189 C 64 67 125 -15 373 -15 C 621 -15 682 67 682 189 Z M 460 57 L 297 57 L 276 -61 C 262 -154 291 -196 377 -196 L 488 -196 C 514 -196 521 -188 521 -162 L 521 -90 C 521 -64 513 -56 485 -56 L 444 -56 Z" unicode="ų" />
<glyph horiz-adv-x="831" d="M 586 720 C 560 720 550 709 550 684 L 550 316 L 492 442 C 481 465 465 473 439 473 L 397 473 C 371 473 355 465 344 442 L 286 316 L 286 684 C 286 709 275 720 250 720 L 96 720 C 71 720 60 709 60 684 L 60 298 C 60 255 60 223 78 174 L 128 36 C 135 15 150 0 172 0 L 304 0 C 325 0 340 10 346 30 L 393 193 C 397 206 403 210 411 210 L 420 210 C 428 210 434 206 438 193 L 484 30 C 490 9 508 0 530 0 L 663 0 C 684 0 696 16 703 36 L 753 172 C 771 221 771 253 771 296 L 771 684 C 771 709 760 720 735 720 Z M 383 797 C 406 803 422 803 445 797 L 582 757 C 617 746 624 752 624 788 L 624 869 C 624 905 616 909 582 922 L 445 972 C 435 976 425 977 413 977 C 401 976 386 973 374 968 L 246 922 C 214 909 205 905 205 869 L 205 788 C 205 752 212 746 246 757 Z" unicode="Ŵ" />
<glyph horiz-adv-x="831" d="M 586 720 C 560 720 550 709 550 684 L 550 316 L 492 442 C 481 465 465 473 439 473 L 397 473 C 371 473 355 465 344 442 L 286 316 L 286 684 C 286 709 275 720 250 720 L 96 720 C 71 720 60 709 60 684 L 60 298 C 60 255 60 223 78 174 L 128 36 C 135 15 150 0 172 0 L 304 0 C 325 0 340 10 346 30 L 393 193 C 397 206 403 210 411 210 L 420 210 C 428 210 434 206 438 193 L 484 30 C 490 9 508 0 530 0 L 663 0 C 684 0 696 16 703 36 L 753 172 C 771 221 771 253 771 296 L 771 684 C 771 709 760 720 735 720 Z M 383 797 C 406 803 422 803 445 797 L 582 757 C 617 746 624 752 624 788 L 624 869 C 624 905 616 909 582 922 L 445 972 C 435 976 425 977 413 977 C 401 976 386 973 374 968 L 246 922 C 214 909 205 905 205 869 L 205 788 C 205 752 212 746 246 757 Z" unicode="ŵ" />
<glyph horiz-adv-x="705" d="M 434 0 C 459 0 470 11 470 36 L 470 163 L 622 369 C 652 410 660 430 660 492 L 660 684 C 660 709 649 720 624 720 L 475 720 C 450 720 439 709 439 684 L 439 520 C 439 506 439 492 430 478 L 384 406 C 377 394 371 389 360 389 L 350 389 C 339 389 333 394 326 406 L 280 478 C 271 492 271 506 271 520 L 271 684 C 271 709 260 720 235 720 L 81 720 C 56 720 45 709 45 684 L 45 492 C 45 430 52 410 83 369 L 236 164 L 236 36 C 236 11 246 0 272 0 Z M 320 797 C 343 803 359 803 382 797 L 519 757 C 554 746 561 752 561 788 L 561 869 C 561 905 553 909 519 922 L 382 972 C 372 976 362 977 350 977 C 338 976 323 973 311 968 L 183 922 C 151 909 142 905 142 869 L 142 788 C 142 752 149 746 183 757 Z" unicode="Ŷ" />
<glyph horiz-adv-x="705" d="M 434 0 C 459 0 470 11 470 36 L 470 163 L 622 369 C 652 410 660 430 660 492 L 660 684 C 660 709 649 720 624 720 L 475 720 C 450 720 439 709 439 684 L 439 520 C 439 506 439 492 430 478 L 384 406 C 377 394 371 389 360 389 L 350 389 C 339 389 333 394 326 406 L 280 478 C 271 492 271 506 271 520 L 271 684 C 271 709 260 720 235 720 L 81 720 C 56 720 45 709 45 684 L 45 492 C 45 430 52 410 83 369 L 236 164 L 236 36 C 236 11 246 0 272 0 Z M 320 797 C 343 803 359 803 382 797 L 519 757 C 554 746 561 752 561 788 L 561 869 C 561 905 553 909 519 922 L 382 972 C 372 976 362 977 350 977 C 338 976 323 973 311 968 L 183 922 C 151 909 142 905 142 869 L 142 788 C 142 752 149 746 183 757 Z" unicode="ŷ" />
<glyph horiz-adv-x="705" d="M 434 0 C 459 0 470 11 470 36 L 470 163 L 622 369 C 652 410 660 430 660 492 L 660 684 C 660 709 649 720 624 720 L 475 720 C 450 720 439 709 439 684 L 439 520 C 439 506 439 492 430 478 L 384 406 C 377 394 371 389 360 389 L 350 389 C 339 389 333 394 326 406 L 280 478 C 271 492 271 506 271 520 L 271 684 C 271 709 260 720 235 720 L 81 720 C 56 720 45 709 45 684 L 45 492 C 45 430 52 410 83 369 L 236 164 L 236 36 C 236 11 246 0 272 0 Z M 548 760 C 571 760 581 770 581 793 L 581 914 C 581 937 571 947 548 947 L 410 947 C 387 947 377 937 377 914 L 377 793 C 377 770 387 760 410 760 Z M 290 760 C 313 760 323 770 323 793 L 323 914 C 323 937 313 947 290 947 L 152 947 C 129 947 118 937 118 914 L 118 793 C 118 770 129 760 152 760 Z" unicode="Ÿ" />
<glyph horiz-adv-x="660" d="M 578 0 C 603 0 614 11 614 36 L 614 155 C 614 180 603 191 578 191 L 339 191 L 571 472 C 589 491 596 508 596 535 L 596 684 C 596 709 585 720 560 720 L 100 720 C 75 720 64 709 64 684 L 64 563 C 64 538 75 527 100 527 L 314 527 L 71 232 C 53 213 46 196 46 170 L 46 36 C 46 11 57 0 82 0 Z M 513 796 C 538 799 549 807 549 832 L 549 928 C 549 951 538 964 515 961 L 166 918 C 141 915 130 907 130 882 L 130 786 C 130 763 141 750 164 753 Z" unicode="Ź" />
<glyph horiz-adv-x="660" d="M 578 0 C 603 0 614 11 614 36 L 614 155 C 614 180 603 191 578 191 L 339 191 L 571 472 C 589 491 596 508 596 535 L 596 684 C 596 709 585 720 560 720 L 100 720 C 75 720 64 709 64 684 L 64 563 C 64 538 75 527 100 527 L 314 527 L 71 232 C 53 213 46 196 46 170 L 46 36 C 46 11 57 0 82 0 Z M 513 796 C 538 799 549 807 549 832 L 549 928 C 549 951 538 964 515 961 L 166 918 C 141 915 130 907 130 882 L 130 786 C 130 763 141 750 164 753 Z" unicode="ź" />
<glyph horiz-adv-x="660" d="M 578 0 C 603 0 614 11 614 36 L 614 155 C 614 180 603 191 578 191 L 339 191 L 571 472 C 589 491 596 508 596 535 L 596 684 C 596 709 585 720 560 720 L 100 720 C 75 720 64 709 64 684 L 64 563 C 64 538 75 527 100 527 L 314 527 L 71 232 C 53 213 46 196 46 170 L 46 36 C 46 11 57 0 82 0 Z M 410 760 C 435 760 446 771 446 796 L 446 923 C 446 948 435 959 410 959 L 252 959 C 227 959 216 948 216 923 L 216 796 C 216 771 227 760 252 760 Z" unicode="Ż" />
<glyph horiz-adv-x="660" d="M 578 0 C 603 0 614 11 614 36 L 614 155 C 614 180 603 191 578 191 L 339 191 L 571 472 C 589 491 596 508 596 535 L 596 684 C 596 709 585 720 560 720 L 100 720 C 75 720 64 709 64 684 L 64 563 C 64 538 75 527 100 527 L 314 527 L 71 232 C 53 213 46 196 46 170 L 46 36 C 46 11 57 0 82 0 Z M 410 760 C 435 760 446 771 446 796 L 446 923 C 446 948 435 959 410 959 L 252 959 C 227 959 216 948 216 923 L 216 796 C 216 771 227 760 252 760 Z" unicode="ż" />
<glyph horiz-adv-x="660" d="M 578 0 C 603 0 614 11 614 36 L 614 155 C 614 180 603 191 578 191 L 339 191 L 571 472 C 589 491 596 508 596 535 L 596 684 C 596 709 585 720 560 720 L 100 720 C 75 720 64 709 64 684 L 64 563 C 64 538 75 527 100 527 L 314 527 L 71 232 C 53 213 46 196 46 170 L 46 36 C 46 11 57 0 82 0 Z M 361 932 C 338 926 322 926 299 932 L 162 972 C 127 983 120 977 120 941 L 120 860 C 120 824 128 820 162 807 L 299 757 C 309 753 319 752 331 752 C 343 753 358 756 370 761 L 498 807 C 530 820 539 824 539 860 L 539 941 C 539 977 532 983 498 972 Z" unicode="Ž" />
<glyph horiz-adv-x="660" d="M 578 0 C 603 0 614 11 614 36 L 614 155 C 614 180 603 191 578 191 L 339 191 L 571 472 C 589 491 596 508 596 535 L 596 684 C 596 709 585 720 560 720 L 100 720 C 75 720 64 709 64 684 L 64 563 C 64 538 75 527 100 527 L 314 527 L 71 232 C 53 213 46 196 46 170 L 46 36 C 46 11 57 0 82 0 Z M 361 932 C 338 926 322 926 299 932 L 162 972 C 127 983 120 977 120 941 L 120 860 C 120 824 128 820 162 807 L 299 757 C 309 753 319 752 331 752 C 343 753 358 756 370 761 L 498 807 C 530 820 539 824 539 860 L 539 941 C 539 977 532 983 498 972 Z" unicode="ž" />
<glyph horiz-adv-x="1000" d="M 815 293 L 815 426 C 815 448 806 460 784 459 L 604 448 L 604 620 C 604 642 573 655 551 640 L 204 406 C 185 394 173 381 173 359 C 173 338 185 325 204 313 L 551 79 C 573 64 604 77 604 99 L 604 271 L 784 260 C 806 259 815 271 815 293 Z" unicode="←" />
<glyph horiz-adv-x="1000" d="M 600 70 L 589 250 L 761 250 C 783 250 796 281 781 303 L 547 650 C 535 669 522 681 501 681 C 479 681 466 669 454 650 L 220 303 C 205 281 217 250 240 250 L 412 250 L 401 70 C 400 48 412 39 434 39 L 567 39 C 589 39 601 48 600 70 Z" unicode="↑" />
<glyph horiz-adv-x="574" d="M 401 205 L 401 270 L 493 270 C 518 270 529 280 529 306 L 529 413 C 529 439 518 449 493 449 L 401 449 L 401 477 C 401 503 407 527 442 527 L 493 527 C 518 527 529 538 529 563 L 529 684 C 529 709 518 720 493 720 L 419 720 C 230 720 173 637 173 515 L 173 449 L 81 449 C 56 449 45 438 45 413 L 45 306 C 45 280 56 270 81 270 L 173 270 L 173 243 C 173 217 167 193 132 193 L 81 193 C 56 193 45 182 45 157 L 45 36 C 45 11 56 0 81 0 L 155 0 C 344 0 401 83 401 205 Z" unicode="ƒ" />
<glyph horiz-adv-x="1000" d="M 401 650 L 412 470 L 240 470 C 218 470 205 439 220 417 L 454 70 C 466 51 479 39 500 39 C 522 39 535 51 547 70 L 781 417 C 796 439 784 470 761 470 L 589 470 L 600 650 C 601 672 589 681 567 681 L 434 681 C 412 681 400 672 401 650 Z" unicode="↓" />
<glyph horiz-adv-x="1000" d="M 657 109 L 751 204 C 767 218 769 234 752 249 L 618 367 L 739 489 C 755 505 741 536 715 542 L 305 621 C 283 626 265 626 249 610 C 234 595 234 577 239 555 L 318 145 C 324 119 355 105 371 121 L 493 242 L 611 108 C 627 91 642 93 657 109 Z" unicode="↖" />
<glyph horiz-adv-x="1000" d="M 389 108 L 507 242 L 629 121 C 645 105 676 119 682 145 L 761 555 C 766 577 766 595 751 610 C 735 626 717 626 695 621 L 285 542 C 259 536 245 505 261 489 L 382 367 L 248 249 C 231 234 233 218 249 204 L 343 109 C 358 93 373 91 389 108 Z" unicode="↗" />
<glyph horiz-adv-x="1000" d="M 248 471 L 382 353 L 261 231 C 245 215 259 184 285 178 L 695 99 C 717 94 735 94 750 109 C 766 125 766 143 761 165 L 682 575 C 676 602 645 615 629 599 L 507 478 L 389 612 C 374 629 358 627 344 611 L 249 518 C 233 502 231 487 248 471 Z" unicode="↘" />
<glyph horiz-adv-x="317" d="M 5 36 C 0 11 16 0 41 0 L 156 0 C 181 0 187 11 192 36 L 312 684 C 317 709 301 720 276 720 L 161 720 C 136 720 130 709 125 684 Z" unicode="⁄" />
<glyph horiz-adv-x="1000" d="M 509 -34 L 833 184 C 851 194 863 206 863 226 C 863 246 851 258 833 269 L 509 487 C 487 501 455 488 457 468 L 498 309 L 412 309 C 367 309 345 326 345 370 L 345 533 C 345 577 367 594 412 594 L 735 594 C 755 594 765 601 765 624 L 765 729 C 765 750 755 760 735 760 L 396 760 C 228 760 178 689 178 582 L 178 321 C 178 214 228 143 396 143 L 498 143 L 457 -15 C 455 -35 487 -49 509 -34 Z" unicode="↪" />
<glyph horiz-adv-x="1000" d="M 512 -34 C 534 -49 566 -35 564 -15 L 523 143 L 625 143 C 793 143 843 214 843 321 L 843 582 C 843 689 793 760 625 760 L 286 760 C 266 760 256 750 256 729 L 256 624 C 256 601 266 594 286 594 L 609 594 C 654 594 676 577 676 533 L 676 370 C 676 326 654 309 609 309 L 523 309 L 564 468 C 566 488 534 501 512 487 L 188 269 C 170 258 158 246 158 226 C 158 206 170 194 188 184 Z" unicode="↫" />
<glyph horiz-adv-x="1000" d="M 595 517 L 513 517 L 554 675 C 556 695 524 709 502 694 L 178 476 C 160 466 148 454 148 434 C 148 414 160 402 178 391 L 502 173 C 524 159 556 172 554 192 L 513 351 L 579 351 C 624 351 646 334 646 290 L 646 30 C 644 10 655 0 677 0 L 782 0 C 804 0 813 10 813 30 L 813 339 C 813 446 763 517 595 517 Z" unicode="↰" />
<glyph horiz-adv-x="1000" d="M 406 517 C 238 517 188 446 188 339 L 188 30 C 188 10 197 0 219 0 L 324 0 C 346 0 357 10 355 30 L 355 290 C 355 334 377 351 422 351 L 488 351 L 447 192 C 445 172 477 159 499 173 L 823 391 C 841 402 853 414 853 434 C 853 454 841 466 823 476 L 499 694 C 477 709 445 695 447 675 L 488 517 Z" unicode="↱" />
<glyph horiz-adv-x="1000" d="M 595 183 C 763 183 813 254 813 361 L 813 670 C 813 690 804 700 782 700 L 677 700 C 655 700 644 690 646 670 L 646 410 C 646 366 624 349 579 349 L 513 349 L 554 508 C 556 528 524 541 502 527 L 178 309 C 160 298 148 286 148 266 C 148 246 160 234 178 224 L 502 6 C 524 -9 556 5 554 25 L 513 183 Z" unicode="↲" />
<glyph horiz-adv-x="1000" d="M 386 183 L 468 183 L 427 25 C 425 5 457 -9 479 6 L 803 224 C 821 234 833 246 833 266 C 833 286 821 298 803 309 L 479 527 C 457 541 425 528 427 508 L 468 349 L 402 349 C 357 349 335 366 335 410 L 335 670 C 337 690 326 700 304 700 L 199 700 C 177 700 168 690 168 670 L 168 361 C 168 254 218 183 386 183 Z" unicode="↳" />
<glyph horiz-adv-x="692" d="M 343 -17 C 581 -17 635 65 635 187 L 635 505 C 635 633 578 720 389 720 L 158 720 C 132 720 122 709 122 684 L 122 563 C 122 538 133 527 158 527 L 346 527 C 398 527 409 513 409 467 L 409 444 C 378 456 337 463 282 463 C 92 463 47 388 47 278 L 47 187 C 47 65 105 -17 343 -17 Z M 409 203 C 409 182 400 166 342 166 C 282 166 273 182 273 203 L 273 262 C 273 282 282 298 342 298 C 400 298 409 282 409 262 Z" unicode="∂" />
<glyph horiz-adv-x="730" d="M 640 0 C 666 0 676 11 676 36 L 676 170 C 676 229 660 288 647 340 L 560 679 C 548 709 532 720 499 720 L 232 720 C 198 720 183 709 170 679 L 83 340 C 70 288 54 229 54 170 L 54 36 C 54 11 65 0 90 0 Z M 272 210 C 272 224 276 245 280 261 L 334 504 C 339 517 342 521 353 521 L 370 521 C 381 521 384 517 389 504 L 442 261 C 446 245 450 224 450 210 L 450 189 L 272 189 Z" unicode="∆" />
<glyph horiz-adv-x="1000" d="M 578 262 C 603 262 615 273 616 298 L 630 684 C 631 709 621 720 596 720 L 405 720 C 380 720 370 709 371 684 L 386 298 C 387 273 398 262 423 262 Z M 593 0 C 618 0 629 11 629 36 L 629 167 C 629 193 618 203 593 203 L 409 203 C 384 203 373 193 373 167 L 373 36 C 373 11 384 0 409 0 Z" unicode="！" />
<glyph horiz-adv-x="759" d="M 654 0 C 679 0 690 11 690 36 L 690 684 C 690 709 679 720 654 720 L 105 720 C 80 720 69 709 69 684 L 69 36 C 69 11 80 0 105 0 L 260 0 C 285 0 296 11 296 36 L 296 529 L 463 529 L 463 36 C 463 11 474 0 499 0 Z" unicode="∏" />
<glyph horiz-adv-x="650" d="M 336 527 L 550 527 C 575 527 586 538 586 563 L 586 684 C 586 709 575 720 550 720 L 100 720 C 75 720 64 709 64 684 L 64 530 C 64 503 71 486 89 467 L 254 316 L 71 137 C 53 118 46 101 46 75 L 46 -54 C 46 -79 57 -90 82 -90 L 568 -90 C 593 -90 604 -79 604 -54 L 604 65 C 604 90 593 101 568 101 L 319 101 L 474 254 C 488 269 491 278 491 300 L 491 352 C 491 373 489 382 474 397 Z" unicode="∑" />
<glyph horiz-adv-x="734" d="M 106 267 L 628 267 C 653 267 664 277 664 303 L 664 417 C 664 443 653 453 628 453 L 106 453 C 81 453 70 442 70 417 L 70 303 C 70 277 81 267 106 267 Z" unicode="−" />
<glyph horiz-adv-x="650" d="M 403 0 C 532 0 610 62 610 176 L 610 281 C 610 393 548 433 454 447 L 305 467 C 288 469 278 481 278 499 C 278 517 288 529 305 529 L 538 529 C 563 529 574 540 574 565 L 574 684 C 574 709 563 720 538 720 L 258 720 C 128 720 51 658 51 544 L 51 439 C 51 327 112 287 206 273 L 356 252 C 373 250 382 241 382 218 C 382 202 373 189 356 189 L 87 189 C 62 189 51 178 51 153 L 51 36 C 51 11 62 0 87 0 Z M 326 -362 C 402 -362 451 -320 451 -234 L 451 -82 C 451 -52 442 -43 414 -43 L 256 -43 C 228 -43 219 -52 219 -82 L 219 -191 C 219 -221 228 -230 256 -230 L 342 -230 L 342 -243 C 342 -258 334 -267 319 -267 L 260 -267 C 239 -267 230 -276 230 -297 L 230 -331 C 230 -353 239 -362 260 -362 Z" unicode="Ș" />
<glyph horiz-adv-x="650" d="M 403 0 C 532 0 610 62 610 176 L 610 281 C 610 393 548 433 454 447 L 305 467 C 288 469 278 481 278 499 C 278 517 288 529 305 529 L 538 529 C 563 529 574 540 574 565 L 574 684 C 574 709 563 720 538 720 L 258 720 C 128 720 51 658 51 544 L 51 439 C 51 327 112 287 206 273 L 356 252 C 373 250 382 241 382 218 C 382 202 373 189 356 189 L 87 189 C 62 189 51 178 51 153 L 51 36 C 51 11 62 0 87 0 Z M 326 -362 C 402 -362 451 -320 451 -234 L 451 -82 C 451 -52 442 -43 414 -43 L 256 -43 C 228 -43 219 -52 219 -82 L 219 -191 C 219 -221 228 -230 256 -230 L 342 -230 L 342 -243 C 342 -258 334 -267 319 -267 L 260 -267 C 239 -267 230 -276 230 -297 L 230 -331 C 230 -353 239 -362 260 -362 Z" unicode="ș" />
<glyph horiz-adv-x="741" d="M 65 298 L 128 298 L 229 33 C 240 9 253 0 279 0 L 500 0 C 526 0 540 9 551 33 L 729 774 C 736 798 724 810 699 810 L 559 810 C 534 810 523 798 517 774 L 404 258 C 401 244 396 241 384 241 L 379 241 C 367 241 364 245 359 258 L 289 461 C 280 484 272 497 247 497 L 65 497 C 40 497 29 486 29 461 L 29 334 C 29 308 40 298 65 298 Z" unicode="√" />
<glyph horiz-adv-x="878" d="M 616 102 C 791 102 833 169 833 269 L 833 471 C 833 571 791 638 616 638 C 526 638 474 618 446 584 C 415 616 359 635 264 635 C 88 635 45 568 45 468 L 45 272 C 45 172 88 105 264 105 C 351 105 401 124 429 156 C 460 122 517 102 616 102 Z M 588 477 C 639 477 646 459 646 436 L 646 304 C 646 280 639 263 588 263 C 548 263 542 276 536 322 L 526 406 C 518 463 529 477 588 477 Z M 292 265 C 241 265 234 284 234 307 L 234 433 C 234 457 241 474 292 474 C 332 474 338 461 344 416 L 354 337 C 362 280 351 265 292 265 Z" unicode="∞" />
<glyph horiz-adv-x="474" d="M 123 605 L 123 153 C 123 127 117 103 82 103 L 51 103 C 26 103 15 92 15 67 L 15 -54 C 15 -79 26 -90 51 -90 L 105 -90 C 294 -90 351 -7 351 115 L 351 567 C 351 593 357 617 392 617 L 423 617 C 448 617 459 628 459 653 L 459 774 C 459 799 448 810 423 810 L 369 810 C 180 810 123 727 123 605 Z" unicode="∫" />
<glyph horiz-adv-x="734" d="M 367 422 L 390 419 C 503 402 524 395 627 431 C 645 438 664 449 664 484 L 664 583 C 664 613 647 624 612 614 C 529 589 523 585 398 603 L 367 607 L 343 610 C 229 627 210 634 107 598 C 87 591 70 580 70 545 L 70 439 C 70 416 87 405 121 414 C 196 437 219 443 327 427 Z M 367 132 L 390 129 C 503 112 524 105 627 141 C 645 148 664 159 664 194 L 664 293 C 664 323 647 334 612 324 C 529 299 523 295 398 313 L 367 317 L 343 320 C 229 337 210 344 107 308 C 87 301 70 290 70 255 L 70 149 C 70 126 87 115 121 124 C 196 147 219 153 327 137 Z" unicode="≈" />
<glyph horiz-adv-x="734" d="M 416 66 L 425 117 L 628 117 C 653 117 664 127 664 153 L 664 267 C 664 293 653 303 628 303 L 456 303 L 476 417 L 628 417 C 653 417 664 427 664 453 L 664 567 C 664 593 653 603 628 603 L 507 603 L 516 654 C 520 679 505 690 480 690 L 355 690 C 330 690 323 679 319 654 L 310 603 L 106 603 C 81 603 70 592 70 567 L 70 453 C 70 427 81 417 106 417 L 279 417 L 259 303 L 106 303 C 81 303 70 292 70 267 L 70 153 C 70 127 81 117 106 117 L 228 117 L 219 66 C 216 41 230 30 255 30 L 380 30 C 405 30 413 41 416 66 Z" unicode="≠" />
<glyph horiz-adv-x="714" d="M 116 0 L 588 0 C 613 0 624 10 624 36 L 624 186 L 116 186 C 91 186 80 175 80 150 L 80 36 C 80 10 91 0 116 0 Z M 588 129 C 613 124 624 134 624 160 L 624 292 C 624 318 613 329 588 333 L 301 410 C 287 413 284 417 284 429 C 284 441 287 445 301 448 L 588 525 C 613 529 624 540 624 566 L 624 698 C 624 724 613 734 588 729 L 207 620 C 124 596 80 564 80 465 L 80 393 C 80 294 124 262 207 238 Z" unicode="≤" />
<glyph horiz-adv-x="714" d="M 126 0 L 598 0 C 623 0 634 10 634 36 L 634 150 C 634 176 623 186 598 186 L 90 186 L 90 36 C 90 10 101 0 126 0 Z M 507 238 C 590 262 634 294 634 393 L 634 465 C 634 564 590 596 507 620 L 126 729 C 101 734 90 724 90 698 L 90 566 C 90 540 101 529 126 525 L 413 448 C 427 445 430 441 430 429 C 430 417 427 413 413 410 L 126 333 C 101 329 90 318 90 292 L 90 160 C 90 134 101 124 126 129 Z" unicode="≥" />
<glyph horiz-adv-x="508" d="M 296 322 L 296 228 C 296 210 304 202 322 202 L 433 202 C 451 202 458 210 458 228 L 458 694 C 458 712 451 720 433 720 L 322 720 C 304 720 296 712 296 694 L 296 472 L 229 472 C 215 472 206 482 206 497 L 206 694 C 206 712 199 720 181 720 L 69 720 C 51 720 43 712 43 694 L 43 441 C 43 359 80 322 174 322 Z" unicode="⁴" />
<glyph horiz-adv-x="500" d="M 218 797 C 241 803 257 803 280 797 L 417 757 C 452 746 459 752 459 788 L 459 869 C 459 905 451 909 417 922 L 280 972 C 270 976 260 977 248 977 C 236 976 221 973 209 968 L 81 922 C 49 909 40 905 40 869 L 40 788 C 40 752 47 746 81 757 Z" unicode="ˆ" />
<glyph horiz-adv-x="500" d="M 281 932 C 258 926 242 926 219 932 L 82 972 C 47 983 40 977 40 941 L 40 860 C 40 824 48 820 82 807 L 219 757 C 229 753 239 752 251 752 C 263 753 278 756 290 761 L 418 807 C 450 820 459 824 459 860 L 459 941 C 459 977 452 983 418 972 Z" unicode="ˇ" />
<glyph horiz-adv-x="500" d="M 467 897 L 467 941 C 467 966 456 977 431 977 L 340 977 C 317 977 310 970 310 946 L 310 925 C 310 906 301 892 251 892 C 202 892 194 906 194 925 L 194 946 C 194 970 186 977 165 977 L 69 977 C 44 977 33 966 33 941 L 33 897 C 33 812 76 754 250 754 C 424 754 467 812 467 897 Z" unicode="˘" />
<glyph horiz-adv-x="500" d="M 330 760 C 355 760 366 771 366 796 L 366 923 C 366 948 355 959 330 959 L 172 959 C 147 959 136 948 136 923 L 136 796 C 136 771 147 760 172 760 Z" unicode="˙" />
<glyph horiz-adv-x="500" d="M 467 995 C 467 1080 424 1138 250 1138 C 76 1138 33 1080 33 995 L 33 897 C 33 812 76 754 250 754 C 424 754 467 812 467 897 Z M 310 930 C 310 901 301 887 251 887 C 202 887 194 901 194 930 L 194 965 C 194 991 202 1005 251 1005 C 301 1005 310 991 310 965 Z" unicode="˚" />
<glyph horiz-adv-x="500" d="M 317 67 L 154 67 L 133 -51 C 119 -144 148 -186 234 -186 L 345 -186 C 371 -186 378 -178 378 -152 L 378 -80 C 378 -54 370 -46 342 -46 L 301 -46 Z" unicode="˛" />
<glyph horiz-adv-x="500" d="M 249 764 L 265 762 C 345 750 359 748 422 767 C 445 776 458 783 458 808 L 458 909 C 458 934 446 942 422 935 C 363 917 359 914 271 927 L 249 930 L 232 932 C 152 944 139 946 76 927 C 53 918 40 911 40 886 L 40 785 C 40 760 52 752 76 759 C 129 775 145 779 221 768 Z" unicode="˜" />
<glyph horiz-adv-x="500" d="M 255 794 C 249 772 265 760 288 760 L 394 760 C 419 760 424 772 430 796 L 483 1003 C 489 1025 473 1037 450 1037 L 344 1037 C 319 1037 314 1025 308 1001 Z M -5 794 C -11 772 5 760 28 760 L 134 760 C 159 760 164 772 170 796 L 223 1003 C 229 1025 213 1037 190 1037 L 84 1037 C 59 1037 54 1025 48 1001 Z" unicode="˝" />
<glyph horiz-adv-x="1280" d="M 1180 -144 L 1180 864 C 1180 889 1169 900 1144 900 L 136 900 C 111 900 100 889 100 864 L 100 -144 C 100 -169 111 -180 136 -180 L 1144 -180 C 1169 -180 1180 -169 1180 -144 Z" unicode="⬛" />
<glyph horiz-adv-x="1280" d="M 70 350 C 70 15 305 -220 640 -220 C 975 -220 1210 15 1210 350 C 1210 685 975 920 640 920 C 305 920 70 685 70 350 Z" unicode="⬤" />
<glyph horiz-adv-x="500" d="M 241 -362 C 317 -362 366 -320 366 -234 L 366 -82 C 366 -52 357 -43 329 -43 L 171 -43 C 143 -43 134 -52 134 -82 L 134 -191 C 134 -221 143 -230 171 -230 L 257 -230 L 257 -243 C 257 -258 249 -267 234 -267 L 175 -267 C 154 -267 145 -276 145 -297 L 145 -331 C 145 -353 154 -362 175 -362 Z" unicode="̦" />
<glyph horiz-adv-x="721" d="M 624 0 C 649 0 660 11 660 36 L 660 534 C 660 559 649 570 624 570 L 97 570 C 72 570 61 559 61 534 L 61 36 C 61 11 72 0 97 0 L 252 0 C 277 0 288 11 288 36 L 288 381 L 433 381 L 433 36 C 433 11 444 0 469 0 Z" unicode="π" />
<glyph horiz-adv-x="648" d="M 604 36 L 604 145 C 604 170 593 181 568 181 L 357 181 C 312 181 299 196 296 219 L 476 219 C 493 219 500 223 500 242 L 500 314 C 500 333 493 338 476 338 L 296 338 L 296 379 L 476 379 C 493 379 500 383 500 402 L 500 474 C 500 493 493 498 476 498 L 297 498 C 300 520 313 537 357 537 L 568 537 C 593 537 604 548 604 573 L 604 684 C 604 709 593 720 568 720 L 324 720 C 135 720 78 637 78 515 L 78 498 L 64 498 C 47 498 40 493 40 474 L 40 402 C 40 383 47 379 64 379 L 78 379 L 78 338 L 64 338 C 47 338 40 333 40 314 L 40 242 C 40 223 47 219 64 219 L 78 219 L 78 204 C 78 83 135 0 324 0 L 568 0 C 593 0 604 11 604 36 Z" unicode="€" />
<glyph horiz-adv-x="1000" d="M 216 260 L 396 271 L 396 99 C 396 77 427 64 449 79 L 796 313 C 815 325 827 338 827 359 C 827 381 815 394 796 406 L 449 640 C 427 655 396 642 396 620 L 396 448 L 216 459 C 194 460 185 448 185 426 L 185 293 C 185 271 194 259 216 260 Z" unicode="→" />
<glyph horiz-adv-x="718" d="M 431 0 C 466 0 471 6 470 41 L 451 351 L 626 336 C 661 332 668 337 668 372 L 668 514 C 668 549 661 554 626 551 L 461 535 L 470 679 C 471 714 466 720 431 720 L 287 720 C 252 720 246 714 248 679 L 257 535 L 92 551 C 57 554 50 549 50 514 L 50 372 C 50 337 57 332 92 336 L 266 351 L 248 41 C 246 6 252 0 287 0 Z" unicode="†" />
<glyph horiz-adv-x="718" d="M 468 22 L 461 108 L 626 91 C 661 88 668 94 668 129 L 668 260 C 668 295 661 301 626 297 L 451 281 L 471 348 L 471 371 L 451 439 L 626 423 C 661 419 668 425 668 460 L 668 591 C 668 625 661 631 626 628 L 461 612 L 468 698 C 471 733 466 740 431 740 L 287 740 C 252 740 247 733 250 698 L 257 612 L 92 628 C 57 631 50 625 50 591 L 50 460 C 50 425 57 419 92 423 L 266 439 L 247 371 C 246 368 246 364 246 360 C 246 355 246 351 247 348 L 266 281 L 92 297 C 57 301 50 295 50 260 L 50 129 C 50 94 57 88 92 91 L 257 108 L 250 22 C 247 -14 252 -20 287 -20 L 431 -20 C 466 -20 471 -14 468 22 Z" unicode="‡" />
<glyph horiz-adv-x="443" d="M 362 185 C 387 185 398 196 398 221 L 398 503 C 398 529 387 539 362 539 L 81 539 C 56 539 45 529 45 503 L 45 221 C 45 196 56 185 81 185 Z" unicode="•" />
<glyph horiz-adv-x="1000" d="M 751 518 L 656 611 C 642 627 626 629 611 612 L 493 478 L 371 599 C 355 615 324 602 318 575 L 239 165 C 234 143 234 125 250 109 C 265 94 283 94 305 99 L 715 178 C 741 184 755 215 739 231 L 618 353 L 752 471 C 769 487 767 502 751 518 Z" unicode="↙" />
<glyph horiz-adv-x="1110" d="M 1019 0 C 1044 0 1055 11 1055 36 L 1055 239 C 1055 265 1044 275 1019 275 L 817 275 C 792 275 781 265 781 239 L 781 36 C 781 11 792 0 817 0 Z M 656 0 C 681 0 692 11 692 36 L 692 239 C 692 265 681 275 656 275 L 454 275 C 429 275 418 265 418 239 L 418 36 C 418 11 429 0 454 0 Z M 293 0 C 318 0 329 11 329 36 L 329 239 C 329 265 318 275 293 275 L 91 275 C 66 275 55 265 55 239 L 55 36 C 55 11 66 0 91 0 Z" unicode="…" />
<glyph horiz-adv-x="1000" d="M 1040 900 L -40 900 L -40 -180 L 1040 -180 Z" unicode="█" />
<glyph horiz-adv-x="731" d="M 250 720 C 224 720 210 711 199 687 L 83 429 C 71 402 69 392 69 371 L 69 348 C 69 327 71 317 83 290 L 199 33 C 210 9 223 0 249 0 L 480 0 C 506 0 520 9 531 33 L 647 290 C 659 317 661 327 661 348 L 661 371 C 661 392 659 402 647 429 L 531 687 C 520 711 507 720 481 720 Z M 445 359 L 387 220 C 381 207 379 203 367 203 L 362 203 C 350 203 348 207 342 220 L 284 361 L 342 500 C 348 513 350 517 362 517 L 367 517 C 379 517 381 513 387 500 Z" unicode="◊" />
<glyph horiz-adv-x="546" d="M 540 -180 L 586 -180 L 586 900 L 540 900 C 223 900 0 677 0 360 C 0 43 223 -180 540 -180 Z" unicode="◖" />
<glyph horiz-adv-x="546" d="M 546 360 C 546 677 323 900 6 900 L -40 900 L -40 -180 L 6 -180 C 323 -180 546 43 546 360 Z" unicode="◗" />
<glyph horiz-adv-x="1000" d="M 1040 864 C 1040 889 1029 900 1004 900 L 871 900 C 261 900 -40 599 -40 -11 L -40 -144 C -40 -169 -29 -180 -4 -180 L 1010 -180 C 1027 -180 1040 -167 1040 -150 Z" unicode="◜" />
<glyph horiz-adv-x="1000" d="M -40 -150 C -40 -167 -27 -180 -10 -180 L 1004 -180 C 1029 -180 1040 -169 1040 -144 L 1040 -11 C 1040 599 739 900 129 900 L -4 900 C -29 900 -40 889 -40 864 Z" unicode="◝" />
<glyph horiz-adv-x="1000" d="M -40 -144 C -40 -169 -29 -180 -4 -180 L 129 -180 C 739 -180 1040 121 1040 731 L 1040 864 C 1040 889 1029 900 1004 900 L -10 900 C -27 900 -40 887 -40 870 Z" unicode="◞" />
<glyph horiz-adv-x="1000" d="M 1040 870 C 1040 887 1027 900 1010 900 L -4 900 C -29 900 -40 889 -40 864 L -40 731 C -40 121 261 -180 871 -180 L 1004 -180 C 1029 -180 1040 -169 1040 -144 Z" unicode="◟" />
<glyph horiz-adv-x="1000" d="M 829 105 C 840 105 847 112 847 124 L 847 596 C 847 609 840 615 829 615 L 734 615 C 723 615 716 609 716 596 L 716 124 C 716 112 723 105 734 105 Z M 670 176 L 705 195 L 705 537 L 509 575 C 495 577 473 577 454 576 L 153 555 C 142 554 130 548 130 533 L 130 483 C 130 469 141 463 156 463 L 432 463 L 432 452 L 338 452 C 326 452 319 447 319 436 L 319 392 C 319 378 329 373 344 372 L 449 364 L 449 354 L 362 360 C 351 361 343 353 343 340 L 343 294 C 343 280 354 275 368 274 L 468 267 L 468 256 L 382 262 C 371 263 365 254 365 245 L 365 195 C 365 185 378 176 388 176 L 628 166 C 645 166 661 171 670 176 Z" unicode="☚" />
<glyph horiz-adv-x="1000" d="M 284 124 L 284 596 C 284 609 277 615 266 615 L 171 615 C 160 615 153 609 153 596 L 153 124 C 153 112 160 105 171 105 L 266 105 C 277 105 284 112 284 124 Z M 612 176 C 622 176 635 185 635 195 L 635 245 C 635 254 629 263 618 262 L 532 256 L 532 267 L 632 274 C 646 275 657 280 657 294 L 657 340 C 657 353 649 361 638 360 L 551 354 L 551 364 L 656 372 C 671 373 681 378 681 392 L 681 436 C 681 447 674 452 662 452 L 568 452 L 568 463 L 844 463 C 859 463 870 469 870 483 L 870 533 C 870 548 857 554 847 555 L 546 576 C 527 577 505 577 491 575 L 295 537 L 295 195 L 330 176 C 339 171 355 166 372 166 Z" unicode="☛" />
<glyph horiz-adv-x="1000" d="M 726 134 L 726 586 C 726 598 734 605 744 605 L 777 605 C 787 605 795 598 795 586 L 795 134 C 795 123 787 115 777 115 L 744 115 C 734 115 726 123 726 134 Z M 744 94 L 819 94 C 844 94 858 108 858 134 L 858 586 C 858 614 844 626 819 626 L 744 626 C 719 626 705 611 705 588 L 705 549 L 513 585 C 497 588 473 588 452 587 L 158 566 C 133 565 119 550 119 523 L 119 493 C 119 467 134 452 164 452 L 311 452 C 309 448 308 443 308 438 L 308 402 C 308 380 318 366 339 362 C 335 357 333 351 333 343 L 333 304 C 333 283 341 270 360 265 C 356 260 355 252 355 246 L 355 206 C 355 183 372 166 395 165 L 628 155 C 650 155 670 163 680 168 L 705 182 L 705 132 C 705 109 719 94 744 94 Z M 628 176 L 396 187 C 385 187 376 195 376 206 L 376 245 C 376 254 379 262 389 262 L 389 262 L 468 256 L 468 277 L 376 284 C 361 285 354 291 354 304 L 354 340 C 354 352 358 359 369 360 L 449 354 L 449 375 L 351 382 C 337 383 329 388 329 402 L 329 436 C 329 447 334 453 345 452 L 432 452 L 432 473 L 164 473 C 149 473 140 480 140 493 L 140 523 C 140 537 150 544 160 545 L 454 566 C 473 567 495 567 509 565 L 705 527 L 705 206 L 670 187 C 661 182 645 176 628 176 Z" unicode="☜" />
<glyph horiz-adv-x="1000" d="M 256 115 L 223 115 C 213 115 205 123 205 134 L 205 586 C 205 598 213 605 223 605 L 256 605 C 266 605 274 598 274 586 L 274 134 C 274 123 266 115 256 115 Z M 372 176 C 355 176 339 182 330 187 L 295 206 L 295 527 L 491 565 C 505 567 527 567 546 566 L 840 545 C 850 544 860 537 860 523 L 860 493 C 860 480 851 473 836 473 L 568 473 L 568 452 L 655 452 C 666 453 671 447 671 436 L 671 402 C 671 388 663 383 649 382 L 551 375 L 551 354 L 631 360 C 641 360 646 353 646 340 L 646 304 C 646 291 639 285 624 284 L 532 277 L 532 256 L 611 262 L 611 262 C 621 262 624 254 624 245 L 624 206 C 624 195 615 187 604 187 Z M 295 132 L 295 182 L 320 168 C 330 163 350 155 372 155 L 605 165 C 628 166 645 183 645 206 L 645 246 C 645 252 644 260 640 265 C 659 270 667 283 667 304 L 667 343 C 667 351 665 357 661 362 C 682 366 692 380 692 402 L 692 438 C 692 443 691 448 689 452 L 836 452 C 866 452 881 467 881 493 L 881 523 C 881 550 867 565 842 566 L 548 587 C 527 588 503 588 487 585 L 295 549 L 295 588 C 295 611 281 626 256 626 L 181 626 C 156 626 142 614 142 586 L 142 134 C 142 108 156 94 181 94 L 256 94 C 281 94 295 109 295 132 Z" unicode="☝" />
<glyph horiz-adv-x="1000" d="M 726 -9 C 752 -9 766 5 766 30 L 766 105 C 766 130 751 144 728 144 L 679 144 L 692 169 C 697 179 705 199 705 221 L 695 454 C 694 477 677 494 654 494 L 614 494 C 608 494 600 493 595 489 C 590 508 577 516 556 516 L 517 516 C 509 516 503 514 498 510 C 494 531 480 541 458 541 L 422 541 C 417 541 412 540 408 538 L 408 685 C 408 715 393 730 367 730 L 337 730 C 310 730 295 716 294 691 L 273 397 C 272 376 272 352 275 336 L 311 144 L 272 144 C 249 144 234 130 234 105 L 234 30 C 234 5 246 -9 274 -9 Z M 333 144 L 295 340 C 293 354 293 376 294 395 L 315 689 C 316 699 323 709 337 709 L 367 709 C 380 709 387 700 387 685 L 387 417 L 408 417 L 408 504 C 407 515 413 520 424 520 L 458 520 C 472 520 477 512 478 498 L 485 400 L 506 400 L 500 480 C 500 490 507 495 520 495 L 556 495 C 569 495 575 488 576 473 L 583 381 L 604 381 L 598 460 L 598 460 C 598 470 606 473 616 473 L 654 473 C 665 473 673 464 673 453 L 684 221 C 684 204 679 188 673 179 L 654 144 Z M 745 105 L 745 72 C 745 62 737 54 726 54 L 274 54 C 262 54 255 62 255 72 L 255 105 C 255 115 262 123 274 123 L 726 123 C 737 123 745 115 745 105 Z" unicode="☞" />
<glyph horiz-adv-x="1000" d="M 663 -9 C 690 -9 705 5 706 30 L 727 324 C 728 345 728 369 725 385 L 689 577 L 728 577 C 751 577 766 591 766 616 L 766 691 C 766 716 754 730 726 730 L 274 730 C 248 730 234 716 234 691 L 234 616 C 234 591 249 577 272 577 L 321 577 L 308 552 C 303 542 295 522 295 500 L 305 267 C 306 244 323 227 346 227 L 386 227 C 392 227 400 228 405 232 C 410 213 423 205 444 205 L 483 205 C 491 205 497 207 502 211 C 506 190 520 180 542 180 L 578 180 C 583 180 588 181 592 183 L 592 36 C 592 6 607 -9 633 -9 Z M 255 616 L 255 649 C 255 659 263 667 274 667 L 726 667 C 738 667 745 659 745 649 L 745 616 C 745 606 738 598 726 598 L 274 598 C 263 598 255 606 255 616 Z M 633 12 C 620 12 613 21 613 36 L 613 304 L 592 304 L 592 217 C 593 206 587 201 576 201 L 542 201 C 528 201 523 209 522 223 L 515 321 L 494 321 L 500 241 C 500 231 493 226 480 226 L 444 226 C 431 226 425 233 424 248 L 417 340 L 396 340 L 402 261 L 402 261 C 402 251 394 248 384 248 L 346 248 C 335 248 327 257 327 268 L 316 500 C 316 517 321 533 327 542 L 346 577 L 667 577 L 705 381 C 707 367 707 345 706 326 L 685 32 C 684 22 677 12 663 12 Z" unicode="☟" />
<glyph horiz-adv-x="831" d="M 586 720 C 560 720 550 709 550 684 L 550 316 L 492 442 C 481 465 465 473 439 473 L 397 473 C 371 473 355 465 344 442 L 286 316 L 286 684 C 286 709 275 720 250 720 L 96 720 C 71 720 60 709 60 684 L 60 298 C 60 255 60 223 78 174 L 128 36 C 135 15 150 0 172 0 L 304 0 C 325 0 340 10 346 30 L 393 193 C 397 206 403 210 411 210 L 420 210 C 428 210 434 206 438 193 L 484 30 C 490 9 508 0 530 0 L 663 0 C 684 0 696 16 703 36 L 753 172 C 771 221 771 253 771 296 L 771 684 C 771 709 760 720 735 720 Z M 580 753 C 603 750 614 763 614 786 L 614 882 C 614 907 603 915 578 918 L 229 961 C 206 964 195 951 195 928 L 195 832 C 195 807 206 799 231 796 Z" unicode="Ẁ" />
<glyph horiz-adv-x="831" d="M 586 720 C 560 720 550 709 550 684 L 550 316 L 492 442 C 481 465 465 473 439 473 L 397 473 C 371 473 355 465 344 442 L 286 316 L 286 684 C 286 709 275 720 250 720 L 96 720 C 71 720 60 709 60 684 L 60 298 C 60 255 60 223 78 174 L 128 36 C 135 15 150 0 172 0 L 304 0 C 325 0 340 10 346 30 L 393 193 C 397 206 403 210 411 210 L 420 210 C 428 210 434 206 438 193 L 484 30 C 490 9 508 0 530 0 L 663 0 C 684 0 696 16 703 36 L 753 172 C 771 221 771 253 771 296 L 771 684 C 771 709 760 720 735 720 Z M 580 753 C 603 750 614 763 614 786 L 614 882 C 614 907 603 915 578 918 L 229 961 C 206 964 195 951 195 928 L 195 832 C 195 807 206 799 231 796 Z" unicode="ẁ" />
<glyph horiz-adv-x="831" d="M 586 720 C 560 720 550 709 550 684 L 550 316 L 492 442 C 481 465 465 473 439 473 L 397 473 C 371 473 355 465 344 442 L 286 316 L 286 684 C 286 709 275 720 250 720 L 96 720 C 71 720 60 709 60 684 L 60 298 C 60 255 60 223 78 174 L 128 36 C 135 15 150 0 172 0 L 304 0 C 325 0 340 10 346 30 L 393 193 C 397 206 403 210 411 210 L 420 210 C 428 210 434 206 438 193 L 484 30 C 490 9 508 0 530 0 L 663 0 C 684 0 696 16 703 36 L 753 172 C 771 221 771 253 771 296 L 771 684 C 771 709 760 720 735 720 Z M 598 796 C 623 799 634 807 634 832 L 634 928 C 634 951 623 964 600 961 L 251 918 C 226 915 215 907 215 882 L 215 786 C 215 763 226 750 249 753 Z" unicode="Ẃ" />
<glyph horiz-adv-x="831" d="M 586 720 C 560 720 550 709 550 684 L 550 316 L 492 442 C 481 465 465 473 439 473 L 397 473 C 371 473 355 465 344 442 L 286 316 L 286 684 C 286 709 275 720 250 720 L 96 720 C 71 720 60 709 60 684 L 60 298 C 60 255 60 223 78 174 L 128 36 C 135 15 150 0 172 0 L 304 0 C 325 0 340 10 346 30 L 393 193 C 397 206 403 210 411 210 L 420 210 C 428 210 434 206 438 193 L 484 30 C 490 9 508 0 530 0 L 663 0 C 684 0 696 16 703 36 L 753 172 C 771 221 771 253 771 296 L 771 684 C 771 709 760 720 735 720 Z M 598 796 C 623 799 634 807 634 832 L 634 928 C 634 951 623 964 600 961 L 251 918 C 226 915 215 907 215 882 L 215 786 C 215 763 226 750 249 753 Z" unicode="ẃ" />
<glyph horiz-adv-x="831" d="M 586 720 C 560 720 550 709 550 684 L 550 316 L 492 442 C 481 465 465 473 439 473 L 397 473 C 371 473 355 465 344 442 L 286 316 L 286 684 C 286 709 275 720 250 720 L 96 720 C 71 720 60 709 60 684 L 60 298 C 60 255 60 223 78 174 L 128 36 C 135 15 150 0 172 0 L 304 0 C 325 0 340 10 346 30 L 393 193 C 397 206 403 210 411 210 L 420 210 C 428 210 434 206 438 193 L 484 30 C 490 9 508 0 530 0 L 663 0 C 684 0 696 16 703 36 L 753 172 C 771 221 771 253 771 296 L 771 684 C 771 709 760 720 735 720 Z M 611 760 C 634 760 644 770 644 793 L 644 914 C 644 937 634 947 611 947 L 473 947 C 450 947 440 937 440 914 L 440 793 C 440 770 450 760 473 760 Z M 353 760 C 376 760 386 770 386 793 L 386 914 C 386 937 376 947 353 947 L 215 947 C 192 947 181 937 181 914 L 181 793 C 181 770 192 760 215 760 Z" unicode="Ẅ" />
<glyph horiz-adv-x="831" d="M 586 720 C 560 720 550 709 550 684 L 550 316 L 492 442 C 481 465 465 473 439 473 L 397 473 C 371 473 355 465 344 442 L 286 316 L 286 684 C 286 709 275 720 250 720 L 96 720 C 71 720 60 709 60 684 L 60 298 C 60 255 60 223 78 174 L 128 36 C 135 15 150 0 172 0 L 304 0 C 325 0 340 10 346 30 L 393 193 C 397 206 403 210 411 210 L 420 210 C 428 210 434 206 438 193 L 484 30 C 490 9 508 0 530 0 L 663 0 C 684 0 696 16 703 36 L 753 172 C 771 221 771 253 771 296 L 771 684 C 771 709 760 720 735 720 Z M 611 760 C 634 760 644 770 644 793 L 644 914 C 644 937 634 947 611 947 L 473 947 C 450 947 440 937 440 914 L 440 793 C 440 770 450 760 473 760 Z M 353 760 C 376 760 386 770 386 793 L 386 914 C 386 937 376 947 353 947 L 215 947 C 192 947 181 937 181 914 L 181 793 C 181 770 192 760 215 760 Z" unicode="ẅ" />
<glyph horiz-adv-x="867" d="M 807 154 L 807 564 C 807 711 735 811 434 811 C 134 811 60 711 60 564 L 60 154 C 60 8 134 -91 434 -91 C 735 -91 807 8 807 154 Z M 707 150 C 707 64 654 5 434 5 C 214 5 160 64 160 150 L 160 568 C 160 655 214 715 434 715 C 654 715 707 655 707 568 Z M 370 110 C 388 110 396 118 396 136 L 396 255 L 479 255 C 609 255 648 311 648 395 L 648 486 C 648 570 609 626 479 626 L 259 626 C 241 626 233 618 233 600 L 233 136 C 233 118 241 110 259 110 Z M 395 492 L 459 492 C 487 492 493 476 493 457 L 493 419 C 493 400 487 384 459 384 L 395 384 Z" unicode="℗" />
<glyph horiz-adv-x="759" d="M 296 36 L 296 531 L 375 531 C 392 531 397 518 394 503 L 361 340 C 353 303 366 284 398 284 L 470 284 C 486 284 497 277 497 261 L 497 212 C 497 196 486 189 470 189 L 392 189 C 367 189 356 178 356 153 L 356 36 C 356 11 367 0 392 0 L 530 0 C 650 0 725 64 725 166 L 725 289 C 725 382 668 433 597 446 L 620 529 C 651 640 594 720 476 720 L 105 720 C 81 720 69 708 69 684 L 69 36 C 69 11 80 0 105 0 L 260 0 C 285 0 296 11 296 36 Z" unicode="ẞ" />
<glyph horiz-adv-x="1417" d="M 398 416 L 398 606 C 398 677 364 725 221 725 C 78 725 42 677 42 606 L 42 416 C 42 345 78 297 221 297 C 364 297 398 345 398 416 Z M 352 36 C 346 12 358 0 383 0 L 488 0 C 513 0 523 12 529 36 L 689 684 C 695 708 683 720 658 720 L 553 720 C 528 720 518 708 512 684 Z M 187 447 L 187 575 C 187 583 192 592 221 592 C 249 592 254 583 254 575 L 254 447 C 254 437 249 429 221 429 C 192 429 187 437 187 447 Z M 1393 113 L 1393 303 C 1393 374 1359 422 1216 422 C 1073 422 1037 374 1037 303 L 1037 113 C 1037 42 1073 -6 1216 -6 C 1359 -6 1393 42 1393 113 Z M 996 113 L 996 303 C 996 374 962 422 819 422 C 676 422 640 374 640 303 L 640 113 C 640 42 676 -6 819 -6 C 962 -6 996 42 996 113 Z M 1182 144 L 1182 272 C 1182 280 1187 289 1216 289 C 1244 289 1249 280 1249 272 L 1249 144 C 1249 134 1244 126 1216 126 C 1187 126 1182 134 1182 144 Z M 785 144 L 785 272 C 785 280 790 289 819 289 C 847 289 852 280 852 272 L 852 144 C 852 134 847 126 819 126 C 790 126 785 134 785 144 Z" unicode="‰" />
<glyph horiz-adv-x="903" d="M 244 287 C 262 287 271 296 271 313 L 271 597 L 352 597 C 370 597 379 606 379 623 L 379 694 C 379 712 370 720 352 720 L 42 720 C 23 720 16 712 16 694 L 16 623 C 16 606 23 597 42 597 L 124 597 L 124 313 C 124 296 131 287 149 287 Z M 541 287 C 558 287 567 296 567 313 L 567 503 L 593 454 C 600 439 611 432 627 432 L 646 432 C 662 432 673 439 681 454 L 707 503 L 707 313 C 707 296 714 287 733 287 L 828 287 C 845 287 854 296 854 313 L 854 694 C 854 712 845 720 828 720 L 733 720 C 718 720 709 714 701 700 C 686 670 665 634 649 604 C 647 601 644 597 643 597 L 638 597 C 635 597 634 599 631 604 C 613 634 595 669 578 700 C 570 713 561 720 546 720 L 452 720 C 435 720 426 712 426 694 L 426 313 C 426 296 435 287 452 287 Z" unicode="™" />
<glyph horiz-adv-x="356" d="M 240 345 C 273 345 279 353 282 386 L 310 679 C 313 712 303 720 271 720 L 106 720 C 73 720 67 712 66 679 L 54 386 C 53 353 63 345 96 345 Z" unicode="′" />
<glyph horiz-adv-x="777" d="M 362 36 L 362 150 C 362 172 354 177 335 184 C 311 193 305 206 305 225 L 305 494 C 305 520 317 540 389 540 C 461 540 473 520 473 494 L 473 225 C 473 206 467 193 443 184 C 424 177 416 172 416 150 L 416 36 C 416 11 427 0 452 0 L 706 0 C 731 0 742 11 742 36 L 742 153 C 742 178 731 189 706 189 L 667 189 C 691 222 700 262 700 309 L 700 530 C 700 652 639 735 389 735 C 139 735 78 652 78 530 L 78 309 C 78 262 87 222 111 189 L 72 189 C 47 189 36 178 36 153 L 36 36 C 36 11 47 0 72 0 L 326 0 C 351 0 362 11 362 36 Z" unicode="Ω" />
<glyph horiz-adv-x="705" d="M 434 0 C 459 0 470 11 470 36 L 470 163 L 622 369 C 652 410 660 430 660 492 L 660 684 C 660 709 649 720 624 720 L 475 720 C 450 720 439 709 439 684 L 439 520 C 439 506 439 492 430 478 L 384 406 C 377 394 371 389 360 389 L 350 389 C 339 389 333 394 326 406 L 280 478 C 271 492 271 506 271 520 L 271 684 C 271 709 260 720 235 720 L 81 720 C 56 720 45 709 45 684 L 45 492 C 45 430 52 410 83 369 L 236 164 L 236 36 C 236 11 246 0 272 0 Z M 517 753 C 540 750 551 763 551 786 L 551 882 C 551 907 540 915 515 918 L 166 961 C 143 964 132 951 132 928 L 132 832 C 132 807 143 799 168 796 Z" unicode="Ỳ" />
<glyph horiz-adv-x="705" d="M 434 0 C 459 0 470 11 470 36 L 470 163 L 622 369 C 652 410 660 430 660 492 L 660 684 C 660 709 649 720 624 720 L 475 720 C 450 720 439 709 439 684 L 439 520 C 439 506 439 492 430 478 L 384 406 C 377 394 371 389 360 389 L 350 389 C 339 389 333 394 326 406 L 280 478 C 271 492 271 506 271 520 L 271 684 C 271 709 260 720 235 720 L 81 720 C 56 720 45 709 45 684 L 45 492 C 45 430 52 410 83 369 L 236 164 L 236 36 C 236 11 246 0 272 0 Z M 517 753 C 540 750 551 763 551 786 L 551 882 C 551 907 540 915 515 918 L 166 961 C 143 964 132 951 132 928 L 132 832 C 132 807 143 799 168 796 Z" unicode="ỳ" />
<glyph horiz-adv-x="666" d="M 550 345 C 583 345 589 353 592 386 L 620 679 C 623 712 613 720 581 720 L 416 720 C 383 720 377 712 376 679 L 364 386 C 363 353 373 345 406 345 Z M 240 345 C 273 345 279 353 282 386 L 310 679 C 313 712 303 720 271 720 L 106 720 C 73 720 67 712 66 679 L 54 386 C 53 353 63 345 96 345 Z" unicode="″" />
<glyph horiz-adv-x="1000" d="M 728 172 C 763 172 768 178 770 213 L 778 506 C 779 541 773 547 739 547 L 574 547 C 539 547 533 541 534 506 L 542 213 C 543 178 549 172 584 172 Z M 418 172 C 453 172 458 178 460 213 L 468 506 C 469 541 463 547 429 547 L 264 547 C 229 547 223 541 224 506 L 232 213 C 233 178 239 172 274 172 Z" unicode="＂" />
<glyph horiz-adv-x="1000" d="M 654 -5 C 803 -5 821 43 821 114 L 821 254 C 821 325 789 373 654 373 C 627 373 603 371 584 367 L 795 684 C 809 705 799 720 774 720 L 689 720 C 664 720 652 705 638 684 L 514 498 L 514 606 C 514 677 482 725 347 725 C 212 725 178 677 178 606 L 178 466 C 178 395 212 347 347 347 C 374 347 398 349 417 353 L 206 36 C 192 15 202 0 227 0 L 312 0 C 337 0 349 15 363 36 L 485 219 L 485 114 C 485 43 519 -5 654 -5 Z M 323 497 L 323 575 C 323 583 326 592 347 592 C 367 592 370 583 370 575 L 370 497 C 370 487 367 479 347 479 C 327 479 323 487 323 497 Z M 630 145 L 630 223 C 630 231 633 240 654 240 C 674 240 677 231 677 223 L 677 145 C 677 135 674 127 654 127 C 634 127 630 135 630 145 Z" unicode="％" />
<glyph horiz-adv-x="1000" d="M 443 187 C 411 187 405 201 405 217 L 405 248 C 405 264 411 277 443 277 L 518 277 C 543 277 554 288 554 313 L 554 416 C 554 441 543 452 518 452 L 508 452 C 476 452 470 466 470 482 L 470 503 C 470 519 476 533 508 533 L 624 533 C 649 533 660 544 660 569 L 660 684 C 660 709 649 720 624 720 L 443 720 C 307 720 251 655 251 567 L 251 519 C 251 468 266 430 310 411 C 238 404 184 350 184 256 L 184 176 C 184 69 250 0 373 0 L 621 0 C 737 0 800 69 800 176 L 800 221 L 823 221 C 848 221 859 232 859 257 L 859 365 C 859 391 848 401 823 401 L 639 401 C 614 401 603 390 603 365 L 603 227 C 603 200 594 187 565 187 Z" unicode="＆" />
<glyph horiz-adv-x="1000" d="M 573 172 C 608 172 613 178 615 213 L 623 506 C 624 541 618 547 584 547 L 419 547 C 384 547 378 541 379 506 L 387 213 C 388 178 394 172 429 172 Z" unicode="＇" />
<glyph horiz-adv-x="1000" d="M 428 96 L 501 237 L 575 96 C 591 68 598 65 627 84 L 721 152 C 749 172 750 181 727 206 L 617 321 L 770 346 C 804 352 809 359 798 392 L 761 503 C 750 536 742 540 712 525 L 575 461 L 595 610 C 601 644 595 651 561 651 L 444 651 C 410 651 403 644 408 610 L 431 461 L 289 525 C 259 540 250 536 240 503 L 204 392 C 193 359 198 352 232 346 L 384 321 L 275 206 C 252 181 253 172 281 152 L 375 84 C 404 65 412 68 428 96 Z" unicode="＊" />
<glyph horiz-adv-x="1000" d="M 800 189 L 800 530 C 800 652 738 735 500 735 C 262 735 200 652 200 530 L 200 189 C 200 67 262 -15 500 -15 C 738 -15 800 67 800 189 Z M 426 225 L 426 494 C 426 520 440 540 500 540 C 560 540 575 520 575 494 L 575 225 C 575 198 560 178 500 178 C 440 178 426 198 426 225 Z" unicode="０" />
<glyph horiz-adv-x="1000" d="M 763 0 C 788 0 799 11 799 36 L 799 157 C 799 182 788 193 763 193 L 629 193 L 629 684 C 629 709 618 720 593 720 L 253 720 C 228 720 217 709 217 684 L 217 563 C 217 538 228 527 253 527 L 395 527 L 395 193 L 236 193 C 211 193 200 182 200 157 L 200 36 C 200 11 211 0 236 0 Z" unicode="１" />
<glyph horiz-adv-x="1000" d="M 764 0 C 789 0 800 11 800 36 L 800 153 C 800 178 789 189 764 189 L 427 189 L 427 215 C 427 237 433 239 453 245 L 643 288 C 742 310 799 364 799 465 L 799 554 C 799 662 737 720 623 720 L 256 720 C 231 720 220 709 220 684 L 220 565 C 220 540 231 529 256 529 L 545 529 C 565 529 572 525 572 505 C 572 483 566 480 545 474 L 357 432 C 265 404 200 368 200 213 L 200 36 C 200 11 211 0 236 0 Z" unicode="２" />
<glyph horiz-adv-x="1000" d="M 236 189 C 211 189 200 178 200 153 L 200 36 C 200 11 211 0 236 0 L 608 0 C 736 0 802 63 802 166 L 802 266 C 802 354 771 400 676 411 C 720 430 735 468 735 519 L 735 577 C 735 665 682 720 571 720 L 236 720 C 211 720 200 709 200 684 L 200 565 C 200 540 211 529 236 529 L 478 529 C 510 529 516 515 516 499 L 516 484 C 516 468 510 454 478 454 L 317 454 C 292 454 281 443 281 418 L 281 311 C 281 286 292 275 317 275 L 543 275 C 575 275 581 262 581 246 L 581 219 C 581 203 575 189 543 189 Z" unicode="３" />
<glyph horiz-adv-x="1000" d="M 574 167 L 574 36 C 574 11 585 0 610 0 L 764 0 C 789 0 800 11 800 36 L 800 684 C 800 709 789 720 764 720 L 610 720 C 585 720 574 709 574 684 L 574 376 L 458 376 C 439 376 427 389 427 410 L 427 684 C 427 709 416 720 391 720 L 236 720 C 211 720 200 709 200 684 L 200 333 C 200 219 252 167 382 167 Z" unicode="４" />
<glyph horiz-adv-x="1000" d="M 607 0 C 727 0 802 64 802 166 L 802 305 C 802 411 735 464 627 464 L 437 464 L 437 529 L 730 529 C 755 529 766 540 766 565 L 766 684 C 766 709 755 720 730 720 L 246 720 C 221 720 210 709 210 684 L 210 310 C 210 285 221 274 246 274 L 547 274 C 563 274 574 267 574 251 L 574 212 C 574 196 563 189 547 189 L 236 189 C 211 189 200 178 200 153 L 200 36 C 200 11 211 0 236 0 Z" unicode="５" />
<glyph horiz-adv-x="1000" d="M 502 -15 C 732 -15 805 65 805 187 L 805 283 C 805 402 752 463 571 463 C 508 463 459 456 421 442 L 421 470 C 421 519 435 530 484 530 L 693 530 C 718 530 729 541 729 566 L 729 684 C 729 709 719 720 693 720 L 441 720 C 252 720 195 637 195 515 L 195 187 C 195 65 256 -15 502 -15 Z M 421 255 C 421 282 437 298 495 298 C 555 298 579 282 579 255 L 579 208 C 579 182 555 166 495 166 C 437 166 421 182 421 207 Z" unicode="６" />
<glyph horiz-adv-x="1000" d="M 764 720 L 236 720 C 211 720 200 709 200 684 L 200 563 C 200 538 211 527 236 527 L 573 527 L 573 437 L 453 415 C 343 395 297 344 297 217 L 297 36 C 297 11 308 0 333 0 L 495 0 C 520 0 531 11 531 36 L 531 211 L 644 233 C 754 254 800 304 800 431 L 800 684 C 800 709 789 720 764 720 Z" unicode="７" />
<glyph horiz-adv-x="1000" d="M 806 256 C 806 350 763 399 703 411 C 747 430 762 468 762 519 L 762 577 C 762 675 703 735 502 735 C 301 735 239 675 239 577 L 239 519 C 239 468 254 430 298 411 C 238 399 195 350 195 256 L 195 159 C 195 55 260 -15 501 -15 C 742 -15 806 55 806 159 Z M 438 480 L 438 524 C 438 544 445 560 501 560 C 558 560 563 544 563 524 L 563 480 C 563 459 558 443 501 443 C 445 443 438 459 438 480 Z M 416 197 L 416 250 C 416 270 429 286 501 286 C 574 286 585 270 585 250 L 585 197 C 585 176 574 160 501 160 C 429 160 416 176 416 197 Z" unicode="８" />
<glyph horiz-adv-x="1000" d="M 559 0 C 748 0 805 84 805 206 L 805 534 C 805 656 744 736 498 736 C 268 736 195 656 195 534 L 195 438 C 195 319 248 258 429 258 C 492 258 541 265 579 279 L 579 251 C 579 202 565 191 516 191 L 307 191 C 282 191 271 180 271 155 L 271 37 C 271 12 281 0 307 0 Z M 579 466 C 579 439 563 423 505 423 C 445 423 421 439 421 466 L 421 513 C 421 539 445 555 505 555 C 563 555 579 539 579 514 Z" unicode="９" />
<glyph horiz-adv-x="1000" d="M 601 47 C 626 47 637 58 637 83 L 637 286 C 637 312 626 322 601 322 L 399 322 C 374 322 363 312 363 286 L 363 83 C 363 58 374 47 399 47 Z M 601 402 C 626 402 637 413 637 438 L 637 641 C 637 667 626 677 601 677 L 399 677 C 374 677 363 667 363 641 L 363 438 C 363 413 374 402 399 402 Z" unicode="：" />
<glyph horiz-adv-x="1000" d="M 601 439 C 626 439 637 450 637 475 L 637 678 C 637 704 626 714 601 714 L 399 714 C 374 714 363 704 363 678 L 363 475 C 363 450 374 439 399 439 Z M 489 -8 C 579 -8 637 41 637 143 L 637 331 C 637 356 626 367 601 367 L 399 367 C 374 367 363 356 363 331 L 363 183 C 363 158 374 147 399 147 L 508 147 L 508 132 C 508 114 499 104 481 104 L 412 104 C 387 104 376 93 376 68 L 376 28 C 376 2 387 -8 412 -8 Z" unicode="；" />
<glyph horiz-adv-x="1000" d="M 628 273 C 723 286 783 327 783 439 L 783 544 C 783 658 706 720 576 720 L 253 720 C 228 720 217 709 217 684 L 217 563 C 217 537 228 527 253 527 L 529 527 C 546 527 556 518 556 499 C 556 479 549 471 529 468 L 330 440 C 305 437 293 425 297 399 L 318 267 C 322 242 332 233 357 236 Z M 516 0 C 541 0 552 11 552 36 L 552 167 C 552 193 541 203 516 203 L 333 203 C 307 203 297 193 297 167 L 297 36 C 297 11 307 0 333 0 Z" unicode="？" />
<glyph horiz-adv-x="1000" d="M 475 510 C 481 523 483 527 494 527 L 499 527 C 510 527 512 523 518 510 L 565 358 L 428 358 Z M 418 36 L 418 176 L 575 176 L 575 36 C 575 11 589 0 614 0 L 765 0 C 790 0 801 11 801 36 L 801 300 C 801 369 791 384 762 460 L 675 687 C 666 712 651 720 625 720 L 366 720 C 340 720 324 712 315 687 L 238 460 C 209 384 199 369 199 300 L 199 36 C 199 11 209 0 235 0 L 382 0 C 407 0 418 11 418 36 Z" unicode="Ａ" />
</font>
</defs>
</svg>
