<?xml version="1.0" standalone="no"?><!DOCTYPE svg PUBLIC "-//W3C//DTD SVG 1.1//EN" "http://www.w3.org/Graphics/SVG/1.1/DTD/svg11.dtd" ><svg version="1.1" xmlns="http://www.w3.org/2000/svg"><defs><font horiz-adv-x="0" id="font"><font-face ascent="860" bbox="-754 -893 1754 1615" cap-height="720" descent="-140" font-family="Bungee Layers Rotated" font-stretch="normal" font-style="normal" font-weight="400" units-per-em="1000" x-height="500" /><missing-glyph d="M800 -20V740H40V-20ZM790 730V-10H50V730Z" horiz-adv-x="840" /><glyph d="M692 164V174H520V543H692V553H479C442 553 411 547 382 536L219 467C180 451 152 439 152 395V318C152 272 181 260 218 245L382 181C411 170 442 164 479 164ZM479 174C443 174 413 180 386 190L222 254C188 267 162 278 162 318V395C162 432 188 443 223 458L386 527C413 537 443 543 479 543H510V174Z" glyph-name="A" horiz-adv-x="849" unicode="A" /><glyph d="M652 164V174H500V543H652V553H459C422 553 392 548 362 536L219 477C181 461 152 439 152 395V318C152 272 181 249 218 235L362 181C391 170 422 164 459 164ZM459 174C423 174 393 180 366 190L222 244C188 257 162 278 162 318V395C162 432 188 453 223 468L366 527C393 537 423 543 459 543H490V174Z" glyph-name="A.s" horiz-adv-x="809" /><glyph d="M703 165V175H522V543H703V553H286C205 553 151 514 151 359C151 202 205 165 286 165ZM286 175C211 175 161 210 161 359C161 506 211 543 286 543H512V175Z" glyph-name="A.salt" horiz-adv-x="860" /><glyph d="M662 165V175H501V543H662V553H285C204 553 150 514 150 359C150 202 204 165 285 165ZM285 175C210 175 160 210 160 359C160 506 210 543 285 543H491V175Z" glyph-name="A.salt_s" horiz-adv-x="819" /><glyph d="M501 126H702V136H529V426H702V581H692V436H432V580H422V436H172V581H162V272C162 248 171 235 206 221L409 137C436 126 462 126 501 126ZM501 136C464 136 439 136 413 147L210 231C182 243 172 252 172 272V426H519V136Z" glyph-name="AE" horiz-adv-x="872" unicode="&#198;" /><glyph d="M702 436V591H692V446H434V590H424V446H172V591H162V303C162 170 216 136 297 136H703V146H521V436ZM297 146C222 146 172 178 172 303V436H511V146Z" glyph-name="AE.salt" horiz-adv-x="872" /><glyph d="M858 164V174H706V543H858V553H665C628 553 598 548 568 536L425 477C387 461 358 439 358 395V318C358 272 387 249 424 235L568 181C597 170 628 164 665 164ZM665 174C629 174 599 180 572 190L428 244C394 257 368 278 368 318V395C368 432 394 453 429 468L572 527C599 537 629 543 665 543H696V174ZM141 240H151L121 479H111Z" glyph-name="Aacute" horiz-adv-x="1015" unicode="&#193;" /><glyph d="M858 165V175H697V543H858V553H481C400 553 346 514 346 359C346 202 400 165 481 165ZM481 175C406 175 356 210 356 359C356 506 406 543 481 543H687V175ZM141 240H151L121 479H111Z" glyph-name="Aacute.salt" horiz-adv-x="1015" /><glyph d="M97 494H106C142 494 176 467 176 359C176 251 142 229 106 229H97V219H106C144 219 186 235 186 359C186 483 144 504 106 504H97ZM874 164V174H722V543H874V553H681C644 553 614 548 584 536L441 477C403 461 374 439 374 395V318C374 272 403 249 440 235L584 181C613 170 644 164 681 164ZM681 174C645 174 615 180 588 190L444 244C410 257 384 278 384 318V395C384 432 410 453 445 468L588 527C615 537 645 543 681 543H712V174Z" glyph-name="Abreve" horiz-adv-x="1031" unicode="&#258;" /><glyph d="M97 494H106C142 494 176 467 176 359C176 251 142 229 106 229H97V219H106C144 219 186 235 186 359C186 483 144 504 106 504H97ZM874 165V175H713V543H874V553H497C416 553 362 514 362 359C362 202 416 165 497 165ZM497 175C422 175 372 210 372 359C372 506 422 543 497 543H703V175Z" glyph-name="Abreve.salt" horiz-adv-x="1031" /><glyph d="M864 164V174H712V543H864V553H671C634 553 604 548 574 536L431 477C393 461 364 439 364 395V318C364 272 393 249 430 235L574 181C603 170 634 164 671 164ZM671 174C635 174 605 180 578 190L434 244C400 257 374 278 374 318V395C374 432 400 453 435 468L578 527C605 537 635 543 671 543H702V174ZM144 478H133L106 395C103 383 100 374 100 359C100 344 103 335 106 323L133 240H144L116 327C113 337 110 346 110 359C110 372 113 381 116 391Z" glyph-name="Acircumflex" horiz-adv-x="1021" unicode="&#194;" /><glyph d="M144 478H133L106 395C103 383 100 374 100 359C100 344 103 335 106 323L133 240H144L116 327C113 337 110 346 110 359C110 372 113 381 116 391ZM864 165V175H703V543H864V553H487C406 553 352 514 352 359C352 202 406 165 487 165ZM487 175C412 175 362 210 362 359C362 506 412 543 487 543H693V175Z" glyph-name="Acircumflex.salt" horiz-adv-x="1021" /><glyph d="M159 492H112V482H159ZM159 234H112V224H159ZM859 164V174H707V543H859V553H666C629 553 599 548 569 536L426 477C388 461 359 439 359 395V318C359 272 388 249 425 235L569 181C598 170 629 164 666 164ZM666 174C630 174 600 180 573 190L429 244C395 257 369 278 369 318V395C369 432 395 453 430 468L573 527C600 537 630 543 666 543H697V174Z" glyph-name="Adieresis" horiz-adv-x="1016" unicode="&#196;" /><glyph d="M159 492H112V482H159ZM159 234H112V224H159ZM859 165V175H698V543H859V553H482C401 553 347 514 347 359C347 202 401 165 482 165ZM482 175C407 175 357 210 357 359C357 506 407 543 482 543H688V175Z" glyph-name="Adieresis.salt" horiz-adv-x="1016" /><glyph d="M121 240 151 479H141L111 240ZM858 164V174H706V543H858V553H665C628 553 598 548 568 536L425 477C387 461 358 439 358 395V318C358 272 387 249 424 235L568 181C597 170 628 164 665 164ZM665 174C629 174 599 180 572 190L428 244C394 257 368 278 368 318V395C368 432 394 453 429 468L572 527C599 537 629 543 665 543H696V174Z" glyph-name="Agrave" horiz-adv-x="1015" unicode="&#192;" /><glyph d="M121 240 151 479H141L111 240ZM858 165V175H697V543H858V553H481C400 553 346 514 346 359C346 202 400 165 481 165ZM481 175C406 175 356 210 356 359C356 506 406 543 481 543H687V175Z" glyph-name="Agrave.salt" horiz-adv-x="1015" /><glyph d="M120 240H130V479H120ZM837 164V174H685V543H837V553H644C607 553 577 548 547 536L404 477C366 461 337 439 337 395V318C337 272 366 249 403 235L547 181C576 170 607 164 644 164ZM644 174C608 174 578 180 551 190L407 244C373 257 347 278 347 318V395C347 432 373 453 408 468L551 527C578 537 608 543 644 543H675V174Z" glyph-name="Amacron" horiz-adv-x="994" unicode="&#256;" /><glyph d="M120 240H130V479H120ZM837 165V175H676V543H837V553H460C379 553 325 514 325 359C325 202 379 165 460 165ZM460 175C385 175 335 210 335 359C335 506 385 543 460 543H666V175Z" glyph-name="Amacron.salt" horiz-adv-x="994" /><glyph d="M652 164V174H500V543H652V553H459C422 553 392 548 362 536L219 477C181 461 152 439 152 395V318C152 272 181 249 218 235L362 181C391 170 422 164 459 164ZM459 174C423 174 393 180 366 190L222 244C188 257 162 278 162 318V395C162 432 188 453 223 468L366 527C393 537 423 543 459 543H490V174ZM858 571H848V547C848 506 825 501 785 506L700 518C671 522 666 526 652 551L644 545C660 517 668 513 700 508L783 496C833 488 858 498 858 547Z" glyph-name="Aogonek" horiz-adv-x="945" unicode="&#260;" /><glyph d="M662 165V175H501V543H662V553H285C204 553 150 514 150 359C150 202 204 165 285 165ZM285 175C210 175 160 210 160 359C160 506 210 543 285 543H491V175ZM868 573H858V549C858 508 835 503 795 508L710 520C681 524 676 528 662 553L654 547C670 519 678 515 710 510L793 498C843 490 868 500 868 549Z" glyph-name="Aogonek.salt" horiz-adv-x="955" /><glyph d="M854 164V174H682V543H854V553H641C604 553 572 549 544 536L401 467C364 449 334 439 334 395V318C334 272 364 261 400 245L544 181C573 170 604 164 641 164ZM641 174C605 174 575 180 548 190L404 254C370 267 344 278 344 318V395C344 432 370 443 405 458L548 527C575 537 605 543 641 543H672V174ZM213 218C273 218 313 240 313 359C313 478 273 502 213 502H174C115 502 73 478 73 359C73 240 114 218 174 218ZM83 359C83 466 119 492 174 492H213C269 492 303 466 303 359C303 252 269 228 213 228H174C118 228 83 252 83 359Z" glyph-name="Aring" horiz-adv-x="1011" unicode="&#197;" /><glyph d="M855 165V175H694V543H855V553H478C397 553 343 514 343 359C343 202 397 165 478 165ZM478 175C403 175 353 210 353 359C353 506 403 543 478 543H684V175ZM215 216C275 216 315 238 315 357C315 476 275 500 215 500H175C116 500 74 476 74 357C74 238 115 216 175 216ZM84 357C84 464 120 490 175 490H215C271 490 305 464 305 357C305 250 271 226 215 226H175C119 226 84 250 84 357Z" glyph-name="Aring.salt" horiz-adv-x="1012" /><glyph d="M848 164V174H696V543H848V553H655C618 553 588 548 558 536L415 477C377 461 348 439 348 395V318C348 272 377 249 414 235L558 181C587 170 618 164 655 164ZM655 174C619 174 589 180 562 190L418 244C384 257 358 278 358 318V395C358 432 384 453 419 468L562 527C589 537 619 543 655 543H686V174ZM137 478C140 451 137 427 129 376L127 360L123 332C117 287 115 263 118 240H129C125 262 126 286 133 330L137 358L139 374C147 425 150 451 147 478Z" glyph-name="Atilde" horiz-adv-x="1005" unicode="&#195;" /><glyph d="M137 478C140 451 137 427 129 376L127 360L123 332C117 287 115 263 118 240H129C125 262 126 286 133 330L137 358L139 374C147 425 150 451 147 478ZM848 165V175H687V543H848V553H471C390 553 336 514 336 359C336 202 390 165 471 165ZM471 175C396 175 346 210 346 359C346 506 396 543 471 543H677V175Z" glyph-name="Atilde.salt" horiz-adv-x="1005" /><glyph d="M430 431C430 532 475 551 535 551H599C654 551 689 530 689 430V180H430ZM699 170V430C699 542 658 561 599 561H535C469 561 420 542 420 431C405 488 369 495 329 495H265C207 495 159 475 159 364V170ZM169 364C169 465 211 485 265 485H329C377 485 420 474 420 364V180H169Z" glyph-name="B" horiz-adv-x="861" unicode="B" /><glyph d="M692 561V325C692 205 660 175 573 175H293C204 175 172 207 172 325V561H162V325C162 197 198 165 293 165H573C666 165 702 195 702 325V561Z" glyph-name="C" horiz-adv-x="864" unicode="C" /><glyph d="M652 561V325C652 205 620 175 533 175H293C204 175 172 207 172 325V561H162V325C162 197 198 165 293 165H533C626 165 662 195 662 325V561Z" glyph-name="C.s" horiz-adv-x="824" /><glyph d="M141 250H151L121 489H111ZM848 561V325C848 205 816 175 729 175H489C400 175 368 207 368 325V561H358V325C358 197 394 165 489 165H729C822 165 858 195 858 325V561Z" glyph-name="Cacute" horiz-adv-x="1020" unicode="&#262;" /><glyph d="M126 250H137L164 333C167 345 170 354 170 369C170 384 167 393 164 405L137 488H126L154 401C157 391 160 382 160 369C160 356 157 347 154 337ZM864 561V325C864 205 832 175 745 175H505C416 175 384 207 384 325V561H374V325C374 197 410 165 505 165H745C838 165 874 195 874 325V561Z" glyph-name="Ccaron" horiz-adv-x="1036" unicode="&#268;" /><glyph d="M652 561V325C652 205 620 175 533 175H293C204 175 172 207 172 325V561H162V325C162 197 198 165 293 165H533C626 165 662 195 662 325V561ZM655 401 788 353V363L656 411Z" glyph-name="Ccedilla" horiz-adv-x="905" unicode="&#199;" /><glyph d="M144 488H133L106 405C103 393 100 384 100 369C100 354 103 345 106 333L133 250H144L116 337C113 347 110 356 110 369C110 382 113 391 116 401ZM854 561V325C854 205 822 175 735 175H495C406 175 374 207 374 325V561H364V325C364 197 400 165 495 165H735C828 165 864 195 864 325V561Z" glyph-name="Ccircumflex" horiz-adv-x="1026" unicode="&#264;" /><glyph d="M146 376H87V366H146ZM836 561V325C836 205 804 175 717 175H477C388 175 356 207 356 325V561H346V325C346 197 382 165 477 165H717C810 165 846 195 846 325V561Z" glyph-name="Cdotaccent" horiz-adv-x="1008" unicode="&#266;" /><glyph d="M162 169H702V397C702 535 643 557 566 557H301C224 557 162 533 162 397ZM172 397C172 523 228 547 301 547H566C639 547 692 525 692 397V179H172Z" glyph-name="D" horiz-adv-x="864" unicode="D" /><glyph d="M162 169H662V397C662 535 603 557 526 557H301C224 557 162 533 162 397ZM172 397C172 523 228 547 301 547H526C599 547 652 525 652 397V179H172Z" glyph-name="D.s" horiz-adv-x="824" /><glyph d="M374 169H874V397C874 535 815 557 738 557H513C436 557 374 533 374 397ZM384 397C384 523 440 547 513 547H738C811 547 864 525 864 397V179H384ZM126 240H137L164 323C167 335 170 344 170 359C170 374 167 383 164 395L137 478H126L154 391C157 381 160 372 160 359C160 346 157 337 154 327Z" glyph-name="Dcaron" horiz-adv-x="1036" unicode="&#270;" /><glyph d="M441 91H451V167H710V392C710 530 651 552 574 552H309C232 552 170 528 170 392V167H441ZM451 271H441V177H180V392C180 518 236 542 309 542H574C647 542 700 520 700 392V177H451Z" glyph-name="Dcroat" horiz-adv-x="880" unicode="&#272;" /><glyph d="M607 157H710V559H607C569 559 536 554 515 549L265 486C176 464 175 444 175 382V331C175 269 176 248 265 227L512 168C536 162 569 157 607 157ZM607 167C569 167 538 172 514 178L267 237C186 256 185 275 185 331V382C185 438 186 456 267 476L517 539C538 544 569 549 607 549H700V167Z" glyph-name="Delta" horiz-adv-x="880" unicode="&#8710;" /><glyph d="M710 168V561H700V178H441V480H431V178H180V561H170V168Z" glyph-name="E" horiz-adv-x="880" unicode="E" /><glyph d="M670 168V561H660V178H421V480H411V178H180V561H170V168Z" glyph-name="E.s" horiz-adv-x="840" /><glyph d="M702 325V561H692V325C692 205 660 175 573 175H433V480H423V175H293C204 175 172 207 172 325V561H162V325C162 197 198 165 293 165H573C666 165 702 195 702 325Z" glyph-name="E.salt" horiz-adv-x="864" /><glyph d="M403 178H293C204 178 172 210 172 328V560H162V328C162 200 198 168 293 168H533C626 168 662 198 662 328V560H652V328C652 208 620 178 533 178H413V480H403Z" glyph-name="E.salt_s" horiz-adv-x="824" /><glyph d="M858 168V561H848V178H609V480H599V178H368V561H358V168ZM141 240H151L121 479H111Z" glyph-name="Eacute" horiz-adv-x="1028" unicode="&#201;" /><glyph d="M141 240H151L121 479H111ZM599 178H489C400 178 368 210 368 328V560H358V328C358 200 394 168 489 168H729C822 168 858 198 858 328V560H848V328C848 208 816 178 729 178H609V480H599Z" glyph-name="Eacute.salt" horiz-adv-x="1020" /><glyph d="M97 494H106C142 494 176 467 176 359C176 251 142 229 106 229H97V219H106C144 219 186 235 186 359C186 483 144 504 106 504H97ZM874 168V561H864V178H625V480H615V178H384V561H374V168Z" glyph-name="Ebreve" horiz-adv-x="1044" unicode="&#276;" /><glyph d="M97 494H106C142 494 176 467 176 359C176 251 142 229 106 229H97V219H106C144 219 186 235 186 359C186 483 144 504 106 504H97ZM615 178H505C416 178 384 210 384 328V560H374V328C374 200 410 168 505 168H745C838 168 874 198 874 328V560H864V328C864 208 832 178 745 178H625V480H615Z" glyph-name="Ebreve.salt" horiz-adv-x="1036" /><glyph d="M126 240H137L164 323C167 335 170 344 170 359C170 374 167 383 164 395L137 478H126L154 391C157 381 160 372 160 359C160 346 157 337 154 327ZM874 168V561H864V178H625V480H615V178H384V561H374V168Z" glyph-name="Ecaron" horiz-adv-x="1044" unicode="&#282;" /><glyph d="M126 240H137L164 323C167 335 170 344 170 359C170 374 167 383 164 395L137 478H126L154 391C157 381 160 372 160 359C160 346 157 337 154 327ZM615 178H505C416 178 384 210 384 328V560H374V328C374 200 410 168 505 168H745C838 168 874 198 874 328V560H864V328C864 208 832 178 745 178H625V480H615Z" glyph-name="Ecaron.salt" horiz-adv-x="1036" /><glyph d="M144 478H133L106 395C103 383 100 374 100 359C100 344 103 335 106 323L133 240H144L116 327C113 337 110 346 110 359C110 372 113 381 116 391ZM904 168V561H894V178H635V480H625V178H374V561H364V168Z" glyph-name="Ecircumflex" horiz-adv-x="1074" unicode="&#202;" /><glyph d="M144 478H133L106 395C103 383 100 374 100 359C100 344 103 335 106 323L133 240H144L116 327C113 337 110 346 110 359C110 372 113 381 116 391ZM605 178H495C406 178 374 210 374 328V560H364V328C364 200 400 168 495 168H735C828 168 864 198 864 328V560H854V328C854 208 822 178 735 178H615V480H605Z" glyph-name="Ecircumflex.salt" horiz-adv-x="1026" /><glyph d="M159 492H112V482H159ZM159 234H112V224H159ZM859 168V561H849V178H610V480H600V178H369V561H359V168Z" glyph-name="Edieresis" horiz-adv-x="1029" unicode="&#203;" /><glyph d="M159 492H112V482H159ZM159 234H112V224H159ZM600 178H490C401 178 369 210 369 328V560H359V328C359 200 395 168 490 168H730C823 168 859 198 859 328V560H849V328C849 208 817 178 730 178H610V480H600Z" glyph-name="Edieresis.salt" horiz-adv-x="1021" /><glyph d="M146 366H87V356H146ZM846 168V561H836V178H597V480H587V178H356V561H346V168Z" glyph-name="Edotaccent" horiz-adv-x="1016" unicode="&#278;" /><glyph d="M146 366H87V356H146ZM587 178H477C388 178 356 210 356 328V560H346V328C346 200 382 168 477 168H717C810 168 846 198 846 328V560H836V328C836 208 804 178 717 178H597V480H587Z" glyph-name="Edotaccent.salt" horiz-adv-x="1008" /><glyph d="M121 240 151 479H141L111 240ZM858 168V561H848V178H609V480H599V178H368V561H358V168Z" glyph-name="Egrave" horiz-adv-x="1028" unicode="&#200;" /><glyph d="M121 240 151 479H141L111 240ZM599 178H489C400 178 368 210 368 328V560H358V328C358 200 394 168 489 168H729C822 168 858 198 858 328V560H848V328C848 208 816 178 729 178H609V480H599Z" glyph-name="Egrave.salt" horiz-adv-x="1020" /><glyph d="M120 240H130V479H120ZM837 168V561H827V178H588V480H578V178H347V561H337V168Z" glyph-name="Emacron" horiz-adv-x="1007" unicode="&#274;" /><glyph d="M120 240H130V479H120ZM578 178H468C379 178 347 210 347 328V560H337V328C337 200 373 168 468 168H708C801 168 837 198 837 328V560H827V328C827 208 795 178 708 178H588V480H578Z" glyph-name="Emacron.salt" horiz-adv-x="999" /><glyph d="M693 177H276C201 177 151 217 151 358C151 501 201 540 276 540H683C747 540 772 505 772 423H782C782 515 753 550 683 550H276C195 550 141 509 141 358C141 209 195 167 276 167H693Z" glyph-name="Eng" horiz-adv-x="930" unicode="&#330;" /><glyph d="M670 168V561H660V178H421V480H411V178H180V561H170V168ZM876 560H866V536C866 495 843 490 803 495L718 507C689 511 684 515 670 540L662 534C678 506 686 502 718 497L801 485C851 477 876 487 876 536Z" glyph-name="Eogonek" horiz-adv-x="963" unicode="&#280;" /><glyph d="M403 178H293C204 178 172 210 172 328V560H162V328C162 200 198 168 293 168H533C626 168 662 198 662 328V560H652V328C652 208 620 178 533 178H413V480H403ZM868 560H858V536C858 495 835 490 795 495L710 507C681 511 676 515 662 540L654 534C670 506 678 502 710 497L793 485C843 477 868 487 868 536Z" glyph-name="Eogonek.salt" horiz-adv-x="955" /><glyph d="M441 91H451V167H710V392C710 530 651 552 574 552H309C232 552 170 528 170 392V167H441ZM451 271H441V177H180V392C180 518 236 542 309 542H574C647 542 700 520 700 392V177H451Z" glyph-name="Eth" horiz-adv-x="880" unicode="&#208;" /><glyph d="M357 146H367V218H517V146H527V218H581C674 218 710 248 710 378V550H700V378C700 258 668 228 581 228H527V466H517V228H367V466H357V228H301C212 228 180 260 180 378V550H170V378C170 250 206 218 301 218H357Z" glyph-name="Euro" horiz-adv-x="880" unicode="&#8364;" /><glyph d="M171 171H711V181H477V481H467V181H181V562H171Z" glyph-name="F" horiz-adv-x="856" unicode="F" /><glyph d="M288 164H568C661 164 697 197 697 344V552H496V542H687V344C687 209 655 174 568 174H288C199 174 167 206 167 324V505H157V324C157 196 193 164 288 164Z" glyph-name="G" horiz-adv-x="859" unicode="G" /><glyph d="M290 164H528C621 164 657 197 657 344V552H456V542H647V344C647 209 615 174 528 174H290C201 174 169 206 169 324V505H159V324C159 196 195 164 290 164Z" glyph-name="G.s" horiz-adv-x="819" /><glyph d="M97 494H106C142 494 176 467 176 359C176 251 142 229 106 229H97V219H106C144 219 186 235 186 359C186 483 144 504 106 504H97ZM507 164H745C838 164 874 197 874 344V552H673V542H864V344C864 209 832 174 745 174H507C418 174 386 206 386 324V505H376V324C376 196 412 164 507 164Z" glyph-name="Gbreve" horiz-adv-x="1036" unicode="&#286;" /><glyph d="M144 478H133L106 395C103 383 100 374 100 359C100 344 103 335 106 323L133 240H144L116 327C113 337 110 346 110 359C110 372 113 381 116 391ZM497 164H735C828 164 864 197 864 344V552H663V542H854V344C854 209 822 174 735 174H497C408 174 376 206 376 324V505H366V324C366 196 402 164 497 164Z" glyph-name="Gcircumflex" horiz-adv-x="1026" unicode="&#284;" /><glyph d="M290 164H528C621 164 657 197 657 344V552H456V542H647V344C647 209 615 174 528 174H290C201 174 169 206 169 324V505H159V324C159 196 195 164 290 164ZM871 295H881V417H958C1005 417 1029 391 1029 349V295H1039V349C1039 397 1012 427 958 427H871Z" glyph-name="Gcommaaccent" horiz-adv-x="1089" unicode="&#290;" /><glyph d="M146 366H87V356H146ZM479 164H717C810 164 846 197 846 344V552H645V542H836V344C836 209 804 174 717 174H479C390 174 358 206 358 324V505H348V324C348 196 384 164 479 164Z" glyph-name="Gdotaccent" horiz-adv-x="1008" unicode="&#288;" /><glyph d="M180 179V418C180 479 215 500 280 482L436 448V468C436 525 461 556 524 556H612C674 556 700 529 700 460V427H710V460C710 537 680 566 612 566H524C455 566 426 533 426 468V462L282 492C209 507 170 487 170 418V169H710V179Z" glyph-name="Germandbls" horiz-adv-x="880" unicode="&#7838;" /><glyph d="M157 169H697V179H432V541H697V551H157V541H422V179H157Z" glyph-name="H" horiz-adv-x="854" unicode="H" /><glyph d="M157 169H657V179H412V541H657V551H157V541H402V179H157Z" glyph-name="H.s" horiz-adv-x="814" /><glyph d="M286 100H296V166H710V176H558V543H710V553H296V619H286V553H170V543H286V176H170V166H286ZM548 543V176H296V543Z" glyph-name="Hbar" horiz-adv-x="880" unicode="&#294;" /><glyph d="M364 169H864V179H619V541H864V551H364V541H609V179H364ZM144 478H133L106 395C103 383 100 374 100 359C100 344 103 335 106 323L133 240H144L116 327C113 337 110 346 110 359C110 372 113 381 116 391Z" glyph-name="Hcircumflex" horiz-adv-x="1021" unicode="&#292;" /><glyph d="M700 159H710V561H700V365H180V561H170V159H180V355H700Z" glyph-name="I" horiz-adv-x="880" unicode="I" /><glyph d="M660 159H670V561H660V365H180V561H170V159H180V355H660Z" glyph-name="I.s" horiz-adv-x="840" /><glyph d="M145 355H685V365H145Z" glyph-name="I.salt" horiz-adv-x="830" /><glyph d="M145 355H645V365H145Z" glyph-name="I.salt_s" horiz-adv-x="790" /><glyph d="M697 412C697 529 638 551 531 551H157V541H531C634 541 687 519 687 412V151H697ZM367 179H157V169H367Z" glyph-name="IJ" horiz-adv-x="859" unicode="&#306;" /><glyph d="M145 355H645V365H145ZM905 541H1282C1357 541 1407 500 1407 362C1407 217 1358 175 1282 175H1198V165H1282C1362 165 1417 204 1417 362C1417 510 1361 551 1282 551H905Z" glyph-name="IJ.salt" horiz-adv-x="1567" /><glyph d="M660 159H670V561H660V365H180V561H170V159H180V355H660ZM950 540H1327C1402 540 1452 499 1452 361C1452 216 1403 174 1327 174H1243V164H1327C1407 164 1462 203 1462 361C1462 509 1406 550 1327 550H950Z" glyph-name="IJ.stack" horiz-adv-x="1624" /><glyph d="M157 541H697V551H157ZM157 169H697V179H157Z" glyph-name="I_I.salt" horiz-adv-x="854" /><glyph d="M848 159H858V561H848V365H368V561H358V159H368V355H848ZM141 240H151L121 479H111Z" glyph-name="Iacute" horiz-adv-x="1028" unicode="&#205;" /><glyph d="M141 240H151L121 479H111ZM358 355H858V365H358Z" glyph-name="Iacute.salt" horiz-adv-x="1003" /><glyph d="M97 494H106C142 494 176 467 176 359C176 251 142 229 106 229H97V219H106C144 219 186 235 186 359C186 483 144 504 106 504H97ZM864 159H874V561H864V365H384V561H374V159H384V355H864Z" glyph-name="Ibreve" horiz-adv-x="1044" unicode="&#300;" /><glyph d="M97 494H106C142 494 176 467 176 359C176 251 142 229 106 229H97V219H106C144 219 186 235 186 359C186 483 144 504 106 504H97ZM374 355H874V365H374Z" glyph-name="Ibreve.salt" horiz-adv-x="1019" /><glyph d="M144 478H133L106 395C103 383 100 374 100 359C100 344 103 335 106 323L133 240H144L116 327C113 337 110 346 110 359C110 372 113 381 116 391ZM854 159H864V561H854V365H374V561H364V159H374V355H854Z" glyph-name="Icircumflex" horiz-adv-x="1034" unicode="&#206;" /><glyph d="M144 478H133L106 395C103 383 100 374 100 359C100 344 103 335 106 323L133 240H144L116 327C113 337 110 346 110 359C110 372 113 381 116 391ZM364 355H864V365H364Z" glyph-name="Icircumflex.salt" horiz-adv-x="1009" /><glyph d="M159 492H112V482H159ZM159 234H112V224H159ZM849 159H859V561H849V365H369V561H359V159H369V355H849Z" glyph-name="Idieresis" horiz-adv-x="1029" unicode="&#207;" /><glyph d="M159 492H112V482H159ZM159 234H112V224H159ZM359 355H859V365H359Z" glyph-name="Idieresis.salt" horiz-adv-x="1004" /><glyph d="M146 366H87V356H146ZM836 159H846V561H836V365H356V561H346V159H356V355H836Z" glyph-name="Idotaccent" horiz-adv-x="1016" unicode="&#304;" /><glyph d="M146 366H87V356H146ZM346 355H846V365H346Z" glyph-name="Idotaccent.salt" horiz-adv-x="991" /><glyph d="M121 240 151 479H141L111 240ZM848 159H858V561H848V365H368V561H358V159H368V355H848Z" glyph-name="Igrave" horiz-adv-x="1028" unicode="&#204;" /><glyph d="M121 240 151 479H141L111 240ZM358 355H858V365H358Z" glyph-name="Igrave.salt" horiz-adv-x="1003" /><glyph d="M120 240H130V479H120ZM827 159H837V561H827V365H347V561H337V159H347V355H827Z" glyph-name="Imacron" horiz-adv-x="1007" unicode="&#298;" /><glyph d="M120 240H130V479H120ZM337 355H837V365H337Z" glyph-name="Imacron.salt" horiz-adv-x="982" /><glyph d="M660 159H670V561H660V365H180V561H170V159H180V355H660ZM876 561H866V537C866 496 843 491 803 496L718 508C689 512 684 516 670 541L662 535C678 507 686 503 718 498L801 486C851 478 876 488 876 537Z" glyph-name="Iogonek" horiz-adv-x="963" unicode="&#302;" /><glyph d="M145 355H645V365H145ZM851 381H841V357C841 316 818 311 778 316L693 328C664 332 659 336 645 361L637 355C653 327 661 323 693 318L776 306C826 298 851 308 851 357Z" glyph-name="Iogonek.salt" horiz-adv-x="938" /><glyph d="M137 478C140 451 137 427 129 376L127 360L123 332C117 287 115 263 118 240H129C125 262 126 286 133 330L137 358L139 374C147 425 150 451 147 478ZM838 159H848V561H838V365H358V561H348V159H358V355H838Z" glyph-name="Itilde" horiz-adv-x="1018" unicode="&#296;" /><glyph d="M137 478C140 451 137 427 129 376L127 360L123 332C117 287 115 263 118 240H129C125 262 126 286 133 330L137 358L139 374C147 425 150 451 147 478ZM348 355H848V365H348Z" glyph-name="Itilde.salt" horiz-adv-x="993" /><glyph d="M145 540H562C637 540 687 499 687 361C687 216 638 174 562 174H478V164H562C642 164 697 203 697 361C697 509 641 550 562 550H145Z" glyph-name="J" horiz-adv-x="848" unicode="J" /><glyph d="M145 540H522C597 540 647 499 647 361C647 216 598 174 522 174H438V164H522C602 164 657 203 657 361C657 509 601 550 522 550H145Z" glyph-name="J.s" horiz-adv-x="807" /><glyph d="M144 568H133L106 485C103 473 100 464 100 449C100 434 103 425 106 413L133 330H144L116 417C113 427 110 436 110 449C110 462 113 471 116 481ZM364 540H741C816 540 866 499 866 361C866 216 817 174 741 174H657V164H741C821 164 876 203 876 361C876 509 820 550 741 550H364Z" glyph-name="Jcircumflex" horiz-adv-x="1026" unicode="&#308;" /><glyph d="M157 170H697V180H433V432C433 506 457 543 521 543H697V553H521C451 553 423 514 423 432V391L157 506V495L423 380V180H157Z" glyph-name="K" horiz-adv-x="854" unicode="K" /><glyph d="M157 170H657V180H413V432C413 506 437 543 501 543H657V553H501C431 553 403 514 403 432V391L157 506V495L403 380V180H157Z" glyph-name="K.s" horiz-adv-x="814" /><glyph d="M157 170H657V180H413V432C413 506 437 543 501 543H657V553H501C431 553 403 514 403 432V391L157 506V495L403 380V180H157ZM871 295H881V417H958C1005 417 1029 391 1029 349V295H1039V349C1039 397 1012 427 958 427H871Z" glyph-name="Kcommaaccent" horiz-adv-x="1089" unicode="&#310;" /><glyph d="M145 170H685V557H478V547H675V180H145Z" glyph-name="L" horiz-adv-x="855" unicode="L" /><glyph d="M145 170H645V557H448V547H635V180H145Z" glyph-name="L.s" horiz-adv-x="815" /><glyph d="M141 150H151L121 389H111ZM358 170H858V557H661V547H848V180H358Z" glyph-name="Lacute" horiz-adv-x="1028" unicode="&#313;" /><glyph d="M157 170H697V557H490V547H687V180H157ZM250 549 157 567V556L250 538Z" glyph-name="Lcaron" horiz-adv-x="867" unicode="&#317;" /><glyph d="M145 170H645V557H448V547H635V180H145ZM859 295H869V417H946C993 417 1017 391 1017 349V295H1027V349C1027 397 1000 427 946 427H859Z" glyph-name="Lcommaaccent" horiz-adv-x="1077" unicode="&#315;" /><glyph d="M923 372V382H868V372ZM145 170H645V557H448V547H635V180H145Z" glyph-name="Ldot" horiz-adv-x="1012" unicode="&#319;" /><glyph d="M400 94 367 294H357L390 94ZM145 170H685V557H478V547H675V180H145Z" glyph-name="Lslash" horiz-adv-x="855" unicode="&#321;" /><glyph d="M422 356C422 337 416 331 380 315L174 222C160 216 157 201 157 189V172C157 149 166 139 188 139L697 137V147L188 149C177 149 167 153 167 172V187C167 197 167 208 181 214L385 307C423 324 432 332 432 356C432 380 423 388 385 405L181 498C167 504 167 515 167 525V544C167 560 177 563 188 563L697 565V575L188 573C166 573 157 564 157 544V523C157 511 159 497 174 490L380 397C418 380 422 375 422 356Z" glyph-name="M" horiz-adv-x="854" unicode="M" /><glyph d="M712 111H295C220 111 170 140 170 234C170 328 220 355 295 355H712V365H295C220 365 170 392 170 487C170 581 220 608 295 608H712V618H295C214 618 160 589 160 487C160 406 194 371 249 360C194 349 160 315 160 234C160 132 214 101 295 101H712Z" glyph-name="M.salt" horiz-adv-x="882" /><glyph d="M156 178C156 172 160 166 168 166H697V176H170C169 176 167 176 167 178C167 180 168 181 170 183L594 545H697V555H157V545H579L165 193C158 186 156 184 156 178Z" glyph-name="N" horiz-adv-x="854" unicode="N" /><glyph d="M156 178C156 172 160 166 168 166H657V176H170C169 176 167 176 167 178C167 180 168 181 170 183L574 545H657V555H157V545H559L165 193C158 186 156 184 156 178Z" glyph-name="N.s" horiz-adv-x="814" /><glyph d="M703 550H286C205 550 151 509 151 359C151 209 205 167 286 167H703V177H286C211 177 161 217 161 359C161 501 211 540 286 540H703Z" glyph-name="N.salt" horiz-adv-x="860" /><glyph d="M662 550H285C204 550 150 509 150 359C150 209 204 167 285 167H662V177H285C210 177 160 217 160 359C160 501 210 540 285 540H662Z" glyph-name="N.salt_s" horiz-adv-x="819" /><glyph d="M141 240H151L121 479H111ZM357 178C357 172 361 166 369 166H858V176H371C370 176 368 176 368 178C368 180 369 181 371 183L775 545H858V555H358V545H760L366 193C359 186 357 184 357 178Z" glyph-name="Nacute" horiz-adv-x="1015" unicode="&#323;" /><glyph d="M858 550H481C400 550 346 509 346 359C346 209 400 167 481 167H858V177H481C406 177 356 217 356 359C356 501 406 540 481 540H858ZM141 240H151L121 479H111Z" glyph-name="Nacute.salt" horiz-adv-x="1015" /><glyph d="M126 240H137L164 323C167 335 170 344 170 359C170 374 167 383 164 395L137 478H126L154 391C157 381 160 372 160 359C160 346 157 337 154 327ZM373 178C373 172 377 166 385 166H874V176H387C386 176 384 176 384 178C384 180 385 181 387 183L791 545H874V555H374V545H776L382 193C375 186 373 184 373 178Z" glyph-name="Ncaron" horiz-adv-x="1031" unicode="&#327;" /><glyph d="M126 240H137L164 323C167 335 170 344 170 359C170 374 167 383 164 395L137 478H126L154 391C157 381 160 372 160 359C160 346 157 337 154 327ZM874 550H497C416 550 362 509 362 359C362 209 416 167 497 167H874V177H497C422 177 372 217 372 359C372 501 422 540 497 540H874Z" glyph-name="Ncaron.salt" horiz-adv-x="1031" /><glyph d="M156 178C156 172 160 166 168 166H657V176H170C169 176 167 176 167 178C167 180 168 181 170 183L574 545H657V555H157V545H559L165 193C158 186 156 184 156 178ZM871 295H881V417H958C1005 417 1029 391 1029 349V295H1039V349C1039 397 1012 427 958 427H871Z" glyph-name="Ncommaaccent" horiz-adv-x="1089" unicode="&#325;" /><glyph d="M562 550H265C184 550 130 509 130 359C130 209 184 167 265 167H562V177H265C190 177 140 217 140 359C140 501 190 540 265 540H562Z" glyph-name="Ncommaaccent.salt" horiz-adv-x="982" /><glyph d="M137 478C140 451 137 427 129 376L127 360L123 332C117 287 115 263 118 240H129C125 262 126 286 133 330L137 358L139 374C147 425 150 451 147 478ZM347 178C347 172 351 166 359 166H848V176H361C360 176 358 176 358 178C358 180 359 181 361 183L765 545H848V555H348V545H750L356 193C349 186 347 184 347 178Z" glyph-name="Ntilde" horiz-adv-x="1005" unicode="&#209;" /><glyph d="M137 478C140 451 137 427 129 376L127 360L123 332C117 287 115 263 118 240H129C125 262 126 286 133 330L137 358L139 374C147 425 150 451 147 478ZM848 550H471C390 550 336 509 336 359C336 209 390 167 471 167H848V177H471C396 177 346 217 346 359C346 501 396 540 471 540H848Z" glyph-name="Ntilde.salt" horiz-adv-x="1005" /><glyph d="M580 556H285C204 556 150 511 150 359C150 207 204 165 285 165H580C661 165 715 207 715 359C715 511 661 556 580 556ZM580 175H285C210 175 160 215 160 359C160 503 210 546 285 546H580C655 546 705 503 705 359C705 215 655 175 580 175Z" glyph-name="O" horiz-adv-x="864" unicode="O" /><glyph d="M540 556H285C204 556 150 511 150 359C150 207 204 165 285 165H540C621 165 675 207 675 359C675 511 621 556 540 556ZM540 175H285C210 175 160 215 160 359C160 503 210 546 285 546H540C615 546 665 503 665 359C665 215 615 175 540 175Z" glyph-name="O.s" horiz-adv-x="824" /><glyph d="M574 136C651 136 710 157 710 286V591H700V446H440V590H430V446H180V591H170V286C170 159 232 136 309 136ZM309 146C236 146 180 168 180 286V436H700V286C700 169 649 147 579 146Z" glyph-name="OE" horiz-adv-x="880" unicode="&#338;" /><glyph d="M141 240H151L121 479H111ZM736 556H481C400 556 346 511 346 359C346 207 400 165 481 165H736C817 165 871 207 871 359C871 511 817 556 736 556ZM736 175H481C406 175 356 215 356 359C356 503 406 546 481 546H736C811 546 861 503 861 359C861 215 811 175 736 175Z" glyph-name="Oacute" horiz-adv-x="1020" unicode="&#211;" /><glyph d="M97 494H106C142 494 176 467 176 359C176 251 142 229 106 229H97V219H106C144 219 186 235 186 359C186 483 144 504 106 504H97ZM752 556H497C416 556 362 511 362 359C362 207 416 165 497 165H752C833 165 887 207 887 359C887 511 833 556 752 556ZM752 175H497C422 175 372 215 372 359C372 503 422 546 497 546H752C827 546 877 503 877 359C877 215 827 175 752 175Z" glyph-name="Obreve" horiz-adv-x="1036" unicode="&#334;" /><glyph d="M144 478H133L106 395C103 383 100 374 100 359C100 344 103 335 106 323L133 240H144L116 327C113 337 110 346 110 359C110 372 113 381 116 391ZM742 556H487C406 556 352 511 352 359C352 207 406 165 487 165H742C823 165 877 207 877 359C877 511 823 556 742 556ZM742 175H487C412 175 362 215 362 359C362 503 412 546 487 546H742C817 546 867 503 867 359C867 215 817 175 742 175Z" glyph-name="Ocircumflex" horiz-adv-x="1026" unicode="&#212;" /><glyph d="M159 492H112V482H159ZM159 234H112V224H159ZM737 556H482C401 556 347 511 347 359C347 207 401 165 482 165H737C818 165 872 207 872 359C872 511 818 556 737 556ZM737 175H482C407 175 357 215 357 359C357 503 407 546 482 546H737C812 546 862 503 862 359C862 215 812 175 737 175Z" glyph-name="Odieresis" horiz-adv-x="1021" unicode="&#214;" /><glyph d="M121 240 151 479H141L111 240ZM736 556H481C400 556 346 511 346 359C346 207 400 165 481 165H736C817 165 871 207 871 359C871 511 817 556 736 556ZM736 175H481C406 175 356 215 356 359C356 503 406 546 481 546H736C811 546 861 503 861 359C861 215 811 175 736 175Z" glyph-name="Ograve" horiz-adv-x="1020" unicode="&#210;" /><glyph d="M224 510 127 535V524L224 499ZM224 250 127 275V264L224 239ZM822 556H567C486 556 432 511 432 359C432 207 486 165 567 165H822C903 165 957 207 957 359C957 511 903 556 822 556ZM822 175H567C492 175 442 215 442 359C442 503 492 546 567 546H822C897 546 947 503 947 359C947 215 897 175 822 175Z" glyph-name="Ohungarumlaut" horiz-adv-x="1106" unicode="&#336;" /><glyph d="M120 240H130V479H120ZM715 556H460C379 556 325 511 325 359C325 207 379 165 460 165H715C796 165 850 207 850 359C850 511 796 556 715 556ZM715 175H460C385 175 335 215 335 359C335 503 385 546 460 546H715C790 546 840 503 840 359C840 215 790 175 715 175Z" glyph-name="Omacron" horiz-adv-x="999" unicode="&#332;" /><glyph d="M539 552C610 552 643 544 664 476L665 472H712V623H702V482H673C651 552 616 562 539 562H295C214 562 160 517 160 360C160 203 214 158 295 158H539C615 158 650 168 673 238H702V97H712V248H665L664 244C643 176 610 168 539 168H295C220 168 170 211 170 360C170 509 220 552 295 552Z" glyph-name="Omega" horiz-adv-x="882" unicode="&#8486;" /><glyph d="M295 546H590C665 546 715 503 715 359C715 315 710 281 702 255L186 473C207 527 246 546 295 546ZM590 175H295C220 175 170 215 170 359C170 403 175 437 183 464L699 245C678 192 639 175 590 175ZM590 165C644 165 686 184 708 241L782 210V221L711 251C720 278 725 314 725 359C725 511 671 556 590 556H295C241 556 199 536 177 477L102 509V498L174 468C165 440 160 404 160 359C160 207 214 165 295 165Z" glyph-name="Oslash" horiz-adv-x="884" unicode="&#216;" /><glyph d="M137 478C140 451 137 427 129 376L127 360L123 332C117 287 115 263 118 240H129C125 262 126 286 133 330L137 358L139 374C147 425 150 451 147 478ZM726 556H471C390 556 336 511 336 359C336 207 390 165 471 165H726C807 165 861 207 861 359C861 511 807 556 726 556ZM726 175H471C396 175 346 215 346 359C346 503 396 546 471 546H726C801 546 851 503 851 359C851 215 801 175 726 175Z" glyph-name="Otilde" horiz-adv-x="1010" unicode="&#213;" /><glyph d="M505 411C505 537 450 561 372 561H298C220 561 162 537 162 411V169H702V179H505ZM495 179H172V411C172 529 226 551 298 551H372C444 551 495 529 495 411Z" glyph-name="P" horiz-adv-x="847" unicode="P" /><glyph d="M286 165H581C661 165 714 206 716 354H793V364H716C715 512 661 556 581 556H286C205 556 151 511 151 359C151 207 205 165 286 165ZM581 175H286C211 175 161 215 161 359C161 503 211 546 286 546H581C656 546 706 503 706 359C706 215 656 175 581 175Z" glyph-name="Q" horiz-adv-x="934" unicode="Q" /><glyph d="M162 168H702V178H470V461C470 537 502 551 568 551H702V561H568C498 561 461 543 461 461V450C446 498 406 510 345 510H276C210 510 162 474 162 396ZM172 396C172 467 214 500 276 500H346C420 500 461 479 461 396V178H172Z" glyph-name="R" horiz-adv-x="859" unicode="R" /><glyph d="M162 168H662V178H450V461C450 537 482 551 548 551H662V561H548C478 561 441 543 441 461V450C426 498 386 510 325 510H276C210 510 162 474 162 396ZM172 396C172 467 214 500 276 500H326C400 500 441 479 441 396V178H172Z" glyph-name="R.s" horiz-adv-x="819" /><glyph d="M141 222H151L121 461H111ZM358 168H858V178H646V461C646 537 678 551 744 551H858V561H744C674 561 637 543 637 461V450C622 498 582 510 521 510H472C406 510 358 474 358 396ZM368 396C368 467 410 500 472 500H522C596 500 637 479 637 396V178H368Z" glyph-name="Racute" horiz-adv-x="1015" unicode="&#340;" /><glyph d="M126 240H137L164 323C167 335 170 344 170 359C170 374 167 383 164 395L137 478H126L154 391C157 381 160 372 160 359C160 346 157 337 154 327ZM374 168H874V178H662V461C662 537 694 551 760 551H874V561H760C690 561 653 543 653 461V450C638 498 598 510 537 510H488C422 510 374 474 374 396ZM384 396C384 467 426 500 488 500H538C612 500 653 479 653 396V178H384Z" glyph-name="Rcaron" horiz-adv-x="1031" unicode="&#344;" /><glyph d="M162 168H662V178H450V461C450 537 482 551 548 551H662V561H548C478 561 441 543 441 461V450C426 498 386 510 325 510H276C210 510 162 474 162 396ZM172 396C172 467 214 500 276 500H326C400 500 441 479 441 396V178H172ZM876 295H886V417H963C1010 417 1034 391 1034 349V295H1044V349C1044 397 1017 427 963 427H876Z" glyph-name="Rcommaaccent" horiz-adv-x="1094" unicode="&#342;" /><glyph d="M162 545V271C162 208 197 169 253 169H345C390 169 421 199 426 248L447 461C452 516 480 542 528 542H611C661 542 692 503 692 441V150H702V441C702 509 667 552 611 552H528C474 552 443 523 437 463L416 250C412 206 385 179 345 179H253C203 179 172 214 172 271V545Z" glyph-name="S" horiz-adv-x="864" unicode="S" /><glyph d="M162 545V271C162 208 197 169 253 169H325C370 169 401 199 406 248L427 461C432 516 460 542 508 542H571C621 542 652 503 652 441V150H662V441C662 509 627 552 571 552H508C454 552 423 523 417 463L396 250C392 206 365 179 325 179H253C203 179 172 214 172 271V545Z" glyph-name="S.s" horiz-adv-x="824" /><glyph d="M141 240H151L121 479H111ZM358 545V271C358 208 393 169 449 169H521C566 169 597 199 602 248L623 461C628 516 656 542 704 542H767C817 542 848 503 848 441V150H858V441C858 509 823 552 767 552H704C650 552 619 523 613 463L592 250C588 206 561 179 521 179H449C399 179 368 214 368 271V545Z" glyph-name="Sacute" horiz-adv-x="1020" unicode="&#346;" /><glyph d="M126 240H137L164 323C167 335 170 344 170 359C170 374 167 383 164 395L137 478H126L154 391C157 381 160 372 160 359C160 346 157 337 154 327ZM374 545V271C374 208 409 169 465 169H537C582 169 613 199 618 248L639 461C644 516 672 542 720 542H783C833 542 864 503 864 441V150H874V441C874 509 839 552 783 552H720C666 552 635 523 629 463L608 250C604 206 577 179 537 179H465C415 179 384 214 384 271V545Z" glyph-name="Scaron" horiz-adv-x="1036" unicode="&#352;" /><glyph d="M162 545V271C162 208 197 169 253 169H325C370 169 401 199 406 248L427 461C432 516 460 542 508 542H571C621 542 652 503 652 441V150H662V441C662 509 627 552 571 552H508C454 552 423 523 417 463L396 250C392 206 365 179 325 179H253C203 179 172 214 172 271V545ZM655 365 788 317V327L656 375Z" glyph-name="Scedilla" horiz-adv-x="905" unicode="&#350;" /><glyph d="M144 478H133L106 395C103 383 100 374 100 359C100 344 103 335 106 323L133 240H144L116 327C113 337 110 346 110 359C110 372 113 381 116 391ZM364 545V271C364 208 399 169 455 169H527C572 169 603 199 608 248L629 461C634 516 662 542 710 542H773C823 542 854 503 854 441V150H864V441C864 509 829 552 773 552H710C656 552 625 523 619 463L598 250C594 206 567 179 527 179H455C405 179 374 214 374 271V545Z" glyph-name="Scircumflex" horiz-adv-x="1026" unicode="&#348;" /><glyph d="M162 545V271C162 208 197 169 253 169H325C370 169 401 199 406 248L427 461C432 516 460 542 508 542H571C621 542 652 503 652 441V150H662V441C662 509 627 552 571 552H508C454 552 423 523 417 463L396 250C392 206 365 179 325 179H253C203 179 172 214 172 271V545ZM876 295H886V417H963C1010 417 1034 391 1034 349V295H1044V349C1044 397 1017 427 963 427H876Z" glyph-name="Scommaaccent" horiz-adv-x="1094" unicode="&#536;" /><glyph d="M710 355V365H180V570H170V150H180V355Z" glyph-name="T" horiz-adv-x="855" unicode="T" /><glyph d="M670 355V365H180V570H170V150H180V355Z" glyph-name="T.s" horiz-adv-x="815" /><glyph d="M182 150V355H486V220H496V355H712V365H496V499H486V365H182V570H172V150Z" glyph-name="Tbar" horiz-adv-x="855" unicode="&#358;" /><glyph d="M126 240H137L164 323C167 335 170 344 170 359C170 374 167 383 164 395L137 478H126L154 391C157 381 160 372 160 359C160 346 157 337 154 327ZM874 355V365H384V570H374V150H384V355Z" glyph-name="Tcaron" horiz-adv-x="1019" unicode="&#356;" /><glyph d="M590 355V365H180V570H170V150H180V355ZM784 294H794V416H871C918 416 942 390 942 348V294H952V348C952 396 925 426 871 426H784Z" glyph-name="Tcommaaccent" horiz-adv-x="1002" unicode="&#354;" /><glyph d="M695 169V179H595V410C595 536 540 560 462 560H390C312 560 257 536 257 410V179H155V169ZM585 179H267V410C267 528 318 550 390 550H462C534 550 585 528 585 410Z" glyph-name="Thorn" horiz-adv-x="850" unicode="&#222;" /><glyph d="M165 163H582C663 163 717 203 717 350C717 503 663 546 582 546H165V536H582C657 536 707 495 707 350C707 211 657 173 582 173H165Z" glyph-name="U" horiz-adv-x="859" unicode="U" /><glyph d="M157 170H534C615 170 669 210 669 357C669 510 615 553 534 553H157V543H534C609 543 659 502 659 357C659 218 609 180 534 180H157Z" glyph-name="U.s" horiz-adv-x="819" /><glyph d="M141 260H151L121 499H111ZM358 170H735C816 170 870 210 870 357C870 510 816 553 735 553H358V543H735C810 543 860 502 860 357C860 218 810 180 735 180H358Z" glyph-name="Uacute" horiz-adv-x="1020" unicode="&#218;" /><glyph d="M97 494H106C142 494 176 467 176 359C176 251 142 229 106 229H97V219H106C144 219 186 235 186 359C186 483 144 504 106 504H97ZM374 170H751C832 170 886 210 886 357C886 510 832 553 751 553H374V543H751C826 543 876 502 876 357C876 218 826 180 751 180H374Z" glyph-name="Ubreve" horiz-adv-x="1036" unicode="&#364;" /><glyph d="M144 478H133L106 395C103 383 100 374 100 359C100 344 103 335 106 323L133 240H144L116 327C113 337 110 346 110 359C110 372 113 381 116 391ZM364 170H741C822 170 876 210 876 357C876 510 822 553 741 553H364V543H741C816 543 866 502 866 357C866 218 816 180 741 180H364Z" glyph-name="Ucircumflex" horiz-adv-x="1026" unicode="&#219;" /><glyph d="M159 492H112V482H159ZM159 234H112V224H159ZM359 170H736C817 170 871 210 871 357C871 510 817 553 736 553H359V543H736C811 543 861 502 861 357C861 218 811 180 736 180H359Z" glyph-name="Udieresis" horiz-adv-x="1021" unicode="&#220;" /><glyph d="M121 240 151 479H141L111 240ZM358 170H735C816 170 870 210 870 357C870 510 816 553 735 553H358V543H735C810 543 860 502 860 357C860 218 810 180 735 180H358Z" glyph-name="Ugrave" horiz-adv-x="1020" unicode="&#217;" /><glyph d="M224 512 127 537V526L224 501ZM224 252 127 277V266L224 241ZM444 170H821C902 170 956 210 956 357C956 510 902 553 821 553H444V543H821C896 543 946 502 946 357C946 218 896 180 821 180H444Z" glyph-name="Uhungarumlaut" horiz-adv-x="1106" unicode="&#368;" /><glyph d="M120 240H130V479H120ZM337 170H714C795 170 849 210 849 357C849 510 795 553 714 553H337V543H714C789 543 839 502 839 357C839 218 789 180 714 180H337Z" glyph-name="Umacron" horiz-adv-x="999" unicode="&#362;" /><glyph d="M157 170H534C615 170 669 210 669 357C669 510 615 553 534 553H157V543H534C609 543 659 502 659 357C659 218 609 180 534 180H157ZM874 410H864V386C864 345 841 340 801 345L716 357C687 361 682 365 668 390L660 384C676 356 684 352 716 347L799 335C849 327 874 337 874 386Z" glyph-name="Uogonek" horiz-adv-x="961" unicode="&#370;" /><glyph d="M235 219C295 219 335 241 335 360C335 479 295 503 235 503H180C121 503 79 479 79 360C79 241 120 219 180 219ZM89 360C89 467 125 493 180 493H235C291 493 325 467 325 360C325 253 291 229 235 229H180C124 229 89 253 89 360ZM525 170H902C983 170 1037 210 1037 357C1037 510 983 553 902 553H525V543H902C977 543 1027 502 1027 357C1027 218 977 180 902 180H525Z" glyph-name="Uring" horiz-adv-x="1187" unicode="&#366;" /><glyph d="M137 478C140 451 137 427 129 376L127 360L123 332C117 287 115 263 118 240H129C125 262 126 286 133 330L137 358L139 374C147 425 150 451 147 478ZM348 170H725C806 170 860 210 860 357C860 510 806 553 725 553H348V543H725C800 543 850 502 850 357C850 218 800 180 725 180H348Z" glyph-name="Utilde" horiz-adv-x="1010" unicode="&#360;" /><glyph d="M370 164C407 164 438 170 467 181L630 250C669 266 697 278 697 322V399C697 445 668 457 631 472L467 536C438 547 407 553 370 553H157V543H370C406 543 436 537 463 527L627 463C661 450 687 439 687 399V322C687 285 661 274 626 259L463 190C436 180 406 174 370 174H157V164Z" glyph-name="V" horiz-adv-x="849" unicode="V" /><glyph d="M442 379V354C442 333 450 319 489 305L673 240C687 235 687 223 687 213V208C687 197 677 187 666 185L552 160C527 155 481 155 451 155H157V145H452C482 145 528 144 553 150L666 175C688 180 697 192 697 208V215C697 227 694 243 680 248L494 313C456 326 452 338 452 354V379C452 395 456 407 494 420L680 482C694 487 697 503 697 515V522C697 538 688 550 666 555L553 580C528 586 482 585 452 585H157V575H451C481 575 527 575 552 570L666 545C677 543 687 533 687 522V517C687 507 687 495 673 490L489 428C450 415 442 400 442 379Z" glyph-name="W" horiz-adv-x="854" unicode="W" /><glyph d="M402 379V354C402 333 410 319 449 305L633 240C647 235 647 223 647 213V208C647 197 637 187 626 185L512 160C487 155 441 155 411 155H157V145H412C442 145 488 144 513 150L626 175C648 180 657 192 657 208V215C657 227 654 243 640 248L454 313C416 326 412 338 412 354V379C412 395 416 407 454 420L640 482C654 487 657 503 657 515V522C657 538 648 550 626 555L513 580C488 586 442 585 412 585H157V575H411C441 575 487 575 512 570L626 545C637 543 647 533 647 522V517C647 507 647 495 633 490L449 428C410 415 402 400 402 379Z" glyph-name="W.s" horiz-adv-x="814" /><glyph d="M587 101C668 101 722 132 722 234C722 315 688 349 633 360C688 371 722 406 722 487C722 589 668 618 587 618H170V608H587C662 608 712 581 712 487C712 392 662 365 587 365H170V355H587C662 355 712 328 712 234C712 140 662 111 587 111H170V101Z" glyph-name="W.salt" horiz-adv-x="882" /><glyph d="M547 101C628 101 682 132 682 234C682 315 648 349 593 360C648 371 682 406 682 487C682 589 628 618 547 618H170V608H547C622 608 672 581 672 487C672 392 622 365 547 365H170V355H547C622 355 672 328 672 234C672 140 622 111 547 111H170V101Z" glyph-name="W.salt_s" horiz-adv-x="842" /><glyph d="M141 250H151L121 489H111ZM603 379V354C603 333 611 319 650 305L834 240C848 235 848 223 848 213V208C848 197 838 187 827 185L713 160C688 155 642 155 612 155H358V145H613C643 145 689 144 714 150L827 175C849 180 858 192 858 208V215C858 227 855 243 841 248L655 313C617 326 613 338 613 354V379C613 395 617 407 655 420L841 482C855 487 858 503 858 515V522C858 538 849 550 827 555L714 580C689 586 643 585 613 585H358V575H612C642 575 688 575 713 570L827 545C838 543 848 533 848 522V517C848 507 848 495 834 490L650 428C611 415 603 400 603 379Z" glyph-name="Wacute" horiz-adv-x="1015" unicode="&#7810;" /><glyph d="M141 240H151L121 479H111ZM735 101C816 101 870 132 870 234C870 315 836 349 781 360C836 371 870 406 870 487C870 589 816 618 735 618H358V608H735C810 608 860 581 860 487C860 392 810 365 735 365H358V355H735C810 355 860 328 860 234C860 140 810 111 735 111H358V101Z" glyph-name="Wacute.salt" horiz-adv-x="1030" /><glyph d="M144 478H133L106 395C103 383 100 374 100 359C100 344 103 335 106 323L133 240H144L116 327C113 337 110 346 110 359C110 372 113 381 116 391ZM609 379V354C609 333 617 319 656 305L840 240C854 235 854 223 854 213V208C854 197 844 187 833 185L719 160C694 155 648 155 618 155H364V145H619C649 145 695 144 720 150L833 175C855 180 864 192 864 208V215C864 227 861 243 847 248L661 313C623 326 619 338 619 354V379C619 395 623 407 661 420L847 482C861 487 864 503 864 515V522C864 538 855 550 833 555L720 580C695 586 649 585 619 585H364V575H618C648 575 694 575 719 570L833 545C844 543 854 533 854 522V517C854 507 854 495 840 490L656 428C617 415 609 400 609 379Z" glyph-name="Wcircumflex" horiz-adv-x="1021" unicode="&#372;" /><glyph d="M144 478H133L106 395C103 383 100 374 100 359C100 344 103 335 106 323L133 240H144L116 327C113 337 110 346 110 359C110 372 113 381 116 391ZM741 101C822 101 876 132 876 234C876 315 842 349 787 360C842 371 876 406 876 487C876 589 822 618 741 618H364V608H741C816 608 866 581 866 487C866 392 816 365 741 365H364V355H741C816 355 866 328 866 234C866 140 816 111 741 111H364V101Z" glyph-name="Wcircumflex.salt" horiz-adv-x="1036" /><glyph d="M159 502H112V492H159ZM159 244H112V234H159ZM604 379V354C604 333 612 319 651 305L835 240C849 235 849 223 849 213V208C849 197 839 187 828 185L714 160C689 155 643 155 613 155H359V145H614C644 145 690 144 715 150L828 175C850 180 859 192 859 208V215C859 227 856 243 842 248L656 313C618 326 614 338 614 354V379C614 395 618 407 656 420L842 482C856 487 859 503 859 515V522C859 538 850 550 828 555L715 580C690 586 644 585 614 585H359V575H613C643 575 689 575 714 570L828 545C839 543 849 533 849 522V517C849 507 849 495 835 490L651 428C612 415 604 400 604 379Z" glyph-name="Wdieresis" horiz-adv-x="1016" unicode="&#7812;" /><glyph d="M159 492H112V482H159ZM159 234H112V224H159ZM736 101C817 101 871 132 871 234C871 315 837 349 782 360C837 371 871 406 871 487C871 589 817 618 736 618H359V608H736C811 608 861 581 861 487C861 392 811 365 736 365H359V355H736C811 355 861 328 861 234C861 140 811 111 736 111H359V101Z" glyph-name="Wdieresis.salt" horiz-adv-x="1031" /><glyph d="M121 240 151 479H141L111 240ZM603 379V354C603 333 611 319 650 305L834 240C848 235 848 223 848 213V208C848 197 838 187 827 185L713 160C688 155 642 155 612 155H358V145H613C643 145 689 144 714 150L827 175C849 180 858 192 858 208V215C858 227 855 243 841 248L655 313C617 326 613 338 613 354V379C613 395 617 407 655 420L841 482C855 487 858 503 858 515V522C858 538 849 550 827 555L714 580C689 586 643 585 613 585H358V575H612C642 575 688 575 713 570L827 545C838 543 848 533 848 522V517C848 507 848 495 834 490L650 428C611 415 603 400 603 379Z" glyph-name="Wgrave" horiz-adv-x="1015" unicode="&#7808;" /><glyph d="M121 240 151 479H141L111 240ZM735 101C816 101 870 132 870 234C870 315 836 349 781 360C836 371 870 406 870 487C870 589 816 618 735 618H358V608H735C810 608 860 581 860 487C860 392 810 365 735 365H358V355H735C810 355 860 328 860 234C860 140 810 111 735 111H358V101Z" glyph-name="Wgrave.salt" horiz-adv-x="1030" /><glyph d="M249 182 379 270C397 282 407 294 412 306C417 292 427 281 445 269L575 182C597 167 623 167 652 167H697V177H652C624 177 598 178 579 191L449 278C426 294 417 311 417 331V392C417 411 426 430 449 445L579 529C598 541 624 544 652 544H697V554H652C623 554 596 552 575 538L445 454C427 442 417 431 412 417C407 431 396 442 379 454L249 539C227 554 201 554 172 554H157V544H172C200 544 226 543 245 530L375 445C398 430 407 412 407 392V331C407 313 399 295 375 279L245 191C226 178 200 177 172 177H157V167H172C201 167 228 168 249 182Z" glyph-name="X" horiz-adv-x="854" unicode="X" /><glyph d="M531 161H697V171H531C467 171 433 201 433 262V460C433 521 467 551 531 551H697V561H531C460 561 423 528 423 460V455L157 530V520L423 445V277L157 202V192L423 267V262C423 194 460 161 531 161Z" glyph-name="X.salt" horiz-adv-x="854" /><glyph d="M157 167H272C301 167 328 168 349 182L479 269C510 290 521 313 521 342V355H697V365H521V376C521 407 509 429 479 450L349 540C328 554 301 555 272 555H157V545H272C300 545 326 544 345 531L475 441C502 423 511 401 511 376V342C511 319 502 296 475 278L345 191C325 178 300 177 272 177H157Z" glyph-name="Y" horiz-adv-x="842" unicode="Y" /><glyph d="M157 167H243C286 167 302 170 320 182L451 269C481 289 493 309 493 342V355H657V365H493V376C493 409 481 429 451 450L320 540C302 552 286 555 243 555H157V545H243C285 545 300 542 316 531L447 441C473 423 483 405 483 376V342C483 313 473 295 447 278L316 191C299 180 284 177 243 177H157Z" glyph-name="Y.s" horiz-adv-x="802" /><glyph d="M697 355V365H495C495 510 441 552 360 552H157V542H360C435 542 485 502 485 360C485 218 435 179 360 179H157V169H360C440 169 494 209 495 355Z" glyph-name="Y.salt" horiz-adv-x="842" /><glyph d="M656 355V365H474C474 510 420 552 339 552H156V542H339C414 542 464 502 464 360C464 218 414 179 339 179H156V169H339C419 169 473 209 474 355Z" glyph-name="Y.salt_s" horiz-adv-x="801" /><glyph d="M141 260H151L121 499H111ZM358 167H444C487 167 503 170 521 182L652 269C682 289 694 309 694 342V355H858V365H694V376C694 409 682 429 652 450L521 540C503 552 487 555 444 555H358V545H444C486 545 501 542 517 531L648 441C674 423 684 405 684 376V342C684 313 674 295 648 278L517 191C500 180 485 177 444 177H358Z" glyph-name="Yacute" horiz-adv-x="1003" unicode="&#221;" /><glyph d="M141 240H151L121 479H111ZM858 355V365H676C676 510 622 552 541 552H358V542H541C616 542 666 502 666 360C666 218 616 179 541 179H358V169H541C621 169 675 209 676 355Z" glyph-name="Yacute.salt" horiz-adv-x="1003" /><glyph d="M364 167H450C493 167 509 170 527 182L658 269C688 289 700 309 700 342V355H864V365H700V376C700 409 688 429 658 450L527 540C509 552 493 555 450 555H364V545H450C492 545 507 542 523 531L654 441C680 423 690 405 690 376V342C690 313 680 295 654 278L523 191C506 180 491 177 450 177H364ZM144 478H133L106 395C103 383 100 374 100 359C100 344 103 335 106 323L133 240H144L116 327C113 337 110 346 110 359C110 372 113 381 116 391Z" glyph-name="Ycircumflex" horiz-adv-x="1009" unicode="&#374;" /><glyph d="M144 478H133L106 395C103 383 100 374 100 359C100 344 103 335 106 323L133 240H144L116 327C113 337 110 346 110 359C110 372 113 381 116 391ZM864 355V365H682C682 510 628 552 547 552H364V542H547C622 542 672 502 672 360C672 218 622 179 547 179H364V169H547C627 169 681 209 682 355Z" glyph-name="Ycircumflex.salt" horiz-adv-x="1009" /><glyph d="M159 497H112V487H159ZM159 239H112V229H159ZM359 167H445C488 167 504 170 522 182L653 269C683 289 695 309 695 342V355H859V365H695V376C695 409 683 429 653 450L522 540C504 552 488 555 445 555H359V545H445C487 545 502 542 518 531L649 441C675 423 685 405 685 376V342C685 313 675 295 649 278L518 191C501 180 486 177 445 177H359Z" glyph-name="Ydieresis" horiz-adv-x="1004" unicode="&#376;" /><glyph d="M159 492H112V482H159ZM159 234H112V224H159ZM859 355V365H677C677 510 623 552 542 552H359V542H542C617 542 667 502 667 360C667 218 617 179 542 179H359V169H542C622 169 676 209 677 355Z" glyph-name="Ydieresis.salt" horiz-adv-x="1004" /><glyph d="M121 240 151 479H141L111 240ZM358 167H444C487 167 503 170 521 182L652 269C682 289 694 309 694 342V355H858V365H694V376C694 409 682 429 652 450L521 540C503 552 487 555 444 555H358V545H444C486 545 501 542 517 531L648 441C674 423 684 405 684 376V342C684 313 674 295 648 278L517 191C500 180 485 177 444 177H358Z" glyph-name="Ygrave" horiz-adv-x="1003" unicode="&#7922;" /><glyph d="M121 240 151 479H141L111 240ZM858 355V365H676C676 510 622 552 541 552H358V542H541C616 542 666 502 666 360C666 218 616 179 541 179H358V169H541C621 169 675 209 676 355Z" glyph-name="Ygrave.salt" horiz-adv-x="1003" /><glyph d="M256 545C245 556 234 562 219 562H203C180 562 170 553 170 531V158H180V531C180 542 184 552 203 552H217C230 552 237 549 248 538L624 167C636 157 646 150 661 150H677C700 150 710 159 710 181V570H700V181C700 170 696 160 677 160H663C650 160 644 164 632 174Z" glyph-name="Z" horiz-adv-x="880" unicode="Z" /><glyph d="M256 545C246 557 234 562 219 562H203C180 562 170 553 170 531V158H180V531C180 542 184 552 203 552H217C230 552 238 550 248 538L584 167C596 157 606 150 621 150H637C660 150 670 159 670 181V570H660V181C660 170 656 160 637 160H623C610 160 604 164 592 174Z" glyph-name="Z.s" horiz-adv-x="840" /><glyph d="M141 260H151L121 499H111ZM444 545C434 557 422 562 407 562H391C368 562 358 553 358 531V158H368V531C368 542 372 552 391 552H405C418 552 426 550 436 538L772 167C784 157 794 150 809 150H825C848 150 858 159 858 181V570H848V181C848 170 844 160 825 160H811C798 160 792 164 780 174Z" glyph-name="Zacute" horiz-adv-x="1028" unicode="&#377;" /><glyph d="M126 245H137L164 328C167 340 170 349 170 364C170 379 167 388 164 400L137 483H126L154 396C157 386 160 377 160 364C160 351 157 342 154 332ZM460 545C450 557 438 562 423 562H407C384 562 374 553 374 531V158H384V531C384 542 388 552 407 552H421C434 552 442 550 452 538L788 167C800 157 810 150 825 150H841C864 150 874 159 874 181V570H864V181C864 170 860 160 841 160H827C814 160 808 164 796 174Z" glyph-name="Zcaron" horiz-adv-x="1044" unicode="&#381;" /><glyph d="M146 366H87V356H146ZM432 545C422 557 410 562 395 562H379C356 562 346 553 346 531V158H356V531C356 542 360 552 379 552H393C406 552 414 550 424 538L760 167C772 157 782 150 797 150H813C836 150 846 159 846 181V570H836V181C836 170 832 160 813 160H799C786 160 780 164 768 174Z" glyph-name="Zdotaccent" horiz-adv-x="1016" unicode="&#379;" /><glyph d="M692 164V174H520V543H692V553H479C442 553 411 547 382 536L219 467C180 451 152 439 152 395V318C152 272 181 260 218 245L382 181C411 170 442 164 479 164ZM479 174C443 174 413 180 386 190L222 254C188 267 162 278 162 318V395C162 432 188 443 223 458L386 527C413 537 443 543 479 543H510V174Z" glyph-name="a" horiz-adv-x="849" unicode="a" /><glyph d="M858 164V174H706V543H858V553H665C628 553 598 548 568 536L425 477C387 461 358 439 358 395V318C358 272 387 249 424 235L568 181C597 170 628 164 665 164ZM665 174C629 174 599 180 572 190L428 244C394 257 368 278 368 318V395C368 432 394 453 429 468L572 527C599 537 629 543 665 543H696V174ZM141 240H151L121 479H111Z" glyph-name="aacute" horiz-adv-x="1015" unicode="&#225;" /><glyph d="M97 494H106C142 494 176 467 176 359C176 251 142 229 106 229H97V219H106C144 219 186 235 186 359C186 483 144 504 106 504H97ZM874 164V174H722V543H874V553H681C644 553 614 548 584 536L441 477C403 461 374 439 374 395V318C374 272 403 249 440 235L584 181C613 170 644 164 681 164ZM681 174C645 174 615 180 588 190L444 244C410 257 384 278 384 318V395C384 432 410 453 445 468L588 527C615 537 645 543 681 543H712V174Z" glyph-name="abreve" horiz-adv-x="1031" unicode="&#259;" /><glyph d="M864 164V174H712V543H864V553H671C634 553 604 548 574 536L431 477C393 461 364 439 364 395V318C364 272 393 249 430 235L574 181C603 170 634 164 671 164ZM671 174C635 174 605 180 578 190L434 244C400 257 374 278 374 318V395C374 432 400 453 435 468L578 527C605 537 635 543 671 543H702V174ZM144 478H133L106 395C103 383 100 374 100 359C100 344 103 335 106 323L133 240H144L116 327C113 337 110 346 110 359C110 372 113 381 116 391Z" glyph-name="acircumflex" horiz-adv-x="1021" unicode="&#226;" /><glyph d="M141 240H151L121 479H111Z" glyph-name="acute" horiz-adv-x="262" unicode="&#180;" /><glyph d="M159 492H112V482H159ZM159 234H112V224H159ZM859 164V174H707V543H859V553H666C629 553 599 548 569 536L426 477C388 461 359 439 359 395V318C359 272 388 249 425 235L569 181C598 170 629 164 666 164ZM666 174C630 174 600 180 573 190L429 244C395 257 369 278 369 318V395C369 432 395 453 430 468L573 527C600 537 630 543 666 543H697V174Z" glyph-name="adieresis" horiz-adv-x="1016" unicode="&#228;" /><glyph d="M501 126H702V136H529V426H702V581H692V436H432V580H422V436H172V581H162V272C162 248 171 235 206 221L409 137C436 126 462 126 501 126ZM501 136C464 136 439 136 413 147L210 231C182 243 172 252 172 272V426H519V136Z" glyph-name="ae" horiz-adv-x="872" unicode="&#230;" /><glyph d="M121 240 151 479H141L111 240ZM858 164V174H706V543H858V553H665C628 553 598 548 568 536L425 477C387 461 358 439 358 395V318C358 272 387 249 424 235L568 181C597 170 628 164 665 164ZM665 174C629 174 599 180 572 190L428 244C394 257 368 278 368 318V395C368 432 394 453 429 468L572 527C599 537 629 543 665 543H696V174Z" glyph-name="agrave" horiz-adv-x="1015" unicode="&#224;" /><glyph d="M120 240H130V479H120ZM837 164V174H685V543H837V553H644C607 553 577 548 547 536L404 477C366 461 337 439 337 395V318C337 272 366 249 403 235L547 181C576 170 607 164 644 164ZM644 174C608 174 578 180 551 190L407 244C373 257 347 278 347 318V395C347 432 373 453 408 468L551 527C578 537 608 543 644 543H675V174Z" glyph-name="amacron" horiz-adv-x="994" unicode="&#257;" /><glyph d="M513 150H574C648 150 682 188 682 267V473C682 532 653 566 591 566H466V631H456V556H591C645 556 672 526 672 473V273C672 194 642 160 574 160H513C453 160 409 196 409 272V339H399V329C399 266 368 237 303 237H254C182 237 152 270 152 345V430H142V345C142 264 174 227 252 227H303C355 227 386 244 400 279V272C400 189 447 150 513 150Z" glyph-name="ampersand" horiz-adv-x="834" unicode="&amp;" /><glyph d="M234 404H144V394H234V359C234 248 282 228 340 228H404C442 228 479 234 496 284C498 180 546 162 610 162H674C733 162 774 181 774 293V394H864V404H774V571H764V293C764 193 729 172 674 172H605C548 172 505 194 505 292V490H495V349C495 248 452 238 404 238H336C284 238 244 261 244 359V571H234Z" glyph-name="ampersand.salt" horiz-adv-x="1009" /><glyph d="M652 164V174H500V543H652V553H459C422 553 392 548 362 536L219 477C181 461 152 439 152 395V318C152 272 181 249 218 235L362 181C391 170 422 164 459 164ZM459 174C423 174 393 180 366 190L222 244C188 257 162 278 162 318V395C162 432 188 453 223 468L366 527C393 537 423 543 459 543H490V174ZM858 571H848V547C848 506 825 501 785 506L700 518C671 522 666 526 652 551L644 545C660 517 668 513 700 508L783 496C833 488 858 498 858 547Z" glyph-name="aogonek" horiz-adv-x="945" unicode="&#261;" /><glyph d="M177 153C164 202 162 233 175 319L180 359L183 382C196 472 204 506 188 567H177C194 506 187 474 173 384L170 361L165 321C152 234 153 201 166 153ZM467 153C454 202 452 233 465 319L470 359L473 382C486 472 494 506 478 567H467C484 506 477 474 463 384L460 361L455 321C442 234 443 201 456 153Z" glyph-name="approxequal" horiz-adv-x="641" unicode="&#8776;" /><glyph d="M854 164V174H682V543H854V553H641C604 553 572 549 544 536L401 467C364 449 334 439 334 395V318C334 272 364 261 400 245L544 181C573 170 604 164 641 164ZM641 174C605 174 575 180 548 190L404 254C370 267 344 278 344 318V395C344 432 370 443 405 458L548 527C575 537 605 543 641 543H672V174ZM213 218C273 218 313 240 313 359C313 478 273 502 213 502H174C115 502 73 478 73 359C73 240 114 218 174 218ZM83 359C83 466 119 492 174 492H213C269 492 303 466 303 359C303 252 269 228 213 228H174C118 228 83 252 83 359Z" glyph-name="aring" horiz-adv-x="1011" unicode="&#229;" /><glyph d="M485 223 689 361 485 498V366H269V356H485ZM495 241V480L671 361Z" glyph-name="arrowdown" horiz-adv-x="1000" unicode="&#8595;" /><glyph d="M-185 -165H607V-320C607 -334 613 -339 625 -339C634 -339 644 -334 651 -325L1168 309C1183 327 1191 341 1191 356C1191 371 1183 385 1168 403L652 1029C640 1042 632 1049 622 1049C613 1049 607 1046 607 1026V875H-188L19 355ZM-172 -155 30 355 -173 865H617V1026C617 1033 617 1039 622 1039C630 1039 636 1032 644 1023L1160 397C1173 381 1181 369 1181 356C1181 343 1173 331 1160 315L643 -319C638 -326 632 -329 625 -329C619 -329 617 -326 617 -320V-155Z" glyph-name="arrowdown.chevron" horiz-adv-x="1008" /><glyph d="M655 212 607 453 514 360 361 513 354 506 507 353 413 259ZM642 225 433 265 601 433Z" glyph-name="arrowdownleft" horiz-adv-x="1000" unicode="&#8601;" /><glyph d="M603 297 435 465 644 505ZM609 277 657 518 415 471 509 377 356 224 363 217 516 370Z" glyph-name="arrowdownright" horiz-adv-x="1000" unicode="&#8600;" /><glyph d="M502 165 640 369H507V585H497V369H365ZM621 359 502 182 383 359Z" glyph-name="arrowleft" horiz-adv-x="1001" unicode="&#8592;" /><glyph d="M1190 288C1190 298 1182 306 1172 306H1020V1008L500 802L-20 1008V306H-180C-190 306 -198 299 -198 290C-198 281 -192 271 -179 262L452 -255C470 -269 484 -278 499 -278C514 -278 528 -269 547 -254L1176 261C1186 269 1190 279 1190 288ZM1180 288C1180 281 1176 275 1170 269L541 -246C524 -259 512 -268 499 -268C486 -268 474 -259 458 -247L-173 270C-182 277 -188 283 -188 290C-188 293 -184 296 -180 296H-10V993L500 791L1010 993V296H1172C1176 296 1180 292 1180 288Z" glyph-name="arrowleft.chevron" horiz-adv-x="992" /><glyph d="M497 135H507V351H640L502 555L365 351H497ZM621 361H383L502 537Z" glyph-name="arrowright" horiz-adv-x="1001" unicode="&#8594;" /><glyph d="M1190 432C1190 441 1186 451 1176 459L547 974C528 989 514 998 499 998C484 998 470 989 452 975L-179 458C-192 449 -198 439 -198 430C-198 421 -190 414 -180 414H-20V-288L500 -82L1020 -288V414H1172C1182 414 1190 422 1190 432ZM1180 432C1180 428 1176 424 1172 424H1010V-273L500 -71L-10 -273V424H-180C-184 424 -188 427 -188 430C-188 437 -182 443 -173 450L458 967C474 979 486 988 499 988C512 988 524 979 541 966L1170 451C1176 445 1180 439 1180 432Z" glyph-name="arrowright.chevron" horiz-adv-x="992" /><glyph d="M515 223V355H731V365H515V498L311 360ZM505 241 329 360 505 480Z" glyph-name="arrowup" horiz-adv-x="1000" unicode="&#8593;" /><glyph d="M1196 880H404V1035C404 1049 398 1054 386 1054C377 1054 367 1049 360 1040L-157 406C-172 388 -180 374 -180 359C-180 344 -172 330 -157 312L359 -314C371 -327 379 -334 389 -334C398 -334 404 -331 404 -311V-160H1199L992 360ZM1183 870 981 360 1184 -150H394V-311C394 -318 394 -324 389 -324C381 -324 375 -317 367 -308L-149 318C-162 334 -170 346 -170 359C-170 372 -162 384 -149 400L368 1034C373 1041 379 1044 386 1044C392 1044 394 1041 394 1035V870Z" glyph-name="arrowup.chevron" horiz-adv-x="1014" /><glyph d="M343 203 585 250 491 344 644 497 637 504 484 351 391 444ZM356 216 397 424 565 256Z" glyph-name="arrowupleft" horiz-adv-x="1000" unicode="&#8598;" /><glyph d="M637 217 644 224 491 377 585 471 343 518 391 277 484 370ZM397 297 356 505 565 465Z" glyph-name="arrowupright" horiz-adv-x="1000" unicode="&#8599;" /><glyph d="M516 533 213 446C178 436 151 426 151 379V306C151 259 177 249 214 239L516 153V164L216 249C185 258 161 265 161 306V379C161 420 186 428 215 436L516 522Z" glyph-name="asciicircum" horiz-adv-x="686" unicode="^" /><glyph d="M183 153C170 202 168 233 181 319L186 359L189 382C202 472 210 506 194 567H183C200 506 193 474 179 384L176 361L171 321C158 234 159 201 172 153Z" glyph-name="asciitilde" horiz-adv-x="363" unicode="~" /><glyph d="M526 246 532 254 377 363 532 472 526 480 374 374 318 546 308 542 365 368H170V358H365L308 184L318 180L374 352Z" glyph-name="asterisk" horiz-adv-x="742" unicode="*" /><glyph d="M305 31H723C827 31 923 67 923 360V534H913V360C913 81 823 41 723 41H305C204 41 115 82 115 360C115 638 204 678 305 678H571C663 678 703 649 703 571V495H346V351C346 221 398 220 451 220H612C684 220 713 244 713 309V571C713 655 671 688 571 688H305C200 688 105 652 105 360C105 68 200 31 305 31ZM612 230H451C402 230 356 233 356 351V485H703V309C703 250 676 230 612 230Z" glyph-name="at" horiz-adv-x="1026" unicode="@" /><glyph d="M848 164V174H696V543H848V553H655C618 553 588 548 558 536L415 477C377 461 348 439 348 395V318C348 272 377 249 414 235L558 181C587 170 618 164 655 164ZM655 174C619 174 589 180 562 190L418 244C384 257 358 278 358 318V395C358 432 384 453 419 468L562 527C589 537 619 543 655 543H686V174ZM137 478C140 451 137 427 129 376L127 360L123 332C117 287 115 263 118 240H129C125 262 126 286 133 330L137 358L139 374C147 425 150 451 147 478Z" glyph-name="atilde" horiz-adv-x="1005" unicode="&#227;" /><glyph d="M430 431C430 532 475 551 535 551H599C654 551 689 530 689 430V180H430ZM699 170V430C699 542 658 561 599 561H535C469 561 420 542 420 431C405 488 369 495 329 495H265C207 495 159 475 159 364V170ZM169 364C169 465 211 485 265 485H329C377 485 420 474 420 364V180H169Z" glyph-name="b" horiz-adv-x="861" unicode="b" /><glyph d="M95 313V303L815 407V417Z" glyph-name="backslash" horiz-adv-x="909" unicode="\" /><glyph d="M155 355H875V365H155Z" glyph-name="bar" horiz-adv-x="1030" unicode="|" /><glyph d="M-20 880V-160H1020V880ZM1010 870V-150H-10V870Z" glyph-name="block" horiz-adv-x="1000" unicode="&#9608;" /><glyph d="M320 12V22C241 22 203 55 203 125V284C157 289 139 308 139 345V373C139 410 156 429 203 434V596C203 675 240 699 320 699V709C232 709 193 681 193 596V442C153 436 129 416 129 373V345C129 303 153 282 193 276V125C193 49 233 12 320 12Z" glyph-name="braceleft" horiz-adv-x="455" unicode="{" /><glyph d="M262 125V276C302 282 326 303 326 345V373C326 416 302 436 262 442V596C262 681 223 709 135 709V699C215 699 252 675 252 596V434C299 429 316 410 316 373V345C316 308 298 289 252 284V125C252 55 214 22 135 22V12C222 12 262 49 262 125Z" glyph-name="braceright" horiz-adv-x="455" unicode="}" /><glyph d="M157 709V12H294V22H167V699H294V709Z" glyph-name="bracketleft" horiz-adv-x="429" unicode="[" /><glyph d="M272 709H135V699H262V22H135V12H272Z" glyph-name="bracketright" horiz-adv-x="429" unicode="]" /><glyph d="M97 494H106C142 494 176 467 176 359C176 251 142 229 106 229H97V219H106C144 219 186 235 186 359C186 483 144 504 106 504H97Z" glyph-name="breve" horiz-adv-x="267" unicode="&#728;" /><glyph d="M155 355H385V365H155ZM645 355H875V365H645Z" glyph-name="brokenbar" horiz-adv-x="1030" unicode="&#166;" /><glyph d="M170 446V273H344V446ZM180 436H334V283H180Z" glyph-name="bullet" horiz-adv-x="514" unicode="&#8226;" /><glyph d="M692 561V325C692 205 660 175 573 175H293C204 175 172 207 172 325V561H162V325C162 197 198 165 293 165H573C666 165 702 195 702 325V561Z" glyph-name="c" horiz-adv-x="864" unicode="c" /><glyph d="M141 250H151L121 489H111ZM848 561V325C848 205 816 175 729 175H489C400 175 368 207 368 325V561H358V325C358 197 394 165 489 165H729C822 165 858 195 858 325V561Z" glyph-name="cacute" horiz-adv-x="1020" unicode="&#263;" /><glyph d="M126 240H137L164 323C167 335 170 344 170 359C170 374 167 383 164 395L137 478H126L154 391C157 381 160 372 160 359C160 346 157 337 154 327Z" glyph-name="caron" horiz-adv-x="269" unicode="&#711;" /><glyph d="M210 343 117 361V350L210 332Z" glyph-name="caron.2" horiz-adv-x="322" /><glyph d="M126 250H137L164 333C167 345 170 354 170 369C170 384 167 393 164 405L137 488H126L154 401C157 391 160 382 160 369C160 356 157 347 154 337ZM864 561V325C864 205 832 175 745 175H505C416 175 384 207 384 325V561H374V325C374 197 410 165 505 165H745C838 165 874 195 874 325V561Z" glyph-name="ccaron" horiz-adv-x="1036" unicode="&#269;" /><glyph d="M652 561V325C652 205 620 175 533 175H293C204 175 172 207 172 325V561H162V325C162 197 198 165 293 165H533C626 165 662 195 662 325V561ZM655 401 788 353V363L656 411Z" glyph-name="ccedilla" horiz-adv-x="905" unicode="&#231;" /><glyph d="M144 488H133L106 405C103 393 100 384 100 369C100 354 103 345 106 333L133 250H144L116 337C113 347 110 356 110 369C110 382 113 391 116 401ZM854 561V325C854 205 822 175 735 175H495C406 175 374 207 374 325V561H364V325C364 197 400 165 495 165H735C828 165 864 195 864 325V561Z" glyph-name="ccircumflex" horiz-adv-x="1026" unicode="&#265;" /><glyph d="M146 376H87V366H146ZM836 561V325C836 205 804 175 717 175H477C388 175 356 207 356 325V561H346V325C346 197 382 165 477 165H717C810 165 846 195 846 325V561Z" glyph-name="cdotaccent" horiz-adv-x="1008" unicode="&#267;" /><glyph d="M51 381 184 333V343L52 391Z" glyph-name="cedilla" horiz-adv-x="301" unicode="&#184;" /><glyph d="M237 414H145V404H237V372C237 244 273 212 368 212H565C658 212 694 242 694 372V404H785V414H694V539H684V372C684 252 652 222 565 222H368C279 222 247 254 247 372V539H237Z" glyph-name="cent" horiz-adv-x="930" unicode="&#162;" /><glyph d="M144 478H133L106 395C103 383 100 374 100 359C100 344 103 335 106 323L133 240H144L116 327C113 337 110 346 110 359C110 372 113 381 116 391Z" glyph-name="circumflex" horiz-adv-x="269" unicode="&#710;" /><glyph d="M260 354V364H165V354ZM615 354V364H520V354Z" glyph-name="colon" horiz-adv-x="784" unicode=":" /><glyph d="M177 427V293H187V417H296C350 417 377 387 377 339V293H387V339C387 393 357 427 296 427Z" glyph-name="comma" horiz-adv-x="499" unicode="," /><glyph d="M91 295H101V417H178C225 417 249 391 249 349V295H259V349C259 397 232 427 178 427H91Z" glyph-name="commaaccent" horiz-adv-x="309" unicode="&#806;" /><glyph d="M305 688C201 688 105 659 105 360C105 61 201 31 305 31H723C836 31 921 79 921 360C921 641 826 688 723 688ZM911 360C911 95 832 41 723 41H305C205 41 115 75 115 360C115 645 205 678 305 678H723C822 678 911 625 911 360ZM700 477H690V356C690 272 667 249 606 249H405C343 249 320 273 320 356V477H311V356C311 266 336 239 405 239H606C674 239 700 264 700 356Z" glyph-name="copyright" horiz-adv-x="1025" unicode="&#169;" /><glyph d="M687 108 693 116 599 208C631 231 649 277 649 361C649 445 630 490 599 514L693 606L687 614L590 519C569 532 543 536 513 536H371C340 536 313 531 291 518L195 612L189 604L283 512C252 489 234 443 234 361C234 278 252 233 282 209L189 118L195 110L290 203C312 189 340 185 371 185H513C543 185 570 189 591 202ZM639 361C639 225 589 195 513 195H371C294 195 244 225 244 361C244 496 294 526 371 526H513C589 526 639 496 639 361Z" glyph-name="currency" horiz-adv-x="884" unicode="&#164;" /><glyph d="M162 169H702V397C702 535 643 557 566 557H301C224 557 162 533 162 397ZM172 397C172 523 228 547 301 547H566C639 547 692 525 692 397V179H172Z" glyph-name="d" horiz-adv-x="864" unicode="d" /><glyph d="M353 141H363V355H711V365H363V579H353V365H181V355H353Z" glyph-name="dagger" horiz-adv-x="880" unicode="&#8224;" /><glyph d="M272 141H282V355H602V141H612V355H712V365H612V579H602V365H282V579H272V365H182V355H272Z" glyph-name="daggerdbl" horiz-adv-x="884" unicode="&#8225;" /><glyph d="M374 169H874V397C874 535 815 557 738 557H513C436 557 374 533 374 397ZM384 397C384 523 440 547 513 547H738C811 547 864 525 864 397V179H384ZM126 240H137L164 323C167 335 170 344 170 359C170 374 167 383 164 395L137 478H126L154 391C157 381 160 372 160 359C160 346 157 337 154 327Z" glyph-name="dcaron" horiz-adv-x="1036" unicode="&#271;" /><glyph d="M441 91H451V167H710V392C710 530 651 552 574 552H309C232 552 170 528 170 392V167H441ZM451 271H441V177H180V392C180 518 236 542 309 542H574C647 542 700 520 700 392V177H451Z" glyph-name="dcroat" horiz-adv-x="880" unicode="&#273;" /><glyph d="M206 488C148 488 126 459 126 360C126 262 148 232 206 232H335C393 232 414 262 414 360C414 459 393 488 335 488ZM404 360C404 272 387 242 335 242H206C154 242 136 272 136 360C136 449 154 478 206 478H335C387 478 404 449 404 360Z" glyph-name="degree" horiz-adv-x="540" unicode="&#176;" /><glyph d="M159 492H112V482H159ZM159 234H112V224H159Z" glyph-name="dieresis" horiz-adv-x="271" unicode="&#168;" /><glyph d="M374 153V567H364V153ZM171 355V365H126V355ZM612 355V365H567V355Z" glyph-name="divide" horiz-adv-x="738" unicode="&#247;" /><glyph d="M766 180H776V361H865V371H776V429C776 497 734 540 675 540H617C547 540 527 511 519 471L476 260C470 229 456 209 409 209H327C280 209 246 245 246 301V523H236V371H145V361H236V301C236 239 274 199 327 199H409C464 199 479 223 486 258L529 469C537 506 554 530 617 530H675C728 530 766 491 766 429Z" glyph-name="dollar" horiz-adv-x="1010" unicode="$" /><glyph d="M146 366H87V356H146Z" glyph-name="dotaccent" horiz-adv-x="233" unicode="&#729;" /><glyph d="M700 159H710V561H700V365H180V561H170V159H180V355H700Z" glyph-name="dotlessi" horiz-adv-x="880" unicode="&#305;" /><glyph d="M710 168V561H700V178H441V480H431V178H180V561H170V168Z" glyph-name="e" horiz-adv-x="880" unicode="e" /><glyph d="M858 168V561H848V178H609V480H599V178H368V561H358V168ZM141 240H151L121 479H111Z" glyph-name="eacute" horiz-adv-x="1028" unicode="&#233;" /><glyph d="M97 494H106C142 494 176 467 176 359C176 251 142 229 106 229H97V219H106C144 219 186 235 186 359C186 483 144 504 106 504H97ZM874 168V561H864V178H625V480H615V178H384V561H374V168Z" glyph-name="ebreve" horiz-adv-x="1044" unicode="&#277;" /><glyph d="M126 240H137L164 323C167 335 170 344 170 359C170 374 167 383 164 395L137 478H126L154 391C157 381 160 372 160 359C160 346 157 337 154 327ZM874 168V561H864V178H625V480H615V178H384V561H374V168Z" glyph-name="ecaron" horiz-adv-x="1044" unicode="&#283;" /><glyph d="M144 478H133L106 395C103 383 100 374 100 359C100 344 103 335 106 323L133 240H144L116 327C113 337 110 346 110 359C110 372 113 381 116 391ZM904 168V561H894V178H635V480H625V178H374V561H364V168Z" glyph-name="ecircumflex" horiz-adv-x="1074" unicode="&#234;" /><glyph d="M159 492H112V482H159ZM159 234H112V224H159ZM859 168V561H849V178H610V480H600V178H369V561H359V168Z" glyph-name="edieresis" horiz-adv-x="1029" unicode="&#235;" /><glyph d="M146 366H87V356H146ZM846 168V561H836V178H597V480H587V178H356V561H346V168Z" glyph-name="edotaccent" horiz-adv-x="1016" unicode="&#279;" /><glyph d="M121 240 151 479H141L111 240ZM858 168V561H848V178H609V480H599V178H368V561H358V168Z" glyph-name="egrave" horiz-adv-x="1028" unicode="&#232;" /><glyph d="M527 171C469 171 428 219 428 361C428 503 468 550 526 550H619C677 550 715 504 715 361C715 218 677 171 619 171ZM527 161H619C681 161 725 202 725 361C725 520 681 560 619 560H526C476 560 436 532 423 437C412 501 384 527 337 527H242C172 527 140 478 140 361C140 244 172 194 234 194H337C384 194 412 221 423 285C436 190 477 161 527 161ZM234 204C176 204 150 256 150 361C150 466 176 517 242 517H337C395 517 418 467 418 361C418 255 395 204 337 204Z" glyph-name="eight" horiz-adv-x="864" unicode="8" /><glyph d="M265 717V727H170V717ZM265 354V364H170V354ZM265 -9V1H170V-9Z" glyph-name="ellipsis" horiz-adv-x="435" unicode="&#8230;" /><glyph d="M120 240H130V479H120ZM837 168V561H827V178H588V480H578V178H347V561H337V168Z" glyph-name="emacron" horiz-adv-x="1007" unicode="&#275;" /><glyph d="M974 366H160V356H974Z" glyph-name="emdash" horiz-adv-x="1134" unicode="&#8212;" /><glyph glyph-name="emspace" horiz-adv-x="1000" /><glyph d="M574 366H160V356H574Z" glyph-name="endash" horiz-adv-x="734" unicode="&#8211;" /><glyph d="M693 177H276C201 177 151 217 151 358C151 501 201 540 276 540H683C747 540 772 505 772 423H782C782 515 753 550 683 550H276C195 550 141 509 141 358C141 209 195 167 276 167H693Z" glyph-name="eng" horiz-adv-x="930" unicode="&#331;" /><glyph d="M670 168V561H660V178H421V480H411V178H180V561H170V168ZM876 560H866V536C866 495 843 490 803 495L718 507C689 511 684 515 670 540L662 534C678 506 686 502 718 497L801 485C851 477 876 487 876 536Z" glyph-name="eogonek" horiz-adv-x="963" unicode="&#281;" /><glyph d="M478 153V567H468V153ZM178 153V567H168V153Z" glyph-name="equal" horiz-adv-x="646" unicode="=" /><glyph d="M300 824C300 836 296 840 284 840H216C204 840 200 836 200 824V-104C200 -116 204 -120 216 -120H284C296 -120 300 -116 300 -104ZM800 824C800 836 796 840 784 840H716C704 840 700 836 700 824V-104C700 -116 704 -120 716 -120H784C796 -120 800 -116 800 -104ZM284 -110H216C212 -110 210 -108 210 -104V824C210 828 212 830 216 830H284C288 830 290 828 290 824V-104C290 -108 288 -110 284 -110ZM784 -110H716C712 -110 710 -108 710 -104V824C710 828 712 830 716 830H784C788 830 790 828 790 824V-104C790 -108 788 -110 784 -110Z" glyph-name="equal.salt" horiz-adv-x="1000" /><glyph d="M441 91H451V167H710V392C710 530 651 552 574 552H309C232 552 170 528 170 392V167H441ZM451 271H441V177H180V392C180 518 236 542 309 542H574C647 542 700 520 700 392V177H451Z" glyph-name="eth" horiz-adv-x="880" unicode="&#240;" /><glyph d="M145 356H423V366H145ZM695 366H652V356H695Z" glyph-name="exclam" horiz-adv-x="830" unicode="!" /><glyph d="M135 356H178V366H135ZM685 366H407V356H685Z" glyph-name="exclamdown" horiz-adv-x="830" unicode="&#161;" /><glyph d="M171 171H711V181H477V481H467V181H181V562H171Z" glyph-name="f" horiz-adv-x="856" unicode="f" /><glyph d="M700 150H710V439C710 522 680 553 612 553H524C455 553 426 518 426 448V189H180V536H170V179H436V448C436 510 461 543 524 543H612C674 543 700 514 700 439Z" glyph-name="five" horiz-adv-x="872" unicode="5" /><glyph d="M428 208V355H558C662 355 682 329 682 218V208H692V218C692 336 670 365 558 365H428V512H418V365H273C187 365 162 413 162 492V512H152V492C152 405 181 355 273 355H418V208Z" glyph-name="florin" horiz-adv-x="844" unicode="&#402;" /><glyph d="M157 169H415C485 169 520 203 520 280V542H697V552H157V542H510V280C510 211 479 179 415 179H157Z" glyph-name="four" horiz-adv-x="842" unicode="4" /><glyph d="M205 226H391C442 226 467 251 467 307V478H594V488H205V478H458V307C458 259 436 236 391 236H205Z" glyph-name="foursuperior" horiz-adv-x="798" unicode="&#8308;" /><glyph d="M707 315 167 415V405L707 305Z" glyph-name="fraction" horiz-adv-x="874" unicode="&#8260;" /><glyph d="M288 164H568C661 164 697 197 697 344V552H496V542H687V344C687 209 655 174 568 174H288C199 174 167 206 167 324V505H157V324C157 196 193 164 288 164Z" glyph-name="g" horiz-adv-x="859" unicode="g" /><glyph d="M97 494H106C142 494 176 467 176 359C176 251 142 229 106 229H97V219H106C144 219 186 235 186 359C186 483 144 504 106 504H97ZM507 164H745C838 164 874 197 874 344V552H673V542H864V344C864 209 832 174 745 174H507C418 174 386 206 386 324V505H376V324C376 196 412 164 507 164Z" glyph-name="gbreve" horiz-adv-x="1036" unicode="&#287;" /><glyph d="M144 478H133L106 395C103 383 100 374 100 359C100 344 103 335 106 323L133 240H144L116 327C113 337 110 346 110 359C110 372 113 381 116 391ZM497 164H735C828 164 864 197 864 344V552H663V542H854V344C854 209 822 174 735 174H497C408 174 376 206 376 324V505H366V324C366 196 402 164 497 164Z" glyph-name="gcircumflex" horiz-adv-x="1026" unicode="&#285;" /><glyph d="M290 164H528C621 164 657 197 657 344V552H456V542H647V344C647 209 615 174 528 174H290C201 174 169 206 169 324V505H159V324C159 196 195 164 290 164ZM871 295H881V417H958C1005 417 1029 391 1029 349V295H1039V349C1039 397 1012 427 958 427H871Z" glyph-name="gcommaaccent" horiz-adv-x="1089" unicode="&#291;" /><glyph d="M146 366H87V356H146ZM479 164H717C810 164 846 197 846 344V552H645V542H836V344C836 209 804 174 717 174H479C390 174 358 206 358 324V505H348V324C348 196 384 164 479 164Z" glyph-name="gdotaccent" horiz-adv-x="1008" unicode="&#289;" /><glyph d="M180 179V418C180 479 215 500 280 482L436 448V468C436 525 461 556 524 556H612C674 556 700 529 700 460V427H710V460C710 537 680 566 612 566H524C455 566 426 533 426 468V462L282 492C209 507 170 487 170 418V169H710V179Z" glyph-name="germandbls" horiz-adv-x="880" unicode="&#223;" /><glyph d="M121 240 151 479H141L111 240Z" glyph-name="grave" horiz-adv-x="262" unicode="`" /><glyph d="M470 483C460 517 443 541 399 541H327C283 541 269 517 259 483L173 183H183L269 481C277 509 289 531 327 531H399C437 531 452 509 460 481L546 183H556Z" glyph-name="greater" horiz-adv-x="726" unicode="&gt;" /><glyph d="M702 183V541H692V183ZM470 483C460 517 443 541 399 541H327C283 541 269 517 259 483L173 183H183L269 481C277 509 289 531 327 531H399C437 531 452 509 460 481L546 183H556Z" glyph-name="greaterequal" horiz-adv-x="872" unicode="&#8805;" /><glyph d="M573 469C536 458 511 445 511 398V324C511 277 536 263 572 253L672 224V234L574 263C544 271 521 283 521 324V398C521 439 544 450 575 459L672 489V499ZM204 263C174 272 151 283 151 324V398C151 439 174 449 205 459L302 489V499L203 469C166 458 141 445 141 398V324C141 277 166 263 202 253L302 224V234Z" glyph-name="guillemotleft" horiz-adv-x="812" unicode="&#171;" /><glyph d="M140 488 237 458C268 449 291 438 291 397V323C291 282 268 270 238 262L140 233V223L240 252C276 262 301 276 301 323V397C301 444 276 457 239 468L140 498ZM510 223 610 252C646 262 671 276 671 323V397C671 444 646 457 609 468L510 498V488L607 458C638 448 661 438 661 397V323C661 282 638 271 608 262L510 233Z" glyph-name="guillemotright" horiz-adv-x="812" unicode="&#187;" /><glyph d="M215 267C185 273 170 287 170 321V399C170 433 185 447 214 453L400 491V501L212 463C177 456 160 439 160 399V321C160 281 177 264 213 257L400 219V229Z" glyph-name="guilsinglleft" horiz-adv-x="563" unicode="&#8249;" /><glyph d="M163 218 350 256C386 263 403 280 403 320V398C403 438 386 455 351 462L163 500V490L349 452C378 446 393 432 393 398V320C393 286 378 272 348 266L163 228Z" glyph-name="guilsinglright" horiz-adv-x="563" unicode="&#8250;" /><glyph d="M157 169H697V179H432V541H697V551H157V541H422V179H157Z" glyph-name="h" horiz-adv-x="854" unicode="h" /><glyph d="M286 100H296V166H710V176H558V543H710V553H296V619H286V553H170V543H286V176H170V166H286ZM548 543V176H296V543Z" glyph-name="hbar" horiz-adv-x="880" unicode="&#295;" /><glyph d="M364 169H864V179H619V541H864V551H364V541H609V179H364ZM144 478H133L106 395C103 383 100 374 100 359C100 344 103 335 106 323L133 240H144L116 327C113 337 110 346 110 359C110 372 113 381 116 391Z" glyph-name="hcircumflex" horiz-adv-x="1021" unicode="&#293;" /><glyph d="M224 472 127 497V486L224 461ZM224 212 127 237V226L224 201Z" glyph-name="hungarumlaut" horiz-adv-x="351" unicode="&#733;" /><glyph d="M290 366H130V356H290Z" glyph-name="hyphen" horiz-adv-x="420" unicode="-" /><glyph d="M700 159H710V561H700V365H180V561H170V159H180V355H700Z" glyph-name="i" horiz-adv-x="880" unicode="i" /><glyph d="M848 159H858V561H848V365H368V561H358V159H368V355H848ZM141 240H151L121 479H111Z" glyph-name="iacute" horiz-adv-x="1028" unicode="&#237;" /><glyph d="M97 494H106C142 494 176 467 176 359C176 251 142 229 106 229H97V219H106C144 219 186 235 186 359C186 483 144 504 106 504H97ZM864 159H874V561H864V365H384V561H374V159H384V355H864Z" glyph-name="ibreve" horiz-adv-x="1044" unicode="&#301;" /><glyph d="M144 478H133L106 395C103 383 100 374 100 359C100 344 103 335 106 323L133 240H144L116 327C113 337 110 346 110 359C110 372 113 381 116 391ZM854 159H864V561H854V365H374V561H364V159H374V355H854Z" glyph-name="icircumflex" horiz-adv-x="1034" unicode="&#238;" /><glyph d="M159 492H112V482H159ZM159 234H112V224H159ZM849 159H859V561H849V365H369V561H359V159H369V355H849Z" glyph-name="idieresis" horiz-adv-x="1029" unicode="&#239;" /><glyph d="M121 240 151 479H141L111 240ZM848 159H858V561H848V365H368V561H358V159H368V355H848Z" glyph-name="igrave" horiz-adv-x="1028" unicode="&#236;" /><glyph d="M697 412C697 529 638 551 531 551H157V541H531C634 541 687 519 687 412V151H697ZM367 179H157V169H367Z" glyph-name="ij" horiz-adv-x="859" unicode="&#307;" /><glyph d="M120 240H130V479H120ZM827 159H837V561H827V365H347V561H337V159H347V355H827Z" glyph-name="imacron" horiz-adv-x="1007" unicode="&#299;" /><glyph glyph-name="indexdown" horiz-adv-x="999" /><glyph glyph-name="indexdown.salt" horiz-adv-x="999" /><glyph glyph-name="indexdownleft" horiz-adv-x="1000" /><glyph glyph-name="indexdownleft.outline" horiz-adv-x="1000" /><glyph glyph-name="indexdownleft.salt" horiz-adv-x="1000" /><glyph glyph-name="indexdownleft.salt_outline" horiz-adv-x="1000" /><glyph glyph-name="indexdownright" horiz-adv-x="1000" /><glyph glyph-name="indexdownright.outline" horiz-adv-x="1000" /><glyph glyph-name="indexdownright.salt" horiz-adv-x="1000" /><glyph glyph-name="indexdownright.salt_outline" horiz-adv-x="1000" /><glyph glyph-name="indexup" horiz-adv-x="999" /><glyph glyph-name="indexup.salt" horiz-adv-x="999" /><glyph glyph-name="indexupleft" horiz-adv-x="1000" /><glyph glyph-name="indexupleft.outline" horiz-adv-x="1000" /><glyph glyph-name="indexupleft.salt" horiz-adv-x="1000" /><glyph glyph-name="indexupleft.salt_outline" horiz-adv-x="1000" /><glyph glyph-name="indexupright" horiz-adv-x="1000" /><glyph glyph-name="indexupright.outline" horiz-adv-x="1000" /><glyph glyph-name="indexupright.salt" horiz-adv-x="1000" /><glyph glyph-name="indexupright.salt_outline" horiz-adv-x="1000" /><glyph d="M287 56H464C516 56 561 77 561 197C561 308 529 353 463 358L395 364L462 379C541 397 564 427 564 525C564 642 500 665 459 665H279C227 665 180 644 180 524C180 413 214 368 280 363L330 359L279 347C202 329 183 294 183 196C183 76 246 56 287 56ZM280 373C218 378 190 423 190 524C190 632 231 655 279 655H459C498 655 554 630 554 525C554 435 533 405 460 389L362 366ZM464 66H287C248 66 193 88 193 196C193 286 210 321 281 337L364 356L463 348C525 343 551 298 551 197C551 89 512 66 464 66Z" glyph-name="infinity" horiz-adv-x="744" unicode="&#8734;" /><glyph d="M144 482C144 405 173 355 265 355H726C830 355 850 329 850 228H860C860 336 838 365 726 365H265C179 365 154 413 154 482Z" glyph-name="integral" horiz-adv-x="1004" unicode="&#8747;" /><glyph d="M660 159H670V561H660V365H180V561H170V159H180V355H660ZM876 561H866V537C866 496 843 491 803 496L718 508C689 512 684 516 670 541L662 535C678 507 686 503 718 498L801 486C851 478 876 488 876 537Z" glyph-name="iogonek" horiz-adv-x="963" unicode="&#303;" /><glyph d="M137 478C140 451 137 427 129 376L127 360L123 332C117 287 115 263 118 240H129C125 262 126 286 133 330L137 358L139 374C147 425 150 451 147 478ZM838 159H848V561H838V365H358V561H348V159H358V355H838Z" glyph-name="itilde" horiz-adv-x="1018" unicode="&#297;" /><glyph d="M145 540H562C637 540 687 499 687 361C687 216 638 174 562 174H478V164H562C642 164 697 203 697 361C697 509 641 550 562 550H145Z" glyph-name="j" horiz-adv-x="848" unicode="j" /><glyph d="M144 568H133L106 485C103 473 100 464 100 449C100 434 103 425 106 413L133 330H144L116 417C113 427 110 436 110 449C110 462 113 471 116 481ZM364 540H741C816 540 866 499 866 361C866 216 817 174 741 174H657V164H741C821 164 876 203 876 361C876 509 820 550 741 550H364Z" glyph-name="jcircumflex" horiz-adv-x="1026" unicode="&#309;" /><glyph d="M157 170H697V180H433V432C433 506 457 543 521 543H697V553H521C451 553 423 514 423 432V391L157 506V495L423 380V180H157Z" glyph-name="k" horiz-adv-x="854" unicode="k" /><glyph d="M157 170H657V180H413V432C413 506 437 543 501 543H657V553H501C431 553 403 514 403 432V391L157 506V495L403 380V180H157ZM871 295H881V417H958C1005 417 1029 391 1029 349V295H1039V349C1039 397 1012 427 958 427H871Z" glyph-name="kcommaaccent" horiz-adv-x="1089" unicode="&#311;" /><glyph d="M145 170H685V557H478V547H675V180H145Z" glyph-name="l" horiz-adv-x="855" unicode="l" /><glyph d="M141 150H151L121 389H111ZM358 170H858V557H661V547H848V180H358Z" glyph-name="lacute" horiz-adv-x="1028" unicode="&#314;" /><glyph d="M157 170H697V557H490V547H687V180H157ZM250 549 157 567V556L250 538Z" glyph-name="lcaron" horiz-adv-x="867" unicode="&#318;" /><glyph d="M145 170H645V557H448V547H635V180H145ZM859 295H869V417H946C993 417 1017 391 1017 349V295H1027V349C1027 397 1000 427 946 427H859Z" glyph-name="lcommaaccent" horiz-adv-x="1077" unicode="&#316;" /><glyph d="M923 372V382H868V372ZM145 170H645V557H448V547H635V180H145Z" glyph-name="ldot" horiz-adv-x="1012" unicode="&#320;" /><glyph d="M546 537 460 239C452 211 437 189 399 189H327C289 189 277 211 269 239L183 537H173L259 237C269 203 283 179 327 179H399C443 179 460 203 470 237L556 537Z" glyph-name="less" horiz-adv-x="726" unicode="&lt;" /><glyph d="M702 179V537H692V179ZM546 537 460 239C452 211 437 189 399 189H327C289 189 277 211 269 239L183 537H173L259 237C269 203 283 179 327 179H399C443 179 460 203 470 237L556 537Z" glyph-name="lessequal" horiz-adv-x="872" unicode="&#8804;" /><glyph d="M170 557H412V567H160V153H170Z" glyph-name="logicalnot" horiz-adv-x="574" unicode="&#172;" /><glyph d="M188 262 382 175C400 167 406 166 420 166H434C449 166 455 167 473 175L666 262C683 270 690 280 690 298V419C690 438 683 448 666 456L473 543C455 551 449 552 434 552H420C406 552 400 551 382 543L188 455C171 447 164 437 164 419V299C164 280 171 270 188 262ZM174 419C174 433 179 439 192 445L386 533C402 541 408 542 420 542H434C447 542 453 541 469 533L662 446C675 440 680 434 680 419V298C680 284 675 278 662 272L469 185C453 177 447 176 434 176H420C408 176 402 177 386 185L192 272C179 278 174 284 174 299Z" glyph-name="lozenge" horiz-adv-x="854" unicode="&#9674;" /><glyph d="M400 94 367 294H357L390 94ZM145 170H685V557H478V547H675V180H145Z" glyph-name="lslash" horiz-adv-x="855" unicode="&#322;" /><glyph d="M422 356C422 337 416 331 380 315L174 222C160 216 157 201 157 189V172C157 149 166 139 188 139L697 137V147L188 149C177 149 167 153 167 172V187C167 197 167 208 181 214L385 307C423 324 432 332 432 356C432 380 423 388 385 405L181 498C167 504 167 515 167 525V544C167 560 177 563 188 563L697 565V575L188 573C166 573 157 564 157 544V523C157 511 159 497 174 490L380 397C418 380 422 375 422 356Z" glyph-name="m" horiz-adv-x="854" unicode="m" /><glyph d="M120 240H130V479H120Z" glyph-name="macron" horiz-adv-x="249" unicode="&#175;" /><glyph d="M178 153V567H168V153Z" glyph-name="minus" horiz-adv-x="346" unicode="&#8722;" /><glyph d="M357 359 162 373V362L357 348Z" glyph-name="minute" horiz-adv-x="519" unicode="&#8242;" /><glyph d="M637 173V183H478C528 201 559 251 559 362C559 509 505 553 424 553H157V543H424C499 543 549 501 549 362C549 223 499 183 424 183H157V173Z" glyph-name="mu" horiz-adv-x="794" unicode="&#181;" /><glyph d="M490 209 497 216 354 359 497 502 490 509 347 366 204 509 197 502 340 359 197 216 204 209 347 352Z" glyph-name="multiply" horiz-adv-x="692" unicode="&#215;" /><glyph d="M156 178C156 172 160 166 168 166H697V176H170C169 176 167 176 167 178C167 180 168 181 170 183L594 545H697V555H157V545H579L165 193C158 186 156 184 156 178Z" glyph-name="n" horiz-adv-x="854" unicode="n" /><glyph d="M141 240H151L121 479H111ZM357 178C357 172 361 166 369 166H858V176H371C370 176 368 176 368 178C368 180 369 181 371 183L775 545H858V555H358V545H760L366 193C359 186 357 184 357 178Z" glyph-name="nacute" horiz-adv-x="1015" unicode="&#324;" /><glyph glyph-name="nbspace" horiz-adv-x="229" /><glyph d="M126 240H137L164 323C167 335 170 344 170 359C170 374 167 383 164 395L137 478H126L154 391C157 381 160 372 160 359C160 346 157 337 154 327ZM373 178C373 172 377 166 385 166H874V176H387C386 176 384 176 384 178C384 180 385 181 387 183L791 545H874V555H374V545H776L382 193C375 186 373 184 373 178Z" glyph-name="ncaron" horiz-adv-x="1031" unicode="&#328;" /><glyph d="M156 178C156 172 160 166 168 166H657V176H170C169 176 167 176 167 178C167 180 168 181 170 183L574 545H657V555H157V545H559L165 193C158 186 156 184 156 178ZM871 295H881V417H958C1005 417 1029 391 1029 349V295H1039V349C1039 397 1012 427 958 427H871Z" glyph-name="ncommaaccent" horiz-adv-x="1089" unicode="&#326;" /><glyph d="M338 163C423 163 456 216 456 350C456 465 437 526 389 547H588C671 547 693 500 693 423V221H703V423C703 508 677 557 588 557H270C179 557 144 500 144 353C144 216 179 163 270 163ZM338 173H270C187 173 154 224 154 353C154 492 187 547 270 547H341C416 547 446 492 446 350C446 223 416 173 338 173Z" glyph-name="nine" horiz-adv-x="860" unicode="9" /><glyph d="M247 153V381L537 331V153H547V330L632 315V325L547 340V567H537V341L247 391V567H237V393L142 409V399L237 383V153Z" glyph-name="notequal" horiz-adv-x="784" unicode="&#8800;" /><glyph d="M137 478C140 451 137 427 129 376L127 360L123 332C117 287 115 263 118 240H129C125 262 126 286 133 330L137 358L139 374C147 425 150 451 147 478ZM347 178C347 172 351 166 359 166H848V176H361C360 176 358 176 358 178C358 180 359 181 361 183L765 545H848V555H348V545H750L356 193C349 186 347 184 347 178Z" glyph-name="ntilde" horiz-adv-x="1005" unicode="&#241;" /><glyph d="M570 202 305 240V519L570 481ZM580 110V191L710 172V182L580 201V480L710 461V471L580 490V574H570V491L305 529V610H295V530L170 548V538L295 520V241L170 259V249L295 231V146H305V230L570 192V110Z" glyph-name="numbersign" horiz-adv-x="880" unicode="#" /><glyph d="M580 556H285C204 556 150 511 150 359C150 207 204 165 285 165H580C661 165 715 207 715 359C715 511 661 556 580 556ZM580 175H285C210 175 160 215 160 359C160 503 210 546 285 546H580C655 546 705 503 705 359C705 215 655 175 580 175Z" glyph-name="o" horiz-adv-x="864" unicode="o" /><glyph d="M141 240H151L121 479H111ZM736 556H481C400 556 346 511 346 359C346 207 400 165 481 165H736C817 165 871 207 871 359C871 511 817 556 736 556ZM736 175H481C406 175 356 215 356 359C356 503 406 546 481 546H736C811 546 861 503 861 359C861 215 811 175 736 175Z" glyph-name="oacute" horiz-adv-x="1020" unicode="&#243;" /><glyph d="M97 494H106C142 494 176 467 176 359C176 251 142 229 106 229H97V219H106C144 219 186 235 186 359C186 483 144 504 106 504H97ZM752 556H497C416 556 362 511 362 359C362 207 416 165 497 165H752C833 165 887 207 887 359C887 511 833 556 752 556ZM752 175H497C422 175 372 215 372 359C372 503 422 546 497 546H752C827 546 877 503 877 359C877 215 827 175 752 175Z" glyph-name="obreve" horiz-adv-x="1036" unicode="&#335;" /><glyph d="M144 478H133L106 395C103 383 100 374 100 359C100 344 103 335 106 323L133 240H144L116 327C113 337 110 346 110 359C110 372 113 381 116 391ZM742 556H487C406 556 352 511 352 359C352 207 406 165 487 165H742C823 165 877 207 877 359C877 511 823 556 742 556ZM742 175H487C412 175 362 215 362 359C362 503 412 546 487 546H742C817 546 867 503 867 359C867 215 817 175 742 175Z" glyph-name="ocircumflex" horiz-adv-x="1026" unicode="&#244;" /><glyph d="M159 492H112V482H159ZM159 234H112V224H159ZM737 556H482C401 556 347 511 347 359C347 207 401 165 482 165H737C818 165 872 207 872 359C872 511 818 556 737 556ZM737 175H482C407 175 357 215 357 359C357 503 407 546 482 546H737C812 546 862 503 862 359C862 215 812 175 737 175Z" glyph-name="odieresis" horiz-adv-x="1021" unicode="&#246;" /><glyph d="M574 136C651 136 710 157 710 286V591H700V446H440V590H430V446H180V591H170V286C170 159 232 136 309 136ZM309 146C236 146 180 168 180 286V436H700V286C700 169 649 147 579 146Z" glyph-name="oe" horiz-adv-x="880" unicode="&#339;" /><glyph d="M200 398H190V374C190 333 167 328 127 333L42 345C13 349 8 353 -6 378L-14 372C2 344 10 340 42 335L125 323C175 315 200 325 200 374Z" glyph-name="ogonek" horiz-adv-x="287" unicode="&#731;" /><glyph d="M121 240 151 479H141L111 240ZM736 556H481C400 556 346 511 346 359C346 207 400 165 481 165H736C817 165 871 207 871 359C871 511 817 556 736 556ZM736 175H481C406 175 356 215 356 359C356 503 406 546 481 546H736C811 546 861 503 861 359C861 215 811 175 736 175Z" glyph-name="ograve" horiz-adv-x="1020" unicode="&#242;" /><glyph d="M224 510 127 535V524L224 499ZM224 250 127 275V264L224 239ZM822 556H567C486 556 432 511 432 359C432 207 486 165 567 165H822C903 165 957 207 957 359C957 511 903 556 822 556ZM822 175H567C492 175 442 215 442 359C442 503 492 546 567 546H822C897 546 947 503 947 359C947 215 897 175 822 175Z" glyph-name="ohungarumlaut" horiz-adv-x="1106" unicode="&#337;" /><glyph d="M120 240H130V479H120ZM715 556H460C379 556 325 511 325 359C325 207 379 165 460 165H715C796 165 850 207 850 359C850 511 796 556 715 556ZM715 175H460C385 175 335 215 335 359C335 503 385 546 460 546H715C790 546 840 503 840 359C840 215 790 175 715 175Z" glyph-name="omacron" horiz-adv-x="999" unicode="&#333;" /><glyph d="M692 367V217H702V531H692V377H162V217H172V367Z" glyph-name="one" horiz-adv-x="872" unicode="1" /><glyph d="M598 484H589V374H204V258H213V365H590V244H598Z" glyph-name="onesuperior" horiz-adv-x="798" unicode="&#185;" /><glyph d="M727 514V206H735V514ZM530 213V222H410V495H530V504H380C354 504 332 500 312 492L197 443C170 432 149 422 149 391V321C149 289 170 280 196 270L312 225C332 217 354 213 380 213ZM380 222C355 222 334 226 315 233L199 278C175 288 158 295 158 323V390C158 417 175 424 200 435L315 483C334 490 355 495 380 495H401V222Z" glyph-name="ordfeminine" horiz-adv-x="880" unicode="&#170;" /><glyph d="M729 511V203H737V511ZM446 504H237C178 504 140 472 140 359C140 247 178 216 237 216H446C504 216 542 247 542 359C542 472 504 504 446 504ZM446 225H237C185 225 149 255 149 359C149 464 185 495 237 495H446C498 495 533 464 533 359C533 255 498 225 446 225Z" glyph-name="ordmasculine" horiz-adv-x="882" unicode="&#186;" /><glyph d="M295 546H590C665 546 715 503 715 359C715 315 710 281 702 255L186 473C207 527 246 546 295 546ZM590 175H295C220 175 170 215 170 359C170 403 175 437 183 464L699 245C678 192 639 175 590 175ZM590 165C644 165 686 184 708 241L782 210V221L711 251C720 278 725 314 725 359C725 511 671 556 590 556H295C241 556 199 536 177 477L102 509V498L174 468C165 440 160 404 160 359C160 207 214 165 295 165Z" glyph-name="oslash" horiz-adv-x="884" unicode="&#248;" /><glyph d="M137 478C140 451 137 427 129 376L127 360L123 332C117 287 115 263 118 240H129C125 262 126 286 133 330L137 358L139 374C147 425 150 451 147 478ZM726 556H471C390 556 336 511 336 359C336 207 390 165 471 165H726C807 165 861 207 861 359C861 511 807 556 726 556ZM726 175H471C396 175 346 215 346 359C346 503 396 546 471 546H726C801 546 851 503 851 359C851 215 801 175 726 175Z" glyph-name="otilde" horiz-adv-x="1010" unicode="&#245;" /><glyph d="M505 411C505 537 450 561 372 561H298C220 561 162 537 162 411V169H702V179H505ZM495 179H172V411C172 529 226 551 298 551H372C444 551 495 529 495 411Z" glyph-name="p" horiz-adv-x="847" unicode="p" /><glyph d="M508 306V534H710V544H170V292C170 166 228 142 306 142H375C453 142 508 166 508 292V296H710V306ZM375 152H306C234 152 180 174 180 292V534H498V292C498 174 447 152 375 152Z" glyph-name="paragraph" horiz-adv-x="880" unicode="&#182;" /><glyph d="M294 22C215 22 167 43 167 125V596C167 678 214 699 294 699V709C206 709 157 684 157 596V125C157 37 207 12 294 12Z" glyph-name="parenleft" horiz-adv-x="429" unicode="(" /><glyph d="M135 699C214 699 262 678 262 596V125C262 43 215 22 135 22V12C223 12 272 37 272 125V596C272 684 222 709 135 709Z" glyph-name="parenright" horiz-adv-x="429" unicode=")" /><glyph d="M514 169H602C703 169 718 248 718 348C718 456 705 541 602 541H274C185 541 159 492 159 407V231H169V407C169 484 191 531 274 531H465C409 505 406 427 406 345C406 247 411 169 514 169ZM602 179H514C417 179 416 257 416 345C416 434 414 531 511 531H602C699 531 708 446 708 348C708 256 697 179 602 179Z" glyph-name="partialdiff" horiz-adv-x="861" unicode="&#8706;" /><glyph d="M573 614C515 614 493 586 493 514C493 443 515 413 573 413H670C728 413 749 443 749 514C749 586 728 614 670 614ZM739 514C739 453 722 423 670 423H573C521 423 503 453 503 514C503 576 521 604 573 604H670C722 604 739 576 739 514ZM715 186 175 547V535L715 174ZM221 307C163 307 141 279 141 207C141 136 163 106 221 106H318C376 106 397 136 397 207C397 279 376 307 318 307ZM387 207C387 146 370 116 318 116H221C169 116 151 146 151 207C151 269 169 297 221 297H318C370 297 387 269 387 207Z" glyph-name="percent" horiz-adv-x="890" unicode="%" /><glyph d="M265 354V364H170V354Z" glyph-name="period" horiz-adv-x="435" unicode="." /><glyph d="M265 354V364H170V354Z" glyph-name="periodcentered" horiz-adv-x="435" unicode="&#183;" /><glyph d="M573 298H670C728 298 749 328 749 399C749 453 736 483 704 494C736 506 749 538 749 591C749 663 728 691 670 691H573C515 691 493 663 493 591C493 538 506 506 539 494C506 483 493 453 493 399C493 328 515 298 573 298ZM739 591C739 530 722 499 670 499H573C521 499 503 530 503 591C503 653 521 681 573 681H670C722 681 739 653 739 591ZM739 399C739 338 722 308 670 308H573C521 308 503 338 503 399C503 461 521 489 573 489H670C722 489 739 461 739 399ZM715 91 175 452V440L715 79ZM221 232C163 232 141 204 141 132C141 61 163 31 221 31H318C376 31 397 61 397 132C397 204 376 232 318 232ZM387 132C387 71 370 41 318 41H221C169 41 151 71 151 132C151 194 169 222 221 222H318C370 222 387 194 387 132Z" glyph-name="perthousand" horiz-adv-x="890" unicode="&#8240;" /><glyph d="M170 169H560V179H180V541H560V551H170Z" glyph-name="pi" horiz-adv-x="717" unicode="&#960;" /><glyph d="M354 153H364V355H566V365H364V567H354V365H152V355H354Z" glyph-name="plus" horiz-adv-x="718" unicode="+" /><glyph d="M354 153H364V355H566V365H364V567H354V365H152V355H354ZM692 153V567H682V153Z" glyph-name="plusminus" horiz-adv-x="859" unicode="&#177;" /><glyph d="M170 157H710V167H180V551H710V561H170Z" glyph-name="product" horiz-adv-x="867" unicode="&#8719;" /><glyph d="M286 165H581C661 165 714 206 716 354H793V364H716C715 512 661 556 581 556H286C205 556 151 511 151 359C151 207 205 165 286 165ZM581 175H286C211 175 161 215 161 359C161 503 211 546 286 546H581C656 546 706 503 706 359C706 215 656 175 581 175Z" glyph-name="q" horiz-adv-x="934" unicode="q" /><glyph d="M452 257 422 473C418 504 409 530 368 530H255C182 530 164 482 164 436V167H174V436C174 477 190 520 255 520H368C403 520 408 496 412 471L441 255ZM712 280V290H669V280Z" glyph-name="question" horiz-adv-x="847" unicode="?" /><glyph d="M394 465 424 249C428 218 437 192 478 192H592C665 192 683 240 683 286V555H673V286C673 245 657 202 592 202H478C443 202 438 226 434 251L405 467ZM135 442V432H178V442Z" glyph-name="questiondown" horiz-adv-x="847" unicode="&#191;" /><glyph d="M170 201H365V211H170ZM170 511H365V521H170Z" glyph-name="quotedbl" horiz-adv-x="535" unicode="&quot;" /><glyph d="M177 267V133H187V257H296C350 257 377 227 377 179V133H387V179C387 233 357 267 296 267ZM177 587V453H187V577H296C350 577 377 547 377 499V453H387V499C387 553 357 587 296 587Z" glyph-name="quotedblbase" horiz-adv-x="499" unicode="&#8222;" /><glyph d="M322 453V587H312V463H203C149 463 122 493 122 541V587H112V541C112 487 142 453 203 453ZM322 133V267H312V143H203C149 143 122 173 122 221V267H112V221C112 167 142 133 203 133Z" glyph-name="quotedblleft" horiz-adv-x="499" unicode="&#8220;" /><glyph d="M177 587V453H187V577H296C350 577 377 547 377 499V453H387V499C387 553 357 587 296 587ZM177 267V133H187V257H296C350 257 377 227 377 179V133H387V179C387 233 357 267 296 267Z" glyph-name="quotedblright" horiz-adv-x="499" unicode="&#8221;" /><glyph d="M322 293V427H312V303H203C149 303 122 333 122 381V427H112V381C112 327 142 293 203 293Z" glyph-name="quoteleft" horiz-adv-x="499" unicode="&#8216;" /><glyph d="M218 209V121H142C109 121 78 134 78 167V208H68V167C68 128 103 111 142 111H228V209Z" glyph-name="quoteleft.salt" horiz-adv-x="344" /><glyph d="M177 427V293H187V417H296C350 417 377 387 377 339V293H387V339C387 393 357 427 296 427Z" glyph-name="quoteright" horiz-adv-x="499" unicode="&#8217;" /><glyph d="M126 111V199H202C235 199 266 186 266 153V112H276V153C276 192 241 209 202 209H116V111Z" glyph-name="quoteright.salt" horiz-adv-x="344" /><glyph d="M177 427V293H187V417H296C350 417 377 387 377 339V293H387V339C387 393 357 427 296 427Z" glyph-name="quotesinglbase" horiz-adv-x="499" unicode="&#8218;" /><glyph d="M162 356H357V366H162Z" glyph-name="quotesingle" horiz-adv-x="519" unicode="'" /><glyph d="M162 168H702V178H470V461C470 537 502 551 568 551H702V561H568C498 561 461 543 461 461V450C446 498 406 510 345 510H276C210 510 162 474 162 396ZM172 396C172 467 214 500 276 500H346C420 500 461 479 461 396V178H172Z" glyph-name="r" horiz-adv-x="859" unicode="r" /><glyph d="M141 222H151L121 461H111ZM358 168H858V178H646V461C646 537 678 551 744 551H858V561H744C674 561 637 543 637 461V450C622 498 582 510 521 510H472C406 510 358 474 358 396ZM368 396C368 467 410 500 472 500H522C596 500 637 479 637 396V178H368Z" glyph-name="racute" horiz-adv-x="1015" unicode="&#341;" /><glyph d="M410 107V176C410 184 412 187 421 190L695 289C709 294 717 300 717 317V432C717 446 712 458 693 462L82 604V594L691 452C704 449 707 442 707 432V317C707 306 701 302 691 299L417 200C404 195 400 190 400 176V107Z" glyph-name="radical" horiz-adv-x="882" unicode="&#8730;" /><glyph d="M126 240H137L164 323C167 335 170 344 170 359C170 374 167 383 164 395L137 478H126L154 391C157 381 160 372 160 359C160 346 157 337 154 327ZM374 168H874V178H662V461C662 537 694 551 760 551H874V561H760C690 561 653 543 653 461V450C638 498 598 510 537 510H488C422 510 374 474 374 396ZM384 396C384 467 426 500 488 500H538C612 500 653 479 653 396V178H384Z" glyph-name="rcaron" horiz-adv-x="1031" unicode="&#345;" /><glyph d="M162 168H662V178H450V461C450 537 482 551 548 551H662V561H548C478 561 441 543 441 461V450C426 498 386 510 325 510H276C210 510 162 474 162 396ZM172 396C172 467 214 500 276 500H326C400 500 441 479 441 396V178H172ZM876 295H886V417H963C1010 417 1034 391 1034 349V295H1044V349C1044 397 1017 427 963 427H876Z" glyph-name="rcommaaccent" horiz-adv-x="1094" unicode="&#343;" /><glyph d="M214 559C133 559 86 523 86 360C86 198 133 161 214 161H454C533 161 580 198 580 360C580 523 533 559 454 559ZM570 360C570 210 529 171 454 171H214C137 171 96 210 96 360C96 511 137 549 214 549H454C529 549 570 511 570 360ZM213 277H441V287H347V400C347 427 360 442 384 442H441V452H384C356 452 339 437 337 404C328 419 314 423 297 423H268C236 423 213 402 213 356ZM223 356C223 394 240 413 268 413H297C323 413 337 400 337 356V287H223Z" glyph-name="registered" horiz-adv-x="666" unicode="&#174;" /><glyph d="M235 219C295 219 335 241 335 360C335 479 295 503 235 503H180C121 503 79 479 79 360C79 241 120 219 180 219ZM89 360C89 467 125 493 180 493H235C291 493 325 467 325 360C325 253 291 229 235 229H180C124 229 89 253 89 360Z" glyph-name="ring" horiz-adv-x="418" unicode="&#730;" /><glyph d="M162 545V271C162 208 197 169 253 169H345C390 169 421 199 426 248L447 461C452 516 480 542 528 542H611C661 542 692 503 692 441V150H702V441C702 509 667 552 611 552H528C474 552 443 523 437 463L416 250C412 206 385 179 345 179H253C203 179 172 214 172 271V545Z" glyph-name="s" horiz-adv-x="864" unicode="s" /><glyph d="M141 240H151L121 479H111ZM358 545V271C358 208 393 169 449 169H521C566 169 597 199 602 248L623 461C628 516 656 542 704 542H767C817 542 848 503 848 441V150H858V441C858 509 823 552 767 552H704C650 552 619 523 613 463L592 250C588 206 561 179 521 179H449C399 179 368 214 368 271V545Z" glyph-name="sacute" horiz-adv-x="1020" unicode="&#347;" /><glyph d="M126 240H137L164 323C167 335 170 344 170 359C170 374 167 383 164 395L137 478H126L154 391C157 381 160 372 160 359C160 346 157 337 154 327ZM374 545V271C374 208 409 169 465 169H537C582 169 613 199 618 248L639 461C644 516 672 542 720 542H783C833 542 864 503 864 441V150H874V441C874 509 839 552 783 552H720C666 552 635 523 629 463L608 250C604 206 577 179 537 179H465C415 179 384 214 384 271V545Z" glyph-name="scaron" horiz-adv-x="1036" unicode="&#353;" /><glyph d="M162 545V271C162 208 197 169 253 169H325C370 169 401 199 406 248L427 461C432 516 460 542 508 542H571C621 542 652 503 652 441V150H662V441C662 509 627 552 571 552H508C454 552 423 523 417 463L396 250C392 206 365 179 325 179H253C203 179 172 214 172 271V545ZM655 365 788 317V327L656 375Z" glyph-name="scedilla" horiz-adv-x="905" unicode="&#351;" /><glyph d="M144 478H133L106 395C103 383 100 374 100 359C100 344 103 335 106 323L133 240H144L116 327C113 337 110 346 110 359C110 372 113 381 116 391ZM364 545V271C364 208 399 169 455 169H527C572 169 603 199 608 248L629 461C634 516 662 542 710 542H773C823 542 854 503 854 441V150H864V441C864 509 829 552 773 552H710C656 552 625 523 619 463L598 250C594 206 567 179 527 179H455C405 179 374 214 374 271V545Z" glyph-name="scircumflex" horiz-adv-x="1026" unicode="&#349;" /><glyph d="M162 545V271C162 208 197 169 253 169H325C370 169 401 199 406 248L427 461C432 516 460 542 508 542H571C621 542 652 503 652 441V150H662V441C662 509 627 552 571 552H508C454 552 423 523 417 463L396 250C392 206 365 179 325 179H253C203 179 172 214 172 271V545ZM876 295H886V417H963C1010 417 1034 391 1034 349V295H1044V349C1044 397 1017 427 963 427H876Z" glyph-name="scommaaccent" horiz-adv-x="1094" unicode="&#537;" /><glyph d="M365 514 170 528V517L365 503ZM365 204 170 218V207L365 193Z" glyph-name="second" horiz-adv-x="535" unicode="&#8243;" /><glyph d="M407 201H350V404C350 503 402 545 473 545H530V342C530 243 477 201 407 201ZM718 186H728V397C728 511 696 555 599 555H473C397 555 340 511 340 404V201H281C190 201 162 243 162 349V520H152V349C152 235 184 191 281 191H407C482 191 540 235 540 342V545H599C690 545 718 503 718 397Z" glyph-name="section" horiz-adv-x="880" unicode="&#167;" /><glyph d="M527 427V293H537V417H646C700 417 727 387 727 339V293H737V339C737 393 707 427 646 427ZM260 354V364H165V354Z" glyph-name="semicolon" horiz-adv-x="859" unicode=";" /><glyph d="M180 150V541H400C425 541 441 532 446 512L494 304C499 283 519 269 550 269H710V279H550C525 279 508 291 504 308L456 516C450 540 431 551 400 551H170V150Z" glyph-name="seven" horiz-adv-x="857" unicode="7" /><glyph d="M590 173H519C444 173 414 228 414 370C414 497 444 547 522 547H590C673 547 706 496 706 367C706 228 673 173 590 173ZM272 163H590C681 163 716 220 716 367C716 504 681 557 590 557H522C437 557 404 504 404 370C404 255 423 194 471 173H272C189 173 167 220 167 297V499H157V297C157 212 183 163 272 163Z" glyph-name="six" horiz-adv-x="859" unicode="6" /><glyph d="M95 407 815 303V313L95 417Z" glyph-name="slash" horiz-adv-x="909" unicode="/" /><glyph glyph-name="space" horiz-adv-x="229" unicode=" " /><glyph d="M710 190V558H563V548H700V200H451V302H441V200H284C203 200 180 249 180 327V463H170V327C170 241 197 190 284 190H441V122H451V190Z" glyph-name="sterling" horiz-adv-x="880" unicode="&#163;" /><glyph d="M165 531V235C165 211 184 194 206 194H221C247 194 258 202 278 223L442 391C451 400 457 405 467 405H473C483 405 488 400 500 389L702 205C720 188 729 176 750 176H765C787 176 799 188 799 215V549H789V215C789 196 781 186 765 186H750C731 186 725 198 708 213L506 397C492 410 485 415 473 415H467C455 415 447 410 434 397L270 229C254 212 243 204 221 204H206C190 204 175 217 175 235V531Z" glyph-name="summation" horiz-adv-x="970" unicode="&#8721;" /><glyph d="M710 355V365H180V570H170V150H180V355Z" glyph-name="t" horiz-adv-x="855" unicode="t" /><glyph d="M182 150V355H486V220H496V355H712V365H496V499H486V365H182V570H172V150Z" glyph-name="tbar" horiz-adv-x="855" unicode="&#359;" /><glyph d="M126 240H137L164 323C167 335 170 344 170 359C170 374 167 383 164 395L137 478H126L154 391C157 381 160 372 160 359C160 346 157 337 154 327ZM874 355V365H384V570H374V150H384V355Z" glyph-name="tcaron" horiz-adv-x="1019" unicode="&#357;" /><glyph d="M590 355V365H180V570H170V150H180V355ZM784 294H794V416H871C918 416 942 390 942 348V294H952V348C952 396 925 426 871 426H784Z" glyph-name="tcommaaccent" horiz-adv-x="1002" unicode="&#355;" /><glyph d="M695 169V179H595V410C595 536 540 560 462 560H390C312 560 257 536 257 410V179H155V169ZM585 179H267V410C267 528 318 550 390 550H462C534 550 585 528 585 410Z" glyph-name="thorn" horiz-adv-x="850" unicode="&#254;" /><glyph d="M433 438C433 515 466 546 533 546H602C657 546 692 525 692 425V150H702V425C702 537 661 556 602 556H533C463 556 425 523 425 440V424C412 484 370 490 332 490H268C210 490 162 470 162 359V150H172V359C172 457 212 480 264 480H332C380 480 423 470 423 369V231H433Z" glyph-name="three" horiz-adv-x="864" unicode="3" /><glyph d="M401 291V400C401 454 424 477 472 477H521C560 477 585 462 585 391V232H594V391C594 472 565 486 521 486H472C421 486 394 462 394 401V390C385 434 354 438 327 438H281C238 438 204 424 204 343V232H213V343C213 413 242 429 278 429H327C361 429 392 422 392 350V291Z" glyph-name="threesuperior" horiz-adv-x="798" unicode="&#179;" /><glyph d="M137 478C140 451 137 427 129 376L127 360L123 332C117 287 115 263 118 240H129C125 262 126 286 133 330L137 358L139 374C147 425 150 451 147 478Z" glyph-name="tilde" horiz-adv-x="262" unicode="&#732;" /><glyph d="M451 409H156C150 409 147 413 147 417V424C147 429 149 433 154 437L283 529C291 534 293 538 293 545V547C293 556 289 559 282 564L154 655C149 659 147 663 147 668V675C147 680 150 683 156 683H451V693H156C144 693 137 685 137 675V668C137 661 139 653 148 647L276 556C279 553 283 552 283 547V545C283 542 281 540 277 537L148 445C139 439 137 431 137 424V417C137 408 144 399 156 399H451ZM137 -34H147V101H451V111H147V249H137Z" glyph-name="trademark" horiz-adv-x="593" unicode="&#8482;" /><glyph d="M390 511 462 224C472 183 495 169 544 169H702V570H692V178H544C499 178 481 189 471 228L399 515C393 537 374 550 343 550H249C182 550 162 511 162 443V170H172V443C172 503 188 540 249 540H343C368 540 385 529 390 511Z" glyph-name="two" horiz-adv-x="872" unicode="2" /><glyph d="M421 275C431 244 445 234 481 234H594V486H585V243H481C450 243 439 251 430 278L374 445C368 462 356 472 333 472H267C218 472 204 444 204 394V249H213V394C213 436 224 462 267 462H333C350 462 361 454 366 443Z" glyph-name="twosuperior" horiz-adv-x="798" unicode="&#178;" /><glyph d="M165 163H582C663 163 717 203 717 350C717 503 663 546 582 546H165V536H582C657 536 707 495 707 350C707 211 657 173 582 173H165Z" glyph-name="u" horiz-adv-x="859" unicode="u" /><glyph d="M141 260H151L121 499H111ZM358 170H735C816 170 870 210 870 357C870 510 816 553 735 553H358V543H735C810 543 860 502 860 357C860 218 810 180 735 180H358Z" glyph-name="uacute" horiz-adv-x="1020" unicode="&#250;" /><glyph d="M97 494H106C142 494 176 467 176 359C176 251 142 229 106 229H97V219H106C144 219 186 235 186 359C186 483 144 504 106 504H97ZM374 170H751C832 170 886 210 886 357C886 510 832 553 751 553H374V543H751C826 543 876 502 876 357C876 218 826 180 751 180H374Z" glyph-name="ubreve" horiz-adv-x="1036" unicode="&#365;" /><glyph d="M144 478H133L106 395C103 383 100 374 100 359C100 344 103 335 106 323L133 240H144L116 327C113 337 110 346 110 359C110 372 113 381 116 391ZM364 170H741C822 170 876 210 876 357C876 510 822 553 741 553H364V543H741C816 543 866 502 866 357C866 218 816 180 741 180H364Z" glyph-name="ucircumflex" horiz-adv-x="1026" unicode="&#251;" /><glyph d="M159 492H112V482H159ZM159 234H112V224H159ZM359 170H736C817 170 871 210 871 357C871 510 817 553 736 553H359V543H736C811 543 861 502 861 357C861 218 811 180 736 180H359Z" glyph-name="udieresis" horiz-adv-x="1021" unicode="&#252;" /><glyph d="M121 240 151 479H141L111 240ZM358 170H735C816 170 870 210 870 357C870 510 816 553 735 553H358V543H735C810 543 860 502 860 357C860 218 810 180 735 180H358Z" glyph-name="ugrave" horiz-adv-x="1020" unicode="&#249;" /><glyph d="M224 512 127 537V526L224 501ZM224 252 127 277V266L224 241ZM444 170H821C902 170 956 210 956 357C956 510 902 553 821 553H444V543H821C896 543 946 502 946 357C946 218 896 180 821 180H444Z" glyph-name="uhungarumlaut" horiz-adv-x="1106" unicode="&#369;" /><glyph d="M120 240H130V479H120ZM337 170H714C795 170 849 210 849 357C849 510 795 553 714 553H337V543H714C789 543 839 502 839 357C839 218 789 180 714 180H337Z" glyph-name="umacron" horiz-adv-x="999" unicode="&#363;" /><glyph d="M168 567V153H178V567Z" glyph-name="underscore" horiz-adv-x="346" unicode="_" /><glyph d="M305 688C201 688 105 659 105 360C105 61 201 31 305 31H723C836 31 921 79 921 360C921 641 826 688 723 688ZM911 360C911 95 832 41 723 41H305C205 41 115 75 115 360C115 645 205 678 305 678H723C822 678 911 625 911 360ZM309 238H700V248H559V395C559 487 519 504 462 504H409C352 504 309 487 309 395ZM319 395C319 483 358 494 409 494H462C512 494 549 483 549 395V248H319Z" glyph-name="uni2117" horiz-adv-x="1025" unicode="&#8471;" /><glyph d="M706 460H560L633 568ZM308 117H515C593 117 639 170 639 252V450H724L633 586L542 450H629V252C629 176 587 127 515 127H308C236 127 188 176 188 260V535H178V260C178 168 230 117 308 117Z" glyph-name="uni21AA" horiz-adv-x="1000" unicode="&#8618;" /><glyph d="M633 155 724 291H639V489C639 571 593 624 515 624H308C230 624 178 573 178 481V206H188V481C188 565 236 614 308 614H515C587 614 629 565 629 489V291H542ZM706 281 633 173 560 281Z" glyph-name="uni21AB" horiz-adv-x="1000" unicode="&#8619;" /><glyph d="M-10 -180V119C-10 543 231 823 760 823H1178V1007C1178 1011 1179 1013 1183 1013C1189 1013 1198 1005 1206 996L1722 447C1735 433 1744 421 1744 407C1744 394 1736 382 1722 367L1206 -173C1199 -180 1190 -190 1184 -190C1180 -190 1178 -188 1178 -184V-17H1101C1036 -17 1010 -45 1010 -121V-180H1020V-121C1020 -53 1042 -27 1101 -27H1168V-184C1168 -193 1175 -200 1184 -200C1197 -200 1205 -189 1214 -181L1730 361C1746 378 1754 392 1754 407C1754 423 1745 437 1730 453L1214 1002C1206 1011 1193 1023 1183 1023C1174 1023 1168 1016 1168 1007V833H760C223 833 -20 549 -20 119V-180Z" glyph-name="uni21AB.arrow" horiz-adv-x="1734" /><glyph d="M-67 871H232C656 871 936 630 936 101V-317H1120C1124 -317 1126 -318 1126 -322C1126 -328 1118 -337 1109 -345L560 -861C546 -874 534 -883 520 -883C507 -883 495 -875 480 -861L-60 -345C-67 -338 -77 -329 -77 -323C-77 -319 -75 -317 -71 -317H96V-240C96 -175 68 -149 -8 -149H-67V-159H-8C60 -159 86 -181 86 -240V-307H-71C-80 -307 -87 -314 -87 -323C-87 -336 -76 -344 -68 -353L474 -869C491 -885 505 -893 520 -893C536 -893 550 -884 566 -869L1115 -353C1124 -345 1136 -332 1136 -322C1136 -313 1129 -307 1120 -307H946V101C946 638 662 881 232 881H-67Z" glyph-name="uni21AB.v_arrow" horiz-adv-x="1189" /><glyph d="M1010 -180H1020V119C1020 549 777 833 240 833H-168V1007C-168 1016 -174 1023 -183 1023C-193 1023 -206 1011 -214 1002L-730 453C-745 437 -754 423 -754 407C-754 392 -746 378 -730 361L-214 -181C-205 -189 -197 -200 -184 -200C-175 -200 -168 -193 -168 -184V-27H-101C-42 -27 -20 -53 -20 -121V-180H-10V-121C-10 -45 -36 -17 -101 -17H-178V-184C-178 -188 -180 -190 -184 -190C-190 -190 -199 -180 -206 -173L-722 367C-736 382 -744 394 -744 407C-744 421 -735 433 -722 447L-206 996C-198 1005 -189 1013 -183 1013C-179 1013 -178 1011 -178 1007V823H240C769 823 1010 543 1010 119Z" glyph-name="uni21AC.arrow" horiz-adv-x="266" /><glyph d="M-67 -149V-159H232C662 -159 946 84 946 621V1029H1120C1129 1029 1136 1035 1136 1044C1136 1054 1124 1067 1115 1075L566 1591C550 1606 536 1615 520 1615C505 1615 491 1607 474 1591L-68 1075C-76 1066 -87 1058 -87 1045C-87 1036 -80 1029 -71 1029H86V962C86 903 60 881 -8 881H-67V871H-8C68 871 96 897 96 962V1039H-71C-75 1039 -77 1041 -77 1045C-77 1051 -67 1060 -60 1067L480 1583C495 1597 507 1605 520 1605C534 1605 546 1596 560 1583L1109 1067C1118 1059 1126 1050 1126 1044C1126 1040 1124 1039 1120 1039H936V621C936 92 656 -149 232 -149Z" glyph-name="uni21AC.v_arrow" horiz-adv-x="1189" /><glyph d="M436 155 527 291H440V460C440 536 482 585 554 585H771V595H554C476 595 430 542 430 460V291H345ZM509 281 436 173 363 281Z" glyph-name="uni21B0" horiz-adv-x="1020" unicode="&#8624;" /><glyph d="M554 127H771V137H554C482 137 440 186 440 262V431H527L436 567L345 431H430V262C430 180 476 127 554 127ZM509 441H363L436 549Z" glyph-name="uni21B1" horiz-adv-x="1020" unicode="&#8625;" /><glyph d="M585 155 676 291H591V460C591 542 545 595 467 595H250V585H467C539 585 581 536 581 460V291H494ZM658 281 585 173 512 281Z" glyph-name="uni21B2" horiz-adv-x="1020" unicode="&#8626;" /><glyph d="M258 107H475C553 107 599 160 599 242V411H684L593 547L502 411H589V242C589 166 547 117 475 117H258ZM666 421H520L593 529Z" glyph-name="uni21B3" horiz-adv-x="1020" unicode="&#8627;" /><glyph d="M793 871V881H747C442 881 227 666 227 361C227 56 442 -159 747 -159H793V-149H747C448 -149 237 62 237 361C237 660 448 871 747 871Z" glyph-name="uni25D6" horiz-adv-x="1000" unicode="&#9686;" /><glyph d="M-10 575H-20V491C-20 479 -16 475 -4 475H40V455C40 389 94 335 160 335H180V291C180 279 184 275 196 275H804C816 275 820 279 820 291V335H840C906 335 960 389 960 455V475H1004C1016 475 1020 479 1020 491V575H1010V491C1010 487 1008 485 1004 485H950V455C950 395 900 345 840 345H810V291C810 287 808 285 804 285H196C192 285 190 287 190 291V345H160C100 345 50 395 50 455V485H-4C-8 485 -10 487 -10 491Z" glyph-name="uni25D6.bevel" horiz-adv-x="1000" /><glyph d="M500 150C777 150 892 215 910 323L913 340H930C996 340 1050 394 1050 460V480H1094C1106 480 1110 484 1110 496V574C1110 586 1106 590 1094 590H-94C-106 590 -110 586 -110 574V496C-110 484 -106 480 -94 480H-50V460C-50 394 4 340 70 340H87L90 323C108 215 223 150 500 150ZM500 160C235 160 118 219 100 325L95 350H70C10 350 -40 400 -40 460V490H-94C-98 490 -100 492 -100 496V574C-100 578 -98 580 -94 580H1094C1098 580 1100 578 1100 574V496C1100 492 1098 490 1094 490H1040V460C1040 400 990 350 930 350H905L904 346L900 325C882 219 765 160 500 160Z" glyph-name="uni25D6.deco" horiz-adv-x="1000" /><glyph d="M-10 575H-20V510C-20 363 100 275 500 275C900 275 1020 363 1020 510V575H1010V510C1010 365 883 285 500 285C117 285 -10 365 -10 510Z" glyph-name="uni25D6.rounded" horiz-adv-x="1000" /><glyph d="M759 417C740 424 713 422 697 408L508 251C504 247 496 247 492 251L303 408C287 422 261 424 242 417L-25 312C-28 310 -32 309 -31 314L-14 461C-10 496 -10 502 -10 523V575H-20V523C-20 502 -20 496 -24 463L-41 316C-42 301 -40 296 -21 302L246 407C261 414 283 412 297 400L486 243C494 237 506 237 514 243L703 400C717 412 739 413 754 407L1025 300C1037 295 1044 301 1042 311L1024 463C1020 496 1020 502 1020 523V575H1010V523C1010 502 1010 496 1014 461L1031 318C1032 310 1031 309 1029 310Z" glyph-name="uni25D6.spike" horiz-adv-x="1000" /><glyph d="M-10 575H-20V349C-20 320 -5 305 24 305H976C1005 305 1020 320 1020 349V575H1010V349C1010 326 999 315 976 315H24C1 315 -10 326 -10 349Z" glyph-name="uni25D6.square" horiz-adv-x="1000" /><glyph d="M390 881H306C294 881 290 877 290 865V821H270C204 821 150 767 150 701V681H106C94 681 90 677 90 665V57C90 45 94 41 106 41H150V21C150 -45 204 -99 270 -99H290V-143C290 -155 294 -159 306 -159H390V-149H306C302 -149 300 -147 300 -143V-89H270C210 -89 160 -39 160 21V51H106C102 51 100 53 100 57V665C100 669 102 671 106 671H160V701C160 761 210 811 270 811H300V865C300 869 302 871 306 871H390Z" glyph-name="uni25D6.v_bevel" horiz-adv-x="350" /><glyph d="M416 -249H494C506 -249 510 -245 510 -233V955C510 967 506 971 494 971H416C404 971 400 967 400 955V911H380C314 911 260 857 260 791V774L243 771C135 753 70 638 70 361C70 84 135 -31 243 -49L260 -52V-69C260 -135 314 -189 380 -189H400V-233C400 -245 404 -249 416 -249ZM494 -239H416C412 -239 410 -237 410 -233V-179H380C320 -179 270 -129 270 -69V-44L266 -43L245 -39C139 -21 80 96 80 361C80 626 139 743 245 761L270 766V791C270 851 320 901 380 901H410V955C410 959 412 961 416 961H494C498 961 500 959 500 955V-233C500 -237 498 -239 494 -239Z" glyph-name="uni25D6.v_deco" horiz-adv-x="560" /><glyph d="M390 871V881H325C178 881 90 761 90 361C90 -39 178 -159 325 -159H390V-149H325C180 -149 100 -22 100 361C100 744 180 871 325 871Z" glyph-name="uni25D6.v_rounded" horiz-adv-x="350" /><glyph d="M232 102C239 121 237 148 223 164L66 353C62 357 62 365 66 369L223 558C237 574 239 600 232 619L127 886C125 889 124 893 129 892L276 875C311 871 317 871 338 871H390V881H338C317 881 311 881 278 885L131 902C116 903 111 901 117 882L222 615C229 600 227 578 215 564L58 375C52 367 52 355 58 347L215 158C227 144 228 122 222 107L115 -164C110 -176 116 -183 126 -181L278 -163C311 -159 317 -159 338 -159H390V-149H338C317 -149 311 -149 276 -153L133 -170C125 -171 124 -170 125 -168Z" glyph-name="uni25D6.v_spike" horiz-adv-x="350" /><glyph d="M390 -149H164C141 -149 130 -138 130 -115V837C130 860 141 871 164 871H390V881H164C135 881 120 866 120 837V-115C120 -144 135 -159 164 -159H390Z" glyph-name="uni25D6.v_square" horiz-adv-x="350" /><glyph d="M940 871V881H897C787 881 724 937 724 1055C724 1067 720 1071 708 1071H232C220 1071 216 1067 216 1055V881H56C44 881 40 877 40 865V-143C40 -155 44 -159 56 -159H216V-333C216 -345 220 -349 232 -349H708C720 -349 724 -345 724 -333C724 -215 790 -159 904 -159H940V-149H904C784 -149 714 -209 714 -333C714 -337 712 -339 708 -339H232C228 -339 226 -337 226 -333V-149H56C52 -149 50 -147 50 -143V865C50 869 52 871 56 871H226V1055C226 1059 228 1061 232 1061H708C712 1061 714 1059 714 1055C714 931 781 871 897 871Z" glyph-name="uni25D6.v_wings" horiz-adv-x="900" /><glyph d="M-10 850H-20V807C-20 697 -76 634 -194 634C-206 634 -210 630 -210 618V142C-210 130 -206 126 -194 126H-20V-34C-20 -46 -16 -50 -4 -50H1004C1016 -50 1020 -46 1020 -34V126H1194C1206 126 1210 130 1210 142V618C1210 630 1206 634 1194 634C1076 634 1020 700 1020 814V850H1010V814C1010 694 1070 624 1194 624C1198 624 1200 622 1200 618V142C1200 138 1198 136 1194 136H1010V-34C1010 -38 1008 -40 1004 -40H-4C-8 -40 -10 -38 -10 -34V136H-194C-198 136 -200 138 -200 142V618C-200 622 -198 624 -194 624C-70 624 -10 691 -10 807Z" glyph-name="uni25D6.wings" horiz-adv-x="1000" /><glyph d="M207 871H253C552 871 763 660 763 361C763 62 552 -149 253 -149H207V-159H253C558 -159 773 56 773 361C773 666 558 881 253 881H207Z" glyph-name="uni25D7" horiz-adv-x="1000" unicode="&#9687;" /><glyph d="M-10 145V229C-10 233 -8 235 -4 235H50V265C50 325 100 375 160 375H190V429C190 433 192 435 196 435H804C808 435 810 433 810 429V375H840C900 375 950 325 950 265V235H1004C1008 235 1010 233 1010 229V145H1020V229C1020 241 1016 245 1004 245H960V265C960 331 906 385 840 385H820V429C820 441 816 445 804 445H196C184 445 180 441 180 429V385H160C94 385 40 331 40 265V245H-4C-16 245 -20 241 -20 229V145Z" glyph-name="uni25D7.bevel" horiz-adv-x="1000" /><glyph d="M-94 130H1094C1106 130 1110 134 1110 146V224C1110 236 1106 240 1094 240H1050V260C1050 326 996 380 930 380H913L910 397C892 505 777 570 500 570C223 570 108 505 90 397L87 380H70C4 380 -50 326 -50 260V240H-94C-106 240 -110 236 -110 224V146C-110 134 -106 130 -94 130ZM1094 140H-94C-98 140 -100 142 -100 146V224C-100 228 -98 230 -94 230H-40V260C-40 320 10 370 70 370H95L100 395C118 501 235 560 500 560C765 560 882 501 900 395L904 374L905 370H930C990 370 1040 320 1040 260V230H1094C1098 230 1100 228 1100 224V146C1100 142 1098 140 1094 140Z" glyph-name="uni25D7.deco" horiz-adv-x="1000" /><glyph d="M-10 145V210C-10 355 117 435 500 435C883 435 1010 355 1010 210V145H1020V210C1020 357 900 445 500 445C100 445 -20 357 -20 210V145Z" glyph-name="uni25D7.rounded" horiz-adv-x="1000" /><glyph d="M759 303 1029 410C1031 411 1032 410 1031 402L1014 259C1010 224 1010 218 1010 197V145H1020V197C1020 218 1020 224 1024 257L1042 409C1044 419 1037 425 1025 420L754 313C739 307 717 308 703 320L514 477C506 483 494 483 486 477L297 320C283 308 261 306 246 313L-21 418C-40 424 -42 419 -41 404L-24 257C-20 224 -20 218 -20 197V145H-10V197C-10 218 -10 224 -14 259L-31 406C-32 411 -28 410 -25 408L242 303C261 296 287 298 303 312L492 469C496 473 504 473 508 469L697 312C713 298 740 296 759 303Z" glyph-name="uni25D7.spike" horiz-adv-x="1000" /><glyph d="M-10 145V371C-10 394 1 405 24 405H976C999 405 1010 394 1010 371V145H1020V371C1020 400 1005 415 976 415H24C-5 415 -20 400 -20 371V145Z" glyph-name="uni25D7.square" horiz-adv-x="1000" /><glyph d="M-40 -159H44C56 -159 60 -155 60 -143V-99H80C146 -99 200 -45 200 21V41H244C256 41 260 45 260 57V665C260 677 256 681 244 681H200V701C200 767 146 821 80 821H60V865C60 877 56 881 44 881H-40V871H44C48 871 50 869 50 865V811H80C140 811 190 761 190 701V671H244C248 671 250 669 250 665V57C250 53 248 51 244 51H190V21C190 -39 140 -89 80 -89H50V-143C50 -147 48 -149 44 -149H-40Z" glyph-name="uni25D7.v_bevel" horiz-adv-x="350" /><glyph d="M66 -249H144C156 -249 160 -245 160 -233V-189H180C246 -189 300 -135 300 -69V-52L317 -49C425 -31 490 84 490 361C490 638 425 753 317 771L300 774V791C300 857 246 911 180 911H160V955C160 967 156 971 144 971H66C54 971 50 967 50 955V-233C50 -245 54 -249 66 -249ZM144 -239H66C62 -239 60 -237 60 -233V955C60 959 62 961 66 961H144C148 961 150 959 150 955V901H180C240 901 290 851 290 791V766L294 765L315 761C421 743 480 626 480 361C480 96 421 -21 315 -39L290 -44V-69C290 -129 240 -179 180 -179H150V-233C150 -237 148 -239 144 -239Z" glyph-name="uni25D7.v_deco" horiz-adv-x="560" /><glyph d="M-40 871H25C170 871 250 744 250 361C250 -22 170 -149 25 -149H-40V-159H25C172 -159 260 -39 260 361C260 761 172 881 25 881H-40Z" glyph-name="uni25D7.v_rounded" horiz-adv-x="350" /><glyph d="M118 102 225 -168C226 -170 225 -171 217 -170L74 -153C39 -149 33 -149 12 -149H-40V-159H12C33 -159 39 -159 72 -163L224 -181C234 -183 240 -176 235 -164L128 107C122 122 123 144 135 158L292 347C298 355 298 367 292 375L135 564C123 578 121 600 128 615L233 882C239 901 234 903 219 902L72 885C39 881 33 881 12 881H-40V871H12C33 871 39 871 74 875L221 892C226 893 225 889 223 886L118 619C111 600 113 574 127 558L284 369C288 365 288 357 284 353L127 164C113 148 111 121 118 102Z" glyph-name="uni25D7.v_spike" horiz-adv-x="350" /><glyph d="M-40 -149V-159H186C215 -159 230 -144 230 -115V837C230 866 215 881 186 881H-40V871H186C209 871 220 860 220 837V-115C220 -138 209 -149 186 -149Z" glyph-name="uni25D7.v_square" horiz-adv-x="350" /><glyph d="M-40 871H3C119 871 186 931 186 1055C186 1059 188 1061 192 1061H668C672 1061 674 1059 674 1055V871H844C848 871 850 869 850 865V-143C850 -147 848 -149 844 -149H674V-333C674 -337 672 -339 668 -339H192C188 -339 186 -337 186 -333C186 -209 116 -149 -4 -149H-40V-159H-4C110 -159 176 -215 176 -333C176 -345 180 -349 192 -349H668C680 -349 684 -345 684 -333V-159H844C856 -159 860 -155 860 -143V865C860 877 856 881 844 881H684V1055C684 1067 680 1071 668 1071H192C180 1071 176 1067 176 1055C176 937 113 881 3 881H-40Z" glyph-name="uni25D7.v_wings" horiz-adv-x="900" /><glyph d="M-20 880V731C-20 135 275 -160 871 -160H1020V880ZM1010 -150H871C281 -150 -10 141 -10 731V870H1010Z" glyph-name="uni25DC" horiz-adv-x="1000" unicode="&#9692;" /><glyph d="M1020 880H871C275 880 -20 585 -20 -11V-160H1020ZM1010 -150H-10V-11C-10 579 281 870 871 870H1010Z" glyph-name="uni25DD" horiz-adv-x="1000" unicode="&#9693;" /><glyph d="M1020 -160V880H441C148 880 -20 712 -20 420V-160ZM1010 870V-150H-10V420C-10 706 154 870 441 870Z" glyph-name="uni25DD.curve" horiz-adv-x="1000" /><glyph d="M1020 -160V-11C1020 585 725 880 129 880H-20V-160ZM1010 -150H-10V870H129C719 870 1010 579 1010 -11Z" glyph-name="uni25DE" horiz-adv-x="1000" unicode="&#9694;" /><glyph d="M-20 -160H129C725 -160 1020 135 1020 731V880H-20ZM129 -150H-10V870H1010V731C1010 141 719 -150 129 -150Z" glyph-name="uni25DF" horiz-adv-x="1000" unicode="&#9695;" /><glyph glyph-name="uni261A" horiz-adv-x="1000" unicode="&#9754;" /><glyph glyph-name="uni261A.salt" horiz-adv-x="1019" /><glyph glyph-name="uni261B" horiz-adv-x="1000" unicode="&#9755;" /><glyph glyph-name="uni261B.salt" horiz-adv-x="1019" /><glyph glyph-name="uni261C" horiz-adv-x="1000" unicode="&#9756;" /><glyph glyph-name="uni261C.salt" horiz-adv-x="1022" /><glyph glyph-name="uni261D" horiz-adv-x="1000" unicode="&#9757;" /><glyph glyph-name="uni261D.salt" horiz-adv-x="1022" /><glyph glyph-name="uni261E" horiz-adv-x="999" unicode="&#9758;" /><glyph glyph-name="uni261E.salt" horiz-adv-x="999" /><glyph glyph-name="uni261F" horiz-adv-x="999" unicode="&#9759;" /><glyph glyph-name="uni261F.salt" horiz-adv-x="999" /><glyph d="M-10 -130V-87C-10 29 -70 96 -194 96C-198 96 -200 98 -200 102V578C-200 582 -198 584 -194 584H-10V754C-10 758 -8 760 -4 760H1004C1008 760 1010 758 1010 754V584H1194C1198 584 1200 582 1200 578V102C1200 98 1198 96 1194 96C1070 96 1010 26 1010 -94V-130H1020V-94C1020 20 1076 86 1194 86C1206 86 1210 90 1210 102V578C1210 590 1206 594 1194 594H1020V754C1020 766 1016 770 1004 770H-4C-16 770 -20 766 -20 754V594H-194C-206 594 -210 590 -210 578V102C-210 90 -206 86 -194 86C-76 86 -20 23 -20 -87V-130Z" glyph-name="uni26D7.wings" horiz-adv-x="1000" /><glyph d="M-10 -5V72H-181C-202 72 -214 90 -214 109C-214 132 -200 157 -173 178L407 614C435 636 467 646 499 646C531 646 563 636 591 614L1171 178C1198 158 1212 132 1212 109C1212 90 1200 72 1179 72H1010V-5H1020V62H1179C1206 62 1222 84 1222 109C1222 134 1208 164 1177 186L597 622C567 646 533 656 499 656C465 656 431 646 401 622L-179 186C-210 163 -224 134 -224 109C-224 84 -208 62 -181 62H-20V-5Z" glyph-name="uni27A1" horiz-adv-x="998" unicode="&#10145;" /><glyph d="M159 869H236V1040C236 1061 254 1073 273 1073C296 1073 321 1059 342 1032L778 452C800 424 810 392 810 360C810 328 800 296 778 268L342 -312C322 -339 296 -353 273 -353C254 -353 236 -341 236 -320V-151H159V-161H226V-320C226 -347 248 -363 273 -363C298 -363 328 -349 350 -318L786 262C810 292 820 326 820 360C820 394 810 428 786 458L350 1038C327 1069 298 1083 273 1083C248 1083 226 1067 226 1040V879H159Z" glyph-name="uni27A1.n" horiz-adv-x="1000" /><glyph d="M841 -149H764V-320C764 -341 746 -353 727 -353C704 -353 679 -339 658 -312L222 268C200 296 190 328 190 360C190 392 200 424 222 452L658 1032C678 1059 704 1073 727 1073C746 1073 764 1061 764 1040V871H841V881H774V1040C774 1067 752 1083 727 1083C702 1083 672 1069 650 1038L214 458C190 428 180 394 180 360C180 326 190 292 214 262L650 -318C673 -349 702 -363 727 -363C752 -363 774 -347 774 -320V-159H841Z" glyph-name="uni27A1.s" horiz-adv-x="1000" /><glyph d="M-10 724H-20V657H-181C-208 657 -224 635 -224 610C-224 585 -210 556 -179 533L401 97C431 73 465 63 499 63C533 63 567 73 597 97L1177 533C1208 555 1222 585 1222 610C1222 635 1206 657 1179 657H1020V724H1010V647H1179C1200 647 1212 629 1212 610C1212 587 1198 561 1171 541L591 105C563 83 531 73 499 73C467 73 435 83 407 105L-173 541C-200 562 -214 587 -214 610C-214 629 -202 647 -181 647H-10Z" glyph-name="uni27A1.w" horiz-adv-x="998" /><glyph d="M1020 -160V880H-20V-160ZM1010 870V-150H-10V870Z" glyph-name="uni2B1B" horiz-adv-x="1000" unicode="&#11035;" /><glyph d="M1020 -247V755C1020 769 1014 776 997 783L523 972C510 976 493 976 480 972L3 783C-14 776 -20 769 -20 755V-243C-20 -255 -16 -262 -7 -259L500 -58L1008 -259C1015 -262 1020 -259 1020 -247ZM500 -47H498L-10 -249V755C-10 765 -2 770 7 773L484 962C495 966 508 966 519 962L993 773C1002 770 1010 765 1010 755V-248Z" glyph-name="uni2B1B.chevron_e" horiz-adv-x="1000" /><glyph d="M1104 877H102C88 877 81 871 74 854L-115 380C-119 367 -119 350 -115 337L74 -140C81 -157 88 -163 102 -163H1100C1112 -163 1119 -159 1116 -150L915 357L1116 865C1119 872 1116 877 1104 877ZM904 357V355L1106 -153H102C92 -153 87 -145 84 -136L-105 341C-109 352 -109 365 -105 376L84 850C87 859 92 867 102 867H1105Z" glyph-name="uni2B1B.chevron_n" horiz-adv-x="1000" /><glyph d="M-114 -163H888C902 -163 909 -157 916 -140L1105 334C1109 347 1109 364 1105 377L916 854C909 871 902 877 888 877H-110C-122 877 -129 873 -126 864L75 357L-126 -151C-129 -158 -126 -163 -114 -163ZM86 357V359L-116 867H888C898 867 903 859 906 850L1095 373C1099 362 1099 349 1095 338L906 -136C903 -145 898 -153 888 -153H-115Z" glyph-name="uni2B1B.chevron_s" horiz-adv-x="986" /><glyph d="M1020 971C1020 983 1015 986 1008 983L500 782L-7 983C-16 986 -20 979 -20 967V-31C-20 -45 -14 -52 3 -59L480 -248C493 -252 510 -252 523 -248L997 -59C1014 -52 1020 -45 1020 -31ZM500 771 1010 972V-31C1010 -41 1002 -46 993 -49L519 -238C508 -242 495 -242 484 -238L7 -49C-2 -46 -10 -41 -10 -31V973L498 771Z" glyph-name="uni2B1B.chevron_w" horiz-adv-x="1000" /><glyph d="M-10 725H-20V70C-20 57 -9 53 5 58L500 255L507 252L991 60C1004 55 1020 56 1020 70V725H1010V70C1010 62 996 69 995 70L511 262L500 266H498L1 68C-1 67 -10 63 -10 70Z" glyph-name="uni2B1B.semichevron_e" horiz-adv-x="1000" /><glyph d="M845 -150H192C187 -150 187 -141 188 -139L386 360L190 855C187 863 188 870 196 870H845V880H196C178 880 175 864 180 851L375 360L178 -135C174 -145 179 -160 192 -160H845Z" glyph-name="uni2B1B.semichevron_n" horiz-adv-x="1000" /><glyph d="M155 -150V-160H810C823 -160 827 -149 822 -135L625 360L820 851C825 864 824 880 810 880H155V870H808C816 870 813 863 810 855L614 360L812 -139C813 -141 817 -150 810 -150Z" glyph-name="uni2B1B.semichevron_s" horiz-adv-x="1000" /><glyph d="M-10 -6V649C-10 656 -1 652 1 651L498 453H500L511 457L995 649C996 650 1010 657 1010 649V-6H1020V649C1020 663 1004 664 991 659L507 467L500 464L5 661C-9 666 -20 662 -20 649V-6Z" glyph-name="uni2B1B.semichevron_w" horiz-adv-x="1000" /><glyph d="M-20 -160H1020V776L-20 982ZM-10 970 1010 768V-150H-10Z" glyph-name="uni2B1B.trapezoid_e" horiz-adv-x="1000" /><glyph d="M-20 882V-260L1020 -54V882ZM-10 -248V872H1010V-46Z" glyph-name="uni2B1B.trapezoid_w" horiz-adv-x="1000" /><glyph d="M510 -190C833 -190 1060 37 1060 360C1060 683 833 910 510 910C187 910 -40 683 -40 360C-40 37 187 -190 510 -190ZM510 900C827 900 1050 677 1050 360C1050 43 827 -180 510 -180C193 -180 -30 43 -30 360C-30 677 193 900 510 900Z" glyph-name="uni2B24" horiz-adv-x="1020" unicode="&#11044;" /><glyph d="M824 879 823 880H176L175 879C26 750 -50 555 -50 360C-50 165 26 -30 175 -159L176 -160H824L825 -159C974 -33 1050 166 1050 363C1050 559 976 755 824 879ZM-40 360C-40 552 34 743 180 870H819C968 748 1040 554 1040 363C1040 169 966 -26 820 -150H180C34 -24 -40 167 -40 360Z" glyph-name="uni2B24.salt" horiz-adv-x="1000" /><glyph d="M157 170H534C615 170 669 210 669 357C669 510 615 553 534 553H157V543H534C609 543 659 502 659 357C659 218 609 180 534 180H157ZM874 410H864V386C864 345 841 340 801 345L716 357C687 361 682 365 668 390L660 384C676 356 684 352 716 347L799 335C849 327 874 337 874 386Z" glyph-name="uogonek" horiz-adv-x="961" unicode="&#371;" /><glyph d="M235 219C295 219 335 241 335 360C335 479 295 503 235 503H180C121 503 79 479 79 360C79 241 120 219 180 219ZM89 360C89 467 125 493 180 493H235C291 493 325 467 325 360C325 253 291 229 235 229H180C124 229 89 253 89 360ZM525 170H902C983 170 1037 210 1037 357C1037 510 983 553 902 553H525V543H902C977 543 1027 502 1027 357C1027 218 977 180 902 180H525Z" glyph-name="uring" horiz-adv-x="1187" unicode="&#367;" /><glyph d="M137 478C140 451 137 427 129 376L127 360L123 332C117 287 115 263 118 240H129C125 262 126 286 133 330L137 358L139 374C147 425 150 451 147 478ZM348 170H725C806 170 860 210 860 357C860 510 806 553 725 553H348V543H725C800 543 850 502 850 357C850 218 800 180 725 180H348Z" glyph-name="utilde" horiz-adv-x="1010" unicode="&#361;" /><glyph d="M370 164C407 164 438 170 467 181L630 250C669 266 697 278 697 322V399C697 445 668 457 631 472L467 536C438 547 407 553 370 553H157V543H370C406 543 436 537 463 527L627 463C661 450 687 439 687 399V322C687 285 661 274 626 259L463 190C436 180 406 174 370 174H157V164Z" glyph-name="v" horiz-adv-x="849" unicode="v" /><glyph d="M442 379V354C442 333 450 319 489 305L673 240C687 235 687 223 687 213V208C687 197 677 187 666 185L552 160C527 155 481 155 451 155H157V145H452C482 145 528 144 553 150L666 175C688 180 697 192 697 208V215C697 227 694 243 680 248L494 313C456 326 452 338 452 354V379C452 395 456 407 494 420L680 482C694 487 697 503 697 515V522C697 538 688 550 666 555L553 580C528 586 482 585 452 585H157V575H451C481 575 527 575 552 570L666 545C677 543 687 533 687 522V517C687 507 687 495 673 490L489 428C450 415 442 400 442 379Z" glyph-name="w" horiz-adv-x="854" unicode="w" /><glyph d="M141 250H151L121 489H111ZM603 379V354C603 333 611 319 650 305L834 240C848 235 848 223 848 213V208C848 197 838 187 827 185L713 160C688 155 642 155 612 155H358V145H613C643 145 689 144 714 150L827 175C849 180 858 192 858 208V215C858 227 855 243 841 248L655 313C617 326 613 338 613 354V379C613 395 617 407 655 420L841 482C855 487 858 503 858 515V522C858 538 849 550 827 555L714 580C689 586 643 585 613 585H358V575H612C642 575 688 575 713 570L827 545C838 543 848 533 848 522V517C848 507 848 495 834 490L650 428C611 415 603 400 603 379Z" glyph-name="wacute" horiz-adv-x="1015" unicode="&#7811;" /><glyph d="M144 478H133L106 395C103 383 100 374 100 359C100 344 103 335 106 323L133 240H144L116 327C113 337 110 346 110 359C110 372 113 381 116 391ZM609 379V354C609 333 617 319 656 305L840 240C854 235 854 223 854 213V208C854 197 844 187 833 185L719 160C694 155 648 155 618 155H364V145H619C649 145 695 144 720 150L833 175C855 180 864 192 864 208V215C864 227 861 243 847 248L661 313C623 326 619 338 619 354V379C619 395 623 407 661 420L847 482C861 487 864 503 864 515V522C864 538 855 550 833 555L720 580C695 586 649 585 619 585H364V575H618C648 575 694 575 719 570L833 545C844 543 854 533 854 522V517C854 507 854 495 840 490L656 428C617 415 609 400 609 379Z" glyph-name="wcircumflex" horiz-adv-x="1021" unicode="&#373;" /><glyph d="M159 502H112V492H159ZM159 244H112V234H159ZM604 379V354C604 333 612 319 651 305L835 240C849 235 849 223 849 213V208C849 197 839 187 828 185L714 160C689 155 643 155 613 155H359V145H614C644 145 690 144 715 150L828 175C850 180 859 192 859 208V215C859 227 856 243 842 248L656 313C618 326 614 338 614 354V379C614 395 618 407 656 420L842 482C856 487 859 503 859 515V522C859 538 850 550 828 555L715 580C690 586 644 585 614 585H359V575H613C643 575 689 575 714 570L828 545C839 543 849 533 849 522V517C849 507 849 495 835 490L651 428C612 415 604 400 604 379Z" glyph-name="wdieresis" horiz-adv-x="1016" unicode="&#7813;" /><glyph d="M121 240 151 479H141L111 240ZM603 379V354C603 333 611 319 650 305L834 240C848 235 848 223 848 213V208C848 197 838 187 827 185L713 160C688 155 642 155 612 155H358V145H613C643 145 689 144 714 150L827 175C849 180 858 192 858 208V215C858 227 855 243 841 248L655 313C617 326 613 338 613 354V379C613 395 617 407 655 420L841 482C855 487 858 503 858 515V522C858 538 849 550 827 555L714 580C689 586 643 585 613 585H358V575H612C642 575 688 575 713 570L827 545C838 543 848 533 848 522V517C848 507 848 495 834 490L650 428C611 415 603 400 603 379Z" glyph-name="wgrave" horiz-adv-x="1015" unicode="&#7809;" /><glyph d="M249 182 379 270C397 282 407 294 412 306C417 292 427 281 445 269L575 182C597 167 623 167 652 167H697V177H652C624 177 598 178 579 191L449 278C426 294 417 311 417 331V392C417 411 426 430 449 445L579 529C598 541 624 544 652 544H697V554H652C623 554 596 552 575 538L445 454C427 442 417 431 412 417C407 431 396 442 379 454L249 539C227 554 201 554 172 554H157V544H172C200 544 226 543 245 530L375 445C398 430 407 412 407 392V331C407 313 399 295 375 279L245 191C226 178 200 177 172 177H157V167H172C201 167 228 168 249 182Z" glyph-name="x" horiz-adv-x="854" unicode="x" /><glyph d="M157 167H272C301 167 328 168 349 182L479 269C510 290 521 313 521 342V355H697V365H521V376C521 407 509 429 479 450L349 540C328 554 301 555 272 555H157V545H272C300 545 326 544 345 531L475 441C502 423 511 401 511 376V342C511 319 502 296 475 278L345 191C325 178 300 177 272 177H157Z" glyph-name="y" horiz-adv-x="842" unicode="y" /><glyph d="M141 260H151L121 499H111ZM358 167H444C487 167 503 170 521 182L652 269C682 289 694 309 694 342V355H858V365H694V376C694 409 682 429 652 450L521 540C503 552 487 555 444 555H358V545H444C486 545 501 542 517 531L648 441C674 423 684 405 684 376V342C684 313 674 295 648 278L517 191C500 180 485 177 444 177H358Z" glyph-name="yacute" horiz-adv-x="1003" unicode="&#253;" /><glyph d="M364 167H450C493 167 509 170 527 182L658 269C688 289 700 309 700 342V355H864V365H700V376C700 409 688 429 658 450L527 540C509 552 493 555 450 555H364V545H450C492 545 507 542 523 531L654 441C680 423 690 405 690 376V342C690 313 680 295 654 278L523 191C506 180 491 177 450 177H364ZM144 478H133L106 395C103 383 100 374 100 359C100 344 103 335 106 323L133 240H144L116 327C113 337 110 346 110 359C110 372 113 381 116 391Z" glyph-name="ycircumflex" horiz-adv-x="1009" unicode="&#375;" /><glyph d="M159 497H112V487H159ZM159 239H112V229H159ZM359 167H445C488 167 504 170 522 182L653 269C683 289 695 309 695 342V355H859V365H695V376C695 409 683 429 653 450L522 540C504 552 488 555 445 555H359V545H445C487 545 502 542 518 531L649 441C675 423 685 405 685 376V342C685 313 675 295 649 278L518 191C501 180 486 177 445 177H359Z" glyph-name="ydieresis" horiz-adv-x="1004" unicode="&#255;" /><glyph d="M337 183 452 269C482 291 491 309 491 338V356H581V193H591V356H710V366H591V527H581V366H491V385C491 414 482 432 452 454L337 540C307 558 285 562 240 562H170V552H240C283 552 303 548 331 532L446 446C472 426 481 410 481 385V338C481 313 472 297 446 277L331 191C303 175 283 171 240 171H170V161H240C285 161 307 165 337 183Z" glyph-name="yen" horiz-adv-x="880" unicode="&#165;" /><glyph d="M121 240 151 479H141L111 240ZM358 167H444C487 167 503 170 521 182L652 269C682 289 694 309 694 342V355H858V365H694V376C694 409 682 429 652 450L521 540C503 552 487 555 444 555H358V545H444C486 545 501 542 517 531L648 441C674 423 684 405 684 376V342C684 313 674 295 648 278L517 191C500 180 485 177 444 177H358Z" glyph-name="ygrave" horiz-adv-x="1003" unicode="&#7923;" /><glyph d="M256 545C245 556 234 562 219 562H203C180 562 170 553 170 531V158H180V531C180 542 184 552 203 552H217C230 552 237 549 248 538L624 167C636 157 646 150 661 150H677C700 150 710 159 710 181V570H700V181C700 170 696 160 677 160H663C650 160 644 164 632 174Z" glyph-name="z" horiz-adv-x="880" unicode="z" /><glyph d="M141 260H151L121 499H111ZM444 545C434 557 422 562 407 562H391C368 562 358 553 358 531V158H368V531C368 542 372 552 391 552H405C418 552 426 550 436 538L772 167C784 157 794 150 809 150H825C848 150 858 159 858 181V570H848V181C848 170 844 160 825 160H811C798 160 792 164 780 174Z" glyph-name="zacute" horiz-adv-x="1028" unicode="&#378;" /><glyph d="M126 245H137L164 328C167 340 170 349 170 364C170 379 167 388 164 400L137 483H126L154 396C157 386 160 377 160 364C160 351 157 342 154 332ZM460 545C450 557 438 562 423 562H407C384 562 374 553 374 531V158H384V531C384 542 388 552 407 552H421C434 552 442 550 452 538L788 167C800 157 810 150 825 150H841C864 150 874 159 874 181V570H864V181C864 170 860 160 841 160H827C814 160 808 164 796 174Z" glyph-name="zcaron" horiz-adv-x="1044" unicode="&#382;" /><glyph d="M146 366H87V356H146ZM432 545C422 557 410 562 395 562H379C356 562 346 553 346 531V158H356V531C356 542 360 552 379 552H393C406 552 414 550 424 538L760 167C772 157 782 150 797 150H813C836 150 846 159 846 181V570H836V181C836 170 832 160 813 160H799C786 160 780 164 768 174Z" glyph-name="zdotaccent" horiz-adv-x="1016" unicode="&#380;" /><glyph d="M580 552H285C204 552 150 512 150 359C150 207 204 168 285 168H580C661 168 715 207 715 359C715 512 661 552 580 552ZM580 178H285C210 178 160 215 160 359C160 504 210 542 285 542H580C655 542 705 504 705 359C705 215 655 178 580 178Z" glyph-name="zero" horiz-adv-x="864" unicode="0" /></font>
</defs>
</svg>
