<?xml version="1.0" standalone="no"?><!DOCTYPE svg PUBLIC "-//W3C//DTD SVG 1.1//EN" "http://www.w3.org/Graphics/SVG/1.1/DTD/svg11.dtd" ><svg version="1.1" xmlns="http://www.w3.org/2000/svg"><defs><font horiz-adv-x="0" id="font"><font-face ascent="860" bbox="-606.4039 -914.4039 1942.4039 1634.4039" cap-height="720" descent="-140" font-family="Bungee" font-stretch="normal" font-style="normal" font-weight="500" units-per-em="1000" x-height="500" /><missing-glyph d="M900 -4V724C900 749 889 760 864 760H136C111 760 100 749 100 724V-4C100 -29 111 -40 136 -40H864C889 -40 900 -29 900 -4ZM120 -20V740H880V-20ZM870 -10V730H130V-10ZM850 10H150V710H850Z" horiz-adv-x="1000" /><glyph d="M170 303V272H560V303C560 339 554 369 544 396L475 559C460 594 449 620 412 620H314C274 620 263 594 250 560L186 396C176 369 170 339 170 303ZM330 510C335 522 341 527 349 527H374C382 527 388 522 393 510L440 358H283ZM560 90V262H170V90H160V303C160 340 166 371 177 400L241 564C256 601 268 630 314 630H412C456 630 468 602 484 563L553 400C564 371 570 340 570 303V90ZM273 36V176H450V36C450 11 462 0 489 0H640C665 0 676 11 676 36V300C676 340 664 390 637 460L550 687C542 710 526 720 500 720H231C204 720 188 710 180 687L93 460C66 390 54 340 54 300V36C54 11 65 0 90 0H237C262 0 273 11 273 36Z" glyph-name="A" horiz-adv-x="730" unicode="A" /><glyph d="M314 283V252H683V283C683 319 677 349 667 376L608 519C593 554 572 580 535 580H458C418 580 397 554 384 520L330 376C320 349 314 319 314 283ZM477 470C483 483 485 487 496 487H501C512 487 514 483 520 470L567 338H430ZM683 90V242H314V90H304V283C304 320 310 351 321 380L375 524C389 561 412 590 458 590H535C579 590 601 561 617 523L676 380C688 350 693 320 693 283V90ZM420 36V156H577V36C577 11 591 0 616 0H767C792 0 803 11 803 36V280C803 349 793 364 764 440L677 647C668 672 653 680 627 680H368C342 680 326 672 317 647L240 440C211 364 201 349 201 280V36C201 11 211 0 237 0H384C409 0 420 11 420 36Z" glyph-name="A.s_v" horiz-adv-x="1000" unicode="&#57926;" /><glyph d="M184 507V281H555V507C555 582 517 632 368 632C219 632 184 582 184 507ZM283 497C283 524 295 544 366 544C436 544 448 524 448 497V368H283ZM555 90V271H184V90H174V507C174 588 211 642 368 642C525 642 565 588 565 507V90ZM283 36V185H448V36C448 11 459 0 484 0H636C661 0 672 11 672 36V531C672 652 616 735 367 735C119 735 64 652 64 531V36C64 11 75 0 100 0H247C272 0 283 11 283 36Z" glyph-name="A.salt" horiz-adv-x="736" unicode="&#57600;" /><glyph d="M315 467V261H683V467C683 542 646 592 499 592C350 592 315 542 315 467ZM418 457C418 484 427 504 498 504C568 504 577 484 577 457V348H418ZM683 90V251H315V90H305V467C305 548 342 602 499 602C654 602 693 548 693 467V90ZM418 36V165H577V36C577 11 588 0 613 0H765C790 0 801 11 801 36V491C801 612 748 695 499 695C251 695 199 612 199 491V36C199 11 210 0 235 0H382C407 0 418 11 418 36Z" glyph-name="A.salt_s_v" horiz-adv-x="1000" unicode="&#57945;" /><glyph d="M315 507V281H683V507C683 582 646 632 499 632C350 632 315 582 315 507ZM419 498C419 525 427 545 498 545C568 545 576 525 576 498V369H419ZM683 90V271H315V90H305V507C305 588 342 642 499 642C654 642 693 588 693 507V90ZM419 37V186H576V37C576 12 587 0 612 0H764C789 0 800 12 800 37V532C800 653 748 736 499 736C251 736 200 653 200 532V37C200 12 211 0 236 0H383C408 0 419 12 419 37Z" glyph-name="A.salt_v" horiz-adv-x="1000" unicode="&#57837;" /><glyph d="M314 303V272H683V303C683 339 677 369 667 396L598 559C583 594 572 620 535 620H458C418 620 407 594 394 560L330 396C320 369 314 339 314 303ZM475 510C481 523 483 527 494 527H499C510 527 512 523 518 510L565 358H428ZM683 90V262H314V90H304V303C304 340 310 371 321 400L385 564C400 601 412 630 458 630H535C579 630 591 602 607 563L676 400C687 371 693 340 693 303V90ZM418 36V176H575V36C575 11 589 0 614 0H765C790 0 801 11 801 36V300C801 369 791 384 762 460L675 687C666 712 651 720 625 720H366C340 720 324 712 315 687L238 460C209 384 199 369 199 300V36C199 11 209 0 235 0H382C407 0 418 11 418 36Z" glyph-name="A.v" horiz-adv-x="1000" unicode="&#65313;" /><glyph d="M168 291V273H549V620H294C274 620 263 611 253 582L179 379C169 353 168 328 168 291ZM334 514C339 527 342 531 353 531H440V358H282ZM158 90V291C158 330 159 355 169 383L243 586C257 621 270 630 294 630H866V620H559V370H785V360H559V100H866V90H549V263H168V90ZM272 36V176H440V36C440 11 451 0 476 0H920C945 0 956 11 956 36V153C956 178 945 189 920 189H667V275H839C864 275 875 286 875 311V418C875 444 864 454 839 454H667V531H920C945 531 956 542 956 567V684C956 709 945 720 920 720H232C198 720 181 710 170 679L83 440C64 390 54 349 54 290V36C54 11 65 0 90 0H236C261 0 272 11 272 36Z" glyph-name="AE" horiz-adv-x="1005" unicode="&#198;" /><glyph d="M180 495V281H558V620H337C212 620 180 570 180 495ZM283 489C283 516 295 536 366 536H448V368H283ZM558 89V271H180V89H170V495C170 576 204 630 337 630H874V620H568V368H794V358H568V99H875V89ZM283 36V185H448V36C448 11 459 0 484 0H928C953 0 964 11 964 36V153C964 178 953 189 928 189H675V275H847C872 275 883 286 883 311V418C883 444 872 454 847 454H675V531H928C953 531 964 542 964 567V684C964 709 953 720 928 720H367C119 720 64 637 64 516V36C64 11 75 0 100 0H247C272 0 283 11 283 36Z" glyph-name="AE.salt" horiz-adv-x="1013" unicode="&#57653;" /><glyph d="M286 495V281H576V620H443C318 620 286 570 286 495ZM382 489C382 516 391 536 431 536H480V368H382ZM576 90V271H286V89H276V495C276 576 310 630 443 630H731V620H586V368H730V358H586V100H731V90ZM382 36V185H480V36C480 11 491 0 516 0H785C810 0 821 11 821 36V153C821 178 810 189 785 189H682V275H784C809 275 820 286 820 311V418C820 444 809 454 784 454H682V531H785C810 531 821 542 821 567V684C821 709 810 720 785 720H429C234 720 179 637 179 516V36C179 11 190 0 215 0H346C371 0 382 11 382 36Z" glyph-name="AE.salt_v" horiz-adv-x="1000" unicode="&#57892;" /><glyph d="M276 291V273H566V620H412C392 620 383 610 371 582L287 379C276 353 276 328 276 291ZM442 514C447 527 450 531 461 531H470V358H383ZM266 90V291C266 330 266 356 277 383L361 586C375 621 388 630 412 630H721V620H576V370H720V360H576V100H721V90H566V263H276V90ZM372 36V176H470V36C470 11 481 0 506 0H775C800 0 811 11 811 36V153C811 178 800 189 775 189H672V275H774C799 275 810 286 810 311V418C810 444 799 454 774 454H672V531H775C800 531 811 542 811 567V684C811 709 800 720 775 720H355C321 720 304 710 293 679L198 440C179 390 169 349 169 290V36C169 11 180 0 205 0H336C361 0 372 11 372 36Z" glyph-name="AE.v" horiz-adv-x="1000" unicode="&#57824;" /><glyph d="M170 303V272H560V303C560 339 554 369 544 396L475 559C460 594 449 620 412 620H314C274 620 263 594 250 560L186 396C176 369 170 339 170 303ZM330 510C335 522 341 527 349 527H374C382 527 388 522 393 510L440 358H283ZM560 90V262H170V90H160V303C160 340 166 371 177 400L241 564C256 601 268 630 314 630H412C456 630 468 602 484 563L553 400C564 371 570 340 570 303V90ZM273 36V176H450V36C450 11 462 0 489 0H640C665 0 676 11 676 36V300C676 340 664 390 637 460L550 687C542 710 526 720 500 720H231C204 720 188 710 180 687L93 460C66 390 54 340 54 300V36C54 11 65 0 90 0H237C262 0 273 11 273 36ZM538 796C563 799 574 807 574 832V928C574 951 563 964 540 961L191 918C166 915 155 907 155 882V786C155 763 166 750 189 753ZM245 847 484 877V867L245 837Z" glyph-name="Aacute" horiz-adv-x="730" unicode="&#193;" /><glyph d="M184 507V281H555V507C555 582 517 632 368 632C219 632 184 582 184 507ZM283 497C283 524 295 544 366 544C436 544 448 524 448 497V368H283ZM555 90V271H184V90H174V507C174 588 211 642 368 642C525 642 565 588 565 507V90ZM283 36V185H448V36C448 11 459 0 484 0H636C661 0 672 11 672 36V531C672 652 616 735 367 735C119 735 64 652 64 531V36C64 11 75 0 100 0H247C272 0 283 11 283 36ZM551 796C576 799 587 807 587 832V928C587 951 576 964 553 961L204 918C179 915 168 907 168 882V786C168 763 179 750 202 753ZM258 847 497 877V867L258 837Z" glyph-name="Aacute.salt" horiz-adv-x="736" unicode="&#57602;" /><glyph d="M673 756C698 759 709 767 709 792V888C709 911 698 924 675 921L326 878C301 875 290 867 290 842V746C290 723 301 710 324 713ZM380 807 619 837V827L380 797ZM315 467V261H683V467C683 542 646 592 499 592C350 592 315 542 315 467ZM418 457C418 484 427 504 498 504C568 504 577 484 577 457V348H418ZM683 90V251H315V90H305V467C305 548 342 602 499 602C654 602 693 548 693 467V90ZM418 36V165H577V36C577 11 588 0 613 0H765C790 0 801 11 801 36V491C801 612 748 695 499 695C251 695 199 612 199 491V36C199 11 210 0 235 0H382C407 0 418 11 418 36Z" glyph-name="Aacute.salt_v" horiz-adv-x="1000" unicode="&#57839;" /><glyph d="M314 283V252H683V283C683 319 677 349 667 376L608 519C593 554 572 580 535 580H458C418 580 397 554 384 520L330 376C320 349 314 319 314 283ZM477 470C483 483 485 487 496 487H501C512 487 514 483 520 470L567 338H430ZM683 90V242H314V90H304V283C304 320 310 351 321 380L375 524C389 561 412 590 458 590H535C579 590 601 561 617 523L676 380C688 350 693 320 693 283V90ZM420 36V156H577V36C577 11 591 0 616 0H767C792 0 803 11 803 36V280C803 349 793 364 764 440L677 647C668 672 653 680 627 680H368C342 680 326 672 317 647L240 440C211 364 201 349 201 280V36C201 11 211 0 237 0H384C409 0 420 11 420 36ZM674 756C699 759 710 767 710 792V888C710 911 699 924 676 921L327 878C302 875 291 867 291 842V746C291 723 302 710 325 713ZM381 807 620 837V827L381 797Z" glyph-name="Aacute.v" horiz-adv-x="1000" unicode="&#57739;" /><glyph d="M170 303V272H560V303C560 339 554 369 544 396L475 559C460 594 449 620 412 620H314C274 620 263 594 250 560L186 396C176 369 170 339 170 303ZM330 510C335 522 341 527 349 527H374C382 527 388 522 393 510L440 358H283ZM560 90V262H170V90H160V303C160 340 166 371 177 400L241 564C256 601 268 630 314 630H412C456 630 468 602 484 563L553 400C564 371 570 340 570 303V90ZM273 36V176H450V36C450 11 462 0 489 0H640C665 0 676 11 676 36V300C676 340 664 390 637 460L550 687C542 710 526 720 500 720H231C204 720 188 710 180 687L93 460C66 390 54 340 54 300V36C54 11 65 0 90 0H237C262 0 273 11 273 36ZM582 897V941C582 966 571 977 546 977H455C432 977 425 970 425 946V925C425 906 416 892 366 892C317 892 309 906 309 925V946C309 970 301 977 280 977H184C159 977 148 966 148 941V897C148 812 191 754 365 754C539 754 582 812 582 897ZM499 907H509V898C509 860 488 818 364 818C240 818 224 860 224 898V907H234V898C234 862 256 828 364 828C472 828 499 862 499 898Z" glyph-name="Abreve" horiz-adv-x="730" unicode="&#258;" /><glyph d="M184 507V281H555V507C555 582 517 632 368 632C219 632 184 582 184 507ZM283 497C283 524 295 544 366 544C436 544 448 524 448 497V368H283ZM555 90V271H184V90H174V507C174 588 211 642 368 642C525 642 565 588 565 507V90ZM283 36V185H448V36C448 11 459 0 484 0H636C661 0 672 11 672 36V531C672 652 616 735 367 735C119 735 64 652 64 531V36C64 11 75 0 100 0H247C272 0 283 11 283 36ZM585 897V941C585 966 574 977 549 977H458C435 977 428 970 428 946V925C428 906 419 892 369 892C320 892 312 906 312 925V946C312 970 304 977 283 977H187C162 977 151 966 151 941V897C151 812 194 754 368 754C542 754 585 812 585 897ZM502 907H512V898C512 860 491 818 367 818C243 818 227 860 227 898V907H237V898C237 862 259 828 367 828C475 828 502 862 502 898Z" glyph-name="Abreve.salt" horiz-adv-x="736" unicode="&#57608;" /><glyph d="M315 467V261H683V467C683 542 646 592 499 592C350 592 315 542 315 467ZM418 457C418 484 427 504 498 504C568 504 577 484 577 457V348H418ZM683 90V251H315V90H305V467C305 548 342 602 499 602C654 602 693 548 693 467V90ZM418 36V165H577V36C577 11 588 0 613 0H765C790 0 801 11 801 36V491C801 612 748 695 499 695C251 695 199 612 199 491V36C199 11 210 0 235 0H382C407 0 418 11 418 36ZM717 857V901C717 926 706 937 681 937H590C567 937 560 930 560 906V885C560 866 551 852 501 852C452 852 444 866 444 885V906C444 930 436 937 415 937H319C294 937 283 926 283 901V857C283 772 326 714 500 714C674 714 717 772 717 857ZM634 867H644V858C644 820 623 778 499 778C375 778 359 820 359 858V867H369V858C369 822 391 788 499 788C607 788 634 822 634 858Z" glyph-name="Abreve.salt_v" horiz-adv-x="1000" unicode="&#57845;" /><glyph d="M314 283V252H683V283C683 319 677 349 667 376L608 519C593 554 572 580 535 580H458C418 580 397 554 384 520L330 376C320 349 314 319 314 283ZM477 470C483 483 485 487 496 487H501C512 487 514 483 520 470L567 338H430ZM683 90V242H314V90H304V283C304 320 310 351 321 380L375 524C389 561 412 590 458 590H535C579 590 601 561 617 523L676 380C688 350 693 320 693 283V90ZM420 36V156H577V36C577 11 591 0 616 0H767C792 0 803 11 803 36V280C803 349 793 364 764 440L677 647C668 672 653 680 627 680H368C342 680 326 672 317 647L240 440C211 364 201 349 201 280V36C201 11 211 0 237 0H384C409 0 420 11 420 36ZM718 857V901C718 926 707 937 682 937H591C568 937 561 930 561 906V885C561 866 552 852 502 852C453 852 445 866 445 885V906C445 930 437 937 416 937H320C295 937 284 926 284 901V857C284 772 327 714 501 714C675 714 718 772 718 857ZM635 867H645V858C645 820 624 778 500 778C376 778 360 820 360 858V867H370V858C370 822 392 788 500 788C608 788 635 822 635 858Z" glyph-name="Abreve.v" horiz-adv-x="1000" unicode="&#57745;" /><glyph d="M170 303V272H560V303C560 339 554 369 544 396L475 559C460 594 449 620 412 620H314C274 620 263 594 250 560L186 396C176 369 170 339 170 303ZM330 510C335 522 341 527 349 527H374C382 527 388 522 393 510L440 358H283ZM560 90V262H170V90H160V303C160 340 166 371 177 400L241 564C256 601 268 630 314 630H412C456 630 468 602 484 563L553 400C564 371 570 340 570 303V90ZM273 36V176H450V36C450 11 462 0 489 0H640C665 0 676 11 676 36V300C676 340 664 390 637 460L550 687C542 710 526 720 500 720H231C204 720 188 710 180 687L93 460C66 390 54 340 54 300V36C54 11 65 0 90 0H237C262 0 273 11 273 36ZM582 897V941C582 966 571 977 546 977H455C432 977 425 970 425 946V925C425 906 416 892 366 892C317 892 309 906 309 925V946C309 970 301 977 280 977H184C159 977 148 966 148 941V897C148 812 191 754 365 754C539 754 582 812 582 897ZM499 907H509V898C509 860 488 818 364 818C240 818 224 860 224 898V907H234V898C234 862 256 828 364 828C472 828 499 862 499 898ZM487 1202 350 1169C326 1163 314 1158 314 1133V1027C314 1004 326 989 348 994L485 1027C509 1033 521 1038 521 1063V1169C521 1192 509 1207 487 1202ZM460 1104 373 1083V1093L460 1114Z" glyph-name="Abreveacute" horiz-adv-x="730" unicode="&#7854;" /><glyph d="M170 303V272H560V303C560 339 554 369 544 396L475 559C460 594 449 620 412 620H314C274 620 263 594 250 560L186 396C176 369 170 339 170 303ZM330 510C335 522 341 527 349 527H374C382 527 388 522 393 510L440 358H283ZM560 90V262H170V90H160V303C160 340 166 371 177 400L241 564C256 601 268 630 314 630H412C456 630 468 602 484 563L553 400C564 371 570 340 570 303V90ZM273 36V176H450V36C450 11 462 0 489 0H640C665 0 676 11 676 36V300C676 340 664 390 637 460L550 687C542 710 526 720 500 720H231C204 720 188 710 180 687L93 460C66 390 54 340 54 300V36C54 11 65 0 90 0H237C262 0 273 11 273 36ZM582 897V941C582 966 571 977 546 977H455C432 977 425 970 425 946V925C425 906 416 892 366 892C317 892 309 906 309 925V946C309 970 301 977 280 977H184C159 977 148 966 148 941V897C148 812 191 754 365 754C539 754 582 812 582 897ZM499 907H509V898C509 860 488 818 364 818C240 818 224 860 224 898V907H234V898C234 862 256 828 364 828C472 828 499 862 499 898ZM444 -240C469 -240 480 -229 480 -204V-77C480 -52 469 -41 444 -41H286C261 -41 250 -52 250 -77V-204C250 -229 261 -240 286 -240ZM370 -170H360V-111H370Z" glyph-name="Abrevedotbelow" horiz-adv-x="730" unicode="&#7862;" /><glyph d="M170 303V272H560V303C560 339 554 369 544 396L475 559C460 594 449 620 412 620H314C274 620 263 594 250 560L186 396C176 369 170 339 170 303ZM330 510C335 522 341 527 349 527H374C382 527 388 522 393 510L440 358H283ZM560 90V262H170V90H160V303C160 340 166 371 177 400L241 564C256 601 268 630 314 630H412C456 630 468 602 484 563L553 400C564 371 570 340 570 303V90ZM273 36V176H450V36C450 11 462 0 489 0H640C665 0 676 11 676 36V300C676 340 664 390 637 460L550 687C542 710 526 720 500 720H231C204 720 188 710 180 687L93 460C66 390 54 340 54 300V36C54 11 65 0 90 0H237C262 0 273 11 273 36ZM582 897V941C582 966 571 977 546 977H455C432 977 425 970 425 946V925C425 906 416 892 366 892C317 892 309 906 309 925V946C309 970 301 977 280 977H184C159 977 148 966 148 941V897C148 812 191 754 365 754C539 754 582 812 582 897ZM499 907H509V898C509 860 488 818 364 818C240 818 224 860 224 898V907H234V898C234 862 256 828 364 828C472 828 499 862 499 898ZM247 1202C225 1207 213 1192 213 1169V1063C213 1038 225 1033 249 1027L386 994C408 989 420 1004 420 1027V1133C420 1158 408 1163 384 1169ZM359 1093V1083L272 1104V1114Z" glyph-name="Abrevegrave" horiz-adv-x="730" unicode="&#7856;" /><glyph d="M170 303V272H560V303C560 339 554 369 544 396L475 559C460 594 449 620 412 620H314C274 620 263 594 250 560L186 396C176 369 170 339 170 303ZM330 510C335 522 341 527 349 527H374C382 527 388 522 393 510L440 358H283ZM560 90V262H170V90H160V303C160 340 166 371 177 400L241 564C256 601 268 630 314 630H412C456 630 468 602 484 563L553 400C564 371 570 340 570 303V90ZM273 36V176H450V36C450 11 462 0 489 0H640C665 0 676 11 676 36V300C676 340 664 390 637 460L550 687C542 710 526 720 500 720H231C204 720 188 710 180 687L93 460C66 390 54 340 54 300V36C54 11 65 0 90 0H237C262 0 273 11 273 36ZM582 897V941C582 966 571 977 546 977H455C432 977 425 970 425 946V925C425 906 416 892 366 892C317 892 309 906 309 925V946C309 970 301 977 280 977H184C159 977 148 966 148 941V897C148 812 191 754 365 754C539 754 582 812 582 897ZM499 907H509V898C509 860 488 818 364 818C240 818 224 860 224 898V907H234V898C234 862 256 828 364 828C472 828 499 862 499 898ZM469 1017C519 1024 550 1045 550 1104V1168C550 1235 510 1270 442 1270H274C261 1270 255 1264 255 1251V1178C255 1165 261 1159 274 1159H403C414 1159 422 1155 422 1145C422 1133 416 1130 403 1128L314 1114C301 1112 295 1106 297 1093L308 1014C310 1001 315 996 328 998ZM353 1055 352 1065 448 1079C468 1082 481 1093 481 1121V1171C481 1202 461 1210 441 1210H305V1220H441C466 1220 491 1210 491 1171V1121C491 1083 471 1073 450 1070Z" glyph-name="Abrevehookabove" horiz-adv-x="730" unicode="&#7858;" /><glyph d="M170 303V272H560V303C560 339 554 369 544 396L475 559C460 594 449 620 412 620H314C274 620 263 594 250 560L186 396C176 369 170 339 170 303ZM330 510C335 522 341 527 349 527H374C382 527 388 522 393 510L440 358H283ZM560 90V262H170V90H160V303C160 340 166 371 177 400L241 564C256 601 268 630 314 630H412C456 630 468 602 484 563L553 400C564 371 570 340 570 303V90ZM273 36V176H450V36C450 11 462 0 489 0H640C665 0 676 11 676 36V300C676 340 664 390 637 460L550 687C542 710 526 720 500 720H231C204 720 188 710 180 687L93 460C66 390 54 340 54 300V36C54 11 65 0 90 0H237C262 0 273 11 273 36ZM582 897V941C582 966 571 977 546 977H455C432 977 425 970 425 946V925C425 906 416 892 366 892C317 892 309 906 309 925V946C309 970 301 977 280 977H184C159 977 148 966 148 941V897C148 812 191 754 365 754C539 754 582 812 582 897ZM499 907H509V898C509 860 488 818 364 818C240 818 224 860 224 898V907H234V898C234 862 256 828 364 828C472 828 499 862 499 898ZM364 1024 380 1022C460 1010 474 1008 537 1027C560 1036 573 1043 573 1068V1169C573 1194 561 1202 537 1195C478 1177 474 1174 386 1187L364 1190L347 1192C267 1204 254 1206 191 1187C168 1178 155 1171 155 1146V1045C155 1020 167 1012 191 1019C244 1035 260 1039 336 1028ZM483 1101V1091C456 1088 430 1091 379 1099L363 1101L335 1105C291 1112 267 1113 245 1109V1120C268 1123 292 1121 337 1115L365 1111L381 1109C432 1101 456 1098 483 1101Z" glyph-name="Abrevetilde" horiz-adv-x="730" unicode="&#7860;" /><glyph d="M170 303V272H560V303C560 339 554 369 544 396L475 559C460 594 449 620 412 620H314C274 620 263 594 250 560L186 396C176 369 170 339 170 303ZM330 510C335 522 341 527 349 527H374C382 527 388 522 393 510L440 358H283ZM560 90V262H170V90H160V303C160 340 166 371 177 400L241 564C256 601 268 630 314 630H412C456 630 468 602 484 563L553 400C564 371 570 340 570 303V90ZM273 36V176H450V36C450 11 462 0 489 0H640C665 0 676 11 676 36V300C676 340 664 390 637 460L550 687C542 710 526 720 500 720H231C204 720 188 710 180 687L93 460C66 390 54 340 54 300V36C54 11 65 0 90 0H237C262 0 273 11 273 36ZM396 932C373 926 357 926 334 932L197 972C162 983 155 977 155 941V860C155 824 163 820 197 807L334 757C344 753 354 752 366 752C378 753 393 756 405 761L533 807C565 820 574 824 574 860V941C574 977 567 983 533 972ZM245 879 332 851C342 848 351 845 364 845C377 845 386 848 396 851L483 879V868L400 841C388 838 379 835 364 835C349 835 340 838 328 841L245 868Z" glyph-name="Acaron" horiz-adv-x="730" unicode="&#461;" /><glyph d="M170 303V272H560V303C560 339 554 369 544 396L475 559C460 594 449 620 412 620H314C274 620 263 594 250 560L186 396C176 369 170 339 170 303ZM330 510C335 522 341 527 349 527H374C382 527 388 522 393 510L440 358H283ZM560 90V262H170V90H160V303C160 340 166 371 177 400L241 564C256 601 268 630 314 630H412C456 630 468 602 484 563L553 400C564 371 570 340 570 303V90ZM273 36V176H450V36C450 11 462 0 489 0H640C665 0 676 11 676 36V300C676 340 664 390 637 460L550 687C542 710 526 720 500 720H231C204 720 188 710 180 687L93 460C66 390 54 340 54 300V36C54 11 65 0 90 0H237C262 0 273 11 273 36ZM333 797C356 803 372 803 395 797L532 757C567 746 574 752 574 788V869C574 905 566 909 532 922L395 972C385 976 375 977 363 977C351 976 336 973 324 968L196 922C164 909 155 905 155 869V788C155 752 162 746 196 757ZM483 850 396 878C386 881 377 884 364 884C351 884 342 881 332 878L245 850V861L328 888C340 891 349 894 364 894C379 894 388 891 400 888L483 861Z" glyph-name="Acircumflex" horiz-adv-x="730" unicode="&#194;" /><glyph d="M184 507V281H555V507C555 582 517 632 368 632C219 632 184 582 184 507ZM283 497C283 524 295 544 366 544C436 544 448 524 448 497V368H283ZM555 90V271H184V90H174V507C174 588 211 642 368 642C525 642 565 588 565 507V90ZM283 36V185H448V36C448 11 459 0 484 0H636C661 0 672 11 672 36V531C672 652 616 735 367 735C119 735 64 652 64 531V36C64 11 75 0 100 0H247C272 0 283 11 283 36ZM336 797C359 803 375 803 398 797L535 757C570 746 577 752 577 788V869C577 905 569 909 535 922L398 972C388 976 378 977 366 977C354 976 339 973 327 968L199 922C167 909 158 905 158 869V788C158 752 165 746 199 757ZM486 850 399 878C389 881 380 884 367 884C354 884 345 881 335 878L248 850V861L331 888C343 891 352 894 367 894C382 894 391 891 403 888L486 861Z" glyph-name="Acircumflex.salt" horiz-adv-x="736" unicode="&#57603;" /><glyph d="M315 467V261H683V467C683 542 646 592 499 592C350 592 315 542 315 467ZM418 457C418 484 427 504 498 504C568 504 577 484 577 457V348H418ZM683 90V251H315V90H305V467C305 548 342 602 499 602C654 602 693 548 693 467V90ZM418 36V165H577V36C577 11 588 0 613 0H765C790 0 801 11 801 36V491C801 612 748 695 499 695C251 695 199 612 199 491V36C199 11 210 0 235 0H382C407 0 418 11 418 36ZM468 757C491 763 507 763 530 757L667 717C702 706 709 712 709 748V829C709 865 701 869 667 882L530 932C520 936 510 937 498 937C486 936 471 933 459 928L331 882C299 869 290 865 290 829V748C290 712 297 706 331 717ZM618 810 531 838C521 841 512 844 499 844C486 844 477 841 467 838L380 810V821L463 848C475 851 484 854 499 854C514 854 523 851 535 848L618 821Z" glyph-name="Acircumflex.salt_v" horiz-adv-x="1000" unicode="&#57840;" /><glyph d="M469 757C492 763 508 763 531 757L668 717C703 706 710 712 710 748V829C710 865 702 869 668 882L531 932C521 936 511 937 499 937C487 936 472 933 460 928L332 882C300 869 291 865 291 829V748C291 712 298 706 332 717ZM619 810 532 838C522 841 513 844 500 844C487 844 478 841 468 838L381 810V821L464 848C476 851 485 854 500 854C515 854 524 851 536 848L619 821ZM314 283V252H683V283C683 319 677 349 667 376L608 519C593 554 572 580 535 580H458C418 580 397 554 384 520L330 376C320 349 314 319 314 283ZM477 470C483 483 485 487 496 487H501C512 487 514 483 520 470L567 338H430ZM683 90V242H314V90H304V283C304 320 310 351 321 380L375 524C389 561 412 590 458 590H535C579 590 601 561 617 523L676 380C688 350 693 320 693 283V90ZM420 36V156H577V36C577 11 591 0 616 0H767C792 0 803 11 803 36V280C803 349 793 364 764 440L677 647C668 672 653 680 627 680H368C342 680 326 672 317 647L240 440C211 364 201 349 201 280V36C201 11 211 0 237 0H384C409 0 420 11 420 36Z" glyph-name="Acircumflex.v" horiz-adv-x="1000" unicode="&#57740;" /><glyph d="M170 303V272H560V303C560 339 554 369 544 396L475 559C460 594 449 620 412 620H314C274 620 263 594 250 560L186 396C176 369 170 339 170 303ZM330 510C335 522 341 527 349 527H374C382 527 388 522 393 510L440 358H283ZM560 90V262H170V90H160V303C160 340 166 371 177 400L241 564C256 601 268 630 314 630H412C456 630 468 602 484 563L553 400C564 371 570 340 570 303V90ZM273 36V176H450V36C450 11 462 0 489 0H640C665 0 676 11 676 36V300C676 340 664 390 637 460L550 687C542 710 526 720 500 720H231C204 720 188 710 180 687L93 460C66 390 54 340 54 300V36C54 11 65 0 90 0H237C262 0 273 11 273 36ZM333 797C356 803 372 803 395 797L532 757C567 746 574 752 574 788V869C574 905 566 909 532 922L395 972C385 976 375 977 363 977C351 976 336 973 324 968L196 922C164 909 155 905 155 869V788C155 752 162 746 196 757ZM483 850 396 878C386 881 377 884 364 884C351 884 342 881 332 878L245 850V861L328 888C340 891 349 894 364 894C379 894 388 891 400 888L483 861ZM580 1202 443 1169C419 1163 407 1158 407 1133V1027C407 1004 419 989 441 994L578 1027C602 1033 614 1038 614 1063V1169C614 1192 602 1207 580 1202ZM553 1104 466 1083V1093L553 1114Z" glyph-name="Acircumflexacute" horiz-adv-x="730" unicode="&#7844;" /><glyph d="M170 303V272H560V303C560 339 554 369 544 396L475 559C460 594 449 620 412 620H314C274 620 263 594 250 560L186 396C176 369 170 339 170 303ZM330 510C335 522 341 527 349 527H374C382 527 388 522 393 510L440 358H283ZM560 90V262H170V90H160V303C160 340 166 371 177 400L241 564C256 601 268 630 314 630H412C456 630 468 602 484 563L553 400C564 371 570 340 570 303V90ZM273 36V176H450V36C450 11 462 0 489 0H640C665 0 676 11 676 36V300C676 340 664 390 637 460L550 687C542 710 526 720 500 720H231C204 720 188 710 180 687L93 460C66 390 54 340 54 300V36C54 11 65 0 90 0H237C262 0 273 11 273 36ZM333 797C356 803 372 803 395 797L532 757C567 746 574 752 574 788V869C574 905 566 909 532 922L395 972C385 976 375 977 363 977C351 976 336 973 324 968L196 922C164 909 155 905 155 869V788C155 752 162 746 196 757ZM483 850 396 878C386 881 377 884 364 884C351 884 342 881 332 878L245 850V861L328 888C340 891 349 894 364 894C379 894 388 891 400 888L483 861ZM444 -240C469 -240 480 -229 480 -204V-77C480 -52 469 -41 444 -41H286C261 -41 250 -52 250 -77V-204C250 -229 261 -240 286 -240ZM370 -170H360V-111H370Z" glyph-name="Acircumflexdotbelow" horiz-adv-x="730" unicode="&#7852;" /><glyph d="M170 303V272H560V303C560 339 554 369 544 396L475 559C460 594 449 620 412 620H314C274 620 263 594 250 560L186 396C176 369 170 339 170 303ZM330 510C335 522 341 527 349 527H374C382 527 388 522 393 510L440 358H283ZM560 90V262H170V90H160V303C160 340 166 371 177 400L241 564C256 601 268 630 314 630H412C456 630 468 602 484 563L553 400C564 371 570 340 570 303V90ZM273 36V176H450V36C450 11 462 0 489 0H640C665 0 676 11 676 36V300C676 340 664 390 637 460L550 687C542 710 526 720 500 720H231C204 720 188 710 180 687L93 460C66 390 54 340 54 300V36C54 11 65 0 90 0H237C262 0 273 11 273 36ZM333 797C356 803 372 803 395 797L532 757C567 746 574 752 574 788V869C574 905 566 909 532 922L395 972C385 976 375 977 363 977C351 976 336 973 324 968L196 922C164 909 155 905 155 869V788C155 752 162 746 196 757ZM483 850 396 878C386 881 377 884 364 884C351 884 342 881 332 878L245 850V861L328 888C340 891 349 894 364 894C379 894 388 891 400 888L483 861ZM421 1177C399 1182 387 1167 387 1144V1038C387 1013 399 1008 423 1002L560 969C582 964 594 979 594 1002V1108C594 1133 582 1138 558 1144ZM533 1068V1058L446 1079V1089Z" glyph-name="Acircumflexgrave" horiz-adv-x="730" unicode="&#7846;" /><glyph d="M170 303V272H560V303C560 339 554 369 544 396L475 559C460 594 449 620 412 620H314C274 620 263 594 250 560L186 396C176 369 170 339 170 303ZM330 510C335 522 341 527 349 527H374C382 527 388 522 393 510L440 358H283ZM560 90V262H170V90H160V303C160 340 166 371 177 400L241 564C256 601 268 630 314 630H412C456 630 468 602 484 563L553 400C564 371 570 340 570 303V90ZM273 36V176H450V36C450 11 462 0 489 0H640C665 0 676 11 676 36V300C676 340 664 390 637 460L550 687C542 710 526 720 500 720H231C204 720 188 710 180 687L93 460C66 390 54 340 54 300V36C54 11 65 0 90 0H237C262 0 273 11 273 36ZM333 797C356 803 372 803 395 797L532 757C567 746 574 752 574 788V869C574 905 566 909 532 922L395 972C385 976 375 977 363 977C351 976 336 973 324 968L196 922C164 909 155 905 155 869V788C155 752 162 746 196 757ZM483 850 396 878C386 881 377 884 364 884C351 884 342 881 332 878L245 850V861L328 888C340 891 349 894 364 894C379 894 388 891 400 888L483 861ZM618 991C668 998 699 1019 699 1078V1142C699 1209 659 1244 591 1244H423C410 1244 404 1238 404 1225V1152C404 1139 410 1133 423 1133H552C563 1133 571 1129 571 1119C571 1107 565 1104 552 1102L463 1088C450 1086 444 1080 446 1067L457 988C459 975 464 970 477 972ZM502 1029 501 1039 597 1053C617 1056 630 1067 630 1095V1145C630 1176 610 1184 590 1184H454V1194H590C615 1194 640 1184 640 1145V1095C640 1057 620 1047 599 1044Z" glyph-name="Acircumflexhookabove" horiz-adv-x="730" unicode="&#7848;" /><glyph d="M170 303V272H560V303C560 339 554 369 544 396L475 559C460 594 449 620 412 620H314C274 620 263 594 250 560L186 396C176 369 170 339 170 303ZM330 510C335 522 341 527 349 527H374C382 527 388 522 393 510L440 358H283ZM560 90V262H170V90H160V303C160 340 166 371 177 400L241 564C256 601 268 630 314 630H412C456 630 468 602 484 563L553 400C564 371 570 340 570 303V90ZM273 36V176H450V36C450 11 462 0 489 0H640C665 0 676 11 676 36V300C676 340 664 390 637 460L550 687C542 710 526 720 500 720H231C204 720 188 710 180 687L93 460C66 390 54 340 54 300V36C54 11 65 0 90 0H237C262 0 273 11 273 36ZM333 797C356 803 372 803 395 797L532 757C567 746 574 752 574 788V869C574 905 566 909 532 922L395 972C385 976 375 977 363 977C351 976 336 973 324 968L196 922C164 909 155 905 155 869V788C155 752 162 746 196 757ZM483 850 396 878C386 881 377 884 364 884C351 884 342 881 332 878L245 850V861L328 888C340 891 349 894 364 894C379 894 388 891 400 888L483 861ZM364 1014 380 1012C460 1000 474 998 537 1017C560 1026 573 1033 573 1058V1159C573 1184 561 1192 537 1185C478 1167 474 1164 386 1177L364 1180L347 1182C267 1194 254 1196 191 1177C168 1168 155 1161 155 1136V1035C155 1010 167 1002 191 1009C244 1025 260 1029 336 1018ZM483 1091V1081C456 1078 430 1081 379 1089L363 1091L335 1095C291 1102 267 1103 245 1099V1110C268 1113 292 1111 337 1105L365 1101L381 1099C432 1091 456 1088 483 1091Z" glyph-name="Acircumflextilde" horiz-adv-x="730" unicode="&#7850;" /><glyph d="M170 303V272H560V303C560 339 554 369 544 396L475 559C460 594 449 620 412 620H314C274 620 263 594 250 560L186 396C176 369 170 339 170 303ZM330 510C335 522 341 527 349 527H374C382 527 388 522 393 510L440 358H283ZM560 90V262H170V90H160V303C160 340 166 371 177 400L241 564C256 601 268 630 314 630H412C456 630 468 602 484 563L553 400C564 371 570 340 570 303V90ZM273 36V176H450V36C450 11 462 0 489 0H640C665 0 676 11 676 36V300C676 340 664 390 637 460L550 687C542 710 526 720 500 720H231C204 720 188 710 180 687L93 460C66 390 54 340 54 300V36C54 11 65 0 90 0H237C262 0 273 11 273 36ZM303 760C326 760 336 770 336 793V914C336 937 326 947 303 947H165C142 947 131 937 131 914V793C131 770 142 760 165 760ZM561 760C584 760 594 770 594 793V914C594 937 584 947 561 947H423C400 947 390 937 390 914V793C390 770 400 760 423 760ZM239 830H229V877H239ZM497 830H487V877H497Z" glyph-name="Adieresis" horiz-adv-x="730" unicode="&#196;" /><glyph d="M184 507V281H555V507C555 582 517 632 368 632C219 632 184 582 184 507ZM283 497C283 524 295 544 366 544C436 544 448 524 448 497V368H283ZM555 90V271H184V90H174V507C174 588 211 642 368 642C525 642 565 588 565 507V90ZM283 36V185H448V36C448 11 459 0 484 0H636C661 0 672 11 672 36V531C672 652 616 735 367 735C119 735 64 652 64 531V36C64 11 75 0 100 0H247C272 0 283 11 283 36ZM306 760C329 760 339 770 339 793V914C339 937 329 947 306 947H168C145 947 134 937 134 914V793C134 770 145 760 168 760ZM564 760C587 760 597 770 597 793V914C597 937 587 947 564 947H426C403 947 393 937 393 914V793C393 770 403 760 426 760ZM242 830H232V877H242ZM500 830H490V877H500Z" glyph-name="Adieresis.salt" horiz-adv-x="736" unicode="&#57605;" /><glyph d="M315 467V261H683V467C683 542 646 592 499 592C350 592 315 542 315 467ZM418 457C418 484 427 504 498 504C568 504 577 484 577 457V348H418ZM683 90V251H315V90H305V467C305 548 342 602 499 602C654 602 693 548 693 467V90ZM418 36V165H577V36C577 11 588 0 613 0H765C790 0 801 11 801 36V491C801 612 748 695 499 695C251 695 199 612 199 491V36C199 11 210 0 235 0H382C407 0 418 11 418 36ZM438 720C461 720 471 730 471 753V874C471 897 461 907 438 907H300C277 907 266 897 266 874V753C266 730 277 720 300 720ZM696 720C719 720 729 730 729 753V874C729 897 719 907 696 907H558C535 907 525 897 525 874V753C525 730 535 720 558 720ZM374 790H364V837H374ZM632 790H622V837H632Z" glyph-name="Adieresis.salt_v" horiz-adv-x="1000" unicode="&#57842;" /><glyph d="M439 720C462 720 472 730 472 753V874C472 897 462 907 439 907H301C278 907 267 897 267 874V753C267 730 278 720 301 720ZM697 720C720 720 730 730 730 753V874C730 897 720 907 697 907H559C536 907 526 897 526 874V753C526 730 536 720 559 720ZM375 790H365V837H375ZM633 790H623V837H633ZM314 283V252H683V283C683 319 677 349 667 376L608 519C593 554 572 580 535 580H458C418 580 397 554 384 520L330 376C320 349 314 319 314 283ZM477 470C483 483 485 487 496 487H501C512 487 514 483 520 470L567 338H430ZM683 90V242H314V90H304V283C304 320 310 351 321 380L375 524C389 561 412 590 458 590H535C579 590 601 561 617 523L676 380C688 350 693 320 693 283V90ZM420 36V156H577V36C577 11 591 0 616 0H767C792 0 803 11 803 36V280C803 349 793 364 764 440L677 647C668 672 653 680 627 680H368C342 680 326 672 317 647L240 440C211 364 201 349 201 280V36C201 11 211 0 237 0H384C409 0 420 11 420 36Z" glyph-name="Adieresis.v" horiz-adv-x="1000" unicode="&#57742;" /><glyph d="M170 303V272H560V303C560 339 554 369 544 396L475 559C460 594 449 620 412 620H314C274 620 263 594 250 560L186 396C176 369 170 339 170 303ZM330 510C335 522 341 527 349 527H374C382 527 388 522 393 510L440 358H283ZM560 90V262H170V90H160V303C160 340 166 371 177 400L241 564C256 601 268 630 314 630H412C456 630 468 602 484 563L553 400C564 371 570 340 570 303V90ZM273 36V176H450V36C450 11 462 0 489 0H640C665 0 676 11 676 36V300C676 340 664 390 637 460L550 687C542 710 526 720 500 720H231C204 720 188 710 180 687L93 460C66 390 54 340 54 300V36C54 11 65 0 90 0H237C262 0 273 11 273 36ZM444 -240C469 -240 480 -229 480 -204V-77C480 -52 469 -41 444 -41H286C261 -41 250 -52 250 -77V-204C250 -229 261 -240 286 -240ZM370 -170H360V-111H370Z" glyph-name="Adotbelow" horiz-adv-x="730" unicode="&#7840;" /><glyph d="M170 303V272H560V303C560 339 554 369 544 396L475 559C460 594 449 620 412 620H314C274 620 263 594 250 560L186 396C176 369 170 339 170 303ZM330 510C335 522 341 527 349 527H374C382 527 388 522 393 510L440 358H283ZM560 90V262H170V90H160V303C160 340 166 371 177 400L241 564C256 601 268 630 314 630H412C456 630 468 602 484 563L553 400C564 371 570 340 570 303V90ZM273 36V176H450V36C450 11 462 0 489 0H640C665 0 676 11 676 36V300C676 340 664 390 637 460L550 687C542 710 526 720 500 720H231C204 720 188 710 180 687L93 460C66 390 54 340 54 300V36C54 11 65 0 90 0H237C262 0 273 11 273 36ZM540 753C563 750 574 763 574 786V882C574 907 563 915 538 918L189 961C166 964 155 951 155 928V832C155 807 166 799 191 796ZM245 867V877L484 847V837Z" glyph-name="Agrave" horiz-adv-x="730" unicode="&#192;" /><glyph d="M184 507V281H555V507C555 582 517 632 368 632C219 632 184 582 184 507ZM283 497C283 524 295 544 366 544C436 544 448 524 448 497V368H283ZM555 90V271H184V90H174V507C174 588 211 642 368 642C525 642 565 588 565 507V90ZM283 36V185H448V36C448 11 459 0 484 0H636C661 0 672 11 672 36V531C672 652 616 735 367 735C119 735 64 652 64 531V36C64 11 75 0 100 0H247C272 0 283 11 283 36ZM543 753C566 750 577 763 577 786V882C577 907 566 915 541 918L192 961C169 964 158 951 158 928V832C158 807 169 799 194 796ZM248 867V877L487 847V837Z" glyph-name="Agrave.salt" horiz-adv-x="736" unicode="&#57601;" /><glyph d="M675 713C698 710 709 723 709 746V842C709 867 698 875 673 878L324 921C301 924 290 911 290 888V792C290 767 301 759 326 756ZM380 827V837L619 807V797ZM315 467V261H683V467C683 542 646 592 499 592C350 592 315 542 315 467ZM418 457C418 484 427 504 498 504C568 504 577 484 577 457V348H418ZM683 90V251H315V90H305V467C305 548 342 602 499 602C654 602 693 548 693 467V90ZM418 36V165H577V36C577 11 588 0 613 0H765C790 0 801 11 801 36V491C801 612 748 695 499 695C251 695 199 612 199 491V36C199 11 210 0 235 0H382C407 0 418 11 418 36Z" glyph-name="Agrave.salt_v" horiz-adv-x="1000" unicode="&#57838;" /><glyph d="M314 283V252H683V283C683 319 677 349 667 376L608 519C593 554 572 580 535 580H458C418 580 397 554 384 520L330 376C320 349 314 319 314 283ZM477 470C483 483 485 487 496 487H501C512 487 514 483 520 470L567 338H430ZM683 90V242H314V90H304V283C304 320 310 351 321 380L375 524C389 561 412 590 458 590H535C579 590 601 561 617 523L676 380C688 350 693 320 693 283V90ZM420 36V156H577V36C577 11 591 0 616 0H767C792 0 803 11 803 36V280C803 349 793 364 764 440L677 647C668 672 653 680 627 680H368C342 680 326 672 317 647L240 440C211 364 201 349 201 280V36C201 11 211 0 237 0H384C409 0 420 11 420 36ZM676 713C699 710 710 723 710 746V842C710 867 699 875 674 878L325 921C302 924 291 911 291 888V792C291 767 302 759 327 756ZM381 827V837L620 807V797Z" glyph-name="Agrave.v" horiz-adv-x="1000" unicode="&#57738;" /><glyph d="M170 303V272H560V303C560 339 554 369 544 396L475 559C460 594 449 620 412 620H314C274 620 263 594 250 560L186 396C176 369 170 339 170 303ZM330 510C335 522 341 527 349 527H374C382 527 388 522 393 510L440 358H283ZM560 90V262H170V90H160V303C160 340 166 371 177 400L241 564C256 601 268 630 314 630H412C456 630 468 602 484 563L553 400C564 371 570 340 570 303V90ZM273 36V176H450V36C450 11 462 0 489 0H640C665 0 676 11 676 36V300C676 340 664 390 637 460L550 687C542 710 526 720 500 720H231C204 720 188 710 180 687L93 460C66 390 54 340 54 300V36C54 11 65 0 90 0H237C262 0 273 11 273 36ZM439 767C489 774 520 795 520 854V918C520 985 480 1020 412 1020H244C231 1020 225 1014 225 1001V928C225 915 231 909 244 909H373C384 909 392 905 392 895C392 883 386 880 373 878L284 864C271 862 265 856 267 843L278 764C280 751 285 746 298 748ZM323 805 322 815 418 829C438 832 451 843 451 871V921C451 952 431 960 411 960H275V970H411C436 970 461 960 461 921V871C461 833 441 823 420 820Z" glyph-name="Ahookabove" horiz-adv-x="730" unicode="&#7842;" /><glyph d="M170 303V272H560V303C560 339 554 369 544 396L475 559C460 594 449 620 412 620H314C274 620 263 594 250 560L186 396C176 369 170 339 170 303ZM330 510C335 522 341 527 349 527H374C382 527 388 522 393 510L440 358H283ZM560 90V262H170V90H160V303C160 340 166 371 177 400L241 564C256 601 268 630 314 630H412C456 630 468 602 484 563L553 400C564 371 570 340 570 303V90ZM273 36V176H450V36C450 11 462 0 489 0H640C665 0 676 11 676 36V300C676 340 664 390 637 460L550 687C542 710 526 720 500 720H231C204 720 188 710 180 687L93 460C66 390 54 340 54 300V36C54 11 65 0 90 0H237C262 0 273 11 273 36ZM538 760C563 760 574 771 574 796V889C574 914 563 925 538 925H191C166 925 155 914 155 889V796C155 771 166 760 191 760ZM245 847H484V837H245Z" glyph-name="Amacron" horiz-adv-x="730" unicode="&#256;" /><glyph d="M184 507V281H555V507C555 582 517 632 368 632C219 632 184 582 184 507ZM283 497C283 524 295 544 366 544C436 544 448 524 448 497V368H283ZM555 90V271H184V90H174V507C174 588 211 642 368 642C525 642 565 588 565 507V90ZM283 36V185H448V36C448 11 459 0 484 0H636C661 0 672 11 672 36V531C672 652 616 735 367 735C119 735 64 652 64 531V36C64 11 75 0 100 0H247C272 0 283 11 283 36ZM541 760C566 760 577 771 577 796V889C577 914 566 925 541 925H194C169 925 158 914 158 889V796C158 771 169 760 194 760ZM248 847H487V837H248Z" glyph-name="Amacron.salt" horiz-adv-x="736" unicode="&#57607;" /><glyph d="M315 467V261H683V467C683 542 646 592 499 592C350 592 315 542 315 467ZM418 457C418 484 427 504 498 504C568 504 577 484 577 457V348H418ZM683 90V251H315V90H305V467C305 548 342 602 499 602C654 602 693 548 693 467V90ZM418 36V165H577V36C577 11 588 0 613 0H765C790 0 801 11 801 36V491C801 612 748 695 499 695C251 695 199 612 199 491V36C199 11 210 0 235 0H382C407 0 418 11 418 36ZM673 720C698 720 709 731 709 756V849C709 874 698 885 673 885H326C301 885 290 874 290 849V756C290 731 301 720 326 720ZM380 807H619V797H380Z" glyph-name="Amacron.salt_v" horiz-adv-x="1000" unicode="&#57844;" /><glyph d="M674 720C699 720 710 731 710 756V849C710 874 699 885 674 885H327C302 885 291 874 291 849V756C291 731 302 720 327 720ZM381 807H620V797H381ZM314 283V252H683V283C683 319 677 349 667 376L608 519C593 554 572 580 535 580H458C418 580 397 554 384 520L330 376C320 349 314 319 314 283ZM477 470C483 483 485 487 496 487H501C512 487 514 483 520 470L567 338H430ZM683 90V242H314V90H304V283C304 320 310 351 321 380L375 524C389 561 412 590 458 590H535C579 590 601 561 617 523L676 380C688 350 693 320 693 283V90ZM420 36V156H577V36C577 11 591 0 616 0H767C792 0 803 11 803 36V280C803 349 793 364 764 440L677 647C668 672 653 680 627 680H368C342 680 326 672 317 647L240 440C211 364 201 349 201 280V36C201 11 211 0 237 0H384C409 0 420 11 420 36Z" glyph-name="Amacron.v" horiz-adv-x="1000" unicode="&#57744;" /><glyph d="M676 -152V-80C676 -54 668 -46 640 -46H599L606 0H640C665 0 676 11 676 36V300C676 340 664 390 637 460L550 687C542 710 526 720 500 720H231C204 720 188 710 180 687L93 460C66 390 54 340 54 300V36C54 11 65 0 90 0H237C262 0 273 11 273 36V176H450V56L431 -51C417 -144 446 -186 532 -186H643C669 -186 676 -178 676 -152ZM562 -116C513 -116 503 -91 511 -41L523 42C528 74 532 82 560 98V262H170V90H160V303C160 340 166 371 177 400L241 564C256 601 268 630 314 630H412C456 630 468 602 484 563L553 400C564 371 570 340 570 303V90H566C541 76 537 71 533 42L521 -43C516 -83 521 -106 562 -106H586V-116ZM170 303V272H560V303C560 339 554 369 544 396L475 559C460 594 449 620 412 620H314C274 620 263 594 250 560L186 396C176 369 170 339 170 303ZM330 510C335 522 341 527 349 527H374C382 527 388 522 393 510L440 358H283Z" glyph-name="Aogonek" horiz-adv-x="730" unicode="&#260;" /><glyph d="M672 -152V-80C672 -54 664 -46 636 -46H595L602 0H636C661 0 672 11 672 36V531C672 652 616 735 367 735C119 735 64 652 64 531V36C64 11 75 0 100 0H247C272 0 283 11 283 36V185H448V67L427 -51C413 -144 442 -186 528 -186H639C665 -186 672 -178 672 -152ZM558 -116C509 -116 499 -91 507 -41L519 42C524 74 528 82 555 97V271H184V90H174V507C174 588 211 642 368 642C525 642 565 588 565 507V90H562C537 76 533 71 529 42L517 -43C512 -83 517 -106 558 -106H582V-116ZM368 632C219 632 184 582 184 507V281H555V507C555 582 517 632 368 632ZM283 368V497C283 524 295 544 366 544C436 544 448 524 448 497V368Z" glyph-name="Aogonek.salt" horiz-adv-x="736" unicode="&#57609;" /><glyph d="M803 -152V-80C803 -54 795 -46 767 -46H726L733 0H765C790 0 801 11 801 36V491C801 612 748 695 499 695C251 695 199 612 199 491V36C199 11 210 0 235 0H382C407 0 418 11 418 36V165H577V56L558 -51C544 -144 573 -186 659 -186H770C796 -186 803 -178 803 -152ZM689 -116C640 -116 630 -91 638 -41L650 42C655 72 659 81 683 96V251H315V90H305V467C305 548 342 602 499 602C654 602 693 548 693 467V90C668 76 664 71 660 42L648 -43C643 -83 648 -106 689 -106H713V-116ZM315 467V261H683V467C683 542 646 592 499 592C350 592 315 542 315 467ZM418 457C418 484 427 504 498 504C568 504 577 484 577 457V348H418Z" glyph-name="Aogonek.salt_v" horiz-adv-x="1000" unicode="&#57846;" /><glyph d="M801 -112V-40C801 -14 793 -6 765 -6H724L731 40H767C792 40 803 51 803 76V320C803 389 793 404 764 480L677 687C668 712 653 720 627 720H368C342 720 326 712 317 687L240 480C211 404 201 389 201 320V76C201 51 211 40 237 40H384C409 40 420 51 420 76V196H577V107L556 -11C542 -104 571 -146 657 -146H768C794 -146 801 -138 801 -112ZM687 -76C638 -76 628 -51 636 -1L648 82C653 114 657 122 683 137V282H314V130H304V323C304 360 310 391 321 420L375 564C389 601 412 630 458 630H535C579 630 601 601 617 563L676 420C688 390 693 360 693 323V130H691C666 116 662 111 658 82L646 -3C641 -43 646 -66 687 -66H711V-76ZM314 323V292H683V323C683 359 677 389 667 416L608 559C593 594 572 620 535 620H458C418 620 397 594 384 560L330 416C320 389 314 359 314 323ZM477 510C483 523 485 527 496 527H501C512 527 514 523 520 510L567 378H430Z" glyph-name="Aogonek.v" horiz-adv-x="1000" unicode="&#57746;" /><glyph d="M225 760V805C225 865 247 906 366 906C485 906 509 864 509 805V760C509 700 485 660 366 660C247 660 225 700 225 760ZM366 896C259 896 235 861 235 805V760C235 704 259 670 366 670C473 670 499 704 499 760V805C499 860 473 896 366 896ZM425 764C425 735 416 721 366 721C317 721 309 735 309 764V799C309 825 317 839 366 839C416 839 425 825 425 799ZM170 303V272H560V303C560 339 554 369 544 396L475 559C460 594 449 620 412 620H314C274 620 263 594 250 560L186 396C176 369 170 339 170 303ZM330 510C334 522 341 527 349 527H374C382 527 389 522 393 510L440 358H283ZM560 90V262H170V90H160V303C160 340 166 371 177 400L241 564C256 601 268 630 314 630H412C456 630 468 602 484 563L553 400C564 371 570 340 570 303V90ZM273 36V176H450V36C450 11 462 0 489 0H640C665 0 676 11 676 36V300C676 340 664 390 637 460L553 680C574 704 582 735 582 771V829C582 914 539 972 365 972C191 972 148 914 148 829V771C148 735 156 704 177 680L93 460C66 390 54 340 54 300V36C54 11 65 0 90 0H237C262 0 273 11 273 36Z" glyph-name="Aring" horiz-adv-x="730" unicode="&#197;" /><glyph d="M225 760V805C225 865 247 906 366 906C485 906 509 864 509 805V760C509 700 485 660 366 660C247 660 225 700 225 760ZM366 896C259 896 235 861 235 805V760C235 704 259 670 366 670C473 670 499 704 499 760V805C499 860 473 896 366 896ZM425 764C425 735 416 721 366 721C317 721 309 735 309 764V799C309 825 317 839 366 839C416 839 425 825 425 799ZM184 507V281H555V507C555 582 517 632 368 632C219 632 184 582 184 507ZM283 497C283 524 295 544 366 544C436 544 448 524 448 497V368H283ZM555 90V271H184V90H174V507C174 588 211 642 368 642C525 642 565 588 565 507V90ZM283 36V185H448V36C448 11 459 0 484 0H636C661 0 672 11 672 36V531C672 608 650 670 569 704C578 724 582 746 582 771V829C582 914 539 972 365 972C191 972 148 914 148 829V771C148 745 152 722 162 702C85 667 64 607 64 531V36C64 11 75 0 100 0H247C272 0 283 11 283 36Z" glyph-name="Aring.salt" horiz-adv-x="736" unicode="&#57606;" /><glyph d="M356 730V770C356 830 378 871 497 871C616 871 640 829 640 770V730C640 670 616 630 497 630C378 630 356 670 356 730ZM497 861C390 861 366 826 366 770V730C366 674 390 640 497 640C604 640 630 674 630 730V770C630 825 604 861 497 861ZM557 725C557 696 548 682 498 682C449 682 441 696 441 725V760C441 786 449 800 498 800C548 800 557 786 557 760ZM315 467V261H683V467C683 542 646 592 499 592C350 592 315 542 315 467ZM419 458C419 485 427 505 498 505C568 505 576 485 576 458V349H419ZM683 90V251H315V90H305V467C305 548 342 602 499 602C654 602 693 548 693 467V90ZM419 36V166H576V36C576 11 587 0 612 0H764C789 0 800 11 800 36V492C800 569 780 631 701 665C710 685 714 707 714 732V790C714 875 671 933 497 933C323 933 280 875 280 790V732C280 706 284 683 294 663C219 628 200 568 200 492V36C200 11 211 0 236 0H383C408 0 419 11 419 36Z" glyph-name="Aring.salt_v" horiz-adv-x="1000" unicode="&#57843;" /><glyph d="M358 731V770C358 830 380 871 499 871C618 871 642 829 642 770V731C642 671 618 631 499 631C380 631 358 671 358 731ZM499 861C392 861 368 826 368 770V731C368 675 392 641 499 641C606 641 632 675 632 731V770C632 825 606 861 499 861ZM560 724C560 695 551 681 501 681C452 681 444 695 444 724V759C444 785 452 799 501 799C551 799 560 785 560 759ZM314 303V272H683V303C683 339 677 369 667 396L598 539C583 574 572 600 535 600H458C418 600 407 574 394 540L330 396C320 369 314 339 314 303ZM469 474C474 487 477 491 488 491H505C516 491 519 487 524 474L566 338H426ZM683 90V262H314V90H304V303C304 340 310 371 321 400L385 544C401 580 412 610 458 610H535C579 610 589 580 607 543L676 400C689 372 693 340 693 303V90ZM417 36V156H575V36C575 11 586 0 611 0H765C791 0 801 11 801 36V270C801 329 791 370 772 420L712 593C704 614 694 625 677 630C707 655 717 690 717 731V789C717 874 674 932 500 932C326 932 283 874 283 789V731C283 690 293 655 323 630C307 625 297 613 288 593L228 420C209 370 199 329 199 270V36C199 11 210 0 235 0H381C406 0 417 11 417 36Z" glyph-name="Aring.v" horiz-adv-x="1000" unicode="&#57743;" /><glyph d="M170 303V272H560V303C560 339 554 369 544 396L475 559C460 594 449 620 412 620H314C274 620 263 594 250 560L186 396C176 369 170 339 170 303ZM330 510C335 522 341 527 349 527H374C382 527 388 522 393 510L440 358H283ZM560 90V262H170V90H160V303C160 340 166 371 177 400L241 564C256 601 268 630 314 630H412C456 630 468 602 484 563L553 400C564 371 570 340 570 303V90ZM273 36V176H450V36C450 11 462 0 489 0H640C665 0 676 11 676 36V300C676 340 664 390 637 460L550 687C542 710 526 720 500 720H231C204 720 188 710 180 687L93 460C66 390 54 340 54 300V36C54 11 65 0 90 0H237C262 0 273 11 273 36ZM364 764 380 762C460 750 474 748 537 767C560 776 573 783 573 808V909C573 934 561 942 537 935C478 917 474 914 386 927L364 930L347 932C267 944 254 946 191 927C168 918 155 911 155 886V785C155 760 167 752 191 759C244 775 260 779 336 768ZM483 841V831C456 828 430 831 379 839L363 841L335 845C291 852 267 853 245 849V860C268 863 292 861 337 855L365 851L381 849C432 841 456 838 483 841Z" glyph-name="Atilde" horiz-adv-x="730" unicode="&#195;" /><glyph d="M184 507V281H555V507C555 582 517 632 368 632C219 632 184 582 184 507ZM283 497C283 524 295 544 366 544C436 544 448 524 448 497V368H283ZM555 90V271H184V90H174V507C174 588 211 642 368 642C525 642 565 588 565 507V90ZM283 36V185H448V36C448 11 459 0 484 0H636C661 0 672 11 672 36V531C672 652 616 735 367 735C119 735 64 652 64 531V36C64 11 75 0 100 0H247C272 0 283 11 283 36ZM367 764 383 762C463 750 477 748 540 767C563 776 576 783 576 808V909C576 934 564 942 540 935C481 917 477 914 389 927L367 930L350 932C270 944 257 946 194 927C171 918 158 911 158 886V785C158 760 170 752 194 759C247 775 263 779 339 768ZM486 841V831C459 828 433 831 382 839L366 841L338 845C294 852 270 853 248 849V860C271 863 295 861 340 855L368 851L384 849C435 841 459 838 486 841Z" glyph-name="Atilde.salt" horiz-adv-x="736" unicode="&#57604;" /><glyph d="M315 467V261H683V467C683 542 646 592 499 592C350 592 315 542 315 467ZM418 457C418 484 427 504 498 504C568 504 577 484 577 457V348H418ZM683 90V251H315V90H305V467C305 548 342 602 499 602C654 602 693 548 693 467V90ZM418 36V165H577V36C577 11 588 0 613 0H765C790 0 801 11 801 36V491C801 612 748 695 499 695C251 695 199 612 199 491V36C199 11 210 0 235 0H382C407 0 418 11 418 36ZM499 724 515 722C595 710 609 708 672 727C695 736 708 743 708 768V869C708 894 696 902 672 895C613 877 609 874 521 887L499 890L482 892C402 904 389 906 326 887C303 878 290 871 290 846V745C290 720 302 712 326 719C379 735 395 739 471 728ZM618 801V791C591 788 565 791 514 799L498 801L470 805C426 812 402 813 380 809V820C403 823 427 821 472 815L500 811L516 809C567 801 591 798 618 801Z" glyph-name="Atilde.salt_v" horiz-adv-x="1000" unicode="&#57841;" /><glyph d="M314 283V252H683V283C683 319 677 349 667 376L608 519C593 554 572 580 535 580H458C418 580 397 554 384 520L330 376C320 349 314 319 314 283ZM477 470C483 483 485 487 496 487H501C512 487 514 483 520 470L567 338H430ZM683 90V242H314V90H304V283C304 320 310 351 321 380L375 524C389 561 412 590 458 590H535C579 590 601 561 617 523L676 380C688 350 693 320 693 283V90ZM420 36V156H577V36C577 11 591 0 616 0H767C792 0 803 11 803 36V280C803 349 793 364 764 440L677 647C668 672 653 680 627 680H368C342 680 326 672 317 647L240 440C211 364 201 349 201 280V36C201 11 211 0 237 0H384C409 0 420 11 420 36ZM500 724 516 722C596 710 610 708 673 727C696 736 709 743 709 768V869C709 894 697 902 673 895C614 877 610 874 522 887L500 890L483 892C403 904 390 906 327 887C304 878 291 871 291 846V745C291 720 303 712 327 719C380 735 396 739 472 728ZM619 801V791C592 788 566 791 515 799L499 801L471 805C427 812 403 813 381 809V820C404 823 428 821 473 815L501 811L517 809C568 801 592 798 619 801Z" glyph-name="Atilde.v" horiz-adv-x="1000" unicode="&#57741;" /><glyph d="M489 0C622 0 683 52 683 164V256C683 354 643 403 557 411C597 428 616 463 616 519V567C616 672 555 720 424 720H105C80 720 69 709 69 684V36C69 11 80 0 105 0ZM180 90V630H383C494 630 514 582 514 524V460C514 420 507 384 450 369C561 369 580 320 580 254V190C580 131 561 90 449 90ZM383 620H190V369H383C493 369 504 412 504 460V524C504 578 484 620 383 620ZM294 550H379C405 550 417 537 417 510V482C417 455 405 442 379 442H294ZM450 359H190V100H449C549 100 570 135 570 190V254C570 314 551 359 450 359ZM294 288H424C450 288 462 276 462 249V210C462 183 450 170 424 170H294Z" glyph-name="B" horiz-adv-x="725" unicode="B" /><glyph d="M612 1C740 1 806 64 806 165V257C806 351 752 405 680 412C724 431 739 469 739 520V568C739 656 683 721 547 721H237C212 721 201 710 201 685V37C201 12 212 1 237 1ZM309 90V630H503C614 630 634 582 634 524V460C634 420 627 384 570 369C681 369 700 320 700 254V190C700 131 681 90 569 90ZM503 620H319V369H503C613 369 624 412 624 460V524C624 578 604 620 503 620ZM426 551H502C534 551 540 532 540 511V483C540 462 534 443 502 443H426ZM570 359H319V100H569C669 100 690 135 690 190V254C690 314 671 359 570 359ZM426 289H547C579 289 585 271 585 250V211C585 190 579 171 547 171H426Z" glyph-name="B.v" horiz-adv-x="1000" unicode="&#65314;" /><glyph d="M548 0C573 0 584 11 584 36V155C584 180 573 191 548 191H347C305 191 286 206 286 239V477C286 511 305 527 347 527H548C573 527 584 538 584 563V684C584 709 573 720 548 720H304C136 720 58 655 58 515V204C58 65 136 0 304 0ZM493 100V90H326C196 90 166 126 166 219V499C166 594 198 630 326 630H493V620H326C208 620 176 588 176 499V219C176 132 206 100 326 100Z" glyph-name="C" horiz-adv-x="628" unicode="C" /><glyph d="M755 0C780 0 791 11 791 36V155C791 180 780 191 755 191H485C433 191 424 211 424 239V437C424 463 433 487 485 487H755C780 487 791 498 791 523V644C791 669 780 680 755 680H442C253 680 196 597 196 475V204C196 83 253 0 442 0ZM701 100V90H465C335 90 305 126 305 219V459C305 554 337 590 465 590H701V580H465C347 580 315 548 315 459V219C315 132 345 100 465 100Z" glyph-name="C.s_v" horiz-adv-x="1000" unicode="&#57927;" /><glyph d="M755 0C780 0 791 11 791 36V155C791 180 780 191 755 191H485C433 191 424 211 424 239V477C424 503 433 527 485 527H755C780 527 791 538 791 563V684C791 709 780 720 755 720H442C253 720 196 637 196 515V204C196 83 253 0 442 0ZM701 100V90H465C335 90 305 126 305 219V499C305 594 337 630 465 630H701V620H465C347 620 315 588 315 499V219C315 132 345 100 465 100Z" glyph-name="C.v" horiz-adv-x="1000" unicode="&#65315;" /><glyph d="M548 0C573 0 584 11 584 36V155C584 180 573 191 548 191H347C305 191 286 206 286 239V477C286 511 305 527 347 527H548C573 527 584 538 584 563V684C584 709 573 720 548 720H304C136 720 58 655 58 515V204C58 65 136 0 304 0ZM493 100V90H326C196 90 166 126 166 219V499C166 594 198 630 326 630H493V620H326C208 620 176 588 176 499V219C176 132 206 100 326 100ZM548 796C573 799 584 807 584 832V928C584 951 573 964 550 961L201 918C176 915 165 907 165 882V786C165 763 176 750 199 753ZM255 847 494 877V867L255 837Z" glyph-name="Cacute" horiz-adv-x="628" unicode="&#262;" /><glyph d="M755 0C780 0 791 11 791 36V155C791 180 780 191 755 191H485C433 191 424 211 424 239V437C424 463 433 487 485 487H755C780 487 791 498 791 523V644C791 669 780 680 755 680H442C253 680 196 597 196 475V204C196 83 253 0 442 0ZM701 100V90H465C335 90 305 126 305 219V459C305 554 337 590 465 590H701V580H465C347 580 315 548 315 459V219C315 132 345 100 465 100ZM683 756C708 759 719 767 719 792V888C719 911 708 924 685 921L336 878C311 875 300 867 300 842V746C300 723 311 710 334 713ZM390 807 629 837V827L390 797Z" glyph-name="Cacute.v" horiz-adv-x="1000" unicode="&#57748;" /><glyph d="M548 0C573 0 584 11 584 36V155C584 180 573 191 548 191H347C305 191 286 206 286 239V477C286 511 305 527 347 527H548C573 527 584 538 584 563V684C584 709 573 720 548 720H304C136 720 58 655 58 515V204C58 65 136 0 304 0ZM493 100V90H326C196 90 166 126 166 219V499C166 594 198 630 326 630H493V620H326C208 620 176 588 176 499V219C176 132 206 100 326 100ZM376 932C353 926 337 926 314 932L177 972C142 983 135 977 135 941V860C135 824 143 820 177 807L314 757C324 753 334 752 346 752C358 753 373 756 385 761L513 807C545 820 554 824 554 860V941C554 977 547 983 513 972ZM225 879 312 851C322 848 331 845 344 845C357 845 366 848 376 851L463 879V868L380 841C368 838 359 835 344 835C329 835 320 838 308 841L225 868Z" glyph-name="Ccaron" horiz-adv-x="628" unicode="&#268;" /><glyph d="M541 892C518 886 502 886 479 892L342 932C307 943 300 937 300 901V820C300 784 308 780 342 767L479 717C489 713 499 712 511 712C523 713 538 716 550 721L678 767C710 780 719 784 719 820V901C719 937 712 943 678 932ZM390 839 477 811C487 808 496 805 509 805C522 805 531 808 541 811L628 839V828L545 801C533 798 524 795 509 795C494 795 485 798 473 801L390 828ZM755 0C780 0 791 11 791 36V155C791 180 780 191 755 191H485C433 191 424 211 424 239V437C424 463 433 487 485 487H755C780 487 791 498 791 523V644C791 669 780 680 755 680H442C253 680 196 597 196 475V204C196 83 253 0 442 0ZM701 100V90H465C335 90 305 126 305 219V459C305 554 337 590 465 590H701V580H465C347 580 315 548 315 459V219C315 132 345 100 465 100Z" glyph-name="Ccaron.v" horiz-adv-x="1000" unicode="&#57751;" /><glyph d="M435 -96 469 0H548C573 0 584 11 584 36V155C584 180 573 191 548 191H347C305 191 286 206 286 239V477C286 511 305 527 347 527H548C573 527 584 538 584 563V684C584 709 573 720 548 720H304C136 720 58 655 58 515V204C58 76 124 11 265 1L233 -86C224 -110 229 -126 263 -126H389C415 -126 428 -117 435 -96ZM349 -36 394 90H326C196 90 166 126 166 219V499C166 594 198 630 326 630H493V620H326C208 620 176 588 176 499V219C176 132 206 100 326 100H493V90H405L359 -36Z" glyph-name="Ccedilla" horiz-adv-x="628" unicode="&#199;" /><glyph d="M580 -56 614 40H755C780 40 791 51 791 76V195C791 220 780 231 755 231H485C433 231 424 251 424 279V477C424 503 433 527 485 527H755C780 527 791 538 791 563V684C791 709 780 720 755 720H442C253 720 196 637 196 515V244C196 130 247 50 410 41L378 -46C369 -70 374 -86 408 -86H534C560 -86 573 -77 580 -56ZM494 4 539 130H465C335 130 305 166 305 259V499C305 594 337 630 465 630H701V620H465C347 620 315 588 315 499V259C315 172 345 140 465 140H701V130H550L504 4Z" glyph-name="Ccedilla.v" horiz-adv-x="1000" unicode="&#57747;" /><glyph d="M548 0C573 0 584 11 584 36V155C584 180 573 191 548 191H347C305 191 286 206 286 239V477C286 511 305 527 347 527H548C573 527 584 538 584 563V684C584 709 573 720 548 720H304C136 720 58 655 58 515V204C58 65 136 0 304 0ZM493 100V90H326C196 90 166 126 166 219V499C166 594 198 630 326 630H493V620H326C208 620 176 588 176 499V219C176 132 206 100 326 100ZM313 797C336 803 352 803 375 797L512 757C547 746 554 752 554 788V869C554 905 546 909 512 922L375 972C365 976 355 977 343 977C331 976 316 973 304 968L176 922C144 909 135 905 135 869V788C135 752 142 746 176 757ZM463 850 376 878C366 881 357 884 344 884C331 884 322 881 312 878L225 850V861L308 888C320 891 329 894 344 894C359 894 368 891 380 888L463 861Z" glyph-name="Ccircumflex" horiz-adv-x="628" unicode="&#264;" /><glyph d="M478 757C501 763 517 763 540 757L677 717C712 706 719 712 719 748V829C719 865 711 869 677 882L540 932C530 936 520 937 508 937C496 936 481 933 469 928L341 882C309 869 300 865 300 829V748C300 712 307 706 341 717ZM628 810 541 838C531 841 522 844 509 844C496 844 487 841 477 838L390 810V821L473 848C485 851 494 854 509 854C524 854 533 851 545 848L628 821ZM755 0C780 0 791 11 791 36V155C791 180 780 191 755 191H485C433 191 424 211 424 239V437C424 463 433 487 485 487H755C780 487 791 498 791 523V644C791 669 780 680 755 680H442C253 680 196 597 196 475V204C196 83 253 0 442 0ZM701 100V90H465C335 90 305 126 305 219V459C305 554 337 590 465 590H701V580H465C347 580 315 548 315 459V219C315 132 345 100 465 100Z" glyph-name="Ccircumflex.v" horiz-adv-x="1000" unicode="&#57749;" /><glyph d="M548 0C573 0 584 11 584 36V155C584 180 573 191 548 191H347C305 191 286 206 286 239V477C286 511 305 527 347 527H548C573 527 584 538 584 563V684C584 709 573 720 548 720H304C136 720 58 655 58 515V204C58 65 136 0 304 0ZM493 100V90H326C196 90 166 126 166 219V499C166 594 198 630 326 630H493V620H326C208 620 176 588 176 499V219C176 132 206 100 326 100ZM435 760C460 760 471 771 471 796V923C471 948 460 959 435 959H277C252 959 241 948 241 923V796C241 771 252 760 277 760ZM361 830H351V889H361Z" glyph-name="Cdotaccent" horiz-adv-x="628" unicode="&#266;" /><glyph d="M590 720C615 720 626 731 626 756V883C626 908 615 919 590 919H432C407 919 396 908 396 883V756C396 731 407 720 432 720ZM516 790H506V849H516ZM755 0C780 0 791 11 791 36V155C791 180 780 191 755 191H485C433 191 424 211 424 239V437C424 463 433 487 485 487H755C780 487 791 498 791 523V644C791 669 780 680 755 680H442C253 680 196 597 196 475V204C196 83 253 0 442 0ZM701 100V90H465C335 90 305 126 305 219V459C305 554 337 590 465 590H701V580H465C347 580 315 548 315 459V219C315 132 345 100 465 100Z" glyph-name="Cdotaccent.v" horiz-adv-x="1000" unicode="&#57750;" /><glyph d="M442 0C610 0 688 65 688 204V516C688 655 610 720 442 720H105C80 720 69 709 69 684V36C69 11 80 0 105 0ZM178 90V630H420C556 630 580 568 580 491V226C580 149 558 90 420 90ZM420 620H188V100H420C548 100 570 153 570 226V491C570 564 546 620 420 620ZM296 529H415C447 529 462 514 462 481V238C462 204 447 189 415 189H296Z" glyph-name="D" horiz-adv-x="746" unicode="D" /><glyph d="M559 0C748 0 805 83 805 204V476C805 597 748 680 559 680H236C211 680 200 669 200 644V36C200 11 211 0 236 0ZM309 90V590H537C673 590 697 528 697 451V226C697 149 675 90 537 90ZM537 580H319V100H537C665 100 687 153 687 226V451C687 524 663 580 537 580ZM427 489H532C572 489 579 467 579 441V238C579 211 572 189 532 189H427Z" glyph-name="D.s_v" horiz-adv-x="1000" unicode="&#57928;" /><glyph d="M559 0C748 0 805 83 805 204V516C805 637 748 720 559 720H236C211 720 200 709 200 684V36C200 11 211 0 236 0ZM309 90V630H537C673 630 697 568 697 491V226C697 149 675 90 537 90ZM537 620H319V100H537C665 100 687 153 687 226V491C687 564 663 620 537 620ZM427 529H532C572 529 579 507 579 481V238C579 211 572 189 532 189H427Z" glyph-name="D.v" horiz-adv-x="1000" unicode="&#65316;" /><glyph d="M442 0C610 0 688 65 688 204V516C688 655 610 720 442 720H105C80 720 69 709 69 684V36C69 11 80 0 105 0ZM178 90V630H420C556 630 580 568 580 491V226C580 149 558 90 420 90ZM420 620H188V100H420C548 100 570 153 570 226V491C570 564 546 620 420 620ZM296 529H415C447 529 462 514 462 481V238C462 204 447 189 415 189H296ZM404 932C381 926 365 926 342 932L205 972C170 983 163 977 163 941V860C163 824 171 820 205 807L342 757C352 753 362 752 374 752C386 753 401 756 413 761L541 807C573 820 582 824 582 860V941C582 977 575 983 541 972ZM253 879 340 851C350 848 359 845 372 845C385 845 394 848 404 851L491 879V868L408 841C396 838 387 835 372 835C357 835 348 838 336 841L253 868Z" glyph-name="Dcaron" horiz-adv-x="746" unicode="&#270;" /><glyph d="M559 0C748 0 805 83 805 204V476C805 597 748 680 559 680H236C211 680 200 669 200 644V36C200 11 211 0 236 0ZM309 90V590H537C673 590 697 528 697 451V226C697 149 675 90 537 90ZM537 580H319V100H537C665 100 687 153 687 226V451C687 524 663 580 537 580ZM427 489H532C572 489 579 467 579 441V238C579 211 572 189 532 189H427ZM531 892C508 886 492 886 469 892L332 932C297 943 290 937 290 901V820C290 784 298 780 332 767L469 717C479 713 489 712 501 712C513 713 528 716 540 721L668 767C700 780 709 784 709 820V901C709 937 702 943 668 932ZM380 839 467 811C477 808 486 805 499 805C512 805 521 808 531 811L618 839V828L535 801C523 798 514 795 499 795C484 795 475 798 463 801L380 828Z" glyph-name="Dcaron.v" horiz-adv-x="1000" unicode="&#57752;" /><glyph d="M452 0C641 0 698 83 698 204V516C698 637 641 720 452 720H115C90 720 79 709 79 684V444H56C31 444 20 433 20 408V301C20 275 31 265 56 265H79V36C79 11 90 0 115 0ZM186 90V349H110V359H186V630H430C566 630 590 568 590 491V226C590 149 568 90 430 90ZM290 349H196V100H430C558 100 580 153 580 226V491C580 564 556 620 430 620H196V359H290ZM303 189V265H344C369 265 380 275 380 301V408C380 434 369 444 344 444H303V529H425C465 529 472 507 472 481V238C472 211 465 189 425 189Z" glyph-name="Dcroat" horiz-adv-x="756" unicode="&#272;" /><glyph d="M554 0C743 0 800 83 800 204V516C800 637 743 720 554 720H236C211 720 200 709 200 684V444H177C152 444 141 433 141 408V301C141 275 152 265 177 265H200V36C200 11 211 0 236 0ZM307 90V349H231V359H307V630H532C668 630 692 568 692 491V226C692 149 670 90 532 90ZM411 349H317V100H532C660 100 682 153 682 226V491C682 564 658 620 532 620H317V359H411ZM424 189V265H466C491 265 502 275 502 301V408C502 434 491 444 466 444H424V529H527C567 529 574 507 574 481V238C574 211 567 189 527 189Z" glyph-name="Dcroat.v" horiz-adv-x="1000" unicode="&#57828;" /><glyph d="M442 0C610 0 688 65 688 204V516C688 655 610 720 442 720H105C80 720 69 709 69 684V36C69 11 80 0 105 0ZM178 90V630H420C556 630 580 568 580 491V226C580 149 558 90 420 90ZM420 620H188V100H420C548 100 570 153 570 226V491C570 564 546 620 420 620ZM296 529H415C447 529 462 514 462 481V238C462 204 447 189 415 189H296ZM452 -240C477 -240 488 -229 488 -204V-77C488 -52 477 -41 452 -41H294C269 -41 258 -52 258 -77V-204C258 -229 269 -240 294 -240ZM378 -170H368V-111H378Z" glyph-name="Ddotbelow" horiz-adv-x="746" unicode="&#7692;" /><glyph d="M640 0C666 0 676 11 676 36V170C676 229 660 288 647 340L560 679C548 709 532 720 499 720H232C198 720 183 709 170 679L83 340C70 288 54 229 54 170V36C54 11 65 0 90 0ZM162 90V193C162 231 167 264 173 288L232 535C253 624 274 625 336 625H387C449 625 469 624 491 535L554 285C559 264 564 231 564 193V90ZM172 193V100H554V193C554 231 549 262 544 283L481 533C461 614 443 615 387 615H336C280 615 261 614 242 533L183 286C177 262 172 231 172 193ZM272 210C272 224 276 245 280 261L334 504C339 517 342 521 353 521H370C381 521 384 517 389 504L442 261C446 245 450 224 450 210V189H272Z" glyph-name="Delta" horiz-adv-x="730" unicode="&#8710;" /><glyph d="M442 0C610 0 688 65 688 204V516C688 655 610 720 442 720H105C80 720 69 709 69 684V36C69 11 80 0 105 0ZM178 90V630H420C556 630 580 568 580 491V226C580 149 558 90 420 90ZM420 620H188V100H420C548 100 570 153 570 226V491C570 564 546 620 420 620ZM296 529H415C447 529 462 514 462 481V238C462 204 447 189 415 189H296ZM541 -222C566 -222 577 -211 577 -186V-93C577 -68 566 -57 541 -57H194C169 -57 158 -68 158 -93V-186C158 -211 169 -222 194 -222ZM248 -135H487V-145H248Z" glyph-name="Dlinebelow" horiz-adv-x="746" unicode="&#7694;" /><glyph d="M569 0C594 0 605 11 605 36V153C605 178 594 189 569 189H293V275H488C513 275 524 286 524 311V418C524 443 513 454 488 454H293V531H569C594 531 605 542 605 567V684C605 709 594 720 569 720H105C80 720 69 709 69 684V36C69 11 80 0 105 0ZM515 100V90H178V630H515V620H188V369H434V359H188V100Z" glyph-name="E" horiz-adv-x="654" unicode="E" /><glyph d="M754 0C779 0 790 11 790 36V149C790 174 779 185 754 185H424V261H673C698 261 709 272 709 297V392C709 418 698 428 673 428H424V495H754C779 495 790 506 790 531V644C790 669 779 680 754 680H236C211 680 200 669 200 644V36C200 11 211 0 236 0ZM701 100V90H308V590H701V580H318V349H620V339H318V100Z" glyph-name="E.s_v" horiz-adv-x="1000" unicode="&#57929;" /><glyph d="M594 36V153C594 178 583 189 558 189H337C285 189 276 209 276 237V275H478C503 275 514 286 514 311V418C514 444 503 454 478 454H276V481C276 507 285 531 337 531H558C583 531 594 542 594 567V684C594 709 583 720 558 720H304C115 720 58 637 58 515V204C58 83 115 0 304 0H558C583 0 594 11 594 36ZM504 100V90H322C192 90 162 126 162 219V499C162 594 194 630 322 630H504V620H322C204 620 172 588 172 499V369H434V359H172V219C172 132 202 100 322 100Z" glyph-name="E.salt" horiz-adv-x="643" unicode="&#57610;" /><glyph d="M790 36V149C790 174 779 185 754 185H481C429 185 420 205 420 233V261H673C698 261 709 272 709 297V392C709 418 698 428 673 428H420V445C420 471 429 495 481 495H754C779 495 790 506 790 531V644C790 669 779 680 754 680H442C253 680 196 597 196 475V204C196 83 253 0 442 0H754C779 0 790 11 790 36ZM468 90C338 90 308 126 308 219V459C308 554 340 590 468 590H704V580H468C350 580 318 548 318 459V349H623V339H318V219C318 132 348 100 468 100H704V90Z" glyph-name="E.salt_s_v" horiz-adv-x="1000" unicode="&#57946;" /><glyph d="M791 36V153C791 178 780 189 755 189H482C430 189 421 209 421 237V275H674C699 275 710 286 710 311V418C710 444 699 454 674 454H421V481C421 507 430 531 482 531H755C780 531 791 542 791 567V684C791 709 780 720 755 720H442C253 720 196 637 196 515V204C196 83 253 0 442 0H755C780 0 791 11 791 36ZM468 90C338 90 308 126 308 219V499C308 594 340 630 468 630H704V620H468C350 620 318 588 318 499V369H623V359H318V219C318 132 348 100 468 100H704V90Z" glyph-name="E.salt_v" horiz-adv-x="1000" unicode="&#57847;" /><glyph d="M755 0C780 0 791 11 791 36V153C791 178 780 189 755 189H425V275H674C699 275 710 286 710 311V418C710 444 699 454 674 454H425V531H755C780 531 791 542 791 567V684C791 709 780 720 755 720H237C212 720 201 709 201 684V36C201 11 212 0 237 0ZM701 100V90H308V630H701V620H318V369H620V359H318V100Z" glyph-name="E.v" horiz-adv-x="1000" unicode="&#65317;" /><glyph d="M569 0C594 0 605 11 605 36V153C605 178 594 189 569 189H293V275H488C513 275 524 286 524 311V418C524 443 513 454 488 454H293V531H569C594 531 605 542 605 567V684C605 709 594 720 569 720H105C80 720 69 709 69 684V36C69 11 80 0 105 0ZM515 100V90H178V630H515V620H188V369H434V359H188V100ZM530 796C555 799 566 807 566 832V928C566 951 555 964 532 961L183 918C158 915 147 907 147 882V786C147 763 158 750 181 753ZM237 847 476 877V867L237 837Z" glyph-name="Eacute" horiz-adv-x="654" unicode="&#201;" /><glyph d="M594 36V153C594 178 583 189 558 189H337C285 189 276 209 276 237V275H478C503 275 514 286 514 311V418C514 444 503 454 478 454H276V481C276 507 285 531 337 531H558C583 531 594 542 594 567V684C594 709 583 720 558 720H304C115 720 58 637 58 515V204C58 83 115 0 304 0H558C583 0 594 11 594 36ZM504 100V90H322C192 90 162 126 162 219V499C162 594 194 630 322 630H504V620H322C204 620 172 588 172 499V369H434V359H172V219C172 132 202 100 322 100ZM530 796C555 799 566 807 566 832V928C566 951 555 964 532 961L183 918C158 915 147 907 147 882V786C147 763 158 750 181 753ZM237 847 476 877V867L237 837Z" glyph-name="Eacute.salt" horiz-adv-x="643" unicode="&#57612;" /><glyph d="M673 756C698 759 709 767 709 792V888C709 911 698 924 675 921L326 878C301 875 290 867 290 842V746C290 723 301 710 324 713ZM380 807 619 837V827L380 797ZM790 36V149C790 174 779 185 754 185H481C429 185 420 205 420 233V261H673C698 261 709 272 709 297V392C709 418 698 428 673 428H420V445C420 471 429 495 481 495H754C779 495 790 506 790 531V644C790 669 779 680 754 680H442C253 680 196 597 196 475V204C196 83 253 0 442 0H754C779 0 790 11 790 36ZM468 90C338 90 308 126 308 219V459C308 554 340 590 468 590H704V580H468C350 580 318 548 318 459V349H623V339H318V219C318 132 348 100 468 100H704V90Z" glyph-name="Eacute.salt_v" horiz-adv-x="1000" unicode="&#57849;" /><glyph d="M673 756C698 759 709 767 709 792V888C709 911 698 924 675 921L326 878C301 875 290 867 290 842V746C290 723 301 710 324 713ZM380 807 619 837V827L380 797ZM754 0C779 0 790 11 790 36V149C790 174 779 185 754 185H424V261H673C698 261 709 272 709 297V392C709 418 698 428 673 428H424V495H754C779 495 790 506 790 531V644C790 669 779 680 754 680H236C211 680 200 669 200 644V36C200 11 211 0 236 0ZM701 100V90H308V590H701V580H318V349H620V339H318V100Z" glyph-name="Eacute.v" horiz-adv-x="1000" unicode="&#57754;" /><glyph d="M569 0C594 0 605 11 605 36V153C605 178 594 189 569 189H293V275H488C513 275 524 286 524 311V418C524 443 513 454 488 454H293V531H569C594 531 605 542 605 567V684C605 709 594 720 569 720H105C80 720 69 709 69 684V36C69 11 80 0 105 0ZM515 100V90H178V630H515V620H188V369H434V359H188V100ZM564 897V941C564 966 553 977 528 977H437C414 977 407 970 407 946V925C407 906 398 892 348 892C299 892 291 906 291 925V946C291 970 283 977 262 977H166C141 977 130 966 130 941V897C130 812 173 754 347 754C521 754 564 812 564 897ZM481 907H491V898C491 860 470 818 346 818C222 818 206 860 206 898V907H216V898C216 862 238 828 346 828C454 828 481 862 481 898Z" glyph-name="Ebreve" horiz-adv-x="654" unicode="&#276;" /><glyph d="M594 36V153C594 178 583 189 558 189H337C285 189 276 209 276 237V275H478C503 275 514 286 514 311V418C514 444 503 454 478 454H276V481C276 507 285 531 337 531H558C583 531 594 542 594 567V684C594 709 583 720 558 720H304C115 720 58 637 58 515V204C58 83 115 0 304 0H558C583 0 594 11 594 36ZM504 100V90H322C192 90 162 126 162 219V499C162 594 194 630 322 630H504V620H322C204 620 172 588 172 499V369H434V359H172V219C172 132 202 100 322 100ZM574 897V941C574 966 563 977 538 977H447C424 977 417 970 417 946V925C417 906 408 892 358 892C309 892 301 906 301 925V946C301 970 293 977 272 977H176C151 977 140 966 140 941V897C140 812 183 754 357 754C531 754 574 812 574 897ZM491 907H501V898C501 860 480 818 356 818C232 818 216 860 216 898V907H226V898C226 862 248 828 356 828C464 828 491 862 491 898Z" glyph-name="Ebreve.salt" horiz-adv-x="643" unicode="&#57616;" /><glyph d="M790 36V149C790 174 779 185 754 185H481C429 185 420 205 420 233V261H673C698 261 709 272 709 297V392C709 418 698 428 673 428H420V445C420 471 429 495 481 495H754C779 495 790 506 790 531V644C790 669 779 680 754 680H442C253 680 196 597 196 475V204C196 83 253 0 442 0H754C779 0 790 11 790 36ZM468 90C338 90 308 126 308 219V459C308 554 340 590 468 590H704V580H468C350 580 318 548 318 459V349H623V339H318V219C318 132 348 100 468 100H704V90ZM717 857V901C717 926 706 937 681 937H590C567 937 560 930 560 906V885C560 866 551 852 501 852C452 852 444 866 444 885V906C444 930 436 937 415 937H319C294 937 283 926 283 901V857C283 772 326 714 500 714C674 714 717 772 717 857ZM634 867H644V858C644 820 623 778 499 778C375 778 359 820 359 858V867H369V858C369 822 391 788 499 788C607 788 634 822 634 858Z" glyph-name="Ebreve.salt_v" horiz-adv-x="1000" unicode="&#57853;" /><glyph d="M754 0C779 0 790 11 790 36V149C790 174 779 185 754 185H424V261H673C698 261 709 272 709 297V392C709 418 698 428 673 428H424V495H754C779 495 790 506 790 531V644C790 669 779 680 754 680H236C211 680 200 669 200 644V36C200 11 211 0 236 0ZM701 100V90H308V590H701V580H318V349H620V339H318V100ZM717 857V901C717 926 706 937 681 937H590C567 937 560 930 560 906V885C560 866 551 852 501 852C452 852 444 866 444 885V906C444 930 436 937 415 937H319C294 937 283 926 283 901V857C283 772 326 714 500 714C674 714 717 772 717 857ZM634 867H644V858C644 820 623 778 499 778C375 778 359 820 359 858V867H369V858C369 822 391 788 499 788C607 788 634 822 634 858Z" glyph-name="Ebreve.v" horiz-adv-x="1000" unicode="&#57758;" /><glyph d="M569 0C594 0 605 11 605 36V153C605 178 594 189 569 189H293V275H488C513 275 524 286 524 311V418C524 443 513 454 488 454H293V531H569C594 531 605 542 605 567V684C605 709 594 720 569 720H105C80 720 69 709 69 684V36C69 11 80 0 105 0ZM515 100V90H178V630H515V620H188V369H434V359H188V100ZM375 932C352 926 336 926 313 932L176 972C141 983 134 977 134 941V860C134 824 142 820 176 807L313 757C323 753 333 752 345 752C357 753 372 756 384 761L512 807C544 820 553 824 553 860V941C553 977 546 983 512 972ZM224 879 311 851C321 848 330 845 343 845C356 845 365 848 375 851L462 879V868L379 841C367 838 358 835 343 835C328 835 319 838 307 841L224 868Z" glyph-name="Ecaron" horiz-adv-x="654" unicode="&#282;" /><glyph d="M594 36V153C594 178 583 189 558 189H337C285 189 276 209 276 237V275H478C503 275 514 286 514 311V418C514 444 503 454 478 454H276V481C276 507 285 531 337 531H558C583 531 594 542 594 567V684C594 709 583 720 558 720H304C115 720 58 637 58 515V204C58 83 115 0 304 0H558C583 0 594 11 594 36ZM504 100V90H322C192 90 162 126 162 219V499C162 594 194 630 322 630H504V620H322C204 620 172 588 172 499V369H434V359H172V219C172 132 202 100 322 100ZM385 932C362 926 346 926 323 932L186 972C151 983 144 977 144 941V860C144 824 152 820 186 807L323 757C333 753 343 752 355 752C367 753 382 756 394 761L522 807C554 820 563 824 563 860V941C563 977 556 983 522 972ZM234 879 321 851C331 848 340 845 353 845C366 845 375 848 385 851L472 879V868L389 841C377 838 368 835 353 835C338 835 329 838 317 841L234 868Z" glyph-name="Ecaron.salt" horiz-adv-x="643" unicode="&#57619;" /><glyph d="M790 36V149C790 174 779 185 754 185H481C429 185 420 205 420 233V261H673C698 261 709 272 709 297V392C709 418 698 428 673 428H420V445C420 471 429 495 481 495H754C779 495 790 506 790 531V644C790 669 779 680 754 680H442C253 680 196 597 196 475V204C196 83 253 0 442 0H754C779 0 790 11 790 36ZM468 90C338 90 308 126 308 219V459C308 554 340 590 468 590H704V580H468C350 580 318 548 318 459V349H623V339H318V219C318 132 348 100 468 100H704V90ZM531 892C508 886 492 886 469 892L332 932C297 943 290 937 290 901V820C290 784 298 780 332 767L469 717C479 713 489 712 501 712C513 713 528 716 540 721L668 767C700 780 709 784 709 820V901C709 937 702 943 668 932ZM380 839 467 811C477 808 486 805 499 805C512 805 521 808 531 811L618 839V828L535 801C523 798 514 795 499 795C484 795 475 798 463 801L380 828Z" glyph-name="Ecaron.salt_v" horiz-adv-x="1000" unicode="&#57856;" /><glyph d="M754 0C779 0 790 11 790 36V149C790 174 779 185 754 185H424V261H673C698 261 709 272 709 297V392C709 418 698 428 673 428H424V495H754C779 495 790 506 790 531V644C790 669 779 680 754 680H236C211 680 200 669 200 644V36C200 11 211 0 236 0ZM701 100V90H308V590H701V580H318V349H620V339H318V100ZM531 892C508 886 492 886 469 892L332 932C297 943 290 937 290 901V820C290 784 298 780 332 767L469 717C479 713 489 712 501 712C513 713 528 716 540 721L668 767C700 780 709 784 709 820V901C709 937 702 943 668 932ZM380 839 467 811C477 808 486 805 499 805C512 805 521 808 531 811L618 839V828L535 801C523 798 514 795 499 795C484 795 475 798 463 801L380 828Z" glyph-name="Ecaron.v" horiz-adv-x="1000" unicode="&#57761;" /><glyph d="M569 0C594 0 605 11 605 36V153C605 178 594 189 569 189H293V275H488C513 275 524 286 524 311V418C524 443 513 454 488 454H293V531H569C594 531 605 542 605 567V684C605 709 594 720 569 720H105C80 720 69 709 69 684V36C69 11 80 0 105 0ZM515 100V90H178V630H515V620H188V369H434V359H188V100ZM305 797C328 803 344 803 367 797L504 757C539 746 546 752 546 788V869C546 905 538 909 504 922L367 972C357 976 347 977 335 977C323 976 308 973 296 968L168 922C136 909 127 905 127 869V788C127 752 134 746 168 757ZM455 850 368 878C358 881 349 884 336 884C323 884 314 881 304 878L217 850V861L300 888C312 891 321 894 336 894C351 894 360 891 372 888L455 861Z" glyph-name="Ecircumflex" horiz-adv-x="654" unicode="&#202;" /><glyph d="M594 36V153C594 178 583 189 558 189H337C285 189 276 209 276 237V275H478C503 275 514 286 514 311V418C514 444 503 454 478 454H276V481C276 507 285 531 337 531H558C583 531 594 542 594 567V684C594 709 583 720 558 720H304C115 720 58 637 58 515V204C58 83 115 0 304 0H558C583 0 594 11 594 36ZM504 100V90H322C192 90 162 126 162 219V499C162 594 194 630 322 630H504V620H322C204 620 172 588 172 499V369H434V359H172V219C172 132 202 100 322 100ZM315 797C338 803 354 803 377 797L514 757C549 746 556 752 556 788V869C556 905 548 909 514 922L377 972C367 976 357 977 345 977C333 976 318 973 306 968L178 922C146 909 137 905 137 869V788C137 752 144 746 178 757ZM465 850 378 878C368 881 359 884 346 884C333 884 324 881 314 878L227 850V861L310 888C322 891 331 894 346 894C361 894 370 891 382 888L465 861Z" glyph-name="Ecircumflex.salt" horiz-adv-x="643" unicode="&#57613;" /><glyph d="M468 757C491 763 507 763 530 757L667 717C702 706 709 712 709 748V829C709 865 701 869 667 882L530 932C520 936 510 937 498 937C486 936 471 933 459 928L331 882C299 869 290 865 290 829V748C290 712 297 706 331 717ZM618 810 531 838C521 841 512 844 499 844C486 844 477 841 467 838L380 810V821L463 848C475 851 484 854 499 854C514 854 523 851 535 848L618 821ZM790 36V149C790 174 779 185 754 185H481C429 185 420 205 420 233V261H673C698 261 709 272 709 297V392C709 418 698 428 673 428H420V445C420 471 429 495 481 495H754C779 495 790 506 790 531V644C790 669 779 680 754 680H442C253 680 196 597 196 475V204C196 83 253 0 442 0H754C779 0 790 11 790 36ZM468 90C338 90 308 126 308 219V459C308 554 340 590 468 590H704V580H468C350 580 318 548 318 459V349H623V339H318V219C318 132 348 100 468 100H704V90Z" glyph-name="Ecircumflex.salt_v" horiz-adv-x="1000" unicode="&#57850;" /><glyph d="M468 757C491 763 507 763 530 757L667 717C702 706 709 712 709 748V829C709 865 701 869 667 882L530 932C520 936 510 937 498 937C486 936 471 933 459 928L331 882C299 869 290 865 290 829V748C290 712 297 706 331 717ZM618 810 531 838C521 841 512 844 499 844C486 844 477 841 467 838L380 810V821L463 848C475 851 484 854 499 854C514 854 523 851 535 848L618 821ZM754 0C779 0 790 11 790 36V149C790 174 779 185 754 185H424V261H673C698 261 709 272 709 297V392C709 418 698 428 673 428H424V495H754C779 495 790 506 790 531V644C790 669 779 680 754 680H236C211 680 200 669 200 644V36C200 11 211 0 236 0ZM701 100V90H308V590H701V580H318V349H620V339H318V100Z" glyph-name="Ecircumflex.v" horiz-adv-x="1000" unicode="&#57755;" /><glyph d="M569 0C594 0 605 11 605 36V153C605 178 594 189 569 189H293V275H488C513 275 524 286 524 311V418C524 443 513 454 488 454H293V531H569C594 531 605 542 605 567V684C605 709 594 720 569 720H105C80 720 69 709 69 684V36C69 11 80 0 105 0ZM515 100V90H178V630H515V620H188V369H434V359H188V100ZM305 797C328 803 344 803 367 797L504 757C539 746 546 752 546 788V869C546 905 538 909 504 922L367 972C357 976 347 977 335 977C323 976 308 973 296 968L168 922C136 909 127 905 127 869V788C127 752 134 746 168 757ZM455 850 368 878C358 881 349 884 336 884C323 884 314 881 304 878L217 850V861L300 888C312 891 321 894 336 894C351 894 360 891 372 888L455 861ZM552 1202 415 1169C391 1163 379 1158 379 1133V1027C379 1004 391 989 413 994L550 1027C574 1033 586 1038 586 1063V1169C586 1192 574 1207 552 1202ZM525 1104 438 1083V1093L525 1114Z" glyph-name="Ecircumflexacute" horiz-adv-x="654" unicode="&#7870;" /><glyph d="M569 0C594 0 605 11 605 36V153C605 178 594 189 569 189H293V275H488C513 275 524 286 524 311V418C524 443 513 454 488 454H293V531H569C594 531 605 542 605 567V684C605 709 594 720 569 720H105C80 720 69 709 69 684V36C69 11 80 0 105 0ZM515 100V90H178V630H515V620H188V369H434V359H188V100ZM305 797C328 803 344 803 367 797L504 757C539 746 546 752 546 788V869C546 905 538 909 504 922L367 972C357 976 347 977 335 977C323 976 308 973 296 968L168 922C136 909 127 905 127 869V788C127 752 134 746 168 757ZM455 850 368 878C358 881 349 884 336 884C323 884 314 881 304 878L217 850V861L300 888C312 891 321 894 336 894C351 894 360 891 372 888L455 861ZM406 -240C431 -240 442 -229 442 -204V-77C442 -52 431 -41 406 -41H248C223 -41 212 -52 212 -77V-204C212 -229 223 -240 248 -240ZM332 -170H322V-111H332Z" glyph-name="Ecircumflexdotbelow" horiz-adv-x="654" unicode="&#7878;" /><glyph d="M569 0C594 0 605 11 605 36V153C605 178 594 189 569 189H293V275H488C513 275 524 286 524 311V418C524 443 513 454 488 454H293V531H569C594 531 605 542 605 567V684C605 709 594 720 569 720H105C80 720 69 709 69 684V36C69 11 80 0 105 0ZM515 100V90H178V630H515V620H188V369H434V359H188V100ZM305 797C328 803 344 803 367 797L504 757C539 746 546 752 546 788V869C546 905 538 909 504 922L367 972C357 976 347 977 335 977C323 976 308 973 296 968L168 922C136 909 127 905 127 869V788C127 752 134 746 168 757ZM455 850 368 878C358 881 349 884 336 884C323 884 314 881 304 878L217 850V861L300 888C312 891 321 894 336 894C351 894 360 891 372 888L455 861ZM393 1177C371 1182 359 1167 359 1144V1038C359 1013 371 1008 395 1002L532 969C554 964 566 979 566 1002V1108C566 1133 554 1138 530 1144ZM505 1068V1058L418 1079V1089Z" glyph-name="Ecircumflexgrave" horiz-adv-x="654" unicode="&#7872;" /><glyph d="M569 0C594 0 605 11 605 36V153C605 178 594 189 569 189H293V275H488C513 275 524 286 524 311V418C524 443 513 454 488 454H293V531H569C594 531 605 542 605 567V684C605 709 594 720 569 720H105C80 720 69 709 69 684V36C69 11 80 0 105 0ZM515 100V90H178V630H515V620H188V369H434V359H188V100ZM305 797C328 803 344 803 367 797L504 757C539 746 546 752 546 788V869C546 905 538 909 504 922L367 972C357 976 347 977 335 977C323 976 308 973 296 968L168 922C136 909 127 905 127 869V788C127 752 134 746 168 757ZM455 850 368 878C358 881 349 884 336 884C323 884 314 881 304 878L217 850V861L300 888C312 891 321 894 336 894C351 894 360 891 372 888L455 861ZM590 991C640 998 671 1019 671 1078V1142C671 1209 631 1244 563 1244H395C382 1244 376 1238 376 1225V1152C376 1139 382 1133 395 1133H524C535 1133 543 1129 543 1119C543 1107 537 1104 524 1102L435 1088C422 1086 416 1080 418 1067L429 988C431 975 436 970 449 972ZM474 1029 473 1039 569 1053C589 1056 602 1067 602 1095V1145C602 1176 582 1184 562 1184H426V1194H562C587 1194 612 1184 612 1145V1095C612 1057 592 1047 571 1044Z" glyph-name="Ecircumflexhookabove" horiz-adv-x="654" unicode="&#7874;" /><glyph d="M569 0C594 0 605 11 605 36V153C605 178 594 189 569 189H293V275H488C513 275 524 286 524 311V418C524 443 513 454 488 454H293V531H569C594 531 605 542 605 567V684C605 709 594 720 569 720H105C80 720 69 709 69 684V36C69 11 80 0 105 0ZM515 100V90H178V630H515V620H188V369H434V359H188V100ZM305 797C328 803 344 803 367 797L504 757C539 746 546 752 546 788V869C546 905 538 909 504 922L367 972C357 976 347 977 335 977C323 976 308 973 296 968L168 922C136 909 127 905 127 869V788C127 752 134 746 168 757ZM455 850 368 878C358 881 349 884 336 884C323 884 314 881 304 878L217 850V861L300 888C312 891 321 894 336 894C351 894 360 891 372 888L455 861ZM336 1014 352 1012C432 1000 446 998 509 1017C532 1026 545 1033 545 1058V1159C545 1184 533 1192 509 1185C450 1167 446 1164 358 1177L336 1180L319 1182C239 1194 226 1196 163 1177C140 1168 127 1161 127 1136V1035C127 1010 139 1002 163 1009C216 1025 232 1029 308 1018ZM455 1091V1081C428 1078 402 1081 351 1089L335 1091L307 1095C263 1102 239 1103 217 1099V1110C240 1113 264 1111 309 1105L337 1101L353 1099C404 1091 428 1088 455 1091Z" glyph-name="Ecircumflextilde" horiz-adv-x="654" unicode="&#7876;" /><glyph d="M569 0C594 0 605 11 605 36V153C605 178 594 189 569 189H293V275H488C513 275 524 286 524 311V418C524 443 513 454 488 454H293V531H569C594 531 605 542 605 567V684C605 709 594 720 569 720H105C80 720 69 709 69 684V36C69 11 80 0 105 0ZM515 100V90H178V630H515V620H188V369H434V359H188V100ZM285 760C308 760 318 770 318 793V914C318 937 308 947 285 947H147C124 947 113 937 113 914V793C113 770 124 760 147 760ZM543 760C566 760 576 770 576 793V914C576 937 566 947 543 947H405C382 947 372 937 372 914V793C372 770 382 760 405 760ZM221 830H211V877H221ZM479 830H469V877H479Z" glyph-name="Edieresis" horiz-adv-x="654" unicode="&#203;" /><glyph d="M594 36V153C594 178 583 189 558 189H337C285 189 276 209 276 237V275H478C503 275 514 286 514 311V418C514 444 503 454 478 454H276V481C276 507 285 531 337 531H558C583 531 594 542 594 567V684C594 709 583 720 558 720H304C115 720 58 637 58 515V204C58 83 115 0 304 0H558C583 0 594 11 594 36ZM504 100V90H322C192 90 162 126 162 219V499C162 594 194 630 322 630H504V620H322C204 620 172 588 172 499V369H434V359H172V219C172 132 202 100 322 100ZM295 760C318 760 328 770 328 793V914C328 937 318 947 295 947H157C134 947 123 937 123 914V793C123 770 134 760 157 760ZM553 760C576 760 586 770 586 793V914C586 937 576 947 553 947H415C392 947 382 937 382 914V793C382 770 392 760 415 760ZM231 830H221V877H231ZM489 830H479V877H489Z" glyph-name="Edieresis.salt" horiz-adv-x="643" unicode="&#57614;" /><glyph d="M790 36V149C790 174 779 185 754 185H481C429 185 420 205 420 233V261H673C698 261 709 272 709 297V392C709 418 698 428 673 428H420V445C420 471 429 495 481 495H754C779 495 790 506 790 531V644C790 669 779 680 754 680H442C253 680 196 597 196 475V204C196 83 253 0 442 0H754C779 0 790 11 790 36ZM468 90C338 90 308 126 308 219V459C308 554 340 590 468 590H704V580H468C350 580 318 548 318 459V349H623V339H318V219C318 132 348 100 468 100H704V90ZM438 720C461 720 471 730 471 753V874C471 897 461 907 438 907H300C277 907 266 897 266 874V753C266 730 277 720 300 720ZM696 720C719 720 729 730 729 753V874C729 897 719 907 696 907H558C535 907 525 897 525 874V753C525 730 535 720 558 720ZM374 790H364V837H374ZM632 790H622V837H632Z" glyph-name="Edieresis.salt_v" horiz-adv-x="1000" unicode="&#57851;" /><glyph d="M754 0C779 0 790 11 790 36V149C790 174 779 185 754 185H424V261H673C698 261 709 272 709 297V392C709 418 698 428 673 428H424V495H754C779 495 790 506 790 531V644C790 669 779 680 754 680H236C211 680 200 669 200 644V36C200 11 211 0 236 0ZM701 100V90H308V590H701V580H318V349H620V339H318V100ZM438 720C461 720 471 730 471 753V874C471 897 461 907 438 907H300C277 907 266 897 266 874V753C266 730 277 720 300 720ZM696 720C719 720 729 730 729 753V874C729 897 719 907 696 907H558C535 907 525 897 525 874V753C525 730 535 720 558 720ZM374 790H364V837H374ZM632 790H622V837H632Z" glyph-name="Edieresis.v" horiz-adv-x="1000" unicode="&#57756;" /><glyph d="M569 0C594 0 605 11 605 36V153C605 178 594 189 569 189H293V275H488C513 275 524 286 524 311V418C524 443 513 454 488 454H293V531H569C594 531 605 542 605 567V684C605 709 594 720 569 720H105C80 720 69 709 69 684V36C69 11 80 0 105 0ZM515 100V90H178V630H515V620H188V369H434V359H188V100ZM405 760C430 760 441 771 441 796V923C441 948 430 959 405 959H247C222 959 211 948 211 923V796C211 771 222 760 247 760ZM331 830H321V889H331Z" glyph-name="Edotaccent" horiz-adv-x="654" unicode="&#278;" /><glyph d="M594 36V153C594 178 583 189 558 189H337C285 189 276 209 276 237V275H478C503 275 514 286 514 311V418C514 444 503 454 478 454H276V481C276 507 285 531 337 531H558C583 531 594 542 594 567V684C594 709 583 720 558 720H304C115 720 58 637 58 515V204C58 83 115 0 304 0H558C583 0 594 11 594 36ZM504 100V90H322C192 90 162 126 162 219V499C162 594 194 630 322 630H504V620H322C204 620 172 588 172 499V369H434V359H172V219C172 132 202 100 322 100ZM437 760C462 760 473 771 473 796V923C473 948 462 959 437 959H279C254 959 243 948 243 923V796C243 771 254 760 279 760ZM363 830H353V889H363Z" glyph-name="Edotaccent.salt" horiz-adv-x="643" unicode="&#57617;" /><glyph d="M580 720C605 720 616 731 616 756V883C616 908 605 919 580 919H422C397 919 386 908 386 883V756C386 731 397 720 422 720ZM506 790H496V849H506ZM790 36V149C790 174 779 185 754 185H481C429 185 420 205 420 233V261H673C698 261 709 272 709 297V392C709 418 698 428 673 428H420V445C420 471 429 495 481 495H754C779 495 790 506 790 531V644C790 669 779 680 754 680H442C253 680 196 597 196 475V204C196 83 253 0 442 0H754C779 0 790 11 790 36ZM468 90C338 90 308 126 308 219V459C308 554 340 590 468 590H704V580H468C350 580 318 548 318 459V349H623V339H318V219C318 132 348 100 468 100H704V90Z" glyph-name="Edotaccent.salt_v" horiz-adv-x="1000" unicode="&#57854;" /><glyph d="M580 720C605 720 616 731 616 756V883C616 908 605 919 580 919H422C397 919 386 908 386 883V756C386 731 397 720 422 720ZM506 790H496V849H506ZM754 0C779 0 790 11 790 36V149C790 174 779 185 754 185H424V261H673C698 261 709 272 709 297V392C709 418 698 428 673 428H424V495H754C779 495 790 506 790 531V644C790 669 779 680 754 680H236C211 680 200 669 200 644V36C200 11 211 0 236 0ZM701 100V90H308V590H701V580H318V349H620V339H318V100Z" glyph-name="Edotaccent.v" horiz-adv-x="1000" unicode="&#57759;" /><glyph d="M569 0C594 0 605 11 605 36V153C605 178 594 189 569 189H293V275H488C513 275 524 286 524 311V418C524 443 513 454 488 454H293V531H569C594 531 605 542 605 567V684C605 709 594 720 569 720H105C80 720 69 709 69 684V36C69 11 80 0 105 0ZM515 100V90H178V630H515V620H188V369H434V359H188V100ZM419 -240C444 -240 455 -229 455 -204V-77C455 -52 444 -41 419 -41H261C236 -41 225 -52 225 -77V-204C225 -229 236 -240 261 -240ZM345 -170H335V-111H345Z" glyph-name="Edotbelow" horiz-adv-x="654" unicode="&#7864;" /><glyph d="M569 0C594 0 605 11 605 36V153C605 178 594 189 569 189H293V275H488C513 275 524 286 524 311V418C524 443 513 454 488 454H293V531H569C594 531 605 542 605 567V684C605 709 594 720 569 720H105C80 720 69 709 69 684V36C69 11 80 0 105 0ZM515 100V90H178V630H515V620H188V369H434V359H188V100ZM502 753C525 750 536 763 536 786V882C536 907 525 915 500 918L151 961C128 964 117 951 117 928V832C117 807 128 799 153 796ZM207 867V877L446 847V837Z" glyph-name="Egrave" horiz-adv-x="654" unicode="&#200;" /><glyph d="M594 36V153C594 178 583 189 558 189H337C285 189 276 209 276 237V275H478C503 275 514 286 514 311V418C514 444 503 454 478 454H276V481C276 507 285 531 337 531H558C583 531 594 542 594 567V684C594 709 583 720 558 720H304C115 720 58 637 58 515V204C58 83 115 0 304 0H558C583 0 594 11 594 36ZM504 100V90H322C192 90 162 126 162 219V499C162 594 194 630 322 630H504V620H322C204 620 172 588 172 499V369H434V359H172V219C172 132 202 100 322 100ZM512 753C535 750 546 763 546 786V882C546 907 535 915 510 918L161 961C138 964 127 951 127 928V832C127 807 138 799 163 796ZM217 867V877L456 847V837Z" glyph-name="Egrave.salt" horiz-adv-x="643" unicode="&#57611;" /><glyph d="M790 36V149C790 174 779 185 754 185H481C429 185 420 205 420 233V261H673C698 261 709 272 709 297V392C709 418 698 428 673 428H420V445C420 471 429 495 481 495H754C779 495 790 506 790 531V644C790 669 779 680 754 680H442C253 680 196 597 196 475V204C196 83 253 0 442 0H754C779 0 790 11 790 36ZM468 90C338 90 308 126 308 219V459C308 554 340 590 468 590H704V580H468C350 580 318 548 318 459V349H623V339H318V219C318 132 348 100 468 100H704V90ZM675 713C698 710 709 723 709 746V842C709 867 698 875 673 878L324 921C301 924 290 911 290 888V792C290 767 301 759 326 756ZM380 827V837L619 807V797Z" glyph-name="Egrave.salt_v" horiz-adv-x="1000" unicode="&#57848;" /><glyph d="M754 0C779 0 790 11 790 36V149C790 174 779 185 754 185H424V261H673C698 261 709 272 709 297V392C709 418 698 428 673 428H424V495H754C779 495 790 506 790 531V644C790 669 779 680 754 680H236C211 680 200 669 200 644V36C200 11 211 0 236 0ZM701 100V90H308V590H701V580H318V349H620V339H318V100ZM675 713C698 710 709 723 709 746V842C709 867 698 875 673 878L324 921C301 924 290 911 290 888V792C290 767 301 759 326 756ZM380 827V837L619 807V797Z" glyph-name="Egrave.v" horiz-adv-x="1000" unicode="&#57753;" /><glyph d="M569 0C594 0 605 11 605 36V153C605 178 594 189 569 189H293V275H488C513 275 524 286 524 311V418C524 443 513 454 488 454H293V531H569C594 531 605 542 605 567V684C605 709 594 720 569 720H105C80 720 69 709 69 684V36C69 11 80 0 105 0ZM515 100V90H178V630H515V620H188V369H434V359H188V100ZM409 767C459 774 490 795 490 854V918C490 985 450 1020 382 1020H214C201 1020 195 1014 195 1001V928C195 915 201 909 214 909H343C354 909 362 905 362 895C362 883 356 880 343 878L254 864C241 862 235 856 237 843L248 764C250 751 255 746 268 748ZM293 805 292 815 388 829C408 832 421 843 421 871V921C421 952 401 960 381 960H245V970H381C406 970 431 960 431 921V871C431 833 411 823 390 820Z" glyph-name="Ehookabove" horiz-adv-x="654" unicode="&#7866;" /><glyph d="M569 0C594 0 605 11 605 36V153C605 178 594 189 569 189H293V275H488C513 275 524 286 524 311V418C524 443 513 454 488 454H293V531H569C594 531 605 542 605 567V684C605 709 594 720 569 720H105C80 720 69 709 69 684V36C69 11 80 0 105 0ZM515 100V90H178V630H515V620H188V369H434V359H188V100ZM510 760C535 760 546 771 546 796V889C546 914 535 925 510 925H163C138 925 127 914 127 889V796C127 771 138 760 163 760ZM217 847H456V837H217Z" glyph-name="Emacron" horiz-adv-x="654" unicode="&#274;" /><glyph d="M594 36V153C594 178 583 189 558 189H337C285 189 276 209 276 237V275H478C503 275 514 286 514 311V418C514 444 503 454 478 454H276V481C276 507 285 531 337 531H558C583 531 594 542 594 567V684C594 709 583 720 558 720H304C115 720 58 637 58 515V204C58 83 115 0 304 0H558C583 0 594 11 594 36ZM504 100V90H322C192 90 162 126 162 219V499C162 594 194 630 322 630H504V620H322C204 620 172 588 172 499V369H434V359H172V219C172 132 202 100 322 100ZM530 760C555 760 566 771 566 796V889C566 914 555 925 530 925H183C158 925 147 914 147 889V796C147 771 158 760 183 760ZM237 847H476V837H237Z" glyph-name="Emacron.salt" horiz-adv-x="643" unicode="&#57615;" /><glyph d="M673 720C698 720 709 731 709 756V849C709 874 698 885 673 885H326C301 885 290 874 290 849V756C290 731 301 720 326 720ZM380 807H619V797H380ZM790 36V149C790 174 779 185 754 185H481C429 185 420 205 420 233V261H673C698 261 709 272 709 297V392C709 418 698 428 673 428H420V445C420 471 429 495 481 495H754C779 495 790 506 790 531V644C790 669 779 680 754 680H442C253 680 196 597 196 475V204C196 83 253 0 442 0H754C779 0 790 11 790 36ZM468 90C338 90 308 126 308 219V459C308 554 340 590 468 590H704V580H468C350 580 318 548 318 459V349H623V339H318V219C318 132 348 100 468 100H704V90Z" glyph-name="Emacron.salt_v" horiz-adv-x="1000" unicode="&#57852;" /><glyph d="M673 720C698 720 709 731 709 756V849C709 874 698 885 673 885H326C301 885 290 874 290 849V756C290 731 301 720 326 720ZM380 807H619V797H380ZM754 0C779 0 790 11 790 36V149C790 174 779 185 754 185H424V261H673C698 261 709 272 709 297V392C709 418 698 428 673 428H424V495H754C779 495 790 506 790 531V644C790 669 779 680 754 680H236C211 680 200 669 200 644V36C200 11 211 0 236 0ZM701 100V90H308V590H701V580H318V349H620V339H318V100Z" glyph-name="Emacron.v" horiz-adv-x="1000" unicode="&#57757;" /><glyph d="M64 531V36C64 11 75 0 100 0H252C278 0 288 11 288 36V492C288 519 300 539 371 539C441 539 453 519 453 492V149C453 121 447 101 412 101H391C366 101 355 90 355 65V-54C355 -79 366 -90 391 -90H436C625 -90 682 -7 682 114V531C682 653 621 735 373 735C125 735 64 653 64 531ZM445 1V11C527 11 562 36 562 100V507C562 582 521 632 372 632C223 632 181 582 181 507V90H171V507C171 588 215 642 372 642C529 642 572 588 572 507V100C572 30 537 1 445 1Z" glyph-name="Eng" horiz-adv-x="746" unicode="&#330;" /><glyph d="M200 512V36C200 11 211 0 236 0H388C414 0 424 11 424 36V473C424 500 436 520 498 520C559 520 571 500 571 473V150C571 122 565 102 530 102H509C484 102 473 91 473 66V-54C473 -79 484 -90 509 -90H554C743 -90 800 -7 800 115V512C800 634 739 716 500 716C261 716 200 634 200 512ZM317 90H307V507C307 588 349 642 498 642C649 642 690 588 690 507V100C690 30 655 1 563 1V11C645 11 680 36 680 100V507C680 582 641 632 498 632C357 632 317 582 317 507Z" glyph-name="Eng.v" horiz-adv-x="1000" unicode="&#57833;" /><glyph d="M605 -152V-80C605 -54 597 -46 569 -46H528L535 0H569C594 0 605 11 605 36V153C605 178 594 189 569 189H293V275H488C513 275 524 286 524 311V418C524 443 513 454 488 454H293V531H569C594 531 605 542 605 567V684C605 709 594 720 569 720H105C80 720 69 709 69 684V36C69 11 80 0 105 0H369L360 -51C346 -144 375 -186 461 -186H572C598 -186 605 -178 605 -152ZM491 -116C442 -116 432 -91 440 -41L452 42C456 68 460 78 476 90H178V630H515V620H188V369H434V359H188V100H515V90H495C470 76 466 71 462 42L450 -43C445 -83 450 -106 491 -106H515V-116Z" glyph-name="Eogonek" horiz-adv-x="654" unicode="&#280;" /><glyph d="M594 -152V-80C594 -54 586 -46 558 -46H517L524 0H558C583 0 594 11 594 36V153C594 178 583 189 558 189H337C285 189 276 209 276 237V275H478C503 275 514 286 514 311V418C514 444 503 454 478 454H276V481C276 507 285 531 337 531H558C583 531 594 542 594 567V684C594 709 583 720 558 720H304C115 720 58 637 58 515V204C58 83 115 0 304 0H358L349 -51C335 -144 364 -186 450 -186H561C587 -186 594 -178 594 -152ZM480 -116C431 -116 421 -91 429 -41L441 42C445 68 449 78 465 90H322C192 90 162 126 162 219V499C162 594 194 630 322 630H504V620H322C204 620 172 588 172 499V369H434V359H172V219C172 132 202 100 322 100H504V90H484C459 76 455 71 451 42L439 -43C434 -83 439 -106 480 -106H504V-116Z" glyph-name="Eogonek.salt" horiz-adv-x="643" unicode="&#57618;" /><glyph d="M790 -112V-40C790 -14 782 -6 754 -6H713L720 40H754C779 40 790 51 790 76V189C790 214 779 225 754 225H481C429 225 420 245 420 273V301H673C698 301 709 312 709 337V432C709 458 698 468 673 468H420V485C420 511 429 535 481 535H754C779 535 790 546 790 571V684C790 709 779 720 754 720H442C253 720 196 637 196 515V244C196 123 253 40 442 40H554L545 -11C531 -104 560 -146 646 -146H757C783 -146 790 -138 790 -112ZM661 130H468C338 130 308 166 308 259V499C308 594 340 630 468 630H704V620H468C350 620 318 588 318 499V389H623V379H318V259C318 172 348 140 468 140H704V130H680C655 116 651 111 647 82L635 -3C630 -43 635 -66 676 -66H700V-76H676C627 -76 617 -51 625 -1L637 82C641 108 645 118 661 130Z" glyph-name="Eogonek.salt_v" horiz-adv-x="1000" unicode="&#57855;" /><glyph d="M790 -112V-40C790 -14 782 -6 754 -6H713L720 40H754C779 40 790 51 790 76V189C790 214 779 225 754 225H424V301H673C698 301 709 312 709 337V432C709 458 698 468 673 468H424V535H754C779 535 790 546 790 571V684C790 709 779 720 754 720H236C211 720 200 709 200 684V76C200 51 211 40 236 40H554L545 -11C531 -104 560 -146 646 -146H757C783 -146 790 -138 790 -112ZM676 -76C627 -76 617 -51 625 -1L637 82C641 108 645 118 661 130H308V630H701V620H318V389H620V379H318V140H701V130H680C655 116 651 111 647 82L635 -3C630 -43 635 -66 676 -66H700V-76Z" glyph-name="Eogonek.v" horiz-adv-x="1000" unicode="&#57760;" /><glyph d="M452 0C641 0 698 83 698 204V516C698 637 641 720 452 720H115C90 720 79 709 79 684V444H56C31 444 20 433 20 408V301C20 275 31 265 56 265H79V36C79 11 90 0 115 0ZM186 90V349H110V359H186V630H430C566 630 590 568 590 491V226C590 149 568 90 430 90ZM290 349H196V100H430C558 100 580 153 580 226V491C580 564 556 620 430 620H196V359H290ZM303 189V265H344C369 265 380 275 380 301V408C380 434 369 444 344 444H303V529H425C465 529 472 507 472 481V238C472 211 465 189 425 189Z" glyph-name="Eth" horiz-adv-x="756" unicode="&#208;" /><glyph d="M554 0C743 0 800 83 800 204V516C800 637 743 720 554 720H236C211 720 200 709 200 684V444H177C152 444 141 433 141 408V301C141 275 152 265 177 265H200V36C200 11 211 0 236 0ZM307 90V349H231V359H307V630H532C668 630 692 568 692 491V226C692 149 670 90 532 90ZM411 349H317V100H532C660 100 682 153 682 226V491C682 564 658 620 532 620H317V359H411ZM424 189V265H466C491 265 502 275 502 301V408C502 434 491 444 466 444H424V529H527C567 529 574 507 574 481V238C574 211 567 189 527 189Z" glyph-name="Eth.v" horiz-adv-x="1000" unicode="&#57825;" /><glyph d="M569 0C594 0 605 11 605 36V153C605 178 594 189 569 189H293V275H488C513 275 524 286 524 311V418C524 443 513 454 488 454H293V531H569C594 531 605 542 605 567V684C605 709 594 720 569 720H105C80 720 69 709 69 684V36C69 11 80 0 105 0ZM515 100V90H178V630H515V620H188V369H434V359H188V100ZM336 764 352 762C432 750 446 748 509 767C532 776 545 783 545 808V909C545 934 533 942 509 935C450 917 446 914 358 927L336 930L319 932C239 944 226 946 163 927C140 918 127 911 127 886V785C127 760 139 752 163 759C216 775 232 779 308 768ZM455 841V831C428 828 402 831 351 839L335 841L307 845C263 852 239 853 217 849V860C240 863 264 861 309 855L337 851L353 849C404 841 428 838 455 841Z" glyph-name="Etilde" horiz-adv-x="654" unicode="&#7868;" /><glyph d="M604 36V145C604 170 593 181 568 181H357C312 181 299 196 296 219H476C493 219 500 223 500 242V314C500 333 493 338 476 338H296V379H476C493 379 500 383 500 402V474C500 493 493 498 476 498H297C300 520 313 537 357 537H568C593 537 604 548 604 573V684C604 709 593 720 568 720H324C135 720 78 637 78 515V498H64C47 498 40 493 40 474V402C40 383 47 379 64 379H78V338H64C47 338 40 333 40 314V242C40 223 47 219 64 219H78V204C78 83 135 0 324 0H568C593 0 604 11 604 36ZM342 90C212 90 182 126 182 219V273H110V283H182V433H110V443H182V499C182 594 214 630 342 630H514V620H342C224 620 192 588 192 499V443H430V433H192V283H430V273H192V219C192 132 222 100 342 100H514V90Z" glyph-name="Euro" horiz-adv-x="648" unicode="&#8364;" /><glyph d="M260 0C285 0 296 11 296 36V233H470C495 233 506 244 506 269V389C506 414 495 425 470 425H296V529H551C576 529 587 540 587 565V684C587 709 576 720 551 720H105C80 720 69 709 69 684V36C69 11 80 0 105 0ZM178 90V630H497V620H188V334H416V324H188V90Z" glyph-name="F" horiz-adv-x="618" unicode="F" /><glyph d="M392 0C417 0 428 12 428 37V234H674C699 234 710 245 710 270V390C710 415 699 426 674 426H428V530H755C780 530 791 541 791 566V685C791 710 780 721 755 721H237C212 721 201 710 201 685V37C201 12 212 0 237 0ZM310 90V630H701V620H320V334H620V324H320V90Z" glyph-name="F.v" horiz-adv-x="1000" unicode="&#65318;" /><glyph d="M619 0C644 0 655 11 655 36V345C655 370 644 381 619 381H464C439 381 428 370 428 345V189H331C300 189 285 204 285 238V477C285 511 304 527 346 527H554C579 527 590 538 590 563V684C590 709 579 720 554 720H304C136 720 58 655 58 516V204C58 65 136 0 304 0ZM347 90C200 90 167 126 167 219V499C167 594 199 630 327 630H500V620H327C209 620 177 588 177 499V219C177 132 212 100 347 100H536V291H546V90Z" glyph-name="G" horiz-adv-x="708" unicode="G" /><glyph d="M764 0C789 0 800 11 800 36V325C800 350 789 361 764 361H609C584 361 573 350 573 325V189H468C428 189 422 211 422 238V437C422 463 431 487 483 487H699C724 487 735 498 735 523V644C735 669 724 680 699 680H441C252 680 195 597 195 476V204C195 83 252 0 441 0ZM304 457C304 552 336 588 464 588H645V578H464C346 578 314 546 314 457V219C314 132 349 100 484 100H682V291H692V90H484C337 90 304 126 304 219Z" glyph-name="G.s_v" horiz-adv-x="1000" unicode="&#57930;" /><glyph d="M764 0C789 0 800 11 800 36V345C800 370 789 381 764 381H609C584 381 573 370 573 345V189H468C428 189 422 211 422 238V477C422 503 431 527 483 527H699C724 527 735 538 735 563V684C735 709 724 720 699 720H441C252 720 195 637 195 516V204C195 83 252 0 441 0ZM484 90C337 90 304 126 304 219V499C304 594 336 630 464 630H645V620H464C346 620 314 588 314 499V219C314 132 349 100 484 100H682V291H692V90Z" glyph-name="G.v" horiz-adv-x="1000" unicode="&#65319;" /><glyph d="M619 0C644 0 655 11 655 36V345C655 370 644 381 619 381H464C439 381 428 370 428 345V189H331C300 189 285 204 285 238V477C285 511 304 527 346 527H554C579 527 590 538 590 563V684C590 709 579 720 554 720H304C136 720 58 655 58 516V204C58 65 136 0 304 0ZM347 90C200 90 167 126 167 219V499C167 594 199 630 327 630H500V620H327C209 620 177 588 177 499V219C177 132 212 100 347 100H536V291H546V90ZM591 897V941C591 966 580 977 555 977H464C441 977 434 970 434 946V925C434 906 425 892 375 892C326 892 318 906 318 925V946C318 970 310 977 289 977H193C168 977 157 966 157 941V897C157 812 200 754 374 754C548 754 591 812 591 897ZM508 907H518V898C518 860 497 818 373 818C249 818 233 860 233 898V907H243V898C243 862 265 828 373 828C481 828 508 862 508 898Z" glyph-name="Gbreve" horiz-adv-x="708" unicode="&#286;" /><glyph d="M764 0C789 0 800 11 800 36V325C800 350 789 361 764 361H609C584 361 573 350 573 325V189H468C428 189 422 211 422 238V437C422 463 431 487 483 487H699C724 487 735 498 735 523V644C735 669 724 680 699 680H441C252 680 195 597 195 476V204C195 83 252 0 441 0ZM304 457C304 552 336 588 464 588H645V578H464C346 578 314 546 314 457V219C314 132 349 100 484 100H682V291H692V90H484C337 90 304 126 304 219ZM717 857V901C717 926 706 937 681 937H590C567 937 560 930 560 906V885C560 866 551 852 501 852C452 852 444 866 444 885V906C444 930 436 937 415 937H319C294 937 283 926 283 901V857C283 772 326 714 500 714C674 714 717 772 717 857ZM634 867H644V858C644 820 623 778 499 778C375 778 359 820 359 858V867H369V858C369 822 391 788 499 788C607 788 634 822 634 858Z" glyph-name="Gbreve.v" horiz-adv-x="1000" unicode="&#57763;" /><glyph d="M619 0C644 0 655 11 655 36V345C655 370 644 381 619 381H464C439 381 428 370 428 345V189H331C300 189 285 204 285 238V477C285 511 304 527 346 527H554C579 527 590 538 590 563V684C590 709 579 720 554 720H304C136 720 58 655 58 516V204C58 65 136 0 304 0ZM347 90C200 90 167 126 167 219V499C167 594 199 630 327 630H500V620H327C209 620 177 588 177 499V219C177 132 212 100 347 100H536V291H546V90ZM386 932C363 926 347 926 324 932L187 972C152 983 145 977 145 941V860C145 824 153 820 187 807L324 757C334 753 344 752 356 752C368 753 383 756 395 761L523 807C555 820 564 824 564 860V941C564 977 557 983 523 972ZM235 879 322 851C332 848 341 845 354 845C367 845 376 848 386 851L473 879V868L390 841C378 838 369 835 354 835C339 835 330 838 318 841L235 868Z" glyph-name="Gcaron" horiz-adv-x="708" unicode="&#486;" /><glyph d="M619 0C644 0 655 11 655 36V345C655 370 644 381 619 381H464C439 381 428 370 428 345V189H331C300 189 285 204 285 238V477C285 511 304 527 346 527H554C579 527 590 538 590 563V684C590 709 579 720 554 720H304C136 720 58 655 58 516V204C58 65 136 0 304 0ZM347 90C200 90 167 126 167 219V499C167 594 199 630 327 630H500V620H327C209 620 177 588 177 499V219C177 132 212 100 347 100H536V291H546V90ZM349 797C372 803 388 803 411 797L548 757C583 746 590 752 590 788V869C590 905 582 909 548 922L411 972C401 976 391 977 379 977C367 976 352 973 340 968L212 922C180 909 171 905 171 869V788C171 752 178 746 212 757ZM499 850 412 878C402 881 393 884 380 884C367 884 358 881 348 878L261 850V861L344 888C356 891 365 894 380 894C395 894 404 891 416 888L499 861Z" glyph-name="Gcircumflex" horiz-adv-x="708" unicode="&#284;" /><glyph d="M764 0C789 0 800 11 800 36V325C800 350 789 361 764 361H609C584 361 573 350 573 325V189H468C428 189 422 211 422 238V437C422 463 431 487 483 487H699C724 487 735 498 735 523V644C735 669 724 680 699 680H441C252 680 195 597 195 476V204C195 83 252 0 441 0ZM304 457C304 552 336 588 464 588H645V578H464C346 578 314 546 314 457V219C314 132 349 100 484 100H682V291H692V90H484C337 90 304 126 304 219ZM468 757C491 763 507 763 530 757L667 717C702 706 709 712 709 748V829C709 865 701 869 667 882L530 932C520 936 510 937 498 937C486 936 471 933 459 928L331 882C299 869 290 865 290 829V748C290 712 297 706 331 717ZM618 810 531 838C521 841 512 844 499 844C486 844 477 841 467 838L380 810V821L463 848C475 851 484 854 499 854C514 854 523 851 535 848L618 821Z" glyph-name="Gcircumflex.v" horiz-adv-x="1000" unicode="&#57762;" /><glyph d="M619 0C644 0 655 11 655 36V345C655 370 644 381 619 381H464C439 381 428 370 428 345V189H331C300 189 285 204 285 238V477C285 511 304 527 346 527H554C579 527 590 538 590 563V684C590 709 579 720 554 720H304C136 720 58 655 58 516V204C58 65 136 0 304 0ZM347 90C200 90 167 126 167 219V499C167 594 199 630 327 630H500V620H327C209 620 177 588 177 499V219C177 132 212 100 347 100H536V291H546V90ZM365 -362C441 -362 490 -320 490 -234V-82C490 -52 481 -43 453 -43H295C267 -43 258 -52 258 -82V-191C258 -221 267 -230 295 -230H381V-243C381 -258 373 -267 358 -267H299C278 -267 269 -276 269 -297V-331C269 -353 278 -362 299 -362ZM433 -132V-229C433 -290 404 -315 350 -315H315V-305H350C398 -305 423 -283 423 -229V-142H315V-132Z" glyph-name="Gcommaaccent" horiz-adv-x="708" unicode="&#290;" /><glyph d="M764 40C789 40 800 51 800 76V365C800 390 789 401 764 401H609C584 401 573 390 573 365V229H468C428 229 422 251 422 278V477C422 503 431 527 483 527H699C724 527 735 538 735 563V684C735 709 724 720 699 720H441C252 720 195 637 195 516V244C195 123 252 40 441 40ZM304 497C304 592 336 628 464 628H645V618H464C346 618 314 586 314 497V259C314 172 349 140 484 140H682V331H692V130H484C337 130 304 166 304 259ZM492 -290C568 -290 617 -248 617 -162V-50C617 -19 608 -10 580 -10H422C394 -10 385 -19 385 -50V-129C385 -159 394 -168 422 -168H508V-181C508 -196 500 -205 485 -205H426C405 -205 396 -214 396 -235V-259C396 -281 405 -290 426 -290ZM435 -84H567V-171C567 -225 537 -252 489 -252H435V-242H489C531 -242 557 -218 557 -171V-94H435Z" glyph-name="Gcommaaccent.v" horiz-adv-x="1000" unicode="&#57765;" /><glyph d="M619 0C644 0 655 11 655 36V345C655 370 644 381 619 381H464C439 381 428 370 428 345V189H331C300 189 285 204 285 238V477C285 511 304 527 346 527H554C579 527 590 538 590 563V684C590 709 579 720 554 720H304C136 720 58 655 58 516V204C58 65 136 0 304 0ZM347 90C200 90 167 126 167 219V499C167 594 199 630 327 630H500V620H327C209 620 177 588 177 499V219C177 132 212 100 347 100H536V291H546V90ZM454 760C479 760 490 771 490 796V923C490 948 479 959 454 959H296C271 959 260 948 260 923V796C260 771 271 760 296 760ZM380 830H370V889H380Z" glyph-name="Gdotaccent" horiz-adv-x="708" unicode="&#288;" /><glyph d="M764 0C789 0 800 11 800 36V325C800 350 789 361 764 361H609C584 361 573 350 573 325V189H468C428 189 422 211 422 238V437C422 463 431 487 483 487H699C724 487 735 498 735 523V644C735 669 724 680 699 680H441C252 680 195 597 195 476V204C195 83 252 0 441 0ZM304 457C304 552 336 588 464 588H645V578H464C346 578 314 546 314 457V219C314 132 349 100 484 100H682V291H692V90H484C337 90 304 126 304 219ZM580 720C605 720 616 731 616 756V883C616 908 605 919 580 919H422C397 919 386 908 386 883V756C386 731 397 720 422 720ZM506 790H496V849H506Z" glyph-name="Gdotaccent.v" horiz-adv-x="1000" unicode="&#57764;" /><glyph d="M193 90H183V630H431C500 630 525 593 505 518L465 374H511C581 374 616 345 616 276V188C616 120 585 90 502 90H446V100H502C577 100 606 126 606 188V276C606 339 573 364 511 364H451L495 520C513 585 492 620 431 620H193ZM296 36V531H375C392 531 397 518 394 503L361 340C353 303 366 284 398 284H470C486 284 497 277 497 261V212C497 196 486 189 470 189H392C367 189 356 178 356 153V36C356 11 367 0 392 0H530C650 0 725 64 725 166V289C725 382 668 433 597 446L620 529C651 640 594 720 476 720H105C81 720 69 708 69 684V36C69 11 80 0 105 0H260C285 0 296 11 296 36Z" glyph-name="Germandbls" horiz-adv-x="759" unicode="&#7838;" /><glyph d="M319 620V90H309V630H558C627 630 647 591 632 518L602 374H608C673 374 706 345 706 276V188C706 120 677 90 600 90H567V100H600C669 100 696 126 696 188V276C696 339 665 364 608 364H588L622 520C640 585 619 620 558 620ZM427 36V535H496C513 535 517 522 515 507L492 340C487 303 497 284 529 284H565C581 284 592 277 592 261V208C592 192 581 185 565 185H513C488 185 477 174 477 149V36C477 11 488 0 513 0H631C741 0 810 64 810 166V289C810 377 770 428 718 437L736 529C758 644 710 720 592 720H236C212 720 200 708 200 684V36C200 11 211 0 236 0H391C416 0 427 11 427 36Z" glyph-name="Germandbls.v" horiz-adv-x="1000" unicode="&#57836;" /><glyph d="M619 0C644 0 655 11 655 36V345C655 370 644 381 619 381H464C439 381 428 370 428 345V189H331C300 189 285 204 285 238V477C285 511 304 527 346 527H554C579 527 590 538 590 563V684C590 709 579 720 554 720H304C136 720 58 655 58 516V204C58 65 136 0 304 0ZM347 90C200 90 167 126 167 219V499C167 594 199 630 327 630H500V620H327C209 620 177 588 177 499V219C177 132 212 100 347 100H536V291H546V90ZM554 760C579 760 590 771 590 796V889C590 914 579 925 554 925H207C182 925 171 914 171 889V796C171 771 182 760 207 760ZM261 847H500V837H261Z" glyph-name="Gmacron" horiz-adv-x="708" unicode="&#7712;" /><glyph d="M177 90V630H187V365H571V630H581V90H571V355H187V90ZM260 0C285 0 296 11 296 36V258H463V36C463 11 474 0 499 0H654C679 0 690 11 690 36V684C690 709 679 720 654 720H499C474 720 463 709 463 684V467H296V684C296 709 285 720 260 720H105C80 720 69 709 69 684V36C69 11 80 0 105 0Z" glyph-name="H" horiz-adv-x="759" unicode="H" /><glyph d="M309 90V590H319V345H681V590H691V90H681V335H319V90ZM391 0C416 0 427 11 427 36V238H573V36C573 11 584 0 609 0H764C789 0 800 11 800 36V644C800 669 789 680 764 680H609C584 680 573 669 573 644V447H427V644C427 669 416 680 391 680H236C211 680 200 669 200 644V36C200 11 211 0 236 0Z" glyph-name="H.s_v" horiz-adv-x="1000" unicode="&#57931;" /><glyph d="M309 90V630H319V365H681V630H691V90H681V355H319V90ZM391 0C416 0 427 11 427 36V258H573V36C573 11 584 0 609 0H764C789 0 800 11 800 36V684C800 709 789 720 764 720H609C584 720 573 709 573 684V467H427V684C427 709 416 720 391 720H236C211 720 200 709 200 684V36C200 11 211 0 236 0Z" glyph-name="H.v" horiz-adv-x="1000" unicode="&#65320;" /><glyph d="M583 504H196V252H583ZM303 347V425H476V347ZM186 90V504H120V514H186V630H196V514H583V630H593V514H659V504H593V90H583V242H196V90ZM303 36V148H476V36C476 11 487 0 512 0H664C689 0 700 11 700 36V425H713C738 425 749 435 749 461V558C749 584 738 594 713 594H700V684C700 709 689 720 664 720H512C487 720 476 709 476 684V594H303V684C303 709 292 720 267 720H115C90 720 79 709 79 684V594H66C41 594 30 583 30 558V461C30 435 41 425 66 425H79V36C79 11 90 0 115 0H267C292 0 303 11 303 36Z" glyph-name="Hbar" horiz-adv-x="779" unicode="&#294;" /><glyph d="M683 504H316V252H683ZM423 347V425H576V347ZM306 90V504H240V514H306V630H316V514H683V630H693V514H759V504H693V90H683V242H316V90ZM423 36V148H576V36C576 11 587 0 612 0H764C789 0 800 11 800 36V425H813C838 425 849 435 849 461V558C849 584 838 594 813 594H800V684C800 709 789 720 764 720H612C587 720 576 709 576 684V594H423V684C423 709 412 720 387 720H235C210 720 199 709 199 684V594H186C161 594 150 583 150 558V461C150 435 161 425 186 425H199V36C199 11 210 0 235 0H387C412 0 423 11 423 36Z" glyph-name="Hbar.v" horiz-adv-x="1000" unicode="&#57829;" /><glyph d="M177 90V630H187V365H571V630H581V90H571V355H187V90ZM260 0C285 0 296 11 296 36V258H463V36C463 11 474 0 499 0H654C679 0 690 11 690 36V684C690 709 679 720 654 720H499C474 720 463 709 463 684V467H296V684C296 709 285 720 260 720H105C80 720 69 709 69 684V36C69 11 80 0 105 0ZM597 -123V-79C597 -54 586 -43 561 -43H470C447 -43 440 -50 440 -74V-95C440 -114 431 -128 381 -128C332 -128 324 -114 324 -95V-74C324 -50 316 -43 295 -43H199C174 -43 163 -54 163 -79V-123C163 -208 206 -266 380 -266C554 -266 597 -208 597 -123ZM514 -113H524V-122C524 -160 503 -202 379 -202C255 -202 239 -160 239 -122V-113H249V-122C249 -158 271 -192 379 -192C487 -192 514 -158 514 -122Z" glyph-name="Hbrevebelow" horiz-adv-x="759" unicode="&#7722;" /><glyph d="M177 90V630H187V365H571V630H581V90H571V355H187V90ZM260 0C285 0 296 11 296 36V258H463V36C463 11 474 0 499 0H654C679 0 690 11 690 36V684C690 709 679 720 654 720H499C474 720 463 709 463 684V467H296V684C296 709 285 720 260 720H105C80 720 69 709 69 684V36C69 11 80 0 105 0ZM347 797C370 803 386 803 409 797L546 757C581 746 588 752 588 788V869C588 905 580 909 546 922L409 972C399 976 389 977 377 977C365 976 350 973 338 968L210 922C178 909 169 905 169 869V788C169 752 176 746 210 757ZM497 850 410 878C400 881 391 884 378 884C365 884 356 881 346 878L259 850V861L342 888C354 891 363 894 378 894C393 894 402 891 414 888L497 861Z" glyph-name="Hcircumflex" horiz-adv-x="759" unicode="&#292;" /><glyph d="M309 90V590H319V345H681V590H691V90H681V335H319V90ZM391 0C416 0 427 11 427 36V238H573V36C573 11 584 0 609 0H764C789 0 800 11 800 36V644C800 669 789 680 764 680H609C584 680 573 669 573 644V447H427V644C427 669 416 680 391 680H236C211 680 200 669 200 644V36C200 11 211 0 236 0ZM468 757C491 763 507 763 530 757L667 717C702 706 709 712 709 748V829C709 865 701 869 667 882L530 932C520 936 510 937 498 937C486 936 471 933 459 928L331 882C299 869 290 865 290 829V748C290 712 297 706 331 717ZM618 810 531 838C521 841 512 844 499 844C486 844 477 841 467 838L380 810V821L463 848C475 851 484 854 499 854C514 854 523 851 535 848L618 821Z" glyph-name="Hcircumflex.v" horiz-adv-x="1000" unicode="&#57766;" /><glyph d="M177 90V630H187V365H571V630H581V90H571V355H187V90ZM260 0C285 0 296 11 296 36V258H463V36C463 11 474 0 499 0H654C679 0 690 11 690 36V684C690 709 679 720 654 720H499C474 720 463 709 463 684V467H296V684C296 709 285 720 260 720H105C80 720 69 709 69 684V36C69 11 80 0 105 0ZM459 -240C484 -240 495 -229 495 -204V-77C495 -52 484 -41 459 -41H301C276 -41 265 -52 265 -77V-204C265 -229 276 -240 301 -240ZM385 -170H375V-111H385Z" glyph-name="Hdotbelow" horiz-adv-x="759" unicode="&#7716;" /><glyph d="M89 0H515C540 0 551 11 551 36V155C551 180 540 191 515 191H418V527H515C540 527 551 538 551 563V684C551 709 540 720 515 720H89C64 720 53 709 53 684V563C53 538 64 527 89 527H188V191H89C64 191 53 180 53 155V36C53 11 64 0 89 0ZM461 90H143V100H298V620H143V630H461V620H308V100H461Z" glyph-name="I" horiz-adv-x="605" unicode="I" /><glyph d="M245 0H755C780 0 791 11 791 36V155C791 180 780 191 755 191H621V487H755C780 487 791 498 791 523V644C791 669 780 680 755 680H245C220 680 209 669 209 644V523C209 498 220 487 245 487H379V191H245C220 191 209 180 209 155V36C209 11 220 0 245 0ZM701 90H299V100H495V580H299V590H701V580H505V100H701Z" glyph-name="I.s_v" horiz-adv-x="1000" unicode="&#57932;" /><glyph d="M265 0C290 0 301 11 301 36V684C301 709 290 720 265 720H106C81 720 70 709 70 684V36C70 11 81 0 106 0ZM181 630H191V90H181Z" glyph-name="I.salt" horiz-adv-x="371" unicode="&#57620;" /><glyph d="M579 0C604 0 615 11 615 36V644C615 669 604 680 579 680H420C395 680 384 669 384 644V36C384 11 395 0 420 0ZM495 590H505V90H495Z" glyph-name="I.salt_s_v" horiz-adv-x="1000" unicode="&#57947;" /><glyph d="M579 0C604 0 615 11 615 36V684C615 709 604 720 579 720H420C395 720 384 709 384 684V36C384 11 395 0 420 0ZM495 630H505V90H495Z" glyph-name="I.salt_v" horiz-adv-x="1000" unicode="&#57857;" /><glyph d="M245 0H755C780 0 791 11 791 36V155C791 180 780 191 755 191H621V527H755C780 527 791 538 791 563V684C791 709 780 720 755 720H245C220 720 209 709 209 684V563C209 538 220 527 245 527H379V191H245C220 191 209 180 209 155V36C209 11 220 0 245 0ZM701 90H299V100H495V620H299V630H701V620H505V100H701Z" glyph-name="I.v" horiz-adv-x="1000" unicode="&#65321;" /><glyph d="M69 36C69 11 80 0 105 0H467C599 0 680 78 680 210V684C680 709 669 720 644 720H489C464 720 453 709 453 684V260C453 212 428 193 380 193H105C80 193 69 182 69 157ZM260 310C285 310 296 321 296 346V684C296 709 285 720 260 720H105C80 720 69 709 69 684V346C69 321 80 310 105 310ZM187 400H177V630H187ZM420 90H159V100H420C538 100 562 153 562 256V630H572V256C572 149 548 90 420 90Z" glyph-name="IJ" horiz-adv-x="744" unicode="&#306;" /><glyph d="M265 0C290 0 301 11 301 36V684C301 709 290 720 265 720H106C81 720 70 709 70 684V36C70 11 81 0 106 0ZM181 630H191V90H181ZM969 189V684C969 709 958 720 933 720H776C751 720 740 709 740 684V229C740 202 732 182 674 182C612 182 603 202 603 229V351C603 377 592 387 567 387H422C397 387 386 377 386 351V189C386 67 443 -15 676 -15C911 -15 969 67 969 189ZM849 630H859V213C859 134 820 78 678 78C528 78 490 133 490 213V292H500V213C500 137 540 88 678 88C810 88 849 138 849 213Z" glyph-name="IJ.salt" horiz-adv-x="1033" unicode="&#57654;" /><glyph d="M580 409C605 409 616 420 616 445V1053C616 1078 605 1089 580 1089H421C396 1089 385 1078 385 1053V445C385 420 396 409 421 409ZM496 999H506V499H496ZM801 -162V293C801 318 790 329 765 329H608C583 329 572 318 572 293V-122C572 -149 563 -169 496 -169C425 -169 418 -149 418 -122V0C418 26 407 36 382 36H237C212 36 201 26 201 0V-162C201 -284 257 -366 498 -366C741 -366 801 -284 801 -162ZM681 239H691V-138C691 -217 650 -273 502 -273C344 -273 305 -218 305 -138V-54H315V-138C315 -214 357 -263 502 -263C640 -263 681 -213 681 -138Z" glyph-name="IJ.salt_v" horiz-adv-x="1000" unicode="&#57893;" /><glyph d="M89 0H515C540 0 551 11 551 36V155C551 180 540 191 515 191H418V527H515C540 527 551 538 551 563V684C551 709 540 720 515 720H89C64 720 53 709 53 684V563C53 538 64 527 89 527H188V191H89C64 191 53 180 53 155V36C53 11 64 0 89 0ZM461 90H143V100H298V620H143V630H461V620H308V100H461ZM1199 189V684C1199 709 1188 720 1163 720H1006C981 720 970 709 970 684V229C970 202 962 182 904 182C842 182 833 202 833 229V351C833 377 822 387 797 387H652C627 387 616 377 616 351V189C616 67 673 -15 906 -15C1141 -15 1199 67 1199 189ZM1079 630H1089V213C1089 134 1050 78 908 78C758 78 720 133 720 213V292H730V213C730 137 770 88 908 88C1040 88 1079 138 1079 213Z" glyph-name="IJ.stack" horiz-adv-x="1263" unicode="&#57655;" /><glyph d="M245 412H755C780 412 791 423 791 448V567C791 592 780 603 755 603H621V899H755C780 899 791 910 791 935V1056C791 1081 780 1092 755 1092H245C220 1092 209 1081 209 1056V935C209 910 220 899 245 899H379V603H245C220 603 209 592 209 567V448C209 423 220 412 245 412ZM701 502H299V512H495V992H299V1002H701V992H505V512H701ZM800 -179V276C800 301 789 312 764 312H607C582 312 571 301 571 276V-139C571 -166 562 -186 495 -186C424 -186 417 -166 417 -139V-17C417 9 406 19 381 19H236C211 19 200 9 200 -17V-179C200 -301 256 -383 497 -383C740 -383 800 -301 800 -179ZM680 222H690V-155C690 -234 649 -290 501 -290C343 -290 304 -235 304 -155V-71H314V-155C314 -231 356 -280 501 -280C639 -280 680 -230 680 -155Z" glyph-name="IJ.stack_v" horiz-adv-x="1000" unicode="&#57894;" /><glyph d="M200 36C200 11 211 0 236 0H587C719 0 800 78 800 210V684C800 709 789 720 764 720H609C584 720 573 709 573 684V260C573 212 548 193 500 193H236C211 193 200 182 200 157ZM391 330C416 330 427 341 427 366V684C427 709 416 720 391 720H236C211 720 200 709 200 684V366C200 341 211 330 236 330ZM319 420H309V630H319ZM552 90H291V100H552C659 100 681 153 681 256V630H691V256C691 149 669 90 552 90Z" glyph-name="IJ.v" horiz-adv-x="1000" unicode="&#57830;" /><glyph d="M427 684C427 709 416 720 391 720H236C211 720 200 709 200 684V36C200 11 211 0 236 0H391C416 0 427 11 427 36ZM573 36C573 11 584 0 609 0H764C789 0 800 11 800 36V684C800 709 789 720 764 720H609C584 720 573 709 573 684ZM309 630H319V90H309ZM681 630H691V90H681Z" glyph-name="I_I.salt_v" horiz-adv-x="1000" unicode="&#57858;" /><glyph d="M89 0H515C540 0 551 11 551 36V155C551 180 540 191 515 191H418V527H515C540 527 551 538 551 563V684C551 709 540 720 515 720H89C64 720 53 709 53 684V563C53 538 64 527 89 527H188V191H89C64 191 53 180 53 155V36C53 11 64 0 89 0ZM461 90H143V100H298V620H143V630H461V620H308V100H461ZM475 796C500 799 511 807 511 832V928C511 951 500 964 477 961L128 918C103 915 92 907 92 882V786C92 763 103 750 126 753ZM182 847 421 877V867L182 837Z" glyph-name="Iacute" horiz-adv-x="605" unicode="&#205;" /><glyph d="M345 796C370 799 381 807 381 832V928C381 951 370 964 347 961L28 918C3 915 -8 907 -8 882V786C-8 763 3 750 26 753ZM80 849 289 875V865L80 839ZM265 0C290 0 301 11 301 36V684C301 709 290 720 265 720H106C81 720 70 709 70 684V36C70 11 81 0 106 0ZM181 630H191V90H181Z" glyph-name="Iacute.salt" horiz-adv-x="371" unicode="&#57622;" /><glyph d="M673 756C698 759 709 767 709 792V888C709 911 698 924 675 921L326 878C301 875 290 867 290 842V746C290 723 301 710 324 713ZM380 807 619 837V827L380 797ZM579 0C604 0 615 11 615 36V644C615 669 604 680 579 680H420C395 680 384 669 384 644V36C384 11 395 0 420 0ZM495 590H505V90H495Z" glyph-name="Iacute.salt_v" horiz-adv-x="1000" unicode="&#57860;" /><glyph d="M245 0H755C780 0 791 11 791 36V155C791 180 780 191 755 191H621V487H755C780 487 791 498 791 523V644C791 669 780 680 755 680H245C220 680 209 669 209 644V523C209 498 220 487 245 487H379V191H245C220 191 209 180 209 155V36C209 11 220 0 245 0ZM701 90H299V100H495V580H299V590H701V580H505V100H701ZM673 756C698 759 709 767 709 792V888C709 911 698 924 675 921L326 878C301 875 290 867 290 842V746C290 723 301 710 324 713ZM380 807 619 837V827L380 797Z" glyph-name="Iacute.v" horiz-adv-x="1000" unicode="&#57768;" /><glyph d="M89 0H515C540 0 551 11 551 36V155C551 180 540 191 515 191H418V527H515C540 527 551 538 551 563V684C551 709 540 720 515 720H89C64 720 53 709 53 684V563C53 538 64 527 89 527H188V191H89C64 191 53 180 53 155V36C53 11 64 0 89 0ZM461 90H143V100H298V620H143V630H461V620H308V100H461ZM519 897V941C519 966 508 977 483 977H392C369 977 362 970 362 946V925C362 906 353 892 303 892C254 892 246 906 246 925V946C246 970 238 977 217 977H121C96 977 85 966 85 941V897C85 812 128 754 302 754C476 754 519 812 519 897ZM436 907H446V898C446 860 425 818 301 818C177 818 161 860 161 898V907H171V898C171 862 193 828 301 828C409 828 436 862 436 898Z" glyph-name="Ibreve" horiz-adv-x="605" unicode="&#300;" /><glyph d="M265 0C290 0 301 11 301 36V684C301 709 290 720 265 720H106C81 720 70 709 70 684V36C70 11 81 0 106 0ZM181 630H191V90H181ZM402 897V941C402 966 391 977 366 977H275C252 977 245 970 245 946V925C245 906 236 892 186 892C137 892 129 906 129 925V946C129 970 121 977 100 977H4C-21 977 -32 966 -32 941V897C-32 812 11 754 185 754C359 754 402 812 402 897ZM319 907H329V898C329 860 308 818 184 818C60 818 44 860 44 898V907H54V898C54 862 76 828 184 828C292 828 319 862 319 898Z" glyph-name="Ibreve.salt" horiz-adv-x="371" unicode="&#57627;" /><glyph d="M579 0C604 0 615 11 615 36V644C615 669 604 680 579 680H420C395 680 384 669 384 644V36C384 11 395 0 420 0ZM495 590H505V90H495ZM717 857V901C717 926 706 937 681 937H590C567 937 560 930 560 906V885C560 866 551 852 501 852C452 852 444 866 444 885V906C444 930 436 937 415 937H319C294 937 283 926 283 901V857C283 772 326 714 500 714C674 714 717 772 717 857ZM634 867H644V858C644 820 623 778 499 778C375 778 359 820 359 858V867H369V858C369 822 391 788 499 788C607 788 634 822 634 858Z" glyph-name="Ibreve.salt_v" horiz-adv-x="1000" unicode="&#57865;" /><glyph d="M245 0H755C780 0 791 11 791 36V155C791 180 780 191 755 191H621V487H755C780 487 791 498 791 523V644C791 669 780 680 755 680H245C220 680 209 669 209 644V523C209 498 220 487 245 487H379V191H245C220 191 209 180 209 155V36C209 11 220 0 245 0ZM701 90H299V100H495V580H299V590H701V580H505V100H701ZM717 857V901C717 926 706 937 681 937H590C567 937 560 930 560 906V885C560 866 551 852 501 852C452 852 444 866 444 885V906C444 930 436 937 415 937H319C294 937 283 926 283 901V857C283 772 326 714 500 714C674 714 717 772 717 857ZM634 867H644V858C644 820 623 778 499 778C375 778 359 820 359 858V867H369V858C369 822 391 788 499 788C607 788 634 822 634 858Z" glyph-name="Ibreve.v" horiz-adv-x="1000" unicode="&#57773;" /><glyph d="M89 0H515C540 0 551 11 551 36V155C551 180 540 191 515 191H418V527H515C540 527 551 538 551 563V684C551 709 540 720 515 720H89C64 720 53 709 53 684V563C53 538 64 527 89 527H188V191H89C64 191 53 180 53 155V36C53 11 64 0 89 0ZM461 90H143V100H298V620H143V630H461V620H308V100H461ZM334 932C311 926 295 926 272 932L135 972C100 983 93 977 93 941V860C93 824 101 820 135 807L272 757C282 753 292 752 304 752C316 753 331 756 343 761L471 807C503 820 512 824 512 860V941C512 977 505 983 471 972ZM183 879 270 851C280 848 289 845 302 845C315 845 324 848 334 851L421 879V868L338 841C326 838 317 835 302 835C287 835 278 838 266 841L183 868Z" glyph-name="Icaron" horiz-adv-x="605" unicode="&#463;" /><glyph d="M89 0H515C540 0 551 11 551 36V155C551 180 540 191 515 191H418V527H515C540 527 551 538 551 563V684C551 709 540 720 515 720H89C64 720 53 709 53 684V563C53 538 64 527 89 527H188V191H89C64 191 53 180 53 155V36C53 11 64 0 89 0ZM461 90H143V100H298V620H143V630H461V620H308V100H461ZM270 797C293 803 309 803 332 797L469 757C504 746 511 752 511 788V869C511 905 503 909 469 922L332 972C322 976 312 977 300 977C288 976 273 973 261 968L133 922C101 909 92 905 92 869V788C92 752 99 746 133 757ZM420 850 333 878C323 881 314 884 301 884C288 884 279 881 269 878L182 850V861L265 888C277 891 286 894 301 894C316 894 325 891 337 888L420 861Z" glyph-name="Icircumflex" horiz-adv-x="605" unicode="&#206;" /><glyph d="M265 0C290 0 301 11 301 36V684C301 709 290 720 265 720H106C81 720 70 709 70 684V36C70 11 81 0 106 0ZM181 630H191V90H181ZM154 797C177 803 193 803 216 797L353 757C388 746 395 752 395 788V869C395 905 387 909 353 922L216 972C206 976 196 977 184 977C172 976 157 973 145 968L17 922C-15 909 -24 905 -24 869V788C-24 752 -17 746 17 757ZM304 850 217 878C207 881 198 884 185 884C172 884 163 881 153 878L66 850V861L149 888C161 891 170 894 185 894C200 894 209 891 221 888L304 861Z" glyph-name="Icircumflex.salt" horiz-adv-x="371" unicode="&#57623;" /><glyph d="M579 0C604 0 615 11 615 36V644C615 669 604 680 579 680H420C395 680 384 669 384 644V36C384 11 395 0 420 0ZM495 590H505V90H495ZM468 757C491 763 507 763 530 757L667 717C702 706 709 712 709 748V829C709 865 701 869 667 882L530 932C520 936 510 937 498 937C486 936 471 933 459 928L331 882C299 869 290 865 290 829V748C290 712 297 706 331 717ZM618 810 531 838C521 841 512 844 499 844C486 844 477 841 467 838L380 810V821L463 848C475 851 484 854 499 854C514 854 523 851 535 848L618 821Z" glyph-name="Icircumflex.salt_v" horiz-adv-x="1000" unicode="&#57861;" /><glyph d="M245 0H755C780 0 791 11 791 36V155C791 180 780 191 755 191H621V487H755C780 487 791 498 791 523V644C791 669 780 680 755 680H245C220 680 209 669 209 644V523C209 498 220 487 245 487H379V191H245C220 191 209 180 209 155V36C209 11 220 0 245 0ZM701 90H299V100H495V580H299V590H701V580H505V100H701ZM468 757C491 763 507 763 530 757L667 717C702 706 709 712 709 748V829C709 865 701 869 667 882L530 932C520 936 510 937 498 937C486 936 471 933 459 928L331 882C299 869 290 865 290 829V748C290 712 297 706 331 717ZM618 810 531 838C521 841 512 844 499 844C486 844 477 841 467 838L380 810V821L463 848C475 851 484 854 499 854C514 854 523 851 535 848L618 821Z" glyph-name="Icircumflex.v" horiz-adv-x="1000" unicode="&#57769;" /><glyph d="M89 0H515C540 0 551 11 551 36V155C551 180 540 191 515 191H418V527H515C540 527 551 538 551 563V684C551 709 540 720 515 720H89C64 720 53 709 53 684V563C53 538 64 527 89 527H188V191H89C64 191 53 180 53 155V36C53 11 64 0 89 0ZM461 90H143V100H298V620H143V630H461V620H308V100H461ZM240 760C263 760 273 770 273 793V914C273 937 263 947 240 947H102C79 947 68 937 68 914V793C68 770 79 760 102 760ZM498 760C521 760 531 770 531 793V914C531 937 521 947 498 947H360C337 947 327 937 327 914V793C327 770 337 760 360 760ZM176 830H166V877H176ZM434 830H424V877H434Z" glyph-name="Idieresis" horiz-adv-x="605" unicode="&#207;" /><glyph d="M265 0C290 0 301 11 301 36V684C301 709 290 720 265 720H106C81 720 70 709 70 684V36C70 11 81 0 106 0ZM181 630H191V90H181ZM123 760C146 760 156 770 156 793V914C156 937 146 947 123 947H-15C-38 947 -49 937 -49 914V793C-49 770 -38 760 -15 760ZM381 760C404 760 414 770 414 793V914C414 937 404 947 381 947H243C220 947 210 937 210 914V793C210 770 220 760 243 760ZM59 830H49V877H59ZM317 830H307V877H317Z" glyph-name="Idieresis.salt" horiz-adv-x="371" unicode="&#57624;" /><glyph d="M438 720C461 720 471 730 471 753V874C471 897 461 907 438 907H300C277 907 266 897 266 874V753C266 730 277 720 300 720ZM696 720C719 720 729 730 729 753V874C729 897 719 907 696 907H558C535 907 525 897 525 874V753C525 730 535 720 558 720ZM374 790H364V837H374ZM632 790H622V837H632ZM579 0C604 0 615 11 615 36V644C615 669 604 680 579 680H420C395 680 384 669 384 644V36C384 11 395 0 420 0ZM495 590H505V90H495Z" glyph-name="Idieresis.salt_v" horiz-adv-x="1000" unicode="&#57862;" /><glyph d="M245 0H755C780 0 791 11 791 36V155C791 180 780 191 755 191H621V487H755C780 487 791 498 791 523V644C791 669 780 680 755 680H245C220 680 209 669 209 644V523C209 498 220 487 245 487H379V191H245C220 191 209 180 209 155V36C209 11 220 0 245 0ZM701 90H299V100H495V580H299V590H701V580H505V100H701ZM438 720C461 720 471 730 471 753V874C471 897 461 907 438 907H300C277 907 266 897 266 874V753C266 730 277 720 300 720ZM696 720C719 720 729 730 729 753V874C729 897 719 907 696 907H558C535 907 525 897 525 874V753C525 730 535 720 558 720ZM374 790H364V837H374ZM632 790H622V837H632Z" glyph-name="Idieresis.v" horiz-adv-x="1000" unicode="&#57770;" /><glyph d="M89 0H515C540 0 551 11 551 36V155C551 180 540 191 515 191H418V527H515C540 527 551 538 551 563V684C551 709 540 720 515 720H89C64 720 53 709 53 684V563C53 538 64 527 89 527H188V191H89C64 191 53 180 53 155V36C53 11 64 0 89 0ZM461 90H143V100H298V620H143V630H461V620H308V100H461ZM382 760C407 760 418 771 418 796V923C418 948 407 959 382 959H224C199 959 188 948 188 923V796C188 771 199 760 224 760ZM308 830H298V889H308Z" glyph-name="Idotaccent" horiz-adv-x="605" unicode="&#304;" /><glyph d="M265 0C290 0 301 11 301 36V684C301 709 290 720 265 720H106C81 720 70 709 70 684V36C70 11 81 0 106 0ZM181 630H191V90H181ZM264 760C289 760 300 771 300 796V923C300 948 289 959 264 959H106C81 959 70 948 70 923V796C70 771 81 760 106 760ZM190 830H180V889H190Z" glyph-name="Idotaccent.salt" horiz-adv-x="371" unicode="&#57629;" /><glyph d="M580 720C605 720 616 731 616 756V883C616 908 605 919 580 919H422C397 919 386 908 386 883V756C386 731 397 720 422 720ZM506 790H496V849H506ZM579 0C604 0 615 11 615 36V644C615 669 604 680 579 680H420C395 680 384 669 384 644V36C384 11 395 0 420 0ZM495 590H505V90H495Z" glyph-name="Idotaccent.salt_v" horiz-adv-x="1000" unicode="&#57867;" /><glyph d="M245 0H755C780 0 791 11 791 36V155C791 180 780 191 755 191H621V487H755C780 487 791 498 791 523V644C791 669 780 680 755 680H245C220 680 209 669 209 644V523C209 498 220 487 245 487H379V191H245C220 191 209 180 209 155V36C209 11 220 0 245 0ZM701 90H299V100H495V580H299V590H701V580H505V100H701ZM580 720C605 720 616 731 616 756V883C616 908 605 919 580 919H422C397 919 386 908 386 883V756C386 731 397 720 422 720ZM506 790H496V849H506Z" glyph-name="Idotaccent.v" horiz-adv-x="1000" unicode="&#57775;" /><glyph d="M89 0H515C540 0 551 11 551 36V155C551 180 540 191 515 191H418V527H515C540 527 551 538 551 563V684C551 709 540 720 515 720H89C64 720 53 709 53 684V563C53 538 64 527 89 527H188V191H89C64 191 53 180 53 155V36C53 11 64 0 89 0ZM461 90H143V100H298V620H143V630H461V620H308V100H461ZM382 -240C407 -240 418 -229 418 -204V-77C418 -52 407 -41 382 -41H224C199 -41 188 -52 188 -77V-204C188 -229 199 -240 224 -240ZM308 -170H298V-111H308Z" glyph-name="Idotbelow" horiz-adv-x="605" unicode="&#7882;" /><glyph d="M89 0H515C540 0 551 11 551 36V155C551 180 540 191 515 191H418V527H515C540 527 551 538 551 563V684C551 709 540 720 515 720H89C64 720 53 709 53 684V563C53 538 64 527 89 527H188V191H89C64 191 53 180 53 155V36C53 11 64 0 89 0ZM461 90H143V100H298V620H143V630H461V620H308V100H461ZM477 753C500 750 511 763 511 786V882C511 907 500 915 475 918L126 961C103 964 92 951 92 928V832C92 807 103 799 128 796ZM182 867V877L421 847V837Z" glyph-name="Igrave" horiz-adv-x="605" unicode="&#204;" /><glyph d="M345 755C368 752 379 765 379 788V884C379 909 368 917 343 920L24 959C1 962 -10 949 -10 926V830C-10 805 1 797 26 794ZM80 865V875L289 849V839ZM265 0C290 0 301 11 301 36V684C301 709 290 720 265 720H106C81 720 70 709 70 684V36C70 11 81 0 106 0ZM181 630H191V90H181Z" glyph-name="Igrave.salt" horiz-adv-x="371" unicode="&#57621;" /><glyph d="M579 0C604 0 615 11 615 36V644C615 669 604 680 579 680H420C395 680 384 669 384 644V36C384 11 395 0 420 0ZM495 590H505V90H495ZM675 713C698 710 709 723 709 746V842C709 867 698 875 673 878L324 921C301 924 290 911 290 888V792C290 767 301 759 326 756ZM380 827V837L619 807V797Z" glyph-name="Igrave.salt_v" horiz-adv-x="1000" unicode="&#57859;" /><glyph d="M245 0H755C780 0 791 11 791 36V155C791 180 780 191 755 191H621V487H755C780 487 791 498 791 523V644C791 669 780 680 755 680H245C220 680 209 669 209 644V523C209 498 220 487 245 487H379V191H245C220 191 209 180 209 155V36C209 11 220 0 245 0ZM701 90H299V100H495V580H299V590H701V580H505V100H701ZM675 713C698 710 709 723 709 746V842C709 867 698 875 673 878L324 921C301 924 290 911 290 888V792C290 767 301 759 326 756ZM380 827V837L619 807V797Z" glyph-name="Igrave.v" horiz-adv-x="1000" unicode="&#57767;" /><glyph d="M89 0H515C540 0 551 11 551 36V155C551 180 540 191 515 191H418V527H515C540 527 551 538 551 563V684C551 709 540 720 515 720H89C64 720 53 709 53 684V563C53 538 64 527 89 527H188V191H89C64 191 53 180 53 155V36C53 11 64 0 89 0ZM461 90H143V100H298V620H143V630H461V620H308V100H461ZM369 767C419 774 450 795 450 854V918C450 985 410 1020 342 1020H174C161 1020 155 1014 155 1001V928C155 915 161 909 174 909H303C314 909 322 905 322 895C322 883 316 880 303 878L214 864C201 862 195 856 197 843L208 764C210 751 215 746 228 748ZM253 805 252 815 348 829C368 832 381 843 381 871V921C381 952 361 960 341 960H205V970H341C366 970 391 960 391 921V871C391 833 371 823 350 820Z" glyph-name="Ihookabove" horiz-adv-x="605" unicode="&#7880;" /><glyph d="M89 0H515C540 0 551 11 551 36V155C551 180 540 191 515 191H418V527H515C540 527 551 538 551 563V684C551 709 540 720 515 720H89C64 720 53 709 53 684V563C53 538 64 527 89 527H188V191H89C64 191 53 180 53 155V36C53 11 64 0 89 0ZM461 90H143V100H298V620H143V630H461V620H308V100H461ZM475 760C500 760 511 771 511 796V889C511 914 500 925 475 925H128C103 925 92 914 92 889V796C92 771 103 760 128 760ZM182 847H421V837H182Z" glyph-name="Imacron" horiz-adv-x="605" unicode="&#298;" /><glyph d="M265 0C290 0 301 11 301 36V684C301 709 290 720 265 720H106C81 720 70 709 70 684V36C70 11 81 0 106 0ZM181 630H191V90H181ZM359 760C384 760 395 771 395 796V889C395 914 384 925 359 925H12C-13 925 -24 914 -24 889V796C-24 771 -13 760 12 760ZM66 847H305V837H66Z" glyph-name="Imacron.salt" horiz-adv-x="371" unicode="&#57626;" /><glyph d="M579 0C604 0 615 11 615 36V644C615 669 604 680 579 680H420C395 680 384 669 384 644V36C384 11 395 0 420 0ZM495 590H505V90H495ZM673 720C698 720 709 731 709 756V849C709 874 698 885 673 885H326C301 885 290 874 290 849V756C290 731 301 720 326 720ZM380 807H619V797H380Z" glyph-name="Imacron.salt_v" horiz-adv-x="1000" unicode="&#57864;" /><glyph d="M245 0H755C780 0 791 11 791 36V155C791 180 780 191 755 191H621V487H755C780 487 791 498 791 523V644C791 669 780 680 755 680H245C220 680 209 669 209 644V523C209 498 220 487 245 487H379V191H245C220 191 209 180 209 155V36C209 11 220 0 245 0ZM701 90H299V100H495V580H299V590H701V580H505V100H701ZM673 720C698 720 709 731 709 756V849C709 874 698 885 673 885H326C301 885 290 874 290 849V756C290 731 301 720 326 720ZM380 807H619V797H380Z" glyph-name="Imacron.v" horiz-adv-x="1000" unicode="&#57772;" /><glyph d="M551 -152V-80C551 -54 543 -46 515 -46H474L481 0H515C540 0 551 11 551 36V155C551 180 540 191 515 191H418V527H515C540 527 551 538 551 563V684C551 709 540 720 515 720H89C64 720 53 709 53 684V563C53 538 64 527 89 527H188V191H89C64 191 53 180 53 155V36C53 11 64 0 89 0H315L306 -51C292 -144 321 -186 407 -186H518C544 -186 551 -178 551 -152ZM437 -116C388 -116 378 -91 386 -41L398 42C402 68 406 78 422 90H143V100H298V620H143V630H461V620H308V100H461V90H441C416 76 412 71 408 42L396 -43C391 -83 396 -106 437 -106H461V-116Z" glyph-name="Iogonek" horiz-adv-x="605" unicode="&#302;" /><glyph d="M297 -152V-80C297 -54 289 -46 261 -46H220L227 0H265C290 0 301 11 301 36V684C301 709 290 720 265 720H106C81 720 70 709 70 684V50L52 -51C38 -144 67 -186 153 -186H264C290 -186 297 -178 297 -152ZM183 -116C134 -116 124 -91 132 -41L144 42C149 74 153 82 181 98V630H191V90H187C162 76 158 71 154 42L142 -43C137 -83 142 -106 183 -106H207V-116Z" glyph-name="Iogonek.salt" horiz-adv-x="371" unicode="&#57628;" /><glyph d="M611 -152V-80C611 -54 603 -46 575 -46H534L541 0H579C604 0 615 11 615 36V644C615 669 604 680 579 680H420C395 680 384 669 384 644V50L366 -51C352 -144 381 -186 467 -186H578C604 -186 611 -178 611 -152ZM497 -116C448 -116 438 -91 446 -41L458 42C463 74 467 82 495 98V590H505V90H501C476 76 472 71 468 42L456 -43C451 -83 456 -106 497 -106H521V-116Z" glyph-name="Iogonek.salt_v" horiz-adv-x="1000" unicode="&#57866;" /><glyph d="M791 -112V-40C791 -14 783 -6 755 -6H714L721 40H755C780 40 791 51 791 76V195C791 220 780 231 755 231H621V527H755C780 527 791 538 791 563V684C791 709 780 720 755 720H245C220 720 209 709 209 684V563C209 538 220 527 245 527H379V231H245C220 231 209 220 209 195V76C209 51 220 40 245 40H555L546 -11C532 -104 561 -146 647 -146H758C784 -146 791 -138 791 -112ZM677 -76C628 -76 618 -51 626 -1L638 82C642 108 646 118 662 130H299V140H495V620H299V630H701V620H505V140H701V130H681C656 116 652 111 648 82L636 -3C631 -43 636 -66 677 -66H701V-76Z" glyph-name="Iogonek.v" horiz-adv-x="1000" unicode="&#57774;" /><glyph d="M89 0H515C540 0 551 11 551 36V155C551 180 540 191 515 191H418V527H515C540 527 551 538 551 563V684C551 709 540 720 515 720H89C64 720 53 709 53 684V563C53 538 64 527 89 527H188V191H89C64 191 53 180 53 155V36C53 11 64 0 89 0ZM461 90H143V100H298V620H143V630H461V620H308V100H461ZM301 764 317 762C397 750 411 748 474 767C497 776 510 783 510 808V909C510 934 498 942 474 935C415 917 411 914 323 927L301 930L284 932C204 944 191 946 128 927C105 918 92 911 92 886V785C92 760 104 752 128 759C181 775 197 779 273 768ZM420 841V831C393 828 367 831 316 839L300 841L272 845C228 852 204 853 182 849V860C205 863 229 861 274 855L302 851L318 849C369 841 393 838 420 841Z" glyph-name="Itilde" horiz-adv-x="605" unicode="&#296;" /><glyph d="M265 0C290 0 301 11 301 36V684C301 709 290 720 265 720H106C81 720 70 709 70 684V36C70 11 81 0 106 0ZM181 630H191V90H181ZM185 764 201 762C281 750 295 748 358 767C381 776 394 783 394 808V909C394 934 382 942 358 935C299 917 295 914 207 927L185 930L168 932C88 944 75 946 12 927C-11 918 -24 911 -24 886V785C-24 760 -12 752 12 759C65 775 81 779 157 768ZM304 841V831C277 828 251 831 200 839L184 841L156 845C112 852 88 853 66 849V860C89 863 113 861 158 855L186 851L202 849C253 841 277 838 304 841Z" glyph-name="Itilde.salt" horiz-adv-x="371" unicode="&#57625;" /><glyph d="M499 724 515 722C595 710 609 708 672 727C695 736 708 743 708 768V869C708 894 696 902 672 895C613 877 609 874 521 887L499 890L482 892C402 904 389 906 326 887C303 878 290 871 290 846V745C290 720 302 712 326 719C379 735 395 739 471 728ZM618 801V791C591 788 565 791 514 799L498 801L470 805C426 812 402 813 380 809V820C403 823 427 821 472 815L500 811L516 809C567 801 591 798 618 801ZM579 0C604 0 615 11 615 36V644C615 669 604 680 579 680H420C395 680 384 669 384 644V36C384 11 395 0 420 0ZM495 590H505V90H495Z" glyph-name="Itilde.salt_v" horiz-adv-x="1000" unicode="&#57863;" /><glyph d="M245 0H755C780 0 791 11 791 36V155C791 180 780 191 755 191H621V487H755C780 487 791 498 791 523V644C791 669 780 680 755 680H245C220 680 209 669 209 644V523C209 498 220 487 245 487H379V191H245C220 191 209 180 209 155V36C209 11 220 0 245 0ZM701 90H299V100H495V580H299V590H701V580H505V100H701ZM499 724 515 722C595 710 609 708 672 727C695 736 708 743 708 768V869C708 894 696 902 672 895C613 877 609 874 521 887L499 890L482 892C402 904 389 906 326 887C303 878 290 871 290 846V745C290 720 302 712 326 719C379 735 395 739 471 728ZM618 801V791C591 788 565 791 514 799L498 801L470 805C426 812 402 813 380 809V820C403 823 427 821 472 815L500 811L516 809C567 801 591 798 618 801Z" glyph-name="Itilde.v" horiz-adv-x="1000" unicode="&#57771;" /><glyph d="M624 189V684C624 709 613 720 588 720H431C406 720 395 709 395 684V229C395 202 387 182 329 182C267 182 258 202 258 229V351C258 377 247 387 222 387H77C52 387 41 377 41 351V189C41 67 98 -15 331 -15C566 -15 624 67 624 189ZM504 630H514V213C514 134 475 78 333 78C183 78 145 133 145 213V292H155V213C155 137 195 88 333 88C465 88 504 138 504 213Z" glyph-name="J" horiz-adv-x="688" unicode="J" /><glyph d="M800 189V644C800 669 789 680 764 680H607C582 680 571 669 571 644V229C571 202 562 182 495 182C424 182 417 202 417 229V351C417 377 406 387 381 387H236C211 387 200 377 200 351V189C200 67 256 -15 497 -15C740 -15 800 67 800 189ZM680 590H690V213C690 134 649 78 501 78C343 78 304 133 304 213V297H314V213C314 137 356 88 501 88C639 88 680 138 680 213Z" glyph-name="J.s_v" horiz-adv-x="1000" unicode="&#57933;" /><glyph d="M800 189V684C800 709 789 720 764 720H607C582 720 571 709 571 684V229C571 202 562 182 495 182C424 182 417 202 417 229V351C417 377 406 387 381 387H236C211 387 200 377 200 351V189C200 67 256 -16 497 -16C740 -16 800 67 800 189ZM680 630H690V213C690 134 649 78 501 78C343 78 304 133 304 213V297H314V213C314 137 356 88 501 88C639 88 680 138 680 213Z" glyph-name="J.v" horiz-adv-x="1000" unicode="&#65322;" /><glyph d="M624 189V684C624 709 613 720 588 720H431C406 720 395 709 395 684V229C395 202 387 182 329 182C267 182 258 202 258 229V351C258 377 247 387 222 387H77C52 387 41 377 41 351V189C41 67 98 -15 331 -15C566 -15 624 67 624 189ZM504 630H514V213C514 134 475 78 333 78C183 78 145 133 145 213V292H155V213C155 137 195 88 333 88C465 88 504 138 504 213ZM470 797C493 803 509 803 532 797L669 757C704 746 711 752 711 788V869C711 905 703 909 669 922L532 972C522 976 512 977 500 977C488 976 473 973 461 968L333 922C301 909 292 905 292 869V788C292 752 299 746 333 757ZM620 850 533 878C523 881 514 884 501 884C488 884 479 881 469 878L382 850V861L465 888C477 891 486 894 501 894C516 894 525 891 537 888L620 861Z" glyph-name="Jcircumflex" horiz-adv-x="688" unicode="&#308;" /><glyph d="M800 189V644C800 669 789 680 764 680H607C582 680 571 669 571 644V229C571 202 562 182 495 182C424 182 417 202 417 229V351C417 377 406 387 381 387H236C211 387 200 377 200 351V189C200 67 256 -15 497 -15C740 -15 800 67 800 189ZM680 590H690V213C690 134 649 78 501 78C343 78 304 133 304 213V297H314V213C314 137 356 88 501 88C639 88 680 138 680 213ZM558 757C581 763 597 763 620 757L757 717C792 706 799 712 799 748V829C799 865 791 869 757 882L620 932C610 936 600 937 588 937C576 936 561 933 549 928L421 882C389 869 380 865 380 829V748C380 712 387 706 421 717ZM708 810 621 838C611 841 602 844 589 844C576 844 567 841 557 838L470 810V821L553 848C565 851 574 854 589 854C604 854 613 851 625 848L708 821Z" glyph-name="Jcircumflex.v" horiz-adv-x="1000" unicode="&#57776;" /><glyph d="M188 90H178V630H188V364H405L520 630H531L416 364H457C539 364 578 336 578 266V90H568V266C568 330 531 354 457 354H188ZM260 0C285 0 296 11 296 36V265H428C449 265 460 253 460 231V36C460 11 471 0 496 0H650C675 0 686 11 686 36V318C686 398 638 450 563 454L665 687C674 708 666 720 643 720H489C463 720 449 711 439 687L336 454H296V684C296 709 285 720 260 720H105C80 720 69 709 69 684V36C69 11 80 0 105 0Z" glyph-name="K" horiz-adv-x="746" unicode="K" /><glyph d="M320 90H310V590H320V344H520L635 590H646L531 344H572C654 344 693 316 693 246V90H683V246C683 310 646 334 572 334H320ZM391 0C416 0 427 11 427 36V245H542C563 245 574 233 574 211V36C574 11 585 0 610 0H764C789 0 800 11 800 36V298C800 378 752 430 677 434L779 647C788 668 780 680 757 680H603C577 680 563 671 553 647L450 434H427V644C427 669 416 680 391 680H236C211 680 200 669 200 644V36C200 11 211 0 236 0Z" glyph-name="K.s_v" horiz-adv-x="1000" unicode="&#57934;" /><glyph d="M320 90H310V630H320V364H520L635 630H646L531 364H572C654 364 693 336 693 266V90H683V266C683 330 646 354 572 354H320ZM392 0C417 0 428 11 428 36V265H543C564 265 575 253 575 231V36C575 11 586 0 611 0H765C790 0 801 11 801 36V318C801 398 753 450 678 454L780 687C789 708 781 720 758 720H604C578 720 564 711 554 687L451 454H428V684C428 709 417 720 392 720H237C212 720 201 709 201 684V36C201 11 212 0 237 0Z" glyph-name="K.v" horiz-adv-x="1000" unicode="&#65323;" /><glyph d="M188 90H178V630H188V364H405L520 630H531L416 364H457C539 364 578 336 578 266V90H568V266C568 330 531 354 457 354H188ZM260 0C285 0 296 11 296 36V265H428C449 265 460 253 460 231V36C460 11 471 0 496 0H650C675 0 686 11 686 36V318C686 398 638 450 563 454L665 687C674 708 666 720 643 720H489C463 720 449 711 439 687L336 454H296V684C296 709 285 720 260 720H105C80 720 69 709 69 684V36C69 11 80 0 105 0ZM364 -362C440 -362 489 -320 489 -234V-82C489 -52 480 -43 452 -43H294C266 -43 257 -52 257 -82V-191C257 -221 266 -230 294 -230H380V-243C380 -258 372 -267 357 -267H298C277 -267 268 -276 268 -297V-331C268 -353 277 -362 298 -362ZM432 -132V-229C432 -290 403 -315 349 -315H314V-305H349C397 -305 422 -283 422 -229V-142H314V-132Z" glyph-name="Kcommaaccent" horiz-adv-x="746" unicode="&#310;" /><glyph d="M320 130H310V630H320V384H520L635 630H646L531 384H572C654 384 693 356 693 286V130H683V286C683 350 646 374 572 374H320ZM391 40C416 40 427 51 427 76V285H542C563 285 574 273 574 251V76C574 51 585 40 610 40H764C789 40 800 51 800 76V338C800 418 752 470 677 474L779 687C788 708 780 720 757 720H603C577 720 563 711 553 687L450 474H427V684C427 709 416 720 391 720H236C211 720 200 709 200 684V76C200 51 211 40 236 40ZM492 -290C568 -290 617 -248 617 -162V-50C617 -19 608 -10 580 -10H422C394 -10 385 -19 385 -50V-129C385 -159 394 -168 422 -168H508V-181C508 -196 500 -205 485 -205H426C405 -205 396 -214 396 -235V-259C396 -281 405 -290 426 -290ZM435 -84H567V-171C567 -225 537 -252 489 -252H435V-242H489C531 -242 557 -218 557 -171V-94H435Z" glyph-name="Kcommaaccent.v" horiz-adv-x="1000" unicode="&#57777;" /><glyph d="M614 0C639 0 650 11 650 36V351C650 376 639 387 614 387H469C444 387 433 376 433 351V189H296V684C296 709 285 720 260 720H105C80 720 69 709 69 684V36C69 11 80 0 105 0ZM178 90V630H188V100H536V297H546V90Z" glyph-name="L" horiz-adv-x="695" unicode="L" /><glyph d="M764 0C789 0 800 11 800 36V341C800 366 789 377 764 377H619C594 377 583 366 583 341V189H427V644C427 669 416 680 391 680H236C211 680 200 669 200 644V36C200 11 211 0 236 0ZM310 90V590H320V100H687V287H697V90Z" glyph-name="L.s_v" horiz-adv-x="1000" unicode="&#57935;" /><glyph d="M260 720H105C80 720 69 709 69 684V36C69 11 80 0 105 0H551C576 0 587 11 587 36V157C587 182 576 193 551 193H296V684C296 709 285 720 260 720ZM178 630H188V100H497V90H178Z" glyph-name="L.salt" horiz-adv-x="615" unicode="&#57630;" /><glyph d="M392 680H237C212 680 201 669 201 644V36C201 11 212 0 237 0H755C780 0 791 11 791 36V155C791 180 780 191 755 191H428V644C428 669 417 680 392 680ZM310 90V590H320V100H701V90Z" glyph-name="L.salt_s_v" horiz-adv-x="1000" unicode="&#57874;" /><glyph d="M392 720H237C212 720 201 709 201 684V36C201 11 212 0 237 0H755C780 0 791 11 791 36V157C791 182 780 193 755 193H428V684C428 709 417 720 392 720ZM310 90V630H320V100H701V90Z" glyph-name="L.salt_v" horiz-adv-x="1000" unicode="&#57868;" /><glyph d="M765 0C790 0 801 11 801 36V351C801 376 790 387 765 387H620C595 387 584 376 584 351V189H428V684C428 709 417 720 392 720H237C212 720 201 709 201 684V36C201 11 212 0 237 0ZM310 90V630H320V100H687V297H697V90Z" glyph-name="L.v" horiz-adv-x="1000" unicode="&#65324;" /><glyph d="M614 0C639 0 650 11 650 36V351C650 376 639 387 614 387H469C444 387 433 376 433 351V189H296V684C296 709 285 720 260 720H105C80 720 69 709 69 684V36C69 11 80 0 105 0ZM178 90V630H188V100H536V297H546V90ZM452 796C477 799 488 807 488 832V928C488 951 477 964 454 961L105 918C80 915 69 907 69 882V786C69 763 80 750 103 753ZM159 847 398 877V867L159 837Z" glyph-name="Lacute" horiz-adv-x="695" unicode="&#313;" /><glyph d="M260 720H105C80 720 69 709 69 684V36C69 11 80 0 105 0H551C576 0 587 11 587 36V157C587 182 576 193 551 193H296V684C296 709 285 720 260 720ZM178 630H188V100H497V90H178ZM452 796C477 799 488 807 488 832V928C488 951 477 964 454 961L105 918C80 915 69 907 69 882V786C69 763 80 750 103 753ZM159 847 398 877V867L159 837Z" glyph-name="Lacute.salt" horiz-adv-x="615" unicode="&#57631;" /><glyph d="M392 680H237C212 680 201 669 201 644V36C201 11 212 0 237 0H755C780 0 791 11 791 36V155C791 180 780 191 755 191H428V644C428 669 417 680 392 680ZM310 90V590H320V100H701V90ZM583 756C608 759 619 767 619 792V888C619 911 608 924 585 921L236 878C211 875 200 867 200 842V746C200 723 211 710 234 713ZM290 807 529 837V827L290 797Z" glyph-name="Lacute.salt_v" horiz-adv-x="1000" unicode="&#57869;" /><glyph d="M764 0C789 0 800 11 800 36V341C800 366 789 377 764 377H619C594 377 583 366 583 341V189H427V644C427 669 416 680 391 680H236C211 680 200 669 200 644V36C200 11 211 0 236 0ZM310 90V590H320V100H687V287H697V90ZM583 756C608 759 619 767 619 792V888C619 911 608 924 585 921L236 878C211 875 200 867 200 842V746C200 723 211 710 234 713ZM290 807 529 837V827L290 797Z" glyph-name="Lacute.v" horiz-adv-x="1000" unicode="&#57778;" /><glyph d="M614 0C639 0 650 11 650 36V351C650 376 639 387 614 387H469C444 387 433 376 433 351V189H296V684C296 709 285 720 260 720H105C80 720 69 709 69 684V36C69 11 80 0 105 0ZM178 90V630H188V100H536V297H546V90ZM560 452C585 452 590 464 596 488L643 684C649 708 632 720 607 720H469C444 720 437 709 433 684L400 488C396 463 411 452 436 452ZM514 537H503L521 630H532Z" glyph-name="Lcaron" horiz-adv-x="695" unicode="&#317;" /><glyph d="M260 720H105C80 720 69 709 69 684V36C69 11 80 0 105 0H551C576 0 587 11 587 36V157C587 182 576 193 551 193H296V684C296 709 285 720 260 720ZM178 630H188V100H497V90H178ZM530 452C555 452 560 464 566 488L613 684C619 708 602 720 577 720H439C414 720 407 709 403 684L370 488C366 463 381 452 406 452ZM484 537H473L491 630H502Z" glyph-name="Lcaron.salt" horiz-adv-x="615" unicode="&#57633;" /><glyph d="M392 720H237C212 720 201 709 201 684V36C201 11 212 0 237 0H755C780 0 791 11 791 36V157C791 182 780 193 755 193H428V684C428 709 417 720 392 720ZM310 90V630H320V100H701V90ZM735 452C760 452 765 464 771 488L818 684C824 708 807 720 782 720H644C619 720 612 709 608 684L575 488C571 463 586 452 611 452ZM689 537H678L696 630H707Z" glyph-name="Lcaron.salt_v" horiz-adv-x="1000" unicode="&#57871;" /><glyph d="M765 0C790 0 801 11 801 36V351C801 376 790 387 765 387H620C595 387 584 376 584 351V189H428V684C428 709 417 720 392 720H237C212 720 201 709 201 684V36C201 11 212 0 237 0ZM310 90V630H320V100H687V297H697V90ZM735 452C760 452 765 464 771 488L818 684C824 708 807 720 782 720H644C619 720 612 709 608 684L575 488C571 463 586 452 611 452ZM689 537H678L696 630H707Z" glyph-name="Lcaron.v" horiz-adv-x="1000" unicode="&#57780;" /><glyph d="M614 0C639 0 650 11 650 36V351C650 376 639 387 614 387H469C444 387 433 376 433 351V189H296V684C296 709 285 720 260 720H105C80 720 69 709 69 684V36C69 11 80 0 105 0ZM178 90V630H188V100H536V297H546V90ZM355 -362C431 -362 480 -320 480 -234V-82C480 -52 471 -43 443 -43H285C257 -43 248 -52 248 -82V-191C248 -221 257 -230 285 -230H371V-243C371 -258 363 -267 348 -267H289C268 -267 259 -276 259 -297V-331C259 -353 268 -362 289 -362ZM423 -132V-229C423 -290 394 -315 340 -315H305V-305H340C388 -305 413 -283 413 -229V-142H305V-132Z" glyph-name="Lcommaaccent" horiz-adv-x="695" unicode="&#315;" /><glyph d="M260 720H105C80 720 69 709 69 684V36C69 11 80 0 105 0H551C576 0 587 11 587 36V157C587 182 576 193 551 193H296V684C296 709 285 720 260 720ZM178 630H188V100H497V90H178ZM325 -362C401 -362 450 -320 450 -234V-82C450 -52 441 -43 413 -43H255C227 -43 218 -52 218 -82V-191C218 -221 227 -230 255 -230H341V-243C341 -258 333 -267 318 -267H259C238 -267 229 -276 229 -297V-331C229 -353 238 -362 259 -362ZM393 -132V-229C393 -290 364 -315 310 -315H275V-305H310C358 -305 383 -283 383 -229V-142H275V-132Z" glyph-name="Lcommaaccent.salt" horiz-adv-x="615" unicode="&#57632;" /><glyph d="M392 720H237C212 720 201 709 201 684V76C201 51 212 40 237 40H755C780 40 791 51 791 76V195C791 220 780 231 755 231H428V684C428 709 417 720 392 720ZM310 130V630H320V140H701V130ZM492 -290C568 -290 617 -248 617 -162V-50C617 -19 608 -10 580 -10H422C394 -10 385 -19 385 -50V-129C385 -159 394 -168 422 -168H508V-181C508 -196 500 -205 485 -205H426C405 -205 396 -214 396 -235V-259C396 -281 405 -290 426 -290ZM435 -84H567V-171C567 -225 537 -252 489 -252H435V-242H489C531 -242 557 -218 557 -171V-94H435Z" glyph-name="Lcommaaccent.salt_v" horiz-adv-x="1000" unicode="&#57870;" /><glyph d="M764 40C789 40 800 51 800 76V381C800 406 789 417 764 417H619C594 417 583 406 583 381V229H427V684C427 709 416 720 391 720H236C211 720 200 709 200 684V76C200 51 211 40 236 40ZM310 130V630H320V140H687V327H697V130ZM492 -290C568 -290 617 -248 617 -162V-50C617 -19 608 -10 580 -10H422C394 -10 385 -19 385 -50V-129C385 -159 394 -168 422 -168H508V-181C508 -196 500 -205 485 -205H426C405 -205 396 -214 396 -235V-259C396 -281 405 -290 426 -290ZM435 -84H567V-171C567 -225 537 -252 489 -252H435V-242H489C531 -242 557 -218 557 -171V-94H435Z" glyph-name="Lcommaaccent.v" horiz-adv-x="1000" unicode="&#57779;" /><glyph d="M614 0C639 0 650 11 650 36V271C650 296 639 307 614 307H469C444 307 433 296 433 271V189H296V684C296 709 285 720 260 720H105C80 720 69 709 69 684V36C69 11 80 0 105 0ZM178 90V630H188V100H536V217H546V90ZM604 372C629 372 640 383 640 408V535C640 560 629 571 604 571H459C434 571 423 560 423 535V408C423 383 434 372 459 372ZM527 442V497H537V442Z" glyph-name="Ldot" horiz-adv-x="695" unicode="&#319;" /><glyph d="M260 720H105C80 720 69 709 69 684V36C69 11 80 0 105 0H551C576 0 587 11 587 36V157C587 182 576 193 551 193H296V684C296 709 285 720 260 720ZM178 630H188V100H497V90H178ZM570 330C595 330 606 341 606 366V493C606 518 595 529 570 529H412C387 529 376 518 376 493V366C376 341 387 330 412 330ZM496 400H486V459H496Z" glyph-name="Ldot.salt" horiz-adv-x="615" unicode="&#57634;" /><glyph d="M392 720H237C212 720 201 709 201 684V76C201 51 212 40 237 40H755C780 40 791 51 791 76V195C791 220 780 231 755 231H428V684C428 709 417 720 392 720ZM310 130V630H320V140H701V130ZM596 -220C621 -220 632 -209 632 -184V-57C632 -32 621 -21 596 -21H438C413 -21 402 -32 402 -57V-184C402 -209 413 -220 438 -220ZM522 -150H512V-91H522Z" glyph-name="Ldot.salt_v" horiz-adv-x="1000" unicode="&#57872;" /><glyph d="M764 40C789 40 800 51 800 76V381C800 406 789 417 764 417H619C594 417 583 406 583 381V229H427V684C427 709 416 720 391 720H236C211 720 200 709 200 684V76C200 51 211 40 236 40ZM310 130V630H320V140H687V327H697V130ZM596 -220C621 -220 632 -209 632 -184V-57C632 -32 621 -21 596 -21H438C413 -21 402 -32 402 -57V-184C402 -209 413 -220 438 -220ZM512 -148V-93H522V-148Z" glyph-name="Ldot.v" horiz-adv-x="1000" unicode="&#57831;" /><glyph d="M614 0C639 0 650 11 650 36V351C650 376 639 387 614 387H469C444 387 433 376 433 351V189H296V684C296 709 285 720 260 720H105C80 720 69 709 69 684V36C69 11 80 0 105 0ZM178 90V630H188V100H536V297H546V90ZM442 -240C467 -240 478 -229 478 -204V-77C478 -52 467 -41 442 -41H284C259 -41 248 -52 248 -77V-204C248 -229 259 -240 284 -240ZM368 -170H358V-111H368Z" glyph-name="Ldotbelow" horiz-adv-x="695" unicode="&#7734;" /><glyph d="M614 0C639 0 650 11 650 36V351C650 376 639 387 614 387H469C444 387 433 376 433 351V189H296V684C296 709 285 720 260 720H105C80 720 69 709 69 684V36C69 11 80 0 105 0ZM178 90V630H188V100H536V297H546V90ZM442 -240C467 -240 478 -229 478 -204V-77C478 -52 467 -41 442 -41H284C259 -41 248 -52 248 -77V-204C248 -229 259 -240 284 -240ZM368 -170H358V-111H368ZM523 760C548 760 559 771 559 796V889C559 914 548 925 523 925H176C151 925 140 914 140 889V796C140 771 151 760 176 760ZM230 847H469V837H230Z" glyph-name="Ldotbelowmacron" horiz-adv-x="695" unicode="&#7736;" /><glyph d="M614 0C639 0 650 11 650 36V351C650 376 639 387 614 387H469C444 387 433 376 433 351V189H296V684C296 709 285 720 260 720H105C80 720 69 709 69 684V36C69 11 80 0 105 0ZM178 90V630H188V100H536V297H546V90ZM521 -205C546 -205 557 -194 557 -169V-76C557 -51 546 -40 521 -40H174C149 -40 138 -51 138 -76V-169C138 -194 149 -205 174 -205ZM228 -118H467V-128H228Z" glyph-name="Llinebelow" horiz-adv-x="695" unicode="&#7738;" /><glyph d="M624 0C649 0 660 11 660 36V351C660 376 649 387 624 387H479C454 387 443 376 443 351V189H306V326L364 335C389 339 400 345 400 371V478C400 504 389 518 364 514L306 505V684C306 709 295 720 270 720H115C90 720 79 709 79 684V468L56 464C31 460 20 453 20 428V321C20 295 31 281 56 285L79 289V36C79 11 90 0 115 0ZM188 90V391L110 378V388L188 401V630H198V403L310 421V411L198 393V100H546V297H556V90Z" glyph-name="Lslash" horiz-adv-x="705" unicode="&#321;" /><glyph d="M115 0H561C586 0 597 11 597 36V157C597 182 586 193 561 193H306V326L316 328L364 335C389 339 400 345 400 371V478C400 504 389 518 364 514L316 507V506L306 504V684C306 709 295 720 270 720H115C90 720 79 709 79 684V468L69 466L56 464C31 460 20 453 20 428V321C20 295 31 281 56 285L79 289V36C79 11 90 0 115 0ZM188 90V391L110 378V388L188 401V630H198V403L310 421V411L198 393V100H507V90Z" glyph-name="Lslash.salt" horiz-adv-x="625" unicode="&#57635;" /><glyph d="M237 0H755C780 0 791 11 791 36V157C791 182 780 193 755 193H428V326L438 328L486 335C511 339 522 345 522 371V478C522 504 511 518 486 514L438 507V506L428 504V684C428 709 417 720 392 720H237C212 720 201 709 201 684V468L191 466L178 464C153 460 142 453 142 428V321C142 295 153 281 178 285L201 289V36C201 11 212 0 237 0ZM310 90V391L232 378V388L310 401V630H320V403L432 421V411L320 393V100H701V90Z" glyph-name="Lslash.salt_v" horiz-adv-x="1000" unicode="&#57873;" /><glyph d="M765 0C790 0 801 11 801 36V351C801 376 790 387 765 387H620C595 387 584 376 584 351V189H428V320L511 333C536 337 547 343 547 369V476C547 502 536 516 511 512L428 499V684C428 709 417 720 392 720H237C212 720 201 709 201 684V462C178 458 167 451 167 426V319C167 294 177 280 201 283V36C201 11 212 0 237 0ZM310 90V385L250 375V385L310 395V630L320 631V398L450 418V408L320 387V100H687V297H697V90Z" glyph-name="Lslash.v" horiz-adv-x="1000" unicode="&#57832;" /><glyph d="M421 385C445 385 449 392 472 427L594 613C602 626 612 630 623 630H640C659 630 667 621 667 599V90H657V599C657 610 654 620 640 620H625C616 620 610 619 602 606L480 422C456 386 450 375 421 375C392 375 386 386 362 422L240 606C232 619 225 620 216 620H201C187 620 185 610 185 599V90H175V599C175 621 183 630 201 630H218C229 630 240 626 248 613L370 427C393 392 397 385 421 385ZM254 0C279 0 290 11 290 36V388L349 279C361 256 376 247 402 247H442C468 247 483 256 495 279L554 388V36C554 11 564 0 590 0H744C769 0 780 11 780 36V684C780 709 769 720 744 720H582C561 720 548 712 536 690L447 527C440 515 437 510 429 510H420C412 510 409 515 402 527L312 690C300 712 287 720 266 720H105C80 720 69 709 69 684V36C69 11 80 0 105 0Z" glyph-name="M" horiz-adv-x="849" unicode="M" /><glyph d="M181 507V90H171V507C171 588 213 642 356 642C475 642 522 605 535 546C549 605 596 642 715 642C858 642 899 588 899 507V90H889V507C889 582 850 632 715 632C580 632 540 582 540 507V90H530V507C530 582 491 632 356 632C221 632 181 582 181 507ZM288 36V492C288 519 298 539 356 539C413 539 423 519 423 492V36C423 11 434 0 459 0H611C636 0 647 11 647 36V492C647 519 657 539 714 539C772 539 782 519 782 492V36C782 11 792 0 818 0H970C995 0 1006 11 1006 36V531C1006 653 954 735 742 735C640 735 575 716 535 683C495 716 430 735 328 735C116 735 64 653 64 531V36C64 11 75 0 100 0H252C278 0 288 11 288 36Z" glyph-name="M.salt" horiz-adv-x="1070" unicode="&#57636;" /><glyph d="M251 507V90H241V507C241 588 272 642 374 642C455 642 489 608 500 553C511 608 546 642 627 642C729 642 758 588 758 507V90H748V507C748 582 721 632 627 632C532 632 505 582 505 507V90H495V507C495 582 468 632 374 632C280 632 251 582 251 507ZM340 36V499C340 526 347 539 373 539C399 539 405 526 405 499V36C405 11 416 0 441 0H558C583 0 594 11 594 36V499C594 526 600 539 626 539C652 539 659 526 659 499V36C659 11 669 0 695 0H812C837 0 848 11 848 36V531C848 653 800 735 649 735C574 735 527 717 499 685C472 717 425 735 350 735C199 735 151 653 151 531V36C151 11 162 0 187 0H304C330 0 340 11 340 36Z" glyph-name="M.salt_v" horiz-adv-x="1000" unicode="&#57875;" /><glyph d="M496 365C515 365 520 369 537 407L630 613C637 628 651 630 663 630H684C704 630 713 621 713 599L715 90H705L703 599C703 610 700 620 684 620H665C655 620 644 620 638 606L545 402C528 364 520 355 496 355C472 355 464 364 447 402L354 606C348 620 337 620 327 620H312C293 620 289 610 289 599L287 90H277L279 599C279 621 289 630 312 630H329C341 630 356 627 362 613L455 407C471 371 477 365 496 365ZM347 0C372 0 383 11 383 36L386 329V371L425 261C438 238 452 229 478 229H505C531 229 545 238 558 261L596 371V329L600 36C600 11 611 0 636 0H787C813 0 823 11 823 36L819 684C819 709 809 720 783 720H643C617 720 601 712 587 690L509 514H485L415 690C402 713 376 720 350 720H219C194 720 183 709 183 684L179 36C179 11 190 0 215 0Z" glyph-name="M.v" horiz-adv-x="1000" unicode="&#65325;" /><glyph d="M421 385C445 385 449 392 472 427L594 613C602 626 612 630 623 630H640C659 630 667 621 667 599V90H657V599C657 610 654 620 640 620H625C616 620 610 619 602 606L480 422C456 386 450 375 421 375C392 375 386 386 362 422L240 606C232 619 225 620 216 620H201C187 620 185 610 185 599V90H175V599C175 621 183 630 201 630H218C229 630 240 626 248 613L370 427C393 392 397 385 421 385ZM254 0C279 0 290 11 290 36V388L349 279C361 256 376 247 402 247H442C468 247 483 256 495 279L554 388V36C554 11 564 0 590 0H744C769 0 780 11 780 36V684C780 709 769 720 744 720H582C561 720 548 712 536 690L447 527C440 515 437 510 429 510H420C412 510 409 515 402 527L312 690C300 712 287 720 266 720H105C80 720 69 709 69 684V36C69 11 80 0 105 0ZM503 -240C528 -240 539 -229 539 -204V-77C539 -52 528 -41 503 -41H345C320 -41 309 -52 309 -77V-204C309 -229 320 -240 345 -240ZM429 -170H419V-111H429Z" glyph-name="Mdotbelow" horiz-adv-x="849" unicode="&#7746;" /><glyph d="M201 622 569 208V630H579V90H569V193L191 617C189 619 188 620 186 620C184 620 184 618 184 617V90H174V619C174 627 180 631 186 631C192 631 194 629 201 622ZM255 0C280 0 291 11 291 36V366L462 159V36C462 11 473 0 498 0H648C673 0 684 11 684 36V684C684 709 673 720 648 720H498C473 720 462 709 462 684V471L268 693C251 713 235 720 209 720H105C80 720 69 709 69 684V36C69 11 80 0 105 0Z" glyph-name="N" horiz-adv-x="753" unicode="N" /><glyph d="M318 591C324 591 326 589 333 582L685 188V590H695V90H685V173L323 577C321 579 320 580 318 580C316 580 316 578 316 577V90H306V579C306 587 312 591 318 591ZM386 0C411 0 422 11 422 36V326L579 139V36C579 11 590 0 615 0H765C790 0 801 11 801 36V644C801 669 790 680 765 680H615C590 680 579 669 579 644V451L399 653C382 673 366 680 340 680H236C211 680 200 669 200 644V36C200 11 211 0 236 0Z" glyph-name="N.s_v" horiz-adv-x="1000" unicode="&#57936;" /><glyph d="M572 90H562V507C562 582 521 632 372 632C223 632 181 582 181 507V90H171V507C171 588 215 642 372 642C529 642 572 588 572 507ZM64 531V36C64 11 75 0 100 0H252C278 0 288 11 288 36V492C288 519 300 539 371 539C441 539 453 519 453 492V36C453 11 464 0 489 0H646C671 0 682 11 682 36V531C682 653 621 735 373 735C125 735 64 653 64 531Z" glyph-name="N.salt" horiz-adv-x="746" unicode="&#57637;" /><glyph d="M690 90H680V467C680 542 641 592 499 592C357 592 317 542 317 467V90H307V467C307 548 349 602 499 602C649 602 690 548 690 467ZM200 491V36C200 11 211 0 236 0H388C414 0 424 11 424 36V452C424 479 436 499 498 499C559 499 571 479 571 452V36C571 11 582 0 607 0H764C789 0 800 11 800 36V491C800 613 748 695 500 695C252 695 200 613 200 491Z" glyph-name="N.salt_s_v" horiz-adv-x="1000" unicode="&#57948;" /><glyph d="M690 90H680V507C680 582 641 632 499 632C357 632 317 582 317 507V90H307V507C307 588 349 642 499 642C649 642 690 588 690 507ZM200 532V37C200 12 211 0 236 0H388C414 0 424 12 424 37V493C424 520 436 540 498 540C559 540 571 520 571 493V37C571 12 582 0 607 0H764C789 0 800 12 800 37V532C800 654 748 736 500 736C252 736 200 654 200 532Z" glyph-name="N.salt_v" horiz-adv-x="1000" unicode="&#57876;" /><glyph d="M318 631C324 631 326 629 333 622L685 208V630H695V90H685V193L323 617C321 619 320 620 318 620C316 620 316 618 316 617V90H306V619C306 627 312 631 318 631ZM386 0C411 0 422 11 422 36V366L579 159V36C579 11 590 0 615 0H765C790 0 801 11 801 36V684C801 709 790 720 765 720H615C590 720 579 709 579 684V471L399 693C382 713 366 720 340 720H236C211 720 200 709 200 684V36C200 11 211 0 236 0Z" glyph-name="N.v" horiz-adv-x="1000" unicode="&#65326;" /><glyph d="M201 622 569 208V630H579V90H569V193L191 617C189 619 188 620 186 620C184 620 184 618 184 617V90H174V619C174 627 180 631 186 631C192 631 194 629 201 622ZM255 0C280 0 291 11 291 36V366L462 159V36C462 11 473 0 498 0H648C673 0 684 11 684 36V684C684 709 673 720 648 720H498C473 720 462 709 462 684V471L268 693C251 713 235 720 209 720H105C80 720 69 709 69 684V36C69 11 80 0 105 0ZM559 796C584 799 595 807 595 832V928C595 951 584 964 561 961L212 918C187 915 176 907 176 882V786C176 763 187 750 210 753ZM266 847 505 877V867L266 837Z" glyph-name="Nacute" horiz-adv-x="753" unicode="&#323;" /><glyph d="M572 90H562V507C562 582 521 632 372 632C223 632 181 582 181 507V90H171V507C171 588 215 642 372 642C529 642 572 588 572 507ZM64 531V36C64 11 75 0 100 0H252C278 0 288 11 288 36V492C288 519 300 539 371 539C441 539 453 519 453 492V36C453 11 464 0 489 0H646C671 0 682 11 682 36V531C682 653 621 735 373 735C125 735 64 653 64 531ZM556 796C581 799 592 807 592 832V928C592 951 581 964 558 961L209 918C184 915 173 907 173 882V786C173 763 184 750 207 753ZM263 847 502 877V867L263 837Z" glyph-name="Nacute.salt" horiz-adv-x="746" unicode="&#57639;" /><glyph d="M673 756C698 759 709 767 709 792V888C709 911 698 924 675 921L326 878C301 875 290 867 290 842V746C290 723 301 710 324 713ZM380 807 619 837V827L380 797ZM690 90H680V467C680 542 641 592 499 592C357 592 317 542 317 467V90H307V467C307 548 349 602 499 602C649 602 690 548 690 467ZM200 491V36C200 11 211 0 236 0H388C414 0 424 11 424 36V452C424 479 436 499 498 499C559 499 571 479 571 452V36C571 11 582 0 607 0H764C789 0 800 11 800 36V491C800 613 748 695 500 695C252 695 200 613 200 491Z" glyph-name="Nacute.salt_v" horiz-adv-x="1000" unicode="&#57878;" /><glyph d="M318 591C324 591 326 589 333 582L685 188V590H695V90H685V173L323 577C321 579 320 580 318 580C316 580 316 578 316 577V90H306V579C306 587 312 591 318 591ZM386 0C411 0 422 11 422 36V326L579 139V36C579 11 590 0 615 0H765C790 0 801 11 801 36V644C801 669 790 680 765 680H615C590 680 579 669 579 644V451L399 653C382 673 366 680 340 680H236C211 680 200 669 200 644V36C200 11 211 0 236 0ZM673 756C698 759 709 767 709 792V888C709 911 698 924 675 921L326 878C301 875 290 867 290 842V746C290 723 301 710 324 713ZM380 807 619 837V827L380 797Z" glyph-name="Nacute.v" horiz-adv-x="1000" unicode="&#57782;" /><glyph d="M201 622 569 208V630H579V90H569V193L191 617C189 619 188 620 186 620C184 620 184 618 184 617V90H174V619C174 627 180 631 186 631C192 631 194 629 201 622ZM255 0C280 0 291 11 291 36V366L462 159V36C462 11 473 0 498 0H648C673 0 684 11 684 36V684C684 709 673 720 648 720H498C473 720 462 709 462 684V471L268 693C251 713 235 720 209 720H105C80 720 69 709 69 684V36C69 11 80 0 105 0ZM397 932C374 926 358 926 335 932L198 972C163 983 156 977 156 941V860C156 824 164 820 198 807L335 757C345 753 355 752 367 752C379 753 394 756 406 761L534 807C566 820 575 824 575 860V941C575 977 568 983 534 972ZM246 879 333 851C343 848 352 845 365 845C378 845 387 848 397 851L484 879V868L401 841C389 838 380 835 365 835C350 835 341 838 329 841L246 868Z" glyph-name="Ncaron" horiz-adv-x="753" unicode="&#327;" /><glyph d="M572 90H562V507C562 582 521 632 372 632C223 632 181 582 181 507V90H171V507C171 588 215 642 372 642C529 642 572 588 572 507ZM64 531V36C64 11 75 0 100 0H252C278 0 288 11 288 36V492C288 519 300 539 371 539C441 539 453 519 453 492V36C453 11 464 0 489 0H646C671 0 682 11 682 36V531C682 653 621 735 373 735C125 735 64 653 64 531ZM404 932C381 926 365 926 342 932L205 972C170 983 163 977 163 941V860C163 824 171 820 205 807L342 757C352 753 362 752 374 752C386 753 401 756 413 761L541 807C573 820 582 824 582 860V941C582 977 575 983 541 972ZM253 879 340 851C350 848 359 845 372 845C385 845 394 848 404 851L491 879V868L408 841C396 838 387 835 372 835C357 835 348 838 336 841L253 868Z" glyph-name="Ncaron.salt" horiz-adv-x="746" unicode="&#57641;" /><glyph d="M531 892C508 886 492 886 469 892L332 932C297 943 290 937 290 901V820C290 784 298 780 332 767L469 717C479 713 489 712 501 712C513 713 528 716 540 721L668 767C700 780 709 784 709 820V901C709 937 702 943 668 932ZM380 839 467 811C477 808 486 805 499 805C512 805 521 808 531 811L618 839V828L535 801C523 798 514 795 499 795C484 795 475 798 463 801L380 828ZM690 90H680V467C680 542 641 592 499 592C357 592 317 542 317 467V90H307V467C307 548 349 602 499 602C649 602 690 548 690 467ZM200 491V36C200 11 211 0 236 0H388C414 0 424 11 424 36V452C424 479 436 499 498 499C559 499 571 479 571 452V36C571 11 582 0 607 0H764C789 0 800 11 800 36V491C800 613 748 695 500 695C252 695 200 613 200 491Z" glyph-name="Ncaron.salt_v" horiz-adv-x="1000" unicode="&#57880;" /><glyph d="M318 591C324 591 326 589 333 582L685 188V590H695V90H685V173L323 577C321 579 320 580 318 580C316 580 316 578 316 577V90H306V579C306 587 312 591 318 591ZM386 0C411 0 422 11 422 36V326L579 139V36C579 11 590 0 615 0H765C790 0 801 11 801 36V644C801 669 790 680 765 680H615C590 680 579 669 579 644V451L399 653C382 673 366 680 340 680H236C211 680 200 669 200 644V36C200 11 211 0 236 0ZM531 892C508 886 492 886 469 892L332 932C297 943 290 937 290 901V820C290 784 298 780 332 767L469 717C479 713 489 712 501 712C513 713 528 716 540 721L668 767C700 780 709 784 709 820V901C709 937 702 943 668 932ZM380 839 467 811C477 808 486 805 499 805C512 805 521 808 531 811L618 839V828L535 801C523 798 514 795 499 795C484 795 475 798 463 801L380 828Z" glyph-name="Ncaron.v" horiz-adv-x="1000" unicode="&#57784;" /><glyph d="M201 622 569 208V630H579V90H569V193L191 617C189 619 188 620 186 620C184 620 184 618 184 617V90H174V619C174 627 180 631 186 631C192 631 194 629 201 622ZM255 0C280 0 291 11 291 36V366L462 159V36C462 11 473 0 498 0H648C673 0 684 11 684 36V684C684 709 673 720 648 720H498C473 720 462 709 462 684V471L268 693C251 713 235 720 209 720H105C80 720 69 709 69 684V36C69 11 80 0 105 0ZM367 -362C443 -362 492 -320 492 -234V-82C492 -52 483 -43 455 -43H297C269 -43 260 -52 260 -82V-191C260 -221 269 -230 297 -230H383V-243C383 -258 375 -267 360 -267H301C280 -267 271 -276 271 -297V-331C271 -353 280 -362 301 -362ZM435 -132V-229C435 -290 406 -315 352 -315H317V-305H352C400 -305 425 -283 425 -229V-142H317V-132Z" glyph-name="Ncommaaccent" horiz-adv-x="753" unicode="&#325;" /><glyph d="M572 90H562V507C562 582 521 632 372 632C223 632 181 582 181 507V90H171V507C171 588 215 642 372 642C529 642 572 588 572 507ZM64 531V36C64 11 75 0 100 0H252C278 0 288 11 288 36V492C288 519 300 539 371 539C441 539 453 519 453 492V36C453 11 464 0 489 0H646C671 0 682 11 682 36V531C682 653 621 735 373 735C125 735 64 653 64 531ZM364 -362C440 -362 489 -320 489 -234V-82C489 -52 480 -43 452 -43H294C266 -43 257 -52 257 -82V-191C257 -221 266 -230 294 -230H380V-243C380 -258 372 -267 357 -267H298C277 -267 268 -276 268 -297V-331C268 -353 277 -362 298 -362ZM432 -132V-229C432 -290 403 -315 349 -315H314V-305H349C397 -305 422 -283 422 -229V-142H314V-132Z" glyph-name="Ncommaaccent.salt" horiz-adv-x="746" unicode="&#57640;" /><glyph d="M690 210H680V507C680 582 641 632 499 632C357 632 317 582 317 507V210H307V507C307 588 349 642 499 642C649 642 690 588 690 507ZM200 521V156C200 131 211 120 236 120H388C414 120 424 131 424 156V482C424 509 436 529 498 529C559 529 571 509 571 482V156C571 131 582 120 607 120H764C789 120 800 131 800 156V521C800 643 748 725 500 725C252 725 200 643 200 521ZM492 -190C568 -190 617 -148 617 -62V50C617 81 608 90 580 90H422C394 90 385 81 385 50V-29C385 -59 394 -68 422 -68H508V-81C508 -96 500 -105 485 -105H426C405 -105 396 -114 396 -135V-159C396 -181 405 -190 426 -190ZM435 16H567V-71C567 -125 537 -152 489 -152H435V-142H489C531 -142 557 -118 557 -71V6H435Z" glyph-name="Ncommaaccent.salt_v" horiz-adv-x="1000" unicode="&#57879;" /><glyph d="M318 631C324 631 326 629 333 622L685 228V630H695V130H685V213L323 617C321 619 320 620 318 620C316 620 316 618 316 617V130H306V619C306 627 312 631 318 631ZM386 40C411 40 422 51 422 76V366L579 179V76C579 51 590 40 615 40H765C790 40 801 51 801 76V684C801 709 790 720 765 720H615C590 720 579 709 579 684V491L399 693C382 713 366 720 340 720H236C211 720 200 709 200 684V76C200 51 211 40 236 40ZM492 -290C568 -290 617 -248 617 -162V-50C617 -19 608 -10 580 -10H422C394 -10 385 -19 385 -50V-129C385 -159 394 -168 422 -168H508V-181C508 -196 500 -205 485 -205H426C405 -205 396 -214 396 -235V-259C396 -281 405 -290 426 -290ZM435 -84H567V-171C567 -225 537 -252 489 -252H435V-242H489C531 -242 557 -218 557 -171V-94H435Z" glyph-name="Ncommaaccent.v" horiz-adv-x="1000" unicode="&#57783;" /><glyph d="M201 622 569 208V630H579V90H569V193L191 617C189 619 188 620 186 620C184 620 184 618 184 617V90H174V619C174 627 180 631 186 631C192 631 194 629 201 622ZM255 0C280 0 291 11 291 36V366L462 159V36C462 11 473 0 498 0H648C673 0 684 11 684 36V684C684 709 673 720 648 720H498C473 720 462 709 462 684V471L268 693C251 713 235 720 209 720H105C80 720 69 709 69 684V36C69 11 80 0 105 0ZM456 760C481 760 492 771 492 796V923C492 948 481 959 456 959H298C273 959 262 948 262 923V796C262 771 273 760 298 760ZM382 830H372V889H382Z" glyph-name="Ndotaccent" horiz-adv-x="753" unicode="&#7748;" /><glyph d="M201 622 569 208V630H579V90H569V193L191 617C189 619 188 620 186 620C184 620 184 618 184 617V90H174V619C174 627 180 631 186 631C192 631 194 629 201 622ZM255 0C280 0 291 11 291 36V366L462 159V36C462 11 473 0 498 0H648C673 0 684 11 684 36V684C684 709 673 720 648 720H498C473 720 462 709 462 684V471L268 693C251 713 235 720 209 720H105C80 720 69 709 69 684V36C69 11 80 0 105 0ZM456 -240C481 -240 492 -229 492 -204V-77C492 -52 481 -41 456 -41H298C273 -41 262 -52 262 -77V-204C262 -229 273 -240 298 -240ZM382 -170H372V-111H382Z" glyph-name="Ndotbelow" horiz-adv-x="753" unicode="&#7750;" /><glyph d="M201 622 569 208V630H579V90H569V193L191 617C189 619 188 620 186 620C184 620 184 618 184 617V90H174V619C174 627 180 631 186 631C192 631 194 629 201 622ZM255 0C280 0 291 11 291 36V366L462 159V36C462 11 473 0 498 0H648C673 0 684 11 684 36V684C684 709 673 720 648 720H498C473 720 462 709 462 684V471L268 693C251 713 235 720 209 720H105C80 720 69 709 69 684V36C69 11 80 0 105 0ZM550 -205C575 -205 586 -194 586 -169V-76C586 -51 575 -40 550 -40H203C178 -40 167 -51 167 -76V-169C167 -194 178 -205 203 -205ZM257 -118H496V-128H257Z" glyph-name="Nlinebelow" horiz-adv-x="753" unicode="&#7752;" /><glyph d="M201 622 569 208V630H579V90H569V193L191 617C189 619 188 620 186 620C184 620 184 618 184 617V90H174V619C174 627 180 631 186 631C192 631 194 629 201 622ZM255 0C280 0 291 11 291 36V366L462 159V36C462 11 473 0 498 0H648C673 0 684 11 684 36V684C684 709 673 720 648 720H498C473 720 462 709 462 684V471L268 693C251 713 235 720 209 720H105C80 720 69 709 69 684V36C69 11 80 0 105 0ZM375 764 391 762C471 750 485 748 548 767C571 776 584 783 584 808V909C584 934 572 942 548 935C489 917 485 914 397 927L375 930L358 932C278 944 265 946 202 927C179 918 166 911 166 886V785C166 760 178 752 202 759C255 775 271 779 347 768ZM494 841V831C467 828 441 831 390 839L374 841L346 845C302 852 278 853 256 849V860C279 863 303 861 348 855L376 851L392 849C443 841 467 838 494 841Z" glyph-name="Ntilde" horiz-adv-x="753" unicode="&#209;" /><glyph d="M572 90H562V507C562 582 521 632 372 632C223 632 181 582 181 507V90H171V507C171 588 215 642 372 642C529 642 572 588 572 507ZM64 531V36C64 11 75 0 100 0H252C278 0 288 11 288 36V492C288 519 300 539 371 539C441 539 453 519 453 492V36C453 11 464 0 489 0H646C671 0 682 11 682 36V531C682 653 621 735 373 735C125 735 64 653 64 531ZM372 764 388 762C468 750 482 748 545 767C568 776 581 783 581 808V909C581 934 569 942 545 935C486 917 482 914 394 927L372 930L355 932C275 944 262 946 199 927C176 918 163 911 163 886V785C163 760 175 752 199 759C252 775 268 779 344 768ZM491 841V831C464 828 438 831 387 839L371 841L343 845C299 852 275 853 253 849V860C276 863 300 861 345 855L373 851L389 849C440 841 464 838 491 841Z" glyph-name="Ntilde.salt" horiz-adv-x="746" unicode="&#57638;" /><glyph d="M690 90H680V467C680 542 641 592 499 592C357 592 317 542 317 467V90H307V467C307 548 349 602 499 602C649 602 690 548 690 467ZM200 491V36C200 11 211 0 236 0H388C414 0 424 11 424 36V452C424 479 436 499 498 499C559 499 571 479 571 452V36C571 11 582 0 607 0H764C789 0 800 11 800 36V491C800 613 748 695 500 695C252 695 200 613 200 491ZM499 724 515 722C595 710 609 708 672 727C695 736 708 743 708 768V869C708 894 696 902 672 895C613 877 609 874 521 887L499 890L482 892C402 904 389 906 326 887C303 878 290 871 290 846V745C290 720 302 712 326 719C379 735 395 739 471 728ZM618 801V791C591 788 565 791 514 799L498 801L470 805C426 812 402 813 380 809V820C403 823 427 821 472 815L500 811L516 809C567 801 591 798 618 801Z" glyph-name="Ntilde.salt_v" horiz-adv-x="1000" unicode="&#57877;" /><glyph d="M318 591C324 591 326 589 333 582L685 188V590H695V90H685V173L323 577C321 579 320 580 318 580C316 580 316 578 316 577V90H306V579C306 587 312 591 318 591ZM386 0C411 0 422 11 422 36V326L579 139V36C579 11 590 0 615 0H765C790 0 801 11 801 36V644C801 669 790 680 765 680H615C590 680 579 669 579 644V451L399 653C382 673 366 680 340 680H236C211 680 200 669 200 644V36C200 11 211 0 236 0ZM499 724 515 722C595 710 609 708 672 727C695 736 708 743 708 768V869C708 894 696 902 672 895C613 877 609 874 521 887L499 890L482 892C402 904 389 906 326 887C303 878 290 871 290 846V745C290 720 302 712 326 719C379 735 395 739 471 728ZM618 801V791C591 788 565 791 514 799L498 801L470 805C426 812 402 813 380 809V820C403 823 427 821 472 815L500 811L516 809C567 801 591 798 618 801Z" glyph-name="Ntilde.v" horiz-adv-x="1000" unicode="&#57781;" /><glyph d="M679 189V530C679 652 619 735 369 735C119 735 58 652 58 530V189C58 67 119 -15 369 -15C619 -15 679 67 679 189ZM570 212C570 131 524 77 367 77C210 77 166 131 166 212V507C166 588 210 642 367 642C524 642 570 588 570 507ZM176 212C176 137 218 87 367 87C516 87 560 137 560 212V507C560 582 516 632 367 632C218 632 176 582 176 507ZM285 225V494C285 520 297 540 369 540C442 540 453 520 453 494V225C453 198 442 178 369 178C297 178 285 198 285 225Z" glyph-name="O" horiz-adv-x="737" unicode="O" /><glyph d="M804 189V490C804 612 745 695 500 695C255 695 196 612 196 490V189C196 67 255 -15 500 -15C745 -15 804 67 804 189ZM696 212C696 131 651 77 499 77C347 77 305 131 305 212V467C305 548 347 602 499 602C651 602 696 548 696 467ZM315 212C315 137 355 87 499 87C643 87 686 137 686 212V467C686 542 643 592 499 592C355 592 315 542 315 467ZM423 225V454C423 480 434 500 500 500C567 500 578 480 578 454V225C578 198 567 178 500 178C434 178 423 198 423 225Z" glyph-name="O.s_v" horiz-adv-x="1000" unicode="&#57937;" /><glyph d="M804 189V530C804 652 745 735 500 735C255 735 196 652 196 530V189C196 67 255 -15 500 -15C745 -15 804 67 804 189ZM696 212C696 131 651 77 499 77C347 77 305 131 305 212V507C305 588 347 642 499 642C651 642 696 588 696 507ZM315 212C315 137 355 87 499 87C643 87 686 137 686 212V507C686 582 643 632 499 632C355 632 315 582 315 507ZM423 225V494C423 520 434 540 500 540C567 540 578 520 578 494V225C578 198 567 178 500 178C434 178 423 198 423 225Z" glyph-name="O.v" horiz-adv-x="1000" unicode="&#65327;" /><glyph d="M304 0H930C955 0 966 11 966 36V153C966 178 955 189 930 189H667V275H849C874 275 885 286 885 311V418C885 444 874 454 849 454H667V531H930C955 531 966 542 966 567V684C966 709 955 720 930 720H304C115 720 58 637 58 516V204C58 83 115 0 304 0ZM326 90C188 90 166 149 166 226V491C166 568 190 630 326 630H866V620H559V370H785V360H559V100H866V90ZM326 100H549V620H326C200 620 176 564 176 491V221C177 151 201 100 326 100ZM440 189H331C291 189 284 211 284 238V481C284 507 291 529 331 529H440Z" glyph-name="OE" horiz-adv-x="1015" unicode="&#338;" /><glyph d="M425 0H785C810 0 821 11 821 36V153C821 178 810 189 785 189H682V275H784C809 275 820 286 820 311V418C820 444 809 454 784 454H682V531H785C810 531 821 542 821 567V684C821 709 810 720 785 720H425C236 720 179 637 179 516V204C179 83 236 0 425 0ZM426 90C297 90 276 149 276 226V491C276 568 299 630 426 630H731V620H586V370H730V360H586V100H731V90ZM426 100H576V620H426C308 620 286 564 286 491V221C287 151 309 100 426 100ZM480 189H429C389 189 382 211 382 238V481C382 507 389 529 429 529H480Z" glyph-name="OE.v" horiz-adv-x="1000" unicode="&#57834;" /><glyph d="M679 189V530C679 652 619 735 369 735C119 735 58 652 58 530V189C58 67 119 -15 369 -15C619 -15 679 67 679 189ZM570 212C570 131 524 77 367 77C210 77 166 131 166 212V507C166 588 210 642 367 642C524 642 570 588 570 507ZM176 212C176 137 218 87 367 87C516 87 560 137 560 212V507C560 582 516 632 367 632C218 632 176 582 176 507ZM285 225V494C285 520 297 540 369 540C442 540 453 520 453 494V225C453 198 442 178 369 178C297 178 285 198 285 225ZM541 796C566 799 577 807 577 832V928C577 951 566 964 543 961L194 918C169 915 158 907 158 882V786C158 763 169 750 192 753ZM248 847 487 877V867L248 837Z" glyph-name="Oacute" horiz-adv-x="737" unicode="&#211;" /><glyph d="M804 189V490C804 612 745 695 500 695C255 695 196 612 196 490V189C196 67 255 -15 500 -15C745 -15 804 67 804 189ZM696 212C696 131 651 77 499 77C347 77 305 131 305 212V467C305 548 347 602 499 602C651 602 696 548 696 467ZM315 212C315 137 355 87 499 87C643 87 686 137 686 212V467C686 542 643 592 499 592C355 592 315 542 315 467ZM423 225V454C423 480 434 500 500 500C567 500 578 480 578 454V225C578 198 567 178 500 178C434 178 423 198 423 225ZM673 756C698 759 709 767 709 792V888C709 911 698 924 675 921L326 878C301 875 290 867 290 842V746C290 723 301 710 324 713ZM380 807 619 837V827L380 797Z" glyph-name="Oacute.v" horiz-adv-x="1000" unicode="&#57786;" /><glyph d="M679 189V530C679 652 619 735 369 735C119 735 58 652 58 530V189C58 67 119 -15 369 -15C619 -15 679 67 679 189ZM570 212C570 131 524 77 367 77C210 77 166 131 166 212V507C166 588 210 642 367 642C524 642 570 588 570 507ZM176 212C176 137 218 87 367 87C516 87 560 137 560 212V507C560 582 516 632 367 632C218 632 176 582 176 507ZM285 225V494C285 520 297 540 369 540C442 540 453 520 453 494V225C453 198 442 178 369 178C297 178 285 198 285 225ZM585 897V941C585 966 574 977 549 977H458C435 977 428 970 428 946V925C428 906 419 892 369 892C320 892 312 906 312 925V946C312 970 304 977 283 977H187C162 977 151 966 151 941V897C151 812 194 754 368 754C542 754 585 812 585 897ZM502 907H512V898C512 860 491 818 367 818C243 818 227 860 227 898V907H237V898C237 862 259 828 367 828C475 828 502 862 502 898Z" glyph-name="Obreve" horiz-adv-x="737" unicode="&#334;" /><glyph d="M804 189V490C804 612 745 695 500 695C255 695 196 612 196 490V189C196 67 255 -15 500 -15C745 -15 804 67 804 189ZM696 212C696 131 651 77 499 77C347 77 305 131 305 212V467C305 548 347 602 499 602C651 602 696 548 696 467ZM315 212C315 137 355 87 499 87C643 87 686 137 686 212V467C686 542 643 592 499 592C355 592 315 542 315 467ZM423 225V454C423 480 434 500 500 500C567 500 578 480 578 454V225C578 198 567 178 500 178C434 178 423 198 423 225ZM717 857V901C717 926 706 937 681 937H590C567 937 560 930 560 906V885C560 866 551 852 501 852C452 852 444 866 444 885V906C444 930 436 937 415 937H319C294 937 283 926 283 901V857C283 772 326 714 500 714C674 714 717 772 717 857ZM634 867H644V858C644 820 623 778 499 778C375 778 359 820 359 858V867H369V858C369 822 391 788 499 788C607 788 634 822 634 858Z" glyph-name="Obreve.v" horiz-adv-x="1000" unicode="&#57791;" /><glyph d="M679 189V530C679 652 619 735 369 735C119 735 58 652 58 530V189C58 67 119 -15 369 -15C619 -15 679 67 679 189ZM570 212C570 131 524 77 367 77C210 77 166 131 166 212V507C166 588 210 642 367 642C524 642 570 588 570 507ZM176 212C176 137 218 87 367 87C516 87 560 137 560 212V507C560 582 516 632 367 632C218 632 176 582 176 507ZM285 225V494C285 520 297 540 369 540C442 540 453 520 453 494V225C453 198 442 178 369 178C297 178 285 198 285 225ZM399 932C376 926 360 926 337 932L200 972C165 983 158 977 158 941V860C158 824 166 820 200 807L337 757C347 753 357 752 369 752C381 753 396 756 408 761L536 807C568 820 577 824 577 860V941C577 977 570 983 536 972ZM248 879 335 851C345 848 354 845 367 845C380 845 389 848 399 851L486 879V868L403 841C391 838 382 835 367 835C352 835 343 838 331 841L248 868Z" glyph-name="Ocaron" horiz-adv-x="737" unicode="&#465;" /><glyph d="M679 189V530C679 652 619 735 369 735C119 735 58 652 58 530V189C58 67 119 -15 369 -15C619 -15 679 67 679 189ZM570 212C570 131 524 77 367 77C210 77 166 131 166 212V507C166 588 210 642 367 642C524 642 570 588 570 507ZM176 212C176 137 218 87 367 87C516 87 560 137 560 212V507C560 582 516 632 367 632C218 632 176 582 176 507ZM285 225V494C285 520 297 540 369 540C442 540 453 520 453 494V225C453 198 442 178 369 178C297 178 285 198 285 225ZM336 797C359 803 375 803 398 797L535 757C570 746 577 752 577 788V869C577 905 569 909 535 922L398 972C388 976 378 977 366 977C354 976 339 973 327 968L199 922C167 909 158 905 158 869V788C158 752 165 746 199 757ZM486 850 399 878C389 881 380 884 367 884C354 884 345 881 335 878L248 850V861L331 888C343 891 352 894 367 894C382 894 391 891 403 888L486 861Z" glyph-name="Ocircumflex" horiz-adv-x="737" unicode="&#212;" /><glyph d="M804 189V490C804 612 745 695 500 695C255 695 196 612 196 490V189C196 67 255 -15 500 -15C745 -15 804 67 804 189ZM696 212C696 131 651 77 499 77C347 77 305 131 305 212V467C305 548 347 602 499 602C651 602 696 548 696 467ZM315 212C315 137 355 87 499 87C643 87 686 137 686 212V467C686 542 643 592 499 592C355 592 315 542 315 467ZM423 225V454C423 480 434 500 500 500C567 500 578 480 578 454V225C578 198 567 178 500 178C434 178 423 198 423 225ZM468 757C491 763 507 763 530 757L667 717C702 706 709 712 709 748V829C709 865 701 869 667 882L530 932C520 936 510 937 498 937C486 936 471 933 459 928L331 882C299 869 290 865 290 829V748C290 712 297 706 331 717ZM618 810 531 838C521 841 512 844 499 844C486 844 477 841 467 838L380 810V821L463 848C475 851 484 854 499 854C514 854 523 851 535 848L618 821Z" glyph-name="Ocircumflex.v" horiz-adv-x="1000" unicode="&#57787;" /><glyph d="M679 189V530C679 652 619 735 369 735C119 735 58 652 58 530V189C58 67 119 -15 369 -15C619 -15 679 67 679 189ZM570 212C570 131 524 77 367 77C210 77 166 131 166 212V507C166 588 210 642 367 642C524 642 570 588 570 507ZM176 212C176 137 218 87 367 87C516 87 560 137 560 212V507C560 582 516 632 367 632C218 632 176 582 176 507ZM285 225V494C285 520 297 540 369 540C442 540 453 520 453 494V225C453 198 442 178 369 178C297 178 285 198 285 225ZM336 797C359 803 375 803 398 797L535 757C570 746 577 752 577 788V869C577 905 569 909 535 922L398 972C388 976 378 977 366 977C354 976 339 973 327 968L199 922C167 909 158 905 158 869V788C158 752 165 746 199 757ZM486 850 399 878C389 881 380 884 367 884C354 884 345 881 335 878L248 850V861L331 888C343 891 352 894 367 894C382 894 391 891 403 888L486 861ZM583 1202 446 1169C422 1163 410 1158 410 1133V1027C410 1004 422 989 444 994L581 1027C605 1033 617 1038 617 1063V1169C617 1192 605 1207 583 1202ZM556 1104 469 1083V1093L556 1114Z" glyph-name="Ocircumflexacute" horiz-adv-x="737" unicode="&#7888;" /><glyph d="M679 189V530C679 652 619 735 369 735C119 735 58 652 58 530V189C58 67 119 -15 369 -15C619 -15 679 67 679 189ZM570 212C570 131 524 77 367 77C210 77 166 131 166 212V507C166 588 210 642 367 642C524 642 570 588 570 507ZM176 212C176 137 218 87 367 87C516 87 560 137 560 212V507C560 582 516 632 367 632C218 632 176 582 176 507ZM285 225V494C285 520 297 540 369 540C442 540 453 520 453 494V225C453 198 442 178 369 178C297 178 285 198 285 225ZM336 797C359 803 375 803 398 797L535 757C570 746 577 752 577 788V869C577 905 569 909 535 922L398 972C388 976 378 977 366 977C354 976 339 973 327 968L199 922C167 909 158 905 158 869V788C158 752 165 746 199 757ZM486 850 399 878C389 881 380 884 367 884C354 884 345 881 335 878L248 850V861L331 888C343 891 352 894 367 894C382 894 391 891 403 888L486 861ZM448 -240C473 -240 484 -229 484 -204V-77C484 -52 473 -41 448 -41H290C265 -41 254 -52 254 -77V-204C254 -229 265 -240 290 -240ZM374 -170H364V-111H374Z" glyph-name="Ocircumflexdotbelow" horiz-adv-x="737" unicode="&#7896;" /><glyph d="M679 189V530C679 652 619 735 369 735C119 735 58 652 58 530V189C58 67 119 -15 369 -15C619 -15 679 67 679 189ZM570 212C570 131 524 77 367 77C210 77 166 131 166 212V507C166 588 210 642 367 642C524 642 570 588 570 507ZM176 212C176 137 218 87 367 87C516 87 560 137 560 212V507C560 582 516 632 367 632C218 632 176 582 176 507ZM285 225V494C285 520 297 540 369 540C442 540 453 520 453 494V225C453 198 442 178 369 178C297 178 285 198 285 225ZM336 797C359 803 375 803 398 797L535 757C570 746 577 752 577 788V869C577 905 569 909 535 922L398 972C388 976 378 977 366 977C354 976 339 973 327 968L199 922C167 909 158 905 158 869V788C158 752 165 746 199 757ZM486 850 399 878C389 881 380 884 367 884C354 884 345 881 335 878L248 850V861L331 888C343 891 352 894 367 894C382 894 391 891 403 888L486 861ZM424 1177C402 1182 390 1167 390 1144V1038C390 1013 402 1008 426 1002L563 969C585 964 597 979 597 1002V1108C597 1133 585 1138 561 1144ZM536 1068V1058L449 1079V1089Z" glyph-name="Ocircumflexgrave" horiz-adv-x="737" unicode="&#7890;" /><glyph d="M679 189V530C679 652 619 735 369 735C119 735 58 652 58 530V189C58 67 119 -15 369 -15C619 -15 679 67 679 189ZM570 212C570 131 524 77 367 77C210 77 166 131 166 212V507C166 588 210 642 367 642C524 642 570 588 570 507ZM176 212C176 137 218 87 367 87C516 87 560 137 560 212V507C560 582 516 632 367 632C218 632 176 582 176 507ZM285 225V494C285 520 297 540 369 540C442 540 453 520 453 494V225C453 198 442 178 369 178C297 178 285 198 285 225ZM336 797C359 803 375 803 398 797L535 757C570 746 577 752 577 788V869C577 905 569 909 535 922L398 972C388 976 378 977 366 977C354 976 339 973 327 968L199 922C167 909 158 905 158 869V788C158 752 165 746 199 757ZM486 850 399 878C389 881 380 884 367 884C354 884 345 881 335 878L248 850V861L331 888C343 891 352 894 367 894C382 894 391 891 403 888L486 861ZM621 991C671 998 702 1019 702 1078V1142C702 1209 662 1244 594 1244H426C413 1244 407 1238 407 1225V1152C407 1139 413 1133 426 1133H555C566 1133 574 1129 574 1119C574 1107 568 1104 555 1102L466 1088C453 1086 447 1080 449 1067L460 988C462 975 467 970 480 972ZM505 1029 504 1039 600 1053C620 1056 633 1067 633 1095V1145C633 1176 613 1184 593 1184H457V1194H593C618 1194 643 1184 643 1145V1095C643 1057 623 1047 602 1044Z" glyph-name="Ocircumflexhookabove" horiz-adv-x="737" unicode="&#7892;" /><glyph d="M679 189V530C679 652 619 735 369 735C119 735 58 652 58 530V189C58 67 119 -15 369 -15C619 -15 679 67 679 189ZM570 212C570 131 524 77 367 77C210 77 166 131 166 212V507C166 588 210 642 367 642C524 642 570 588 570 507ZM176 212C176 137 218 87 367 87C516 87 560 137 560 212V507C560 582 516 632 367 632C218 632 176 582 176 507ZM285 225V494C285 520 297 540 369 540C442 540 453 520 453 494V225C453 198 442 178 369 178C297 178 285 198 285 225ZM336 797C359 803 375 803 398 797L535 757C570 746 577 752 577 788V869C577 905 569 909 535 922L398 972C388 976 378 977 366 977C354 976 339 973 327 968L199 922C167 909 158 905 158 869V788C158 752 165 746 199 757ZM486 850 399 878C389 881 380 884 367 884C354 884 345 881 335 878L248 850V861L331 888C343 891 352 894 367 894C382 894 391 891 403 888L486 861ZM367 1014 383 1012C463 1000 477 998 540 1017C563 1026 576 1033 576 1058V1159C576 1184 564 1192 540 1185C481 1167 477 1164 389 1177L367 1180L350 1182C270 1194 257 1196 194 1177C171 1168 158 1161 158 1136V1035C158 1010 170 1002 194 1009C247 1025 263 1029 339 1018ZM486 1091V1081C459 1078 433 1081 382 1089L366 1091L338 1095C294 1102 270 1103 248 1099V1110C271 1113 295 1111 340 1105L368 1101L384 1099C435 1091 459 1088 486 1091Z" glyph-name="Ocircumflextilde" horiz-adv-x="737" unicode="&#7894;" /><glyph d="M679 189V530C679 652 619 735 369 735C119 735 58 652 58 530V189C58 67 119 -15 369 -15C619 -15 679 67 679 189ZM570 212C570 131 524 77 367 77C210 77 166 131 166 212V507C166 588 210 642 367 642C524 642 570 588 570 507ZM176 212C176 137 218 87 367 87C516 87 560 137 560 212V507C560 582 516 632 367 632C218 632 176 582 176 507ZM285 225V494C285 520 297 540 369 540C442 540 453 520 453 494V225C453 198 442 178 369 178C297 178 285 198 285 225ZM306 760C329 760 339 770 339 793V914C339 937 329 947 306 947H168C145 947 134 937 134 914V793C134 770 145 760 168 760ZM564 760C587 760 597 770 597 793V914C597 937 587 947 564 947H426C403 947 393 937 393 914V793C393 770 403 760 426 760ZM242 830H232V877H242ZM500 830H490V877H500Z" glyph-name="Odieresis" horiz-adv-x="737" unicode="&#214;" /><glyph d="M804 189V490C804 612 745 695 500 695C255 695 196 612 196 490V189C196 67 255 -15 500 -15C745 -15 804 67 804 189ZM696 212C696 131 651 77 499 77C347 77 305 131 305 212V467C305 548 347 602 499 602C651 602 696 548 696 467ZM315 212C315 137 355 87 499 87C643 87 686 137 686 212V467C686 542 643 592 499 592C355 592 315 542 315 467ZM423 225V454C423 480 434 500 500 500C567 500 578 480 578 454V225C578 198 567 178 500 178C434 178 423 198 423 225ZM438 720C461 720 471 730 471 753V874C471 897 461 907 438 907H300C277 907 266 897 266 874V753C266 730 277 720 300 720ZM696 720C719 720 729 730 729 753V874C729 897 719 907 696 907H558C535 907 525 897 525 874V753C525 730 535 720 558 720ZM374 790H364V837H374ZM632 790H622V837H632Z" glyph-name="Odieresis.v" horiz-adv-x="1000" unicode="&#57789;" /><glyph d="M679 189V530C679 652 619 735 369 735C119 735 58 652 58 530V189C58 67 119 -15 369 -15C619 -15 679 67 679 189ZM570 212C570 131 524 77 367 77C210 77 166 131 166 212V507C166 588 210 642 367 642C524 642 570 588 570 507ZM176 212C176 137 218 87 367 87C516 87 560 137 560 212V507C560 582 516 632 367 632C218 632 176 582 176 507ZM285 225V494C285 520 297 540 369 540C442 540 453 520 453 494V225C453 198 442 178 369 178C297 178 285 198 285 225ZM448 -240C473 -240 484 -229 484 -204V-77C484 -52 473 -41 448 -41H290C265 -41 254 -52 254 -77V-204C254 -229 265 -240 290 -240ZM374 -170H364V-111H374Z" glyph-name="Odotbelow" horiz-adv-x="737" unicode="&#7884;" /><glyph d="M679 189V530C679 652 619 735 369 735C119 735 58 652 58 530V189C58 67 119 -15 369 -15C619 -15 679 67 679 189ZM570 212C570 131 524 77 367 77C210 77 166 131 166 212V507C166 588 210 642 367 642C524 642 570 588 570 507ZM176 212C176 137 218 87 367 87C516 87 560 137 560 212V507C560 582 516 632 367 632C218 632 176 582 176 507ZM285 225V494C285 520 297 540 369 540C442 540 453 520 453 494V225C453 198 442 178 369 178C297 178 285 198 285 225ZM543 753C566 750 577 763 577 786V882C577 907 566 915 541 918L192 961C169 964 158 951 158 928V832C158 807 169 799 194 796ZM248 867V877L487 847V837Z" glyph-name="Ograve" horiz-adv-x="737" unicode="&#210;" /><glyph d="M804 189V490C804 612 745 695 500 695C255 695 196 612 196 490V189C196 67 255 -15 500 -15C745 -15 804 67 804 189ZM696 212C696 131 651 77 499 77C347 77 305 131 305 212V467C305 548 347 602 499 602C651 602 696 548 696 467ZM315 212C315 137 355 87 499 87C643 87 686 137 686 212V467C686 542 643 592 499 592C355 592 315 542 315 467ZM423 225V454C423 480 434 500 500 500C567 500 578 480 578 454V225C578 198 567 178 500 178C434 178 423 198 423 225ZM675 713C698 710 709 723 709 746V842C709 867 698 875 673 878L324 921C301 924 290 911 290 888V792C290 767 301 759 326 756ZM380 827V837L619 807V797Z" glyph-name="Ograve.v" horiz-adv-x="1000" unicode="&#57785;" /><glyph d="M679 189V530C679 652 619 735 369 735C119 735 58 652 58 530V189C58 67 119 -15 369 -15C619 -15 679 67 679 189ZM570 212C570 131 524 77 367 77C210 77 166 131 166 212V507C166 588 210 642 367 642C524 642 570 588 570 507ZM176 212C176 137 218 87 367 87C516 87 560 137 560 212V507C560 582 516 632 367 632C218 632 176 582 176 507ZM285 225V494C285 520 297 540 369 540C442 540 453 520 453 494V225C453 198 442 178 369 178C297 178 285 198 285 225ZM439 767C489 774 520 795 520 854V918C520 985 480 1020 412 1020H244C231 1020 225 1014 225 1001V928C225 915 231 909 244 909H373C384 909 392 905 392 895C392 883 386 880 373 878L284 864C271 862 265 856 267 843L278 764C280 751 285 746 298 748ZM323 805 322 815 418 829C438 832 451 843 451 871V921C451 952 431 960 411 960H275V970H411C436 970 461 960 461 921V871C461 833 441 823 420 820Z" glyph-name="Ohookabove" horiz-adv-x="737" unicode="&#7886;" /><glyph d="M369 -15C619 -15 679 67 679 189V530C679 556 676 580 669 603C721 627 737 669 737 721V765C737 790 726 801 701 801H590C567 801 560 794 560 770V749C560 731 553 721 523 720C482 730 432 735 369 735C119 735 58 652 58 530V189C58 67 119 -15 369 -15ZM367 77C210 77 166 131 166 212V507C166 588 210 642 367 642C430 642 474 633 506 618C599 618 640 670 640 724V733H650V724C650 672 619 615 522 609C557 585 570 550 570 507V212C570 131 524 77 367 77ZM176 507V212C176 137 218 87 367 87C516 87 560 137 560 212V507C560 582 516 632 367 632C218 632 176 582 176 507ZM285 225V494C285 520 297 540 369 540C442 540 453 520 453 494V225C453 198 442 178 369 178C297 178 285 198 285 225Z" glyph-name="Ohorn" horiz-adv-x="747" unicode="&#416;" /></font>
</defs>
</svg>
