<?xml version="1.0" standalone="no"?><!DOCTYPE svg PUBLIC "-//W3C//DTD SVG 1.1//EN" "http://www.w3.org/Graphics/SVG/1.1/DTD/svg11.dtd" ><svg version="1.1" xmlns="http://www.w3.org/2000/svg"><defs><font horiz-adv-x="0" id="font"><font-face ascent="860" bbox="-606.4039 -914.4039 1942.4039 1634.4039" cap-height="720" descent="-140" font-family="Bungee Layers Rotated" font-stretch="normal" font-style="normal" font-weight="400" units-per-em="1000" x-height="500" /><missing-glyph d="M784 760H56C31 760 20 749 20 724V-4C20 -29 31 -40 56 -40H784C809 -40 820 -29 820 -4V724C820 749 809 760 784 760ZM770 10H70V710H770Z" horiz-adv-x="840" /><glyph d="M746 59C771 59 782 69 782 95V242C782 267 771 278 746 278H606V435H746C771 435 782 449 782 474V625C782 650 771 661 746 661H482C413 661 398 651 322 622L95 535C70 526 62 511 62 485V226C62 200 70 184 95 175L322 98C398 69 413 59 482 59ZM272 335C259 341 255 343 255 354V359C255 370 259 372 272 378L424 425V288Z" glyph-name="A" horiz-adv-x="849" unicode="A" /><glyph d="M706 61C731 61 742 71 742 97V244C742 269 731 280 706 280H586V437H706C731 437 742 451 742 476V627C742 652 731 663 706 663H462C393 663 378 653 302 624L95 537C70 528 62 513 62 487V228C62 202 70 186 95 177L302 100C378 71 393 61 462 61ZM272 337C259 343 255 345 255 356V361C255 372 259 374 272 380L404 427V290Z" glyph-name="A.s" horiz-adv-x="809" /><glyph d="M756 60C781 60 793 71 793 96V243C793 268 781 279 756 279H607V436H756C781 436 793 447 793 472V624C793 649 781 660 756 660H261C140 660 57 608 57 359C57 111 140 60 261 60ZM295 279C268 279 248 287 248 358C248 428 268 436 295 436H424V279Z" glyph-name="A.salt" horiz-adv-x="860" unicode="&#57600;" /><glyph d="M716 59C741 59 752 70 752 95V242C752 267 741 278 716 278H587V437H716C741 437 752 448 752 473V625C752 650 741 661 716 661H261C140 661 57 608 57 359C57 111 140 59 261 59ZM295 278C268 278 248 287 248 358C248 428 268 437 295 437H404V278Z" glyph-name="A.salt_s" horiz-adv-x="819" /><glyph d="M792 65V196C792 221 781 232 756 232H616V330H756C781 330 792 341 792 366V635C792 660 781 671 756 671H639C614 671 603 660 603 635V532H517V634C517 659 506 670 481 670H374C348 670 338 659 338 634V532H261V635C261 660 250 671 225 671H108C83 671 72 660 72 635V215C72 181 82 164 113 153L352 58C402 39 443 29 502 29H756C781 29 792 40 792 65ZM278 302C265 307 261 310 261 321V330H434V243Z" glyph-name="AE" horiz-adv-x="872" unicode="&#198;" /><glyph d="M756 39C781 39 792 50 792 75V206C792 231 781 242 756 242H607V340H756C781 340 792 351 792 376V645C792 670 781 681 756 681H639C614 681 603 670 603 645V542H517V644C517 669 506 680 481 680H374C348 680 338 669 338 644V542H261V645C261 670 250 681 225 681H108C83 681 72 670 72 645V289C72 94 155 39 276 39ZM303 242C276 242 256 251 256 291V340H424V242Z" glyph-name="AE.salt" horiz-adv-x="872" unicode="&#57653;" /><glyph d="M912 61C937 61 948 71 948 97V244C948 269 937 280 912 280H792V437H912C937 437 948 451 948 476V627C948 652 937 663 912 663H668C599 663 584 653 508 624L301 537C276 528 268 513 268 487V228C268 202 276 186 301 177L508 100C584 71 599 61 668 61ZM478 337C465 343 461 345 461 356V361C461 372 465 374 478 380L610 427V290ZM192 533C189 558 181 569 156 569H60C37 569 24 558 27 535L70 186C73 161 81 150 106 150H202C225 150 238 161 235 184Z" glyph-name="Aacute" horiz-adv-x="1015" unicode="&#193;" /><glyph d="M912 59C937 59 948 70 948 95V242C948 267 937 278 912 278H783V437H912C937 437 948 448 948 473V625C948 650 937 661 912 661H457C336 661 253 608 253 359C253 111 336 59 457 59ZM491 278C464 278 444 287 444 358C444 428 464 437 491 437H600V278ZM192 533C189 558 181 569 156 569H60C37 569 24 558 27 535L70 186C73 161 81 150 106 150H202C225 150 238 161 235 184Z" glyph-name="Aacute.salt" horiz-adv-x="1015" unicode="&#57602;" /><glyph d="M107 577H63C38 577 27 566 27 541V450C27 427 34 420 58 420H79C98 420 112 411 112 361C112 312 98 304 79 304H58C34 304 27 296 27 275V179C27 154 38 143 63 143H107C192 143 250 186 250 360C250 534 192 577 107 577ZM928 61C953 61 964 71 964 97V244C964 269 953 280 928 280H808V437H928C953 437 964 451 964 476V627C964 652 953 663 928 663H684C615 663 600 653 524 624L317 537C292 528 284 513 284 487V228C284 202 292 186 317 177L524 100C600 71 615 61 684 61ZM494 337C481 343 477 345 477 356V361C477 372 481 374 494 380L626 427V290Z" glyph-name="Abreve" horiz-adv-x="1031" unicode="&#258;" /><glyph d="M107 577H63C38 577 27 566 27 541V450C27 427 34 420 58 420H79C98 420 112 411 112 361C112 312 98 304 79 304H58C34 304 27 296 27 275V179C27 154 38 143 63 143H107C192 143 250 186 250 360C250 534 192 577 107 577ZM928 59C953 59 964 70 964 95V242C964 267 953 278 928 278H799V437H928C953 437 964 448 964 473V625C964 650 953 661 928 661H473C352 661 269 608 269 359C269 111 352 59 473 59ZM507 278C480 278 460 287 460 358C460 428 480 437 507 437H616V278Z" glyph-name="Abreve.salt" horiz-adv-x="1031" unicode="&#57608;" /><glyph d="M918 61C943 61 954 71 954 97V244C954 269 943 280 918 280H798V437H918C943 437 954 451 954 476V627C954 652 943 663 918 663H674C605 663 590 653 514 624L307 537C282 528 274 513 274 487V228C274 202 282 186 307 177L514 100C590 71 605 61 674 61ZM484 337C471 343 467 345 467 356V361C467 372 471 374 484 380L616 427V290ZM197 328C191 351 191 367 197 390L237 527C248 562 242 569 206 569H125C89 569 85 561 72 527L22 390C18 380 17 370 17 358C18 346 21 331 26 319L72 191C85 159 89 150 125 150H206C242 150 248 157 237 191Z" glyph-name="Acircumflex" horiz-adv-x="1021" unicode="&#194;" /><glyph d="M197 328C191 351 191 367 197 390L237 527C248 562 242 569 206 569H125C89 569 85 561 72 527L22 390C18 380 17 370 17 358C18 346 21 331 26 319L72 191C85 159 89 150 125 150H206C242 150 248 157 237 191ZM918 59C943 59 954 70 954 95V242C954 267 943 278 918 278H789V437H918C943 437 954 448 954 473V625C954 650 943 661 918 661H463C342 661 259 608 259 359C259 111 342 59 463 59ZM497 278C470 278 450 287 450 358C450 428 470 437 497 437H606V278Z" glyph-name="Acircumflex.salt" horiz-adv-x="1021" unicode="&#57603;" /><glyph d="M229 556C229 579 219 589 196 589H75C52 589 42 579 42 556V418C42 395 52 385 75 385H196C219 385 229 395 229 418ZM229 298C229 321 219 331 196 331H75C52 331 42 321 42 298V160C42 137 52 126 75 126H196C219 126 229 137 229 160ZM913 61C938 61 949 71 949 97V244C949 269 938 280 913 280H793V437H913C938 437 949 451 949 476V627C949 652 938 663 913 663H669C600 663 585 653 509 624L302 537C277 528 269 513 269 487V228C269 202 277 186 302 177L509 100C585 71 600 61 669 61ZM479 337C466 343 462 345 462 356V361C462 372 466 374 479 380L611 427V290Z" glyph-name="Adieresis" horiz-adv-x="1016" unicode="&#196;" /><glyph d="M229 556C229 579 219 589 196 589H75C52 589 42 579 42 556V418C42 395 52 385 75 385H196C219 385 229 395 229 418ZM229 298C229 321 219 331 196 331H75C52 331 42 321 42 298V160C42 137 52 126 75 126H196C219 126 229 137 229 160ZM913 59C938 59 949 70 949 95V242C949 267 938 278 913 278H784V437H913C938 437 949 448 949 473V625C949 650 938 661 913 661H458C337 661 254 608 254 359C254 111 337 59 458 59ZM492 278C465 278 445 287 445 358C445 428 465 437 492 437H601V278Z" glyph-name="Adieresis.salt" horiz-adv-x="1016" unicode="&#57605;" /><glyph d="M235 535C238 558 225 569 202 569H106C81 569 73 558 70 533L27 184C24 161 37 150 60 150H156C181 150 189 161 192 186ZM912 61C937 61 948 71 948 97V244C948 269 937 280 912 280H792V437H912C937 437 948 451 948 476V627C948 652 937 663 912 663H668C599 663 584 653 508 624L301 537C276 528 268 513 268 487V228C268 202 276 186 301 177L508 100C584 71 599 61 668 61ZM478 337C465 343 461 345 461 356V361C461 372 465 374 478 380L610 427V290Z" glyph-name="Agrave" horiz-adv-x="1015" unicode="&#192;" /><glyph d="M235 535C238 558 225 569 202 569H106C81 569 73 558 70 533L27 184C24 161 37 150 60 150H156C181 150 189 161 192 186ZM912 59C937 59 948 70 948 95V242C948 267 937 278 912 278H783V437H912C937 437 948 448 948 473V625C948 650 937 661 912 661H457C336 661 253 608 253 359C253 111 336 59 457 59ZM491 278C464 278 444 287 444 358C444 428 464 437 491 437H600V278Z" glyph-name="Agrave.salt" horiz-adv-x="1015" unicode="&#57601;" /><glyph d="M207 533C207 558 196 569 171 569H78C53 569 42 558 42 533V186C42 161 53 150 78 150H171C196 150 207 161 207 186ZM891 61C916 61 927 71 927 97V244C927 269 916 280 891 280H771V437H891C916 437 927 451 927 476V627C927 652 916 663 891 663H647C578 663 563 653 487 624L280 537C255 528 247 513 247 487V228C247 202 255 186 280 177L487 100C563 71 578 61 647 61ZM457 337C444 343 440 345 440 356V361C440 372 444 374 457 380L589 427V290Z" glyph-name="Amacron" horiz-adv-x="994" unicode="&#256;" /><glyph d="M207 533C207 558 196 569 171 569H78C53 569 42 558 42 533V186C42 161 53 150 78 150H171C196 150 207 161 207 186ZM891 59C916 59 927 70 927 95V242C927 267 916 278 891 278H762V437H891C916 437 927 448 927 473V625C927 650 916 661 891 661H436C315 661 232 608 232 359C232 111 315 59 436 59ZM470 278C443 278 423 287 423 358C423 428 443 437 470 437H579V278Z" glyph-name="Amacron.salt" horiz-adv-x="994" unicode="&#57607;" /><glyph d="M706 61C731 61 742 71 742 97V244C742 269 731 280 706 280H586V437H675L793 416C886 402 928 431 928 517V628C928 654 920 661 894 661H822C796 661 788 653 788 625V584L742 591V627C742 652 731 663 706 663H462C393 663 378 653 302 624L95 537C70 528 62 513 62 487V228C62 202 70 186 95 177L302 100C378 71 393 61 462 61ZM272 337C259 343 255 345 255 356V361C255 372 259 374 272 380L404 427V290Z" glyph-name="Aogonek" horiz-adv-x="945" unicode="&#260;" /><glyph d="M295 278C268 278 248 287 248 358C248 428 268 437 295 437H404V278ZM716 59C741 59 752 70 752 95V242C752 267 741 278 716 278H587V437H696L803 418C896 404 938 433 938 519V630C938 656 930 663 904 663H832C806 663 798 655 798 627V586L752 593V625C752 650 741 661 716 661H261C140 661 57 608 57 359C57 111 140 59 261 59Z" glyph-name="Aogonek.salt" horiz-adv-x="955" unicode="&#57609;" /><glyph d="M908 59C933 59 944 70 944 95V241C944 266 933 277 908 277H788V435H908C933 435 944 446 944 471V625C944 651 933 661 908 661H674C615 661 574 651 524 632L351 572C330 564 319 554 314 537C289 567 254 577 213 577H155C70 577 12 534 12 360C12 186 70 143 155 143H213C254 143 289 153 314 183C319 167 331 157 351 148L524 88C574 69 615 59 674 59ZM470 329C457 334 453 337 453 348V365C453 376 457 379 470 384L606 426V286ZM220 420C249 420 263 411 263 361C263 312 249 304 220 304H185C159 304 145 312 145 361C145 411 159 420 185 420Z" glyph-name="Aring" horiz-adv-x="1011" unicode="&#197;" /><glyph d="M909 60C934 60 945 71 945 96V243C945 268 934 279 909 279H779V436H909C934 436 945 447 945 472V624C945 649 934 660 909 660H453C376 660 314 640 280 561C260 570 238 574 213 574H155C70 574 12 531 12 357C12 183 70 140 155 140H213C239 140 262 144 282 154C317 79 377 60 453 60ZM487 279C460 279 440 287 440 358C440 428 460 436 487 436H596V279ZM220 417C249 417 263 408 263 358C263 309 249 301 220 301H185C159 301 145 309 145 358C145 408 159 417 185 417Z" glyph-name="Aring.salt" horiz-adv-x="1012" unicode="&#57606;" /><glyph d="M902 61C927 61 938 71 938 97V244C938 269 927 280 902 280H782V437H902C927 437 938 451 938 476V627C938 652 927 663 902 663H658C589 663 574 653 498 624L291 537C266 528 258 513 258 487V228C258 202 266 186 291 177L498 100C574 71 589 61 658 61ZM468 337C455 343 451 345 451 356V361C451 372 455 374 468 380L600 427V290ZM214 359 216 375C228 455 230 469 211 532C202 555 195 568 170 568H69C44 568 36 556 43 532C61 473 64 469 51 381L48 359L46 342C34 262 32 249 51 186C60 163 67 150 92 150H193C218 150 226 162 219 186C203 239 199 255 210 331Z" glyph-name="Atilde" horiz-adv-x="1005" unicode="&#195;" /><glyph d="M214 359 216 375C228 455 230 469 211 532C202 555 195 568 170 568H69C44 568 36 556 43 532C61 473 64 469 51 381L48 359L46 342C34 262 32 249 51 186C60 163 67 150 92 150H193C218 150 226 162 219 186C203 239 199 255 210 331ZM902 59C927 59 938 70 938 95V242C938 267 927 278 902 278H773V437H902C927 437 938 448 938 473V625C938 650 927 661 902 661H447C326 661 243 608 243 359C243 111 326 59 447 59ZM481 278C454 278 434 287 434 358C434 428 454 437 481 437H590V278Z" glyph-name="Atilde.salt" horiz-adv-x="1005" unicode="&#57604;" /><glyph d="M789 472C789 600 726 666 625 666H533C439 666 385 612 378 540C359 584 321 599 270 599H222C134 599 69 543 69 407V97C69 72 80 61 105 61H753C778 61 789 72 789 97ZM501 286V407C501 439 519 445 540 445H579C600 445 619 439 619 407V286ZM239 286V362C239 394 258 400 279 400H307C328 400 347 394 347 362V286Z" glyph-name="B" horiz-adv-x="861" unicode="B" /><glyph d="M792 615C792 640 781 651 756 651H637C612 651 601 640 601 615V345C601 293 581 284 553 284H315C289 284 265 293 265 345V615C265 640 254 651 229 651H108C83 651 72 640 72 615V302C72 113 155 56 277 56H588C709 56 792 113 792 302Z" glyph-name="C" horiz-adv-x="864" unicode="C" /><glyph d="M752 615C752 640 741 651 716 651H597C572 651 561 640 561 615V345C561 293 541 284 513 284H315C289 284 265 293 265 345V615C265 640 254 651 229 651H108C83 651 72 640 72 615V302C72 113 155 56 277 56H548C669 56 752 113 752 302Z" glyph-name="C.s" horiz-adv-x="824" /><glyph d="M192 543C189 568 181 579 156 579H60C37 579 24 568 27 545L70 196C73 171 81 160 106 160H202C225 160 238 171 235 194ZM948 615C948 640 937 651 912 651H793C768 651 757 640 757 615V345C757 293 737 284 709 284H511C485 284 461 293 461 345V615C461 640 450 651 425 651H304C279 651 268 640 268 615V302C268 113 351 56 473 56H744C865 56 948 113 948 302Z" glyph-name="Cacute" horiz-adv-x="1020" unicode="&#262;" /><glyph d="M72 401C78 378 78 362 72 339L32 202C21 167 27 160 63 160H144C180 160 184 168 197 202L247 339C251 349 252 359 252 371C251 383 248 398 243 410L197 538C184 570 180 579 144 579H63C27 579 21 572 32 538ZM964 615C964 640 953 651 928 651H809C784 651 773 640 773 615V345C773 293 753 284 725 284H527C501 284 477 293 477 345V615C477 640 466 651 441 651H320C295 651 284 640 284 615V302C284 113 367 56 489 56H760C881 56 964 113 964 302Z" glyph-name="Ccaron" horiz-adv-x="1036" unicode="&#268;" /><glyph d="M838 238C862 229 878 234 878 268V394C878 420 869 433 848 440L752 474V615C752 640 741 651 716 651H597C572 651 561 640 561 615V345C561 293 541 284 513 284H315C289 284 265 293 265 345V615C265 640 254 651 229 651H108C83 651 72 640 72 615V302C72 113 155 56 277 56H548C662 56 742 106 751 270Z" glyph-name="Ccedilla" horiz-adv-x="905" unicode="&#199;" /><glyph d="M197 338C191 361 191 377 197 400L237 537C248 572 242 579 206 579H125C89 579 85 571 72 537L22 400C18 390 17 380 17 368C18 356 21 341 26 329L72 201C85 169 89 160 125 160H206C242 160 248 167 237 201ZM954 615C954 640 943 651 918 651H799C774 651 763 640 763 615V345C763 293 743 284 715 284H517C491 284 467 293 467 345V615C467 640 456 651 431 651H310C285 651 274 640 274 615V302C274 113 357 56 479 56H750C871 56 954 113 954 302Z" glyph-name="Ccircumflex" horiz-adv-x="1026" unicode="&#264;" /><glyph d="M216 450C216 475 205 486 180 486H53C28 486 17 475 17 450V292C17 267 28 256 53 256H180C205 256 216 267 216 292ZM936 615C936 640 925 651 900 651H781C756 651 745 640 745 615V345C745 293 725 284 697 284H499C473 284 449 293 449 345V615C449 640 438 651 413 651H292C267 651 256 640 256 615V302C256 113 339 56 461 56H732C853 56 936 113 936 302Z" glyph-name="Cdotaccent" horiz-adv-x="1008" unicode="&#266;" /><glyph d="M792 419C792 608 709 665 588 665H276C155 665 72 608 72 419V96C72 71 83 60 108 60H756C781 60 792 71 792 96ZM263 287V392C263 432 285 439 311 439H554C581 439 603 432 603 392V287Z" glyph-name="D" horiz-adv-x="864" unicode="D" /><glyph d="M752 419C752 608 669 665 548 665H276C155 665 72 608 72 419V96C72 71 83 60 108 60H716C741 60 752 71 752 96ZM263 287V392C263 432 285 439 311 439H514C541 439 563 432 563 392V287Z" glyph-name="D.s" horiz-adv-x="824" /><glyph d="M964 419C964 608 881 665 760 665H488C367 665 284 608 284 419V96C284 71 295 60 320 60H928C953 60 964 71 964 96ZM475 287V392C475 432 497 439 523 439H726C753 439 775 432 775 392V287ZM72 391C78 368 78 352 72 329L32 192C21 157 27 150 63 150H144C180 150 184 158 197 192L247 329C251 339 252 349 252 361C251 373 248 388 243 400L197 528C184 560 180 569 144 569H63C27 569 21 562 32 528Z" glyph-name="Dcaron" horiz-adv-x="1036" unicode="&#270;" /><glyph d="M535 37V60H764C789 60 800 71 800 96V414C800 603 717 660 596 660H284C163 660 80 603 80 414V96C80 71 91 60 116 60H356V37C356 12 367 1 392 1H499C525 1 535 12 535 37ZM271 284V387C271 427 293 434 319 434H562C589 434 611 427 611 387V284H535V326C535 351 525 362 499 362H392C366 362 356 351 356 326V284Z" glyph-name="Dcroat" horiz-adv-x="880" unicode="&#272;" /><glyph d="M800 635C800 661 789 671 764 671H630C571 671 512 655 460 642L121 555C91 543 80 527 80 494V227C80 193 91 178 121 165L460 78C512 65 571 49 630 49H764C789 49 800 60 800 85ZM590 267C576 267 555 271 539 275L296 329C283 334 279 337 279 348V365C279 376 283 379 296 384L539 437C555 441 576 445 590 445H611V267Z" glyph-name="Delta" horiz-adv-x="880" unicode="&#8710;" /><glyph d="M800 615C800 640 789 651 764 651H647C622 651 611 640 611 615V285H525V534C525 559 514 570 489 570H382C356 570 346 559 346 534V285H269V615C269 640 258 651 233 651H116C91 651 80 640 80 615V97C80 72 91 61 116 61H764C789 61 800 72 800 97Z" glyph-name="E" horiz-adv-x="880" unicode="E" /><glyph d="M760 614C760 639 749 650 724 650H611C586 650 575 639 575 614V284H499V533C499 558 488 569 463 569H368C342 569 332 558 332 533V284H265V614C265 639 254 650 229 650H116C91 650 80 639 80 614V96C80 71 91 60 116 60H724C749 60 760 71 760 96Z" glyph-name="E.s" horiz-adv-x="840" /><glyph d="M588 56C709 56 792 113 792 302V615C792 640 781 651 756 651H639C614 651 603 640 603 615V342C603 290 583 281 555 281H517V534C517 559 506 570 481 570H374C348 570 338 559 338 534V281H311C285 281 261 290 261 342V615C261 640 250 651 225 651H108C83 651 72 640 72 615V302C72 113 155 56 277 56Z" glyph-name="E.salt" horiz-adv-x="864" unicode="&#57610;" /><glyph d="M548 56C669 56 752 113 752 302V614C752 639 741 650 716 650H603C578 650 567 639 567 614V341C567 289 547 280 519 280H491V533C491 558 480 569 455 569H360C334 569 324 558 324 533V280H307C281 280 257 289 257 341V614C257 639 246 650 221 650H108C83 650 72 639 72 614V302C72 113 155 56 277 56Z" glyph-name="E.salt_s" horiz-adv-x="824" /><glyph d="M948 614C948 639 937 650 912 650H799C774 650 763 639 763 614V284H687V533C687 558 676 569 651 569H556C530 569 520 558 520 533V284H453V614C453 639 442 650 417 650H304C279 650 268 639 268 614V96C268 71 279 60 304 60H912C937 60 948 71 948 96ZM192 533C189 558 181 569 156 569H60C37 569 24 558 27 535L70 186C73 161 81 150 106 150H202C225 150 238 161 235 184Z" glyph-name="Eacute" horiz-adv-x="1028" unicode="&#201;" /><glyph d="M192 533C189 558 181 569 156 569H60C37 569 24 558 27 535L70 186C73 161 81 150 106 150H202C225 150 238 161 235 184ZM744 56C865 56 948 113 948 302V614C948 639 937 650 912 650H799C774 650 763 639 763 614V341C763 289 743 280 715 280H687V533C687 558 676 569 651 569H556C530 569 520 558 520 533V280H503C477 280 453 289 453 341V614C453 639 442 650 417 650H304C279 650 268 639 268 614V302C268 113 351 56 473 56Z" glyph-name="Eacute.salt" horiz-adv-x="1020" unicode="&#57612;" /><glyph d="M107 577H63C38 577 27 566 27 541V450C27 427 34 420 58 420H79C98 420 112 411 112 361C112 312 98 304 79 304H58C34 304 27 296 27 275V179C27 154 38 143 63 143H107C192 143 250 186 250 360C250 534 192 577 107 577ZM964 614C964 639 953 650 928 650H815C790 650 779 639 779 614V284H703V533C703 558 692 569 667 569H572C546 569 536 558 536 533V284H469V614C469 639 458 650 433 650H320C295 650 284 639 284 614V96C284 71 295 60 320 60H928C953 60 964 71 964 96Z" glyph-name="Ebreve" horiz-adv-x="1044" unicode="&#276;" /><glyph d="M107 577H63C38 577 27 566 27 541V450C27 427 34 420 58 420H79C98 420 112 411 112 361C112 312 98 304 79 304H58C34 304 27 296 27 275V179C27 154 38 143 63 143H107C192 143 250 186 250 360C250 534 192 577 107 577ZM760 56C881 56 964 113 964 302V614C964 639 953 650 928 650H815C790 650 779 639 779 614V341C779 289 759 280 731 280H703V533C703 558 692 569 667 569H572C546 569 536 558 536 533V280H519C493 280 469 289 469 341V614C469 639 458 650 433 650H320C295 650 284 639 284 614V302C284 113 367 56 489 56Z" glyph-name="Ebreve.salt" horiz-adv-x="1036" unicode="&#57616;" /><glyph d="M72 391C78 368 78 352 72 329L32 192C21 157 27 150 63 150H144C180 150 184 158 197 192L247 329C251 339 252 349 252 361C251 373 248 388 243 400L197 528C184 560 180 569 144 569H63C27 569 21 562 32 528ZM964 614C964 639 953 650 928 650H815C790 650 779 639 779 614V284H703V533C703 558 692 569 667 569H572C546 569 536 558 536 533V284H469V614C469 639 458 650 433 650H320C295 650 284 639 284 614V96C284 71 295 60 320 60H928C953 60 964 71 964 96Z" glyph-name="Ecaron" horiz-adv-x="1044" unicode="&#282;" /><glyph d="M72 391C78 368 78 352 72 329L32 192C21 157 27 150 63 150H144C180 150 184 158 197 192L247 329C251 339 252 349 252 361C251 373 248 388 243 400L197 528C184 560 180 569 144 569H63C27 569 21 562 32 528ZM760 56C881 56 964 113 964 302V614C964 639 953 650 928 650H815C790 650 779 639 779 614V341C779 289 759 280 731 280H703V533C703 558 692 569 667 569H572C546 569 536 558 536 533V280H519C493 280 469 289 469 341V614C469 639 458 650 433 650H320C295 650 284 639 284 614V302C284 113 367 56 489 56Z" glyph-name="Ecaron.salt" horiz-adv-x="1036" unicode="&#57619;" /><glyph d="M197 328C191 351 191 367 197 390L237 527C248 562 242 569 206 569H125C89 569 85 561 72 527L22 390C18 380 17 370 17 358C18 346 21 331 26 319L72 191C85 159 89 150 125 150H206C242 150 248 157 237 191ZM994 615C994 640 983 651 958 651H841C816 651 805 640 805 615V285H719V534C719 559 708 570 683 570H576C550 570 540 559 540 534V285H463V615C463 640 452 651 427 651H310C285 651 274 640 274 615V97C274 72 285 61 310 61H958C983 61 994 72 994 97Z" glyph-name="Ecircumflex" horiz-adv-x="1074" unicode="&#202;" /><glyph d="M197 328C191 351 191 367 197 390L237 527C248 562 242 569 206 569H125C89 569 85 561 72 527L22 390C18 380 17 370 17 358C18 346 21 331 26 319L72 191C85 159 89 150 125 150H206C242 150 248 157 237 191ZM750 56C871 56 954 113 954 302V614C954 639 943 650 918 650H805C780 650 769 639 769 614V341C769 289 749 280 721 280H693V533C693 558 682 569 657 569H562C536 569 526 558 526 533V280H509C483 280 459 289 459 341V614C459 639 448 650 423 650H310C285 650 274 639 274 614V302C274 113 357 56 479 56Z" glyph-name="Ecircumflex.salt" horiz-adv-x="1026" unicode="&#57613;" /><glyph d="M229 556C229 579 219 589 196 589H75C52 589 42 579 42 556V418C42 395 52 385 75 385H196C219 385 229 395 229 418ZM229 298C229 321 219 331 196 331H75C52 331 42 321 42 298V160C42 137 52 126 75 126H196C219 126 229 137 229 160ZM949 614C949 639 938 650 913 650H800C775 650 764 639 764 614V284H688V533C688 558 677 569 652 569H557C531 569 521 558 521 533V284H454V614C454 639 443 650 418 650H305C280 650 269 639 269 614V96C269 71 280 60 305 60H913C938 60 949 71 949 96Z" glyph-name="Edieresis" horiz-adv-x="1029" unicode="&#203;" /><glyph d="M229 556C229 579 219 589 196 589H75C52 589 42 579 42 556V418C42 395 52 385 75 385H196C219 385 229 395 229 418ZM229 298C229 321 219 331 196 331H75C52 331 42 321 42 298V160C42 137 52 126 75 126H196C219 126 229 137 229 160ZM745 56C866 56 949 113 949 302V614C949 639 938 650 913 650H800C775 650 764 639 764 614V341C764 289 744 280 716 280H688V533C688 558 677 569 652 569H557C531 569 521 558 521 533V280H504C478 280 454 289 454 341V614C454 639 443 650 418 650H305C280 650 269 639 269 614V302C269 113 352 56 474 56Z" glyph-name="Edieresis.salt" horiz-adv-x="1021" unicode="&#57614;" /><glyph d="M216 440C216 465 205 476 180 476H53C28 476 17 465 17 440V282C17 257 28 246 53 246H180C205 246 216 257 216 282ZM936 614C936 639 925 650 900 650H787C762 650 751 639 751 614V284H675V533C675 558 664 569 639 569H544C518 569 508 558 508 533V284H441V614C441 639 430 650 405 650H292C267 650 256 639 256 614V96C256 71 267 60 292 60H900C925 60 936 71 936 96Z" glyph-name="Edotaccent" horiz-adv-x="1016" unicode="&#278;" /><glyph d="M216 440C216 465 205 476 180 476H53C28 476 17 465 17 440V282C17 257 28 246 53 246H180C205 246 216 257 216 282ZM732 56C853 56 936 113 936 302V614C936 639 925 650 900 650H787C762 650 751 639 751 614V341C751 289 731 280 703 280H675V533C675 558 664 569 639 569H544C518 569 508 558 508 533V280H491C465 280 441 289 441 341V614C441 639 430 650 405 650H292C267 650 256 639 256 614V302C256 113 339 56 461 56Z" glyph-name="Edotaccent.salt" horiz-adv-x="1008" unicode="&#57617;" /><glyph d="M235 535C238 558 225 569 202 569H106C81 569 73 558 70 533L27 184C24 161 37 150 60 150H156C181 150 189 161 192 186ZM948 614C948 639 937 650 912 650H799C774 650 763 639 763 614V284H687V533C687 558 676 569 651 569H556C530 569 520 558 520 533V284H453V614C453 639 442 650 417 650H304C279 650 268 639 268 614V96C268 71 279 60 304 60H912C937 60 948 71 948 96Z" glyph-name="Egrave" horiz-adv-x="1028" unicode="&#200;" /><glyph d="M235 535C238 558 225 569 202 569H106C81 569 73 558 70 533L27 184C24 161 37 150 60 150H156C181 150 189 161 192 186ZM744 56C865 56 948 113 948 302V614C948 639 937 650 912 650H799C774 650 763 639 763 614V341C763 289 743 280 715 280H687V533C687 558 676 569 651 569H556C530 569 520 558 520 533V280H503C477 280 453 289 453 341V614C453 639 442 650 417 650H304C279 650 268 639 268 614V302C268 113 351 56 473 56Z" glyph-name="Egrave.salt" horiz-adv-x="1020" unicode="&#57611;" /><glyph d="M207 533C207 558 196 569 171 569H78C53 569 42 558 42 533V186C42 161 53 150 78 150H171C196 150 207 161 207 186ZM927 614C927 639 916 650 891 650H778C753 650 742 639 742 614V284H666V533C666 558 655 569 630 569H535C509 569 499 558 499 533V284H432V614C432 639 421 650 396 650H283C258 650 247 639 247 614V96C247 71 258 60 283 60H891C916 60 927 71 927 96Z" glyph-name="Emacron" horiz-adv-x="1007" unicode="&#274;" /><glyph d="M207 533C207 558 196 569 171 569H78C53 569 42 558 42 533V186C42 161 53 150 78 150H171C196 150 207 161 207 186ZM723 56C844 56 927 113 927 302V614C927 639 916 650 891 650H778C753 650 742 639 742 614V341C742 289 722 280 694 280H666V533C666 558 655 569 630 569H535C509 569 499 558 499 533V280H482C456 280 432 289 432 341V614C432 639 421 650 396 650H283C258 650 247 639 247 614V302C247 113 330 56 452 56Z" glyph-name="Emacron.salt" horiz-adv-x="999" unicode="&#57615;" /><glyph d="M271 60H747C772 60 783 71 783 96V248C783 274 772 284 747 284H310C283 284 263 296 263 358C263 419 283 431 310 431H633C661 431 681 425 681 390V369C681 344 692 333 717 333H837C862 333 873 344 873 369V414C873 603 790 660 668 660H271C149 660 67 599 67 360C67 121 149 60 271 60Z" glyph-name="Eng" horiz-adv-x="930" unicode="&#330;" /><glyph d="M724 60C749 60 760 71 760 96V414L811 405C904 391 946 420 946 506V617C946 643 938 650 912 650H840C814 650 806 642 806 614V573L760 580V614C760 639 749 650 724 650H611C586 650 575 639 575 614V284H499V533C499 558 488 569 463 569H368C342 569 332 558 332 533V284H265V614C265 639 254 650 229 650H116C91 650 80 639 80 614V96C80 71 91 60 116 60Z" glyph-name="Eogonek" horiz-adv-x="963" unicode="&#280;" /><glyph d="M548 56C669 56 752 113 752 302V414L803 405C896 391 938 420 938 506V617C938 643 930 650 904 650H832C806 650 798 642 798 614V573L752 580V614C752 639 741 650 716 650H603C578 650 567 639 567 614V341C567 289 547 280 519 280H491V533C491 558 480 569 455 569H360C334 569 324 558 324 533V280H307C281 280 257 289 257 341V614C257 639 246 650 221 650H108C83 650 72 639 72 614V302C72 113 155 56 277 56Z" glyph-name="Eogonek.salt" horiz-adv-x="955" unicode="&#57618;" /><glyph d="M535 37V60H764C789 60 800 71 800 96V414C800 603 717 660 596 660H284C163 660 80 603 80 414V96C80 71 91 60 116 60H356V37C356 12 367 1 392 1H499C525 1 535 12 535 37ZM271 284V387C271 427 293 434 319 434H562C589 434 611 427 611 387V284H535V326C535 351 525 362 499 362H392C366 362 356 351 356 326V284Z" glyph-name="Eth" horiz-adv-x="880" unicode="&#208;" /><glyph d="M421 100V114H462V100C462 83 467 76 486 76H558C577 76 581 83 581 100V114H596C717 114 800 171 800 360V604C800 629 789 640 764 640H655C630 640 619 629 619 604V393C619 347 604 335 581 332V512C581 529 577 536 558 536H486C467 536 462 529 462 512V332H421V512C421 529 417 536 398 536H326C307 536 302 529 302 512V333C281 335 263 348 263 393V604C263 629 252 640 227 640H116C91 640 80 629 80 604V360C80 171 163 114 285 114H302V100C302 83 307 76 326 76H398C417 76 421 83 421 100Z" glyph-name="Euro" horiz-adv-x="880" unicode="&#8364;" /><glyph d="M801 252C801 277 789 288 764 288H567V534C567 559 556 570 531 570H411C386 570 375 559 375 534V288H271V615C271 640 260 651 235 651H116C91 651 80 640 80 615V97C80 72 91 61 116 61H764C789 61 801 72 801 97Z" glyph-name="F" horiz-adv-x="856" unicode="F" /><glyph d="M787 624C787 649 776 660 751 660H442C417 660 406 649 406 624V469C406 444 417 433 442 433H598V328C598 288 576 282 549 282H310C284 282 260 291 260 343V559C260 584 249 595 224 595H103C78 595 67 584 67 559V301C67 112 150 55 271 55H583C704 55 787 112 787 301Z" glyph-name="G" horiz-adv-x="859" unicode="G" /><glyph d="M747 624C747 649 736 660 711 660H422C397 660 386 649 386 624V469C386 444 397 433 422 433H558V328C558 288 536 282 509 282H310C284 282 260 291 260 343V559C260 584 249 595 224 595H103C78 595 67 584 67 559V301C67 112 150 55 271 55H543C664 55 747 112 747 301Z" glyph-name="G.s" horiz-adv-x="819" /><glyph d="M107 577H63C38 577 27 566 27 541V450C27 427 34 420 58 420H79C98 420 112 411 112 361C112 312 98 304 79 304H58C34 304 27 296 27 275V179C27 154 38 143 63 143H107C192 143 250 186 250 360C250 534 192 577 107 577ZM964 624C964 649 953 660 928 660H639C614 660 603 649 603 624V469C603 444 614 433 639 433H775V328C775 288 753 282 726 282H527C501 282 477 291 477 343V559C477 584 466 595 441 595H320C295 595 284 584 284 559V301C284 112 367 55 488 55H760C881 55 964 112 964 301Z" glyph-name="Gbreve" horiz-adv-x="1036" unicode="&#286;" /><glyph d="M197 328C191 351 191 367 197 390L237 527C248 562 242 569 206 569H125C89 569 85 561 72 527L22 390C18 380 17 370 17 358C18 346 21 331 26 319L72 191C85 159 89 150 125 150H206C242 150 248 157 237 191ZM954 624C954 649 943 660 918 660H629C604 660 593 649 593 624V469C593 444 604 433 629 433H765V328C765 288 743 282 716 282H517C491 282 467 291 467 343V559C467 584 456 595 431 595H310C285 595 274 584 274 559V301C274 112 357 55 478 55H750C871 55 954 112 954 301Z" glyph-name="Gcircumflex" horiz-adv-x="1026" unicode="&#284;" /><glyph d="M747 624C747 649 736 660 711 660H422C397 660 386 649 386 624V469C386 444 397 433 422 433H558V328C558 288 536 282 509 282H310C284 282 260 291 260 343V559C260 584 249 595 224 595H103C78 595 67 584 67 559V301C67 112 150 55 271 55H543C664 55 747 112 747 301ZM1077 352C1077 428 1035 477 949 477H837C806 477 797 468 797 440V282C797 254 806 245 837 245H916C946 245 955 254 955 282V368H968C983 368 992 360 992 345V286C992 265 1001 256 1022 256H1046C1068 256 1077 265 1077 286Z" glyph-name="Gcommaaccent" horiz-adv-x="1089" unicode="&#290;" /><glyph d="M216 440C216 465 205 476 180 476H53C28 476 17 465 17 440V282C17 257 28 246 53 246H180C205 246 216 257 216 282ZM936 624C936 649 925 660 900 660H611C586 660 575 649 575 624V469C575 444 586 433 611 433H747V328C747 288 725 282 698 282H499C473 282 449 291 449 343V559C449 584 438 595 413 595H292C267 595 256 584 256 559V301C256 112 339 55 460 55H732C853 55 936 112 936 301Z" glyph-name="Gdotaccent" horiz-adv-x="1008" unicode="&#288;" /><glyph d="M764 287H265V356C265 373 278 377 293 375L460 352C497 347 516 357 516 389V425C516 441 523 452 539 452H592C608 452 615 441 615 425V373C615 348 626 337 651 337H764C789 337 800 348 800 373V491C800 601 736 670 634 670H511C423 670 372 630 363 578L271 596C156 618 80 570 80 452V96C80 72 92 60 116 60H764C789 60 800 71 800 96V251C800 276 789 287 764 287Z" glyph-name="Germandbls" horiz-adv-x="880" unicode="&#7838;" /><glyph d="M787 251C787 276 776 287 751 287H529V433H751C776 433 787 444 787 469V624C787 649 776 660 751 660H103C78 660 67 649 67 624V469C67 444 78 433 103 433H320V287H103C78 287 67 276 67 251V96C67 71 78 60 103 60H751C776 60 787 71 787 96Z" glyph-name="H" horiz-adv-x="854" unicode="H" /><glyph d="M747 251C747 276 736 287 711 287H509V433H711C736 433 747 444 747 469V624C747 649 736 660 711 660H103C78 660 67 649 67 624V469C67 444 78 433 103 433H300V287H103C78 287 67 276 67 251V96C67 71 78 60 103 60H711C736 60 747 71 747 96Z" glyph-name="H.s" horiz-adv-x="814" /><glyph d="M375 46V59H764C789 59 800 70 800 95V247C800 272 789 283 764 283H652V436H764C789 436 800 447 800 472V624C800 649 789 660 764 660H375V673C375 698 365 709 339 709H242C216 709 206 698 206 673V660H116C91 660 80 649 80 624V472C80 447 91 436 116 436H206V283H116C91 283 80 272 80 247V95C80 70 91 59 116 59H206V46C206 21 217 10 242 10H339C365 10 375 21 375 46ZM453 436V283H375V436Z" glyph-name="Hbar" horiz-adv-x="880" unicode="&#294;" /><glyph d="M954 251C954 276 943 287 918 287H716V433H918C943 433 954 444 954 469V624C954 649 943 660 918 660H310C285 660 274 649 274 624V469C274 444 285 433 310 433H507V287H310C285 287 274 276 274 251V96C274 71 285 60 310 60H918C943 60 954 71 954 96ZM197 328C191 351 191 367 197 390L237 527C248 562 242 569 206 569H125C89 569 85 561 72 527L22 390C18 380 17 370 17 358C18 346 21 331 26 319L72 191C85 159 89 150 125 150H206C242 150 248 157 237 191Z" glyph-name="Hcircumflex" horiz-adv-x="1021" unicode="&#292;" /><glyph d="M800 105V615C800 640 789 651 764 651H645C620 651 609 640 609 615V481H273V615C273 640 262 651 237 651H116C91 651 80 640 80 615V105C80 80 91 69 116 69H237C262 69 273 80 273 105V239H609V105C609 80 620 69 645 69H764C789 69 800 80 800 105Z" glyph-name="I" horiz-adv-x="880" unicode="I" /><glyph d="M760 105V615C760 640 749 651 724 651H605C580 651 569 640 569 615V481H273V615C273 640 262 651 237 651H116C91 651 80 640 80 615V105C80 80 91 69 116 69H237C262 69 273 80 273 105V239H569V105C569 80 580 69 605 69H724C749 69 760 80 760 105Z" glyph-name="I.s" horiz-adv-x="840" /><glyph d="M775 439C775 464 764 475 739 475H91C66 475 55 464 55 439V280C55 255 66 244 91 244H739C764 244 775 255 775 280Z" glyph-name="I.salt" horiz-adv-x="830" unicode="&#57620;" /><glyph d="M735 439C735 464 724 475 699 475H91C66 475 55 464 55 439V280C55 255 66 244 91 244H699C724 244 735 255 735 280Z" glyph-name="I.salt_s" horiz-adv-x="790" /><glyph d="M751 60C776 60 787 71 787 96V447C787 579 709 660 577 660H103C78 660 67 649 67 624V469C67 444 78 433 103 433H527C575 433 594 408 594 360V96C594 71 605 60 630 60ZM457 251C457 276 446 287 421 287H103C78 287 67 276 67 251V96C67 71 78 60 103 60H421C446 60 457 71 457 96Z" glyph-name="IJ" horiz-adv-x="859" unicode="&#306;" /><glyph d="M735 439C735 464 724 475 699 475H91C66 475 55 464 55 439V280C55 255 66 244 91 244H699C724 244 735 255 735 280ZM1306 661H851C826 661 815 650 815 625V468C815 443 826 432 851 432H1266C1293 432 1313 423 1313 356C1313 285 1293 278 1266 278H1144C1118 278 1108 267 1108 242V97C1108 72 1118 61 1144 61H1306C1428 61 1510 117 1510 358C1510 601 1428 661 1306 661Z" glyph-name="IJ.salt" horiz-adv-x="1567" unicode="&#57654;" /><glyph d="M760 105V615C760 640 749 651 724 651H605C580 651 569 640 569 615V481H273V615C273 640 262 651 237 651H116C91 651 80 640 80 615V105C80 80 91 69 116 69H237C262 69 273 80 273 105V239H569V105C569 80 580 69 605 69H724C749 69 760 80 760 105ZM1351 660H896C871 660 860 649 860 624V467C860 442 871 431 896 431H1311C1338 431 1358 422 1358 355C1358 284 1338 277 1311 277H1189C1163 277 1153 266 1153 241V96C1153 71 1163 60 1189 60H1351C1473 60 1555 116 1555 357C1555 600 1473 660 1351 660Z" glyph-name="IJ.stack" horiz-adv-x="1624" unicode="&#57655;" /><glyph d="M751 433C776 433 787 444 787 469V624C787 649 776 660 751 660H103C78 660 67 649 67 624V469C67 444 78 433 103 433ZM103 287C78 287 67 276 67 251V96C67 71 78 60 103 60H751C776 60 787 71 787 96V251C787 276 776 287 751 287Z" glyph-name="I_I.salt" horiz-adv-x="854" /><glyph d="M948 105V615C948 640 937 651 912 651H793C768 651 757 640 757 615V481H461V615C461 640 450 651 425 651H304C279 651 268 640 268 615V105C268 80 279 69 304 69H425C450 69 461 80 461 105V239H757V105C757 80 768 69 793 69H912C937 69 948 80 948 105ZM192 533C189 558 181 569 156 569H60C37 569 24 558 27 535L70 186C73 161 81 150 106 150H202C225 150 238 161 235 184Z" glyph-name="Iacute" horiz-adv-x="1028" unicode="&#205;" /><glyph d="M192 533C189 558 181 569 156 569H60C37 569 24 558 27 535L70 186C73 161 81 150 106 150H202C225 150 238 161 235 184ZM948 439C948 464 937 475 912 475H304C279 475 268 464 268 439V280C268 255 279 244 304 244H912C937 244 948 255 948 280Z" glyph-name="Iacute.salt" horiz-adv-x="1003" unicode="&#57622;" /><glyph d="M107 577H63C38 577 27 566 27 541V450C27 427 34 420 58 420H79C98 420 112 411 112 361C112 312 98 304 79 304H58C34 304 27 296 27 275V179C27 154 38 143 63 143H107C192 143 250 186 250 360C250 534 192 577 107 577ZM964 105V615C964 640 953 651 928 651H809C784 651 773 640 773 615V481H477V615C477 640 466 651 441 651H320C295 651 284 640 284 615V105C284 80 295 69 320 69H441C466 69 477 80 477 105V239H773V105C773 80 784 69 809 69H928C953 69 964 80 964 105Z" glyph-name="Ibreve" horiz-adv-x="1044" unicode="&#300;" /><glyph d="M107 577H63C38 577 27 566 27 541V450C27 427 34 420 58 420H79C98 420 112 411 112 361C112 312 98 304 79 304H58C34 304 27 296 27 275V179C27 154 38 143 63 143H107C192 143 250 186 250 360C250 534 192 577 107 577ZM964 439C964 464 953 475 928 475H320C295 475 284 464 284 439V280C284 255 295 244 320 244H928C953 244 964 255 964 280Z" glyph-name="Ibreve.salt" horiz-adv-x="1019" unicode="&#57627;" /><glyph d="M197 328C191 351 191 367 197 390L237 527C248 562 242 569 206 569H125C89 569 85 561 72 527L22 390C18 380 17 370 17 358C18 346 21 331 26 319L72 191C85 159 89 150 125 150H206C242 150 248 157 237 191ZM954 105V615C954 640 943 651 918 651H799C774 651 763 640 763 615V481H467V615C467 640 456 651 431 651H310C285 651 274 640 274 615V105C274 80 285 69 310 69H431C456 69 467 80 467 105V239H763V105C763 80 774 69 799 69H918C943 69 954 80 954 105Z" glyph-name="Icircumflex" horiz-adv-x="1034" unicode="&#206;" /><glyph d="M197 328C191 351 191 367 197 390L237 527C248 562 242 569 206 569H125C89 569 85 561 72 527L22 390C18 380 17 370 17 358C18 346 21 331 26 319L72 191C85 159 89 150 125 150H206C242 150 248 157 237 191ZM954 439C954 464 943 475 918 475H310C285 475 274 464 274 439V280C274 255 285 244 310 244H918C943 244 954 255 954 280Z" glyph-name="Icircumflex.salt" horiz-adv-x="1009" unicode="&#57623;" /><glyph d="M229 556C229 579 219 589 196 589H75C52 589 42 579 42 556V418C42 395 52 385 75 385H196C219 385 229 395 229 418ZM229 298C229 321 219 331 196 331H75C52 331 42 321 42 298V160C42 137 52 126 75 126H196C219 126 229 137 229 160ZM949 105V615C949 640 938 651 913 651H794C769 651 758 640 758 615V481H462V615C462 640 451 651 426 651H305C280 651 269 640 269 615V105C269 80 280 69 305 69H426C451 69 462 80 462 105V239H758V105C758 80 769 69 794 69H913C938 69 949 80 949 105Z" glyph-name="Idieresis" horiz-adv-x="1029" unicode="&#207;" /><glyph d="M229 556C229 579 219 589 196 589H75C52 589 42 579 42 556V418C42 395 52 385 75 385H196C219 385 229 395 229 418ZM229 298C229 321 219 331 196 331H75C52 331 42 321 42 298V160C42 137 52 126 75 126H196C219 126 229 137 229 160ZM949 439C949 464 938 475 913 475H305C280 475 269 464 269 439V280C269 255 280 244 305 244H913C938 244 949 255 949 280Z" glyph-name="Idieresis.salt" horiz-adv-x="1004" unicode="&#57624;" /><glyph d="M216 440C216 465 205 476 180 476H53C28 476 17 465 17 440V282C17 257 28 246 53 246H180C205 246 216 257 216 282ZM936 105V615C936 640 925 651 900 651H781C756 651 745 640 745 615V481H449V615C449 640 438 651 413 651H292C267 651 256 640 256 615V105C256 80 267 69 292 69H413C438 69 449 80 449 105V239H745V105C745 80 756 69 781 69H900C925 69 936 80 936 105Z" glyph-name="Idotaccent" horiz-adv-x="1016" unicode="&#304;" /><glyph d="M216 440C216 465 205 476 180 476H53C28 476 17 465 17 440V282C17 257 28 246 53 246H180C205 246 216 257 216 282ZM936 439C936 464 925 475 900 475H292C267 475 256 464 256 439V280C256 255 267 244 292 244H900C925 244 936 255 936 280Z" glyph-name="Idotaccent.salt" horiz-adv-x="991" unicode="&#57629;" /><glyph d="M235 535C238 558 225 569 202 569H106C81 569 73 558 70 533L27 184C24 161 37 150 60 150H156C181 150 189 161 192 186ZM948 105V615C948 640 937 651 912 651H793C768 651 757 640 757 615V481H461V615C461 640 450 651 425 651H304C279 651 268 640 268 615V105C268 80 279 69 304 69H425C450 69 461 80 461 105V239H757V105C757 80 768 69 793 69H912C937 69 948 80 948 105Z" glyph-name="Igrave" horiz-adv-x="1028" unicode="&#204;" /><glyph d="M235 535C238 558 225 569 202 569H106C81 569 73 558 70 533L27 184C24 161 37 150 60 150H156C181 150 189 161 192 186ZM948 439C948 464 937 475 912 475H304C279 475 268 464 268 439V280C268 255 279 244 304 244H912C937 244 948 255 948 280Z" glyph-name="Igrave.salt" horiz-adv-x="1003" unicode="&#57621;" /><glyph d="M207 533C207 558 196 569 171 569H78C53 569 42 558 42 533V186C42 161 53 150 78 150H171C196 150 207 161 207 186ZM927 105V615C927 640 916 651 891 651H772C747 651 736 640 736 615V481H440V615C440 640 429 651 404 651H283C258 651 247 640 247 615V105C247 80 258 69 283 69H404C429 69 440 80 440 105V239H736V105C736 80 747 69 772 69H891C916 69 927 80 927 105Z" glyph-name="Imacron" horiz-adv-x="1007" unicode="&#298;" /><glyph d="M207 533C207 558 196 569 171 569H78C53 569 42 558 42 533V186C42 161 53 150 78 150H171C196 150 207 161 207 186ZM927 439C927 464 916 475 891 475H283C258 475 247 464 247 439V280C247 255 258 244 283 244H891C916 244 927 255 927 280Z" glyph-name="Imacron.salt" horiz-adv-x="982" unicode="&#57626;" /><glyph d="M273 105V239H569V105C569 80 580 69 605 69H724C749 69 760 80 760 105V415L811 406C904 392 946 421 946 507V618C946 644 938 651 912 651H840C814 651 806 643 806 615V574L760 581V615C760 640 749 651 724 651H605C580 651 569 640 569 615V481H273V615C273 640 262 651 237 651H116C91 651 80 640 80 615V105C80 80 91 69 116 69H237C262 69 273 80 273 105Z" glyph-name="Iogonek" horiz-adv-x="963" unicode="&#302;" /><glyph d="M921 327V438C921 464 913 471 887 471H815C789 471 781 463 781 435V394L735 401V439C735 464 724 475 699 475H91C66 475 55 464 55 439V280C55 255 66 244 91 244H685L786 226C879 212 921 241 921 327Z" glyph-name="Iogonek.salt" horiz-adv-x="938" unicode="&#57628;" /><glyph d="M214 359 216 375C228 455 230 469 211 532C202 555 195 568 170 568H69C44 568 36 556 43 532C61 473 64 469 51 381L48 359L46 342C34 262 32 249 51 186C60 163 67 150 92 150H193C218 150 226 162 219 186C203 239 199 255 210 331ZM938 105V615C938 640 927 651 902 651H783C758 651 747 640 747 615V481H451V615C451 640 440 651 415 651H294C269 651 258 640 258 615V105C258 80 269 69 294 69H415C440 69 451 80 451 105V239H747V105C747 80 758 69 783 69H902C927 69 938 80 938 105Z" glyph-name="Itilde" horiz-adv-x="1018" unicode="&#296;" /><glyph d="M214 359 216 375C228 455 230 469 211 532C202 555 195 568 170 568H69C44 568 36 556 43 532C61 473 64 469 51 381L48 359L46 342C34 262 32 249 51 186C60 163 67 150 92 150H193C218 150 226 162 219 186C203 239 199 255 210 331ZM938 439C938 464 927 475 902 475H294C269 475 258 464 258 439V280C258 255 269 244 294 244H902C927 244 938 255 938 280Z" glyph-name="Itilde.salt" horiz-adv-x="993" unicode="&#57625;" /><glyph d="M586 660H91C66 660 55 649 55 624V467C55 442 66 431 91 431H546C573 431 593 422 593 355C593 284 573 277 546 277H424C398 277 388 266 388 241V96C388 71 398 60 424 60H586C708 60 791 116 791 357C791 600 708 660 586 660Z" glyph-name="J" horiz-adv-x="848" unicode="J" /><glyph d="M546 660H91C66 660 55 649 55 624V467C55 442 66 431 91 431H506C533 431 553 422 553 355C553 284 533 277 506 277H384C358 277 348 266 348 241V96C348 71 358 60 384 60H546C668 60 750 116 750 357C750 600 668 660 546 660Z" glyph-name="J.s" horiz-adv-x="807" /><glyph d="M197 418C191 441 191 457 197 480L237 617C248 652 242 659 206 659H125C89 659 85 651 72 617L22 480C18 470 17 460 17 448C18 436 21 421 26 409L72 281C85 249 89 240 125 240H206C242 240 248 247 237 281ZM765 660H310C285 660 274 649 274 624V467C274 442 285 431 310 431H725C752 431 772 422 772 355C772 284 752 277 725 277H603C577 277 567 266 567 241V96C567 71 577 60 603 60H765C887 60 969 116 969 357C969 600 887 660 765 660Z" glyph-name="Jcircumflex" horiz-adv-x="1026" unicode="&#308;" /><glyph d="M787 252C787 277 776 288 751 288H522V403C522 424 534 435 556 435H751C776 435 787 446 787 471V625C787 650 776 661 751 661H469C389 661 337 613 333 538L100 640C79 649 67 641 67 618V464C67 438 76 424 100 414L333 311V288H103C78 288 67 277 67 252V97C67 72 78 61 103 61H751C776 61 787 72 787 97Z" glyph-name="K" horiz-adv-x="854" unicode="K" /><glyph d="M747 251C747 276 736 287 711 287H502V402C502 423 514 434 536 434H711C736 434 747 445 747 470V624C747 649 736 660 711 660H449C369 660 317 612 313 537L100 639C79 648 67 640 67 617V463C67 437 76 423 100 413L313 310V287H103C78 287 67 276 67 251V96C67 71 78 60 103 60H711C736 60 747 71 747 96Z" glyph-name="K.s" horiz-adv-x="814" /><glyph d="M747 251C747 276 736 287 711 287H502V402C502 423 514 434 536 434H711C736 434 747 445 747 470V624C747 649 736 660 711 660H449C369 660 317 612 313 537L100 639C79 648 67 640 67 617V463C67 437 76 423 100 413L313 310V287H103C78 287 67 276 67 251V96C67 71 78 60 103 60H711C736 60 747 71 747 96ZM1077 352C1077 428 1035 477 949 477H837C806 477 797 468 797 440V282C797 254 806 245 837 245H916C946 245 955 254 955 282V368H968C983 368 992 360 992 345V286C992 265 1001 256 1022 256H1046C1068 256 1077 265 1077 286Z" glyph-name="Kcommaaccent" horiz-adv-x="1089" unicode="&#310;" /><glyph d="M775 625C775 650 764 661 739 661H424C399 661 388 650 388 625V480C388 455 399 444 424 444H586V288H91C66 288 55 277 55 252V97C55 72 66 61 91 61H739C764 61 775 72 775 97Z" glyph-name="L" horiz-adv-x="855" unicode="L" /><glyph d="M735 624C735 649 724 660 699 660H394C369 660 358 649 358 624V479C358 454 369 443 394 443H546V287H91C66 287 55 276 55 251V96C55 71 66 60 91 60H699C724 60 735 71 735 96Z" glyph-name="L.s" horiz-adv-x="815" /><glyph d="M55 256V101C55 76 66 65 91 65H739C764 65 775 76 775 101V619C775 644 764 655 739 655H618C593 655 582 644 582 619V292H91C66 292 55 281 55 256Z" glyph-name="L.salt" horiz-adv-x="855" unicode="&#57630;" /><glyph d="M55 256V101C55 76 66 65 91 65H699C724 65 735 76 735 101V619C735 644 724 655 699 655H578C553 655 542 644 542 619V292H91C66 292 55 281 55 256Z" glyph-name="L.salt_s" horiz-adv-x="815" /><glyph d="M192 443C189 468 181 479 156 479H60C37 479 24 468 27 445L70 96C73 71 81 60 106 60H202C225 60 238 71 235 94ZM948 624C948 649 937 660 912 660H607C582 660 571 649 571 624V479C571 454 582 443 607 443H759V287H304C279 287 268 276 268 251V96C268 71 279 60 304 60H912C937 60 948 71 948 96Z" glyph-name="Lacute" horiz-adv-x="1028" unicode="&#313;" /><glyph d="M192 443C189 468 181 479 156 479H60C37 479 24 468 27 445L70 96C73 71 81 60 106 60H202C225 60 238 71 235 94ZM268 256V101C268 76 279 65 304 65H912C937 65 948 76 948 101V619C948 644 937 655 912 655H791C766 655 755 644 755 619V292H304C279 292 268 281 268 256Z" glyph-name="Lacute.salt" horiz-adv-x="1000" unicode="&#57631;" /><glyph d="M787 625C787 650 776 661 751 661H436C411 661 400 650 400 625V480C400 455 411 444 436 444H598V288H103C78 288 67 277 67 252V97C67 72 78 61 103 61H751C776 61 787 72 787 97ZM335 595C335 620 323 625 299 631L103 678C79 684 67 667 67 642V504C67 479 78 472 103 468L299 435C324 431 335 446 335 471Z" glyph-name="Lcaron" horiz-adv-x="867" unicode="&#317;" /><glyph d="M67 256V101C67 76 78 65 103 65H751C776 65 787 76 787 101V619C787 644 776 655 751 655H630C605 655 594 644 594 619V292H103C78 292 67 281 67 256ZM335 595C335 620 323 625 299 631L103 678C79 684 67 667 67 642V504C67 479 78 472 103 468L299 435C324 431 335 446 335 471Z" glyph-name="Lcaron.salt" horiz-adv-x="867" unicode="&#57633;" /><glyph d="M735 624C735 649 724 660 699 660H394C369 660 358 649 358 624V479C358 454 369 443 394 443H546V287H91C66 287 55 276 55 251V96C55 71 66 60 91 60H699C724 60 735 71 735 96ZM1065 352C1065 428 1023 477 937 477H825C794 477 785 468 785 440V282C785 254 794 245 825 245H904C934 245 943 254 943 282V368H956C971 368 980 360 980 345V286C980 265 989 256 1010 256H1034C1056 256 1065 265 1065 286Z" glyph-name="Lcommaaccent" horiz-adv-x="1077" unicode="&#315;" /><glyph d="M735 624C735 649 724 660 699 660H394C369 660 358 649 358 624V479C358 454 369 443 394 443H546V287H91C66 287 55 276 55 251V96C55 71 66 60 91 60H699C724 60 735 71 735 96ZM1065 352C1065 428 1023 477 937 477H825C794 477 785 468 785 440V282C785 254 794 245 825 245H904C934 245 943 254 943 282V368H956C971 368 980 360 980 345V286C980 265 989 256 1010 256H1034C1056 256 1065 265 1065 286Z" glyph-name="Lcommaaccent.salt" horiz-adv-x="1077" unicode="&#57632;" /><glyph d="M735 624C735 649 724 660 699 660H394C369 660 358 649 358 624V479C358 454 369 443 394 443H546V287H91C66 287 55 276 55 251V96C55 71 66 60 91 60H699C724 60 735 71 735 96ZM995 456C995 481 984 492 959 492H832C807 492 796 481 796 456V298C796 273 807 262 832 262H959C984 262 995 273 995 298Z" glyph-name="Ldot" horiz-adv-x="1012" unicode="&#319;" /><glyph d="M55 256V101C55 76 66 65 91 65H699C724 65 735 76 735 101V619C735 644 724 655 699 655H578C553 655 542 644 542 619V292H91C66 292 55 281 55 256ZM995 456C995 481 984 492 959 492H832C807 492 796 481 796 456V298C796 273 807 262 832 262H959C984 262 995 273 995 298Z" glyph-name="Ldot.salt" horiz-adv-x="1012" unicode="&#57634;" /><glyph d="M492 38 488 61H739C764 61 775 72 775 97V625C775 650 764 661 739 661H424C399 661 388 650 388 625V480C388 455 399 444 424 444H586V288H451L442 346C438 371 432 382 406 382H299C273 382 259 371 263 346L272 288H91C66 288 55 277 55 252V97C55 72 66 61 91 61H309L313 38C317 13 324 2 349 2H456C482 2 496 13 492 38Z" glyph-name="Lslash" horiz-adv-x="855" unicode="&#321;" /><glyph d="M492 38 488 65H739C764 65 775 76 775 101V619C775 644 764 655 739 655H618C593 655 582 644 582 619V292H451L442 346C438 371 432 382 406 382H299C273 382 259 371 263 346L272 292H91C66 292 55 281 55 256V101C55 76 66 65 91 65H309L313 38C317 13 324 2 349 2H456C482 2 496 13 492 38Z" glyph-name="Lslash.salt" horiz-adv-x="855" unicode="&#57635;" /><glyph d="M787 207C787 232 776 243 751 243L458 246H416L526 285C549 298 558 312 558 338V365C558 391 549 405 526 418L416 456H458L751 460C776 460 787 471 787 496V647C787 673 776 683 751 683L103 679C78 679 67 669 67 643V503C67 477 75 461 97 447L273 369V345L97 275C74 262 67 236 67 210V79C67 54 78 43 103 43L751 39C776 39 787 50 787 75Z" glyph-name="M" horiz-adv-x="854" unicode="M" /><glyph d="M802 47V164C802 190 791 200 766 200H303C276 200 263 207 263 233C263 259 276 265 303 265H766C791 265 802 276 802 301V418C802 443 791 454 766 454H303C276 454 263 460 263 486C263 512 276 519 303 519H766C791 519 802 529 802 555V672C802 697 791 708 766 708H271C149 708 67 660 67 509C67 434 85 387 117 359C85 332 67 285 67 210C67 59 149 11 271 11H766C791 11 802 22 802 47Z" glyph-name="M.salt" horiz-adv-x="882" unicode="&#57636;" /><glyph d="M787 246C787 271 776 282 751 282H421L628 439H751C776 439 787 450 787 475V625C787 650 776 661 751 661H103C78 661 67 650 67 625V475C67 450 78 439 103 439H316L94 259C74 242 67 226 67 200V96C67 71 78 60 103 60H751C776 60 787 71 787 96Z" glyph-name="N" horiz-adv-x="854" unicode="N" /><glyph d="M747 246C747 271 736 282 711 282H421L608 439H711C736 439 747 450 747 475V625C747 650 736 661 711 661H103C78 661 67 650 67 625V475C67 450 78 439 103 439H296L94 259C74 242 67 226 67 200V96C67 71 78 60 103 60H711C736 60 747 71 747 96Z" glyph-name="N.s" horiz-adv-x="814" /><glyph d="M261 60H756C781 60 793 71 793 96V248C793 274 781 284 756 284H300C273 284 253 296 253 358C253 419 273 431 300 431H756C781 431 793 442 793 467V624C793 649 781 660 756 660H261C139 660 57 608 57 360C57 112 139 60 261 60Z" glyph-name="N.salt" horiz-adv-x="860" unicode="&#57637;" /><glyph d="M261 60H716C741 60 752 71 752 96V248C752 274 741 284 716 284H300C273 284 253 296 253 358C253 419 273 431 300 431H716C741 431 752 442 752 467V624C752 649 741 660 716 660H261C139 660 57 608 57 360C57 112 139 60 261 60Z" glyph-name="N.salt_s" horiz-adv-x="819" /><glyph d="M192 533C189 558 181 569 156 569H60C37 569 24 558 27 535L70 186C73 161 81 150 106 150H202C225 150 238 161 235 184ZM948 246C948 271 937 282 912 282H622L809 439H912C937 439 948 450 948 475V625C948 650 937 661 912 661H304C279 661 268 650 268 625V475C268 450 279 439 304 439H497L295 259C275 242 268 226 268 200V96C268 71 279 60 304 60H912C937 60 948 71 948 96Z" glyph-name="Nacute" horiz-adv-x="1015" unicode="&#323;" /><glyph d="M457 60H912C937 60 948 71 948 96V248C948 274 937 284 912 284H496C469 284 449 296 449 358C449 419 469 431 496 431H912C937 431 948 442 948 467V624C948 649 937 660 912 660H457C335 660 253 608 253 360C253 112 335 60 457 60ZM192 533C189 558 181 569 156 569H60C37 569 24 558 27 535L70 186C73 161 81 150 106 150H202C225 150 238 161 235 184Z" glyph-name="Nacute.salt" horiz-adv-x="1015" unicode="&#57639;" /><glyph d="M72 391C78 368 78 352 72 329L32 192C21 157 27 150 63 150H144C180 150 184 158 197 192L247 329C251 339 252 349 252 361C251 373 248 388 243 400L197 528C184 560 180 569 144 569H63C27 569 21 562 32 528ZM964 246C964 271 953 282 928 282H638L825 439H928C953 439 964 450 964 475V625C964 650 953 661 928 661H320C295 661 284 650 284 625V475C284 450 295 439 320 439H513L311 259C291 242 284 226 284 200V96C284 71 295 60 320 60H928C953 60 964 71 964 96Z" glyph-name="Ncaron" horiz-adv-x="1031" unicode="&#327;" /><glyph d="M72 391C78 368 78 352 72 329L32 192C21 157 27 150 63 150H144C180 150 184 158 197 192L247 329C251 339 252 349 252 361C251 373 248 388 243 400L197 528C184 560 180 569 144 569H63C27 569 21 562 32 528ZM473 60H928C953 60 964 71 964 96V248C964 274 953 284 928 284H512C485 284 465 296 465 358C465 419 485 431 512 431H928C953 431 964 442 964 467V624C964 649 953 660 928 660H473C351 660 269 608 269 360C269 112 351 60 473 60Z" glyph-name="Ncaron.salt" horiz-adv-x="1031" unicode="&#57641;" /><glyph d="M747 246C747 271 736 282 711 282H421L608 439H711C736 439 747 450 747 475V625C747 650 736 661 711 661H103C78 661 67 650 67 625V475C67 450 78 439 103 439H296L94 259C74 242 67 226 67 200V96C67 71 78 60 103 60H711C736 60 747 71 747 96ZM1077 352C1077 428 1035 477 949 477H837C806 477 797 468 797 440V282C797 254 806 245 837 245H916C946 245 955 254 955 282V368H968C983 368 992 360 992 345V286C992 265 1001 256 1022 256H1046C1068 256 1077 265 1077 286Z" glyph-name="Ncommaaccent" horiz-adv-x="1089" unicode="&#325;" /><glyph d="M251 60H616C641 60 652 71 652 96V248C652 274 641 284 616 284H290C263 284 243 296 243 358C243 419 263 431 290 431H616C641 431 652 442 652 467V624C652 649 641 660 616 660H251C129 660 47 608 47 360C47 112 129 60 251 60ZM957 352C957 428 915 477 829 477H717C686 477 677 468 677 440V282C677 254 686 245 717 245H796C826 245 835 254 835 282V368H848C863 368 872 360 872 345V286C872 265 881 256 902 256H926C948 256 957 265 957 286Z" glyph-name="Ncommaaccent.salt" horiz-adv-x="982" unicode="&#57640;" /><glyph d="M214 359 216 375C228 455 230 469 211 532C202 555 195 568 170 568H69C44 568 36 556 43 532C61 473 64 469 51 381L48 359L46 342C34 262 32 249 51 186C60 163 67 150 92 150H193C218 150 226 162 219 186C203 239 199 255 210 331ZM938 246C938 271 927 282 902 282H612L799 439H902C927 439 938 450 938 475V625C938 650 927 661 902 661H294C269 661 258 650 258 625V475C258 450 269 439 294 439H487L285 259C265 242 258 226 258 200V96C258 71 269 60 294 60H902C927 60 938 71 938 96Z" glyph-name="Ntilde" horiz-adv-x="1005" unicode="&#209;" /><glyph d="M214 359 216 375C228 455 230 469 211 532C202 555 195 568 170 568H69C44 568 36 556 43 532C61 473 64 469 51 381L48 359L46 342C34 262 32 249 51 186C60 163 67 150 92 150H193C218 150 226 162 219 186C203 239 199 255 210 331ZM447 60H902C927 60 938 71 938 96V248C938 274 927 284 902 284H486C459 284 439 296 439 358C439 419 459 431 486 431H902C927 431 938 442 938 467V624C938 649 927 660 902 660H447C325 660 243 608 243 360C243 112 325 60 447 60Z" glyph-name="Ntilde.salt" horiz-adv-x="1005" unicode="&#57638;" /><glyph d="M603 664H262C140 664 57 605 57 360C57 115 140 56 262 56H603C725 56 807 115 807 360C807 605 725 664 603 664ZM567 283H298C272 283 252 294 252 360C252 427 272 438 298 438H567C594 438 614 427 614 360C614 294 594 283 567 283Z" glyph-name="O" horiz-adv-x="864" unicode="O" /><glyph d="M563 664H262C140 664 57 605 57 360C57 115 140 56 262 56H563C685 56 767 115 767 360C767 605 685 664 563 664ZM527 283H298C272 283 252 294 252 360C252 427 272 438 298 438H527C554 438 574 427 574 360C574 294 554 283 527 283Z" glyph-name="O.s" horiz-adv-x="824" /><glyph d="M800 285V645C800 670 789 681 764 681H647C622 681 611 670 611 645V542H525V644C525 669 514 680 489 680H382C356 680 346 669 346 644V542H269V645C269 670 258 681 233 681H116C91 681 80 670 80 645V285C80 96 163 39 284 39H596C717 39 800 96 800 285ZM611 340V289C611 249 589 242 562 242H319C293 242 271 249 271 289V340Z" glyph-name="OE" horiz-adv-x="880" unicode="&#338;" /><glyph d="M192 533C189 558 181 569 156 569H60C37 569 24 558 27 535L70 186C73 161 81 150 106 150H202C225 150 238 161 235 184ZM759 664H458C336 664 253 605 253 360C253 115 336 56 458 56H759C881 56 963 115 963 360C963 605 881 664 759 664ZM723 283H494C468 283 448 294 448 360C448 427 468 438 494 438H723C750 438 770 427 770 360C770 294 750 283 723 283Z" glyph-name="Oacute" horiz-adv-x="1020" unicode="&#211;" /><glyph d="M107 577H63C38 577 27 566 27 541V450C27 427 34 420 58 420H79C98 420 112 411 112 361C112 312 98 304 79 304H58C34 304 27 296 27 275V179C27 154 38 143 63 143H107C192 143 250 186 250 360C250 534 192 577 107 577ZM775 664H474C352 664 269 605 269 360C269 115 352 56 474 56H775C897 56 979 115 979 360C979 605 897 664 775 664ZM739 283H510C484 283 464 294 464 360C464 427 484 438 510 438H739C766 438 786 427 786 360C786 294 766 283 739 283Z" glyph-name="Obreve" horiz-adv-x="1036" unicode="&#334;" /><glyph d="M197 328C191 351 191 367 197 390L237 527C248 562 242 569 206 569H125C89 569 85 561 72 527L22 390C18 380 17 370 17 358C18 346 21 331 26 319L72 191C85 159 89 150 125 150H206C242 150 248 157 237 191ZM765 664H464C342 664 259 605 259 360C259 115 342 56 464 56H765C887 56 969 115 969 360C969 605 887 664 765 664ZM729 283H500C474 283 454 294 454 360C454 427 474 438 500 438H729C756 438 776 427 776 360C776 294 756 283 729 283Z" glyph-name="Ocircumflex" horiz-adv-x="1026" unicode="&#212;" /><glyph d="M229 556C229 579 219 589 196 589H75C52 589 42 579 42 556V418C42 395 52 385 75 385H196C219 385 229 395 229 418ZM229 298C229 321 219 331 196 331H75C52 331 42 321 42 298V160C42 137 52 126 75 126H196C219 126 229 137 229 160ZM760 664H459C337 664 254 605 254 360C254 115 337 56 459 56H760C882 56 964 115 964 360C964 605 882 664 760 664ZM724 283H495C469 283 449 294 449 360C449 427 469 438 495 438H724C751 438 771 427 771 360C771 294 751 283 724 283Z" glyph-name="Odieresis" horiz-adv-x="1021" unicode="&#214;" /><glyph d="M235 535C238 558 225 569 202 569H106C81 569 73 558 70 533L27 184C24 161 37 150 60 150H156C181 150 189 161 192 186ZM759 664H458C336 664 253 605 253 360C253 115 336 56 458 56H759C881 56 963 115 963 360C963 605 881 664 759 664ZM723 283H494C468 283 448 294 448 360C448 427 468 438 494 438H723C750 438 770 427 770 360C770 294 750 283 723 283Z" glyph-name="Ograve" horiz-adv-x="1020" unicode="&#210;" /><glyph d="M280 403C302 397 314 413 314 436V542C314 567 302 572 278 578L71 631C49 637 37 621 37 598V492C37 467 49 462 73 456ZM280 143C302 137 314 153 314 176V282C314 307 302 312 278 318L71 371C49 377 37 361 37 338V232C37 207 49 202 73 196ZM845 664H544C422 664 339 605 339 360C339 115 422 56 544 56H845C967 56 1049 115 1049 360C1049 605 967 664 845 664ZM809 283H580C554 283 534 294 534 360C534 427 554 438 580 438H809C836 438 856 427 856 360C856 294 836 283 809 283Z" glyph-name="Ohungarumlaut" horiz-adv-x="1106" unicode="&#336;" /><glyph d="M207 533C207 558 196 569 171 569H78C53 569 42 558 42 533V186C42 161 53 150 78 150H171C196 150 207 161 207 186ZM738 664H437C315 664 232 605 232 360C232 115 315 56 437 56H738C860 56 942 115 942 360C942 605 860 664 738 664ZM702 283H473C447 283 427 294 427 360C427 427 447 438 473 438H702C729 438 749 427 749 360C749 294 729 283 702 283Z" glyph-name="Omacron" horiz-adv-x="999" unicode="&#332;" /><glyph d="M67 360C67 110 150 49 272 49H493C540 49 580 58 613 82V43C613 18 624 7 649 7H766C791 7 802 18 802 43V297C802 322 791 333 766 333H652C630 333 625 325 618 306C609 282 596 276 577 276H308C282 276 262 288 262 360C262 432 282 444 308 444H577C596 444 609 438 618 414C625 395 630 387 652 387H766C791 387 802 398 802 423V677C802 702 791 713 766 713H649C624 713 613 702 613 677V638C580 662 540 671 493 671H272C150 671 67 610 67 360Z" glyph-name="Omega" horiz-adv-x="882" unicode="&#8486;" /><glyph d="M577 454C610 454 634 441 634 360V346L379 454ZM308 266C276 266 252 280 252 360V372L502 266ZM836 99C858 87 872 100 872 125V240C872 265 858 274 836 286L815 295C816 315 817 337 817 360C817 600 735 660 613 660H272C207 660 153 643 117 591L48 620C26 632 12 619 12 594V479C12 454 26 445 48 433L69 424C68 404 67 383 67 360C67 120 150 59 272 59H613C678 59 731 76 767 128Z" glyph-name="Oslash" horiz-adv-x="884" unicode="&#216;" /><glyph d="M214 359 216 375C228 455 230 469 211 532C202 555 195 568 170 568H69C44 568 36 556 43 532C61 473 64 469 51 381L48 359L46 342C34 262 32 249 51 186C60 163 67 150 92 150H193C218 150 226 162 219 186C203 239 199 255 210 331ZM749 664H448C326 664 243 605 243 360C243 115 326 56 448 56H749C871 56 953 115 953 360C953 605 871 664 749 664ZM713 283H484C458 283 438 294 438 360C438 427 458 438 484 438H713C740 438 760 427 760 360C760 294 740 283 713 283Z" glyph-name="Otilde" horiz-adv-x="1010" unicode="&#213;" /><glyph d="M792 251C792 276 781 287 756 287H590V428C590 610 511 664 395 664H267C151 664 72 610 72 428V96C72 71 83 60 108 60H756C781 60 792 71 792 96ZM259 285V401C259 440 282 448 308 448H361C387 448 410 440 410 401V285Z" glyph-name="P" horiz-adv-x="847" unicode="P" /><glyph d="M846 246C871 246 882 257 882 282V436C882 461 871 472 846 472H791C768 624 695 664 594 664H262C140 664 57 605 57 360C57 115 140 56 262 56H594C694 56 767 96 790 246ZM572 283H299C273 283 253 294 253 360C253 427 273 438 299 438H572C599 438 619 427 619 360C619 294 599 283 572 283Z" glyph-name="Q" horiz-adv-x="934" unicode="Q" /><glyph d="M792 250C792 275 781 286 756 286H560V405C560 433 573 443 603 443H756C781 443 792 454 792 479V634C792 659 781 670 756 670H544C460 670 407 620 399 559C381 601 341 615 285 615H239C140 615 72 568 72 418V96C72 71 83 60 108 60H756C781 60 792 71 792 96ZM252 286V350C252 385 272 394 299 394H333C360 394 380 385 380 350V286Z" glyph-name="R" horiz-adv-x="859" unicode="R" /><glyph d="M752 250C752 275 741 286 716 286H550V405C550 433 563 443 593 443H716C741 443 752 454 752 479V634C752 659 741 670 716 670H534C450 670 397 620 389 559C371 601 331 615 275 615H239C140 615 72 568 72 418V96C72 71 83 60 108 60H716C741 60 752 71 752 96ZM252 286V350C252 385 272 394 299 394H323C350 394 370 385 370 350V286Z" glyph-name="R.s" horiz-adv-x="819" /><glyph d="M192 515C189 540 181 551 156 551H60C37 551 24 540 27 517L70 168C73 143 81 132 106 132H202C225 132 238 143 235 166ZM948 250C948 275 937 286 912 286H746V405C746 433 759 443 789 443H912C937 443 948 454 948 479V634C948 659 937 670 912 670H730C646 670 593 620 585 559C567 601 527 615 471 615H435C336 615 268 568 268 418V96C268 71 279 60 304 60H912C937 60 948 71 948 96ZM448 286V350C448 385 468 394 495 394H519C546 394 566 385 566 350V286Z" glyph-name="Racute" horiz-adv-x="1015" unicode="&#340;" /><glyph d="M72 391C78 368 78 352 72 329L32 192C21 157 27 150 63 150H144C180 150 184 158 197 192L247 329C251 339 252 349 252 361C251 373 248 388 243 400L197 528C184 560 180 569 144 569H63C27 569 21 562 32 528ZM964 250C964 275 953 286 928 286H762V405C762 433 775 443 805 443H928C953 443 964 454 964 479V634C964 659 953 670 928 670H746C662 670 609 620 601 559C583 601 543 615 487 615H451C352 615 284 568 284 418V96C284 71 295 60 320 60H928C953 60 964 71 964 96ZM464 286V350C464 385 484 394 511 394H535C562 394 582 385 582 350V286Z" glyph-name="Rcaron" horiz-adv-x="1031" unicode="&#344;" /><glyph d="M752 250C752 275 741 286 716 286H550V405C550 433 563 443 593 443H716C741 443 752 454 752 479V634C752 659 741 670 716 670H534C450 670 397 620 389 559C371 601 331 615 275 615H239C140 615 72 568 72 418V96C72 71 83 60 108 60H716C741 60 752 71 752 96ZM252 286V350C252 385 272 394 299 394H323C350 394 370 385 370 350V286ZM1082 352C1082 428 1040 477 954 477H842C811 477 802 468 802 440V282C802 254 811 245 842 245H921C951 245 960 254 960 282V368H973C988 368 997 360 997 345V286C997 265 1006 256 1027 256H1051C1073 256 1082 265 1082 286Z" glyph-name="Rcommaaccent" horiz-adv-x="1094" unicode="&#342;" /><glyph d="M792 454C792 583 730 661 616 661H511C399 661 359 599 345 505L325 314C323 297 311 287 293 287C275 287 263 297 263 314V599C263 624 252 635 227 635H108C83 635 72 624 72 599V267C72 137 134 60 248 60H353C465 60 505 121 519 215L540 407C542 424 551 433 574 433C590 433 603 424 603 407V96C603 71 614 60 639 60H756C781 60 792 71 792 96Z" glyph-name="S" horiz-adv-x="864" unicode="S" /><glyph d="M752 454C752 583 690 661 576 661H481C369 661 334 599 320 505L310 314C308 297 301 287 283 287C265 287 253 297 253 314V599C253 624 242 635 217 635H108C83 635 72 624 72 599V267C72 137 134 60 248 60H343C455 60 490 121 504 215L515 407C517 424 521 433 544 433C560 433 573 424 573 407V96C573 71 584 60 609 60H716C741 60 752 71 752 96Z" glyph-name="S.s" horiz-adv-x="824" /><glyph d="M192 533C189 558 181 569 156 569H60C37 569 24 558 27 535L70 186C73 161 81 150 106 150H202C225 150 238 161 235 184ZM948 454C948 583 886 661 772 661H677C565 661 530 599 516 505L506 314C504 297 497 287 479 287C461 287 449 297 449 314V599C449 624 438 635 413 635H304C279 635 268 624 268 599V267C268 137 330 60 444 60H539C651 60 686 121 700 215L711 407C713 424 717 433 740 433C756 433 769 424 769 407V96C769 71 780 60 805 60H912C937 60 948 71 948 96Z" glyph-name="Sacute" horiz-adv-x="1020" unicode="&#346;" /><glyph d="M72 391C78 368 78 352 72 329L32 192C21 157 27 150 63 150H144C180 150 184 158 197 192L247 329C251 339 252 349 252 361C251 373 248 388 243 400L197 528C184 560 180 569 144 569H63C27 569 21 562 32 528ZM964 454C964 583 902 661 788 661H693C581 661 546 599 532 505L522 314C520 297 513 287 495 287C477 287 465 297 465 314V599C465 624 454 635 429 635H320C295 635 284 624 284 599V267C284 137 346 60 460 60H555C667 60 702 121 716 215L727 407C729 424 733 433 756 433C772 433 785 424 785 407V96C785 71 796 60 821 60H928C953 60 964 71 964 96Z" glyph-name="Scaron" horiz-adv-x="1036" unicode="&#352;" /><glyph d="M504 215 515 407C517 424 521 433 544 433C560 433 573 424 573 407V96C573 71 584 60 609 60H716C741 60 752 71 752 96V234L838 202C862 193 878 198 878 232V358C878 384 869 397 848 404L752 438V454C752 583 690 661 576 661H481C369 661 334 599 320 505L310 314C308 297 301 287 283 287C265 287 253 297 253 314V599C253 624 242 635 217 635H108C83 635 72 624 72 599V267C72 137 134 60 248 60H343C455 60 490 121 504 215Z" glyph-name="Scedilla" horiz-adv-x="905" unicode="&#350;" /><glyph d="M197 328C191 351 191 367 197 390L237 527C248 562 242 569 206 569H125C89 569 85 561 72 527L22 390C18 380 17 370 17 358C18 346 21 331 26 319L72 191C85 159 89 150 125 150H206C242 150 248 157 237 191ZM954 454C954 583 892 661 778 661H683C571 661 536 599 522 505L512 314C510 297 503 287 485 287C467 287 455 297 455 314V599C455 624 444 635 419 635H310C285 635 274 624 274 599V267C274 137 336 60 450 60H545C657 60 692 121 706 215L717 407C719 424 723 433 746 433C762 433 775 424 775 407V96C775 71 786 60 811 60H918C943 60 954 71 954 96Z" glyph-name="Scircumflex" horiz-adv-x="1026" unicode="&#348;" /><glyph d="M752 454C752 583 690 661 576 661H481C369 661 334 599 320 505L310 314C308 297 301 287 283 287C265 287 253 297 253 314V599C253 624 242 635 217 635H108C83 635 72 624 72 599V267C72 137 134 60 248 60H343C455 60 490 121 504 215L515 407C517 424 521 433 544 433C560 433 573 424 573 407V96C573 71 584 60 609 60H716C741 60 752 71 752 96ZM1082 352C1082 428 1040 477 954 477H842C811 477 802 468 802 440V282C802 254 811 245 842 245H921C951 245 960 254 960 282V368H973C988 368 997 360 997 345V286C997 265 1006 256 1027 256H1051C1073 256 1082 265 1082 286Z" glyph-name="Scommaaccent" horiz-adv-x="1094" unicode="&#536;" /><glyph d="M800 444C800 469 789 480 764 480H273V624C273 649 262 660 237 660H116C91 660 80 649 80 624V96C80 71 91 60 116 60H237C262 60 273 71 273 96V240H764C789 240 800 251 800 276Z" glyph-name="T" horiz-adv-x="855" unicode="T" /><glyph d="M760 444C760 469 749 480 724 480H273V624C273 649 262 660 237 660H116C91 660 80 649 80 624V96C80 71 91 60 116 60H237C262 60 273 71 273 96V240H724C749 240 760 251 760 276Z" glyph-name="T.s" horiz-adv-x="815" /><glyph d="M237 60C262 60 273 71 273 96V240H399V166C399 141 410 130 435 130H542C567 130 578 141 578 166V240H764C789 240 800 251 800 276V444C800 469 789 480 764 480H578V553C578 578 567 589 542 589H435C410 589 399 578 399 553V480H273V624C273 649 262 660 237 660H116C91 660 80 649 80 624V96C80 71 91 60 116 60Z" glyph-name="Tbar" horiz-adv-x="855" unicode="&#358;" /><glyph d="M72 391C78 368 78 352 72 329L32 192C21 157 27 150 63 150H144C180 150 184 158 197 192L247 329C251 339 252 349 252 361C251 373 248 388 243 400L197 528C184 560 180 569 144 569H63C27 569 21 562 32 528ZM964 444C964 469 953 480 928 480H477V624C477 649 466 660 441 660H320C295 660 284 649 284 624V96C284 71 295 60 320 60H441C466 60 477 71 477 96V240H928C953 240 964 251 964 276Z" glyph-name="Tcaron" horiz-adv-x="1019" unicode="&#356;" /><glyph d="M680 444C680 469 669 480 644 480H273V624C273 649 262 660 237 660H116C91 660 80 649 80 624V96C80 71 91 60 116 60H237C262 60 273 71 273 96V240H644C669 240 680 251 680 276ZM990 351C990 427 948 476 862 476H750C719 476 710 467 710 439V281C710 253 719 244 750 244H829C859 244 868 253 868 281V367H881C896 367 905 359 905 344V285C905 264 914 255 935 255H959C981 255 990 264 990 285Z" glyph-name="Tcommaaccent" horiz-adv-x="1002" unicode="&#354;" /><glyph d="M785 252C785 277 774 288 749 288H680V427C680 609 601 663 485 663H363C247 663 168 609 168 427V288H101C76 288 65 277 65 252V97C65 72 76 61 101 61H749C774 61 785 72 785 97ZM355 286V400C355 439 378 447 404 447H451C477 447 500 439 500 400V286Z" glyph-name="Thorn" horiz-adv-x="850" unicode="&#222;" /><glyph d="M598 660H103C78 660 67 649 67 624V472C67 446 78 436 103 436H559C586 436 606 424 606 362C606 301 586 289 559 289H103C78 289 67 278 67 253V96C67 71 78 60 103 60H598C720 60 802 120 802 360C802 600 720 660 598 660Z" glyph-name="U" horiz-adv-x="859" unicode="U" /><glyph d="M558 660H103C78 660 67 649 67 624V472C67 446 78 436 103 436H519C546 436 566 424 566 362C566 301 546 289 519 289H103C78 289 67 278 67 253V96C67 71 78 60 103 60H558C680 60 762 120 762 360C762 600 680 660 558 660Z" glyph-name="U.s" horiz-adv-x="819" /><glyph d="M192 553C189 578 181 589 156 589H60C37 589 24 578 27 555L70 206C73 181 81 170 106 170H202C225 170 238 181 235 204ZM759 660H304C279 660 268 649 268 624V472C268 446 279 436 304 436H720C747 436 767 424 767 362C767 301 747 289 720 289H304C279 289 268 278 268 253V96C268 71 279 60 304 60H759C881 60 963 120 963 360C963 600 881 660 759 660Z" glyph-name="Uacute" horiz-adv-x="1020" unicode="&#218;" /><glyph d="M107 577H63C38 577 27 566 27 541V450C27 427 34 420 58 420H79C98 420 112 411 112 361C112 312 98 304 79 304H58C34 304 27 296 27 275V179C27 154 38 143 63 143H107C192 143 250 186 250 360C250 534 192 577 107 577ZM775 660H320C295 660 284 649 284 624V472C284 446 295 436 320 436H736C763 436 783 424 783 362C783 301 763 289 736 289H320C295 289 284 278 284 253V96C284 71 295 60 320 60H775C897 60 979 120 979 360C979 600 897 660 775 660Z" glyph-name="Ubreve" horiz-adv-x="1036" unicode="&#364;" /><glyph d="M197 328C191 351 191 367 197 390L237 527C248 562 242 569 206 569H125C89 569 85 561 72 527L22 390C18 380 17 370 17 358C18 346 21 331 26 319L72 191C85 159 89 150 125 150H206C242 150 248 157 237 191ZM765 660H310C285 660 274 649 274 624V472C274 446 285 436 310 436H726C753 436 773 424 773 362C773 301 753 289 726 289H310C285 289 274 278 274 253V96C274 71 285 60 310 60H765C887 60 969 120 969 360C969 600 887 660 765 660Z" glyph-name="Ucircumflex" horiz-adv-x="1026" unicode="&#219;" /><glyph d="M229 556C229 579 219 589 196 589H75C52 589 42 579 42 556V418C42 395 52 385 75 385H196C219 385 229 395 229 418ZM229 298C229 321 219 331 196 331H75C52 331 42 321 42 298V160C42 137 52 126 75 126H196C219 126 229 137 229 160ZM760 660H305C280 660 269 649 269 624V472C269 446 280 436 305 436H721C748 436 768 424 768 362C768 301 748 289 721 289H305C280 289 269 278 269 253V96C269 71 280 60 305 60H760C882 60 964 120 964 360C964 600 882 660 760 660Z" glyph-name="Udieresis" horiz-adv-x="1021" unicode="&#220;" /><glyph d="M235 535C238 558 225 569 202 569H106C81 569 73 558 70 533L27 184C24 161 37 150 60 150H156C181 150 189 161 192 186ZM759 660H304C279 660 268 649 268 624V472C268 446 279 436 304 436H720C747 436 767 424 767 362C767 301 747 289 720 289H304C279 289 268 278 268 253V96C268 71 279 60 304 60H759C881 60 963 120 963 360C963 600 881 660 759 660Z" glyph-name="Ugrave" horiz-adv-x="1020" unicode="&#217;" /><glyph d="M280 405C302 399 314 415 314 438V544C314 569 302 574 278 580L71 633C49 639 37 623 37 600V494C37 469 49 464 73 458ZM280 145C302 139 314 155 314 178V284C314 309 302 314 278 320L71 373C49 379 37 363 37 340V234C37 209 49 204 73 198ZM845 660H390C365 660 354 649 354 624V472C354 446 365 436 390 436H806C833 436 853 424 853 362C853 301 833 289 806 289H390C365 289 354 278 354 253V96C354 71 365 60 390 60H845C967 60 1049 120 1049 360C1049 600 967 660 845 660Z" glyph-name="Uhungarumlaut" horiz-adv-x="1106" unicode="&#368;" /><glyph d="M207 533C207 558 196 569 171 569H78C53 569 42 558 42 533V186C42 161 53 150 78 150H171C196 150 207 161 207 186ZM738 660H283C258 660 247 649 247 624V472C247 446 258 436 283 436H699C726 436 746 424 746 362C746 301 726 289 699 289H283C258 289 247 278 247 253V96C247 71 258 60 283 60H738C860 60 942 120 942 360C942 600 860 660 738 660Z" glyph-name="Umacron" horiz-adv-x="999" unicode="&#362;" /><glyph d="M809 255C902 241 944 270 944 356V467C944 493 936 500 910 500H838C812 500 804 492 804 464V423L759 429C744 612 667 660 558 660H103C78 660 67 649 67 624V472C67 446 78 436 103 436H519C546 436 566 424 566 362C566 301 546 289 519 289H103C78 289 67 278 67 253V96C67 71 78 60 103 60H558C662 60 737 103 757 264Z" glyph-name="Uogonek" horiz-adv-x="961" unicode="&#370;" /><glyph d="M160 577C75 577 17 534 17 360C17 186 75 143 160 143H258C343 143 401 186 401 360C401 534 343 577 258 577ZM225 420C254 420 268 411 268 361C268 312 254 304 225 304H190C164 304 150 312 150 361C150 411 164 420 190 420ZM926 660H471C446 660 435 649 435 624V472C435 446 446 436 471 436H887C914 436 934 424 934 362C934 301 914 289 887 289H471C446 289 435 278 435 253V96C435 71 446 60 471 60H926C1048 60 1130 120 1130 360C1130 600 1048 660 926 660Z" glyph-name="Uring" horiz-adv-x="1187" unicode="&#366;" /><glyph d="M214 359 216 375C228 455 230 469 211 532C202 555 195 568 170 568H69C44 568 36 556 43 532C61 473 64 469 51 381L48 359L46 342C34 262 32 249 51 186C60 163 67 150 92 150H193C218 150 226 162 219 186C203 239 199 255 210 331ZM749 660H294C269 660 258 649 258 624V472C258 446 269 436 294 436H710C737 436 757 424 757 362C757 301 737 289 710 289H294C269 289 258 278 258 253V96C258 71 269 60 294 60H749C871 60 953 120 953 360C953 600 871 660 749 660Z" glyph-name="Utilde" horiz-adv-x="1010" unicode="&#360;" /><glyph d="M787 487C787 517 779 531 754 541L509 639C449 663 430 661 367 661H103C78 661 67 651 67 625V476C67 451 78 440 103 440H378C392 440 404 438 419 432L560 389C573 384 577 381 577 370V355C577 344 573 341 560 336L420 293C405 287 393 285 379 285H103C78 285 67 271 67 246V95C67 70 78 59 103 59H367C430 59 449 67 509 91L754 179C779 189 787 204 787 234Z" glyph-name="V" horiz-adv-x="849" unicode="V" /><glyph d="M67 513C67 488 78 482 103 482L415 479H446L328 439C306 426 297 412 297 386V355C297 329 306 315 328 302L446 262H415L103 258C78 258 67 247 67 222V74C67 49 78 38 103 38L469 42C531 42 545 42 613 60L751 96C775 102 787 117 787 142V250C787 281 777 294 757 300L581 353V377L757 430C778 436 787 449 787 480V580C787 605 775 618 751 624L615 660C547 678 532 678 471 678L103 682C78 682 67 672 67 646Z" glyph-name="W" horiz-adv-x="854" unicode="W" /><glyph d="M67 513C67 488 78 482 103 482L375 479H406L288 439C266 426 257 412 257 386V355C257 329 266 315 288 302L406 262H375L103 258C78 258 67 247 67 222V74C67 49 78 38 103 38L429 42C491 42 505 42 573 60L711 96C735 102 747 117 747 142V250C747 281 737 294 717 300L541 353V377L717 430C738 436 747 449 747 480V580C747 605 735 618 711 624L575 660C507 678 492 678 431 678L103 682C78 682 67 672 67 646Z" glyph-name="W.s" horiz-adv-x="814" /><glyph d="M611 11C733 11 815 59 815 210C815 285 797 332 765 360C797 387 815 434 815 509C815 660 733 708 611 708H116C91 708 80 697 80 672V555C80 529 91 519 116 519H579C606 519 619 512 619 486C619 460 606 454 579 454H116C91 454 80 443 80 418V301C80 276 91 265 116 265H579C606 265 619 259 619 233C619 207 606 200 579 200H116C91 200 80 190 80 164V47C80 22 91 11 116 11Z" glyph-name="W.salt" horiz-adv-x="882" unicode="&#57642;" /><glyph d="M571 11C693 11 775 59 775 210C775 285 757 332 725 360C757 387 775 434 775 509C775 660 693 708 571 708H116C91 708 80 697 80 672V555C80 529 91 519 116 519H539C566 519 579 512 579 486C579 460 566 454 539 454H116C91 454 80 443 80 418V301C80 276 91 265 116 265H539C566 265 579 259 579 233C579 207 566 200 539 200H116C91 200 80 190 80 164V47C80 22 91 11 116 11Z" glyph-name="W.salt_s" horiz-adv-x="842" /><glyph d="M192 543C189 568 181 579 156 579H60C37 579 24 568 27 545L70 196C73 171 81 160 106 160H202C225 160 238 171 235 194ZM268 513C268 488 279 482 304 482L576 479H607L489 439C467 426 458 412 458 386V355C458 329 467 315 489 302L607 262H576L304 258C279 258 268 247 268 222V74C268 49 279 38 304 38L630 42C692 42 706 42 774 60L912 96C936 102 948 117 948 142V250C948 281 938 294 918 300L742 353V377L918 430C939 436 948 449 948 480V580C948 605 936 618 912 624L776 660C708 678 693 678 632 678L304 682C279 682 268 672 268 646Z" glyph-name="Wacute" horiz-adv-x="1015" unicode="&#7810;" /><glyph d="M192 533C189 558 181 569 156 569H60C37 569 24 558 27 535L70 186C73 161 81 150 106 150H202C225 150 238 161 235 184ZM759 11C881 11 963 59 963 210C963 285 945 332 913 360C945 387 963 434 963 509C963 660 881 708 759 708H304C279 708 268 697 268 672V555C268 529 279 519 304 519H727C754 519 767 512 767 486C767 460 754 454 727 454H304C279 454 268 443 268 418V301C268 276 279 265 304 265H727C754 265 767 259 767 233C767 207 754 200 727 200H304C279 200 268 190 268 164V47C268 22 279 11 304 11Z" glyph-name="Wacute.salt" horiz-adv-x="1030" unicode="&#57645;" /><glyph d="M197 328C191 351 191 367 197 390L237 527C248 562 242 569 206 569H125C89 569 85 561 72 527L22 390C18 380 17 370 17 358C18 346 21 331 26 319L72 191C85 159 89 150 125 150H206C242 150 248 157 237 191ZM274 513C274 488 285 482 310 482L582 479H613L495 439C473 426 464 412 464 386V355C464 329 473 315 495 302L613 262H582L310 258C285 258 274 247 274 222V74C274 49 285 38 310 38L636 42C698 42 712 42 780 60L918 96C942 102 954 117 954 142V250C954 281 944 294 924 300L748 353V377L924 430C945 436 954 449 954 480V580C954 605 942 618 918 624L782 660C714 678 699 678 638 678L310 682C285 682 274 672 274 646Z" glyph-name="Wcircumflex" horiz-adv-x="1021" unicode="&#372;" /><glyph d="M197 328C191 351 191 367 197 390L237 527C248 562 242 569 206 569H125C89 569 85 561 72 527L22 390C18 380 17 370 17 358C18 346 21 331 26 319L72 191C85 159 89 150 125 150H206C242 150 248 157 237 191ZM765 11C887 11 969 59 969 210C969 285 951 332 919 360C951 387 969 434 969 509C969 660 887 708 765 708H310C285 708 274 697 274 672V555C274 529 285 519 310 519H733C760 519 773 512 773 486C773 460 760 454 733 454H310C285 454 274 443 274 418V301C274 276 285 265 310 265H733C760 265 773 259 773 233C773 207 760 200 733 200H310C285 200 274 190 274 164V47C274 22 285 11 310 11Z" glyph-name="Wcircumflex.salt" horiz-adv-x="1036" unicode="&#57643;" /><glyph d="M229 566C229 589 219 599 196 599H75C52 599 42 589 42 566V428C42 405 52 395 75 395H196C219 395 229 405 229 428ZM229 308C229 331 219 341 196 341H75C52 341 42 331 42 308V170C42 147 52 136 75 136H196C219 136 229 147 229 170ZM269 513C269 488 280 482 305 482L577 479H608L490 439C468 426 459 412 459 386V355C459 329 468 315 490 302L608 262H577L305 258C280 258 269 247 269 222V74C269 49 280 38 305 38L631 42C693 42 707 42 775 60L913 96C937 102 949 117 949 142V250C949 281 939 294 919 300L743 353V377L919 430C940 436 949 449 949 480V580C949 605 937 618 913 624L777 660C709 678 694 678 633 678L305 682C280 682 269 672 269 646Z" glyph-name="Wdieresis" horiz-adv-x="1016" unicode="&#7812;" /><glyph d="M229 556C229 579 219 589 196 589H75C52 589 42 579 42 556V418C42 395 52 385 75 385H196C219 385 229 395 229 418ZM229 298C229 321 219 331 196 331H75C52 331 42 321 42 298V160C42 137 52 126 75 126H196C219 126 229 137 229 160ZM760 11C882 11 964 59 964 210C964 285 946 332 914 360C946 387 964 434 964 509C964 660 882 708 760 708H305C280 708 269 697 269 672V555C269 529 280 519 305 519H728C755 519 768 512 768 486C768 460 755 454 728 454H305C280 454 269 443 269 418V301C269 276 280 265 305 265H728C755 265 768 259 768 233C768 207 755 200 728 200H305C280 200 269 190 269 164V47C269 22 280 11 305 11Z" glyph-name="Wdieresis.salt" horiz-adv-x="1031" unicode="&#57646;" /><glyph d="M235 535C238 558 225 569 202 569H106C81 569 73 558 70 533L27 184C24 161 37 150 60 150H156C181 150 189 161 192 186ZM268 513C268 488 279 482 304 482L576 479H607L489 439C467 426 458 412 458 386V355C458 329 467 315 489 302L607 262H576L304 258C279 258 268 247 268 222V74C268 49 279 38 304 38L630 42C692 42 706 42 774 60L912 96C936 102 948 117 948 142V250C948 281 938 294 918 300L742 353V377L918 430C939 436 948 449 948 480V580C948 605 936 618 912 624L776 660C708 678 693 678 632 678L304 682C279 682 268 672 268 646Z" glyph-name="Wgrave" horiz-adv-x="1015" unicode="&#7808;" /><glyph d="M235 535C238 558 225 569 202 569H106C81 569 73 558 70 533L27 184C24 161 37 150 60 150H156C181 150 189 161 192 186ZM759 11C881 11 963 59 963 210C963 285 945 332 913 360C945 387 963 434 963 509C963 660 881 708 759 708H304C279 708 268 697 268 672V555C268 529 279 519 304 519H727C754 519 767 512 767 486C767 460 754 454 727 454H304C279 454 268 443 268 418V301C268 276 279 265 304 265H727C754 265 767 259 767 233C767 207 754 200 727 200H304C279 200 268 190 268 164V47C268 22 279 11 304 11Z" glyph-name="Wgrave.salt" horiz-adv-x="1030" unicode="&#57644;" /><glyph d="M751 284H652C638 284 624 285 610 293L547 330C535 337 530 343 530 354V368C530 379 534 385 547 392L610 427C625 435 638 436 652 436H751C776 436 787 447 787 472V624C787 649 776 660 751 660H644C582 660 564 648 521 622L413 556L303 622C260 648 242 660 180 660H103C78 660 67 649 67 624V472C67 447 78 436 103 436H172C186 436 200 435 214 427L277 391C289 384 294 378 294 367V355C294 344 288 337 277 331L214 295C201 287 186 286 172 286H103C78 286 67 275 67 250V96C67 71 78 60 103 60H180C242 60 260 72 303 98L412 164L521 98C564 72 582 60 644 60H751C776 60 787 71 787 96V248C787 273 776 284 751 284Z" glyph-name="X" horiz-adv-x="854" unicode="X" /><glyph d="M787 243C787 268 776 279 751 279H557C535 279 522 290 522 311V411C522 432 535 443 557 443H751C776 443 787 454 787 479V633C787 658 776 669 751 669H470C405 669 357 637 341 583L102 648C79 654 67 646 67 621V469C67 443 77 432 102 426L333 378V345L102 297C77 291 67 279 67 253V102C67 78 79 70 102 76L341 141C356 85 404 52 470 52H751C776 52 787 63 787 88Z" glyph-name="X.salt" horiz-adv-x="854" unicode="&#57647;" /><glyph d="M418 97 622 243H751C776 243 787 253 787 279V441C787 466 776 477 751 477H623L418 623C377 653 347 661 295 661H103C78 661 67 650 67 625V476C67 451 78 440 103 440H267C281 440 295 440 309 431L381 391C393 384 398 378 398 367V357C398 346 393 340 381 333L309 294C295 285 281 285 267 285H103C78 285 67 274 67 249V95C67 70 78 59 103 59H295C347 59 377 66 418 97Z" glyph-name="Y" horiz-adv-x="842" unicode="Y" /><glyph d="M388 97 592 243H711C736 243 747 253 747 279V441C747 466 736 477 711 477H593L388 623C347 653 317 661 265 661H103C78 661 67 650 67 625V476C67 451 78 440 103 440H237C251 440 265 440 279 431L351 391C363 384 368 378 368 367V357C368 346 363 340 351 333L279 294C265 285 251 285 237 285H103C78 285 67 274 67 249V95C67 70 78 59 103 59H265C317 59 347 66 388 97Z" glyph-name="Y.s" horiz-adv-x="802" /><glyph d="M751 243C776 243 787 254 787 279V441C787 466 776 477 751 477H580C556 621 482 660 384 660H103C78 660 67 649 67 624V470C67 445 78 434 103 434H343C370 434 390 423 390 360C390 298 370 287 343 287H103C78 287 67 276 67 251V96C67 71 78 60 103 60H384C482 60 556 99 580 243Z" glyph-name="Y.salt" horiz-adv-x="842" unicode="&#57648;" /><glyph d="M710 243C735 243 746 254 746 279V441C746 466 735 477 710 477H560C536 621 462 660 364 660H103C78 660 67 649 67 624V470C67 445 78 434 103 434H323C350 434 370 423 370 360C370 298 350 287 323 287H103C78 287 67 276 67 251V96C67 71 78 60 103 60H364C462 60 536 99 560 243Z" glyph-name="Y.salt_s" horiz-adv-x="801" /><glyph d="M192 553C189 578 181 589 156 589H60C37 589 24 578 27 555L70 206C73 181 81 170 106 170H202C225 170 238 181 235 204ZM589 97 793 243H912C937 243 948 253 948 279V441C948 466 937 477 912 477H794L589 623C548 653 518 661 466 661H304C279 661 268 650 268 625V476C268 451 279 440 304 440H438C452 440 466 440 480 431L552 391C564 384 569 378 569 367V357C569 346 564 340 552 333L480 294C466 285 452 285 438 285H304C279 285 268 274 268 249V95C268 70 279 59 304 59H466C518 59 548 66 589 97Z" glyph-name="Yacute" horiz-adv-x="1003" unicode="&#221;" /><glyph d="M192 533C189 558 181 569 156 569H60C37 569 24 558 27 535L70 186C73 161 81 150 106 150H202C225 150 238 161 235 184ZM912 243C937 243 948 254 948 279V441C948 466 937 477 912 477H762C738 621 664 660 566 660H305C280 660 269 649 269 624V470C269 445 280 434 305 434H525C552 434 572 423 572 360C572 298 552 287 525 287H305C280 287 269 276 269 251V96C269 71 280 60 305 60H566C664 60 738 99 762 243Z" glyph-name="Yacute.salt" horiz-adv-x="1003" unicode="&#57649;" /><glyph d="M595 97 799 243H918C943 243 954 253 954 279V441C954 466 943 477 918 477H800L595 623C554 653 524 661 472 661H310C285 661 274 650 274 625V476C274 451 285 440 310 440H444C458 440 472 440 486 431L558 391C570 384 575 378 575 367V357C575 346 570 340 558 333L486 294C472 285 458 285 444 285H310C285 285 274 274 274 249V95C274 70 285 59 310 59H472C524 59 554 66 595 97ZM197 328C191 351 191 367 197 390L237 527C248 562 242 569 206 569H125C89 569 85 561 72 527L22 390C18 380 17 370 17 358C18 346 21 331 26 319L72 191C85 159 89 150 125 150H206C242 150 248 157 237 191Z" glyph-name="Ycircumflex" horiz-adv-x="1009" unicode="&#374;" /><glyph d="M197 328C191 351 191 367 197 390L237 527C248 562 242 569 206 569H125C89 569 85 561 72 527L22 390C18 380 17 370 17 358C18 346 21 331 26 319L72 191C85 159 89 150 125 150H206C242 150 248 157 237 191ZM918 243C943 243 954 254 954 279V441C954 466 943 477 918 477H768C744 621 670 660 572 660H311C286 660 275 649 275 624V470C275 445 286 434 311 434H531C558 434 578 423 578 360C578 298 558 287 531 287H311C286 287 275 276 275 251V96C275 71 286 60 311 60H572C670 60 744 99 768 243Z" glyph-name="Ycircumflex.salt" horiz-adv-x="1009" unicode="&#57650;" /><glyph d="M229 561C229 584 219 594 196 594H75C52 594 42 584 42 561V423C42 400 52 390 75 390H196C219 390 229 400 229 423ZM229 303C229 326 219 336 196 336H75C52 336 42 326 42 303V165C42 142 52 131 75 131H196C219 131 229 142 229 165ZM590 97 794 243H913C938 243 949 253 949 279V441C949 466 938 477 913 477H795L590 623C549 653 519 661 467 661H305C280 661 269 650 269 625V476C269 451 280 440 305 440H439C453 440 467 440 481 431L553 391C565 384 570 378 570 367V357C570 346 565 340 553 333L481 294C467 285 453 285 439 285H305C280 285 269 274 269 249V95C269 70 280 59 305 59H467C519 59 549 66 590 97Z" glyph-name="Ydieresis" horiz-adv-x="1004" unicode="&#376;" /><glyph d="M229 556C229 579 219 589 196 589H75C52 589 42 579 42 556V418C42 395 52 385 75 385H196C219 385 229 395 229 418ZM229 298C229 321 219 331 196 331H75C52 331 42 321 42 298V160C42 137 52 126 75 126H196C219 126 229 137 229 160ZM913 243C938 243 949 254 949 279V441C949 466 938 477 913 477H763C739 621 665 660 567 660H306C281 660 270 649 270 624V470C270 445 281 434 306 434H526C553 434 573 423 573 360C573 298 553 287 526 287H306C281 287 270 276 270 251V96C270 71 281 60 306 60H567C665 60 739 99 763 243Z" glyph-name="Ydieresis.salt" horiz-adv-x="1004" unicode="&#57651;" /><glyph d="M235 535C238 558 225 569 202 569H106C81 569 73 558 70 533L27 184C24 161 37 150 60 150H156C181 150 189 161 192 186ZM589 97 793 243H912C937 243 948 253 948 279V441C948 466 937 477 912 477H794L589 623C548 653 518 661 466 661H304C279 661 268 650 268 625V476C268 451 279 440 304 440H438C452 440 466 440 480 431L552 391C564 384 569 378 569 367V357C569 346 564 340 552 333L480 294C466 285 452 285 438 285H304C279 285 268 274 268 249V95C268 70 279 59 304 59H466C518 59 548 66 589 97Z" glyph-name="Ygrave" horiz-adv-x="1003" unicode="&#7922;" /><glyph d="M235 535C238 558 225 569 202 569H106C81 569 73 558 70 533L27 184C24 161 37 150 60 150H156C181 150 189 161 192 186ZM912 243C937 243 948 254 948 279V441C948 466 937 477 912 477H762C738 621 664 660 566 660H305C280 660 269 649 269 624V470C269 445 280 434 305 434H525C552 434 572 423 572 360C572 298 552 287 525 287H305C280 287 269 276 269 251V96C269 71 280 60 305 60H566C664 60 738 99 762 243Z" glyph-name="Ygrave.salt" horiz-adv-x="1003" unicode="&#57652;" /><glyph d="M800 624C800 649 789 660 764 660H645C620 660 609 649 609 624V353L328 627C309 645 292 652 265 652H116C91 652 80 641 80 616V104C80 79 91 68 116 68H237C262 68 273 79 273 104V370L568 85C587 67 604 60 630 60H764C789 60 800 71 800 96Z" glyph-name="Z" horiz-adv-x="880" unicode="Z" /><glyph d="M760 624C760 649 749 660 724 660H605C580 660 569 649 569 624V353L328 627C309 645 292 652 265 652H116C91 652 80 641 80 616V104C80 79 91 68 116 68H237C262 68 273 79 273 104V370L528 85C547 67 564 60 590 60H724C749 60 760 71 760 96Z" glyph-name="Z.s" horiz-adv-x="840" /><glyph d="M192 553C189 578 181 589 156 589H60C37 589 24 578 27 555L70 206C73 181 81 170 106 170H202C225 170 238 181 235 204ZM948 624C948 649 937 660 912 660H793C768 660 757 649 757 624V353L516 627C497 645 480 652 453 652H304C279 652 268 641 268 616V104C268 79 279 68 304 68H425C450 68 461 79 461 104V370L716 85C735 67 752 60 778 60H912C937 60 948 71 948 96Z" glyph-name="Zacute" horiz-adv-x="1028" unicode="&#377;" /><glyph d="M72 396C78 373 78 357 72 334L32 197C21 162 27 155 63 155H144C180 155 184 163 197 197L247 334C251 344 252 354 252 366C251 378 248 393 243 405L197 533C184 565 180 574 144 574H63C27 574 21 567 32 533ZM964 624C964 649 953 660 928 660H809C784 660 773 649 773 624V353L532 627C513 645 496 652 469 652H320C295 652 284 641 284 616V104C284 79 295 68 320 68H441C466 68 477 79 477 104V370L732 85C751 67 768 60 794 60H928C953 60 964 71 964 96Z" glyph-name="Zcaron" horiz-adv-x="1044" unicode="&#381;" /><glyph d="M216 440C216 465 205 476 180 476H53C28 476 17 465 17 440V282C17 257 28 246 53 246H180C205 246 216 257 216 282ZM936 624C936 649 925 660 900 660H781C756 660 745 649 745 624V353L504 627C485 645 468 652 441 652H292C267 652 256 641 256 616V104C256 79 267 68 292 68H413C438 68 449 79 449 104V370L704 85C723 67 740 60 766 60H900C925 60 936 71 936 96Z" glyph-name="Zdotaccent" horiz-adv-x="1016" unicode="&#379;" /><glyph d="M746 59C771 59 782 69 782 95V242C782 267 771 278 746 278H606V435H746C771 435 782 449 782 474V625C782 650 771 661 746 661H482C413 661 398 651 322 622L95 535C70 526 62 511 62 485V226C62 200 70 184 95 175L322 98C398 69 413 59 482 59ZM272 335C259 341 255 343 255 354V359C255 370 259 372 272 378L424 425V288Z" glyph-name="a" horiz-adv-x="849" unicode="a" /><glyph d="M912 61C937 61 948 71 948 97V244C948 269 937 280 912 280H792V437H912C937 437 948 451 948 476V627C948 652 937 663 912 663H668C599 663 584 653 508 624L301 537C276 528 268 513 268 487V228C268 202 276 186 301 177L508 100C584 71 599 61 668 61ZM478 337C465 343 461 345 461 356V361C461 372 465 374 478 380L610 427V290ZM192 533C189 558 181 569 156 569H60C37 569 24 558 27 535L70 186C73 161 81 150 106 150H202C225 150 238 161 235 184Z" glyph-name="aacute" horiz-adv-x="1015" unicode="&#225;" /><glyph d="M107 577H63C38 577 27 566 27 541V450C27 427 34 420 58 420H79C98 420 112 411 112 361C112 312 98 304 79 304H58C34 304 27 296 27 275V179C27 154 38 143 63 143H107C192 143 250 186 250 360C250 534 192 577 107 577ZM928 61C953 61 964 71 964 97V244C964 269 953 280 928 280H808V437H928C953 437 964 451 964 476V627C964 652 953 663 928 663H684C615 663 600 653 524 624L317 537C292 528 284 513 284 487V228C284 202 292 186 317 177L524 100C600 71 615 61 684 61ZM494 337C481 343 477 345 477 356V361C477 372 481 374 494 380L626 427V290Z" glyph-name="abreve" horiz-adv-x="1031" unicode="&#259;" /><glyph d="M918 61C943 61 954 71 954 97V244C954 269 943 280 918 280H798V437H918C943 437 954 451 954 476V627C954 652 943 663 918 663H674C605 663 590 653 514 624L307 537C282 528 274 513 274 487V228C274 202 282 186 307 177L514 100C590 71 605 61 674 61ZM484 337C471 343 467 345 467 356V361C467 372 471 374 484 380L616 427V290ZM197 328C191 351 191 367 197 390L237 527C248 562 242 569 206 569H125C89 569 85 561 72 527L22 390C18 380 17 370 17 358C18 346 21 331 26 319L72 191C85 159 89 150 125 150H206C242 150 248 157 237 191Z" glyph-name="acircumflex" horiz-adv-x="1021" unicode="&#226;" /><glyph d="M192 533C189 558 181 569 156 569H60C37 569 24 558 27 535L70 186C73 161 81 150 106 150H202C225 150 238 161 235 184Z" glyph-name="acute" horiz-adv-x="262" unicode="&#180;" /><glyph d="M229 556C229 579 219 589 196 589H75C52 589 42 579 42 556V418C42 395 52 385 75 385H196C219 385 229 395 229 418ZM229 298C229 321 219 331 196 331H75C52 331 42 321 42 298V160C42 137 52 126 75 126H196C219 126 229 137 229 160ZM913 61C938 61 949 71 949 97V244C949 269 938 280 913 280H793V437H913C938 437 949 451 949 476V627C949 652 938 663 913 663H669C600 663 585 653 509 624L302 537C277 528 269 513 269 487V228C269 202 277 186 302 177L509 100C585 71 600 61 669 61ZM479 337C466 343 462 345 462 356V361C462 372 466 374 479 380L611 427V290Z" glyph-name="adieresis" horiz-adv-x="1016" unicode="&#228;" /><glyph d="M792 65V196C792 221 781 232 756 232H616V330H756C781 330 792 341 792 366V635C792 660 781 671 756 671H639C614 671 603 660 603 635V532H517V634C517 659 506 670 481 670H374C348 670 338 659 338 634V532H261V635C261 660 250 671 225 671H108C83 671 72 660 72 635V215C72 181 82 164 113 153L352 58C402 39 443 29 502 29H756C781 29 792 40 792 65ZM278 302C265 307 261 310 261 321V330H434V243Z" glyph-name="ae" horiz-adv-x="872" unicode="&#230;" /><glyph d="M235 535C238 558 225 569 202 569H106C81 569 73 558 70 533L27 184C24 161 37 150 60 150H156C181 150 189 161 192 186ZM912 61C937 61 948 71 948 97V244C948 269 937 280 912 280H792V437H912C937 437 948 451 948 476V627C948 652 937 663 912 663H668C599 663 584 653 508 624L301 537C276 528 268 513 268 487V228C268 202 276 186 301 177L508 100C584 71 599 61 668 61ZM478 337C465 343 461 345 461 356V361C461 372 465 374 478 380L610 427V290Z" glyph-name="agrave" horiz-adv-x="1015" unicode="&#224;" /><glyph d="M207 533C207 558 196 569 171 569H78C53 569 42 558 42 533V186C42 161 53 150 78 150H171C196 150 207 161 207 186ZM891 61C916 61 927 71 927 97V244C927 269 916 280 891 280H771V437H891C916 437 927 451 927 476V627C927 652 916 663 891 663H647C578 663 563 653 487 624L280 537C255 528 247 513 247 487V228C247 202 255 186 280 177L487 100C563 71 578 61 647 61ZM457 337C444 343 440 345 440 356V361C440 372 444 374 457 380L589 427V290Z" glyph-name="amacron" horiz-adv-x="994" unicode="&#257;" /><glyph d="M585 303C585 271 571 265 555 265H524C508 265 495 271 495 303V378C495 403 484 414 459 414H356C331 414 320 403 320 378V368C320 336 306 330 290 330H269C253 330 239 336 239 368V484C239 509 228 520 203 520H88C63 520 52 509 52 484V303C52 167 117 111 205 111H253C304 111 342 126 361 170C368 98 422 44 516 44H596C703 44 772 110 772 233V481C772 597 703 660 596 660H551V683C551 708 540 719 515 719H407C381 719 371 708 371 683V499C371 474 382 463 407 463H545C572 463 585 454 585 425Z" glyph-name="ampersand" horiz-adv-x="834" unicode="&amp;" /><glyph d="M716 56C801 56 864 122 864 250V291H918C943 291 954 302 954 327V472C954 497 943 508 918 508H864V625C864 650 853 661 828 661H711C686 661 675 650 675 625V315C675 283 661 277 645 277H618C602 277 589 283 589 315V544C589 569 578 580 553 580H446C421 580 410 569 410 544V380C410 348 396 342 380 342H363C347 342 333 348 333 380V625C333 650 322 661 297 661H180C155 661 144 650 144 625V508H90C65 508 54 497 54 472V327C54 302 65 291 90 291H145C152 172 214 123 297 123H345C396 123 434 138 453 182C460 110 514 56 608 56Z" glyph-name="ampersand.salt" horiz-adv-x="1009" unicode="&#57658;" /><glyph d="M706 61C731 61 742 71 742 97V244C742 269 731 280 706 280H586V437H675L793 416C886 402 928 431 928 517V628C928 654 920 661 894 661H822C796 661 788 653 788 625V584L742 591V627C742 652 731 663 706 663H462C393 663 378 653 302 624L95 537C70 528 62 513 62 487V228C62 202 70 186 95 177L302 100C378 71 393 61 462 61ZM272 337C259 343 255 345 255 356V361C255 372 259 374 272 380L404 427V290Z" glyph-name="aogonek" horiz-adv-x="945" unicode="&#261;" /><glyph d="M268 360 271 383C288 496 295 517 259 620C252 638 241 657 206 657H107C77 657 66 640 76 605C101 522 105 516 87 391L83 360L80 336C63 222 56 203 92 100C99 80 110 63 145 63H251C274 63 285 80 276 114C253 189 247 212 263 320ZM558 360 561 383C578 496 585 517 549 620C542 638 531 657 496 657H397C367 657 356 640 366 605C391 522 395 516 377 391L373 360L370 336C353 222 346 203 382 100C389 80 400 63 435 63H541C564 63 575 80 566 114C543 189 537 212 553 320Z" glyph-name="approxequal" horiz-adv-x="641" unicode="&#8776;" /><glyph d="M908 59C933 59 944 70 944 95V241C944 266 933 277 908 277H788V435H908C933 435 944 446 944 471V625C944 651 933 661 908 661H674C615 661 574 651 524 632L351 572C330 564 319 554 314 537C289 567 254 577 213 577H155C70 577 12 534 12 360C12 186 70 143 155 143H213C254 143 289 153 314 183C319 167 331 157 351 148L524 88C574 69 615 59 674 59ZM470 329C457 334 453 337 453 348V365C453 376 457 379 470 384L606 426V286ZM220 420C249 420 263 411 263 361C263 312 249 304 220 304H185C159 304 145 312 145 361C145 411 159 420 185 420Z" glyph-name="aring" horiz-adv-x="1011" unicode="&#229;" /><glyph d="M210 261 390 272V100C390 78 421 65 443 80L790 314C809 326 821 339 821 360C821 382 809 395 790 407L443 641C421 656 390 644 390 621V449L210 460C188 461 179 449 179 427V294C179 272 188 260 210 261Z" glyph-name="arrowdown" horiz-adv-x="1000" unicode="&#8595;" /><glyph d="M1323 273H1180V1026C1180 1051 1164 1070 1140 1060L640 862L140 1060C116 1070 100 1051 100 1026V273H-37C-77 273 -91 230 -47 193L579 -323C624 -360 653 -360 699 -323L1333 193C1369 223 1354 273 1323 273Z" glyph-name="arrowdown.chevron" horiz-adv-x="1280" unicode="&#57700;" /><glyph d="M342 611 249 516C233 502 231 486 248 471L382 353L261 231C245 215 258 184 285 178L695 99C717 94 735 94 751 110C766 125 766 143 761 165L682 575C676 601 645 615 629 599L507 478L389 612C373 629 358 627 342 611Z" glyph-name="arrowdownleft" horiz-adv-x="1000" unicode="&#8601;" /><glyph d="M389 108 507 242 629 121C645 105 676 119 682 145L761 555C766 577 766 595 751 610C735 626 717 626 695 621L285 542C258 536 245 505 261 489L382 367L248 249C231 234 233 218 249 204L342 109C358 93 373 91 389 108Z" glyph-name="arrowdownright" horiz-adv-x="1000" unicode="&#8600;" /><glyph d="M567 675H434C412 675 400 666 401 644L412 464H240C218 464 205 433 220 411L454 64C466 45 479 33 501 33C522 33 535 45 547 64L781 411C796 433 783 464 761 464H589L600 644C601 666 589 675 567 675Z" glyph-name="arrowleft" horiz-adv-x="1001" unicode="&#8592;" /><glyph d="M631 -319V-180H1292C1317 -180 1336 -164 1326 -140L1128 360L1326 860C1336 884 1317 900 1292 900H631V1041C631 1081 587 1095 551 1051L35 421C-2 375 -2 347 35 301L551 -329C581 -365 631 -350 631 -319Z" glyph-name="arrowleft.chevron" horiz-adv-x="1330" unicode="&#57697;" /><glyph d="M600 76 589 256H761C783 256 796 287 781 309L547 656C535 675 522 687 501 687C479 687 466 675 454 656L220 309C205 287 218 256 240 256H412L401 76C400 54 412 45 434 45H567C589 45 601 54 600 76Z" glyph-name="arrowright" horiz-adv-x="1001" unicode="&#8594;" /><glyph d="M699 -319C699 -350 749 -365 779 -329L1295 301C1332 347 1332 375 1295 421L779 1051C743 1095 699 1081 699 1041V900H38C13 900 -6 884 4 860L202 360L4 -140C-6 -164 13 -180 38 -180H699Z" glyph-name="arrowright.chevron" horiz-adv-x="1330" unicode="&#57699;" /><glyph d="M790 460 610 449V621C610 643 579 656 557 641L210 407C191 395 179 382 179 361C179 339 191 326 210 314L557 80C579 65 610 77 610 100V272L790 261C812 260 821 272 821 294V427C821 449 812 461 790 460Z" glyph-name="arrowup" horiz-adv-x="1000" unicode="&#8593;" /><glyph d="M1323 436C1354 436 1369 486 1333 516L699 1032C653 1069 624 1069 579 1032L-47 516C-91 479 -77 436 -37 436H100V-317C100 -342 116 -361 140 -351L640 -153L1140 -351C1164 -361 1180 -342 1180 -317V436Z" glyph-name="arrowup.chevron" horiz-adv-x="1280" unicode="&#57698;" /><glyph d="M751 517 656 611C642 627 626 629 611 612L493 478L371 599C355 615 324 601 318 575L239 165C234 143 234 125 250 109C265 94 283 94 305 99L715 178C741 184 755 215 739 231L618 353L752 471C769 487 767 502 751 517Z" glyph-name="arrowupleft" horiz-adv-x="1000" unicode="&#8598;" /><glyph d="M752 249 618 367 739 489C755 505 741 536 715 542L305 621C283 626 265 626 250 611C234 595 234 577 239 555L318 145C324 119 355 105 371 121L493 242L611 108C626 91 642 93 656 109L751 203C767 218 769 233 752 249Z" glyph-name="arrowupright" horiz-adv-x="1000" unicode="&#8599;" /><glyph d="M569 43C594 38 605 48 605 73L606 205C607 231 596 243 571 246L282 324C268 327 264 330 265 343C264 355 268 358 282 361L571 439C596 442 607 454 606 480L605 612C605 637 594 647 569 642L188 534C105 509 60 478 60 379V306C60 207 105 175 188 151Z" glyph-name="asciicircum" horiz-adv-x="686" unicode="^" /><glyph d="M274 360 277 383C294 496 301 517 265 620C258 638 247 657 212 657H113C83 657 72 640 82 605C107 522 111 516 93 391L89 360L86 336C69 222 62 203 98 100C105 80 116 63 151 63H257C280 63 291 80 282 114C259 189 253 212 269 320Z" glyph-name="asciitilde" horiz-adv-x="363" unicode="~" /><glyph d="M635 288 494 361 635 435C663 451 666 458 647 487L579 581C559 609 550 610 525 587L410 477L385 630C379 664 372 669 339 658L228 621C195 610 191 602 206 572L270 435L121 455C87 461 80 455 80 421V304C80 270 87 263 121 268L270 291L206 149C191 119 195 110 228 100L339 64C372 53 379 58 385 92L410 244L525 135C550 112 559 113 579 141L647 235C666 264 663 272 635 288Z" glyph-name="asterisk" horiz-adv-x="742" unicode="*" /><glyph d="M964 360V550C964 575 955 584 930 584H902C877 584 868 575 868 550V360C868 140 809 86 723 86H305C218 86 158 140 158 360C158 580 218 633 305 633H571C624 633 662 623 662 571H313C295 571 287 563 287 545V320C287 184 346 144 434 144H627C714 144 773 184 773 320V509C773 697 691 733 569 733H309C162 733 62 661 62 360C62 60 162 -14 309 -14H719C865 -14 964 60 964 360ZM602 307H451C433 307 415 313 415 351V408H636V341C636 314 622 307 602 307Z" glyph-name="at" horiz-adv-x="1026" unicode="@" /><glyph d="M902 61C927 61 938 71 938 97V244C938 269 927 280 902 280H782V437H902C927 437 938 451 938 476V627C938 652 927 663 902 663H658C589 663 574 653 498 624L291 537C266 528 258 513 258 487V228C258 202 266 186 291 177L498 100C574 71 589 61 658 61ZM468 337C455 343 451 345 451 356V361C451 372 455 374 468 380L600 427V290ZM214 359 216 375C228 455 230 469 211 532C202 555 195 568 170 568H69C44 568 36 556 43 532C61 473 64 469 51 381L48 359L46 342C34 262 32 249 51 186C60 163 67 150 92 150H193C218 150 226 162 219 186C203 239 199 255 210 331Z" glyph-name="atilde" horiz-adv-x="1005" unicode="&#227;" /><glyph d="M789 472C789 600 726 666 625 666H533C439 666 385 612 378 540C359 584 321 599 270 599H222C134 599 69 543 69 407V97C69 72 80 61 105 61H753C778 61 789 72 789 97ZM501 286V407C501 439 519 445 540 445H579C600 445 619 439 619 407V286ZM239 286V362C239 394 258 400 279 400H307C328 400 347 394 347 362V286Z" glyph-name="b" horiz-adv-x="861" unicode="b" /><glyph d="M41 408C16 405 5 397 5 372V227C5 202 16 188 41 191L869 311C894 314 905 322 905 347V492C905 517 894 531 869 528Z" glyph-name="backslash" horiz-adv-x="909" unicode="\" /><glyph d="M101 468C76 468 65 457 65 432V287C65 262 76 251 101 251H929C954 251 965 262 965 287V432C965 457 954 468 929 468Z" glyph-name="bar" horiz-adv-x="1030" unicode="|" /><glyph d="M1040 900H-40V-180H1040Z" glyph-name="block" horiz-adv-x="1000" unicode="&#9608;" /><glyph d="M1040 900H-40V-180H1040Z" glyph-name="block.v" horiz-adv-x="1000" unicode="&#57687;" /><glyph d="M312 560C312 595 321 610 353 610H374C399 610 410 621 410 646V765C410 790 399 801 374 801H330C141 801 84 718 84 597V467C41 454 20 428 20 380V345C20 297 41 272 84 259V126C84 4 141 -80 330 -80H374C399 -80 410 -69 410 -44V78C410 103 399 114 374 114H353C321 114 312 129 312 164V281C312 321 302 337 267 343L234 349C224 350 221 354 221 363C221 372 224 375 234 377L267 383C302 389 312 405 312 445Z" glyph-name="braceleft" horiz-adv-x="455" unicode="{" /><glyph d="M143 560V445C143 405 153 389 188 383L221 377C231 375 234 372 234 363C234 354 231 350 221 349L188 343C153 337 143 321 143 281V164C143 129 134 114 102 114H81C56 114 45 103 45 78V-44C45 -69 56 -80 81 -80H125C314 -80 371 4 371 126V259C414 272 435 297 435 345V380C435 428 414 454 371 467V597C371 718 314 801 125 801H81C56 801 45 790 45 765V646C45 621 56 610 81 610H102C134 610 143 595 143 560Z" glyph-name="braceright" horiz-adv-x="455" unicode="}" /><glyph d="M276 610H348C373 610 384 621 384 646V765C384 790 373 801 348 801H84C59 801 48 790 48 765V-44C48 -69 59 -80 84 -80H348C373 -80 384 -69 384 -44V78C384 103 373 114 348 114H276Z" glyph-name="bracketleft" horiz-adv-x="429" unicode="[" /><glyph d="M153 114H81C56 114 45 103 45 78V-44C45 -69 56 -80 81 -80H345C370 -80 381 -69 381 -44V765C381 790 370 801 345 801H81C56 801 45 790 45 765V646C45 621 56 610 81 610H153Z" glyph-name="bracketright" horiz-adv-x="429" unicode="]" /><glyph d="M107 577H63C38 577 27 566 27 541V450C27 427 34 420 58 420H79C98 420 112 411 112 361C112 312 98 304 79 304H58C34 304 27 296 27 275V179C27 154 38 143 63 143H107C192 143 250 186 250 360C250 534 192 577 107 577Z" glyph-name="breve" horiz-adv-x="267" unicode="&#728;" /><glyph d="M101 468C76 468 65 457 65 432V287C65 262 76 251 101 251H439C464 251 475 262 475 287V432C475 457 464 468 439 468ZM591 468C566 468 555 457 555 432V287C555 262 566 251 591 251H929C954 251 965 262 965 287V432C965 457 954 468 929 468Z" glyph-name="brokenbar" horiz-adv-x="1030" unicode="&#166;" /><glyph d="M434 500C434 525 423 536 398 536H116C90 536 80 525 80 500V219C80 194 90 183 116 183H398C423 183 434 194 434 219Z" glyph-name="bullet" horiz-adv-x="514" unicode="&#8226;" /><glyph d="M792 615C792 640 781 651 756 651H637C612 651 601 640 601 615V345C601 293 581 284 553 284H315C289 284 265 293 265 345V615C265 640 254 651 229 651H108C83 651 72 640 72 615V302C72 113 155 56 277 56H588C709 56 792 113 792 302Z" glyph-name="c" horiz-adv-x="864" unicode="c" /><glyph d="M192 543C189 568 181 579 156 579H60C37 579 24 568 27 545L70 196C73 171 81 160 106 160H202C225 160 238 171 235 194ZM948 615C948 640 937 651 912 651H793C768 651 757 640 757 615V345C757 293 737 284 709 284H511C485 284 461 293 461 345V615C461 640 450 651 425 651H304C279 651 268 640 268 615V302C268 113 351 56 473 56H744C865 56 948 113 948 302Z" glyph-name="cacute" horiz-adv-x="1020" unicode="&#263;" /><glyph d="M72 391C78 368 78 352 72 329L32 192C21 157 27 150 63 150H144C180 150 184 158 197 192L247 329C251 339 252 349 252 361C251 373 248 388 243 400L197 528C184 560 180 569 144 569H63C27 569 21 562 32 528Z" glyph-name="caron" horiz-adv-x="269" unicode="&#711;" /><glyph d="M295 389C295 414 283 419 259 425L63 472C39 478 27 461 27 436V298C27 273 38 266 63 262L259 229C284 225 295 240 295 265Z" glyph-name="caron.2" horiz-adv-x="322" unicode="&#57659;" /><glyph d="M72 401C78 378 78 362 72 339L32 202C21 167 27 160 63 160H144C180 160 184 168 197 202L247 339C251 349 252 359 252 371C251 383 248 398 243 410L197 538C184 570 180 579 144 579H63C27 579 21 572 32 538ZM964 615C964 640 953 651 928 651H809C784 651 773 640 773 615V345C773 293 753 284 725 284H527C501 284 477 293 477 345V615C477 640 466 651 441 651H320C295 651 284 640 284 615V302C284 113 367 56 489 56H760C881 56 964 113 964 302Z" glyph-name="ccaron" horiz-adv-x="1036" unicode="&#269;" /><glyph d="M838 238C862 229 878 234 878 268V394C878 420 869 433 848 440L752 474V615C752 640 741 651 716 651H597C572 651 561 640 561 615V345C561 293 541 284 513 284H315C289 284 265 293 265 345V615C265 640 254 651 229 651H108C83 651 72 640 72 615V302C72 113 155 56 277 56H548C662 56 742 106 751 270Z" glyph-name="ccedilla" horiz-adv-x="905" unicode="&#231;" /><glyph d="M197 338C191 361 191 377 197 400L237 537C248 572 242 579 206 579H125C89 579 85 571 72 537L22 400C18 390 17 380 17 368C18 356 21 341 26 329L72 201C85 169 89 160 125 160H206C242 160 248 167 237 201ZM954 615C954 640 943 651 918 651H799C774 651 763 640 763 615V345C763 293 743 284 715 284H517C491 284 467 293 467 345V615C467 640 456 651 431 651H310C285 651 274 640 274 615V302C274 113 357 56 479 56H750C871 56 954 113 954 302Z" glyph-name="ccircumflex" horiz-adv-x="1026" unicode="&#265;" /><glyph d="M216 450C216 475 205 486 180 486H53C28 486 17 475 17 450V292C17 267 28 256 53 256H180C205 256 216 267 216 292ZM936 615C936 640 925 651 900 651H781C756 651 745 640 745 615V345C745 293 725 284 697 284H499C473 284 449 293 449 345V615C449 640 438 651 413 651H292C267 651 256 640 256 615V302C256 113 339 56 461 56H732C853 56 936 113 936 302Z" glyph-name="cdotaccent" horiz-adv-x="1008" unicode="&#267;" /><glyph d="M274 374C274 400 265 413 244 420L67 483C48 490 35 485 27 463L-16 347C-25 323 -18 311 4 303L234 218C258 209 274 214 274 248Z" glyph-name="cedilla" horiz-adv-x="301" unicode="&#184;" /><glyph d="M839 300C864 300 875 311 875 336V481C875 506 864 517 839 517H785V594C785 619 774 630 749 630H630C605 630 594 619 594 594V393C594 341 574 332 546 332H388C362 332 338 341 338 393V594C338 619 327 630 302 630H181C156 630 145 619 145 594V517H91C66 517 55 506 55 481V336C55 311 66 300 91 300H147C161 151 240 104 350 104H581C691 104 769 151 783 300Z" glyph-name="cent" horiz-adv-x="930" unicode="&#162;" /><glyph d="M197 328C191 351 191 367 197 390L237 527C248 562 242 569 206 569H125C89 569 85 561 72 527L22 390C18 380 17 370 17 358C18 346 21 331 26 319L72 191C85 159 89 150 125 150H206C242 150 248 157 237 191Z" glyph-name="circumflex" horiz-adv-x="269" unicode="&#710;" /><glyph d="M705 461C705 486 694 497 669 497H466C440 497 430 486 430 461V259C430 234 440 223 466 223H669C694 223 705 234 705 259ZM350 461C350 486 339 497 314 497H111C85 497 75 486 75 461V259C75 234 85 223 111 223H314C339 223 350 234 350 259Z" glyph-name="colon" horiz-adv-x="784" unicode=":" /><glyph d="M447 349C447 439 398 497 296 497H108C83 497 72 486 72 461V259C72 234 83 223 108 223H256C281 223 292 234 292 259V368H307C325 368 335 359 335 341V272C335 247 346 236 371 236H411C437 236 447 247 447 272Z" glyph-name="comma" horiz-adv-x="499" unicode="," /><glyph d="M297 352C297 428 255 477 169 477H57C26 477 17 468 17 440V282C17 254 26 245 57 245H136C166 245 175 254 175 282V368H188C203 368 212 360 212 345V286C212 265 221 256 242 256H266C288 256 297 265 297 286Z" glyph-name="commaaccent" horiz-adv-x="309" unicode="&#806;" /><glyph d="M719 733H309C162 733 62 661 62 360C62 60 162 -14 309 -14H719C865 -14 964 60 964 360C964 661 865 733 719 733ZM723 633C809 633 868 580 868 360C868 140 809 86 723 86H305C218 86 158 140 158 360C158 580 218 633 305 633ZM763 515C763 533 755 541 737 541H652C634 541 626 533 626 515V371C626 333 612 327 592 327H421C403 327 385 333 385 371V515C385 533 377 541 360 541H273C255 541 247 533 247 515V340C247 204 306 164 394 164H617C704 164 763 204 763 340Z" glyph-name="copyright" horiz-adv-x="1025" unicode="&#169;" /><glyph d="M513 282H372C347 282 328 294 328 362C328 431 347 442 372 442H513C539 442 558 431 558 362C558 294 539 282 513 282ZM215 8 309 102C320 101 331 100 343 100H542C553 100 565 101 575 102L669 8C685 -9 700 -9 718 8L794 84C812 103 811 117 794 133L709 218C720 255 726 302 726 362C726 421 720 467 710 503L794 587C811 603 812 617 794 635L718 711C699 730 685 729 669 711L579 621C567 622 555 623 542 623H343C330 623 317 622 305 621L215 711C199 729 185 730 167 711L91 635C72 617 73 603 91 587L175 503C164 467 158 421 158 362C158 302 164 254 176 218L91 133C73 117 73 102 91 84L167 8C185 -10 199 -9 215 8Z" glyph-name="currency" horiz-adv-x="884" unicode="&#164;" /><glyph d="M792 419C792 608 709 665 588 665H276C155 665 72 608 72 419V96C72 71 83 60 108 60H756C781 60 792 71 792 96ZM263 287V392C263 432 285 439 311 439H554C581 439 603 432 603 392V287Z" glyph-name="d" horiz-adv-x="864" unicode="d" /><glyph d="M800 432C800 467 794 472 759 471L449 452L464 627C468 662 463 669 428 669H286C251 669 246 662 249 627L265 462L121 471C86 472 80 467 80 432V288C80 253 86 247 121 249L265 258L249 93C246 58 251 51 286 51H428C463 51 468 58 464 93L449 267L759 249C794 247 800 253 800 288Z" glyph-name="dagger" horiz-adv-x="880" unicode="&#8224;" /><glyph d="M379 94 363 268 431 249C434 248 438 248 442 248C447 248 451 248 454 249L521 268L505 94C501 59 507 52 542 52H673C708 52 714 59 711 94L694 259L780 252C816 249 822 254 822 289V433C822 468 816 473 780 470L694 463L711 628C714 663 708 670 673 670H542C507 670 501 663 505 628L521 453L454 473H431L363 453L379 628C383 663 377 670 342 670H211C177 670 171 663 174 628L190 463L104 470C69 473 62 468 62 433V289C62 254 69 249 104 252L190 259L174 94C171 59 177 52 211 52H342C377 52 383 59 379 94Z" glyph-name="daggerdbl" horiz-adv-x="884" unicode="&#8225;" /><glyph d="M964 419C964 608 881 665 760 665H488C367 665 284 608 284 419V96C284 71 295 60 320 60H928C953 60 964 71 964 96ZM475 287V392C475 432 497 439 523 439H726C753 439 775 432 775 392V287ZM72 391C78 368 78 352 72 329L32 192C21 157 27 150 63 150H144C180 150 184 158 197 192L247 329C251 339 252 349 252 361C251 373 248 388 243 400L197 528C184 560 180 569 144 569H63C27 569 21 562 32 528Z" glyph-name="dcaron" horiz-adv-x="1036" unicode="&#271;" /><glyph d="M535 37V60H764C789 60 800 71 800 96V414C800 603 717 660 596 660H284C163 660 80 603 80 414V96C80 71 91 60 116 60H356V37C356 12 367 1 392 1H499C525 1 535 12 535 37ZM271 284V387C271 427 293 434 319 434H562C589 434 611 427 611 387V284H535V326C535 351 525 362 499 362H392C366 362 356 351 356 326V284Z" glyph-name="dcroat" horiz-adv-x="880" unicode="&#273;" /><glyph d="M362 556H178C109 556 62 518 62 360C62 202 109 163 178 163H362C431 163 478 202 478 360C478 518 431 556 362 556ZM313 310H228C213 310 200 318 200 360C200 404 213 410 228 410H313C329 410 340 402 340 360C340 318 329 310 313 310Z" glyph-name="degree" horiz-adv-x="540" unicode="&#176;" /><glyph d="M229 556C229 579 219 589 196 589H75C52 589 42 579 42 556V418C42 395 52 385 75 385H196C219 385 229 395 229 418ZM229 298C229 321 219 331 196 331H75C52 331 42 321 42 298V160C42 137 52 126 75 126H196C219 126 229 137 229 160Z" glyph-name="dieresis" horiz-adv-x="271" unicode="&#168;" /><glyph d="M452 99V621C452 646 442 657 416 657H322C296 657 286 646 286 621V99C286 74 297 63 322 63H416C442 63 452 74 452 99ZM246 441C246 466 235 477 210 477H87C61 477 51 466 51 441V279C51 254 61 243 87 243H210C235 243 246 254 246 279ZM687 441C687 466 676 477 651 477H528C502 477 492 466 492 441V279C492 254 502 243 528 243H651C676 243 687 254 687 279Z" glyph-name="divide" horiz-adv-x="738" unicode="&#247;" /><glyph d="M592 241 613 391C615 408 624 417 647 417C663 417 676 408 676 391V122C676 97 687 86 712 86H829C854 86 865 97 865 122V259H919C944 259 955 270 955 295V440C955 465 944 476 919 476H863C852 582 791 645 689 645H584C472 645 432 583 418 489L398 340C396 323 384 313 366 313C348 313 336 323 336 340V573C336 598 325 609 300 609H181C156 609 145 598 145 573V476H91C66 476 55 465 55 440V295C55 270 66 259 91 259H147C157 150 217 86 321 86H426C538 86 578 147 592 241Z" glyph-name="dollar" horiz-adv-x="1010" unicode="$" /><glyph d="M216 440C216 465 205 476 180 476H53C28 476 17 465 17 440V282C17 257 28 246 53 246H180C205 246 216 257 216 282Z" glyph-name="dotaccent" horiz-adv-x="233" unicode="&#729;" /><glyph d="M800 105V615C800 640 789 651 764 651H645C620 651 609 640 609 615V481H273V615C273 640 262 651 237 651H116C91 651 80 640 80 615V105C80 80 91 69 116 69H237C262 69 273 80 273 105V239H609V105C609 80 620 69 645 69H764C789 69 800 80 800 105Z" glyph-name="dotlessi" horiz-adv-x="880" unicode="&#305;" /><glyph d="M800 615C800 640 789 651 764 651H647C622 651 611 640 611 615V285H525V534C525 559 514 570 489 570H382C356 570 346 559 346 534V285H269V615C269 640 258 651 233 651H116C91 651 80 640 80 615V97C80 72 91 61 116 61H764C789 61 800 72 800 97Z" glyph-name="e" horiz-adv-x="880" unicode="e" /><glyph d="M948 614C948 639 937 650 912 650H799C774 650 763 639 763 614V284H687V533C687 558 676 569 651 569H556C530 569 520 558 520 533V284H453V614C453 639 442 650 417 650H304C279 650 268 639 268 614V96C268 71 279 60 304 60H912C937 60 948 71 948 96ZM192 533C189 558 181 569 156 569H60C37 569 24 558 27 535L70 186C73 161 81 150 106 150H202C225 150 238 161 235 184Z" glyph-name="eacute" horiz-adv-x="1028" unicode="&#233;" /><glyph d="M107 577H63C38 577 27 566 27 541V450C27 427 34 420 58 420H79C98 420 112 411 112 361C112 312 98 304 79 304H58C34 304 27 296 27 275V179C27 154 38 143 63 143H107C192 143 250 186 250 360C250 534 192 577 107 577ZM964 614C964 639 953 650 928 650H815C790 650 779 639 779 614V284H703V533C703 558 692 569 667 569H572C546 569 536 558 536 533V284H469V614C469 639 458 650 433 650H320C295 650 284 639 284 614V96C284 71 295 60 320 60H928C953 60 964 71 964 96Z" glyph-name="ebreve" horiz-adv-x="1044" unicode="&#277;" /><glyph d="M72 391C78 368 78 352 72 329L32 192C21 157 27 150 63 150H144C180 150 184 158 197 192L247 329C251 339 252 349 252 361C251 373 248 388 243 400L197 528C184 560 180 569 144 569H63C27 569 21 562 32 528ZM964 614C964 639 953 650 928 650H815C790 650 779 639 779 614V284H703V533C703 558 692 569 667 569H572C546 569 536 558 536 533V284H469V614C469 639 458 650 433 650H320C295 650 284 639 284 614V96C284 71 295 60 320 60H928C953 60 964 71 964 96Z" glyph-name="ecaron" horiz-adv-x="1044" unicode="&#283;" /><glyph d="M197 328C191 351 191 367 197 390L237 527C248 562 242 569 206 569H125C89 569 85 561 72 527L22 390C18 380 17 370 17 358C18 346 21 331 26 319L72 191C85 159 89 150 125 150H206C242 150 248 157 237 191ZM994 615C994 640 983 651 958 651H841C816 651 805 640 805 615V285H719V534C719 559 708 570 683 570H576C550 570 540 559 540 534V285H463V615C463 640 452 651 427 651H310C285 651 274 640 274 615V97C274 72 285 61 310 61H958C983 61 994 72 994 97Z" glyph-name="ecircumflex" horiz-adv-x="1074" unicode="&#234;" /><glyph d="M229 556C229 579 219 589 196 589H75C52 589 42 579 42 556V418C42 395 52 385 75 385H196C219 385 229 395 229 418ZM229 298C229 321 219 331 196 331H75C52 331 42 321 42 298V160C42 137 52 126 75 126H196C219 126 229 137 229 160ZM949 614C949 639 938 650 913 650H800C775 650 764 639 764 614V284H688V533C688 558 677 569 652 569H557C531 569 521 558 521 533V284H454V614C454 639 443 650 418 650H305C280 650 269 639 269 614V96C269 71 280 60 305 60H913C938 60 949 71 949 96Z" glyph-name="edieresis" horiz-adv-x="1029" unicode="&#235;" /><glyph d="M216 440C216 465 205 476 180 476H53C28 476 17 465 17 440V282C17 257 28 246 53 246H180C205 246 216 257 216 282ZM936 614C936 639 925 650 900 650H787C762 650 751 639 751 614V284H675V533C675 558 664 569 639 569H544C518 569 508 558 508 533V284H441V614C441 639 430 650 405 650H292C267 650 256 639 256 614V96C256 71 267 60 292 60H900C925 60 936 71 936 96Z" glyph-name="edotaccent" horiz-adv-x="1016" unicode="&#279;" /><glyph d="M235 535C238 558 225 569 202 569H106C81 569 73 558 70 533L27 184C24 161 37 150 60 150H156C181 150 189 161 192 186ZM948 614C948 639 937 650 912 650H799C774 650 763 639 763 614V284H687V533C687 558 676 569 651 569H556C530 569 520 558 520 533V284H453V614C453 639 442 650 417 650H304C279 650 268 639 268 614V96C268 71 279 60 304 60H912C937 60 948 71 948 96Z" glyph-name="egrave" horiz-adv-x="1028" unicode="&#232;" /><glyph d="M536 666C442 666 393 623 381 563C362 607 324 622 273 622H215C117 622 57 563 57 362C57 161 117 99 215 99H273C324 99 362 114 381 158C393 98 442 55 536 55H633C737 55 807 120 807 361C807 602 737 666 633 666ZM595 276H542C522 276 506 289 506 361C506 434 522 445 542 445H595C616 445 632 434 632 361C632 289 616 276 595 276ZM312 298H268C248 298 232 305 232 361C232 418 248 423 268 423H312C333 423 349 418 349 361C349 305 333 298 312 298Z" glyph-name="eight" horiz-adv-x="864" unicode="8" /><glyph d="M355 824C355 849 344 860 319 860H116C90 860 80 849 80 824V622C80 597 90 586 116 586H319C344 586 355 597 355 622ZM355 461C355 486 344 497 319 497H116C90 497 80 486 80 461V259C80 234 90 223 116 223H319C344 223 355 234 355 259ZM355 98C355 123 344 134 319 134H116C90 134 80 123 80 98V-104C80 -129 90 -140 116 -140H319C344 -140 355 -129 355 -104Z" glyph-name="ellipsis" horiz-adv-x="435" unicode="&#8230;" /><glyph d="M207 533C207 558 196 569 171 569H78C53 569 42 558 42 533V186C42 161 53 150 78 150H171C196 150 207 161 207 186ZM927 614C927 639 916 650 891 650H778C753 650 742 639 742 614V284H666V533C666 558 655 569 630 569H535C509 569 499 558 499 533V284H432V614C432 639 421 650 396 650H283C258 650 247 639 247 614V96C247 71 258 60 283 60H891C916 60 927 71 927 96Z" glyph-name="emacron" horiz-adv-x="1007" unicode="&#275;" /><glyph d="M1028 463H106C81 463 70 453 70 427V293C70 267 81 257 106 257H1028C1053 257 1064 268 1064 293V427C1064 453 1053 463 1028 463Z" glyph-name="emdash" horiz-adv-x="1134" unicode="&#8212;" /><glyph glyph-name="emspace" horiz-adv-x="1000" unicode="&#8193;" /><glyph d="M628 463H106C81 463 70 453 70 427V293C70 267 81 257 106 257H628C653 257 664 268 664 293V427C664 453 653 463 628 463Z" glyph-name="endash" horiz-adv-x="734" unicode="&#8211;" /><glyph d="M271 60H747C772 60 783 71 783 96V248C783 274 772 284 747 284H310C283 284 263 296 263 358C263 419 283 431 310 431H633C661 431 681 425 681 390V369C681 344 692 333 717 333H837C862 333 873 344 873 369V414C873 603 790 660 668 660H271C149 660 67 599 67 360C67 121 149 60 271 60Z" glyph-name="eng" horiz-adv-x="930" unicode="&#331;" /><glyph glyph-name="enspace" horiz-adv-x="500" unicode="&#8192;" /><glyph d="M724 60C749 60 760 71 760 96V414L811 405C904 391 946 420 946 506V617C946 643 938 650 912 650H840C814 650 806 642 806 614V573L760 580V614C760 639 749 650 724 650H611C586 650 575 639 575 614V284H499V533C499 558 488 569 463 569H368C342 569 332 558 332 533V284H265V614C265 639 254 650 229 650H116C91 650 80 639 80 614V96C80 71 91 60 116 60Z" glyph-name="eogonek" horiz-adv-x="963" unicode="&#281;" /><glyph d="M266 99V621C266 646 256 657 230 657H116C90 657 80 646 80 621V99C80 74 91 63 116 63H230C256 63 266 74 266 99ZM566 99V621C566 646 556 657 530 657H416C390 657 380 646 380 621V99C380 74 391 63 416 63H530C556 63 566 74 566 99Z" glyph-name="equal" horiz-adv-x="646" unicode="=" /><glyph d="M535 37V60H764C789 60 800 71 800 96V414C800 603 717 660 596 660H284C163 660 80 603 80 414V96C80 71 91 60 116 60H356V37C356 12 367 1 392 1H499C525 1 535 12 535 37ZM271 284V387C271 427 293 434 319 434H562C589 434 611 427 611 387V284H535V326C535 351 525 362 499 362H392C366 362 356 351 356 326V284Z" glyph-name="eth" horiz-adv-x="880" unicode="&#240;" /><glyph d="M513 438C513 463 502 475 477 476L91 490C66 491 55 481 55 456V265C55 240 66 230 91 231L477 246C502 247 513 258 513 283ZM775 453C775 478 764 489 739 489H608C582 489 572 478 572 453V269C572 244 582 233 608 233H739C764 233 775 244 775 269Z" glyph-name="exclam" horiz-adv-x="830" unicode="!" /><glyph d="M317 283C317 258 328 247 353 246L739 231C764 230 775 240 775 265V456C775 481 764 491 739 490L353 476C328 475 317 463 317 438ZM55 269C55 244 66 233 91 233H222C248 233 258 244 258 269V453C258 478 248 489 222 489H91C66 489 55 478 55 453Z" glyph-name="exclamdown" horiz-adv-x="830" unicode="&#161;" /><glyph d="M801 252C801 277 789 288 764 288H567V534C567 559 556 570 531 570H411C386 570 375 559 375 534V288H271V615C271 640 260 651 235 651H116C91 651 80 640 80 615V97C80 72 91 61 116 61H764C789 61 801 72 801 97Z" glyph-name="f" horiz-adv-x="856" unicode="f" /><glyph d="M800 467C800 587 736 662 634 662H495C389 662 336 595 336 487V297H271V590C271 615 260 626 235 626H116C91 626 80 615 80 590V106C80 81 91 70 116 70H490C515 70 526 81 526 106V407C526 423 533 434 549 434H588C604 434 611 423 611 407V96C611 71 622 60 647 60H764C789 60 800 71 800 96Z" glyph-name="five" horiz-adv-x="872" unicode="5" /><glyph d="M512 154V246H539C565 246 589 240 589 205V154C589 129 600 118 625 118H746C771 118 782 129 782 154V228C782 417 699 474 577 474H512V566C512 591 502 602 476 602H369C343 602 333 591 333 566V474H305C279 474 255 480 255 515V566C255 591 244 602 219 602H98C73 602 62 591 62 566V492C62 303 145 246 267 246H333V154C333 129 344 118 369 118H476C502 118 512 129 512 154Z" glyph-name="florin" horiz-adv-x="844" unicode="&#402;" /><glyph d="M620 434H751C776 434 787 445 787 470V624C787 649 776 660 751 660H103C78 660 67 649 67 624V470C67 445 78 434 103 434H411V318C411 299 398 287 377 287H103C78 287 67 276 67 251V96C67 71 78 60 103 60H454C568 60 620 112 620 242Z" glyph-name="four" horiz-adv-x="842" unicode="4" /><glyph d="M538 402H632C650 402 658 410 658 428V539C658 557 650 564 632 564H166C148 564 140 557 140 539V428C140 410 148 402 166 402H388V335C388 321 378 312 363 312H166C148 312 140 305 140 287V175C140 157 148 149 166 149H419C501 149 538 186 538 280Z" glyph-name="foursuperior" horiz-adv-x="798" unicode="&#8308;" /><glyph d="M761 206C786 201 797 217 797 242V357C797 382 786 388 761 393L113 513C88 518 77 502 77 477V362C77 337 88 331 113 326Z" glyph-name="fraction" horiz-adv-x="874" unicode="&#8260;" /><glyph d="M787 624C787 649 776 660 751 660H442C417 660 406 649 406 624V469C406 444 417 433 442 433H598V328C598 288 576 282 549 282H310C284 282 260 291 260 343V559C260 584 249 595 224 595H103C78 595 67 584 67 559V301C67 112 150 55 271 55H583C704 55 787 112 787 301Z" glyph-name="g" horiz-adv-x="859" unicode="g" /><glyph d="M107 577H63C38 577 27 566 27 541V450C27 427 34 420 58 420H79C98 420 112 411 112 361C112 312 98 304 79 304H58C34 304 27 296 27 275V179C27 154 38 143 63 143H107C192 143 250 186 250 360C250 534 192 577 107 577ZM964 624C964 649 953 660 928 660H639C614 660 603 649 603 624V469C603 444 614 433 639 433H775V328C775 288 753 282 726 282H527C501 282 477 291 477 343V559C477 584 466 595 441 595H320C295 595 284 584 284 559V301C284 112 367 55 488 55H760C881 55 964 112 964 301Z" glyph-name="gbreve" horiz-adv-x="1036" unicode="&#287;" /><glyph d="M197 328C191 351 191 367 197 390L237 527C248 562 242 569 206 569H125C89 569 85 561 72 527L22 390C18 380 17 370 17 358C18 346 21 331 26 319L72 191C85 159 89 150 125 150H206C242 150 248 157 237 191ZM954 624C954 649 943 660 918 660H629C604 660 593 649 593 624V469C593 444 604 433 629 433H765V328C765 288 743 282 716 282H517C491 282 467 291 467 343V559C467 584 456 595 431 595H310C285 595 274 584 274 559V301C274 112 357 55 478 55H750C871 55 954 112 954 301Z" glyph-name="gcircumflex" horiz-adv-x="1026" unicode="&#285;" /><glyph d="M747 624C747 649 736 660 711 660H422C397 660 386 649 386 624V469C386 444 397 433 422 433H558V328C558 288 536 282 509 282H310C284 282 260 291 260 343V559C260 584 249 595 224 595H103C78 595 67 584 67 559V301C67 112 150 55 271 55H543C664 55 747 112 747 301ZM1077 352C1077 428 1035 477 949 477H837C806 477 797 468 797 440V282C797 254 806 245 837 245H916C946 245 955 254 955 282V368H968C983 368 992 360 992 345V286C992 265 1001 256 1022 256H1046C1068 256 1077 265 1077 286Z" glyph-name="gcommaaccent" horiz-adv-x="1089" unicode="&#291;" /><glyph d="M216 440C216 465 205 476 180 476H53C28 476 17 465 17 440V282C17 257 28 246 53 246H180C205 246 216 257 216 282ZM936 624C936 649 925 660 900 660H611C586 660 575 649 575 624V469C575 444 586 433 611 433H747V328C747 288 725 282 698 282H499C473 282 449 291 449 343V559C449 584 438 595 413 595H292C267 595 256 584 256 559V301C256 112 339 55 460 55H732C853 55 936 112 936 301Z" glyph-name="gdotaccent" horiz-adv-x="1008" unicode="&#289;" /><glyph d="M764 287H265V356C265 373 278 377 293 375L460 352C497 347 516 357 516 389V425C516 441 523 452 539 452H592C608 452 615 441 615 425V373C615 348 626 337 651 337H764C789 337 800 348 800 373V491C800 601 736 670 634 670H511C423 670 372 630 363 578L271 596C156 618 80 570 80 452V96C80 72 92 60 116 60H764C789 60 800 71 800 96V251C800 276 789 287 764 287Z" glyph-name="germandbls" horiz-adv-x="880" unicode="&#223;" /><glyph d="M235 535C238 558 225 569 202 569H106C81 569 73 558 70 533L27 184C24 161 37 150 60 150H156C181 150 189 161 192 186Z" glyph-name="grave" horiz-adv-x="262" unicode="`" /><glyph d="M554 510C530 593 498 637 399 637H327C228 637 196 593 172 510L63 129C58 104 68 93 94 93H226C252 93 263 104 267 129L344 416C347 430 351 433 363 433C375 433 379 430 382 416L459 129C463 104 474 93 500 93H632C658 93 668 104 663 129Z" glyph-name="greater" horiz-adv-x="726" unicode="&gt;" /><glyph d="M267 129 344 416C347 430 351 433 363 433C375 433 379 430 382 416L459 129C463 104 474 93 500 93H756C782 93 792 104 792 129V601C792 626 782 637 756 637H642C616 637 606 626 606 601V328L554 510C530 593 498 637 399 637H327C228 637 196 593 172 510L63 129C58 104 68 93 94 93H226C252 93 263 104 267 129Z" glyph-name="greaterequal" horiz-adv-x="872" unicode="&#8805;" /><glyph d="M356 118C380 111 392 125 392 149V266C392 292 380 308 356 315L261 342C247 347 244 349 244 361C244 373 248 375 261 380L356 408C379 417 392 431 392 457V574C392 600 377 611 356 605L177 553C94 528 50 497 50 398V324C50 225 94 193 177 169ZM716 121C740 114 752 128 752 152V266C752 292 740 308 716 315L621 342C607 347 604 349 604 361C604 373 608 375 621 380L716 408C739 417 752 431 752 457V571C752 594 739 609 716 602L547 553C463 529 420 497 420 398V324C420 225 464 193 547 169Z" glyph-name="guillemotleft" horiz-adv-x="812" unicode="&#171;" /><glyph d="M456 117 635 168C718 192 762 224 762 323V397C762 496 718 528 635 552L456 604C432 611 420 599 420 573V456C420 430 433 416 456 407L551 379C564 374 568 372 568 360C568 348 565 346 551 341L456 314C432 307 420 291 420 265V148C420 122 432 110 456 117ZM265 168C348 192 392 224 392 323V397C392 496 349 528 265 552L96 601C72 609 60 596 60 570V456C60 430 73 416 96 407L191 379C204 375 208 372 208 360C208 348 205 345 191 341L96 314C72 307 60 291 60 265V151C60 125 72 113 96 120Z" glyph-name="guillemotright" horiz-adv-x="812" unicode="&#187;" /><glyph d="M447 116C472 111 483 121 483 147V274C483 300 472 311 447 315L281 342C267 344 264 349 264 361C264 373 267 378 281 380L447 407C472 411 483 422 483 448V575C483 601 472 611 447 606L187 553C102 536 60 497 60 398V324C60 225 102 186 187 169Z" glyph-name="guilsinglleft" horiz-adv-x="563" unicode="&#8249;" /><glyph d="M376 169C461 186 503 225 503 324V398C503 497 461 536 376 553L116 606C91 611 80 601 80 575V448C80 422 91 411 116 407L282 380C296 378 299 373 299 361C299 349 296 344 282 342L116 315C91 311 80 300 80 274V147C80 121 91 111 116 116Z" glyph-name="guilsinglright" horiz-adv-x="563" unicode="&#8250;" /><glyph d="M787 251C787 276 776 287 751 287H529V433H751C776 433 787 444 787 469V624C787 649 776 660 751 660H103C78 660 67 649 67 624V469C67 444 78 433 103 433H320V287H103C78 287 67 276 67 251V96C67 71 78 60 103 60H751C776 60 787 71 787 96Z" glyph-name="h" horiz-adv-x="854" unicode="h" /><glyph d="M375 46V59H764C789 59 800 70 800 95V247C800 272 789 283 764 283H652V436H764C789 436 800 447 800 472V624C800 649 789 660 764 660H375V673C375 698 365 709 339 709H242C216 709 206 698 206 673V660H116C91 660 80 649 80 624V472C80 447 91 436 116 436H206V283H116C91 283 80 272 80 247V95C80 70 91 59 116 59H206V46C206 21 217 10 242 10H339C365 10 375 21 375 46ZM453 436V283H375V436Z" glyph-name="hbar" horiz-adv-x="880" unicode="&#295;" /><glyph d="M954 251C954 276 943 287 918 287H716V433H918C943 433 954 444 954 469V624C954 649 943 660 918 660H310C285 660 274 649 274 624V469C274 444 285 433 310 433H507V287H310C285 287 274 276 274 251V96C274 71 285 60 310 60H918C943 60 954 71 954 96ZM197 328C191 351 191 367 197 390L237 527C248 562 242 569 206 569H125C89 569 85 561 72 527L22 390C18 380 17 370 17 358C18 346 21 331 26 319L72 191C85 159 89 150 125 150H206C242 150 248 157 237 191Z" glyph-name="hcircumflex" horiz-adv-x="1021" unicode="&#293;" /><glyph d="M280 365C302 359 314 375 314 398V504C314 529 302 534 278 540L71 593C49 599 37 583 37 560V454C37 429 49 424 73 418ZM280 105C302 99 314 115 314 138V244C314 269 302 274 278 280L71 333C49 339 37 323 37 300V194C37 169 49 164 73 158Z" glyph-name="hungarumlaut" horiz-adv-x="351" unicode="&#733;" /><glyph d="M76 258H344C369 258 380 268 380 294V428C380 454 369 464 344 464H76C51 464 40 453 40 428V294C40 268 51 258 76 258Z" glyph-name="hyphen" horiz-adv-x="420" unicode="-" /><glyph d="M800 105V615C800 640 789 651 764 651H645C620 651 609 640 609 615V481H273V615C273 640 262 651 237 651H116C91 651 80 640 80 615V105C80 80 91 69 116 69H237C262 69 273 80 273 105V239H609V105C609 80 620 69 645 69H764C789 69 800 80 800 105Z" glyph-name="i" horiz-adv-x="880" unicode="i" /><glyph d="M948 105V615C948 640 937 651 912 651H793C768 651 757 640 757 615V481H461V615C461 640 450 651 425 651H304C279 651 268 640 268 615V105C268 80 279 69 304 69H425C450 69 461 80 461 105V239H757V105C757 80 768 69 793 69H912C937 69 948 80 948 105ZM192 533C189 558 181 569 156 569H60C37 569 24 558 27 535L70 186C73 161 81 150 106 150H202C225 150 238 161 235 184Z" glyph-name="iacute" horiz-adv-x="1028" unicode="&#237;" /><glyph d="M107 577H63C38 577 27 566 27 541V450C27 427 34 420 58 420H79C98 420 112 411 112 361C112 312 98 304 79 304H58C34 304 27 296 27 275V179C27 154 38 143 63 143H107C192 143 250 186 250 360C250 534 192 577 107 577ZM964 105V615C964 640 953 651 928 651H809C784 651 773 640 773 615V481H477V615C477 640 466 651 441 651H320C295 651 284 640 284 615V105C284 80 295 69 320 69H441C466 69 477 80 477 105V239H773V105C773 80 784 69 809 69H928C953 69 964 80 964 105Z" glyph-name="ibreve" horiz-adv-x="1044" unicode="&#301;" /><glyph d="M197 328C191 351 191 367 197 390L237 527C248 562 242 569 206 569H125C89 569 85 561 72 527L22 390C18 380 17 370 17 358C18 346 21 331 26 319L72 191C85 159 89 150 125 150H206C242 150 248 157 237 191ZM954 105V615C954 640 943 651 918 651H799C774 651 763 640 763 615V481H467V615C467 640 456 651 431 651H310C285 651 274 640 274 615V105C274 80 285 69 310 69H431C456 69 467 80 467 105V239H763V105C763 80 774 69 799 69H918C943 69 954 80 954 105Z" glyph-name="icircumflex" horiz-adv-x="1034" unicode="&#238;" /><glyph d="M229 556C229 579 219 589 196 589H75C52 589 42 579 42 556V418C42 395 52 385 75 385H196C219 385 229 395 229 418ZM229 298C229 321 219 331 196 331H75C52 331 42 321 42 298V160C42 137 52 126 75 126H196C219 126 229 137 229 160ZM949 105V615C949 640 938 651 913 651H794C769 651 758 640 758 615V481H462V615C462 640 451 651 426 651H305C280 651 269 640 269 615V105C269 80 280 69 305 69H426C451 69 462 80 462 105V239H758V105C758 80 769 69 794 69H913C938 69 949 80 949 105Z" glyph-name="idieresis" horiz-adv-x="1029" unicode="&#239;" /><glyph d="M235 535C238 558 225 569 202 569H106C81 569 73 558 70 533L27 184C24 161 37 150 60 150H156C181 150 189 161 192 186ZM948 105V615C948 640 937 651 912 651H793C768 651 757 640 757 615V481H461V615C461 640 450 651 425 651H304C279 651 268 640 268 615V105C268 80 279 69 304 69H425C450 69 461 80 461 105V239H757V105C757 80 768 69 793 69H912C937 69 948 80 948 105Z" glyph-name="igrave" horiz-adv-x="1028" unicode="&#236;" /><glyph d="M751 60C776 60 787 71 787 96V447C787 579 709 660 577 660H103C78 660 67 649 67 624V469C67 444 78 433 103 433H527C575 433 594 408 594 360V96C594 71 605 60 630 60ZM457 251C457 276 446 287 421 287H103C78 287 67 276 67 251V96C67 71 78 60 103 60H421C446 60 457 71 457 96Z" glyph-name="ij" horiz-adv-x="859" unicode="&#307;" /><glyph d="M207 533C207 558 196 569 171 569H78C53 569 42 558 42 533V186C42 161 53 150 78 150H171C196 150 207 161 207 186ZM927 105V615C927 640 916 651 891 651H772C747 651 736 640 736 615V481H440V615C440 640 429 651 404 651H283C258 651 247 640 247 615V105C247 80 258 69 283 69H404C429 69 440 80 440 105V239H736V105C736 80 747 69 772 69H891C916 69 927 80 927 105Z" glyph-name="imacron" horiz-adv-x="1007" unicode="&#299;" /><glyph d="M159 615C148 615 141 608 141 596V124C141 111 148 105 159 105H254C265 105 272 111 272 124V596C272 608 265 615 254 615ZM318 544 283 525V183L479 145C493 143 515 143 534 144L835 165C846 166 858 172 858 187V237C858 251 847 257 832 257H556V268H650C662 268 669 273 669 284V329C669 342 659 347 644 348L539 356V366L626 360C637 359 645 367 645 380V426C645 440 634 445 620 446L520 453V464L606 458C617 457 623 466 623 476V525C623 535 610 544 600 544L360 554C343 554 327 549 318 544Z" glyph-name="indexdown" horiz-adv-x="999" unicode="&#57661;" /><glyph d="M272 207V595C272 607 266 613 254 613H159C148 613 141 607 141 595V208C141 195 148 188 159 188H255C266 188 272 195 272 207ZM480 109 521 134C528 138 530 149 525 162L478 286C463 325 462 347 473 370L495 418C505 441 512 459 541 460L839 471C851 471 858 479 858 489V543C858 553 853 559 844 561L506 607C483 610 461 610 437 599L283 530V309L347 255C370 236 380 219 404 185L455 114C461 105 472 104 480 109ZM500 255 564 285C586 295 604 315 604 347L603 451L543 449C522 448 516 439 507 420L485 373C490 368 500 365 514 365V360C493 359 486 356 475 343C474 327 479 312 486 292Z" glyph-name="indexdown.salt" horiz-adv-x="999" unicode="&#57672;" /><glyph d="M549 759C542 766 531 766 523 758L189 424C180 416 181 405 188 398L255 331C263 323 273 322 282 332L615 666C624 674 624 685 617 692ZM611 595 572 608 331 365 443 200C451 189 466 173 481 161L709 -38C716 -44 730 -48 740 -38L776 -2C786 7 782 20 772 30L577 226L584 233L651 166C659 157 668 156 676 165L707 195C716 206 713 216 704 228L634 307L642 314L698 249C706 240 717 240 727 249L759 281C769 292 765 302 755 314L690 389L697 397L754 332C760 323 772 325 778 332L813 367C820 375 818 389 811 397L648 573C635 586 621 593 611 595Z" glyph-name="indexdownleft" horiz-adv-x="1000" unicode="&#57664;" /><glyph d="M755 -38 776 -17C795 2 795 22 774 43L669 148C674 149 678 152 682 156L707 181C723 196 726 213 713 231C720 232 727 235 732 240L759 268C775 282 777 298 766 314C774 315 781 319 786 324L814 353C830 369 829 394 814 410L656 582C641 597 621 606 610 610L583 618L618 653C633 669 634 689 617 706L564 760C546 778 527 778 508 759L189 440C169 420 170 402 188 384L241 332C258 314 278 314 295 331L323 358L433 197C442 184 459 167 475 152L697 -41C716 -58 736 -57 755 -38ZM601 667 282 346C273 338 264 339 255 346L233 369C226 377 225 386 233 395L552 714C561 722 571 722 579 715L602 692C609 684 609 674 601 667ZM711 -24 488 169C474 181 459 197 451 208L338 374L565 600L604 589C613 587 628 579 641 567L798 395C806 387 806 375 798 367L771 340C765 334 756 330 749 337L750 335L697 398L683 382L743 312C753 301 754 292 745 282L719 257C711 249 704 247 695 253L642 315L627 300L691 226C701 215 702 206 692 196L669 172C661 165 653 163 646 172V171L584 233L569 218L759 28C770 18 771 7 761 -2L740 -23C730 -34 719 -31 711 -24Z" glyph-name="indexdownleft.outline" horiz-adv-x="1000" unicode="&#57666;" /><glyph d="M575 664 506 733C499 740 488 740 479 732L205 458C198 449 198 440 205 432L273 365C281 357 290 357 298 365L572 639C581 648 582 657 575 664ZM768 576 682 562C641 554 621 550 591 553L508 561L352 403L412 246C421 221 437 206 456 191L727 -15C734 -20 743 -20 750 -13L788 26C795 33 795 44 787 51L584 271C564 292 572 310 581 333L599 382C608 406 624 421 662 438L783 492C796 498 802 507 800 515L789 562C787 571 778 578 768 576ZM664 428C645 419 630 411 620 400C619 383 621 376 635 360L631 357C622 366 612 372 606 372L588 322C581 303 579 292 592 277L633 233L708 305C731 328 732 355 724 378L699 444Z" glyph-name="indexdownleft.salt" horiz-adv-x="1000" unicode="&#57673;" /><glyph d="M761 -13 790 15C801 26 803 44 792 57L639 224L711 296C734 318 747 342 734 378L710 449L780 481C800 490 814 503 810 522L799 566C795 584 782 593 761 590L670 575C641 571 614 565 586 567L518 572L572 627C588 641 590 662 572 680L519 733C501 751 482 751 463 733L204 473C184 453 186 436 204 418L256 365C274 347 293 347 311 364L341 394L397 247C410 216 429 197 451 180L716 -19C734 -33 749 -26 761 -13ZM557 639 296 380C288 372 279 372 271 380L248 403C241 410 240 420 248 428L507 688C516 696 526 696 534 689L558 664C565 657 564 648 557 639ZM726 0 461 198C442 213 428 229 417 253L357 410L498 552L582 546C612 543 641 549 673 554L764 569C771 571 777 566 778 561L789 522C791 512 786 505 772 500L652 445C621 431 603 419 589 389L564 333C554 310 555 284 575 263L770 51C778 44 778 33 771 26L748 3C740 -4 732 -5 726 0ZM591 276C578 292 576 307 584 325L604 371C611 372 620 366 630 357L633 360C622 373 617 386 618 398C628 411 641 418 661 426L690 440L714 370C723 347 714 328 698 313L625 239Z" glyph-name="indexdownleft.salt_outline" horiz-adv-x="1000" unicode="&#57682;" /><glyph d="M811 323C818 331 820 345 813 353L778 388C772 395 760 397 754 388L697 323L690 331L755 406C765 418 769 428 759 439L727 471C717 480 706 480 698 471L642 406L634 414L704 492C713 504 716 514 707 525L676 555C668 564 659 563 651 554L584 487L577 494L772 690C782 700 786 713 776 722L740 758C730 768 716 764 709 758L481 559C466 547 451 531 443 520L331 355L572 112L611 125C621 127 635 134 648 147ZM615 54 282 388C273 398 263 397 255 389L188 322C181 315 180 304 189 296L523 -38C531 -46 542 -46 549 -39L617 28C624 35 624 46 615 54Z" glyph-name="indexdownright" horiz-adv-x="1000" unicode="&#57665;" /><glyph d="M565 120 338 346 451 512C459 523 474 539 488 551L711 744C719 751 730 754 740 743L761 722C771 713 770 702 759 692L569 502L584 487L646 549V548C653 557 661 555 669 548L692 524C702 514 701 505 691 494L627 420L642 405L695 467C702 473 710 472 719 463L745 438C754 428 753 419 743 408L683 338L697 322L750 385L749 383C756 390 765 386 771 380L798 353C806 345 806 333 798 325L641 153C628 141 613 133 604 131ZM564 -40 617 14C634 31 633 51 618 67L583 102L610 110C621 114 641 123 656 138L814 310C829 326 830 351 814 367L786 396C781 401 774 405 766 406C777 422 775 438 759 452L732 480C727 485 720 488 713 489C726 507 723 524 707 539L682 564C678 568 674 571 669 572L774 677C795 698 795 718 776 737L755 758C736 777 716 778 697 761L475 568C459 553 442 536 433 523L323 362L295 389C278 406 258 406 241 388L188 336C170 318 169 300 189 280L508 -39C527 -58 546 -58 564 -40ZM602 28 579 5C571 -2 561 -2 552 6L233 325C225 334 226 343 233 351L255 374C264 381 273 382 282 374L601 53C609 46 609 36 602 28Z" glyph-name="indexdownright.outline" horiz-adv-x="1000" unicode="&#57667;" /><glyph d="M789 158 800 205C802 213 796 222 783 228L662 282C624 299 608 314 599 338L581 387C572 410 564 428 584 449L787 669C795 676 795 687 788 694L750 733C743 740 734 740 727 735L456 529C437 514 421 499 412 474L352 317L508 159L591 167C621 170 641 166 682 158L768 144C778 142 787 149 789 158ZM699 276 724 342C732 365 731 392 708 415L633 487L592 443C579 428 581 417 588 398L606 348C612 348 622 354 631 363L635 360C621 344 619 337 620 320C630 309 645 301 664 292ZM572 81 298 355C290 363 281 363 273 355L205 288C198 280 198 271 205 262L479 -12C488 -20 499 -20 506 -13L575 56C582 63 581 72 572 81Z" glyph-name="indexdownright.salt" horiz-adv-x="1000" unicode="&#57674;" /><glyph d="M764 151 673 166C641 171 612 177 582 174L498 168L357 310L417 467C428 491 442 507 461 522L726 720C732 725 740 724 748 717L771 694C778 687 778 676 770 669L575 457C555 436 554 410 564 387L589 331C603 301 621 289 652 275L772 220C786 215 791 208 789 198L778 159C777 154 771 149 764 151ZM661 294C641 302 628 309 618 322C617 334 622 347 633 360L630 363C620 354 611 348 604 349L584 395C576 413 578 428 591 444L625 481L698 407C714 392 723 373 714 350L690 280ZM558 56 534 31C526 24 516 24 507 32L248 292C240 300 241 310 248 317L271 340C279 348 288 348 296 340L557 81C564 72 565 63 558 56ZM519 -13 572 40C590 58 588 79 572 93L518 148L586 153C614 155 641 149 670 145L761 130C782 127 795 136 799 154L810 198C814 217 800 230 780 239L710 271L734 342C747 378 734 402 711 424L639 496L792 663C803 676 801 694 790 705L761 733C749 746 734 753 716 739L451 540C429 523 410 504 397 473L341 326L311 356C293 373 274 373 256 355L204 302C186 284 184 267 204 247L463 -13C482 -31 501 -31 519 -13Z" glyph-name="indexdownright.salt_outline" horiz-adv-x="1000" unicode="&#57683;" /><glyph d="M727 596V124C727 111 734 105 745 105H840C851 105 858 111 858 124V596C858 608 851 615 840 615H745C734 615 727 608 727 596ZM399 544C389 544 376 535 376 525V476C376 466 382 457 393 458L479 464V453L379 446C365 445 354 440 354 426V380C354 367 362 359 373 360L460 366V356L355 348C340 347 330 342 330 329V284C330 273 337 268 349 268H443V257H167C152 257 141 251 141 237V187C141 172 154 166 164 165L465 144C484 143 506 143 520 145L716 183V525L681 544C672 549 656 554 639 554Z" glyph-name="indexup" horiz-adv-x="999" unicode="&#57660;" /><glyph d="M519 611 478 586C471 582 469 571 474 558L521 434C536 395 537 373 526 350L504 302C494 279 487 261 458 260L160 249C148 249 141 241 141 231V177C141 167 146 161 155 159L493 113C516 110 538 110 562 121L716 190V411L652 465C629 484 619 501 595 535L544 606C538 615 527 616 519 611ZM727 513V125C727 113 733 107 745 107H840C851 107 858 113 858 125V512C858 525 851 532 840 532H744C733 532 727 525 727 513ZM499 465 435 435C413 425 395 405 395 373L396 269L456 271C477 272 483 281 492 300L514 347C509 352 499 355 485 355V360C506 361 513 364 524 377C525 393 520 408 513 428Z" glyph-name="indexup.salt" horiz-adv-x="999" unicode="&#57675;" /><glyph d="M899 311C906 318 906 329 898 337L564 671C556 680 545 679 538 672L471 605C463 597 462 587 472 578L806 245C814 236 825 236 832 243ZM735 249 748 288 505 529 340 417C329 409 313 394 301 379L102 151C96 144 92 130 102 120L138 84C147 74 160 78 170 88L366 283L373 276L306 209C297 201 296 192 305 184L335 153C346 144 356 147 368 156L446 226L454 218L389 162C380 154 380 143 389 133L421 101C432 91 442 95 454 105L529 170L537 163L472 106C463 100 465 88 472 82L507 47C515 40 529 42 537 49L713 212C726 225 733 239 735 249Z" glyph-name="indexupleft" horiz-adv-x="1000" unicode="&#57662;" /><glyph d="M807 259 486 578C478 587 479 596 486 605L509 627C517 634 526 635 535 627L854 307C862 299 862 289 855 281L832 258C824 251 814 251 807 259ZM507 62 480 89C474 95 470 104 477 111L475 110L538 163L522 177L452 117C441 107 432 106 422 115L397 141C389 149 387 157 393 165L455 218L440 233L366 169C355 159 346 158 336 168L312 191C305 199 303 207 312 214H311L373 276L358 291L168 101C158 90 147 89 138 99L117 120C106 130 109 141 116 149L309 372C321 386 337 401 348 409L514 522L740 295L729 256C727 247 719 232 707 219L535 62C527 54 515 54 507 62ZM550 46 722 204C737 219 746 239 750 250L758 277L793 242C809 227 829 226 846 243L900 296C918 314 918 333 899 352L580 671C560 691 542 690 524 672L472 619C454 601 454 582 471 565L498 537L337 427C324 418 307 401 292 385L99 163C82 144 83 124 102 105L123 84C142 65 162 65 183 86L288 191C289 186 292 182 296 178L321 153C336 137 353 134 371 147C372 140 375 133 380 128L408 101C422 86 438 83 454 94C455 86 460 79 464 74L493 46C509 30 534 31 550 46Z" glyph-name="indexupleft.outline" horiz-adv-x="1000" unicode="&#57668;" /><glyph d="M804 285 873 354C880 361 880 372 872 381L598 655C589 662 580 662 572 655L505 587C497 579 497 570 505 562L779 288C788 279 797 278 804 285ZM716 92 702 178C694 219 690 239 693 269L701 352L543 508L386 448C361 439 346 423 331 404L125 133C120 126 120 117 127 110L166 72C173 65 184 65 191 73L411 276C432 296 450 288 473 279L522 261C546 252 561 236 578 198L632 76C638 64 647 58 655 60L702 71C711 73 718 82 716 92ZM568 196C559 215 551 230 540 240C523 241 516 239 500 225L497 229C506 238 512 248 512 254L462 272C443 279 432 281 417 268L373 227L445 152C468 129 495 128 518 136L584 160Z" glyph-name="indexupleft.salt" horiz-adv-x="1000" unicode="&#57676;" /><glyph d="M779 303 520 564C512 572 512 580 520 589L543 612C550 619 560 620 568 612L828 353C836 344 836 334 829 326L804 302C797 295 788 296 779 303ZM640 88 585 208C571 239 559 257 529 271L473 296C450 306 424 305 403 285L191 90C184 82 173 82 166 89L143 112C136 120 135 128 140 134L338 399C353 418 369 432 393 443L550 503L692 362L686 278C683 248 689 219 694 187L709 96C711 89 706 83 701 82L662 71C652 69 645 74 640 88ZM662 50 706 61C724 65 733 78 730 99L715 190C711 219 705 246 707 274L712 342L767 288C781 272 802 270 820 288L873 341C891 359 891 378 873 397L613 656C593 676 576 674 558 656L505 604C487 586 487 567 504 549L534 519L387 463C356 450 337 431 320 409L121 144C107 126 114 111 127 99L155 70C166 59 184 57 197 68L364 221L436 149C458 126 482 113 518 126L589 150L621 80C630 60 643 46 662 50ZM453 162 379 235 416 269C432 282 447 284 465 276L511 256C513 250 507 241 497 230L500 227C512 237 524 242 538 242C551 232 558 219 566 199L580 170L510 146C487 137 468 146 453 162Z" glyph-name="indexupleft.salt_outline" horiz-adv-x="1000" unicode="&#57684;" /><glyph d="M537 671C529 678 515 680 507 673L472 638C465 632 463 620 472 614L537 557L529 550L454 615C442 625 432 629 421 619L389 587C380 577 380 566 389 558L454 502L446 494L368 564C356 573 346 576 335 567L305 536C296 528 297 519 306 511L373 444L366 437L170 632C160 642 147 646 138 636L102 600C92 590 96 576 102 569L301 341C313 326 329 311 340 303L505 191L748 432L735 471C733 481 726 495 713 508ZM806 476 472 142C462 133 463 123 471 115L538 48C545 41 556 40 564 49L898 383C906 392 906 402 899 409L832 477C825 484 814 484 806 476Z" glyph-name="indexupright" horiz-adv-x="1000" unicode="&#57663;" /><glyph d="M580 49 899 368C918 387 918 406 900 424L846 477C829 494 809 493 793 478L758 443L750 470C746 481 737 501 722 516L550 674C534 689 509 690 493 674L464 646C460 641 455 634 454 626C438 637 422 634 408 619L380 592C375 587 372 580 371 573C353 586 336 583 321 567L296 542C292 538 289 534 288 529L183 634C162 655 142 655 123 636L102 615C83 596 82 576 99 557L292 335C307 319 324 302 337 293L498 183L471 155C454 138 454 119 472 101L524 48C542 30 560 29 580 49ZM514 198 348 311C337 319 321 334 309 348L116 571C109 579 106 590 117 600L138 621C147 631 158 630 168 619L358 429L373 444L311 506H312C303 513 305 521 312 529L336 552C346 562 355 561 366 551L440 487L455 502L393 555C387 562 388 570 397 579L422 605C432 614 441 613 452 603L522 543L538 557L475 610L477 609C470 616 474 625 480 631L507 658C515 666 527 666 535 658L707 501C719 488 727 473 729 464L740 425ZM832 462 855 439C862 431 862 421 854 413L535 93C526 85 517 86 509 93L486 115C479 124 478 133 486 142L807 461C814 469 824 469 832 462Z" glyph-name="indexupright.outline" horiz-adv-x="1000" unicode="&#57669;" /><glyph d="M702 649 655 660C647 662 638 656 632 644L578 522C561 484 546 468 522 459L473 441C450 432 432 424 411 444L191 647C184 655 173 655 166 648L127 610C120 603 120 594 125 587L331 316C346 297 361 281 386 272L543 212L701 368L693 451C690 481 694 501 702 542L716 628C718 638 711 647 702 649ZM584 560 518 584C495 592 468 591 445 568L373 493L417 452C432 439 443 441 462 448L512 466C512 472 506 482 497 491L500 495C516 481 523 479 540 480C551 490 559 505 568 524ZM779 432 505 158C497 150 497 141 505 133L572 65C580 58 589 58 598 65L872 339C880 348 880 359 873 366L804 435C797 442 788 441 779 432Z" glyph-name="indexupright.salt" horiz-adv-x="1000" unicode="&#57677;" /><glyph d="M613 64 873 323C891 342 891 361 873 379L820 432C802 450 781 448 767 432L712 378L707 446C705 474 711 501 715 530L730 621C733 642 724 655 706 659L662 670C643 674 630 660 621 640L589 570L518 594C482 607 458 594 436 571L364 499L197 652C184 663 166 661 155 650L127 621C114 609 107 594 121 576L320 311C337 289 356 270 387 257L534 201L504 171C487 153 487 134 505 116L558 64C576 46 593 44 613 64ZM393 277C369 288 353 302 338 321L140 586C135 592 136 600 143 608L166 631C173 638 184 638 191 630L403 435C424 415 450 414 473 424L529 449C559 463 571 481 585 512L640 632C645 646 652 651 662 649L701 638C706 637 711 631 709 624L694 533C689 501 683 472 686 442L692 358L550 217ZM416 451 379 485 453 558C468 574 487 583 510 574L580 550L566 521C558 501 551 488 538 478C526 477 513 482 500 493L497 490C507 479 513 470 511 464L465 444C447 436 432 438 416 451ZM804 418 829 394C836 386 836 376 828 367L568 108C560 100 550 101 543 108L520 131C512 140 512 148 520 156L779 417C788 424 797 425 804 418Z" glyph-name="indexupright.salt_outline" horiz-adv-x="1000" unicode="&#57685;" /><glyph d="M470 -34C570 -34 637 9 637 185C637 272 618 322 586 350C620 381 640 438 640 537C640 712 573 754 473 754H271C171 754 104 712 104 537C104 447 124 395 158 367C126 336 107 280 107 185C107 9 174 -34 274 -34ZM265 509C265 560 283 567 306 567H438C462 567 479 560 479 509C479 469 466 463 420 457L336 447C279 439 265 450 265 509ZM477 213C477 162 458 155 435 155H309C285 155 268 162 268 213C268 253 281 259 326 265L405 275C462 283 477 272 477 213Z" glyph-name="infinity" horiz-adv-x="744" unicode="&#8734;" /><glyph d="M257 246H709C735 246 759 240 759 205V174C759 149 770 138 795 138H916C941 138 952 149 952 174V228C952 417 869 474 747 474H295C269 474 245 480 245 515V546C245 571 234 582 209 582H88C63 582 52 571 52 546V492C52 303 135 246 257 246Z" glyph-name="integral" horiz-adv-x="1004" unicode="&#8747;" /><glyph d="M273 105V239H569V105C569 80 580 69 605 69H724C749 69 760 80 760 105V415L811 406C904 392 946 421 946 507V618C946 644 938 651 912 651H840C814 651 806 643 806 615V574L760 581V615C760 640 749 651 724 651H605C580 651 569 640 569 615V481H273V615C273 640 262 651 237 651H116C91 651 80 640 80 615V105C80 80 91 69 116 69H237C262 69 273 80 273 105Z" glyph-name="iogonek" horiz-adv-x="963" unicode="&#303;" /><glyph d="M214 359 216 375C228 455 230 469 211 532C202 555 195 568 170 568H69C44 568 36 556 43 532C61 473 64 469 51 381L48 359L46 342C34 262 32 249 51 186C60 163 67 150 92 150H193C218 150 226 162 219 186C203 239 199 255 210 331ZM938 105V615C938 640 927 651 902 651H783C758 651 747 640 747 615V481H451V615C451 640 440 651 415 651H294C269 651 258 640 258 615V105C258 80 269 69 294 69H415C440 69 451 80 451 105V239H747V105C747 80 758 69 783 69H902C927 69 938 80 938 105Z" glyph-name="itilde" horiz-adv-x="1018" unicode="&#297;" /><glyph d="M586 660H91C66 660 55 649 55 624V467C55 442 66 431 91 431H546C573 431 593 422 593 355C593 284 573 277 546 277H424C398 277 388 266 388 241V96C388 71 398 60 424 60H586C708 60 791 116 791 357C791 600 708 660 586 660Z" glyph-name="j" horiz-adv-x="848" unicode="j" /><glyph d="M197 418C191 441 191 457 197 480L237 617C248 652 242 659 206 659H125C89 659 85 651 72 617L22 480C18 470 17 460 17 448C18 436 21 421 26 409L72 281C85 249 89 240 125 240H206C242 240 248 247 237 281ZM765 660H310C285 660 274 649 274 624V467C274 442 285 431 310 431H725C752 431 772 422 772 355C772 284 752 277 725 277H603C577 277 567 266 567 241V96C567 71 577 60 603 60H765C887 60 969 116 969 357C969 600 887 660 765 660Z" glyph-name="jcircumflex" horiz-adv-x="1026" unicode="&#309;" /><glyph d="M787 252C787 277 776 288 751 288H522V403C522 424 534 435 556 435H751C776 435 787 446 787 471V625C787 650 776 661 751 661H469C389 661 337 613 333 538L100 640C79 649 67 641 67 618V464C67 438 76 424 100 414L333 311V288H103C78 288 67 277 67 252V97C67 72 78 61 103 61H751C776 61 787 72 787 97Z" glyph-name="k" horiz-adv-x="854" unicode="k" /><glyph d="M747 251C747 276 736 287 711 287H502V402C502 423 514 434 536 434H711C736 434 747 445 747 470V624C747 649 736 660 711 660H449C369 660 317 612 313 537L100 639C79 648 67 640 67 617V463C67 437 76 423 100 413L313 310V287H103C78 287 67 276 67 251V96C67 71 78 60 103 60H711C736 60 747 71 747 96ZM1077 352C1077 428 1035 477 949 477H837C806 477 797 468 797 440V282C797 254 806 245 837 245H916C946 245 955 254 955 282V368H968C983 368 992 360 992 345V286C992 265 1001 256 1022 256H1046C1068 256 1077 265 1077 286Z" glyph-name="kcommaaccent" horiz-adv-x="1089" unicode="&#311;" /><glyph d="M775 625C775 650 764 661 739 661H424C399 661 388 650 388 625V480C388 455 399 444 424 444H586V288H91C66 288 55 277 55 252V97C55 72 66 61 91 61H739C764 61 775 72 775 97Z" glyph-name="l" horiz-adv-x="855" unicode="l" /><glyph d="M192 443C189 468 181 479 156 479H60C37 479 24 468 27 445L70 96C73 71 81 60 106 60H202C225 60 238 71 235 94ZM948 624C948 649 937 660 912 660H607C582 660 571 649 571 624V479C571 454 582 443 607 443H759V287H304C279 287 268 276 268 251V96C268 71 279 60 304 60H912C937 60 948 71 948 96Z" glyph-name="lacute" horiz-adv-x="1028" unicode="&#314;" /><glyph d="M787 625C787 650 776 661 751 661H436C411 661 400 650 400 625V480C400 455 411 444 436 444H598V288H103C78 288 67 277 67 252V97C67 72 78 61 103 61H751C776 61 787 72 787 97ZM335 595C335 620 323 625 299 631L103 678C79 684 67 667 67 642V504C67 479 78 472 103 468L299 435C324 431 335 446 335 471Z" glyph-name="lcaron" horiz-adv-x="867" unicode="&#318;" /><glyph d="M735 624C735 649 724 660 699 660H394C369 660 358 649 358 624V479C358 454 369 443 394 443H546V287H91C66 287 55 276 55 251V96C55 71 66 60 91 60H699C724 60 735 71 735 96ZM1065 352C1065 428 1023 477 937 477H825C794 477 785 468 785 440V282C785 254 794 245 825 245H904C934 245 943 254 943 282V368H956C971 368 980 360 980 345V286C980 265 989 256 1010 256H1034C1056 256 1065 265 1065 286Z" glyph-name="lcommaaccent" horiz-adv-x="1077" unicode="&#316;" /><glyph d="M735 624C735 649 724 660 699 660H394C369 660 358 649 358 624V479C358 454 369 443 394 443H546V287H91C66 287 55 276 55 251V96C55 71 66 60 91 60H699C724 60 735 71 735 96ZM995 456C995 481 984 492 959 492H832C807 492 796 481 796 456V298C796 273 807 262 832 262H959C984 262 995 273 995 298Z" glyph-name="ldot" horiz-adv-x="1012" unicode="&#320;" /><glyph d="M663 591C668 616 658 627 632 627H500C474 627 463 616 459 591L382 304C379 290 375 287 363 287C351 287 347 290 344 304L267 591C263 616 252 627 226 627H94C68 627 58 616 63 591L172 210C196 127 228 83 327 83H399C498 83 530 127 554 210Z" glyph-name="less" horiz-adv-x="726" unicode="&lt;" /><glyph d="M554 210 606 392V119C606 94 617 83 642 83H756C782 83 792 94 792 119V591C792 616 782 627 756 627H500C474 627 463 616 459 591L382 304C379 290 375 287 363 287C351 287 347 290 344 304L267 591C263 616 252 627 226 627H94C68 627 58 616 63 591L172 210C196 127 228 83 327 83H399C498 83 530 127 554 210Z" glyph-name="lessequal" horiz-adv-x="872" unicode="&#8804;" /><glyph d="M502 621C502 647 491 657 466 657H108C82 657 72 646 72 621V99C72 74 83 63 108 63H222C248 63 258 74 258 99V461H466C491 461 502 471 502 497Z" glyph-name="logicalnot" horiz-adv-x="574" unicode="&#172;" /><glyph d="M67 244C67 218 76 204 100 193L358 77C385 65 395 63 416 63H439C460 63 470 65 497 77L754 193C778 204 787 217 787 243V474C787 500 778 514 754 525L497 641C470 653 460 655 439 655H416C395 655 385 653 358 641L100 525C76 514 67 501 67 475ZM428 439 567 381C580 375 584 373 584 361V356C584 344 580 342 567 336L426 278L287 336C274 342 270 344 270 356V361C270 373 274 375 287 381Z" glyph-name="lozenge" horiz-adv-x="854" unicode="&#9674;" /><glyph d="M492 38 488 61H739C764 61 775 72 775 97V625C775 650 764 661 739 661H424C399 661 388 650 388 625V480C388 455 399 444 424 444H586V288H451L442 346C438 371 432 382 406 382H299C273 382 259 371 263 346L272 288H91C66 288 55 277 55 252V97C55 72 66 61 91 61H309L313 38C317 13 324 2 349 2H456C482 2 496 13 492 38Z" glyph-name="lslash" horiz-adv-x="855" unicode="&#322;" /><glyph d="M787 207C787 232 776 243 751 243L458 246H416L526 285C549 298 558 312 558 338V365C558 391 549 405 526 418L416 456H458L751 460C776 460 787 471 787 496V647C787 673 776 683 751 683L103 679C78 679 67 669 67 643V503C67 477 75 461 97 447L273 369V345L97 275C74 262 67 236 67 210V79C67 54 78 43 103 43L751 39C776 39 787 50 787 75Z" glyph-name="m" horiz-adv-x="854" unicode="m" /><glyph d="M207 533C207 558 196 569 171 569H78C53 569 42 558 42 533V186C42 161 53 150 78 150H171C196 150 207 161 207 186Z" glyph-name="macron" horiz-adv-x="249" unicode="&#175;" /><glyph d="M266 99V621C266 646 256 657 230 657H116C90 657 80 646 80 621V99C80 74 91 63 116 63H230C256 63 266 74 266 99Z" glyph-name="minus" horiz-adv-x="346" unicode="&#8722;" /><glyph d="M447 422C447 455 439 461 406 464L113 492C80 495 72 485 72 453V288C72 255 80 249 113 248L406 236C439 235 447 245 447 278Z" glyph-name="minute" horiz-adv-x="519" unicode="&#8242;" /><glyph d="M691 64C716 64 727 75 727 100V255C727 280 716 291 691 291H644C649 317 652 346 652 381C652 605 570 660 448 660H103C78 660 67 649 67 624V472C67 446 78 436 103 436H419C446 436 466 425 466 363C466 302 446 291 419 291H103C78 291 67 280 67 255V100C67 75 78 64 103 64Z" glyph-name="mu" horiz-adv-x="794" unicode="&#181;" /><glyph d="M207 90 346 229 485 90C502 72 518 72 536 90L616 170C635 189 634 204 616 221L477 360L616 499C634 516 635 531 616 550L536 630C517 649 502 648 485 630L346 491L207 630C190 648 175 649 156 630L76 550C57 531 58 516 76 499L215 360L76 221C58 204 58 188 76 170L156 90C175 71 190 72 207 90Z" glyph-name="multiply" horiz-adv-x="692" unicode="&#215;" /><glyph d="M787 246C787 271 776 282 751 282H421L628 439H751C776 439 787 450 787 475V625C787 650 776 661 751 661H103C78 661 67 650 67 625V475C67 450 78 439 103 439H316L94 259C74 242 67 226 67 200V96C67 71 78 60 103 60H751C776 60 787 71 787 96Z" glyph-name="n" horiz-adv-x="854" unicode="n" /><glyph d="M192 533C189 558 181 569 156 569H60C37 569 24 558 27 535L70 186C73 161 81 150 106 150H202C225 150 238 161 235 184ZM948 246C948 271 937 282 912 282H622L809 439H912C937 439 948 450 948 475V625C948 650 937 661 912 661H304C279 661 268 650 268 625V475C268 450 279 439 304 439H497L295 259C275 242 268 226 268 200V96C268 71 279 60 304 60H912C937 60 948 71 948 96Z" glyph-name="nacute" horiz-adv-x="1015" unicode="&#324;" /><glyph d="M72 391C78 368 78 352 72 329L32 192C21 157 27 150 63 150H144C180 150 184 158 197 192L247 329C251 339 252 349 252 361C251 373 248 388 243 400L197 528C184 560 180 569 144 569H63C27 569 21 562 32 528ZM964 246C964 271 953 282 928 282H638L825 439H928C953 439 964 450 964 475V625C964 650 953 661 928 661H320C295 661 284 650 284 625V475C284 450 295 439 320 439H513L311 259C291 242 284 226 284 200V96C284 71 295 60 320 60H928C953 60 964 71 964 96Z" glyph-name="ncaron" horiz-adv-x="1031" unicode="&#328;" /><glyph d="M747 246C747 271 736 282 711 282H421L608 439H711C736 439 747 450 747 475V625C747 650 736 661 711 661H103C78 661 67 650 67 625V475C67 450 78 439 103 439H296L94 259C74 242 67 226 67 200V96C67 71 78 60 103 60H711C736 60 747 71 747 96ZM1077 352C1077 428 1035 477 949 477H837C806 477 797 468 797 440V282C797 254 806 245 837 245H916C946 245 955 254 955 282V368H968C983 368 992 360 992 345V286C992 265 1001 256 1022 256H1046C1068 256 1077 265 1077 286Z" glyph-name="ncommaaccent" horiz-adv-x="1089" unicode="&#326;" /><glyph d="M327 439C354 439 370 423 370 365C370 305 354 281 327 281H280C254 281 238 305 238 365C238 423 254 439 279 439ZM535 289C535 352 528 401 514 439H542C591 439 602 425 602 376V167C602 142 613 131 638 131H756C781 131 793 141 793 167V419C793 608 709 665 587 665H259C137 665 57 604 57 358C57 128 137 55 259 55H355C474 55 535 108 535 289Z" glyph-name="nine" horiz-adv-x="860" unicode="9" /><glyph d="M335 99V272L449 252V99C449 74 460 63 485 63H599C625 63 635 74 635 99V221L686 212C711 209 722 223 722 248V373C722 398 711 406 686 409L635 418V621C635 646 625 657 599 657H485C459 657 449 646 449 621V449L335 469V621C335 646 325 657 299 657H185C159 657 149 646 149 621V500L98 509C73 513 62 498 62 473V348C62 323 73 316 98 312L149 303V99C149 74 160 63 185 63H299C325 63 335 74 335 99Z" glyph-name="notequal" horiz-adv-x="784" unicode="&#8800;" /><glyph d="M214 359 216 375C228 455 230 469 211 532C202 555 195 568 170 568H69C44 568 36 556 43 532C61 473 64 469 51 381L48 359L46 342C34 262 32 249 51 186C60 163 67 150 92 150H193C218 150 226 162 219 186C203 239 199 255 210 331ZM938 246C938 271 927 282 902 282H612L799 439H902C927 439 938 450 938 475V625C938 650 927 661 902 661H294C269 661 258 650 258 625V475C258 450 269 439 294 439H487L285 259C265 242 258 226 258 200V96C258 71 269 60 294 60H902C927 60 938 71 938 96Z" glyph-name="ntilde" horiz-adv-x="1005" unicode="&#241;" /><glyph d="M486 297 389 311V424L486 410ZM665 56V94L764 80C789 77 800 91 800 116V221C800 246 789 254 764 257L665 271V384L764 370C789 367 800 381 800 406V511C800 536 789 544 764 547L665 561V628C665 653 655 664 629 664H522C496 664 486 653 486 628V587L389 601V664C389 689 379 700 353 700H246C220 700 210 689 210 664V627L116 640C91 643 80 629 80 604V499C80 474 91 466 116 463L210 450V337L116 350C91 353 80 339 80 314V209C80 184 91 176 116 173L210 160V92C210 67 221 56 246 56H353C379 56 389 67 389 92V134L486 120V56C486 31 497 20 522 20H629C655 20 665 31 665 56Z" glyph-name="numbersign" horiz-adv-x="880" unicode="#" /><glyph d="M603 664H262C140 664 57 605 57 360C57 115 140 56 262 56H603C725 56 807 115 807 360C807 605 725 664 603 664ZM567 283H298C272 283 252 294 252 360C252 427 272 438 298 438H567C594 438 614 427 614 360C614 294 594 283 567 283Z" glyph-name="o" horiz-adv-x="864" unicode="o" /><glyph d="M192 533C189 558 181 569 156 569H60C37 569 24 558 27 535L70 186C73 161 81 150 106 150H202C225 150 238 161 235 184ZM759 664H458C336 664 253 605 253 360C253 115 336 56 458 56H759C881 56 963 115 963 360C963 605 881 664 759 664ZM723 283H494C468 283 448 294 448 360C448 427 468 438 494 438H723C750 438 770 427 770 360C770 294 750 283 723 283Z" glyph-name="oacute" horiz-adv-x="1020" unicode="&#243;" /><glyph d="M107 577H63C38 577 27 566 27 541V450C27 427 34 420 58 420H79C98 420 112 411 112 361C112 312 98 304 79 304H58C34 304 27 296 27 275V179C27 154 38 143 63 143H107C192 143 250 186 250 360C250 534 192 577 107 577ZM775 664H474C352 664 269 605 269 360C269 115 352 56 474 56H775C897 56 979 115 979 360C979 605 897 664 775 664ZM739 283H510C484 283 464 294 464 360C464 427 484 438 510 438H739C766 438 786 427 786 360C786 294 766 283 739 283Z" glyph-name="obreve" horiz-adv-x="1036" unicode="&#335;" /><glyph d="M197 328C191 351 191 367 197 390L237 527C248 562 242 569 206 569H125C89 569 85 561 72 527L22 390C18 380 17 370 17 358C18 346 21 331 26 319L72 191C85 159 89 150 125 150H206C242 150 248 157 237 191ZM765 664H464C342 664 259 605 259 360C259 115 342 56 464 56H765C887 56 969 115 969 360C969 605 887 664 765 664ZM729 283H500C474 283 454 294 454 360C454 427 474 438 500 438H729C756 438 776 427 776 360C776 294 756 283 729 283Z" glyph-name="ocircumflex" horiz-adv-x="1026" unicode="&#244;" /><glyph d="M229 556C229 579 219 589 196 589H75C52 589 42 579 42 556V418C42 395 52 385 75 385H196C219 385 229 395 229 418ZM229 298C229 321 219 331 196 331H75C52 331 42 321 42 298V160C42 137 52 126 75 126H196C219 126 229 137 229 160ZM760 664H459C337 664 254 605 254 360C254 115 337 56 459 56H760C882 56 964 115 964 360C964 605 882 664 760 664ZM724 283H495C469 283 449 294 449 360C449 427 469 438 495 438H724C751 438 771 427 771 360C771 294 751 283 724 283Z" glyph-name="odieresis" horiz-adv-x="1021" unicode="&#246;" /><glyph d="M800 285V645C800 670 789 681 764 681H647C622 681 611 670 611 645V542H525V644C525 669 514 680 489 680H382C356 680 346 669 346 644V542H269V645C269 670 258 681 233 681H116C91 681 80 670 80 645V285C80 96 163 39 284 39H596C717 39 800 96 800 285ZM611 340V289C611 249 589 242 562 242H319C293 242 271 249 271 289V340Z" glyph-name="oe" horiz-adv-x="880" unicode="&#339;" /><glyph d="M17 427V264L135 243C228 229 270 258 270 344V455C270 481 262 488 236 488H164C138 488 130 480 130 452V411Z" glyph-name="ogonek" horiz-adv-x="287" unicode="&#731;" /><glyph d="M235 535C238 558 225 569 202 569H106C81 569 73 558 70 533L27 184C24 161 37 150 60 150H156C181 150 189 161 192 186ZM759 664H458C336 664 253 605 253 360C253 115 336 56 458 56H759C881 56 963 115 963 360C963 605 881 664 759 664ZM723 283H494C468 283 448 294 448 360C448 427 468 438 494 438H723C750 438 770 427 770 360C770 294 750 283 723 283Z" glyph-name="ograve" horiz-adv-x="1020" unicode="&#242;" /><glyph d="M280 403C302 397 314 413 314 436V542C314 567 302 572 278 578L71 631C49 637 37 621 37 598V492C37 467 49 462 73 456ZM280 143C302 137 314 153 314 176V282C314 307 302 312 278 318L71 371C49 377 37 361 37 338V232C37 207 49 202 73 196ZM845 664H544C422 664 339 605 339 360C339 115 422 56 544 56H845C967 56 1049 115 1049 360C1049 605 967 664 845 664ZM809 283H580C554 283 534 294 534 360C534 427 554 438 580 438H809C836 438 856 427 856 360C856 294 836 283 809 283Z" glyph-name="ohungarumlaut" horiz-adv-x="1106" unicode="&#337;" /><glyph d="M207 533C207 558 196 569 171 569H78C53 569 42 558 42 533V186C42 161 53 150 78 150H171C196 150 207 161 207 186ZM738 664H437C315 664 232 605 232 360C232 115 315 56 437 56H738C860 56 942 115 942 360C942 605 860 664 738 664ZM702 283H473C447 283 427 294 427 360C427 427 447 438 473 438H702C729 438 749 427 749 360C749 294 729 283 702 283Z" glyph-name="omacron" horiz-adv-x="999" unicode="&#333;" /><glyph d="M792 623C792 648 781 659 756 659H635C610 659 599 648 599 623V489H108C83 489 72 478 72 453V113C72 88 83 77 108 77H229C254 77 265 88 265 113V255H599V96C599 71 610 60 635 60H756C781 60 792 71 792 96Z" glyph-name="one" horiz-adv-x="872" unicode="1" /><glyph d="M658 523C658 541 650 549 632 549H545C527 549 519 541 519 523V454H166C148 454 140 446 140 428V219C140 201 148 193 166 193H253C271 193 279 201 279 219V286H519V205C519 187 527 179 545 179H632C650 179 658 187 658 205Z" glyph-name="onesuperior" horiz-adv-x="798" unicode="&#185;" /><glyph d="M568 136C588 136 598 146 598 166V269C598 290 588 299 568 299H473V416H568C588 416 598 426 598 446V554C598 576 588 584 568 584H389C349 584 312 575 281 564L112 502C89 492 80 481 80 455V266C80 239 89 228 112 218C166 199 226 176 281 157C312 145 349 136 389 136ZM800 172V548C800 573 790 584 764 584H697C671 584 661 573 661 548V172C661 147 672 136 697 136H764C790 136 800 147 800 172ZM232 343C227 344 222 347 222 351V364C222 367 227 371 232 373L337 407V308Z" glyph-name="ordfeminine" horiz-adv-x="880" unicode="&#170;" /><glyph d="M462 583H221C132 583 72 540 72 360C72 180 132 136 221 136H462C550 136 610 180 610 360C610 540 550 583 462 583ZM802 172V547C802 572 792 583 766 583H699C673 583 663 572 663 547V172C663 147 674 136 699 136H766C792 136 802 147 802 172ZM437 305H247C231 305 218 313 218 360C218 408 231 415 247 415H437C453 415 465 408 465 360C465 313 453 305 437 305Z" glyph-name="ordmasculine" horiz-adv-x="882" unicode="&#186;" /><glyph d="M577 454C610 454 634 441 634 360V346L379 454ZM308 266C276 266 252 280 252 360V372L502 266ZM836 99C858 87 872 100 872 125V240C872 265 858 274 836 286L815 295C816 315 817 337 817 360C817 600 735 660 613 660H272C207 660 153 643 117 591L48 620C26 632 12 619 12 594V479C12 454 26 445 48 433L69 424C68 404 67 383 67 360C67 120 150 59 272 59H613C678 59 731 76 767 128Z" glyph-name="oslash" horiz-adv-x="884" unicode="&#248;" /><glyph d="M214 359 216 375C228 455 230 469 211 532C202 555 195 568 170 568H69C44 568 36 556 43 532C61 473 64 469 51 381L48 359L46 342C34 262 32 249 51 186C60 163 67 150 92 150H193C218 150 226 162 219 186C203 239 199 255 210 331ZM749 664H448C326 664 243 605 243 360C243 115 326 56 448 56H749C871 56 953 115 953 360C953 605 871 664 749 664ZM713 283H484C458 283 438 294 438 360C438 427 458 438 484 438H713C740 438 760 427 760 360C760 294 740 283 713 283Z" glyph-name="otilde" horiz-adv-x="1010" unicode="&#245;" /><glyph d="M792 251C792 276 781 287 756 287H590V428C590 610 511 664 395 664H267C151 664 72 610 72 428V96C72 71 83 60 108 60H756C781 60 792 71 792 96ZM259 285V401C259 440 282 448 308 448H361C387 448 410 440 410 401V285Z" glyph-name="p" horiz-adv-x="847" unicode="p" /><glyph d="M275 54H403C499 54 570 91 591 207H764C789 207 800 218 800 243V358C800 383 789 394 764 394H598V445H764C789 445 800 456 800 481V596C800 621 789 632 764 632H116C91 632 80 621 80 596V290C80 108 159 54 275 54Z" glyph-name="paragraph" horiz-adv-x="880" unicode="&#182;" /><glyph d="M294 801C105 801 48 718 48 597V126C48 4 105 -80 294 -80H348C373 -80 384 -69 384 -44V78C384 103 373 114 348 114H317C285 114 276 129 276 164V560C276 595 285 610 317 610H348C373 610 384 621 384 646V765C384 790 373 801 348 801Z" glyph-name="parenleft" horiz-adv-x="429" unicode="(" /><glyph d="M81 801C56 801 45 790 45 765V646C45 621 56 610 81 610H112C144 610 153 595 153 560V164C153 129 144 114 112 114H81C56 114 45 103 45 78V-44C45 -69 56 -80 81 -80H135C324 -80 381 4 381 126V597C381 718 324 801 135 801Z" glyph-name="parenright" horiz-adv-x="429" unicode=")" /><glyph d="M509 61H600C722 61 804 119 804 357C804 595 722 649 600 649H282C154 649 67 592 67 403V172C67 146 78 136 103 136H224C249 136 260 147 260 172V360C260 412 274 423 320 423H343C331 392 324 351 324 296C324 106 399 61 509 61ZM584 423C605 423 621 414 621 356C621 296 605 287 584 287H525C505 287 489 296 489 356C489 414 505 423 525 423Z" glyph-name="partialdiff" horiz-adv-x="861" unicode="&#8706;" /><glyph d="M660 490H582C574 490 565 493 565 514C565 534 574 537 582 537H660C670 537 678 534 678 514C678 494 670 490 660 490ZM458 207C458 234 456 258 452 277L769 66C790 52 805 62 805 87V172C805 197 790 209 769 223L586 345H691C762 345 810 379 810 514C810 663 762 681 691 681H551C480 681 432 649 432 514C432 487 434 463 438 444L121 655C100 669 85 659 85 634V549C85 524 100 512 121 498L307 374H199C128 374 80 342 80 207C80 72 128 38 199 38H339C410 38 458 72 458 207ZM308 183H230C222 183 213 186 213 207C213 227 222 230 230 230H308C318 230 326 227 326 207C326 187 318 183 308 183Z" glyph-name="percent" horiz-adv-x="890" unicode="%" /><glyph d="M355 461C355 486 344 497 319 497H116C90 497 80 486 80 461V259C80 234 90 223 116 223H319C344 223 355 234 355 259Z" glyph-name="period" horiz-adv-x="435" unicode="." /><glyph d="M355 461C355 486 344 497 319 497H116C90 497 80 486 80 461V259C80 234 90 223 116 223H319C344 223 355 234 355 259Z" glyph-name="periodcentered" horiz-adv-x="435" unicode="&#183;" /><glyph d="M660 567H582C574 567 565 570 565 591C565 611 574 614 582 614H660C670 614 678 611 678 591C678 571 670 567 660 567ZM660 375H582C574 375 565 378 565 399C565 419 574 422 582 422H660C670 422 678 419 678 399C678 379 670 375 660 375ZM458 132C458 150 457 166 456 180L769 -29C790 -43 805 -33 805 -8V77C805 102 790 114 769 128L616 230H691C762 230 810 260 810 379C810 439 798 474 778 493C798 515 810 552 810 611C810 730 762 758 691 758H551C480 758 432 730 432 611C432 550 445 513 466 490C445 470 432 436 432 379C432 369 432 360 433 352L121 560C100 574 85 564 85 539V454C85 429 100 417 121 403L277 299H199C128 299 80 267 80 132C80 -3 128 -37 199 -37H339C410 -37 458 -3 458 132ZM308 108H230C222 108 213 111 213 132C213 152 222 155 230 155H308C318 155 326 152 326 132C326 112 318 108 308 108Z" glyph-name="perthousand" horiz-adv-x="890" unicode="&#8240;" /><glyph d="M650 623C650 648 639 659 614 659H116C91 659 80 648 80 623V96C80 71 91 60 116 60H614C639 60 650 71 650 96V251C650 276 639 287 614 287H269V432H614C639 432 650 443 650 468Z" glyph-name="pi" horiz-adv-x="717" unicode="&#960;" /><glyph d="M452 99V262H620C645 262 656 272 656 298V422C656 448 645 458 620 458H452V621C452 646 442 657 416 657H302C276 657 266 646 266 621V458H98C73 458 62 447 62 422V298C62 272 73 262 98 262H266V99C266 74 277 63 302 63H416C442 63 452 74 452 99Z" glyph-name="plus" horiz-adv-x="718" unicode="+" /><glyph d="M452 99V262H620C645 262 656 272 656 298V422C656 448 645 458 620 458H452V621C452 646 442 657 416 657H302C276 657 266 646 266 621V458H98C73 458 62 447 62 422V298C62 272 73 262 98 262H266V99C266 74 277 63 302 63H416C442 63 452 74 452 99ZM780 99V621C780 646 770 657 744 657H630C604 657 594 646 594 621V99C594 74 605 63 630 63H744C770 63 780 74 780 99Z" glyph-name="plusminus" horiz-adv-x="859" unicode="&#177;" /><glyph d="M800 634C800 659 789 670 764 670H116C91 670 80 659 80 634V85C80 60 91 49 116 49H764C789 49 800 60 800 85V240C800 265 789 276 764 276H271V443H764C789 443 800 454 800 479Z" glyph-name="product" horiz-adv-x="867" unicode="&#8719;" /><glyph d="M846 246C871 246 882 257 882 282V436C882 461 871 472 846 472H791C768 624 695 664 594 664H262C140 664 57 605 57 360C57 115 140 56 262 56H594C694 56 767 96 790 246ZM572 283H299C273 283 253 294 253 360C253 427 273 438 299 438H572C599 438 619 427 619 360C619 294 599 283 572 283Z" glyph-name="q" horiz-adv-x="934" unicode="q" /><glyph d="M519 488C506 583 465 643 353 643H248C134 643 72 566 72 436V113C72 88 83 77 108 77H229C255 77 265 88 265 113V389C265 406 274 416 293 416C313 416 321 409 324 389L352 190C355 165 367 153 393 157L525 178C550 182 559 192 556 217ZM792 376C792 401 781 412 756 412H625C599 412 589 401 589 376V193C589 167 599 157 625 157H756C781 157 792 167 792 193Z" glyph-name="question" horiz-adv-x="847" unicode="?" /><glyph d="M328 232C341 137 382 77 494 77H599C713 77 775 154 775 284V607C775 632 764 643 739 643H618C592 643 582 632 582 607V331C582 314 573 304 554 304C534 304 526 311 523 331L495 530C492 555 480 567 454 563L322 542C297 538 288 528 291 503ZM55 344C55 319 66 308 91 308H222C248 308 258 319 258 344V527C258 553 248 563 222 563H91C66 563 55 553 55 527Z" glyph-name="questiondown" horiz-adv-x="847" unicode="&#191;" /><glyph d="M455 278C455 313 449 318 414 320L121 328C86 329 80 323 80 289V124C80 89 86 83 121 84L414 92C449 93 455 99 455 134ZM455 588C455 623 449 628 414 630L121 638C86 639 80 633 80 599V434C80 399 86 393 121 394L414 402C449 403 455 409 455 444Z" glyph-name="quotedbl" horiz-adv-x="535" unicode="&quot;" /><glyph d="M447 189C447 279 398 337 296 337H108C83 337 72 326 72 301V99C72 74 83 63 108 63H256C281 63 292 74 292 99V208H307C325 208 335 199 335 181V112C335 87 346 76 371 76H411C437 76 447 87 447 112ZM447 509C447 599 398 657 296 657H108C83 657 72 646 72 621V419C72 394 83 383 108 383H256C281 383 292 394 292 419V528H307C325 528 335 519 335 501V432C335 407 346 396 371 396H411C437 396 447 407 447 432Z" glyph-name="quotedblbase" horiz-adv-x="499" unicode="&#8222;" /><glyph d="M52 531C52 441 101 383 203 383H391C416 383 427 394 427 419V621C427 646 416 657 391 657H243C218 657 207 646 207 621V512H192C174 512 164 521 164 539V608C164 633 153 644 128 644H88C62 644 52 633 52 608ZM52 211C52 121 101 63 203 63H391C416 63 427 74 427 99V301C427 326 416 337 391 337H243C218 337 207 326 207 301V192H192C174 192 164 201 164 219V288C164 313 153 324 128 324H88C62 324 52 313 52 288Z" glyph-name="quotedblleft" horiz-adv-x="499" unicode="&#8220;" /><glyph d="M447 509C447 599 398 657 296 657H108C83 657 72 646 72 621V419C72 394 83 383 108 383H256C281 383 292 394 292 419V528H307C325 528 335 519 335 501V432C335 407 346 396 371 396H411C437 396 447 407 447 432ZM447 189C447 279 398 337 296 337H108C83 337 72 326 72 301V99C72 74 83 63 108 63H256C281 63 292 74 292 99V208H307C325 208 335 199 335 181V112C335 87 346 76 371 76H411C437 76 447 87 447 112Z" glyph-name="quotedblright" horiz-adv-x="499" unicode="&#8221;" /><glyph d="M52 371C52 281 101 223 203 223H391C416 223 427 234 427 259V461C427 486 416 497 391 497H243C218 497 207 486 207 461V352H192C174 352 164 361 164 379V448C164 473 153 484 128 484H88C62 484 52 473 52 448Z" glyph-name="quoteleft" horiz-adv-x="499" unicode="&#8216;" /><glyph d="M32 168C32 103 67 61 141 61H276C294 61 302 69 302 87V233C302 251 294 259 276 259H170C152 259 144 251 144 233V154H133C120 154 113 161 113 174V223C113 241 105 249 87 249H58C39 249 32 241 32 223Z" glyph-name="quoteleft.salt" horiz-adv-x="344" unicode="&#57656;" /><glyph d="M447 349C447 439 398 497 296 497H108C83 497 72 486 72 461V259C72 234 83 223 108 223H256C281 223 292 234 292 259V368H307C325 368 335 359 335 341V272C335 247 346 236 371 236H411C437 236 447 247 447 272Z" glyph-name="quoteright" horiz-adv-x="499" unicode="&#8217;" /><glyph d="M312 152C312 217 276 259 203 259H68C50 259 42 251 42 233V87C42 69 50 61 68 61H174C192 61 200 69 200 87V166H211C224 166 231 159 231 146V97C231 79 239 71 257 71H286C304 71 312 79 312 97Z" glyph-name="quoteright.salt" horiz-adv-x="344" unicode="&#57657;" /><glyph d="M447 349C447 439 398 497 296 497H108C83 497 72 486 72 461V259C72 234 83 223 108 223H256C281 223 292 234 292 259V368H307C325 368 335 359 335 341V272C335 247 346 236 371 236H411C437 236 447 247 447 272Z" glyph-name="quotesinglbase" horiz-adv-x="499" unicode="&#8218;" /><glyph d="M447 433C447 468 441 473 406 475L113 483C78 484 72 478 72 444V279C72 244 78 238 113 239L406 247C441 248 447 254 447 289Z" glyph-name="quotesingle" horiz-adv-x="519" unicode="'" /><glyph d="M792 250C792 275 781 286 756 286H560V405C560 433 573 443 603 443H756C781 443 792 454 792 479V634C792 659 781 670 756 670H544C460 670 407 620 399 559C381 601 341 615 285 615H239C140 615 72 568 72 418V96C72 71 83 60 108 60H756C781 60 792 71 792 96ZM252 286V350C252 385 272 394 299 394H333C360 394 380 385 380 350V286Z" glyph-name="r" horiz-adv-x="859" unicode="r" /><glyph d="M192 515C189 540 181 551 156 551H60C37 551 24 540 27 517L70 168C73 143 81 132 106 132H202C225 132 238 143 235 166ZM948 250C948 275 937 286 912 286H746V405C746 433 759 443 789 443H912C937 443 948 454 948 479V634C948 659 937 670 912 670H730C646 670 593 620 585 559C567 601 527 615 471 615H435C336 615 268 568 268 418V96C268 71 279 60 304 60H912C937 60 948 71 948 96ZM448 286V350C448 385 468 394 495 394H519C546 394 566 385 566 350V286Z" glyph-name="racute" horiz-adv-x="1015" unicode="&#341;" /><glyph d="M504 54V117L769 218C793 229 802 242 802 268V489C802 515 793 529 769 540L28 718C4 725 -8 713 -8 688V548C-8 523 4 512 28 506L544 393C558 390 561 385 561 373V368C561 356 557 353 544 348L341 278C318 269 305 261 305 236V54C305 29 316 18 341 18H468C494 18 504 29 504 54Z" glyph-name="radical" horiz-adv-x="882" unicode="&#8730;" /><glyph d="M72 391C78 368 78 352 72 329L32 192C21 157 27 150 63 150H144C180 150 184 158 197 192L247 329C251 339 252 349 252 361C251 373 248 388 243 400L197 528C184 560 180 569 144 569H63C27 569 21 562 32 528ZM964 250C964 275 953 286 928 286H762V405C762 433 775 443 805 443H928C953 443 964 454 964 479V634C964 659 953 670 928 670H746C662 670 609 620 601 559C583 601 543 615 487 615H451C352 615 284 568 284 418V96C284 71 295 60 320 60H928C953 60 964 71 964 96ZM464 286V350C464 385 484 394 511 394H535C562 394 582 385 582 350V286Z" glyph-name="rcaron" horiz-adv-x="1031" unicode="&#345;" /><glyph d="M752 250C752 275 741 286 716 286H550V405C550 433 563 443 593 443H716C741 443 752 454 752 479V634C752 659 741 670 716 670H534C450 670 397 620 389 559C371 601 331 615 275 615H239C140 615 72 568 72 418V96C72 71 83 60 108 60H716C741 60 752 71 752 96ZM252 286V350C252 385 272 394 299 394H323C350 394 370 385 370 350V286ZM1082 352C1082 428 1040 477 954 477H842C811 477 802 468 802 440V282C802 254 811 245 842 245H921C951 245 960 254 960 282V368H973C988 368 997 360 997 345V286C997 265 1006 256 1027 256H1051C1073 256 1082 265 1082 286Z" glyph-name="rcommaaccent" horiz-adv-x="1094" unicode="&#343;" /><glyph d="M457 584H211C122 584 62 541 62 360C62 180 122 136 211 136H457C544 136 604 180 604 360C604 541 544 584 457 584ZM459 524C511 524 546 492 546 360C546 228 511 196 459 196H208C156 196 120 228 120 360C120 492 156 524 208 524ZM476 314C476 324 471 328 461 328H378V386C378 397 383 401 395 401H461C471 401 476 406 476 416V480C476 490 471 494 461 494H374C340 494 318 474 314 444C307 462 291 468 268 468H249C208 468 181 449 181 387V251C181 240 185 236 196 236H461C471 236 476 240 476 251Z" glyph-name="registered" horiz-adv-x="666" unicode="&#174;" /><glyph d="M160 577C75 577 17 534 17 360C17 186 75 143 160 143H258C343 143 401 186 401 360C401 534 343 577 258 577ZM225 420C254 420 268 411 268 361C268 312 254 304 225 304H190C164 304 150 312 150 361C150 411 164 420 190 420Z" glyph-name="ring" horiz-adv-x="418" unicode="&#730;" /><glyph d="M792 454C792 583 730 661 616 661H511C399 661 359 599 345 505L325 314C323 297 311 287 293 287C275 287 263 297 263 314V599C263 624 252 635 227 635H108C83 635 72 624 72 599V267C72 137 134 60 248 60H353C465 60 505 121 519 215L540 407C542 424 551 433 574 433C590 433 603 424 603 407V96C603 71 614 60 639 60H756C781 60 792 71 792 96Z" glyph-name="s" horiz-adv-x="864" unicode="s" /><glyph d="M192 533C189 558 181 569 156 569H60C37 569 24 558 27 535L70 186C73 161 81 150 106 150H202C225 150 238 161 235 184ZM948 454C948 583 886 661 772 661H677C565 661 530 599 516 505L506 314C504 297 497 287 479 287C461 287 449 297 449 314V599C449 624 438 635 413 635H304C279 635 268 624 268 599V267C268 137 330 60 444 60H539C651 60 686 121 700 215L711 407C713 424 717 433 740 433C756 433 769 424 769 407V96C769 71 780 60 805 60H912C937 60 948 71 948 96Z" glyph-name="sacute" horiz-adv-x="1020" unicode="&#347;" /><glyph d="M72 391C78 368 78 352 72 329L32 192C21 157 27 150 63 150H144C180 150 184 158 197 192L247 329C251 339 252 349 252 361C251 373 248 388 243 400L197 528C184 560 180 569 144 569H63C27 569 21 562 32 528ZM964 454C964 583 902 661 788 661H693C581 661 546 599 532 505L522 314C520 297 513 287 495 287C477 287 465 297 465 314V599C465 624 454 635 429 635H320C295 635 284 624 284 599V267C284 137 346 60 460 60H555C667 60 702 121 716 215L727 407C729 424 733 433 756 433C772 433 785 424 785 407V96C785 71 796 60 821 60H928C953 60 964 71 964 96Z" glyph-name="scaron" horiz-adv-x="1036" unicode="&#353;" /><glyph d="M504 215 515 407C517 424 521 433 544 433C560 433 573 424 573 407V96C573 71 584 60 609 60H716C741 60 752 71 752 96V234L838 202C862 193 878 198 878 232V358C878 384 869 397 848 404L752 438V454C752 583 690 661 576 661H481C369 661 334 599 320 505L310 314C308 297 301 287 283 287C265 287 253 297 253 314V599C253 624 242 635 217 635H108C83 635 72 624 72 599V267C72 137 134 60 248 60H343C455 60 490 121 504 215Z" glyph-name="scedilla" horiz-adv-x="905" unicode="&#351;" /><glyph d="M197 328C191 351 191 367 197 390L237 527C248 562 242 569 206 569H125C89 569 85 561 72 527L22 390C18 380 17 370 17 358C18 346 21 331 26 319L72 191C85 159 89 150 125 150H206C242 150 248 157 237 191ZM954 454C954 583 892 661 778 661H683C571 661 536 599 522 505L512 314C510 297 503 287 485 287C467 287 455 297 455 314V599C455 624 444 635 419 635H310C285 635 274 624 274 599V267C274 137 336 60 450 60H545C657 60 692 121 706 215L717 407C719 424 723 433 746 433C762 433 775 424 775 407V96C775 71 786 60 811 60H918C943 60 954 71 954 96Z" glyph-name="scircumflex" horiz-adv-x="1026" unicode="&#349;" /><glyph d="M752 454C752 583 690 661 576 661H481C369 661 334 599 320 505L310 314C308 297 301 287 283 287C265 287 253 297 253 314V599C253 624 242 635 217 635H108C83 635 72 624 72 599V267C72 137 134 60 248 60H343C455 60 490 121 504 215L515 407C517 424 521 433 544 433C560 433 573 424 573 407V96C573 71 584 60 609 60H716C741 60 752 71 752 96ZM1082 352C1082 428 1040 477 954 477H842C811 477 802 468 802 440V282C802 254 811 245 842 245H921C951 245 960 254 960 282V368H973C988 368 997 360 997 345V286C997 265 1006 256 1027 256H1051C1073 256 1082 265 1082 286Z" glyph-name="scommaaccent" horiz-adv-x="1094" unicode="&#537;" /><glyph d="M455 577C455 610 447 616 414 619L121 647C88 650 80 640 80 608V443C80 410 88 404 121 403L414 391C447 390 455 400 455 433ZM455 267C455 300 447 306 414 309L121 337C88 340 80 330 80 298V133C80 100 88 94 121 93L414 81C447 80 455 90 455 123Z" glyph-name="second" horiz-adv-x="535" unicode="&#8243;" /><glyph d="M595 333V427H597C623 427 647 418 647 366V133C647 108 658 97 683 97H764C789 97 800 108 800 133V399C800 588 717 645 595 645H489C368 645 285 588 285 399V305H283C257 305 233 314 233 366V573C233 598 222 609 197 609H116C91 609 80 598 80 573V333C80 144 163 87 285 87H391C512 87 595 144 595 333ZM406 366C406 418 426 427 454 427H474V366C474 314 454 305 426 305H406Z" glyph-name="section" horiz-adv-x="880" unicode="&#167;" /><glyph d="M350 461C350 486 339 497 314 497H111C85 497 75 486 75 461V259C75 234 85 223 111 223H314C339 223 350 234 350 259ZM797 349C797 439 748 497 646 497H458C433 497 422 486 422 461V259C422 234 433 223 458 223H606C631 223 642 234 642 259V368H657C675 368 685 359 685 341V272C685 247 696 236 721 236H761C787 236 797 247 797 272Z" glyph-name="semicolon" horiz-adv-x="859" unicode=";" /><glyph d="M80 624V96C80 71 91 60 116 60H237C262 60 273 71 273 96V433H363L385 313C405 203 456 157 583 157H764C789 157 800 168 800 193V355C800 380 789 391 764 391H589L567 504C546 614 496 660 369 660H116C91 660 80 649 80 624Z" glyph-name="seven" horiz-adv-x="857" unicode="7" /><glyph d="M600 55C722 55 802 116 802 362C802 592 722 665 600 665H504C385 665 324 612 324 431C324 368 331 319 345 281H317C268 281 257 295 257 344V553C257 578 246 589 221 589H103C78 589 67 579 67 553V301C67 112 150 55 272 55ZM532 281C505 281 489 297 489 355C489 415 505 439 532 439H579C605 439 621 415 621 355C621 297 605 281 580 281Z" glyph-name="six" horiz-adv-x="859" unicode="6" /><glyph d="M869 191C894 188 905 202 905 227V372C905 397 894 405 869 408L41 528C16 531 5 517 5 492V347C5 322 16 314 41 311Z" glyph-name="slash" horiz-adv-x="909" unicode="/" /><glyph glyph-name="space" horiz-adv-x="229" unicode=" " /><glyph d="M535 68V81H764C789 81 800 92 800 117V626C800 651 789 662 764 662H509C484 662 473 651 473 626V481C473 456 484 445 509 445H611V308H535V356C535 381 525 392 499 392H392C366 392 356 381 356 356V308H323C297 308 273 317 273 369V517C273 542 262 553 237 553H116C91 553 80 542 80 517V327C80 138 163 81 284 81H356V68C356 43 367 32 392 32H499C525 32 535 43 535 68Z" glyph-name="sterling" horiz-adv-x="880" unicode="&#163;" /><glyph d="M273 371V585C273 610 262 621 237 621H116C91 621 80 610 80 585V135C80 110 91 99 116 99H270C297 99 314 106 333 124L484 289L663 106C682 88 699 81 725 81H854C879 81 890 92 890 117V603C890 628 879 639 854 639H735C710 639 699 628 699 603V354L546 509C531 523 522 526 500 526H448C427 526 418 524 403 509Z" glyph-name="summation" horiz-adv-x="970" unicode="&#8721;" /><glyph d="M800 444C800 469 789 480 764 480H273V624C273 649 262 660 237 660H116C91 660 80 649 80 624V96C80 71 91 60 116 60H237C262 60 273 71 273 96V240H764C789 240 800 251 800 276Z" glyph-name="t" horiz-adv-x="855" unicode="t" /><glyph d="M237 60C262 60 273 71 273 96V240H399V166C399 141 410 130 435 130H542C567 130 578 141 578 166V240H764C789 240 800 251 800 276V444C800 469 789 480 764 480H578V553C578 578 567 589 542 589H435C410 589 399 578 399 553V480H273V624C273 649 262 660 237 660H116C91 660 80 649 80 624V96C80 71 91 60 116 60Z" glyph-name="tbar" horiz-adv-x="855" unicode="&#359;" /><glyph d="M72 391C78 368 78 352 72 329L32 192C21 157 27 150 63 150H144C180 150 184 158 197 192L247 329C251 339 252 349 252 361C251 373 248 388 243 400L197 528C184 560 180 569 144 569H63C27 569 21 562 32 528ZM964 444C964 469 953 480 928 480H477V624C477 649 466 660 441 660H320C295 660 284 649 284 624V96C284 71 295 60 320 60H441C466 60 477 71 477 96V240H928C953 240 964 251 964 276Z" glyph-name="tcaron" horiz-adv-x="1019" unicode="&#357;" /><glyph d="M680 444C680 469 669 480 644 480H273V624C273 649 262 660 237 660H116C91 660 80 649 80 624V96C80 71 91 60 116 60H237C262 60 273 71 273 96V240H644C669 240 680 251 680 276ZM990 351C990 427 948 476 862 476H750C719 476 710 467 710 439V281C710 253 719 244 750 244H829C859 244 868 253 868 281V367H881C896 367 905 359 905 344V285C905 264 914 255 935 255H959C981 255 990 264 990 285Z" glyph-name="tcommaaccent" horiz-adv-x="1002" unicode="&#355;" /><glyph d="M785 252C785 277 774 288 749 288H680V427C680 609 601 663 485 663H363C247 663 168 609 168 427V288H101C76 288 65 277 65 252V97C65 72 76 61 101 61H749C774 61 785 72 785 97ZM355 286V400C355 439 378 447 404 447H451C477 447 500 439 500 400V286Z" glyph-name="thorn" horiz-adv-x="850" unicode="&#254;" /><glyph d="M603 96C603 71 614 60 639 60H756C781 60 792 71 792 96V468C792 596 729 662 626 662H526C438 662 392 631 381 536C362 580 324 595 273 595H215C127 595 72 542 72 431V96C72 71 83 60 108 60H227C252 60 263 71 263 96V338C263 370 277 376 293 376H308C324 376 338 370 338 338V177C338 152 349 141 374 141H481C506 141 517 152 517 177V403C517 435 530 441 546 441H573C589 441 603 435 603 403Z" glyph-name="three" horiz-adv-x="864" unicode="3" /><glyph d="M522 193C522 175 530 167 548 167H632C650 167 658 175 658 193V421C658 513 613 561 539 561H467C403 561 370 538 362 470C349 502 321 512 285 512H243C179 512 140 474 140 394V193C140 175 148 167 166 167H251C269 167 277 175 277 193V327C277 350 287 355 299 355H310C321 355 331 350 331 327V252C331 234 339 226 357 226H434C452 226 460 234 460 252V374C460 397 470 401 481 401H501C512 401 522 397 522 374Z" glyph-name="threesuperior" horiz-adv-x="798" unicode="&#179;" /><glyph d="M214 359 216 375C228 455 230 469 211 532C202 555 195 568 170 568H69C44 568 36 556 43 532C61 473 64 469 51 381L48 359L46 342C34 262 32 249 51 186C60 163 67 150 92 150H193C218 150 226 162 219 186C203 239 199 255 210 331Z" glyph-name="tilde" horiz-adv-x="262" unicode="&#732;" /><glyph d="M513 449C513 466 504 475 487 475H297L346 501C361 508 368 519 368 535V554C368 570 361 581 346 589L297 615H487C504 615 513 622 513 641V736C513 753 504 762 487 762H106C88 762 80 753 80 736V641C80 626 86 617 100 609C130 594 166 573 196 557C199 555 203 552 203 551V546C203 543 201 542 196 539C166 521 131 503 100 486C87 478 80 469 80 454V360C80 343 88 334 106 334H487C504 334 513 343 513 360ZM513 152C513 170 504 179 487 179H203V260C203 278 194 287 177 287H106C88 287 80 278 80 260V-50C80 -69 88 -76 106 -76H177C194 -76 203 -69 203 -50V32H487C504 32 513 39 513 57Z" glyph-name="trademark" horiz-adv-x="593" unicode="&#8482;" /><glyph d="M792 624C792 649 781 660 756 660H639C614 660 603 649 603 624V287H577C555 287 553 293 547 313L504 503C482 602 428 659 327 659H238C130 659 72 597 72 483V116C72 91 83 80 108 80H227C252 80 263 91 263 116V405C263 425 267 432 287 432C309 432 312 426 318 405L360 217C388 125 424 60 579 60H756C781 60 792 71 792 96Z" glyph-name="two" horiz-adv-x="872" unicode="2" /><glyph d="M658 525C658 543 650 551 632 551H548C530 551 522 543 522 525V320H507C491 320 490 324 485 339L454 437C433 507 400 549 327 549H259C182 549 140 504 140 422V210C140 192 148 184 166 184H250C268 184 276 192 276 210V366C276 381 280 386 295 386C310 386 316 381 321 366L351 270C371 204 397 157 508 157H632C650 157 658 165 658 183Z" glyph-name="twosuperior" horiz-adv-x="798" unicode="&#178;" /><glyph d="M598 660H103C78 660 67 649 67 624V472C67 446 78 436 103 436H559C586 436 606 424 606 362C606 301 586 289 559 289H103C78 289 67 278 67 253V96C67 71 78 60 103 60H598C720 60 802 120 802 360C802 600 720 660 598 660Z" glyph-name="u" horiz-adv-x="859" unicode="u" /><glyph d="M192 553C189 578 181 589 156 589H60C37 589 24 578 27 555L70 206C73 181 81 170 106 170H202C225 170 238 181 235 204ZM759 660H304C279 660 268 649 268 624V472C268 446 279 436 304 436H720C747 436 767 424 767 362C767 301 747 289 720 289H304C279 289 268 278 268 253V96C268 71 279 60 304 60H759C881 60 963 120 963 360C963 600 881 660 759 660Z" glyph-name="uacute" horiz-adv-x="1020" unicode="&#250;" /><glyph d="M107 577H63C38 577 27 566 27 541V450C27 427 34 420 58 420H79C98 420 112 411 112 361C112 312 98 304 79 304H58C34 304 27 296 27 275V179C27 154 38 143 63 143H107C192 143 250 186 250 360C250 534 192 577 107 577ZM775 660H320C295 660 284 649 284 624V472C284 446 295 436 320 436H736C763 436 783 424 783 362C783 301 763 289 736 289H320C295 289 284 278 284 253V96C284 71 295 60 320 60H775C897 60 979 120 979 360C979 600 897 660 775 660Z" glyph-name="ubreve" horiz-adv-x="1036" unicode="&#365;" /><glyph d="M197 328C191 351 191 367 197 390L237 527C248 562 242 569 206 569H125C89 569 85 561 72 527L22 390C18 380 17 370 17 358C18 346 21 331 26 319L72 191C85 159 89 150 125 150H206C242 150 248 157 237 191ZM765 660H310C285 660 274 649 274 624V472C274 446 285 436 310 436H726C753 436 773 424 773 362C773 301 753 289 726 289H310C285 289 274 278 274 253V96C274 71 285 60 310 60H765C887 60 969 120 969 360C969 600 887 660 765 660Z" glyph-name="ucircumflex" horiz-adv-x="1026" unicode="&#251;" /><glyph d="M229 556C229 579 219 589 196 589H75C52 589 42 579 42 556V418C42 395 52 385 75 385H196C219 385 229 395 229 418ZM229 298C229 321 219 331 196 331H75C52 331 42 321 42 298V160C42 137 52 126 75 126H196C219 126 229 137 229 160ZM760 660H305C280 660 269 649 269 624V472C269 446 280 436 305 436H721C748 436 768 424 768 362C768 301 748 289 721 289H305C280 289 269 278 269 253V96C269 71 280 60 305 60H760C882 60 964 120 964 360C964 600 882 660 760 660Z" glyph-name="udieresis" horiz-adv-x="1021" unicode="&#252;" /><glyph d="M235 535C238 558 225 569 202 569H106C81 569 73 558 70 533L27 184C24 161 37 150 60 150H156C181 150 189 161 192 186ZM759 660H304C279 660 268 649 268 624V472C268 446 279 436 304 436H720C747 436 767 424 767 362C767 301 747 289 720 289H304C279 289 268 278 268 253V96C268 71 279 60 304 60H759C881 60 963 120 963 360C963 600 881 660 759 660Z" glyph-name="ugrave" horiz-adv-x="1020" unicode="&#249;" /><glyph d="M280 405C302 399 314 415 314 438V544C314 569 302 574 278 580L71 633C49 639 37 623 37 600V494C37 469 49 464 73 458ZM280 145C302 139 314 155 314 178V284C314 309 302 314 278 320L71 373C49 379 37 363 37 340V234C37 209 49 204 73 198ZM845 660H390C365 660 354 649 354 624V472C354 446 365 436 390 436H806C833 436 853 424 853 362C853 301 833 289 806 289H390C365 289 354 278 354 253V96C354 71 365 60 390 60H845C967 60 1049 120 1049 360C1049 600 967 660 845 660Z" glyph-name="uhungarumlaut" horiz-adv-x="1106" unicode="&#369;" /><glyph d="M207 533C207 558 196 569 171 569H78C53 569 42 558 42 533V186C42 161 53 150 78 150H171C196 150 207 161 207 186ZM738 660H283C258 660 247 649 247 624V472C247 446 258 436 283 436H699C726 436 746 424 746 362C746 301 726 289 699 289H283C258 289 247 278 247 253V96C247 71 258 60 283 60H738C860 60 942 120 942 360C942 600 860 660 738 660Z" glyph-name="umacron" horiz-adv-x="999" unicode="&#363;" /><glyph d="M276 99V621C276 646 266 657 240 657H106C80 657 70 646 70 621V99C70 74 81 63 106 63H240C266 63 276 74 276 99Z" glyph-name="underscore" horiz-adv-x="346" unicode="_" /><glyph glyph-name="uni00A0" horiz-adv-x="229" unicode="&#160;" /><glyph d="M76 258H344C369 258 380 268 380 294V428C380 454 369 464 344 464H76C51 464 40 453 40 428V294C40 268 51 258 76 258Z" glyph-name="uni00AD" horiz-adv-x="420" unicode="&#173;" /><glyph d="M680 444C680 469 669 480 644 480H273V624C273 649 262 660 237 660H116C91 660 80 649 80 624V96C80 71 91 60 116 60H237C262 60 273 71 273 96V240H644C669 240 680 251 680 276ZM990 351C990 427 948 476 862 476H750C719 476 710 467 710 439V281C710 253 719 244 750 244H829C859 244 868 253 868 281V367H881C896 367 905 359 905 344V285C905 264 914 255 935 255H959C981 255 990 264 990 285Z" glyph-name="uni021A" horiz-adv-x="1002" unicode="&#538;" /><glyph d="M680 444C680 469 669 480 644 480H273V624C273 649 262 660 237 660H116C91 660 80 649 80 624V96C80 71 91 60 116 60H237C262 60 273 71 273 96V240H644C669 240 680 251 680 276ZM990 351C990 427 948 476 862 476H750C719 476 710 467 710 439V281C710 253 719 244 750 244H829C859 244 868 253 868 281V367H881C896 367 905 359 905 344V285C905 264 914 255 935 255H959C981 255 990 264 990 285Z" glyph-name="uni021B" horiz-adv-x="1002" unicode="&#539;" /><glyph d="M207 533C207 558 196 569 171 569H78C53 569 42 558 42 533V186C42 161 53 150 78 150H171C196 150 207 161 207 186Z" glyph-name="uni0304" horiz-adv-x="249" unicode="&#772;" /><glyph d="M800 635C800 661 789 671 764 671H630C571 671 512 655 460 642L121 555C91 543 80 527 80 494V227C80 193 91 178 121 165L460 78C512 65 571 49 630 49H764C789 49 800 60 800 85ZM590 267C576 267 555 271 539 275L296 329C283 334 279 337 279 348V365C279 376 283 379 296 384L539 437C555 441 576 445 590 445H611V267Z" glyph-name="uni0394" horiz-adv-x="880" unicode="&#916;" /><glyph d="M67 360C67 110 150 49 272 49H493C540 49 580 58 613 82V43C613 18 624 7 649 7H766C791 7 802 18 802 43V297C802 322 791 333 766 333H652C630 333 625 325 618 306C609 282 596 276 577 276H308C282 276 262 288 262 360C262 432 282 444 308 444H577C596 444 609 438 618 414C625 395 630 387 652 387H766C791 387 802 398 802 423V677C802 702 791 713 766 713H649C624 713 613 702 613 677V638C580 662 540 671 493 671H272C150 671 67 610 67 360Z" glyph-name="uni03A9" horiz-adv-x="882" unicode="&#937;" /><glyph d="M691 64C716 64 727 75 727 100V255C727 280 716 291 691 291H644C649 317 652 346 652 381C652 605 570 660 448 660H103C78 660 67 649 67 624V472C67 446 78 436 103 436H419C446 436 466 425 466 363C466 302 446 291 419 291H103C78 291 67 280 67 255V100C67 75 78 64 103 64Z" glyph-name="uni03BC" horiz-adv-x="794" unicode="&#956;" /><glyph glyph-name="uni2002" horiz-adv-x="500" unicode="&#8194;" /><glyph glyph-name="uni2003" horiz-adv-x="1000" unicode="&#8195;" /><glyph d="M76 258H344C369 258 380 268 380 294V428C380 454 369 464 344 464H76C51 464 40 453 40 428V294C40 268 51 258 76 258Z" glyph-name="uni2010" horiz-adv-x="420" unicode="&#8208;" /><glyph d="M719 733H309C162 733 62 661 62 360C62 60 162 -14 309 -14H719C865 -14 964 60 964 360C964 661 865 733 719 733ZM723 633C809 633 868 580 868 360C868 140 809 86 723 86H305C218 86 158 140 158 360C158 580 218 633 305 633ZM763 296C763 314 755 322 737 322H618V405C618 535 562 574 478 574H387C303 574 247 535 247 405V185C247 167 255 159 273 159H737C755 159 763 167 763 185ZM381 321V385C381 413 397 419 416 419H454C473 419 489 413 489 385V321Z" glyph-name="uni2117" horiz-adv-x="1025" unicode="&#8471;" /></font>
</defs>
</svg>
