<?xml version="1.0" standalone="no"?><!DOCTYPE svg PUBLIC "-//W3C//DTD SVG 1.1//EN" "http://www.w3.org/Graphics/SVG/1.1/DTD/svg11.dtd" ><svg version="1.1" xmlns="http://www.w3.org/2000/svg"><defs><font horiz-adv-x="0" id="font"><font-face ascent="860" bbox="-586 -894 1922 1614" cap-height="720" descent="-140" font-family="Bungee Layers" font-stretch="normal" font-weight="500" units-per-em="1000" x-height="500" /><missing-glyph d="M120 -20H880V740H120ZM870 -10H130V730H870Z" horiz-adv-x="1000" /><glyph d="M170 303C170 339 176 369 186 396L250 560C263 594 274 620 314 620H412C449 620 460 594 475 559L544 396C554 369 560 339 560 303V272H170ZM560 90H570V303C570 340 564 371 553 400L484 563C468 602 456 630 412 630H314C268 630 256 601 241 564L177 400C166 371 160 340 160 303V90H170V262H560Z" glyph-name="A" horiz-adv-x="730" unicode="A" /><glyph d="M314 283C314 319 320 349 330 376L384 520C397 554 418 580 458 580H535C572 580 593 554 608 519L667 376C677 349 683 319 683 283V252H314ZM683 90H693V283C693 320 688 350 676 380L617 523C601 561 579 590 535 590H458C412 590 389 561 375 524L321 380C310 351 304 320 304 283V90H314V242H683Z" glyph-name="A.s_v" horiz-adv-x="1000" unicode="&#57926;" /><glyph d="M184 507C184 582 219 632 368 632C517 632 555 582 555 507V281H184ZM555 90H565V507C565 588 525 642 368 642C211 642 174 588 174 507V90H184V271H555ZM368 747ZM368 0Z" glyph-name="A.salt" horiz-adv-x="736" unicode="&#57600;" /><glyph d="M315 467C315 542 350 592 499 592C646 592 683 542 683 467V261H315ZM683 90H693V467C693 548 654 602 499 602C342 602 305 548 305 467V90H315V251H683Z" glyph-name="A.salt_s_v" horiz-adv-x="1000" unicode="&#57945;" /><glyph d="M315 507C315 582 350 632 499 632C646 632 683 582 683 507V281H315ZM683 90H693V507C693 588 654 642 499 642C342 642 305 588 305 507V90H315V271H683ZM499 747ZM499 747ZM499 0ZM499 0ZM499 747ZM499 747ZM499 0ZM499 0Z" glyph-name="A.salt_v" horiz-adv-x="1000" unicode="&#57837;" /><glyph d="M314 303C314 339 320 369 330 396L394 560C407 594 418 620 458 620H535C572 620 583 594 598 559L667 396C677 369 683 339 683 303V272H314ZM683 90H693V303C693 340 687 371 676 400L607 563C591 602 579 630 535 630H458C412 630 400 601 385 564L321 400C310 371 304 340 304 303V90H314V262H683Z" glyph-name="A.v" horiz-adv-x="1000" unicode="&#65313;" /><glyph d="M168 291C168 328 169 353 179 379L253 582C263 611 274 620 294 620H549V273H168ZM158 90H168V263H549V90H866V100H559V360H785V370H559V620H866V630H294C270 630 257 621 243 586L169 383C159 355 158 330 158 291Z" glyph-name="AE" horiz-adv-x="1005" unicode="&#198;" /><glyph d="M180 495C180 570 212 620 337 620H558V281H180ZM558 89H875V99H568V358H794V368H568V620H874V630H337C204 630 170 576 170 495V89H180V271H558Z" glyph-name="AE.salt" horiz-adv-x="1013" unicode="&#57653;" /><glyph d="M286 495C286 570 318 620 443 620H576V281H286ZM576 90H731V100H586V358H730V368H586V620H731V630H443C310 630 276 576 276 495V89H286V271H576Z" glyph-name="AE.salt_v" horiz-adv-x="1000" unicode="&#57892;" /><glyph d="M276 291C276 328 276 353 287 379L371 582C383 610 392 620 412 620H566V273H276ZM266 90H276V263H566V90H721V100H576V360H720V370H576V620H721V630H412C388 630 375 621 361 586L277 383C266 356 266 330 266 291Z" glyph-name="AE.v" horiz-adv-x="1000" unicode="&#57824;" /><glyph d="M170 303C170 339 176 369 186 396L250 560C263 594 274 620 314 620H412C449 620 460 594 475 559L544 396C554 369 560 339 560 303V272H170ZM560 90H570V303C570 340 564 371 553 400L484 563C468 602 456 630 412 630H314C268 630 256 601 241 564L177 400C166 371 160 340 160 303V90H170V262H560ZM245 847V837L484 867V877ZM365 747ZM365 0Z" glyph-name="Aacute" horiz-adv-x="730" unicode="&#193;" /><glyph d="M184 507C184 582 219 632 368 632C517 632 555 582 555 507V281H184ZM555 90H565V507C565 588 525 642 368 642C211 642 174 588 174 507V90H184V271H555ZM368 747ZM368 0ZM258 847V837L497 867V877ZM378 747ZM378 0Z" glyph-name="Aacute.salt" horiz-adv-x="736" unicode="&#57602;" /><glyph d="M380 807V797L619 827V837ZM500 707ZM500 -40ZM315 467C315 542 350 592 499 592C646 592 683 542 683 467V261H315ZM683 90H693V467C693 548 654 602 499 602C342 602 305 548 305 467V90H315V251H683Z" glyph-name="Aacute.salt_v" horiz-adv-x="1000" unicode="&#57839;" /><glyph d="M314 283C314 319 320 349 330 376L384 520C397 554 418 580 458 580H535C572 580 593 554 608 519L667 376C677 349 683 319 683 283V252H314ZM683 90H693V283C693 320 688 350 676 380L617 523C601 561 579 590 535 590H458C412 590 389 561 375 524L321 380C310 351 304 320 304 283V90H314V242H683ZM381 807V797L620 827V837ZM501 707ZM501 -40Z" glyph-name="Aacute.v" horiz-adv-x="1000" unicode="&#57739;" /><glyph d="M170 303C170 339 176 369 186 396L250 560C263 594 274 620 314 620H412C449 620 460 594 475 559L544 396C554 369 560 339 560 303V272H170ZM560 90H570V303C570 340 564 371 553 400L484 563C468 602 456 630 412 630H314C268 630 256 601 241 564L177 400C166 371 160 340 160 303V90H170V262H560ZM499 907V898C499 862 472 828 364 828C256 828 234 862 234 898V907H224V898C224 860 240 818 364 818C488 818 509 860 509 898V907ZM365 747ZM365 0Z" glyph-name="Abreve" horiz-adv-x="730" unicode="&#258;" /><glyph d="M184 507C184 582 219 632 368 632C517 632 555 582 555 507V281H184ZM555 90H565V507C565 588 525 642 368 642C211 642 174 588 174 507V90H184V271H555ZM368 747ZM368 0ZM502 907V898C502 862 475 828 367 828C259 828 237 862 237 898V907H227V898C227 860 243 818 367 818C491 818 512 860 512 898V907ZM368 747ZM368 0Z" glyph-name="Abreve.salt" horiz-adv-x="736" unicode="&#57608;" /><glyph d="M315 467C315 542 350 592 499 592C646 592 683 542 683 467V261H315ZM683 90H693V467C693 548 654 602 499 602C342 602 305 548 305 467V90H315V251H683ZM634 867V858C634 822 607 788 499 788C391 788 369 822 369 858V867H359V858C359 820 375 778 499 778C623 778 644 820 644 858V867ZM500 707ZM500 -40Z" glyph-name="Abreve.salt_v" horiz-adv-x="1000" unicode="&#57845;" /><glyph d="M314 283C314 319 320 349 330 376L384 520C397 554 418 580 458 580H535C572 580 593 554 608 519L667 376C677 349 683 319 683 283V252H314ZM683 90H693V283C693 320 688 350 676 380L617 523C601 561 579 590 535 590H458C412 590 389 561 375 524L321 380C310 351 304 320 304 283V90H314V242H683ZM635 867V858C635 822 608 788 500 788C392 788 370 822 370 858V867H360V858C360 820 376 778 500 778C624 778 645 820 645 858V867ZM501 707ZM501 -40Z" glyph-name="Abreve.v" horiz-adv-x="1000" unicode="&#57745;" /><glyph d="M170 303C170 339 176 369 186 396L250 560C263 594 274 620 314 620H412C449 620 460 594 475 559L544 396C554 369 560 339 560 303V272H170ZM560 90H570V303C570 340 564 371 553 400L484 563C468 602 456 630 412 630H314C268 630 256 601 241 564L177 400C166 371 160 340 160 303V90H170V262H560ZM499 907V898C499 862 472 828 364 828C256 828 234 862 234 898V907H224V898C224 860 240 818 364 818C488 818 509 860 509 898V907ZM365 747ZM365 0ZM460 1104V1114L373 1093V1083Z" glyph-name="Abreveacute" horiz-adv-x="730" unicode="&#7854;" /><glyph d="M170 303C170 339 176 369 186 396L250 560C263 594 274 620 314 620H412C449 620 460 594 475 559L544 396C554 369 560 339 560 303V272H170ZM560 90H570V303C570 340 564 371 553 400L484 563C468 602 456 630 412 630H314C268 630 256 601 241 564L177 400C166 371 160 340 160 303V90H170V262H560ZM499 907V898C499 862 472 828 364 828C256 828 234 862 234 898V907H224V898C224 860 240 818 364 818C488 818 509 860 509 898V907ZM365 747ZM365 0ZM370 -170V-111H360V-170ZM364 -253ZM364 -1000Z" glyph-name="Abrevedotbelow" horiz-adv-x="730" unicode="&#7862;" /><glyph d="M170 303C170 339 176 369 186 396L250 560C263 594 274 620 314 620H412C449 620 460 594 475 559L544 396C554 369 560 339 560 303V272H170ZM560 90H570V303C570 340 564 371 553 400L484 563C468 602 456 630 412 630H314C268 630 256 601 241 564L177 400C166 371 160 340 160 303V90H170V262H560ZM499 907V898C499 862 472 828 364 828C256 828 234 862 234 898V907H224V898C224 860 240 818 364 818C488 818 509 860 509 898V907ZM365 747ZM365 0ZM359 1093 272 1114V1104L359 1083Z" glyph-name="Abrevegrave" horiz-adv-x="730" unicode="&#7856;" /><glyph d="M170 303C170 339 176 369 186 396L250 560C263 594 274 620 314 620H412C449 620 460 594 475 559L544 396C554 369 560 339 560 303V272H170ZM560 90H570V303C570 340 564 371 553 400L484 563C468 602 456 630 412 630H314C268 630 256 601 241 564L177 400C166 371 160 340 160 303V90H170V262H560ZM499 907V898C499 862 472 828 364 828C256 828 234 862 234 898V907H224V898C224 860 240 818 364 818C488 818 509 860 509 898V907ZM365 747ZM365 0ZM353 1055 450 1070C471 1073 491 1083 491 1121V1171C491 1210 466 1220 441 1220H305V1210H441C461 1210 481 1202 481 1171V1121C481 1093 468 1082 448 1079L352 1065Z" glyph-name="Abrevehookabove" horiz-adv-x="730" unicode="&#7858;" /><glyph d="M170 303C170 339 176 369 186 396L250 560C263 594 274 620 314 620H412C449 620 460 594 475 559L544 396C554 369 560 339 560 303V272H170ZM560 90H570V303C570 340 564 371 553 400L484 563C468 602 456 630 412 630H314C268 630 256 601 241 564L177 400C166 371 160 340 160 303V90H170V262H560ZM499 907V898C499 862 472 828 364 828C256 828 234 862 234 898V907H224V898C224 860 240 818 364 818C488 818 509 860 509 898V907ZM365 747ZM365 0ZM483 1101C456 1098 432 1101 381 1109L365 1111L337 1115C292 1121 268 1123 245 1120V1109C267 1113 291 1112 335 1105L363 1101L379 1099C430 1091 456 1088 483 1091ZM365 1007ZM365 260Z" glyph-name="Abrevetilde" horiz-adv-x="730" unicode="&#7860;" /><glyph d="M170 303C170 339 176 369 186 396L250 560C263 594 274 620 314 620H412C449 620 460 594 475 559L544 396C554 369 560 339 560 303V272H170ZM560 90H570V303C570 340 564 371 553 400L484 563C468 602 456 630 412 630H314C268 630 256 601 241 564L177 400C166 371 160 340 160 303V90H170V262H560ZM245 879V868L328 841C340 838 349 835 364 835C379 835 388 838 400 841L483 868V879L396 851C386 848 377 845 364 845C351 845 342 848 332 851ZM365 747ZM365 0Z" glyph-name="Acaron" horiz-adv-x="730" unicode="&#461;" /><glyph d="M170 303C170 339 176 369 186 396L250 560C263 594 274 620 314 620H412C449 620 460 594 475 559L544 396C554 369 560 339 560 303V272H170ZM560 90H570V303C570 340 564 371 553 400L484 563C468 602 456 630 412 630H314C268 630 256 601 241 564L177 400C166 371 160 340 160 303V90H170V262H560ZM483 850V861L400 888C388 891 379 894 364 894C349 894 340 891 328 888L245 861V850L332 878C342 881 351 884 364 884C377 884 386 881 396 878ZM365 747ZM365 0Z" glyph-name="Acircumflex" horiz-adv-x="730" unicode="&#194;" /><glyph d="M184 507C184 582 219 632 368 632C517 632 555 582 555 507V281H184ZM555 90H565V507C565 588 525 642 368 642C211 642 174 588 174 507V90H184V271H555ZM368 747ZM368 0ZM486 850V861L403 888C391 891 382 894 367 894C352 894 343 891 331 888L248 861V850L335 878C345 881 354 884 367 884C380 884 389 881 399 878ZM368 747ZM368 0Z" glyph-name="Acircumflex.salt" horiz-adv-x="736" unicode="&#57603;" /><glyph d="M315 467C315 542 350 592 499 592C646 592 683 542 683 467V261H315ZM683 90H693V467C693 548 654 602 499 602C342 602 305 548 305 467V90H315V251H683ZM618 810V821L535 848C523 851 514 854 499 854C484 854 475 851 463 848L380 821V810L467 838C477 841 486 844 499 844C512 844 521 841 531 838ZM500 707ZM500 -40Z" glyph-name="Acircumflex.salt_v" horiz-adv-x="1000" unicode="&#57840;" /><glyph d="M619 810V821L536 848C524 851 515 854 500 854C485 854 476 851 464 848L381 821V810L468 838C478 841 487 844 500 844C513 844 522 841 532 838ZM501 707ZM501 -40ZM314 283C314 319 320 349 330 376L384 520C397 554 418 580 458 580H535C572 580 593 554 608 519L667 376C677 349 683 319 683 283V252H314ZM683 90H693V283C693 320 688 350 676 380L617 523C601 561 579 590 535 590H458C412 590 389 561 375 524L321 380C310 351 304 320 304 283V90H314V242H683Z" glyph-name="Acircumflex.v" horiz-adv-x="1000" unicode="&#57740;" /><glyph d="M170 303C170 339 176 369 186 396L250 560C263 594 274 620 314 620H412C449 620 460 594 475 559L544 396C554 369 560 339 560 303V272H170ZM560 90H570V303C570 340 564 371 553 400L484 563C468 602 456 630 412 630H314C268 630 256 601 241 564L177 400C166 371 160 340 160 303V90H170V262H560ZM483 850V861L400 888C388 891 379 894 364 894C349 894 340 891 328 888L245 861V850L332 878C342 881 351 884 364 884C377 884 386 881 396 878ZM365 747ZM365 0ZM553 1104V1114L466 1093V1083Z" glyph-name="Acircumflexacute" horiz-adv-x="730" unicode="&#7844;" /><glyph d="M170 303C170 339 176 369 186 396L250 560C263 594 274 620 314 620H412C449 620 460 594 475 559L544 396C554 369 560 339 560 303V272H170ZM560 90H570V303C570 340 564 371 553 400L484 563C468 602 456 630 412 630H314C268 630 256 601 241 564L177 400C166 371 160 340 160 303V90H170V262H560ZM483 850V861L400 888C388 891 379 894 364 894C349 894 340 891 328 888L245 861V850L332 878C342 881 351 884 364 884C377 884 386 881 396 878ZM365 747ZM365 0ZM370 -170V-111H360V-170ZM364 -253ZM364 -1000Z" glyph-name="Acircumflexdotbelow" horiz-adv-x="730" unicode="&#7852;" /><glyph d="M170 303C170 339 176 369 186 396L250 560C263 594 274 620 314 620H412C449 620 460 594 475 559L544 396C554 369 560 339 560 303V272H170ZM560 90H570V303C570 340 564 371 553 400L484 563C468 602 456 630 412 630H314C268 630 256 601 241 564L177 400C166 371 160 340 160 303V90H170V262H560ZM483 850V861L400 888C388 891 379 894 364 894C349 894 340 891 328 888L245 861V850L332 878C342 881 351 884 364 884C377 884 386 881 396 878ZM365 747ZM365 0ZM533 1068 446 1089V1079L533 1058Z" glyph-name="Acircumflexgrave" horiz-adv-x="730" unicode="&#7846;" /><glyph d="M170 303C170 339 176 369 186 396L250 560C263 594 274 620 314 620H412C449 620 460 594 475 559L544 396C554 369 560 339 560 303V272H170ZM560 90H570V303C570 340 564 371 553 400L484 563C468 602 456 630 412 630H314C268 630 256 601 241 564L177 400C166 371 160 340 160 303V90H170V262H560ZM483 850V861L400 888C388 891 379 894 364 894C349 894 340 891 328 888L245 861V850L332 878C342 881 351 884 364 884C377 884 386 881 396 878ZM365 747ZM365 0ZM502 1029 599 1044C620 1047 640 1057 640 1095V1145C640 1184 615 1194 590 1194H454V1184H590C610 1184 630 1176 630 1145V1095C630 1067 617 1056 597 1053L501 1039Z" glyph-name="Acircumflexhookabove" horiz-adv-x="730" unicode="&#7848;" /><glyph d="M170 303C170 339 176 369 186 396L250 560C263 594 274 620 314 620H412C449 620 460 594 475 559L544 396C554 369 560 339 560 303V272H170ZM560 90H570V303C570 340 564 371 553 400L484 563C468 602 456 630 412 630H314C268 630 256 601 241 564L177 400C166 371 160 340 160 303V90H170V262H560ZM483 850V861L400 888C388 891 379 894 364 894C349 894 340 891 328 888L245 861V850L332 878C342 881 351 884 364 884C377 884 386 881 396 878ZM365 747ZM365 0ZM483 1091C456 1088 432 1091 381 1099L365 1101L337 1105C292 1111 268 1113 245 1110V1099C267 1103 291 1102 335 1095L363 1091L379 1089C430 1081 456 1078 483 1081ZM365 997ZM365 250Z" glyph-name="Acircumflextilde" horiz-adv-x="730" unicode="&#7850;" /><glyph d="M170 303C170 339 176 369 186 396L250 560C263 594 274 620 314 620H412C449 620 460 594 475 559L544 396C554 369 560 339 560 303V272H170ZM560 90H570V303C570 340 564 371 553 400L484 563C468 602 456 630 412 630H314C268 630 256 601 241 564L177 400C166 371 160 340 160 303V90H170V262H560ZM497 830V877H487V830ZM239 830V877H229V830ZM365 747ZM365 0Z" glyph-name="Adieresis" horiz-adv-x="730" unicode="&#196;" /><glyph d="M184 507C184 582 219 632 368 632C517 632 555 582 555 507V281H184ZM555 90H565V507C565 588 525 642 368 642C211 642 174 588 174 507V90H184V271H555ZM368 747ZM368 0ZM500 830V877H490V830ZM242 830V877H232V830ZM368 747ZM368 0Z" glyph-name="Adieresis.salt" horiz-adv-x="736" unicode="&#57605;" /><glyph d="M315 467C315 542 350 592 499 592C646 592 683 542 683 467V261H315ZM683 90H693V467C693 548 654 602 499 602C342 602 305 548 305 467V90H315V251H683ZM632 790V837H622V790ZM374 790V837H364V790ZM500 707ZM500 -40Z" glyph-name="Adieresis.salt_v" horiz-adv-x="1000" unicode="&#57842;" /><glyph d="M633 790V837H623V790ZM375 790V837H365V790ZM501 707ZM501 -40ZM314 283C314 319 320 349 330 376L384 520C397 554 418 580 458 580H535C572 580 593 554 608 519L667 376C677 349 683 319 683 283V252H314ZM683 90H693V283C693 320 688 350 676 380L617 523C601 561 579 590 535 590H458C412 590 389 561 375 524L321 380C310 351 304 320 304 283V90H314V242H683Z" glyph-name="Adieresis.v" horiz-adv-x="1000" unicode="&#57742;" /><glyph d="M170 303C170 339 176 369 186 396L250 560C263 594 274 620 314 620H412C449 620 460 594 475 559L544 396C554 369 560 339 560 303V272H170ZM560 90H570V303C570 340 564 371 553 400L484 563C468 602 456 630 412 630H314C268 630 256 601 241 564L177 400C166 371 160 340 160 303V90H170V262H560ZM370 -170V-111H360V-170ZM364 -253ZM364 -1000Z" glyph-name="Adotbelow" horiz-adv-x="730" unicode="&#7840;" /><glyph d="M170 303C170 339 176 369 186 396L250 560C263 594 274 620 314 620H412C449 620 460 594 475 559L544 396C554 369 560 339 560 303V272H170ZM560 90H570V303C570 340 564 371 553 400L484 563C468 602 456 630 412 630H314C268 630 256 601 241 564L177 400C166 371 160 340 160 303V90H170V262H560ZM245 867 484 837V847L245 877ZM365 747ZM365 0Z" glyph-name="Agrave" horiz-adv-x="730" unicode="&#192;" /><glyph d="M184 507C184 582 219 632 368 632C517 632 555 582 555 507V281H184ZM555 90H565V507C565 588 525 642 368 642C211 642 174 588 174 507V90H184V271H555ZM368 747ZM368 0ZM248 867 487 837V847L248 877ZM368 747ZM368 0Z" glyph-name="Agrave.salt" horiz-adv-x="736" unicode="&#57601;" /><glyph d="M380 827 619 797V807L380 837ZM500 707ZM500 -40ZM315 467C315 542 350 592 499 592C646 592 683 542 683 467V261H315ZM683 90H693V467C693 548 654 602 499 602C342 602 305 548 305 467V90H315V251H683Z" glyph-name="Agrave.salt_v" horiz-adv-x="1000" unicode="&#57838;" /><glyph d="M314 283C314 319 320 349 330 376L384 520C397 554 418 580 458 580H535C572 580 593 554 608 519L667 376C677 349 683 319 683 283V252H314ZM683 90H693V283C693 320 688 350 676 380L617 523C601 561 579 590 535 590H458C412 590 389 561 375 524L321 380C310 351 304 320 304 283V90H314V242H683ZM381 827 620 797V807L381 837ZM501 707ZM501 -40Z" glyph-name="Agrave.v" horiz-adv-x="1000" unicode="&#57738;" /><glyph d="M170 303C170 339 176 369 186 396L250 560C263 594 274 620 314 620H412C449 620 460 594 475 559L544 396C554 369 560 339 560 303V272H170ZM560 90H570V303C570 340 564 371 553 400L484 563C468 602 456 630 412 630H314C268 630 256 601 241 564L177 400C166 371 160 340 160 303V90H170V262H560ZM323 805 420 820C441 823 461 833 461 871V921C461 960 436 970 411 970H275V960H411C431 960 451 952 451 921V871C451 843 438 832 418 829L322 815Z" glyph-name="Ahookabove" horiz-adv-x="730" unicode="&#7842;" /><glyph d="M170 303C170 339 176 369 186 396L250 560C263 594 274 620 314 620H412C449 620 460 594 475 559L544 396C554 369 560 339 560 303V272H170ZM560 90H570V303C570 340 564 371 553 400L484 563C468 602 456 630 412 630H314C268 630 256 601 241 564L177 400C166 371 160 340 160 303V90H170V262H560ZM245 847V837H484V847ZM365 747ZM365 0Z" glyph-name="Amacron" horiz-adv-x="730" unicode="&#256;" /><glyph d="M184 507C184 582 219 632 368 632C517 632 555 582 555 507V281H184ZM555 90H565V507C565 588 525 642 368 642C211 642 174 588 174 507V90H184V271H555ZM368 747ZM368 0ZM248 847V837H487V847ZM368 747ZM368 0Z" glyph-name="Amacron.salt" horiz-adv-x="736" unicode="&#57607;" /><glyph d="M315 467C315 542 350 592 499 592C646 592 683 542 683 467V261H315ZM683 90H693V467C693 548 654 602 499 602C342 602 305 548 305 467V90H315V251H683ZM380 807V797H619V807ZM500 707ZM500 -40Z" glyph-name="Amacron.salt_v" horiz-adv-x="1000" unicode="&#57844;" /><glyph d="M381 807V797H620V807ZM501 707ZM501 -40ZM314 283C314 319 320 349 330 376L384 520C397 554 418 580 458 580H535C572 580 593 554 608 519L667 376C677 349 683 319 683 283V252H314ZM683 90H693V283C693 320 688 350 676 380L617 523C601 561 579 590 535 590H458C412 590 389 561 375 524L321 380C310 351 304 320 304 283V90H314V242H683Z" glyph-name="Amacron.v" horiz-adv-x="1000" unicode="&#57744;" /><glyph d="M170 303C170 339 176 369 186 396L250 560C263 594 274 620 314 620H412C449 620 460 594 475 559L544 396C554 369 560 339 560 303V272H170ZM586 -106H562C521 -106 516 -83 521 -43L533 42C537 71 541 76 566 90H570V303C570 340 564 371 553 400L484 563C468 602 456 630 412 630H314C268 630 256 601 241 564L177 400C166 371 160 340 160 303V90H170V262H560V98C532 82 528 74 523 42L511 -41C503 -91 513 -116 562 -116H586Z" glyph-name="Aogonek" horiz-adv-x="730" unicode="&#260;" /><glyph d="M184 507C184 582 219 632 368 632C517 632 555 582 555 507V281H184ZM582 -106H558C517 -106 512 -83 517 -43L529 42C533 71 537 76 562 90H565V507C565 588 525 642 368 642C211 642 174 588 174 507V90H184V271H555V97C528 82 524 74 519 42L507 -41C499 -91 509 -116 558 -116H582Z" glyph-name="Aogonek.salt" horiz-adv-x="736" unicode="&#57609;" /><glyph d="M315 467C315 542 350 592 499 592C646 592 683 542 683 467V261H315ZM713 -106H689C648 -106 643 -83 648 -43L660 42C664 71 668 76 693 90V467C693 548 654 602 499 602C342 602 305 548 305 467V90H315V251H683V96C659 82 655 74 650 42L638 -41C630 -91 640 -116 689 -116H713Z" glyph-name="Aogonek.salt_v" horiz-adv-x="1000" unicode="&#57846;" /><glyph d="M314 323C314 359 320 389 330 416L384 560C397 594 418 620 458 620H535C572 620 593 594 608 559L667 416C677 389 683 359 683 323V292H314ZM711 -66H687C646 -66 641 -43 646 -3L658 82C662 111 666 116 691 130H693V323C693 360 688 390 676 420L617 563C601 601 579 630 535 630H458C412 630 389 601 375 564L321 420C310 391 304 360 304 323V130H314V282H683V137C657 122 653 114 648 82L636 -1C628 -51 638 -76 687 -76H711Z" glyph-name="Aogonek.v" horiz-adv-x="1000" unicode="&#57746;" /><glyph d="M225 760C225 700 247 660 366 660C485 660 509 700 509 760V805C509 864 485 906 366 906C247 906 225 865 225 805ZM366 896C473 896 499 860 499 805V760C499 704 473 670 366 670C259 670 235 704 235 760V805C235 861 259 896 366 896ZM170 303C170 339 176 369 186 396L250 560C263 594 274 620 314 620H412C449 620 460 594 475 559L544 396C554 369 560 339 560 303V272H170ZM560 90H570V303C570 340 564 371 553 400L484 563C468 602 456 630 412 630H314C268 630 256 601 241 564L177 400C166 371 160 340 160 303V90H170V262H560Z" glyph-name="Aring" horiz-adv-x="730" unicode="&#197;" /><glyph d="M225 760C225 700 247 660 366 660C485 660 509 700 509 760V805C509 864 485 906 366 906C247 906 225 865 225 805ZM366 896C473 896 499 860 499 805V760C499 704 473 670 366 670C259 670 235 704 235 760V805C235 861 259 896 366 896ZM184 507C184 582 219 632 368 632C517 632 555 582 555 507V281H184ZM555 90H565V507C565 588 525 642 368 642C211 642 174 588 174 507V90H184V271H555Z" glyph-name="Aring.salt" horiz-adv-x="736" unicode="&#57606;" /><glyph d="M356 730C356 670 378 630 497 630C616 630 640 670 640 730V770C640 829 616 871 497 871C378 871 356 830 356 770ZM497 861C604 861 630 825 630 770V730C630 674 604 640 497 640C390 640 366 674 366 730V770C366 826 390 861 497 861ZM315 467C315 542 350 592 499 592C646 592 683 542 683 467V261H315ZM683 90H693V467C693 548 654 602 499 602C342 602 305 548 305 467V90H315V251H683Z" glyph-name="Aring.salt_v" horiz-adv-x="1000" unicode="&#57843;" /><glyph d="M358 731C358 671 380 631 499 631C618 631 642 671 642 731V770C642 829 618 871 499 871C380 871 358 830 358 770ZM499 861C606 861 632 825 632 770V731C632 675 606 641 499 641C392 641 368 675 368 731V770C368 826 392 861 499 861ZM314 303C314 339 320 369 330 396L394 540C407 574 418 600 458 600H535C572 600 583 574 598 539L667 396C677 369 683 339 683 303V272H314ZM683 90H693V303C693 340 689 372 676 400L607 543C589 580 579 610 535 610H458C412 610 401 580 385 544L321 400C310 371 304 340 304 303V90H314V262H683Z" glyph-name="Aring.v" horiz-adv-x="1000" unicode="&#57743;" /><glyph d="M170 303C170 339 176 369 186 396L250 560C263 594 274 620 314 620H412C449 620 460 594 475 559L544 396C554 369 560 339 560 303V272H170ZM560 90H570V303C570 340 564 371 553 400L484 563C468 602 456 630 412 630H314C268 630 256 601 241 564L177 400C166 371 160 340 160 303V90H170V262H560ZM483 841C456 838 432 841 381 849L365 851L337 855C292 861 268 863 245 860V849C267 853 291 852 335 845L363 841L379 839C430 831 456 828 483 831ZM365 747ZM365 0Z" glyph-name="Atilde" horiz-adv-x="730" unicode="&#195;" /><glyph d="M184 507C184 582 219 632 368 632C517 632 555 582 555 507V281H184ZM555 90H565V507C565 588 525 642 368 642C211 642 174 588 174 507V90H184V271H555ZM368 747ZM368 0ZM486 841C459 838 435 841 384 849L368 851L340 855C295 861 271 863 248 860V849C270 853 294 852 338 845L366 841L382 839C433 831 459 828 486 831ZM368 747ZM368 0Z" glyph-name="Atilde.salt" horiz-adv-x="736" unicode="&#57604;" /><glyph d="M315 467C315 542 350 592 499 592C646 592 683 542 683 467V261H315ZM683 90H693V467C693 548 654 602 499 602C342 602 305 548 305 467V90H315V251H683ZM618 801C591 798 567 801 516 809L500 811L472 815C427 821 403 823 380 820V809C402 813 426 812 470 805L498 801L514 799C565 791 591 788 618 791ZM500 707ZM500 -40Z" glyph-name="Atilde.salt_v" horiz-adv-x="1000" unicode="&#57841;" /><glyph d="M314 283C314 319 320 349 330 376L384 520C397 554 418 580 458 580H535C572 580 593 554 608 519L667 376C677 349 683 319 683 283V252H314ZM683 90H693V283C693 320 688 350 676 380L617 523C601 561 579 590 535 590H458C412 590 389 561 375 524L321 380C310 351 304 320 304 283V90H314V242H683ZM619 801C592 798 568 801 517 809L501 811L473 815C428 821 404 823 381 820V809C403 813 427 812 471 805L499 801L515 799C566 791 592 788 619 791ZM501 707ZM501 -40Z" glyph-name="Atilde.v" horiz-adv-x="1000" unicode="&#57741;" /><glyph d="M180 90H449C561 90 580 131 580 190V254C580 320 561 369 450 369C507 384 514 420 514 460V524C514 582 494 630 383 630H180ZM383 620C484 620 504 578 504 524V460C504 412 493 369 383 369H190V620ZM450 359C551 359 570 314 570 254V190C570 135 549 100 449 100H190V359Z" glyph-name="B" horiz-adv-x="725" unicode="B" /><glyph d="M309 90H569C681 90 700 131 700 190V254C700 320 681 369 570 369C627 384 634 420 634 460V524C634 582 614 630 503 630H309ZM503 620C604 620 624 578 624 524V460C624 412 613 369 503 369H319V620ZM570 359C671 359 690 314 690 254V190C690 135 669 100 569 100H319V359Z" glyph-name="B.v" horiz-adv-x="1000" unicode="&#65314;" /><glyph d="M493 100H326C206 100 176 132 176 219V499C176 588 208 620 326 620H493V630H326C198 630 166 594 166 499V219C166 126 196 90 326 90H493Z" glyph-name="C" horiz-adv-x="628" unicode="C" /><glyph d="M701 100H465C345 100 315 132 315 219V459C315 548 347 580 465 580H701V590H465C337 590 305 554 305 459V219C305 126 335 90 465 90H701Z" glyph-name="C.s_v" horiz-adv-x="1000" unicode="&#57927;" /><glyph d="M701 100H465C345 100 315 132 315 219V499C315 588 347 620 465 620H701V630H465C337 630 305 594 305 499V219C305 126 335 90 465 90H701Z" glyph-name="C.v" horiz-adv-x="1000" unicode="&#65315;" /><glyph d="M493 100H326C206 100 176 132 176 219V499C176 588 208 620 326 620H493V630H326C198 630 166 594 166 499V219C166 126 196 90 326 90H493ZM255 847V837L494 867V877ZM375 747ZM375 0Z" glyph-name="Cacute" horiz-adv-x="628" unicode="&#262;" /><glyph d="M701 100H465C345 100 315 132 315 219V459C315 548 347 580 465 580H701V590H465C337 590 305 554 305 459V219C305 126 335 90 465 90H701ZM390 807V797L629 827V837ZM510 707ZM510 -40Z" glyph-name="Cacute.v" horiz-adv-x="1000" unicode="&#57748;" /><glyph d="M493 100H326C206 100 176 132 176 219V499C176 588 208 620 326 620H493V630H326C198 630 166 594 166 499V219C166 126 196 90 326 90H493ZM225 879V868L308 841C320 838 329 835 344 835C359 835 368 838 380 841L463 868V879L376 851C366 848 357 845 344 845C331 845 322 848 312 851ZM345 747ZM345 0Z" glyph-name="Ccaron" horiz-adv-x="628" unicode="&#268;" /><glyph d="M390 839V828L473 801C485 798 494 795 509 795C524 795 533 798 545 801L628 828V839L541 811C531 808 522 805 509 805C496 805 487 808 477 811ZM510 707ZM510 -40ZM701 100H465C345 100 315 132 315 219V459C315 548 347 580 465 580H701V590H465C337 590 305 554 305 459V219C305 126 335 90 465 90H701Z" glyph-name="Ccaron.v" horiz-adv-x="1000" unicode="&#57751;" /><glyph d="M493 90V100H326C206 100 176 132 176 219V499C176 588 208 620 326 620H493V630H326C198 630 166 594 166 499V219C166 126 196 90 326 90H394L349 -36H359L405 90Z" glyph-name="Ccedilla" horiz-adv-x="628" unicode="&#199;" /><glyph d="M701 130V140H465C345 140 315 172 315 259V499C315 588 347 620 465 620H701V630H465C337 630 305 594 305 499V259C305 166 335 130 465 130H539L494 4H504L550 130Z" glyph-name="Ccedilla.v" horiz-adv-x="1000" unicode="&#57747;" /><glyph d="M493 100H326C206 100 176 132 176 219V499C176 588 208 620 326 620H493V630H326C198 630 166 594 166 499V219C166 126 196 90 326 90H493ZM463 850V861L380 888C368 891 359 894 344 894C329 894 320 891 308 888L225 861V850L312 878C322 881 331 884 344 884C357 884 366 881 376 878ZM345 747ZM345 0Z" glyph-name="Ccircumflex" horiz-adv-x="628" unicode="&#264;" /><glyph d="M628 810V821L545 848C533 851 524 854 509 854C494 854 485 851 473 848L390 821V810L477 838C487 841 496 844 509 844C522 844 531 841 541 838ZM510 707ZM510 -40ZM701 100H465C345 100 315 132 315 219V459C315 548 347 580 465 580H701V590H465C337 590 305 554 305 459V219C305 126 335 90 465 90H701Z" glyph-name="Ccircumflex.v" horiz-adv-x="1000" unicode="&#57749;" /><glyph d="M493 100H326C206 100 176 132 176 219V499C176 588 208 620 326 620H493V630H326C198 630 166 594 166 499V219C166 126 196 90 326 90H493ZM361 830V889H351V830ZM355 747ZM355 0Z" glyph-name="Cdotaccent" horiz-adv-x="628" unicode="&#266;" /><glyph d="M516 790V849H506V790ZM510 707ZM510 -40ZM701 100H465C345 100 315 132 315 219V459C315 548 347 580 465 580H701V590H465C337 590 305 554 305 459V219C305 126 335 90 465 90H701Z" glyph-name="Cdotaccent.v" horiz-adv-x="1000" unicode="&#57750;" /><glyph d="M178 90H420C558 90 580 149 580 226V491C580 568 556 630 420 630H178ZM420 620C546 620 570 564 570 491V226C570 153 548 100 420 100H188V620Z" glyph-name="D" horiz-adv-x="746" unicode="D" /><glyph d="M309 90H537C675 90 697 149 697 226V451C697 528 673 590 537 590H309ZM537 580C663 580 687 524 687 451V226C687 153 665 100 537 100H319V580Z" glyph-name="D.s_v" horiz-adv-x="1000" unicode="&#57928;" /><glyph d="M309 90H537C675 90 697 149 697 226V491C697 568 673 630 537 630H309ZM537 620C663 620 687 564 687 491V226C687 153 665 100 537 100H319V620Z" glyph-name="D.v" horiz-adv-x="1000" unicode="&#65316;" /><glyph d="M178 90H420C558 90 580 149 580 226V491C580 568 556 630 420 630H178ZM420 620C546 620 570 564 570 491V226C570 153 548 100 420 100H188V620ZM253 879V868L336 841C348 838 357 835 372 835C387 835 396 838 408 841L491 868V879L404 851C394 848 385 845 372 845C359 845 350 848 340 851ZM373 747ZM373 0Z" glyph-name="Dcaron" horiz-adv-x="746" unicode="&#270;" /><glyph d="M309 90H537C675 90 697 149 697 226V451C697 528 673 590 537 590H309ZM537 580C663 580 687 524 687 451V226C687 153 665 100 537 100H319V580ZM380 839V828L463 801C475 798 484 795 499 795C514 795 523 798 535 801L618 828V839L531 811C521 808 512 805 499 805C486 805 477 808 467 811ZM500 707ZM500 -40Z" glyph-name="Dcaron.v" horiz-adv-x="1000" unicode="&#57752;" /><glyph d="M290 349V359H196V620H430C556 620 580 564 580 491V226C580 153 558 100 430 100H196V349ZM186 90H430C568 90 590 149 590 226V491C590 568 566 630 430 630H186V359H110V349H186Z" glyph-name="Dcroat" horiz-adv-x="756" unicode="&#272;" /><glyph d="M411 349V359H317V620H532C658 620 682 564 682 491V226C682 153 660 100 532 100H317V349ZM307 90H532C670 90 692 149 692 226V491C692 568 668 630 532 630H307V359H231V349H307Z" glyph-name="Dcroat.v" horiz-adv-x="1000" unicode="&#57828;" /><glyph d="M178 90H420C558 90 580 149 580 226V491C580 568 556 630 420 630H178ZM420 620C546 620 570 564 570 491V226C570 153 548 100 420 100H188V620ZM378 -170V-111H368V-170ZM372 -253ZM372 -1000Z" glyph-name="Ddotbelow" horiz-adv-x="746" unicode="&#7692;" /><glyph d="M162 90H564V193C564 231 559 264 554 285L491 535C469 624 449 625 387 625H336C274 625 253 624 232 535L173 288C167 264 162 231 162 193ZM172 193C172 231 177 262 183 286L242 533C261 614 280 615 336 615H387C443 615 461 614 481 533L544 283C549 262 554 231 554 193V100H172Z" glyph-name="Delta" horiz-adv-x="730" unicode="&#8710;" /><glyph d="M178 90H420C558 90 580 149 580 226V491C580 568 556 630 420 630H178ZM420 620C546 620 570 564 570 491V226C570 153 548 100 420 100H188V620ZM248 -135V-145H487V-135ZM368 -235ZM368 -982Z" glyph-name="Dlinebelow" horiz-adv-x="746" unicode="&#7694;" /><glyph d="M515 100H188V359H434V369H188V620H515V630H178V90H515Z" glyph-name="E" horiz-adv-x="654" unicode="E" /><glyph d="M701 100H318V339H620V349H318V580H701V590H308V90H701Z" glyph-name="E.s_v" horiz-adv-x="1000" unicode="&#57929;" /><glyph d="M504 100H322C202 100 172 132 172 219V359H434V369H172V499C172 588 204 620 322 620H504V630H322C194 630 162 594 162 499V219C162 126 192 90 322 90H504ZM310 747ZM310 0Z" glyph-name="E.salt" horiz-adv-x="643" unicode="&#57610;" /><glyph d="M318 349V459C318 548 350 580 468 580H700V590H468C340 590 308 554 308 459V219C308 126 338 90 468 90H700V100H468C348 100 318 132 318 219V339H620V349Z" glyph-name="E.salt_s_v" horiz-adv-x="1000" unicode="&#57946;" /><glyph d="M465 90H701V100H465C345 100 315 132 315 219V359H620V369H315V499C315 588 347 620 465 620H701V630H465C337 630 305 594 305 499V219C305 126 335 90 465 90Z" glyph-name="E.salt_v" horiz-adv-x="1000" unicode="&#57847;" /><glyph d="M701 100H318V359H620V369H318V620H701V630H308V90H701Z" glyph-name="E.v" horiz-adv-x="1000" unicode="&#65317;" /><glyph d="M515 100H188V359H434V369H188V620H515V630H178V90H515ZM237 847V837L476 867V877ZM357 747ZM357 0Z" glyph-name="Eacute" horiz-adv-x="654" unicode="&#201;" /><glyph d="M504 100H322C202 100 172 132 172 219V359H434V369H172V499C172 588 204 620 322 620H504V630H322C194 630 162 594 162 499V219C162 126 192 90 322 90H504ZM310 747ZM310 0ZM237 847V837L476 867V877ZM357 747ZM357 0Z" glyph-name="Eacute.salt" horiz-adv-x="643" unicode="&#57612;" /><glyph d="M380 807V797L619 827V837ZM500 707ZM500 -40ZM318 349V459C318 548 350 580 468 580H700V590H468C340 590 308 554 308 459V219C308 126 338 90 468 90H700V100H468C348 100 318 132 318 219V339H620V349Z" glyph-name="Eacute.salt_v" horiz-adv-x="1000" unicode="&#57849;" /><glyph d="M380 807V797L619 827V837ZM500 707ZM500 -40ZM701 100H318V339H620V349H318V580H701V590H308V90H701Z" glyph-name="Eacute.v" horiz-adv-x="1000" unicode="&#57754;" /><glyph d="M515 100H188V359H434V369H188V620H515V630H178V90H515ZM481 907V898C481 862 454 828 346 828C238 828 216 862 216 898V907H206V898C206 860 222 818 346 818C470 818 491 860 491 898V907ZM347 747ZM347 0Z" glyph-name="Ebreve" horiz-adv-x="654" unicode="&#276;" /><glyph d="M504 100H322C202 100 172 132 172 219V359H434V369H172V499C172 588 204 620 322 620H504V630H322C194 630 162 594 162 499V219C162 126 192 90 322 90H504ZM310 747ZM310 0ZM491 907V898C491 862 464 828 356 828C248 828 226 862 226 898V907H216V898C216 860 232 818 356 818C480 818 501 860 501 898V907ZM357 747ZM357 0Z" glyph-name="Ebreve.salt" horiz-adv-x="643" unicode="&#57616;" /><glyph d="M318 349V459C318 548 350 580 468 580H700V590H468C340 590 308 554 308 459V219C308 126 338 90 468 90H700V100H468C348 100 318 132 318 219V339H620V349ZM634 867V858C634 822 607 788 499 788C391 788 369 822 369 858V867H359V858C359 820 375 778 499 778C623 778 644 820 644 858V867ZM500 707ZM500 -40Z" glyph-name="Ebreve.salt_v" horiz-adv-x="1000" unicode="&#57853;" /><glyph d="M701 100H318V339H620V349H318V580H701V590H308V90H701ZM634 867V858C634 822 607 788 499 788C391 788 369 822 369 858V867H359V858C359 820 375 778 499 778C623 778 644 820 644 858V867ZM500 707ZM500 -40Z" glyph-name="Ebreve.v" horiz-adv-x="1000" unicode="&#57758;" /><glyph d="M515 100H188V359H434V369H188V620H515V630H178V90H515ZM224 879V868L307 841C319 838 328 835 343 835C358 835 367 838 379 841L462 868V879L375 851C365 848 356 845 343 845C330 845 321 848 311 851ZM344 747ZM344 0Z" glyph-name="Ecaron" horiz-adv-x="654" unicode="&#282;" /><glyph d="M504 100H322C202 100 172 132 172 219V359H434V369H172V499C172 588 204 620 322 620H504V630H322C194 630 162 594 162 499V219C162 126 192 90 322 90H504ZM310 747ZM310 0ZM234 879V868L317 841C329 838 338 835 353 835C368 835 377 838 389 841L472 868V879L385 851C375 848 366 845 353 845C340 845 331 848 321 851ZM354 747ZM354 0Z" glyph-name="Ecaron.salt" horiz-adv-x="643" unicode="&#57619;" /><glyph d="M318 349V459C318 548 350 580 468 580H700V590H468C340 590 308 554 308 459V219C308 126 338 90 468 90H700V100H468C348 100 318 132 318 219V339H620V349ZM380 839V828L463 801C475 798 484 795 499 795C514 795 523 798 535 801L618 828V839L531 811C521 808 512 805 499 805C486 805 477 808 467 811ZM500 707ZM500 -40Z" glyph-name="Ecaron.salt_v" horiz-adv-x="1000" unicode="&#57856;" /><glyph d="M701 100H318V339H620V349H318V580H701V590H308V90H701ZM380 839V828L463 801C475 798 484 795 499 795C514 795 523 798 535 801L618 828V839L531 811C521 808 512 805 499 805C486 805 477 808 467 811ZM500 707ZM500 -40Z" glyph-name="Ecaron.v" horiz-adv-x="1000" unicode="&#57761;" /><glyph d="M515 100H188V359H434V369H188V620H515V630H178V90H515ZM455 850V861L372 888C360 891 351 894 336 894C321 894 312 891 300 888L217 861V850L304 878C314 881 323 884 336 884C349 884 358 881 368 878ZM337 747ZM337 0Z" glyph-name="Ecircumflex" horiz-adv-x="654" unicode="&#202;" /><glyph d="M504 100H322C202 100 172 132 172 219V359H434V369H172V499C172 588 204 620 322 620H504V630H322C194 630 162 594 162 499V219C162 126 192 90 322 90H504ZM310 747ZM310 0ZM465 850V861L382 888C370 891 361 894 346 894C331 894 322 891 310 888L227 861V850L314 878C324 881 333 884 346 884C359 884 368 881 378 878ZM347 747ZM347 0Z" glyph-name="Ecircumflex.salt" horiz-adv-x="643" unicode="&#57613;" /><glyph d="M618 810V821L535 848C523 851 514 854 499 854C484 854 475 851 463 848L380 821V810L467 838C477 841 486 844 499 844C512 844 521 841 531 838ZM500 707ZM500 -40ZM318 349V459C318 548 350 580 468 580H700V590H468C340 590 308 554 308 459V219C308 126 338 90 468 90H700V100H468C348 100 318 132 318 219V339H620V349Z" glyph-name="Ecircumflex.salt_v" horiz-adv-x="1000" unicode="&#57850;" /><glyph d="M618 810V821L535 848C523 851 514 854 499 854C484 854 475 851 463 848L380 821V810L467 838C477 841 486 844 499 844C512 844 521 841 531 838ZM500 707ZM500 -40ZM701 100H318V339H620V349H318V580H701V590H308V90H701Z" glyph-name="Ecircumflex.v" horiz-adv-x="1000" unicode="&#57755;" /><glyph d="M515 100H188V359H434V369H188V620H515V630H178V90H515ZM455 850V861L372 888C360 891 351 894 336 894C321 894 312 891 300 888L217 861V850L304 878C314 881 323 884 336 884C349 884 358 881 368 878ZM337 747ZM337 0ZM525 1104V1114L438 1093V1083Z" glyph-name="Ecircumflexacute" horiz-adv-x="654" unicode="&#7870;" /><glyph d="M515 100H188V359H434V369H188V620H515V630H178V90H515ZM455 850V861L372 888C360 891 351 894 336 894C321 894 312 891 300 888L217 861V850L304 878C314 881 323 884 336 884C349 884 358 881 368 878ZM337 747ZM337 0ZM332 -170V-111H322V-170ZM326 -253ZM326 -1000Z" glyph-name="Ecircumflexdotbelow" horiz-adv-x="654" unicode="&#7878;" /><glyph d="M515 100H188V359H434V369H188V620H515V630H178V90H515ZM455 850V861L372 888C360 891 351 894 336 894C321 894 312 891 300 888L217 861V850L304 878C314 881 323 884 336 884C349 884 358 881 368 878ZM337 747ZM337 0ZM505 1068 418 1089V1079L505 1058Z" glyph-name="Ecircumflexgrave" horiz-adv-x="654" unicode="&#7872;" /><glyph d="M515 100H188V359H434V369H188V620H515V630H178V90H515ZM455 850V861L372 888C360 891 351 894 336 894C321 894 312 891 300 888L217 861V850L304 878C314 881 323 884 336 884C349 884 358 881 368 878ZM337 747ZM337 0ZM474 1029 571 1044C592 1047 612 1057 612 1095V1145C612 1184 587 1194 562 1194H426V1184H562C582 1184 602 1176 602 1145V1095C602 1067 589 1056 569 1053L473 1039Z" glyph-name="Ecircumflexhookabove" horiz-adv-x="654" unicode="&#7874;" /><glyph d="M515 100H188V359H434V369H188V620H515V630H178V90H515ZM455 850V861L372 888C360 891 351 894 336 894C321 894 312 891 300 888L217 861V850L304 878C314 881 323 884 336 884C349 884 358 881 368 878ZM337 747ZM337 0ZM455 1091C428 1088 404 1091 353 1099L337 1101L309 1105C264 1111 240 1113 217 1110V1099C239 1103 263 1102 307 1095L335 1091L351 1089C402 1081 428 1078 455 1081ZM337 997ZM337 250Z" glyph-name="Ecircumflextilde" horiz-adv-x="654" unicode="&#7876;" /><glyph d="M515 100H188V359H434V369H188V620H515V630H178V90H515ZM479 830V877H469V830ZM221 830V877H211V830ZM347 747ZM347 0Z" glyph-name="Edieresis" horiz-adv-x="654" unicode="&#203;" /><glyph d="M504 100H322C202 100 172 132 172 219V359H434V369H172V499C172 588 204 620 322 620H504V630H322C194 630 162 594 162 499V219C162 126 192 90 322 90H504ZM310 747ZM310 0ZM489 830V877H479V830ZM231 830V877H221V830ZM357 747ZM357 0Z" glyph-name="Edieresis.salt" horiz-adv-x="643" unicode="&#57614;" /><glyph d="M318 349V459C318 548 350 580 468 580H700V590H468C340 590 308 554 308 459V219C308 126 338 90 468 90H700V100H468C348 100 318 132 318 219V339H620V349ZM632 790V837H622V790ZM374 790V837H364V790ZM500 707ZM500 -40Z" glyph-name="Edieresis.salt_v" horiz-adv-x="1000" unicode="&#57851;" /><glyph d="M701 100H318V339H620V349H318V580H701V590H308V90H701ZM632 790V837H622V790ZM374 790V837H364V790ZM500 707ZM500 -40Z" glyph-name="Edieresis.v" horiz-adv-x="1000" unicode="&#57756;" /><glyph d="M515 100H188V359H434V369H188V620H515V630H178V90H515ZM331 830V889H321V830ZM325 747ZM325 0Z" glyph-name="Edotaccent" horiz-adv-x="654" unicode="&#278;" /><glyph d="M504 100H322C202 100 172 132 172 219V359H434V369H172V499C172 588 204 620 322 620H504V630H322C194 630 162 594 162 499V219C162 126 192 90 322 90H504ZM310 747ZM310 0ZM363 830V889H353V830ZM357 747ZM357 0Z" glyph-name="Edotaccent.salt" horiz-adv-x="643" unicode="&#57617;" /><glyph d="M506 790V849H496V790ZM500 707ZM500 -40ZM318 349V459C318 548 350 580 468 580H700V590H468C340 590 308 554 308 459V219C308 126 338 90 468 90H700V100H468C348 100 318 132 318 219V339H620V349Z" glyph-name="Edotaccent.salt_v" horiz-adv-x="1000" unicode="&#57854;" /><glyph d="M506 790V849H496V790ZM500 707ZM500 -40ZM701 100H318V339H620V349H318V580H701V590H308V90H701Z" glyph-name="Edotaccent.v" horiz-adv-x="1000" unicode="&#57759;" /><glyph d="M515 100H188V359H434V369H188V620H515V630H178V90H515ZM345 -170V-111H335V-170ZM339 -253ZM339 -1000Z" glyph-name="Edotbelow" horiz-adv-x="654" unicode="&#7864;" /><glyph d="M515 100H188V359H434V369H188V620H515V630H178V90H515ZM207 867 446 837V847L207 877ZM327 747ZM327 0Z" glyph-name="Egrave" horiz-adv-x="654" unicode="&#200;" /><glyph d="M504 100H322C202 100 172 132 172 219V359H434V369H172V499C172 588 204 620 322 620H504V630H322C194 630 162 594 162 499V219C162 126 192 90 322 90H504ZM310 747ZM310 0ZM217 867 456 837V847L217 877ZM337 747ZM337 0Z" glyph-name="Egrave.salt" horiz-adv-x="643" unicode="&#57611;" /><glyph d="M318 349V459C318 548 350 580 468 580H700V590H468C340 590 308 554 308 459V219C308 126 338 90 468 90H700V100H468C348 100 318 132 318 219V339H620V349ZM380 827 619 797V807L380 837ZM500 707ZM500 -40Z" glyph-name="Egrave.salt_v" horiz-adv-x="1000" unicode="&#57848;" /><glyph d="M701 100H318V339H620V349H318V580H701V590H308V90H701ZM380 827 619 797V807L380 837ZM500 707ZM500 -40Z" glyph-name="Egrave.v" horiz-adv-x="1000" unicode="&#57753;" /><glyph d="M515 100H188V359H434V369H188V620H515V630H178V90H515ZM293 805 390 820C411 823 431 833 431 871V921C431 960 406 970 381 970H245V960H381C401 960 421 952 421 921V871C421 843 408 832 388 829L292 815Z" glyph-name="Ehookabove" horiz-adv-x="654" unicode="&#7866;" /><glyph d="M515 100H188V359H434V369H188V620H515V630H178V90H515ZM217 847V837H456V847ZM337 747ZM337 0Z" glyph-name="Emacron" horiz-adv-x="654" unicode="&#274;" /><glyph d="M504 100H322C202 100 172 132 172 219V359H434V369H172V499C172 588 204 620 322 620H504V630H322C194 630 162 594 162 499V219C162 126 192 90 322 90H504ZM310 747ZM310 0ZM237 847V837H476V847ZM357 747ZM357 0Z" glyph-name="Emacron.salt" horiz-adv-x="643" unicode="&#57615;" /><glyph d="M380 807V797H619V807ZM500 707ZM500 -40ZM318 349V459C318 548 350 580 468 580H700V590H468C340 590 308 554 308 459V219C308 126 338 90 468 90H700V100H468C348 100 318 132 318 219V339H620V349Z" glyph-name="Emacron.salt_v" horiz-adv-x="1000" unicode="&#57852;" /><glyph d="M380 807V797H619V807ZM500 707ZM500 -40ZM701 100H318V339H620V349H318V580H701V590H308V90H701Z" glyph-name="Emacron.v" horiz-adv-x="1000" unicode="&#57757;" /><glyph d="M445 1C537 1 572 30 572 100V507C572 588 529 642 372 642C215 642 171 588 171 507V90H181V507C181 582 223 632 372 632C521 632 562 582 562 507V100C562 36 527 11 445 11Z" glyph-name="Eng" horiz-adv-x="746" unicode="&#330;" /><glyph d="M317 90V507C317 582 357 632 498 632C641 632 680 582 680 507V100C680 36 645 11 563 11V1C655 1 690 30 690 100V507C690 588 649 642 498 642C349 642 307 588 307 507V90Z" glyph-name="Eng.v" horiz-adv-x="1000" unicode="&#57833;" /><glyph d="M515 -106H491C450 -106 445 -83 450 -43L462 42C466 71 470 76 495 90H515V100H188V359H434V369H188V620H515V630H178V90H476C460 78 456 68 452 42L440 -41C432 -91 442 -116 491 -116H515Z" glyph-name="Eogonek" horiz-adv-x="654" unicode="&#280;" /><glyph d="M504 -106H480C439 -106 434 -83 439 -43L451 42C455 71 459 76 484 90H504V100H322C202 100 172 132 172 219V359H434V369H172V499C172 588 204 620 322 620H504V630H322C194 630 162 594 162 499V219C162 126 192 90 322 90H465C449 78 445 68 441 42L429 -41C421 -91 431 -116 480 -116H504Z" glyph-name="Eogonek.salt" horiz-adv-x="643" unicode="&#57618;" /><glyph d="M700 -66H676C635 -66 630 -43 635 -3L647 82C651 111 655 116 680 130H700V140H468C348 140 318 172 318 259V379H620V389H318V499C318 588 350 620 468 620H700V630H468C340 630 308 594 308 499V259C308 166 338 130 468 130H661C645 118 641 108 637 82L625 -1C617 -51 627 -76 676 -76H700Z" glyph-name="Eogonek.salt_v" horiz-adv-x="1000" unicode="&#57855;" /><glyph d="M700 -66H676C635 -66 630 -43 635 -3L647 82C651 111 655 116 680 130H701V140H318V379H620V389H318V620H701V630H308V130H661C645 118 641 108 637 82L625 -1C617 -51 627 -76 676 -76H700Z" glyph-name="Eogonek.v" horiz-adv-x="1000" unicode="&#57760;" /><glyph d="M290 349V359H196V620H430C556 620 580 564 580 491V226C580 153 558 100 430 100H196V349ZM186 90H430C568 90 590 149 590 226V491C590 568 566 630 430 630H186V359H110V349H186Z" glyph-name="Eth" horiz-adv-x="756" unicode="&#208;" /><glyph d="M411 349V359H317V620H532C658 620 682 564 682 491V226C682 153 660 100 532 100H317V349ZM307 90H532C670 90 692 149 692 226V491C692 568 668 630 532 630H307V359H231V349H307Z" glyph-name="Eth.v" horiz-adv-x="1000" unicode="&#57825;" /><glyph d="M515 100H188V359H434V369H188V620H515V630H178V90H515ZM455 841C428 838 404 841 353 849L337 851L309 855C264 861 240 863 217 860V849C239 853 263 852 307 845L335 841L351 839C402 831 428 828 455 831ZM337 747ZM337 0Z" glyph-name="Etilde" horiz-adv-x="654" unicode="&#7868;" /><glyph d="M342 90H514V100H342C222 100 192 132 192 219V273H430V283H192V433H430V443H192V499C192 588 224 620 342 620H514V630H342C214 630 182 594 182 499V443H110V433H182V283H110V273H182V219C182 126 212 90 342 90Z" glyph-name="Euro" horiz-adv-x="648" unicode="&#8364;" /><glyph d="M178 90H188V324H416V334H188V620H497V630H178Z" glyph-name="F" horiz-adv-x="618" unicode="F" /><glyph d="M310 90H320V324H620V334H320V620H701V630H310Z" glyph-name="F.v" horiz-adv-x="1000" unicode="&#65318;" /><glyph d="M347 90H546V291H536V100H347C212 100 177 132 177 219V499C177 588 209 620 327 620H500V630H327C199 630 167 594 167 499V219C167 126 200 90 347 90Z" glyph-name="G" horiz-adv-x="708" unicode="G" /><glyph d="M304 457V219C304 126 337 90 484 90H692V291H682V100H484C349 100 314 132 314 219V457C314 546 346 578 464 578H645V588H464C336 588 304 552 304 457Z" glyph-name="G.s_v" horiz-adv-x="1000" unicode="&#57930;" /><glyph d="M484 90H692V291H682V100H484C349 100 314 132 314 219V499C314 588 346 620 464 620H645V630H464C336 630 304 594 304 499V219C304 126 337 90 484 90ZM491 747ZM491 0Z" glyph-name="G.v" horiz-adv-x="1000" unicode="&#65319;" /><glyph d="M347 90H546V291H536V100H347C212 100 177 132 177 219V499C177 588 209 620 327 620H500V630H327C199 630 167 594 167 499V219C167 126 200 90 347 90ZM508 907V898C508 862 481 828 373 828C265 828 243 862 243 898V907H233V898C233 860 249 818 373 818C497 818 518 860 518 898V907ZM374 747ZM374 0Z" glyph-name="Gbreve" horiz-adv-x="708" unicode="&#286;" /><glyph d="M304 457V219C304 126 337 90 484 90H692V291H682V100H484C349 100 314 132 314 219V457C314 546 346 578 464 578H645V588H464C336 588 304 552 304 457ZM634 867V858C634 822 607 788 499 788C391 788 369 822 369 858V867H359V858C359 820 375 778 499 778C623 778 644 820 644 858V867ZM500 707ZM500 -40Z" glyph-name="Gbreve.v" horiz-adv-x="1000" unicode="&#57763;" /><glyph d="M347 90H546V291H536V100H347C212 100 177 132 177 219V499C177 588 209 620 327 620H500V630H327C199 630 167 594 167 499V219C167 126 200 90 347 90ZM235 879V868L318 841C330 838 339 835 354 835C369 835 378 838 390 841L473 868V879L386 851C376 848 367 845 354 845C341 845 332 848 322 851ZM355 747ZM355 0Z" glyph-name="Gcaron" horiz-adv-x="708" unicode="&#486;" /><glyph d="M347 90H546V291H536V100H347C212 100 177 132 177 219V499C177 588 209 620 327 620H500V630H327C199 630 167 594 167 499V219C167 126 200 90 347 90ZM499 850V861L416 888C404 891 395 894 380 894C365 894 356 891 344 888L261 861V850L348 878C358 881 367 884 380 884C393 884 402 881 412 878ZM381 747ZM381 0Z" glyph-name="Gcircumflex" horiz-adv-x="708" unicode="&#284;" /><glyph d="M304 457V219C304 126 337 90 484 90H692V291H682V100H484C349 100 314 132 314 219V457C314 546 346 578 464 578H645V588H464C336 588 304 552 304 457ZM618 810V821L535 848C523 851 514 854 499 854C484 854 475 851 463 848L380 821V810L467 838C477 841 486 844 499 844C512 844 521 841 531 838ZM500 707ZM500 -40Z" glyph-name="Gcircumflex.v" horiz-adv-x="1000" unicode="&#57762;" /><glyph d="M347 90H546V291H536V100H347C212 100 177 132 177 219V499C177 588 209 620 327 620H500V630H327C199 630 167 594 167 499V219C167 126 200 90 347 90ZM433 -132H315V-142H423V-229C423 -283 398 -305 350 -305H315V-315H350C404 -315 433 -290 433 -229ZM374 747ZM374 0Z" glyph-name="Gcommaaccent" horiz-adv-x="708" unicode="&#290;" /><glyph d="M304 497V259C304 166 337 130 484 130H692V331H682V140H484C349 140 314 172 314 259V497C314 586 346 618 464 618H645V628H464C336 628 304 592 304 497ZM435 -84V-94H557V-171C557 -218 531 -242 489 -242H435V-252H489C537 -252 567 -225 567 -171V-84Z" glyph-name="Gcommaaccent.v" horiz-adv-x="1000" unicode="&#57765;" /><glyph d="M347 90H546V291H536V100H347C212 100 177 132 177 219V499C177 588 209 620 327 620H500V630H327C199 630 167 594 167 499V219C167 126 200 90 347 90ZM380 830V889H370V830ZM374 747ZM374 0Z" glyph-name="Gdotaccent" horiz-adv-x="708" unicode="&#288;" /><glyph d="M304 457V219C304 126 337 90 484 90H692V291H682V100H484C349 100 314 132 314 219V457C314 546 346 578 464 578H645V588H464C336 588 304 552 304 457ZM506 790V849H496V790ZM500 707ZM500 -40Z" glyph-name="Gdotaccent.v" horiz-adv-x="1000" unicode="&#57764;" /><glyph d="M193 90V620H431C492 620 513 585 495 520L451 364H511C573 364 606 339 606 276V188C606 126 577 100 502 100H446V90H502C585 90 616 120 616 188V276C616 345 581 374 511 374H465L505 518C525 593 500 630 431 630H183V90Z" glyph-name="Germandbls" horiz-adv-x="759" unicode="&#7838;" /><glyph d="M319 620H558C619 620 640 585 622 520L588 364H608C665 364 696 339 696 276V188C696 126 669 100 600 100H567V90H600C677 90 706 120 706 188V276C706 345 673 374 608 374H602L632 518C647 591 627 630 558 630H309V90H319Z" glyph-name="Germandbls.v" horiz-adv-x="1000" unicode="&#57836;" /><glyph d="M347 90H546V291H536V100H347C212 100 177 132 177 219V499C177 588 209 620 327 620H500V630H327C199 630 167 594 167 499V219C167 126 200 90 347 90ZM261 847V837H500V847ZM381 747ZM381 0Z" glyph-name="Gmacron" horiz-adv-x="708" unicode="&#7712;" /><glyph d="M177 90H187V355H571V90H581V630H571V365H187V630H177Z" glyph-name="H" horiz-adv-x="759" unicode="H" /><glyph d="M309 90H319V335H681V90H691V590H681V345H319V590H309Z" glyph-name="H.s_v" horiz-adv-x="1000" unicode="&#57931;" /><glyph d="M309 90H319V355H681V90H691V630H681V365H319V630H309Z" glyph-name="H.v" horiz-adv-x="1000" unicode="&#65320;" /><glyph d="M583 504V252H196V504ZM186 90H196V242H583V90H593V504H659V514H593V630H583V514H196V630H186V514H120V504H186Z" glyph-name="Hbar" horiz-adv-x="779" unicode="&#294;" /><glyph d="M683 504V252H316V504ZM306 90H316V242H683V90H693V504H759V514H693V630H683V514H316V630H306V514H240V504H306Z" glyph-name="Hbar.v" horiz-adv-x="1000" unicode="&#57829;" /><glyph d="M177 90H187V355H571V90H581V630H571V365H187V630H177ZM514 -113V-122C514 -158 487 -192 379 -192C271 -192 249 -158 249 -122V-113H239V-122C239 -160 255 -202 379 -202C503 -202 524 -160 524 -122V-113ZM380 -273ZM380 -1020Z" glyph-name="Hbrevebelow" horiz-adv-x="759" unicode="&#7722;" /><glyph d="M177 90H187V355H571V90H581V630H571V365H187V630H177ZM497 850V861L414 888C402 891 393 894 378 894C363 894 354 891 342 888L259 861V850L346 878C356 881 365 884 378 884C391 884 400 881 410 878ZM379 747ZM379 0Z" glyph-name="Hcircumflex" horiz-adv-x="759" unicode="&#292;" /><glyph d="M309 90H319V335H681V90H691V590H681V345H319V590H309ZM618 810V821L535 848C523 851 514 854 499 854C484 854 475 851 463 848L380 821V810L467 838C477 841 486 844 499 844C512 844 521 841 531 838ZM500 707ZM500 -40Z" glyph-name="Hcircumflex.v" horiz-adv-x="1000" unicode="&#57766;" /><glyph d="M177 90H187V355H571V90H581V630H571V365H187V630H177ZM385 -170V-111H375V-170ZM379 -253ZM379 -1000Z" glyph-name="Hdotbelow" horiz-adv-x="759" unicode="&#7716;" /><glyph d="M461 90V100H308V620H461V630H143V620H298V100H143V90Z" glyph-name="I" horiz-adv-x="605" unicode="I" /><glyph d="M701 90V100H505V580H701V590H299V580H495V100H299V90Z" glyph-name="I.s_v" horiz-adv-x="1000" unicode="&#57932;" /><glyph d="M181 630V90H191V630ZM185 747ZM185 0Z" glyph-name="I.salt" horiz-adv-x="371" unicode="&#57620;" /><glyph d="M495 590V90H505V590Z" glyph-name="I.salt_s_v" horiz-adv-x="1000" unicode="&#57947;" /><glyph d="M495 630V90H505V630ZM499 747ZM499 0Z" glyph-name="I.salt_v" horiz-adv-x="1000" unicode="&#57857;" /><glyph d="M701 90V100H505V620H701V630H299V620H495V100H299V90Z" glyph-name="I.v" horiz-adv-x="1000" unicode="&#65321;" /><glyph d="M420 90C548 90 572 149 572 256V630H562V256C562 153 538 100 420 100H159V90ZM187 400V630H177V400Z" glyph-name="IJ" horiz-adv-x="744" unicode="&#306;" /><glyph d="M181 630V90H191V630ZM185 747ZM185 0ZM849 630V213C849 138 810 88 678 88C540 88 500 137 500 213V292H490V213C490 133 528 78 678 78C820 78 859 134 859 213V630Z" glyph-name="IJ.salt" horiz-adv-x="1033" unicode="&#57654;" /><glyph d="M496 999V499H506V999ZM681 239V-138C681 -213 640 -263 502 -263C357 -263 315 -214 315 -138V-54H305V-138C305 -218 344 -273 502 -273C650 -273 691 -217 691 -138V239Z" glyph-name="IJ.salt_v" horiz-adv-x="1000" unicode="&#57893;" /><glyph d="M461 90V100H308V620H461V630H143V620H298V100H143V90ZM1079 630V213C1079 138 1040 88 908 88C770 88 730 137 730 213V292H720V213C720 133 758 78 908 78C1050 78 1089 134 1089 213V630Z" glyph-name="IJ.stack" horiz-adv-x="1263" unicode="&#57655;" /><glyph d="M701 502V512H505V992H701V1002H299V992H495V512H299V502ZM680 222V-155C680 -230 639 -280 501 -280C356 -280 314 -231 314 -155V-71H304V-155C304 -235 343 -290 501 -290C649 -290 690 -234 690 -155V222Z" glyph-name="IJ.stack_v" horiz-adv-x="1000" unicode="&#57894;" /><glyph d="M552 90C669 90 691 149 691 256V630H681V256C681 153 659 100 552 100H291V90ZM319 420V630H309V420Z" glyph-name="IJ.v" horiz-adv-x="1000" unicode="&#57830;" /><glyph d="M681 630V90H691V630ZM309 630V90H319V630Z" glyph-name="I_I.salt_v" horiz-adv-x="1000" unicode="&#57858;" /><glyph d="M461 90V100H308V620H461V630H143V620H298V100H143V90ZM182 847V837L421 867V877ZM302 747ZM302 0Z" glyph-name="Iacute" horiz-adv-x="605" unicode="&#205;" /><glyph d="M80 849V839L289 865V875ZM181 630V90H191V630Z" glyph-name="Iacute.salt" horiz-adv-x="371" unicode="&#57622;" /><glyph d="M380 807V797L619 827V837ZM500 707ZM500 -40ZM495 590V90H505V590Z" glyph-name="Iacute.salt_v" horiz-adv-x="1000" unicode="&#57860;" /><glyph d="M701 90V100H505V580H701V590H299V580H495V100H299V90ZM380 807V797L619 827V837ZM500 707ZM500 -40Z" glyph-name="Iacute.v" horiz-adv-x="1000" unicode="&#57768;" /><glyph d="M461 90V100H308V620H461V630H143V620H298V100H143V90ZM436 907V898C436 862 409 828 301 828C193 828 171 862 171 898V907H161V898C161 860 177 818 301 818C425 818 446 860 446 898V907ZM302 747ZM302 0Z" glyph-name="Ibreve" horiz-adv-x="605" unicode="&#300;" /><glyph d="M181 630V90H191V630ZM185 747ZM185 0ZM319 907V898C319 862 292 828 184 828C76 828 54 862 54 898V907H44V898C44 860 60 818 184 818C308 818 329 860 329 898V907ZM185 747ZM185 0Z" glyph-name="Ibreve.salt" horiz-adv-x="371" unicode="&#57627;" /><glyph d="M495 590V90H505V590ZM634 867V858C634 822 607 788 499 788C391 788 369 822 369 858V867H359V858C359 820 375 778 499 778C623 778 644 820 644 858V867ZM500 707ZM500 -40Z" glyph-name="Ibreve.salt_v" horiz-adv-x="1000" unicode="&#57865;" /><glyph d="M701 90V100H505V580H701V590H299V580H495V100H299V90ZM634 867V858C634 822 607 788 499 788C391 788 369 822 369 858V867H359V858C359 820 375 778 499 778C623 778 644 820 644 858V867ZM500 707ZM500 -40Z" glyph-name="Ibreve.v" horiz-adv-x="1000" unicode="&#57773;" /><glyph d="M461 90V100H308V620H461V630H143V620H298V100H143V90ZM183 879V868L266 841C278 838 287 835 302 835C317 835 326 838 338 841L421 868V879L334 851C324 848 315 845 302 845C289 845 280 848 270 851ZM303 747ZM303 0Z" glyph-name="Icaron" horiz-adv-x="605" unicode="&#463;" /><glyph d="M461 90V100H308V620H461V630H143V620H298V100H143V90ZM420 850V861L337 888C325 891 316 894 301 894C286 894 277 891 265 888L182 861V850L269 878C279 881 288 884 301 884C314 884 323 881 333 878ZM302 747ZM302 0Z" glyph-name="Icircumflex" horiz-adv-x="605" unicode="&#206;" /><glyph d="M181 630V90H191V630ZM185 747ZM185 0ZM304 850V861L221 888C209 891 200 894 185 894C170 894 161 891 149 888L66 861V850L153 878C163 881 172 884 185 884C198 884 207 881 217 878ZM186 747ZM186 0Z" glyph-name="Icircumflex.salt" horiz-adv-x="371" unicode="&#57623;" /><glyph d="M495 590V90H505V590ZM618 810V821L535 848C523 851 514 854 499 854C484 854 475 851 463 848L380 821V810L467 838C477 841 486 844 499 844C512 844 521 841 531 838ZM500 707ZM500 -40Z" glyph-name="Icircumflex.salt_v" horiz-adv-x="1000" unicode="&#57861;" /><glyph d="M701 90V100H505V580H701V590H299V580H495V100H299V90ZM618 810V821L535 848C523 851 514 854 499 854C484 854 475 851 463 848L380 821V810L467 838C477 841 486 844 499 844C512 844 521 841 531 838ZM500 707ZM500 -40Z" glyph-name="Icircumflex.v" horiz-adv-x="1000" unicode="&#57769;" /><glyph d="M461 90V100H308V620H461V630H143V620H298V100H143V90ZM434 830V877H424V830ZM176 830V877H166V830ZM302 747ZM302 0Z" glyph-name="Idieresis" horiz-adv-x="605" unicode="&#207;" /><glyph d="M181 630V90H191V630ZM185 747ZM185 0ZM317 830V877H307V830ZM59 830V877H49V830ZM185 747ZM185 0Z" glyph-name="Idieresis.salt" horiz-adv-x="371" unicode="&#57624;" /><glyph d="M632 790V837H622V790ZM374 790V837H364V790ZM500 707ZM500 -40ZM495 590V90H505V590Z" glyph-name="Idieresis.salt_v" horiz-adv-x="1000" unicode="&#57862;" /><glyph d="M701 90V100H505V580H701V590H299V580H495V100H299V90ZM632 790V837H622V790ZM374 790V837H364V790ZM500 707ZM500 -40Z" glyph-name="Idieresis.v" horiz-adv-x="1000" unicode="&#57770;" /><glyph d="M461 90V100H308V620H461V630H143V620H298V100H143V90ZM308 830V889H298V830ZM302 747ZM302 0Z" glyph-name="Idotaccent" horiz-adv-x="605" unicode="&#304;" /><glyph d="M181 630V90H191V630ZM185 747ZM185 0ZM190 830V889H180V830ZM184 747ZM184 0Z" glyph-name="Idotaccent.salt" horiz-adv-x="371" unicode="&#57629;" /><glyph d="M506 790V849H496V790ZM500 707ZM500 -40ZM495 590V90H505V590Z" glyph-name="Idotaccent.salt_v" horiz-adv-x="1000" unicode="&#57867;" /><glyph d="M701 90V100H505V580H701V590H299V580H495V100H299V90ZM506 790V849H496V790ZM500 707ZM500 -40Z" glyph-name="Idotaccent.v" horiz-adv-x="1000" unicode="&#57775;" /><glyph d="M461 90V100H308V620H461V630H143V620H298V100H143V90ZM308 -170V-111H298V-170ZM302 -253ZM302 -1000Z" glyph-name="Idotbelow" horiz-adv-x="605" unicode="&#7882;" /><glyph d="M461 90V100H308V620H461V630H143V620H298V100H143V90ZM182 867 421 837V847L182 877ZM302 747ZM302 0Z" glyph-name="Igrave" horiz-adv-x="605" unicode="&#204;" /><glyph d="M80 865 289 839V849L80 875ZM181 630V90H191V630Z" glyph-name="Igrave.salt" horiz-adv-x="371" unicode="&#57621;" /><glyph d="M495 590V90H505V590ZM380 827 619 797V807L380 837ZM500 707ZM500 -40Z" glyph-name="Igrave.salt_v" horiz-adv-x="1000" unicode="&#57859;" /><glyph d="M701 90V100H505V580H701V590H299V580H495V100H299V90ZM380 827 619 797V807L380 837ZM500 707ZM500 -40Z" glyph-name="Igrave.v" horiz-adv-x="1000" unicode="&#57767;" /><glyph d="M461 90V100H308V620H461V630H143V620H298V100H143V90ZM253 805 350 820C371 823 391 833 391 871V921C391 960 366 970 341 970H205V960H341C361 960 381 952 381 921V871C381 843 368 832 348 829L252 815Z" glyph-name="Ihookabove" horiz-adv-x="605" unicode="&#7880;" /><glyph d="M461 90V100H308V620H461V630H143V620H298V100H143V90ZM182 847V837H421V847ZM302 747ZM302 0Z" glyph-name="Imacron" horiz-adv-x="605" unicode="&#298;" /><glyph d="M181 630V90H191V630ZM185 747ZM185 0ZM66 847V837H305V847ZM186 747ZM186 0Z" glyph-name="Imacron.salt" horiz-adv-x="371" unicode="&#57626;" /><glyph d="M495 590V90H505V590ZM380 807V797H619V807ZM500 707ZM500 -40Z" glyph-name="Imacron.salt_v" horiz-adv-x="1000" unicode="&#57864;" /><glyph d="M701 90V100H505V580H701V590H299V580H495V100H299V90ZM380 807V797H619V807ZM500 707ZM500 -40Z" glyph-name="Imacron.v" horiz-adv-x="1000" unicode="&#57772;" /><glyph d="M461 -106H437C396 -106 391 -83 396 -43L408 42C412 71 416 76 441 90H461V100H308V620H461V630H143V620H298V100H143V90H422C406 78 402 68 398 42L386 -41C378 -91 388 -116 437 -116H461Z" glyph-name="Iogonek" horiz-adv-x="605" unicode="&#302;" /><glyph d="M207 -106H183C142 -106 137 -83 142 -43L154 42C158 71 162 76 187 90H191V630H181V98C153 82 149 74 144 42L132 -41C124 -91 134 -116 183 -116H207Z" glyph-name="Iogonek.salt" horiz-adv-x="371" unicode="&#57628;" /><glyph d="M521 -106H497C456 -106 451 -83 456 -43L468 42C472 71 476 76 501 90H505V590H495V98C467 82 463 74 458 42L446 -41C438 -91 448 -116 497 -116H521Z" glyph-name="Iogonek.salt_v" horiz-adv-x="1000" unicode="&#57866;" /><glyph d="M701 -66H677C636 -66 631 -43 636 -3L648 82C652 111 656 116 681 130H701V140H505V620H701V630H299V620H495V140H299V130H662C646 118 642 108 638 82L626 -1C618 -51 628 -76 677 -76H701Z" glyph-name="Iogonek.v" horiz-adv-x="1000" unicode="&#57774;" /><glyph d="M461 90V100H308V620H461V630H143V620H298V100H143V90ZM420 841C393 838 369 841 318 849L302 851L274 855C229 861 205 863 182 860V849C204 853 228 852 272 845L300 841L316 839C367 831 393 828 420 831ZM302 747ZM302 0Z" glyph-name="Itilde" horiz-adv-x="605" unicode="&#296;" /><glyph d="M181 630V90H191V630ZM185 747ZM185 0ZM304 841C277 838 253 841 202 849L186 851L158 855C113 861 89 863 66 860V849C88 853 112 852 156 845L184 841L200 839C251 831 277 828 304 831ZM186 747ZM186 0Z" glyph-name="Itilde.salt" horiz-adv-x="371" unicode="&#57625;" /><glyph d="M618 801C591 798 567 801 516 809L500 811L472 815C427 821 403 823 380 820V809C402 813 426 812 470 805L498 801L514 799C565 791 591 788 618 791ZM500 707ZM500 -40ZM495 590V90H505V590Z" glyph-name="Itilde.salt_v" horiz-adv-x="1000" unicode="&#57863;" /><glyph d="M701 90V100H505V580H701V590H299V580H495V100H299V90ZM618 801C591 798 567 801 516 809L500 811L472 815C427 821 403 823 380 820V809C402 813 426 812 470 805L498 801L514 799C565 791 591 788 618 791ZM500 707ZM500 -40Z" glyph-name="Itilde.v" horiz-adv-x="1000" unicode="&#57771;" /><glyph d="M504 630V213C504 138 465 88 333 88C195 88 155 137 155 213V292H145V213C145 133 183 78 333 78C475 78 514 134 514 213V630Z" glyph-name="J" horiz-adv-x="688" unicode="J" /><glyph d="M680 590V213C680 138 639 88 501 88C356 88 314 137 314 213V297H304V213C304 133 343 78 501 78C649 78 690 134 690 213V590Z" glyph-name="J.s_v" horiz-adv-x="1000" unicode="&#57933;" /><glyph d="M680 630V213C680 138 639 88 501 88C356 88 314 137 314 213V297H304V213C304 133 343 78 501 78C649 78 690 134 690 213V630Z" glyph-name="J.v" horiz-adv-x="1000" unicode="&#65322;" /><glyph d="M504 630V213C504 138 465 88 333 88C195 88 155 137 155 213V292H145V213C145 133 183 78 333 78C475 78 514 134 514 213V630ZM620 850V861L537 888C525 891 516 894 501 894C486 894 477 891 465 888L382 861V850L469 878C479 881 488 884 501 884C514 884 523 881 533 878ZM502 747ZM502 0Z" glyph-name="Jcircumflex" horiz-adv-x="688" unicode="&#308;" /><glyph d="M680 590V213C680 138 639 88 501 88C356 88 314 137 314 213V297H304V213C304 133 343 78 501 78C649 78 690 134 690 213V590ZM708 810V821L625 848C613 851 604 854 589 854C574 854 565 851 553 848L470 821V810L557 838C567 841 576 844 589 844C602 844 611 841 621 838ZM590 707ZM590 -40Z" glyph-name="Jcircumflex.v" horiz-adv-x="1000" unicode="&#57776;" /><glyph d="M188 90V354H457C531 354 568 330 568 266V90H578V266C578 336 539 364 457 364H416L531 630H520L405 364H188V630H178V90Z" glyph-name="K" horiz-adv-x="746" unicode="K" /><glyph d="M320 90V334H572C646 334 683 310 683 246V90H693V246C693 316 654 344 572 344H531L646 590H635L520 344H320V590H310V90Z" glyph-name="K.s_v" horiz-adv-x="1000" unicode="&#57934;" /><glyph d="M320 90V354H572C646 354 683 330 683 266V90H693V266C693 336 654 364 572 364H531L646 630H635L520 364H320V630H310V90Z" glyph-name="K.v" horiz-adv-x="1000" unicode="&#65323;" /><glyph d="M188 90V354H457C531 354 568 330 568 266V90H578V266C578 336 539 364 457 364H416L531 630H520L405 364H188V630H178V90ZM432 -132H314V-142H422V-229C422 -283 397 -305 349 -305H314V-315H349C403 -315 432 -290 432 -229ZM373 747ZM373 0Z" glyph-name="Kcommaaccent" horiz-adv-x="746" unicode="&#310;" /><glyph d="M320 130V374H572C646 374 683 350 683 286V130H693V286C693 356 654 384 572 384H531L646 630H635L520 384H320V630H310V130ZM435 -84V-94H557V-171C557 -218 531 -242 489 -242H435V-252H489C537 -252 567 -225 567 -171V-84Z" glyph-name="Kcommaaccent.v" horiz-adv-x="1000" unicode="&#57777;" /><glyph d="M178 90H546V297H536V100H188V630H178Z" glyph-name="L" horiz-adv-x="695" unicode="L" /><glyph d="M310 90H697V287H687V100H320V590H310Z" glyph-name="L.s_v" horiz-adv-x="1000" unicode="&#57935;" /><glyph d="M178 630V90H497V100H188V630Z" glyph-name="L.salt" horiz-adv-x="615" unicode="&#57630;" /><glyph d="M310 90H701V100H320V590H310Z" glyph-name="L.salt_s_v" horiz-adv-x="1000" unicode="&#57874;" /><glyph d="M310 630H320V95L315 100H701V90H310Z" glyph-name="L.salt_v" horiz-adv-x="1000" unicode="&#57868;" /><glyph d="M310 90H697V297H687V100H320V630H310Z" glyph-name="L.v" horiz-adv-x="1000" unicode="&#65324;" /><glyph d="M178 90H546V297H536V100H188V630H178ZM159 847V837L398 867V877ZM279 747ZM279 0Z" glyph-name="Lacute" horiz-adv-x="695" unicode="&#313;" /><glyph d="M178 630V90H497V100H188V630ZM159 847V837L398 867V877ZM279 747ZM279 0Z" glyph-name="Lacute.salt" horiz-adv-x="615" unicode="&#57631;" /><glyph d="M310 90H701V100H320V590H310ZM290 807V797L529 827V837ZM410 707ZM410 -40Z" glyph-name="Lacute.salt_v" horiz-adv-x="1000" unicode="&#57869;" /><glyph d="M310 90H697V287H687V100H320V590H310ZM290 807V797L529 827V837ZM410 707ZM410 -40Z" glyph-name="Lacute.v" horiz-adv-x="1000" unicode="&#57778;" /><glyph d="M178 90H546V297H536V100H188V630H178ZM514 537 532 630H521L503 537Z" glyph-name="Lcaron" horiz-adv-x="695" unicode="&#317;" /><glyph d="M178 630V90H497V100H188V630ZM484 537 502 630H491L473 537Z" glyph-name="Lcaron.salt" horiz-adv-x="615" unicode="&#57633;" /><glyph d="M310 630H320V95L315 100H701V90H310ZM689 537 707 630H696L678 537Z" glyph-name="Lcaron.salt_v" horiz-adv-x="1000" unicode="&#57871;" /><glyph d="M310 90H697V297H687V100H320V630H310ZM689 537 707 630H696L678 537Z" glyph-name="Lcaron.v" horiz-adv-x="1000" unicode="&#57780;" /><glyph d="M178 90H546V297H536V100H188V630H178ZM423 -132H305V-142H413V-229C413 -283 388 -305 340 -305H305V-315H340C394 -315 423 -290 423 -229ZM364 747ZM364 0Z" glyph-name="Lcommaaccent" horiz-adv-x="695" unicode="&#315;" /><glyph d="M178 630V90H497V100H188V630ZM393 -132H275V-142H383V-229C383 -283 358 -305 310 -305H275V-315H310C364 -315 393 -290 393 -229ZM334 747ZM334 0Z" glyph-name="Lcommaaccent.salt" horiz-adv-x="615" unicode="&#57632;" /><glyph d="M310 130H701V140H320V630H310ZM435 -84V-94H557V-171C557 -218 531 -242 489 -242H435V-252H489C537 -252 567 -225 567 -171V-84Z" glyph-name="Lcommaaccent.salt_v" horiz-adv-x="1000" unicode="&#57870;" /><glyph d="M310 130H697V327H687V140H320V630H310ZM435 -84V-94H557V-171C557 -218 531 -242 489 -242H435V-252H489C537 -252 567 -225 567 -171V-84Z" glyph-name="Lcommaaccent.v" horiz-adv-x="1000" unicode="&#57779;" /><glyph d="M178 90H546V217H536V100H188V630H178ZM527 442H537V497H527Z" glyph-name="Ldot" horiz-adv-x="695" unicode="&#319;" /><glyph d="M178 630V90H497V100H188V630ZM496 400V459H486V400ZM490 317ZM490 -430Z" glyph-name="Ldot.salt" horiz-adv-x="615" unicode="&#57634;" /><glyph d="M310 130H701V140H320V630H310ZM522 -150V-91H512V-150ZM516 -233ZM516 -980Z" glyph-name="Ldot.salt_v" horiz-adv-x="1000" unicode="&#57872;" /><glyph d="M310 130H697V327H687V140H320V630H310ZM512 -148H522V-93H512Z" glyph-name="Ldot.v" horiz-adv-x="1000" unicode="&#57831;" /><glyph d="M178 90H546V297H536V100H188V630H178ZM368 -170V-111H358V-170ZM362 -253ZM362 -1000Z" glyph-name="Ldotbelow" horiz-adv-x="695" unicode="&#7734;" /><glyph d="M178 90H546V297H536V100H188V630H178ZM368 -170V-111H358V-170ZM362 -253ZM362 -1000ZM230 847V837H469V847ZM350 747ZM350 0Z" glyph-name="Ldotbelowmacron" horiz-adv-x="695" unicode="&#7736;" /><glyph d="M178 90H546V297H536V100H188V630H178ZM228 -118V-128H467V-118ZM348 -218ZM348 -965Z" glyph-name="Llinebelow" horiz-adv-x="695" unicode="&#7738;" /><glyph d="M556 90V297H546V100H198V393L310 411V421L198 403V630H188V401L110 388V378L188 391V90Z" glyph-name="Lslash" horiz-adv-x="705" unicode="&#321;" /><glyph d="M110 378 188 391V401L198 403V630H188V401L110 388ZM507 90V100H198V393L310 411V421L198 403V393L188 391V90Z" glyph-name="Lslash.salt" horiz-adv-x="625" unicode="&#57635;" /><glyph d="M310 90H701V100H320V389L434 408V418L320 399V630H310V398L234 385V375L310 388Z" glyph-name="Lslash.salt_v" horiz-adv-x="1000" unicode="&#57873;" /><glyph d="M697 90V297H687V100H320V389L434 408V418L320 399V630H310V398L234 385V375L310 388V90Z" glyph-name="Lslash.v" horiz-adv-x="1000" unicode="&#57832;" /><glyph d="M421 385C397 385 393 392 370 427L248 613C240 626 229 630 218 630H201C183 630 175 621 175 599V90H185V599C185 610 187 620 201 620H216C225 620 232 619 240 606L362 422C386 386 392 375 421 375C450 375 456 386 480 422L602 606C610 619 616 620 625 620H640C654 620 657 610 657 599V90H667V599C667 621 659 630 640 630H623C612 630 602 626 594 613L472 427C449 392 445 385 421 385Z" glyph-name="M" horiz-adv-x="849" unicode="M" /><glyph d="M181 507C181 582 221.1471 632 356 632C491.1173 632 530 582 530 507V90H540V507C540 582 579.8611 632 715 632C849.8757 632 889 582 889 507V90H899V507C899 588 857.8827 642 715 642C596.2973 642 548.9801 604.9161 535 546C522.0161 604.9267 474.6848 642 356 642C213.1389 642 171 588 171 507V90H181ZM535 747ZM535 0Z" glyph-name="M.salt" horiz-adv-x="1070" unicode="&#57636;" /><glyph d="M251 507C251 582 280 632 374 632C468 632 495 582 495 507V90H505V507C505 582 532 632 627 632C721 632 748 582 748 507V90H758V507C758 588 729 642 627 642C546 642 511 608 500 553C489 608 455 642 374 642C272 642 241 588 241 507V90H251Z" glyph-name="M.salt_v" horiz-adv-x="1000" unicode="&#57875;" /><glyph d="M496 365C477 365 471 371 455 407L362 613C356 627 341 630 329 630H312C289 630 279 621 279 599L277 90H287L289 599C289 610 293 620 312 620H327C337 620 348 620 354 606L447 402C464 364 472 355 496 355C520 355 528 364 545 402L638 606C644 620 655 620 665 620H684C700 620 703 610 703 599L705 90H715L713 599C713 621 704 630 684 630H663C651 630 637 628 630 613L537 407C520 369 515 365 496 365Z" glyph-name="M.v" horiz-adv-x="1000" unicode="&#65325;" /><glyph d="M421 385C397 385 393 392 370 427L248 613C240 626 229 630 218 630H201C183 630 175 621 175 599V90H185V599C185 610 187 620 201 620H216C225 620 232 619 240 606L362 422C386 386 392 375 421 375C450 375 456 386 480 422L602 606C610 619 616 620 625 620H640C654 620 657 610 657 599V90H667V599C667 621 659 630 640 630H623C612 630 602 626 594 613L472 427C449 392 445 385 421 385ZM429 -170V-111H419V-170ZM423 -253ZM423 -1000Z" glyph-name="Mdotbelow" horiz-adv-x="849" unicode="&#7746;" /><glyph d="M201 622C194 629 192 631 186 631C180 631 174 627 174 619V90H184V617C184 618 184 620 186 620C188 620 189 619 191 617L569 193V90H579V630H569V208Z" glyph-name="N" horiz-adv-x="753" unicode="N" /><glyph d="M318 591C312 591 306 587 306 579V90H316V577C316 578 316 580 318 580C320 580 321 579 323 577L685 173V90H695V590H685V188L333 582C326 589 324 591 318 591Z" glyph-name="N.s_v" horiz-adv-x="1000" unicode="&#57936;" /><glyph d="M572 90V507C572 588 529 642 372 642C215 642 171 588 171 507V90H181V507C181 582 223 632 372 632C521 632 562 582 562 507V90ZM373 747ZM373 0Z" glyph-name="N.salt" horiz-adv-x="746" unicode="&#57637;" /><glyph d="M690 90V467C690 548 649 602 499 602C349 602 307 548 307 467V90H317V467C317 542 357 592 499 592C641 592 680 542 680 467V90Z" glyph-name="N.salt_s_v" horiz-adv-x="1000" unicode="&#57948;" /><glyph d="M690 90V507C690 588 649 642 499 642C349 642 307 588 307 507V90H317V507C317 582 357 632 499 632C641 632 680 582 680 507V90ZM509 747ZM509 0Z" glyph-name="N.salt_v" horiz-adv-x="1000" unicode="&#57876;" /><glyph d="M318 631C312 631 306 627 306 619V90H316V617C316 618 316 620 318 620C320 620 321 619 323 617L685 193V90H695V630H685V208L333 622C326 629 324 631 318 631Z" glyph-name="N.v" horiz-adv-x="1000" unicode="&#65326;" /><glyph d="M201 622C194 629 192 631 186 631C180 631 174 627 174 619V90H184V617C184 618 184 620 186 620C188 620 189 619 191 617L569 193V90H579V630H569V208ZM266 847V837L505 867V877ZM386 747ZM386 0Z" glyph-name="Nacute" horiz-adv-x="753" unicode="&#323;" /><glyph d="M572 90V507C572 588 529 642 372 642C215 642 171 588 171 507V90H181V507C181 582 223 632 372 632C521 632 562 582 562 507V90ZM373 747ZM373 0ZM263 847V837L502 867V877ZM383 747ZM383 0Z" glyph-name="Nacute.salt" horiz-adv-x="746" unicode="&#57639;" /><glyph d="M380 807V797L619 827V837ZM500 707ZM500 -40ZM690 90V467C690 548 649 602 499 602C349 602 307 548 307 467V90H317V467C317 542 357 592 499 592C641 592 680 542 680 467V90Z" glyph-name="Nacute.salt_v" horiz-adv-x="1000" unicode="&#57878;" /><glyph d="M318 591C312 591 306 587 306 579V90H316V577C316 578 316 580 318 580C320 580 321 579 323 577L685 173V90H695V590H685V188L333 582C326 589 324 591 318 591ZM380 807V797L619 827V837ZM500 707ZM500 -40Z" glyph-name="Nacute.v" horiz-adv-x="1000" unicode="&#57782;" /><glyph d="M201 622C194 629 192 631 186 631C180 631 174 627 174 619V90H184V617C184 618 184 620 186 620C188 620 189 619 191 617L569 193V90H579V630H569V208ZM246 879V868L329 841C341 838 350 835 365 835C380 835 389 838 401 841L484 868V879L397 851C387 848 378 845 365 845C352 845 343 848 333 851ZM366 747ZM366 0Z" glyph-name="Ncaron" horiz-adv-x="753" unicode="&#327;" /><glyph d="M572 90V507C572 588 529 642 372 642C215 642 171 588 171 507V90H181V507C181 582 223 632 372 632C521 632 562 582 562 507V90ZM373 747ZM373 0ZM253 879V868L336 841C348 838 357 835 372 835C387 835 396 838 408 841L491 868V879L404 851C394 848 385 845 372 845C359 845 350 848 340 851ZM373 747ZM373 0Z" glyph-name="Ncaron.salt" horiz-adv-x="746" unicode="&#57641;" /><glyph d="M380 839V828L463 801C475 798 484 795 499 795C514 795 523 798 535 801L618 828V839L531 811C521 808 512 805 499 805C486 805 477 808 467 811ZM500 707ZM500 -40ZM690 90V467C690 548 649 602 499 602C349 602 307 548 307 467V90H317V467C317 542 357 592 499 592C641 592 680 542 680 467V90Z" glyph-name="Ncaron.salt_v" horiz-adv-x="1000" unicode="&#57880;" /><glyph d="M318 591C312 591 306 587 306 579V90H316V577C316 578 316 580 318 580C320 580 321 579 323 577L685 173V90H695V590H685V188L333 582C326 589 324 591 318 591ZM380 839V828L463 801C475 798 484 795 499 795C514 795 523 798 535 801L618 828V839L531 811C521 808 512 805 499 805C486 805 477 808 467 811ZM500 707ZM500 -40Z" glyph-name="Ncaron.v" horiz-adv-x="1000" unicode="&#57784;" /><glyph d="M201 622C194 629 192 631 186 631C180 631 174 627 174 619V90H184V617C184 618 184 620 186 620C188 620 189 619 191 617L569 193V90H579V630H569V208ZM435 -132H317V-142H425V-229C425 -283 400 -305 352 -305H317V-315H352C406 -315 435 -290 435 -229ZM376 747ZM376 0Z" glyph-name="Ncommaaccent" horiz-adv-x="753" unicode="&#325;" /><glyph d="M572 90V507C572 588 529 642 372 642C215 642 171 588 171 507V90H181V507C181 582 223 632 372 632C521 632 562 582 562 507V90ZM373 747ZM373 0ZM432 -132H314V-142H422V-229C422 -283 397 -305 349 -305H314V-315H349C403 -315 432 -290 432 -229ZM373 747ZM373 0Z" glyph-name="Ncommaaccent.salt" horiz-adv-x="746" unicode="&#57640;" /><glyph d="M690 210V507C690 588 649 642 499 642C349 642 307 588 307 507V210H317V507C317 582 357 632 499 632C641 632 680 582 680 507V210ZM435 16V6H557V-71C557 -118 531 -142 489 -142H435V-152H489C537 -152 567 -125 567 -71V16Z" glyph-name="Ncommaaccent.salt_v" horiz-adv-x="1000" unicode="&#57879;" /><glyph d="M318 631C312 631 306 627 306 619V130H316V617C316 618 316 620 318 620C320 620 321 619 323 617L685 213V130H695V630H685V228L333 622C326 629 324 631 318 631ZM435 -84V-94H557V-171C557 -218 531 -242 489 -242H435V-252H489C537 -252 567 -225 567 -171V-84Z" glyph-name="Ncommaaccent.v" horiz-adv-x="1000" unicode="&#57783;" /><glyph d="M201 622C194 629 192 631 186 631C180 631 174 627 174 619V90H184V617C184 618 184 620 186 620C188 620 189 619 191 617L569 193V90H579V630H569V208ZM382 830V889H372V830ZM376 747ZM376 0Z" glyph-name="Ndotaccent" horiz-adv-x="753" unicode="&#7748;" /><glyph d="M201 622C194 629 192 631 186 631C180 631 174 627 174 619V90H184V617C184 618 184 620 186 620C188 620 189 619 191 617L569 193V90H579V630H569V208ZM382 -170V-111H372V-170ZM376 -253ZM376 -1000Z" glyph-name="Ndotbelow" horiz-adv-x="753" unicode="&#7750;" /><glyph d="M201 622C194 629 192 631 186 631C180 631 174 627 174 619V90H184V617C184 618 184 620 186 620C188 620 189 619 191 617L569 193V90H579V630H569V208ZM257 -118V-128H496V-118ZM377 -218ZM377 -965Z" glyph-name="Nlinebelow" horiz-adv-x="753" unicode="&#7752;" /><glyph d="M201 622C194 629 192 631 186 631C180 631 174 627 174 619V90H184V617C184 618 184 620 186 620C188 620 189 619 191 617L569 193V90H579V630H569V208ZM494 841C467 838 443 841 392 849L376 851L348 855C303 861 279 863 256 860V849C278 853 302 852 346 845L374 841L390 839C441 831 467 828 494 831ZM376 747ZM376 0Z" glyph-name="Ntilde" horiz-adv-x="753" unicode="&#209;" /><glyph d="M572 90V507C572 588 529 642 372 642C215 642 171 588 171 507V90H181V507C181 582 223 632 372 632C521 632 562 582 562 507V90ZM373 747ZM373 0ZM491 841C464 838 440 841 389 849L373 851L345 855C300 861 276 863 253 860V849C275 853 299 852 343 845L371 841L387 839C438 831 464 828 491 831ZM373 747ZM373 0Z" glyph-name="Ntilde.salt" horiz-adv-x="746" unicode="&#57638;" /><glyph d="M690 90V467C690 548 649 602 499 602C349 602 307 548 307 467V90H317V467C317 542 357 592 499 592C641 592 680 542 680 467V90ZM618 801C591 798 567 801 516 809L500 811L472 815C427 821 403 823 380 820V809C402 813 426 812 470 805L498 801L514 799C565 791 591 788 618 791ZM500 707ZM500 -40Z" glyph-name="Ntilde.salt_v" horiz-adv-x="1000" unicode="&#57877;" /><glyph d="M318 591C312 591 306 587 306 579V90H316V577C316 578 316 580 318 580C320 580 321 579 323 577L685 173V90H695V590H685V188L333 582C326 589 324 591 318 591ZM618 801C591 798 567 801 516 809L500 811L472 815C427 821 403 823 380 820V809C402 813 426 812 470 805L498 801L514 799C565 791 591 788 618 791ZM500 707ZM500 -40Z" glyph-name="Ntilde.v" horiz-adv-x="1000" unicode="&#57781;" /><glyph d="M570 212V507C570 588 524 642 367 642C210 642 166 588 166 507V212C166 131 210 77 367 77C524 77 570 131 570 212ZM176 212V507C176 582 218 632 367 632C516 632 560 582 560 507V212C560 137 516 87 367 87C218 87 176 137 176 212Z" glyph-name="O" horiz-adv-x="737" unicode="O" /><glyph d="M696 212V467C696 548 651 602 499 602C347 602 305 548 305 467V212C305 131 347 77 499 77C651 77 696 131 696 212ZM315 212V467C315 542 355 592 499 592C643 592 686 542 686 467V212C686 137 643 87 499 87C355 87 315 137 315 212Z" glyph-name="O.s_v" horiz-adv-x="1000" unicode="&#57937;" /><glyph d="M696 212V507C696 588 651 642 499 642C347 642 305 588 305 507V212C305 131 347 77 499 77C651 77 696 131 696 212ZM315 212V507C315 582 355 632 499 632C643 632 686 582 686 507V212C686 137 643 87 499 87C355 87 315 137 315 212Z" glyph-name="O.v" horiz-adv-x="1000" unicode="&#65327;" /><glyph d="M326 100C201 100 177 151 176 221V491C176 564 200 620 326 620H549V100ZM326 90H866V100H559V360H785V370H559V620H866V630H326C190 630 166 568 166 491V226C166 149 188 90 326 90Z" glyph-name="OE" horiz-adv-x="1015" unicode="&#338;" /><glyph d="M426 100C309 100 287 151 286 221V491C286 564 308 620 426 620H576V100ZM426 90H731V100H586V360H730V370H586V620H731V630H426C299 630 276 568 276 491V226C276 149 297 90 426 90Z" glyph-name="OE.v" horiz-adv-x="1000" unicode="&#57834;" /><glyph d="M570 212V507C570 588 524 642 367 642C210 642 166 588 166 507V212C166 131 210 77 367 77C524 77 570 131 570 212ZM176 212V507C176 582 218 632 367 632C516 632 560 582 560 507V212C560 137 516 87 367 87C218 87 176 137 176 212ZM248 847V837L487 867V877ZM368 747ZM368 0Z" glyph-name="Oacute" horiz-adv-x="737" unicode="&#211;" /><glyph d="M696 212V467C696 548 651 602 499 602C347 602 305 548 305 467V212C305 131 347 77 499 77C651 77 696 131 696 212ZM315 212V467C315 542 355 592 499 592C643 592 686 542 686 467V212C686 137 643 87 499 87C355 87 315 137 315 212ZM380 807V797L619 827V837ZM500 707ZM500 -40Z" glyph-name="Oacute.v" horiz-adv-x="1000" unicode="&#57786;" /><glyph d="M570 212V507C570 588 524 642 367 642C210 642 166 588 166 507V212C166 131 210 77 367 77C524 77 570 131 570 212ZM176 212V507C176 582 218 632 367 632C516 632 560 582 560 507V212C560 137 516 87 367 87C218 87 176 137 176 212ZM502 907V898C502 862 475 828 367 828C259 828 237 862 237 898V907H227V898C227 860 243 818 367 818C491 818 512 860 512 898V907ZM368 747ZM368 0Z" glyph-name="Obreve" horiz-adv-x="737" unicode="&#334;" /><glyph d="M696 212V467C696 548 651 602 499 602C347 602 305 548 305 467V212C305 131 347 77 499 77C651 77 696 131 696 212ZM315 212V467C315 542 355 592 499 592C643 592 686 542 686 467V212C686 137 643 87 499 87C355 87 315 137 315 212ZM634 867V858C634 822 607 788 499 788C391 788 369 822 369 858V867H359V858C359 820 375 778 499 778C623 778 644 820 644 858V867ZM500 707ZM500 -40Z" glyph-name="Obreve.v" horiz-adv-x="1000" unicode="&#57791;" /><glyph d="M570 212V507C570 588 524 642 367 642C210 642 166 588 166 507V212C166 131 210 77 367 77C524 77 570 131 570 212ZM176 212V507C176 582 218 632 367 632C516 632 560 582 560 507V212C560 137 516 87 367 87C218 87 176 137 176 212ZM248 879V868L331 841C343 838 352 835 367 835C382 835 391 838 403 841L486 868V879L399 851C389 848 380 845 367 845C354 845 345 848 335 851ZM368 747ZM368 0Z" glyph-name="Ocaron" horiz-adv-x="737" unicode="&#465;" /><glyph d="M570 212V507C570 588 524 642 367 642C210 642 166 588 166 507V212C166 131 210 77 367 77C524 77 570 131 570 212ZM176 212V507C176 582 218 632 367 632C516 632 560 582 560 507V212C560 137 516 87 367 87C218 87 176 137 176 212ZM486 850V861L403 888C391 891 382 894 367 894C352 894 343 891 331 888L248 861V850L335 878C345 881 354 884 367 884C380 884 389 881 399 878ZM368 747ZM368 0Z" glyph-name="Ocircumflex" horiz-adv-x="737" unicode="&#212;" /><glyph d="M696 212V467C696 548 651 602 499 602C347 602 305 548 305 467V212C305 131 347 77 499 77C651 77 696 131 696 212ZM315 212V467C315 542 355 592 499 592C643 592 686 542 686 467V212C686 137 643 87 499 87C355 87 315 137 315 212ZM618 810V821L535 848C523 851 514 854 499 854C484 854 475 851 463 848L380 821V810L467 838C477 841 486 844 499 844C512 844 521 841 531 838ZM500 707ZM500 -40Z" glyph-name="Ocircumflex.v" horiz-adv-x="1000" unicode="&#57787;" /><glyph d="M570 212V507C570 588 524 642 367 642C210 642 166 588 166 507V212C166 131 210 77 367 77C524 77 570 131 570 212ZM176 212V507C176 582 218 632 367 632C516 632 560 582 560 507V212C560 137 516 87 367 87C218 87 176 137 176 212ZM486 850V861L403 888C391 891 382 894 367 894C352 894 343 891 331 888L248 861V850L335 878C345 881 354 884 367 884C380 884 389 881 399 878ZM368 747ZM368 0ZM556 1104V1114L469 1093V1083Z" glyph-name="Ocircumflexacute" horiz-adv-x="737" unicode="&#7888;" /><glyph d="M570 212V507C570 588 524 642 367 642C210 642 166 588 166 507V212C166 131 210 77 367 77C524 77 570 131 570 212ZM176 212V507C176 582 218 632 367 632C516 632 560 582 560 507V212C560 137 516 87 367 87C218 87 176 137 176 212ZM486 850V861L403 888C391 891 382 894 367 894C352 894 343 891 331 888L248 861V850L335 878C345 881 354 884 367 884C380 884 389 881 399 878ZM368 747ZM368 0ZM374 -170V-111H364V-170ZM368 -253ZM368 -1000Z" glyph-name="Ocircumflexdotbelow" horiz-adv-x="737" unicode="&#7896;" /><glyph d="M570 212V507C570 588 524 642 367 642C210 642 166 588 166 507V212C166 131 210 77 367 77C524 77 570 131 570 212ZM176 212V507C176 582 218 632 367 632C516 632 560 582 560 507V212C560 137 516 87 367 87C218 87 176 137 176 212ZM486 850V861L403 888C391 891 382 894 367 894C352 894 343 891 331 888L248 861V850L335 878C345 881 354 884 367 884C380 884 389 881 399 878ZM368 747ZM368 0ZM536 1068 449 1089V1079L536 1058Z" glyph-name="Ocircumflexgrave" horiz-adv-x="737" unicode="&#7890;" /><glyph d="M570 212V507C570 588 524 642 367 642C210 642 166 588 166 507V212C166 131 210 77 367 77C524 77 570 131 570 212ZM176 212V507C176 582 218 632 367 632C516 632 560 582 560 507V212C560 137 516 87 367 87C218 87 176 137 176 212ZM486 850V861L403 888C391 891 382 894 367 894C352 894 343 891 331 888L248 861V850L335 878C345 881 354 884 367 884C380 884 389 881 399 878ZM368 747ZM368 0ZM505 1029 602 1044C623 1047 643 1057 643 1095V1145C643 1184 618 1194 593 1194H457V1184H593C613 1184 633 1176 633 1145V1095C633 1067 620 1056 600 1053L504 1039Z" glyph-name="Ocircumflexhookabove" horiz-adv-x="737" unicode="&#7892;" /><glyph d="M570 212V507C570 588 524 642 367 642C210 642 166 588 166 507V212C166 131 210 77 367 77C524 77 570 131 570 212ZM176 212V507C176 582 218 632 367 632C516 632 560 582 560 507V212C560 137 516 87 367 87C218 87 176 137 176 212ZM486 850V861L403 888C391 891 382 894 367 894C352 894 343 891 331 888L248 861V850L335 878C345 881 354 884 367 884C380 884 389 881 399 878ZM368 747ZM368 0ZM486 1091C459 1088 435 1091 384 1099L368 1101L340 1105C295 1111 271 1113 248 1110V1099C270 1103 294 1102 338 1095L366 1091L382 1089C433 1081 459 1078 486 1081ZM368 997ZM368 250Z" glyph-name="Ocircumflextilde" horiz-adv-x="737" unicode="&#7894;" /><glyph d="M570 212V507C570 588 524 642 367 642C210 642 166 588 166 507V212C166 131 210 77 367 77C524 77 570 131 570 212ZM176 212V507C176 582 218 632 367 632C516 632 560 582 560 507V212C560 137 516 87 367 87C218 87 176 137 176 212ZM500 830V877H490V830ZM242 830V877H232V830ZM368 747ZM368 0Z" glyph-name="Odieresis" horiz-adv-x="737" unicode="&#214;" /><glyph d="M696 212V467C696 548 651 602 499 602C347 602 305 548 305 467V212C305 131 347 77 499 77C651 77 696 131 696 212ZM315 212V467C315 542 355 592 499 592C643 592 686 542 686 467V212C686 137 643 87 499 87C355 87 315 137 315 212ZM632 790V837H622V790ZM374 790V837H364V790ZM500 707ZM500 -40Z" glyph-name="Odieresis.v" horiz-adv-x="1000" unicode="&#57789;" /><glyph d="M570 212V507C570 588 524 642 367 642C210 642 166 588 166 507V212C166 131 210 77 367 77C524 77 570 131 570 212ZM176 212V507C176 582 218 632 367 632C516 632 560 582 560 507V212C560 137 516 87 367 87C218 87 176 137 176 212ZM374 -170V-111H364V-170ZM368 -253ZM368 -1000Z" glyph-name="Odotbelow" horiz-adv-x="737" unicode="&#7884;" /><glyph d="M570 212V507C570 588 524 642 367 642C210 642 166 588 166 507V212C166 131 210 77 367 77C524 77 570 131 570 212ZM176 212V507C176 582 218 632 367 632C516 632 560 582 560 507V212C560 137 516 87 367 87C218 87 176 137 176 212ZM248 867 487 837V847L248 877ZM368 747ZM368 0Z" glyph-name="Ograve" horiz-adv-x="737" unicode="&#210;" /><glyph d="M696 212V467C696 548 651 602 499 602C347 602 305 548 305 467V212C305 131 347 77 499 77C651 77 696 131 696 212ZM315 212V467C315 542 355 592 499 592C643 592 686 542 686 467V212C686 137 643 87 499 87C355 87 315 137 315 212ZM380 827 619 797V807L380 837ZM500 707ZM500 -40Z" glyph-name="Ograve.v" horiz-adv-x="1000" unicode="&#57785;" /><glyph d="M570 212V507C570 588 524 642 367 642C210 642 166 588 166 507V212C166 131 210 77 367 77C524 77 570 131 570 212ZM176 212V507C176 582 218 632 367 632C516 632 560 582 560 507V212C560 137 516 87 367 87C218 87 176 137 176 212ZM323 805 420 820C441 823 461 833 461 871V921C461 960 436 970 411 970H275V960H411C431 960 451 952 451 921V871C451 843 438 832 418 829L322 815Z" glyph-name="Ohookabove" horiz-adv-x="737" unicode="&#7886;" /><glyph d="M545 632C625 632 650 680 650 724V733H640V724C640 682 611 642 545 642ZM570 212V507C570 588 524 642 367 642C210 642 166 588 166 507V212C166 131 210 77 367 77C524 77 570 131 570 212ZM176 212V507C176 582 218 632 367 632C516 632 560 582 560 507V212C560 137 516 87 367 87C218 87 176 137 176 212Z" glyph-name="Ohorn" horiz-adv-x="747" unicode="&#416;" /><glyph d="M545 632C625 632 650 680 650 724V733H640V724C640 682 611 642 545 642ZM570 212V507C570 588 524 642 367 642C210 642 166 588 166 507V212C166 131 210 77 367 77C524 77 570 131 570 212ZM176 212V507C176 582 218 632 367 632C516 632 560 582 560 507V212C560 137 516 87 367 87C218 87 176 137 176 212ZM210 847V837L449 867V877ZM330 747ZM330 0Z" glyph-name="Ohornacute" horiz-adv-x="747" unicode="&#7898;" /><glyph d="M545 632C625 632 650 680 650 724V733H640V724C640 682 611 642 545 642ZM570 212V507C570 588 524 642 367 642C210 642 166 588 166 507V212C166 131 210 77 367 77C524 77 570 131 570 212ZM176 212V507C176 582 218 632 367 632C516 632 560 582 560 507V212C560 137 516 87 367 87C218 87 176 137 176 212ZM374 -170V-111H364V-170ZM368 -253ZM368 -1000Z" glyph-name="Ohorndotbelow" horiz-adv-x="747" unicode="&#7906;" /><glyph d="M545 632C625 632 650 680 650 724V733H640V724C640 682 611 642 545 642ZM570 212V507C570 588 524 642 367 642C210 642 166 588 166 507V212C166 131 210 77 367 77C524 77 570 131 570 212ZM176 212V507C176 582 218 632 367 632C516 632 560 582 560 507V212C560 137 516 87 367 87C218 87 176 137 176 212ZM200 877 439 847V857L200 887ZM320 757ZM320 10Z" glyph-name="Ohorngrave" horiz-adv-x="747" unicode="&#7900;" /><glyph d="M545 632C625 632 650 680 650 724V733H640V724C640 682 611 642 545 642ZM570 212V507C570 588 524 642 367 642C210 642 166 588 166 507V212C166 131 210 77 367 77C524 77 570 131 570 212ZM176 212V507C176 582 218 632 367 632C516 632 560 582 560 507V212C560 137 516 87 367 87C218 87 176 137 176 212ZM323 805 420 820C441 823 461 833 461 871V921C461 960 436 970 411 970H275V960H411C431 960 451 952 451 921V871C451 843 438 832 418 829L322 815Z" glyph-name="Ohornhookabove" horiz-adv-x="747" unicode="&#7902;" /><glyph d="M545 632C625 632 650 680 650 724V733H640V724C640 682 611 642 545 642ZM570 212V507C570 588 524 642 367 642C210 642 166 588 166 507V212C166 131 210 77 367 77C524 77 570 131 570 212ZM176 212V507C176 582 218 632 367 632C516 632 560 582 560 507V212C560 137 516 87 367 87C218 87 176 137 176 212ZM453 851C426 848 402 851 351 859L335 861L307 865C262 871 238 873 215 870V859C237 863 261 862 305 855L333 851L349 849C400 841 426 838 453 841ZM335 757ZM335 10Z" glyph-name="Ohorntilde" horiz-adv-x="747" unicode="&#7904;" /><glyph d="M570 212V507C570 588 524 642 367 642C210 642 166 588 166 507V212C166 131 210 77 367 77C524 77 570 131 570 212ZM176 212V507C176 582 218 632 367 632C516 632 560 582 560 507V212C560 137 516 87 367 87C218 87 176 137 176 212ZM255 850 280 947H269L244 850ZM515 850 540 947H529L504 850Z" glyph-name="Ohungarumlaut" horiz-adv-x="737" unicode="&#336;" /><glyph d="M696 212V467C696 548 651 602 499 602C347 602 305 548 305 467V212C305 131 347 77 499 77C651 77 696 131 696 212ZM315 212V467C315 542 355 592 499 592C643 592 686 542 686 467V212C686 137 643 87 499 87C355 87 315 137 315 212ZM390 810 415 907H404L379 810ZM650 810 675 907H664L639 810Z" glyph-name="Ohungarumlaut.v" horiz-adv-x="1000" unicode="&#57792;" /><glyph d="M570 212V507C570 588 524 642 367 642C210 642 166 588 166 507V212C166 131 210 77 367 77C524 77 570 131 570 212ZM176 212V507C176 582 218 632 367 632C516 632 560 582 560 507V212C560 137 516 87 367 87C218 87 176 137 176 212ZM248 847V837H487V847ZM368 747ZM368 0Z" glyph-name="Omacron" horiz-adv-x="737" unicode="&#332;" /><glyph d="M696 212V467C696 548 651 602 499 602C347 602 305 548 305 467V212C305 131 347 77 499 77C651 77 696 131 696 212ZM315 212V467C315 542 355 592 499 592C643 592 686 542 686 467V212C686 137 643 87 499 87C355 87 315 137 315 212ZM380 807V797H619V807ZM500 707ZM500 -40Z" glyph-name="Omacron.v" horiz-adv-x="1000" unicode="&#57790;" /><glyph d="M581 263C581 192 573 159 505 138L501 137V90H652V100H511V129C581 151 591 186 591 263V507C591 588 546 642 389 642C232 642 187 588 187 507V263C187 187 197 152 267 129V100H126V90H277V137L273 138C205 159 197 192 197 263V507C197 582 240 632 389 632C538 632 581 582 581 507Z" glyph-name="Omega" horiz-adv-x="777" unicode="&#8486;" /><glyph d="M166 212V507C166 582 208 632 367 632C411 632 446 628 474 621L253 100C186 119 166 160 166 212ZM367 87C324 87 290 91 263 97L483 618C549 599 570 559 570 507V212C570 137 526 87 367 87ZM230 20 259 88C287 81 323 77 367 77C534 77 580 131 580 212V507C580 563 558 607 487 628L518 700H507L478 631C449 638 412 642 367 642C200 642 156 588 156 507V212C156 155 178 111 249 91L219 20Z" glyph-name="Oslash" horiz-adv-x="737" unicode="&#216;" /><glyph d="M315 212V507C315 582 355 632 499 632C543 632 577 627 604 619L385 103C332 124 315 163 315 212ZM499 87C455 87 421 92 395 100L613 616C667 595 686 556 686 507V212C686 137 643 87 499 87ZM361 20 391 91C418 82 454 77 499 77C651 77 696 131 696 212V507C696 561 676 603 617 625L649 700H638L608 628C580 637 544 642 499 642C347 642 305 588 305 507V212C305 158 324 116 381 94L350 20Z" glyph-name="Oslash.v" horiz-adv-x="1000" unicode="&#57826;" /><glyph d="M570 212V507C570 588 524 642 367 642C210 642 166 588 166 507V212C166 131 210 77 367 77C524 77 570 131 570 212ZM176 212V507C176 582 218 632 367 632C516 632 560 582 560 507V212C560 137 516 87 367 87C218 87 176 137 176 212ZM486 841C459 838 435 841 384 849L368 851L340 855C295 861 271 863 248 860V849C270 853 294 852 338 845L366 841L382 839C433 831 459 828 486 831ZM368 747ZM368 0Z" glyph-name="Otilde" horiz-adv-x="737" unicode="&#213;" /><glyph d="M696 212V467C696 548 651 602 499 602C347 602 305 548 305 467V212C305 131 347 77 499 77C651 77 696 131 696 212ZM315 212V467C315 542 355 592 499 592C643 592 686 542 686 467V212C686 137 643 87 499 87C355 87 315 137 315 212ZM618 801C591 798 567 801 516 809L500 811L472 815C427 821 403 823 380 820V809C402 813 426 812 470 805L498 801L514 799C565 791 591 788 618 791ZM500 707ZM500 -40Z" glyph-name="Otilde.v" horiz-adv-x="1000" unicode="&#57788;" /><glyph d="M397 287C523 287 547 342 547 420V494C547 572 523 630 397 630H181V90H191V287ZM191 297V620H397C515 620 537 566 537 494V420C537 348 515 297 397 297Z" glyph-name="P" horiz-adv-x="682" unicode="P" /><glyph d="M551 287C677 287 701 342 701 420V494C701 572 677 630 551 630H309V90H319V287ZM319 297V620H551C669 620 691 566 691 494V420C691 348 669 297 551 297Z" glyph-name="P.v" horiz-adv-x="1000" unicode="&#65328;" /><glyph d="M362 0H372V77C525 78 570 132 570 212V507C570 588 524 642 367 642C210 642 166 588 166 507V212C166 132 209 78 362 77ZM176 212V507C176 582 218 632 367 632C516 632 560 582 560 507V212C560 137 516 87 367 87C218 87 176 137 176 212Z" glyph-name="Q" horiz-adv-x="737" unicode="Q" /><glyph d="M494 0H504V77C652 78 696 132 696 212V507C696 588 651 642 499 642C347 642 305 588 305 507V212C305 132 346 78 494 77ZM315 212V507C315 582 355 632 499 632C643 632 686 582 686 507V212C686 137 643 87 499 87C355 87 315 137 315 212Z" glyph-name="Q.v" horiz-adv-x="1000" unicode="&#65329;" /><glyph d="M405 620C476 620 509 578 509 516V446C509 372 488 331 405 331H187V620ZM187 90V322H470C546 322 581 290 581 224V90H591V224C591 294 552 331 470 331H459C507 346 519 386 519 447V516C519 582 483 630 405 630H177V90Z" glyph-name="R" horiz-adv-x="743" unicode="R" /><glyph d="M536 580C607 580 640 538 640 476V426C640 352 619 311 536 311H318V580ZM318 90V302H601C677 302 691 270 691 204V90H701V204C701 274 683 311 601 311H590C638 326 650 366 650 427V476C650 542 614 590 536 590H308V90Z" glyph-name="R.s_v" horiz-adv-x="1000" unicode="&#57938;" /><glyph d="M536 620C607 620 640 578 640 516V446C640 372 619 331 536 331H318V620ZM318 90V322H601C677 322 691 290 691 224V90H701V224C701 294 683 331 601 331H590C638 346 650 386 650 447V516C650 582 614 630 536 630H308V90Z" glyph-name="R.v" horiz-adv-x="1000" unicode="&#65330;" /><glyph d="M405 620C476 620 509 578 509 516V446C509 372 488 331 405 331H187V620ZM187 90V322H470C546 322 581 290 581 224V90H591V224C591 294 552 331 470 331H459C507 346 519 386 519 447V516C519 582 483 630 405 630H177V90ZM241 847V837L480 867V877ZM361 747ZM361 0Z" glyph-name="Racute" horiz-adv-x="743" unicode="&#340;" /><glyph d="M536 580C607 580 640 538 640 476V426C640 352 619 311 536 311H318V580ZM318 90V302H601C677 302 691 270 691 204V90H701V204C701 274 683 311 601 311H590C638 326 650 366 650 427V476C650 542 614 590 536 590H308V90ZM362 807V797L601 827V837ZM482 707ZM482 -40Z" glyph-name="Racute.v" horiz-adv-x="1000" unicode="&#57793;" /><glyph d="M405 620C476 620 509 578 509 516V446C509 372 488 331 405 331H187V620ZM187 90V322H470C546 322 581 290 581 224V90H591V224C591 294 552 331 470 331H459C507 346 519 386 519 447V516C519 582 483 630 405 630H177V90ZM251 879V868L334 841C346 838 355 835 370 835C385 835 394 838 406 841L489 868V879L402 851C392 848 383 845 370 845C357 845 348 848 338 851ZM371 747ZM371 0Z" glyph-name="Rcaron" horiz-adv-x="743" unicode="&#344;" /><glyph d="M536 580C607 580 640 538 640 476V426C640 352 619 311 536 311H318V580ZM318 90V302H601C677 302 691 270 691 204V90H701V204C701 274 683 311 601 311H590C638 326 650 366 650 427V476C650 542 614 590 536 590H308V90ZM380 839V828L463 801C475 798 484 795 499 795C514 795 523 798 535 801L618 828V839L531 811C521 808 512 805 499 805C486 805 477 808 467 811ZM500 707ZM500 -40Z" glyph-name="Rcaron.v" horiz-adv-x="1000" unicode="&#57795;" /><glyph d="M405 620C476 620 509 578 509 516V446C509 372 488 331 405 331H187V620ZM187 90V322H470C546 322 581 290 581 224V90H591V224C591 294 552 331 470 331H459C507 346 519 386 519 447V516C519 582 483 630 405 630H177V90ZM440 -132H322V-142H430V-229C430 -283 405 -305 357 -305H322V-315H357C411 -315 440 -290 440 -229ZM381 747ZM381 0Z" glyph-name="Rcommaaccent" horiz-adv-x="743" unicode="&#342;" /><glyph d="M536 620C607 620 640 578 640 516V466C640 392 619 351 536 351H318V620ZM318 130V342H601C677 342 691 310 691 244V130H701V244C701 314 683 351 601 351H590C638 366 650 406 650 467V516C650 582 614 630 536 630H308V130ZM435 -84V-94H557V-171C557 -218 531 -242 489 -242H435V-252H489C537 -252 567 -225 567 -171V-84Z" glyph-name="Rcommaaccent.v" horiz-adv-x="1000" unicode="&#57794;" /><glyph d="M405 620C476 620 509 578 509 516V446C509 372 488 331 405 331H187V620ZM187 90V322H470C546 322 581 290 581 224V90H591V224C591 294 552 331 470 331H459C507 346 519 386 519 447V516C519 582 483 630 405 630H177V90ZM392 -170V-111H382V-170ZM386 -253ZM386 -1000Z" glyph-name="Rdotbelow" horiz-adv-x="743" unicode="&#7770;" /><glyph d="M405 620C476 620 509 578 509 516V446C509 372 488 331 405 331H187V620ZM187 90V322H470C546 322 581 290 581 224V90H591V224C591 294 552 331 470 331H459C507 346 519 386 519 447V516C519 582 483 630 405 630H177V90ZM210 847V837H449V847ZM330 747ZM330 0ZM392 -170V-111H382V-170ZM386 -253ZM386 -1000Z" glyph-name="Rdotbelowmacron" horiz-adv-x="743" unicode="&#7772;" /><glyph d="M405 620C476 620 509 578 509 516V446C509 372 488 331 405 331H187V620ZM187 90V322H470C546 322 581 290 581 224V90H591V224C591 294 552 331 470 331H459C507 346 519 386 519 447V516C519 582 483 630 405 630H177V90ZM252 -118V-128H491V-118ZM372 -218ZM372 -965Z" glyph-name="Rlinebelow" horiz-adv-x="743" unicode="&#7774;" /><glyph d="M484 630H262C200 630 160 592 160 539V457C160 402 184 387 219 380L430 337C467 329 491 312 491 249V191C491 138 452 100 390 100H141V90H390C458 90 501 132 501 191V249C501 319 472 339 432 347L221 390C190 396 170 410 170 457V539C170 586 206 620 262 620H484Z" glyph-name="S" horiz-adv-x="650" unicode="S" /><glyph d="M685 590H411C348 590 309 555 309 499V427C309 382 339 351 388 346L601 325C656 320 682 292 682 244V181C682 131 643 100 581 100H290V90H581C649 90 692 125 692 181V244C692 298 663 329 603 335L390 356C346 360 319 387 319 427V499C319 549 354 580 411 580H685Z" glyph-name="S.s_v" horiz-adv-x="1000" unicode="&#57939;" /><glyph d="M685 630H411C348 630 309 595 309 539V447C309 402 339 371 388 366L601 345C656 340 682 312 682 264V181C682 131 643 100 581 100H290V90H581C649 90 692 125 692 181V264C692 318 663 349 603 355L390 376C346 380 319 407 319 447V539C319 589 354 620 411 620H685Z" glyph-name="S.v" horiz-adv-x="1000" unicode="&#65331;" /><glyph d="M484 630H262C200 630 160 592 160 539V457C160 402 184 387 219 380L430 337C467 329 491 312 491 249V191C491 138 452 100 390 100H141V90H390C458 90 501 132 501 191V249C501 319 472 339 432 347L221 390C190 396 170 410 170 457V539C170 586 206 620 262 620H484ZM215 847V837L454 867V877ZM335 747ZM335 0Z" glyph-name="Sacute" horiz-adv-x="650" unicode="&#346;" /><glyph d="M685 590H411C348 590 309 555 309 499V427C309 382 339 351 388 346L601 325C656 320 682 292 682 244V181C682 131 643 100 581 100H290V90H581C649 90 692 125 692 181V244C692 298 663 329 603 335L390 356C346 360 319 387 319 427V499C319 549 354 580 411 580H685ZM380 807V797L619 827V837ZM500 707ZM500 -40Z" glyph-name="Sacute.v" horiz-adv-x="1000" unicode="&#57796;" /><glyph d="M484 630H262C200 630 160 592 160 539V457C160 402 184 387 219 380L430 337C467 329 491 312 491 249V191C491 138 452 100 390 100H141V90H390C458 90 501 132 501 191V249C501 319 472 339 432 347L221 390C190 396 170 410 170 457V539C170 586 206 620 262 620H484ZM215 879V868L298 841C310 838 319 835 334 835C349 835 358 838 370 841L453 868V879L366 851C356 848 347 845 334 845C321 845 312 848 302 851ZM335 747ZM335 0Z" glyph-name="Scaron" horiz-adv-x="650" unicode="&#352;" /><glyph d="M685 590H411C348 590 309 555 309 499V427C309 382 339 351 388 346L601 325C656 320 682 292 682 244V181C682 131 643 100 581 100H290V90H581C649 90 692 125 692 181V244C692 298 663 329 603 335L390 356C346 360 319 387 319 427V499C319 549 354 580 411 580H685ZM380 839V828L463 801C475 798 484 795 499 795C514 795 523 798 535 801L618 828V839L531 811C521 808 512 805 499 805C486 805 477 808 467 811ZM500 707ZM500 -40Z" glyph-name="Scaron.v" horiz-adv-x="1000" unicode="&#57799;" /><glyph d="M390 90C458 90 501 132 501 191V249C501 319 472 339 432 347L221 390C190 396 170 410 170 457V539C170 586 206 620 262 620H484V630H262C200 630 160 592 160 539V457C160 402 184 387 219 380L430 337C467 329 491 312 491 249V191C491 138 452 100 390 100H141V90H344L299 -36H309L355 90Z" glyph-name="Scedilla" horiz-adv-x="650" unicode="&#350;" /><glyph d="M581 130C649 130 692 165 692 221V284C692 338 663 369 603 375L390 396C346 400 319 427 319 467V539C319 589 354 620 411 620H685V630H411C348 630 309 595 309 539V467C309 422 339 391 388 386L601 365C656 360 682 332 682 284V221C682 171 643 140 581 140H290V130H503L458 4H468L514 130Z" glyph-name="Scedilla.v" horiz-adv-x="1000" unicode="&#57798;" /><glyph d="M547 364H157V217C157 125 194 88 358 88C520 88 557 125 557 217V497C557 592 523 630 388 630H215V620H388C513 620 547 586 547 497ZM547 354V217C547 129 508 98 358 98C206 98 167 129 167 217V354Z" glyph-name="Schwa" horiz-adv-x="715" unicode="&#399;" /><glyph d="M484 630H262C200 630 160 592 160 539V457C160 402 184 387 219 380L430 337C467 329 491 312 491 249V191C491 138 452 100 390 100H141V90H390C458 90 501 132 501 191V249C501 319 472 339 432 347L221 390C190 396 170 410 170 457V539C170 586 206 620 262 620H484ZM443 850V861L360 888C348 891 339 894 324 894C309 894 300 891 288 888L205 861V850L292 878C302 881 311 884 324 884C337 884 346 881 356 878ZM325 747ZM325 0Z" glyph-name="Scircumflex" horiz-adv-x="650" unicode="&#348;" /><glyph d="M618 810V821L535 848C523 851 514 854 499 854C484 854 475 851 463 848L380 821V810L467 838C477 841 486 844 499 844C512 844 521 841 531 838ZM500 707ZM500 -40ZM685 590H411C348 590 309 555 309 499V427C309 382 339 351 388 346L601 325C656 320 682 292 682 244V181C682 131 643 100 581 100H290V90H581C649 90 692 125 692 181V244C692 298 663 329 603 335L390 356C346 360 319 387 319 427V499C319 549 354 580 411 580H685Z" glyph-name="Scircumflex.v" horiz-adv-x="1000" unicode="&#57797;" /><glyph d="M484 630H262C200 630 160 592 160 539V457C160 402 184 387 219 380L430 337C467 329 491 312 491 249V191C491 138 452 100 390 100H141V90H390C458 90 501 132 501 191V249C501 319 472 339 432 347L221 390C190 396 170 410 170 457V539C170 586 206 620 262 620H484ZM394 -132H276V-142H384V-229C384 -283 359 -305 311 -305H276V-315H311C365 -315 394 -290 394 -229ZM335 747ZM335 0Z" glyph-name="Scommaaccent" horiz-adv-x="650" unicode="&#536;" /><glyph d="M685 630H411C348 630 309 595 309 539V467C309 422 339 391 388 386L601 365C656 360 682 332 682 284V221C682 171 643 140 581 140H290V130H581C649 130 692 165 692 221V284C692 338 663 369 603 375L390 396C346 400 319 427 319 467V539C319 589 354 620 411 620H685ZM435 -84V-94H557V-171C557 -218 531 -242 489 -242H435V-252H489C537 -252 567 -225 567 -171V-84Z" glyph-name="Scommaaccent.v" horiz-adv-x="1000" unicode="&#57800;" /><glyph d="M484 630H262C200 630 160 592 160 539V457C160 402 184 387 219 380L430 337C467 329 491 312 491 249V191C491 138 452 100 390 100H141V90H390C458 90 501 132 501 191V249C501 319 472 339 432 347L221 390C190 396 170 410 170 457V539C170 586 206 620 262 620H484ZM336 830V889H326V830ZM330 747ZM330 0Z" glyph-name="Sdotaccent" horiz-adv-x="650" unicode="&#7776;" /><glyph d="M484 630H262C200 630 160 592 160 539V457C160 402 184 387 219 380L430 337C467 329 491 312 491 249V191C491 138 452 100 390 100H141V90H390C458 90 501 132 501 191V249C501 319 472 339 432 347L221 390C190 396 170 410 170 457V539C170 586 206 620 262 620H484ZM339 -170V-111H329V-170ZM333 -253ZM333 -1000Z" glyph-name="Sdotbelow" horiz-adv-x="650" unicode="&#7778;" /><glyph d="M323 90H333V620H538V630H118V620H323Z" glyph-name="T" horiz-adv-x="656" unicode="T" /><glyph d="M495 90H505V580H710V590H290V580H495Z" glyph-name="T.s_v" horiz-adv-x="1000" unicode="&#57940;" /><glyph d="M495 90H505V620H710V630H290V620H495Z" glyph-name="T.v" horiz-adv-x="1000" unicode="&#65332;" /><glyph d="M467 306V316H333V620H538V630H118V620H323V316H188V306H323V90H333V306Z" glyph-name="Tbar" horiz-adv-x="656" unicode="&#358;" /><glyph d="M639 306V316H505V620H710V630H290V620H495V316H360V306H495V90H505V306Z" glyph-name="Tbar.v" horiz-adv-x="1000" unicode="&#57835;" /><glyph d="M323 90H333V620H538V630H118V620H323ZM208 879V868L291 841C303 838 312 835 327 835C342 835 351 838 363 841L446 868V879L359 851C349 848 340 845 327 845C314 845 305 848 295 851ZM328 747ZM328 0Z" glyph-name="Tcaron" horiz-adv-x="656" unicode="&#356;" /><glyph d="M495 90H505V580H710V590H290V580H495ZM380 839V828L463 801C475 798 484 795 499 795C514 795 523 798 535 801L618 828V839L531 811C521 808 512 805 499 805C486 805 477 808 467 811ZM500 707ZM500 -40Z" glyph-name="Tcaron.v" horiz-adv-x="1000" unicode="&#57802;" /><glyph d="M323 90H333V620H538V630H118V620H323ZM327 97 279 -36H289L337 96ZM305 747ZM305 0Z" glyph-name="Tcedilla" horiz-adv-x="656" /><glyph d="M323 90H333V620H538V630H118V620H323ZM387 -132H269V-142H377V-229C377 -283 352 -305 304 -305H269V-315H304C358 -315 387 -290 387 -229ZM328 747ZM328 0Z" glyph-name="Tcommaaccent" horiz-adv-x="656" unicode="&#354;" /><glyph d="M495 210H505V620H710V630H290V620H495ZM434 16V6H556V-71C556 -118 530 -142 488 -142H434V-152H488C536 -152 566 -125 566 -71V16Z" glyph-name="Tcommaaccent.v" horiz-adv-x="1000" unicode="&#57801;" /><glyph d="M323 90H333V620H538V630H118V620H323ZM333 -170V-111H323V-170ZM327 -253ZM327 -1000Z" glyph-name="Tdotbelow" horiz-adv-x="656" unicode="&#7788;" /><glyph d="M177 90H187V187H393C519 187 543 242 543 320V395C543 473 519 531 393 531H187V630H177ZM187 197V521H393C511 521 533 467 533 395V320C533 248 511 197 393 197Z" glyph-name="Thorn" horiz-adv-x="692" unicode="&#222;" /><glyph d="M309 90H319V190H550C676 190 700 245 700 323V395C700 473 676 528 550 528H319V630H309ZM319 200V518H550C668 518 690 467 690 395V323C690 251 668 200 550 200Z" glyph-name="Thorn.v" horiz-adv-x="1000" unicode="&#57827;" /><glyph d="M323 90H333V620H538V630H118V620H323ZM209 -118V-128H448V-118ZM329 -218ZM329 -965Z" glyph-name="Tlinebelow" horiz-adv-x="656" unicode="&#7790;" /><glyph d="M174 630V213C174 132 217 78 374 78C531 78 575 132 575 213V630H565V213C565 138 523 88 374 88C225 88 184 138 184 213V630Z" glyph-name="U" horiz-adv-x="746" unicode="U" /><glyph d="M310 590V213C310 132 350 78 497 78C650 78 693 132 693 213V590H683V213C683 138 642 88 497 88C358 88 320 138 320 213V590Z" glyph-name="U.s_v" horiz-adv-x="1000" unicode="&#57941;" /><glyph d="M310 630V213C310 132 350 78 497 78C650 78 693 132 693 213V630H683V213C683 138 642 88 497 88C358 88 320 138 320 213V630Z" glyph-name="U.v" horiz-adv-x="1000" unicode="&#65333;" /><glyph d="M174 630V213C174 132 217 78 374 78C531 78 575 132 575 213V630H565V213C565 138 523 88 374 88C225 88 184 138 184 213V630ZM263 847V837L502 867V877ZM383 747ZM383 0Z" glyph-name="Uacute" horiz-adv-x="746" unicode="&#218;" /><glyph d="M310 590V213C310 132 350 78 497 78C650 78 693 132 693 213V590H683V213C683 138 642 88 497 88C358 88 320 138 320 213V590ZM400 807V797L639 827V837ZM520 707ZM520 -40Z" glyph-name="Uacute.v" horiz-adv-x="1000" unicode="&#57804;" /><glyph d="M174 630V213C174 132 217 78 374 78C531 78 575 132 575 213V630H565V213C565 138 523 88 374 88C225 88 184 138 184 213V630ZM507 907V898C507 862 480 828 372 828C264 828 242 862 242 898V907H232V898C232 860 248 818 372 818C496 818 517 860 517 898V907ZM373 747ZM373 0Z" glyph-name="Ubreve" horiz-adv-x="746" unicode="&#364;" /><glyph d="M310 590V213C310 132 350 78 497 78C650 78 693 132 693 213V590H683V213C683 138 642 88 497 88C358 88 320 138 320 213V590ZM634 867V858C634 822 607 788 499 788C391 788 369 822 369 858V867H359V858C359 820 375 778 499 778C623 778 644 820 644 858V867ZM500 707ZM500 -40Z" glyph-name="Ubreve.v" horiz-adv-x="1000" unicode="&#57809;" /><glyph d="M174 630V213C174 132 217 78 374 78C531 78 575 132 575 213V630H565V213C565 138 523 88 374 88C225 88 184 138 184 213V630ZM253 879V868L336 841C348 838 357 835 372 835C387 835 396 838 408 841L491 868V879L404 851C394 848 385 845 372 845C359 845 350 848 340 851ZM373 747ZM373 0Z" glyph-name="Ucaron" horiz-adv-x="746" unicode="&#467;" /><glyph d="M174 630V213C174 132 217 78 374 78C531 78 575 132 575 213V630H565V213C565 138 523 88 374 88C225 88 184 138 184 213V630ZM491 850V861L408 888C396 891 387 894 372 894C357 894 348 891 336 888L253 861V850L340 878C350 881 359 884 372 884C385 884 394 881 404 878ZM373 747ZM373 0Z" glyph-name="Ucircumflex" horiz-adv-x="746" unicode="&#219;" /><glyph d="M310 590V213C310 132 350 78 497 78C650 78 693 132 693 213V590H683V213C683 138 642 88 497 88C358 88 320 138 320 213V590ZM618 810V821L535 848C523 851 514 854 499 854C484 854 475 851 463 848L380 821V810L467 838C477 841 486 844 499 844C512 844 521 841 531 838ZM500 707ZM500 -40Z" glyph-name="Ucircumflex.v" horiz-adv-x="1000" unicode="&#57805;" /><glyph d="M174 630V213C174 132 217 78 374 78C531 78 575 132 575 213V630H565V213C565 138 523 88 374 88C225 88 184 138 184 213V630ZM505 830V877H495V830ZM247 830V877H237V830ZM373 747ZM373 0Z" glyph-name="Udieresis" horiz-adv-x="746" unicode="&#220;" /><glyph d="M310 590V213C310 132 350 78 497 78C650 78 693 132 693 213V590H683V213C683 138 642 88 497 88C358 88 320 138 320 213V590ZM632 790V837H622V790ZM374 790V837H364V790ZM500 707ZM500 -40Z" glyph-name="Udieresis.v" horiz-adv-x="1000" unicode="&#57806;" /><glyph d="M174 630V213C174 132 217 78 374 78C531 78 575 132 575 213V630H565V213C565 138 523 88 374 88C225 88 184 138 184 213V630ZM505 830V877H495V830ZM247 830V877H237V830ZM373 747ZM373 0ZM443 1089V1099L356 1078V1068Z" glyph-name="Udieresisacute" horiz-adv-x="746" unicode="&#471;" /><glyph d="M174 630V213C174 132 217 78 374 78C531 78 575 132 575 213V630H565V213C565 138 523 88 374 88C225 88 184 138 184 213V630ZM505 830V877H495V830ZM247 830V877H237V830ZM373 747ZM373 0ZM252 1099V1088L335 1061C347 1058 356 1055 371 1055C386 1055 395 1058 407 1061L490 1088V1099L403 1071C393 1068 384 1065 371 1065C358 1065 349 1068 339 1071ZM372 967ZM372 220Z" glyph-name="Udieresiscaron" horiz-adv-x="746" unicode="&#473;" /><glyph d="M174 630V213C174 132 217 78 374 78C531 78 575 132 575 213V630H565V213C565 138 523 88 374 88C225 88 184 138 184 213V630ZM505 830V877H495V830ZM247 830V877H237V830ZM373 747ZM373 0ZM403 1078 316 1099V1089L403 1068Z" glyph-name="Udieresisgrave" horiz-adv-x="746" unicode="&#475;" /><glyph d="M174 630V213C174 132 217 78 374 78C531 78 575 132 575 213V630H565V213C565 138 523 88 374 88C225 88 184 138 184 213V630ZM505 830V877H495V830ZM247 830V877H237V830ZM373 747ZM373 0ZM250 1067V1057H489V1067ZM370 967ZM370 220Z" glyph-name="Udieresismacron" horiz-adv-x="746" unicode="&#469;" /><glyph d="M174 630V213C174 132 217 78 374 78C531 78 575 132 575 213V630H565V213C565 138 523 88 374 88C225 88 184 138 184 213V630ZM378 -170V-111H368V-170ZM372 -253ZM372 -1000Z" glyph-name="Udotbelow" horiz-adv-x="746" unicode="&#7908;" /><glyph d="M174 630V213C174 132 217 78 374 78C531 78 575 132 575 213V630H565V213C565 138 523 88 374 88C225 88 184 138 184 213V630ZM243 867 482 837V847L243 877ZM363 747ZM363 0Z" glyph-name="Ugrave" horiz-adv-x="746" unicode="&#217;" /><glyph d="M310 590V213C310 132 350 78 497 78C650 78 693 132 693 213V590H683V213C683 138 642 88 497 88C358 88 320 138 320 213V590ZM380 827 619 797V807L380 837ZM500 707ZM500 -40Z" glyph-name="Ugrave.v" horiz-adv-x="1000" unicode="&#57803;" /><glyph d="M174 630V213C174 132 217 78 374 78C531 78 575 132 575 213V630H565V213C565 138 523 88 374 88C225 88 184 138 184 213V630ZM353 805 450 820C471 823 491 833 491 871V921C491 960 466 970 441 970H305V960H441C461 960 481 952 481 921V871C481 843 468 832 448 829L352 815Z" glyph-name="Uhookabove" horiz-adv-x="746" unicode="&#7910;" /><glyph d="M554 632C634 632 659 680 659 724V733H649V724C649 682 620 642 554 642ZM174 630V213C174 132 217 78 374 78C531 78 575 132 575 213V630H565V213C565 138 523 88 374 88C225 88 184 138 184 213V630Z" glyph-name="Uhorn" horiz-adv-x="756" unicode="&#431;" /><glyph d="M554 632C634 632 659 680 659 724V733H649V724C649 682 620 642 554 642ZM174 630V213C174 132 217 78 374 78C531 78 575 132 575 213V630H565V213C565 138 523 88 374 88C225 88 184 138 184 213V630ZM210 847V837L449 867V877ZM330 747ZM330 0Z" glyph-name="Uhornacute" horiz-adv-x="756" unicode="&#7912;" /><glyph d="M554 632C634 632 659 680 659 724V733H649V724C649 682 620 642 554 642ZM174 630V213C174 132 217 78 374 78C531 78 575 132 575 213V630H565V213C565 138 523 88 374 88C225 88 184 138 184 213V630ZM378 -170V-111H368V-170ZM372 -253ZM372 -1000Z" glyph-name="Uhorndotbelow" horiz-adv-x="756" unicode="&#7920;" /><glyph d="M554 632C634 632 659 680 659 724V733H649V724C649 682 620 642 554 642ZM174 630V213C174 132 217 78 374 78C531 78 575 132 575 213V630H565V213C565 138 523 88 374 88C225 88 184 138 184 213V630ZM200 867 439 837V847L200 877ZM320 747ZM320 0Z" glyph-name="Uhorngrave" horiz-adv-x="756" unicode="&#7914;" /><glyph d="M554 632C634 632 659 680 659 724V733H649V724C649 682 620 642 554 642ZM174 630V213C174 132 217 78 374 78C531 78 575 132 575 213V630H565V213C565 138 523 88 374 88C225 88 184 138 184 213V630ZM343 805 440 820C461 823 481 833 481 871V921C481 960 456 970 431 970H295V960H431C451 960 471 952 471 921V871C471 843 458 832 438 829L342 815Z" glyph-name="Uhornhookabove" horiz-adv-x="756" unicode="&#7916;" /><glyph d="M554 632C634 632 659 680 659 724V733H649V724C649 682 620 642 554 642ZM174 630V213C174 132 217 78 374 78C531 78 575 132 575 213V630H565V213C565 138 523 88 374 88C225 88 184 138 184 213V630ZM448 841C421 838 397 841 346 849L330 851L302 855C257 861 233 863 210 860V849C232 853 256 852 300 845L328 841L344 839C395 831 421 828 448 831ZM330 747ZM330 0Z" glyph-name="Uhorntilde" horiz-adv-x="756" unicode="&#7918;" /><glyph d="M174 630V213C174 132 217 78 374 78C531 78 575 132 575 213V630H565V213C565 138 523 88 374 88C225 88 184 138 184 213V630ZM264 850 289 947H278L253 850ZM524 850 549 947H538L513 850Z" glyph-name="Uhungarumlaut" horiz-adv-x="746" unicode="&#368;" /><glyph d="M310 590V213C310 132 350 78 497 78C650 78 693 132 693 213V590H683V213C683 138 642 88 497 88C358 88 320 138 320 213V590ZM392 810 417 907H406L381 810ZM652 810 677 907H666L641 810Z" glyph-name="Uhungarumlaut.v" horiz-adv-x="1000" unicode="&#57811;" /><glyph d="M174 630V213C174 132 217 78 374 78C531 78 575 132 575 213V630H565V213C565 138 523 88 374 88C225 88 184 138 184 213V630ZM253 847V837H492V847ZM373 747ZM373 0Z" glyph-name="Umacron" horiz-adv-x="746" unicode="&#362;" /><glyph d="M310 590V213C310 132 350 78 497 78C650 78 693 132 693 213V590H683V213C683 138 642 88 497 88C358 88 320 138 320 213V590ZM380 807V797H619V807ZM500 707ZM500 -40Z" glyph-name="Umacron.v" horiz-adv-x="1000" unicode="&#57808;" /><glyph d="M431 -126V-116H407C366 -116 361 -93 366 -53L378 32C382 60 386 66 409 79C538 87 575 138 575 213V630H565V213C565 138 523 88 374 88C225 88 184 138 184 213V630H174V213C174 132 217 78 374 78C379 78 385 78 390 78C375 67 372 57 368 32L356 -51C348 -101 358 -126 407 -126Z" glyph-name="Uogonek" horiz-adv-x="746" unicode="&#370;" /><glyph d="M550 -87V-77H526C485 -77 480 -54 485 -14L497 71C501 100 505 105 530 119C656 126 693 178 693 253V630H683V253C683 178 642 128 497 128C358 128 320 178 320 253V630H310V253C310 172 350 118 497 118C501 118 506 118 510 118C494 107 491 97 487 71L475 -12C467 -62 477 -87 526 -87Z" glyph-name="Uogonek.v" horiz-adv-x="1000" unicode="&#57812;" /><glyph d="M174 630V213C174 132 217 78 374 78C531 78 575 132 575 213V630H565V213C565 138 523 88 374 88C225 88 184 138 184 213V630ZM232 920C232 860 254 820 373 820C492 820 516 860 516 920V975C516 1034 492 1076 373 1076C254 1076 232 1035 232 975ZM373 1066C480 1066 506 1030 506 975V920C506 864 480 830 373 830C266 830 242 864 242 920V975C242 1031 266 1066 373 1066ZM373 747ZM373 0Z" glyph-name="Uring" horiz-adv-x="746" unicode="&#366;" /><glyph d="M310 590V213C310 132 350 78 497 78C650 78 693 132 693 213V590H683V213C683 138 642 88 497 88C358 88 320 138 320 213V590ZM359 880C359 820 381 780 500 780C619 780 643 820 643 880V935C643 994 619 1036 500 1036C381 1036 359 995 359 935ZM500 1026C607 1026 633 990 633 935V880C633 824 607 790 500 790C393 790 369 824 369 880V935C369 991 393 1026 500 1026ZM500 707ZM500 -40Z" glyph-name="Uring.v" horiz-adv-x="1000" unicode="&#57810;" /><glyph d="M174 630V213C174 132 217 78 374 78C531 78 575 132 575 213V630H565V213C565 138 523 88 374 88C225 88 184 138 184 213V630ZM491 841C464 838 440 841 389 849L373 851L345 855C300 861 276 863 253 860V849C275 853 299 852 343 845L371 841L387 839C438 831 464 828 491 831ZM373 747ZM373 0Z" glyph-name="Utilde" horiz-adv-x="746" unicode="&#360;" /><glyph d="M618 801C591 798 567 801 516 809L500 811L472 815C427 821 403 823 380 820V809C402 813 426 812 470 805L498 801L514 799C565 791 591 788 618 791ZM500 707ZM500 -40ZM310 590V213C310 132 350 78 497 78C650 78 693 132 693 213V590H683V213C683 138 642 88 497 88C358 88 320 138 320 213V590Z" glyph-name="Utilde.v" horiz-adv-x="1000" unicode="&#57807;" /><glyph d="M167 630V414C167 377 171 346 183 317L249 157C265 118 280 90 322 90H410C452 90 467 118 483 157L549 317C561 346 565 377 565 414V630H555V414C555 379 550 348 539 321L473 161C459 126 448 100 410 100H322C284 100 273 126 259 161L193 321C182 348 177 379 177 414V630ZM365 747ZM365 0Z" glyph-name="V" horiz-adv-x="730" unicode="V" /><glyph d="M304 417C304 380 310 349 321 320L390 157C406 118 418 90 462 90H539C585 90 597 119 612 156L676 320C687 349 693 380 693 417V630H683V417C683 381 677 351 667 324L603 160C590 126 579 100 539 100H462C425 100 414 126 399 161L330 324C320 351 314 381 314 417V630H304Z" glyph-name="V.v" horiz-adv-x="1000" unicode="&#65334;" /><glyph d="M439 345H394C373 345 362 336 345 298L263 114C257 100 246 100 236 100H231C220 100 210 110 208 121L183 235C178 260 178 306 178 336V630H168V335C168 305 168 259 173 234L198 121C203 99 215 90 231 90H238C250 90 265 93 271 107L353 293C369 329 378 335 394 335H439C455 335 464 329 480 293L562 107C568 93 583 90 595 90H602C618 90 630 99 635 121L660 234C665 259 665 305 665 335V630H655V336C655 306 655 260 650 235L625 121C623 110 613 100 602 100H597C587 100 576 100 570 114L488 298C471 336 460 345 439 345ZM415 747ZM415 0Z" glyph-name="W" horiz-adv-x="831" unicode="W" /><glyph d="M519 345H494C473 345 459 337 445 298L380 114C375 100 363 100 353 100H348C337 100 327 110 325 121L300 235C295 260 295 306 295 336V590H285V335C285 305 284 259 290 234L315 121C320 99 332 90 348 90H355C367 90 383 93 388 107L453 293C466 331 478 335 494 335H519C535 335 547 331 560 293L622 107C627 93 643 90 655 90H662C678 90 690 99 695 121L720 234C726 259 725 305 725 335V590H715V336C715 306 715 260 710 235L685 121C683 110 673 100 662 100H657C647 100 635 100 630 114L568 298C555 337 540 345 519 345Z" glyph-name="W.s_v" horiz-adv-x="1000" unicode="&#57942;" /><glyph d="M719 78C866 78 909 132 909 213V630H899V213C899 138 858 88 719 88C580 88 540 138 540 213V630H530V213C530 138 489 88 350 88C211 88 171 138 171 213V630H161V213C161 132 203 78 350 78C472 78 521 115 535 174C548 115 597 78 719 78ZM535 747ZM535 0Z" glyph-name="W.salt" horiz-adv-x="1070" unicode="&#57642;" /><glyph d="M627 78C729 78 758 132 758 213V590H748V213C748 138 721 88 627 88C532 88 505 138 505 213V590H495V213C495 138 468 88 374 88C280 88 251 138 251 213V590H241V213C241 132 272 78 374 78C455 78 489 112 500 167C511 112 546 78 627 78Z" glyph-name="W.salt_s_v" horiz-adv-x="1000" unicode="&#57949;" /><glyph d="M627 78C729 78 758 132 758 213V630H748V213C748 138 721 88 627 88C532 88 505 138 505 213V630H495V213C495 138 468 88 374 88C280 88 251 138 251 213V630H241V213C241 132 272 78 374 78C455 78 489 112 500 167C511 112 546 78 627 78Z" glyph-name="W.salt_v" horiz-adv-x="1000" unicode="&#57881;" /><glyph d="M519 345H494C473 345 459 337 445 298L380 114C375 100 363 100 353 100H348C337 100 327 110 325 121L300 235C295 260 295 306 295 336V630H285V335C285 305 284 259 290 234L315 121C320 99 332 90 348 90H355C367 90 383 93 388 107L453 293C466 331 478 335 494 335H519C535 335 547 331 560 293L622 107C627 93 643 90 655 90H662C678 90 690 99 695 121L720 234C726 259 725 305 725 335V630H715V336C715 306 715 260 710 235L685 121C683 110 673 100 662 100H657C647 100 635 100 630 114L568 298C555 337 540 345 519 345ZM505 747ZM505 0Z" glyph-name="W.v" horiz-adv-x="1000" unicode="&#65335;" /><glyph d="M439 345H394C373 345 362 336 345 298L263 114C257 100 246 100 236 100H231C220 100 210 110 208 121L183 235C178 260 178 306 178 336V630H168V335C168 305 168 259 173 234L198 121C203 99 215 90 231 90H238C250 90 265 93 271 107L353 293C369 329 378 335 394 335H439C455 335 464 329 480 293L562 107C568 93 583 90 595 90H602C618 90 630 99 635 121L660 234C665 259 665 305 665 335V630H655V336C655 306 655 260 650 235L625 121C623 110 613 100 602 100H597C587 100 576 100 570 114L488 298C471 336 460 345 439 345ZM415 747ZM415 0ZM305 847V837L544 867V877ZM425 747ZM425 0Z" glyph-name="Wacute" horiz-adv-x="831" unicode="&#7810;" /><glyph d="M719 78C866 78 909 132 909 213V630H899V213C899 138 858 88 719 88C580 88 540 138 540 213V630H530V213C530 138 489 88 350 88C211 88 171 138 171 213V630H161V213C161 132 203 78 350 78C472 78 521 115 535 174C548 115 597 78 719 78ZM535 747ZM535 0ZM425 847V837L664 867V877ZM545 747ZM545 0Z" glyph-name="Wacute.salt" horiz-adv-x="1070" unicode="&#57645;" /><glyph d="M380 807V797L619 827V837ZM500 707ZM500 -40ZM627 78C729 78 758 132 758 213V590H748V213C748 138 721 88 627 88C532 88 505 138 505 213V590H495V213C495 138 468 88 374 88C280 88 251 138 251 213V590H241V213C241 132 272 78 374 78C455 78 489 112 500 167C511 112 546 78 627 78Z" glyph-name="Wacute.salt_v" horiz-adv-x="1000" unicode="&#57884;" /><glyph d="M390 807V797L629 827V837ZM510 707ZM510 -40ZM519 345H494C473 345 459 337 445 298L380 114C375 100 363 100 353 100H348C337 100 327 110 325 121L300 235C295 260 295 306 295 336V590H285V335C285 305 284 259 290 234L315 121C320 99 332 90 348 90H355C367 90 383 93 388 107L453 293C466 331 478 335 494 335H519C535 335 547 331 560 293L622 107C627 93 643 90 655 90H662C678 90 690 99 695 121L720 234C726 259 725 305 725 335V590H715V336C715 306 715 260 710 235L685 121C683 110 673 100 662 100H657C647 100 635 100 630 114L568 298C555 337 540 345 519 345Z" glyph-name="Wacute.v" horiz-adv-x="1000" unicode="&#57815;" /><glyph d="M439 345H394C373 345 362 336 345 298L263 114C257 100 246 100 236 100H231C220 100 210 110 208 121L183 235C178 260 178 306 178 336V630H168V335C168 305 168 259 173 234L198 121C203 99 215 90 231 90H238C250 90 265 93 271 107L353 293C369 329 378 335 394 335H439C455 335 464 329 480 293L562 107C568 93 583 90 595 90H602C618 90 630 99 635 121L660 234C665 259 665 305 665 335V630H655V336C655 306 655 260 650 235L625 121C623 110 613 100 602 100H597C587 100 576 100 570 114L488 298C471 336 460 345 439 345ZM415 747ZM415 0ZM533 850V861L450 888C438 891 429 894 414 894C399 894 390 891 378 888L295 861V850L382 878C392 881 401 884 414 884C427 884 436 881 446 878ZM415 747ZM415 0Z" glyph-name="Wcircumflex" horiz-adv-x="831" unicode="&#372;" /><glyph d="M719 78C866 78 909 132 909 213V630H899V213C899 138 858 88 719 88C580 88 540 138 540 213V630H530V213C530 138 489 88 350 88C211 88 171 138 171 213V630H161V213C161 132 203 78 350 78C472 78 521 115 535 174C548 115 597 78 719 78ZM535 747ZM535 0ZM653 850V861L570 888C558 891 549 894 534 894C519 894 510 891 498 888L415 861V850L502 878C512 881 521 884 534 884C547 884 556 881 566 878ZM535 747ZM535 0Z" glyph-name="Wcircumflex.salt" horiz-adv-x="1070" unicode="&#57643;" /><glyph d="M627 78C729 78 758 132 758 213V590H748V213C748 138 721 88 627 88C532 88 505 138 505 213V590H495V213C495 138 468 88 374 88C280 88 251 138 251 213V590H241V213C241 132 272 78 374 78C455 78 489 112 500 167C511 112 546 78 627 78ZM618 810V821L535 848C523 851 514 854 499 854C484 854 475 851 463 848L380 821V810L467 838C477 841 486 844 499 844C512 844 521 841 531 838ZM500 707ZM500 -40Z" glyph-name="Wcircumflex.salt_v" horiz-adv-x="1000" unicode="&#57882;" /><glyph d="M519 345H494C473 345 459 337 445 298L380 114C375 100 363 100 353 100H348C337 100 327 110 325 121L300 235C295 260 295 306 295 336V590H285V335C285 305 284 259 290 234L315 121C320 99 332 90 348 90H355C367 90 383 93 388 107L453 293C466 331 478 335 494 335H519C535 335 547 331 560 293L622 107C627 93 643 90 655 90H662C678 90 690 99 695 121L720 234C726 259 725 305 725 335V590H715V336C715 306 715 260 710 235L685 121C683 110 673 100 662 100H657C647 100 635 100 630 114L568 298C555 337 540 345 519 345ZM618 810V821L535 848C523 851 514 854 499 854C484 854 475 851 463 848L380 821V810L467 838C477 841 486 844 499 844C512 844 521 841 531 838ZM500 707ZM500 -40Z" glyph-name="Wcircumflex.v" horiz-adv-x="1000" unicode="&#57813;" /><glyph d="M439 345H394C373 345 362 336 345 298L263 114C257 100 246 100 236 100H231C220 100 210 110 208 121L183 235C178 260 178 306 178 336V630H168V335C168 305 168 259 173 234L198 121C203 99 215 90 231 90H238C250 90 265 93 271 107L353 293C369 329 378 335 394 335H439C455 335 464 329 480 293L562 107C568 93 583 90 595 90H602C618 90 630 99 635 121L660 234C665 259 665 305 665 335V630H655V336C655 306 655 260 650 235L625 121C623 110 613 100 602 100H597C587 100 576 100 570 114L488 298C471 336 460 345 439 345ZM415 747ZM415 0ZM547 830V877H537V830ZM289 830V877H279V830ZM415 747ZM415 0Z" glyph-name="Wdieresis" horiz-adv-x="831" unicode="&#7812;" /><glyph d="M719 78C866 78 909 132 909 213V630H899V213C899 138 858 88 719 88C580 88 540 138 540 213V630H530V213C530 138 489 88 350 88C211 88 171 138 171 213V630H161V213C161 132 203 78 350 78C472 78 521 115 535 174C548 115 597 78 719 78ZM535 747ZM535 0ZM667 830V877H657V830ZM409 830V877H399V830ZM535 747ZM535 0Z" glyph-name="Wdieresis.salt" horiz-adv-x="1070" unicode="&#57646;" /><glyph d="M632 790V837H622V790ZM374 790V837H364V790ZM500 707ZM500 -40ZM627 78C729 78 758 132 758 213V590H748V213C748 138 721 88 627 88C532 88 505 138 505 213V590H495V213C495 138 468 88 374 88C280 88 251 138 251 213V590H241V213C241 132 272 78 374 78C455 78 489 112 500 167C511 112 546 78 627 78Z" glyph-name="Wdieresis.salt_v" horiz-adv-x="1000" unicode="&#57885;" /><glyph d="M519 345H494C473 345 459 337 445 298L380 114C375 100 363 100 353 100H348C337 100 327 110 325 121L300 235C295 260 295 306 295 336V590H285V335C285 305 284 259 290 234L315 121C320 99 332 90 348 90H355C367 90 383 93 388 107L453 293C466 331 478 335 494 335H519C535 335 547 331 560 293L622 107C627 93 643 90 655 90H662C678 90 690 99 695 121L720 234C726 259 725 305 725 335V590H715V336C715 306 715 260 710 235L685 121C683 110 673 100 662 100H657C647 100 635 100 630 114L568 298C555 337 540 345 519 345ZM642 790V837H632V790ZM384 790V837H374V790ZM510 707ZM510 -40Z" glyph-name="Wdieresis.v" horiz-adv-x="1000" unicode="&#57816;" /><glyph d="M439 345H394C373 345 362 336 345 298L263 114C257 100 246 100 236 100H231C220 100 210 110 208 121L183 235C178 260 178 306 178 336V630H168V335C168 305 168 259 173 234L198 121C203 99 215 90 231 90H238C250 90 265 93 271 107L353 293C369 329 378 335 394 335H439C455 335 464 329 480 293L562 107C568 93 583 90 595 90H602C618 90 630 99 635 121L660 234C665 259 665 305 665 335V630H655V336C655 306 655 260 650 235L625 121C623 110 613 100 602 100H597C587 100 576 100 570 114L488 298C471 336 460 345 439 345ZM415 747ZM415 0ZM285 867 524 837V847L285 877ZM405 747ZM405 0Z" glyph-name="Wgrave" horiz-adv-x="831" unicode="&#7808;" /><glyph d="M719 78C866 78 909 132 909 213V630H899V213C899 138 858 88 719 88C580 88 540 138 540 213V630H530V213C530 138 489 88 350 88C211 88 171 138 171 213V630H161V213C161 132 203 78 350 78C472 78 521 115 535 174C548 115 597 78 719 78ZM535 747ZM535 0ZM405 867 644 837V847L405 877ZM525 747ZM525 0Z" glyph-name="Wgrave.salt" horiz-adv-x="1070" unicode="&#57644;" /><glyph d="M380 827 619 797V807L380 837ZM500 707ZM500 -40ZM627 78C729 78 758 132 758 213V590H748V213C748 138 721 88 627 88C532 88 505 138 505 213V590H495V213C495 138 468 88 374 88C280 88 251 138 251 213V590H241V213C241 132 272 78 374 78C455 78 489 112 500 167C511 112 546 78 627 78Z" glyph-name="Wgrave.salt_v" horiz-adv-x="1000" unicode="&#57883;" /><glyph d="M519 345H494C473 345 459 337 445 298L380 114C375 100 363 100 353 100H348C337 100 327 110 325 121L300 235C295 260 295 306 295 336V590H285V335C285 305 284 259 290 234L315 121C320 99 332 90 348 90H355C367 90 383 93 388 107L453 293C466 331 478 335 494 335H519C535 335 547 331 560 293L622 107C627 93 643 90 655 90H662C678 90 690 99 695 121L720 234C726 259 725 305 725 335V590H715V336C715 306 715 260 710 235L685 121C683 110 673 100 662 100H657C647 100 635 100 630 114L568 298C555 337 540 345 519 345ZM380 827 619 797V807L380 837ZM500 707ZM500 -40Z" glyph-name="Wgrave.v" horiz-adv-x="1000" unicode="&#57814;" /><glyph d="M177 135C177 163 178 190 191 208L309 370H429L546 208C560 189 560 163 560 135V90H570V135C570 164 570 191 555 212L437 374L555 538C570 559 570 586 570 615V630H560V615C560 587 559 561 546 542L430 380H311L191 542C177 561 177 587 177 615V630H167V615C167 586 167 559 182 538L302 376L182 212C166 190 167 164 167 135V90H177ZM368 747ZM368 0Z" glyph-name="X" horiz-adv-x="737" unicode="X" /><glyph d="M179 90V256C179 320 209 354 270 354H468C529 354 559 320 559 256V90H569V256C569 327 536 364 468 364H463L538 630H528L453 364H285L210 630H200L275 364H270C202 364 169 327 169 256V90ZM368 747ZM368 0Z" glyph-name="X.salt" horiz-adv-x="737" unicode="&#57647;" /><glyph d="M311 90V256C311 320 341 354 402 354H600C661 354 691 320 691 256V90H701V256C701 327 668 364 600 364H595L670 630H660L585 364H417L342 630H332L407 364H402C334 364 301 327 301 256V90Z" glyph-name="X.salt_v" horiz-adv-x="1000" unicode="&#57886;" /><glyph d="M317 135C317 163 319 190 331 208L439 370H559L670 208C683 188 684 163 684 135V90H694V135C694 164 693 191 679 212L567 374L679 538C694 560 694 586 694 615V630H684V615C684 587 683 561 670 542L560 380H441L331 542C318 562 317 587 317 615V630H307V615C307 586 308 559 322 538L432 376L322 212C307 189 307 164 307 135V90H317ZM508 747ZM508 0Z" glyph-name="X.v" horiz-adv-x="1000" unicode="&#65336;" /><glyph d="M365 261C396 261 417 274 439 303L539 438C555 459 554 486 554 515V630H544V515C544 487 544 460 530 442L430 307C410 281 390 271 365 271H338C315 271 292 280 274 307L177 442C164 462 163 487 163 515V630H153V515C153 486 153 458 168 438L265 303C287 273 309 261 338 261H348V90H358V261ZM352 747ZM352 0Z" glyph-name="Y" horiz-adv-x="705" unicode="Y" /><glyph d="M495 90H505V254H516C549 254 569 266 590 296L680 427C692 445 695 461 695 504V590H685V504C685 462 682 447 671 431L581 300C563 274 545 264 516 264H482C453 264 435 274 418 300L331 431C320 448 317 463 317 504V590H307V504C307 461 310 445 322 427L409 296C429 266 449 254 482 254H495Z" glyph-name="Y.s_v" horiz-adv-x="1000" unicode="&#57943;" /><glyph d="M358 90V292C510 292 554 346 554 427V630H544V427C544 352 502 302 353 302C204 302 163 352 163 427V630H153V427C153 347 195 293 348 292V90ZM353 747ZM353 0Z" glyph-name="Y.salt" horiz-adv-x="706" unicode="&#57648;" /><glyph d="M505 90V272C650 272 692 326 692 407V590H682V407C682 332 642 282 500 282C358 282 319 332 319 407V590H309V407C309 327 349 273 495 272V90Z" glyph-name="Y.salt_s_v" horiz-adv-x="1000" unicode="&#57950;" /><glyph d="M505 90V292C650 292 692 346 692 427V630H682V427C682 352 642 302 500 302C358 302 319 352 319 427V630H309V427C309 347 349 293 495 292V90ZM500 747ZM500 0Z" glyph-name="Y.salt_v" horiz-adv-x="1000" unicode="&#57887;" /><glyph d="M495 90H505V266H516C547 266 569 278 590 308L680 438C694 459 695 486 695 515V630H685V515C685 487 684 461 671 442L581 312C563 285 541 276 516 276H482C459 276 436 285 418 312L331 442C318 462 317 487 317 515V630H307V515C307 486 308 459 322 438L409 308C430 277 453 266 482 266H495ZM352 747ZM352 747ZM352 0ZM352 0Z" glyph-name="Y.v" horiz-adv-x="1000" unicode="&#65337;" /><glyph d="M365 261C396 261 417 274 439 303L539 438C555 459 554 486 554 515V630H544V515C544 487 544 460 530 442L430 307C410 281 390 271 365 271H338C315 271 292 280 274 307L177 442C164 462 163 487 163 515V630H153V515C153 486 153 458 168 438L265 303C287 273 309 261 338 261H348V90H358V261ZM352 747ZM352 0ZM242 847V837L481 867V877ZM362 747ZM362 0Z" glyph-name="Yacute" horiz-adv-x="705" unicode="&#221;" /><glyph d="M358 90V292C510 292 554 346 554 427V630H544V427C544 352 502 302 353 302C204 302 163 352 163 427V630H153V427C153 347 195 293 348 292V90ZM353 747ZM353 0ZM243 847V837L482 867V877ZM363 747ZM363 0Z" glyph-name="Yacute.salt" horiz-adv-x="706" unicode="&#57649;" /><glyph d="M380 807V797L619 827V837ZM500 707ZM500 -40ZM505 90V272C650 272 692 326 692 407V590H682V407C682 332 642 282 500 282C358 282 319 332 319 407V590H309V407C309 327 349 273 495 272V90Z" glyph-name="Yacute.salt_v" horiz-adv-x="1000" unicode="&#57888;" /><glyph d="M495 90H505V254H516C549 254 569 266 590 296L680 427C692 445 695 461 695 504V590H685V504C685 462 682 447 671 431L581 300C563 274 545 264 516 264H482C453 264 435 274 418 300L331 431C320 448 317 463 317 504V590H307V504C307 461 310 445 322 427L409 296C429 266 449 254 482 254H495ZM400 807V797L639 827V837ZM520 707ZM520 -40Z" glyph-name="Yacute.v" horiz-adv-x="1000" unicode="&#57817;" /><glyph d="M365 261C396 261 417 274 439 303L539 438C555 459 554 486 554 515V630H544V515C544 487 544 460 530 442L430 307C410 281 390 271 365 271H338C315 271 292 280 274 307L177 442C164 462 163 487 163 515V630H153V515C153 486 153 458 168 438L265 303C287 273 309 261 338 261H348V90H358V261ZM352 747ZM352 0ZM470 850V861L387 888C375 891 366 894 351 894C336 894 327 891 315 888L232 861V850L319 878C329 881 338 884 351 884C364 884 373 881 383 878ZM352 747ZM352 0Z" glyph-name="Ycircumflex" horiz-adv-x="705" unicode="&#374;" /><glyph d="M358 90V292C510 292 554 346 554 427V630H544V427C544 352 502 302 353 302C204 302 163 352 163 427V630H153V427C153 347 195 293 348 292V90ZM353 747ZM353 0ZM471 850V861L388 888C376 891 367 894 352 894C337 894 328 891 316 888L233 861V850L320 878C330 881 339 884 352 884C365 884 374 881 384 878ZM353 747ZM353 0Z" glyph-name="Ycircumflex.salt" horiz-adv-x="706" unicode="&#57650;" /><glyph d="M505 90V272C650 272 692 326 692 407V590H682V407C682 332 642 282 500 282C358 282 319 332 319 407V590H309V407C309 327 349 273 495 272V90ZM618 810V821L535 848C523 851 514 854 499 854C484 854 475 851 463 848L380 821V810L467 838C477 841 486 844 499 844C512 844 521 841 531 838ZM500 707ZM500 -40Z" glyph-name="Ycircumflex.salt_v" horiz-adv-x="1000" unicode="&#57889;" /><glyph d="M495 90H505V254H516C549 254 569 266 590 296L680 427C692 445 695 461 695 504V590H685V504C685 462 682 447 671 431L581 300C563 274 545 264 516 264H482C453 264 435 274 418 300L331 431C320 448 317 463 317 504V590H307V504C307 461 310 445 322 427L409 296C429 266 449 254 482 254H495ZM618 810V821L535 848C523 851 514 854 499 854C484 854 475 851 463 848L380 821V810L467 838C477 841 486 844 499 844C512 844 521 841 531 838ZM500 707ZM500 -40Z" glyph-name="Ycircumflex.v" horiz-adv-x="1000" unicode="&#57818;" /><glyph d="M365 261C396 261 417 274 439 303L539 438C555 459 554 486 554 515V630H544V515C544 487 544 460 530 442L430 307C410 281 390 271 365 271H338C315 271 292 280 274 307L177 442C164 462 163 487 163 515V630H153V515C153 486 153 458 168 438L265 303C287 273 309 261 338 261H348V90H358V261ZM352 747ZM352 0ZM484 830V877H474V830ZM226 830V877H216V830ZM352 747ZM352 0Z" glyph-name="Ydieresis" horiz-adv-x="705" unicode="&#376;" /><glyph d="M358 90V292C510 292 554 346 554 427V630H544V427C544 352 502 302 353 302C204 302 163 352 163 427V630H153V427C153 347 195 293 348 292V90ZM353 747ZM353 0ZM485 830V877H475V830ZM227 830V877H217V830ZM353 747ZM353 0Z" glyph-name="Ydieresis.salt" horiz-adv-x="706" unicode="&#57651;" /><glyph d="M632 790V837H622V790ZM374 790V837H364V790ZM500 707ZM500 -40ZM505 90V272C650 272 692 326 692 407V590H682V407C682 332 642 282 500 282C358 282 319 332 319 407V590H309V407C309 327 349 273 495 272V90Z" glyph-name="Ydieresis.salt_v" horiz-adv-x="1000" unicode="&#57890;" /><glyph d="M637 790V837H627V790ZM379 790V837H369V790ZM505 707ZM505 -40ZM495 90H505V254H516C549 254 569 266 590 296L680 427C692 445 695 461 695 504V590H685V504C685 462 682 447 671 431L581 300C563 274 545 264 516 264H482C453 264 435 274 418 300L331 431C320 448 317 463 317 504V590H307V504C307 461 310 445 322 427L409 296C429 266 449 254 482 254H495Z" glyph-name="Ydieresis.v" horiz-adv-x="1000" unicode="&#57819;" /><glyph d="M365 261C396 261 417 274 439 303L539 438C555 459 554 486 554 515V630H544V515C544 487 544 460 530 442L430 307C410 281 390 271 365 271H338C315 271 292 280 274 307L177 442C164 462 163 487 163 515V630H153V515C153 486 153 458 168 438L265 303C287 273 309 261 338 261H348V90H358V261ZM352 747ZM352 0ZM358 830V889H348V830ZM352 747ZM352 0Z" glyph-name="Ydotaccent" horiz-adv-x="705" unicode="&#7822;" /><glyph d="M365 261C396 261 417 274 439 303L539 438C555 459 554 486 554 515V630H544V515C544 487 544 460 530 442L430 307C410 281 390 271 365 271H338C315 271 292 280 274 307L177 442C164 462 163 487 163 515V630H153V515C153 486 153 458 168 438L265 303C287 273 309 261 338 261H348V90H358V261ZM352 747ZM352 0ZM357 -170V-111H347V-170ZM351 -253ZM351 -1000Z" glyph-name="Ydotbelow" horiz-adv-x="705" unicode="&#7924;" /><glyph d="M365 261C396 261 417 274 439 303L539 438C555 459 554 486 554 515V630H544V515C544 487 544 460 530 442L430 307C410 281 390 271 365 271H338C315 271 292 280 274 307L177 442C164 462 163 487 163 515V630H153V515C153 486 153 458 168 438L265 303C287 273 309 261 338 261H348V90H358V261ZM352 747ZM352 0ZM222 867 461 837V847L222 877ZM342 747ZM342 0Z" glyph-name="Ygrave" horiz-adv-x="705" unicode="&#7922;" /><glyph d="M358 90V292C510 292 554 346 554 427V630H544V427C544 352 502 302 353 302C204 302 163 352 163 427V630H153V427C153 347 195 293 348 292V90ZM353 747ZM353 0ZM223 867 462 837V847L223 877ZM343 747ZM343 0Z" glyph-name="Ygrave.salt" horiz-adv-x="706" unicode="&#57652;" /><glyph d="M505 90V272C650 272 692 326 692 407V590H682V407C682 332 642 282 500 282C358 282 319 332 319 407V590H309V407C309 327 349 273 495 272V90ZM380 827 619 797V807L380 837ZM500 707ZM500 -40Z" glyph-name="Ygrave.salt_v" horiz-adv-x="1000" unicode="&#57891;" /><glyph d="M495 90H505V254H516C549 254 569 266 590 296L680 427C692 445 695 461 695 504V590H685V504C685 462 682 447 671 431L581 300C563 274 545 264 516 264H482C453 264 435 274 418 300L331 431C320 448 317 463 317 504V590H307V504C307 461 310 445 322 427L409 296C429 266 449 254 482 254H495ZM380 827 619 797V807L380 837ZM500 707ZM500 -40Z" glyph-name="Ygrave.v" horiz-adv-x="1000" unicode="&#57820;" /><glyph d="M365 261C396 261 417 274 439 303L539 438C555 459 554 486 554 515V630H544V515C544 487 544 460 530 442L430 307C410 281 390 271 365 271H338C315 271 292 280 274 307L177 442C164 462 163 487 163 515V630H153V515C153 486 153 458 168 438L265 303C287 273 309 261 338 261H348V90H358V261ZM352 747ZM352 0ZM313 805 410 820C431 823 451 833 451 871V921C451 960 426 970 401 970H265V960H401C421 960 441 952 441 921V871C441 843 428 832 408 829L312 815Z" glyph-name="Yhookabove" horiz-adv-x="705" unicode="&#7926;" /><glyph d="M365 261C396 261 417 274 439 303L539 438C555 459 554 486 554 515V630H544V515C544 487 544 460 530 442L430 307C410 281 390 271 365 271H338C315 271 292 280 274 307L177 442C164 462 163 487 163 515V630H153V515C153 486 153 458 168 438L265 303C287 273 309 261 338 261H348V90H358V261ZM352 747ZM352 0ZM470 841C443 838 419 841 368 849L352 851L324 855C279 861 255 863 232 860V849C254 853 278 852 322 845L350 841L366 839C417 831 443 828 470 831ZM352 747ZM352 0Z" glyph-name="Ytilde" horiz-adv-x="705" unicode="&#7928;" /><glyph d="M473 544C483 556 490 566 490 581V597C490 620 481 630 459 630H154V620H459C470 620 480 616 480 597V583C480 570 476 564 466 552L173 176C163 164 156 154 156 139V123C156 100 165 90 187 90H524V100H187C176 100 166 104 166 123V137C166 150 170 156 180 168ZM330 747ZM330 0Z" glyph-name="Z" horiz-adv-x="660" unicode="Z" /><glyph d="M685 504C697 514 702 526 702 541V557C702 580 693 590 671 590H298V580H671C682 580 692 576 692 557V543C692 530 690 522 678 512L307 176C297 164 290 154 290 139V123C290 100 299 90 321 90H710V100H321C310 100 300 104 300 123V137C300 150 304 156 314 168Z" glyph-name="Z.s_v" horiz-adv-x="1000" unicode="&#57944;" /><glyph d="M685 544C696 555 702 566 702 581V597C702 620 693 630 671 630H298V620H671C682 620 692 616 692 597V583C692 570 689 563 678 552L307 176C297 164 290 154 290 139V123C290 100 299 90 321 90H710V100H321C310 100 300 104 300 123V137C300 150 304 156 314 168Z" glyph-name="Z.v" horiz-adv-x="1000" unicode="&#65338;" /><glyph d="M473 544C483 556 490 566 490 581V597C490 620 481 630 459 630H154V620H459C470 620 480 616 480 597V583C480 570 476 564 466 552L173 176C163 164 156 154 156 139V123C156 100 165 90 187 90H524V100H187C176 100 166 104 166 123V137C166 150 170 156 180 168ZM330 747ZM330 0ZM220 847V837L459 867V877ZM340 747ZM340 0Z" glyph-name="Zacute" horiz-adv-x="660" unicode="&#377;" /><glyph d="M685 504C697 514 702 526 702 541V557C702 580 693 590 671 590H298V580H671C682 580 692 576 692 557V543C692 530 690 522 678 512L307 176C297 164 290 154 290 139V123C290 100 299 90 321 90H710V100H321C310 100 300 104 300 123V137C300 150 304 156 314 168ZM400 807V797L639 827V837ZM520 707ZM520 -40Z" glyph-name="Zacute.v" horiz-adv-x="1000" unicode="&#57821;" /><glyph d="M473 544C483 556 490 566 490 581V597C490 620 481 630 459 630H154V620H459C470 620 480 616 480 597V583C480 570 476 564 466 552L173 176C163 164 156 154 156 139V123C156 100 165 90 187 90H524V100H187C176 100 166 104 166 123V137C166 150 170 156 180 168ZM330 747ZM330 0ZM210 879V868L293 841C305 838 314 835 329 835C344 835 353 838 365 841L448 868V879L361 851C351 848 342 845 329 845C316 845 307 848 297 851ZM330 747ZM330 0Z" glyph-name="Zcaron" horiz-adv-x="660" unicode="&#381;" /><glyph d="M385 839V828L468 801C480 798 489 795 504 795C519 795 528 798 540 801L623 828V839L536 811C526 808 517 805 504 805C491 805 482 808 472 811ZM505 707ZM505 -40ZM685 504C697 514 702 526 702 541V557C702 580 693 590 671 590H298V580H671C682 580 692 576 692 557V543C692 530 690 522 678 512L307 176C297 164 290 154 290 139V123C290 100 299 90 321 90H710V100H321C310 100 300 104 300 123V137C300 150 304 156 314 168Z" glyph-name="Zcaron.v" horiz-adv-x="1000" unicode="&#57823;" /><glyph d="M473 544C483 556 490 566 490 581V597C490 620 481 630 459 630H154V620H459C470 620 480 616 480 597V583C480 570 476 564 466 552L173 176C163 164 156 154 156 139V123C156 100 165 90 187 90H524V100H187C176 100 166 104 166 123V137C166 150 170 156 180 168ZM330 747ZM330 0ZM336 830V889H326V830ZM330 747ZM330 0Z" glyph-name="Zdotaccent" horiz-adv-x="660" unicode="&#379;" /><glyph d="M506 790V849H496V790ZM500 707ZM500 -40ZM685 504C697 514 702 526 702 541V557C702 580 693 590 671 590H298V580H671C682 580 692 576 692 557V543C692 530 690 522 678 512L307 176C297 164 290 154 290 139V123C290 100 299 90 321 90H710V100H321C310 100 300 104 300 123V137C300 150 304 156 314 168Z" glyph-name="Zdotaccent.v" horiz-adv-x="1000" unicode="&#57822;" /><glyph d="M473 544C483 556 490 566 490 581V597C490 620 481 630 459 630H154V620H459C470 620 480 616 480 597V583C480 570 476 564 466 552L173 176C163 164 156 154 156 139V123C156 100 165 90 187 90H524V100H187C176 100 166 104 166 123V137C166 150 170 156 180 168ZM330 747ZM330 0ZM345 -170V-111H335V-170ZM339 -253ZM339 -1000Z" glyph-name="Zdotbelow" horiz-adv-x="660" unicode="&#7826;" /><glyph d="M170 303C170 339 176 369 186 396L250 560C263 594 274 620 314 620H412C449 620 460 594 475 559L544 396C554 369 560 339 560 303V272H170ZM560 90H570V303C570 340 564 371 553 400L484 563C468 602 456 630 412 630H314C268 630 256 601 241 564L177 400C166 371 160 340 160 303V90H170V262H560Z" glyph-name="a" horiz-adv-x="730" unicode="a" /><glyph d="M170 303C170 339 176 369 186 396L250 560C263 594 274 620 314 620H412C449 620 460 594 475 559L544 396C554 369 560 339 560 303V272H170ZM560 90H570V303C570 340 564 371 553 400L484 563C468 602 456 630 412 630H314C268 630 256 601 241 564L177 400C166 371 160 340 160 303V90H170V262H560ZM245 847V837L484 867V877ZM365 747ZM365 0Z" glyph-name="aacute" horiz-adv-x="730" unicode="&#225;" /><glyph d="M170 303C170 339 176 369 186 396L250 560C263 594 274 620 314 620H412C449 620 460 594 475 559L544 396C554 369 560 339 560 303V272H170ZM560 90H570V303C570 340 564 371 553 400L484 563C468 602 456 630 412 630H314C268 630 256 601 241 564L177 400C166 371 160 340 160 303V90H170V262H560ZM499 907V898C499 862 472 828 364 828C256 828 234 862 234 898V907H224V898C224 860 240 818 364 818C488 818 509 860 509 898V907ZM365 747ZM365 0Z" glyph-name="abreve" horiz-adv-x="730" unicode="&#259;" /><glyph d="M170 303C170 339 176 369 186 396L250 560C263 594 274 620 314 620H412C449 620 460 594 475 559L544 396C554 369 560 339 560 303V272H170ZM560 90H570V303C570 340 564 371 553 400L484 563C468 602 456 630 412 630H314C268 630 256 601 241 564L177 400C166 371 160 340 160 303V90H170V262H560ZM499 907V898C499 862 472 828 364 828C256 828 234 862 234 898V907H224V898C224 860 240 818 364 818C488 818 509 860 509 898V907ZM365 747ZM365 0ZM460 1104V1114L373 1093V1083Z" glyph-name="abreveacute" horiz-adv-x="730" unicode="&#7855;" /><glyph d="M170 303C170 339 176 369 186 396L250 560C263 594 274 620 314 620H412C449 620 460 594 475 559L544 396C554 369 560 339 560 303V272H170ZM560 90H570V303C570 340 564 371 553 400L484 563C468 602 456 630 412 630H314C268 630 256 601 241 564L177 400C166 371 160 340 160 303V90H170V262H560ZM499 907V898C499 862 472 828 364 828C256 828 234 862 234 898V907H224V898C224 860 240 818 364 818C488 818 509 860 509 898V907ZM365 747ZM365 0ZM370 -170V-111H360V-170ZM364 -253ZM364 -1000Z" glyph-name="abrevedotbelow" horiz-adv-x="730" unicode="&#7863;" /><glyph d="M170 303C170 339 176 369 186 396L250 560C263 594 274 620 314 620H412C449 620 460 594 475 559L544 396C554 369 560 339 560 303V272H170ZM560 90H570V303C570 340 564 371 553 400L484 563C468 602 456 630 412 630H314C268 630 256 601 241 564L177 400C166 371 160 340 160 303V90H170V262H560ZM499 907V898C499 862 472 828 364 828C256 828 234 862 234 898V907H224V898C224 860 240 818 364 818C488 818 509 860 509 898V907ZM365 747ZM365 0ZM359 1093 272 1114V1104L359 1083Z" glyph-name="abrevegrave" horiz-adv-x="730" unicode="&#7857;" /><glyph d="M170 303C170 339 176 369 186 396L250 560C263 594 274 620 314 620H412C449 620 460 594 475 559L544 396C554 369 560 339 560 303V272H170ZM560 90H570V303C570 340 564 371 553 400L484 563C468 602 456 630 412 630H314C268 630 256 601 241 564L177 400C166 371 160 340 160 303V90H170V262H560ZM499 907V898C499 862 472 828 364 828C256 828 234 862 234 898V907H224V898C224 860 240 818 364 818C488 818 509 860 509 898V907ZM365 747ZM365 0ZM353 1055 450 1070C471 1073 491 1083 491 1121V1171C491 1210 466 1220 441 1220H305V1210H441C461 1210 481 1202 481 1171V1121C481 1093 468 1082 448 1079L352 1065Z" glyph-name="abrevehookabove" horiz-adv-x="730" unicode="&#7859;" /><glyph d="M170 303C170 339 176 369 186 396L250 560C263 594 274 620 314 620H412C449 620 460 594 475 559L544 396C554 369 560 339 560 303V272H170ZM560 90H570V303C570 340 564 371 553 400L484 563C468 602 456 630 412 630H314C268 630 256 601 241 564L177 400C166 371 160 340 160 303V90H170V262H560ZM499 907V898C499 862 472 828 364 828C256 828 234 862 234 898V907H224V898C224 860 240 818 364 818C488 818 509 860 509 898V907ZM365 747ZM365 0ZM483 1101C456 1098 432 1101 381 1109L365 1111L337 1115C292 1121 268 1123 245 1120V1109C267 1113 291 1112 335 1105L363 1101L379 1099C430 1091 456 1088 483 1091ZM365 1007ZM365 260Z" glyph-name="abrevetilde" horiz-adv-x="730" unicode="&#7861;" /><glyph d="M170 303C170 339 176 369 186 396L250 560C263 594 274 620 314 620H412C449 620 460 594 475 559L544 396C554 369 560 339 560 303V272H170ZM560 90H570V303C570 340 564 371 553 400L484 563C468 602 456 630 412 630H314C268 630 256 601 241 564L177 400C166 371 160 340 160 303V90H170V262H560ZM245 879V868L328 841C340 838 349 835 364 835C379 835 388 838 400 841L483 868V879L396 851C386 848 377 845 364 845C351 845 342 848 332 851ZM365 747ZM365 0Z" glyph-name="acaron" horiz-adv-x="730" unicode="&#462;" /><glyph d="M170 303C170 339 176 369 186 396L250 560C263 594 274 620 314 620H412C449 620 460 594 475 559L544 396C554 369 560 339 560 303V272H170ZM560 90H570V303C570 340 564 371 553 400L484 563C468 602 456 630 412 630H314C268 630 256 601 241 564L177 400C166 371 160 340 160 303V90H170V262H560ZM483 850V861L400 888C388 891 379 894 364 894C349 894 340 891 328 888L245 861V850L332 878C342 881 351 884 364 884C377 884 386 881 396 878ZM365 747ZM365 0Z" glyph-name="acircumflex" horiz-adv-x="730" unicode="&#226;" /><glyph d="M170 303C170 339 176 369 186 396L250 560C263 594 274 620 314 620H412C449 620 460 594 475 559L544 396C554 369 560 339 560 303V272H170ZM560 90H570V303C570 340 564 371 553 400L484 563C468 602 456 630 412 630H314C268 630 256 601 241 564L177 400C166 371 160 340 160 303V90H170V262H560ZM483 850V861L400 888C388 891 379 894 364 894C349 894 340 891 328 888L245 861V850L332 878C342 881 351 884 364 884C377 884 386 881 396 878ZM365 747ZM365 0ZM553 1104V1114L466 1093V1083Z" glyph-name="acircumflexacute" horiz-adv-x="730" unicode="&#7845;" /><glyph d="M170 303C170 339 176 369 186 396L250 560C263 594 274 620 314 620H412C449 620 460 594 475 559L544 396C554 369 560 339 560 303V272H170ZM560 90H570V303C570 340 564 371 553 400L484 563C468 602 456 630 412 630H314C268 630 256 601 241 564L177 400C166 371 160 340 160 303V90H170V262H560ZM483 850V861L400 888C388 891 379 894 364 894C349 894 340 891 328 888L245 861V850L332 878C342 881 351 884 364 884C377 884 386 881 396 878ZM365 747ZM365 0ZM370 -170V-111H360V-170ZM364 -253ZM364 -1000Z" glyph-name="acircumflexdotbelow" horiz-adv-x="730" unicode="&#7853;" /><glyph d="M170 303C170 339 176 369 186 396L250 560C263 594 274 620 314 620H412C449 620 460 594 475 559L544 396C554 369 560 339 560 303V272H170ZM560 90H570V303C570 340 564 371 553 400L484 563C468 602 456 630 412 630H314C268 630 256 601 241 564L177 400C166 371 160 340 160 303V90H170V262H560ZM483 850V861L400 888C388 891 379 894 364 894C349 894 340 891 328 888L245 861V850L332 878C342 881 351 884 364 884C377 884 386 881 396 878ZM365 747ZM365 0ZM533 1068 446 1089V1079L533 1058Z" glyph-name="acircumflexgrave" horiz-adv-x="730" unicode="&#7847;" /><glyph d="M170 303C170 339 176 369 186 396L250 560C263 594 274 620 314 620H412C449 620 460 594 475 559L544 396C554 369 560 339 560 303V272H170ZM560 90H570V303C570 340 564 371 553 400L484 563C468 602 456 630 412 630H314C268 630 256 601 241 564L177 400C166 371 160 340 160 303V90H170V262H560ZM483 850V861L400 888C388 891 379 894 364 894C349 894 340 891 328 888L245 861V850L332 878C342 881 351 884 364 884C377 884 386 881 396 878ZM365 747ZM365 0ZM502 1029 599 1044C620 1047 640 1057 640 1095V1145C640 1184 615 1194 590 1194H454V1184H590C610 1184 630 1176 630 1145V1095C630 1067 617 1056 597 1053L501 1039Z" glyph-name="acircumflexhookabove" horiz-adv-x="730" unicode="&#7849;" /><glyph d="M170 303C170 339 176 369 186 396L250 560C263 594 274 620 314 620H412C449 620 460 594 475 559L544 396C554 369 560 339 560 303V272H170ZM560 90H570V303C570 340 564 371 553 400L484 563C468 602 456 630 412 630H314C268 630 256 601 241 564L177 400C166 371 160 340 160 303V90H170V262H560ZM483 850V861L400 888C388 891 379 894 364 894C349 894 340 891 328 888L245 861V850L332 878C342 881 351 884 364 884C377 884 386 881 396 878ZM365 747ZM365 0ZM483 1091C456 1088 432 1091 381 1099L365 1101L337 1105C292 1111 268 1113 245 1110V1099C267 1103 291 1102 335 1095L363 1091L379 1089C430 1081 456 1078 483 1081ZM365 997ZM365 250Z" glyph-name="acircumflextilde" horiz-adv-x="730" unicode="&#7851;" /><glyph d="M130 847V837L369 867V877ZM250 747ZM250 0Z" glyph-name="acute" horiz-adv-x="500" unicode="&#180;" /><glyph d="M43 1119V1129L-44 1108V1098Z" glyph-name="acute.vert" horiz-adv-x="0" /><glyph d="M-120 847V837L119 867V877ZM0 747ZM0 0Z" glyph-name="acutecmb" horiz-adv-x="0" unicode="&#769;" /><glyph d="M170 303C170 339 176 369 186 396L250 560C263 594 274 620 314 620H412C449 620 460 594 475 559L544 396C554 369 560 339 560 303V272H170ZM560 90H570V303C570 340 564 371 553 400L484 563C468 602 456 630 412 630H314C268 630 256 601 241 564L177 400C166 371 160 340 160 303V90H170V262H560ZM497 830V877H487V830ZM239 830V877H229V830ZM365 747ZM365 0Z" glyph-name="adieresis" horiz-adv-x="730" unicode="&#228;" /><glyph d="M170 303C170 339 176 369 186 396L250 560C263 594 274 620 314 620H412C449 620 460 594 475 559L544 396C554 369 560 339 560 303V272H170ZM560 90H570V303C570 340 564 371 553 400L484 563C468 602 456 630 412 630H314C268 630 256 601 241 564L177 400C166 371 160 340 160 303V90H170V262H560ZM370 -170V-111H360V-170ZM364 -253ZM364 -1000Z" glyph-name="adotbelow" horiz-adv-x="730" unicode="&#7841;" /><glyph d="M168 291C168 328 169 353 179 379L253 582C263 611 274 620 294 620H549V273H168ZM158 90H168V263H549V90H866V100H559V360H785V370H559V620H866V630H294C270 630 257 621 243 586L169 383C159 355 158 330 158 291Z" glyph-name="ae" horiz-adv-x="1005" unicode="&#230;" /><glyph d="M170 303C170 339 176 369 186 396L250 560C263 594 274 620 314 620H412C449 620 460 594 475 559L544 396C554 369 560 339 560 303V272H170ZM560 90H570V303C570 340 564 371 553 400L484 563C468 602 456 630 412 630H314C268 630 256 601 241 564L177 400C166 371 160 340 160 303V90H170V262H560ZM245 867 484 837V847L245 877ZM365 747ZM365 0Z" glyph-name="agrave" horiz-adv-x="730" unicode="&#224;" /><glyph d="M170 303C170 339 176 369 186 396L250 560C263 594 274 620 314 620H412C449 620 460 594 475 559L544 396C554 369 560 339 560 303V272H170ZM560 90H570V303C570 340 564 371 553 400L484 563C468 602 456 630 412 630H314C268 630 256 601 241 564L177 400C166 371 160 340 160 303V90H170V262H560ZM323 805 420 820C441 823 461 833 461 871V921C461 960 436 970 411 970H275V960H411C431 960 451 952 451 921V871C451 843 438 832 418 829L322 815Z" glyph-name="ahookabove" horiz-adv-x="730" unicode="&#7843;" /><glyph d="M170 303C170 339 176 369 186 396L250 560C263 594 274 620 314 620H412C449 620 460 594 475 559L544 396C554 369 560 339 560 303V272H170ZM560 90H570V303C570 340 564 371 553 400L484 563C468 602 456 630 412 630H314C268 630 256 601 241 564L177 400C166 371 160 340 160 303V90H170V262H560ZM245 847V837H484V847ZM365 747ZM365 0Z" glyph-name="amacron" horiz-adv-x="730" unicode="&#257;" /><glyph d="M250 90H491C550 90 584 119 584 181V306H649V316H574V181C574 127 544 100 491 100H256C177 100 143 130 143 198V259C143 319 179 363 255 363H322V373H312C249 373 220 404 220 469V523C220 591 253 620 328 620H453V630H328C247 630 210 599 210 525V469C210 417 227 386 262 372H255C172 372 133 325 133 259V198C133 124 171 90 250 90Z" glyph-name="ampersand" horiz-adv-x="766" unicode="&amp;" /><glyph d="M355 90V0H365V90H494V100H274C174 100 153 135 153 190V259C153 316 175 359 273 359H413V369H330C229 369 219 412 219 460V528C219 580 242 620 340 620H494V630H365V720H355V630H340C229 630 209 582 209 524V460C209 422 215 385 265 368C161 366 143 318 143 254V190C143 131 162 90 274 90Z" glyph-name="ampersand.salt" horiz-adv-x="632" unicode="&#57658;" /><glyph d="M534 90V0H544V90H711V100H433C333 100 312 135 312 190V259C312 316 334 359 432 359H630V369H489C388 369 378 412 378 460V528C378 580 401 620 499 620H711V630H544V720H534V630H499C388 630 368 582 368 524V460C368 422 374 385 424 368C320 366 302 318 302 254V190C302 131 321 90 433 90Z" glyph-name="ampersand.salt_v" horiz-adv-x="1000" unicode="&#57923;" /><glyph d="M407 90H613C672 90 706 119 706 181V306H771V316H696V181C696 127 666 100 613 100H413C334 100 300 130 300 198V259C300 319 336 363 412 363H479V373H469C406 373 377 404 377 469V518C377 590 410 620 485 620H570V630H485C404 630 367 598 367 520V469C367 417 384 386 419 372H412C329 372 290 325 290 259V198C290 124 328 90 407 90Z" glyph-name="ampersand.v" horiz-adv-x="1000" unicode="&#65286;" /><glyph d="M170 303C170 339 176 369 186 396L250 560C263 594 274 620 314 620H412C449 620 460 594 475 559L544 396C554 369 560 339 560 303V272H170ZM586 -106H562C521 -106 516 -83 521 -43L533 42C537 71 541 76 566 90H570V303C570 340 564 371 553 400L484 563C468 602 456 630 412 630H314C268 630 256 601 241 564L177 400C166 371 160 340 160 303V90H170V262H560V98C532 82 528 74 523 42L511 -41C503 -91 513 -116 562 -116H586Z" glyph-name="aogonek" horiz-adv-x="730" unicode="&#261;" /><glyph d="M309 631H191V621H299V534C299 480 274 458 226 458H191V448H226C280 448 309 473 309 534ZM250 1510ZM250 763Z" glyph-name="apostrophemod" horiz-adv-x="500" unicode="&#700;" /><glyph d="M160 513C209 526 240 528 326 515L366 510L389 507C479 494 513 486 574 502V513C513 496 481 503 391 517L368 520L328 525C241 538 208 537 160 524ZM160 223C209 236 240 238 326 225L366 220L389 217C479 204 513 196 574 212V223C513 206 481 213 391 227L368 230L328 235C241 248 208 247 160 234Z" glyph-name="approxequal" horiz-adv-x="734" unicode="&#8776;" /><glyph d="M225 760C225 700 247 660 366 660C485 660 509 700 509 760V805C509 864 485 906 366 906C247 906 225 865 225 805ZM366 896C473 896 499 860 499 805V760C499 704 473 670 366 670C259 670 235 704 235 760V805C235 861 259 896 366 896ZM170 303C170 339 176 369 186 396L250 560C263 594 274 620 314 620H412C449 620 460 594 475 559L544 396C554 369 560 339 560 303V272H170ZM560 90H570V303C570 340 564 371 553 400L484 563C468 602 456 630 412 630H314C268 630 256 601 241 564L177 400C166 371 160 340 160 303V90H170V262H560Z" glyph-name="aring" horiz-adv-x="730" unicode="&#229;" /><glyph d="M501 171 638 375H506V591H496V375H363ZM620 365 501 189 381 365Z" glyph-name="arrowdown" horiz-adv-x="1000" unicode="&#8595;" /><glyph d="M120 1045V253H-35C-49 253 -54 247 -54 235C-54 226 -49 216 -40 209L594 -308C612 -323 626 -331 641 -331C656 -331 670 -323 688 -308L1314 208C1327 220 1334 228 1334 238C1334 247 1331 253 1311 253H1160V1048L640 841ZM130 1032 640 830 1150 1033V243H1311C1318 243 1324 243 1324 238C1324 230 1317 224 1308 216L682 -300C666 -313 654 -321 641 -321C628 -321 616 -313 600 -300L-34 217C-41 222 -44 228 -44 235C-44 241 -41 243 -35 243H130Z" glyph-name="arrowdown.chevron" horiz-adv-x="1280" unicode="&#57700;" /><glyph d="M352 205 593 253 500 346 653 499 646 506 493 353 399 447ZM365 218 405 427 573 259Z" glyph-name="arrowdownleft" horiz-adv-x="1000" unicode="&#8601;" /><glyph d="M658 203 611 445 517 351 364 504 357 497 510 344 417 251ZM645 216 437 257 605 425Z" glyph-name="arrowdownright" horiz-adv-x="1000" unicode="&#8600;" /><glyph d="M509 221V354H725V364H509V496L305 359ZM499 239 323 359 499 478Z" glyph-name="arrowleft" horiz-adv-x="1000" unicode="&#8592;" /><glyph d="M593 -330C603 -330 611 -322 611 -312V-160H1313L1107 360L1313 880H611V1040C611 1050 604 1058 595 1058C586 1058 576 1052 567 1039L50 408C36 390 27 376 27 361C27 346 36 332 51 313L566 -316C574 -326 584 -330 593 -330ZM593 -320C586 -320 580 -316 574 -310L59 319C46 336 37 348 37 361C37 374 46 386 58 402L575 1033C582 1042 588 1048 595 1048C598 1048 601 1044 601 1040V870H1298L1096 360L1298 -150H601V-312C601 -316 597 -320 593 -320Z" glyph-name="arrowleft.chevron" horiz-adv-x="1330" unicode="&#57697;" /><glyph d="M501 239V478L677 359ZM491 221 695 359 491 496V364H275V354H491Z" glyph-name="arrowright" horiz-adv-x="1000" unicode="&#8594;" /><glyph d="M737 -330C746 -330 756 -326 764 -316L1279 313C1294 332 1303 346 1303 361C1303 376 1294 390 1280 408L763 1039C754 1052 744 1058 735 1058C726 1058 719 1050 719 1040V880H17L223 360L17 -160H719V-312C719 -322 727 -330 737 -330ZM737 -320C733 -320 729 -316 729 -312V-150H32L234 360L32 870H729V1040C729 1044 732 1048 735 1048C742 1048 748 1042 755 1033L1272 402C1284 386 1293 374 1293 361C1293 348 1284 336 1271 319L756 -310C750 -316 744 -320 737 -320Z" glyph-name="arrowright.chevron" horiz-adv-x="1330" unicode="&#57699;" /><glyph d="M495 129H505V345H638L500 549L363 345H495ZM620 355H381L500 531Z" glyph-name="arrowup" horiz-adv-x="1000" unicode="&#8593;" /><glyph d="M1150 -323 640 -121 130 -324V466H-31C-38 466 -44 466 -44 471C-44 479 -37 485 -28 493L598 1009C614 1022 626 1030 639 1030C652 1030 664 1022 680 1009L1314 492C1321 487 1324 481 1324 474C1324 468 1321 466 1315 466H1150ZM1160 -336V456H1315C1329 456 1334 462 1334 474C1334 483 1329 493 1320 500L686 1017C668 1032 654 1040 639 1040C624 1040 610 1032 592 1017L-34 501C-47 489 -54 481 -54 471C-54 462 -51 456 -31 456H120V-339L640 -132Z" glyph-name="arrowup.chevron" horiz-adv-x="1280" unicode="&#57698;" /><glyph d="M637 216 644 223 491 376 584 469 343 517 390 275 484 369ZM396 295 356 504 564 463Z" glyph-name="arrowupleft" horiz-adv-x="1000" unicode="&#8598;" /><glyph d="M605 295 437 463 645 504ZM611 275 658 517 417 469 510 376 357 223 364 216 517 369Z" glyph-name="arrowupright" horiz-adv-x="1000" unicode="&#8599;" /><glyph d="M530 261 443 564C433 599 423 626 376 626H303C256 626 246 600 236 563L150 261H161L246 561C255 592 262 616 303 616H376C417 616 425 591 433 562L519 261Z" glyph-name="asciicircum" horiz-adv-x="714" unicode="^" /><glyph d="M160 368C209 381 240 383 326 370L366 365L389 362C479 349 513 341 574 357V368C513 351 481 358 391 372L368 375L328 380C241 393 208 392 160 379Z" glyph-name="asciitilde" horiz-adv-x="734" unicode="~" /><glyph d="M568 90V507C568 588 522 642 366 642C210 642 166 588 166 507V225C166 144 201 90 326 90ZM176 225V507C176 582 218 632 366 632C514 632 558 582 558 507V100H326C209 100 176 150 176 225Z" glyph-name="ascript" horiz-adv-x="746" unicode="&#593;" /><glyph d="M470 268 478 274 372 426 544 482 540 492 366 435V630H356V435L182 492L178 482L350 426L244 274L252 268L361 423Z" glyph-name="asterisk" horiz-adv-x="718" unicode="*" /><glyph d="M612 199 620 205 514 357 686 413 682 423 508 366V561H498V366L324 423L320 413L492 357L386 205L394 199L503 354Z" glyph-name="asterisk.v" horiz-adv-x="1000" unicode="&#65290;" /><glyph d="M434 -50H608V-40H434C155 -40 115 50 115 150V568C115 669 156 758 434 758C712 758 752 669 752 568V302C752 210 723 170 645 170H569V527H425C295 527 294 475 294 422V261C294 189 318 160 383 160H645C729 160 762 202 762 302V568C762 673 726 768 434 768C142 768 105 673 105 568V150C105 46 141 -50 434 -50ZM383 170C324 170 304 197 304 261V422C304 471 307 517 425 517H559V170Z" glyph-name="at" horiz-adv-x="867" unicode="@" /><glyph d="M170 303C170 339 176 369 186 396L250 560C263 594 274 620 314 620H412C449 620 460 594 475 559L544 396C554 369 560 339 560 303V272H170ZM560 90H570V303C570 340 564 371 553 400L484 563C468 602 456 630 412 630H314C268 630 256 601 241 564L177 400C166 371 160 340 160 303V90H170V262H560ZM483 841C456 838 432 841 381 849L365 851L337 855C292 861 268 863 245 860V849C267 853 291 852 335 845L363 841L379 839C430 831 456 828 483 831ZM365 747ZM365 0Z" glyph-name="atilde" horiz-adv-x="730" unicode="&#227;" /><glyph d="M180 90H449C561 90 580 131 580 190V254C580 320 561 369 450 369C507 384 514 420 514 460V524C514 582 494 630 383 630H180ZM383 620C484 620 504 578 504 524V460C504 412 493 369 383 369H190V620ZM450 359C551 359 570 314 570 254V190C570 135 549 100 449 100H190V359Z" glyph-name="b" horiz-adv-x="725" unicode="b" /><glyph d="M127 720H117L221 0H231Z" glyph-name="backslash" horiz-adv-x="347" unicode="\" /><glyph d="M169 720V0H179V720Z" glyph-name="bar" horiz-adv-x="347" unicode="|" /><glyph d="M623 362 501 484 378 361 500 239ZM609 362 500 253 392 361 501 470Z" glyph-name="blackdiamond" horiz-adv-x="1000" unicode="&#9670;" /><glyph d="M500 334 589 484H411ZM571 474 500 354 429 474Z" glyph-name="blackdownpointingtriangle" horiz-adv-x="1000" unicode="&#9660;" /><glyph d="M459 365 609 276V454ZM599 294 479 365 599 436Z" glyph-name="blackleftpointingtriangle" horiz-adv-x="1000" unicode="&#9664;" /><glyph d="M541 365 391 454V276ZM401 436 521 365 401 294Z" glyph-name="blackrightpointingtriangle" horiz-adv-x="1000" unicode="&#9654;" /><glyph d="M587 449H414V275H587ZM577 439V285H424V439Z" glyph-name="blacksquare" horiz-adv-x="1000" unicode="&#9632;" /><glyph d="M500 404 411 254H589ZM571 264H429L500 384Z" glyph-name="blackuppointingtriangle" horiz-adv-x="1000" unicode="&#9650;" /><glyph d="M-40 870H1040V880H-40ZM-40 -160H1040V-150H-40Z" glyph-name="block" horiz-adv-x="1000" unicode="&#9608;" /><glyph d="M1020 -180V900H1010V-180ZM-10 -180V900H-20V-180Z" glyph-name="block.v" horiz-adv-x="1000" unicode="&#57687;" /><glyph d="M320 11V21C241 21 203 54 203 124V283C157 288 139 307 139 344V372C139 409 156 428 203 433V595C203 674 240 698 320 698V708C232 708 193 680 193 595V441C153 435 129 415 129 372V344C129 302 153 281 193 275V124C193 48 233 11 320 11Z" glyph-name="braceleft" horiz-adv-x="455" unicode="{" /><glyph d="M152 255H162C162 334 195 372 265 372H424C429 418 448 436 485 436H513C550 436 569 419 574 372H736C815 372 839 335 839 255H849C849 343 821 382 736 382H582C576 422 556 446 513 446H485C443 446 422 422 416 382H265C189 382 152 342 152 255Z" glyph-name="braceleft.v" horiz-adv-x="1000" unicode="&#57903;" /><glyph d="M262 124V275C302 281 326 302 326 344V372C326 415 302 435 262 441V595C262 680 223 708 135 708V698C215 698 252 674 252 595V433C299 428 316 409 316 372V344C316 307 298 288 252 283V124C252 54 214 21 135 21V11C222 11 262 48 262 124Z" glyph-name="braceright" horiz-adv-x="455" unicode="}" /><glyph d="M265 338H416C422 298 443 274 485 274H513C556 274 576 298 582 338H736C821 338 849 377 849 465H839C839 385 815 348 736 348H574C569 301 550 284 513 284H485C448 284 429 302 424 348H265C195 348 162 386 162 465H152C152 378 189 338 265 338Z" glyph-name="braceright.v" horiz-adv-x="1000" unicode="&#57904;" /><glyph d="M157 708V11H294V21H167V698H294V708Z" glyph-name="bracketleft" horiz-adv-x="429" unicode="[" /><glyph d="M849 419H152V282H162V409H839V282H849Z" glyph-name="bracketleft.v" horiz-adv-x="1000" unicode="&#57901;" /><glyph d="M272 708H135V698H262V21H135V11H272Z" glyph-name="bracketright" horiz-adv-x="429" unicode="]" /><glyph d="M849 301V438H839V311H162V438H152V301Z" glyph-name="bracketright.v" horiz-adv-x="1000" unicode="&#57902;" /><glyph d="M384 907V898C384 862 357 828 249 828C141 828 119 862 119 898V907H109V898C109 860 125 818 249 818C373 818 394 860 394 898V907ZM250 747ZM250 0Z" glyph-name="breve" horiz-adv-x="500" unicode="&#728;" /><glyph d="M384 907V898C384 862 357 828 249 828C141 828 119 862 119 898V907H109V898C109 860 125 818 249 818C373 818 394 860 394 898V907ZM250 747ZM250 0ZM345 1104V1114L258 1093V1083Z" glyph-name="breveacute" horiz-adv-x="500" /><glyph d="M134 -113V-122C134 -158 107 -192 -1 -192C-109 -192 -131 -158 -131 -122V-113H-141V-122C-141 -160 -125 -202 -1 -202C123 -202 144 -160 144 -122V-113ZM0 -273ZM0 -1020Z" glyph-name="brevebelowcmb" horiz-adv-x="0" unicode="&#814;" /><glyph d="M134 907V898C134 862 107 828 -1 828C-109 828 -131 862 -131 898V907H-141V898C-141 860 -125 818 -1 818C123 818 144 860 144 898V907ZM0 747ZM0 0Z" glyph-name="brevecmb" horiz-adv-x="0" unicode="&#774;" /><glyph d="M384 907V898C384 862 357 828 249 828C141 828 119 862 119 898V907H109V898C109 860 125 818 249 818C373 818 394 860 394 898V907ZM250 747ZM250 0ZM244 1093 157 1114V1104L244 1083Z" glyph-name="brevegrave" horiz-adv-x="500" /><glyph d="M384 907V898C384 862 357 828 249 828C141 828 119 862 119 898V907H109V898C109 860 125 818 249 818C373 818 394 860 394 898V907ZM250 747ZM250 0ZM238 1055 335 1070C356 1073 376 1083 376 1121V1171C376 1210 351 1220 326 1220H190V1210H326C346 1210 366 1202 366 1171V1121C366 1093 353 1082 333 1079L237 1065Z" glyph-name="brevehookabove" horiz-adv-x="500" /><glyph d="M384 907V898C384 862 357 828 249 828C141 828 119 862 119 898V907H109V898C109 860 125 818 249 818C373 818 394 860 394 898V907ZM250 747ZM250 0ZM368 1101C341 1098 317 1101 266 1109L250 1111L222 1115C177 1121 153 1123 130 1120V1109C152 1113 176 1112 220 1105L248 1101L264 1099C315 1091 341 1088 368 1091ZM250 1007ZM250 260Z" glyph-name="brevetilde" horiz-adv-x="500" /><glyph d="M169 720V490H179V720ZM169 230V0H179V230Z" glyph-name="brokenbar" horiz-adv-x="347" unicode="&#166;" /><glyph d="M308 449H135V275H308ZM298 439V285H145V439Z" glyph-name="bullet" horiz-adv-x="443" unicode="&#8226;" /><glyph d="M493 100H326C206 100 176 132 176 219V499C176 588 208 620 326 620H493V630H326C198 630 166 594 166 499V219C166 126 196 90 326 90H493Z" glyph-name="c" horiz-adv-x="628" unicode="c" /><glyph d="M493 100H326C206 100 176 132 176 219V499C176 588 208 620 326 620H493V630H326C198 630 166 594 166 499V219C166 126 196 90 326 90H493ZM255 847V837L494 867V877ZM375 747ZM375 0Z" glyph-name="cacute" horiz-adv-x="628" unicode="&#263;" /><glyph d="M130 879V868L213 841C225 838 234 835 249 835C264 835 273 838 285 841L368 868V879L281 851C271 848 262 845 249 845C236 845 227 848 217 851ZM250 747ZM250 0Z" glyph-name="caron" horiz-adv-x="500" unicode="&#711;" /><glyph d="M233 537 251 630H240L222 537Z" glyph-name="caron.2" horiz-adv-x="500" unicode="&#57659;" /><glyph d="M-120 879V868L-37 841C-25 838 -16 835 -1 835C14 835 23 838 35 841L118 868V879L31 851C21 848 12 845 -1 845C-14 845 -23 848 -33 851ZM0 747ZM0 0Z" glyph-name="caroncmb" horiz-adv-x="0" unicode="&#780;" /><glyph d="M493 100H326C206 100 176 132 176 219V499C176 588 208 620 326 620H493V630H326C198 630 166 594 166 499V219C166 126 196 90 326 90H493ZM225 879V868L308 841C320 838 329 835 344 835C359 835 368 838 380 841L463 868V879L376 851C366 848 357 845 344 845C331 845 322 848 312 851ZM345 747ZM345 0Z" glyph-name="ccaron" horiz-adv-x="628" unicode="&#269;" /><glyph d="M493 90V100H326C206 100 176 132 176 219V499C176 588 208 620 326 620H493V630H326C198 630 166 594 166 499V219C166 126 196 90 326 90H394L349 -36H359L405 90Z" glyph-name="ccedilla" horiz-adv-x="628" unicode="&#231;" /><glyph d="M493 100H326C206 100 176 132 176 219V499C176 588 208 620 326 620H493V630H326C198 630 166 594 166 499V219C166 126 196 90 326 90H493ZM463 850V861L380 888C368 891 359 894 344 894C329 894 320 891 308 888L225 861V850L312 878C322 881 331 884 344 884C357 884 366 881 376 878ZM345 747ZM345 0Z" glyph-name="ccircumflex" horiz-adv-x="628" unicode="&#265;" /><glyph d="M493 100H326C206 100 176 132 176 219V499C176 588 208 620 326 620H493V630H326C198 630 166 594 166 499V219C166 126 196 90 326 90H493ZM361 830V889H351V830ZM355 747ZM355 0Z" glyph-name="cdotaccent" horiz-adv-x="628" unicode="&#267;" /><glyph d="M358 131V40H368V131H493V141H326C206 141 176 173 176 260V457C176 546 208 578 326 578H493V588H368V680H358V588H326C198 588 166 552 166 457V260C166 167 196 131 326 131Z" glyph-name="cedi" horiz-adv-x="628" unicode="&#8373;" /><glyph d="M272 97 224 -36H234L282 96ZM250 747ZM250 0Z" glyph-name="cedilla" horiz-adv-x="500" unicode="&#184;" /><glyph d="M22 97 -26 -36H-16L32 96ZM0 747ZM0 0Z" glyph-name="cedillacmb" horiz-adv-x="0" unicode="&#807;" /><glyph d="M358 131V40H368V131H493V141H326C206 141 176 173 176 260V457C176 546 208 578 326 578H493V588H368V680H358V588H326C198 588 166 552 166 457V260C166 167 196 131 326 131Z" glyph-name="cent" horiz-adv-x="628" unicode="&#162;" /><glyph d="M368 850V861L285 888C273 891 264 894 249 894C234 894 225 891 213 888L130 861V850L217 878C227 881 236 884 249 884C262 884 271 881 281 878ZM250 747ZM250 0Z" glyph-name="circumflex" horiz-adv-x="500" unicode="&#710;" /><glyph d="M368 850V861L285 888C273 891 264 894 249 894C234 894 225 891 213 888L130 861V850L217 878C227 881 236 884 249 884C262 884 271 881 281 878ZM250 747ZM250 0ZM438 1104V1114L351 1093V1083Z" glyph-name="circumflexacute" horiz-adv-x="500" /><glyph d="M118 850V861L35 888C23 891 14 894 -1 894C-16 894 -25 891 -37 888L-120 861V850L-33 878C-23 881 -14 884 -1 884C12 884 21 881 31 878ZM0 747ZM0 0Z" glyph-name="circumflexcmb" horiz-adv-x="0" unicode="&#770;" /><glyph d="M368 850V861L285 888C273 891 264 894 249 894C234 894 225 891 213 888L130 861V850L217 878C227 881 236 884 249 884C262 884 271 881 281 878ZM250 747ZM250 0ZM418 1068 331 1089V1079L418 1058Z" glyph-name="circumflexgrave" horiz-adv-x="500" /><glyph d="M368 850V861L285 888C273 891 264 894 249 894C234 894 225 891 213 888L130 861V850L217 878C227 881 236 884 249 884C262 884 271 881 281 878ZM250 747ZM250 0ZM387 1029 484 1044C505 1047 525 1057 525 1095V1145C525 1184 500 1194 475 1194H339V1184H475C495 1184 515 1176 515 1145V1095C515 1067 502 1056 482 1053L386 1039Z" glyph-name="circumflexhookabove" horiz-adv-x="500" /><glyph d="M368 850V861L285 888C273 891 264 894 249 894C234 894 225 891 213 888L130 861V850L217 878C227 881 236 884 249 884C262 884 271 881 281 878ZM250 747ZM250 0ZM368 1091C341 1088 317 1091 266 1099L250 1101L222 1105C177 1111 153 1113 130 1110V1099C152 1103 176 1102 220 1095L248 1091L264 1089C315 1081 341 1078 368 1081ZM250 997ZM250 250Z" glyph-name="circumflextilde" horiz-adv-x="500" /><glyph d="M187 90H197V185H187ZM187 445H197V540H187Z" glyph-name="colon" horiz-adv-x="384" unicode=":" /><glyph d="M495 137H505V232H495ZM495 492H505V587H495Z" glyph-name="colon.v" horiz-adv-x="1000" unicode="&#65306;" /><glyph d="M307 55V131C313 131 319 131 326 131H447V55H457V131H493V141H326C206 141 176 173 176 260V457C176 546 208 578 326 578H493V588H457V664H447V588H326C319 588 313 588 307 588V664H297V587C193 582 166 544 166 457V260C166 174 191 137 297 132V55Z" glyph-name="colonsign" horiz-adv-x="628" unicode="&#8353;" /><glyph d="M259 170H125V160H249V51C249 -3 219 -30 171 -30H125V-40H171C225 -40 259 -10 259 51Z" glyph-name="comma" horiz-adv-x="384" unicode="," /><glyph d="M567 432H433V422H557V313C557 259 527 232 479 232H433V222H479C533 222 567 252 567 313Z" glyph-name="comma.v" horiz-adv-x="1000" unicode="&#57916;" /><glyph d="M309 -132H191V-142H299V-229C299 -283 274 -305 226 -305H191V-315H226C280 -315 309 -290 309 -229ZM250 747ZM250 0Z" glyph-name="commaaccent" horiz-adv-x="500" unicode="&#806;" /><glyph d="M435 -124V-134H557V-211C557 -258 531 -282 489 -282H435V-292H489C537 -292 567 -265 567 -211V-124Z" glyph-name="commaaccent.v" horiz-adv-x="1000" unicode="&#57895;" /><glyph d="M59 -132H-59V-142H49V-229C49 -283 24 -305 -24 -305H-59V-315H-24C30 -315 59 -290 59 -229ZM0 747ZM0 0Z" glyph-name="commaaccentcmb" horiz-adv-x="0" /><glyph d="M191 490H309V500H201V587C201 641 226 663 274 663H309V673H274C220 673 191 648 191 587Z" glyph-name="commaturnedmod" horiz-adv-x="500" unicode="&#699;" /><glyph d="M762 568C762 672 733 768 434 768C135 768 105 672 105 568V150C105 37 153 -48 434 -48C715 -48 762 47 762 150ZM434 -38C169 -38 115 41 115 150V568C115 668 149 758 434 758C719 758 752 668 752 568V150C752 51 699 -38 434 -38ZM551 173V183H430C346 183 323 206 323 267V468C323 530 347 553 430 553H551V562H430C340 562 313 537 313 468V267C313 199 338 173 430 173Z" glyph-name="copyright" horiz-adv-x="867" unicode="&#169;" /><glyph d="M658 110 666 116 571 213C584 234 588 260 588 290V432C588 463 584 490 570 512L664 608L656 614L564 520C541 551 495 569 413 569C331 569 285 551 261 521L170 614L162 608L255 513C241 491 237 463 237 432V290C237 260 241 234 254 212L160 116L168 110L260 204C283 173 329 154 413 154C497 154 542 173 566 204ZM413 164C277 164 247 214 247 290V432C247 509 277 559 413 559C548 559 578 509 578 432V290C578 214 548 164 413 164Z" glyph-name="currency" horiz-adv-x="821" unicode="&#164;" /><glyph d="M178 90H420C558 90 580 149 580 226V491C580 568 556 630 420 630H178ZM420 620C546 620 570 564 570 491V226C570 153 548 100 420 100H188V620Z" glyph-name="d" horiz-adv-x="746" unicode="d" /><glyph d="M354 90H364V438H578V448H364V620H354V448H140V438H354Z" glyph-name="dagger" horiz-adv-x="718" unicode="&#8224;" /><glyph d="M495 90H505V438H719V448H505V620H495V448H281V438H495Z" glyph-name="dagger.v" horiz-adv-x="1000" unicode="&#57920;" /><glyph d="M354 90H364V190H578V200H364V520H578V530H364V620H354V530H140V520H354V200H140V190H354Z" glyph-name="daggerdbl" horiz-adv-x="718" unicode="&#8225;" /><glyph d="M496 90H506V190H720V200H506V520H720V530H506V620H496V530H282V520H496V200H282V190H496Z" glyph-name="daggerdbl.v" horiz-adv-x="1000" unicode="&#57921;" /><glyph d="M178 90H420C558 90 580 149 580 226V491C580 568 556 630 420 630H178ZM420 620C546 620 570 564 570 491V226C570 153 548 100 420 100H188V620ZM253 879V868L336 841C348 838 357 835 372 835C387 835 396 838 408 841L491 868V879L404 851C394 848 385 845 372 845C359 845 350 848 340 851ZM373 747ZM373 0Z" glyph-name="dcaron" horiz-adv-x="746" unicode="&#271;" /><glyph d="M290 349V359H196V620H430C556 620 580 564 580 491V226C580 153 558 100 430 100H196V349ZM186 90H430C568 90 590 149 590 226V491C590 568 566 630 430 630H186V359H110V349H186Z" glyph-name="dcroat" horiz-adv-x="756" unicode="&#273;" /><glyph d="M178 90H420C558 90 580 149 580 226V491C580 568 556 630 420 630H178ZM420 620C546 620 570 564 570 491V226C570 153 548 100 420 100H188V620ZM378 -170V-111H368V-170ZM372 -253ZM372 -1000Z" glyph-name="ddotbelow" horiz-adv-x="746" unicode="&#7693;" /><glyph d="M370 581C370 639 341 661 242 661C144 661 114 639 114 581V452C114 394 144 373 242 373C341 373 370 394 370 452ZM242 383C154 383 124 400 124 452V581C124 633 154 651 242 651C331 651 360 633 360 581V452C360 400 331 383 242 383Z" glyph-name="degree" horiz-adv-x="483" unicode="&#176;" /><glyph d="M382 830V877H372V830ZM124 830V877H114V830ZM250 747ZM250 0Z" glyph-name="dieresis" horiz-adv-x="500" unicode="&#168;" /><glyph d="M135 -157V-110H125V-157ZM-123 -157V-110H-133V-157ZM3 -240ZM3 -987Z" glyph-name="dieresisbelowcmb" horiz-adv-x="0" unicode="&#804;" /><glyph d="M135 830V877H125V830ZM-123 830V877H-133V830ZM3 747ZM3 0Z" glyph-name="dieresiscmb" horiz-adv-x="0" unicode="&#776;" /><glyph d="M362 558H372V603H362ZM160 355H574V365H160ZM362 117H372V162H362Z" glyph-name="divide" horiz-adv-x="734" unicode="&#247;" /><glyph d="M178 90H420C558 90 580 149 580 226V491C580 568 556 630 420 630H178ZM420 620C546 620 570 564 570 491V226C570 153 548 100 420 100H188V620ZM248 -135V-145H487V-135ZM368 -235ZM368 -982Z" glyph-name="dlinebelow" horiz-adv-x="746" unicode="&#7695;" /><glyph d="M390 90C458 90 501 132 501 191V249C501 319 472 339 432 347L221 390C190 396 170 410 170 457V539C170 586 206 620 262 620H484V630H338V720H328V630H262C200 630 160 592 160 539V457C160 402 184 387 219 380L430 337C467 329 491 312 491 249V191C491 138 452 100 390 100H141V90H328V0H338V90Z" glyph-name="dollar" horiz-adv-x="650" unicode="$" /><glyph d="M307 72C428 73 487 111 487 184V580H579V590H487V630H477V590H323V580H477V395H259C171 395 133 349 133 274V189C133 114 186 71 307 72ZM307 82C196 81 143 118 143 189V274C143 343 179 385 259 385H477V184C477 115 418 83 307 82ZM439 -105H179V-115H439Z" glyph-name="dong" horiz-adv-x="682" unicode="&#8363;" /><glyph d="M256 830V889H246V830ZM250 747ZM250 0Z" glyph-name="dotaccent" horiz-adv-x="500" unicode="&#729;" /><glyph d="M5 830V889H-5V830ZM-1 747ZM-1 0Z" glyph-name="dotaccentcmb" horiz-adv-x="0" unicode="&#775;" /><glyph d="M5 -170V-111H-5V-170ZM-1 -253ZM-1 -1000Z" glyph-name="dotbelowcmb" horiz-adv-x="0" unicode="&#803;" /><glyph d="M461 90V100H308V620H461V630H143V620H298V100H143V90Z" glyph-name="dotlessi" horiz-adv-x="605" unicode="&#305;" /><glyph d="M504 630V213C504 138 465 88 333 88C195 88 155 137 155 213V292H145V213C145 133 183 78 333 78C475 78 514 134 514 213V630Z" glyph-name="dotlessj" horiz-adv-x="688" unicode="&#567;" /><glyph d="M515 100H188V359H434V369H188V620H515V630H178V90H515Z" glyph-name="e" horiz-adv-x="654" unicode="e" /><glyph d="M515 100H188V359H434V369H188V620H515V630H178V90H515ZM237 847V837L476 867V877ZM357 747ZM357 0Z" glyph-name="eacute" horiz-adv-x="654" unicode="&#233;" /><glyph d="M515 100H188V359H434V369H188V620H515V630H178V90H515ZM481 907V898C481 862 454 828 346 828C238 828 216 862 216 898V907H206V898C206 860 222 818 346 818C470 818 491 860 491 898V907ZM347 747ZM347 0Z" glyph-name="ebreve" horiz-adv-x="654" unicode="&#277;" /><glyph d="M515 100H188V359H434V369H188V620H515V630H178V90H515ZM224 879V868L307 841C319 838 328 835 343 835C358 835 367 838 379 841L462 868V879L375 851C365 848 356 845 343 845C330 845 321 848 311 851ZM344 747ZM344 0Z" glyph-name="ecaron" horiz-adv-x="654" unicode="&#283;" /><glyph d="M515 100H188V359H434V369H188V620H515V630H178V90H515ZM455 850V861L372 888C360 891 351 894 336 894C321 894 312 891 300 888L217 861V850L304 878C314 881 323 884 336 884C349 884 358 881 368 878ZM337 747ZM337 0Z" glyph-name="ecircumflex" horiz-adv-x="654" unicode="&#234;" /><glyph d="M515 100H188V359H434V369H188V620H515V630H178V90H515ZM455 850V861L372 888C360 891 351 894 336 894C321 894 312 891 300 888L217 861V850L304 878C314 881 323 884 336 884C349 884 358 881 368 878ZM337 747ZM337 0ZM525 1104V1114L438 1093V1083Z" glyph-name="ecircumflexacute" horiz-adv-x="654" unicode="&#7871;" /><glyph d="M515 100H188V359H434V369H188V620H515V630H178V90H515ZM455 850V861L372 888C360 891 351 894 336 894C321 894 312 891 300 888L217 861V850L304 878C314 881 323 884 336 884C349 884 358 881 368 878ZM337 747ZM337 0ZM332 -170V-111H322V-170ZM326 -253ZM326 -1000Z" glyph-name="ecircumflexdotbelow" horiz-adv-x="654" unicode="&#7879;" /><glyph d="M515 100H188V359H434V369H188V620H515V630H178V90H515ZM455 850V861L372 888C360 891 351 894 336 894C321 894 312 891 300 888L217 861V850L304 878C314 881 323 884 336 884C349 884 358 881 368 878ZM337 747ZM337 0ZM505 1068 418 1089V1079L505 1058Z" glyph-name="ecircumflexgrave" horiz-adv-x="654" unicode="&#7873;" /><glyph d="M515 100H188V359H434V369H188V620H515V630H178V90H515ZM455 850V861L372 888C360 891 351 894 336 894C321 894 312 891 300 888L217 861V850L304 878C314 881 323 884 336 884C349 884 358 881 368 878ZM337 747ZM337 0ZM474 1029 571 1044C592 1047 612 1057 612 1095V1145C612 1184 587 1194 562 1194H426V1184H562C582 1184 602 1176 602 1145V1095C602 1067 589 1056 569 1053L473 1039Z" glyph-name="ecircumflexhookabove" horiz-adv-x="654" unicode="&#7875;" /><glyph d="M515 100H188V359H434V369H188V620H515V630H178V90H515ZM455 850V861L372 888C360 891 351 894 336 894C321 894 312 891 300 888L217 861V850L304 878C314 881 323 884 336 884C349 884 358 881 368 878ZM337 747ZM337 0ZM455 1091C428 1088 404 1091 353 1099L337 1101L309 1105C264 1111 240 1113 217 1110V1099C239 1103 263 1102 307 1095L335 1091L351 1089C402 1081 428 1078 455 1081ZM337 997ZM337 250Z" glyph-name="ecircumflextilde" horiz-adv-x="654" unicode="&#7877;" /><glyph d="M515 100H188V359H434V369H188V620H515V630H178V90H515ZM479 830V877H469V830ZM221 830V877H211V830ZM347 747ZM347 0Z" glyph-name="edieresis" horiz-adv-x="654" unicode="&#235;" /><glyph d="M515 100H188V359H434V369H188V620H515V630H178V90H515ZM331 830V889H321V830ZM325 747ZM325 0Z" glyph-name="edotaccent" horiz-adv-x="654" unicode="&#279;" /><glyph d="M515 100H188V359H434V369H188V620H515V630H178V90H515ZM345 -170V-111H335V-170ZM339 -253ZM339 -1000Z" glyph-name="edotbelow" horiz-adv-x="654" unicode="&#7865;" /><glyph d="M515 100H188V359H434V369H188V620H515V630H178V90H515ZM207 867 446 837V847L207 877ZM327 747ZM327 0Z" glyph-name="egrave" horiz-adv-x="654" unicode="&#232;" /><glyph d="M515 100H188V359H434V369H188V620H515V630H178V90H515ZM293 805 390 820C411 823 431 833 431 871V921C431 960 406 970 381 970H245V960H381C401 960 421 952 421 921V871C421 843 408 832 388 829L292 815Z" glyph-name="ehookabove" horiz-adv-x="654" unicode="&#7867;" /><glyph d="M356 67C517 67 558 111 558 173V266C558 317 529 356 432 369C496 380 522 408 522 455V550C522 620 473 652 356 652C239 652 189 620 189 558V455C189 408 216 380 280 369C183 356 153 316 153 265V173C153 111 195 67 356 67ZM199 558C199 616 251 642 356 642C461 642 512 616 512 550V455C512 397 462 374 356 374C250 374 199 397 199 455ZM163 265C163 323 212 364 356 364C500 364 548 324 548 266V173C548 115 501 77 356 77C211 77 163 115 163 173Z" glyph-name="eight" horiz-adv-x="711" unicode="8" /><glyph d="M269 48C385 48 415 81 415 124V190C415 227 394 256 320 264C369 272 389 291 389 325V393C389 442 354 465 269 465C184 465 148 441 148 398V325C148 291 168 271 217 264C144 255 122 226 122 189V124C122 81 153 48 269 48ZM156 398C156 439 194 457 269 457C344 457 381 438 381 393V325C381 283 345 268 269 268C192 268 156 283 156 325ZM130 189C130 232 166 260 269 260C372 260 407 232 407 190V124C407 83 373 56 269 56C165 56 130 83 130 124Z" glyph-name="eight.sinf" horiz-adv-x="538.08" unicode="&#8328;" /><glyph d="M269 250C385 250 415 283 415 326V392C415 429 394 458 320 466C369 474 389 493 389 527V595C389 644 354 667 269 667C184 667 148 643 148 600V527C148 493 168 473 217 466C144 457 122 428 122 391V326C122 283 153 250 269 250ZM156 600C156 641 194 659 269 659C344 659 381 640 381 595V527C381 485 345 470 269 470C192 470 156 485 156 527ZM130 391C130 434 166 462 269 462C372 462 407 434 407 392V326C407 285 373 258 269 258C165 258 130 285 130 326Z" glyph-name="eight.sups" horiz-adv-x="538" unicode="&#8312;" /><glyph d="M501 67C660 67 700 111 700 173V266C700 316 672 356 577 369C641 380 667 408 667 455V550C667 620 618 652 501 652C384 652 334 620 334 558V455C334 408 361 380 425 369C330 356 301 315 301 265V173C301 111 342 67 501 67ZM344 558C344 616 396 642 501 642C606 642 657 616 657 550V455C657 397 607 374 501 374C395 374 344 397 344 455ZM311 265C311 323 359 364 501 364C643 364 690 324 690 266V173C690 115 644 77 501 77C358 77 311 115 311 173Z" glyph-name="eight.v" horiz-adv-x="1000" unicode="&#65304;" /><glyph d="M187 90H197V185H187ZM550 90H560V185H550ZM913 90H923V185H913Z" glyph-name="ellipsis" horiz-adv-x="1110" unicode="&#8230;" /><glyph d="M132 312H142V407H132ZM495 312H505V407H495ZM858 312H868V407H858Z" glyph-name="ellipsis.v" horiz-adv-x="1000" unicode="&#57917;" /><glyph d="M515 100H188V359H434V369H188V620H515V630H178V90H515ZM217 847V837H456V847ZM337 747ZM337 0Z" glyph-name="emacron" horiz-adv-x="654" unicode="&#275;" /><glyph d="M974 365H160V355H974Z" glyph-name="emdash" horiz-adv-x="1134" unicode="&#8212;" /><glyph d="M506 -47V767H496V-47Z" glyph-name="emdash.v" horiz-adv-x="1000" unicode="&#57898;" /><glyph glyph-name="emspace" horiz-adv-x="1000" unicode="&#8193;" /><glyph d="M574 365H160V355H574Z" glyph-name="endash" horiz-adv-x="734" unicode="&#8211;" /><glyph d="M506 153V567H496V153Z" glyph-name="endash.v" horiz-adv-x="1000" unicode="&#57897;" /><glyph d="M445 1C537 1 572 30 572 100V507C572 588 529 642 372 642C215 642 171 588 171 507V90H181V507C181 582 223 632 372 632C521 632 562 582 562 507V100C562 36 527 11 445 11Z" glyph-name="eng" horiz-adv-x="746" unicode="&#331;" /><glyph glyph-name="enspace" horiz-adv-x="500" unicode="&#8192;" /><glyph d="M515 -106H491C450 -106 445 -83 450 -43L462 42C466 71 470 76 495 90H515V100H188V359H434V369H188V620H515V630H178V90H476C460 78 456 68 452 42L440 -41C432 -91 442 -116 491 -116H515Z" glyph-name="eogonek" horiz-adv-x="654" unicode="&#281;" /><glyph d="M160 505H574V515H160ZM160 205H574V215H160Z" glyph-name="equal" horiz-adv-x="734" unicode="=" /><glyph d="M167 360H557V507C557 599 520 636 356 636C194 636 157 599 157 507V227C157 132 191 94 326 94H499V104H326C201 104 167 138 167 227ZM167 370V507C167 595 206 626 356 626C508 626 547 595 547 507V370Z" glyph-name="estimated" horiz-adv-x="715" unicode="&#8494;" /><glyph d="M290 349V359H196V620H430C556 620 580 564 580 491V226C580 153 558 100 430 100H196V349ZM186 90H430C568 90 590 149 590 226V491C590 568 566 630 430 630H186V359H110V349H186Z" glyph-name="eth" horiz-adv-x="756" unicode="&#240;" /><glyph d="M515 100H188V359H434V369H188V620H515V630H178V90H515ZM455 841C428 838 404 841 353 849L337 851L309 855C264 861 240 863 217 860V849C239 853 263 852 307 845L335 841L351 839C402 831 428 828 455 831ZM337 747ZM337 0Z" glyph-name="etilde" horiz-adv-x="654" unicode="&#7869;" /><glyph d="M207 630V352H217V630ZM217 80V123H207V80Z" glyph-name="exclam" horiz-adv-x="424" unicode="!" /><glyph d="M496 630V352H506V630ZM506 80V123H496V80Z" glyph-name="exclam.v" horiz-adv-x="1000" unicode="&#65281;" /><glyph d="M207 640V597H217V640ZM217 90V368H207V90Z" glyph-name="exclamdown" horiz-adv-x="423" unicode="&#161;" /><glyph d="M496 640V597H506V640ZM506 90V368H496V90Z" glyph-name="exclamdown.v" horiz-adv-x="1000" unicode="&#57918;" /><glyph d="M178 90H188V324H416V334H188V620H497V630H178Z" glyph-name="f" horiz-adv-x="618" unicode="f" /><glyph d="M178 90H188V324H416V334H188V620H497V630H178ZM1079 90V100H926V620H1079V630H761V620H916V100H761V90Z" glyph-name="fi" horiz-adv-x="1223" /><glyph d="M574 365H160V355H574Z" glyph-name="figuredash" horiz-adv-x="734" unicode="&#8210;" /><glyph d="M130 847V837H369V847ZM250 747ZM250 0Z" glyph-name="firsttonechinese" horiz-adv-x="500" unicode="&#713;" /><glyph d="M145 90H381C464 90 495 120 495 188V276C495 345 460 374 390 374H184V620H478V630H174V364H390C452 364 485 339 485 276V188C485 126 456 100 381 100H145Z" glyph-name="five" horiz-adv-x="647" unicode="5" /><glyph d="M119 64H290C350 64 372 86 372 135V198C372 249 346 269 295 269H147V445H359V453H139V261H295C340 261 364 243 364 198V135C364 90 344 72 290 72H119Z" glyph-name="five.sinf" horiz-adv-x="492.88" unicode="&#8325;" /><glyph d="M119 266H290C350 266 372 288 372 337V400C372 451 346 471 295 471H147V647H359V655H139V463H295C340 463 364 445 364 400V337C364 292 344 274 290 274H119Z" glyph-name="five.sups" horiz-adv-x="493" unicode="&#8309;" /><glyph d="M290 90H579C662 90 693 120 693 188V276C693 345 658 374 588 374H329V620H676V630H319V364H588C650 364 683 339 683 276V188C683 126 654 100 579 100H290Z" glyph-name="five.v" horiz-adv-x="1000" unicode="&#65301;" /><glyph d="M119 266H290C350 266 372 288 372 337V400C372 451 346 471 295 471H147V647H359V655H139V463H295C340 463 364 445 364 400V337C364 292 344 274 290 274H119ZM934 48C1050 48 1080 81 1080 124V190C1080 227 1059 256 985 264C1034 272 1054 291 1054 325V393C1054 442 1019 465 934 465C849 465 813 441 813 398V325C813 291 833 271 882 264C809 255 787 226 787 189V124C787 81 818 48 934 48ZM821 398C821 439 859 457 934 457C1009 457 1046 438 1046 393V325C1046 283 1010 268 934 268C857 268 821 283 821 325ZM795 189C795 232 831 260 934 260C1037 260 1072 232 1072 190V124C1072 83 1038 56 934 56C830 56 795 83 795 124ZM554 90 654 630H644L544 90Z" glyph-name="fiveeighths" horiz-adv-x="1203" unicode="&#8541;" /><glyph d="M178 90H188V324H416V334H188V620H497V630H178ZM796 90H1164V297H1154V100H806V630H796Z" glyph-name="fl" horiz-adv-x="1313" /><glyph d="M135 90H145C263 90 292 112 292 224V354H439V364H292V509C292 595 340 620 419 620H439V630H419C332 630 282 601 282 509V364H135V354H282V224C282 120 256 100 145 100H135Z" glyph-name="florin" horiz-adv-x="574" unicode="&#402;" /><glyph d="M522 90H532V630H522V277H283C214 277 182 308 182 372V630H172V372C172 302 206 267 283 267H522Z" glyph-name="four" horiz-adv-x="709" unicode="4" /><glyph d="M372 64H382V453H372V200H201C153 200 130 222 130 267V453H120V267C120 216 145 191 201 191H372Z" glyph-name="four.sinf" horiz-adv-x="520" unicode="&#8324;" /><glyph d="M372 266H382V655H372V402H201C153 402 130 424 130 469V655H120V469C120 418 145 393 201 393H372Z" glyph-name="four.sups" horiz-adv-x="508" /><glyph d="M682 90H692V630H682V277H420C351 277 319 308 319 372V630H309V372C309 302 343 267 420 267H682Z" glyph-name="four.v" horiz-adv-x="1000" unicode="&#65300;" /><glyph d="M372 266H382V655H372V402H201C153 402 130 424 130 469V655H120V469C120 418 145 393 201 393H372Z" glyph-name="foursuperior" horiz-adv-x="508" unicode="&#8308;" /><glyph d="M130 867 369 837V847L130 877ZM250 747ZM250 0Z" glyph-name="fourthtonechinese" horiz-adv-x="500" unicode="&#715;" /><glyph d="M114 90 214 630H204L104 90Z" glyph-name="fraction" horiz-adv-x="317" unicode="&#8260;" /><glyph d="M347 90H546V291H536V100H347C212 100 177 132 177 219V499C177 588 209 620 327 620H500V630H327C199 630 167 594 167 499V219C167 126 200 90 347 90Z" glyph-name="g" horiz-adv-x="708" unicode="g" /><glyph d="M347 90H546V291H536V100H347C212 100 177 132 177 219V499C177 588 209 620 327 620H500V630H327C199 630 167 594 167 499V219C167 126 200 90 347 90ZM508 907V898C508 862 481 828 373 828C265 828 243 862 243 898V907H233V898C233 860 249 818 373 818C497 818 518 860 518 898V907ZM374 747ZM374 0Z" glyph-name="gbreve" horiz-adv-x="708" unicode="&#287;" /><glyph d="M347 90H546V291H536V100H347C212 100 177 132 177 219V499C177 588 209 620 327 620H500V630H327C199 630 167 594 167 499V219C167 126 200 90 347 90ZM235 879V868L318 841C330 838 339 835 354 835C369 835 378 838 390 841L473 868V879L386 851C376 848 367 845 354 845C341 845 332 848 322 851ZM355 747ZM355 0Z" glyph-name="gcaron" horiz-adv-x="708" unicode="&#487;" /><glyph d="M347 90H546V291H536V100H347C212 100 177 132 177 219V499C177 588 209 620 327 620H500V630H327C199 630 167 594 167 499V219C167 126 200 90 347 90ZM499 850V861L416 888C404 891 395 894 380 894C365 894 356 891 344 888L261 861V850L348 878C358 881 367 884 380 884C393 884 402 881 412 878ZM381 747ZM381 0Z" glyph-name="gcircumflex" horiz-adv-x="708" unicode="&#285;" /><glyph d="M347 90H546V291H536V100H347C212 100 177 132 177 219V499C177 588 209 620 327 620H500V630H327C199 630 167 594 167 499V219C167 126 200 90 347 90ZM433 -132H315V-142H423V-229C423 -283 398 -305 350 -305H315V-315H350C404 -315 433 -290 433 -229ZM374 747ZM374 0Z" glyph-name="gcommaaccent" horiz-adv-x="708" unicode="&#291;" /><glyph d="M347 90H546V291H536V100H347C212 100 177 132 177 219V499C177 588 209 620 327 620H500V630H327C199 630 167 594 167 499V219C167 126 200 90 347 90ZM380 830V889H370V830ZM374 747ZM374 0Z" glyph-name="gdotaccent" horiz-adv-x="708" unicode="&#289;" /><glyph d="M193 90V620H431C492 620 513 585 495 520L451 364H511C573 364 606 339 606 276V188C606 126 577 100 502 100H446V90H502C585 90 616 120 616 188V276C616 345 581 374 511 374H465L505 518C525 593 500 630 431 630H183V90Z" glyph-name="germandbls" horiz-adv-x="759" unicode="&#223;" /><glyph d="M347 90H546V291H536V100H347C212 100 177 132 177 219V499C177 588 209 620 327 620H500V630H327C199 630 167 594 167 499V219C167 126 200 90 347 90ZM261 847V837H500V847ZM381 747ZM381 0Z" glyph-name="gmacron" horiz-adv-x="708" unicode="&#7713;" /><glyph d="M130 867 369 837V847L130 877ZM250 747ZM250 0Z" glyph-name="grave" horiz-adv-x="500" unicode="`" /><glyph d="M43 1108 -44 1129V1119L43 1098Z" glyph-name="grave.vert" horiz-adv-x="0" /><glyph d="M-120 867 119 837V847L-120 877ZM0 747ZM0 0Z" glyph-name="gravecmb" horiz-adv-x="0" unicode="&#768;" /><glyph d="M480 252C514 262 538 279 538 323V395C538 439 514 453 480 463L180 549V539L478 453C506 445 528 433 528 395V323C528 285 506 270 478 262L180 176V166Z" glyph-name="greater" horiz-adv-x="714" unicode="&gt;" /><glyph d="M480 322C514 332 538 349 538 393V465C538 509 514 523 480 533L180 619V609L478 523C506 515 528 503 528 465V393C528 355 506 340 478 332L180 246V236ZM180 90H538V100H180Z" glyph-name="greaterequal" horiz-adv-x="714" unicode="&#8805;" /><glyph d="M548 310H358C256 310 168 311 168 408V519C168 614 255 625 361 625C462 625 548 616 548 519ZM548 300V144C548 61 501 39 424 39H216V29H424C509 29 558 55 558 144V519C558 622 472 635 361 635C246 635 158 620 158 519V408C158 305 245 300 358 300Z" glyph-name="gscript" horiz-adv-x="715" unicode="&#609;" /><glyph d="M358 40H368V125H531V281L521 284V138L342 135C207 133 172 167 172 254V464C172 553 204 585 322 585H495V595H368V680H358V595H322C194 595 162 559 162 464V254C162 161 195 125 342 125H358Z" glyph-name="guarani" horiz-adv-x="688" unicode="&#8370;" /><glyph d="M204 251C174 260 151 271 151 312V386C151 427 174 437 205 447L302 477V487L203 457C166 446 141 433 141 386V312C141 265 166 251 202 241L302 212V222ZM573 457C536 446 511 433 511 386V312C511 265 536 251 572 241L672 212V222L574 251C544 259 521 271 521 312V386C521 427 544 438 575 447L672 477V487Z" glyph-name="guillemotleft" horiz-adv-x="812" unicode="&#171;" /><glyph d="M403 562C412 592 423 615 464 615H538C579 615 589 592 599 561L629 464H639L609 563C598 600 585 625 538 625H464C417 625 403 600 393 564L364 464H374ZM609 193C598 230 585 255 538 255H464C417 255 403 230 393 194L364 94H374L403 192C411 222 423 245 464 245H538C579 245 590 222 599 191L629 94H639Z" glyph-name="guillemotleft.v" horiz-adv-x="1000" unicode="&#57913;" /><glyph d="M140 477 237 447C268 438 291 427 291 386V312C291 271 268 259 238 251L140 222V212L240 241C276 251 301 265 301 312V386C301 433 276 446 239 457L140 487ZM510 212 610 241C646 251 671 265 671 312V386C671 433 646 446 609 457L510 487V477L607 447C638 437 661 427 661 386V312C661 271 638 260 608 251L510 222Z" glyph-name="guillemotright" horiz-adv-x="812" unicode="&#187;" /><glyph d="M629 626 599 529C590 498 579 475 538 475H464C423 475 411 498 403 528L374 626H364L393 526C403 490 417 465 464 465H538C585 465 598 490 609 527L639 626ZM364 256 393 156C403 120 417 95 464 95H538C585 95 598 120 609 157L639 256H629L599 159C589 128 579 105 538 105H464C423 105 412 128 403 158L374 256Z" glyph-name="guillemotright.v" horiz-adv-x="1000" unicode="&#57914;" /><glyph d="M215 256C185 262 170 276 170 310V388C170 422 185 436 214 442L400 480V490L212 452C177 445 160 428 160 388V310C160 270 177 253 213 246L400 208V218Z" glyph-name="guilsinglleft" horiz-adv-x="563" unicode="&#8249;" /><glyph d="M407 426C413 456 427 471 461 471H539C573 471 587 456 593 427L631 241H641L603 429C596 464 579 481 539 481H461C421 481 404 464 397 428L359 241H369Z" glyph-name="guilsinglleft.v" horiz-adv-x="1000" unicode="&#57911;" /><glyph d="M170 208 357 246C393 253 410 270 410 310V388C410 428 393 445 358 452L170 490V480L356 442C385 436 400 422 400 388V310C400 276 385 262 355 256L170 218Z" glyph-name="guilsinglright" horiz-adv-x="563" unicode="&#8250;" /><glyph d="M359 478 397 291C404 255 421 238 461 238H539C579 238 596 255 603 290L641 478H631L593 292C587 263 573 248 539 248H461C427 248 413 263 407 293L369 478Z" glyph-name="guilsinglright.v" horiz-adv-x="1000" unicode="&#57912;" /><glyph d="M177 90H187V355H571V90H581V630H571V365H187V630H177Z" glyph-name="h" horiz-adv-x="759" unicode="h" /><glyph d="M583 504V252H196V504ZM186 90H196V242H583V90H593V504H659V514H593V630H583V514H196V630H186V514H120V504H186Z" glyph-name="hbar" horiz-adv-x="779" unicode="&#295;" /><glyph d="M177 90H187V355H571V90H581V630H571V365H187V630H177ZM514 -113V-122C514 -158 487 -192 379 -192C271 -192 249 -158 249 -122V-113H239V-122C239 -160 255 -202 379 -202C503 -202 524 -160 524 -122V-113ZM380 -273ZM380 -1020Z" glyph-name="hbrevebelow" horiz-adv-x="759" unicode="&#7723;" /><glyph d="M177 90H187V355H571V90H581V630H571V365H187V630H177ZM497 850V861L414 888C402 891 393 894 378 894C363 894 354 891 342 888L259 861V850L346 878C356 881 365 884 378 884C391 884 400 881 410 878ZM379 747ZM379 0Z" glyph-name="hcircumflex" horiz-adv-x="759" unicode="&#293;" /><glyph d="M177 90H187V355H571V90H581V630H571V365H187V630H177ZM385 -170V-111H375V-170ZM379 -253ZM379 -1000Z" glyph-name="hdotbelow" horiz-adv-x="759" unicode="&#7717;" /><glyph d="M-17 805 80 820C101 823 121 833 121 871V921C121 960 96 970 71 970H-65V960H71C91 960 111 952 111 921V871C111 843 98 832 78 829L-18 815Z" glyph-name="hookcmb" horiz-adv-x="0" unicode="&#777;" /><glyph d="M974 365H160V355H974Z" glyph-name="horizontalbar" horiz-adv-x="1134" unicode="&#8213;" /><glyph d="M-99 632C-19 632 6 680 6 724V733H-4V724C-4 682 -33 642 -99 642Z" glyph-name="horncmb" horiz-adv-x="0" unicode="&#795;" /><glyph d="M102 850 127 947H116L91 850ZM362 850 387 947H376L351 850Z" glyph-name="hungarumlaut" horiz-adv-x="500" unicode="&#733;" /><glyph d="M-108 850 -83 947H-94L-119 850ZM152 850 177 947H166L141 850Z" glyph-name="hungarumlautcmb" horiz-adv-x="0" unicode="&#779;" /><glyph d="M290 365H130V355H290Z" glyph-name="hyphen" horiz-adv-x="420" unicode="-" /><glyph d="M506 280V440H496V280Z" glyph-name="hyphen.v" horiz-adv-x="1000" unicode="&#57896;" /><glyph d="M461 90V100H308V620H461V630H143V620H298V100H143V90Z" glyph-name="i" horiz-adv-x="605" unicode="i" /></font>
</defs>
</svg>
