<?xml version="1.0" standalone="no"?><!DOCTYPE svg PUBLIC "-//W3C//DTD SVG 1.1//EN" "http://www.w3.org/Graphics/SVG/1.1/DTD/svg11.dtd" ><svg version="1.1" xmlns="http://www.w3.org/2000/svg"><defs><font horiz-adv-x="0" id="font"><font-face ascent="860" bbox="-30.1429 -260 1674 870" cap-height="720" descent="-140" font-family="Bungee Layers Rotated" font-stretch="normal" font-style="normal" font-weight="700" units-per-em="1000" x-height="500" /><missing-glyph d="M939 595V-133Q939 -157 928 -168Q917 -179 893 -179H165Q152 -179 143 -175.5Q134 -172 128 -165L19 -36Q15 -31 12.5 -22.5Q10 -14 10 -4V724Q10 748 21 759Q32 770 56 770H784Q797 770 806 766.5Q815 763 821 756L929 626Q933 622 936 613.5Q939 605 939 595ZM189 571V20H760V571Z" horiz-adv-x="840" /><glyph d="M783 274 891 144Q895 140 898 131.5Q901 123 901 113V-34Q901 -59 890 -69.5Q879 -80 855 -80H591Q565 -80 546.5 -78Q528 -76 511.5 -71.5Q495 -67 476 -59Q457 -51 428 -40L201 36Q192 39 184.5 43.5Q177 48 173 54L64 184Q58 191 55 202Q52 213 52 226V485Q52 508 60.5 522.5Q69 537 91 544L318 631Q347 642 366.5 650Q386 658 402.5 662.5Q419 667 437.5 669Q456 671 482 671H746Q759 671 768 667.5Q777 664 783 657L891 527Q895 523 898 514.5Q901 506 901 496V345Q901 321 889.5 308.5Q878 296 855 296H725V288H746Q759 288 768 284.5Q777 281 783 274Z" glyph-name="A" horiz-adv-x="849" unicode="A" /><glyph d="M743 276 851 146Q855 142 858 133.5Q861 125 861 115V-32Q861 -57 850 -67.5Q839 -78 815 -78H571Q545 -78 526.5 -76Q508 -74 491.5 -69.5Q475 -65 456 -57Q437 -49 408 -38L201 38Q192 41 184.5 45.5Q177 50 173 56L64 186Q58 193 55 204Q52 215 52 228V487Q52 510 60.5 524.5Q69 539 91 546L298 633Q327 644 346.5 652Q366 660 382.5 664.5Q399 669 417.5 671Q436 673 462 673H706Q719 673 728 669.5Q737 666 743 659L851 529Q855 525 858 516.5Q861 508 861 498V347Q861 323 849.5 310.5Q838 298 815 298H705V290H706Q719 290 728 286.5Q737 283 743 276Z" glyph-name="A.s" horiz-adv-x="809" /><glyph d="M912 -33Q912 -57 900.5 -68Q889 -79 865 -79H370Q323 -79 283 -66.5Q243 -54 215 -20L107 109Q79 143 63 203Q47 263 47 359Q47 456 63 517.5Q79 579 107 612.5Q135 646 174.5 658Q214 670 261 670H756Q769 670 778.5 666Q788 662 794 655L902 526Q906 521 909 513Q912 505 912 495V345Q912 321 900.5 310Q889 299 865 299H726V289H756Q769 289 778.5 285Q788 281 794 274L902 145Q906 140 909 132Q912 124 912 114ZM404 299Q397 299 390 297Q383 295 379 289H414V299Z" glyph-name="A.salt" horiz-adv-x="860" unicode="&#57600;" /><glyph d="M753 274 861 144Q865 140 868 131.5Q871 123 871 113V-34Q871 -58 860 -69Q849 -80 825 -80H370Q323 -80 283.5 -67.5Q244 -55 216 -21L107 108Q79 142 63 202Q47 262 47 359Q47 456 63 517.5Q79 579 107 613Q135 647 174.5 659Q214 671 261 671H716Q729 671 738 667.5Q747 664 753 657L861 527Q865 523 868 514.5Q871 506 871 496V344Q871 320 860 309Q849 298 825 298H706V288H716Q729 288 738 284.5Q747 281 753 274ZM384 298Q377 298 370 296Q363 294 359 288H394V298Z" glyph-name="A.salt_s" horiz-adv-x="819" /><glyph d="M824 191 901 98Q905 94 908 85.5Q911 77 911 67V-64Q911 -88 900 -99Q889 -110 865 -110H611Q566 -110 531 -102.5Q496 -95 457 -80L219 15Q206 18 198 23.5Q190 29 185 36L77 164Q69 173 65.5 185.5Q62 198 62 215V635Q62 659 73 670Q84 681 108 681H225Q238 681 247 677.5Q256 674 262 667L328 588V634Q328 658 338.5 669Q349 680 374 680H481Q494 680 503 676.5Q512 673 518 666L593 577V635Q593 659 604 670Q615 681 639 681H756Q769 681 778 677.5Q787 674 793 667L901 537Q905 533 908 524.5Q911 516 911 506V237Q911 213 900 202Q889 191 865 191Z" glyph-name="AE" horiz-adv-x="872" unicode="&#198;" /><glyph d="M824 201 901 108Q905 104 908 95.5Q911 87 911 77V-54Q911 -78 900 -89Q889 -100 865 -100H385Q335 -100 293.5 -86Q252 -72 224 -38L115 91Q90 121 76 169.5Q62 218 62 289V645Q62 669 73 680Q84 691 108 691H225Q238 691 247 687.5Q256 684 262 677L328 598V644Q328 668 338.5 679Q349 690 374 690H481Q494 690 503 686.5Q512 683 518 676L593 587V645Q593 669 604 680Q615 691 639 691H756Q769 691 778 687.5Q787 684 793 677L901 547Q905 543 908 534.5Q911 526 911 516V247Q911 223 900 212Q889 201 865 201Z" glyph-name="AE.salt" horiz-adv-x="872" unicode="&#57653;" /><glyph d="M949 276 1057 146Q1061 142 1064 133.5Q1067 125 1067 115V-32Q1067 -57 1056 -67.5Q1045 -78 1021 -78H777Q751 -78 732.5 -76Q714 -74 697.5 -69.5Q681 -65 662 -57Q643 -49 614 -38L407 38Q398 41 390.5 45.5Q383 50 379 56L270 186Q264 193 261 204Q258 215 258 228V487Q258 510 266.5 524.5Q275 539 297 546L504 633Q533 644 552.5 652Q572 660 588.5 664.5Q605 669 623.5 671Q642 673 668 673H912Q925 673 934 669.5Q943 666 949 659L1057 529Q1061 525 1064 516.5Q1067 508 1067 498V347Q1067 323 1055.5 310.5Q1044 298 1021 298H911V290H912Q925 290 934 286.5Q943 283 949 276ZM354 56Q357 34 345.5 22.5Q334 11 311 11H215Q202 11 193.5 14.5Q185 18 180 24L71 154Q67 158 64 166.5Q61 175 60 185L17 534Q14 556 25.5 567.5Q37 579 60 579H156Q169 579 178 575.5Q187 572 191 565L300 436Q304 431 306.5 423Q309 415 311 405Z" glyph-name="Aacute" horiz-adv-x="1015" unicode="&#193;" /><glyph d="M949 274 1057 144Q1061 140 1064 131.5Q1067 123 1067 113V-34Q1067 -58 1056 -69Q1045 -80 1021 -80H566Q519 -80 479.5 -67.5Q440 -55 412 -21L303 108Q275 142 259 202Q243 262 243 359Q243 456 259 517.5Q275 579 303 613Q331 647 370.5 659Q410 671 457 671H912Q925 671 934 667.5Q943 664 949 657L1057 527Q1061 523 1064 514.5Q1067 506 1067 496V344Q1067 320 1056 309Q1045 298 1021 298H902V288H912Q925 288 934 284.5Q943 281 949 274ZM580 298Q573 298 566 296Q559 294 555 288H590V298ZM354 56Q357 34 345.5 22.5Q334 11 311 11H215Q202 11 193.5 14.5Q185 18 180 24L71 154Q67 158 64 166.5Q61 175 60 185L17 534Q14 556 25.5 567.5Q37 579 60 579H156Q169 579 178 575.5Q187 572 191 565L300 436Q304 431 306.5 423Q309 415 311 405Z" glyph-name="Aacute.salt" horiz-adv-x="1015" unicode="&#57602;" /><glyph d="M369 231Q369 162 357.5 117.5Q346 73 326 48Q306 23 277.5 13.5Q249 4 216 4H172Q159 4 150 7.5Q141 11 135 18L26 147Q22 152 19.5 160.5Q17 169 17 179V275Q17 296 25.5 305Q34 314 58 314H79Q86 314 91.5 318Q97 322 99 332L24 422L25 421Q21 425 19 432Q17 439 17 450V541Q17 565 28 576Q39 587 63 587H107Q140 587 168 577.5Q196 568 216 543L324 414Q345 389 357 345Q369 301 369 231ZM965 276 1073 146Q1077 142 1080 133.5Q1083 125 1083 115V-32Q1083 -57 1072 -67.5Q1061 -78 1037 -78H793Q767 -78 748.5 -76Q730 -74 713.5 -69.5Q697 -65 678 -57Q659 -49 630 -38L423 38Q414 41 406.5 45.5Q399 50 395 56L286 186Q280 193 277 204Q274 215 274 228V487Q274 510 282.5 524.5Q291 539 313 546L520 633Q549 644 568.5 652Q588 660 604.5 664.5Q621 669 639.5 671Q658 673 684 673H928Q941 673 950 669.5Q959 666 965 659L1073 529Q1077 525 1080 516.5Q1083 508 1083 498V347Q1083 323 1071.5 310.5Q1060 298 1037 298H927V290H928Q941 290 950 286.5Q959 283 965 276Z" glyph-name="Abreve" horiz-adv-x="1031" unicode="&#258;" /><glyph d="M369 231Q369 162 357.5 117.5Q346 73 326 48Q306 23 277.5 13.5Q249 4 216 4H172Q159 4 150 7.5Q141 11 135 18L26 147Q22 152 19.5 160.5Q17 169 17 179V275Q17 296 25.5 305Q34 314 58 314H79Q86 314 91.5 318Q97 322 99 332L24 422L25 421Q21 425 19 432Q17 439 17 450V541Q17 565 28 576Q39 587 63 587H107Q140 587 168 577.5Q196 568 216 543L324 414Q345 389 357 345Q369 301 369 231ZM965 274 1073 144Q1077 140 1080 131.5Q1083 123 1083 113V-34Q1083 -58 1072 -69Q1061 -80 1037 -80H582Q535 -80 495.5 -67.5Q456 -55 428 -21L319 108Q291 142 275 202Q259 262 259 359Q259 456 275 517.5Q291 579 319 613Q347 647 386.5 659Q426 671 473 671H928Q941 671 950 667.5Q959 664 965 657L1073 527Q1077 523 1080 514.5Q1083 506 1083 496V344Q1083 320 1072 309Q1061 298 1037 298H918V288H928Q941 288 950 284.5Q959 281 965 274ZM596 298Q589 298 582 296Q575 294 571 288H606V298Z" glyph-name="Abreve.salt" horiz-adv-x="1031" unicode="&#57608;" /><glyph d="M955 276 1063 146Q1067 142 1070 133.5Q1073 125 1073 115V-32Q1073 -57 1062 -67.5Q1051 -78 1027 -78H783Q757 -78 738.5 -76Q720 -74 703.5 -69.5Q687 -65 668 -57Q649 -49 620 -38L413 38Q404 41 396.5 45.5Q389 50 385 56L276 186Q270 193 267 204Q264 215 264 228V487Q264 510 272.5 524.5Q281 539 303 546L510 633Q539 644 558.5 652Q578 660 594.5 664.5Q611 669 629.5 671Q648 673 674 673H918Q931 673 940 669.5Q949 666 955 659L1063 529Q1067 525 1070 516.5Q1073 508 1073 498V347Q1073 323 1061.5 310.5Q1050 298 1027 298H917V290H918Q931 290 940 286.5Q949 283 955 276ZM315 11H234Q215 11 205 14.5Q195 18 188 25L79 156L80 155Q75 160 71 168.5Q67 177 63 188L17 315Q13 325 10.5 336.5Q8 348 7 358Q7 368 8 377Q9 386 13 393L63 531Q74 561 84 570Q94 579 125 579H206Q222 579 232 576Q242 573 246 569L247 568L355 438Q359 433 359.5 423Q360 413 356 395L316 258Q312 242 312 230Q312 218 316 202L356 65Q366 32 358.5 21.5Q351 11 315 11Z" glyph-name="Acircumflex" horiz-adv-x="1021" unicode="&#194;" /><glyph d="M315 11H234Q215 11 205 14.5Q195 18 188 25L79 156L80 155Q75 160 71 168.5Q67 177 63 188L17 315Q13 325 10.5 336.5Q8 348 7 358Q7 368 8 377Q9 386 13 393L63 531Q74 561 84 570Q94 579 125 579H206Q222 579 232 576Q242 573 246 569L247 568L355 438Q359 433 359.5 423Q360 413 356 395L316 258Q312 242 312 230Q312 218 316 202L356 65Q366 32 358.5 21.5Q351 11 315 11ZM955 274 1063 144Q1067 140 1070 131.5Q1073 123 1073 113V-34Q1073 -58 1062 -69Q1051 -80 1027 -80H572Q525 -80 485.5 -67.5Q446 -55 418 -21L309 108Q281 142 265 202Q249 262 249 359Q249 456 265 517.5Q281 579 309 613Q337 647 376.5 659Q416 671 463 671H918Q931 671 940 667.5Q949 664 955 657L1063 527Q1067 523 1070 514.5Q1073 506 1073 496V344Q1073 320 1062 309Q1051 298 1027 298H908V288H918Q931 288 940 284.5Q949 281 955 274ZM586 298Q579 298 572 296Q565 294 561 288H596V298Z" glyph-name="Acircumflex.salt" horiz-adv-x="1021" unicode="&#57603;" /><glyph d="M299 246 338 199Q343 194 345.5 186.5Q348 179 348 169V31Q348 9 337.5 -2Q327 -13 305 -13H184Q171 -13 163 -9.5Q155 -6 150 0L41 129Q37 134 34.5 142Q32 150 32 160V298Q32 320 42.5 330.5Q53 341 75 341H81L41 388Q37 393 34.5 400.5Q32 408 32 418V556Q32 578 42.5 588.5Q53 599 75 599H196Q208 599 216.5 595.5Q225 592 230 586L338 457Q343 452 345.5 444.5Q348 437 348 427V289Q348 267 337.5 256.5Q327 246 305 246ZM950 276 1058 146Q1062 142 1065 133.5Q1068 125 1068 115V-32Q1068 -57 1057 -67.5Q1046 -78 1022 -78H778Q752 -78 733.5 -76Q715 -74 698.5 -69.5Q682 -65 663 -57Q644 -49 615 -38L408 38Q399 41 391.5 45.5Q384 50 380 56L271 186Q265 193 262 204Q259 215 259 228V487Q259 510 267.5 524.5Q276 539 298 546L505 633Q534 644 553.5 652Q573 660 589.5 664.5Q606 669 624.5 671Q643 673 669 673H913Q926 673 935 669.5Q944 666 950 659L1058 529Q1062 525 1065 516.5Q1068 508 1068 498V347Q1068 323 1056.5 310.5Q1045 298 1022 298H912V290H913Q926 290 935 286.5Q944 283 950 276Z" glyph-name="Adieresis" horiz-adv-x="1016" unicode="&#196;" /><glyph d="M299 246 338 199Q343 194 345.5 186.5Q348 179 348 169V31Q348 9 337.5 -2Q327 -13 305 -13H184Q171 -13 163 -9.5Q155 -6 150 0L41 129Q37 134 34.5 142Q32 150 32 160V298Q32 320 42.5 330.5Q53 341 75 341H81L41 388Q37 393 34.5 400.5Q32 408 32 418V556Q32 578 42.5 588.5Q53 599 75 599H196Q208 599 216.5 595.5Q225 592 230 586L338 457Q343 452 345.5 444.5Q348 437 348 427V289Q348 267 337.5 256.5Q327 246 305 246ZM950 274 1058 144Q1062 140 1065 131.5Q1068 123 1068 113V-34Q1068 -58 1057 -69Q1046 -80 1022 -80H567Q520 -80 480.5 -67.5Q441 -55 413 -21L304 108Q276 142 260 202Q244 262 244 359Q244 456 260 517.5Q276 579 304 613Q332 647 371.5 659Q411 671 458 671H913Q926 671 935 667.5Q944 664 950 657L1058 527Q1062 523 1065 514.5Q1068 506 1068 496V344Q1068 320 1057 309Q1046 298 1022 298H903V288H913Q926 288 935 284.5Q944 281 950 274ZM581 298Q574 298 567 296Q560 294 556 288H591V298Z" glyph-name="Adieresis.salt" horiz-adv-x="1016" unicode="&#57605;" /><glyph d="M266 11H170Q157 11 148.5 14.5Q140 18 134 25L25 154Q21 160 19 167.5Q17 175 18 185L61 534Q64 558 74 568.5Q84 579 107 579H203Q216 579 224.5 575.5Q233 572 239 565L347 436Q351 431 353.5 423Q356 415 355 405L312 56Q309 32 299 21.5Q289 11 266 11ZM949 276 1057 146Q1061 142 1064 133.5Q1067 125 1067 115V-32Q1067 -57 1056 -67.5Q1045 -78 1021 -78H777Q751 -78 732.5 -76Q714 -74 697.5 -69.5Q681 -65 662 -57Q643 -49 614 -38L407 38Q398 41 390.5 45.5Q383 50 379 56L270 186Q264 193 261 204Q258 215 258 228V487Q258 510 266.5 524.5Q275 539 297 546L504 633Q533 644 552.5 652Q572 660 588.5 664.5Q605 669 623.5 671Q642 673 668 673H912Q925 673 934 669.5Q943 666 949 659L1057 529Q1061 525 1064 516.5Q1067 508 1067 498V347Q1067 323 1055.5 310.5Q1044 298 1021 298H911V290H912Q925 290 934 286.5Q943 283 949 276Z" glyph-name="Agrave" horiz-adv-x="1015" unicode="&#192;" /><glyph d="M266 11H170Q157 11 148.5 14.5Q140 18 134 25L25 154Q21 160 19 167.5Q17 175 18 185L61 534Q64 558 74 568.5Q84 579 107 579H203Q216 579 224.5 575.5Q233 572 239 565L347 436Q351 431 353.5 423Q356 415 355 405L312 56Q309 32 299 21.5Q289 11 266 11ZM949 274 1057 144Q1061 140 1064 131.5Q1067 123 1067 113V-34Q1067 -58 1056 -69Q1045 -80 1021 -80H566Q519 -80 479.5 -67.5Q440 -55 412 -21L303 108Q275 142 259 202Q243 262 243 359Q243 456 259 517.5Q275 579 303 613Q331 647 370.5 659Q410 671 457 671H912Q925 671 934 667.5Q943 664 949 657L1057 527Q1061 523 1064 514.5Q1067 506 1067 496V344Q1067 320 1056 309Q1045 298 1021 298H902V288H912Q925 288 934 284.5Q943 281 949 274ZM580 298Q573 298 566 296Q559 294 555 288H590V298Z" glyph-name="Agrave.salt" horiz-adv-x="1015" unicode="&#57601;" /><glyph d="M326 404V57Q326 33 315 22Q304 11 280 11H187Q174 11 165 14.5Q156 18 150 25L41 154Q37 159 34.5 167.5Q32 176 32 186V533Q32 557 43 568Q54 579 78 579H171Q184 579 193 575.5Q202 572 208 565L316 435Q320 431 323 422.5Q326 414 326 404ZM928 276 1036 146Q1040 142 1043 133.5Q1046 125 1046 115V-32Q1046 -57 1035 -67.5Q1024 -78 1000 -78H756Q730 -78 711.5 -76Q693 -74 676.5 -69.5Q660 -65 641 -57Q622 -49 593 -38L386 38Q377 41 369.5 45.5Q362 50 358 56L249 186Q243 193 240 204Q237 215 237 228V487Q237 510 245.5 524.5Q254 539 276 546L483 633Q512 644 531.5 652Q551 660 567.5 664.5Q584 669 602.5 671Q621 673 647 673H891Q904 673 913 669.5Q922 666 928 659L1036 529Q1040 525 1043 516.5Q1046 508 1046 498V347Q1046 323 1034.5 310.5Q1023 298 1000 298H890V290H891Q904 290 913 286.5Q922 283 928 276Z" glyph-name="Amacron" horiz-adv-x="994" unicode="&#256;" /><glyph d="M326 404V57Q326 33 315 22Q304 11 280 11H187Q174 11 165 14.5Q156 18 150 25L41 154Q37 159 34.5 167.5Q32 176 32 186V533Q32 557 43 568Q54 579 78 579H171Q184 579 193 575.5Q202 572 208 565L316 435Q320 431 323 422.5Q326 414 326 404ZM928 274 1036 144Q1040 140 1043 131.5Q1046 123 1046 113V-34Q1046 -58 1035 -69Q1024 -80 1000 -80H545Q498 -80 458.5 -67.5Q419 -55 391 -21L282 108Q254 142 238 202Q222 262 222 359Q222 456 238 517.5Q254 579 282 613Q310 647 349.5 659Q389 671 436 671H891Q904 671 913 667.5Q922 664 928 657L1036 527Q1040 523 1043 514.5Q1046 506 1046 496V344Q1046 320 1035 309Q1024 298 1000 298H881V288H891Q904 288 913 284.5Q922 281 928 274ZM559 298Q552 298 545 296Q538 294 534 288H569V298Z" glyph-name="Amacron.salt" horiz-adv-x="994" unicode="&#57607;" /><glyph d="M815 -78H571Q545 -78 526.5 -76Q508 -74 491.5 -69.5Q475 -65 456 -57Q437 -49 408 -38L201 38Q192 41 184.5 45.5Q177 50 173 56L64 186Q58 193 55 204Q52 215 52 228V487Q52 510 60.5 524.5Q69 539 91 546L298 633Q327 644 346.5 652Q366 660 382.5 664.5Q399 669 417.5 671Q436 673 462 673H706Q719 673 728 669.5Q737 666 743 659L778 617V625Q778 652 787.5 661.5Q797 671 822 671H894Q907 671 916 668Q925 665 930 660L1039 529Q1043 525 1045 517Q1047 509 1047 499V388Q1047 319 1012 292.5Q977 266 900 277L785 298H705V290H706Q719 290 728 286.5Q737 283 743 276L851 146Q855 142 858 133.5Q861 125 861 115V-32Q861 -57 850 -67.5Q839 -78 815 -78Z" glyph-name="Aogonek" horiz-adv-x="945" unicode="&#260;" /><glyph d="M384 298Q377 298 370 296Q363 294 359 288H394V298ZM825 -80H370Q323 -80 283.5 -67.5Q244 -55 216 -21L107 108Q79 142 63 202Q47 262 47 359Q47 456 63 517.5Q79 579 107 613Q135 647 174.5 659Q214 671 261 671H716Q729 671 738 667.5Q747 664 753 657L788 615V627Q788 654 797.5 663.5Q807 673 832 673H904Q917 673 926 670Q935 667 940 662L1049 531Q1053 527 1055 519Q1057 511 1057 501V390Q1057 321 1022 294.5Q987 268 910 279L806 298H706V288H716Q729 288 738 284.5Q747 281 753 274L861 144Q865 140 868 131.5Q871 123 871 113V-34Q871 -58 860 -69Q849 -80 825 -80Z" glyph-name="Aogonek.salt" horiz-adv-x="955" unicode="&#57609;" /><glyph d="M1017 -80H783Q738 -80 703 -72.5Q668 -65 630 -50L456 10Q446 14 437.5 19.5Q429 25 423 32L420 36Q401 18 375.5 11Q350 4 322 4H264Q231 4 203 13Q175 22 155 47L46 177Q26 202 14 246.5Q2 291 2 360Q2 429 13.5 473.5Q25 518 45 543Q65 568 93.5 577.5Q122 587 155 587H213Q242 587 267 579.5Q292 572 311 555Q316 563 325.5 570Q335 577 348 581L520 641Q559 656 594 663.5Q629 671 674 671H908Q921 671 930 667.5Q939 664 945 657L1054 528Q1058 522 1060.5 514Q1063 506 1063 496V342Q1063 318 1052 307Q1041 296 1017 296H907V287H908Q921 287 930 283.5Q939 280 945 273L1053 143Q1057 139 1060 130.5Q1063 122 1063 112V-34Q1063 -58 1052 -69Q1041 -80 1017 -80Z" glyph-name="Aring" horiz-adv-x="1011" unicode="&#197;" /><glyph d="M946 275 1054 145Q1058 141 1061 132.5Q1064 124 1064 114V-33Q1064 -57 1053 -68Q1042 -79 1018 -79H562Q514 -79 474.5 -67Q435 -55 407 -21L382 10Q369 6 353.5 3.5Q338 1 322 1H264Q231 1 203 10Q175 19 155 44L46 174Q26 199 14 243.5Q2 288 2 357Q2 426 13.5 470.5Q25 515 45 540Q65 565 93.5 574.5Q122 584 155 584H213Q230 584 245.5 581.5Q261 579 275 574Q302 631 348.5 650.5Q395 670 453 670H909Q922 670 931 666.5Q940 663 946 656L1054 526Q1058 522 1061 513.5Q1064 505 1064 495V343Q1064 319 1053 308Q1042 297 1018 297H898V289H909Q922 289 931 285.5Q940 282 946 275Z" glyph-name="Aring.salt" horiz-adv-x="1012" unicode="&#57606;" /><glyph d="M939 276 1047 146Q1051 142 1054 133.5Q1057 125 1057 115V-32Q1057 -57 1046 -67.5Q1035 -78 1011 -78H767Q741 -78 722.5 -76Q704 -74 687.5 -69.5Q671 -65 652 -57Q633 -49 604 -38L397 38Q388 41 380.5 45.5Q373 50 369 56L260 186Q254 193 251 204Q248 215 248 228V487Q248 510 256.5 524.5Q265 539 287 546L494 633Q523 644 542.5 652Q562 660 578.5 664.5Q595 669 613.5 671Q632 673 658 673H902Q915 673 924 669.5Q933 666 939 659L1047 529Q1051 525 1054 516.5Q1057 508 1057 498V347Q1057 323 1045.5 310.5Q1034 298 1011 298H901V290H902Q915 290 924 286.5Q933 283 939 276ZM331 406Q338 382 341.5 365Q345 348 345 332Q345 316 342.5 296Q340 276 336 245L334 229L330 201Q326 173 324.5 155Q323 137 324.5 122Q326 107 329.5 93Q333 79 339 60Q346 35 337 23Q328 11 303 11H202Q189 11 180.5 14.5Q172 18 165 26L57 155Q53 159 49.5 166.5Q46 174 43 182V183H42Q35 207 31.5 223.5Q28 240 28 256.5Q28 273 30.5 292.5Q33 312 37 343L39 360L42 382Q47 414 49 433Q51 452 50 466Q49 480 45 494Q41 508 34 529Q27 554 36 566Q45 578 70 578H171Q184 578 192.5 574Q201 570 207 563L316 433Q320 429 323.5 422Q327 415 330 407V406Z" glyph-name="Atilde" horiz-adv-x="1005" unicode="&#195;" /><glyph d="M331 406Q338 382 341.5 365Q345 348 345 332Q345 316 342.5 296Q340 276 336 245L334 229L330 201Q326 173 324.5 155Q323 137 324.5 122Q326 107 329.5 93Q333 79 339 60Q346 35 337 23Q328 11 303 11H202Q189 11 180.5 14.5Q172 18 165 26L57 155Q53 159 49.5 166.5Q46 174 43 182V183H42Q35 207 31.5 223.5Q28 240 28 256.5Q28 273 30.5 292.5Q33 312 37 343L39 360L42 382Q47 414 49 433Q51 452 50 466Q49 480 45 494Q41 508 34 529Q27 554 36 566Q45 578 70 578H171Q184 578 192.5 574Q201 570 207 563L316 433Q320 429 323.5 422Q327 415 330 407V406ZM939 274 1047 144Q1051 140 1054 131.5Q1057 123 1057 113V-34Q1057 -58 1046 -69Q1035 -80 1011 -80H556Q509 -80 469.5 -67.5Q430 -55 402 -21L293 108Q265 142 249 202Q233 262 233 359Q233 456 249 517.5Q265 579 293 613Q321 647 360.5 659Q400 671 447 671H902Q915 671 924 667.5Q933 664 939 657L1047 527Q1051 523 1054 514.5Q1057 506 1057 496V344Q1057 320 1046 309Q1035 298 1011 298H892V288H902Q915 288 924 284.5Q933 281 939 274ZM570 298Q563 298 556 296Q549 294 545 288H580V298Z" glyph-name="Atilde.salt" horiz-adv-x="1005" unicode="&#57604;" /><glyph d="M907 -31Q907 -55 896 -66Q885 -77 861 -77H213Q200 -77 191 -73.5Q182 -70 176 -63L67 66Q63 71 60.5 79.5Q58 88 58 98V408Q58 516 105 563Q152 610 221 610H269Q302 610 327.5 601Q353 592 370 572L372 569Q385 616 425.5 646.5Q466 677 532 677H624Q665 677 698 663.5Q731 650 754 622L862 493Q884 468 895.5 430.5Q907 393 907 344Z" glyph-name="B" horiz-adv-x="861" unicode="B" /><glyph d="M911 486V173Q911 99 895 49.5Q879 0 851 -29.5Q823 -59 783.5 -71Q744 -83 697 -83H386Q335 -83 293 -68.5Q251 -54 223 -20L114 109Q89 138 75.5 185.5Q62 233 62 302V615Q62 639 73 650Q84 661 108 661H229Q242 661 251 657.5Q260 654 266 647L374 517Q378 513 381 504.5Q384 496 384 486V294H553Q570 294 580.5 304Q591 314 591 345V615Q591 639 602 650Q613 661 637 661H756Q769 661 778 657.5Q787 654 793 647L901 517Q905 513 908 504.5Q911 496 911 486Z" glyph-name="C" horiz-adv-x="864" unicode="C" /><glyph d="M871 486V173Q871 99 855 49.5Q839 0 811 -29.5Q783 -59 743.5 -71Q704 -83 657 -83H386Q335 -83 293 -68.5Q251 -54 223 -20L114 109Q89 138 75.5 185.5Q62 233 62 302V615Q62 639 73 650Q84 661 108 661H229Q242 661 251 657.5Q260 654 266 647L374 517Q378 513 381 504.5Q384 496 384 486V294H513Q530 294 540.5 304Q551 314 551 345V615Q551 639 562 650Q573 661 597 661H716Q729 661 738 657.5Q747 654 753 647L861 517Q865 513 868 504.5Q871 496 871 486Z" glyph-name="C.s" horiz-adv-x="824" /><glyph d="M354 66Q357 44 345.5 32.5Q334 21 311 21H215Q202 21 193.5 24.5Q185 28 180 34L71 164Q67 168 64 176.5Q61 185 60 195L17 544Q14 566 25.5 577.5Q37 589 60 589H156Q169 589 178 585.5Q187 582 191 575L300 446Q304 441 306.5 433Q309 425 311 415ZM1067 486V173Q1067 99 1051 49.5Q1035 0 1007 -29.5Q979 -59 939.5 -71Q900 -83 853 -83H582Q531 -83 489 -68.5Q447 -54 419 -20L310 109Q285 138 271.5 185.5Q258 233 258 302V615Q258 639 269 650Q280 661 304 661H425Q438 661 447 657.5Q456 654 462 647L570 517Q574 513 577 504.5Q580 496 580 486V294H709Q726 294 736.5 304Q747 314 747 345V615Q747 639 758 650Q769 661 793 661H912Q925 661 934 657.5Q943 654 949 647L1057 517Q1061 513 1064 504.5Q1067 496 1067 486Z" glyph-name="Cacute" horiz-adv-x="1020" unicode="&#262;" /><glyph d="M255 21H174Q157 21 147 23.5Q137 26 133 32L24 161Q20 166 19.5 176.5Q19 187 24 205L64 342Q68 358 68 370Q68 382 64 398L24 535Q14 568 21.5 578.5Q29 589 65 589H146Q165 589 175 585Q185 581 192 573L301 444Q305 438 309 430.5Q313 423 317 413V412L363 285Q367 275 369.5 264Q372 253 373 243V242Q373 232 372 223Q371 214 367 207L317 69Q306 39 296 30Q286 21 255 21ZM1083 486V173Q1083 99 1067 49.5Q1051 0 1023 -29.5Q995 -59 955.5 -71Q916 -83 869 -83H598Q547 -83 505 -68.5Q463 -54 435 -20L326 109Q301 138 287.5 185.5Q274 233 274 302V615Q274 639 285 650Q296 661 320 661H441Q454 661 463 657.5Q472 654 478 647L586 517Q590 513 593 504.5Q596 496 596 486V294H725Q742 294 752.5 304Q763 314 763 345V615Q763 639 774 650Q785 661 809 661H928Q941 661 950 657.5Q959 654 965 647L1073 517Q1077 513 1080 504.5Q1083 496 1083 486Z" glyph-name="Ccaron" horiz-adv-x="1036" unicode="&#268;" /><glyph d="M944 99 869 127Q859 7 801.5 -38Q744 -83 657 -83H386Q335 -83 293 -68.5Q251 -54 223 -20L114 109Q89 138 75.5 185.5Q62 233 62 302V615Q62 639 73 650Q84 661 108 661H229Q242 661 251 657.5Q260 654 266 647L374 517Q378 513 381 504.5Q384 496 384 486V294H513Q530 294 540.5 304Q551 314 551 345V615Q551 639 562 650Q573 661 597 661H716Q729 661 738 657.5Q747 654 753 647L861 517Q865 513 868 504.5Q871 496 871 486V439Q872 438 874 436Q876 434 877 433L985 304Q991 297 994 287.5Q997 278 997 265V139Q997 105 982 98Q967 91 944 99Z" glyph-name="Ccedilla" horiz-adv-x="905" unicode="&#199;" /><glyph d="M315 21H234Q215 21 205 24.5Q195 28 188 35L79 166L80 165Q75 170 71 178.5Q67 187 63 198L17 325Q13 335 10.5 346.5Q8 358 7 368Q7 378 8 387Q9 396 13 403L63 541Q74 571 84 580Q94 589 125 589H206Q222 589 232 586Q242 583 246 579L247 578L355 448Q359 443 359.5 433Q360 423 356 405L316 268Q312 252 312 240Q312 228 316 212L356 75Q366 42 358.5 31.5Q351 21 315 21ZM1073 486V173Q1073 99 1057 49.5Q1041 0 1013 -29.5Q985 -59 945.5 -71Q906 -83 859 -83H588Q537 -83 495 -68.5Q453 -54 425 -20L316 109Q291 138 277.5 185.5Q264 233 264 302V615Q264 639 275 650Q286 661 310 661H431Q444 661 453 657.5Q462 654 468 647L576 517Q580 513 583 504.5Q586 496 586 486V294H715Q732 294 742.5 304Q753 314 753 345V615Q753 639 764 650Q775 661 799 661H918Q931 661 940 657.5Q949 654 955 647L1063 517Q1067 513 1070 504.5Q1073 496 1073 486Z" glyph-name="Ccircumflex" horiz-adv-x="1026" unicode="&#264;" /><glyph d="M335 321V163Q335 139 324 128Q313 117 289 117H162Q149 117 140 120.5Q131 124 125 131L16 260Q12 265 9.5 273.5Q7 282 7 292V450Q7 474 18 485Q29 496 53 496H180Q193 496 202 492.5Q211 489 217 482L325 352Q329 348 332 339.5Q335 331 335 321ZM1055 486V173Q1055 99 1039 49.5Q1023 0 995 -29.5Q967 -59 927.5 -71Q888 -83 841 -83H570Q519 -83 477 -68.5Q435 -54 407 -20L298 109Q273 138 259.5 185.5Q246 233 246 302V615Q246 639 257 650Q268 661 292 661H413Q426 661 435 657.5Q444 654 450 647L558 517Q562 513 565 504.5Q568 496 568 486V294H697Q714 294 724.5 304Q735 314 735 345V615Q735 639 746 650Q757 661 781 661H900Q913 661 922 657.5Q931 654 937 647L1045 517Q1049 513 1052 504.5Q1055 496 1055 486Z" glyph-name="Cdotaccent" horiz-adv-x="1008" unicode="&#266;" /><glyph d="M858 483Q883 453 897 406Q911 359 911 290V-33Q911 -57 900 -68Q889 -79 865 -79H217Q204 -79 195 -75.5Q186 -72 180 -65L71 64Q67 69 64.5 77.5Q62 86 62 96V419Q62 493 78 542.5Q94 592 122 621.5Q150 651 189.5 663Q229 675 276 675H588Q638 675 679.5 660.5Q721 646 749 612ZM420 314Q407 314 398 310Q389 306 385 297H593V314Z" glyph-name="D" horiz-adv-x="864" unicode="D" /><glyph d="M818 483Q843 453 857 406Q871 359 871 290V-33Q871 -57 860 -68Q849 -79 825 -79H217Q204 -79 195 -75.5Q186 -72 180 -65L71 64Q67 69 64.5 77.5Q62 86 62 96V419Q62 493 78 542.5Q94 592 122 621.5Q150 651 189.5 663Q229 675 276 675H548Q598 675 639.5 660.5Q681 646 709 612ZM420 314Q407 314 398 310Q389 306 385 297H553V314Z" glyph-name="D.s" horiz-adv-x="824" /><glyph d="M1030 483Q1055 453 1069 406Q1083 359 1083 290V-33Q1083 -57 1072 -68Q1061 -79 1037 -79H429Q416 -79 407 -75.5Q398 -72 392 -65L283 64Q279 69 276.5 77.5Q274 86 274 96V419Q274 493 290 542.5Q306 592 334 621.5Q362 651 401.5 663Q441 675 488 675H760Q810 675 851.5 660.5Q893 646 921 612ZM632 314Q619 314 610 310Q601 306 597 297H765V314ZM255 11H174Q157 11 147 13.5Q137 16 133 22L24 151Q20 156 19.5 166.5Q19 177 24 195L64 332Q68 348 68 360Q68 372 64 388L24 525Q14 558 21.5 568.5Q29 579 65 579H146Q165 579 175 575Q185 571 192 563L301 434Q305 428 309 420.5Q313 413 317 403V402L363 275Q367 265 369.5 254Q372 243 373 233V232Q373 222 372 213Q371 204 367 197L317 59Q306 29 296 20Q286 11 255 11Z" glyph-name="Dcaron" horiz-adv-x="1036" unicode="&#270;" /><glyph d="M919 -33Q919 -57 908 -68Q897 -79 873 -79H654V-92Q654 -116 643.5 -127Q633 -138 608 -138H501Q488 -138 479 -134.5Q470 -131 464 -124L426 -79H225Q212 -79 203 -75.5Q194 -72 188 -65L79 64Q75 69 72.5 77.5Q70 86 70 96V414Q70 488 86 537.5Q102 587 130 616.5Q158 646 197.5 658Q237 670 284 670H596Q646 670 687.5 655.5Q729 641 757 607L866 478Q891 448 905 401Q919 354 919 285Z" glyph-name="Dcroat" horiz-adv-x="880" unicode="&#272;" /><glyph d="M873 -90H739Q694 -90 650 -80.5Q606 -71 567 -61L227 26L226 27Q215 31 206.5 36.5Q198 42 193 49L84 178Q77 188 73.5 199.5Q70 211 70 227V494Q70 522 81 538Q92 554 117 564L118 565H119L458 652Q497 662 541 671.5Q585 681 630 681H764Q777 681 786 677.5Q795 674 801 667L910 538Q914 532 916.5 524Q919 516 919 506V-44Q919 -68 908 -79Q897 -90 873 -90Z" glyph-name="Delta" horiz-adv-x="880" unicode="&#8710;" /><glyph d="M919 486V-32Q919 -56 908 -67Q897 -78 873 -78H225Q212 -78 203 -74.5Q194 -71 188 -64L79 65Q75 70 72.5 78.5Q70 87 70 97V615Q70 639 81 650Q92 661 116 661H233Q246 661 255 657.5Q264 654 270 647L341 561Q346 571 356 575.5Q366 580 382 580H489Q502 580 511 576.5Q520 573 526 566L601 477V615Q601 639 612 650Q623 661 647 661H764Q777 661 786 657.5Q795 654 801 647L909 517Q913 513 916 504.5Q919 496 919 486Z" glyph-name="E" horiz-adv-x="880" unicode="E" /><glyph d="M879 485V-33Q879 -57 868 -68Q857 -79 833 -79H225Q212 -79 203 -75.5Q194 -72 188 -65L79 64Q75 69 72.5 77.5Q70 86 70 96V614Q70 638 81 649Q92 660 116 660H229Q242 660 251 656.5Q260 653 266 646L332 567Q337 573 346 576Q355 579 368 579H463Q476 579 485 575.5Q494 572 500 565L565 487V614Q565 638 576 649Q587 660 611 660H724Q737 660 746 656.5Q755 653 761 646L869 516Q873 512 876 503.5Q879 495 879 485Z" glyph-name="E.s" horiz-adv-x="840" /><glyph d="M911 486V173Q911 99 892 49.5Q873 0 841 -29.5Q809 -59 766.5 -71Q724 -83 677 -83H386Q335 -83 293 -68.5Q251 -54 223 -20L114 109Q89 138 75.5 185.5Q62 233 62 302V615Q62 639 73 650Q84 661 108 661H225Q238 661 247 657.5Q256 654 262 647L333 561Q338 571 348 575.5Q358 580 374 580H481Q494 580 503 576.5Q512 573 518 566L593 477V615Q593 639 604 650Q615 661 639 661H756Q769 661 778 657.5Q787 654 793 647L901 517Q905 513 908 504.5Q911 496 911 486Z" glyph-name="E.salt" horiz-adv-x="864" unicode="&#57610;" /><glyph d="M871 485V173Q871 99 855 49.5Q839 0 811 -29.5Q783 -59 743.5 -71Q704 -83 657 -83H386Q335 -83 293 -68.5Q251 -54 223 -20L114 109Q89 138 75.5 185.5Q62 233 62 302V614Q62 638 73 649Q84 660 108 660H221Q234 660 243 656.5Q252 653 258 646L324 567Q329 573 338 576Q347 579 360 579H455Q468 579 477 575.5Q486 572 492 565L557 487V614Q557 638 568 649Q579 660 603 660H716Q729 660 738 656.5Q747 653 753 646L861 516Q865 512 868 503.5Q871 495 871 485Z" glyph-name="E.salt_s" horiz-adv-x="824" /><glyph d="M1067 485V-33Q1067 -57 1056 -68Q1045 -79 1021 -79H413Q400 -79 391 -75.5Q382 -72 376 -65L267 64Q263 69 260.5 77.5Q258 86 258 96V614Q258 638 269 649Q280 660 304 660H417Q430 660 439 656.5Q448 653 454 646L520 567Q525 573 534 576Q543 579 556 579H651Q664 579 673 575.5Q682 572 688 565L753 487V614Q753 638 764 649Q775 660 799 660H912Q925 660 934 656.5Q943 653 949 646L1057 516Q1061 512 1064 503.5Q1067 495 1067 485ZM354 56Q357 34 345.5 22.5Q334 11 311 11H215Q202 11 193.5 14.5Q185 18 180 24L71 154Q67 158 64 166.5Q61 175 60 185L17 534Q14 556 25.5 567.5Q37 579 60 579H156Q169 579 178 575.5Q187 572 191 565L300 436Q304 431 306.5 423Q309 415 311 405Z" glyph-name="Eacute" horiz-adv-x="1028" unicode="&#201;" /><glyph d="M354 56Q357 34 345.5 22.5Q334 11 311 11H215Q202 11 193.5 14.5Q185 18 180 24L71 154Q67 158 64 166.5Q61 175 60 185L17 534Q14 556 25.5 567.5Q37 579 60 579H156Q169 579 178 575.5Q187 572 191 565L300 436Q304 431 306.5 423Q309 415 311 405ZM1067 485V173Q1067 99 1051 49.5Q1035 0 1007 -29.5Q979 -59 939.5 -71Q900 -83 853 -83H582Q531 -83 489 -68.5Q447 -54 419 -20L310 109Q285 138 271.5 185.5Q258 233 258 302V614Q258 638 269 649Q280 660 304 660H417Q430 660 439 656.5Q448 653 454 646L520 567Q525 573 534 576Q543 579 556 579H651Q664 579 673 575.5Q682 572 688 565L753 487V614Q753 638 764 649Q775 660 799 660H912Q925 660 934 656.5Q943 653 949 646L1057 516Q1061 512 1064 503.5Q1067 495 1067 485Z" glyph-name="Eacute.salt" horiz-adv-x="1020" unicode="&#57612;" /><glyph d="M369 231Q369 162 357.5 117.5Q346 73 326 48Q306 23 277.5 13.5Q249 4 216 4H172Q159 4 150 7.5Q141 11 135 18L26 147Q22 152 19.5 160.5Q17 169 17 179V275Q17 296 25.5 305Q34 314 58 314H79Q86 314 91.5 318Q97 322 99 332L24 422L25 421Q21 425 19 432Q17 439 17 450V541Q17 565 28 576Q39 587 63 587H107Q140 587 168 577.5Q196 568 216 543L324 414Q345 389 357 345Q369 301 369 231ZM1083 485V-33Q1083 -57 1072 -68Q1061 -79 1037 -79H429Q416 -79 407 -75.5Q398 -72 392 -65L283 64Q279 69 276.5 77.5Q274 86 274 96V614Q274 638 285 649Q296 660 320 660H433Q446 660 455 656.5Q464 653 470 646L536 567Q541 573 550 576Q559 579 572 579H667Q680 579 689 575.5Q698 572 704 565L769 487V614Q769 638 780 649Q791 660 815 660H928Q941 660 950 656.5Q959 653 965 646L1073 516Q1077 512 1080 503.5Q1083 495 1083 485Z" glyph-name="Ebreve" horiz-adv-x="1044" unicode="&#276;" /><glyph d="M369 231Q369 162 357.5 117.5Q346 73 326 48Q306 23 277.5 13.5Q249 4 216 4H172Q159 4 150 7.5Q141 11 135 18L26 147Q22 152 19.5 160.5Q17 169 17 179V275Q17 296 25.5 305Q34 314 58 314H79Q86 314 91.5 318Q97 322 99 332L24 422L25 421Q21 425 19 432Q17 439 17 450V541Q17 565 28 576Q39 587 63 587H107Q140 587 168 577.5Q196 568 216 543L324 414Q345 389 357 345Q369 301 369 231ZM1083 485V173Q1083 99 1067 49.5Q1051 0 1023 -29.5Q995 -59 955.5 -71Q916 -83 869 -83H598Q547 -83 505 -68.5Q463 -54 435 -20L326 109Q301 138 287.5 185.5Q274 233 274 302V614Q274 638 285 649Q296 660 320 660H433Q446 660 455 656.5Q464 653 470 646L536 567Q541 573 550 576Q559 579 572 579H667Q680 579 689 575.5Q698 572 704 565L769 487V614Q769 638 780 649Q791 660 815 660H928Q941 660 950 656.5Q959 653 965 646L1073 516Q1077 512 1080 503.5Q1083 495 1083 485Z" glyph-name="Ebreve.salt" horiz-adv-x="1036" unicode="&#57616;" /><glyph d="M255 11H174Q157 11 147 13.5Q137 16 133 22L24 151Q20 156 19.5 166.5Q19 177 24 195L64 332Q68 348 68 360Q68 372 64 388L24 525Q14 558 21.5 568.5Q29 579 65 579H146Q165 579 175 575Q185 571 192 563L301 434Q305 428 309 420.5Q313 413 317 403V402L363 275Q367 265 369.5 254Q372 243 373 233V232Q373 222 372 213Q371 204 367 197L317 59Q306 29 296 20Q286 11 255 11ZM1083 485V-33Q1083 -57 1072 -68Q1061 -79 1037 -79H429Q416 -79 407 -75.5Q398 -72 392 -65L283 64Q279 69 276.5 77.5Q274 86 274 96V614Q274 638 285 649Q296 660 320 660H433Q446 660 455 656.5Q464 653 470 646L536 567Q541 573 550 576Q559 579 572 579H667Q680 579 689 575.5Q698 572 704 565L769 487V614Q769 638 780 649Q791 660 815 660H928Q941 660 950 656.5Q959 653 965 646L1073 516Q1077 512 1080 503.5Q1083 495 1083 485Z" glyph-name="Ecaron" horiz-adv-x="1044" unicode="&#282;" /><glyph d="M255 11H174Q157 11 147 13.5Q137 16 133 22L24 151Q20 156 19.5 166.5Q19 177 24 195L64 332Q68 348 68 360Q68 372 64 388L24 525Q14 558 21.5 568.5Q29 579 65 579H146Q165 579 175 575Q185 571 192 563L301 434Q305 428 309 420.5Q313 413 317 403V402L363 275Q367 265 369.5 254Q372 243 373 233V232Q373 222 372 213Q371 204 367 197L317 59Q306 29 296 20Q286 11 255 11ZM1083 485V173Q1083 99 1067 49.5Q1051 0 1023 -29.5Q995 -59 955.5 -71Q916 -83 869 -83H598Q547 -83 505 -68.5Q463 -54 435 -20L326 109Q301 138 287.5 185.5Q274 233 274 302V614Q274 638 285 649Q296 660 320 660H433Q446 660 455 656.5Q464 653 470 646L536 567Q541 573 550 576Q559 579 572 579H667Q680 579 689 575.5Q698 572 704 565L769 487V614Q769 638 780 649Q791 660 815 660H928Q941 660 950 656.5Q959 653 965 646L1073 516Q1077 512 1080 503.5Q1083 495 1083 485Z" glyph-name="Ecaron.salt" horiz-adv-x="1036" unicode="&#57619;" /><glyph d="M315 11H234Q215 11 205 14.5Q195 18 188 25L79 156L80 155Q75 160 71 168.5Q67 177 63 188L17 315Q13 325 10.5 336.5Q8 348 7 358Q7 368 8 377Q9 386 13 393L63 531Q74 561 84 570Q94 579 125 579H206Q222 579 232 576Q242 573 246 569L247 568L355 438Q359 433 359.5 423Q360 413 356 395L316 258Q312 242 312 230Q312 218 316 202L356 65Q366 32 358.5 21.5Q351 11 315 11ZM1113 486V-32Q1113 -56 1102 -67Q1091 -78 1067 -78H419Q406 -78 397 -74.5Q388 -71 382 -64L273 65Q269 70 266.5 78.5Q264 87 264 97V615Q264 639 275 650Q286 661 310 661H427Q440 661 449 657.5Q458 654 464 647L535 561Q540 571 550 575.5Q560 580 576 580H683Q696 580 705 576.5Q714 573 720 566L795 477V615Q795 639 806 650Q817 661 841 661H958Q971 661 980 657.5Q989 654 995 647L1103 517Q1107 513 1110 504.5Q1113 496 1113 486Z" glyph-name="Ecircumflex" horiz-adv-x="1074" unicode="&#202;" /><glyph d="M315 11H234Q215 11 205 14.5Q195 18 188 25L79 156L80 155Q75 160 71 168.5Q67 177 63 188L17 315Q13 325 10.5 336.5Q8 348 7 358Q7 368 8 377Q9 386 13 393L63 531Q74 561 84 570Q94 579 125 579H206Q222 579 232 576Q242 573 246 569L247 568L355 438Q359 433 359.5 423Q360 413 356 395L316 258Q312 242 312 230Q312 218 316 202L356 65Q366 32 358.5 21.5Q351 11 315 11ZM1073 485V173Q1073 99 1057 49.5Q1041 0 1013 -29.5Q985 -59 945.5 -71Q906 -83 859 -83H588Q537 -83 495 -68.5Q453 -54 425 -20L316 109Q291 138 277.5 185.5Q264 233 264 302V614Q264 638 275 649Q286 660 310 660H423Q436 660 445 656.5Q454 653 460 646L526 567Q531 573 540 576Q549 579 562 579H657Q670 579 679 575.5Q688 572 694 565L759 487V614Q759 638 770 649Q781 660 805 660H918Q931 660 940 656.5Q949 653 955 646L1063 516Q1067 512 1070 503.5Q1073 495 1073 485Z" glyph-name="Ecircumflex.salt" horiz-adv-x="1026" unicode="&#57613;" /><glyph d="M299 246 338 199Q343 194 345.5 186.5Q348 179 348 169V31Q348 9 337.5 -2Q327 -13 305 -13H184Q171 -13 163 -9.5Q155 -6 150 0L41 129Q37 134 34.5 142Q32 150 32 160V298Q32 320 42.5 330.5Q53 341 75 341H81L41 388Q37 393 34.5 400.5Q32 408 32 418V556Q32 578 42.5 588.5Q53 599 75 599H196Q208 599 216.5 595.5Q225 592 230 586L338 457Q343 452 345.5 444.5Q348 437 348 427V289Q348 267 337.5 256.5Q327 246 305 246ZM1068 485V-33Q1068 -57 1057 -68Q1046 -79 1022 -79H414Q401 -79 392 -75.5Q383 -72 377 -65L268 64Q264 69 261.5 77.5Q259 86 259 96V614Q259 638 270 649Q281 660 305 660H418Q431 660 440 656.5Q449 653 455 646L521 567Q526 573 535 576Q544 579 557 579H652Q665 579 674 575.5Q683 572 689 565L754 487V614Q754 638 765 649Q776 660 800 660H913Q926 660 935 656.5Q944 653 950 646L1058 516Q1062 512 1065 503.5Q1068 495 1068 485Z" glyph-name="Edieresis" horiz-adv-x="1029" unicode="&#203;" /><glyph d="M299 246 338 199Q343 194 345.5 186.5Q348 179 348 169V31Q348 9 337.5 -2Q327 -13 305 -13H184Q171 -13 163 -9.5Q155 -6 150 0L41 129Q37 134 34.5 142Q32 150 32 160V298Q32 320 42.5 330.5Q53 341 75 341H81L41 388Q37 393 34.5 400.5Q32 408 32 418V556Q32 578 42.5 588.5Q53 599 75 599H196Q208 599 216.5 595.5Q225 592 230 586L338 457Q343 452 345.5 444.5Q348 437 348 427V289Q348 267 337.5 256.5Q327 246 305 246ZM1068 485V173Q1068 99 1052 49.5Q1036 0 1008 -29.5Q980 -59 940.5 -71Q901 -83 854 -83H583Q532 -83 490 -68.5Q448 -54 420 -20L311 109Q286 138 272.5 185.5Q259 233 259 302V614Q259 638 270 649Q281 660 305 660H418Q431 660 440 656.5Q449 653 455 646L521 567Q526 573 535 576Q544 579 557 579H652Q665 579 674 575.5Q683 572 689 565L754 487V614Q754 638 765 649Q776 660 800 660H913Q926 660 935 656.5Q944 653 950 646L1058 516Q1062 512 1065 503.5Q1068 495 1068 485Z" glyph-name="Edieresis.salt" horiz-adv-x="1021" unicode="&#57614;" /><glyph d="M335 311V153Q335 129 324 118Q313 107 289 107H162Q149 107 140 110.5Q131 114 125 121L16 250Q12 255 9.5 263.5Q7 272 7 282V440Q7 464 18 475Q29 486 53 486H180Q193 486 202 482.5Q211 479 217 472L325 342Q329 338 332 329.5Q335 321 335 311ZM1055 485V-33Q1055 -57 1044 -68Q1033 -79 1009 -79H401Q388 -79 379 -75.5Q370 -72 364 -65L255 64Q251 69 248.5 77.5Q246 86 246 96V614Q246 638 257 649Q268 660 292 660H405Q418 660 427 656.5Q436 653 442 646L508 567Q513 573 522 576Q531 579 544 579H639Q652 579 661 575.5Q670 572 676 565L741 487V614Q741 638 752 649Q763 660 787 660H900Q913 660 922 656.5Q931 653 937 646L1045 516Q1049 512 1052 503.5Q1055 495 1055 485Z" glyph-name="Edotaccent" horiz-adv-x="1016" unicode="&#278;" /><glyph d="M335 311V153Q335 129 324 118Q313 107 289 107H162Q149 107 140 110.5Q131 114 125 121L16 250Q12 255 9.5 263.5Q7 272 7 282V440Q7 464 18 475Q29 486 53 486H180Q193 486 202 482.5Q211 479 217 472L325 342Q329 338 332 329.5Q335 321 335 311ZM1055 485V173Q1055 99 1039 49.5Q1023 0 995 -29.5Q967 -59 927.5 -71Q888 -83 841 -83H570Q519 -83 477 -68.5Q435 -54 407 -20L298 109Q273 138 259.5 185.5Q246 233 246 302V614Q246 638 257 649Q268 660 292 660H405Q418 660 427 656.5Q436 653 442 646L508 567Q513 573 522 576Q531 579 544 579H639Q652 579 661 575.5Q670 572 676 565L741 487V614Q741 638 752 649Q763 660 787 660H900Q913 660 922 656.5Q931 653 937 646L1045 516Q1049 512 1052 503.5Q1055 495 1055 485Z" glyph-name="Edotaccent.salt" horiz-adv-x="1008" unicode="&#57617;" /><glyph d="M266 11H170Q157 11 148.5 14.5Q140 18 134 25L25 154Q21 160 19 167.5Q17 175 18 185L61 534Q64 558 74 568.5Q84 579 107 579H203Q216 579 224.5 575.5Q233 572 239 565L347 436Q351 431 353.5 423Q356 415 355 405L312 56Q309 32 299 21.5Q289 11 266 11ZM1067 485V-33Q1067 -57 1056 -68Q1045 -79 1021 -79H413Q400 -79 391 -75.5Q382 -72 376 -65L267 64Q263 69 260.5 77.5Q258 86 258 96V614Q258 638 269 649Q280 660 304 660H417Q430 660 439 656.5Q448 653 454 646L520 567Q525 573 534 576Q543 579 556 579H651Q664 579 673 575.5Q682 572 688 565L753 487V614Q753 638 764 649Q775 660 799 660H912Q925 660 934 656.5Q943 653 949 646L1057 516Q1061 512 1064 503.5Q1067 495 1067 485Z" glyph-name="Egrave" horiz-adv-x="1028" unicode="&#200;" /><glyph d="M266 11H170Q157 11 148.5 14.5Q140 18 134 25L25 154Q21 160 19 167.5Q17 175 18 185L61 534Q64 558 74 568.5Q84 579 107 579H203Q216 579 224.5 575.5Q233 572 239 565L347 436Q351 431 353.5 423Q356 415 355 405L312 56Q309 32 299 21.5Q289 11 266 11ZM1067 485V173Q1067 99 1051 49.5Q1035 0 1007 -29.5Q979 -59 939.5 -71Q900 -83 853 -83H582Q531 -83 489 -68.5Q447 -54 419 -20L310 109Q285 138 271.5 185.5Q258 233 258 302V614Q258 638 269 649Q280 660 304 660H417Q430 660 439 656.5Q448 653 454 646L520 567Q525 573 534 576Q543 579 556 579H651Q664 579 673 575.5Q682 572 688 565L753 487V614Q753 638 764 649Q775 660 799 660H912Q925 660 934 656.5Q943 653 949 646L1057 516Q1061 512 1064 503.5Q1067 495 1067 485Z" glyph-name="Egrave.salt" horiz-adv-x="1020" unicode="&#57611;" /><glyph d="M326 404V57Q326 33 315 22Q304 11 280 11H187Q174 11 165 14.5Q156 18 150 25L41 154Q37 159 34.5 167.5Q32 176 32 186V533Q32 557 43 568Q54 579 78 579H171Q184 579 193 575.5Q202 572 208 565L316 435Q320 431 323 422.5Q326 414 326 404ZM1046 485V-33Q1046 -57 1035 -68Q1024 -79 1000 -79H392Q379 -79 370 -75.5Q361 -72 355 -65L246 64Q242 69 239.5 77.5Q237 86 237 96V614Q237 638 248 649Q259 660 283 660H396Q409 660 418 656.5Q427 653 433 646L499 567Q504 573 513 576Q522 579 535 579H630Q643 579 652 575.5Q661 572 667 565L732 487V614Q732 638 743 649Q754 660 778 660H891Q904 660 913 656.5Q922 653 928 646L1036 516Q1040 512 1043 503.5Q1046 495 1046 485Z" glyph-name="Emacron" horiz-adv-x="1007" unicode="&#274;" /><glyph d="M326 404V57Q326 33 315 22Q304 11 280 11H187Q174 11 165 14.5Q156 18 150 25L41 154Q37 159 34.5 167.5Q32 176 32 186V533Q32 557 43 568Q54 579 78 579H171Q184 579 193 575.5Q202 572 208 565L316 435Q320 431 323 422.5Q326 414 326 404ZM1046 485V173Q1046 99 1030 49.5Q1014 0 986 -29.5Q958 -59 918.5 -71Q879 -83 832 -83H561Q510 -83 468 -68.5Q426 -54 398 -20L289 109Q264 138 250.5 185.5Q237 233 237 302V614Q237 638 248 649Q259 660 283 660H396Q409 660 418 656.5Q427 653 433 646L499 567Q504 573 513 576Q522 579 535 579H630Q643 579 652 575.5Q661 572 667 565L732 487V614Q732 638 743 649Q754 660 778 660H891Q904 660 913 656.5Q922 653 928 646L1036 516Q1040 512 1043 503.5Q1046 495 1046 485Z" glyph-name="Emacron.salt" horiz-adv-x="999" unicode="&#57615;" /><glyph d="M856 -79H380Q333 -79 294 -66Q255 -53 227 -19L118 111Q90 145 73.5 205.5Q57 266 57 360Q57 454 73 514.5Q89 575 117 609.5Q145 644 184.5 657Q224 670 271 670H668Q719 670 760.5 655.5Q802 641 831 607L939 477Q964 448 978 400.5Q992 353 992 285V240Q992 216 981 205Q970 194 946 194H857L893 151Q897 145 899.5 137Q902 129 902 119V-33Q902 -57 891 -68Q880 -79 856 -79Z" glyph-name="Eng" horiz-adv-x="930" unicode="&#330;" /><glyph d="M879 -33Q879 -57 868 -68Q857 -79 833 -79H225Q212 -79 203 -75.5Q194 -72 188 -65L79 64Q75 69 72.5 77.5Q70 86 70 96V614Q70 638 81 649Q92 660 116 660H229Q242 660 251 656.5Q260 653 266 646L332 567Q337 573 346 576Q355 579 368 579H463Q476 579 485 575.5Q494 572 500 565L565 487V614Q565 638 576 649Q587 660 611 660H724Q737 660 746 656.5Q755 653 761 646L796 604V614Q796 641 805.5 650.5Q815 660 840 660H912Q925 660 934 657Q943 654 948 649L1057 518Q1061 514 1063 506Q1065 498 1065 488V377Q1065 308 1030 281.5Q995 255 918 266L879 273Z" glyph-name="Eogonek" horiz-adv-x="963" unicode="&#280;" /><glyph d="M871 173Q871 99 855 49.5Q839 0 811 -29.5Q783 -59 743.5 -71Q704 -83 657 -83H386Q335 -83 293 -68.5Q251 -54 223 -20L114 109Q89 138 75.5 185.5Q62 233 62 302V614Q62 638 73 649Q84 660 108 660H221Q234 660 243 656.5Q252 653 258 646L324 567Q329 573 338 576Q347 579 360 579H455Q468 579 477 575.5Q486 572 492 565L557 487V614Q557 638 568 649Q579 660 603 660H716Q729 660 738 656.5Q747 653 753 646L788 604V614Q788 641 797.5 650.5Q807 660 832 660H904Q917 660 926 657Q935 654 940 649L1049 518Q1053 514 1055 506Q1057 498 1057 488V377Q1057 308 1022 281.5Q987 255 910 266L871 273Z" glyph-name="Eogonek.salt" horiz-adv-x="955" unicode="&#57618;" /><glyph d="M919 -33Q919 -57 908 -68Q897 -79 873 -79H654V-92Q654 -116 643.5 -127Q633 -138 608 -138H501Q488 -138 479 -134.5Q470 -131 464 -124L426 -79H225Q212 -79 203 -75.5Q194 -72 188 -65L79 64Q75 69 72.5 77.5Q70 86 70 96V414Q70 488 86 537.5Q102 587 130 616.5Q158 646 197.5 658Q237 670 284 670H596Q646 670 687.5 655.5Q729 641 757 607L866 478Q891 448 905 401Q919 354 919 285Z" glyph-name="Eth" horiz-adv-x="880" unicode="&#208;" /><glyph d="M540 -29Q540 -47 533.5 -55Q527 -63 507 -63H435Q424 -63 417.5 -60.5Q411 -58 407 -53L383 -25Q336 -24 297 -9Q258 6 231 38L122 167Q97 196 83.5 243.5Q70 291 70 360V604Q70 628 81 639Q92 650 116 650H227Q240 650 249 646.5Q258 643 264 636L340 546H398Q408 546 414 543.5Q420 541 424 537L452 504V512Q452 530 459 538Q466 546 486 546H558Q568 546 574 543.5Q580 541 584 537L609 507V604Q609 628 620 639Q631 650 655 650H764Q777 650 786 646.5Q795 643 801 636L909 506Q913 502 916 493.5Q919 485 919 475V231Q919 157 903 107.5Q887 58 859 28.5Q831 -1 791.5 -13Q752 -25 705 -25H700V-29Q700 -47 693.5 -55Q687 -63 667 -63H595Q584 -63 577.5 -60.5Q571 -58 567 -53L543 -25H540Z" glyph-name="Euro" horiz-adv-x="880" unicode="&#8364;" /><glyph d="M920 124V-32Q920 -56 908.5 -67Q897 -78 873 -78H225Q212 -78 203 -74.5Q194 -71 188 -64L79 66Q75 71 72.5 79.5Q70 88 70 98V616Q70 640 81 651Q92 662 116 662H235Q248 662 257 658.5Q266 655 272 648L365 536Q365 559 376 570Q387 581 411 581H531Q544 581 553 577.5Q562 574 568 567L676 437Q680 433 683 424.5Q686 416 686 406V299H764Q777 299 786.5 295Q796 291 802 284L910 155Q914 150 917 142Q920 134 920 124Z" glyph-name="F" horiz-adv-x="856" unicode="F" /><glyph d="M906 495V172Q906 98 890 48.5Q874 -1 846 -30.5Q818 -60 778.5 -72Q739 -84 692 -84H380Q330 -84 288 -70Q246 -56 218 -22L110 107Q85 137 71 184.5Q57 232 57 301V559Q57 583 68 594Q79 605 103 605H224Q237 605 246 601.5Q255 598 261 591L369 461Q373 457 376 448.5Q379 440 379 430V292H549Q554 292 559.5 292.5Q565 293 569 294H551Q538 294 529 297.5Q520 301 514 308L405 437Q401 442 398.5 450.5Q396 459 396 469V624Q396 648 407 659Q418 670 442 670H751Q764 670 773 666.5Q782 663 788 656L896 526Q900 522 903 513.5Q906 505 906 495Z" glyph-name="G" horiz-adv-x="859" unicode="G" /><glyph d="M866 495V172Q866 98 850 48.5Q834 -1 806 -30.5Q778 -60 738.5 -72Q699 -84 652 -84H380Q330 -84 288 -70Q246 -56 218 -22L110 107Q85 137 71 184.5Q57 232 57 301V559Q57 583 68 594Q79 605 103 605H224Q237 605 246 601.5Q255 598 261 591L369 461Q373 457 376 448.5Q379 440 379 430V292H509Q514 292 519.5 292.5Q525 293 529 294Q516 295 507.5 298Q499 301 494 308L385 437Q381 442 378.5 450.5Q376 459 376 469V624Q376 648 387 659Q398 670 422 670H711Q724 670 733 666.5Q742 663 748 656L856 526Q860 522 863 513.5Q866 505 866 495Z" glyph-name="G.s" horiz-adv-x="819" /><glyph d="M369 231Q369 162 357.5 117.5Q346 73 326 48Q306 23 277.5 13.5Q249 4 216 4H172Q159 4 150 7.5Q141 11 135 18L26 147Q22 152 19.5 160.5Q17 169 17 179V275Q17 296 25.5 305Q34 314 58 314H79Q86 314 91.5 318Q97 322 99 332L24 422L25 421Q21 425 19 432Q17 439 17 450V541Q17 565 28 576Q39 587 63 587H107Q140 587 168 577.5Q196 568 216 543L324 414Q345 389 357 345Q369 301 369 231ZM1083 495V172Q1083 98 1067 48.5Q1051 -1 1023 -30.5Q995 -60 955.5 -72Q916 -84 869 -84H597Q547 -84 505 -70Q463 -56 435 -22L327 107Q302 137 288 184.5Q274 232 274 301V559Q274 583 285 594Q296 605 320 605H441Q454 605 463 601.5Q472 598 478 591L586 461Q590 457 593 448.5Q596 440 596 430V292H726Q731 292 736.5 292.5Q742 293 746 294Q733 295 724.5 298Q716 301 711 308L602 437Q598 442 595.5 450.5Q593 459 593 469V624Q593 648 604 659Q615 670 639 670H928Q941 670 950 666.5Q959 663 965 656L1073 526Q1077 522 1080 513.5Q1083 505 1083 495Z" glyph-name="Gbreve" horiz-adv-x="1036" unicode="&#286;" /><glyph d="M315 11H234Q215 11 205 14.5Q195 18 188 25L79 156L80 155Q75 160 71 168.5Q67 177 63 188L17 315Q13 325 10.5 336.5Q8 348 7 358Q7 368 8 377Q9 386 13 393L63 531Q74 561 84 570Q94 579 125 579H206Q222 579 232 576Q242 573 246 569L247 568L355 438Q359 433 359.5 423Q360 413 356 395L316 258Q312 242 312 230Q312 218 316 202L356 65Q366 32 358.5 21.5Q351 11 315 11ZM1073 495V172Q1073 98 1057 48.5Q1041 -1 1013 -30.5Q985 -60 945.5 -72Q906 -84 859 -84H587Q537 -84 495 -70Q453 -56 425 -22L317 107Q292 137 278 184.5Q264 232 264 301V559Q264 583 275 594Q286 605 310 605H431Q444 605 453 601.5Q462 598 468 591L576 461Q580 457 583 448.5Q586 440 586 430V292H716Q721 292 726.5 292.5Q732 293 736 294Q723 295 714.5 298Q706 301 701 308L592 437Q588 442 585.5 450.5Q583 459 583 469V624Q583 648 594 659Q605 670 629 670H918Q931 670 940 666.5Q949 663 955 656L1063 526Q1067 522 1070 513.5Q1073 505 1073 495Z" glyph-name="Gcircumflex" horiz-adv-x="1026" unicode="&#284;" /><glyph d="M866 495V172Q866 98 850 48.5Q834 -1 806 -30.5Q778 -60 738.5 -72Q699 -84 652 -84H380Q330 -84 288 -70Q246 -56 218 -22L110 107Q85 137 71 184.5Q57 232 57 301V559Q57 583 68 594Q79 605 103 605H224Q237 605 246 601.5Q255 598 261 591L369 461Q373 457 376 448.5Q379 440 379 430V292H509Q514 292 519.5 292.5Q525 293 529 294Q516 295 507.5 298Q499 301 494 308L385 437Q381 442 378.5 450.5Q376 459 376 469V624Q376 648 387 659Q398 670 422 670H711Q724 670 733 666.5Q742 663 748 656L856 526Q860 522 863 513.5Q866 505 866 495ZM1074 153Q1074 127 1063.5 116.5Q1053 106 1025 106H946Q930 106 920 109Q910 112 904 119L796 249Q792 254 789.5 262Q787 270 787 282V440Q787 466 797.5 476.5Q808 487 837 487H949Q986 487 1013.5 475.5Q1041 464 1058 444L1167 315Q1181 298 1188.5 274.5Q1196 251 1196 223V157Q1196 136 1186.5 126.5Q1177 117 1155 117H1131Q1118 117 1110.5 120Q1103 123 1099 129L1074 159Z" glyph-name="Gcommaaccent" horiz-adv-x="1089" unicode="&#290;" /><glyph d="M335 311V153Q335 129 324 118Q313 107 289 107H162Q149 107 140 110.5Q131 114 125 121L16 250Q12 255 9.5 263.5Q7 272 7 282V440Q7 464 18 475Q29 486 53 486H180Q193 486 202 482.5Q211 479 217 472L325 342Q329 338 332 329.5Q335 321 335 311ZM1055 495V172Q1055 98 1039 48.5Q1023 -1 995 -30.5Q967 -60 927.5 -72Q888 -84 841 -84H569Q519 -84 477 -70Q435 -56 407 -22L299 107Q274 137 260 184.5Q246 232 246 301V559Q246 583 257 594Q268 605 292 605H413Q426 605 435 601.5Q444 598 450 591L558 461Q562 457 565 448.5Q568 440 568 430V292H698Q703 292 708.5 292.5Q714 293 718 294Q705 295 696.5 298Q688 301 683 308L574 437Q570 442 567.5 450.5Q565 459 565 469V624Q565 648 576 659Q587 670 611 670H900Q913 670 922 666.5Q931 663 937 656L1045 526Q1049 522 1052 513.5Q1055 505 1055 495Z" glyph-name="Gdotaccent" horiz-adv-x="1008" unicode="&#288;" /><glyph d="M880 188 909 153Q913 149 916 140.5Q919 132 919 122V-33Q919 -57 908 -68Q897 -79 873 -79H225Q212 -79 203 -75.5Q194 -72 188 -65L79 65Q75 70 72.5 78Q70 86 70 96V452Q70 545 125.5 584.5Q181 624 273 606L355 590Q365 627 404.5 653.5Q444 680 511 680H634Q677 680 710.5 665Q744 650 768 622L877 493Q897 470 908 436Q919 402 919 362V234Q919 212 909.5 200.5Q900 189 880 188Z" glyph-name="Germandbls" horiz-adv-x="880" unicode="&#7838;" /><glyph d="M788 283 896 153Q900 149 903 140.5Q906 132 906 122V-33Q906 -57 895 -68Q884 -79 860 -79H212Q199 -79 190 -75.5Q181 -72 175 -65L66 64Q62 69 59.5 77.5Q57 86 57 96V251Q57 275 68 286Q79 297 103 297H191Q186 298 182 301Q178 304 175 308L66 437Q62 442 59.5 450.5Q57 459 57 469V624Q57 648 68 659Q79 670 103 670H751Q764 670 773 666.5Q782 663 788 656L896 526Q900 522 903 513.5Q906 505 906 495V340Q906 316 895 305Q884 294 860 294H772Q777 293 781 290Q785 287 788 283Z" glyph-name="H" horiz-adv-x="854" unicode="H" /><glyph d="M748 283 856 153Q860 149 863 140.5Q866 132 866 122V-33Q866 -57 855 -68Q844 -79 820 -79H212Q199 -79 190 -75.5Q181 -72 175 -65L66 64Q62 69 59.5 77.5Q57 86 57 96V251Q57 275 68 286Q79 297 103 297H191Q186 298 182 301Q178 304 175 308L66 437Q62 442 59.5 450.5Q57 459 57 469V624Q57 648 68 659Q79 670 103 670H711Q724 670 733 666.5Q742 663 748 656L856 526Q860 522 863 513.5Q866 505 866 495V340Q866 316 855 305Q844 294 820 294H732Q737 293 741 290Q745 287 748 283Z" glyph-name="H.s" horiz-adv-x="814" /><glyph d="M801 279 909 149Q913 145 916 136.5Q919 128 919 118V-34Q919 -58 908 -69Q897 -80 873 -80H494V-83Q494 -107 483.5 -118Q473 -129 448 -129H351Q338 -129 329 -125.5Q320 -122 314 -115L284 -80H225Q212 -80 203 -76.5Q194 -73 188 -66L79 63Q75 68 72.5 76.5Q70 85 70 95V247Q70 271 81 282Q92 293 116 293H196V304Q193 305 191 307.5Q189 310 188 311L79 440Q75 445 72.5 453.5Q70 462 70 472V624Q70 648 81 659Q92 670 116 670H196V673Q196 697 206.5 708Q217 719 242 719H339Q352 719 361 715.5Q370 712 376 705L406 670H764Q777 670 786 666.5Q795 663 801 656L909 526Q913 522 916 513.5Q919 505 919 495V343Q919 319 908 308Q897 297 873 297H771V293Q781 292 788.5 288.5Q796 285 801 279Z" glyph-name="Hbar" horiz-adv-x="880" unicode="&#294;" /><glyph d="M955 283 1063 153Q1067 149 1070 140.5Q1073 132 1073 122V-33Q1073 -57 1062 -68Q1051 -79 1027 -79H419Q406 -79 397 -75.5Q388 -72 382 -65L273 64Q269 69 266.5 77.5Q264 86 264 96V251Q264 275 275 286Q286 297 310 297H398Q393 298 389 301Q385 304 382 308L273 437Q269 442 266.5 450.5Q264 459 264 469V624Q264 648 275 659Q286 670 310 670H918Q931 670 940 666.5Q949 663 955 656L1063 526Q1067 522 1070 513.5Q1073 505 1073 495V340Q1073 316 1062 305Q1051 294 1027 294H939Q944 293 948 290Q952 287 955 283ZM315 11H234Q215 11 205 14.5Q195 18 188 25L79 156L80 155Q75 160 71 168.5Q67 177 63 188L17 315Q13 325 10.5 336.5Q8 348 7 358Q7 368 8 377Q9 386 13 393L63 531Q74 561 84 570Q94 579 125 579H206Q222 579 232 576Q242 573 246 569L247 568L355 438Q359 433 359.5 423Q360 413 356 395L316 258Q312 242 312 230Q312 218 316 202L356 65Q366 32 358.5 21.5Q351 11 315 11Z" glyph-name="Hcircumflex" horiz-adv-x="1021" unicode="&#292;" /><glyph d="M801 647 909 517Q913 513 916 504.5Q919 496 919 486V-24Q919 -48 908 -59Q897 -70 873 -70H754Q741 -70 732 -66.5Q723 -63 717 -56L608 73Q604 77 602 84Q600 91 599 100H392V-24Q392 -48 381 -59Q370 -70 346 -70H225Q212 -70 203 -66.5Q194 -63 188 -56L79 73Q75 78 72.5 86.5Q70 95 70 105V615Q70 639 81 650Q92 661 116 661H237Q250 661 259 657.5Q268 654 274 647L382 517L381 518Q385 514 388 507Q391 500 392 491H599V615Q599 639 610 650Q621 661 645 661H764Q777 661 786 657.5Q795 654 801 647Z" glyph-name="I" horiz-adv-x="880" unicode="I" /><glyph d="M761 647 869 517Q873 513 876 504.5Q879 496 879 486V-24Q879 -48 868 -59Q857 -70 833 -70H714Q701 -70 692 -66.5Q683 -63 677 -56L568 73Q564 77 562 84Q560 91 559 100H392V-24Q392 -48 381 -59Q370 -70 346 -70H225Q212 -70 203 -66.5Q194 -63 188 -56L79 73Q75 78 72.5 86.5Q70 95 70 105V615Q70 639 81 650Q92 661 116 661H237Q250 661 259 657.5Q268 654 274 647L382 517L381 518Q385 514 388 507Q391 500 392 491H559V615Q559 639 570 650Q581 661 605 661H724Q737 661 746 657.5Q755 654 761 647Z" glyph-name="I.s" horiz-adv-x="840" /><glyph d="M894 310V151Q894 127 883 116Q872 105 848 105H200Q187 105 178 108.5Q169 112 163 119L54 248Q50 253 47.5 261.5Q45 270 45 280V439Q45 463 56 474Q67 485 91 485H739Q752 485 761 481.5Q770 478 776 471L884 341Q888 337 891 328.5Q894 320 894 310Z" glyph-name="I.salt" horiz-adv-x="830" unicode="&#57620;" /><glyph d="M854 310V151Q854 127 843 116Q832 105 808 105H200Q187 105 178 108.5Q169 112 163 119L54 248Q50 253 47.5 261.5Q45 270 45 280V439Q45 463 56 474Q67 485 91 485H699Q712 485 721 481.5Q730 478 736 471L844 341Q848 337 851 328.5Q854 320 854 310Z" glyph-name="I.salt_s" horiz-adv-x="790" /><glyph d="M906 318V-33Q906 -57 895 -68Q884 -79 860 -79H739Q726 -79 717 -75.5Q708 -72 702 -65L593 64Q589 69 586.5 77.5Q584 86 584 96V294H442Q447 293 451 290Q455 287 458 283L566 153Q570 149 573 140.5Q576 132 576 122V-33Q576 -57 565 -68Q554 -79 530 -79H212Q199 -79 190 -75.5Q181 -72 175 -65L66 64Q62 69 59.5 77.5Q57 86 57 96V251Q57 275 68 286Q79 297 103 297H185L175 308L66 437Q62 442 59.5 450.5Q57 459 57 469V624Q57 648 68 659Q79 670 103 670H577Q634 670 677 651.5Q720 633 748 599L857 470Q880 442 893 403.5Q906 365 906 318Z" glyph-name="IJ" horiz-adv-x="859" unicode="&#306;" /><glyph d="M854 310V151Q854 127 843 116Q832 105 808 105H200Q187 105 178 108.5Q169 112 163 119L54 248Q50 253 47.5 261.5Q45 270 45 280V439Q45 463 56 474Q67 485 91 485H699Q712 485 721 481.5Q730 478 736 471L844 341Q848 337 851 328.5Q854 320 854 310ZM1415 -78H1253Q1240 -78 1230.5 -74.5Q1221 -71 1216 -65L1107 65Q1103 70 1100.5 78Q1098 86 1098 97V242Q1098 266 1108.5 277Q1119 288 1144 288H965Q952 288 943 291.5Q934 295 928 302L814 436Q810 441 807.5 449.5Q805 458 805 468V625Q805 649 816 660Q827 671 851 671H1306Q1352 671 1391.5 657.5Q1431 644 1459 610L1567 481Q1596 447 1612.5 386Q1629 325 1629 229Q1629 135 1613 74.5Q1597 14 1569 -19.5Q1541 -53 1501.5 -65.5Q1462 -78 1415 -78Z" glyph-name="IJ.salt" horiz-adv-x="1567" unicode="&#57654;" /><glyph d="M761 647 869 517Q873 513 876 504.5Q879 496 879 486V-24Q879 -48 868 -59Q857 -70 833 -70H714Q701 -70 692 -66.5Q683 -63 677 -56L568 73Q564 77 562 84Q560 91 559 100H392V-24Q392 -48 381 -59Q370 -70 346 -70H225Q212 -70 203 -66.5Q194 -63 188 -56L79 73Q75 78 72.5 86.5Q70 95 70 105V615Q70 639 81 650Q92 661 116 661H237Q250 661 259 657.5Q268 654 274 647L382 517L381 518Q385 514 388 507Q391 500 392 491H559V615Q559 639 570 650Q581 661 605 661H724Q737 661 746 657.5Q755 654 761 647ZM1460 -79H1298Q1285 -79 1275.5 -75.5Q1266 -72 1261 -66L1152 64Q1148 69 1145.5 77Q1143 85 1143 96V241Q1143 265 1153.5 276Q1164 287 1189 287H1010Q997 287 988 290.5Q979 294 973 301L859 435Q855 440 852.5 448.5Q850 457 850 467V624Q850 648 861 659Q872 670 896 670H1351Q1397 670 1436.5 656.5Q1476 643 1504 609L1612 480Q1641 446 1657.5 385Q1674 324 1674 228Q1674 134 1658 73.5Q1642 13 1614 -20.5Q1586 -54 1546.5 -66.5Q1507 -79 1460 -79Z" glyph-name="IJ.stack" horiz-adv-x="1624" unicode="&#57655;" /><glyph d="M788 283 896 153Q900 149 903 140.5Q906 132 906 122V-33Q906 -57 895 -68Q884 -79 860 -79H212Q199 -79 190 -75.5Q181 -72 175 -65L66 64Q62 69 59.5 77.5Q57 86 57 96V251Q57 275 68 286Q79 297 103 297H191Q186 298 182 301Q178 304 175 308L66 437Q62 442 59.5 450.5Q57 459 57 469V624Q57 648 68 659Q79 670 103 670H751Q764 670 773 666.5Q782 663 788 656L896 526Q900 522 903 513.5Q906 505 906 495V340Q906 316 895 305Q884 294 860 294H772Q777 293 781 290Q785 287 788 283Z" glyph-name="I_I.salt" horiz-adv-x="854" /><glyph d="M949 647 1057 517Q1061 513 1064 504.5Q1067 496 1067 486V-24Q1067 -48 1056 -59Q1045 -70 1021 -70H902Q889 -70 880 -66.5Q871 -63 865 -56L756 73Q752 77 750 84Q748 91 747 100H580V-24Q580 -48 569 -59Q558 -70 534 -70H413Q400 -70 391 -66.5Q382 -63 376 -56L267 73Q263 78 260.5 86.5Q258 95 258 105V615Q258 639 269 650Q280 661 304 661H425Q438 661 447 657.5Q456 654 462 647L570 517L569 518Q573 514 576 507Q579 500 580 491H747V615Q747 639 758 650Q769 661 793 661H912Q925 661 934 657.5Q943 654 949 647ZM354 56Q357 34 345.5 22.5Q334 11 311 11H215Q202 11 193.5 14.5Q185 18 180 24L71 154Q67 158 64 166.5Q61 175 60 185L17 534Q14 556 25.5 567.5Q37 579 60 579H156Q169 579 178 575.5Q187 572 191 565L300 436Q304 431 306.5 423Q309 415 311 405Z" glyph-name="Iacute" horiz-adv-x="1028" unicode="&#205;" /><glyph d="M354 56Q357 34 345.5 22.5Q334 11 311 11H215Q202 11 193.5 14.5Q185 18 180 24L71 154Q67 158 64 166.5Q61 175 60 185L17 534Q14 556 25.5 567.5Q37 579 60 579H156Q169 579 178 575.5Q187 572 191 565L300 436Q304 431 306.5 423Q309 415 311 405ZM1067 310V151Q1067 127 1056 116Q1045 105 1021 105H413Q400 105 391 108.5Q382 112 376 119L267 248Q263 253 260.5 261.5Q258 270 258 280V439Q258 463 269 474Q280 485 304 485H912Q925 485 934 481.5Q943 478 949 471L1057 341Q1061 337 1064 328.5Q1067 320 1067 310Z" glyph-name="Iacute.salt" horiz-adv-x="1003" unicode="&#57622;" /><glyph d="M369 231Q369 162 357.5 117.5Q346 73 326 48Q306 23 277.5 13.5Q249 4 216 4H172Q159 4 150 7.5Q141 11 135 18L26 147Q22 152 19.5 160.5Q17 169 17 179V275Q17 296 25.5 305Q34 314 58 314H79Q86 314 91.5 318Q97 322 99 332L24 422L25 421Q21 425 19 432Q17 439 17 450V541Q17 565 28 576Q39 587 63 587H107Q140 587 168 577.5Q196 568 216 543L324 414Q345 389 357 345Q369 301 369 231ZM965 647 1073 517Q1077 513 1080 504.5Q1083 496 1083 486V-24Q1083 -48 1072 -59Q1061 -70 1037 -70H918Q905 -70 896 -66.5Q887 -63 881 -56L772 73Q768 77 766 84Q764 91 763 100H596V-24Q596 -48 585 -59Q574 -70 550 -70H429Q416 -70 407 -66.5Q398 -63 392 -56L283 73Q279 78 276.5 86.5Q274 95 274 105V615Q274 639 285 650Q296 661 320 661H441Q454 661 463 657.5Q472 654 478 647L586 517L585 518Q589 514 592 507Q595 500 596 491H763V615Q763 639 774 650Q785 661 809 661H928Q941 661 950 657.5Q959 654 965 647Z" glyph-name="Ibreve" horiz-adv-x="1044" unicode="&#300;" /><glyph d="M369 231Q369 162 357.5 117.5Q346 73 326 48Q306 23 277.5 13.5Q249 4 216 4H172Q159 4 150 7.5Q141 11 135 18L26 147Q22 152 19.5 160.5Q17 169 17 179V275Q17 296 25.5 305Q34 314 58 314H79Q86 314 91.5 318Q97 322 99 332L24 422L25 421Q21 425 19 432Q17 439 17 450V541Q17 565 28 576Q39 587 63 587H107Q140 587 168 577.5Q196 568 216 543L324 414Q345 389 357 345Q369 301 369 231ZM1083 310V151Q1083 127 1072 116Q1061 105 1037 105H429Q416 105 407 108.5Q398 112 392 119L283 248Q279 253 276.5 261.5Q274 270 274 280V439Q274 463 285 474Q296 485 320 485H928Q941 485 950 481.5Q959 478 965 471L1073 341Q1077 337 1080 328.5Q1083 320 1083 310Z" glyph-name="Ibreve.salt" horiz-adv-x="1019" unicode="&#57627;" /><glyph d="M315 11H234Q215 11 205 14.5Q195 18 188 25L79 156L80 155Q75 160 71 168.5Q67 177 63 188L17 315Q13 325 10.5 336.5Q8 348 7 358Q7 368 8 377Q9 386 13 393L63 531Q74 561 84 570Q94 579 125 579H206Q222 579 232 576Q242 573 246 569L247 568L355 438Q359 433 359.5 423Q360 413 356 395L316 258Q312 242 312 230Q312 218 316 202L356 65Q366 32 358.5 21.5Q351 11 315 11ZM955 647 1063 517Q1067 513 1070 504.5Q1073 496 1073 486V-24Q1073 -48 1062 -59Q1051 -70 1027 -70H908Q895 -70 886 -66.5Q877 -63 871 -56L762 73Q758 77 756 84Q754 91 753 100H586V-24Q586 -48 575 -59Q564 -70 540 -70H419Q406 -70 397 -66.5Q388 -63 382 -56L273 73Q269 78 266.5 86.5Q264 95 264 105V615Q264 639 275 650Q286 661 310 661H431Q444 661 453 657.5Q462 654 468 647L576 517L575 518Q579 514 582 507Q585 500 586 491H753V615Q753 639 764 650Q775 661 799 661H918Q931 661 940 657.5Q949 654 955 647Z" glyph-name="Icircumflex" horiz-adv-x="1034" unicode="&#206;" /><glyph d="M315 11H234Q215 11 205 14.5Q195 18 188 25L79 156L80 155Q75 160 71 168.5Q67 177 63 188L17 315Q13 325 10.5 336.5Q8 348 7 358Q7 368 8 377Q9 386 13 393L63 531Q74 561 84 570Q94 579 125 579H206Q222 579 232 576Q242 573 246 569L247 568L355 438Q359 433 359.5 423Q360 413 356 395L316 258Q312 242 312 230Q312 218 316 202L356 65Q366 32 358.5 21.5Q351 11 315 11ZM1073 310V151Q1073 127 1062 116Q1051 105 1027 105H419Q406 105 397 108.5Q388 112 382 119L273 248Q269 253 266.5 261.5Q264 270 264 280V439Q264 463 275 474Q286 485 310 485H918Q931 485 940 481.5Q949 478 955 471L1063 341Q1067 337 1070 328.5Q1073 320 1073 310Z" glyph-name="Icircumflex.salt" horiz-adv-x="1009" unicode="&#57623;" /><glyph d="M299 246 338 199Q343 194 345.5 186.5Q348 179 348 169V31Q348 9 337.5 -2Q327 -13 305 -13H184Q171 -13 163 -9.5Q155 -6 150 0L41 129Q37 134 34.5 142Q32 150 32 160V298Q32 320 42.5 330.5Q53 341 75 341H81L41 388Q37 393 34.5 400.5Q32 408 32 418V556Q32 578 42.5 588.5Q53 599 75 599H196Q208 599 216.5 595.5Q225 592 230 586L338 457Q343 452 345.5 444.5Q348 437 348 427V289Q348 267 337.5 256.5Q327 246 305 246ZM950 647 1058 517Q1062 513 1065 504.5Q1068 496 1068 486V-24Q1068 -48 1057 -59Q1046 -70 1022 -70H903Q890 -70 881 -66.5Q872 -63 866 -56L757 73Q753 77 751 84Q749 91 748 100H581V-24Q581 -48 570 -59Q559 -70 535 -70H414Q401 -70 392 -66.5Q383 -63 377 -56L268 73Q264 78 261.5 86.5Q259 95 259 105V615Q259 639 270 650Q281 661 305 661H426Q439 661 448 657.5Q457 654 463 647L571 517L570 518Q574 514 577 507Q580 500 581 491H748V615Q748 639 759 650Q770 661 794 661H913Q926 661 935 657.5Q944 654 950 647Z" glyph-name="Idieresis" horiz-adv-x="1029" unicode="&#207;" /><glyph d="M299 246 338 199Q343 194 345.5 186.5Q348 179 348 169V31Q348 9 337.5 -2Q327 -13 305 -13H184Q171 -13 163 -9.5Q155 -6 150 0L41 129Q37 134 34.5 142Q32 150 32 160V298Q32 320 42.5 330.5Q53 341 75 341H81L41 388Q37 393 34.5 400.5Q32 408 32 418V556Q32 578 42.5 588.5Q53 599 75 599H196Q208 599 216.5 595.5Q225 592 230 586L338 457Q343 452 345.5 444.5Q348 437 348 427V289Q348 267 337.5 256.5Q327 246 305 246ZM1068 310V151Q1068 127 1057 116Q1046 105 1022 105H414Q401 105 392 108.5Q383 112 377 119L268 248Q264 253 261.5 261.5Q259 270 259 280V439Q259 463 270 474Q281 485 305 485H913Q926 485 935 481.5Q944 478 950 471L1058 341Q1062 337 1065 328.5Q1068 320 1068 310Z" glyph-name="Idieresis.salt" horiz-adv-x="1004" unicode="&#57624;" /><glyph d="M335 311V153Q335 129 324 118Q313 107 289 107H162Q149 107 140 110.5Q131 114 125 121L16 250Q12 255 9.5 263.5Q7 272 7 282V440Q7 464 18 475Q29 486 53 486H180Q193 486 202 482.5Q211 479 217 472L325 342Q329 338 332 329.5Q335 321 335 311ZM937 647 1045 517Q1049 513 1052 504.5Q1055 496 1055 486V-24Q1055 -48 1044 -59Q1033 -70 1009 -70H890Q877 -70 868 -66.5Q859 -63 853 -56L744 73Q740 77 738 84Q736 91 735 100H568V-24Q568 -48 557 -59Q546 -70 522 -70H401Q388 -70 379 -66.5Q370 -63 364 -56L255 73Q251 78 248.5 86.5Q246 95 246 105V615Q246 639 257 650Q268 661 292 661H413Q426 661 435 657.5Q444 654 450 647L558 517L557 518Q561 514 564 507Q567 500 568 491H735V615Q735 639 746 650Q757 661 781 661H900Q913 661 922 657.5Q931 654 937 647Z" glyph-name="Idotaccent" horiz-adv-x="1016" unicode="&#304;" /><glyph d="M335 311V153Q335 129 324 118Q313 107 289 107H162Q149 107 140 110.5Q131 114 125 121L16 250Q12 255 9.5 263.5Q7 272 7 282V440Q7 464 18 475Q29 486 53 486H180Q193 486 202 482.5Q211 479 217 472L325 342Q329 338 332 329.5Q335 321 335 311ZM1055 310V151Q1055 127 1044 116Q1033 105 1009 105H401Q388 105 379 108.5Q370 112 364 119L255 248Q251 253 248.5 261.5Q246 270 246 280V439Q246 463 257 474Q268 485 292 485H900Q913 485 922 481.5Q931 478 937 471L1045 341Q1049 337 1052 328.5Q1055 320 1055 310Z" glyph-name="Idotaccent.salt" horiz-adv-x="991" unicode="&#57629;" /><glyph d="M266 11H170Q157 11 148.5 14.5Q140 18 134 25L25 154Q21 160 19 167.5Q17 175 18 185L61 534Q64 558 74 568.5Q84 579 107 579H203Q216 579 224.5 575.5Q233 572 239 565L347 436Q351 431 353.5 423Q356 415 355 405L312 56Q309 32 299 21.5Q289 11 266 11ZM949 647 1057 517Q1061 513 1064 504.5Q1067 496 1067 486V-24Q1067 -48 1056 -59Q1045 -70 1021 -70H902Q889 -70 880 -66.5Q871 -63 865 -56L756 73Q752 77 750 84Q748 91 747 100H580V-24Q580 -48 569 -59Q558 -70 534 -70H413Q400 -70 391 -66.5Q382 -63 376 -56L267 73Q263 78 260.5 86.5Q258 95 258 105V615Q258 639 269 650Q280 661 304 661H425Q438 661 447 657.5Q456 654 462 647L570 517L569 518Q573 514 576 507Q579 500 580 491H747V615Q747 639 758 650Q769 661 793 661H912Q925 661 934 657.5Q943 654 949 647Z" glyph-name="Igrave" horiz-adv-x="1028" unicode="&#204;" /><glyph d="M266 11H170Q157 11 148.5 14.5Q140 18 134 25L25 154Q21 160 19 167.5Q17 175 18 185L61 534Q64 558 74 568.5Q84 579 107 579H203Q216 579 224.5 575.5Q233 572 239 565L347 436Q351 431 353.5 423Q356 415 355 405L312 56Q309 32 299 21.5Q289 11 266 11ZM1067 310V151Q1067 127 1056 116Q1045 105 1021 105H413Q400 105 391 108.5Q382 112 376 119L267 248Q263 253 260.5 261.5Q258 270 258 280V439Q258 463 269 474Q280 485 304 485H912Q925 485 934 481.5Q943 478 949 471L1057 341Q1061 337 1064 328.5Q1067 320 1067 310Z" glyph-name="Igrave.salt" horiz-adv-x="1003" unicode="&#57621;" /><glyph d="M326 404V57Q326 33 315 22Q304 11 280 11H187Q174 11 165 14.5Q156 18 150 25L41 154Q37 159 34.5 167.5Q32 176 32 186V533Q32 557 43 568Q54 579 78 579H171Q184 579 193 575.5Q202 572 208 565L316 435Q320 431 323 422.5Q326 414 326 404ZM928 647 1036 517Q1040 513 1043 504.5Q1046 496 1046 486V-24Q1046 -48 1035 -59Q1024 -70 1000 -70H881Q868 -70 859 -66.5Q850 -63 844 -56L735 73Q731 77 729 84Q727 91 726 100H559V-24Q559 -48 548 -59Q537 -70 513 -70H392Q379 -70 370 -66.5Q361 -63 355 -56L246 73Q242 78 239.5 86.5Q237 95 237 105V615Q237 639 248 650Q259 661 283 661H404Q417 661 426 657.5Q435 654 441 647L549 517L548 518Q552 514 555 507Q558 500 559 491H726V615Q726 639 737 650Q748 661 772 661H891Q904 661 913 657.5Q922 654 928 647Z" glyph-name="Imacron" horiz-adv-x="1007" unicode="&#298;" /><glyph d="M326 404V57Q326 33 315 22Q304 11 280 11H187Q174 11 165 14.5Q156 18 150 25L41 154Q37 159 34.5 167.5Q32 176 32 186V533Q32 557 43 568Q54 579 78 579H171Q184 579 193 575.5Q202 572 208 565L316 435Q320 431 323 422.5Q326 414 326 404ZM1046 310V151Q1046 127 1035 116Q1024 105 1000 105H392Q379 105 370 108.5Q361 112 355 119L246 248Q242 253 239.5 261.5Q237 270 237 280V439Q237 463 248 474Q259 485 283 485H891Q904 485 913 481.5Q922 478 928 471L1036 341Q1040 337 1043 328.5Q1046 320 1046 310Z" glyph-name="Imacron.salt" horiz-adv-x="982" unicode="&#57626;" /><glyph d="M392 -24Q392 -48 381 -59Q370 -70 346 -70H225Q212 -70 203 -66.5Q194 -63 188 -56L79 73Q75 78 72.5 86.5Q70 95 70 105V615Q70 639 81 650Q92 661 116 661H237Q250 661 259 657.5Q268 654 274 647L382 517L381 518Q385 514 388 507Q391 500 392 491H559V615Q559 639 570 650Q581 661 605 661H724Q737 661 746 657.5Q755 654 761 647L796 605V615Q796 642 805.5 651.5Q815 661 840 661H912Q925 661 934 658Q943 655 948 650L1057 519Q1061 515 1063 507Q1065 499 1065 489V378Q1065 309 1030 282.5Q995 256 918 267L879 274V-24Q879 -48 868 -59Q857 -70 833 -70H714Q701 -70 692 -66.5Q683 -63 677 -56L568 73Q564 77 562 84Q560 91 559 100H392Z" glyph-name="Iogonek" horiz-adv-x="963" unicode="&#302;" /><glyph d="M1040 198Q1040 129 1005 102.5Q970 76 893 87L794 105H200Q187 105 178 108.5Q169 112 163 119L54 248Q50 253 47.5 261.5Q45 270 45 280V439Q45 463 56 474Q67 485 91 485H699Q712 485 721 481.5Q730 478 736 471L771 429V435Q771 462 780.5 471.5Q790 481 815 481H887Q900 481 909 478Q918 475 923 470L1032 339Q1036 335 1038 327Q1040 319 1040 309Z" glyph-name="Iogonek.salt" horiz-adv-x="938" unicode="&#57628;" /><glyph d="M331 406Q338 382 341.5 365Q345 348 345 332Q345 316 342.5 296Q340 276 336 245L334 229L330 201Q326 173 324.5 155Q323 137 324.5 122Q326 107 329.5 93Q333 79 339 60Q346 35 337 23Q328 11 303 11H202Q189 11 180.5 14.5Q172 18 165 26L57 155Q53 159 49.5 166.5Q46 174 43 182V183H42Q35 207 31.5 223.5Q28 240 28 256.5Q28 273 30.5 292.5Q33 312 37 343L39 360L42 382Q47 414 49 433Q51 452 50 466Q49 480 45 494Q41 508 34 529Q27 554 36 566Q45 578 70 578H171Q184 578 192.5 574Q201 570 207 563L316 433Q320 429 323.5 422Q327 415 330 407V406ZM939 647 1047 517Q1051 513 1054 504.5Q1057 496 1057 486V-24Q1057 -48 1046 -59Q1035 -70 1011 -70H892Q879 -70 870 -66.5Q861 -63 855 -56L746 73Q742 77 740 84Q738 91 737 100H570V-24Q570 -48 559 -59Q548 -70 524 -70H403Q390 -70 381 -66.5Q372 -63 366 -56L257 73Q253 78 250.5 86.5Q248 95 248 105V615Q248 639 259 650Q270 661 294 661H415Q428 661 437 657.5Q446 654 452 647L560 517L559 518Q563 514 566 507Q569 500 570 491H737V615Q737 639 748 650Q759 661 783 661H902Q915 661 924 657.5Q933 654 939 647Z" glyph-name="Itilde" horiz-adv-x="1018" unicode="&#296;" /><glyph d="M331 406Q338 382 341.5 365Q345 348 345 332Q345 316 342.5 296Q340 276 336 245L334 229L330 201Q326 173 324.5 155Q323 137 324.5 122Q326 107 329.5 93Q333 79 339 60Q346 35 337 23Q328 11 303 11H202Q189 11 180.5 14.5Q172 18 165 26L57 155Q53 159 49.5 166.5Q46 174 43 182V183H42Q35 207 31.5 223.5Q28 240 28 256.5Q28 273 30.5 292.5Q33 312 37 343L39 360L42 382Q47 414 49 433Q51 452 50 466Q49 480 45 494Q41 508 34 529Q27 554 36 566Q45 578 70 578H171Q184 578 192.5 574Q201 570 207 563L316 433Q320 429 323.5 422Q327 415 330 407V406ZM1057 310V151Q1057 127 1046 116Q1035 105 1011 105H403Q390 105 381 108.5Q372 112 366 119L257 248Q253 253 250.5 261.5Q248 270 248 280V439Q248 463 259 474Q270 485 294 485H902Q915 485 924 481.5Q933 478 939 471L1047 341Q1051 337 1054 328.5Q1057 320 1057 310Z" glyph-name="Itilde.salt" horiz-adv-x="993" unicode="&#57625;" /><glyph d="M695 -79H533Q520 -79 510.5 -75.5Q501 -72 496 -66L387 64Q383 69 380.5 77Q378 85 378 96V241Q378 265 388.5 276Q399 287 424 287H204Q191 287 182 290.5Q173 294 167 301L54 435Q50 440 47.5 448.5Q45 457 45 467V624Q45 648 56 659Q67 670 91 670H586Q632 670 671.5 656.5Q711 643 739 609L848 480Q877 446 893.5 385Q910 324 910 228Q910 134 894 73.5Q878 13 849.5 -20.5Q821 -54 781.5 -66.5Q742 -79 695 -79Z" glyph-name="J" horiz-adv-x="848" unicode="J" /><glyph d="M655 -79H493Q480 -79 470.5 -75.5Q461 -72 456 -66L347 64Q343 69 340.5 77Q338 85 338 96V241Q338 265 348.5 276Q359 287 384 287H205Q192 287 183 290.5Q174 294 168 301L54 435Q50 440 47.5 448.5Q45 457 45 467V624Q45 648 56 659Q67 670 91 670H546Q592 670 631.5 656.5Q671 643 699 609L807 480Q836 446 852.5 385Q869 324 869 228Q869 134 853 73.5Q837 13 809 -20.5Q781 -54 741.5 -66.5Q702 -79 655 -79Z" glyph-name="J.s" horiz-adv-x="807" /><glyph d="M315 101H234Q215 101 205 104.5Q195 108 188 115L79 246L80 245Q75 250 71 258.5Q67 267 63 278L17 405Q13 415 10.5 426.5Q8 438 7 448Q7 458 8 467Q9 476 13 483L63 621Q74 651 84 660Q94 669 125 669H206Q222 669 232 666Q242 663 246 659L247 658L355 528Q359 523 359.5 513Q360 503 356 485L316 348Q312 332 312 320Q312 308 316 292L356 155Q366 122 358.5 111.5Q351 101 315 101ZM874 -79H712Q699 -79 689.5 -75.5Q680 -72 675 -66L566 64Q562 69 559.5 77Q557 85 557 96V241Q557 265 567.5 276Q578 287 603 287H424Q411 287 402 290.5Q393 294 387 301L273 435Q269 440 266.5 448.5Q264 457 264 467V624Q264 648 275 659Q286 670 310 670H765Q811 670 850.5 656.5Q890 643 918 609L1026 480Q1055 446 1071.5 385Q1088 324 1088 228Q1088 134 1072 73.5Q1056 13 1028 -20.5Q1000 -54 960.5 -66.5Q921 -79 874 -79Z" glyph-name="Jcircumflex" horiz-adv-x="1026" unicode="&#308;" /><glyph d="M788 284 896 154Q900 150 903 141.5Q906 133 906 123V-32Q906 -56 895 -67Q884 -78 860 -78H212Q199 -78 190 -74.5Q181 -71 175 -64L66 65Q62 70 59.5 78.5Q57 87 57 97V252Q57 276 68 287Q79 298 103 298H175L69 423Q63 430 60 440.5Q57 451 57 464V618Q57 643 69.5 651Q82 659 104 649L324 553Q331 607 370 639Q409 671 469 671H751Q764 671 773 667.5Q782 664 788 657L896 527Q900 523 903 514.5Q906 506 906 496V342Q906 318 895 307Q884 296 860 296H769Q775 295 779.5 291.5Q784 288 788 284Z" glyph-name="K" horiz-adv-x="854" unicode="K" /><glyph d="M748 283 856 153Q860 149 863 140.5Q866 132 866 122V-33Q866 -57 855 -68Q844 -79 820 -79H212Q199 -79 190 -75.5Q181 -72 175 -65L66 64Q62 69 59.5 77.5Q57 86 57 96V251Q57 275 68 286Q79 297 103 297H175L69 422Q63 429 60 439.5Q57 450 57 463V617Q57 642 69.5 650Q82 658 104 648L304 552Q311 606 350 638Q389 670 449 670H711Q724 670 733 666.5Q742 663 748 656L856 526Q860 522 863 513.5Q866 505 866 495V341Q866 317 855 306Q844 295 820 295H729Q735 294 739.5 290.5Q744 287 748 283Z" glyph-name="K.s" horiz-adv-x="814" /><glyph d="M748 283 856 153Q860 149 863 140.5Q866 132 866 122V-33Q866 -57 855 -68Q844 -79 820 -79H212Q199 -79 190 -75.5Q181 -72 175 -65L66 64Q62 69 59.5 77.5Q57 86 57 96V251Q57 275 68 286Q79 297 103 297H175L69 422Q63 429 60 439.5Q57 450 57 463V617Q57 642 69.5 650Q82 658 104 648L304 552Q311 606 350 638Q389 670 449 670H711Q724 670 733 666.5Q742 663 748 656L856 526Q860 522 863 513.5Q866 505 866 495V341Q866 317 855 306Q844 295 820 295H729Q735 294 739.5 290.5Q744 287 748 283ZM1074 153Q1074 127 1063.5 116.5Q1053 106 1025 106H946Q930 106 920 109Q910 112 904 119L796 249Q792 254 789.5 262Q787 270 787 282V440Q787 466 797.5 476.5Q808 487 837 487H949Q986 487 1013.5 475.5Q1041 464 1058 444L1167 315Q1181 298 1188.5 274.5Q1196 251 1196 223V157Q1196 136 1186.5 126.5Q1177 117 1155 117H1131Q1118 117 1110.5 120Q1103 123 1099 129L1074 159Z" glyph-name="Kcommaaccent" horiz-adv-x="1089" unicode="&#310;" /><glyph d="M894 496V-32Q894 -56 883 -67Q872 -78 848 -78H200Q187 -78 178 -74.5Q169 -71 163 -64L54 65Q50 70 47.5 78.5Q45 87 45 97V252Q45 276 56 287Q67 298 91 298H576V308H532Q519 308 510 311.5Q501 315 495 322L387 448Q383 453 380.5 461.5Q378 470 378 480V625Q378 649 389 660Q400 671 424 671H739Q752 671 761 667.5Q770 664 776 657L884 527Q888 523 891 514.5Q894 506 894 496Z" glyph-name="L" horiz-adv-x="855" unicode="L" /><glyph d="M854 495V-33Q854 -57 843 -68Q832 -79 808 -79H200Q187 -79 178 -75.5Q169 -72 163 -65L54 64Q50 69 47.5 77.5Q45 86 45 96V251Q45 275 56 286Q67 297 91 297H536V307H500Q487 307 478 310.5Q469 314 463 321L357 447Q353 452 350.5 460.5Q348 469 348 479V624Q348 648 359 659Q370 670 394 670H699Q712 670 721 666.5Q730 663 736 656L844 526Q848 522 851 513.5Q854 505 854 495Z" glyph-name="L.s" horiz-adv-x="815" /><glyph d="M894 490V-28Q894 -52 883 -63Q872 -74 848 -74H200Q187 -74 178 -70.5Q169 -67 163 -60L54 69Q50 74 47.5 82.5Q45 91 45 101V256Q45 280 56 291Q67 302 91 302H572V619Q572 643 583 654Q594 665 618 665H739Q752 665 761 661.5Q770 658 776 651L884 521Q888 517 891 508.5Q894 500 894 490Z" glyph-name="L.salt" horiz-adv-x="855" unicode="&#57630;" /><glyph d="M854 490V-28Q854 -52 843 -63Q832 -74 808 -74H200Q187 -74 178 -70.5Q169 -67 163 -60L54 69Q50 74 47.5 82.5Q45 91 45 101V256Q45 280 56 291Q67 302 91 302H532V619Q532 643 543 654Q554 665 578 665H699Q712 665 721 661.5Q730 658 736 651L844 521Q848 517 851 508.5Q854 500 854 490Z" glyph-name="L.salt_s" horiz-adv-x="815" /><glyph d="M354 -34Q357 -56 345.5 -67.5Q334 -79 311 -79H215Q202 -79 193.5 -75.5Q185 -72 180 -66L71 64Q67 68 64 76.5Q61 85 60 95L17 444Q14 466 25.5 477.5Q37 489 60 489H156Q169 489 178 485.5Q187 482 191 475L300 346Q304 341 306.5 333Q309 325 311 315ZM1067 495V-33Q1067 -57 1056 -68Q1045 -79 1021 -79H413Q400 -79 391 -75.5Q382 -72 376 -65L267 64Q263 69 260.5 77.5Q258 86 258 96V251Q258 275 269 286Q280 297 304 297H749V307H713Q700 307 691 310.5Q682 314 676 321L570 447Q566 452 563.5 460.5Q561 469 561 479V624Q561 648 572 659Q583 670 607 670H912Q925 670 934 666.5Q943 663 949 656L1057 526Q1061 522 1064 513.5Q1067 505 1067 495Z" glyph-name="Lacute" horiz-adv-x="1028" unicode="&#313;" /><glyph d="M354 -34Q357 -56 345.5 -67.5Q334 -79 311 -79H215Q202 -79 193.5 -75.5Q185 -72 180 -66L71 64Q67 68 64 76.5Q61 85 60 95L17 444Q14 466 25.5 477.5Q37 489 60 489H156Q169 489 178 485.5Q187 482 191 475L300 346Q304 341 306.5 333Q309 325 311 315ZM1067 490V-28Q1067 -52 1056 -63Q1045 -74 1021 -74H413Q400 -74 391 -70.5Q382 -67 376 -60L267 69Q263 74 260.5 82.5Q258 91 258 101V256Q258 280 269 291Q280 302 304 302H745V619Q745 643 756 654Q767 665 791 665H912Q925 665 934 661.5Q943 658 949 651L1057 521Q1061 517 1064 508.5Q1067 500 1067 490Z" glyph-name="Lacute.salt" horiz-adv-x="1000" unicode="&#57631;" /><glyph d="M906 496V-32Q906 -56 895 -67Q884 -78 860 -78H212Q199 -78 190 -74.5Q181 -71 175 -64L66 65Q62 70 59.5 78.5Q57 87 57 97V252Q57 276 68 287Q79 298 103 298H588V308H544Q531 308 522 311.5Q513 315 507 322L399 448Q395 453 392.5 461.5Q390 470 390 480V625Q390 649 401 660Q412 671 436 671H751Q764 671 773 667.5Q782 664 788 657L896 527Q900 523 903 514.5Q906 506 906 496ZM454 466V342Q454 317 442 304.5Q430 292 406 296L211 329Q198 331 189 334.5Q180 338 174 345L66 474Q62 479 59.5 486.5Q57 494 57 504V642Q57 667 70 680Q83 693 105 688L301 641Q314 638 322.5 634Q331 630 337 624L445 495H444Q449 491 451.5 483.5Q454 476 454 466Z" glyph-name="Lcaron" horiz-adv-x="867" unicode="&#317;" /><glyph d="M906 490V-28Q906 -52 895 -63Q884 -74 860 -74H212Q199 -74 190 -70.5Q181 -67 175 -60L66 69Q62 74 59.5 82.5Q57 91 57 101V256Q57 280 68 291Q79 302 103 302H584V619Q584 643 595 654Q606 665 630 665H751Q764 665 773 661.5Q782 658 788 651L896 521Q900 517 903 508.5Q906 500 906 490ZM454 466V342Q454 317 442 304.5Q430 292 406 296L211 329Q198 331 189 334.5Q180 338 174 345L66 474Q62 479 59.5 486.5Q57 494 57 504V642Q57 667 70 680Q83 693 105 688L301 641Q314 638 322.5 634Q331 630 337 624L445 495H444Q449 491 451.5 483.5Q454 476 454 466Z" glyph-name="Lcaron.salt" horiz-adv-x="867" unicode="&#57633;" /><glyph d="M854 495V-33Q854 -57 843 -68Q832 -79 808 -79H200Q187 -79 178 -75.5Q169 -72 163 -65L54 64Q50 69 47.5 77.5Q45 86 45 96V251Q45 275 56 286Q67 297 91 297H536V307H500Q487 307 478 310.5Q469 314 463 321L357 447Q353 452 350.5 460.5Q348 469 348 479V624Q348 648 359 659Q370 670 394 670H699Q712 670 721 666.5Q730 663 736 656L844 526Q848 522 851 513.5Q854 505 854 495ZM1062 153Q1062 127 1051.5 116.5Q1041 106 1013 106H934Q918 106 908 109Q898 112 892 119L784 249Q780 254 777.5 262Q775 270 775 282V440Q775 466 785.5 476.5Q796 487 825 487H937Q974 487 1001.5 475.5Q1029 464 1046 444L1155 315Q1169 298 1176.5 274.5Q1184 251 1184 223V157Q1184 136 1174.5 126.5Q1165 117 1143 117H1119Q1106 117 1098.5 120Q1091 123 1087 129L1062 159Z" glyph-name="Lcommaaccent" horiz-adv-x="1077" unicode="&#315;" /><glyph d="M854 495V-33Q854 -57 843 -68Q832 -79 808 -79H200Q187 -79 178 -75.5Q169 -72 163 -65L54 64Q50 69 47.5 77.5Q45 86 45 96V251Q45 275 56 286Q67 297 91 297H536V307H500Q487 307 478 310.5Q469 314 463 321L357 447Q353 452 350.5 460.5Q348 469 348 479V624Q348 648 359 659Q370 670 394 670H699Q712 670 721 666.5Q730 663 736 656L844 526Q848 522 851 513.5Q854 505 854 495ZM1062 153Q1062 127 1051.5 116.5Q1041 106 1013 106H934Q918 106 908 109Q898 112 892 119L784 249Q780 254 777.5 262Q775 270 775 282V440Q775 466 785.5 476.5Q796 487 825 487H937Q974 487 1001.5 475.5Q1029 464 1046 444L1155 315Q1169 298 1176.5 274.5Q1184 251 1184 223V157Q1184 136 1174.5 126.5Q1165 117 1143 117H1119Q1106 117 1098.5 120Q1091 123 1087 129L1062 159Z" glyph-name="Lcommaaccent.salt" horiz-adv-x="1077" unicode="&#57632;" /><glyph d="M854 -33Q854 -57 843 -68Q832 -79 808 -79H200Q187 -79 178 -75.5Q169 -72 163 -65L54 64Q50 69 47.5 77.5Q45 86 45 96V251Q45 275 56 286Q67 297 91 297H536V307H500Q487 307 478 310.5Q469 314 463 321L357 447Q353 452 350.5 460.5Q348 469 348 479V624Q348 648 359 659Q370 670 394 670H699Q712 670 721 666.5Q730 663 736 656L844 526Q848 522 850.5 516Q853 510 854 502H959Q972 502 981 498.5Q990 495 996 488L1104 358Q1108 354 1111 345.5Q1114 337 1114 327V169Q1114 145 1103 134Q1092 123 1068 123H941Q928 123 919 126.5Q910 130 904 137L854 196Z" glyph-name="Ldot" horiz-adv-x="1012" unicode="&#319;" /><glyph d="M854 490V-28Q854 -52 843 -63Q832 -74 808 -74H200Q187 -74 178 -70.5Q169 -67 163 -60L54 69Q50 74 47.5 82.5Q45 91 45 101V256Q45 280 56 291Q67 302 91 302H532V619Q532 643 543 654Q554 665 578 665H699Q712 665 721 661.5Q730 658 736 651L844 521Q848 517 851 508.5Q854 500 854 490ZM1114 327V169Q1114 145 1103 134Q1092 123 1068 123H941Q928 123 919 126.5Q910 130 904 137L795 266Q791 271 788.5 279.5Q786 288 786 298V456Q786 480 797 491Q808 502 832 502H959Q972 502 981 498.5Q990 495 996 488L1104 358Q1108 354 1111 345.5Q1114 337 1114 327Z" glyph-name="Ldot.salt" horiz-adv-x="1012" unicode="&#57634;" /><glyph d="M609 -89Q613 -113 601 -125Q589 -137 563 -137H456Q446 -137 436.5 -134Q427 -131 421 -124L383 -78H200Q187 -78 178 -74.5Q169 -71 163 -64L54 65Q50 70 47.5 78.5Q45 87 45 97V252Q45 276 56 287Q67 298 91 298H260L253 344Q249 368 261 380Q273 392 299 392H404Q414 392 424 389.5Q434 387 440 380L508 298H576V308H532Q519 308 510 311.5Q501 315 495 322L387 448Q383 453 380.5 461.5Q378 470 378 480V625Q378 649 389 660Q400 671 424 671H739Q752 671 761 667.5Q770 664 776 657L884 527Q888 523 891 514.5Q894 506 894 496V-32Q894 -56 883 -67Q872 -78 848 -78H607Z" glyph-name="Lslash" horiz-adv-x="855" unicode="&#321;" /><glyph d="M609 -89Q613 -113 601 -125Q589 -137 563 -137H456Q446 -137 436.5 -134Q427 -131 421 -124L380 -74H200Q187 -74 178 -70.5Q169 -67 163 -60L54 69Q50 74 47.5 82.5Q45 91 45 101V256Q45 280 56 291Q67 302 91 302H260L253 344Q249 368 261 380Q273 392 299 392H404Q414 392 424 389.5Q434 387 440 380L505 302H572V619Q572 643 583 654Q594 665 618 665H739Q752 665 761 661.5Q770 658 776 651L884 521Q888 517 891 508.5Q894 500 894 490V-28Q894 -52 883 -63Q872 -74 848 -74H607Z" glyph-name="Lslash.salt" horiz-adv-x="855" unicode="&#57635;" /><glyph d="M860 -100 212 -96Q199 -96 190 -92.5Q181 -89 175 -82L66 47Q62 52 59.5 60.5Q57 69 57 79V210Q57 232 65 252.5Q73 273 92 284H93L185 321L180 326L73 455Q65 464 61 475.5Q57 487 57 503V643Q57 668 68 678.5Q79 689 103 689L751 693Q764 693 773 689.5Q782 686 788 679L897 550Q901 544 903.5 536Q906 528 906 518V367Q906 343 895 332Q884 321 860 321L630 317L662 279Q667 274 670.5 267.5Q674 261 675 254L751 253Q764 253 773 249.5Q782 246 788 239L896 109Q900 105 903 96.5Q906 88 906 78V-54Q906 -78 895 -89Q884 -100 860 -100Z" glyph-name="M" horiz-adv-x="854" unicode="M" /><glyph d="M875 -128H380Q324 -128 280 -113.5Q236 -99 208 -66L100 64Q80 88 68.5 124Q57 160 57 210Q57 264 69 301Q81 338 102 359L97 365Q78 388 67.5 423Q57 458 57 509Q57 627 116 672.5Q175 718 271 718H766Q779 718 788 714.5Q797 711 803 704L911 574Q915 570 918 561.5Q921 553 921 543V426Q921 401 910 390.5Q899 380 875 380H861L911 320Q915 316 918 307.5Q921 299 921 289V172Q921 148 910 137Q899 126 875 126H862L912 67Q916 61 918.5 53Q921 45 921 35V-82Q921 -106 910 -117Q899 -128 875 -128Z" glyph-name="M.salt" horiz-adv-x="882" unicode="&#57636;" /><glyph d="M788 278 896 148Q900 144 903 135.5Q906 127 906 117V-33Q906 -57 895 -68Q884 -79 860 -79H212Q199 -79 190 -75.5Q181 -72 175 -65L66 64Q62 69 59.5 77.5Q57 86 57 96V200Q57 222 64 237Q71 252 88 267L163 327L66 443Q62 448 59.5 456.5Q57 465 57 475V625Q57 649 68 660Q79 671 103 671H751Q764 671 773 667.5Q782 664 788 657L896 527Q900 523 903 514.5Q906 506 906 496V346Q906 322 895 311Q884 300 860 300H740L730 292H751Q764 292 773 288.5Q782 285 788 278Z" glyph-name="N" horiz-adv-x="854" unicode="N" /><glyph d="M748 278 856 148Q860 144 863 135.5Q866 127 866 117V-33Q866 -57 855 -68Q844 -79 820 -79H212Q199 -79 190 -75.5Q181 -72 175 -65L66 64Q62 69 59.5 77.5Q57 86 57 96V200Q57 222 64 237Q71 252 87 266L160 331L66 443Q62 448 59.5 456.5Q57 465 57 475V625Q57 649 68 660Q79 671 103 671H711Q724 671 733 667.5Q742 664 748 657L856 527Q860 523 863 514.5Q866 506 866 496V346Q866 322 855 311Q844 300 820 300H721L711 292Q725 292 733.5 288.5Q742 285 748 278Z" glyph-name="N.s" horiz-adv-x="814" /><glyph d="M912 119V-33Q912 -57 900.5 -68Q889 -79 865 -79H370Q322 -79 282.5 -66.5Q243 -54 215 -20L107 109Q79 143 63 203Q47 263 47 360Q47 457 63 518Q79 579 107 612.5Q135 646 174.5 658Q214 670 261 670H756Q769 670 778.5 666Q788 662 794 655L902 526Q906 521 909 513Q912 505 912 495V338Q912 314 900.5 303Q889 292 865 292H774Q780 291 785 287.5Q790 284 794 280L902 150Q906 145 909 137Q912 129 912 119Z" glyph-name="N.salt" horiz-adv-x="860" unicode="&#57637;" /><glyph d="M825 -79H370Q322 -79 282.5 -66.5Q243 -54 215 -20L107 109Q79 143 63 203Q47 263 47 360Q47 457 63 518Q79 579 107 612.5Q135 646 174.5 658Q214 670 261 670H716Q729 670 738 666.5Q747 663 753 656L861 526Q865 522 868 513.5Q871 505 871 495V338Q871 314 860 303Q849 292 825 292H734Q740 291 744.5 287.5Q749 284 753 280L862 151Q866 145 868.5 137Q871 129 871 119V-33Q871 -57 860 -68Q849 -79 825 -79Z" glyph-name="N.salt_s" horiz-adv-x="819" /><glyph d="M354 56Q357 34 345.5 22.5Q334 11 311 11H215Q202 11 193.5 14.5Q185 18 180 24L71 154Q67 158 64 166.5Q61 175 60 185L17 534Q14 556 25.5 567.5Q37 579 60 579H156Q169 579 178 575.5Q187 572 191 565L300 436Q304 431 306.5 423Q309 415 311 405ZM949 278 1057 148Q1061 144 1064 135.5Q1067 127 1067 117V-33Q1067 -57 1056 -68Q1045 -79 1021 -79H413Q400 -79 391 -75.5Q382 -72 376 -65L267 64Q263 69 260.5 77.5Q258 86 258 96V200Q258 222 265 237Q272 252 288 266L361 331L267 443Q263 448 260.5 456.5Q258 465 258 475V625Q258 649 269 660Q280 671 304 671H912Q925 671 934 667.5Q943 664 949 657L1057 527Q1061 523 1064 514.5Q1067 506 1067 496V346Q1067 322 1056 311Q1045 300 1021 300H922L912 292Q926 292 934.5 288.5Q943 285 949 278Z" glyph-name="Nacute" horiz-adv-x="1015" unicode="&#323;" /><glyph d="M1021 -79H566Q518 -79 478.5 -66.5Q439 -54 411 -20L303 109Q275 143 259 203Q243 263 243 360Q243 457 259 518Q275 579 303 612.5Q331 646 370.5 658Q410 670 457 670H912Q925 670 934 666.5Q943 663 949 656L1057 526Q1061 522 1064 513.5Q1067 505 1067 495V338Q1067 314 1056 303Q1045 292 1021 292H930Q936 291 940.5 287.5Q945 284 949 280L1058 151Q1062 145 1064.5 137Q1067 129 1067 119V-33Q1067 -57 1056 -68Q1045 -79 1021 -79ZM354 56Q357 34 345.5 22.5Q334 11 311 11H215Q202 11 193.5 14.5Q185 18 180 24L71 154Q67 158 64 166.5Q61 175 60 185L17 534Q14 556 25.5 567.5Q37 579 60 579H156Q169 579 178 575.5Q187 572 191 565L300 436Q304 431 306.5 423Q309 415 311 405Z" glyph-name="Nacute.salt" horiz-adv-x="1015" unicode="&#57639;" /><glyph d="M255 11H174Q157 11 147 13.5Q137 16 133 22L24 151Q20 156 19.5 166.5Q19 177 24 195L64 332Q68 348 68 360Q68 372 64 388L24 525Q14 558 21.5 568.5Q29 579 65 579H146Q165 579 175 575Q185 571 192 563L301 434Q305 428 309 420.5Q313 413 317 403V402L363 275Q367 265 369.5 254Q372 243 373 233V232Q373 222 372 213Q371 204 367 197L317 59Q306 29 296 20Q286 11 255 11ZM965 278 1073 148Q1077 144 1080 135.5Q1083 127 1083 117V-33Q1083 -57 1072 -68Q1061 -79 1037 -79H429Q416 -79 407 -75.5Q398 -72 392 -65L283 64Q279 69 276.5 77.5Q274 86 274 96V200Q274 222 281 237Q288 252 304 266L377 331L283 443Q279 448 276.5 456.5Q274 465 274 475V625Q274 649 285 660Q296 671 320 671H928Q941 671 950 667.5Q959 664 965 657L1073 527Q1077 523 1080 514.5Q1083 506 1083 496V346Q1083 322 1072 311Q1061 300 1037 300H938L928 292Q942 292 950.5 288.5Q959 285 965 278Z" glyph-name="Ncaron" horiz-adv-x="1031" unicode="&#327;" /><glyph d="M255 11H174Q157 11 147 13.5Q137 16 133 22L24 151Q20 156 19.5 166.5Q19 177 24 195L64 332Q68 348 68 360Q68 372 64 388L24 525Q14 558 21.5 568.5Q29 579 65 579H146Q165 579 175 575Q185 571 192 563L301 434Q305 428 309 420.5Q313 413 317 403V402L363 275Q367 265 369.5 254Q372 243 373 233V232Q373 222 372 213Q371 204 367 197L317 59Q306 29 296 20Q286 11 255 11ZM1037 -79H582Q534 -79 494.5 -66.5Q455 -54 427 -20L319 109Q291 143 275 203Q259 263 259 360Q259 457 275 518Q291 579 319 612.5Q347 646 386.5 658Q426 670 473 670H928Q941 670 950 666.5Q959 663 965 656L1073 526Q1077 522 1080 513.5Q1083 505 1083 495V338Q1083 314 1072 303Q1061 292 1037 292H946Q952 291 956.5 287.5Q961 284 965 280L1074 151Q1078 145 1080.5 137Q1083 129 1083 119V-33Q1083 -57 1072 -68Q1061 -79 1037 -79Z" glyph-name="Ncaron.salt" horiz-adv-x="1031" unicode="&#57641;" /><glyph d="M748 278 856 148Q860 144 863 135.5Q866 127 866 117V-33Q866 -57 855 -68Q844 -79 820 -79H212Q199 -79 190 -75.5Q181 -72 175 -65L66 64Q62 69 59.5 77.5Q57 86 57 96V200Q57 222 64 237Q71 252 87 266L160 331L66 443Q62 448 59.5 456.5Q57 465 57 475V625Q57 649 68 660Q79 671 103 671H711Q724 671 733 667.5Q742 664 748 657L856 527Q860 523 863 514.5Q866 506 866 496V346Q866 322 855 311Q844 300 820 300H721L711 292Q725 292 733.5 288.5Q742 285 748 278ZM1074 153Q1074 127 1063.5 116.5Q1053 106 1025 106H946Q930 106 920 109Q910 112 904 119L796 249Q792 254 789.5 262Q787 270 787 282V440Q787 466 797.5 476.5Q808 487 837 487H949Q986 487 1013.5 475.5Q1041 464 1058 444L1167 315Q1181 298 1188.5 274.5Q1196 251 1196 223V157Q1196 136 1186.5 126.5Q1177 117 1155 117H1131Q1118 117 1110.5 120Q1103 123 1099 129L1074 159Z" glyph-name="Ncommaaccent" horiz-adv-x="1089" unicode="&#325;" /><glyph d="M653 280 670 260Q669 264 668 269.5Q667 275 667 282V292H634Q640 291 644.5 287.5Q649 284 653 280ZM771 -33Q771 -57 760 -68Q749 -79 725 -79H360Q312 -79 272.5 -66.5Q233 -54 205 -20L97 109Q69 143 53 203Q37 263 37 360Q37 457 53 518Q69 579 97 612.5Q125 646 164.5 658Q204 670 251 670H616Q629 670 638 666.5Q647 663 653 656L761 526Q765 522 768 513.5Q771 505 771 495V487H829Q866 487 893.5 475.5Q921 464 938 444L1047 315Q1061 298 1068.5 274.5Q1076 251 1076 223V157Q1076 136 1066.5 126.5Q1057 117 1035 117H1011Q998 117 990.5 120Q983 123 979 129L954 159V153Q954 127 943.5 116.5Q933 106 905 106H826Q810 106 800 109Q790 112 784 119L769 137Q770 134 770.5 129.5Q771 125 771 121Z" glyph-name="Ncommaaccent.salt" horiz-adv-x="982" unicode="&#57640;" /><glyph d="M331 406Q338 382 341.5 365Q345 348 345 332Q345 316 342.5 296Q340 276 336 245L334 229L330 201Q326 173 324.5 155Q323 137 324.5 122Q326 107 329.5 93Q333 79 339 60Q346 35 337 23Q328 11 303 11H202Q189 11 180.5 14.5Q172 18 165 26L57 155Q53 159 49.5 166.5Q46 174 43 182V183H42Q35 207 31.5 223.5Q28 240 28 256.5Q28 273 30.5 292.5Q33 312 37 343L39 360L42 382Q47 414 49 433Q51 452 50 466Q49 480 45 494Q41 508 34 529Q27 554 36 566Q45 578 70 578H171Q184 578 192.5 574Q201 570 207 563L316 433Q320 429 323.5 422Q327 415 330 407V406ZM939 278 1047 148Q1051 144 1054 135.5Q1057 127 1057 117V-33Q1057 -57 1046 -68Q1035 -79 1011 -79H403Q390 -79 381 -75.5Q372 -72 366 -65L257 64Q253 69 250.5 77.5Q248 86 248 96V200Q248 222 255 237Q262 252 278 266L351 331L257 443Q253 448 250.5 456.5Q248 465 248 475V625Q248 649 259 660Q270 671 294 671H902Q915 671 924 667.5Q933 664 939 657L1047 527Q1051 523 1054 514.5Q1057 506 1057 496V346Q1057 322 1046 311Q1035 300 1011 300H912L902 292Q916 292 924.5 288.5Q933 285 939 278Z" glyph-name="Ntilde" horiz-adv-x="1005" unicode="&#209;" /><glyph d="M331 406Q338 382 341.5 365Q345 348 345 332Q345 316 342.5 296Q340 276 336 245L334 229L330 201Q326 173 324.5 155Q323 137 324.5 122Q326 107 329.5 93Q333 79 339 60Q346 35 337 23Q328 11 303 11H202Q189 11 180.5 14.5Q172 18 165 26L57 155Q53 159 49.5 166.5Q46 174 43 182V183H42Q35 207 31.5 223.5Q28 240 28 256.5Q28 273 30.5 292.5Q33 312 37 343L39 360L42 382Q47 414 49 433Q51 452 50 466Q49 480 45 494Q41 508 34 529Q27 554 36 566Q45 578 70 578H171Q184 578 192.5 574Q201 570 207 563L316 433Q320 429 323.5 422Q327 415 330 407V406ZM1011 -79H556Q508 -79 468.5 -66.5Q429 -54 401 -20L293 109Q265 143 249 203Q233 263 233 360Q233 457 249 518Q265 579 293 612.5Q321 646 360.5 658Q400 670 447 670H902Q915 670 924 666.5Q933 663 939 656L1047 526Q1051 522 1054 513.5Q1057 505 1057 495V338Q1057 314 1046 303Q1035 292 1011 292H920Q926 291 930.5 287.5Q935 284 939 280L1048 151Q1052 145 1054.5 137Q1057 129 1057 119V-33Q1057 -57 1046 -68Q1035 -79 1011 -79Z" glyph-name="Ntilde.salt" horiz-adv-x="1005" unicode="&#57638;" /><glyph d="M864 484Q893 450 909.5 389Q926 328 926 231Q926 135 910 73.5Q894 12 866 -22.5Q838 -57 798.5 -70Q759 -83 712 -83H371Q324 -83 284.5 -70Q245 -57 217 -23L109 107Q80 141 63.5 202Q47 263 47 360Q47 456 63 517.5Q79 579 107.5 613.5Q136 648 175.5 661Q215 674 262 674H603Q649 674 688.5 661Q728 648 756 614ZM567 293Q577 293 584.5 297Q592 301 597 312H407Q397 312 389.5 308Q382 304 378 293Z" glyph-name="O" horiz-adv-x="864" unicode="O" /><glyph d="M824 484Q853 450 869.5 389Q886 328 886 231Q886 135 870 73.5Q854 12 826 -22.5Q798 -57 758.5 -70Q719 -83 672 -83H371Q324 -83 284.5 -70Q245 -57 217 -23L109 107Q80 141 63.5 202Q47 263 47 360Q47 456 63 517.5Q79 579 107.5 613.5Q136 648 175.5 661Q215 674 262 674H563Q609 674 648.5 661Q688 648 716 614ZM527 293Q537 293 544.5 297Q552 301 557 312H407Q397 312 389.5 308Q382 304 378 293Z" glyph-name="O.s" horiz-adv-x="824" /><glyph d="M919 516V156Q919 82 903 32.5Q887 -17 859 -46.5Q831 -76 791.5 -88Q752 -100 705 -100H393Q343 -100 301 -86Q259 -72 231 -38L123 91Q98 121 84 168.5Q70 216 70 285V645Q70 669 81 680Q92 691 116 691H233Q246 691 255 687.5Q264 684 270 677L336 598V644Q336 668 346.5 679Q357 690 382 690H489Q502 690 511 686.5Q520 683 526 676L601 587V645Q601 669 612 680Q623 691 647 691H764Q777 691 786 687.5Q795 684 801 677L909 547Q913 543 916 534.5Q919 526 919 516Z" glyph-name="OE" horiz-adv-x="880" unicode="&#338;" /><glyph d="M354 56Q357 34 345.5 22.5Q334 11 311 11H215Q202 11 193.5 14.5Q185 18 180 24L71 154Q67 158 64 166.5Q61 175 60 185L17 534Q14 556 25.5 567.5Q37 579 60 579H156Q169 579 178 575.5Q187 572 191 565L300 436Q304 431 306.5 423Q309 415 311 405ZM1020 484Q1049 450 1065.5 389Q1082 328 1082 231Q1082 135 1066 73.5Q1050 12 1022 -22.5Q994 -57 954.5 -70Q915 -83 868 -83H567Q520 -83 480.5 -70Q441 -57 413 -23L305 107Q276 141 259.5 202Q243 263 243 360Q243 456 259 517.5Q275 579 303.5 613.5Q332 648 371.5 661Q411 674 458 674H759Q805 674 844.5 661Q884 648 912 614ZM723 293Q733 293 740.5 297Q748 301 753 312H603Q593 312 585.5 308Q578 304 574 293Z" glyph-name="Oacute" horiz-adv-x="1020" unicode="&#211;" /><glyph d="M369 231Q369 162 357.5 117.5Q346 73 326 48Q306 23 277.5 13.5Q249 4 216 4H172Q159 4 150 7.5Q141 11 135 18L26 147Q22 152 19.5 160.5Q17 169 17 179V275Q17 296 25.5 305Q34 314 58 314H79Q86 314 91.5 318Q97 322 99 332L24 422L25 421Q21 425 19 432Q17 439 17 450V541Q17 565 28 576Q39 587 63 587H107Q140 587 168 577.5Q196 568 216 543L324 414Q345 389 357 345Q369 301 369 231ZM1036 484Q1065 450 1081.5 389Q1098 328 1098 231Q1098 135 1082 73.5Q1066 12 1038 -22.5Q1010 -57 970.5 -70Q931 -83 884 -83H583Q536 -83 496.5 -70Q457 -57 429 -23L321 107Q292 141 275.5 202Q259 263 259 360Q259 456 275 517.5Q291 579 319.5 613.5Q348 648 387.5 661Q427 674 474 674H775Q821 674 860.5 661Q900 648 928 614ZM739 293Q749 293 756.5 297Q764 301 769 312H619Q609 312 601.5 308Q594 304 590 293Z" glyph-name="Obreve" horiz-adv-x="1036" unicode="&#334;" /><glyph d="M315 11H234Q215 11 205 14.5Q195 18 188 25L79 156L80 155Q75 160 71 168.5Q67 177 63 188L17 315Q13 325 10.5 336.5Q8 348 7 358Q7 368 8 377Q9 386 13 393L63 531Q74 561 84 570Q94 579 125 579H206Q222 579 232 576Q242 573 246 569L247 568L355 438Q359 433 359.5 423Q360 413 356 395L316 258Q312 242 312 230Q312 218 316 202L356 65Q366 32 358.5 21.5Q351 11 315 11ZM1026 484Q1055 450 1071.5 389Q1088 328 1088 231Q1088 135 1072 73.5Q1056 12 1028 -22.5Q1000 -57 960.5 -70Q921 -83 874 -83H573Q526 -83 486.5 -70Q447 -57 419 -23L311 107Q282 141 265.5 202Q249 263 249 360Q249 456 265 517.5Q281 579 309.5 613.5Q338 648 377.5 661Q417 674 464 674H765Q811 674 850.5 661Q890 648 918 614ZM729 293Q739 293 746.5 297Q754 301 759 312H609Q599 312 591.5 308Q584 304 580 293Z" glyph-name="Ocircumflex" horiz-adv-x="1026" unicode="&#212;" /><glyph d="M299 246 338 199Q343 194 345.5 186.5Q348 179 348 169V31Q348 9 337.5 -2Q327 -13 305 -13H184Q171 -13 163 -9.5Q155 -6 150 0L41 129Q37 134 34.5 142Q32 150 32 160V298Q32 320 42.5 330.5Q53 341 75 341H81L41 388Q37 393 34.5 400.5Q32 408 32 418V556Q32 578 42.5 588.5Q53 599 75 599H196Q208 599 216.5 595.5Q225 592 230 586L338 457Q343 452 345.5 444.5Q348 437 348 427V289Q348 267 337.5 256.5Q327 246 305 246ZM1021 484Q1050 450 1066.5 389Q1083 328 1083 231Q1083 135 1067 73.5Q1051 12 1023 -22.5Q995 -57 955.5 -70Q916 -83 869 -83H568Q521 -83 481.5 -70Q442 -57 414 -23L306 107Q277 141 260.5 202Q244 263 244 360Q244 456 260 517.5Q276 579 304.5 613.5Q333 648 372.5 661Q412 674 459 674H760Q806 674 845.5 661Q885 648 913 614ZM724 293Q734 293 741.5 297Q749 301 754 312H604Q594 312 586.5 308Q579 304 575 293Z" glyph-name="Odieresis" horiz-adv-x="1021" unicode="&#214;" /><glyph d="M266 11H170Q157 11 148.5 14.5Q140 18 134 25L25 154Q21 160 19 167.5Q17 175 18 185L61 534Q64 558 74 568.5Q84 579 107 579H203Q216 579 224.5 575.5Q233 572 239 565L347 436Q351 431 353.5 423Q356 415 355 405L312 56Q309 32 299 21.5Q289 11 266 11ZM1020 484Q1049 450 1065.5 389Q1082 328 1082 231Q1082 135 1066 73.5Q1050 12 1022 -22.5Q994 -57 954.5 -70Q915 -83 868 -83H567Q520 -83 480.5 -70Q441 -57 413 -23L305 107Q276 141 259.5 202Q243 263 243 360Q243 456 259 517.5Q275 579 303.5 613.5Q332 648 371.5 661Q411 674 458 674H759Q805 674 844.5 661Q884 648 912 614ZM723 293Q733 293 740.5 297Q748 301 753 312H603Q593 312 585.5 308Q578 304 574 293Z" glyph-name="Ograve" horiz-adv-x="1020" unicode="&#210;" /><glyph d="M433 153V47Q433 23 420.5 11Q408 -1 387 4L180 57Q167 60 158.5 63.5Q150 67 144 74L35 204Q31 208 29 215Q27 222 27 232V338Q27 362 39.5 374.5Q52 387 73 381L113 371L35 464Q31 468 29 475Q27 482 27 492V598Q27 622 39.5 634.5Q52 647 73 641L280 588Q293 585 301.5 581Q310 577 316 571L424 442H423Q428 438 430.5 430.5Q433 423 433 413V307Q433 283 420.5 271Q408 259 387 264L346 275L424 182H423Q428 178 430.5 170.5Q433 163 433 153ZM1106 484Q1135 450 1151.5 389Q1168 328 1168 231Q1168 135 1152 73.5Q1136 12 1108 -22.5Q1080 -57 1040.5 -70Q1001 -83 954 -83H653Q606 -83 566.5 -70Q527 -57 499 -23L391 107Q362 141 345.5 202Q329 263 329 360Q329 456 345 517.5Q361 579 389.5 613.5Q418 648 457.5 661Q497 674 544 674H845Q891 674 930.5 661Q970 648 998 614ZM809 293Q819 293 826.5 297Q834 301 839 312H689Q679 312 671.5 308Q664 304 660 293Z" glyph-name="Ohungarumlaut" horiz-adv-x="1106" unicode="&#336;" /><glyph d="M326 404V57Q326 33 315 22Q304 11 280 11H187Q174 11 165 14.5Q156 18 150 25L41 154Q37 159 34.5 167.5Q32 176 32 186V533Q32 557 43 568Q54 579 78 579H171Q184 579 193 575.5Q202 572 208 565L316 435Q320 431 323 422.5Q326 414 326 404ZM999 484Q1028 450 1044.5 389Q1061 328 1061 231Q1061 135 1045 73.5Q1029 12 1001 -22.5Q973 -57 933.5 -70Q894 -83 847 -83H546Q499 -83 459.5 -70Q420 -57 392 -23L284 107Q255 141 238.5 202Q222 263 222 360Q222 456 238 517.5Q254 579 282.5 613.5Q311 648 350.5 661Q390 674 437 674H738Q784 674 823.5 661Q863 648 891 614ZM702 293Q712 293 719.5 297Q727 301 732 312H582Q572 312 564.5 308Q557 304 553 293Z" glyph-name="Omacron" horiz-adv-x="999" unicode="&#332;" /><glyph d="M871 248 911 199Q915 195 918 186.5Q921 178 921 168V-86Q921 -110 910 -121Q899 -132 875 -132H758Q745 -132 736 -128.5Q727 -125 721 -118L686 -77Q667 -84 646 -87Q625 -90 602 -90H381Q335 -90 295.5 -77Q256 -64 228 -30L120 100Q90 135 73.5 197.5Q57 260 57 360Q57 458 73 520.5Q89 583 117.5 618.5Q146 654 185.5 667.5Q225 681 272 681H493Q524 681 552 675Q580 669 603 656V677Q603 701 614 712Q625 723 649 723H766Q779 723 788 719.5Q797 716 803 709L911 579Q915 575 918 566.5Q921 558 921 548V294Q921 270 910 259Q899 248 875 248ZM577 286Q587 286 594.5 290Q602 294 607 305H417Q408 305 400.5 301Q393 297 389 286Z" glyph-name="Omega" horiz-adv-x="882" unicode="&#8486;" /><glyph d="M991 111V-4Q991 -31 977 -41Q963 -51 941 -39L879 -13Q851 -50 811 -65Q771 -80 722 -80H381Q334 -80 294.5 -66.5Q255 -53 227 -19L118 110Q90 144 73.5 205Q57 266 57 360Q57 370 57 379Q57 388 58 393L13 445Q8 452 5 460Q2 468 2 479V594Q2 621 16 631Q30 641 52 629L114 603Q142 640 182.5 655Q223 670 272 670H613Q659 670 698.5 656.5Q738 643 766 609L875 480Q903 446 919.5 385.5Q936 325 936 231Q936 222 935.5 213.5Q935 205 935 197L980 143L979 144Q985 138 988 129.5Q991 121 991 111Z" glyph-name="Oslash" horiz-adv-x="884" unicode="&#216;" /><glyph d="M331 406Q338 382 341.5 365Q345 348 345 332Q345 316 342.5 296Q340 276 336 245L334 229L330 201Q326 173 324.5 155Q323 137 324.5 122Q326 107 329.5 93Q333 79 339 60Q346 35 337 23Q328 11 303 11H202Q189 11 180.5 14.5Q172 18 165 26L57 155Q53 159 49.5 166.5Q46 174 43 182V183H42Q35 207 31.5 223.5Q28 240 28 256.5Q28 273 30.5 292.5Q33 312 37 343L39 360L42 382Q47 414 49 433Q51 452 50 466Q49 480 45 494Q41 508 34 529Q27 554 36 566Q45 578 70 578H171Q184 578 192.5 574Q201 570 207 563L316 433Q320 429 323.5 422Q327 415 330 407V406ZM1010 484Q1039 450 1055.5 389Q1072 328 1072 231Q1072 135 1056 73.5Q1040 12 1012 -22.5Q984 -57 944.5 -70Q905 -83 858 -83H557Q510 -83 470.5 -70Q431 -57 403 -23L295 107Q266 141 249.5 202Q233 263 233 360Q233 456 249 517.5Q265 579 293.5 613.5Q322 648 361.5 661Q401 674 448 674H749Q795 674 834.5 661Q874 648 902 614ZM713 293Q723 293 730.5 297Q738 301 743 312H593Q583 312 575.5 308Q568 304 564 293Z" glyph-name="Otilde" horiz-adv-x="1010" unicode="&#213;" /><glyph d="M911 122V-33Q911 -57 900 -68Q889 -79 865 -79H217Q204 -79 195 -75.5Q186 -72 180 -65L71 64Q67 69 64.5 77.5Q62 86 62 96V428Q62 499 77 547Q92 595 119 623Q146 651 184 662.5Q222 674 267 674H395Q443 674 482.5 660.5Q522 647 550 614L658 485Q682 457 695.5 411Q709 365 709 299V297H756Q769 297 778 293.5Q787 290 793 283L901 153Q905 149 908 140.5Q911 132 911 122Z" glyph-name="P" horiz-adv-x="847" unicode="P" /><glyph d="M1003 307V153Q1003 129 992 118Q981 107 957 107H910Q900 50 881.5 13Q863 -24 836.5 -45.5Q810 -67 776.5 -75.5Q743 -84 705 -84H373Q326 -84 286.5 -71Q247 -58 219 -24L111 107Q82 141 65.5 202Q49 263 49 360Q49 456 65 517.5Q81 579 109.5 613.5Q138 648 177.5 661Q217 674 264 674H596Q642 674 681.5 661Q721 648 749 614L856 485L860 481Q868 480 874.5 476.5Q881 473 885 468L993 338Q997 334 1000 325.5Q1003 317 1003 307ZM569 293Q579 293 586.5 297Q594 301 599 312H409Q399 312 391.5 308Q384 304 380 293Z" glyph-name="Q" horiz-adv-x="934" unicode="Q" /><glyph d="M793 282 901 152Q905 148 908 139.5Q911 131 911 121V-33Q911 -57 900 -68Q889 -79 865 -79H217Q204 -79 195 -75.5Q186 -72 180 -65L71 64Q67 69 64.5 77.5Q62 86 62 96V418Q62 537 111.5 581Q161 625 239 625H285Q322 625 349.5 616Q377 607 394 587L395 586Q408 626 446.5 653Q485 680 544 680H756Q769 680 778 676.5Q787 673 793 666L901 536Q905 532 908 523.5Q911 515 911 505V356Q911 332 900 321Q889 310 865 310H712Q702 310 695 306.5Q688 303 684 296H756Q769 296 778 292.5Q787 289 793 282Z" glyph-name="R" horiz-adv-x="859" unicode="R" /><glyph d="M753 282 861 152Q865 148 868 139.5Q871 131 871 121V-33Q871 -57 860 -68Q849 -79 825 -79H217Q204 -79 195 -75.5Q186 -72 180 -65L71 64Q67 69 64.5 77.5Q62 86 62 96V418Q62 537 111.5 581Q161 625 239 625H275Q312 625 339.5 616Q367 607 384 587L385 586Q398 626 436.5 653Q475 680 534 680H716Q729 680 738 676.5Q747 673 753 666L861 536Q865 532 868 523.5Q871 515 871 505V352Q871 328 860 317Q849 306 825 306H702Q692 306 685.5 303.5Q679 301 674 296H716Q729 296 738 292.5Q747 289 753 282Z" glyph-name="R.s" horiz-adv-x="819" /><glyph d="M354 38Q357 16 345.5 4.5Q334 -7 311 -7H215Q202 -7 193.5 -3.5Q185 0 180 6L71 136Q67 140 64 148.5Q61 157 60 167L17 516Q14 538 25.5 549.5Q37 561 60 561H156Q169 561 178 557.5Q187 554 191 547L300 418Q304 413 306.5 405Q309 397 311 387ZM949 282 1057 152Q1061 148 1064 139.5Q1067 131 1067 121V-33Q1067 -57 1056 -68Q1045 -79 1021 -79H413Q400 -79 391 -75.5Q382 -72 376 -65L267 64Q263 69 260.5 77.5Q258 86 258 96V418Q258 537 307.5 581Q357 625 435 625H471Q508 625 535.5 616Q563 607 580 587L581 586Q594 626 632.5 653Q671 680 730 680H912Q925 680 934 676.5Q943 673 949 666L1057 536Q1061 532 1064 523.5Q1067 515 1067 505V352Q1067 328 1056 317Q1045 306 1021 306H898Q888 306 881.5 303.5Q875 301 870 296H912Q925 296 934 292.5Q943 289 949 282Z" glyph-name="Racute" horiz-adv-x="1015" unicode="&#340;" /><glyph d="M255 11H174Q157 11 147 13.5Q137 16 133 22L24 151Q20 156 19.5 166.5Q19 177 24 195L64 332Q68 348 68 360Q68 372 64 388L24 525Q14 558 21.5 568.5Q29 579 65 579H146Q165 579 175 575Q185 571 192 563L301 434Q305 428 309 420.5Q313 413 317 403V402L363 275Q367 265 369.5 254Q372 243 373 233V232Q373 222 372 213Q371 204 367 197L317 59Q306 29 296 20Q286 11 255 11ZM965 282 1073 152Q1077 148 1080 139.5Q1083 131 1083 121V-33Q1083 -57 1072 -68Q1061 -79 1037 -79H429Q416 -79 407 -75.5Q398 -72 392 -65L283 64Q279 69 276.5 77.5Q274 86 274 96V418Q274 537 323.5 581Q373 625 451 625H487Q524 625 551.5 616Q579 607 596 587L597 586Q610 626 648.5 653Q687 680 746 680H928Q941 680 950 676.5Q959 673 965 666L1073 536Q1077 532 1080 523.5Q1083 515 1083 505V352Q1083 328 1072 317Q1061 306 1037 306H914Q904 306 897.5 303.5Q891 301 886 296H928Q941 296 950 292.5Q959 289 965 282Z" glyph-name="Rcaron" horiz-adv-x="1031" unicode="&#344;" /><glyph d="M753 282 861 152Q865 148 868 139.5Q871 131 871 121V-33Q871 -57 860 -68Q849 -79 825 -79H217Q204 -79 195 -75.5Q186 -72 180 -65L71 64Q67 69 64.5 77.5Q62 86 62 96V418Q62 537 111.5 581Q161 625 239 625H275Q312 625 339.5 616Q367 607 384 587L385 586Q398 626 436.5 653Q475 680 534 680H716Q729 680 738 676.5Q747 673 753 666L861 536Q865 532 868 523.5Q871 515 871 505V352Q871 328 860 317Q849 306 825 306H702Q692 306 685.5 303.5Q679 301 674 296H716Q729 296 738 292.5Q747 289 753 282ZM1079 153Q1079 127 1068.5 116.5Q1058 106 1030 106H951Q935 106 925 109Q915 112 909 119L801 249Q797 254 794.5 262Q792 270 792 282V440Q792 466 802.5 476.5Q813 487 842 487H954Q991 487 1018.5 475.5Q1046 464 1063 444L1172 315Q1186 298 1193.5 274.5Q1201 251 1201 223V157Q1201 136 1191.5 126.5Q1182 117 1160 117H1136Q1123 117 1115.5 120Q1108 123 1104 129L1079 159Z" glyph-name="Rcommaaccent" horiz-adv-x="1094" unicode="&#342;" /><glyph d="M911 -33Q911 -57 900 -68Q889 -79 865 -79H748Q735 -79 726 -75.5Q717 -72 711 -65L627 35Q611 -18 572.5 -48.5Q534 -79 462 -79H357Q312 -79 277 -64Q242 -49 218 -21L109 109Q87 136 74.5 176Q62 216 62 267V599Q62 623 73 634Q84 645 108 645H227Q240 645 249 641.5Q258 638 264 631L341 538Q355 599 394 635Q433 671 511 671H616Q661 671 696 656Q731 641 755 612L863 483Q886 455 898.5 415Q911 375 911 325Z" glyph-name="S" horiz-adv-x="864" unicode="S" /><glyph d="M871 -33Q871 -57 860 -68Q849 -79 825 -79H718Q705 -79 696 -75.5Q687 -72 681 -65L608 22Q592 -25 556 -52Q520 -79 452 -79H357Q312 -79 277 -64Q242 -49 218 -21L109 109Q87 136 74.5 176Q62 216 62 267V599Q62 623 73 634Q84 645 108 645H217Q230 645 239 641.5Q248 638 254 631L320 553Q334 607 370.5 639Q407 671 481 671H576Q621 671 656 656Q691 641 715 612L823 483Q846 455 858.5 415Q871 375 871 325Z" glyph-name="S.s" horiz-adv-x="824" /><glyph d="M354 56Q357 34 345.5 22.5Q334 11 311 11H215Q202 11 193.5 14.5Q185 18 180 24L71 154Q67 158 64 166.5Q61 175 60 185L17 534Q14 556 25.5 567.5Q37 579 60 579H156Q169 579 178 575.5Q187 572 191 565L300 436Q304 431 306.5 423Q309 415 311 405ZM1067 -33Q1067 -57 1056 -68Q1045 -79 1021 -79H914Q901 -79 892 -75.5Q883 -72 877 -65L804 22Q788 -25 752 -52Q716 -79 648 -79H553Q508 -79 473 -64Q438 -49 414 -21L305 109Q283 136 270.5 176Q258 216 258 267V599Q258 623 269 634Q280 645 304 645H413Q426 645 435 641.5Q444 638 450 631L516 553Q530 607 566.5 639Q603 671 677 671H772Q817 671 852 656Q887 641 911 612L1019 483Q1042 455 1054.5 415Q1067 375 1067 325Z" glyph-name="Sacute" horiz-adv-x="1020" unicode="&#346;" /><glyph d="M255 11H174Q157 11 147 13.5Q137 16 133 22L24 151Q20 156 19.5 166.5Q19 177 24 195L64 332Q68 348 68 360Q68 372 64 388L24 525Q14 558 21.5 568.5Q29 579 65 579H146Q165 579 175 575Q185 571 192 563L301 434Q305 428 309 420.5Q313 413 317 403V402L363 275Q367 265 369.5 254Q372 243 373 233V232Q373 222 372 213Q371 204 367 197L317 59Q306 29 296 20Q286 11 255 11ZM1083 -33Q1083 -57 1072 -68Q1061 -79 1037 -79H930Q917 -79 908 -75.5Q899 -72 893 -65L820 22Q804 -25 768 -52Q732 -79 664 -79H569Q524 -79 489 -64Q454 -49 430 -21L321 109Q299 136 286.5 176Q274 216 274 267V599Q274 623 285 634Q296 645 320 645H429Q442 645 451 641.5Q460 638 466 631L532 553Q546 607 582.5 639Q619 671 693 671H788Q833 671 868 656Q903 641 927 612L1035 483Q1058 455 1070.5 415Q1083 375 1083 325Z" glyph-name="Scaron" horiz-adv-x="1036" unicode="&#352;" /><glyph d="M608 22Q592 -25 556 -52Q520 -79 452 -79H357Q312 -79 277 -64Q242 -49 218 -21L109 109Q87 136 74.5 176Q62 216 62 267V599Q62 623 73 634Q84 645 108 645H217Q230 645 239 641.5Q248 638 254 631L320 553Q334 607 370.5 639Q407 671 481 671H576Q621 671 656 656Q691 641 715 612L823 483Q836 468 845 450Q854 432 860 410Q865 408 869.5 404.5Q874 401 877 397L985 268Q991 261 994 251.5Q997 242 997 229V103Q997 69 982 62Q967 55 944 63L871 90V-33Q871 -57 860 -68Q849 -79 825 -79H718Q705 -79 696 -75.5Q687 -72 681 -65Z" glyph-name="Scedilla" horiz-adv-x="905" unicode="&#350;" /><glyph d="M315 11H234Q215 11 205 14.5Q195 18 188 25L79 156L80 155Q75 160 71 168.5Q67 177 63 188L17 315Q13 325 10.5 336.5Q8 348 7 358Q7 368 8 377Q9 386 13 393L63 531Q74 561 84 570Q94 579 125 579H206Q222 579 232 576Q242 573 246 569L247 568L355 438Q359 433 359.5 423Q360 413 356 395L316 258Q312 242 312 230Q312 218 316 202L356 65Q366 32 358.5 21.5Q351 11 315 11ZM1073 -33Q1073 -57 1062 -68Q1051 -79 1027 -79H920Q907 -79 898 -75.5Q889 -72 883 -65L810 22Q794 -25 758 -52Q722 -79 654 -79H559Q514 -79 479 -64Q444 -49 420 -21L311 109Q289 136 276.5 176Q264 216 264 267V599Q264 623 275 634Q286 645 310 645H419Q432 645 441 641.5Q450 638 456 631L522 553Q536 607 572.5 639Q609 671 683 671H778Q823 671 858 656Q893 641 917 612L1025 483Q1048 455 1060.5 415Q1073 375 1073 325Z" glyph-name="Scircumflex" horiz-adv-x="1026" unicode="&#348;" /><glyph d="M871 -33Q871 -57 860 -68Q849 -79 825 -79H718Q705 -79 696 -75.5Q687 -72 681 -65L608 22Q592 -25 556 -52Q520 -79 452 -79H357Q312 -79 277 -64Q242 -49 218 -21L109 109Q87 136 74.5 176Q62 216 62 267V599Q62 623 73 634Q84 645 108 645H217Q230 645 239 641.5Q248 638 254 631L320 553Q334 607 370.5 639Q407 671 481 671H576Q621 671 656 656Q691 641 715 612L823 483Q846 455 858.5 415Q871 375 871 325ZM1079 153Q1079 127 1068.5 116.5Q1058 106 1030 106H951Q935 106 925 109Q915 112 909 119L801 249Q797 254 794.5 262Q792 270 792 282V440Q792 466 802.5 476.5Q813 487 842 487H954Q991 487 1018.5 475.5Q1046 464 1063 444L1172 315Q1186 298 1193.5 274.5Q1201 251 1201 223V157Q1201 136 1191.5 126.5Q1182 117 1160 117H1136Q1123 117 1115.5 120Q1108 123 1104 129L1079 159Z" glyph-name="Scommaaccent" horiz-adv-x="1094" unicode="&#536;" /><glyph d="M919 315V147Q919 123 908 112Q897 101 873 101H392V-33Q392 -57 381 -68Q370 -79 346 -79H225Q212 -79 203 -75.5Q194 -72 188 -65L79 64Q75 69 72.5 77.5Q70 86 70 96V624Q70 648 81 659Q92 670 116 670H237Q250 670 259 666.5Q268 663 274 656L382 526Q386 522 389 513.5Q392 505 392 495V490H764Q777 490 786 486.5Q795 483 801 476L909 346Q913 342 916 333.5Q919 325 919 315Z" glyph-name="T" horiz-adv-x="855" unicode="T" /><glyph d="M879 315V147Q879 123 868 112Q857 101 833 101H392V-33Q392 -57 381 -68Q370 -79 346 -79H225Q212 -79 203 -75.5Q194 -72 188 -65L79 64Q75 69 72.5 77.5Q70 86 70 96V624Q70 648 81 659Q92 670 116 670H237Q250 670 259 666.5Q268 663 274 656L382 526Q386 522 389 513.5Q392 505 392 495V490H724Q737 490 746 486.5Q755 483 761 476L869 346Q873 342 876 333.5Q879 325 879 315Z" glyph-name="T.s" horiz-adv-x="815" /><glyph d="M919 312V150Q919 126 908 115Q897 104 873 104H697V37Q697 13 686 2Q675 -9 651 -9H544Q531 -9 522 -5.5Q513 -2 507 5L424 104H392V-33Q392 -57 381 -68Q370 -79 346 -79H225Q212 -79 203 -75.5Q194 -72 188 -65L79 64Q75 69 72.5 77.5Q70 86 70 96V624Q70 648 81 659Q92 670 116 670H237Q250 670 259 666.5Q268 663 274 656L381 527Q384 524 386 521Q388 518 389 514V553Q389 577 400 588Q411 599 435 599H542Q555 599 564 595.5Q573 592 579 585L661 487H764Q777 487 786 483.5Q795 480 801 473L909 343Q913 339 916 330.5Q919 322 919 312Z" glyph-name="Tbar" horiz-adv-x="855" unicode="&#358;" /><glyph d="M255 11H174Q157 11 147 13.5Q137 16 133 22L24 151Q20 156 19.5 166.5Q19 177 24 195L64 332Q68 348 68 360Q68 372 64 388L24 525Q14 558 21.5 568.5Q29 579 65 579H146Q165 579 175 575Q185 571 192 563L301 434Q305 428 309 420.5Q313 413 317 403V402L363 275Q367 265 369.5 254Q372 243 373 233V232Q373 222 372 213Q371 204 367 197L317 59Q306 29 296 20Q286 11 255 11ZM1083 315V147Q1083 123 1072 112Q1061 101 1037 101H596V-33Q596 -57 585 -68Q574 -79 550 -79H429Q416 -79 407 -75.5Q398 -72 392 -65L283 64Q279 69 276.5 77.5Q274 86 274 96V624Q274 648 285 659Q296 670 320 670H441Q454 670 463 666.5Q472 663 478 656L586 526Q590 522 593 513.5Q596 505 596 495V490H928Q941 490 950 486.5Q959 483 965 476L1073 346Q1077 342 1080 333.5Q1083 325 1083 315Z" glyph-name="Tcaron" horiz-adv-x="1019" unicode="&#356;" /><glyph d="M392 -33Q392 -57 381 -68Q370 -79 346 -79H225Q212 -79 203 -75.5Q194 -72 188 -65L79 64Q75 69 72.5 77.5Q70 86 70 96V624Q70 648 81 659Q92 670 116 670H237Q250 670 259 666.5Q268 663 274 656L382 526Q386 522 389 513.5Q392 505 392 495V490H644Q657 490 666 486.5Q675 483 681 476L701 452Q703 471 714 478.5Q725 486 750 486H862Q899 486 926.5 474.5Q954 463 971 443L1080 314Q1094 297 1101.5 273.5Q1109 250 1109 222V156Q1109 135 1099.5 125.5Q1090 116 1068 116H1044Q1031 116 1023.5 119Q1016 122 1012 128L987 158V152Q987 126 976.5 115.5Q966 105 938 105H859Q843 105 833 108Q823 111 817 118L799 140Q798 120 786.5 110.5Q775 101 753 101H392Z" glyph-name="Tcommaaccent" horiz-adv-x="1002" unicode="&#354;" /><glyph d="M904 123V-32Q904 -56 893 -67Q882 -78 858 -78H210Q197 -78 188 -74.5Q179 -71 173 -64L64 65Q60 70 57.5 78.5Q55 87 55 97V252Q55 276 66 287Q77 298 101 298H158V427Q158 498 173 546Q188 594 215 622Q242 650 280 661.5Q318 673 363 673H485Q533 673 572.5 659.5Q612 646 640 613L748 484Q772 456 785.5 410Q799 364 799 298V269L894 154Q898 150 901 141.5Q904 133 904 123Z" glyph-name="Thorn" horiz-adv-x="850" unicode="&#222;" /><glyph d="M707 -80H212Q199 -80 190 -76.5Q181 -73 175 -66L66 64Q62 69 59.5 77.5Q57 86 57 96V253Q57 277 68 288Q79 299 103 299H194Q188 300 183.5 302.5Q179 305 176 309L175 310L66 440Q62 445 59.5 453Q57 461 57 472V624Q57 648 68 659Q79 670 103 670H598Q644 670 683.5 656.5Q723 643 751 609L860 480Q888 446 904.5 385.5Q921 325 921 231Q921 137 905 76Q889 15 861 -19.5Q833 -54 793.5 -67Q754 -80 707 -80Z" glyph-name="U" horiz-adv-x="859" unicode="U" /><glyph d="M667 -79H212Q199 -79 190 -75.5Q181 -72 175 -65L66 64Q62 69 59.5 77.5Q57 86 57 96V253Q57 277 68 288Q79 299 103 299H194Q188 300 183.5 302.5Q179 305 176 309L175 310L66 440Q62 445 59.5 453Q57 461 57 472V624Q57 648 68 659Q79 670 103 670H558Q604 670 643.5 656.5Q683 643 711 609L820 480Q848 446 864.5 385.5Q881 325 881 231Q881 137 865 76.5Q849 16 821 -18.5Q793 -53 753.5 -66Q714 -79 667 -79Z" glyph-name="U.s" horiz-adv-x="819" /><glyph d="M354 76Q357 54 345.5 42.5Q334 31 311 31H215Q202 31 193.5 34.5Q185 38 180 44L71 174Q67 178 64 186.5Q61 195 60 205L17 554Q14 576 25.5 587.5Q37 599 60 599H156Q169 599 178 595.5Q187 592 191 585L300 456Q304 451 306.5 443Q309 435 311 425ZM868 -79H413Q400 -79 391 -75.5Q382 -72 376 -65L267 64Q263 69 260.5 77.5Q258 86 258 96V253Q258 277 269 288Q280 299 304 299H395Q389 300 384.5 302.5Q380 305 377 309L376 310L267 440Q263 445 260.5 453Q258 461 258 472V624Q258 648 269 659Q280 670 304 670H759Q805 670 844.5 656.5Q884 643 912 609L1021 480Q1049 446 1065.5 385.5Q1082 325 1082 231Q1082 137 1066 76.5Q1050 16 1022 -18.5Q994 -53 954.5 -66Q915 -79 868 -79Z" glyph-name="Uacute" horiz-adv-x="1020" unicode="&#218;" /><glyph d="M369 231Q369 162 357.5 117.5Q346 73 326 48Q306 23 277.5 13.5Q249 4 216 4H172Q159 4 150 7.5Q141 11 135 18L26 147Q22 152 19.5 160.5Q17 169 17 179V275Q17 296 25.5 305Q34 314 58 314H79Q86 314 91.5 318Q97 322 99 332L24 422L25 421Q21 425 19 432Q17 439 17 450V541Q17 565 28 576Q39 587 63 587H107Q140 587 168 577.5Q196 568 216 543L324 414Q345 389 357 345Q369 301 369 231ZM884 -79H429Q416 -79 407 -75.5Q398 -72 392 -65L283 64Q279 69 276.5 77.5Q274 86 274 96V253Q274 277 285 288Q296 299 320 299H411Q405 300 400.5 302.5Q396 305 393 309L392 310L283 440Q279 445 276.5 453Q274 461 274 472V624Q274 648 285 659Q296 670 320 670H775Q821 670 860.5 656.5Q900 643 928 609L1037 480Q1065 446 1081.5 385.5Q1098 325 1098 231Q1098 137 1082 76.5Q1066 16 1038 -18.5Q1010 -53 970.5 -66Q931 -79 884 -79Z" glyph-name="Ubreve" horiz-adv-x="1036" unicode="&#364;" /><glyph d="M315 11H234Q215 11 205 14.5Q195 18 188 25L79 156L80 155Q75 160 71 168.5Q67 177 63 188L17 315Q13 325 10.5 336.5Q8 348 7 358Q7 368 8 377Q9 386 13 393L63 531Q74 561 84 570Q94 579 125 579H206Q222 579 232 576Q242 573 246 569L247 568L355 438Q359 433 359.5 423Q360 413 356 395L316 258Q312 242 312 230Q312 218 316 202L356 65Q366 32 358.5 21.5Q351 11 315 11ZM874 -79H419Q406 -79 397 -75.5Q388 -72 382 -65L273 64Q269 69 266.5 77.5Q264 86 264 96V253Q264 277 275 288Q286 299 310 299H401Q395 300 390.5 302.5Q386 305 383 309L382 310L273 440Q269 445 266.5 453Q264 461 264 472V624Q264 648 275 659Q286 670 310 670H765Q811 670 850.5 656.5Q890 643 918 609L1027 480Q1055 446 1071.5 385.5Q1088 325 1088 231Q1088 137 1072 76.5Q1056 16 1028 -18.5Q1000 -53 960.5 -66Q921 -79 874 -79Z" glyph-name="Ucircumflex" horiz-adv-x="1026" unicode="&#219;" /><glyph d="M299 246 338 199Q343 194 345.5 186.5Q348 179 348 169V31Q348 9 337.5 -2Q327 -13 305 -13H184Q171 -13 163 -9.5Q155 -6 150 0L41 129Q37 134 34.5 142Q32 150 32 160V298Q32 320 42.5 330.5Q53 341 75 341H81L41 388Q37 393 34.5 400.5Q32 408 32 418V556Q32 578 42.5 588.5Q53 599 75 599H196Q208 599 216.5 595.5Q225 592 230 586L338 457Q343 452 345.5 444.5Q348 437 348 427V289Q348 267 337.5 256.5Q327 246 305 246ZM869 -79H414Q401 -79 392 -75.5Q383 -72 377 -65L268 64Q264 69 261.5 77.5Q259 86 259 96V253Q259 277 270 288Q281 299 305 299H396Q390 300 385.5 302.5Q381 305 378 309L377 310L268 440Q264 445 261.5 453Q259 461 259 472V624Q259 648 270 659Q281 670 305 670H760Q806 670 845.5 656.5Q885 643 913 609L1022 480Q1050 446 1066.5 385.5Q1083 325 1083 231Q1083 137 1067 76.5Q1051 16 1023 -18.5Q995 -53 955.5 -66Q916 -79 869 -79Z" glyph-name="Udieresis" horiz-adv-x="1021" unicode="&#220;" /><glyph d="M266 11H170Q157 11 148.5 14.5Q140 18 134 25L25 154Q21 160 19 167.5Q17 175 18 185L61 534Q64 558 74 568.5Q84 579 107 579H203Q216 579 224.5 575.5Q233 572 239 565L347 436Q351 431 353.5 423Q356 415 355 405L312 56Q309 32 299 21.5Q289 11 266 11ZM868 -79H413Q400 -79 391 -75.5Q382 -72 376 -65L267 64Q263 69 260.5 77.5Q258 86 258 96V253Q258 277 269 288Q280 299 304 299H395Q389 300 384.5 302.5Q380 305 377 309L376 310L267 440Q263 445 260.5 453Q258 461 258 472V624Q258 648 269 659Q280 670 304 670H759Q805 670 844.5 656.5Q884 643 912 609L1021 480Q1049 446 1065.5 385.5Q1082 325 1082 231Q1082 137 1066 76.5Q1050 16 1022 -18.5Q994 -53 954.5 -66Q915 -79 868 -79Z" glyph-name="Ugrave" horiz-adv-x="1020" unicode="&#217;" /><glyph d="M433 155V49Q433 25 420.5 13Q408 1 387 6L180 59Q167 62 158.5 65.5Q150 69 144 76L35 206Q31 210 29 217Q27 224 27 234V340Q27 364 39.5 376.5Q52 389 73 383L113 373L35 466Q31 470 29 477Q27 484 27 494V600Q27 624 39.5 636.5Q52 649 73 643L280 590Q293 587 301.5 583Q310 579 316 573L424 444H423Q428 440 430.5 432.5Q433 425 433 415V309Q433 285 420.5 273Q408 261 387 266L346 277L424 184H423Q428 180 430.5 172.5Q433 165 433 155ZM954 -79H499Q486 -79 477 -75.5Q468 -72 462 -65L353 64Q349 69 346.5 77.5Q344 86 344 96V253Q344 277 355 288Q366 299 390 299H481Q475 300 470.5 302.5Q466 305 463 309L462 310L353 440Q349 445 346.5 453Q344 461 344 472V624Q344 648 355 659Q366 670 390 670H845Q891 670 930.5 656.5Q970 643 998 609L1107 480Q1135 446 1151.5 385.5Q1168 325 1168 231Q1168 137 1152 76.5Q1136 16 1108 -18.5Q1080 -53 1040.5 -66Q1001 -79 954 -79Z" glyph-name="Uhungarumlaut" horiz-adv-x="1106" unicode="&#368;" /><glyph d="M326 404V57Q326 33 315 22Q304 11 280 11H187Q174 11 165 14.5Q156 18 150 25L41 154Q37 159 34.5 167.5Q32 176 32 186V533Q32 557 43 568Q54 579 78 579H171Q184 579 193 575.5Q202 572 208 565L316 435Q320 431 323 422.5Q326 414 326 404ZM847 -79H392Q379 -79 370 -75.5Q361 -72 355 -65L246 64Q242 69 239.5 77.5Q237 86 237 96V253Q237 277 248 288Q259 299 283 299H374Q368 300 363.5 302.5Q359 305 356 309L355 310L246 440Q242 445 239.5 453Q237 461 237 472V624Q237 648 248 659Q259 670 283 670H738Q784 670 823.5 656.5Q863 643 891 609L1000 480Q1028 446 1044.5 385.5Q1061 325 1061 231Q1061 137 1045 76.5Q1029 16 1001 -18.5Q973 -53 933.5 -66Q894 -79 847 -79Z" glyph-name="Umacron" horiz-adv-x="999" unicode="&#362;" /><glyph d="M916 116 874 124Q866 64 847.5 24.5Q829 -15 802 -38Q775 -61 741 -70Q707 -79 667 -79H212Q199 -79 190 -75.5Q181 -72 175 -65L66 64Q62 69 59.5 77.5Q57 86 57 96V253Q57 277 68 288Q79 299 103 299H194Q188 300 183.5 302.5Q179 305 176 309L175 310L66 440Q62 445 59.5 453Q57 461 57 472V624Q57 648 68 659Q79 670 103 670H558Q604 670 643.5 656.5Q683 643 711 609L803 500Q808 505 816.5 507.5Q825 510 838 510H910Q923 510 932 507Q941 504 946 499L1055 368Q1059 364 1061 356Q1063 348 1063 338V227Q1063 158 1028 131.5Q993 105 916 116Z" glyph-name="Uogonek" horiz-adv-x="961" unicode="&#370;" /><glyph d="M475 414Q496 389 508 345Q520 301 520 231Q520 162 508.5 117.5Q497 73 477 48Q457 23 428.5 13.5Q400 4 367 4H269Q236 4 208 13Q180 22 160 47L51 177Q31 202 19 246.5Q7 291 7 360Q7 429 18.5 473.5Q30 518 50 543Q70 568 98.5 577.5Q127 587 160 587H258Q291 587 319 577.5Q347 568 367 543ZM1035 -79H580Q567 -79 558 -75.5Q549 -72 543 -65L434 64Q430 69 427.5 77.5Q425 86 425 96V253Q425 277 436 288Q447 299 471 299H562Q556 300 551.5 302.5Q547 305 544 309L543 310L434 440Q430 445 427.5 453Q425 461 425 472V624Q425 648 436 659Q447 670 471 670H926Q972 670 1011.5 656.5Q1051 643 1079 609L1188 480Q1216 446 1232.5 385.5Q1249 325 1249 231Q1249 137 1233 76.5Q1217 16 1189 -18.5Q1161 -53 1121.5 -66Q1082 -79 1035 -79Z" glyph-name="Uring" horiz-adv-x="1187" unicode="&#366;" /><glyph d="M331 406Q338 382 341.5 365Q345 348 345 332Q345 316 342.5 296Q340 276 336 245L334 229L330 201Q326 173 324.5 155Q323 137 324.5 122Q326 107 329.5 93Q333 79 339 60Q346 35 337 23Q328 11 303 11H202Q189 11 180.5 14.5Q172 18 165 26L57 155Q53 159 49.5 166.5Q46 174 43 182V183H42Q35 207 31.5 223.5Q28 240 28 256.5Q28 273 30.5 292.5Q33 312 37 343L39 360L42 382Q47 414 49 433Q51 452 50 466Q49 480 45 494Q41 508 34 529Q27 554 36 566Q45 578 70 578H171Q184 578 192.5 574Q201 570 207 563L316 433Q320 429 323.5 422Q327 415 330 407V406ZM858 -79H403Q390 -79 381 -75.5Q372 -72 366 -65L257 64Q253 69 250.5 77.5Q248 86 248 96V253Q248 277 259 288Q270 299 294 299H385Q379 300 374.5 302.5Q370 305 367 309L366 310L257 440Q253 445 250.5 453Q248 461 248 472V624Q248 648 259 659Q270 670 294 670H749Q795 670 834.5 656.5Q874 643 902 609L1011 480Q1039 446 1055.5 385.5Q1072 325 1072 231Q1072 137 1056 76.5Q1040 16 1012 -18.5Q984 -53 944.5 -66Q905 -79 858 -79Z" glyph-name="Utilde" horiz-adv-x="1010" unicode="&#360;" /><glyph d="M476 -80H212Q199 -80 190 -76.5Q181 -73 175 -66L66 63Q62 68 59.5 76.5Q57 85 57 95V246Q57 270 68.5 282.5Q80 295 103 295H379Q394 295 405.5 298.5Q417 302 430 307H207Q194 307 185 310.5Q176 314 170 321L66 444Q62 449 59.5 457.5Q57 466 57 476V625Q57 650 68 660.5Q79 671 103 671H367Q391 671 408.5 671Q426 671 441.5 669Q457 667 473.5 662Q490 657 513 648L758 550Q766 547 772.5 542.5Q779 538 784 533L785 532L892 404Q899 396 902.5 384.5Q906 373 906 358V105Q906 79 897 64Q888 49 866 41L622 -47Q599 -56 582.5 -62.5Q566 -69 550.5 -73Q535 -77 517.5 -78.5Q500 -80 476 -80Z" glyph-name="V" horiz-adv-x="849" unicode="V" /><glyph d="M906 121V13Q906 -9 895 -23Q884 -37 863 -43L725 -79Q699 -86 681.5 -89.5Q664 -93 649 -94.5Q634 -96 618 -96.5Q602 -97 578 -97L212 -101Q199 -101 190 -97.5Q181 -94 175 -87L66 42Q62 47 59.5 55.5Q57 64 57 74V222Q57 246 68 257Q79 268 103 268L335 271L302 311Q296 318 292.5 325.5Q289 333 288 342L212 343Q197 343 188 346Q179 349 174 355L65 485Q61 489 59 496Q57 503 57 513V646Q57 671 68 681.5Q79 692 103 692L471 688Q494 688 510 687.5Q526 687 541.5 685.5Q557 684 574.5 680.5Q592 677 618 670L753 634Q764 631 772 626.5Q780 622 786 615L895 486Q900 479 903 470.5Q906 462 906 451V351Q906 323 897 310Q888 297 869 291L803 272L894 164Q899 157 902.5 147Q906 137 906 121Z" glyph-name="W" horiz-adv-x="854" unicode="W" /><glyph d="M866 121V13Q866 -9 855 -23Q844 -37 823 -43L685 -79Q659 -86 641.5 -89.5Q624 -93 609 -94.5Q594 -96 578 -96.5Q562 -97 538 -97L212 -101Q199 -101 190 -97.5Q181 -94 175 -87L66 42Q62 47 59.5 55.5Q57 64 57 74V222Q57 246 68 257Q79 268 103 268L295 271L262 311Q256 318 252.5 325.5Q249 333 248 342L212 343Q197 343 188 346Q179 349 174 355L65 485Q61 489 59 496Q57 503 57 513V646Q57 671 68 681.5Q79 692 103 692L431 688Q454 688 470 687.5Q486 687 501.5 685.5Q517 684 534.5 680.5Q552 677 578 670L713 634Q724 631 732 626.5Q740 622 746 615L855 486Q860 479 863 470.5Q866 462 866 451V351Q866 323 857 310Q848 297 829 291L763 272L854 164Q859 157 862.5 147Q866 137 866 121Z" glyph-name="W.s" horiz-adv-x="814" /><glyph d="M934 380Q934 326 922 289Q910 252 889 230L894 224Q913 202 923.5 166.5Q934 131 934 81Q934 -37 875 -82.5Q816 -128 720 -128H225Q212 -128 203 -124.5Q194 -121 188 -114L79 15Q75 20 72.5 28.5Q70 37 70 47V164Q70 189 81 199.5Q92 210 116 210H129L79 269Q75 274 72.5 282.5Q70 291 70 301V418Q70 442 81 453Q92 464 116 464H129L79 523Q75 528 72.5 536Q70 544 70 555V672Q70 696 81 707Q92 718 116 718H611Q666 718 710 703.5Q754 689 782 655L891 526Q911 502 922.5 465.5Q934 429 934 380Z" glyph-name="W.salt" horiz-adv-x="882" unicode="&#57642;" /><glyph d="M894 380Q894 326 882 289Q870 252 849 230L854 224Q873 202 883.5 166.5Q894 131 894 81Q894 -37 835 -82.5Q776 -128 680 -128H225Q212 -128 203 -124.5Q194 -121 188 -114L79 15Q75 20 72.5 28.5Q70 37 70 47V164Q70 189 81 199.5Q92 210 116 210H129L79 269Q75 274 72.5 282.5Q70 291 70 301V418Q70 442 81 453Q92 464 116 464H129L79 523Q75 528 72.5 536Q70 544 70 555V672Q70 696 81 707Q92 718 116 718H571Q626 718 670 703.5Q714 689 742 655L851 526Q871 502 882.5 465.5Q894 429 894 380Z" glyph-name="W.salt_s" horiz-adv-x="842" /><glyph d="M354 66Q357 44 345.5 32.5Q334 21 311 21H215Q202 21 193.5 24.5Q185 28 180 34L71 164Q67 168 64 176.5Q61 185 60 195L17 544Q14 566 25.5 577.5Q37 589 60 589H156Q169 589 178 585.5Q187 582 191 575L300 446Q304 441 306.5 433Q309 425 311 415ZM1067 121V13Q1067 -9 1056 -23Q1045 -37 1024 -43L886 -79Q860 -86 842.5 -89.5Q825 -93 810 -94.5Q795 -96 779 -96.5Q763 -97 739 -97L413 -101Q400 -101 391 -97.5Q382 -94 376 -87L267 42Q263 47 260.5 55.5Q258 64 258 74V222Q258 246 269 257Q280 268 304 268L496 271L463 311Q457 318 453.5 325.5Q450 333 449 342L413 343Q398 343 389 346Q380 349 375 355L266 485Q262 489 260 496Q258 503 258 513V646Q258 671 269 681.5Q280 692 304 692L632 688Q655 688 671 687.5Q687 687 702.5 685.5Q718 684 735.5 680.5Q753 677 779 670L914 634Q925 631 933 626.5Q941 622 947 615L1056 486Q1061 479 1064 470.5Q1067 462 1067 451V351Q1067 323 1058 310Q1049 297 1030 291L964 272L1055 164Q1060 157 1063.5 147Q1067 137 1067 121Z" glyph-name="Wacute" horiz-adv-x="1015" unicode="&#7810;" /><glyph d="M354 56Q357 34 345.5 22.5Q334 11 311 11H215Q202 11 193.5 14.5Q185 18 180 24L71 154Q67 158 64 166.5Q61 175 60 185L17 534Q14 556 25.5 567.5Q37 579 60 579H156Q169 579 178 575.5Q187 572 191 565L300 436Q304 431 306.5 423Q309 415 311 405ZM1082 380Q1082 326 1070 289Q1058 252 1037 230L1042 224Q1061 202 1071.5 166.5Q1082 131 1082 81Q1082 -37 1023 -82.5Q964 -128 868 -128H413Q400 -128 391 -124.5Q382 -121 376 -114L267 15Q263 20 260.5 28.5Q258 37 258 47V164Q258 189 269 199.5Q280 210 304 210H317L267 269Q263 274 260.5 282.5Q258 291 258 301V418Q258 442 269 453Q280 464 304 464H317L267 523Q263 528 260.5 536Q258 544 258 555V672Q258 696 269 707Q280 718 304 718H759Q814 718 858 703.5Q902 689 930 655L1039 526Q1059 502 1070.5 465.5Q1082 429 1082 380Z" glyph-name="Wacute.salt" horiz-adv-x="1030" unicode="&#57645;" /><glyph d="M315 11H234Q215 11 205 14.5Q195 18 188 25L79 156L80 155Q75 160 71 168.5Q67 177 63 188L17 315Q13 325 10.5 336.5Q8 348 7 358Q7 368 8 377Q9 386 13 393L63 531Q74 561 84 570Q94 579 125 579H206Q222 579 232 576Q242 573 246 569L247 568L355 438Q359 433 359.5 423Q360 413 356 395L316 258Q312 242 312 230Q312 218 316 202L356 65Q366 32 358.5 21.5Q351 11 315 11ZM1073 121V13Q1073 -9 1062 -23Q1051 -37 1030 -43L892 -79Q866 -86 848.5 -89.5Q831 -93 816 -94.5Q801 -96 785 -96.5Q769 -97 745 -97L419 -101Q406 -101 397 -97.5Q388 -94 382 -87L273 42Q269 47 266.5 55.5Q264 64 264 74V222Q264 246 275 257Q286 268 310 268L502 271L469 311Q463 318 459.5 325.5Q456 333 455 342L419 343Q404 343 395 346Q386 349 381 355L272 485Q268 489 266 496Q264 503 264 513V646Q264 671 275 681.5Q286 692 310 692L638 688Q661 688 677 687.5Q693 687 708.5 685.5Q724 684 741.5 680.5Q759 677 785 670L920 634Q931 631 939 626.5Q947 622 953 615L1062 486Q1067 479 1070 470.5Q1073 462 1073 451V351Q1073 323 1064 310Q1055 297 1036 291L970 272L1061 164Q1066 157 1069.5 147Q1073 137 1073 121Z" glyph-name="Wcircumflex" horiz-adv-x="1021" unicode="&#372;" /><glyph d="M315 11H234Q215 11 205 14.5Q195 18 188 25L79 156L80 155Q75 160 71 168.5Q67 177 63 188L17 315Q13 325 10.5 336.5Q8 348 7 358Q7 368 8 377Q9 386 13 393L63 531Q74 561 84 570Q94 579 125 579H206Q222 579 232 576Q242 573 246 569L247 568L355 438Q359 433 359.5 423Q360 413 356 395L316 258Q312 242 312 230Q312 218 316 202L356 65Q366 32 358.5 21.5Q351 11 315 11ZM1088 380Q1088 326 1076 289Q1064 252 1043 230L1048 224Q1067 202 1077.5 166.5Q1088 131 1088 81Q1088 -37 1029 -82.5Q970 -128 874 -128H419Q406 -128 397 -124.5Q388 -121 382 -114L273 15Q269 20 266.5 28.5Q264 37 264 47V164Q264 189 275 199.5Q286 210 310 210H323L273 269Q269 274 266.5 282.5Q264 291 264 301V418Q264 442 275 453Q286 464 310 464H323L273 523Q269 528 266.5 536Q264 544 264 555V672Q264 696 275 707Q286 718 310 718H765Q820 718 864 703.5Q908 689 936 655L1045 526Q1065 502 1076.5 465.5Q1088 429 1088 380Z" glyph-name="Wcircumflex.salt" horiz-adv-x="1036" unicode="&#57643;" /><glyph d="M299 256 338 209Q343 204 345.5 196.5Q348 189 348 179V41Q348 19 337.5 8Q327 -3 305 -3H184Q171 -3 163 0.5Q155 4 150 10L41 139Q37 144 34.5 152Q32 160 32 170V308Q32 330 42.5 340.5Q53 351 75 351H81L41 398Q37 403 34.5 410.5Q32 418 32 428V566Q32 588 42.5 598.5Q53 609 75 609H196Q208 609 216.5 605.5Q225 602 230 596L338 467Q343 462 345.5 454.5Q348 447 348 437V299Q348 277 337.5 266.5Q327 256 305 256ZM1068 121V13Q1068 -9 1057 -23Q1046 -37 1025 -43L887 -79Q861 -86 843.5 -89.5Q826 -93 811 -94.5Q796 -96 780 -96.5Q764 -97 740 -97L414 -101Q401 -101 392 -97.5Q383 -94 377 -87L268 42Q264 47 261.5 55.5Q259 64 259 74V222Q259 246 270 257Q281 268 305 268L497 271L464 311Q458 318 454.5 325.5Q451 333 450 342L414 343Q399 343 390 346Q381 349 376 355L267 485Q263 489 261 496Q259 503 259 513V646Q259 671 270 681.5Q281 692 305 692L633 688Q656 688 672 687.5Q688 687 703.5 685.5Q719 684 736.5 680.5Q754 677 780 670L915 634Q926 631 934 626.5Q942 622 948 615L1057 486Q1062 479 1065 470.5Q1068 462 1068 451V351Q1068 323 1059 310Q1050 297 1031 291L965 272L1056 164Q1061 157 1064.5 147Q1068 137 1068 121Z" glyph-name="Wdieresis" horiz-adv-x="1016" unicode="&#7812;" /><glyph d="M299 246 338 199Q343 194 345.5 186.5Q348 179 348 169V31Q348 9 337.5 -2Q327 -13 305 -13H184Q171 -13 163 -9.5Q155 -6 150 0L41 129Q37 134 34.5 142Q32 150 32 160V298Q32 320 42.5 330.5Q53 341 75 341H81L41 388Q37 393 34.5 400.5Q32 408 32 418V556Q32 578 42.5 588.5Q53 599 75 599H196Q208 599 216.5 595.5Q225 592 230 586L338 457Q343 452 345.5 444.5Q348 437 348 427V289Q348 267 337.5 256.5Q327 246 305 246ZM1083 380Q1083 326 1071 289Q1059 252 1038 230L1043 224Q1062 202 1072.5 166.5Q1083 131 1083 81Q1083 -37 1024 -82.5Q965 -128 869 -128H414Q401 -128 392 -124.5Q383 -121 377 -114L268 15Q264 20 261.5 28.5Q259 37 259 47V164Q259 189 270 199.5Q281 210 305 210H318L268 269Q264 274 261.5 282.5Q259 291 259 301V418Q259 442 270 453Q281 464 305 464H318L268 523Q264 528 261.5 536Q259 544 259 555V672Q259 696 270 707Q281 718 305 718H760Q815 718 859 703.5Q903 689 931 655L1040 526Q1060 502 1071.5 465.5Q1083 429 1083 380Z" glyph-name="Wdieresis.salt" horiz-adv-x="1031" unicode="&#57646;" /><glyph d="M266 11H170Q157 11 148.5 14.5Q140 18 134 25L25 154Q21 160 19 167.5Q17 175 18 185L61 534Q64 558 74 568.5Q84 579 107 579H203Q216 579 224.5 575.5Q233 572 239 565L347 436Q351 431 353.5 423Q356 415 355 405L312 56Q309 32 299 21.5Q289 11 266 11ZM1067 121V13Q1067 -9 1056 -23Q1045 -37 1024 -43L886 -79Q860 -86 842.5 -89.5Q825 -93 810 -94.5Q795 -96 779 -96.5Q763 -97 739 -97L413 -101Q400 -101 391 -97.5Q382 -94 376 -87L267 42Q263 47 260.5 55.5Q258 64 258 74V222Q258 246 269 257Q280 268 304 268L496 271L463 311Q457 318 453.5 325.5Q450 333 449 342L413 343Q398 343 389 346Q380 349 375 355L266 485Q262 489 260 496Q258 503 258 513V646Q258 671 269 681.5Q280 692 304 692L632 688Q655 688 671 687.5Q687 687 702.5 685.5Q718 684 735.5 680.5Q753 677 779 670L914 634Q925 631 933 626.5Q941 622 947 615L1056 486Q1061 479 1064 470.5Q1067 462 1067 451V351Q1067 323 1058 310Q1049 297 1030 291L964 272L1055 164Q1060 157 1063.5 147Q1067 137 1067 121Z" glyph-name="Wgrave" horiz-adv-x="1015" unicode="&#7808;" /><glyph d="M266 11H170Q157 11 148.5 14.5Q140 18 134 25L25 154Q21 160 19 167.5Q17 175 18 185L61 534Q64 558 74 568.5Q84 579 107 579H203Q216 579 224.5 575.5Q233 572 239 565L347 436Q351 431 353.5 423Q356 415 355 405L312 56Q309 32 299 21.5Q289 11 266 11ZM1082 380Q1082 326 1070 289Q1058 252 1037 230L1042 224Q1061 202 1071.5 166.5Q1082 131 1082 81Q1082 -37 1023 -82.5Q964 -128 868 -128H413Q400 -128 391 -124.5Q382 -121 376 -114L267 15Q263 20 260.5 28.5Q258 37 258 47V164Q258 189 269 199.5Q280 210 304 210H317L267 269Q263 274 260.5 282.5Q258 291 258 301V418Q258 442 269 453Q280 464 304 464H317L267 523Q263 528 260.5 536Q258 544 258 555V672Q258 696 269 707Q280 718 304 718H759Q814 718 858 703.5Q902 689 930 655L1039 526Q1059 502 1070.5 465.5Q1082 429 1082 380Z" glyph-name="Wgrave.salt" horiz-adv-x="1030" unicode="&#57644;" /><glyph d="M418 -39Q386 -62 362 -70.5Q338 -79 289 -79H212Q199 -79 190 -75.5Q181 -72 175 -65L66 64Q62 69 59.5 77.5Q57 86 57 96V250Q57 274 68 285Q79 296 103 296H172Q178 296 184.5 296.5Q191 297 197 298Q190 300 184.5 303.5Q179 307 175 311L66 440Q62 445 59.5 453.5Q57 462 57 472V624Q57 648 68 659Q79 670 103 670H180Q204 670 221 667.5Q238 665 251.5 660Q265 655 278.5 647.5Q292 640 309 630L413 568L515 630Q532 640 545 648Q558 656 572 660.5Q586 665 603 667.5Q620 670 644 670H751Q764 670 773 666.5Q782 663 788 656L896 526Q900 522 903 513.5Q906 505 906 495V340Q906 316 895 305Q884 294 860 294H751Q764 294 773 290.5Q782 287 788 280L896 150Q900 146 903 137.5Q906 129 906 119V-33Q906 -57 895 -68Q884 -79 860 -79H753Q704 -79 680 -70.5Q656 -62 624 -39L521 33Z" glyph-name="X" horiz-adv-x="854" unicode="X" /><glyph d="M788 275 896 145Q900 141 903 132.5Q906 124 906 114V-41Q906 -65 895 -76Q884 -87 860 -87H579Q542 -87 513 -74.5Q484 -62 465 -40L434 -3L214 -63Q199 -67 189 -64.5Q179 -62 173 -55L65 75L66 74Q62 78 59.5 85Q57 92 57 102V253Q57 277 67 289Q77 301 100 307L163 319L67 434Q63 441 60 449Q57 457 57 469V621Q57 646 69 655Q81 664 105 658L335 595Q349 635 385 657Q421 679 470 679H751Q764 679 773 675.5Q782 672 788 665L896 535Q900 531 903 522.5Q906 514 906 504V350Q906 326 895 315Q884 304 860 304H666Q656 304 650 300Q644 296 642 289H751Q764 289 773 285.5Q782 282 788 275Z" glyph-name="X.salt" horiz-adv-x="854" unicode="&#57647;" /><glyph d="M906 312V150Q906 125 895 114.5Q884 104 860 104H734L533 -40Q501 -64 473 -72Q445 -80 404 -80H212Q199 -80 190 -76.5Q181 -73 175 -66L66 63Q62 68 59.5 76.5Q57 85 57 95V249Q57 273 68 284Q79 295 103 295H267Q283 295 290.5 297Q298 299 308 305H209Q196 305 187 308.5Q178 312 172 319L66 444Q62 449 59.5 457.5Q57 466 57 476V625Q57 649 68 660Q79 671 103 671H295Q336 671 364 663Q392 655 424 631L626 487H751Q764 487 773 483.5Q782 480 788 473L896 343Q900 339 903 330.5Q906 322 906 312Z" glyph-name="Y" horiz-adv-x="842" unicode="Y" /><glyph d="M866 312V150Q866 125 855 114.5Q844 104 820 104H704L503 -40Q471 -64 443 -72Q415 -80 374 -80H212Q199 -80 190 -76.5Q181 -73 175 -66L66 63Q62 68 59.5 76.5Q57 85 57 95V249Q57 273 68 284Q79 295 103 295H237Q254 295 260.5 297.5Q267 300 276 304H208Q195 304 186 307.5Q177 311 171 318L66 444Q62 449 59.5 457.5Q57 466 57 476V625Q57 649 68 660Q79 671 103 671H265Q306 671 334 663Q362 655 394 631L596 487H711Q724 487 733 483.5Q742 480 748 473L856 343Q860 339 863 330.5Q866 322 866 312Z" glyph-name="Y.s" horiz-adv-x="802" /><glyph d="M906 312V150Q906 126 895 115Q884 104 860 104H697Q678 -3 623 -41Q568 -79 493 -79H212Q199 -79 190 -75.5Q181 -72 175 -65L66 64Q62 69 59.5 77.5Q57 86 57 96V251Q57 275 68 286Q79 297 103 297H194Q188 298 183.5 301.5Q179 305 175 309L66 438Q62 443 59.5 451.5Q57 460 57 470V624Q57 648 68 659Q79 670 103 670H384Q430 670 469.5 656.5Q509 643 537 609L640 487H751Q764 487 773 483.5Q782 480 788 473L896 343Q900 339 903 330.5Q906 322 906 312Z" glyph-name="Y.salt" horiz-adv-x="842" unicode="&#57648;" /><glyph d="M865 312V150Q865 126 854 115Q843 104 819 104H677Q658 -3 603 -41Q548 -79 473 -79H212Q199 -79 190 -75.5Q181 -72 175 -65L66 64Q62 69 59.5 77.5Q57 86 57 96V251Q57 275 68 286Q79 297 103 297H194Q188 298 183.5 301.5Q179 305 175 309L66 438Q62 443 59.5 451.5Q57 460 57 470V624Q57 648 68 659Q79 670 103 670H364Q410 670 449.5 656.5Q489 643 517 609L620 487H710Q723 487 732 483.5Q741 480 747 473L855 343Q859 339 862 330.5Q865 322 865 312Z" glyph-name="Y.salt_s" horiz-adv-x="801" /><glyph d="M354 76Q357 54 345.5 42.5Q334 31 311 31H215Q202 31 193.5 34.5Q185 38 180 44L71 174Q67 178 64 186.5Q61 195 60 205L17 554Q14 576 25.5 587.5Q37 599 60 599H156Q169 599 178 595.5Q187 592 191 585L300 456Q304 451 306.5 443Q309 435 311 425ZM1067 312V150Q1067 125 1056 114.5Q1045 104 1021 104H905L704 -40Q672 -64 644 -72Q616 -80 575 -80H413Q400 -80 391 -76.5Q382 -73 376 -66L267 63Q263 68 260.5 76.5Q258 85 258 95V249Q258 273 269 284Q280 295 304 295H438Q455 295 461.5 297.5Q468 300 477 304H409Q396 304 387 307.5Q378 311 372 318L267 444Q263 449 260.5 457.5Q258 466 258 476V625Q258 649 269 660Q280 671 304 671H466Q507 671 535 663Q563 655 595 631L797 487H912Q925 487 934 483.5Q943 480 949 473L1057 343Q1061 339 1064 330.5Q1067 322 1067 312Z" glyph-name="Yacute" horiz-adv-x="1003" unicode="&#221;" /><glyph d="M354 56Q357 34 345.5 22.5Q334 11 311 11H215Q202 11 193.5 14.5Q185 18 180 24L71 154Q67 158 64 166.5Q61 175 60 185L17 534Q14 556 25.5 567.5Q37 579 60 579H156Q169 579 178 575.5Q187 572 191 565L300 436Q304 431 306.5 423Q309 415 311 405ZM1067 312V150Q1067 126 1056 115Q1045 104 1021 104H879Q860 -3 805 -41Q750 -79 675 -79H414Q401 -79 392 -75.5Q383 -72 377 -65L268 64Q264 69 261.5 77.5Q259 86 259 96V251Q259 275 270 286Q281 297 305 297H396Q390 298 385.5 301.5Q381 305 377 309L268 438Q264 443 261.5 451.5Q259 460 259 470V624Q259 648 270 659Q281 670 305 670H566Q612 670 651.5 656.5Q691 643 719 609L822 487H912Q925 487 934 483.5Q943 480 949 473L1057 343Q1061 339 1064 330.5Q1067 322 1067 312Z" glyph-name="Yacute.salt" horiz-adv-x="1003" unicode="&#57649;" /><glyph d="M1073 312V150Q1073 125 1062 114.5Q1051 104 1027 104H911L710 -40Q678 -64 650 -72Q622 -80 581 -80H419Q406 -80 397 -76.5Q388 -73 382 -66L273 63Q269 68 266.5 76.5Q264 85 264 95V249Q264 273 275 284Q286 295 310 295H444Q461 295 467.5 297.5Q474 300 483 304H415Q402 304 393 307.5Q384 311 378 318L273 444Q269 449 266.5 457.5Q264 466 264 476V625Q264 649 275 660Q286 671 310 671H472Q513 671 541 663Q569 655 601 631L803 487H918Q931 487 940 483.5Q949 480 955 473L1063 343Q1067 339 1070 330.5Q1073 322 1073 312ZM315 11H234Q215 11 205 14.5Q195 18 188 25L79 156L80 155Q75 160 71 168.5Q67 177 63 188L17 315Q13 325 10.5 336.5Q8 348 7 358Q7 368 8 377Q9 386 13 393L63 531Q74 561 84 570Q94 579 125 579H206Q222 579 232 576Q242 573 246 569L247 568L355 438Q359 433 359.5 423Q360 413 356 395L316 258Q312 242 312 230Q312 218 316 202L356 65Q366 32 358.5 21.5Q351 11 315 11Z" glyph-name="Ycircumflex" horiz-adv-x="1009" unicode="&#374;" /><glyph d="M315 11H234Q215 11 205 14.5Q195 18 188 25L79 156L80 155Q75 160 71 168.5Q67 177 63 188L17 315Q13 325 10.5 336.5Q8 348 7 358Q7 368 8 377Q9 386 13 393L63 531Q74 561 84 570Q94 579 125 579H206Q222 579 232 576Q242 573 246 569L247 568L355 438Q359 433 359.5 423Q360 413 356 395L316 258Q312 242 312 230Q312 218 316 202L356 65Q366 32 358.5 21.5Q351 11 315 11ZM1073 312V150Q1073 126 1062 115Q1051 104 1027 104H885Q866 -3 811 -41Q756 -79 681 -79H420Q407 -79 398 -75.5Q389 -72 383 -65L274 64Q270 69 267.5 77.5Q265 86 265 96V251Q265 275 276 286Q287 297 311 297H402Q396 298 391.5 301.5Q387 305 383 309L274 438Q270 443 267.5 451.5Q265 460 265 470V624Q265 648 276 659Q287 670 311 670H572Q618 670 657.5 656.5Q697 643 725 609L828 487H918Q931 487 940 483.5Q949 480 955 473L1063 343Q1067 339 1070 330.5Q1073 322 1073 312Z" glyph-name="Ycircumflex.salt" horiz-adv-x="1009" unicode="&#57650;" /><glyph d="M299 251 338 204Q343 199 345.5 191.5Q348 184 348 174V36Q348 14 337.5 3Q327 -8 305 -8H184Q171 -8 163 -4.5Q155 -1 150 5L41 134Q37 139 34.5 147Q32 155 32 165V303Q32 325 42.5 335.5Q53 346 75 346H81L41 393Q37 398 34.5 405.5Q32 413 32 423V561Q32 583 42.5 593.5Q53 604 75 604H196Q208 604 216.5 600.5Q225 597 230 591L338 462Q343 457 345.5 449.5Q348 442 348 432V294Q348 272 337.5 261.5Q327 251 305 251ZM1068 312V150Q1068 125 1057 114.5Q1046 104 1022 104H906L705 -40Q673 -64 645 -72Q617 -80 576 -80H414Q401 -80 392 -76.5Q383 -73 377 -66L268 63Q264 68 261.5 76.5Q259 85 259 95V249Q259 273 270 284Q281 295 305 295H439Q456 295 462.5 297.5Q469 300 478 304H410Q397 304 388 307.5Q379 311 373 318L268 444Q264 449 261.5 457.5Q259 466 259 476V625Q259 649 270 660Q281 671 305 671H467Q508 671 536 663Q564 655 596 631L798 487H913Q926 487 935 483.5Q944 480 950 473L1058 343Q1062 339 1065 330.5Q1068 322 1068 312Z" glyph-name="Ydieresis" horiz-adv-x="1004" unicode="&#376;" /><glyph d="M299 246 338 199Q343 194 345.5 186.5Q348 179 348 169V31Q348 9 337.5 -2Q327 -13 305 -13H184Q171 -13 163 -9.5Q155 -6 150 0L41 129Q37 134 34.5 142Q32 150 32 160V298Q32 320 42.5 330.5Q53 341 75 341H81L41 388Q37 393 34.5 400.5Q32 408 32 418V556Q32 578 42.5 588.5Q53 599 75 599H196Q208 599 216.5 595.5Q225 592 230 586L338 457Q343 452 345.5 444.5Q348 437 348 427V289Q348 267 337.5 256.5Q327 246 305 246ZM1068 312V150Q1068 126 1057 115Q1046 104 1022 104H880Q861 -3 806 -41Q751 -79 676 -79H415Q402 -79 393 -75.5Q384 -72 378 -65L269 64Q265 69 262.5 77.5Q260 86 260 96V251Q260 275 271 286Q282 297 306 297H397Q391 298 386.5 301.5Q382 305 378 309L269 438Q265 443 262.5 451.5Q260 460 260 470V624Q260 648 271 659Q282 670 306 670H567Q613 670 652.5 656.5Q692 643 720 609L823 487H913Q926 487 935 483.5Q944 480 950 473L1058 343Q1062 339 1065 330.5Q1068 322 1068 312Z" glyph-name="Ydieresis.salt" horiz-adv-x="1004" unicode="&#57651;" /><glyph d="M266 11H170Q157 11 148.5 14.5Q140 18 134 25L25 154Q21 160 19 167.5Q17 175 18 185L61 534Q64 558 74 568.5Q84 579 107 579H203Q216 579 224.5 575.5Q233 572 239 565L347 436Q351 431 353.5 423Q356 415 355 405L312 56Q309 32 299 21.5Q289 11 266 11ZM1067 312V150Q1067 125 1056 114.5Q1045 104 1021 104H905L704 -40Q672 -64 644 -72Q616 -80 575 -80H413Q400 -80 391 -76.5Q382 -73 376 -66L267 63Q263 68 260.5 76.5Q258 85 258 95V249Q258 273 269 284Q280 295 304 295H438Q455 295 461.5 297.5Q468 300 477 304H409Q396 304 387 307.5Q378 311 372 318L267 444Q263 449 260.5 457.5Q258 466 258 476V625Q258 649 269 660Q280 671 304 671H466Q507 671 535 663Q563 655 595 631L797 487H912Q925 487 934 483.5Q943 480 949 473L1057 343Q1061 339 1064 330.5Q1067 322 1067 312Z" glyph-name="Ygrave" horiz-adv-x="1003" unicode="&#7922;" /><glyph d="M266 11H170Q157 11 148.5 14.5Q140 18 134 25L25 154Q21 160 19 167.5Q17 175 18 185L61 534Q64 558 74 568.5Q84 579 107 579H203Q216 579 224.5 575.5Q233 572 239 565L347 436Q351 431 353.5 423Q356 415 355 405L312 56Q309 32 299 21.5Q289 11 266 11ZM1067 312V150Q1067 126 1056 115Q1045 104 1021 104H879Q860 -3 805 -41Q750 -79 675 -79H414Q401 -79 392 -75.5Q383 -72 377 -65L268 64Q264 69 261.5 77.5Q259 86 259 96V251Q259 275 270 286Q281 297 305 297H396Q390 298 385.5 301.5Q381 305 377 309L268 438Q264 443 261.5 451.5Q259 460 259 470V624Q259 648 270 659Q281 670 305 670H566Q612 670 651.5 656.5Q691 643 719 609L822 487H912Q925 487 934 483.5Q943 480 949 473L1057 343Q1061 339 1064 330.5Q1067 322 1067 312Z" glyph-name="Ygrave.salt" horiz-adv-x="1003" unicode="&#57652;" /><glyph d="M919 495V-33Q919 -57 908 -68Q897 -79 873 -79H739Q717 -79 701.5 -72.5Q686 -66 670 -51L392 217V-25Q392 -49 381 -60Q370 -71 346 -71H225Q212 -71 203 -67.5Q194 -64 188 -57L79 72Q75 77 72.5 85.5Q70 94 70 104V616Q70 640 81 651Q92 662 116 662H265Q287 662 303 655.5Q319 649 335 634L599 377V624Q599 648 610 659Q621 670 645 670H764Q777 670 786 666.5Q795 663 801 656L909 526Q913 522 916 513.5Q919 505 919 495Z" glyph-name="Z" horiz-adv-x="880" unicode="Z" /><glyph d="M833 -79H699Q677 -79 661.5 -72.5Q646 -66 630 -51L392 215V-25Q392 -49 381 -60Q370 -71 346 -71H225Q212 -71 203 -67.5Q194 -64 188 -57L79 72Q75 77 72.5 85.5Q70 94 70 104V616Q70 640 81 651Q92 662 116 662H265Q287 662 303 655.5Q319 649 335 634L559 380V624Q559 648 570 659Q581 670 605 670H724Q737 670 746 666.5Q755 663 761 656L869 526Q873 522 876 513.5Q879 505 879 495V-33Q879 -57 868 -68Q857 -79 833 -79Z" glyph-name="Z.s" horiz-adv-x="840" /><glyph d="M354 76Q357 54 345.5 42.5Q334 31 311 31H215Q202 31 193.5 34.5Q185 38 180 44L71 174Q67 178 64 186.5Q61 195 60 205L17 554Q14 576 25.5 587.5Q37 599 60 599H156Q169 599 178 595.5Q187 592 191 585L300 456Q304 451 306.5 443Q309 435 311 425ZM1021 -79H887Q865 -79 849.5 -72.5Q834 -66 818 -51L580 215V-25Q580 -49 569 -60Q558 -71 534 -71H413Q400 -71 391 -67.5Q382 -64 376 -57L267 72Q263 77 260.5 85.5Q258 94 258 104V616Q258 640 269 651Q280 662 304 662H453Q475 662 491 655.5Q507 649 523 634L747 380V624Q747 648 758 659Q769 670 793 670H912Q925 670 934 666.5Q943 663 949 656L1057 526Q1061 522 1064 513.5Q1067 505 1067 495V-33Q1067 -57 1056 -68Q1045 -79 1021 -79Z" glyph-name="Zacute" horiz-adv-x="1028" unicode="&#377;" /><glyph d="M255 16H174Q157 16 147 18.5Q137 21 133 27L24 156Q20 161 19.5 171.5Q19 182 24 200L64 337Q68 353 68 365Q68 377 64 393L24 530Q14 563 21.5 573.5Q29 584 65 584H146Q165 584 175 580Q185 576 192 568L301 439Q305 433 309 425.5Q313 418 317 408V407L363 280Q367 270 369.5 259Q372 248 373 238V237Q373 227 372 218Q371 209 367 202L317 64Q306 34 296 25Q286 16 255 16ZM1037 -79H903Q881 -79 865.5 -72.5Q850 -66 834 -51L596 215V-25Q596 -49 585 -60Q574 -71 550 -71H429Q416 -71 407 -67.5Q398 -64 392 -57L283 72Q279 77 276.5 85.5Q274 94 274 104V616Q274 640 285 651Q296 662 320 662H469Q491 662 507 655.5Q523 649 539 634L763 380V624Q763 648 774 659Q785 670 809 670H928Q941 670 950 666.5Q959 663 965 656L1073 526Q1077 522 1080 513.5Q1083 505 1083 495V-33Q1083 -57 1072 -68Q1061 -79 1037 -79Z" glyph-name="Zcaron" horiz-adv-x="1044" unicode="&#381;" /><glyph d="M335 311V153Q335 129 324 118Q313 107 289 107H162Q149 107 140 110.5Q131 114 125 121L16 250Q12 255 9.5 263.5Q7 272 7 282V440Q7 464 18 475Q29 486 53 486H180Q193 486 202 482.5Q211 479 217 472L325 342Q329 338 332 329.5Q335 321 335 311ZM1009 -79H875Q853 -79 837.5 -72.5Q822 -66 806 -51L568 215V-25Q568 -49 557 -60Q546 -71 522 -71H401Q388 -71 379 -67.5Q370 -64 364 -57L255 72Q251 77 248.5 85.5Q246 94 246 104V616Q246 640 257 651Q268 662 292 662H441Q463 662 479 655.5Q495 649 511 634L735 380V624Q735 648 746 659Q757 670 781 670H900Q913 670 922 666.5Q931 663 937 656L1045 526Q1049 522 1052 513.5Q1055 505 1055 495V-33Q1055 -57 1044 -68Q1033 -79 1009 -79Z" glyph-name="Zdotaccent" horiz-adv-x="1016" unicode="&#379;" /><glyph d="M783 274 891 144Q895 140 898 131.5Q901 123 901 113V-34Q901 -59 890 -69.5Q879 -80 855 -80H591Q565 -80 546.5 -78Q528 -76 511.5 -71.5Q495 -67 476 -59Q457 -51 428 -40L201 36Q192 39 184.5 43.5Q177 48 173 54L64 184Q58 191 55 202Q52 213 52 226V485Q52 508 60.5 522.5Q69 537 91 544L318 631Q347 642 366.5 650Q386 658 402.5 662.5Q419 667 437.5 669Q456 671 482 671H746Q759 671 768 667.5Q777 664 783 657L891 527Q895 523 898 514.5Q901 506 901 496V345Q901 321 889.5 308.5Q878 296 855 296H725V288H746Q759 288 768 284.5Q777 281 783 274Z" glyph-name="a" horiz-adv-x="849" unicode="a" /><glyph d="M949 276 1057 146Q1061 142 1064 133.5Q1067 125 1067 115V-32Q1067 -57 1056 -67.5Q1045 -78 1021 -78H777Q751 -78 732.5 -76Q714 -74 697.5 -69.5Q681 -65 662 -57Q643 -49 614 -38L407 38Q398 41 390.5 45.5Q383 50 379 56L270 186Q264 193 261 204Q258 215 258 228V487Q258 510 266.5 524.5Q275 539 297 546L504 633Q533 644 552.5 652Q572 660 588.5 664.5Q605 669 623.5 671Q642 673 668 673H912Q925 673 934 669.5Q943 666 949 659L1057 529Q1061 525 1064 516.5Q1067 508 1067 498V347Q1067 323 1055.5 310.5Q1044 298 1021 298H911V290H912Q925 290 934 286.5Q943 283 949 276ZM354 56Q357 34 345.5 22.5Q334 11 311 11H215Q202 11 193.5 14.5Q185 18 180 24L71 154Q67 158 64 166.5Q61 175 60 185L17 534Q14 556 25.5 567.5Q37 579 60 579H156Q169 579 178 575.5Q187 572 191 565L300 436Q304 431 306.5 423Q309 415 311 405Z" glyph-name="aacute" horiz-adv-x="1015" unicode="&#225;" /><glyph d="M369 231Q369 162 357.5 117.5Q346 73 326 48Q306 23 277.5 13.5Q249 4 216 4H172Q159 4 150 7.5Q141 11 135 18L26 147Q22 152 19.5 160.5Q17 169 17 179V275Q17 296 25.5 305Q34 314 58 314H79Q86 314 91.5 318Q97 322 99 332L24 422L25 421Q21 425 19 432Q17 439 17 450V541Q17 565 28 576Q39 587 63 587H107Q140 587 168 577.5Q196 568 216 543L324 414Q345 389 357 345Q369 301 369 231ZM965 276 1073 146Q1077 142 1080 133.5Q1083 125 1083 115V-32Q1083 -57 1072 -67.5Q1061 -78 1037 -78H793Q767 -78 748.5 -76Q730 -74 713.5 -69.5Q697 -65 678 -57Q659 -49 630 -38L423 38Q414 41 406.5 45.5Q399 50 395 56L286 186Q280 193 277 204Q274 215 274 228V487Q274 510 282.5 524.5Q291 539 313 546L520 633Q549 644 568.5 652Q588 660 604.5 664.5Q621 669 639.5 671Q658 673 684 673H928Q941 673 950 669.5Q959 666 965 659L1073 529Q1077 525 1080 516.5Q1083 508 1083 498V347Q1083 323 1071.5 310.5Q1060 298 1037 298H927V290H928Q941 290 950 286.5Q959 283 965 276Z" glyph-name="abreve" horiz-adv-x="1031" unicode="&#259;" /><glyph d="M955 276 1063 146Q1067 142 1070 133.5Q1073 125 1073 115V-32Q1073 -57 1062 -67.5Q1051 -78 1027 -78H783Q757 -78 738.5 -76Q720 -74 703.5 -69.5Q687 -65 668 -57Q649 -49 620 -38L413 38Q404 41 396.5 45.5Q389 50 385 56L276 186Q270 193 267 204Q264 215 264 228V487Q264 510 272.5 524.5Q281 539 303 546L510 633Q539 644 558.5 652Q578 660 594.5 664.5Q611 669 629.5 671Q648 673 674 673H918Q931 673 940 669.5Q949 666 955 659L1063 529Q1067 525 1070 516.5Q1073 508 1073 498V347Q1073 323 1061.5 310.5Q1050 298 1027 298H917V290H918Q931 290 940 286.5Q949 283 955 276ZM315 11H234Q215 11 205 14.5Q195 18 188 25L79 156L80 155Q75 160 71 168.5Q67 177 63 188L17 315Q13 325 10.5 336.5Q8 348 7 358Q7 368 8 377Q9 386 13 393L63 531Q74 561 84 570Q94 579 125 579H206Q222 579 232 576Q242 573 246 569L247 568L355 438Q359 433 359.5 423Q360 413 356 395L316 258Q312 242 312 230Q312 218 316 202L356 65Q366 32 358.5 21.5Q351 11 315 11Z" glyph-name="acircumflex" horiz-adv-x="1021" unicode="&#226;" /><glyph d="M354 56Q357 34 345.5 22.5Q334 11 311 11H215Q202 11 193.5 14.5Q185 18 180 24L71 154Q67 158 64 166.5Q61 175 60 185L17 534Q14 556 25.5 567.5Q37 579 60 579H156Q169 579 178 575.5Q187 572 191 565L300 436Q304 431 306.5 423Q309 415 311 405Z" glyph-name="acute" horiz-adv-x="262" unicode="&#180;" /><glyph d="M299 246 338 199Q343 194 345.5 186.5Q348 179 348 169V31Q348 9 337.5 -2Q327 -13 305 -13H184Q171 -13 163 -9.5Q155 -6 150 0L41 129Q37 134 34.5 142Q32 150 32 160V298Q32 320 42.5 330.5Q53 341 75 341H81L41 388Q37 393 34.5 400.5Q32 408 32 418V556Q32 578 42.5 588.5Q53 599 75 599H196Q208 599 216.5 595.5Q225 592 230 586L338 457Q343 452 345.5 444.5Q348 437 348 427V289Q348 267 337.5 256.5Q327 246 305 246ZM950 276 1058 146Q1062 142 1065 133.5Q1068 125 1068 115V-32Q1068 -57 1057 -67.5Q1046 -78 1022 -78H778Q752 -78 733.5 -76Q715 -74 698.5 -69.5Q682 -65 663 -57Q644 -49 615 -38L408 38Q399 41 391.5 45.5Q384 50 380 56L271 186Q265 193 262 204Q259 215 259 228V487Q259 510 267.5 524.5Q276 539 298 546L505 633Q534 644 553.5 652Q573 660 589.5 664.5Q606 669 624.5 671Q643 673 669 673H913Q926 673 935 669.5Q944 666 950 659L1058 529Q1062 525 1065 516.5Q1068 508 1068 498V347Q1068 323 1056.5 310.5Q1045 298 1022 298H912V290H913Q926 290 935 286.5Q944 283 950 276Z" glyph-name="adieresis" horiz-adv-x="1016" unicode="&#228;" /><glyph d="M824 191 901 98Q905 94 908 85.5Q911 77 911 67V-64Q911 -88 900 -99Q889 -110 865 -110H611Q566 -110 531 -102.5Q496 -95 457 -80L219 15Q206 18 198 23.5Q190 29 185 36L77 164Q69 173 65.5 185.5Q62 198 62 215V635Q62 659 73 670Q84 681 108 681H225Q238 681 247 677.5Q256 674 262 667L328 588V634Q328 658 338.5 669Q349 680 374 680H481Q494 680 503 676.5Q512 673 518 666L593 577V635Q593 659 604 670Q615 681 639 681H756Q769 681 778 677.5Q787 674 793 667L901 537Q905 533 908 524.5Q911 516 911 506V237Q911 213 900 202Q889 191 865 191Z" glyph-name="ae" horiz-adv-x="872" unicode="&#230;" /><glyph d="M266 11H170Q157 11 148.5 14.5Q140 18 134 25L25 154Q21 160 19 167.5Q17 175 18 185L61 534Q64 558 74 568.5Q84 579 107 579H203Q216 579 224.5 575.5Q233 572 239 565L347 436Q351 431 353.5 423Q356 415 355 405L312 56Q309 32 299 21.5Q289 11 266 11ZM949 276 1057 146Q1061 142 1064 133.5Q1067 125 1067 115V-32Q1067 -57 1056 -67.5Q1045 -78 1021 -78H777Q751 -78 732.5 -76Q714 -74 697.5 -69.5Q681 -65 662 -57Q643 -49 614 -38L407 38Q398 41 390.5 45.5Q383 50 379 56L270 186Q264 193 261 204Q258 215 258 228V487Q258 510 266.5 524.5Q275 539 297 546L504 633Q533 644 552.5 652Q572 660 588.5 664.5Q605 669 623.5 671Q642 673 668 673H912Q925 673 934 669.5Q943 666 949 659L1057 529Q1061 525 1064 516.5Q1067 508 1067 498V347Q1067 323 1055.5 310.5Q1044 298 1021 298H911V290H912Q925 290 934 286.5Q943 283 949 276Z" glyph-name="agrave" horiz-adv-x="1015" unicode="&#224;" /><glyph d="M326 404V57Q326 33 315 22Q304 11 280 11H187Q174 11 165 14.5Q156 18 150 25L41 154Q37 159 34.5 167.5Q32 176 32 186V533Q32 557 43 568Q54 579 78 579H171Q184 579 193 575.5Q202 572 208 565L316 435Q320 431 323 422.5Q326 414 326 404ZM928 276 1036 146Q1040 142 1043 133.5Q1046 125 1046 115V-32Q1046 -57 1035 -67.5Q1024 -78 1000 -78H756Q730 -78 711.5 -76Q693 -74 676.5 -69.5Q660 -65 641 -57Q622 -49 593 -38L386 38Q377 41 369.5 45.5Q362 50 358 56L249 186Q243 193 240 204Q237 215 237 228V487Q237 510 245.5 524.5Q254 539 276 546L483 633Q512 644 531.5 652Q551 660 567.5 664.5Q584 669 602.5 671Q621 673 647 673H891Q904 673 913 669.5Q922 666 928 659L1036 529Q1040 525 1043 516.5Q1046 508 1046 498V347Q1046 323 1034.5 310.5Q1023 298 1000 298H890V290H891Q904 290 913 286.5Q922 283 928 276Z" glyph-name="amacron" horiz-adv-x="994" unicode="&#257;" /><glyph d="M891 104Q891 7 840 -44Q789 -95 705 -95H625Q579 -95 546 -80.5Q513 -66 492 -41L456 3Q439 -14 415 -21Q391 -28 362 -28H314Q278 -28 247 -16Q216 -4 194 23L86 151Q65 176 53.5 214Q42 252 42 303V484Q42 508 53 519Q64 530 88 530H203Q216 530 225 526.5Q234 523 240 516L324 414Q330 419 338 421.5Q346 424 356 424H406L370 467Q366 472 363.5 480.5Q361 489 361 499V683Q361 707 371.5 718Q382 729 407 729H515Q528 729 537 725.5Q546 722 552 715L590 670H596Q642 670 679 654.5Q716 639 741 610L850 481Q869 458 880 425.5Q891 393 891 352ZM575 324H568L575 316Z" glyph-name="ampersand" horiz-adv-x="834" unicode="&amp;" /><glyph d="M1073 343V198Q1073 174 1062 163Q1051 152 1027 152H983V121Q983 19 937 -32Q891 -83 825 -83H717Q671 -83 638 -68.5Q605 -54 584 -29L548 15Q531 -2 507 -9Q483 -16 454 -16H406Q369 -16 338.5 -4Q308 8 286 35L187 153Q179 154 172.5 157.5Q166 161 162 166L53 295Q49 300 46.5 308.5Q44 317 44 327V472Q44 496 55 507Q66 518 90 518H134V625Q134 649 145 660Q156 671 180 671H297Q310 671 319 667.5Q328 664 334 657L405 571Q410 581 420 585.5Q430 590 446 590H553Q566 590 575 586.5Q584 583 590 576L665 487V625Q665 649 676 660Q687 671 711 671H828Q841 671 850 667.5Q859 664 865 657L973 527Q977 523 980 514.5Q983 506 983 496V471L1063 374Q1067 370 1070 361.5Q1073 353 1073 343Z" glyph-name="ampersand.salt" horiz-adv-x="1009" unicode="&#57658;" /><glyph d="M815 -78H571Q545 -78 526.5 -76Q508 -74 491.5 -69.5Q475 -65 456 -57Q437 -49 408 -38L201 38Q192 41 184.5 45.5Q177 50 173 56L64 186Q58 193 55 204Q52 215 52 228V487Q52 510 60.5 524.5Q69 539 91 546L298 633Q327 644 346.5 652Q366 660 382.5 664.5Q399 669 417.5 671Q436 673 462 673H706Q719 673 728 669.5Q737 666 743 659L778 617V625Q778 652 787.5 661.5Q797 671 822 671H894Q907 671 916 668Q925 665 930 660L1039 529Q1043 525 1045 517Q1047 509 1047 499V388Q1047 319 1012 292.5Q977 266 900 277L785 298H705V290H706Q719 290 728 286.5Q737 283 743 276L851 146Q855 142 858 133.5Q861 125 861 115V-32Q861 -57 850 -67.5Q839 -78 815 -78Z" glyph-name="aogonek" horiz-adv-x="945" unicode="&#261;" /><glyph d="M377 494Q391 455 397 428.5Q403 402 403.5 377.5Q404 353 400 324.5Q396 296 390 253L387 230L382 190Q376 150 374 124Q372 98 374 77Q376 56 381 35.5Q386 15 395 -12Q404 -48 392.5 -62Q381 -76 360 -76H254Q235 -76 223 -70.5Q211 -65 204 -57L95 73Q91 77 88 83.5Q85 90 83 97Q69 136 63 162.5Q57 189 56.5 213Q56 237 60 265.5Q64 294 70 337L73 361L77 392Q84 438 86.5 465.5Q89 493 87.5 513Q86 533 80.5 552.5Q75 572 66 602Q56 636 67.5 651.5Q79 667 107 667H206Q225 667 237 661Q249 655 256 646L363 518Q368 513 371.5 507Q375 501 377 494ZM667 494Q681 455 687 428.5Q693 402 693.5 377.5Q694 353 690 324.5Q686 296 680 253L677 230L672 190Q666 150 664 124Q662 98 664 77Q666 56 671 35.5Q676 15 685 -12Q694 -48 682.5 -62Q671 -76 650 -76H544Q525 -76 513 -70.5Q501 -65 494 -57L385 73Q381 77 378 83.5Q375 90 373 97Q359 136 353 162.5Q347 189 346.5 213Q346 237 350 265.5Q354 294 360 337L363 361L367 392Q374 438 376.5 465.5Q379 493 377.5 513Q376 533 370.5 552.5Q365 572 356 602Q346 636 357.5 651.5Q369 667 397 667H496Q515 667 527 661Q539 655 546 646L653 518Q658 513 661.5 507Q665 501 667 494Z" glyph-name="approxequal" horiz-adv-x="641" unicode="&#8776;" /><glyph d="M1017 -80H783Q738 -80 703 -72.5Q668 -65 630 -50L456 10Q446 14 437.5 19.5Q429 25 423 32L420 36Q401 18 375.5 11Q350 4 322 4H264Q231 4 203 13Q175 22 155 47L46 177Q26 202 14 246.5Q2 291 2 360Q2 429 13.5 473.5Q25 518 45 543Q65 568 93.5 577.5Q122 587 155 587H213Q242 587 267 579.5Q292 572 311 555Q316 563 325.5 570Q335 577 348 581L520 641Q559 656 594 663.5Q629 671 674 671H908Q921 671 930 667.5Q939 664 945 657L1054 528Q1058 522 1060.5 514Q1063 506 1063 496V342Q1063 318 1052 307Q1041 296 1017 296H907V287H908Q921 287 930 283.5Q939 280 945 273L1053 143Q1057 139 1060 130.5Q1063 122 1063 112V-34Q1063 -58 1052 -69Q1041 -80 1017 -80Z" glyph-name="aring" horiz-adv-x="1011" unicode="&#229;" /><glyph d="M940 231Q940 213 930.5 200Q921 187 905 177L558 -57Q542 -68 524 -64.5Q506 -61 496 -50L388 79L389 78Q385 82 382.5 88Q380 94 380 100V126L320 122Q307 121 299 124.5Q291 128 286 134L178 263Q174 269 171.5 276.5Q169 284 169 294V427Q169 449 179 460Q189 471 211 470L380 460V621Q380 643 403 654.5Q426 666 449 650L795 416Q802 412 808 407Q814 402 818 397L927 268Q933 261 936.5 251.5Q940 242 940 231Z" glyph-name="arrowdown" horiz-adv-x="1000" unicode="&#8595;" /><glyph glyph-name="arrowdown.chevron" horiz-adv-x="1280" unicode="&#57700;" /><glyph d="M868 -26Q854 -40 838 -42Q822 -44 803 -40L393 39Q384 41 377 45.5Q370 50 365 55L364 56L257 185Q245 198 245 213Q245 228 255 238L351 335Q349 336 347.5 338Q346 340 345 341L236 470Q226 483 227.5 497Q229 511 243 523L336 618Q352 634 367 634.5Q382 635 398 619L508 493L623 606Q634 618 652 615.5Q670 613 683 598L791 469Q794 465 797 459.5Q800 454 801 449H802V448L881 38Q885 19 883 3Q881 -13 868 -26Z" glyph-name="arrowdownleft" horiz-adv-x="1000" unicode="&#8601;" /><glyph d="M506 -27Q491 -43 476 -42.5Q461 -42 445 -26L353 67Q351 68 349 70Q347 72 346 74H345L236 204Q226 216 226.5 230Q227 244 242 257L358 360L253 485Q240 500 248 523Q256 546 284 553L694 631Q713 635 729 633Q745 631 759 618L762 615V614H763L872 484Q882 472 883.5 457Q885 442 881 425L802 15V14Q795 -13 771 -21Q747 -29 732 -14L617 99Z" glyph-name="arrowdownright" horiz-adv-x="1000" unicode="&#8600;" /><glyph d="M665 -71Q655 -88 642 -97.5Q629 -107 611 -107Q596 -107 584.5 -101Q573 -95 564 -85L456 45Q454 48 451.5 51Q449 54 447 58L213 405Q197 428 208.5 451Q220 474 241 474H402L392 644Q391 665 402 675Q413 685 435 685H568Q581 685 589.5 681.5Q598 678 603 672L712 542Q716 538 718 531Q720 524 720 515L718 474H762Q769 474 776.5 470Q784 466 788 461L896 332Q905 322 907 305.5Q909 289 899 276L665 -72Z" glyph-name="arrowleft" horiz-adv-x="1001" unicode="&#8592;" /><glyph glyph-name="arrowleft.chevron" horiz-adv-x="1330" unicode="&#57697;" /><glyph d="M900 186Q916 163 904.5 140Q893 117 872 117H711L721 -54Q722 -75 711 -85Q700 -95 678 -95H545Q532 -95 523.5 -92Q515 -89 509 -82L401 48Q397 52 395 59.5Q393 67 393 77L395 117H351Q343 117 336 120Q329 123 324 130L217 258Q207 268 205.5 284Q204 300 214 315L448 661Q458 678 471 687.5Q484 697 503 697Q517 697 528 691Q539 685 548 674L657 545Q659 542 661.5 539Q664 536 666 533Z" glyph-name="arrowright" horiz-adv-x="1001" unicode="&#8594;" /><glyph glyph-name="arrowright.chevron" horiz-adv-x="1330" unicode="&#57699;" /><glyph d="M940 298V165Q940 143 930 132Q920 121 898 122L729 133V-29Q729 -51 706 -62Q683 -73 660 -57L314 177Q307 181 301.5 185.5Q296 190 291 194V195H290L182 325Q176 332 172.5 340.5Q169 349 169 361Q169 380 178.5 393Q188 406 204 416L551 650Q567 660 584.5 657Q602 654 612 643L721 514Q725 509 727 503Q729 497 729 492V467L789 470Q800 471 808.5 468Q817 465 822 459L931 329Q935 324 937.5 316Q940 308 940 298Z" glyph-name="arrowup" horiz-adv-x="1000" unicode="&#8593;" /><glyph glyph-name="arrowup.chevron" horiz-adv-x="1280" unicode="&#57698;" /><glyph d="M417 -40Q398 -44 382 -42.5Q366 -41 354 -28Q353 -27 351.5 -26Q350 -25 349 -24L348 -23L240 106Q229 119 227.5 134.5Q226 150 230 167L309 577Q316 605 340 613Q364 621 379 606L494 493L605 619Q619 635 635 634.5Q651 634 664 618L759 524L765 518L874 388Q884 375 884 362Q884 349 869 335L752 232L858 107Q871 92 862 68Q853 44 827 39Z" glyph-name="arrowupleft" horiz-adv-x="1000" unicode="&#8598;" /><glyph d="M774 -26Q760 -42 744 -42.5Q728 -43 713 -27L603 99L488 -14Q477 -27 459 -24.5Q441 -22 428 -7L319 122Q315 127 312.5 132.5Q310 138 309 144L230 554Q226 573 228 589Q230 605 244 619Q257 632 273 634Q289 636 308 632L718 552Q727 551 734.5 546Q742 541 746 535L855 406Q865 394 865.5 379Q866 364 856 354L760 257L765 251L874 122Q885 109 883.5 95Q882 81 868 68Z" glyph-name="arrowupright" horiz-adv-x="1000" unicode="&#8599;" /><glyph d="M724 -56Q724 -81 712 -90.5Q700 -100 675 -96L294 12Q260 22 234 35Q208 48 190 69L81 198Q66 216 58 242.5Q50 269 50 306V379Q50 457 84.5 490.5Q119 524 185 544L567 652Q581 655 591 652.5Q601 650 607 643L715 514Q719 508 721.5 500.5Q724 493 724 483L725 351Q726 327 715 315Q704 303 682 300L546 263L573 256Q585 254 593 250.5Q601 247 607 241L715 111Q720 105 722.5 96Q725 87 725 76Z" glyph-name="asciicircum" horiz-adv-x="686" unicode="^" /><glyph d="M383 494Q397 455 403 428.5Q409 402 409.5 377.5Q410 353 406 324.5Q402 296 396 253L393 230L388 190Q382 150 380 124Q378 98 380 77Q382 56 387 35.5Q392 15 401 -12Q410 -48 398.5 -62Q387 -76 366 -76H260Q241 -76 229 -70.5Q217 -65 210 -57L101 73Q97 77 94 83.5Q91 90 89 97Q75 136 69 162.5Q63 189 62.5 213Q62 237 66 265.5Q70 294 76 337L79 361L83 392Q90 438 92.5 465.5Q95 493 93.5 513Q92 533 86.5 552.5Q81 572 72 602Q62 636 73.5 651.5Q85 667 113 667H212Q231 667 243 661Q255 655 262 646L369 518Q374 513 377.5 507Q381 501 383 494Z" glyph-name="asciitilde" horiz-adv-x="363" unicode="~" /><glyph d="M504 -39Q498 -71 487 -78Q476 -85 445 -75L334 -39Q321 -35 313.5 -30.5Q306 -26 302 -22L193 107Q189 111 188 118Q187 125 189 135Q189 135 188.5 135Q188 135 188 136L187 137L78 267Q74 272 72 281.5Q70 291 70 304V421Q70 454 80 462.5Q90 471 122 465L253 447L197 568Q183 596 188 608Q193 620 225 630L336 667Q356 674 366 673Q376 672 383 665L476 554L518 594Q540 614 552 614Q564 614 580 597L688 468Q689 466 691 463.5Q693 461 695 459H696V458L764 363Q783 335 779.5 324Q776 313 749 297L679 260L770 151Q778 142 777.5 131Q777 120 764 100L696 6Q677 -21 664 -22Q651 -23 627 -1L526 95Z" glyph-name="asterisk" horiz-adv-x="742" unicode="*" /><glyph d="M828 -153H418Q363 -153 316.5 -137Q270 -121 236 -81L127 49Q92 91 72 166Q52 241 52 360Q52 477 71 552Q90 627 124 669Q158 711 205.5 727Q253 743 309 743H569Q623 743 666 731Q709 719 737 685L845 556Q848 552 851.5 547Q855 542 858 538V550Q858 574 868 584Q878 594 902 594H930Q943 594 951.5 591Q960 588 965 582L966 581L1074 452Q1078 447 1080.5 439Q1083 431 1083 421V231Q1083 115 1064 40Q1045 -35 1011.5 -78Q978 -121 931 -137Q884 -153 828 -153ZM305 96H386L315 180Q301 197 291 223Q281 249 278 286Q277 273 277 259.5Q277 246 277 231Q277 191 279.5 157Q282 123 287 97Q291 96 296 96Q301 96 305 96Z" glyph-name="at" horiz-adv-x="1026" unicode="@" /><glyph d="M939 276 1047 146Q1051 142 1054 133.5Q1057 125 1057 115V-32Q1057 -57 1046 -67.5Q1035 -78 1011 -78H767Q741 -78 722.5 -76Q704 -74 687.5 -69.5Q671 -65 652 -57Q633 -49 604 -38L397 38Q388 41 380.5 45.5Q373 50 369 56L260 186Q254 193 251 204Q248 215 248 228V487Q248 510 256.5 524.5Q265 539 287 546L494 633Q523 644 542.5 652Q562 660 578.5 664.5Q595 669 613.5 671Q632 673 658 673H902Q915 673 924 669.5Q933 666 939 659L1047 529Q1051 525 1054 516.5Q1057 508 1057 498V347Q1057 323 1045.5 310.5Q1034 298 1011 298H901V290H902Q915 290 924 286.5Q933 283 939 276ZM331 406Q338 382 341.5 365Q345 348 345 332Q345 316 342.5 296Q340 276 336 245L334 229L330 201Q326 173 324.5 155Q323 137 324.5 122Q326 107 329.5 93Q333 79 339 60Q346 35 337 23Q328 11 303 11H202Q189 11 180.5 14.5Q172 18 165 26L57 155Q53 159 49.5 166.5Q46 174 43 182V183H42Q35 207 31.5 223.5Q28 240 28 256.5Q28 273 30.5 292.5Q33 312 37 343L39 360L42 382Q47 414 49 433Q51 452 50 466Q49 480 45 494Q41 508 34 529Q27 554 36 566Q45 578 70 578H171Q184 578 192.5 574Q201 570 207 563L316 433Q320 429 323.5 422Q327 415 330 407V406Z" glyph-name="atilde" horiz-adv-x="1005" unicode="&#227;" /><glyph d="M907 -31Q907 -55 896 -66Q885 -77 861 -77H213Q200 -77 191 -73.5Q182 -70 176 -63L67 66Q63 71 60.5 79.5Q58 88 58 98V408Q58 516 105 563Q152 610 221 610H269Q302 610 327.5 601Q353 592 370 572L372 569Q385 616 425.5 646.5Q466 677 532 677H624Q665 677 698 663.5Q731 650 754 622L862 493Q884 468 895.5 430.5Q907 393 907 344Z" glyph-name="b" horiz-adv-x="861" unicode="b" /><glyph d="M1024 363V218Q1024 195 1013.5 185Q1003 175 979 172L151 52Q138 51 128.5 54Q119 57 113 64L5 194L6 193Q0 199 -2.5 207.5Q-5 216 -5 227V372Q-5 395 5.5 405Q16 415 40 418L867 538Q880 540 889.5 536.5Q899 533 905 526L1014 397Q1018 391 1021 382Q1024 373 1024 363Z" glyph-name="backslash" horiz-adv-x="909" unicode="\" /><glyph d="M1084 303V158Q1084 134 1073 123Q1062 112 1038 112H210Q197 112 188 115.5Q179 119 173 126L64 255Q60 260 57.5 268.5Q55 277 55 287V432Q55 456 66 467Q77 478 101 478H929Q942 478 951 474.5Q960 471 966 464L1074 334Q1078 330 1081 321.5Q1084 313 1084 303Z" glyph-name="bar" horiz-adv-x="1030" unicode="|" /><glyph glyph-name="block" horiz-adv-x="1000" unicode="&#9608;" /><glyph glyph-name="block.v" horiz-adv-x="1000" unicode="&#57687;" /><glyph d="M431 87 519 -20Q523 -24 526 -32.5Q529 -41 529 -51V-173Q529 -197 518 -208Q507 -219 483 -219H439Q358 -219 306 -199.5Q254 -180 226 -146L117 -18Q94 10 84 46.5Q74 83 74 126V227L30 280Q20 292 15 308Q10 324 10 345V380Q10 418 26 440.5Q42 463 74 474V597Q74 644 86 683.5Q98 723 127.5 751Q157 779 206.5 795Q256 811 330 811H374Q387 811 396 807.5Q405 804 411 797L519 667Q523 663 526 654.5Q529 646 529 636V517Q529 493 518 482Q507 471 483 471H462Q443 471 437 460.5Q431 450 431 431V316Q431 282 420.5 266.5Q410 251 382 245L416 205Q424 196 427.5 183Q431 170 431 152Z" glyph-name="braceleft" horiz-adv-x="455" unicode="{" /><glyph d="M554 216Q554 178 538 156Q522 134 490 123V-3Q490 -50 478 -90Q466 -130 436.5 -158.5Q407 -187 357.5 -203Q308 -219 234 -219H190Q177 -219 168 -215.5Q159 -212 153 -205L44 -76Q40 -71 37.5 -62.5Q35 -54 35 -44V78Q35 102 46 113Q57 124 81 124H102Q121 124 127 134.5Q133 145 133 164V281Q133 315 143.5 330.5Q154 346 180 352L146 393Q139 401 136 413.5Q133 426 133 445V508L44 614Q40 619 37.5 627.5Q35 636 35 646V765Q35 789 46 800Q57 811 81 811H125Q206 811 258 791.5Q310 772 338 738L447 609Q469 582 479.5 546Q490 510 490 468V369L534 317Q544 305 549 288.5Q554 272 554 251Z" glyph-name="braceright" horiz-adv-x="455" unicode="}" /><glyph d="M395 98 493 -20Q497 -24 500 -32.5Q503 -41 503 -51V-173Q503 -197 492 -208Q481 -219 457 -219H193Q180 -219 171 -215.5Q162 -212 156 -205L47 -76Q43 -71 40.5 -62.5Q38 -54 38 -44V765Q38 789 49 800Q60 811 84 811H348Q361 811 370 807.5Q379 804 385 797L493 667Q497 663 500 654.5Q503 646 503 636V517Q503 493 492 482Q481 471 457 471H395Z" glyph-name="bracketleft" horiz-adv-x="429" unicode="[" /><glyph d="M500 636V-173Q500 -197 489 -208Q478 -219 454 -219H190Q177 -219 168 -215.5Q159 -212 153 -205L44 -76Q40 -71 37.5 -62.5Q35 -54 35 -44V78Q35 102 46 113Q57 124 81 124H143V496L44 614Q40 619 37.5 627.5Q35 636 35 646V765Q35 789 46 800Q57 811 81 811H345Q358 811 367 807.5Q376 804 382 797L490 667Q494 663 497 654.5Q500 646 500 636Z" glyph-name="bracketright" horiz-adv-x="429" unicode="]" /><glyph d="M369 231Q369 162 357.5 117.5Q346 73 326 48Q306 23 277.5 13.5Q249 4 216 4H172Q159 4 150 7.5Q141 11 135 18L26 147Q22 152 19.5 160.5Q17 169 17 179V275Q17 296 25.5 305Q34 314 58 314H79Q86 314 91.5 318Q97 322 99 332L24 422L25 421Q21 425 19 432Q17 439 17 450V541Q17 565 28 576Q39 587 63 587H107Q140 587 168 577.5Q196 568 216 543L324 414Q345 389 357 345Q369 301 369 231Z" glyph-name="breve" horiz-adv-x="267" unicode="&#728;" /><glyph d="M1084 303V158Q1084 134 1073 123Q1062 112 1038 112H700Q687 112 678 115.5Q669 119 663 126L594 208V158Q594 134 583 123Q572 112 548 112H210Q197 112 188 115.5Q179 119 173 126L64 255Q60 260 57.5 268.5Q55 277 55 287V432Q55 456 66 467Q77 478 101 478H439Q452 478 461 474.5Q470 471 476 464L545 381V432Q545 456 556 467Q567 478 591 478H929Q942 478 951 474.5Q960 471 966 464L1074 334Q1078 330 1081 321.5Q1084 313 1084 303Z" glyph-name="brokenbar" horiz-adv-x="1030" unicode="&#166;" /><glyph d="M553 371V90Q553 66 542 55Q531 44 507 44H225Q212 44 202.5 47.5Q193 51 188 57L79 187Q75 192 72.5 200Q70 208 70 219V500Q70 524 80.5 535Q91 546 116 546H398Q411 546 420 542.5Q429 539 435 532L543 402Q547 398 550 389.5Q553 381 553 371Z" glyph-name="bullet" horiz-adv-x="514" unicode="&#8226;" /><glyph d="M911 486V173Q911 99 895 49.5Q879 0 851 -29.5Q823 -59 783.5 -71Q744 -83 697 -83H386Q335 -83 293 -68.5Q251 -54 223 -20L114 109Q89 138 75.5 185.5Q62 233 62 302V615Q62 639 73 650Q84 661 108 661H229Q242 661 251 657.5Q260 654 266 647L374 517Q378 513 381 504.5Q384 496 384 486V294H553Q570 294 580.5 304Q591 314 591 345V615Q591 639 602 650Q613 661 637 661H756Q769 661 778 657.5Q787 654 793 647L901 517Q905 513 908 504.5Q911 496 911 486Z" glyph-name="c" horiz-adv-x="864" unicode="c" /><glyph d="M354 66Q357 44 345.5 32.5Q334 21 311 21H215Q202 21 193.5 24.5Q185 28 180 34L71 164Q67 168 64 176.5Q61 185 60 195L17 544Q14 566 25.5 577.5Q37 589 60 589H156Q169 589 178 585.5Q187 582 191 575L300 446Q304 441 306.5 433Q309 425 311 415ZM1067 486V173Q1067 99 1051 49.5Q1035 0 1007 -29.5Q979 -59 939.5 -71Q900 -83 853 -83H582Q531 -83 489 -68.5Q447 -54 419 -20L310 109Q285 138 271.5 185.5Q258 233 258 302V615Q258 639 269 650Q280 661 304 661H425Q438 661 447 657.5Q456 654 462 647L570 517Q574 513 577 504.5Q580 496 580 486V294H709Q726 294 736.5 304Q747 314 747 345V615Q747 639 758 650Q769 661 793 661H912Q925 661 934 657.5Q943 654 949 647L1057 517Q1061 513 1064 504.5Q1067 496 1067 486Z" glyph-name="cacute" horiz-adv-x="1020" unicode="&#263;" /><glyph d="M255 11H174Q157 11 147 13.5Q137 16 133 22L24 151Q20 156 19.5 166.5Q19 177 24 195L64 332Q68 348 68 360Q68 372 64 388L24 525Q14 558 21.5 568.5Q29 579 65 579H146Q165 579 175 575Q185 571 192 563L301 434Q305 428 309 420.5Q313 413 317 403V402L363 275Q367 265 369.5 254Q372 243 373 233V232Q373 222 372 213Q371 204 367 197L317 59Q306 29 296 20Q286 11 255 11Z" glyph-name="caron" horiz-adv-x="269" unicode="&#711;" /><glyph d="M414 260V136Q414 111 402 98.5Q390 86 366 90L171 123Q158 125 149 128.5Q140 132 134 139L26 268Q22 273 19.5 280.5Q17 288 17 298V436Q17 461 30 474Q43 487 65 482L261 435Q274 432 282.5 428Q291 424 297 418L405 289H404Q409 285 411.5 277.5Q414 270 414 260Z" glyph-name="caron.2" horiz-adv-x="322" unicode="&#57659;" /><glyph d="M255 21H174Q157 21 147 23.5Q137 26 133 32L24 161Q20 166 19.5 176.5Q19 187 24 205L64 342Q68 358 68 370Q68 382 64 398L24 535Q14 568 21.5 578.5Q29 589 65 589H146Q165 589 175 585Q185 581 192 573L301 444Q305 438 309 430.5Q313 423 317 413V412L363 285Q367 275 369.5 264Q372 253 373 243V242Q373 232 372 223Q371 214 367 207L317 69Q306 39 296 30Q286 21 255 21ZM1083 486V173Q1083 99 1067 49.5Q1051 0 1023 -29.5Q995 -59 955.5 -71Q916 -83 869 -83H598Q547 -83 505 -68.5Q463 -54 435 -20L326 109Q301 138 287.5 185.5Q274 233 274 302V615Q274 639 285 650Q296 661 320 661H441Q454 661 463 657.5Q472 654 478 647L586 517Q590 513 593 504.5Q596 496 596 486V294H725Q742 294 752.5 304Q763 314 763 345V615Q763 639 774 650Q785 661 809 661H928Q941 661 950 657.5Q959 654 965 647L1073 517Q1077 513 1080 504.5Q1083 496 1083 486Z" glyph-name="ccaron" horiz-adv-x="1036" unicode="&#269;" /><glyph d="M944 99 869 127Q859 7 801.5 -38Q744 -83 657 -83H386Q335 -83 293 -68.5Q251 -54 223 -20L114 109Q89 138 75.5 185.5Q62 233 62 302V615Q62 639 73 650Q84 661 108 661H229Q242 661 251 657.5Q260 654 266 647L374 517Q378 513 381 504.5Q384 496 384 486V294H513Q530 294 540.5 304Q551 314 551 345V615Q551 639 562 650Q573 661 597 661H716Q729 661 738 657.5Q747 654 753 647L861 517Q865 513 868 504.5Q871 496 871 486V439Q872 438 874 436Q876 434 877 433L985 304Q991 297 994 287.5Q997 278 997 265V139Q997 105 982 98Q967 91 944 99Z" glyph-name="ccedilla" horiz-adv-x="905" unicode="&#231;" /><glyph d="M315 21H234Q215 21 205 24.5Q195 28 188 35L79 166L80 165Q75 170 71 178.5Q67 187 63 198L17 325Q13 335 10.5 346.5Q8 358 7 368Q7 378 8 387Q9 396 13 403L63 541Q74 571 84 580Q94 589 125 589H206Q222 589 232 586Q242 583 246 579L247 578L355 448Q359 443 359.5 433Q360 423 356 405L316 268Q312 252 312 240Q312 228 316 212L356 75Q366 42 358.5 31.5Q351 21 315 21ZM1073 486V173Q1073 99 1057 49.5Q1041 0 1013 -29.5Q985 -59 945.5 -71Q906 -83 859 -83H588Q537 -83 495 -68.5Q453 -54 425 -20L316 109Q291 138 277.5 185.5Q264 233 264 302V615Q264 639 275 650Q286 661 310 661H431Q444 661 453 657.5Q462 654 468 647L576 517Q580 513 583 504.5Q586 496 586 486V294H715Q732 294 742.5 304Q753 314 753 345V615Q753 639 764 650Q775 661 799 661H918Q931 661 940 657.5Q949 654 955 647L1063 517Q1067 513 1070 504.5Q1073 496 1073 486Z" glyph-name="ccircumflex" horiz-adv-x="1026" unicode="&#265;" /><glyph d="M335 321V163Q335 139 324 128Q313 117 289 117H162Q149 117 140 120.5Q131 124 125 131L16 260Q12 265 9.5 273.5Q7 282 7 292V450Q7 474 18 485Q29 496 53 496H180Q193 496 202 492.5Q211 489 217 482L325 352Q329 348 332 339.5Q335 331 335 321ZM1055 486V173Q1055 99 1039 49.5Q1023 0 995 -29.5Q967 -59 927.5 -71Q888 -83 841 -83H570Q519 -83 477 -68.5Q435 -54 407 -20L298 109Q273 138 259.5 185.5Q246 233 246 302V615Q246 639 257 650Q268 661 292 661H413Q426 661 435 657.5Q444 654 450 647L558 517Q562 513 565 504.5Q568 496 568 486V294H697Q714 294 724.5 304Q735 314 735 345V615Q735 639 746 650Q757 661 781 661H900Q913 661 922 657.5Q931 654 937 647L1045 517Q1049 513 1052 504.5Q1055 496 1055 486Z" glyph-name="cdotaccent" horiz-adv-x="1008" unicode="&#267;" /><glyph d="M393 245V119Q393 85 378 78Q363 71 340 79L110 164Q101 167 95.5 170.5Q90 174 86 178L-23 308Q-29 315 -30 325.5Q-31 336 -25 350L18 466Q25 488 38.5 493.5Q52 499 70 492L247 429Q255 427 262 423Q269 419 273 413L381 284Q387 277 390 267.5Q393 258 393 245Z" glyph-name="cedilla" horiz-adv-x="301" unicode="&#184;" /><glyph d="M690 -35H459Q408 -35 366 -20.5Q324 -6 296 28L187 157Q186 158 185 159.5Q184 161 183 162Q176 164 171.5 167.5Q167 171 163 175L54 304Q50 309 47.5 317.5Q45 326 45 336V481Q45 505 56 516Q67 527 91 527H135V594Q135 618 146 629Q157 640 181 640H302Q315 640 324 636.5Q333 633 339 626L447 496Q451 492 454 483.5Q457 475 457 465V342H546Q563 342 573.5 352Q584 362 584 393V594Q584 618 595 629Q606 640 630 640H749Q762 640 771 636.5Q780 633 786 626L893 497Q897 493 898.5 489.5Q900 486 901 483L984 383Q988 379 991 370.5Q994 362 994 352V207Q994 183 983 172Q972 161 948 161H901Q888 50 831 7.5Q774 -35 690 -35Z" glyph-name="cent" horiz-adv-x="930" unicode="&#162;" /><glyph d="M315 11H234Q215 11 205 14.5Q195 18 188 25L79 156L80 155Q75 160 71 168.5Q67 177 63 188L17 315Q13 325 10.5 336.5Q8 348 7 358Q7 368 8 377Q9 386 13 393L63 531Q74 561 84 570Q94 579 125 579H206Q222 579 232 576Q242 573 246 569L247 568L355 438Q359 433 359.5 423Q360 413 356 395L316 258Q312 242 312 230Q312 218 316 202L356 65Q366 32 358.5 21.5Q351 11 315 11Z" glyph-name="circumflex" horiz-adv-x="269" unicode="&#710;" /><glyph d="M488 149Q488 125 477 114Q466 103 442 103H240Q230 103 221.5 106Q213 109 209 113L79 221Q72 227 68.5 236Q65 245 65 258V461Q65 486 76 496.5Q87 507 111 507H313Q324 507 332 504.5Q340 502 345 498L420 435V461Q420 486 431 496.5Q442 507 466 507H668Q679 507 687 504.5Q695 502 700 498L830 389Q836 384 839.5 374.5Q843 365 843 352V149Q843 125 832 114Q821 103 797 103H595Q585 103 576.5 106Q568 109 564 113L488 176Z" glyph-name="colon" horiz-adv-x="784" unicode=":" /><glyph d="M566 143Q566 119 555.5 108Q545 97 520 97H480Q467 97 458 100.5Q449 104 443 111L411 149V130Q411 106 400 95Q389 84 365 84H217Q204 84 195 87.5Q186 91 180 98L71 227Q67 232 64.5 240.5Q62 249 62 259V461Q62 485 73 496Q84 507 108 507H296Q340 507 371.5 493.5Q403 480 423 457L532 327Q548 308 557 280.5Q566 253 566 220Z" glyph-name="comma" horiz-adv-x="499" unicode="," /><glyph d="M294 153Q294 127 283.5 116.5Q273 106 245 106H166Q150 106 140 109Q130 112 124 119L16 249Q12 254 9.5 262Q7 270 7 282V440Q7 466 17.5 476.5Q28 487 57 487H169Q206 487 233.5 475.5Q261 464 278 444L387 315Q401 298 408.5 274.5Q416 251 416 223V157Q416 136 406.5 126.5Q397 117 375 117H351Q338 117 330.5 120Q323 123 319 129L294 159Z" glyph-name="commaaccent" horiz-adv-x="309" unicode="&#806;" /><glyph d="M1008 542Q1043 500 1063 425Q1083 350 1083 231Q1083 115 1064 40Q1045 -35 1011.5 -78Q978 -121 931 -137Q884 -153 828 -153H418Q363 -153 316.5 -137Q270 -121 236 -81L127 49Q92 91 72 166Q52 241 52 360Q52 477 71 552Q90 627 124 669Q158 711 205.5 727Q253 743 309 743H719Q773 743 819.5 727Q866 711 899 671ZM616 371V494H426L495 411Q499 407 501.5 400.5Q504 394 504 386V337H592Q603 337 609.5 344Q616 351 616 371ZM832 494H804L856 432Q855 449 852.5 464.5Q850 480 848 493Q844 494 840 494Q836 494 832 494ZM305 96H363L277 197Q278 168 280.5 143Q283 118 287 97Q291 96 296 96Q301 96 305 96Z" glyph-name="copyright" horiz-adv-x="1025" unicode="&#169;" /><glyph d="M332 -128Q317 -144 302 -145Q287 -146 270 -128L195 -53Q193 -52 191.5 -50.5Q190 -49 189 -48H188L79 83Q66 98 67.5 111.5Q69 125 85 140L166 221Q158 248 153.5 283.5Q149 319 149 362Q149 399 152.5 430.5Q156 462 161 487L77 587Q67 600 68 613.5Q69 627 85 642L161 718Q178 737 193 736Q208 735 223 718L310 631Q318 632 326.5 632.5Q335 633 344 633H543Q552 633 560 632.5Q568 632 576 631L663 718Q678 735 692.5 736Q707 737 726 718L802 642Q804 640 805 638.5Q806 637 807 636L916 507Q929 491 927.5 477.5Q926 464 911 451L831 371Q838 344 842 309.5Q846 275 846 233Q846 193 842.5 161Q839 129 833 103L917 4Q928 -9 927 -22.5Q926 -36 911 -52L835 -128Q818 -144 802.5 -144Q787 -144 772 -128L681 -38Q674 -38 666.5 -38.5Q659 -39 652 -39H453Q445 -39 437.5 -38.5Q430 -38 423 -37Z" glyph-name="currency" horiz-adv-x="884" unicode="&#164;" /><glyph d="M858 483Q883 453 897 406Q911 359 911 290V-33Q911 -57 900 -68Q889 -79 865 -79H217Q204 -79 195 -75.5Q186 -72 180 -65L71 64Q67 69 64.5 77.5Q62 86 62 96V419Q62 493 78 542.5Q94 592 122 621.5Q150 651 189.5 663Q229 675 276 675H588Q638 675 679.5 660.5Q721 646 749 612ZM420 314Q407 314 398 310Q389 306 385 297H593V314Z" glyph-name="d" horiz-adv-x="864" unicode="d" /><glyph d="M583 -35Q587 -69 578.5 -78.5Q570 -88 537 -88H395Q377 -88 367.5 -85.5Q358 -83 354 -76L245 53Q241 58 239.5 68Q238 78 239 94L241 110H231Q212 108 202 111Q192 114 187 120L78 250Q74 255 72 264Q70 273 70 288V432Q70 465 79 473.5Q88 482 122 481L254 473L239 626Q236 660 244.5 669.5Q253 679 286 679H428Q444 679 453.5 676Q463 673 468 668L469 667L577 538Q581 533 582.5 523Q584 513 583 497L580 470L758 481Q776 482 786 479Q796 476 801 471L911 340Q915 334 917 325.5Q919 317 919 303V159Q919 126 909.5 117.5Q900 109 867 110L569 127Z" glyph-name="dagger" horiz-adv-x="880" unicode="&#8224;" /><glyph d="M498 -35Q502 -68 493 -78Q484 -88 451 -88H320Q302 -88 292.5 -85.5Q283 -83 279 -76L170 53Q166 58 164.5 68Q163 78 164 94L167 125L60 251Q56 256 54 264.5Q52 273 52 288V432Q52 465 61.5 473.5Q71 482 105 479L179 473L164 626Q161 660 170 669.5Q179 679 211 679H342Q359 679 369 676Q379 673 383 667L492 537Q496 532 497.5 522.5Q499 513 498 497L495 470L510 466L495 626Q491 659 500 669Q509 679 542 679H673Q689 679 699 676Q709 673 714 668L715 667L823 537Q827 532 829 522.5Q831 513 830 497L826 466L933 340Q937 334 939 325Q941 316 941 303V159Q941 126 931.5 117.5Q922 109 888 112L814 118L830 -35Q833 -68 824 -78Q815 -88 782 -88H651Q634 -88 624.5 -85.5Q615 -83 609 -76L502 52Q496 58 495 68Q494 78 495 94L497 120L483 124Z" glyph-name="daggerdbl" horiz-adv-x="884" unicode="&#8225;" /><glyph d="M1030 483Q1055 453 1069 406Q1083 359 1083 290V-33Q1083 -57 1072 -68Q1061 -79 1037 -79H429Q416 -79 407 -75.5Q398 -72 392 -65L283 64Q279 69 276.5 77.5Q274 86 274 96V419Q274 493 290 542.5Q306 592 334 621.5Q362 651 401.5 663Q441 675 488 675H760Q810 675 851.5 660.5Q893 646 921 612ZM632 314Q619 314 610 310Q601 306 597 297H765V314ZM255 11H174Q157 11 147 13.5Q137 16 133 22L24 151Q20 156 19.5 166.5Q19 177 24 195L64 332Q68 348 68 360Q68 372 64 388L24 525Q14 558 21.5 568.5Q29 579 65 579H146Q165 579 175 575Q185 571 192 563L301 434Q305 428 309 420.5Q313 413 317 403V402L363 275Q367 265 369.5 254Q372 243 373 233V232Q373 222 372 213Q371 204 367 197L317 59Q306 29 296 20Q286 11 255 11Z" glyph-name="dcaron" horiz-adv-x="1036" unicode="&#271;" /><glyph d="M919 -33Q919 -57 908 -68Q897 -79 873 -79H654V-92Q654 -116 643.5 -127Q633 -138 608 -138H501Q488 -138 479 -134.5Q470 -131 464 -124L426 -79H225Q212 -79 203 -75.5Q194 -72 188 -65L79 64Q75 69 72.5 77.5Q70 86 70 96V414Q70 488 86 537.5Q102 587 130 616.5Q158 646 197.5 658Q237 670 284 670H596Q646 670 687.5 655.5Q729 641 757 607L866 478Q891 448 905 401Q919 354 919 285Z" glyph-name="dcroat" horiz-adv-x="880" unicode="&#273;" /><glyph d="M557 402Q576 380 586.5 338.5Q597 297 597 231Q597 167 587.5 126.5Q578 86 561.5 63Q545 40 521.5 32Q498 24 471 24H287Q261 24 238.5 32Q216 40 200 59L92 188Q73 210 62.5 251.5Q52 293 52 360Q52 424 61.5 464.5Q71 505 87.5 527.5Q104 550 127.5 558Q151 566 178 566H362Q388 566 410.5 558Q433 550 449 530Z" glyph-name="degree" horiz-adv-x="540" unicode="&#176;" /><glyph d="M299 246 338 199Q343 194 345.5 186.5Q348 179 348 169V31Q348 9 337.5 -2Q327 -13 305 -13H184Q171 -13 163 -9.5Q155 -6 150 0L41 129Q37 134 34.5 142Q32 150 32 160V298Q32 320 42.5 330.5Q53 341 75 341H81L41 388Q37 393 34.5 400.5Q32 408 32 418V556Q32 578 42.5 588.5Q53 599 75 599H196Q208 599 216.5 595.5Q225 592 230 586L338 457Q343 452 345.5 444.5Q348 437 348 427V289Q348 267 337.5 256.5Q327 246 305 246Z" glyph-name="dieresis" horiz-adv-x="271" unicode="&#168;" /><glyph d="M571 -30Q571 -54 560.5 -65Q550 -76 525 -76H431Q418 -76 409 -72.5Q400 -69 394 -62L285 67Q281 72 278.5 80.5Q276 89 276 99V104H196Q183 104 173.5 107.5Q164 111 159 117L50 247Q46 252 43.5 260Q41 268 41 279V441Q41 465 51.5 476Q62 487 87 487H210Q223 487 232 483.5Q241 480 247 473L276 438V621Q276 645 286.5 656Q297 667 322 667H416Q429 667 438 663.5Q447 660 453 653L562 524Q566 518 568.5 510Q571 502 571 492V487H651Q664 487 673 483.5Q682 480 688 473L796 343Q800 339 803 330.5Q806 322 806 312V150Q806 126 795 115Q784 104 760 104H637Q624 104 614.5 107.5Q605 111 600 117L571 152Z" glyph-name="divide" horiz-adv-x="738" unicode="&#247;" /><glyph d="M700 9Q684 -44 645.5 -74.5Q607 -105 535 -105H430Q385 -105 350 -90Q315 -75 291 -47L182 83Q170 97 161 115Q152 133 146 155L55 264Q51 268 48 276.5Q45 285 45 295V440Q45 464 56 475Q67 486 91 486H135V573Q135 597 146 608Q157 619 181 619H300Q313 619 322 615.5Q331 612 337 605L412 512Q424 578 465 616.5Q506 655 584 655H689Q734 655 768.5 640.5Q803 626 828 596L918 486H920Q934 486 942.5 482Q951 478 956 472L1065 343Q1069 338 1071.5 329.5Q1074 321 1074 311V166Q1074 142 1063 131Q1052 120 1028 120H984V-59Q984 -83 973 -94Q962 -105 938 -105H821Q808 -105 799 -101.5Q790 -98 784 -91Z" glyph-name="dollar" horiz-adv-x="1010" unicode="$" /><glyph d="M335 311V153Q335 129 324 118Q313 107 289 107H162Q149 107 140 110.5Q131 114 125 121L16 250Q12 255 9.5 263.5Q7 272 7 282V440Q7 464 18 475Q29 486 53 486H180Q193 486 202 482.5Q211 479 217 472L325 342Q329 338 332 329.5Q335 321 335 311Z" glyph-name="dotaccent" horiz-adv-x="233" unicode="&#729;" /><glyph d="M801 647 909 517Q913 513 916 504.5Q919 496 919 486V-24Q919 -48 908 -59Q897 -70 873 -70H754Q741 -70 732 -66.5Q723 -63 717 -56L608 73Q604 77 602 84Q600 91 599 100H392V-24Q392 -48 381 -59Q370 -70 346 -70H225Q212 -70 203 -66.5Q194 -63 188 -56L79 73Q75 78 72.5 86.5Q70 95 70 105V615Q70 639 81 650Q92 661 116 661H237Q250 661 259 657.5Q268 654 274 647L382 517L381 518Q385 514 388 507Q391 500 392 491H599V615Q599 639 610 650Q621 661 645 661H764Q777 661 786 657.5Q795 654 801 647Z" glyph-name="dotlessi" horiz-adv-x="880" unicode="&#305;" /><glyph d="M919 486V-32Q919 -56 908 -67Q897 -78 873 -78H225Q212 -78 203 -74.5Q194 -71 188 -64L79 65Q75 70 72.5 78.5Q70 87 70 97V615Q70 639 81 650Q92 661 116 661H233Q246 661 255 657.5Q264 654 270 647L341 561Q346 571 356 575.5Q366 580 382 580H489Q502 580 511 576.5Q520 573 526 566L601 477V615Q601 639 612 650Q623 661 647 661H764Q777 661 786 657.5Q795 654 801 647L909 517Q913 513 916 504.5Q919 496 919 486Z" glyph-name="e" horiz-adv-x="880" unicode="e" /><glyph d="M1067 485V-33Q1067 -57 1056 -68Q1045 -79 1021 -79H413Q400 -79 391 -75.5Q382 -72 376 -65L267 64Q263 69 260.5 77.5Q258 86 258 96V614Q258 638 269 649Q280 660 304 660H417Q430 660 439 656.5Q448 653 454 646L520 567Q525 573 534 576Q543 579 556 579H651Q664 579 673 575.5Q682 572 688 565L753 487V614Q753 638 764 649Q775 660 799 660H912Q925 660 934 656.5Q943 653 949 646L1057 516Q1061 512 1064 503.5Q1067 495 1067 485ZM354 56Q357 34 345.5 22.5Q334 11 311 11H215Q202 11 193.5 14.5Q185 18 180 24L71 154Q67 158 64 166.5Q61 175 60 185L17 534Q14 556 25.5 567.5Q37 579 60 579H156Q169 579 178 575.5Q187 572 191 565L300 436Q304 431 306.5 423Q309 415 311 405Z" glyph-name="eacute" horiz-adv-x="1028" unicode="&#233;" /><glyph d="M369 231Q369 162 357.5 117.5Q346 73 326 48Q306 23 277.5 13.5Q249 4 216 4H172Q159 4 150 7.5Q141 11 135 18L26 147Q22 152 19.5 160.5Q17 169 17 179V275Q17 296 25.5 305Q34 314 58 314H79Q86 314 91.5 318Q97 322 99 332L24 422L25 421Q21 425 19 432Q17 439 17 450V541Q17 565 28 576Q39 587 63 587H107Q140 587 168 577.5Q196 568 216 543L324 414Q345 389 357 345Q369 301 369 231ZM1083 485V-33Q1083 -57 1072 -68Q1061 -79 1037 -79H429Q416 -79 407 -75.5Q398 -72 392 -65L283 64Q279 69 276.5 77.5Q274 86 274 96V614Q274 638 285 649Q296 660 320 660H433Q446 660 455 656.5Q464 653 470 646L536 567Q541 573 550 576Q559 579 572 579H667Q680 579 689 575.5Q698 572 704 565L769 487V614Q769 638 780 649Q791 660 815 660H928Q941 660 950 656.5Q959 653 965 646L1073 516Q1077 512 1080 503.5Q1083 495 1083 485Z" glyph-name="ebreve" horiz-adv-x="1044" unicode="&#277;" /><glyph d="M255 11H174Q157 11 147 13.5Q137 16 133 22L24 151Q20 156 19.5 166.5Q19 177 24 195L64 332Q68 348 68 360Q68 372 64 388L24 525Q14 558 21.5 568.5Q29 579 65 579H146Q165 579 175 575Q185 571 192 563L301 434Q305 428 309 420.5Q313 413 317 403V402L363 275Q367 265 369.5 254Q372 243 373 233V232Q373 222 372 213Q371 204 367 197L317 59Q306 29 296 20Q286 11 255 11ZM1083 485V-33Q1083 -57 1072 -68Q1061 -79 1037 -79H429Q416 -79 407 -75.5Q398 -72 392 -65L283 64Q279 69 276.5 77.5Q274 86 274 96V614Q274 638 285 649Q296 660 320 660H433Q446 660 455 656.5Q464 653 470 646L536 567Q541 573 550 576Q559 579 572 579H667Q680 579 689 575.5Q698 572 704 565L769 487V614Q769 638 780 649Q791 660 815 660H928Q941 660 950 656.5Q959 653 965 646L1073 516Q1077 512 1080 503.5Q1083 495 1083 485Z" glyph-name="ecaron" horiz-adv-x="1044" unicode="&#283;" /><glyph d="M315 11H234Q215 11 205 14.5Q195 18 188 25L79 156L80 155Q75 160 71 168.5Q67 177 63 188L17 315Q13 325 10.5 336.5Q8 348 7 358Q7 368 8 377Q9 386 13 393L63 531Q74 561 84 570Q94 579 125 579H206Q222 579 232 576Q242 573 246 569L247 568L355 438Q359 433 359.5 423Q360 413 356 395L316 258Q312 242 312 230Q312 218 316 202L356 65Q366 32 358.5 21.5Q351 11 315 11ZM1113 486V-32Q1113 -56 1102 -67Q1091 -78 1067 -78H419Q406 -78 397 -74.5Q388 -71 382 -64L273 65Q269 70 266.5 78.5Q264 87 264 97V615Q264 639 275 650Q286 661 310 661H427Q440 661 449 657.5Q458 654 464 647L535 561Q540 571 550 575.5Q560 580 576 580H683Q696 580 705 576.5Q714 573 720 566L795 477V615Q795 639 806 650Q817 661 841 661H958Q971 661 980 657.5Q989 654 995 647L1103 517Q1107 513 1110 504.5Q1113 496 1113 486Z" glyph-name="ecircumflex" horiz-adv-x="1074" unicode="&#234;" /><glyph d="M299 246 338 199Q343 194 345.5 186.5Q348 179 348 169V31Q348 9 337.5 -2Q327 -13 305 -13H184Q171 -13 163 -9.5Q155 -6 150 0L41 129Q37 134 34.5 142Q32 150 32 160V298Q32 320 42.5 330.5Q53 341 75 341H81L41 388Q37 393 34.5 400.5Q32 408 32 418V556Q32 578 42.5 588.5Q53 599 75 599H196Q208 599 216.5 595.5Q225 592 230 586L338 457Q343 452 345.5 444.5Q348 437 348 427V289Q348 267 337.5 256.5Q327 246 305 246ZM1068 485V-33Q1068 -57 1057 -68Q1046 -79 1022 -79H414Q401 -79 392 -75.5Q383 -72 377 -65L268 64Q264 69 261.5 77.5Q259 86 259 96V614Q259 638 270 649Q281 660 305 660H418Q431 660 440 656.5Q449 653 455 646L521 567Q526 573 535 576Q544 579 557 579H652Q665 579 674 575.5Q683 572 689 565L754 487V614Q754 638 765 649Q776 660 800 660H913Q926 660 935 656.5Q944 653 950 646L1058 516Q1062 512 1065 503.5Q1068 495 1068 485Z" glyph-name="edieresis" horiz-adv-x="1029" unicode="&#235;" /><glyph d="M335 311V153Q335 129 324 118Q313 107 289 107H162Q149 107 140 110.5Q131 114 125 121L16 250Q12 255 9.5 263.5Q7 272 7 282V440Q7 464 18 475Q29 486 53 486H180Q193 486 202 482.5Q211 479 217 472L325 342Q329 338 332 329.5Q335 321 335 311ZM1055 485V-33Q1055 -57 1044 -68Q1033 -79 1009 -79H401Q388 -79 379 -75.5Q370 -72 364 -65L255 64Q251 69 248.5 77.5Q246 86 246 96V614Q246 638 257 649Q268 660 292 660H405Q418 660 427 656.5Q436 653 442 646L508 567Q513 573 522 576Q531 579 544 579H639Q652 579 661 575.5Q670 572 676 565L741 487V614Q741 638 752 649Q763 660 787 660H900Q913 660 922 656.5Q931 653 937 646L1045 516Q1049 512 1052 503.5Q1055 495 1055 485Z" glyph-name="edotaccent" horiz-adv-x="1016" unicode="&#279;" /><glyph d="M266 11H170Q157 11 148.5 14.5Q140 18 134 25L25 154Q21 160 19 167.5Q17 175 18 185L61 534Q64 558 74 568.5Q84 579 107 579H203Q216 579 224.5 575.5Q233 572 239 565L347 436Q351 431 353.5 423Q356 415 355 405L312 56Q309 32 299 21.5Q289 11 266 11ZM1067 485V-33Q1067 -57 1056 -68Q1045 -79 1021 -79H413Q400 -79 391 -75.5Q382 -72 376 -65L267 64Q263 69 260.5 77.5Q258 86 258 96V614Q258 638 269 649Q280 660 304 660H417Q430 660 439 656.5Q448 653 454 646L520 567Q525 573 534 576Q543 579 556 579H651Q664 579 673 575.5Q682 572 688 565L753 487V614Q753 638 764 649Q775 660 799 660H912Q925 660 934 656.5Q943 653 949 646L1057 516Q1061 512 1064 503.5Q1067 495 1067 485Z" glyph-name="egrave" horiz-adv-x="1028" unicode="&#232;" /><glyph d="M926 232Q926 137 912 75.5Q898 14 874 -21.5Q850 -57 816 -70.5Q782 -84 742 -84H645Q596 -84 561.5 -70Q527 -56 507 -32L482 -2Q465 -23 439.5 -31.5Q414 -40 382 -40H324Q289 -40 259.5 -29Q230 -18 209 8L100 137Q75 167 61 221.5Q47 276 47 362Q47 442 59 494.5Q71 547 93 577.5Q115 608 146 620Q177 632 215 632H273Q306 632 331.5 623Q357 614 374 594L378 589Q393 628 431.5 652Q470 676 536 676H633Q670 676 701.5 664Q733 652 756 624L865 495Q893 461 909.5 397.5Q926 334 926 232Z" glyph-name="eight" horiz-adv-x="864" unicode="8" /><glyph d="M494 -214Q494 -238 483 -249Q472 -260 448 -260H246Q236 -260 227.5 -257Q219 -254 215 -250L85 -142Q78 -136 74.5 -127Q71 -118 71 -105V98Q71 123 82 133.5Q93 144 117 144H178L85 221Q78 227 74.5 236Q71 245 71 258V461Q71 486 82 496.5Q93 507 117 507H178L85 584Q78 590 74.5 599Q71 608 71 621V824Q71 849 82 859.5Q93 870 117 870H319Q330 870 338 867.5Q346 865 351 861L481 752Q487 747 490.5 737.5Q494 728 494 715V512Q494 488 483 477Q472 466 448 466H389L481 389Q487 384 490.5 374.5Q494 365 494 352V149Q494 125 483 114Q472 103 448 103H389L481 26Q487 21 490.5 11.5Q494 2 494 -11Z" glyph-name="ellipsis" horiz-adv-x="435" unicode="&#8230;" /><glyph d="M326 404V57Q326 33 315 22Q304 11 280 11H187Q174 11 165 14.5Q156 18 150 25L41 154Q37 159 34.5 167.5Q32 176 32 186V533Q32 557 43 568Q54 579 78 579H171Q184 579 193 575.5Q202 572 208 565L316 435Q320 431 323 422.5Q326 414 326 404ZM1046 485V-33Q1046 -57 1035 -68Q1024 -79 1000 -79H392Q379 -79 370 -75.5Q361 -72 355 -65L246 64Q242 69 239.5 77.5Q237 86 237 96V614Q237 638 248 649Q259 660 283 660H396Q409 660 418 656.5Q427 653 433 646L499 567Q504 573 513 576Q522 579 535 579H630Q643 579 652 575.5Q661 572 667 565L732 487V614Q732 638 743 649Q754 660 778 660H891Q904 660 913 656.5Q922 653 928 646L1036 516Q1040 512 1043 503.5Q1046 495 1046 485Z" glyph-name="emacron" horiz-adv-x="1007" unicode="&#275;" /><glyph d="M1137 118H215Q202 118 193 121Q184 124 179 130L178 131L69 261Q65 266 62.5 274Q60 282 60 293V427Q60 452 71 462.5Q82 473 106 473H1028Q1041 473 1050 469.5Q1059 466 1065 459L1174 330Q1178 324 1180.5 316Q1183 308 1183 298V164Q1183 140 1172 129Q1161 118 1137 118Z" glyph-name="emdash" horiz-adv-x="1134" unicode="&#8212;" /><glyph glyph-name="emspace" horiz-adv-x="1000" unicode="&#8193;" /><glyph d="M737 118H215Q202 118 193 121Q184 124 179 130L178 131L69 261Q65 266 62.5 274Q60 282 60 293V427Q60 452 71 462.5Q82 473 106 473H628Q641 473 650 469.5Q659 466 665 459L774 330Q778 324 780.5 316Q783 308 783 298V164Q783 140 772 129Q761 118 737 118Z" glyph-name="endash" horiz-adv-x="734" unicode="&#8211;" /><glyph d="M856 -79H380Q333 -79 294 -66Q255 -53 227 -19L118 111Q90 145 73.5 205.5Q57 266 57 360Q57 454 73 514.5Q89 575 117 609.5Q145 644 184.5 657Q224 670 271 670H668Q719 670 760.5 655.5Q802 641 831 607L939 477Q964 448 978 400.5Q992 353 992 285V240Q992 216 981 205Q970 194 946 194H857L893 151Q897 145 899.5 137Q902 129 902 119V-33Q902 -57 891 -68Q880 -79 856 -79Z" glyph-name="eng" horiz-adv-x="930" unicode="&#331;" /><glyph glyph-name="enspace" horiz-adv-x="500" unicode="&#8192;" /><glyph d="M879 -33Q879 -57 868 -68Q857 -79 833 -79H225Q212 -79 203 -75.5Q194 -72 188 -65L79 64Q75 69 72.5 77.5Q70 86 70 96V614Q70 638 81 649Q92 660 116 660H229Q242 660 251 656.5Q260 653 266 646L332 567Q337 573 346 576Q355 579 368 579H463Q476 579 485 575.5Q494 572 500 565L565 487V614Q565 638 576 649Q587 660 611 660H724Q737 660 746 656.5Q755 653 761 646L796 604V614Q796 641 805.5 650.5Q815 660 840 660H912Q925 660 934 657Q943 654 948 649L1057 518Q1061 514 1063 506Q1065 498 1065 488V377Q1065 308 1030 281.5Q995 255 918 266L879 273Z" glyph-name="eogonek" horiz-adv-x="963" unicode="&#281;" /><glyph d="M385 -30Q385 -54 374.5 -65Q364 -76 339 -76H225Q212 -76 203 -72.5Q194 -69 188 -62L79 67Q75 72 72.5 80.5Q70 89 70 99V621Q70 645 80.5 656Q91 667 116 667H230Q243 667 252 663.5Q261 660 267 653L370 531V621Q370 645 380.5 656Q391 667 416 667H530Q543 667 552 663.5Q561 660 567 653L676 524Q680 518 682.5 510Q685 502 685 492V-30Q685 -54 674.5 -65Q664 -76 639 -76H525Q512 -76 503 -72.5Q494 -69 488 -62L385 60Z" glyph-name="equal" horiz-adv-x="646" unicode="=" /><glyph d="M919 -33Q919 -57 908 -68Q897 -79 873 -79H654V-92Q654 -116 643.5 -127Q633 -138 608 -138H501Q488 -138 479 -134.5Q470 -131 464 -124L426 -79H225Q212 -79 203 -75.5Q194 -72 188 -65L79 64Q75 69 72.5 77.5Q70 86 70 96V414Q70 488 86 537.5Q102 587 130 616.5Q158 646 197.5 658Q237 670 284 670H596Q646 670 687.5 655.5Q729 641 757 607L866 478Q891 448 905 401Q919 354 919 285Z" glyph-name="eth" horiz-adv-x="880" unicode="&#240;" /><glyph d="M894 324V140Q894 116 883 105Q872 94 848 94H717Q704 94 694.5 97.5Q685 101 680 107L632 165V154Q632 130 621 119Q610 108 586 107L201 92Q187 91 177.5 94.5Q168 98 162 105L54 234Q50 239 47.5 247Q45 255 45 265V456Q45 480 56 490.5Q67 501 91 500L478 486Q490 485 498.5 481.5Q507 478 513 472L562 413V453Q562 477 572.5 488Q583 499 608 499H739Q752 499 761 495.5Q770 492 776 486L884 356Q888 351 891 342.5Q894 334 894 324Z" glyph-name="exclam" horiz-adv-x="830" unicode="!" /><glyph d="M894 136Q894 112 883 101.5Q872 91 848 92L462 107Q449 107 440 110.5Q431 114 425 121L377 178V140Q377 116 366.5 105Q356 94 331 94H200Q187 94 178 97.5Q169 101 163 108L54 237Q50 242 47.5 250.5Q45 259 45 269V453Q45 477 56 488Q67 499 91 499H222Q235 499 244 495.5Q253 492 259 485L307 428V438Q307 462 318 473.5Q329 485 353 486L738 500Q752 501 761 497.5Q770 494 776 487L885 357Q889 353 891.5 345Q894 337 894 327Z" glyph-name="exclamdown" horiz-adv-x="830" unicode="&#161;" /><glyph d="M920 124V-32Q920 -56 908.5 -67Q897 -78 873 -78H225Q212 -78 203 -74.5Q194 -71 188 -64L79 66Q75 71 72.5 79.5Q70 88 70 98V616Q70 640 81 651Q92 662 116 662H235Q248 662 257 658.5Q266 655 272 648L365 536Q365 559 376 570Q387 581 411 581H531Q544 581 553 577.5Q562 574 568 567L676 437Q680 433 683 424.5Q686 416 686 406V299H764Q777 299 786.5 295Q796 291 802 284L910 155Q914 150 917 142Q920 134 920 124Z" glyph-name="f" horiz-adv-x="856" unicode="f" /><glyph d="M919 -33Q919 -57 908 -68Q897 -79 873 -79H756Q743 -79 734 -75.5Q725 -72 719 -65L645 23V-23Q645 -47 634 -58Q623 -69 599 -69H225Q212 -69 203 -65.5Q194 -62 188 -55L79 74Q75 79 72.5 87.5Q70 96 70 106V590Q70 614 81 625Q92 636 116 636H235Q248 636 257 632.5Q266 629 272 622L333 550Q346 607 387 639.5Q428 672 495 672H634Q674 672 707.5 657.5Q741 643 764 615L873 485Q895 459 907 421.5Q919 384 919 338Z" glyph-name="five" horiz-adv-x="872" unicode="5" /><glyph d="M901 25Q901 1 890 -10Q879 -21 855 -21H734Q721 -21 712 -17.5Q703 -14 697 -7L631 72V25Q631 1 620.5 -10Q610 -21 585 -21H478Q465 -21 456 -17.5Q447 -14 441 -7L344 108Q304 112 270.5 127Q237 142 213 170L104 299Q79 328 65.5 375.5Q52 423 52 492V566Q52 590 63 601Q74 612 98 612H219Q232 612 241 608.5Q250 605 256 598L323 518V566Q323 590 333.5 601Q344 612 369 612H476Q489 612 498 608.5Q507 605 513 598L610 483Q650 479 683 464Q716 449 740 421L848 291Q873 262 887 214.5Q901 167 901 99Z" glyph-name="florin" horiz-adv-x="844" unicode="&#402;" /><glyph d="M906 495V341Q906 317 895 306Q884 295 860 295H739V113Q739 10 696 -34.5Q653 -79 563 -79H212Q199 -79 190 -75.5Q181 -72 175 -65L66 64Q62 69 59.5 77.5Q57 86 57 96V251Q57 275 68 286Q79 297 103 297H194Q188 298 183.5 301.5Q179 305 175 309L66 438Q62 443 59.5 451.5Q57 460 57 470V624Q57 648 68 659Q79 670 103 670H751Q764 670 773 666.5Q782 663 788 656L896 526Q900 522 903 513.5Q906 505 906 495Z" glyph-name="four" horiz-adv-x="842" unicode="4" /><glyph d="M777 299Q777 280 768.5 271.5Q760 263 741 263H657V151Q657 75 625.5 42.5Q594 10 528 10H275Q265 10 257.5 13Q250 16 246 21L137 150L136 151Q134 155 132 161.5Q130 168 130 175V287Q130 306 138.5 314Q147 322 166 322H205L137 403L136 404Q134 408 132 414.5Q130 421 130 428V539Q130 558 138.5 566Q147 574 166 574H632Q642 574 649.5 571Q657 568 661 563L770 433Q773 429 775 423.5Q777 418 777 410Z" glyph-name="foursuperior" horiz-adv-x="798" unicode="&#8308;" /><glyph d="M916 113Q916 88 904 75.5Q892 63 868 67L221 187Q208 189 199 193Q190 197 185 202L184 203L75 333Q71 337 69 344.5Q67 352 67 362V477Q67 502 79 514.5Q91 527 115 523L763 403Q776 400 784.5 396.5Q793 393 799 387L906 258Q911 253 913.5 245.5Q916 238 916 228Z" glyph-name="fraction" horiz-adv-x="874" unicode="&#8260;" /><glyph d="M906 495V172Q906 98 890 48.5Q874 -1 846 -30.5Q818 -60 778.5 -72Q739 -84 692 -84H380Q330 -84 288 -70Q246 -56 218 -22L110 107Q85 137 71 184.5Q57 232 57 301V559Q57 583 68 594Q79 605 103 605H224Q237 605 246 601.5Q255 598 261 591L369 461Q373 457 376 448.5Q379 440 379 430V292H549Q554 292 559.5 292.5Q565 293 569 294H551Q538 294 529 297.5Q520 301 514 308L405 437Q401 442 398.5 450.5Q396 459 396 469V624Q396 648 407 659Q418 670 442 670H751Q764 670 773 666.5Q782 663 788 656L896 526Q900 522 903 513.5Q906 505 906 495Z" glyph-name="g" horiz-adv-x="859" unicode="g" /><glyph d="M369 231Q369 162 357.5 117.5Q346 73 326 48Q306 23 277.5 13.5Q249 4 216 4H172Q159 4 150 7.5Q141 11 135 18L26 147Q22 152 19.5 160.5Q17 169 17 179V275Q17 296 25.5 305Q34 314 58 314H79Q86 314 91.5 318Q97 322 99 332L24 422L25 421Q21 425 19 432Q17 439 17 450V541Q17 565 28 576Q39 587 63 587H107Q140 587 168 577.5Q196 568 216 543L324 414Q345 389 357 345Q369 301 369 231ZM1083 495V172Q1083 98 1067 48.5Q1051 -1 1023 -30.5Q995 -60 955.5 -72Q916 -84 869 -84H597Q547 -84 505 -70Q463 -56 435 -22L327 107Q302 137 288 184.5Q274 232 274 301V559Q274 583 285 594Q296 605 320 605H441Q454 605 463 601.5Q472 598 478 591L586 461Q590 457 593 448.5Q596 440 596 430V292H726Q731 292 736.5 292.5Q742 293 746 294Q733 295 724.5 298Q716 301 711 308L602 437Q598 442 595.5 450.5Q593 459 593 469V624Q593 648 604 659Q615 670 639 670H928Q941 670 950 666.5Q959 663 965 656L1073 526Q1077 522 1080 513.5Q1083 505 1083 495Z" glyph-name="gbreve" horiz-adv-x="1036" unicode="&#287;" /></font>
</defs>
</svg>
