<?xml version="1.0" standalone="no"?><!DOCTYPE svg PUBLIC "-//W3C//DTD SVG 1.1//EN" "http://www.w3.org/Graphics/SVG/1.1/DTD/svg11.dtd" ><svg version="1.1" xmlns="http://www.w3.org/2000/svg"><defs><font horiz-adv-x="0" id="font"><font-face ascent="860" bbox="-774.1176 -913.1176 1774.1176 1635.1176" cap-height="720" descent="-140" font-family="Bungee Layers Rotated" font-stretch="normal" font-style="normal" font-weight="400" units-per-em="1000" x-height="500" /><missing-glyph d="M784 760Q803 760 811.5 751.5Q820 743 820 724V-4Q820 -23 811.5 -31.5Q803 -40 784 -40H56Q37 -40 28.5 -31.5Q20 -23 20 -4V724Q20 743 28.5 751.5Q37 760 56 760ZM770 10V710H70V10Z" horiz-adv-x="840" /><glyph d="M746 59H482Q456 59 438.5 61Q421 63 404.5 67.5Q388 72 369 79.5Q350 87 322 98L95 175Q76 182 69 194.5Q62 207 62 226V485Q62 504 69 516Q76 528 95 535L322 622Q350 633 369 640.5Q388 648 404.5 652.5Q421 657 438.5 659Q456 661 482 661H746Q765 661 773.5 652.5Q782 644 782 625V474Q782 455 773.5 445Q765 435 746 435H606V278H746Q765 278 773.5 269.5Q782 261 782 242V95Q782 76 773.5 67.5Q765 59 746 59ZM272 335 424 288V425L272 378Q262 374 258.5 370.5Q255 367 255 359V354Q255 346 258.5 342.5Q262 339 272 335Z" glyph-name="A" horiz-adv-x="849" unicode="A" /><glyph d="M706 61H462Q436 61 418.5 63Q401 65 384.5 69.5Q368 74 349 81.5Q330 89 302 100L95 177Q76 184 69 196.5Q62 209 62 228V487Q62 506 69 518Q76 530 95 537L302 624Q330 635 349 642.5Q368 650 384.5 654.5Q401 659 418.5 661Q436 663 462 663H706Q725 663 733.5 654.5Q742 646 742 627V476Q742 457 733.5 447Q725 437 706 437H586V280H706Q725 280 733.5 271.5Q742 263 742 244V97Q742 78 733.5 69.5Q725 61 706 61ZM272 337 404 290V427L272 380Q262 376 258.5 372.5Q255 369 255 361V356Q255 348 258.5 344.5Q262 341 272 337Z" glyph-name="A.s" horiz-adv-x="809" /><glyph d="M756 60H261Q216 60 178 72Q140 84 113.5 116.5Q87 149 72 207.5Q57 266 57 359Q57 452 72 511Q87 570 113.5 603Q140 636 178 648Q216 660 261 660H756Q775 660 784 651.5Q793 643 793 624V472Q793 453 784 444.5Q775 436 756 436H607V279H756Q775 279 784 270.5Q793 262 793 243V96Q793 77 784 68.5Q775 60 756 60Z" glyph-name="A.salt" horiz-adv-x="860" /><glyph d="M716 59H261Q216 59 178 71Q140 83 113.5 116Q87 149 72 207.5Q57 266 57 359Q57 452 72 511Q87 570 113.5 603Q140 636 178 648.5Q216 661 261 661H716Q735 661 743.5 652.5Q752 644 752 625V473Q752 454 743.5 445.5Q735 437 716 437H587V278H716Q735 278 743.5 269.5Q752 261 752 242V95Q752 76 743.5 67.5Q735 59 716 59Z" glyph-name="A.salt_s" horiz-adv-x="819" /><glyph d="M792 65Q792 46 783.5 37.5Q775 29 756 29H502Q458 29 423.5 36.5Q389 44 352 58L113 153Q90 161 81 175.5Q72 190 72 215V635Q72 654 80.5 662.5Q89 671 108 671H225Q244 671 252.5 662.5Q261 654 261 635V532H338V634Q338 653 346.5 661.5Q355 670 374 670H481Q500 670 508.5 661.5Q517 653 517 634V532H603V635Q603 654 611.5 662.5Q620 671 639 671H756Q775 671 783.5 662.5Q792 654 792 635V366Q792 347 783.5 338.5Q775 330 756 330H616V232H756Q775 232 783.5 223.5Q792 215 792 196ZM278 302 434 243V330H261V321Q261 313 264.5 309.5Q268 306 278 302Z" glyph-name="AE" horiz-adv-x="872" unicode="&#198;" /><glyph d="M756 39H276Q231 39 193 50.5Q155 62 128.5 90.5Q102 119 87 167.5Q72 216 72 289V645Q72 664 80.5 672.5Q89 681 108 681H225Q244 681 252.5 672.5Q261 664 261 645V542H338V644Q338 663 346.5 671.5Q355 680 374 680H481Q500 680 508.5 671.5Q517 663 517 644V542H603V645Q603 664 611.5 672.5Q620 681 639 681H756Q775 681 783.5 672.5Q792 664 792 645V376Q792 357 783.5 348.5Q775 340 756 340H607V242H756Q775 242 783.5 233.5Q792 225 792 206V75Q792 56 783.5 47.5Q775 39 756 39Z" glyph-name="AE.salt" horiz-adv-x="872" /><glyph d="M912 61H668Q642 61 624.5 63Q607 65 590.5 69.5Q574 74 555 81.5Q536 89 508 100L301 177Q282 184 275 196.5Q268 209 268 228V487Q268 506 275 518Q282 530 301 537L508 624Q536 635 555 642.5Q574 650 590.5 654.5Q607 659 624.5 661Q642 663 668 663H912Q931 663 939.5 654.5Q948 646 948 627V476Q948 457 939.5 447Q931 437 912 437H792V280H912Q931 280 939.5 271.5Q948 263 948 244V97Q948 78 939.5 69.5Q931 61 912 61ZM478 337 610 290V427L478 380Q468 376 464.5 372.5Q461 369 461 361V356Q461 348 464.5 344.5Q468 341 478 337ZM193 533 236 184Q238 167 229 158.5Q220 150 203 150H107Q88 150 80.5 158.5Q73 167 71 186L28 535Q26 552 35 560.5Q44 569 61 569H157Q176 569 183.5 560.5Q191 552 193 533Z" glyph-name="Aacute" horiz-adv-x="1015" unicode="&#193;" /><glyph d="M912 59H457Q412 59 374 71Q336 83 309.5 116Q283 149 268 207.5Q253 266 253 359Q253 452 268 511Q283 570 309.5 603Q336 636 374 648.5Q412 661 457 661H912Q931 661 939.5 652.5Q948 644 948 625V473Q948 454 939.5 445.5Q931 437 912 437H783V278H912Q931 278 939.5 269.5Q948 261 948 242V95Q948 76 939.5 67.5Q931 59 912 59ZM193 533 236 184Q238 167 229 158.5Q220 150 203 150H107Q88 150 80.5 158.5Q73 167 71 186L28 535Q26 552 35 560.5Q44 569 61 569H157Q176 569 183.5 560.5Q191 552 193 533Z" glyph-name="Aacute.salt" horiz-adv-x="1015" /><glyph d="M107 577Q139 577 165.5 567.5Q192 558 210.5 533.5Q229 509 239.5 467Q250 425 250 360Q250 295 239.5 253Q229 211 210.5 186.5Q192 162 165.5 152.5Q139 143 107 143H63Q44 143 35.5 151.5Q27 160 27 179V275Q27 291 33.5 297.5Q40 304 58 304H79Q93 304 102.5 314Q112 324 112 361Q112 398 102.5 409Q93 420 79 420H58Q40 420 33.5 426.5Q27 433 27 450V541Q27 560 35.5 568.5Q44 577 63 577ZM928 61H684Q658 61 640.5 63Q623 65 606.5 69.5Q590 74 571 81.5Q552 89 524 100L317 177Q298 184 291 196.5Q284 209 284 228V487Q284 506 291 518Q298 530 317 537L524 624Q552 635 571 642.5Q590 650 606.5 654.5Q623 659 640.5 661Q658 663 684 663H928Q947 663 955.5 654.5Q964 646 964 627V476Q964 457 955.5 447Q947 437 928 437H808V280H928Q947 280 955.5 271.5Q964 263 964 244V97Q964 78 955.5 69.5Q947 61 928 61ZM494 337 626 290V427L494 380Q484 376 480.5 372.5Q477 369 477 361V356Q477 348 480.5 344.5Q484 341 494 337Z" glyph-name="Abreve" horiz-adv-x="1031" unicode="&#258;" /><glyph d="M107 577Q139 577 165.5 567.5Q192 558 210.5 533.5Q229 509 239.5 467Q250 425 250 360Q250 295 239.5 253Q229 211 210.5 186.5Q192 162 165.5 152.5Q139 143 107 143H63Q44 143 35.5 151.5Q27 160 27 179V275Q27 291 33.5 297.5Q40 304 58 304H79Q93 304 102.5 314Q112 324 112 361Q112 398 102.5 409Q93 420 79 420H58Q40 420 33.5 426.5Q27 433 27 450V541Q27 560 35.5 568.5Q44 577 63 577ZM928 59H473Q428 59 390 71Q352 83 325.5 116Q299 149 284 207.5Q269 266 269 359Q269 452 284 511Q299 570 325.5 603Q352 636 390 648.5Q428 661 473 661H928Q947 661 955.5 652.5Q964 644 964 625V473Q964 454 955.5 445.5Q947 437 928 437H799V278H928Q947 278 955.5 269.5Q964 261 964 242V95Q964 76 955.5 67.5Q947 59 928 59Z" glyph-name="Abreve.salt" horiz-adv-x="1031" /><glyph d="M918 61H674Q648 61 630.5 63Q613 65 596.5 69.5Q580 74 561 81.5Q542 89 514 100L307 177Q288 184 281 196.5Q274 209 274 228V487Q274 506 281 518Q288 530 307 537L514 624Q542 635 561 642.5Q580 650 596.5 654.5Q613 659 630.5 661Q648 663 674 663H918Q937 663 945.5 654.5Q954 646 954 627V476Q954 457 945.5 447Q937 437 918 437H798V280H918Q937 280 945.5 271.5Q954 263 954 244V97Q954 78 945.5 69.5Q937 61 918 61ZM484 337 616 290V427L484 380Q474 376 470.5 372.5Q467 369 467 361V356Q467 348 470.5 344.5Q474 341 484 337ZM197 328 237 191Q245 166 239 158Q233 150 206 150H125Q98 150 90 158.5Q82 167 72 191L26 319Q22 328 20 338.5Q18 349 17 358Q17 367 18 375Q19 383 22 390L72 527Q82 552 90 560.5Q98 569 125 569H206Q233 569 239 561Q245 553 237 527L197 390Q193 373 193 359Q193 345 197 328Z" glyph-name="Acircumflex" horiz-adv-x="1021" unicode="&#194;" /><glyph d="M197 328 237 191Q245 166 239 158Q233 150 206 150H125Q98 150 90 158.5Q82 167 72 191L26 319Q22 328 20 338.5Q18 349 17 358Q17 367 18 375Q19 383 22 390L72 527Q82 552 90 560.5Q98 569 125 569H206Q233 569 239 561Q245 553 237 527L197 390Q193 373 193 359Q193 345 197 328ZM918 59H463Q418 59 380 71Q342 83 315.5 116Q289 149 274 207.5Q259 266 259 359Q259 452 274 511Q289 570 315.5 603Q342 636 380 648.5Q418 661 463 661H918Q937 661 945.5 652.5Q954 644 954 625V473Q954 454 945.5 445.5Q937 437 918 437H789V278H918Q937 278 945.5 269.5Q954 261 954 242V95Q954 76 945.5 67.5Q937 59 918 59Z" glyph-name="Acircumflex.salt" horiz-adv-x="1021" /><glyph d="M229 556V418Q229 401 221 393Q213 385 196 385H75Q58 385 50 393Q42 401 42 418V556Q42 573 50 581Q58 589 75 589H196Q213 589 221 581Q229 573 229 556ZM229 298V160Q229 143 221 134.5Q213 126 196 126H75Q58 126 50 134.5Q42 143 42 160V298Q42 315 50 323Q58 331 75 331H196Q213 331 221 323Q229 315 229 298ZM913 61H669Q643 61 625.5 63Q608 65 591.5 69.5Q575 74 556 81.5Q537 89 509 100L302 177Q283 184 276 196.5Q269 209 269 228V487Q269 506 276 518Q283 530 302 537L509 624Q537 635 556 642.5Q575 650 591.5 654.5Q608 659 625.5 661Q643 663 669 663H913Q932 663 940.5 654.5Q949 646 949 627V476Q949 457 940.5 447Q932 437 913 437H793V280H913Q932 280 940.5 271.5Q949 263 949 244V97Q949 78 940.5 69.5Q932 61 913 61ZM479 337 611 290V427L479 380Q469 376 465.5 372.5Q462 369 462 361V356Q462 348 465.5 344.5Q469 341 479 337Z" glyph-name="Adieresis" horiz-adv-x="1016" unicode="&#196;" /><glyph d="M229 556V418Q229 401 221 393Q213 385 196 385H75Q58 385 50 393Q42 401 42 418V556Q42 573 50 581Q58 589 75 589H196Q213 589 221 581Q229 573 229 556ZM229 298V160Q229 143 221 134.5Q213 126 196 126H75Q58 126 50 134.5Q42 143 42 160V298Q42 315 50 323Q58 331 75 331H196Q213 331 221 323Q229 315 229 298ZM913 59H458Q413 59 375 71Q337 83 310.5 116Q284 149 269 207.5Q254 266 254 359Q254 452 269 511Q284 570 310.5 603Q337 636 375 648.5Q413 661 458 661H913Q932 661 940.5 652.5Q949 644 949 625V473Q949 454 940.5 445.5Q932 437 913 437H784V278H913Q932 278 940.5 269.5Q949 261 949 242V95Q949 76 940.5 67.5Q932 59 913 59Z" glyph-name="Adieresis.salt" horiz-adv-x="1016" /><glyph d="M236 535 193 186Q191 167 183.5 158.5Q176 150 157 150H61Q44 150 35 158.5Q26 167 28 184L71 533Q73 552 80.5 560.5Q88 569 107 569H203Q220 569 229 560.5Q238 552 236 535ZM912 61H668Q642 61 624.5 63Q607 65 590.5 69.5Q574 74 555 81.5Q536 89 508 100L301 177Q282 184 275 196.5Q268 209 268 228V487Q268 506 275 518Q282 530 301 537L508 624Q536 635 555 642.5Q574 650 590.5 654.5Q607 659 624.5 661Q642 663 668 663H912Q931 663 939.5 654.5Q948 646 948 627V476Q948 457 939.5 447Q931 437 912 437H792V280H912Q931 280 939.5 271.5Q948 263 948 244V97Q948 78 939.5 69.5Q931 61 912 61ZM478 337 610 290V427L478 380Q468 376 464.5 372.5Q461 369 461 361V356Q461 348 464.5 344.5Q468 341 478 337Z" glyph-name="Agrave" horiz-adv-x="1015" unicode="&#192;" /><glyph d="M236 535 193 186Q191 167 183.5 158.5Q176 150 157 150H61Q44 150 35 158.5Q26 167 28 184L71 533Q73 552 80.5 560.5Q88 569 107 569H203Q220 569 229 560.5Q238 552 236 535ZM912 59H457Q412 59 374 71Q336 83 309.5 116Q283 149 268 207.5Q253 266 253 359Q253 452 268 511Q283 570 309.5 603Q336 636 374 648.5Q412 661 457 661H912Q931 661 939.5 652.5Q948 644 948 625V473Q948 454 939.5 445.5Q931 437 912 437H783V278H912Q931 278 939.5 269.5Q948 261 948 242V95Q948 76 939.5 67.5Q931 59 912 59Z" glyph-name="Agrave.salt" horiz-adv-x="1015" /><glyph d="M207 533V186Q207 167 198.5 158.5Q190 150 171 150H78Q59 150 50.5 158.5Q42 167 42 186V533Q42 552 50.5 560.5Q59 569 78 569H171Q190 569 198.5 560.5Q207 552 207 533ZM891 61H647Q621 61 603.5 63Q586 65 569.5 69.5Q553 74 534 81.5Q515 89 487 100L280 177Q261 184 254 196.5Q247 209 247 228V487Q247 506 254 518Q261 530 280 537L487 624Q515 635 534 642.5Q553 650 569.5 654.5Q586 659 603.5 661Q621 663 647 663H891Q910 663 918.5 654.5Q927 646 927 627V476Q927 457 918.5 447Q910 437 891 437H771V280H891Q910 280 918.5 271.5Q927 263 927 244V97Q927 78 918.5 69.5Q910 61 891 61ZM457 337 589 290V427L457 380Q447 376 443.5 372.5Q440 369 440 361V356Q440 348 443.5 344.5Q447 341 457 337Z" glyph-name="Amacron" horiz-adv-x="994" unicode="&#256;" /><glyph d="M207 533V186Q207 167 198.5 158.5Q190 150 171 150H78Q59 150 50.5 158.5Q42 167 42 186V533Q42 552 50.5 560.5Q59 569 78 569H171Q190 569 198.5 560.5Q207 552 207 533ZM891 59H436Q391 59 353 71Q315 83 288.5 116Q262 149 247 207.5Q232 266 232 359Q232 452 247 511Q262 570 288.5 603Q315 636 353 648.5Q391 661 436 661H891Q910 661 918.5 652.5Q927 644 927 625V473Q927 454 918.5 445.5Q910 437 891 437H762V278H891Q910 278 918.5 269.5Q927 261 927 242V95Q927 76 918.5 67.5Q910 59 891 59Z" glyph-name="Amacron.salt" horiz-adv-x="994" /><glyph d="M706 61H462Q436 61 418.5 63Q401 65 384.5 69.5Q368 74 349 81.5Q330 89 302 100L95 177Q76 184 69 196.5Q62 209 62 228V487Q62 506 69 518Q76 530 95 537L302 624Q330 635 349 642.5Q368 650 384.5 654.5Q401 659 418.5 661Q436 663 462 663H706Q725 663 733.5 654.5Q742 646 742 627V591L788 584V625Q788 646 795.5 653.5Q803 661 822 661H894Q913 661 920.5 654Q928 647 928 628V517Q928 453 895 429.5Q862 406 793 416L675 437H586V280H706Q725 280 733.5 271.5Q742 263 742 244V97Q742 78 733.5 69.5Q725 61 706 61ZM272 337 404 290V427L272 380Q262 376 258.5 372.5Q255 369 255 361V356Q255 348 258.5 344.5Q262 341 272 337Z" glyph-name="Aogonek" horiz-adv-x="945" unicode="&#260;" /><glyph d="M716 59H261Q216 59 178 71Q140 83 113.5 116Q87 149 72 207.5Q57 266 57 359Q57 452 72 511Q87 570 113.5 603Q140 636 178 648.5Q216 661 261 661H716Q735 661 743.5 652.5Q752 644 752 625V593L798 586V627Q798 648 805.5 655.5Q813 663 832 663H904Q923 663 930.5 656Q938 649 938 630V519Q938 455 905 431.5Q872 408 803 418L696 437H587V278H716Q735 278 743.5 269.5Q752 261 752 242V95Q752 76 743.5 67.5Q735 59 716 59Z" glyph-name="Aogonek.salt" horiz-adv-x="955" /><glyph d="M908 59H674Q630 59 595.5 66.5Q561 74 524 88L351 148Q336 155 327 163Q318 171 314 183Q295 161 269.5 152Q244 143 213 143H155Q123 143 96.5 152.5Q70 162 51.5 186.5Q33 211 22.5 253Q12 295 12 360Q12 425 22.5 467Q33 509 51.5 533.5Q70 558 96.5 567.5Q123 577 155 577H213Q244 577 269.5 568Q295 559 314 537Q318 550 326.5 558Q335 566 351 572L524 632Q561 646 595.5 653.5Q630 661 674 661H908Q927 661 935.5 652.5Q944 644 944 625V471Q944 452 935.5 443.5Q927 435 908 435H788V277H908Q927 277 935.5 268.5Q944 260 944 241V95Q944 76 935.5 67.5Q927 59 908 59ZM470 329 606 286V426L470 384Q460 380 456.5 376.5Q453 373 453 365V348Q453 340 456.5 336.5Q460 333 470 329ZM220 420H185Q166 420 155.5 409Q145 398 145 361Q145 324 155.5 314Q166 304 185 304H220Q242 304 252.5 314Q263 324 263 361Q263 398 252.5 409Q242 420 220 420Z" glyph-name="Aring" horiz-adv-x="1011" unicode="&#197;" /><glyph d="M909 60H453Q396 60 352 79Q308 98 282 154Q267 147 249.5 143.5Q232 140 213 140H155Q123 140 96.5 149.5Q70 159 51.5 183.5Q33 208 22.5 250Q12 292 12 357Q12 422 22.5 464Q33 506 51.5 530.5Q70 555 96.5 564.5Q123 574 155 574H213Q232 574 248.5 571Q265 568 280 561Q305 620 350.5 640Q396 660 453 660H909Q928 660 936.5 651.5Q945 643 945 624V472Q945 453 936.5 444.5Q928 436 909 436H779V279H909Q928 279 936.5 270.5Q945 262 945 243V96Q945 77 936.5 68.5Q928 60 909 60ZM220 417H185Q166 417 155.5 406Q145 395 145 358Q145 321 155.5 311Q166 301 185 301H220Q242 301 252.5 311Q263 321 263 358Q263 395 252.5 406Q242 417 220 417Z" glyph-name="Aring.salt" horiz-adv-x="1012" /><glyph d="M902 61H658Q632 61 614.5 63Q597 65 580.5 69.5Q564 74 545 81.5Q526 89 498 100L291 177Q272 184 265 196.5Q258 209 258 228V487Q258 506 265 518Q272 530 291 537L498 624Q526 635 545 642.5Q564 650 580.5 654.5Q597 659 614.5 661Q632 663 658 663H902Q921 663 929.5 654.5Q938 646 938 627V476Q938 457 929.5 447Q921 437 902 437H782V280H902Q921 280 929.5 271.5Q938 263 938 244V97Q938 78 929.5 69.5Q921 61 902 61ZM468 337 600 290V427L468 380Q458 376 454.5 372.5Q451 369 451 361V356Q451 348 454.5 344.5Q458 341 468 337ZM215 359 211 331Q207 303 205.5 284Q204 265 205.5 250Q207 235 210.5 220.5Q214 206 220 186Q225 168 219 159Q213 150 194 150H93Q74 150 66.5 159.5Q59 169 52 186Q45 210 41.5 226Q38 242 38 257.5Q38 273 40.5 292.5Q43 312 47 342L49 359L52 381Q57 414 59 433.5Q61 453 60 467.5Q59 482 55 496Q51 510 44 532Q39 550 45 559Q51 568 70 568H171Q190 568 197.5 558.5Q205 549 212 532Q219 508 222.5 492Q226 476 226 460Q226 444 223.5 424.5Q221 405 217 375Z" glyph-name="Atilde" horiz-adv-x="1005" unicode="&#195;" /><glyph d="M215 359 211 331Q207 303 205.5 284Q204 265 205.5 250Q207 235 210.5 220.5Q214 206 220 186Q225 168 219 159Q213 150 194 150H93Q74 150 66.5 159.5Q59 169 52 186Q45 210 41.5 226Q38 242 38 257.5Q38 273 40.5 292.5Q43 312 47 342L49 359L52 381Q57 414 59 433.5Q61 453 60 467.5Q59 482 55 496Q51 510 44 532Q39 550 45 559Q51 568 70 568H171Q190 568 197.5 558.5Q205 549 212 532Q219 508 222.5 492Q226 476 226 460Q226 444 223.5 424.5Q221 405 217 375ZM902 59H447Q402 59 364 71Q326 83 299.5 116Q273 149 258 207.5Q243 266 243 359Q243 452 258 511Q273 570 299.5 603Q326 636 364 648.5Q402 661 447 661H902Q921 661 929.5 652.5Q938 644 938 625V473Q938 454 929.5 445.5Q921 437 902 437H773V278H902Q921 278 929.5 269.5Q938 261 938 242V95Q938 76 929.5 67.5Q921 59 902 59Z" glyph-name="Atilde.salt" horiz-adv-x="1005" /><glyph d="M789 472V97Q789 78 780.5 69.5Q772 61 753 61H105Q86 61 77.5 69.5Q69 78 69 97V407Q69 508 112.5 553.5Q156 599 222 599H270Q308 599 336 586Q364 573 378 540Q383 594 423 630Q463 666 533 666H625Q700 666 744.5 617Q789 568 789 472ZM501 286H619V407Q619 431 607 438Q595 445 579 445H540Q524 445 512.5 438Q501 431 501 407ZM239 286H347V362Q347 386 335 393Q323 400 307 400H279Q263 400 251 393Q239 386 239 362Z" glyph-name="B" horiz-adv-x="861" unicode="B" /><glyph d="M792 615V302Q792 161 735 108.5Q678 56 588 56H277Q186 56 129 108.5Q72 161 72 302V615Q72 634 80.5 642.5Q89 651 108 651H229Q248 651 256.5 642.5Q265 634 265 615V345Q265 306 280.5 295Q296 284 315 284H553Q574 284 587.5 295Q601 306 601 345V615Q601 634 609.5 642.5Q618 651 637 651H756Q775 651 783.5 642.5Q792 634 792 615Z" glyph-name="C" horiz-adv-x="864" unicode="C" /><glyph d="M752 615V302Q752 161 695 108.5Q638 56 548 56H277Q186 56 129 108.5Q72 161 72 302V615Q72 634 80.5 642.5Q89 651 108 651H229Q248 651 256.5 642.5Q265 634 265 615V345Q265 306 280.5 295Q296 284 315 284H513Q534 284 547.5 295Q561 306 561 345V615Q561 634 569.5 642.5Q578 651 597 651H716Q735 651 743.5 642.5Q752 634 752 615Z" glyph-name="C.s" horiz-adv-x="824" /><glyph d="M193 543 236 194Q238 177 229 168.5Q220 160 203 160H107Q88 160 80.5 168.5Q73 177 71 196L28 545Q26 562 35 570.5Q44 579 61 579H157Q176 579 183.5 570.5Q191 562 193 543ZM948 615V302Q948 161 891 108.5Q834 56 744 56H473Q382 56 325 108.5Q268 161 268 302V615Q268 634 276.5 642.5Q285 651 304 651H425Q444 651 452.5 642.5Q461 634 461 615V345Q461 306 476.5 295Q492 284 511 284H709Q730 284 743.5 295Q757 306 757 345V615Q757 634 765.5 642.5Q774 651 793 651H912Q931 651 939.5 642.5Q948 634 948 615Z" glyph-name="Cacute" horiz-adv-x="1020" unicode="&#262;" /><glyph d="M72 401 32 538Q24 563 30 571Q36 579 63 579H144Q171 579 179 570.5Q187 562 197 538L243 410Q247 401 249 390.5Q251 380 252 371Q252 362 251 354Q250 346 247 339L197 202Q187 177 179 168.5Q171 160 144 160H63Q36 160 30 168Q24 176 32 202L72 339Q76 356 76 370Q76 384 72 401ZM964 615V302Q964 161 907 108.5Q850 56 760 56H489Q398 56 341 108.5Q284 161 284 302V615Q284 634 292.5 642.5Q301 651 320 651H441Q460 651 468.5 642.5Q477 634 477 615V345Q477 306 492.5 295Q508 284 527 284H725Q746 284 759.5 295Q773 306 773 345V615Q773 634 781.5 642.5Q790 651 809 651H928Q947 651 955.5 642.5Q964 634 964 615Z" glyph-name="Ccaron" horiz-adv-x="1036" unicode="&#268;" /><glyph d="M838 238 751 270Q744 148 688.5 102Q633 56 548 56H277Q186 56 129 108.5Q72 161 72 302V615Q72 634 80.5 642.5Q89 651 108 651H229Q248 651 256.5 642.5Q265 634 265 615V345Q265 306 280.5 295Q296 284 315 284H513Q534 284 547.5 295Q561 306 561 345V615Q561 634 569.5 642.5Q578 651 597 651H716Q735 651 743.5 642.5Q752 634 752 615V474L848 440Q864 435 871 424Q878 413 878 394V268Q878 243 867 237Q856 231 838 238Z" glyph-name="Ccedilla" horiz-adv-x="905" unicode="&#199;" /><glyph d="M197 338 237 201Q245 176 239 168Q233 160 206 160H125Q98 160 90 168.5Q82 177 72 201L26 329Q22 338 20 348.5Q18 359 17 368Q17 377 18 385Q19 393 22 400L72 537Q82 562 90 570.5Q98 579 125 579H206Q233 579 239 571Q245 563 237 537L197 400Q193 383 193 369Q193 355 197 338ZM954 615V302Q954 161 897 108.5Q840 56 750 56H479Q388 56 331 108.5Q274 161 274 302V615Q274 634 282.5 642.5Q291 651 310 651H431Q450 651 458.5 642.5Q467 634 467 615V345Q467 306 482.5 295Q498 284 517 284H715Q736 284 749.5 295Q763 306 763 345V615Q763 634 771.5 642.5Q780 651 799 651H918Q937 651 945.5 642.5Q954 634 954 615Z" glyph-name="Ccircumflex" horiz-adv-x="1026" unicode="&#264;" /><glyph d="M216 450V292Q216 273 207.5 264.5Q199 256 180 256H53Q34 256 25.5 264.5Q17 273 17 292V450Q17 469 25.5 477.5Q34 486 53 486H180Q199 486 207.5 477.5Q216 469 216 450ZM936 615V302Q936 161 879 108.5Q822 56 732 56H461Q370 56 313 108.5Q256 161 256 302V615Q256 634 264.5 642.5Q273 651 292 651H413Q432 651 440.5 642.5Q449 634 449 615V345Q449 306 464.5 295Q480 284 499 284H697Q718 284 731.5 295Q745 306 745 345V615Q745 634 753.5 642.5Q762 651 781 651H900Q919 651 927.5 642.5Q936 634 936 615Z" glyph-name="Cdotaccent" horiz-adv-x="1008" unicode="&#266;" /><glyph d="M792 419V96Q792 77 783.5 68.5Q775 60 756 60H108Q89 60 80.5 68.5Q72 77 72 96V419Q72 560 129 612.5Q186 665 276 665H588Q678 665 735 612.5Q792 560 792 419ZM263 287H603V392Q603 422 588.5 430.5Q574 439 554 439H311Q292 439 277.5 430.5Q263 422 263 392Z" glyph-name="D" horiz-adv-x="864" unicode="D" /><glyph d="M752 419V96Q752 77 743.5 68.5Q735 60 716 60H108Q89 60 80.5 68.5Q72 77 72 96V419Q72 560 129 612.5Q186 665 276 665H548Q638 665 695 612.5Q752 560 752 419ZM263 287H563V392Q563 422 548.5 430.5Q534 439 514 439H311Q292 439 277.5 430.5Q263 422 263 392Z" glyph-name="D.s" horiz-adv-x="824" /><glyph d="M964 419V96Q964 77 955.5 68.5Q947 60 928 60H320Q301 60 292.5 68.5Q284 77 284 96V419Q284 560 341 612.5Q398 665 488 665H760Q850 665 907 612.5Q964 560 964 419ZM475 287H775V392Q775 422 760.5 430.5Q746 439 726 439H523Q504 439 489.5 430.5Q475 422 475 392ZM72 391 32 528Q24 553 30 561Q36 569 63 569H144Q171 569 179 560.5Q187 552 197 528L243 400Q247 391 249 380.5Q251 370 252 361Q252 352 251 344Q250 336 247 329L197 192Q187 167 179 158.5Q171 150 144 150H63Q36 150 30 158Q24 166 32 192L72 329Q76 346 76 360Q76 374 72 391Z" glyph-name="Dcaron" horiz-adv-x="1036" unicode="&#270;" /><glyph d="M535 37Q535 18 526.5 9.5Q518 1 499 1H392Q373 1 364.5 9.5Q356 18 356 37V60H116Q97 60 88.5 68.5Q80 77 80 96V414Q80 555 137 607.5Q194 660 284 660H596Q686 660 743 607.5Q800 555 800 414V96Q800 77 791.5 68.5Q783 60 764 60H535ZM271 284H356V326Q356 345 364.5 353.5Q373 362 392 362H499Q518 362 526.5 353.5Q535 345 535 326V284H611V387Q611 417 596.5 425.5Q582 434 562 434H319Q300 434 285.5 425.5Q271 417 271 387Z" glyph-name="Dcroat" horiz-adv-x="880" unicode="&#272;" /><glyph d="M800 635V85Q800 66 791.5 57.5Q783 49 764 49H630Q586 49 542.5 58.5Q499 68 460 78L121 165Q99 175 89.5 188.5Q80 202 80 227V494Q80 519 89.5 532.5Q99 546 121 555L460 642Q499 652 542.5 661.5Q586 671 630 671H764Q783 671 791.5 662.5Q800 654 800 635ZM590 267H611V445H590Q580 445 565.5 442.5Q551 440 539 437L296 384Q286 380 282.5 376.5Q279 373 279 365V348Q279 340 282.5 336.5Q286 333 296 329L539 275Q551 272 565.5 269.5Q580 267 590 267Z" glyph-name="Delta" horiz-adv-x="880" unicode="&#8710;" /><glyph d="M800 615V97Q800 78 791.5 69.5Q783 61 764 61H116Q97 61 88.5 69.5Q80 78 80 97V615Q80 634 88.5 642.5Q97 651 116 651H233Q252 651 260.5 642.5Q269 634 269 615V285H346V534Q346 553 354.5 561.5Q363 570 382 570H489Q508 570 516.5 561.5Q525 553 525 534V285H611V615Q611 634 619.5 642.5Q628 651 647 651H764Q783 651 791.5 642.5Q800 634 800 615Z" glyph-name="E" horiz-adv-x="880" unicode="E" /><glyph d="M760 614V96Q760 77 751.5 68.5Q743 60 724 60H116Q97 60 88.5 68.5Q80 77 80 96V614Q80 633 88.5 641.5Q97 650 116 650H229Q248 650 256.5 641.5Q265 633 265 614V284H332V533Q332 552 340.5 560.5Q349 569 368 569H463Q482 569 490.5 560.5Q499 552 499 533V284H575V614Q575 633 583.5 641.5Q592 650 611 650H724Q743 650 751.5 641.5Q760 633 760 614Z" glyph-name="E.s" horiz-adv-x="840" /><glyph d="M588 56H277Q186 56 129 108.5Q72 161 72 302V615Q72 634 80.5 642.5Q89 651 108 651H225Q244 651 252.5 642.5Q261 634 261 615V342Q261 303 276.5 292Q292 281 311 281H338V534Q338 553 346.5 561.5Q355 570 374 570H481Q500 570 508.5 561.5Q517 553 517 534V281H555Q576 281 589.5 292Q603 303 603 342V615Q603 634 611.5 642.5Q620 651 639 651H756Q775 651 783.5 642.5Q792 634 792 615V302Q792 161 735 108.5Q678 56 588 56Z" glyph-name="E.salt" horiz-adv-x="864" /><glyph d="M548 56H277Q186 56 129 108.5Q72 161 72 302V614Q72 633 80.5 641.5Q89 650 108 650H221Q240 650 248.5 641.5Q257 633 257 614V341Q257 302 272.5 291Q288 280 307 280H324V533Q324 552 332.5 560.5Q341 569 360 569H455Q474 569 482.5 560.5Q491 552 491 533V280H519Q540 280 553.5 291Q567 302 567 341V614Q567 633 575.5 641.5Q584 650 603 650H716Q735 650 743.5 641.5Q752 633 752 614V302Q752 161 695 108.5Q638 56 548 56Z" glyph-name="E.salt_s" horiz-adv-x="824" /><glyph d="M948 614V96Q948 77 939.5 68.5Q931 60 912 60H304Q285 60 276.5 68.5Q268 77 268 96V614Q268 633 276.5 641.5Q285 650 304 650H417Q436 650 444.5 641.5Q453 633 453 614V284H520V533Q520 552 528.5 560.5Q537 569 556 569H651Q670 569 678.5 560.5Q687 552 687 533V284H763V614Q763 633 771.5 641.5Q780 650 799 650H912Q931 650 939.5 641.5Q948 633 948 614ZM193 533 236 184Q238 167 229 158.5Q220 150 203 150H107Q88 150 80.5 158.5Q73 167 71 186L28 535Q26 552 35 560.5Q44 569 61 569H157Q176 569 183.5 560.5Q191 552 193 533Z" glyph-name="Eacute" horiz-adv-x="1028" unicode="&#201;" /><glyph d="M193 533 236 184Q238 167 229 158.5Q220 150 203 150H107Q88 150 80.5 158.5Q73 167 71 186L28 535Q26 552 35 560.5Q44 569 61 569H157Q176 569 183.5 560.5Q191 552 193 533ZM744 56H473Q382 56 325 108.5Q268 161 268 302V614Q268 633 276.5 641.5Q285 650 304 650H417Q436 650 444.5 641.5Q453 633 453 614V341Q453 302 468.5 291Q484 280 503 280H520V533Q520 552 528.5 560.5Q537 569 556 569H651Q670 569 678.5 560.5Q687 552 687 533V280H715Q736 280 749.5 291Q763 302 763 341V614Q763 633 771.5 641.5Q780 650 799 650H912Q931 650 939.5 641.5Q948 633 948 614V302Q948 161 891 108.5Q834 56 744 56Z" glyph-name="Eacute.salt" horiz-adv-x="1020" /><glyph d="M107 577Q139 577 165.5 567.5Q192 558 210.5 533.5Q229 509 239.5 467Q250 425 250 360Q250 295 239.5 253Q229 211 210.5 186.5Q192 162 165.5 152.5Q139 143 107 143H63Q44 143 35.5 151.5Q27 160 27 179V275Q27 291 33.5 297.5Q40 304 58 304H79Q93 304 102.5 314Q112 324 112 361Q112 398 102.5 409Q93 420 79 420H58Q40 420 33.5 426.5Q27 433 27 450V541Q27 560 35.5 568.5Q44 577 63 577ZM964 614V96Q964 77 955.5 68.5Q947 60 928 60H320Q301 60 292.5 68.5Q284 77 284 96V614Q284 633 292.5 641.5Q301 650 320 650H433Q452 650 460.5 641.5Q469 633 469 614V284H536V533Q536 552 544.5 560.5Q553 569 572 569H667Q686 569 694.5 560.5Q703 552 703 533V284H779V614Q779 633 787.5 641.5Q796 650 815 650H928Q947 650 955.5 641.5Q964 633 964 614Z" glyph-name="Ebreve" horiz-adv-x="1044" unicode="&#276;" /><glyph d="M107 577Q139 577 165.5 567.5Q192 558 210.5 533.5Q229 509 239.5 467Q250 425 250 360Q250 295 239.5 253Q229 211 210.5 186.5Q192 162 165.5 152.5Q139 143 107 143H63Q44 143 35.5 151.5Q27 160 27 179V275Q27 291 33.5 297.5Q40 304 58 304H79Q93 304 102.5 314Q112 324 112 361Q112 398 102.5 409Q93 420 79 420H58Q40 420 33.5 426.5Q27 433 27 450V541Q27 560 35.5 568.5Q44 577 63 577ZM760 56H489Q398 56 341 108.5Q284 161 284 302V614Q284 633 292.5 641.5Q301 650 320 650H433Q452 650 460.5 641.5Q469 633 469 614V341Q469 302 484.5 291Q500 280 519 280H536V533Q536 552 544.5 560.5Q553 569 572 569H667Q686 569 694.5 560.5Q703 552 703 533V280H731Q752 280 765.5 291Q779 302 779 341V614Q779 633 787.5 641.5Q796 650 815 650H928Q947 650 955.5 641.5Q964 633 964 614V302Q964 161 907 108.5Q850 56 760 56Z" glyph-name="Ebreve.salt" horiz-adv-x="1036" /><glyph d="M72 391 32 528Q24 553 30 561Q36 569 63 569H144Q171 569 179 560.5Q187 552 197 528L243 400Q247 391 249 380.5Q251 370 252 361Q252 352 251 344Q250 336 247 329L197 192Q187 167 179 158.5Q171 150 144 150H63Q36 150 30 158Q24 166 32 192L72 329Q76 346 76 360Q76 374 72 391ZM964 614V96Q964 77 955.5 68.5Q947 60 928 60H320Q301 60 292.5 68.5Q284 77 284 96V614Q284 633 292.5 641.5Q301 650 320 650H433Q452 650 460.5 641.5Q469 633 469 614V284H536V533Q536 552 544.5 560.5Q553 569 572 569H667Q686 569 694.5 560.5Q703 552 703 533V284H779V614Q779 633 787.5 641.5Q796 650 815 650H928Q947 650 955.5 641.5Q964 633 964 614Z" glyph-name="Ecaron" horiz-adv-x="1044" unicode="&#282;" /><glyph d="M72 391 32 528Q24 553 30 561Q36 569 63 569H144Q171 569 179 560.5Q187 552 197 528L243 400Q247 391 249 380.5Q251 370 252 361Q252 352 251 344Q250 336 247 329L197 192Q187 167 179 158.5Q171 150 144 150H63Q36 150 30 158Q24 166 32 192L72 329Q76 346 76 360Q76 374 72 391ZM760 56H489Q398 56 341 108.5Q284 161 284 302V614Q284 633 292.5 641.5Q301 650 320 650H433Q452 650 460.5 641.5Q469 633 469 614V341Q469 302 484.5 291Q500 280 519 280H536V533Q536 552 544.5 560.5Q553 569 572 569H667Q686 569 694.5 560.5Q703 552 703 533V280H731Q752 280 765.5 291Q779 302 779 341V614Q779 633 787.5 641.5Q796 650 815 650H928Q947 650 955.5 641.5Q964 633 964 614V302Q964 161 907 108.5Q850 56 760 56Z" glyph-name="Ecaron.salt" horiz-adv-x="1036" /><glyph d="M197 328 237 191Q245 166 239 158Q233 150 206 150H125Q98 150 90 158.5Q82 167 72 191L26 319Q22 328 20 338.5Q18 349 17 358Q17 367 18 375Q19 383 22 390L72 527Q82 552 90 560.5Q98 569 125 569H206Q233 569 239 561Q245 553 237 527L197 390Q193 373 193 359Q193 345 197 328ZM994 615V97Q994 78 985.5 69.5Q977 61 958 61H310Q291 61 282.5 69.5Q274 78 274 97V615Q274 634 282.5 642.5Q291 651 310 651H427Q446 651 454.5 642.5Q463 634 463 615V285H540V534Q540 553 548.5 561.5Q557 570 576 570H683Q702 570 710.5 561.5Q719 553 719 534V285H805V615Q805 634 813.5 642.5Q822 651 841 651H958Q977 651 985.5 642.5Q994 634 994 615Z" glyph-name="Ecircumflex" horiz-adv-x="1074" unicode="&#202;" /><glyph d="M197 328 237 191Q245 166 239 158Q233 150 206 150H125Q98 150 90 158.5Q82 167 72 191L26 319Q22 328 20 338.5Q18 349 17 358Q17 367 18 375Q19 383 22 390L72 527Q82 552 90 560.5Q98 569 125 569H206Q233 569 239 561Q245 553 237 527L197 390Q193 373 193 359Q193 345 197 328ZM750 56H479Q388 56 331 108.5Q274 161 274 302V614Q274 633 282.5 641.5Q291 650 310 650H423Q442 650 450.5 641.5Q459 633 459 614V341Q459 302 474.5 291Q490 280 509 280H526V533Q526 552 534.5 560.5Q543 569 562 569H657Q676 569 684.5 560.5Q693 552 693 533V280H721Q742 280 755.5 291Q769 302 769 341V614Q769 633 777.5 641.5Q786 650 805 650H918Q937 650 945.5 641.5Q954 633 954 614V302Q954 161 897 108.5Q840 56 750 56Z" glyph-name="Ecircumflex.salt" horiz-adv-x="1026" /><glyph d="M229 556V418Q229 401 221 393Q213 385 196 385H75Q58 385 50 393Q42 401 42 418V556Q42 573 50 581Q58 589 75 589H196Q213 589 221 581Q229 573 229 556ZM229 298V160Q229 143 221 134.5Q213 126 196 126H75Q58 126 50 134.5Q42 143 42 160V298Q42 315 50 323Q58 331 75 331H196Q213 331 221 323Q229 315 229 298ZM949 614V96Q949 77 940.5 68.5Q932 60 913 60H305Q286 60 277.5 68.5Q269 77 269 96V614Q269 633 277.5 641.5Q286 650 305 650H418Q437 650 445.5 641.5Q454 633 454 614V284H521V533Q521 552 529.5 560.5Q538 569 557 569H652Q671 569 679.5 560.5Q688 552 688 533V284H764V614Q764 633 772.5 641.5Q781 650 800 650H913Q932 650 940.5 641.5Q949 633 949 614Z" glyph-name="Edieresis" horiz-adv-x="1029" unicode="&#203;" /><glyph d="M229 556V418Q229 401 221 393Q213 385 196 385H75Q58 385 50 393Q42 401 42 418V556Q42 573 50 581Q58 589 75 589H196Q213 589 221 581Q229 573 229 556ZM229 298V160Q229 143 221 134.5Q213 126 196 126H75Q58 126 50 134.5Q42 143 42 160V298Q42 315 50 323Q58 331 75 331H196Q213 331 221 323Q229 315 229 298ZM745 56H474Q383 56 326 108.5Q269 161 269 302V614Q269 633 277.5 641.5Q286 650 305 650H418Q437 650 445.5 641.5Q454 633 454 614V341Q454 302 469.5 291Q485 280 504 280H521V533Q521 552 529.5 560.5Q538 569 557 569H652Q671 569 679.5 560.5Q688 552 688 533V280H716Q737 280 750.5 291Q764 302 764 341V614Q764 633 772.5 641.5Q781 650 800 650H913Q932 650 940.5 641.5Q949 633 949 614V302Q949 161 892 108.5Q835 56 745 56Z" glyph-name="Edieresis.salt" horiz-adv-x="1021" /><glyph d="M216 440V282Q216 263 207.5 254.5Q199 246 180 246H53Q34 246 25.5 254.5Q17 263 17 282V440Q17 459 25.5 467.5Q34 476 53 476H180Q199 476 207.5 467.5Q216 459 216 440ZM936 614V96Q936 77 927.5 68.5Q919 60 900 60H292Q273 60 264.5 68.5Q256 77 256 96V614Q256 633 264.5 641.5Q273 650 292 650H405Q424 650 432.5 641.5Q441 633 441 614V284H508V533Q508 552 516.5 560.5Q525 569 544 569H639Q658 569 666.5 560.5Q675 552 675 533V284H751V614Q751 633 759.5 641.5Q768 650 787 650H900Q919 650 927.5 641.5Q936 633 936 614Z" glyph-name="Edotaccent" horiz-adv-x="1016" unicode="&#278;" /><glyph d="M216 440V282Q216 263 207.5 254.5Q199 246 180 246H53Q34 246 25.5 254.5Q17 263 17 282V440Q17 459 25.5 467.5Q34 476 53 476H180Q199 476 207.5 467.5Q216 459 216 440ZM732 56H461Q370 56 313 108.5Q256 161 256 302V614Q256 633 264.5 641.5Q273 650 292 650H405Q424 650 432.5 641.5Q441 633 441 614V341Q441 302 456.5 291Q472 280 491 280H508V533Q508 552 516.5 560.5Q525 569 544 569H639Q658 569 666.5 560.5Q675 552 675 533V280H703Q724 280 737.5 291Q751 302 751 341V614Q751 633 759.5 641.5Q768 650 787 650H900Q919 650 927.5 641.5Q936 633 936 614V302Q936 161 879 108.5Q822 56 732 56Z" glyph-name="Edotaccent.salt" horiz-adv-x="1008" /><glyph d="M236 535 193 186Q191 167 183.5 158.5Q176 150 157 150H61Q44 150 35 158.5Q26 167 28 184L71 533Q73 552 80.5 560.5Q88 569 107 569H203Q220 569 229 560.5Q238 552 236 535ZM948 614V96Q948 77 939.5 68.5Q931 60 912 60H304Q285 60 276.5 68.5Q268 77 268 96V614Q268 633 276.5 641.5Q285 650 304 650H417Q436 650 444.5 641.5Q453 633 453 614V284H520V533Q520 552 528.5 560.5Q537 569 556 569H651Q670 569 678.5 560.5Q687 552 687 533V284H763V614Q763 633 771.5 641.5Q780 650 799 650H912Q931 650 939.5 641.5Q948 633 948 614Z" glyph-name="Egrave" horiz-adv-x="1028" unicode="&#200;" /><glyph d="M236 535 193 186Q191 167 183.5 158.5Q176 150 157 150H61Q44 150 35 158.5Q26 167 28 184L71 533Q73 552 80.5 560.5Q88 569 107 569H203Q220 569 229 560.5Q238 552 236 535ZM744 56H473Q382 56 325 108.5Q268 161 268 302V614Q268 633 276.5 641.5Q285 650 304 650H417Q436 650 444.5 641.5Q453 633 453 614V341Q453 302 468.5 291Q484 280 503 280H520V533Q520 552 528.5 560.5Q537 569 556 569H651Q670 569 678.5 560.5Q687 552 687 533V280H715Q736 280 749.5 291Q763 302 763 341V614Q763 633 771.5 641.5Q780 650 799 650H912Q931 650 939.5 641.5Q948 633 948 614V302Q948 161 891 108.5Q834 56 744 56Z" glyph-name="Egrave.salt" horiz-adv-x="1020" /><glyph d="M207 533V186Q207 167 198.5 158.5Q190 150 171 150H78Q59 150 50.5 158.5Q42 167 42 186V533Q42 552 50.5 560.5Q59 569 78 569H171Q190 569 198.5 560.5Q207 552 207 533ZM927 614V96Q927 77 918.5 68.5Q910 60 891 60H283Q264 60 255.5 68.5Q247 77 247 96V614Q247 633 255.5 641.5Q264 650 283 650H396Q415 650 423.5 641.5Q432 633 432 614V284H499V533Q499 552 507.5 560.5Q516 569 535 569H630Q649 569 657.5 560.5Q666 552 666 533V284H742V614Q742 633 750.5 641.5Q759 650 778 650H891Q910 650 918.5 641.5Q927 633 927 614Z" glyph-name="Emacron" horiz-adv-x="1007" unicode="&#274;" /><glyph d="M207 533V186Q207 167 198.5 158.5Q190 150 171 150H78Q59 150 50.5 158.5Q42 167 42 186V533Q42 552 50.5 560.5Q59 569 78 569H171Q190 569 198.5 560.5Q207 552 207 533ZM723 56H452Q361 56 304 108.5Q247 161 247 302V614Q247 633 255.5 641.5Q264 650 283 650H396Q415 650 423.5 641.5Q432 633 432 614V341Q432 302 447.5 291Q463 280 482 280H499V533Q499 552 507.5 560.5Q516 569 535 569H630Q649 569 657.5 560.5Q666 552 666 533V280H694Q715 280 728.5 291Q742 302 742 341V614Q742 633 750.5 641.5Q759 650 778 650H891Q910 650 918.5 641.5Q927 633 927 614V302Q927 161 870 108.5Q813 56 723 56Z" glyph-name="Emacron.salt" horiz-adv-x="999" /><glyph d="M271 60Q225 60 187.5 73.5Q150 87 123.5 120.5Q97 154 82 212.5Q67 271 67 360Q67 449 82 507.5Q97 566 123.5 599.5Q150 633 187.5 646.5Q225 660 271 660H668Q759 660 816 607.5Q873 555 873 414V369Q873 350 864.5 341.5Q856 333 837 333H717Q698 333 689.5 341.5Q681 350 681 369V390Q681 416 667.5 423.5Q654 431 633 431H310Q290 431 276.5 417.5Q263 404 263 358Q263 312 276.5 298Q290 284 310 284H747Q766 284 774.5 275.5Q783 267 783 248V96Q783 77 774.5 68.5Q766 60 747 60Z" glyph-name="Eng" horiz-adv-x="930" unicode="&#330;" /><glyph d="M724 60H116Q97 60 88.5 68.5Q80 77 80 96V614Q80 633 88.5 641.5Q97 650 116 650H229Q248 650 256.5 641.5Q265 633 265 614V284H332V533Q332 552 340.5 560.5Q349 569 368 569H463Q482 569 490.5 560.5Q499 552 499 533V284H575V614Q575 633 583.5 641.5Q592 650 611 650H724Q743 650 751.5 641.5Q760 633 760 614V580L806 573V614Q806 635 813.5 642.5Q821 650 840 650H912Q931 650 938.5 643Q946 636 946 617V506Q946 442 913 418.5Q880 395 811 405L760 414V96Q760 77 751.5 68.5Q743 60 724 60Z" glyph-name="Eogonek" horiz-adv-x="963" unicode="&#280;" /><glyph d="M548 56H277Q186 56 129 108.5Q72 161 72 302V614Q72 633 80.5 641.5Q89 650 108 650H221Q240 650 248.5 641.5Q257 633 257 614V341Q257 302 272.5 291Q288 280 307 280H324V533Q324 552 332.5 560.5Q341 569 360 569H455Q474 569 482.5 560.5Q491 552 491 533V280H519Q540 280 553.5 291Q567 302 567 341V614Q567 633 575.5 641.5Q584 650 603 650H716Q735 650 743.5 641.5Q752 633 752 614V580L798 573V614Q798 635 805.5 642.5Q813 650 832 650H904Q923 650 930.5 643Q938 636 938 617V506Q938 442 905 418.5Q872 395 803 405L752 414V302Q752 161 695 108.5Q638 56 548 56Z" glyph-name="Eogonek.salt" horiz-adv-x="955" /><glyph d="M535 37Q535 18 526.5 9.5Q518 1 499 1H392Q373 1 364.5 9.5Q356 18 356 37V60H116Q97 60 88.5 68.5Q80 77 80 96V414Q80 555 137 607.5Q194 660 284 660H596Q686 660 743 607.5Q800 555 800 414V96Q800 77 791.5 68.5Q783 60 764 60H535ZM271 284H356V326Q356 345 364.5 353.5Q373 362 392 362H499Q518 362 526.5 353.5Q535 345 535 326V284H611V387Q611 417 596.5 425.5Q582 434 562 434H319Q300 434 285.5 425.5Q271 417 271 387Z" glyph-name="Eth" horiz-adv-x="880" unicode="&#208;" /><glyph d="M421 100Q421 87 416.5 81.5Q412 76 398 76H326Q312 76 307 81.5Q302 87 302 100V114H285Q194 114 137 166.5Q80 219 80 360V604Q80 623 88.5 631.5Q97 640 116 640H227Q246 640 254.5 631.5Q263 623 263 604V393Q263 359 274.5 346.5Q286 334 302 333V512Q302 525 307 530.5Q312 536 326 536H398Q412 536 416.5 530.5Q421 525 421 512V332H462V512Q462 525 467 530.5Q472 536 486 536H558Q572 536 576.5 530.5Q581 525 581 512V332Q598 334 608.5 346.5Q619 359 619 393V604Q619 623 627.5 631.5Q636 640 655 640H764Q783 640 791.5 631.5Q800 623 800 604V360Q800 219 743 166.5Q686 114 596 114H581V100Q581 87 576.5 81.5Q572 76 558 76H486Q472 76 467 81.5Q462 87 462 100V114H421Z" glyph-name="Euro" horiz-adv-x="880" unicode="&#8364;" /><glyph d="M801 252V97Q801 78 792 69.5Q783 61 764 61H116Q97 61 88.5 69.5Q80 78 80 97V615Q80 634 88.5 642.5Q97 651 116 651H235Q254 651 262.5 642.5Q271 634 271 615V288H375V534Q375 553 383.5 561.5Q392 570 411 570H531Q550 570 558.5 561.5Q567 553 567 534V288H764Q783 288 792 279.5Q801 271 801 252Z" glyph-name="F" horiz-adv-x="856" unicode="F" /><glyph d="M787 624V301Q787 160 730 107.5Q673 55 583 55H271Q181 55 124 107.5Q67 160 67 301V559Q67 578 75.5 586.5Q84 595 103 595H224Q243 595 251.5 586.5Q260 578 260 559V343Q260 304 275.5 293Q291 282 310 282H549Q569 282 583.5 290Q598 298 598 328V433H442Q423 433 414.5 441.5Q406 450 406 469V624Q406 643 414.5 651.5Q423 660 442 660H751Q770 660 778.5 651.5Q787 643 787 624Z" glyph-name="G" horiz-adv-x="859" unicode="G" /><glyph d="M747 624V301Q747 160 690 107.5Q633 55 543 55H271Q181 55 124 107.5Q67 160 67 301V559Q67 578 75.5 586.5Q84 595 103 595H224Q243 595 251.5 586.5Q260 578 260 559V343Q260 304 275.5 293Q291 282 310 282H509Q529 282 543.5 290Q558 298 558 328V433H422Q403 433 394.5 441.5Q386 450 386 469V624Q386 643 394.5 651.5Q403 660 422 660H711Q730 660 738.5 651.5Q747 643 747 624Z" glyph-name="G.s" horiz-adv-x="819" /><glyph d="M107 577Q139 577 165.5 567.5Q192 558 210.5 533.5Q229 509 239.5 467Q250 425 250 360Q250 295 239.5 253Q229 211 210.5 186.5Q192 162 165.5 152.5Q139 143 107 143H63Q44 143 35.5 151.5Q27 160 27 179V275Q27 291 33.5 297.5Q40 304 58 304H79Q93 304 102.5 314Q112 324 112 361Q112 398 102.5 409Q93 420 79 420H58Q40 420 33.5 426.5Q27 433 27 450V541Q27 560 35.5 568.5Q44 577 63 577ZM964 624V301Q964 160 907 107.5Q850 55 760 55H488Q398 55 341 107.5Q284 160 284 301V559Q284 578 292.5 586.5Q301 595 320 595H441Q460 595 468.5 586.5Q477 578 477 559V343Q477 304 492.5 293Q508 282 527 282H726Q746 282 760.5 290Q775 298 775 328V433H639Q620 433 611.5 441.5Q603 450 603 469V624Q603 643 611.5 651.5Q620 660 639 660H928Q947 660 955.5 651.5Q964 643 964 624Z" glyph-name="Gbreve" horiz-adv-x="1036" unicode="&#286;" /><glyph d="M197 328 237 191Q245 166 239 158Q233 150 206 150H125Q98 150 90 158.5Q82 167 72 191L26 319Q22 328 20 338.5Q18 349 17 358Q17 367 18 375Q19 383 22 390L72 527Q82 552 90 560.5Q98 569 125 569H206Q233 569 239 561Q245 553 237 527L197 390Q193 373 193 359Q193 345 197 328ZM954 624V301Q954 160 897 107.5Q840 55 750 55H478Q388 55 331 107.5Q274 160 274 301V559Q274 578 282.5 586.5Q291 595 310 595H431Q450 595 458.5 586.5Q467 578 467 559V343Q467 304 482.5 293Q498 282 517 282H716Q736 282 750.5 290Q765 298 765 328V433H629Q610 433 601.5 441.5Q593 450 593 469V624Q593 643 601.5 651.5Q610 660 629 660H918Q937 660 945.5 651.5Q954 643 954 624Z" glyph-name="Gcircumflex" horiz-adv-x="1026" unicode="&#284;" /><glyph d="M747 624V301Q747 160 690 107.5Q633 55 543 55H271Q181 55 124 107.5Q67 160 67 301V559Q67 578 75.5 586.5Q84 595 103 595H224Q243 595 251.5 586.5Q260 578 260 559V343Q260 304 275.5 293Q291 282 310 282H509Q529 282 543.5 290Q558 298 558 328V433H422Q403 433 394.5 441.5Q386 450 386 469V624Q386 643 394.5 651.5Q403 660 422 660H711Q730 660 738.5 651.5Q747 643 747 624ZM1077 352V286Q1077 270 1069.5 263Q1062 256 1046 256H1022Q1006 256 999 263Q992 270 992 286V345Q992 356 985.5 362Q979 368 968 368H955V282Q955 261 946.5 253Q938 245 916 245H837Q814 245 805.5 253Q797 261 797 282V440Q797 461 805.5 469Q814 477 837 477H949Q1013 477 1045 443Q1077 409 1077 352Z" glyph-name="Gcommaaccent" horiz-adv-x="1089" unicode="&#290;" /><glyph d="M216 440V282Q216 263 207.5 254.5Q199 246 180 246H53Q34 246 25.5 254.5Q17 263 17 282V440Q17 459 25.5 467.5Q34 476 53 476H180Q199 476 207.5 467.5Q216 459 216 440ZM936 624V301Q936 160 879 107.5Q822 55 732 55H460Q370 55 313 107.5Q256 160 256 301V559Q256 578 264.5 586.5Q273 595 292 595H413Q432 595 440.5 586.5Q449 578 449 559V343Q449 304 464.5 293Q480 282 499 282H698Q718 282 732.5 290Q747 298 747 328V433H611Q592 433 583.5 441.5Q575 450 575 469V624Q575 643 583.5 651.5Q592 660 611 660H900Q919 660 927.5 651.5Q936 643 936 624Z" glyph-name="Gdotaccent" horiz-adv-x="1008" unicode="&#288;" /><glyph d="M764 287Q783 287 791.5 278.5Q800 270 800 251V96Q800 77 791.5 68.5Q783 60 764 60H116Q98 60 89 69Q80 78 80 96V452Q80 540 132.5 576Q185 612 271 596L363 578Q370 617 407.5 643.5Q445 670 511 670H634Q710 670 755 621.5Q800 573 800 491V373Q800 354 791.5 345.5Q783 337 764 337H651Q632 337 623.5 345.5Q615 354 615 373V425Q615 437 609.5 444.5Q604 452 592 452H539Q527 452 521.5 444.5Q516 437 516 425V389Q516 365 502 356.5Q488 348 460 352L293 375Q282 376 273.5 372.5Q265 369 265 356V287Z" glyph-name="Germandbls" horiz-adv-x="880" unicode="&#7838;" /><glyph d="M787 251V96Q787 77 778.5 68.5Q770 60 751 60H103Q84 60 75.5 68.5Q67 77 67 96V251Q67 270 75.5 278.5Q84 287 103 287H320V433H103Q84 433 75.5 441.5Q67 450 67 469V624Q67 643 75.5 651.5Q84 660 103 660H751Q770 660 778.5 651.5Q787 643 787 624V469Q787 450 778.5 441.5Q770 433 751 433H529V287H751Q770 287 778.5 278.5Q787 270 787 251Z" glyph-name="H" horiz-adv-x="854" unicode="H" /><glyph d="M747 251V96Q747 77 738.5 68.5Q730 60 711 60H103Q84 60 75.5 68.5Q67 77 67 96V251Q67 270 75.5 278.5Q84 287 103 287H300V433H103Q84 433 75.5 441.5Q67 450 67 469V624Q67 643 75.5 651.5Q84 660 103 660H711Q730 660 738.5 651.5Q747 643 747 624V469Q747 450 738.5 441.5Q730 433 711 433H509V287H711Q730 287 738.5 278.5Q747 270 747 251Z" glyph-name="H.s" horiz-adv-x="814" /><glyph d="M375 46Q375 27 366.5 18.5Q358 10 339 10H242Q223 10 214.5 18.5Q206 27 206 46V59H116Q97 59 88.5 67.5Q80 76 80 95V247Q80 266 88.5 274.5Q97 283 116 283H206V436H116Q97 436 88.5 444.5Q80 453 80 472V624Q80 643 88.5 651.5Q97 660 116 660H206V673Q206 692 214.5 700.5Q223 709 242 709H339Q358 709 366.5 700.5Q375 692 375 673V660H764Q783 660 791.5 651.5Q800 643 800 624V472Q800 453 791.5 444.5Q783 436 764 436H652V283H764Q783 283 791.5 274.5Q800 266 800 247V95Q800 76 791.5 67.5Q783 59 764 59H375ZM453 436H375V283H453Z" glyph-name="Hbar" horiz-adv-x="880" unicode="&#294;" /><glyph d="M954 251V96Q954 77 945.5 68.5Q937 60 918 60H310Q291 60 282.5 68.5Q274 77 274 96V251Q274 270 282.5 278.5Q291 287 310 287H507V433H310Q291 433 282.5 441.5Q274 450 274 469V624Q274 643 282.5 651.5Q291 660 310 660H918Q937 660 945.5 651.5Q954 643 954 624V469Q954 450 945.5 441.5Q937 433 918 433H716V287H918Q937 287 945.5 278.5Q954 270 954 251ZM197 328 237 191Q245 166 239 158Q233 150 206 150H125Q98 150 90 158.5Q82 167 72 191L26 319Q22 328 20 338.5Q18 349 17 358Q17 367 18 375Q19 383 22 390L72 527Q82 552 90 560.5Q98 569 125 569H206Q233 569 239 561Q245 553 237 527L197 390Q193 373 193 359Q193 345 197 328Z" glyph-name="Hcircumflex" horiz-adv-x="1021" unicode="&#292;" /><glyph d="M800 105Q800 86 791.5 77.5Q783 69 764 69H645Q626 69 617.5 77.5Q609 86 609 105V239H273V105Q273 86 264.5 77.5Q256 69 237 69H116Q97 69 88.5 77.5Q80 86 80 105V615Q80 634 88.5 642.5Q97 651 116 651H237Q256 651 264.5 642.5Q273 634 273 615V481H609V615Q609 634 617.5 642.5Q626 651 645 651H764Q783 651 791.5 642.5Q800 634 800 615Z" glyph-name="I" horiz-adv-x="880" unicode="I" /><glyph d="M760 105Q760 86 751.5 77.5Q743 69 724 69H605Q586 69 577.5 77.5Q569 86 569 105V239H273V105Q273 86 264.5 77.5Q256 69 237 69H116Q97 69 88.5 77.5Q80 86 80 105V615Q80 634 88.5 642.5Q97 651 116 651H237Q256 651 264.5 642.5Q273 634 273 615V481H569V615Q569 634 577.5 642.5Q586 651 605 651H724Q743 651 751.5 642.5Q760 634 760 615Z" glyph-name="I.s" horiz-adv-x="840" /><glyph d="M775 439V280Q775 261 766.5 252.5Q758 244 739 244H91Q72 244 63.5 252.5Q55 261 55 280V439Q55 458 63.5 466.5Q72 475 91 475H739Q758 475 766.5 466.5Q775 458 775 439Z" glyph-name="I.salt" horiz-adv-x="830" /><glyph d="M735 439V280Q735 261 726.5 252.5Q718 244 699 244H91Q72 244 63.5 252.5Q55 261 55 280V439Q55 458 63.5 466.5Q72 475 91 475H699Q718 475 726.5 466.5Q735 458 735 439Z" glyph-name="I.salt_s" horiz-adv-x="790" /><glyph d="M751 60H630Q611 60 602.5 68.5Q594 77 594 96V360Q594 396 578.5 414.5Q563 433 527 433H103Q84 433 75.5 441.5Q67 450 67 469V624Q67 643 75.5 651.5Q84 660 103 660H577Q676 660 731.5 603Q787 546 787 447V96Q787 77 778.5 68.5Q770 60 751 60ZM457 251V96Q457 77 448.5 68.5Q440 60 421 60H103Q84 60 75.5 68.5Q67 77 67 96V251Q67 270 75.5 278.5Q84 287 103 287H421Q440 287 448.5 278.5Q457 270 457 251Z" glyph-name="IJ" horiz-adv-x="859" unicode="&#306;" /><glyph d="M735 439V280Q735 261 726.5 252.5Q718 244 699 244H91Q72 244 63.5 252.5Q55 261 55 280V439Q55 458 63.5 466.5Q72 475 91 475H699Q718 475 726.5 466.5Q735 458 735 439ZM1306 661Q1352 661 1389.5 647.5Q1427 634 1453.5 600.5Q1480 567 1495 508Q1510 449 1510 358Q1510 268 1495 210Q1480 152 1453.5 119Q1427 86 1389.5 73.5Q1352 61 1306 61H1144Q1125 61 1116.5 69.5Q1108 78 1108 97V242Q1108 261 1116.5 269.5Q1125 278 1144 278H1266Q1286 278 1299.5 290.5Q1313 303 1313 356Q1313 406 1299.5 419Q1286 432 1266 432H851Q832 432 823.5 440.5Q815 449 815 468V625Q815 644 823.5 652.5Q832 661 851 661Z" glyph-name="IJ.salt" horiz-adv-x="1567" /><glyph d="M760 105Q760 86 751.5 77.5Q743 69 724 69H605Q586 69 577.5 77.5Q569 86 569 105V239H273V105Q273 86 264.5 77.5Q256 69 237 69H116Q97 69 88.5 77.5Q80 86 80 105V615Q80 634 88.5 642.5Q97 651 116 651H237Q256 651 264.5 642.5Q273 634 273 615V481H569V615Q569 634 577.5 642.5Q586 651 605 651H724Q743 651 751.5 642.5Q760 634 760 615ZM1351 660Q1397 660 1434.5 646.5Q1472 633 1498.5 599.5Q1525 566 1540 507Q1555 448 1555 357Q1555 267 1540 209Q1525 151 1498.5 118Q1472 85 1434.5 72.5Q1397 60 1351 60H1189Q1170 60 1161.5 68.5Q1153 77 1153 96V241Q1153 260 1161.5 268.5Q1170 277 1189 277H1311Q1331 277 1344.5 289.5Q1358 302 1358 355Q1358 405 1344.5 418Q1331 431 1311 431H896Q877 431 868.5 439.5Q860 448 860 467V624Q860 643 868.5 651.5Q877 660 896 660Z" glyph-name="IJ.stack" horiz-adv-x="1624" /><glyph d="M751 433H103Q84 433 75.5 441.5Q67 450 67 469V624Q67 643 75.5 651.5Q84 660 103 660H751Q770 660 778.5 651.5Q787 643 787 624V469Q787 450 778.5 441.5Q770 433 751 433ZM103 287H751Q770 287 778.5 278.5Q787 270 787 251V96Q787 77 778.5 68.5Q770 60 751 60H103Q84 60 75.5 68.5Q67 77 67 96V251Q67 270 75.5 278.5Q84 287 103 287Z" glyph-name="I_I.salt" horiz-adv-x="854" /><glyph d="M948 105Q948 86 939.5 77.5Q931 69 912 69H793Q774 69 765.5 77.5Q757 86 757 105V239H461V105Q461 86 452.5 77.5Q444 69 425 69H304Q285 69 276.5 77.5Q268 86 268 105V615Q268 634 276.5 642.5Q285 651 304 651H425Q444 651 452.5 642.5Q461 634 461 615V481H757V615Q757 634 765.5 642.5Q774 651 793 651H912Q931 651 939.5 642.5Q948 634 948 615ZM193 533 236 184Q238 167 229 158.5Q220 150 203 150H107Q88 150 80.5 158.5Q73 167 71 186L28 535Q26 552 35 560.5Q44 569 61 569H157Q176 569 183.5 560.5Q191 552 193 533Z" glyph-name="Iacute" horiz-adv-x="1028" unicode="&#205;" /><glyph d="M193 533 236 184Q238 167 229 158.5Q220 150 203 150H107Q88 150 80.5 158.5Q73 167 71 186L28 535Q26 552 35 560.5Q44 569 61 569H157Q176 569 183.5 560.5Q191 552 193 533ZM948 439V280Q948 261 939.5 252.5Q931 244 912 244H304Q285 244 276.5 252.5Q268 261 268 280V439Q268 458 276.5 466.5Q285 475 304 475H912Q931 475 939.5 466.5Q948 458 948 439Z" glyph-name="Iacute.salt" horiz-adv-x="1003" /><glyph d="M107 577Q139 577 165.5 567.5Q192 558 210.5 533.5Q229 509 239.5 467Q250 425 250 360Q250 295 239.5 253Q229 211 210.5 186.5Q192 162 165.5 152.5Q139 143 107 143H63Q44 143 35.5 151.5Q27 160 27 179V275Q27 291 33.5 297.5Q40 304 58 304H79Q93 304 102.5 314Q112 324 112 361Q112 398 102.5 409Q93 420 79 420H58Q40 420 33.5 426.5Q27 433 27 450V541Q27 560 35.5 568.5Q44 577 63 577ZM964 105Q964 86 955.5 77.5Q947 69 928 69H809Q790 69 781.5 77.5Q773 86 773 105V239H477V105Q477 86 468.5 77.5Q460 69 441 69H320Q301 69 292.5 77.5Q284 86 284 105V615Q284 634 292.5 642.5Q301 651 320 651H441Q460 651 468.5 642.5Q477 634 477 615V481H773V615Q773 634 781.5 642.5Q790 651 809 651H928Q947 651 955.5 642.5Q964 634 964 615Z" glyph-name="Ibreve" horiz-adv-x="1044" unicode="&#300;" /><glyph d="M107 577Q139 577 165.5 567.5Q192 558 210.5 533.5Q229 509 239.5 467Q250 425 250 360Q250 295 239.5 253Q229 211 210.5 186.5Q192 162 165.5 152.5Q139 143 107 143H63Q44 143 35.5 151.5Q27 160 27 179V275Q27 291 33.5 297.5Q40 304 58 304H79Q93 304 102.5 314Q112 324 112 361Q112 398 102.5 409Q93 420 79 420H58Q40 420 33.5 426.5Q27 433 27 450V541Q27 560 35.5 568.5Q44 577 63 577ZM964 439V280Q964 261 955.5 252.5Q947 244 928 244H320Q301 244 292.5 252.5Q284 261 284 280V439Q284 458 292.5 466.5Q301 475 320 475H928Q947 475 955.5 466.5Q964 458 964 439Z" glyph-name="Ibreve.salt" horiz-adv-x="1019" /><glyph d="M197 328 237 191Q245 166 239 158Q233 150 206 150H125Q98 150 90 158.5Q82 167 72 191L26 319Q22 328 20 338.5Q18 349 17 358Q17 367 18 375Q19 383 22 390L72 527Q82 552 90 560.5Q98 569 125 569H206Q233 569 239 561Q245 553 237 527L197 390Q193 373 193 359Q193 345 197 328ZM954 105Q954 86 945.5 77.5Q937 69 918 69H799Q780 69 771.5 77.5Q763 86 763 105V239H467V105Q467 86 458.5 77.5Q450 69 431 69H310Q291 69 282.5 77.5Q274 86 274 105V615Q274 634 282.5 642.5Q291 651 310 651H431Q450 651 458.5 642.5Q467 634 467 615V481H763V615Q763 634 771.5 642.5Q780 651 799 651H918Q937 651 945.5 642.5Q954 634 954 615Z" glyph-name="Icircumflex" horiz-adv-x="1034" unicode="&#206;" /><glyph d="M197 328 237 191Q245 166 239 158Q233 150 206 150H125Q98 150 90 158.5Q82 167 72 191L26 319Q22 328 20 338.5Q18 349 17 358Q17 367 18 375Q19 383 22 390L72 527Q82 552 90 560.5Q98 569 125 569H206Q233 569 239 561Q245 553 237 527L197 390Q193 373 193 359Q193 345 197 328ZM954 439V280Q954 261 945.5 252.5Q937 244 918 244H310Q291 244 282.5 252.5Q274 261 274 280V439Q274 458 282.5 466.5Q291 475 310 475H918Q937 475 945.5 466.5Q954 458 954 439Z" glyph-name="Icircumflex.salt" horiz-adv-x="1009" /><glyph d="M229 556V418Q229 401 221 393Q213 385 196 385H75Q58 385 50 393Q42 401 42 418V556Q42 573 50 581Q58 589 75 589H196Q213 589 221 581Q229 573 229 556ZM229 298V160Q229 143 221 134.5Q213 126 196 126H75Q58 126 50 134.5Q42 143 42 160V298Q42 315 50 323Q58 331 75 331H196Q213 331 221 323Q229 315 229 298ZM949 105Q949 86 940.5 77.5Q932 69 913 69H794Q775 69 766.5 77.5Q758 86 758 105V239H462V105Q462 86 453.5 77.5Q445 69 426 69H305Q286 69 277.5 77.5Q269 86 269 105V615Q269 634 277.5 642.5Q286 651 305 651H426Q445 651 453.5 642.5Q462 634 462 615V481H758V615Q758 634 766.5 642.5Q775 651 794 651H913Q932 651 940.5 642.5Q949 634 949 615Z" glyph-name="Idieresis" horiz-adv-x="1029" unicode="&#207;" /><glyph d="M229 556V418Q229 401 221 393Q213 385 196 385H75Q58 385 50 393Q42 401 42 418V556Q42 573 50 581Q58 589 75 589H196Q213 589 221 581Q229 573 229 556ZM229 298V160Q229 143 221 134.5Q213 126 196 126H75Q58 126 50 134.5Q42 143 42 160V298Q42 315 50 323Q58 331 75 331H196Q213 331 221 323Q229 315 229 298ZM949 439V280Q949 261 940.5 252.5Q932 244 913 244H305Q286 244 277.5 252.5Q269 261 269 280V439Q269 458 277.5 466.5Q286 475 305 475H913Q932 475 940.5 466.5Q949 458 949 439Z" glyph-name="Idieresis.salt" horiz-adv-x="1004" /><glyph d="M216 440V282Q216 263 207.5 254.5Q199 246 180 246H53Q34 246 25.5 254.5Q17 263 17 282V440Q17 459 25.5 467.5Q34 476 53 476H180Q199 476 207.5 467.5Q216 459 216 440ZM936 105Q936 86 927.5 77.5Q919 69 900 69H781Q762 69 753.5 77.5Q745 86 745 105V239H449V105Q449 86 440.5 77.5Q432 69 413 69H292Q273 69 264.5 77.5Q256 86 256 105V615Q256 634 264.5 642.5Q273 651 292 651H413Q432 651 440.5 642.5Q449 634 449 615V481H745V615Q745 634 753.5 642.5Q762 651 781 651H900Q919 651 927.5 642.5Q936 634 936 615Z" glyph-name="Idotaccent" horiz-adv-x="1016" unicode="&#304;" /><glyph d="M216 440V282Q216 263 207.5 254.5Q199 246 180 246H53Q34 246 25.5 254.5Q17 263 17 282V440Q17 459 25.5 467.5Q34 476 53 476H180Q199 476 207.5 467.5Q216 459 216 440ZM936 439V280Q936 261 927.5 252.5Q919 244 900 244H292Q273 244 264.5 252.5Q256 261 256 280V439Q256 458 264.5 466.5Q273 475 292 475H900Q919 475 927.5 466.5Q936 458 936 439Z" glyph-name="Idotaccent.salt" horiz-adv-x="991" /><glyph d="M236 535 193 186Q191 167 183.5 158.5Q176 150 157 150H61Q44 150 35 158.5Q26 167 28 184L71 533Q73 552 80.5 560.5Q88 569 107 569H203Q220 569 229 560.5Q238 552 236 535ZM948 105Q948 86 939.5 77.5Q931 69 912 69H793Q774 69 765.5 77.5Q757 86 757 105V239H461V105Q461 86 452.5 77.5Q444 69 425 69H304Q285 69 276.5 77.5Q268 86 268 105V615Q268 634 276.5 642.5Q285 651 304 651H425Q444 651 452.5 642.5Q461 634 461 615V481H757V615Q757 634 765.5 642.5Q774 651 793 651H912Q931 651 939.5 642.5Q948 634 948 615Z" glyph-name="Igrave" horiz-adv-x="1028" unicode="&#204;" /><glyph d="M236 535 193 186Q191 167 183.5 158.5Q176 150 157 150H61Q44 150 35 158.5Q26 167 28 184L71 533Q73 552 80.5 560.5Q88 569 107 569H203Q220 569 229 560.5Q238 552 236 535ZM948 439V280Q948 261 939.5 252.5Q931 244 912 244H304Q285 244 276.5 252.5Q268 261 268 280V439Q268 458 276.5 466.5Q285 475 304 475H912Q931 475 939.5 466.5Q948 458 948 439Z" glyph-name="Igrave.salt" horiz-adv-x="1003" /><glyph d="M207 533V186Q207 167 198.5 158.5Q190 150 171 150H78Q59 150 50.5 158.5Q42 167 42 186V533Q42 552 50.5 560.5Q59 569 78 569H171Q190 569 198.5 560.5Q207 552 207 533ZM927 105Q927 86 918.5 77.5Q910 69 891 69H772Q753 69 744.5 77.5Q736 86 736 105V239H440V105Q440 86 431.5 77.5Q423 69 404 69H283Q264 69 255.5 77.5Q247 86 247 105V615Q247 634 255.5 642.5Q264 651 283 651H404Q423 651 431.5 642.5Q440 634 440 615V481H736V615Q736 634 744.5 642.5Q753 651 772 651H891Q910 651 918.5 642.5Q927 634 927 615Z" glyph-name="Imacron" horiz-adv-x="1007" unicode="&#298;" /><glyph d="M207 533V186Q207 167 198.5 158.5Q190 150 171 150H78Q59 150 50.5 158.5Q42 167 42 186V533Q42 552 50.5 560.5Q59 569 78 569H171Q190 569 198.5 560.5Q207 552 207 533ZM927 439V280Q927 261 918.5 252.5Q910 244 891 244H283Q264 244 255.5 252.5Q247 261 247 280V439Q247 458 255.5 466.5Q264 475 283 475H891Q910 475 918.5 466.5Q927 458 927 439Z" glyph-name="Imacron.salt" horiz-adv-x="982" /><glyph d="M273 105Q273 86 264.5 77.5Q256 69 237 69H116Q97 69 88.5 77.5Q80 86 80 105V615Q80 634 88.5 642.5Q97 651 116 651H237Q256 651 264.5 642.5Q273 634 273 615V481H569V615Q569 634 577.5 642.5Q586 651 605 651H724Q743 651 751.5 642.5Q760 634 760 615V581L806 574V615Q806 636 813.5 643.5Q821 651 840 651H912Q931 651 938.5 644Q946 637 946 618V507Q946 443 913 419.5Q880 396 811 406L760 415V105Q760 86 751.5 77.5Q743 69 724 69H605Q586 69 577.5 77.5Q569 86 569 105V239H273Z" glyph-name="Iogonek" horiz-adv-x="963" unicode="&#302;" /><glyph d="M921 327Q921 263 888 239.5Q855 216 786 226L685 244H91Q72 244 63.5 252.5Q55 261 55 280V439Q55 458 63.5 466.5Q72 475 91 475H699Q718 475 726.5 466.5Q735 458 735 439V401L781 394V435Q781 456 788.5 463.5Q796 471 815 471H887Q906 471 913.5 464Q921 457 921 438Z" glyph-name="Iogonek.salt" horiz-adv-x="938" /><glyph d="M215 359 211 331Q207 303 205.5 284Q204 265 205.5 250Q207 235 210.5 220.5Q214 206 220 186Q225 168 219 159Q213 150 194 150H93Q74 150 66.5 159.5Q59 169 52 186Q45 210 41.5 226Q38 242 38 257.5Q38 273 40.5 292.5Q43 312 47 342L49 359L52 381Q57 414 59 433.5Q61 453 60 467.5Q59 482 55 496Q51 510 44 532Q39 550 45 559Q51 568 70 568H171Q190 568 197.5 558.5Q205 549 212 532Q219 508 222.5 492Q226 476 226 460Q226 444 223.5 424.5Q221 405 217 375ZM938 105Q938 86 929.5 77.5Q921 69 902 69H783Q764 69 755.5 77.5Q747 86 747 105V239H451V105Q451 86 442.5 77.5Q434 69 415 69H294Q275 69 266.5 77.5Q258 86 258 105V615Q258 634 266.5 642.5Q275 651 294 651H415Q434 651 442.5 642.5Q451 634 451 615V481H747V615Q747 634 755.5 642.5Q764 651 783 651H902Q921 651 929.5 642.5Q938 634 938 615Z" glyph-name="Itilde" horiz-adv-x="1018" unicode="&#296;" /><glyph d="M215 359 211 331Q207 303 205.5 284Q204 265 205.5 250Q207 235 210.5 220.5Q214 206 220 186Q225 168 219 159Q213 150 194 150H93Q74 150 66.5 159.5Q59 169 52 186Q45 210 41.5 226Q38 242 38 257.5Q38 273 40.5 292.5Q43 312 47 342L49 359L52 381Q57 414 59 433.5Q61 453 60 467.5Q59 482 55 496Q51 510 44 532Q39 550 45 559Q51 568 70 568H171Q190 568 197.5 558.5Q205 549 212 532Q219 508 222.5 492Q226 476 226 460Q226 444 223.5 424.5Q221 405 217 375ZM938 439V280Q938 261 929.5 252.5Q921 244 902 244H294Q275 244 266.5 252.5Q258 261 258 280V439Q258 458 266.5 466.5Q275 475 294 475H902Q921 475 929.5 466.5Q938 458 938 439Z" glyph-name="Itilde.salt" horiz-adv-x="993" /><glyph d="M586 660Q632 660 669.5 646.5Q707 633 734 599.5Q761 566 776 507Q791 448 791 357Q791 267 776 209Q761 151 734 118Q707 85 669.5 72.5Q632 60 586 60H424Q405 60 396.5 68.5Q388 77 388 96V241Q388 260 396.5 268.5Q405 277 424 277H546Q566 277 579.5 289.5Q593 302 593 355Q593 405 579.5 418Q566 431 546 431H91Q72 431 63.5 439.5Q55 448 55 467V624Q55 643 63.5 651.5Q72 660 91 660Z" glyph-name="J" horiz-adv-x="848" unicode="J" /><glyph d="M546 660Q592 660 629.5 646.5Q667 633 693.5 599.5Q720 566 735 507Q750 448 750 357Q750 267 735 209Q720 151 693.5 118Q667 85 629.5 72.5Q592 60 546 60H384Q365 60 356.5 68.5Q348 77 348 96V241Q348 260 356.5 268.5Q365 277 384 277H506Q526 277 539.5 289.5Q553 302 553 355Q553 405 539.5 418Q526 431 506 431H91Q72 431 63.5 439.5Q55 448 55 467V624Q55 643 63.5 651.5Q72 660 91 660Z" glyph-name="J.s" horiz-adv-x="807" /><glyph d="M197 418 237 281Q245 256 239 248Q233 240 206 240H125Q98 240 90 248.5Q82 257 72 281L26 409Q22 418 20 428.5Q18 439 17 448Q17 457 18 465Q19 473 22 480L72 617Q82 642 90 650.5Q98 659 125 659H206Q233 659 239 651Q245 643 237 617L197 480Q193 463 193 449Q193 435 197 418ZM765 660Q811 660 848.5 646.5Q886 633 912.5 599.5Q939 566 954 507Q969 448 969 357Q969 267 954 209Q939 151 912.5 118Q886 85 848.5 72.5Q811 60 765 60H603Q584 60 575.5 68.5Q567 77 567 96V241Q567 260 575.5 268.5Q584 277 603 277H725Q745 277 758.5 289.5Q772 302 772 355Q772 405 758.5 418Q745 431 725 431H310Q291 431 282.5 439.5Q274 448 274 467V624Q274 643 282.5 651.5Q291 660 310 660Z" glyph-name="Jcircumflex" horiz-adv-x="1026" unicode="&#308;" /><glyph d="M787 252V97Q787 78 778.5 69.5Q770 61 751 61H103Q84 61 75.5 69.5Q67 78 67 97V252Q67 271 75.5 279.5Q84 288 103 288H333V311L100 414Q82 421 74.5 433Q67 445 67 464V618Q67 635 75.5 641Q84 647 100 640L333 538Q336 594 372.5 627.5Q409 661 469 661H751Q770 661 778.5 652.5Q787 644 787 625V471Q787 452 778.5 443.5Q770 435 751 435H556Q540 435 531 427Q522 419 522 403V288H751Q770 288 778.5 279.5Q787 271 787 252Z" glyph-name="K" horiz-adv-x="854" unicode="K" /><glyph d="M747 251V96Q747 77 738.5 68.5Q730 60 711 60H103Q84 60 75.5 68.5Q67 77 67 96V251Q67 270 75.5 278.5Q84 287 103 287H313V310L100 413Q82 420 74.5 432Q67 444 67 463V617Q67 634 75.5 640Q84 646 100 639L313 537Q316 593 352.5 626.5Q389 660 449 660H711Q730 660 738.5 651.5Q747 643 747 624V470Q747 451 738.5 442.5Q730 434 711 434H536Q520 434 511 426Q502 418 502 402V287H711Q730 287 738.5 278.5Q747 270 747 251Z" glyph-name="K.s" horiz-adv-x="814" /><glyph d="M747 251V96Q747 77 738.5 68.5Q730 60 711 60H103Q84 60 75.5 68.5Q67 77 67 96V251Q67 270 75.5 278.5Q84 287 103 287H313V310L100 413Q82 420 74.5 432Q67 444 67 463V617Q67 634 75.5 640Q84 646 100 639L313 537Q316 593 352.5 626.5Q389 660 449 660H711Q730 660 738.5 651.5Q747 643 747 624V470Q747 451 738.5 442.5Q730 434 711 434H536Q520 434 511 426Q502 418 502 402V287H711Q730 287 738.5 278.5Q747 270 747 251ZM1077 352V286Q1077 270 1069.5 263Q1062 256 1046 256H1022Q1006 256 999 263Q992 270 992 286V345Q992 356 985.5 362Q979 368 968 368H955V282Q955 261 946.5 253Q938 245 916 245H837Q814 245 805.5 253Q797 261 797 282V440Q797 461 805.5 469Q814 477 837 477H949Q1013 477 1045 443Q1077 409 1077 352Z" glyph-name="Kcommaaccent" horiz-adv-x="1089" unicode="&#310;" /><glyph d="M775 625V97Q775 78 766.5 69.5Q758 61 739 61H91Q72 61 63.5 69.5Q55 78 55 97V252Q55 271 63.5 279.5Q72 288 91 288H586V444H424Q405 444 396.5 452.5Q388 461 388 480V625Q388 644 396.5 652.5Q405 661 424 661H739Q758 661 766.5 652.5Q775 644 775 625Z" glyph-name="L" horiz-adv-x="855" unicode="L" /><glyph d="M735 624V96Q735 77 726.5 68.5Q718 60 699 60H91Q72 60 63.5 68.5Q55 77 55 96V251Q55 270 63.5 278.5Q72 287 91 287H546V443H394Q375 443 366.5 451.5Q358 460 358 479V624Q358 643 366.5 651.5Q375 660 394 660H699Q718 660 726.5 651.5Q735 643 735 624Z" glyph-name="L.s" horiz-adv-x="815" /><glyph d="M193 443 236 94Q238 77 229 68.5Q220 60 203 60H107Q88 60 80.5 68.5Q73 77 71 96L28 445Q26 462 35 470.5Q44 479 61 479H157Q176 479 183.5 470.5Q191 462 193 443ZM948 624V96Q948 77 939.5 68.5Q931 60 912 60H304Q285 60 276.5 68.5Q268 77 268 96V251Q268 270 276.5 278.5Q285 287 304 287H759V443H607Q588 443 579.5 451.5Q571 460 571 479V624Q571 643 579.5 651.5Q588 660 607 660H912Q931 660 939.5 651.5Q948 643 948 624Z" glyph-name="Lacute" horiz-adv-x="1028" unicode="&#313;" /><glyph d="M787 625V97Q787 78 778.5 69.5Q770 61 751 61H103Q84 61 75.5 69.5Q67 78 67 97V252Q67 271 75.5 279.5Q84 288 103 288H598V444H436Q417 444 408.5 452.5Q400 461 400 480V625Q400 644 408.5 652.5Q417 661 436 661H751Q770 661 778.5 652.5Q787 644 787 625ZM335 595V471Q335 452 326.5 442Q318 432 299 435L103 468Q84 471 75.5 478Q67 485 67 504V642Q67 661 76 671.5Q85 682 103 678L299 631Q317 627 326 620.5Q335 614 335 595Z" glyph-name="Lcaron" horiz-adv-x="867" unicode="&#317;" /><glyph d="M735 624V96Q735 77 726.5 68.5Q718 60 699 60H91Q72 60 63.5 68.5Q55 77 55 96V251Q55 270 63.5 278.5Q72 287 91 287H546V443H394Q375 443 366.5 451.5Q358 460 358 479V624Q358 643 366.5 651.5Q375 660 394 660H699Q718 660 726.5 651.5Q735 643 735 624ZM1065 352V286Q1065 270 1057.5 263Q1050 256 1034 256H1010Q994 256 987 263Q980 270 980 286V345Q980 356 973.5 362Q967 368 956 368H943V282Q943 261 934.5 253Q926 245 904 245H825Q802 245 793.5 253Q785 261 785 282V440Q785 461 793.5 469Q802 477 825 477H937Q1001 477 1033 443Q1065 409 1065 352Z" glyph-name="Lcommaaccent" horiz-adv-x="1077" unicode="&#315;" /><glyph d="M735 624V96Q735 77 726.5 68.5Q718 60 699 60H91Q72 60 63.5 68.5Q55 77 55 96V251Q55 270 63.5 278.5Q72 287 91 287H546V443H394Q375 443 366.5 451.5Q358 460 358 479V624Q358 643 366.5 651.5Q375 660 394 660H699Q718 660 726.5 651.5Q735 643 735 624ZM995 456V298Q995 279 986.5 270.5Q978 262 959 262H832Q813 262 804.5 270.5Q796 279 796 298V456Q796 475 804.5 483.5Q813 492 832 492H959Q978 492 986.5 483.5Q995 475 995 456Z" glyph-name="Ldot" horiz-adv-x="1012" unicode="&#319;" /><glyph d="M492 38Q495 19 485 10.5Q475 2 456 2H349Q330 2 323 10.5Q316 19 313 38L309 61H91Q72 61 63.5 69.5Q55 78 55 97V252Q55 271 63.5 279.5Q72 288 91 288H272L263 346Q260 365 270 373.5Q280 382 299 382H406Q425 382 432 373.5Q439 365 442 346L451 288H586V444H424Q405 444 396.5 452.5Q388 461 388 480V625Q388 644 396.5 652.5Q405 661 424 661H739Q758 661 766.5 652.5Q775 644 775 625V97Q775 78 766.5 69.5Q758 61 739 61H488Z" glyph-name="Lslash" horiz-adv-x="855" unicode="&#321;" /><glyph d="M787 207V75Q787 56 778.5 47.5Q770 39 751 39L103 43Q84 43 75.5 51.5Q67 60 67 79V210Q67 229 73.5 247Q80 265 97 275L273 345V369L97 447Q81 457 74 470.5Q67 484 67 503V643Q67 662 75.5 670.5Q84 679 103 679L751 683Q770 683 778.5 674.5Q787 666 787 647V496Q787 477 778.5 468.5Q770 460 751 460L458 456H416L526 418Q543 408 550.5 396Q558 384 558 365V338Q558 319 550.5 307Q543 295 526 285L416 246H458L751 243Q770 243 778.5 234.5Q787 226 787 207Z" glyph-name="M" horiz-adv-x="854" unicode="M" /><glyph d="M802 47Q802 28 793.5 19.5Q785 11 766 11H271Q180 11 123.5 54Q67 97 67 210Q67 266 80 302.5Q93 339 117 359Q93 380 80 416.5Q67 453 67 509Q67 622 123.5 665Q180 708 271 708H766Q785 708 793.5 699.5Q802 691 802 672V555Q802 536 793.5 527.5Q785 519 766 519H303Q283 519 273 512Q263 505 263 486Q263 467 273 460.5Q283 454 303 454H766Q785 454 793.5 445.5Q802 437 802 418V301Q802 282 793.5 273.5Q785 265 766 265H303Q283 265 273 258.5Q263 252 263 233Q263 214 273 207Q283 200 303 200H766Q785 200 793.5 191.5Q802 183 802 164Z" glyph-name="M.salt" horiz-adv-x="882" /><glyph d="M787 246V96Q787 77 778.5 68.5Q770 60 751 60H103Q84 60 75.5 68.5Q67 77 67 96V200Q67 219 73 232.5Q79 246 94 259L316 439H103Q84 439 75.5 447.5Q67 456 67 475V625Q67 644 75.5 652.5Q84 661 103 661H751Q770 661 778.5 652.5Q787 644 787 625V475Q787 456 778.5 447.5Q770 439 751 439H628L421 282H751Q770 282 778.5 273.5Q787 265 787 246Z" glyph-name="N" horiz-adv-x="854" unicode="N" /><glyph d="M747 246V96Q747 77 738.5 68.5Q730 60 711 60H103Q84 60 75.5 68.5Q67 77 67 96V200Q67 219 73 232.5Q79 246 94 259L296 439H103Q84 439 75.5 447.5Q67 456 67 475V625Q67 644 75.5 652.5Q84 661 103 661H711Q730 661 738.5 652.5Q747 644 747 625V475Q747 456 738.5 447.5Q730 439 711 439H608L421 282H711Q730 282 738.5 273.5Q747 265 747 246Z" glyph-name="N.s" horiz-adv-x="814" /><glyph d="M261 60Q215 60 177.5 72Q140 84 113.5 117Q87 150 72 208.5Q57 267 57 360Q57 453 72 511.5Q87 570 113.5 603Q140 636 177.5 648Q215 660 261 660H756Q775 660 784 651.5Q793 643 793 624V467Q793 448 784 439.5Q775 431 756 431H300Q280 431 266.5 417.5Q253 404 253 358Q253 312 266.5 298Q280 284 300 284H756Q775 284 784 275.5Q793 267 793 248V96Q793 77 784 68.5Q775 60 756 60Z" glyph-name="N.salt" horiz-adv-x="860" /><glyph d="M261 60Q215 60 177.5 72Q140 84 113.5 117Q87 150 72 208.5Q57 267 57 360Q57 453 72 511.5Q87 570 113.5 603Q140 636 177.5 648Q215 660 261 660H716Q735 660 743.5 651.5Q752 643 752 624V467Q752 448 743.5 439.5Q735 431 716 431H300Q280 431 266.5 417.5Q253 404 253 358Q253 312 266.5 298Q280 284 300 284H716Q735 284 743.5 275.5Q752 267 752 248V96Q752 77 743.5 68.5Q735 60 716 60Z" glyph-name="N.salt_s" horiz-adv-x="819" /><glyph d="M193 533 236 184Q238 167 229 158.5Q220 150 203 150H107Q88 150 80.5 158.5Q73 167 71 186L28 535Q26 552 35 560.5Q44 569 61 569H157Q176 569 183.5 560.5Q191 552 193 533ZM948 246V96Q948 77 939.5 68.5Q931 60 912 60H304Q285 60 276.5 68.5Q268 77 268 96V200Q268 219 274 232.5Q280 246 295 259L497 439H304Q285 439 276.5 447.5Q268 456 268 475V625Q268 644 276.5 652.5Q285 661 304 661H912Q931 661 939.5 652.5Q948 644 948 625V475Q948 456 939.5 447.5Q931 439 912 439H809L622 282H912Q931 282 939.5 273.5Q948 265 948 246Z" glyph-name="Nacute" horiz-adv-x="1015" unicode="&#323;" /><glyph d="M457 60Q411 60 373.5 72Q336 84 309.5 117Q283 150 268 208.5Q253 267 253 360Q253 453 268 511.5Q283 570 309.5 603Q336 636 373.5 648Q411 660 457 660H912Q931 660 939.5 651.5Q948 643 948 624V467Q948 448 939.5 439.5Q931 431 912 431H496Q476 431 462.5 417.5Q449 404 449 358Q449 312 462.5 298Q476 284 496 284H912Q931 284 939.5 275.5Q948 267 948 248V96Q948 77 939.5 68.5Q931 60 912 60ZM193 533 236 184Q238 167 229 158.5Q220 150 203 150H107Q88 150 80.5 158.5Q73 167 71 186L28 535Q26 552 35 560.5Q44 569 61 569H157Q176 569 183.5 560.5Q191 552 193 533Z" glyph-name="Nacute.salt" horiz-adv-x="1015" /><glyph d="M72 391 32 528Q24 553 30 561Q36 569 63 569H144Q171 569 179 560.5Q187 552 197 528L243 400Q247 391 249 380.5Q251 370 252 361Q252 352 251 344Q250 336 247 329L197 192Q187 167 179 158.5Q171 150 144 150H63Q36 150 30 158Q24 166 32 192L72 329Q76 346 76 360Q76 374 72 391ZM964 246V96Q964 77 955.5 68.5Q947 60 928 60H320Q301 60 292.5 68.5Q284 77 284 96V200Q284 219 290 232.5Q296 246 311 259L513 439H320Q301 439 292.5 447.5Q284 456 284 475V625Q284 644 292.5 652.5Q301 661 320 661H928Q947 661 955.5 652.5Q964 644 964 625V475Q964 456 955.5 447.5Q947 439 928 439H825L638 282H928Q947 282 955.5 273.5Q964 265 964 246Z" glyph-name="Ncaron" horiz-adv-x="1031" unicode="&#327;" /><glyph d="M72 391 32 528Q24 553 30 561Q36 569 63 569H144Q171 569 179 560.5Q187 552 197 528L243 400Q247 391 249 380.5Q251 370 252 361Q252 352 251 344Q250 336 247 329L197 192Q187 167 179 158.5Q171 150 144 150H63Q36 150 30 158Q24 166 32 192L72 329Q76 346 76 360Q76 374 72 391ZM473 60Q427 60 389.5 72Q352 84 325.5 117Q299 150 284 208.5Q269 267 269 360Q269 453 284 511.5Q299 570 325.5 603Q352 636 389.5 648Q427 660 473 660H928Q947 660 955.5 651.5Q964 643 964 624V467Q964 448 955.5 439.5Q947 431 928 431H512Q492 431 478.5 417.5Q465 404 465 358Q465 312 478.5 298Q492 284 512 284H928Q947 284 955.5 275.5Q964 267 964 248V96Q964 77 955.5 68.5Q947 60 928 60Z" glyph-name="Ncaron.salt" horiz-adv-x="1031" /><glyph d="M747 246V96Q747 77 738.5 68.5Q730 60 711 60H103Q84 60 75.5 68.5Q67 77 67 96V200Q67 219 73 232.5Q79 246 94 259L296 439H103Q84 439 75.5 447.5Q67 456 67 475V625Q67 644 75.5 652.5Q84 661 103 661H711Q730 661 738.5 652.5Q747 644 747 625V475Q747 456 738.5 447.5Q730 439 711 439H608L421 282H711Q730 282 738.5 273.5Q747 265 747 246ZM1077 352V286Q1077 270 1069.5 263Q1062 256 1046 256H1022Q1006 256 999 263Q992 270 992 286V345Q992 356 985.5 362Q979 368 968 368H955V282Q955 261 946.5 253Q938 245 916 245H837Q814 245 805.5 253Q797 261 797 282V440Q797 461 805.5 469Q814 477 837 477H949Q1013 477 1045 443Q1077 409 1077 352Z" glyph-name="Ncommaaccent" horiz-adv-x="1089" unicode="&#325;" /><glyph d="M251 60Q205 60 167.5 72Q130 84 103.5 117Q77 150 62 208.5Q47 267 47 360Q47 453 62 511.5Q77 570 103.5 603Q130 636 167.5 648Q205 660 251 660H616Q635 660 643.5 651.5Q652 643 652 624V467Q652 448 643.5 439.5Q635 431 616 431H290Q270 431 256.5 417.5Q243 404 243 358Q243 312 256.5 298Q270 284 290 284H616Q635 284 643.5 275.5Q652 267 652 248V96Q652 77 643.5 68.5Q635 60 616 60Z" glyph-name="Ncommaaccent.salt" horiz-adv-x="982" /><glyph d="M215 359 211 331Q207 303 205.5 284Q204 265 205.5 250Q207 235 210.5 220.5Q214 206 220 186Q225 168 219 159Q213 150 194 150H93Q74 150 66.5 159.5Q59 169 52 186Q45 210 41.5 226Q38 242 38 257.5Q38 273 40.5 292.5Q43 312 47 342L49 359L52 381Q57 414 59 433.5Q61 453 60 467.5Q59 482 55 496Q51 510 44 532Q39 550 45 559Q51 568 70 568H171Q190 568 197.5 558.5Q205 549 212 532Q219 508 222.5 492Q226 476 226 460Q226 444 223.5 424.5Q221 405 217 375ZM938 246V96Q938 77 929.5 68.5Q921 60 902 60H294Q275 60 266.5 68.5Q258 77 258 96V200Q258 219 264 232.5Q270 246 285 259L487 439H294Q275 439 266.5 447.5Q258 456 258 475V625Q258 644 266.5 652.5Q275 661 294 661H902Q921 661 929.5 652.5Q938 644 938 625V475Q938 456 929.5 447.5Q921 439 902 439H799L612 282H902Q921 282 929.5 273.5Q938 265 938 246Z" glyph-name="Ntilde" horiz-adv-x="1005" unicode="&#209;" /><glyph d="M215 359 211 331Q207 303 205.5 284Q204 265 205.5 250Q207 235 210.5 220.5Q214 206 220 186Q225 168 219 159Q213 150 194 150H93Q74 150 66.5 159.5Q59 169 52 186Q45 210 41.5 226Q38 242 38 257.5Q38 273 40.5 292.5Q43 312 47 342L49 359L52 381Q57 414 59 433.5Q61 453 60 467.5Q59 482 55 496Q51 510 44 532Q39 550 45 559Q51 568 70 568H171Q190 568 197.5 558.5Q205 549 212 532Q219 508 222.5 492Q226 476 226 460Q226 444 223.5 424.5Q221 405 217 375ZM447 60Q401 60 363.5 72Q326 84 299.5 117Q273 150 258 208.5Q243 267 243 360Q243 453 258 511.5Q273 570 299.5 603Q326 636 363.5 648Q401 660 447 660H902Q921 660 929.5 651.5Q938 643 938 624V467Q938 448 929.5 439.5Q921 431 902 431H486Q466 431 452.5 417.5Q439 404 439 358Q439 312 452.5 298Q466 284 486 284H902Q921 284 929.5 275.5Q938 267 938 248V96Q938 77 929.5 68.5Q921 60 902 60Z" glyph-name="Ntilde.salt" horiz-adv-x="1005" /><glyph d="M603 664Q649 664 686.5 651Q724 638 750.5 604Q777 570 792 510.5Q807 451 807 360Q807 269 792 209.5Q777 150 750.5 116Q724 82 686.5 69Q649 56 603 56H262Q216 56 178.5 69Q141 82 114 116Q87 150 72 209.5Q57 269 57 360Q57 451 72 510.5Q87 570 114 604Q141 638 178.5 651Q216 664 262 664ZM567 283Q587 283 600.5 297Q614 311 614 360Q614 410 600.5 424Q587 438 567 438H298Q279 438 265.5 424Q252 410 252 360Q252 311 265.5 297Q279 283 298 283Z" glyph-name="O" horiz-adv-x="864" unicode="O" /><glyph d="M563 664Q609 664 646.5 651Q684 638 710.5 604Q737 570 752 510.5Q767 451 767 360Q767 269 752 209.5Q737 150 710.5 116Q684 82 646.5 69Q609 56 563 56H262Q216 56 178.5 69Q141 82 114 116Q87 150 72 209.5Q57 269 57 360Q57 451 72 510.5Q87 570 114 604Q141 638 178.5 651Q216 664 262 664ZM527 283Q547 283 560.5 297Q574 311 574 360Q574 410 560.5 424Q547 438 527 438H298Q279 438 265.5 424Q252 410 252 360Q252 311 265.5 297Q279 283 298 283Z" glyph-name="O.s" horiz-adv-x="824" /><glyph d="M800 285Q800 144 743 91.5Q686 39 596 39H284Q194 39 137 91.5Q80 144 80 285V645Q80 664 88.5 672.5Q97 681 116 681H233Q252 681 260.5 672.5Q269 664 269 645V542H346V644Q346 663 354.5 671.5Q363 680 382 680H489Q508 680 516.5 671.5Q525 663 525 644V542H611V645Q611 664 619.5 672.5Q628 681 647 681H764Q783 681 791.5 672.5Q800 664 800 645ZM611 340H271V289Q271 259 285.5 250.5Q300 242 319 242H562Q582 242 596.5 250.5Q611 259 611 289Z" glyph-name="OE" horiz-adv-x="880" unicode="&#338;" /><glyph d="M193 533 236 184Q238 167 229 158.5Q220 150 203 150H107Q88 150 80.5 158.5Q73 167 71 186L28 535Q26 552 35 560.5Q44 569 61 569H157Q176 569 183.5 560.5Q191 552 193 533ZM759 664Q805 664 842.5 651Q880 638 906.5 604Q933 570 948 510.5Q963 451 963 360Q963 269 948 209.5Q933 150 906.5 116Q880 82 842.5 69Q805 56 759 56H458Q412 56 374.5 69Q337 82 310 116Q283 150 268 209.5Q253 269 253 360Q253 451 268 510.5Q283 570 310 604Q337 638 374.5 651Q412 664 458 664ZM723 283Q743 283 756.5 297Q770 311 770 360Q770 410 756.5 424Q743 438 723 438H494Q475 438 461.5 424Q448 410 448 360Q448 311 461.5 297Q475 283 494 283Z" glyph-name="Oacute" horiz-adv-x="1020" unicode="&#211;" /><glyph d="M107 577Q139 577 165.5 567.5Q192 558 210.5 533.5Q229 509 239.5 467Q250 425 250 360Q250 295 239.5 253Q229 211 210.5 186.5Q192 162 165.5 152.5Q139 143 107 143H63Q44 143 35.5 151.5Q27 160 27 179V275Q27 291 33.5 297.5Q40 304 58 304H79Q93 304 102.5 314Q112 324 112 361Q112 398 102.5 409Q93 420 79 420H58Q40 420 33.5 426.5Q27 433 27 450V541Q27 560 35.5 568.5Q44 577 63 577ZM775 664Q821 664 858.5 651Q896 638 922.5 604Q949 570 964 510.5Q979 451 979 360Q979 269 964 209.5Q949 150 922.5 116Q896 82 858.5 69Q821 56 775 56H474Q428 56 390.5 69Q353 82 326 116Q299 150 284 209.5Q269 269 269 360Q269 451 284 510.5Q299 570 326 604Q353 638 390.5 651Q428 664 474 664ZM739 283Q759 283 772.5 297Q786 311 786 360Q786 410 772.5 424Q759 438 739 438H510Q491 438 477.5 424Q464 410 464 360Q464 311 477.5 297Q491 283 510 283Z" glyph-name="Obreve" horiz-adv-x="1036" unicode="&#334;" /><glyph d="M197 328 237 191Q245 166 239 158Q233 150 206 150H125Q98 150 90 158.5Q82 167 72 191L26 319Q22 328 20 338.5Q18 349 17 358Q17 367 18 375Q19 383 22 390L72 527Q82 552 90 560.5Q98 569 125 569H206Q233 569 239 561Q245 553 237 527L197 390Q193 373 193 359Q193 345 197 328ZM765 664Q811 664 848.5 651Q886 638 912.5 604Q939 570 954 510.5Q969 451 969 360Q969 269 954 209.5Q939 150 912.5 116Q886 82 848.5 69Q811 56 765 56H464Q418 56 380.5 69Q343 82 316 116Q289 150 274 209.5Q259 269 259 360Q259 451 274 510.5Q289 570 316 604Q343 638 380.5 651Q418 664 464 664ZM729 283Q749 283 762.5 297Q776 311 776 360Q776 410 762.5 424Q749 438 729 438H500Q481 438 467.5 424Q454 410 454 360Q454 311 467.5 297Q481 283 500 283Z" glyph-name="Ocircumflex" horiz-adv-x="1026" unicode="&#212;" /><glyph d="M229 556V418Q229 401 221 393Q213 385 196 385H75Q58 385 50 393Q42 401 42 418V556Q42 573 50 581Q58 589 75 589H196Q213 589 221 581Q229 573 229 556ZM229 298V160Q229 143 221 134.5Q213 126 196 126H75Q58 126 50 134.5Q42 143 42 160V298Q42 315 50 323Q58 331 75 331H196Q213 331 221 323Q229 315 229 298ZM760 664Q806 664 843.5 651Q881 638 907.5 604Q934 570 949 510.5Q964 451 964 360Q964 269 949 209.5Q934 150 907.5 116Q881 82 843.5 69Q806 56 760 56H459Q413 56 375.5 69Q338 82 311 116Q284 150 269 209.5Q254 269 254 360Q254 451 269 510.5Q284 570 311 604Q338 638 375.5 651Q413 664 459 664ZM724 283Q744 283 757.5 297Q771 311 771 360Q771 410 757.5 424Q744 438 724 438H495Q476 438 462.5 424Q449 410 449 360Q449 311 462.5 297Q476 283 495 283Z" glyph-name="Odieresis" horiz-adv-x="1021" unicode="&#214;" /><glyph d="M236 535 193 186Q191 167 183.5 158.5Q176 150 157 150H61Q44 150 35 158.5Q26 167 28 184L71 533Q73 552 80.5 560.5Q88 569 107 569H203Q220 569 229 560.5Q238 552 236 535ZM759 664Q805 664 842.5 651Q880 638 906.5 604Q933 570 948 510.5Q963 451 963 360Q963 269 948 209.5Q933 150 906.5 116Q880 82 842.5 69Q805 56 759 56H458Q412 56 374.5 69Q337 82 310 116Q283 150 268 209.5Q253 269 253 360Q253 451 268 510.5Q283 570 310 604Q337 638 374.5 651Q412 664 458 664ZM723 283Q743 283 756.5 297Q770 311 770 360Q770 410 756.5 424Q743 438 723 438H494Q475 438 461.5 424Q448 410 448 360Q448 311 461.5 297Q475 283 494 283Z" glyph-name="Ograve" horiz-adv-x="1020" unicode="&#210;" /><glyph d="M280 403 73 456Q55 460 46 466.5Q37 473 37 492V598Q37 615 46 625Q55 635 71 631L278 578Q296 574 305 567.5Q314 561 314 542V436Q314 419 305 409Q296 399 280 403ZM280 143 73 196Q55 200 46 206.5Q37 213 37 232V338Q37 355 46 365Q55 375 71 371L278 318Q296 314 305 307.5Q314 301 314 282V176Q314 159 305 149Q296 139 280 143ZM845 664Q891 664 928.5 651Q966 638 992.5 604Q1019 570 1034 510.5Q1049 451 1049 360Q1049 269 1034 209.5Q1019 150 992.5 116Q966 82 928.5 69Q891 56 845 56H544Q498 56 460.5 69Q423 82 396 116Q369 150 354 209.5Q339 269 339 360Q339 451 354 510.5Q369 570 396 604Q423 638 460.5 651Q498 664 544 664ZM809 283Q829 283 842.5 297Q856 311 856 360Q856 410 842.5 424Q829 438 809 438H580Q561 438 547.5 424Q534 410 534 360Q534 311 547.5 297Q561 283 580 283Z" glyph-name="Ohungarumlaut" horiz-adv-x="1106" unicode="&#336;" /><glyph d="M207 533V186Q207 167 198.5 158.5Q190 150 171 150H78Q59 150 50.5 158.5Q42 167 42 186V533Q42 552 50.5 560.5Q59 569 78 569H171Q190 569 198.5 560.5Q207 552 207 533ZM738 664Q784 664 821.5 651Q859 638 885.5 604Q912 570 927 510.5Q942 451 942 360Q942 269 927 209.5Q912 150 885.5 116Q859 82 821.5 69Q784 56 738 56H437Q391 56 353.5 69Q316 82 289 116Q262 150 247 209.5Q232 269 232 360Q232 451 247 510.5Q262 570 289 604Q316 638 353.5 651Q391 664 437 664ZM702 283Q722 283 735.5 297Q749 311 749 360Q749 410 735.5 424Q722 438 702 438H473Q454 438 440.5 424Q427 410 427 360Q427 311 440.5 297Q454 283 473 283Z" glyph-name="Omacron" horiz-adv-x="999" unicode="&#332;" /><glyph d="M67 360Q67 453 82 514Q97 575 124 609.5Q151 644 188.5 657.5Q226 671 272 671H493Q528 671 558 663.5Q588 656 613 638V677Q613 696 621.5 704.5Q630 713 649 713H766Q785 713 793.5 704.5Q802 696 802 677V423Q802 404 793.5 395.5Q785 387 766 387H652Q636 387 629.5 393.5Q623 400 618 414Q611 432 601 438Q591 444 577 444H308Q289 444 275.5 429Q262 414 262 360Q262 306 275.5 291Q289 276 308 276H577Q591 276 601 282Q611 288 618 306Q623 320 629.5 326.5Q636 333 652 333H766Q785 333 793.5 324.5Q802 316 802 297V43Q802 24 793.5 15.5Q785 7 766 7H649Q630 7 621.5 15.5Q613 24 613 43V82Q588 64 558 56.5Q528 49 493 49H272Q226 49 188.5 62.5Q151 76 124 110.5Q97 145 82 206Q67 267 67 360Z" glyph-name="Omega" horiz-adv-x="882" unicode="&#8486;" /><glyph d="M577 454H379L634 346V360Q634 420 618 437Q602 454 577 454ZM308 266H502L252 372V360Q252 300 268 283Q284 266 308 266ZM836 99 767 128Q740 89 701 74Q662 59 613 59H272Q226 59 188.5 72.5Q151 86 124 119.5Q97 153 82 211.5Q67 270 67 360Q67 377 67.5 393Q68 409 69 424L48 433Q32 442 22 451Q12 460 12 479V594Q12 613 22 621Q32 629 48 620L117 591Q144 630 183.5 645Q223 660 272 660H613Q659 660 696.5 647Q734 634 760.5 600Q787 566 802 508Q817 450 817 360Q817 343 816.5 326.5Q816 310 815 295L836 286Q852 277 862 268Q872 259 872 240V125Q872 106 862 98Q852 90 836 99Z" glyph-name="Oslash" horiz-adv-x="884" unicode="&#216;" /><glyph d="M215 359 211 331Q207 303 205.5 284Q204 265 205.5 250Q207 235 210.5 220.5Q214 206 220 186Q225 168 219 159Q213 150 194 150H93Q74 150 66.5 159.5Q59 169 52 186Q45 210 41.5 226Q38 242 38 257.5Q38 273 40.5 292.5Q43 312 47 342L49 359L52 381Q57 414 59 433.5Q61 453 60 467.5Q59 482 55 496Q51 510 44 532Q39 550 45 559Q51 568 70 568H171Q190 568 197.5 558.5Q205 549 212 532Q219 508 222.5 492Q226 476 226 460Q226 444 223.5 424.5Q221 405 217 375ZM749 664Q795 664 832.5 651Q870 638 896.5 604Q923 570 938 510.5Q953 451 953 360Q953 269 938 209.5Q923 150 896.5 116Q870 82 832.5 69Q795 56 749 56H448Q402 56 364.5 69Q327 82 300 116Q273 150 258 209.5Q243 269 243 360Q243 451 258 510.5Q273 570 300 604Q327 638 364.5 651Q402 664 448 664ZM713 283Q733 283 746.5 297Q760 311 760 360Q760 410 746.5 424Q733 438 713 438H484Q465 438 451.5 424Q438 410 438 360Q438 311 451.5 297Q465 283 484 283Z" glyph-name="Otilde" horiz-adv-x="1010" unicode="&#213;" /><glyph d="M792 251V96Q792 77 783.5 68.5Q775 60 756 60H108Q89 60 80.5 68.5Q72 77 72 96V428Q72 564 126 614Q180 664 267 664H395Q482 664 536 614Q590 564 590 428V287H756Q775 287 783.5 278.5Q792 270 792 251ZM259 285H410V401Q410 430 395 439Q380 448 361 448H308Q289 448 274 439Q259 430 259 401Z" glyph-name="P" horiz-adv-x="847" unicode="P" /><glyph d="M846 246H790Q773 134 721 95Q669 56 594 56H262Q216 56 178.5 69Q141 82 114 116Q87 150 72 209.5Q57 269 57 360Q57 451 72 510.5Q87 570 114 604Q141 638 178.5 651Q216 664 262 664H594Q669 664 721.5 624.5Q774 585 791 472H846Q865 472 873.5 463.5Q882 455 882 436V282Q882 263 873.5 254.5Q865 246 846 246ZM572 283Q592 283 605.5 297Q619 311 619 360Q619 410 605.5 424Q592 438 572 438H299Q280 438 266.5 424Q253 410 253 360Q253 311 266.5 297Q280 283 299 283Z" glyph-name="Q" horiz-adv-x="934" unicode="Q" /><glyph d="M792 250V96Q792 77 783.5 68.5Q775 60 756 60H108Q89 60 80.5 68.5Q72 77 72 96V418Q72 530 118.5 572.5Q165 615 239 615H285Q327 615 356.5 602.5Q386 590 399 559Q405 605 443 637.5Q481 670 544 670H756Q775 670 783.5 661.5Q792 653 792 634V479Q792 460 783.5 451.5Q775 443 756 443H603Q581 443 570.5 434.5Q560 426 560 405V286H756Q775 286 783.5 277.5Q792 269 792 250ZM252 286H380V350Q380 376 366.5 385Q353 394 333 394H299Q279 394 265.5 385Q252 376 252 350Z" glyph-name="R" horiz-adv-x="859" unicode="R" /><glyph d="M752 250V96Q752 77 743.5 68.5Q735 60 716 60H108Q89 60 80.5 68.5Q72 77 72 96V418Q72 530 118.5 572.5Q165 615 239 615H275Q317 615 346.5 602.5Q376 590 389 559Q395 605 433 637.5Q471 670 534 670H716Q735 670 743.5 661.5Q752 653 752 634V479Q752 460 743.5 451.5Q735 443 716 443H593Q571 443 560.5 434.5Q550 426 550 405V286H716Q735 286 743.5 277.5Q752 269 752 250ZM252 286H370V350Q370 376 356.5 385Q343 394 323 394H299Q279 394 265.5 385Q252 376 252 350Z" glyph-name="R.s" horiz-adv-x="819" /><glyph d="M193 515 236 166Q238 149 229 140.5Q220 132 203 132H107Q88 132 80.5 140.5Q73 149 71 168L28 517Q26 534 35 542.5Q44 551 61 551H157Q176 551 183.5 542.5Q191 534 193 515ZM948 250V96Q948 77 939.5 68.5Q931 60 912 60H304Q285 60 276.5 68.5Q268 77 268 96V418Q268 530 314.5 572.5Q361 615 435 615H471Q513 615 542.5 602.5Q572 590 585 559Q591 605 629 637.5Q667 670 730 670H912Q931 670 939.5 661.5Q948 653 948 634V479Q948 460 939.5 451.5Q931 443 912 443H789Q767 443 756.5 434.5Q746 426 746 405V286H912Q931 286 939.5 277.5Q948 269 948 250ZM448 286H566V350Q566 376 552.5 385Q539 394 519 394H495Q475 394 461.5 385Q448 376 448 350Z" glyph-name="Racute" horiz-adv-x="1015" unicode="&#340;" /><glyph d="M72 391 32 528Q24 553 30 561Q36 569 63 569H144Q171 569 179 560.5Q187 552 197 528L243 400Q247 391 249 380.5Q251 370 252 361Q252 352 251 344Q250 336 247 329L197 192Q187 167 179 158.5Q171 150 144 150H63Q36 150 30 158Q24 166 32 192L72 329Q76 346 76 360Q76 374 72 391ZM964 250V96Q964 77 955.5 68.5Q947 60 928 60H320Q301 60 292.5 68.5Q284 77 284 96V418Q284 530 330.5 572.5Q377 615 451 615H487Q529 615 558.5 602.5Q588 590 601 559Q607 605 645 637.5Q683 670 746 670H928Q947 670 955.5 661.5Q964 653 964 634V479Q964 460 955.5 451.5Q947 443 928 443H805Q783 443 772.5 434.5Q762 426 762 405V286H928Q947 286 955.5 277.5Q964 269 964 250ZM464 286H582V350Q582 376 568.5 385Q555 394 535 394H511Q491 394 477.5 385Q464 376 464 350Z" glyph-name="Rcaron" horiz-adv-x="1031" unicode="&#344;" /><glyph d="M752 250V96Q752 77 743.5 68.5Q735 60 716 60H108Q89 60 80.5 68.5Q72 77 72 96V418Q72 530 118.5 572.5Q165 615 239 615H275Q317 615 346.5 602.5Q376 590 389 559Q395 605 433 637.5Q471 670 534 670H716Q735 670 743.5 661.5Q752 653 752 634V479Q752 460 743.5 451.5Q735 443 716 443H593Q571 443 560.5 434.5Q550 426 550 405V286H716Q735 286 743.5 277.5Q752 269 752 250ZM252 286H370V350Q370 376 356.5 385Q343 394 323 394H299Q279 394 265.5 385Q252 376 252 350ZM1082 352V286Q1082 270 1074.5 263Q1067 256 1051 256H1027Q1011 256 1004 263Q997 270 997 286V345Q997 356 990.5 362Q984 368 973 368H960V282Q960 261 951.5 253Q943 245 921 245H842Q819 245 810.5 253Q802 261 802 282V440Q802 461 810.5 469Q819 477 842 477H954Q1018 477 1050 443Q1082 409 1082 352Z" glyph-name="Rcommaaccent" horiz-adv-x="1094" unicode="&#342;" /><glyph d="M792 454V96Q792 77 783.5 68.5Q775 60 756 60H639Q620 60 611.5 68.5Q603 77 603 96V407Q603 420 594.5 426.5Q586 433 574 433Q557 433 549 426.5Q541 420 540 407L519 215Q509 145 473 102.5Q437 60 353 60H248Q163 60 117.5 115Q72 170 72 267V599Q72 618 80.5 626.5Q89 635 108 635H227Q246 635 254.5 626.5Q263 618 263 599V314Q263 301 271.5 294Q280 287 293 287Q306 287 315 294Q324 301 325 314L345 505Q355 575 391 618Q427 661 511 661H616Q701 661 746.5 605.5Q792 550 792 454Z" glyph-name="S" horiz-adv-x="864" unicode="S" /><glyph d="M752 454V96Q752 77 743.5 68.5Q735 60 716 60H609Q590 60 581.5 68.5Q573 77 573 96V407Q573 420 564.5 426.5Q556 433 544 433Q527 433 521.5 426.5Q516 420 515 407L504 215Q494 145 460.5 102.5Q427 60 343 60H248Q163 60 117.5 115Q72 170 72 267V599Q72 618 80.5 626.5Q89 635 108 635H217Q236 635 244.5 626.5Q253 618 253 599V314Q253 301 261.5 294Q270 287 283 287Q296 287 302.5 294Q309 301 310 314L320 505Q330 575 363.5 618Q397 661 481 661H576Q661 661 706.5 605.5Q752 550 752 454Z" glyph-name="S.s" horiz-adv-x="824" /><glyph d="M193 533 236 184Q238 167 229 158.5Q220 150 203 150H107Q88 150 80.5 158.5Q73 167 71 186L28 535Q26 552 35 560.5Q44 569 61 569H157Q176 569 183.5 560.5Q191 552 193 533ZM948 454V96Q948 77 939.5 68.5Q931 60 912 60H805Q786 60 777.5 68.5Q769 77 769 96V407Q769 420 760.5 426.5Q752 433 740 433Q723 433 717.5 426.5Q712 420 711 407L700 215Q690 145 656.5 102.5Q623 60 539 60H444Q359 60 313.5 115Q268 170 268 267V599Q268 618 276.5 626.5Q285 635 304 635H413Q432 635 440.5 626.5Q449 618 449 599V314Q449 301 457.5 294Q466 287 479 287Q492 287 498.5 294Q505 301 506 314L516 505Q526 575 559.5 618Q593 661 677 661H772Q857 661 902.5 605.5Q948 550 948 454Z" glyph-name="Sacute" horiz-adv-x="1020" unicode="&#346;" /><glyph d="M72 391 32 528Q24 553 30 561Q36 569 63 569H144Q171 569 179 560.5Q187 552 197 528L243 400Q247 391 249 380.5Q251 370 252 361Q252 352 251 344Q250 336 247 329L197 192Q187 167 179 158.5Q171 150 144 150H63Q36 150 30 158Q24 166 32 192L72 329Q76 346 76 360Q76 374 72 391ZM964 454V96Q964 77 955.5 68.5Q947 60 928 60H821Q802 60 793.5 68.5Q785 77 785 96V407Q785 420 776.5 426.5Q768 433 756 433Q739 433 733.5 426.5Q728 420 727 407L716 215Q706 145 672.5 102.5Q639 60 555 60H460Q375 60 329.5 115Q284 170 284 267V599Q284 618 292.5 626.5Q301 635 320 635H429Q448 635 456.5 626.5Q465 618 465 599V314Q465 301 473.5 294Q482 287 495 287Q508 287 514.5 294Q521 301 522 314L532 505Q542 575 575.5 618Q609 661 693 661H788Q873 661 918.5 605.5Q964 550 964 454Z" glyph-name="Scaron" horiz-adv-x="1036" unicode="&#352;" /><glyph d="M504 215Q494 145 460.5 102.5Q427 60 343 60H248Q163 60 117.5 115Q72 170 72 267V599Q72 618 80.5 626.5Q89 635 108 635H217Q236 635 244.5 626.5Q253 618 253 599V314Q253 301 261.5 294Q270 287 283 287Q296 287 302.5 294Q309 301 310 314L320 505Q330 575 363.5 618Q397 661 481 661H576Q661 661 706.5 605.5Q752 550 752 454V438L848 404Q864 399 871 388Q878 377 878 358V232Q878 207 867 201Q856 195 838 202L752 234V96Q752 77 743.5 68.5Q735 60 716 60H609Q590 60 581.5 68.5Q573 77 573 96V407Q573 420 564.5 426.5Q556 433 544 433Q527 433 521.5 426.5Q516 420 515 407Z" glyph-name="Scedilla" horiz-adv-x="905" unicode="&#350;" /><glyph d="M197 328 237 191Q245 166 239 158Q233 150 206 150H125Q98 150 90 158.5Q82 167 72 191L26 319Q22 328 20 338.5Q18 349 17 358Q17 367 18 375Q19 383 22 390L72 527Q82 552 90 560.5Q98 569 125 569H206Q233 569 239 561Q245 553 237 527L197 390Q193 373 193 359Q193 345 197 328ZM954 454V96Q954 77 945.5 68.5Q937 60 918 60H811Q792 60 783.5 68.5Q775 77 775 96V407Q775 420 766.5 426.5Q758 433 746 433Q729 433 723.5 426.5Q718 420 717 407L706 215Q696 145 662.5 102.5Q629 60 545 60H450Q365 60 319.5 115Q274 170 274 267V599Q274 618 282.5 626.5Q291 635 310 635H419Q438 635 446.5 626.5Q455 618 455 599V314Q455 301 463.5 294Q472 287 485 287Q498 287 504.5 294Q511 301 512 314L522 505Q532 575 565.5 618Q599 661 683 661H778Q863 661 908.5 605.5Q954 550 954 454Z" glyph-name="Scircumflex" horiz-adv-x="1026" unicode="&#348;" /><glyph d="M752 454V96Q752 77 743.5 68.5Q735 60 716 60H609Q590 60 581.5 68.5Q573 77 573 96V407Q573 420 564.5 426.5Q556 433 544 433Q527 433 521.5 426.5Q516 420 515 407L504 215Q494 145 460.5 102.5Q427 60 343 60H248Q163 60 117.5 115Q72 170 72 267V599Q72 618 80.5 626.5Q89 635 108 635H217Q236 635 244.5 626.5Q253 618 253 599V314Q253 301 261.5 294Q270 287 283 287Q296 287 302.5 294Q309 301 310 314L320 505Q330 575 363.5 618Q397 661 481 661H576Q661 661 706.5 605.5Q752 550 752 454ZM1082 352V286Q1082 270 1074.5 263Q1067 256 1051 256H1027Q1011 256 1004 263Q997 270 997 286V345Q997 356 990.5 362Q984 368 973 368H960V282Q960 261 951.5 253Q943 245 921 245H842Q819 245 810.5 253Q802 261 802 282V440Q802 461 810.5 469Q819 477 842 477H954Q1018 477 1050 443Q1082 409 1082 352Z" glyph-name="Scommaaccent" horiz-adv-x="1094" unicode="&#536;" /><glyph d="M800 444V276Q800 257 791.5 248.5Q783 240 764 240H273V96Q273 77 264.5 68.5Q256 60 237 60H116Q97 60 88.5 68.5Q80 77 80 96V624Q80 643 88.5 651.5Q97 660 116 660H237Q256 660 264.5 651.5Q273 643 273 624V480H764Q783 480 791.5 471.5Q800 463 800 444Z" glyph-name="T" horiz-adv-x="855" unicode="T" /><glyph d="M760 444V276Q760 257 751.5 248.5Q743 240 724 240H273V96Q273 77 264.5 68.5Q256 60 237 60H116Q97 60 88.5 68.5Q80 77 80 96V624Q80 643 88.5 651.5Q97 660 116 660H237Q256 660 264.5 651.5Q273 643 273 624V480H724Q743 480 751.5 471.5Q760 463 760 444Z" glyph-name="T.s" horiz-adv-x="815" /><glyph d="M237 60H116Q97 60 88.5 68.5Q80 77 80 96V624Q80 643 88.5 651.5Q97 660 116 660H237Q256 660 264.5 651.5Q273 643 273 624V480H399V553Q399 572 407.5 580.5Q416 589 435 589H542Q561 589 569.5 580.5Q578 572 578 553V480H764Q783 480 791.5 471.5Q800 463 800 444V276Q800 257 791.5 248.5Q783 240 764 240H578V166Q578 147 569.5 138.5Q561 130 542 130H435Q416 130 407.5 138.5Q399 147 399 166V240H273V96Q273 77 264.5 68.5Q256 60 237 60Z" glyph-name="Tbar" horiz-adv-x="855" unicode="&#358;" /><glyph d="M72 391 32 528Q24 553 30 561Q36 569 63 569H144Q171 569 179 560.5Q187 552 197 528L243 400Q247 391 249 380.5Q251 370 252 361Q252 352 251 344Q250 336 247 329L197 192Q187 167 179 158.5Q171 150 144 150H63Q36 150 30 158Q24 166 32 192L72 329Q76 346 76 360Q76 374 72 391ZM964 444V276Q964 257 955.5 248.5Q947 240 928 240H477V96Q477 77 468.5 68.5Q460 60 441 60H320Q301 60 292.5 68.5Q284 77 284 96V624Q284 643 292.5 651.5Q301 660 320 660H441Q460 660 468.5 651.5Q477 643 477 624V480H928Q947 480 955.5 471.5Q964 463 964 444Z" glyph-name="Tcaron" horiz-adv-x="1019" unicode="&#356;" /><glyph d="M680 444V276Q680 257 671.5 248.5Q663 240 644 240H273V96Q273 77 264.5 68.5Q256 60 237 60H116Q97 60 88.5 68.5Q80 77 80 96V624Q80 643 88.5 651.5Q97 660 116 660H237Q256 660 264.5 651.5Q273 643 273 624V480H644Q663 480 671.5 471.5Q680 463 680 444ZM990 351V285Q990 269 982.5 262Q975 255 959 255H935Q919 255 912 262Q905 269 905 285V344Q905 355 898.5 361Q892 367 881 367H868V281Q868 260 859.5 252Q851 244 829 244H750Q727 244 718.5 252Q710 260 710 281V439Q710 460 718.5 468Q727 476 750 476H862Q926 476 958 442Q990 408 990 351Z" glyph-name="Tcommaaccent" horiz-adv-x="1002" unicode="&#354;" /><glyph d="M785 252V97Q785 78 776.5 69.5Q768 61 749 61H101Q82 61 73.5 69.5Q65 78 65 97V252Q65 271 73.5 279.5Q82 288 101 288H168V427Q168 563 222 613Q276 663 363 663H485Q572 663 626 613Q680 563 680 427V288H749Q768 288 776.5 279.5Q785 271 785 252ZM355 286H500V400Q500 429 485 438Q470 447 451 447H404Q385 447 370 438Q355 429 355 400Z" glyph-name="Thorn" horiz-adv-x="850" unicode="&#222;" /><glyph d="M598 660Q644 660 681.5 647Q719 634 745.5 600Q772 566 787 508Q802 450 802 360Q802 270 787 212Q772 154 745.5 120Q719 86 681.5 73Q644 60 598 60H103Q84 60 75.5 68.5Q67 77 67 96V253Q67 272 75.5 280.5Q84 289 103 289H559Q579 289 592.5 302.5Q606 316 606 362Q606 408 592.5 422Q579 436 559 436H103Q84 436 75.5 444.5Q67 453 67 472V624Q67 643 75.5 651.5Q84 660 103 660Z" glyph-name="U" horiz-adv-x="859" unicode="U" /><glyph d="M558 660Q604 660 641.5 647Q679 634 705.5 600Q732 566 747 508Q762 450 762 360Q762 270 747 212Q732 154 705.5 120Q679 86 641.5 73Q604 60 558 60H103Q84 60 75.5 68.5Q67 77 67 96V253Q67 272 75.5 280.5Q84 289 103 289H519Q539 289 552.5 302.5Q566 316 566 362Q566 408 552.5 422Q539 436 519 436H103Q84 436 75.5 444.5Q67 453 67 472V624Q67 643 75.5 651.5Q84 660 103 660Z" glyph-name="U.s" horiz-adv-x="819" /><glyph d="M193 553 236 204Q238 187 229 178.5Q220 170 203 170H107Q88 170 80.5 178.5Q73 187 71 206L28 555Q26 572 35 580.5Q44 589 61 589H157Q176 589 183.5 580.5Q191 572 193 553ZM759 660Q805 660 842.5 647Q880 634 906.5 600Q933 566 948 508Q963 450 963 360Q963 270 948 212Q933 154 906.5 120Q880 86 842.5 73Q805 60 759 60H304Q285 60 276.5 68.5Q268 77 268 96V253Q268 272 276.5 280.5Q285 289 304 289H720Q740 289 753.5 302.5Q767 316 767 362Q767 408 753.5 422Q740 436 720 436H304Q285 436 276.5 444.5Q268 453 268 472V624Q268 643 276.5 651.5Q285 660 304 660Z" glyph-name="Uacute" horiz-adv-x="1020" unicode="&#218;" /><glyph d="M107 577Q139 577 165.5 567.5Q192 558 210.5 533.5Q229 509 239.5 467Q250 425 250 360Q250 295 239.5 253Q229 211 210.5 186.5Q192 162 165.5 152.5Q139 143 107 143H63Q44 143 35.5 151.5Q27 160 27 179V275Q27 291 33.5 297.5Q40 304 58 304H79Q93 304 102.5 314Q112 324 112 361Q112 398 102.5 409Q93 420 79 420H58Q40 420 33.5 426.5Q27 433 27 450V541Q27 560 35.5 568.5Q44 577 63 577ZM775 660Q821 660 858.5 647Q896 634 922.5 600Q949 566 964 508Q979 450 979 360Q979 270 964 212Q949 154 922.5 120Q896 86 858.5 73Q821 60 775 60H320Q301 60 292.5 68.5Q284 77 284 96V253Q284 272 292.5 280.5Q301 289 320 289H736Q756 289 769.5 302.5Q783 316 783 362Q783 408 769.5 422Q756 436 736 436H320Q301 436 292.5 444.5Q284 453 284 472V624Q284 643 292.5 651.5Q301 660 320 660Z" glyph-name="Ubreve" horiz-adv-x="1036" unicode="&#364;" /><glyph d="M197 328 237 191Q245 166 239 158Q233 150 206 150H125Q98 150 90 158.5Q82 167 72 191L26 319Q22 328 20 338.5Q18 349 17 358Q17 367 18 375Q19 383 22 390L72 527Q82 552 90 560.5Q98 569 125 569H206Q233 569 239 561Q245 553 237 527L197 390Q193 373 193 359Q193 345 197 328ZM765 660Q811 660 848.5 647Q886 634 912.5 600Q939 566 954 508Q969 450 969 360Q969 270 954 212Q939 154 912.5 120Q886 86 848.5 73Q811 60 765 60H310Q291 60 282.5 68.5Q274 77 274 96V253Q274 272 282.5 280.5Q291 289 310 289H726Q746 289 759.5 302.5Q773 316 773 362Q773 408 759.5 422Q746 436 726 436H310Q291 436 282.5 444.5Q274 453 274 472V624Q274 643 282.5 651.5Q291 660 310 660Z" glyph-name="Ucircumflex" horiz-adv-x="1026" unicode="&#219;" /><glyph d="M229 556V418Q229 401 221 393Q213 385 196 385H75Q58 385 50 393Q42 401 42 418V556Q42 573 50 581Q58 589 75 589H196Q213 589 221 581Q229 573 229 556ZM229 298V160Q229 143 221 134.5Q213 126 196 126H75Q58 126 50 134.5Q42 143 42 160V298Q42 315 50 323Q58 331 75 331H196Q213 331 221 323Q229 315 229 298ZM760 660Q806 660 843.5 647Q881 634 907.5 600Q934 566 949 508Q964 450 964 360Q964 270 949 212Q934 154 907.5 120Q881 86 843.5 73Q806 60 760 60H305Q286 60 277.5 68.5Q269 77 269 96V253Q269 272 277.5 280.5Q286 289 305 289H721Q741 289 754.5 302.5Q768 316 768 362Q768 408 754.5 422Q741 436 721 436H305Q286 436 277.5 444.5Q269 453 269 472V624Q269 643 277.5 651.5Q286 660 305 660Z" glyph-name="Udieresis" horiz-adv-x="1021" unicode="&#220;" /><glyph d="M236 535 193 186Q191 167 183.5 158.5Q176 150 157 150H61Q44 150 35 158.5Q26 167 28 184L71 533Q73 552 80.5 560.5Q88 569 107 569H203Q220 569 229 560.5Q238 552 236 535ZM759 660Q805 660 842.5 647Q880 634 906.5 600Q933 566 948 508Q963 450 963 360Q963 270 948 212Q933 154 906.5 120Q880 86 842.5 73Q805 60 759 60H304Q285 60 276.5 68.5Q268 77 268 96V253Q268 272 276.5 280.5Q285 289 304 289H720Q740 289 753.5 302.5Q767 316 767 362Q767 408 753.5 422Q740 436 720 436H304Q285 436 276.5 444.5Q268 453 268 472V624Q268 643 276.5 651.5Q285 660 304 660Z" glyph-name="Ugrave" horiz-adv-x="1020" unicode="&#217;" /><glyph d="M280 405 73 458Q55 462 46 468.5Q37 475 37 494V600Q37 617 46 627Q55 637 71 633L278 580Q296 576 305 569.5Q314 563 314 544V438Q314 421 305 411Q296 401 280 405ZM280 145 73 198Q55 202 46 208.5Q37 215 37 234V340Q37 357 46 367Q55 377 71 373L278 320Q296 316 305 309.5Q314 303 314 284V178Q314 161 305 151Q296 141 280 145ZM845 660Q891 660 928.5 647Q966 634 992.5 600Q1019 566 1034 508Q1049 450 1049 360Q1049 270 1034 212Q1019 154 992.5 120Q966 86 928.5 73Q891 60 845 60H390Q371 60 362.5 68.5Q354 77 354 96V253Q354 272 362.5 280.5Q371 289 390 289H806Q826 289 839.5 302.5Q853 316 853 362Q853 408 839.5 422Q826 436 806 436H390Q371 436 362.5 444.5Q354 453 354 472V624Q354 643 362.5 651.5Q371 660 390 660Z" glyph-name="Uhungarumlaut" horiz-adv-x="1106" unicode="&#368;" /><glyph d="M207 533V186Q207 167 198.5 158.5Q190 150 171 150H78Q59 150 50.5 158.5Q42 167 42 186V533Q42 552 50.5 560.5Q59 569 78 569H171Q190 569 198.5 560.5Q207 552 207 533ZM738 660Q784 660 821.5 647Q859 634 885.5 600Q912 566 927 508Q942 450 942 360Q942 270 927 212Q912 154 885.5 120Q859 86 821.5 73Q784 60 738 60H283Q264 60 255.5 68.5Q247 77 247 96V253Q247 272 255.5 280.5Q264 289 283 289H699Q719 289 732.5 302.5Q746 316 746 362Q746 408 732.5 422Q719 436 699 436H283Q264 436 255.5 444.5Q247 453 247 472V624Q247 643 255.5 651.5Q264 660 283 660Z" glyph-name="Umacron" horiz-adv-x="999" unicode="&#362;" /><glyph d="M809 255 757 264Q750 204 732.5 164.5Q715 125 689 102Q663 79 630 69.5Q597 60 558 60H103Q84 60 75.5 68.5Q67 77 67 96V253Q67 272 75.5 280.5Q84 289 103 289H519Q539 289 552.5 302.5Q566 316 566 362Q566 408 552.5 422Q539 436 519 436H103Q84 436 75.5 444.5Q67 453 67 472V624Q67 643 75.5 651.5Q84 660 103 660H558Q599 660 633.5 649.5Q668 639 694 613Q720 587 736.5 542Q753 497 759 429L804 423V464Q804 485 811.5 492.5Q819 500 838 500H910Q929 500 936.5 493Q944 486 944 467V356Q944 292 911 268.5Q878 245 809 255Z" glyph-name="Uogonek" horiz-adv-x="961" unicode="&#370;" /><glyph d="M160 577H258Q290 577 316.5 567.5Q343 558 361.5 533.5Q380 509 390.5 467Q401 425 401 360Q401 295 390.5 253Q380 211 361.5 186.5Q343 162 316.5 152.5Q290 143 258 143H160Q128 143 101.5 152.5Q75 162 56.5 186.5Q38 211 27.5 253Q17 295 17 360Q17 425 27.5 467Q38 509 56.5 533.5Q75 558 101.5 567.5Q128 577 160 577ZM225 420H190Q171 420 160.5 409Q150 398 150 361Q150 324 160.5 314Q171 304 190 304H225Q247 304 257.5 314Q268 324 268 361Q268 398 257.5 409Q247 420 225 420ZM926 660Q972 660 1009.5 647Q1047 634 1073.5 600Q1100 566 1115 508Q1130 450 1130 360Q1130 270 1115 212Q1100 154 1073.5 120Q1047 86 1009.5 73Q972 60 926 60H471Q452 60 443.5 68.5Q435 77 435 96V253Q435 272 443.5 280.5Q452 289 471 289H887Q907 289 920.5 302.5Q934 316 934 362Q934 408 920.5 422Q907 436 887 436H471Q452 436 443.5 444.5Q435 453 435 472V624Q435 643 443.5 651.5Q452 660 471 660Z" glyph-name="Uring" horiz-adv-x="1187" unicode="&#366;" /><glyph d="M215 359 211 331Q207 303 205.5 284Q204 265 205.5 250Q207 235 210.5 220.5Q214 206 220 186Q225 168 219 159Q213 150 194 150H93Q74 150 66.5 159.5Q59 169 52 186Q45 210 41.5 226Q38 242 38 257.5Q38 273 40.5 292.5Q43 312 47 342L49 359L52 381Q57 414 59 433.5Q61 453 60 467.5Q59 482 55 496Q51 510 44 532Q39 550 45 559Q51 568 70 568H171Q190 568 197.5 558.5Q205 549 212 532Q219 508 222.5 492Q226 476 226 460Q226 444 223.5 424.5Q221 405 217 375ZM749 660Q795 660 832.5 647Q870 634 896.5 600Q923 566 938 508Q953 450 953 360Q953 270 938 212Q923 154 896.5 120Q870 86 832.5 73Q795 60 749 60H294Q275 60 266.5 68.5Q258 77 258 96V253Q258 272 266.5 280.5Q275 289 294 289H710Q730 289 743.5 302.5Q757 316 757 362Q757 408 743.5 422Q730 436 710 436H294Q275 436 266.5 444.5Q258 453 258 472V624Q258 643 266.5 651.5Q275 660 294 660Z" glyph-name="Utilde" horiz-adv-x="1010" unicode="&#360;" /><glyph d="M787 487V234Q787 212 780 199Q773 186 754 179L509 91Q487 82 470.5 76Q454 70 439 66Q424 62 407.5 60.5Q391 59 367 59H103Q84 59 75.5 67.5Q67 76 67 95V246Q67 265 75.5 275Q84 285 103 285H379Q389 285 399 287Q409 289 420 293L560 336Q570 340 573.5 343.5Q577 347 577 355V370Q577 378 573.5 381.5Q570 385 560 389L419 432Q408 436 398 438Q388 440 378 440H103Q84 440 75.5 448.5Q67 457 67 476V625Q67 644 75.5 652.5Q84 661 103 661H367Q391 661 407.5 661Q424 661 439 659Q454 657 470.5 652.5Q487 648 509 639L754 541Q773 534 780 521.5Q787 509 787 487Z" glyph-name="V" horiz-adv-x="849" unicode="V" /><glyph d="M67 513V646Q67 665 75.5 673.5Q84 682 103 682L471 678Q494 678 510 677.5Q526 677 540.5 675.5Q555 674 572.5 670.5Q590 667 615 660L751 624Q769 620 778 609.5Q787 599 787 580V480Q787 457 780 445.5Q773 434 757 430L581 377V353L757 300Q772 296 779.5 284.5Q787 273 787 250V142Q787 123 778 111.5Q769 100 751 96L613 60Q588 53 570.5 49.5Q553 46 538.5 44.5Q524 43 508 42.5Q492 42 469 42L103 38Q84 38 75.5 46.5Q67 55 67 74V222Q67 241 75.5 249.5Q84 258 103 258L415 262H446L328 302Q312 312 304.5 324Q297 336 297 355V386Q297 405 304.5 417Q312 429 328 439L446 479H415L103 482Q84 482 75.5 488Q67 494 67 513Z" glyph-name="W" horiz-adv-x="854" unicode="W" /><glyph d="M67 513V646Q67 665 75.5 673.5Q84 682 103 682L431 678Q454 678 470 677.5Q486 677 500.5 675.5Q515 674 532.5 670.5Q550 667 575 660L711 624Q729 620 738 609.5Q747 599 747 580V480Q747 457 740 445.5Q733 434 717 430L541 377V353L717 300Q732 296 739.5 284.5Q747 273 747 250V142Q747 123 738 111.5Q729 100 711 96L573 60Q548 53 530.5 49.5Q513 46 498.5 44.5Q484 43 468 42.5Q452 42 429 42L103 38Q84 38 75.5 46.5Q67 55 67 74V222Q67 241 75.5 249.5Q84 258 103 258L375 262H406L288 302Q272 312 264.5 324Q257 336 257 355V386Q257 405 264.5 417Q272 429 288 439L406 479H375L103 482Q84 482 75.5 488Q67 494 67 513Z" glyph-name="W.s" horiz-adv-x="814" /><glyph d="M611 11H116Q97 11 88.5 19.5Q80 28 80 47V164Q80 183 88.5 191.5Q97 200 116 200H579Q599 200 609 207Q619 214 619 233Q619 252 609 258.5Q599 265 579 265H116Q97 265 88.5 273.5Q80 282 80 301V418Q80 437 88.5 445.5Q97 454 116 454H579Q599 454 609 460.5Q619 467 619 486Q619 505 609 512Q599 519 579 519H116Q97 519 88.5 527.5Q80 536 80 555V672Q80 691 88.5 699.5Q97 708 116 708H611Q702 708 758.5 665Q815 622 815 509Q815 453 802 416.5Q789 380 765 360Q789 339 802 302.5Q815 266 815 210Q815 97 758.5 54Q702 11 611 11Z" glyph-name="W.salt" horiz-adv-x="882" /><glyph d="M571 11H116Q97 11 88.5 19.5Q80 28 80 47V164Q80 183 88.5 191.5Q97 200 116 200H539Q559 200 569 207Q579 214 579 233Q579 252 569 258.5Q559 265 539 265H116Q97 265 88.5 273.5Q80 282 80 301V418Q80 437 88.5 445.5Q97 454 116 454H539Q559 454 569 460.5Q579 467 579 486Q579 505 569 512Q559 519 539 519H116Q97 519 88.5 527.5Q80 536 80 555V672Q80 691 88.5 699.5Q97 708 116 708H571Q662 708 718.5 665Q775 622 775 509Q775 453 762 416.5Q749 380 725 360Q749 339 762 302.5Q775 266 775 210Q775 97 718.5 54Q662 11 571 11Z" glyph-name="W.salt_s" horiz-adv-x="842" /><glyph d="M193 543 236 194Q238 177 229 168.5Q220 160 203 160H107Q88 160 80.5 168.5Q73 177 71 196L28 545Q26 562 35 570.5Q44 579 61 579H157Q176 579 183.5 570.5Q191 562 193 543ZM268 513V646Q268 665 276.5 673.5Q285 682 304 682L632 678Q655 678 671 677.5Q687 677 701.5 675.5Q716 674 733.5 670.5Q751 667 776 660L912 624Q930 620 939 609.5Q948 599 948 580V480Q948 457 941 445.5Q934 434 918 430L742 377V353L918 300Q933 296 940.5 284.5Q948 273 948 250V142Q948 123 939 111.5Q930 100 912 96L774 60Q749 53 731.5 49.5Q714 46 699.5 44.5Q685 43 669 42.5Q653 42 630 42L304 38Q285 38 276.5 46.5Q268 55 268 74V222Q268 241 276.5 249.5Q285 258 304 258L576 262H607L489 302Q473 312 465.5 324Q458 336 458 355V386Q458 405 465.5 417Q473 429 489 439L607 479H576L304 482Q285 482 276.5 488Q268 494 268 513Z" glyph-name="Wacute" horiz-adv-x="1015" unicode="&#7810;" /><glyph d="M193 533 236 184Q238 167 229 158.5Q220 150 203 150H107Q88 150 80.5 158.5Q73 167 71 186L28 535Q26 552 35 560.5Q44 569 61 569H157Q176 569 183.5 560.5Q191 552 193 533ZM759 11H304Q285 11 276.5 19.5Q268 28 268 47V164Q268 183 276.5 191.5Q285 200 304 200H727Q747 200 757 207Q767 214 767 233Q767 252 757 258.5Q747 265 727 265H304Q285 265 276.5 273.5Q268 282 268 301V418Q268 437 276.5 445.5Q285 454 304 454H727Q747 454 757 460.5Q767 467 767 486Q767 505 757 512Q747 519 727 519H304Q285 519 276.5 527.5Q268 536 268 555V672Q268 691 276.5 699.5Q285 708 304 708H759Q850 708 906.5 665Q963 622 963 509Q963 453 950 416.5Q937 380 913 360Q937 339 950 302.5Q963 266 963 210Q963 97 906.5 54Q850 11 759 11Z" glyph-name="Wacute.salt" horiz-adv-x="1030" /><glyph d="M197 328 237 191Q245 166 239 158Q233 150 206 150H125Q98 150 90 158.5Q82 167 72 191L26 319Q22 328 20 338.5Q18 349 17 358Q17 367 18 375Q19 383 22 390L72 527Q82 552 90 560.5Q98 569 125 569H206Q233 569 239 561Q245 553 237 527L197 390Q193 373 193 359Q193 345 197 328ZM274 513V646Q274 665 282.5 673.5Q291 682 310 682L638 678Q661 678 677 677.5Q693 677 707.5 675.5Q722 674 739.5 670.5Q757 667 782 660L918 624Q936 620 945 609.5Q954 599 954 580V480Q954 457 947 445.5Q940 434 924 430L748 377V353L924 300Q939 296 946.5 284.5Q954 273 954 250V142Q954 123 945 111.5Q936 100 918 96L780 60Q755 53 737.5 49.5Q720 46 705.5 44.5Q691 43 675 42.5Q659 42 636 42L310 38Q291 38 282.5 46.5Q274 55 274 74V222Q274 241 282.5 249.5Q291 258 310 258L582 262H613L495 302Q479 312 471.5 324Q464 336 464 355V386Q464 405 471.5 417Q479 429 495 439L613 479H582L310 482Q291 482 282.5 488Q274 494 274 513Z" glyph-name="Wcircumflex" horiz-adv-x="1021" unicode="&#372;" /><glyph d="M197 328 237 191Q245 166 239 158Q233 150 206 150H125Q98 150 90 158.5Q82 167 72 191L26 319Q22 328 20 338.5Q18 349 17 358Q17 367 18 375Q19 383 22 390L72 527Q82 552 90 560.5Q98 569 125 569H206Q233 569 239 561Q245 553 237 527L197 390Q193 373 193 359Q193 345 197 328ZM765 11H310Q291 11 282.5 19.5Q274 28 274 47V164Q274 183 282.5 191.5Q291 200 310 200H733Q753 200 763 207Q773 214 773 233Q773 252 763 258.5Q753 265 733 265H310Q291 265 282.5 273.5Q274 282 274 301V418Q274 437 282.5 445.5Q291 454 310 454H733Q753 454 763 460.5Q773 467 773 486Q773 505 763 512Q753 519 733 519H310Q291 519 282.5 527.5Q274 536 274 555V672Q274 691 282.5 699.5Q291 708 310 708H765Q856 708 912.5 665Q969 622 969 509Q969 453 956 416.5Q943 380 919 360Q943 339 956 302.5Q969 266 969 210Q969 97 912.5 54Q856 11 765 11Z" glyph-name="Wcircumflex.salt" horiz-adv-x="1036" /><glyph d="M229 566V428Q229 411 221 403Q213 395 196 395H75Q58 395 50 403Q42 411 42 428V566Q42 583 50 591Q58 599 75 599H196Q213 599 221 591Q229 583 229 566ZM229 308V170Q229 153 221 144.5Q213 136 196 136H75Q58 136 50 144.5Q42 153 42 170V308Q42 325 50 333Q58 341 75 341H196Q213 341 221 333Q229 325 229 308ZM269 513V646Q269 665 277.5 673.5Q286 682 305 682L633 678Q656 678 672 677.5Q688 677 702.5 675.5Q717 674 734.5 670.5Q752 667 777 660L913 624Q931 620 940 609.5Q949 599 949 580V480Q949 457 942 445.5Q935 434 919 430L743 377V353L919 300Q934 296 941.5 284.5Q949 273 949 250V142Q949 123 940 111.5Q931 100 913 96L775 60Q750 53 732.5 49.5Q715 46 700.5 44.5Q686 43 670 42.5Q654 42 631 42L305 38Q286 38 277.5 46.5Q269 55 269 74V222Q269 241 277.5 249.5Q286 258 305 258L577 262H608L490 302Q474 312 466.5 324Q459 336 459 355V386Q459 405 466.5 417Q474 429 490 439L608 479H577L305 482Q286 482 277.5 488Q269 494 269 513Z" glyph-name="Wdieresis" horiz-adv-x="1016" unicode="&#7812;" /><glyph d="M229 556V418Q229 401 221 393Q213 385 196 385H75Q58 385 50 393Q42 401 42 418V556Q42 573 50 581Q58 589 75 589H196Q213 589 221 581Q229 573 229 556ZM229 298V160Q229 143 221 134.5Q213 126 196 126H75Q58 126 50 134.5Q42 143 42 160V298Q42 315 50 323Q58 331 75 331H196Q213 331 221 323Q229 315 229 298ZM760 11H305Q286 11 277.5 19.5Q269 28 269 47V164Q269 183 277.5 191.5Q286 200 305 200H728Q748 200 758 207Q768 214 768 233Q768 252 758 258.5Q748 265 728 265H305Q286 265 277.5 273.5Q269 282 269 301V418Q269 437 277.5 445.5Q286 454 305 454H728Q748 454 758 460.5Q768 467 768 486Q768 505 758 512Q748 519 728 519H305Q286 519 277.5 527.5Q269 536 269 555V672Q269 691 277.5 699.5Q286 708 305 708H760Q851 708 907.5 665Q964 622 964 509Q964 453 951 416.5Q938 380 914 360Q938 339 951 302.5Q964 266 964 210Q964 97 907.5 54Q851 11 760 11Z" glyph-name="Wdieresis.salt" horiz-adv-x="1031" /><glyph d="M236 535 193 186Q191 167 183.5 158.5Q176 150 157 150H61Q44 150 35 158.5Q26 167 28 184L71 533Q73 552 80.5 560.5Q88 569 107 569H203Q220 569 229 560.5Q238 552 236 535ZM268 513V646Q268 665 276.5 673.5Q285 682 304 682L632 678Q655 678 671 677.5Q687 677 701.5 675.5Q716 674 733.5 670.5Q751 667 776 660L912 624Q930 620 939 609.5Q948 599 948 580V480Q948 457 941 445.5Q934 434 918 430L742 377V353L918 300Q933 296 940.5 284.5Q948 273 948 250V142Q948 123 939 111.5Q930 100 912 96L774 60Q749 53 731.5 49.5Q714 46 699.5 44.5Q685 43 669 42.5Q653 42 630 42L304 38Q285 38 276.5 46.5Q268 55 268 74V222Q268 241 276.5 249.5Q285 258 304 258L576 262H607L489 302Q473 312 465.5 324Q458 336 458 355V386Q458 405 465.5 417Q473 429 489 439L607 479H576L304 482Q285 482 276.5 488Q268 494 268 513Z" glyph-name="Wgrave" horiz-adv-x="1015" unicode="&#7808;" /><glyph d="M236 535 193 186Q191 167 183.5 158.5Q176 150 157 150H61Q44 150 35 158.5Q26 167 28 184L71 533Q73 552 80.5 560.5Q88 569 107 569H203Q220 569 229 560.5Q238 552 236 535ZM759 11H304Q285 11 276.5 19.5Q268 28 268 47V164Q268 183 276.5 191.5Q285 200 304 200H727Q747 200 757 207Q767 214 767 233Q767 252 757 258.5Q747 265 727 265H304Q285 265 276.5 273.5Q268 282 268 301V418Q268 437 276.5 445.5Q285 454 304 454H727Q747 454 757 460.5Q767 467 767 486Q767 505 757 512Q747 519 727 519H304Q285 519 276.5 527.5Q268 536 268 555V672Q268 691 276.5 699.5Q285 708 304 708H759Q850 708 906.5 665Q963 622 963 509Q963 453 950 416.5Q937 380 913 360Q937 339 950 302.5Q963 266 963 210Q963 97 906.5 54Q850 11 759 11Z" glyph-name="Wgrave.salt" horiz-adv-x="1030" /><glyph d="M751 284Q770 284 778.5 275.5Q787 267 787 248V96Q787 77 778.5 68.5Q770 60 751 60H644Q598 60 575.5 69.5Q553 79 521 98L412 164L303 98Q271 79 248.5 69.5Q226 60 180 60H103Q84 60 75.5 68.5Q67 77 67 96V250Q67 269 75.5 277.5Q84 286 103 286H172Q182 286 193 287.5Q204 289 214 295L277 331Q285 335 289.5 341Q294 347 294 355V367Q294 375 290 380.5Q286 386 277 391L214 427Q204 433 193 434.5Q182 436 172 436H103Q84 436 75.5 444.5Q67 453 67 472V624Q67 643 75.5 651.5Q84 660 103 660H180Q226 660 248.5 650.5Q271 641 303 622L413 556L521 622Q553 641 575.5 650.5Q598 660 644 660H751Q770 660 778.5 651.5Q787 643 787 624V472Q787 453 778.5 444.5Q770 436 751 436H652Q642 436 631.5 434.5Q621 433 610 427L547 392Q537 387 533.5 381.5Q530 376 530 368V354Q530 346 534 340.5Q538 335 547 330L610 293Q620 287 631 285.5Q642 284 652 284Z" glyph-name="X" horiz-adv-x="854" unicode="X" /><glyph d="M787 243V88Q787 69 778.5 60.5Q770 52 751 52H470Q421 52 386.5 75.5Q352 99 341 141L102 76Q85 72 76 78Q67 84 67 102V253Q67 272 75 282.5Q83 293 102 297L333 345V378L102 426Q83 430 75 440Q67 450 67 469V621Q67 640 76 646Q85 652 102 648L341 583Q353 623 387 646Q421 669 470 669H751Q770 669 778.5 660.5Q787 652 787 633V479Q787 460 778.5 451.5Q770 443 751 443H557Q541 443 531.5 435Q522 427 522 411V311Q522 295 531.5 287Q541 279 557 279H751Q770 279 778.5 270.5Q787 262 787 243Z" glyph-name="X.salt" horiz-adv-x="854" /><glyph d="M418 97Q387 74 360.5 66.5Q334 59 295 59H103Q84 59 75.5 67.5Q67 76 67 95V249Q67 268 75.5 276.5Q84 285 103 285H267Q277 285 288 286Q299 287 309 294L381 333Q390 338 394 343.5Q398 349 398 357V367Q398 375 394 380.5Q390 386 381 391L309 431Q299 438 288 439Q277 440 267 440H103Q84 440 75.5 448.5Q67 457 67 476V625Q67 644 75.5 652.5Q84 661 103 661H295Q334 661 360.5 653Q387 645 418 623L623 477H751Q770 477 778.5 468.5Q787 460 787 441V279Q787 260 778.5 251.5Q770 243 751 243H622Z" glyph-name="Y" horiz-adv-x="842" unicode="Y" /><glyph d="M388 97Q357 74 330.5 66.5Q304 59 265 59H103Q84 59 75.5 67.5Q67 76 67 95V249Q67 268 75.5 276.5Q84 285 103 285H237Q247 285 258 286Q269 287 279 294L351 333Q360 338 364 343.5Q368 349 368 357V367Q368 375 364 380.5Q360 386 351 391L279 431Q269 438 258 439Q247 440 237 440H103Q84 440 75.5 448.5Q67 457 67 476V625Q67 644 75.5 652.5Q84 661 103 661H265Q304 661 330.5 653Q357 645 388 623L593 477H711Q730 477 738.5 468.5Q747 460 747 441V279Q747 260 738.5 251.5Q730 243 711 243H592Z" glyph-name="Y.s" horiz-adv-x="802" /><glyph d="M751 243H580Q562 136 509.5 98Q457 60 384 60H103Q84 60 75.5 68.5Q67 77 67 96V251Q67 270 75.5 278.5Q84 287 103 287H343Q363 287 376.5 300.5Q390 314 390 360Q390 407 376.5 420.5Q363 434 343 434H103Q84 434 75.5 442.5Q67 451 67 470V624Q67 643 75.5 651.5Q84 660 103 660H384Q457 660 509.5 622Q562 584 580 477H751Q770 477 778.5 468.5Q787 460 787 441V279Q787 260 778.5 251.5Q770 243 751 243Z" glyph-name="Y.salt" horiz-adv-x="842" /><glyph d="M710 243H560Q542 136 489.5 98Q437 60 364 60H103Q84 60 75.5 68.5Q67 77 67 96V251Q67 270 75.5 278.5Q84 287 103 287H323Q343 287 356.5 300.5Q370 314 370 360Q370 407 356.5 420.5Q343 434 323 434H103Q84 434 75.5 442.5Q67 451 67 470V624Q67 643 75.5 651.5Q84 660 103 660H364Q437 660 489.5 622Q542 584 560 477H710Q729 477 737.5 468.5Q746 460 746 441V279Q746 260 737.5 251.5Q729 243 710 243Z" glyph-name="Y.salt_s" horiz-adv-x="801" /><glyph d="M193 553 236 204Q238 187 229 178.5Q220 170 203 170H107Q88 170 80.5 178.5Q73 187 71 206L28 555Q26 572 35 580.5Q44 589 61 589H157Q176 589 183.5 580.5Q191 572 193 553ZM589 97Q558 74 531.5 66.5Q505 59 466 59H304Q285 59 276.5 67.5Q268 76 268 95V249Q268 268 276.5 276.5Q285 285 304 285H438Q448 285 459 286Q470 287 480 294L552 333Q561 338 565 343.5Q569 349 569 357V367Q569 375 565 380.5Q561 386 552 391L480 431Q470 438 459 439Q448 440 438 440H304Q285 440 276.5 448.5Q268 457 268 476V625Q268 644 276.5 652.5Q285 661 304 661H466Q505 661 531.5 653Q558 645 589 623L794 477H912Q931 477 939.5 468.5Q948 460 948 441V279Q948 260 939.5 251.5Q931 243 912 243H793Z" glyph-name="Yacute" horiz-adv-x="1003" unicode="&#221;" /><glyph d="M193 533 236 184Q238 167 229 158.5Q220 150 203 150H107Q88 150 80.5 158.5Q73 167 71 186L28 535Q26 552 35 560.5Q44 569 61 569H157Q176 569 183.5 560.5Q191 552 193 533ZM912 243H762Q744 136 691.5 98Q639 60 566 60H305Q286 60 277.5 68.5Q269 77 269 96V251Q269 270 277.5 278.5Q286 287 305 287H525Q545 287 558.5 300.5Q572 314 572 360Q572 407 558.5 420.5Q545 434 525 434H305Q286 434 277.5 442.5Q269 451 269 470V624Q269 643 277.5 651.5Q286 660 305 660H566Q639 660 691.5 622Q744 584 762 477H912Q931 477 939.5 468.5Q948 460 948 441V279Q948 260 939.5 251.5Q931 243 912 243Z" glyph-name="Yacute.salt" horiz-adv-x="1003" /><glyph d="M595 97Q564 74 537.5 66.5Q511 59 472 59H310Q291 59 282.5 67.5Q274 76 274 95V249Q274 268 282.5 276.5Q291 285 310 285H444Q454 285 465 286Q476 287 486 294L558 333Q567 338 571 343.5Q575 349 575 357V367Q575 375 571 380.5Q567 386 558 391L486 431Q476 438 465 439Q454 440 444 440H310Q291 440 282.5 448.5Q274 457 274 476V625Q274 644 282.5 652.5Q291 661 310 661H472Q511 661 537.5 653Q564 645 595 623L800 477H918Q937 477 945.5 468.5Q954 460 954 441V279Q954 260 945.5 251.5Q937 243 918 243H799ZM197 328 237 191Q245 166 239 158Q233 150 206 150H125Q98 150 90 158.5Q82 167 72 191L26 319Q22 328 20 338.5Q18 349 17 358Q17 367 18 375Q19 383 22 390L72 527Q82 552 90 560.5Q98 569 125 569H206Q233 569 239 561Q245 553 237 527L197 390Q193 373 193 359Q193 345 197 328Z" glyph-name="Ycircumflex" horiz-adv-x="1009" unicode="&#374;" /><glyph d="M197 328 237 191Q245 166 239 158Q233 150 206 150H125Q98 150 90 158.5Q82 167 72 191L26 319Q22 328 20 338.5Q18 349 17 358Q17 367 18 375Q19 383 22 390L72 527Q82 552 90 560.5Q98 569 125 569H206Q233 569 239 561Q245 553 237 527L197 390Q193 373 193 359Q193 345 197 328ZM918 243H768Q750 136 697.5 98Q645 60 572 60H311Q292 60 283.5 68.5Q275 77 275 96V251Q275 270 283.5 278.5Q292 287 311 287H531Q551 287 564.5 300.5Q578 314 578 360Q578 407 564.5 420.5Q551 434 531 434H311Q292 434 283.5 442.5Q275 451 275 470V624Q275 643 283.5 651.5Q292 660 311 660H572Q645 660 697.5 622Q750 584 768 477H918Q937 477 945.5 468.5Q954 460 954 441V279Q954 260 945.5 251.5Q937 243 918 243Z" glyph-name="Ycircumflex.salt" horiz-adv-x="1009" /><glyph d="M229 561V423Q229 406 221 398Q213 390 196 390H75Q58 390 50 398Q42 406 42 423V561Q42 578 50 586Q58 594 75 594H196Q213 594 221 586Q229 578 229 561ZM229 303V165Q229 148 221 139.5Q213 131 196 131H75Q58 131 50 139.5Q42 148 42 165V303Q42 320 50 328Q58 336 75 336H196Q213 336 221 328Q229 320 229 303ZM590 97Q559 74 532.5 66.5Q506 59 467 59H305Q286 59 277.5 67.5Q269 76 269 95V249Q269 268 277.5 276.5Q286 285 305 285H439Q449 285 460 286Q471 287 481 294L553 333Q562 338 566 343.5Q570 349 570 357V367Q570 375 566 380.5Q562 386 553 391L481 431Q471 438 460 439Q449 440 439 440H305Q286 440 277.5 448.5Q269 457 269 476V625Q269 644 277.5 652.5Q286 661 305 661H467Q506 661 532.5 653Q559 645 590 623L795 477H913Q932 477 940.5 468.5Q949 460 949 441V279Q949 260 940.5 251.5Q932 243 913 243H794Z" glyph-name="Ydieresis" horiz-adv-x="1004" unicode="&#376;" /><glyph d="M229 556V418Q229 401 221 393Q213 385 196 385H75Q58 385 50 393Q42 401 42 418V556Q42 573 50 581Q58 589 75 589H196Q213 589 221 581Q229 573 229 556ZM229 298V160Q229 143 221 134.5Q213 126 196 126H75Q58 126 50 134.5Q42 143 42 160V298Q42 315 50 323Q58 331 75 331H196Q213 331 221 323Q229 315 229 298ZM913 243H763Q745 136 692.5 98Q640 60 567 60H306Q287 60 278.5 68.5Q270 77 270 96V251Q270 270 278.5 278.5Q287 287 306 287H526Q546 287 559.5 300.5Q573 314 573 360Q573 407 559.5 420.5Q546 434 526 434H306Q287 434 278.5 442.5Q270 451 270 470V624Q270 643 278.5 651.5Q287 660 306 660H567Q640 660 692.5 622Q745 584 763 477H913Q932 477 940.5 468.5Q949 460 949 441V279Q949 260 940.5 251.5Q932 243 913 243Z" glyph-name="Ydieresis.salt" horiz-adv-x="1004" /><glyph d="M236 535 193 186Q191 167 183.5 158.5Q176 150 157 150H61Q44 150 35 158.5Q26 167 28 184L71 533Q73 552 80.5 560.5Q88 569 107 569H203Q220 569 229 560.5Q238 552 236 535ZM589 97Q558 74 531.5 66.5Q505 59 466 59H304Q285 59 276.5 67.5Q268 76 268 95V249Q268 268 276.5 276.5Q285 285 304 285H438Q448 285 459 286Q470 287 480 294L552 333Q561 338 565 343.5Q569 349 569 357V367Q569 375 565 380.5Q561 386 552 391L480 431Q470 438 459 439Q448 440 438 440H304Q285 440 276.5 448.5Q268 457 268 476V625Q268 644 276.5 652.5Q285 661 304 661H466Q505 661 531.5 653Q558 645 589 623L794 477H912Q931 477 939.5 468.5Q948 460 948 441V279Q948 260 939.5 251.5Q931 243 912 243H793Z" glyph-name="Ygrave" horiz-adv-x="1003" unicode="&#7922;" /><glyph d="M236 535 193 186Q191 167 183.5 158.5Q176 150 157 150H61Q44 150 35 158.5Q26 167 28 184L71 533Q73 552 80.5 560.5Q88 569 107 569H203Q220 569 229 560.5Q238 552 236 535ZM912 243H762Q744 136 691.5 98Q639 60 566 60H305Q286 60 277.5 68.5Q269 77 269 96V251Q269 270 277.5 278.5Q286 287 305 287H525Q545 287 558.5 300.5Q572 314 572 360Q572 407 558.5 420.5Q545 434 525 434H305Q286 434 277.5 442.5Q269 451 269 470V624Q269 643 277.5 651.5Q286 660 305 660H566Q639 660 691.5 622Q744 584 762 477H912Q931 477 939.5 468.5Q948 460 948 441V279Q948 260 939.5 251.5Q931 243 912 243Z" glyph-name="Ygrave.salt" horiz-adv-x="1003" /><glyph d="M800 624V96Q800 77 791.5 68.5Q783 60 764 60H630Q611 60 596.5 66Q582 72 568 85L273 370V104Q273 85 264.5 76.5Q256 68 237 68H116Q97 68 88.5 76.5Q80 85 80 104V616Q80 635 88.5 643.5Q97 652 116 652H265Q285 652 299.5 646Q314 640 328 627L609 353V624Q609 643 617.5 651.5Q626 660 645 660H764Q783 660 791.5 651.5Q800 643 800 624Z" glyph-name="Z" horiz-adv-x="880" unicode="Z" /><glyph d="M760 624V96Q760 77 751.5 68.5Q743 60 724 60H590Q571 60 556.5 66Q542 72 528 85L273 370V104Q273 85 264.5 76.5Q256 68 237 68H116Q97 68 88.5 76.5Q80 85 80 104V616Q80 635 88.5 643.5Q97 652 116 652H265Q285 652 299.5 646Q314 640 328 627L569 353V624Q569 643 577.5 651.5Q586 660 605 660H724Q743 660 751.5 651.5Q760 643 760 624Z" glyph-name="Z.s" horiz-adv-x="840" /><glyph d="M193 553 236 204Q238 187 229 178.5Q220 170 203 170H107Q88 170 80.5 178.5Q73 187 71 206L28 555Q26 572 35 580.5Q44 589 61 589H157Q176 589 183.5 580.5Q191 572 193 553ZM948 624V96Q948 77 939.5 68.5Q931 60 912 60H778Q759 60 744.5 66Q730 72 716 85L461 370V104Q461 85 452.5 76.5Q444 68 425 68H304Q285 68 276.5 76.5Q268 85 268 104V616Q268 635 276.5 643.5Q285 652 304 652H453Q473 652 487.5 646Q502 640 516 627L757 353V624Q757 643 765.5 651.5Q774 660 793 660H912Q931 660 939.5 651.5Q948 643 948 624Z" glyph-name="Zacute" horiz-adv-x="1028" unicode="&#377;" /><glyph d="M72 396 32 533Q24 558 30 566Q36 574 63 574H144Q171 574 179 565.5Q187 557 197 533L243 405Q247 396 249 385.5Q251 375 252 366Q252 357 251 349Q250 341 247 334L197 197Q187 172 179 163.5Q171 155 144 155H63Q36 155 30 163Q24 171 32 197L72 334Q76 351 76 365Q76 379 72 396ZM964 624V96Q964 77 955.5 68.5Q947 60 928 60H794Q775 60 760.5 66Q746 72 732 85L477 370V104Q477 85 468.5 76.5Q460 68 441 68H320Q301 68 292.5 76.5Q284 85 284 104V616Q284 635 292.5 643.5Q301 652 320 652H469Q489 652 503.5 646Q518 640 532 627L773 353V624Q773 643 781.5 651.5Q790 660 809 660H928Q947 660 955.5 651.5Q964 643 964 624Z" glyph-name="Zcaron" horiz-adv-x="1044" unicode="&#381;" /><glyph d="M216 440V282Q216 263 207.5 254.5Q199 246 180 246H53Q34 246 25.5 254.5Q17 263 17 282V440Q17 459 25.5 467.5Q34 476 53 476H180Q199 476 207.5 467.5Q216 459 216 440ZM936 624V96Q936 77 927.5 68.5Q919 60 900 60H766Q747 60 732.5 66Q718 72 704 85L449 370V104Q449 85 440.5 76.5Q432 68 413 68H292Q273 68 264.5 76.5Q256 85 256 104V616Q256 635 264.5 643.5Q273 652 292 652H441Q461 652 475.5 646Q490 640 504 627L745 353V624Q745 643 753.5 651.5Q762 660 781 660H900Q919 660 927.5 651.5Q936 643 936 624Z" glyph-name="Zdotaccent" horiz-adv-x="1016" unicode="&#379;" /><glyph d="M746 59H482Q456 59 438.5 61Q421 63 404.5 67.5Q388 72 369 79.5Q350 87 322 98L95 175Q76 182 69 194.5Q62 207 62 226V485Q62 504 69 516Q76 528 95 535L322 622Q350 633 369 640.5Q388 648 404.5 652.5Q421 657 438.5 659Q456 661 482 661H746Q765 661 773.5 652.5Q782 644 782 625V474Q782 455 773.5 445Q765 435 746 435H606V278H746Q765 278 773.5 269.5Q782 261 782 242V95Q782 76 773.5 67.5Q765 59 746 59ZM272 335 424 288V425L272 378Q262 374 258.5 370.5Q255 367 255 359V354Q255 346 258.5 342.5Q262 339 272 335Z" glyph-name="a" horiz-adv-x="849" unicode="a" /><glyph d="M912 61H668Q642 61 624.5 63Q607 65 590.5 69.5Q574 74 555 81.5Q536 89 508 100L301 177Q282 184 275 196.5Q268 209 268 228V487Q268 506 275 518Q282 530 301 537L508 624Q536 635 555 642.5Q574 650 590.5 654.5Q607 659 624.5 661Q642 663 668 663H912Q931 663 939.5 654.5Q948 646 948 627V476Q948 457 939.5 447Q931 437 912 437H792V280H912Q931 280 939.5 271.5Q948 263 948 244V97Q948 78 939.5 69.5Q931 61 912 61ZM478 337 610 290V427L478 380Q468 376 464.5 372.5Q461 369 461 361V356Q461 348 464.5 344.5Q468 341 478 337ZM193 533 236 184Q238 167 229 158.5Q220 150 203 150H107Q88 150 80.5 158.5Q73 167 71 186L28 535Q26 552 35 560.5Q44 569 61 569H157Q176 569 183.5 560.5Q191 552 193 533Z" glyph-name="aacute" horiz-adv-x="1015" unicode="&#225;" /><glyph d="M107 577Q139 577 165.5 567.5Q192 558 210.5 533.5Q229 509 239.5 467Q250 425 250 360Q250 295 239.5 253Q229 211 210.5 186.5Q192 162 165.5 152.5Q139 143 107 143H63Q44 143 35.5 151.5Q27 160 27 179V275Q27 291 33.5 297.5Q40 304 58 304H79Q93 304 102.5 314Q112 324 112 361Q112 398 102.5 409Q93 420 79 420H58Q40 420 33.5 426.5Q27 433 27 450V541Q27 560 35.5 568.5Q44 577 63 577ZM928 61H684Q658 61 640.5 63Q623 65 606.5 69.5Q590 74 571 81.5Q552 89 524 100L317 177Q298 184 291 196.5Q284 209 284 228V487Q284 506 291 518Q298 530 317 537L524 624Q552 635 571 642.5Q590 650 606.5 654.5Q623 659 640.5 661Q658 663 684 663H928Q947 663 955.5 654.5Q964 646 964 627V476Q964 457 955.5 447Q947 437 928 437H808V280H928Q947 280 955.5 271.5Q964 263 964 244V97Q964 78 955.5 69.5Q947 61 928 61ZM494 337 626 290V427L494 380Q484 376 480.5 372.5Q477 369 477 361V356Q477 348 480.5 344.5Q484 341 494 337Z" glyph-name="abreve" horiz-adv-x="1031" unicode="&#259;" /><glyph d="M918 61H674Q648 61 630.5 63Q613 65 596.5 69.5Q580 74 561 81.5Q542 89 514 100L307 177Q288 184 281 196.5Q274 209 274 228V487Q274 506 281 518Q288 530 307 537L514 624Q542 635 561 642.5Q580 650 596.5 654.5Q613 659 630.5 661Q648 663 674 663H918Q937 663 945.5 654.5Q954 646 954 627V476Q954 457 945.5 447Q937 437 918 437H798V280H918Q937 280 945.5 271.5Q954 263 954 244V97Q954 78 945.5 69.5Q937 61 918 61ZM484 337 616 290V427L484 380Q474 376 470.5 372.5Q467 369 467 361V356Q467 348 470.5 344.5Q474 341 484 337ZM197 328 237 191Q245 166 239 158Q233 150 206 150H125Q98 150 90 158.5Q82 167 72 191L26 319Q22 328 20 338.5Q18 349 17 358Q17 367 18 375Q19 383 22 390L72 527Q82 552 90 560.5Q98 569 125 569H206Q233 569 239 561Q245 553 237 527L197 390Q193 373 193 359Q193 345 197 328Z" glyph-name="acircumflex" horiz-adv-x="1021" unicode="&#226;" /><glyph d="M193 533 236 184Q238 167 229 158.5Q220 150 203 150H107Q88 150 80.5 158.5Q73 167 71 186L28 535Q26 552 35 560.5Q44 569 61 569H157Q176 569 183.5 560.5Q191 552 193 533Z" glyph-name="acute" horiz-adv-x="262" unicode="&#180;" /><glyph d="M229 556V418Q229 401 221 393Q213 385 196 385H75Q58 385 50 393Q42 401 42 418V556Q42 573 50 581Q58 589 75 589H196Q213 589 221 581Q229 573 229 556ZM229 298V160Q229 143 221 134.5Q213 126 196 126H75Q58 126 50 134.5Q42 143 42 160V298Q42 315 50 323Q58 331 75 331H196Q213 331 221 323Q229 315 229 298ZM913 61H669Q643 61 625.5 63Q608 65 591.5 69.5Q575 74 556 81.5Q537 89 509 100L302 177Q283 184 276 196.5Q269 209 269 228V487Q269 506 276 518Q283 530 302 537L509 624Q537 635 556 642.5Q575 650 591.5 654.5Q608 659 625.5 661Q643 663 669 663H913Q932 663 940.5 654.5Q949 646 949 627V476Q949 457 940.5 447Q932 437 913 437H793V280H913Q932 280 940.5 271.5Q949 263 949 244V97Q949 78 940.5 69.5Q932 61 913 61ZM479 337 611 290V427L479 380Q469 376 465.5 372.5Q462 369 462 361V356Q462 348 465.5 344.5Q469 341 479 337Z" glyph-name="adieresis" horiz-adv-x="1016" unicode="&#228;" /><glyph d="M792 65Q792 46 783.5 37.5Q775 29 756 29H502Q458 29 423.5 36.5Q389 44 352 58L113 153Q90 161 81 175.5Q72 190 72 215V635Q72 654 80.5 662.5Q89 671 108 671H225Q244 671 252.5 662.5Q261 654 261 635V532H338V634Q338 653 346.5 661.5Q355 670 374 670H481Q500 670 508.5 661.5Q517 653 517 634V532H603V635Q603 654 611.5 662.5Q620 671 639 671H756Q775 671 783.5 662.5Q792 654 792 635V366Q792 347 783.5 338.5Q775 330 756 330H616V232H756Q775 232 783.5 223.5Q792 215 792 196ZM278 302 434 243V330H261V321Q261 313 264.5 309.5Q268 306 278 302Z" glyph-name="ae" horiz-adv-x="872" unicode="&#230;" /><glyph d="M236 535 193 186Q191 167 183.5 158.5Q176 150 157 150H61Q44 150 35 158.5Q26 167 28 184L71 533Q73 552 80.5 560.5Q88 569 107 569H203Q220 569 229 560.5Q238 552 236 535ZM912 61H668Q642 61 624.5 63Q607 65 590.5 69.5Q574 74 555 81.5Q536 89 508 100L301 177Q282 184 275 196.5Q268 209 268 228V487Q268 506 275 518Q282 530 301 537L508 624Q536 635 555 642.5Q574 650 590.5 654.5Q607 659 624.5 661Q642 663 668 663H912Q931 663 939.5 654.5Q948 646 948 627V476Q948 457 939.5 447Q931 437 912 437H792V280H912Q931 280 939.5 271.5Q948 263 948 244V97Q948 78 939.5 69.5Q931 61 912 61ZM478 337 610 290V427L478 380Q468 376 464.5 372.5Q461 369 461 361V356Q461 348 464.5 344.5Q468 341 478 337Z" glyph-name="agrave" horiz-adv-x="1015" unicode="&#224;" /><glyph d="M207 533V186Q207 167 198.5 158.5Q190 150 171 150H78Q59 150 50.5 158.5Q42 167 42 186V533Q42 552 50.5 560.5Q59 569 78 569H171Q190 569 198.5 560.5Q207 552 207 533ZM891 61H647Q621 61 603.5 63Q586 65 569.5 69.5Q553 74 534 81.5Q515 89 487 100L280 177Q261 184 254 196.5Q247 209 247 228V487Q247 506 254 518Q261 530 280 537L487 624Q515 635 534 642.5Q553 650 569.5 654.5Q586 659 603.5 661Q621 663 647 663H891Q910 663 918.5 654.5Q927 646 927 627V476Q927 457 918.5 447Q910 437 891 437H771V280H891Q910 280 918.5 271.5Q927 263 927 244V97Q927 78 918.5 69.5Q910 61 891 61ZM457 337 589 290V427L457 380Q447 376 443.5 372.5Q440 369 440 361V356Q440 348 443.5 344.5Q447 341 457 337Z" glyph-name="amacron" horiz-adv-x="994" unicode="&#257;" /><glyph d="M585 303V425Q585 447 575 455Q565 463 545 463H407Q388 463 379.5 471.5Q371 480 371 499V683Q371 702 379.5 710.5Q388 719 407 719H515Q534 719 542.5 710.5Q551 702 551 683V660H596Q676 660 724 614Q772 568 772 481V233Q772 141 724 92.5Q676 44 596 44H516Q446 44 406 80Q366 116 361 170Q347 137 319 124Q291 111 253 111H205Q139 111 95.5 156.5Q52 202 52 303V484Q52 503 60.5 511.5Q69 520 88 520H203Q222 520 230.5 511.5Q239 503 239 484V368Q239 344 248 337Q257 330 269 330H290Q302 330 311 337Q320 344 320 368V378Q320 397 328.5 405.5Q337 414 356 414H459Q478 414 486.5 405.5Q495 397 495 378V303Q495 279 503.5 272Q512 265 524 265H555Q567 265 576 272Q585 279 585 303Z" glyph-name="ampersand" horiz-adv-x="834" unicode="&amp;" /><glyph d="M716 56H608Q538 56 498 92Q458 128 453 182Q439 149 411 136Q383 123 345 123H297Q235 123 192.5 162.5Q150 202 145 291H90Q71 291 62.5 299.5Q54 308 54 327V472Q54 491 62.5 499.5Q71 508 90 508H144V625Q144 644 152.5 652.5Q161 661 180 661H297Q316 661 324.5 652.5Q333 644 333 625V380Q333 356 342 349Q351 342 363 342H380Q392 342 401 349Q410 356 410 380V544Q410 563 418.5 571.5Q427 580 446 580H553Q572 580 580.5 571.5Q589 563 589 544V315Q589 291 597.5 284Q606 277 618 277H645Q657 277 666 284Q675 291 675 315V625Q675 644 683.5 652.5Q692 661 711 661H828Q847 661 855.5 652.5Q864 644 864 625V508H918Q937 508 945.5 499.5Q954 491 954 472V327Q954 308 945.5 299.5Q937 291 918 291H864V250Q864 154 821.5 105Q779 56 716 56Z" glyph-name="ampersand.salt" horiz-adv-x="1009" /><glyph d="M706 61H462Q436 61 418.5 63Q401 65 384.5 69.5Q368 74 349 81.5Q330 89 302 100L95 177Q76 184 69 196.5Q62 209 62 228V487Q62 506 69 518Q76 530 95 537L302 624Q330 635 349 642.5Q368 650 384.5 654.5Q401 659 418.5 661Q436 663 462 663H706Q725 663 733.5 654.5Q742 646 742 627V591L788 584V625Q788 646 795.5 653.5Q803 661 822 661H894Q913 661 920.5 654Q928 647 928 628V517Q928 453 895 429.5Q862 406 793 416L675 437H586V280H706Q725 280 733.5 271.5Q742 263 742 244V97Q742 78 733.5 69.5Q725 61 706 61ZM272 337 404 290V427L272 380Q262 376 258.5 372.5Q255 369 255 361V356Q255 348 258.5 344.5Q262 341 272 337Z" glyph-name="aogonek" horiz-adv-x="945" unicode="&#261;" /><glyph d="M268 360 263 320Q257 280 255 253Q253 226 255 204.5Q257 183 262 162.5Q267 142 276 114Q283 89 275.5 76Q268 63 251 63H145Q119 63 108 74Q97 85 92 100Q79 138 73 164Q67 190 66.5 214Q66 238 70 265.5Q74 293 80 336L83 360L87 391Q94 438 96.5 465.5Q99 493 97.5 513.5Q96 534 90.5 554Q85 574 76 605Q69 631 77 644Q85 657 107 657H206Q232 657 243 645Q254 633 259 620Q272 582 278 555.5Q284 529 284.5 505Q285 481 281 453Q277 425 271 383ZM558 360 553 320Q547 280 545 253Q543 226 545 204.5Q547 183 552 162.5Q557 142 566 114Q573 89 565.5 76Q558 63 541 63H435Q409 63 398 74Q387 85 382 100Q369 138 363 164Q357 190 356.5 214Q356 238 360 265.5Q364 293 370 336L373 360L377 391Q384 438 386.5 465.5Q389 493 387.5 513.5Q386 534 380.5 554Q375 574 366 605Q359 631 367 644Q375 657 397 657H496Q522 657 533 645Q544 633 549 620Q562 582 568 555.5Q574 529 574.5 505Q575 481 571 453Q567 425 561 383Z" glyph-name="approxequal" horiz-adv-x="641" unicode="&#8776;" /><glyph d="M908 59H674Q630 59 595.5 66.5Q561 74 524 88L351 148Q336 155 327 163Q318 171 314 183Q295 161 269.5 152Q244 143 213 143H155Q123 143 96.5 152.5Q70 162 51.5 186.5Q33 211 22.5 253Q12 295 12 360Q12 425 22.5 467Q33 509 51.5 533.5Q70 558 96.5 567.5Q123 577 155 577H213Q244 577 269.5 568Q295 559 314 537Q318 550 326.5 558Q335 566 351 572L524 632Q561 646 595.5 653.5Q630 661 674 661H908Q927 661 935.5 652.5Q944 644 944 625V471Q944 452 935.5 443.5Q927 435 908 435H788V277H908Q927 277 935.5 268.5Q944 260 944 241V95Q944 76 935.5 67.5Q927 59 908 59ZM470 329 606 286V426L470 384Q460 380 456.5 376.5Q453 373 453 365V348Q453 340 456.5 336.5Q460 333 470 329ZM220 420H185Q166 420 155.5 409Q145 398 145 361Q145 324 155.5 314Q166 304 185 304H220Q242 304 252.5 314Q263 324 263 361Q263 398 252.5 409Q242 420 220 420Z" glyph-name="aring" horiz-adv-x="1011" unicode="&#229;" /><glyph d="M210 261Q194 260 186.5 269Q179 278 179 294V427Q179 443 186.5 452Q194 461 210 460L390 449V621Q390 638 408.5 645Q427 652 443 641L790 407Q804 398 812.5 387Q821 376 821 360Q821 344 812.5 333.5Q804 323 790 314L443 80Q427 69 408.5 76.5Q390 84 390 100V272Z" glyph-name="arrowdown" horiz-adv-x="1000" unicode="&#8595;" /><glyph d="M586 1043Q586 1055 594.5 1063Q603 1071 615 1073Q627 1075 641 1070.5Q655 1066 666 1053L1182 419Q1210 385 1210 359Q1210 333 1182 299L666 -327Q638 -360 612 -353.5Q586 -347 586 -317V-180H-167Q-186 -180 -197 -169Q-208 -158 -201 -140L-3 360L-201 860Q-208 878 -197 889Q-186 900 -167 900H586Z" glyph-name="arrowdown.chevron" horiz-adv-x="1008" /><glyph d="M342 611Q354 623 365.5 624Q377 625 389 612L507 478L629 599Q641 611 659.5 602.5Q678 594 682 575L761 165Q765 149 763.5 135Q762 121 751 110Q739 98 725 96.5Q711 95 695 99L285 178Q265 182 257 200.5Q249 219 261 231L382 353L248 471Q235 482 236 494Q237 506 249 516Z" glyph-name="arrowdownleft" horiz-adv-x="1000" unicode="&#8601;" /><glyph d="M389 108Q377 95 365.5 96Q354 97 342 109L249 204Q237 214 236 226Q235 238 248 249L382 367L261 489Q249 501 257 519.5Q265 538 285 542L695 621Q711 625 725 623.5Q739 622 751 610Q762 599 763.5 585Q765 571 761 555L682 145Q678 126 659.5 117.5Q641 109 629 121L507 242Z" glyph-name="arrowdownright" horiz-adv-x="1000" unicode="&#8600;" /><glyph d="M568 675Q584 675 593 667.5Q602 660 601 644L590 464H762Q778 464 785.5 445.5Q793 427 782 411L548 64Q539 50 528.5 41.5Q518 33 502 33Q486 33 475 41.5Q464 50 455 64L221 411Q210 427 217.5 445.5Q225 464 241 464H413L402 644Q401 660 410 667.5Q419 675 435 675Z" glyph-name="arrowleft" horiz-adv-x="1001" unicode="&#8592;" /><glyph d="M1179 326Q1191 326 1199 317.5Q1207 309 1209 297Q1211 285 1206.5 271Q1202 257 1189 246L559 -270Q525 -298 499 -298Q473 -298 439 -270L-191 246Q-224 273 -217.5 299.5Q-211 326 -181 326H-40V987Q-40 1006 -29 1017Q-18 1028 0 1021L500 823L1000 1021Q1018 1028 1029 1017Q1040 1006 1040 987V326Z" glyph-name="arrowleft.chevron" horiz-adv-x="992" /><glyph d="M601 76Q602 60 593 52.5Q584 45 568 45H435Q419 45 410 52.5Q401 60 402 76L413 256H241Q225 256 217.5 274.5Q210 293 221 309L455 656Q464 670 475 678.5Q486 687 502 687Q518 687 528.5 678.5Q539 670 548 656L782 309Q793 293 785.5 274.5Q778 256 762 256H590Z" glyph-name="arrowright" horiz-adv-x="1001" unicode="&#8594;" /><glyph d="M1179 394H1040V-267Q1040 -286 1029 -297Q1018 -308 1000 -301L500 -103L0 -301Q-18 -308 -29 -297Q-40 -286 -40 -267V394H-181Q-211 394 -217.5 420.5Q-224 447 -191 474L439 990Q473 1018 499 1018Q525 1018 559 990L1189 474Q1202 463 1206.5 449Q1211 435 1209 423Q1207 411 1199 402.5Q1191 394 1179 394Z" glyph-name="arrowright.chevron" horiz-adv-x="992" /><glyph d="M790 460Q806 461 813.5 452Q821 443 821 427V294Q821 278 813.5 269Q806 260 790 261L610 272V100Q610 83 591.5 76Q573 69 557 80L210 314Q196 323 187.5 334Q179 345 179 361Q179 377 187.5 387.5Q196 398 210 407L557 641Q573 652 591.5 644.5Q610 637 610 621V449Z" glyph-name="arrowup" horiz-adv-x="1000" unicode="&#8593;" /><glyph d="M423 1043V900H1176Q1195 900 1206 889Q1217 878 1210 860L1012 360L1210 -140Q1217 -158 1206 -169Q1195 -180 1176 -180H423V-317Q423 -347 397 -353.5Q371 -360 343 -327L-173 299Q-201 333 -201 359Q-201 385 -173 419L343 1053Q354 1066 368 1070.5Q382 1075 394 1073Q406 1071 414.5 1063Q423 1055 423 1043Z" glyph-name="arrowup.chevron" horiz-adv-x="1014" /><glyph d="M751 517Q763 506 764 494.5Q765 483 752 471L618 353L739 231Q751 219 742.5 200.5Q734 182 715 178L305 99Q289 95 275 96.5Q261 98 250 109Q238 121 236.5 135Q235 149 239 165L318 575Q322 594 340.5 602.5Q359 611 371 599L493 478L611 612Q622 625 634 624Q646 623 656 611Z" glyph-name="arrowupleft" horiz-adv-x="1000" unicode="&#8598;" /><glyph d="M752 249Q765 237 764 225.5Q763 214 751 203L656 109Q646 97 634 96Q622 95 611 108L493 242L371 121Q359 109 340.5 117.5Q322 126 318 145L239 555Q235 571 236.5 585Q238 599 250 611Q261 622 275 623.5Q289 625 305 621L715 542Q734 538 742.5 519.5Q751 501 739 489L618 367Z" glyph-name="arrowupright" horiz-adv-x="1000" unicode="&#8599;" /><glyph d="M569 43 188 151Q126 169 93 200.5Q60 232 60 306V379Q60 453 93 484Q126 515 188 534L569 642Q588 646 596.5 638.5Q605 631 605 612L606 480Q607 461 598.5 451Q590 441 571 439L282 361Q272 359 268 355.5Q264 352 265 343Q264 333 268 329.5Q272 326 282 324L571 246Q590 244 598.5 234Q607 224 606 205L605 73Q605 54 596.5 46.5Q588 39 569 43Z" glyph-name="asciicircum" horiz-adv-x="686" unicode="^" /><glyph d="M274 360 269 320Q263 280 261 253Q259 226 261 204.5Q263 183 268 162.5Q273 142 282 114Q289 89 281.5 76Q274 63 257 63H151Q125 63 114 74Q103 85 98 100Q85 138 79 164Q73 190 72.5 214Q72 238 76 265.5Q80 293 86 336L89 360L93 391Q100 438 102.5 465.5Q105 493 103.5 513.5Q102 534 96.5 554Q91 574 82 605Q75 631 83 644Q91 657 113 657H212Q238 657 249 645Q260 633 265 620Q278 582 284 555.5Q290 529 290.5 505Q291 481 287 453Q283 425 277 383Z" glyph-name="asciitilde" horiz-adv-x="363" unicode="~" /><glyph d="M635 288Q656 276 658.5 266.5Q661 257 647 235L579 141Q564 120 554 119Q544 118 525 135L410 244L385 92Q381 67 372.5 61.5Q364 56 339 64L228 100Q203 107 199 117Q195 127 206 149L270 291L121 268Q96 264 88 271.5Q80 279 80 304V421Q80 446 88 452.5Q96 459 121 455L270 435L206 572Q195 594 199 603.5Q203 613 228 621L339 658Q364 666 372.5 660.5Q381 655 385 630L410 477L525 587Q544 604 554 603Q564 602 579 581L647 487Q661 465 658.5 456Q656 447 635 435L494 361Z" glyph-name="asterisk" horiz-adv-x="742" unicode="*" /><glyph d="M964 360Q964 248 946 175Q928 102 896 60.5Q864 19 818.5 2.5Q773 -14 719 -14H309Q254 -14 208.5 2.5Q163 19 130.5 60.5Q98 102 80 175Q62 248 62 360Q62 472 80 545Q98 618 130.5 659.5Q163 701 208.5 717Q254 733 309 733H569Q615 733 652.5 724.5Q690 716 716.5 691.5Q743 667 758 623Q773 579 773 509V320Q773 219 732.5 181.5Q692 144 627 144H434Q368 144 327.5 181.5Q287 219 287 320V545Q287 558 293.5 564.5Q300 571 313 571H662Q662 610 636.5 621.5Q611 633 571 633H305Q273 633 245.5 621Q218 609 199 579Q180 549 169 495.5Q158 442 158 360Q158 278 169 224.5Q180 171 199 140.5Q218 110 245.5 98Q273 86 305 86H723Q755 86 782 98Q809 110 828 140.5Q847 171 857.5 224.5Q868 278 868 360V550Q868 569 875.5 576.5Q883 584 902 584H930Q949 584 956.5 576.5Q964 569 964 550ZM602 307Q617 307 626.5 314Q636 321 636 341V408H415V351Q415 323 426.5 315Q438 307 451 307Z" glyph-name="at" horiz-adv-x="1026" unicode="@" /><glyph d="M902 61H658Q632 61 614.5 63Q597 65 580.5 69.5Q564 74 545 81.5Q526 89 498 100L291 177Q272 184 265 196.5Q258 209 258 228V487Q258 506 265 518Q272 530 291 537L498 624Q526 635 545 642.5Q564 650 580.5 654.5Q597 659 614.5 661Q632 663 658 663H902Q921 663 929.5 654.5Q938 646 938 627V476Q938 457 929.5 447Q921 437 902 437H782V280H902Q921 280 929.5 271.5Q938 263 938 244V97Q938 78 929.5 69.5Q921 61 902 61ZM468 337 600 290V427L468 380Q458 376 454.5 372.5Q451 369 451 361V356Q451 348 454.5 344.5Q458 341 468 337ZM215 359 211 331Q207 303 205.5 284Q204 265 205.5 250Q207 235 210.5 220.5Q214 206 220 186Q225 168 219 159Q213 150 194 150H93Q74 150 66.5 159.5Q59 169 52 186Q45 210 41.5 226Q38 242 38 257.5Q38 273 40.5 292.5Q43 312 47 342L49 359L52 381Q57 414 59 433.5Q61 453 60 467.5Q59 482 55 496Q51 510 44 532Q39 550 45 559Q51 568 70 568H171Q190 568 197.5 558.5Q205 549 212 532Q219 508 222.5 492Q226 476 226 460Q226 444 223.5 424.5Q221 405 217 375Z" glyph-name="atilde" horiz-adv-x="1005" unicode="&#227;" /><glyph d="M789 472V97Q789 78 780.5 69.5Q772 61 753 61H105Q86 61 77.5 69.5Q69 78 69 97V407Q69 508 112.5 553.5Q156 599 222 599H270Q308 599 336 586Q364 573 378 540Q383 594 423 630Q463 666 533 666H625Q700 666 744.5 617Q789 568 789 472ZM501 286H619V407Q619 431 607 438Q595 445 579 445H540Q524 445 512.5 438Q501 431 501 407ZM239 286H347V362Q347 386 335 393Q323 400 307 400H279Q263 400 251 393Q239 386 239 362Z" glyph-name="b" horiz-adv-x="861" unicode="b" /><glyph d="M41 408 869 528Q888 530 896.5 520.5Q905 511 905 492V347Q905 328 896.5 320.5Q888 313 869 311L41 191Q22 189 13.5 198.5Q5 208 5 227V372Q5 391 13.5 398.5Q22 406 41 408Z" glyph-name="backslash" horiz-adv-x="909" unicode="\" /><glyph d="M101 468H929Q948 468 956.5 459.5Q965 451 965 432V287Q965 268 956.5 259.5Q948 251 929 251H101Q82 251 73.5 259.5Q65 268 65 287V432Q65 451 73.5 459.5Q82 468 101 468Z" glyph-name="bar" horiz-adv-x="1030" unicode="|" /><glyph d="M-40 900H1040V-180H-40Z" glyph-name="block" horiz-adv-x="1000" unicode="&#9608;" /><glyph d="M312 560V445Q312 415 302.5 401Q293 387 267 383L234 377Q227 376 224 373Q221 370 221 363Q221 356 224 353Q227 350 234 349L267 343Q293 339 302.5 325Q312 311 312 281V164Q312 138 320.5 126Q329 114 353 114H374Q393 114 401.5 105.5Q410 97 410 78V-44Q410 -63 401.5 -71.5Q393 -80 374 -80H330Q189 -80 136.5 -22.5Q84 35 84 126V259Q52 269 36 289Q20 309 20 345V380Q20 416 36 436.5Q52 457 84 467V597Q84 687 136.5 744Q189 801 330 801H374Q393 801 401.5 792.5Q410 784 410 765V646Q410 627 401.5 618.5Q393 610 374 610H353Q329 610 320.5 598Q312 586 312 560Z" glyph-name="braceleft" horiz-adv-x="455" unicode="{" /><glyph d="M143 560Q143 586 134.5 598Q126 610 102 610H81Q62 610 53.5 618.5Q45 627 45 646V765Q45 784 53.5 792.5Q62 801 81 801H125Q266 801 318.5 744Q371 687 371 597V467Q403 457 419 436.5Q435 416 435 380V345Q435 309 419 289Q403 269 371 259V126Q371 35 318.5 -22.5Q266 -80 125 -80H81Q62 -80 53.5 -71.5Q45 -63 45 -44V78Q45 97 53.5 105.5Q62 114 81 114H102Q126 114 134.5 126Q143 138 143 164V281Q143 311 152.5 325Q162 339 188 343L221 349Q228 350 231 353Q234 356 234 363Q234 370 231 373Q228 376 221 377L188 383Q162 387 152.5 401Q143 415 143 445Z" glyph-name="braceright" horiz-adv-x="455" unicode="}" /><glyph d="M276 610V114H348Q367 114 375.5 105.5Q384 97 384 78V-44Q384 -63 375.5 -71.5Q367 -80 348 -80H84Q65 -80 56.5 -71.5Q48 -63 48 -44V765Q48 784 56.5 792.5Q65 801 84 801H348Q367 801 375.5 792.5Q384 784 384 765V646Q384 627 375.5 618.5Q367 610 348 610Z" glyph-name="bracketleft" horiz-adv-x="429" unicode="[" /><glyph d="M153 114V610H81Q62 610 53.5 618.5Q45 627 45 646V765Q45 784 53.5 792.5Q62 801 81 801H345Q364 801 372.5 792.5Q381 784 381 765V-44Q381 -63 372.5 -71.5Q364 -80 345 -80H81Q62 -80 53.5 -71.5Q45 -63 45 -44V78Q45 97 53.5 105.5Q62 114 81 114Z" glyph-name="bracketright" horiz-adv-x="429" unicode="]" /><glyph d="M107 577Q139 577 165.5 567.5Q192 558 210.5 533.5Q229 509 239.5 467Q250 425 250 360Q250 295 239.5 253Q229 211 210.5 186.5Q192 162 165.5 152.5Q139 143 107 143H63Q44 143 35.5 151.5Q27 160 27 179V275Q27 291 33.5 297.5Q40 304 58 304H79Q93 304 102.5 314Q112 324 112 361Q112 398 102.5 409Q93 420 79 420H58Q40 420 33.5 426.5Q27 433 27 450V541Q27 560 35.5 568.5Q44 577 63 577Z" glyph-name="breve" horiz-adv-x="267" unicode="&#728;" /><glyph d="M101 468H439Q458 468 466.5 459.5Q475 451 475 432V287Q475 268 466.5 259.5Q458 251 439 251H101Q82 251 73.5 259.5Q65 268 65 287V432Q65 451 73.5 459.5Q82 468 101 468ZM591 468H929Q948 468 956.5 459.5Q965 451 965 432V287Q965 268 956.5 259.5Q948 251 929 251H591Q572 251 563.5 259.5Q555 268 555 287V432Q555 451 563.5 459.5Q572 468 591 468Z" glyph-name="brokenbar" horiz-adv-x="1030" unicode="&#166;" /><glyph d="M434 500V219Q434 200 425.5 191.5Q417 183 398 183H116Q97 183 88.5 191.5Q80 200 80 219V500Q80 519 88.5 527.5Q97 536 116 536H398Q417 536 425.5 527.5Q434 519 434 500Z" glyph-name="bullet" horiz-adv-x="514" unicode="&#8226;" /><glyph d="M792 615V302Q792 161 735 108.5Q678 56 588 56H277Q186 56 129 108.5Q72 161 72 302V615Q72 634 80.5 642.5Q89 651 108 651H229Q248 651 256.5 642.5Q265 634 265 615V345Q265 306 280.5 295Q296 284 315 284H553Q574 284 587.5 295Q601 306 601 345V615Q601 634 609.5 642.5Q618 651 637 651H756Q775 651 783.5 642.5Q792 634 792 615Z" glyph-name="c" horiz-adv-x="864" unicode="c" /><glyph d="M193 543 236 194Q238 177 229 168.5Q220 160 203 160H107Q88 160 80.5 168.5Q73 177 71 196L28 545Q26 562 35 570.5Q44 579 61 579H157Q176 579 183.5 570.5Q191 562 193 543ZM948 615V302Q948 161 891 108.5Q834 56 744 56H473Q382 56 325 108.5Q268 161 268 302V615Q268 634 276.5 642.5Q285 651 304 651H425Q444 651 452.5 642.5Q461 634 461 615V345Q461 306 476.5 295Q492 284 511 284H709Q730 284 743.5 295Q757 306 757 345V615Q757 634 765.5 642.5Q774 651 793 651H912Q931 651 939.5 642.5Q948 634 948 615Z" glyph-name="cacute" horiz-adv-x="1020" unicode="&#263;" /><glyph d="M72 391 32 528Q24 553 30 561Q36 569 63 569H144Q171 569 179 560.5Q187 552 197 528L243 400Q247 391 249 380.5Q251 370 252 361Q252 352 251 344Q250 336 247 329L197 192Q187 167 179 158.5Q171 150 144 150H63Q36 150 30 158Q24 166 32 192L72 329Q76 346 76 360Q76 374 72 391Z" glyph-name="caron" horiz-adv-x="269" unicode="&#711;" /><glyph d="M295 389V265Q295 246 286.5 236Q278 226 259 229L63 262Q44 265 35.5 272Q27 279 27 298V436Q27 455 36 465.5Q45 476 63 472L259 425Q277 421 286 414.5Q295 408 295 389Z" glyph-name="caron.2" horiz-adv-x="322" /><glyph d="M72 401 32 538Q24 563 30 571Q36 579 63 579H144Q171 579 179 570.5Q187 562 197 538L243 410Q247 401 249 390.5Q251 380 252 371Q252 362 251 354Q250 346 247 339L197 202Q187 177 179 168.5Q171 160 144 160H63Q36 160 30 168Q24 176 32 202L72 339Q76 356 76 370Q76 384 72 401ZM964 615V302Q964 161 907 108.5Q850 56 760 56H489Q398 56 341 108.5Q284 161 284 302V615Q284 634 292.5 642.5Q301 651 320 651H441Q460 651 468.5 642.5Q477 634 477 615V345Q477 306 492.5 295Q508 284 527 284H725Q746 284 759.5 295Q773 306 773 345V615Q773 634 781.5 642.5Q790 651 809 651H928Q947 651 955.5 642.5Q964 634 964 615Z" glyph-name="ccaron" horiz-adv-x="1036" unicode="&#269;" /><glyph d="M838 238 751 270Q744 148 688.5 102Q633 56 548 56H277Q186 56 129 108.5Q72 161 72 302V615Q72 634 80.5 642.5Q89 651 108 651H229Q248 651 256.5 642.5Q265 634 265 615V345Q265 306 280.5 295Q296 284 315 284H513Q534 284 547.5 295Q561 306 561 345V615Q561 634 569.5 642.5Q578 651 597 651H716Q735 651 743.5 642.5Q752 634 752 615V474L848 440Q864 435 871 424Q878 413 878 394V268Q878 243 867 237Q856 231 838 238Z" glyph-name="ccedilla" horiz-adv-x="905" unicode="&#231;" /><glyph d="M197 338 237 201Q245 176 239 168Q233 160 206 160H125Q98 160 90 168.5Q82 177 72 201L26 329Q22 338 20 348.5Q18 359 17 368Q17 377 18 385Q19 393 22 400L72 537Q82 562 90 570.5Q98 579 125 579H206Q233 579 239 571Q245 563 237 537L197 400Q193 383 193 369Q193 355 197 338ZM954 615V302Q954 161 897 108.5Q840 56 750 56H479Q388 56 331 108.5Q274 161 274 302V615Q274 634 282.5 642.5Q291 651 310 651H431Q450 651 458.5 642.5Q467 634 467 615V345Q467 306 482.5 295Q498 284 517 284H715Q736 284 749.5 295Q763 306 763 345V615Q763 634 771.5 642.5Q780 651 799 651H918Q937 651 945.5 642.5Q954 634 954 615Z" glyph-name="ccircumflex" horiz-adv-x="1026" unicode="&#265;" /><glyph d="M216 450V292Q216 273 207.5 264.5Q199 256 180 256H53Q34 256 25.5 264.5Q17 273 17 292V450Q17 469 25.5 477.5Q34 486 53 486H180Q199 486 207.5 477.5Q216 469 216 450ZM936 615V302Q936 161 879 108.5Q822 56 732 56H461Q370 56 313 108.5Q256 161 256 302V615Q256 634 264.5 642.5Q273 651 292 651H413Q432 651 440.5 642.5Q449 634 449 615V345Q449 306 464.5 295Q480 284 499 284H697Q718 284 731.5 295Q745 306 745 345V615Q745 634 753.5 642.5Q762 651 781 651H900Q919 651 927.5 642.5Q936 634 936 615Z" glyph-name="cdotaccent" horiz-adv-x="1008" unicode="&#267;" /><glyph d="M273 374V248Q273 223 262 217Q251 211 233 218L3 303Q-13 309 -18.5 319Q-24 329 -17 347L26 463Q32 479 42 483.5Q52 488 66 483L243 420Q259 415 266 404Q273 393 273 374Z" glyph-name="cedilla" horiz-adv-x="301" unicode="&#184;" /><glyph d="M839 300H783Q773 189 718 146.5Q663 104 581 104H350Q268 104 212.5 146.5Q157 189 147 300H91Q72 300 63.5 308.5Q55 317 55 336V481Q55 500 63.5 508.5Q72 517 91 517H145V594Q145 613 153.5 621.5Q162 630 181 630H302Q321 630 329.5 621.5Q338 613 338 594V393Q338 354 353.5 343Q369 332 388 332H546Q567 332 580.5 343Q594 354 594 393V594Q594 613 602.5 621.5Q611 630 630 630H749Q768 630 776.5 621.5Q785 613 785 594V517H839Q858 517 866.5 508.5Q875 500 875 481V336Q875 317 866.5 308.5Q858 300 839 300Z" glyph-name="cent" horiz-adv-x="930" unicode="&#162;" /><glyph d="M197 328 237 191Q245 166 239 158Q233 150 206 150H125Q98 150 90 158.5Q82 167 72 191L26 319Q22 328 20 338.5Q18 349 17 358Q17 367 18 375Q19 383 22 390L72 527Q82 552 90 560.5Q98 569 125 569H206Q233 569 239 561Q245 553 237 527L197 390Q193 373 193 359Q193 345 197 328Z" glyph-name="circumflex" horiz-adv-x="269" unicode="&#710;" /><glyph d="M705 461V259Q705 240 696.5 231.5Q688 223 669 223H466Q447 223 438.5 231.5Q430 240 430 259V461Q430 480 438.5 488.5Q447 497 466 497H669Q688 497 696.5 488.5Q705 480 705 461ZM350 461V259Q350 240 341.5 231.5Q333 223 314 223H111Q92 223 83.5 231.5Q75 240 75 259V461Q75 480 83.5 488.5Q92 497 111 497H314Q333 497 341.5 488.5Q350 480 350 461Z" glyph-name="colon" horiz-adv-x="784" unicode=":" /><glyph d="M447 349V272Q447 253 438.5 244.5Q430 236 411 236H371Q352 236 343.5 244.5Q335 253 335 272V341Q335 354 327.5 361Q320 368 307 368H292V259Q292 240 283.5 231.5Q275 223 256 223H108Q89 223 80.5 231.5Q72 240 72 259V461Q72 480 80.5 488.5Q89 497 108 497H296Q372 497 409.5 456.5Q447 416 447 349Z" glyph-name="comma" horiz-adv-x="499" unicode="," /><glyph d="M297 352V286Q297 270 289.5 263Q282 256 266 256H242Q226 256 219 263Q212 270 212 286V345Q212 356 205.5 362Q199 368 188 368H175V282Q175 261 166.5 253Q158 245 136 245H57Q34 245 25.5 253Q17 261 17 282V440Q17 461 25.5 469Q34 477 57 477H169Q233 477 265 443Q297 409 297 352Z" glyph-name="commaaccent" horiz-adv-x="309" unicode="&#806;" /><glyph d="M719 733Q773 733 818.5 717Q864 701 896 659.5Q928 618 946 545Q964 472 964 360Q964 248 946 175Q928 102 896 60.5Q864 19 818.5 2.5Q773 -14 719 -14H309Q254 -14 208.5 2.5Q163 19 130.5 60.5Q98 102 80 175Q62 248 62 360Q62 472 80 545Q98 618 130.5 659.5Q163 701 208.5 717Q254 733 309 733ZM723 633H305Q273 633 245.5 621Q218 609 199 579Q180 549 169 495.5Q158 442 158 360Q158 278 169 224.5Q180 171 199 140.5Q218 110 245.5 98Q273 86 305 86H723Q755 86 782 98Q809 110 828 140.5Q847 171 857.5 224.5Q868 278 868 360Q868 442 857.5 495.5Q847 549 828 579Q809 609 782 621Q755 633 723 633ZM763 515V340Q763 239 722.5 201.5Q682 164 617 164H394Q328 164 287.5 201.5Q247 239 247 340V515Q247 528 253.5 534.5Q260 541 273 541H360Q373 541 379 534.5Q385 528 385 515V371Q385 343 396.5 335Q408 327 421 327H592Q607 327 616.5 335Q626 343 626 371V515Q626 528 632.5 534.5Q639 541 652 541H737Q750 541 756.5 534.5Q763 528 763 515Z" glyph-name="copyright" horiz-adv-x="1025" unicode="&#169;" /><glyph d="M513 282Q532 282 545 296.5Q558 311 558 362Q558 413 545 427.5Q532 442 513 442H372Q353 442 340.5 427.5Q328 413 328 362Q328 311 340.5 296.5Q353 282 372 282ZM215 8Q203 -5 191.5 -5Q180 -5 167 8L91 84Q78 97 78 109Q78 121 91 133L176 218Q167 245 162.5 281Q158 317 158 362Q158 406 162.5 441Q167 476 175 503L91 587Q78 599 77.5 610.5Q77 622 91 635L167 711Q180 725 191.5 724.5Q203 724 215 711L305 621Q314 622 323.5 622.5Q333 623 343 623H542Q552 623 561 622.5Q570 622 579 621L669 711Q681 724 692.5 724.5Q704 725 718 711L794 635Q807 622 807 610.5Q807 599 794 587L710 503Q717 476 721.5 441Q726 406 726 362Q726 317 721.5 281.5Q717 246 709 218L794 133Q807 121 807 109.5Q807 98 794 84L718 8Q705 -5 693 -5Q681 -5 669 8L575 102Q568 101 559 100.5Q550 100 542 100H343Q334 100 325.5 100.5Q317 101 309 102Z" glyph-name="currency" horiz-adv-x="884" unicode="&#164;" /><glyph d="M792 419V96Q792 77 783.5 68.5Q775 60 756 60H108Q89 60 80.5 68.5Q72 77 72 96V419Q72 560 129 612.5Q186 665 276 665H588Q678 665 735 612.5Q792 560 792 419ZM263 287H603V392Q603 422 588.5 430.5Q574 439 554 439H311Q292 439 277.5 430.5Q263 422 263 392Z" glyph-name="d" horiz-adv-x="864" unicode="d" /><glyph d="M800 432V288Q800 262 792.5 255Q785 248 759 249L449 267L464 93Q467 67 460.5 59Q454 51 428 51H286Q260 51 253.5 59Q247 67 249 93L265 258L121 249Q95 248 87.5 255Q80 262 80 288V432Q80 458 87.5 465Q95 472 121 471L265 462L249 627Q247 653 253.5 661Q260 669 286 669H428Q454 669 460.5 661Q467 653 464 627L449 452L759 471Q785 472 792.5 465Q800 458 800 432Z" glyph-name="dagger" horiz-adv-x="880" unicode="&#8224;" /><glyph d="M379 94Q382 68 375 60Q368 52 342 52H211Q186 52 179 60Q172 68 174 94L190 259L104 252Q78 250 70 256.5Q62 263 62 289V433Q62 459 70 465.5Q78 472 104 470L190 463L174 628Q172 654 179 662Q186 670 211 670H342Q368 670 375 662Q382 654 379 628L363 453L431 473H454L521 453L505 628Q502 654 509 662Q516 670 542 670H673Q699 670 706 662Q713 654 711 628L694 463L780 470Q807 472 814.5 465.5Q822 459 822 433V289Q822 263 814.5 256.5Q807 250 780 252L694 259L711 94Q713 68 706 60Q699 52 673 52H542Q516 52 509 60Q502 68 505 94L521 268L454 249Q452 248 449 248Q446 248 442 248Q439 248 436 248Q433 248 431 249L363 268Z" glyph-name="daggerdbl" horiz-adv-x="884" unicode="&#8225;" /><glyph d="M964 419V96Q964 77 955.5 68.5Q947 60 928 60H320Q301 60 292.5 68.5Q284 77 284 96V419Q284 560 341 612.5Q398 665 488 665H760Q850 665 907 612.5Q964 560 964 419ZM475 287H775V392Q775 422 760.5 430.5Q746 439 726 439H523Q504 439 489.5 430.5Q475 422 475 392ZM72 391 32 528Q24 553 30 561Q36 569 63 569H144Q171 569 179 560.5Q187 552 197 528L243 400Q247 391 249 380.5Q251 370 252 361Q252 352 251 344Q250 336 247 329L197 192Q187 167 179 158.5Q171 150 144 150H63Q36 150 30 158Q24 166 32 192L72 329Q76 346 76 360Q76 374 72 391Z" glyph-name="dcaron" horiz-adv-x="1036" unicode="&#271;" /><glyph d="M535 37Q535 18 526.5 9.5Q518 1 499 1H392Q373 1 364.5 9.5Q356 18 356 37V60H116Q97 60 88.5 68.5Q80 77 80 96V414Q80 555 137 607.5Q194 660 284 660H596Q686 660 743 607.5Q800 555 800 414V96Q800 77 791.5 68.5Q783 60 764 60H535ZM271 284H356V326Q356 345 364.5 353.5Q373 362 392 362H499Q518 362 526.5 353.5Q535 345 535 326V284H611V387Q611 417 596.5 425.5Q582 434 562 434H319Q300 434 285.5 425.5Q271 417 271 387Z" glyph-name="dcroat" horiz-adv-x="880" unicode="&#273;" /><glyph d="M362 556Q388 556 409.5 547.5Q431 539 446 517Q461 495 469.5 457Q478 419 478 360Q478 301 469.5 262.5Q461 224 446 202Q431 180 409.5 171.5Q388 163 362 163H178Q152 163 130.5 171.5Q109 180 94 202Q79 224 70.5 262.5Q62 301 62 360Q62 419 70.5 457Q79 495 94 517Q109 539 130.5 547.5Q152 556 178 556ZM313 310Q325 310 332.5 319.5Q340 329 340 360Q340 391 332.5 400.5Q325 410 313 410H228Q217 410 208.5 401.5Q200 393 200 360Q200 329 208.5 319.5Q217 310 228 310Z" glyph-name="degree" horiz-adv-x="540" unicode="&#176;" /><glyph d="M229 556V418Q229 401 221 393Q213 385 196 385H75Q58 385 50 393Q42 401 42 418V556Q42 573 50 581Q58 589 75 589H196Q213 589 221 581Q229 573 229 556ZM229 298V160Q229 143 221 134.5Q213 126 196 126H75Q58 126 50 134.5Q42 143 42 160V298Q42 315 50 323Q58 331 75 331H196Q213 331 221 323Q229 315 229 298Z" glyph-name="dieresis" horiz-adv-x="271" unicode="&#168;" /><glyph d="M452 99Q452 80 443.5 71.5Q435 63 416 63H322Q303 63 294.5 71.5Q286 80 286 99V621Q286 640 294.5 648.5Q303 657 322 657H416Q435 657 443.5 648.5Q452 640 452 621ZM246 441V279Q246 260 237.5 251.5Q229 243 210 243H87Q68 243 59.5 251.5Q51 260 51 279V441Q51 460 59.5 468.5Q68 477 87 477H210Q229 477 237.5 468.5Q246 460 246 441ZM687 441V279Q687 260 678.5 251.5Q670 243 651 243H528Q509 243 500.5 251.5Q492 260 492 279V441Q492 460 500.5 468.5Q509 477 528 477H651Q670 477 678.5 468.5Q687 460 687 441Z" glyph-name="divide" horiz-adv-x="738" unicode="&#247;" /><glyph d="M592 241Q582 171 546 128.5Q510 86 426 86H321Q243 86 198.5 132Q154 178 147 259H91Q72 259 63.5 267.5Q55 276 55 295V440Q55 459 63.5 467.5Q72 476 91 476H145V573Q145 592 153.5 600.5Q162 609 181 609H300Q319 609 327.5 600.5Q336 592 336 573V340Q336 327 344.5 320Q353 313 366 313Q379 313 388 320Q397 327 398 340L418 489Q428 559 464 602Q500 645 584 645H689Q765 645 810 600Q855 555 863 476H919Q938 476 946.5 467.5Q955 459 955 440V295Q955 276 946.5 267.5Q938 259 919 259H865V122Q865 103 856.5 94.5Q848 86 829 86H712Q693 86 684.5 94.5Q676 103 676 122V391Q676 404 667.5 410.5Q659 417 647 417Q630 417 622 410.5Q614 404 613 391Z" glyph-name="dollar" horiz-adv-x="1010" unicode="$" /><glyph d="M216 440V282Q216 263 207.5 254.5Q199 246 180 246H53Q34 246 25.5 254.5Q17 263 17 282V440Q17 459 25.5 467.5Q34 476 53 476H180Q199 476 207.5 467.5Q216 459 216 440Z" glyph-name="dotaccent" horiz-adv-x="233" unicode="&#729;" /><glyph d="M800 105Q800 86 791.5 77.5Q783 69 764 69H645Q626 69 617.5 77.5Q609 86 609 105V239H273V105Q273 86 264.5 77.5Q256 69 237 69H116Q97 69 88.5 77.5Q80 86 80 105V615Q80 634 88.5 642.5Q97 651 116 651H237Q256 651 264.5 642.5Q273 634 273 615V481H609V615Q609 634 617.5 642.5Q626 651 645 651H764Q783 651 791.5 642.5Q800 634 800 615Z" glyph-name="dotlessi" horiz-adv-x="880" unicode="&#305;" /><glyph d="M800 615V97Q800 78 791.5 69.5Q783 61 764 61H116Q97 61 88.5 69.5Q80 78 80 97V615Q80 634 88.5 642.5Q97 651 116 651H233Q252 651 260.5 642.5Q269 634 269 615V285H346V534Q346 553 354.5 561.5Q363 570 382 570H489Q508 570 516.5 561.5Q525 553 525 534V285H611V615Q611 634 619.5 642.5Q628 651 647 651H764Q783 651 791.5 642.5Q800 634 800 615Z" glyph-name="e" horiz-adv-x="880" unicode="e" /><glyph d="M948 614V96Q948 77 939.5 68.5Q931 60 912 60H304Q285 60 276.5 68.5Q268 77 268 96V614Q268 633 276.5 641.5Q285 650 304 650H417Q436 650 444.5 641.5Q453 633 453 614V284H520V533Q520 552 528.5 560.5Q537 569 556 569H651Q670 569 678.5 560.5Q687 552 687 533V284H763V614Q763 633 771.5 641.5Q780 650 799 650H912Q931 650 939.5 641.5Q948 633 948 614ZM193 533 236 184Q238 167 229 158.5Q220 150 203 150H107Q88 150 80.5 158.5Q73 167 71 186L28 535Q26 552 35 560.5Q44 569 61 569H157Q176 569 183.5 560.5Q191 552 193 533Z" glyph-name="eacute" horiz-adv-x="1028" unicode="&#233;" /><glyph d="M107 577Q139 577 165.5 567.5Q192 558 210.5 533.5Q229 509 239.5 467Q250 425 250 360Q250 295 239.5 253Q229 211 210.5 186.5Q192 162 165.5 152.5Q139 143 107 143H63Q44 143 35.5 151.5Q27 160 27 179V275Q27 291 33.5 297.5Q40 304 58 304H79Q93 304 102.5 314Q112 324 112 361Q112 398 102.5 409Q93 420 79 420H58Q40 420 33.5 426.5Q27 433 27 450V541Q27 560 35.5 568.5Q44 577 63 577ZM964 614V96Q964 77 955.5 68.5Q947 60 928 60H320Q301 60 292.5 68.5Q284 77 284 96V614Q284 633 292.5 641.5Q301 650 320 650H433Q452 650 460.5 641.5Q469 633 469 614V284H536V533Q536 552 544.5 560.5Q553 569 572 569H667Q686 569 694.5 560.5Q703 552 703 533V284H779V614Q779 633 787.5 641.5Q796 650 815 650H928Q947 650 955.5 641.5Q964 633 964 614Z" glyph-name="ebreve" horiz-adv-x="1044" unicode="&#277;" /><glyph d="M72 391 32 528Q24 553 30 561Q36 569 63 569H144Q171 569 179 560.5Q187 552 197 528L243 400Q247 391 249 380.5Q251 370 252 361Q252 352 251 344Q250 336 247 329L197 192Q187 167 179 158.5Q171 150 144 150H63Q36 150 30 158Q24 166 32 192L72 329Q76 346 76 360Q76 374 72 391ZM964 614V96Q964 77 955.5 68.5Q947 60 928 60H320Q301 60 292.5 68.5Q284 77 284 96V614Q284 633 292.5 641.5Q301 650 320 650H433Q452 650 460.5 641.5Q469 633 469 614V284H536V533Q536 552 544.5 560.5Q553 569 572 569H667Q686 569 694.5 560.5Q703 552 703 533V284H779V614Q779 633 787.5 641.5Q796 650 815 650H928Q947 650 955.5 641.5Q964 633 964 614Z" glyph-name="ecaron" horiz-adv-x="1044" unicode="&#283;" /><glyph d="M197 328 237 191Q245 166 239 158Q233 150 206 150H125Q98 150 90 158.5Q82 167 72 191L26 319Q22 328 20 338.5Q18 349 17 358Q17 367 18 375Q19 383 22 390L72 527Q82 552 90 560.5Q98 569 125 569H206Q233 569 239 561Q245 553 237 527L197 390Q193 373 193 359Q193 345 197 328ZM994 615V97Q994 78 985.5 69.5Q977 61 958 61H310Q291 61 282.5 69.5Q274 78 274 97V615Q274 634 282.5 642.5Q291 651 310 651H427Q446 651 454.5 642.5Q463 634 463 615V285H540V534Q540 553 548.5 561.5Q557 570 576 570H683Q702 570 710.5 561.5Q719 553 719 534V285H805V615Q805 634 813.5 642.5Q822 651 841 651H958Q977 651 985.5 642.5Q994 634 994 615Z" glyph-name="ecircumflex" horiz-adv-x="1074" unicode="&#234;" /><glyph d="M229 556V418Q229 401 221 393Q213 385 196 385H75Q58 385 50 393Q42 401 42 418V556Q42 573 50 581Q58 589 75 589H196Q213 589 221 581Q229 573 229 556ZM229 298V160Q229 143 221 134.5Q213 126 196 126H75Q58 126 50 134.5Q42 143 42 160V298Q42 315 50 323Q58 331 75 331H196Q213 331 221 323Q229 315 229 298ZM949 614V96Q949 77 940.5 68.5Q932 60 913 60H305Q286 60 277.5 68.5Q269 77 269 96V614Q269 633 277.5 641.5Q286 650 305 650H418Q437 650 445.5 641.5Q454 633 454 614V284H521V533Q521 552 529.5 560.5Q538 569 557 569H652Q671 569 679.5 560.5Q688 552 688 533V284H764V614Q764 633 772.5 641.5Q781 650 800 650H913Q932 650 940.5 641.5Q949 633 949 614Z" glyph-name="edieresis" horiz-adv-x="1029" unicode="&#235;" /><glyph d="M216 440V282Q216 263 207.5 254.5Q199 246 180 246H53Q34 246 25.5 254.5Q17 263 17 282V440Q17 459 25.5 467.5Q34 476 53 476H180Q199 476 207.5 467.5Q216 459 216 440ZM936 614V96Q936 77 927.5 68.5Q919 60 900 60H292Q273 60 264.5 68.5Q256 77 256 96V614Q256 633 264.5 641.5Q273 650 292 650H405Q424 650 432.5 641.5Q441 633 441 614V284H508V533Q508 552 516.5 560.5Q525 569 544 569H639Q658 569 666.5 560.5Q675 552 675 533V284H751V614Q751 633 759.5 641.5Q768 650 787 650H900Q919 650 927.5 641.5Q936 633 936 614Z" glyph-name="edotaccent" horiz-adv-x="1016" unicode="&#279;" /><glyph d="M236 535 193 186Q191 167 183.5 158.5Q176 150 157 150H61Q44 150 35 158.5Q26 167 28 184L71 533Q73 552 80.5 560.5Q88 569 107 569H203Q220 569 229 560.5Q238 552 236 535ZM948 614V96Q948 77 939.5 68.5Q931 60 912 60H304Q285 60 276.5 68.5Q268 77 268 96V614Q268 633 276.5 641.5Q285 650 304 650H417Q436 650 444.5 641.5Q453 633 453 614V284H520V533Q520 552 528.5 560.5Q537 569 556 569H651Q670 569 678.5 560.5Q687 552 687 533V284H763V614Q763 633 771.5 641.5Q780 650 799 650H912Q931 650 939.5 641.5Q948 633 948 614Z" glyph-name="egrave" horiz-adv-x="1028" unicode="&#232;" /><glyph d="M536 666H633Q672 666 704 652Q736 638 759 603.5Q782 569 794.5 510Q807 451 807 361Q807 271 794.5 211.5Q782 152 759 117.5Q736 83 704 69Q672 55 633 55H536Q466 55 428 84Q390 113 381 158Q367 125 339 112Q311 99 273 99H215Q178 99 149 112Q120 125 99.5 155Q79 185 68 236Q57 287 57 362Q57 437 68 487.5Q79 538 99.5 567.5Q120 597 149 609.5Q178 622 215 622H273Q311 622 339 609Q367 596 381 563Q390 608 428 637Q466 666 536 666ZM595 276Q611 276 621.5 291.5Q632 307 632 361Q632 415 621.5 430Q611 445 595 445H542Q527 445 516.5 430Q506 415 506 361Q506 307 516.5 291.5Q527 276 542 276ZM312 298Q328 298 338.5 308.5Q349 319 349 361Q349 404 338.5 413.5Q328 423 312 423H268Q253 423 242.5 413.5Q232 404 232 361Q232 319 242.5 308.5Q253 298 268 298Z" glyph-name="eight" horiz-adv-x="864" unicode="8" /><glyph d="M355 824V622Q355 603 346.5 594.5Q338 586 319 586H116Q97 586 88.5 594.5Q80 603 80 622V824Q80 843 88.5 851.5Q97 860 116 860H319Q338 860 346.5 851.5Q355 843 355 824ZM355 461V259Q355 240 346.5 231.5Q338 223 319 223H116Q97 223 88.5 231.5Q80 240 80 259V461Q80 480 88.5 488.5Q97 497 116 497H319Q338 497 346.5 488.5Q355 480 355 461ZM355 98V-104Q355 -123 346.5 -131.5Q338 -140 319 -140H116Q97 -140 88.5 -131.5Q80 -123 80 -104V98Q80 117 88.5 125.5Q97 134 116 134H319Q338 134 346.5 125.5Q355 117 355 98Z" glyph-name="ellipsis" horiz-adv-x="435" unicode="&#8230;" /><glyph d="M207 533V186Q207 167 198.5 158.5Q190 150 171 150H78Q59 150 50.5 158.5Q42 167 42 186V533Q42 552 50.5 560.5Q59 569 78 569H171Q190 569 198.5 560.5Q207 552 207 533ZM927 614V96Q927 77 918.5 68.5Q910 60 891 60H283Q264 60 255.5 68.5Q247 77 247 96V614Q247 633 255.5 641.5Q264 650 283 650H396Q415 650 423.5 641.5Q432 633 432 614V284H499V533Q499 552 507.5 560.5Q516 569 535 569H630Q649 569 657.5 560.5Q666 552 666 533V284H742V614Q742 633 750.5 641.5Q759 650 778 650H891Q910 650 918.5 641.5Q927 633 927 614Z" glyph-name="emacron" horiz-adv-x="1007" unicode="&#275;" /><glyph d="M1028 463Q1047 463 1055.5 454.5Q1064 446 1064 427V293Q1064 274 1055.5 265.5Q1047 257 1028 257H106Q87 257 78.5 265.5Q70 274 70 293V427Q70 446 78.5 454.5Q87 463 106 463Z" glyph-name="emdash" horiz-adv-x="1134" unicode="&#8212;" /><glyph glyph-name="emspace" horiz-adv-x="1000" /><glyph d="M628 463Q647 463 655.5 454.5Q664 446 664 427V293Q664 274 655.5 265.5Q647 257 628 257H106Q87 257 78.5 265.5Q70 274 70 293V427Q70 446 78.5 454.5Q87 463 106 463Z" glyph-name="endash" horiz-adv-x="734" unicode="&#8211;" /><glyph d="M271 60Q225 60 187.5 73.5Q150 87 123.5 120.5Q97 154 82 212.5Q67 271 67 360Q67 449 82 507.5Q97 566 123.5 599.5Q150 633 187.5 646.5Q225 660 271 660H668Q759 660 816 607.5Q873 555 873 414V369Q873 350 864.5 341.5Q856 333 837 333H717Q698 333 689.5 341.5Q681 350 681 369V390Q681 416 667.5 423.5Q654 431 633 431H310Q290 431 276.5 417.5Q263 404 263 358Q263 312 276.5 298Q290 284 310 284H747Q766 284 774.5 275.5Q783 267 783 248V96Q783 77 774.5 68.5Q766 60 747 60Z" glyph-name="eng" horiz-adv-x="930" unicode="&#331;" /><glyph d="M724 60H116Q97 60 88.5 68.5Q80 77 80 96V614Q80 633 88.5 641.5Q97 650 116 650H229Q248 650 256.5 641.5Q265 633 265 614V284H332V533Q332 552 340.5 560.5Q349 569 368 569H463Q482 569 490.5 560.5Q499 552 499 533V284H575V614Q575 633 583.5 641.5Q592 650 611 650H724Q743 650 751.5 641.5Q760 633 760 614V580L806 573V614Q806 635 813.5 642.5Q821 650 840 650H912Q931 650 938.5 643Q946 636 946 617V506Q946 442 913 418.5Q880 395 811 405L760 414V96Q760 77 751.5 68.5Q743 60 724 60Z" glyph-name="eogonek" horiz-adv-x="963" unicode="&#281;" /><glyph d="M266 99Q266 80 257.5 71.5Q249 63 230 63H116Q97 63 88.5 71.5Q80 80 80 99V621Q80 640 88.5 648.5Q97 657 116 657H230Q249 657 257.5 648.5Q266 640 266 621ZM566 99Q566 80 557.5 71.5Q549 63 530 63H416Q397 63 388.5 71.5Q380 80 380 99V621Q380 640 388.5 648.5Q397 657 416 657H530Q549 657 557.5 648.5Q566 640 566 621Z" glyph-name="equal" horiz-adv-x="646" unicode="=" /><glyph d="M320 -104Q320 -123 311.5 -131.5Q303 -140 284 -140H216Q197 -140 188.5 -131.5Q180 -123 180 -104V824Q180 843 188.5 851.5Q197 860 216 860H284Q303 860 311.5 851.5Q320 843 320 824ZM820 -104Q820 -123 811.5 -131.5Q803 -140 784 -140H716Q697 -140 688.5 -131.5Q680 -123 680 -104V824Q680 843 688.5 851.5Q697 860 716 860H784Q803 860 811.5 851.5Q820 843 820 824Z" glyph-name="equal.salt" horiz-adv-x="1000" /><glyph d="M535 37Q535 18 526.5 9.5Q518 1 499 1H392Q373 1 364.5 9.5Q356 18 356 37V60H116Q97 60 88.5 68.5Q80 77 80 96V414Q80 555 137 607.5Q194 660 284 660H596Q686 660 743 607.5Q800 555 800 414V96Q800 77 791.5 68.5Q783 60 764 60H535ZM271 284H356V326Q356 345 364.5 353.5Q373 362 392 362H499Q518 362 526.5 353.5Q535 345 535 326V284H611V387Q611 417 596.5 425.5Q582 434 562 434H319Q300 434 285.5 425.5Q271 417 271 387Z" glyph-name="eth" horiz-adv-x="880" unicode="&#240;" /><glyph d="M513 438V283Q513 264 504.5 255.5Q496 247 477 246L91 231Q72 230 63.5 238Q55 246 55 265V456Q55 475 63.5 483Q72 491 91 490L477 476Q496 475 504.5 466Q513 457 513 438ZM775 453V269Q775 250 766.5 241.5Q758 233 739 233H608Q589 233 580.5 241.5Q572 250 572 269V453Q572 472 580.5 480.5Q589 489 608 489H739Q758 489 766.5 480.5Q775 472 775 453Z" glyph-name="exclam" horiz-adv-x="830" unicode="!" /><glyph d="M317 283V438Q317 457 325.5 466Q334 475 353 476L739 490Q758 491 766.5 483Q775 475 775 456V265Q775 246 766.5 238Q758 230 739 231L353 246Q334 247 325.5 255.5Q317 264 317 283ZM55 269V453Q55 472 63.5 480.5Q72 489 91 489H222Q241 489 249.5 480.5Q258 472 258 453V269Q258 250 249.5 241.5Q241 233 222 233H91Q72 233 63.5 241.5Q55 250 55 269Z" glyph-name="exclamdown" horiz-adv-x="830" unicode="&#161;" /><glyph d="M801 252V97Q801 78 792 69.5Q783 61 764 61H116Q97 61 88.5 69.5Q80 78 80 97V615Q80 634 88.5 642.5Q97 651 116 651H235Q254 651 262.5 642.5Q271 634 271 615V288H375V534Q375 553 383.5 561.5Q392 570 411 570H531Q550 570 558.5 561.5Q567 553 567 534V288H764Q783 288 792 279.5Q801 271 801 252Z" glyph-name="f" horiz-adv-x="856" unicode="f" /><glyph d="M800 467V96Q800 77 791.5 68.5Q783 60 764 60H647Q628 60 619.5 68.5Q611 77 611 96V407Q611 419 605.5 426.5Q600 434 588 434H549Q537 434 531.5 426.5Q526 419 526 407V106Q526 87 517.5 78.5Q509 70 490 70H116Q97 70 88.5 78.5Q80 87 80 106V590Q80 609 88.5 617.5Q97 626 116 626H235Q254 626 262.5 617.5Q271 609 271 590V297H336V487Q336 568 376 615Q416 662 495 662H634Q710 662 755 609.5Q800 557 800 467Z" glyph-name="five" horiz-adv-x="872" unicode="5" /><glyph d="M512 154Q512 135 503.5 126.5Q495 118 476 118H369Q350 118 341.5 126.5Q333 135 333 154V246H267Q176 246 119 298.5Q62 351 62 492V566Q62 585 70.5 593.5Q79 602 98 602H219Q238 602 246.5 593.5Q255 585 255 566V515Q255 489 270.5 481.5Q286 474 305 474H333V566Q333 585 341.5 593.5Q350 602 369 602H476Q495 602 503.5 593.5Q512 585 512 566V474H577Q668 474 725 421.5Q782 369 782 228V154Q782 135 773.5 126.5Q765 118 746 118H625Q606 118 597.5 126.5Q589 135 589 154V205Q589 231 573.5 238.5Q558 246 539 246H512Z" glyph-name="florin" horiz-adv-x="844" unicode="&#402;" /><glyph d="M620 434V242Q620 145 579.5 102.5Q539 60 454 60H103Q84 60 75.5 68.5Q67 77 67 96V251Q67 270 75.5 278.5Q84 287 103 287H377Q393 287 402 295.5Q411 304 411 318V434H103Q84 434 75.5 442.5Q67 451 67 470V624Q67 643 75.5 651.5Q84 660 103 660H751Q770 660 778.5 651.5Q787 643 787 624V470Q787 451 778.5 442.5Q770 434 751 434Z" glyph-name="four" horiz-adv-x="842" unicode="4" /><glyph d="M538 402V280Q538 210 509 179.5Q480 149 419 149H166Q153 149 146.5 155.5Q140 162 140 175V287Q140 300 146.5 306Q153 312 166 312H363Q374 312 381 318.5Q388 325 388 335V402H166Q153 402 146.5 408.5Q140 415 140 428V539Q140 552 146.5 558Q153 564 166 564H632Q645 564 651.5 558Q658 552 658 539V428Q658 415 651.5 408.5Q645 402 632 402Z" glyph-name="foursuperior" horiz-adv-x="798" unicode="&#8308;" /><glyph d="M761 206 113 326Q94 330 85.5 336.5Q77 343 77 362V477Q77 496 85.5 506.5Q94 517 113 513L761 393Q780 389 788.5 382.5Q797 376 797 357V242Q797 223 788.5 212.5Q780 202 761 206Z" glyph-name="fraction" horiz-adv-x="874" unicode="&#8260;" /><glyph d="M787 624V301Q787 160 730 107.5Q673 55 583 55H271Q181 55 124 107.5Q67 160 67 301V559Q67 578 75.5 586.5Q84 595 103 595H224Q243 595 251.5 586.5Q260 578 260 559V343Q260 304 275.5 293Q291 282 310 282H549Q569 282 583.5 290Q598 298 598 328V433H442Q423 433 414.5 441.5Q406 450 406 469V624Q406 643 414.5 651.5Q423 660 442 660H751Q770 660 778.5 651.5Q787 643 787 624Z" glyph-name="g" horiz-adv-x="859" unicode="g" /><glyph d="M107 577Q139 577 165.5 567.5Q192 558 210.5 533.5Q229 509 239.5 467Q250 425 250 360Q250 295 239.5 253Q229 211 210.5 186.5Q192 162 165.5 152.5Q139 143 107 143H63Q44 143 35.5 151.5Q27 160 27 179V275Q27 291 33.5 297.5Q40 304 58 304H79Q93 304 102.5 314Q112 324 112 361Q112 398 102.5 409Q93 420 79 420H58Q40 420 33.5 426.5Q27 433 27 450V541Q27 560 35.5 568.5Q44 577 63 577ZM964 624V301Q964 160 907 107.5Q850 55 760 55H488Q398 55 341 107.5Q284 160 284 301V559Q284 578 292.5 586.5Q301 595 320 595H441Q460 595 468.5 586.5Q477 578 477 559V343Q477 304 492.5 293Q508 282 527 282H726Q746 282 760.5 290Q775 298 775 328V433H639Q620 433 611.5 441.5Q603 450 603 469V624Q603 643 611.5 651.5Q620 660 639 660H928Q947 660 955.5 651.5Q964 643 964 624Z" glyph-name="gbreve" horiz-adv-x="1036" unicode="&#287;" /><glyph d="M197 328 237 191Q245 166 239 158Q233 150 206 150H125Q98 150 90 158.5Q82 167 72 191L26 319Q22 328 20 338.5Q18 349 17 358Q17 367 18 375Q19 383 22 390L72 527Q82 552 90 560.5Q98 569 125 569H206Q233 569 239 561Q245 553 237 527L197 390Q193 373 193 359Q193 345 197 328ZM954 624V301Q954 160 897 107.5Q840 55 750 55H478Q388 55 331 107.5Q274 160 274 301V559Q274 578 282.5 586.5Q291 595 310 595H431Q450 595 458.5 586.5Q467 578 467 559V343Q467 304 482.5 293Q498 282 517 282H716Q736 282 750.5 290Q765 298 765 328V433H629Q610 433 601.5 441.5Q593 450 593 469V624Q593 643 601.5 651.5Q610 660 629 660H918Q937 660 945.5 651.5Q954 643 954 624Z" glyph-name="gcircumflex" horiz-adv-x="1026" unicode="&#285;" /><glyph d="M747 624V301Q747 160 690 107.5Q633 55 543 55H271Q181 55 124 107.5Q67 160 67 301V559Q67 578 75.5 586.5Q84 595 103 595H224Q243 595 251.5 586.5Q260 578 260 559V343Q260 304 275.5 293Q291 282 310 282H509Q529 282 543.5 290Q558 298 558 328V433H422Q403 433 394.5 441.5Q386 450 386 469V624Q386 643 394.5 651.5Q403 660 422 660H711Q730 660 738.5 651.5Q747 643 747 624ZM1077 352V286Q1077 270 1069.5 263Q1062 256 1046 256H1022Q1006 256 999 263Q992 270 992 286V345Q992 356 985.5 362Q979 368 968 368H955V282Q955 261 946.5 253Q938 245 916 245H837Q814 245 805.5 253Q797 261 797 282V440Q797 461 805.5 469Q814 477 837 477H949Q1013 477 1045 443Q1077 409 1077 352Z" glyph-name="gcommaaccent" horiz-adv-x="1089" unicode="&#291;" /><glyph d="M216 440V282Q216 263 207.5 254.5Q199 246 180 246H53Q34 246 25.5 254.5Q17 263 17 282V440Q17 459 25.5 467.5Q34 476 53 476H180Q199 476 207.5 467.5Q216 459 216 440ZM936 624V301Q936 160 879 107.5Q822 55 732 55H460Q370 55 313 107.5Q256 160 256 301V559Q256 578 264.5 586.5Q273 595 292 595H413Q432 595 440.5 586.5Q449 578 449 559V343Q449 304 464.5 293Q480 282 499 282H698Q718 282 732.5 290Q747 298 747 328V433H611Q592 433 583.5 441.5Q575 450 575 469V624Q575 643 583.5 651.5Q592 660 611 660H900Q919 660 927.5 651.5Q936 643 936 624Z" glyph-name="gdotaccent" horiz-adv-x="1008" unicode="&#289;" /><glyph d="M764 287Q783 287 791.5 278.5Q800 270 800 251V96Q800 77 791.5 68.5Q783 60 764 60H116Q98 60 89 69Q80 78 80 96V452Q80 540 132.5 576Q185 612 271 596L363 578Q370 617 407.5 643.5Q445 670 511 670H634Q710 670 755 621.5Q800 573 800 491V373Q800 354 791.5 345.5Q783 337 764 337H651Q632 337 623.5 345.5Q615 354 615 373V425Q615 437 609.5 444.5Q604 452 592 452H539Q527 452 521.5 444.5Q516 437 516 425V389Q516 365 502 356.5Q488 348 460 352L293 375Q282 376 273.5 372.5Q265 369 265 356V287Z" glyph-name="germandbls" horiz-adv-x="880" unicode="&#223;" /><glyph d="M236 535 193 186Q191 167 183.5 158.5Q176 150 157 150H61Q44 150 35 158.5Q26 167 28 184L71 533Q73 552 80.5 560.5Q88 569 107 569H203Q220 569 229 560.5Q238 552 236 535Z" glyph-name="grave" horiz-adv-x="262" unicode="`" /><glyph d="M555 510 664 129Q668 110 660 101.5Q652 93 633 93H501Q482 93 472.5 101.5Q463 110 460 129L383 416Q381 426 377 429.5Q373 433 364 433Q355 433 351 429.5Q347 426 345 416L268 129Q265 110 255.5 101.5Q246 93 227 93H95Q76 93 68 101.5Q60 110 64 129L173 510Q191 572 222.5 604.5Q254 637 328 637H400Q474 637 505.5 604.5Q537 572 555 510Z" glyph-name="greater" horiz-adv-x="726" unicode="&gt;" /><glyph d="M268 129Q265 110 255.5 101.5Q246 93 227 93H95Q76 93 68 101.5Q60 110 64 129L173 510Q191 572 222.5 604.5Q254 637 328 637H400Q474 637 505.5 604.5Q537 572 555 510L607 328V601Q607 620 615.5 628.5Q624 637 643 637H757Q776 637 784.5 628.5Q793 620 793 601V129Q793 110 784.5 101.5Q776 93 757 93H501Q482 93 472.5 101.5Q463 110 460 129L383 416Q381 426 377 429.5Q373 433 364 433Q355 433 351 429.5Q347 426 345 416Z" glyph-name="greaterequal" horiz-adv-x="872" unicode="&#8805;" /><glyph d="M356 118 177 169Q115 187 82.5 218.5Q50 250 50 324V398Q50 472 82.5 503Q115 534 177 553L356 605Q372 609 382 601Q392 593 392 574V457Q392 438 382.5 426.5Q373 415 356 408L261 380Q251 376 247.5 373Q244 370 244 361Q244 352 247.5 349Q251 346 261 342L356 315Q374 310 383 297.5Q392 285 392 266V149Q392 131 383 122Q374 113 356 118ZM716 121 547 169Q485 187 452.5 218.5Q420 250 420 324V398Q420 472 452 503.5Q484 535 547 553L716 602Q733 607 742.5 597.5Q752 588 752 571V457Q752 438 742.5 426.5Q733 415 716 408L621 380Q611 376 607.5 373Q604 370 604 361Q604 352 607.5 349Q611 346 621 342L716 315Q734 310 743 297.5Q752 285 752 266V152Q752 134 743 125Q734 116 716 121Z" glyph-name="guillemotleft" horiz-adv-x="812" unicode="&#171;" /><glyph d="M456 117Q438 112 429 120.5Q420 129 420 148V265Q420 284 429 296.5Q438 309 456 314L551 341Q561 345 564.5 348Q568 351 568 360Q568 369 564.5 372Q561 375 551 379L456 407Q439 414 429.5 425.5Q420 437 420 456V573Q420 592 429 600.5Q438 609 456 604L635 552Q697 534 729.5 502.5Q762 471 762 397V323Q762 249 729.5 217.5Q697 186 635 168ZM265 168 96 120Q78 115 69 123.5Q60 132 60 151V265Q60 284 69 296.5Q78 309 96 314L191 341Q201 344 204.5 347.5Q208 351 208 360Q208 369 204.5 372.5Q201 376 191 379L96 407Q79 414 69.5 425.5Q60 437 60 456V570Q60 589 69 598Q78 607 96 601L265 552Q328 534 360 502.5Q392 471 392 397V323Q392 249 359.5 217.5Q327 186 265 168Z" glyph-name="guillemotright" horiz-adv-x="812" unicode="&#187;" /><glyph d="M447 116 187 169Q124 182 92 216Q60 250 60 324V398Q60 472 92 506Q124 540 187 553L447 606Q466 610 474.5 602Q483 594 483 575V448Q483 429 474.5 419.5Q466 410 447 407L281 380Q271 379 267.5 374.5Q264 370 264 361Q264 352 267.5 347.5Q271 343 281 342L447 315Q466 312 474.5 302.5Q483 293 483 274V147Q483 128 474.5 120Q466 112 447 116Z" glyph-name="guilsinglleft" horiz-adv-x="563" unicode="&#8249;" /><glyph d="M376 169 116 116Q97 112 88.5 120Q80 128 80 147V274Q80 293 88.5 302.5Q97 312 116 315L282 342Q292 343 295.5 347.5Q299 352 299 361Q299 370 295.5 374.5Q292 379 282 380L116 407Q97 410 88.5 419.5Q80 429 80 448V575Q80 594 88.5 602Q97 610 116 606L376 553Q439 540 471 506Q503 472 503 398V324Q503 250 471 216Q439 182 376 169Z" glyph-name="guilsinglright" horiz-adv-x="563" unicode="&#8250;" /><glyph d="M787 251V96Q787 77 778.5 68.5Q770 60 751 60H103Q84 60 75.5 68.5Q67 77 67 96V251Q67 270 75.5 278.5Q84 287 103 287H320V433H103Q84 433 75.5 441.5Q67 450 67 469V624Q67 643 75.5 651.5Q84 660 103 660H751Q770 660 778.5 651.5Q787 643 787 624V469Q787 450 778.5 441.5Q770 433 751 433H529V287H751Q770 287 778.5 278.5Q787 270 787 251Z" glyph-name="h" horiz-adv-x="854" unicode="h" /><glyph d="M375 46Q375 27 366.5 18.5Q358 10 339 10H242Q223 10 214.5 18.5Q206 27 206 46V59H116Q97 59 88.5 67.5Q80 76 80 95V247Q80 266 88.5 274.5Q97 283 116 283H206V436H116Q97 436 88.5 444.5Q80 453 80 472V624Q80 643 88.5 651.5Q97 660 116 660H206V673Q206 692 214.5 700.5Q223 709 242 709H339Q358 709 366.5 700.5Q375 692 375 673V660H764Q783 660 791.5 651.5Q800 643 800 624V472Q800 453 791.5 444.5Q783 436 764 436H652V283H764Q783 283 791.5 274.5Q800 266 800 247V95Q800 76 791.5 67.5Q783 59 764 59H375ZM453 436H375V283H453Z" glyph-name="hbar" horiz-adv-x="880" unicode="&#295;" /><glyph d="M954 251V96Q954 77 945.5 68.5Q937 60 918 60H310Q291 60 282.5 68.5Q274 77 274 96V251Q274 270 282.5 278.5Q291 287 310 287H507V433H310Q291 433 282.5 441.5Q274 450 274 469V624Q274 643 282.5 651.5Q291 660 310 660H918Q937 660 945.5 651.5Q954 643 954 624V469Q954 450 945.5 441.5Q937 433 918 433H716V287H918Q937 287 945.5 278.5Q954 270 954 251ZM197 328 237 191Q245 166 239 158Q233 150 206 150H125Q98 150 90 158.5Q82 167 72 191L26 319Q22 328 20 338.5Q18 349 17 358Q17 367 18 375Q19 383 22 390L72 527Q82 552 90 560.5Q98 569 125 569H206Q233 569 239 561Q245 553 237 527L197 390Q193 373 193 359Q193 345 197 328Z" glyph-name="hcircumflex" horiz-adv-x="1021" unicode="&#293;" /><glyph d="M280 365 73 418Q55 422 46 428.5Q37 435 37 454V560Q37 577 46 587Q55 597 71 593L278 540Q296 536 305 529.5Q314 523 314 504V398Q314 381 305 371Q296 361 280 365ZM280 105 73 158Q55 162 46 168.5Q37 175 37 194V300Q37 317 46 327Q55 337 71 333L278 280Q296 276 305 269.5Q314 263 314 244V138Q314 121 305 111Q296 101 280 105Z" glyph-name="hungarumlaut" horiz-adv-x="351" unicode="&#733;" /><glyph d="M76 258Q57 258 48.5 266.5Q40 275 40 294V428Q40 447 48.5 455.5Q57 464 76 464H344Q363 464 371.5 455.5Q380 447 380 428V294Q380 275 371.5 266.5Q363 258 344 258Z" glyph-name="hyphen" horiz-adv-x="420" unicode="-" /><glyph d="M800 105Q800 86 791.5 77.5Q783 69 764 69H645Q626 69 617.5 77.5Q609 86 609 105V239H273V105Q273 86 264.5 77.5Q256 69 237 69H116Q97 69 88.5 77.5Q80 86 80 105V615Q80 634 88.5 642.5Q97 651 116 651H237Q256 651 264.5 642.5Q273 634 273 615V481H609V615Q609 634 617.5 642.5Q626 651 645 651H764Q783 651 791.5 642.5Q800 634 800 615Z" glyph-name="i" horiz-adv-x="880" unicode="i" /><glyph d="M948 105Q948 86 939.5 77.5Q931 69 912 69H793Q774 69 765.5 77.5Q757 86 757 105V239H461V105Q461 86 452.5 77.5Q444 69 425 69H304Q285 69 276.5 77.5Q268 86 268 105V615Q268 634 276.5 642.5Q285 651 304 651H425Q444 651 452.5 642.5Q461 634 461 615V481H757V615Q757 634 765.5 642.5Q774 651 793 651H912Q931 651 939.5 642.5Q948 634 948 615ZM193 533 236 184Q238 167 229 158.5Q220 150 203 150H107Q88 150 80.5 158.5Q73 167 71 186L28 535Q26 552 35 560.5Q44 569 61 569H157Q176 569 183.5 560.5Q191 552 193 533Z" glyph-name="iacute" horiz-adv-x="1028" unicode="&#237;" /><glyph d="M107 577Q139 577 165.5 567.5Q192 558 210.5 533.5Q229 509 239.5 467Q250 425 250 360Q250 295 239.5 253Q229 211 210.5 186.5Q192 162 165.5 152.5Q139 143 107 143H63Q44 143 35.5 151.5Q27 160 27 179V275Q27 291 33.5 297.5Q40 304 58 304H79Q93 304 102.5 314Q112 324 112 361Q112 398 102.5 409Q93 420 79 420H58Q40 420 33.5 426.5Q27 433 27 450V541Q27 560 35.5 568.5Q44 577 63 577ZM964 105Q964 86 955.5 77.5Q947 69 928 69H809Q790 69 781.5 77.5Q773 86 773 105V239H477V105Q477 86 468.5 77.5Q460 69 441 69H320Q301 69 292.5 77.5Q284 86 284 105V615Q284 634 292.5 642.5Q301 651 320 651H441Q460 651 468.5 642.5Q477 634 477 615V481H773V615Q773 634 781.5 642.5Q790 651 809 651H928Q947 651 955.5 642.5Q964 634 964 615Z" glyph-name="ibreve" horiz-adv-x="1044" unicode="&#301;" /><glyph d="M197 328 237 191Q245 166 239 158Q233 150 206 150H125Q98 150 90 158.5Q82 167 72 191L26 319Q22 328 20 338.5Q18 349 17 358Q17 367 18 375Q19 383 22 390L72 527Q82 552 90 560.5Q98 569 125 569H206Q233 569 239 561Q245 553 237 527L197 390Q193 373 193 359Q193 345 197 328ZM954 105Q954 86 945.5 77.5Q937 69 918 69H799Q780 69 771.5 77.5Q763 86 763 105V239H467V105Q467 86 458.5 77.5Q450 69 431 69H310Q291 69 282.5 77.5Q274 86 274 105V615Q274 634 282.5 642.5Q291 651 310 651H431Q450 651 458.5 642.5Q467 634 467 615V481H763V615Q763 634 771.5 642.5Q780 651 799 651H918Q937 651 945.5 642.5Q954 634 954 615Z" glyph-name="icircumflex" horiz-adv-x="1034" unicode="&#238;" /><glyph d="M229 556V418Q229 401 221 393Q213 385 196 385H75Q58 385 50 393Q42 401 42 418V556Q42 573 50 581Q58 589 75 589H196Q213 589 221 581Q229 573 229 556ZM229 298V160Q229 143 221 134.5Q213 126 196 126H75Q58 126 50 134.5Q42 143 42 160V298Q42 315 50 323Q58 331 75 331H196Q213 331 221 323Q229 315 229 298ZM949 105Q949 86 940.5 77.5Q932 69 913 69H794Q775 69 766.5 77.5Q758 86 758 105V239H462V105Q462 86 453.5 77.5Q445 69 426 69H305Q286 69 277.5 77.5Q269 86 269 105V615Q269 634 277.5 642.5Q286 651 305 651H426Q445 651 453.5 642.5Q462 634 462 615V481H758V615Q758 634 766.5 642.5Q775 651 794 651H913Q932 651 940.5 642.5Q949 634 949 615Z" glyph-name="idieresis" horiz-adv-x="1029" unicode="&#239;" /><glyph d="M236 535 193 186Q191 167 183.5 158.5Q176 150 157 150H61Q44 150 35 158.5Q26 167 28 184L71 533Q73 552 80.5 560.5Q88 569 107 569H203Q220 569 229 560.5Q238 552 236 535ZM948 105Q948 86 939.5 77.5Q931 69 912 69H793Q774 69 765.5 77.5Q757 86 757 105V239H461V105Q461 86 452.5 77.5Q444 69 425 69H304Q285 69 276.5 77.5Q268 86 268 105V615Q268 634 276.5 642.5Q285 651 304 651H425Q444 651 452.5 642.5Q461 634 461 615V481H757V615Q757 634 765.5 642.5Q774 651 793 651H912Q931 651 939.5 642.5Q948 634 948 615Z" glyph-name="igrave" horiz-adv-x="1028" unicode="&#236;" /><glyph d="M751 60H630Q611 60 602.5 68.5Q594 77 594 96V360Q594 396 578.5 414.5Q563 433 527 433H103Q84 433 75.5 441.5Q67 450 67 469V624Q67 643 75.5 651.5Q84 660 103 660H577Q676 660 731.5 603Q787 546 787 447V96Q787 77 778.5 68.5Q770 60 751 60ZM457 251V96Q457 77 448.5 68.5Q440 60 421 60H103Q84 60 75.5 68.5Q67 77 67 96V251Q67 270 75.5 278.5Q84 287 103 287H421Q440 287 448.5 278.5Q457 270 457 251Z" glyph-name="ij" horiz-adv-x="859" unicode="&#307;" /><glyph d="M207 533V186Q207 167 198.5 158.5Q190 150 171 150H78Q59 150 50.5 158.5Q42 167 42 186V533Q42 552 50.5 560.5Q59 569 78 569H171Q190 569 198.5 560.5Q207 552 207 533ZM927 105Q927 86 918.5 77.5Q910 69 891 69H772Q753 69 744.5 77.5Q736 86 736 105V239H440V105Q440 86 431.5 77.5Q423 69 404 69H283Q264 69 255.5 77.5Q247 86 247 105V615Q247 634 255.5 642.5Q264 651 283 651H404Q423 651 431.5 642.5Q440 634 440 615V481H736V615Q736 634 744.5 642.5Q753 651 772 651H891Q910 651 918.5 642.5Q927 634 927 615Z" glyph-name="imacron" horiz-adv-x="1007" unicode="&#299;" /><glyph d="M159 615H254Q262 615 267 610Q272 605 272 596V124Q272 114 267 109.5Q262 105 254 105H159Q151 105 146 109.5Q141 114 141 124V596Q141 605 146 610Q151 615 159 615ZM318 544Q325 548 336 551Q347 554 360 554L600 544Q607 544 615 538Q623 532 623 525V476Q623 469 618.5 463Q614 457 606 458L520 464V453L620 446Q630 445 637.5 440.5Q645 436 645 426V380Q645 370 639.5 364.5Q634 359 626 360L539 366V356L644 348Q655 347 662 343Q669 339 669 329V284Q669 276 664 272Q659 268 650 268H556V257H832Q843 257 850.5 252Q858 247 858 237V187Q858 176 850.5 171Q843 166 835 165L534 144Q520 143 504.5 143.5Q489 144 479 145L283 183V525Z" glyph-name="indexdown" horiz-adv-x="999" /><glyph d="M272 207Q272 198 267.5 193Q263 188 255 188H159Q151 188 146 193Q141 198 141 208V595Q141 604 146 608.5Q151 613 159 613H254Q263 613 267.5 608.5Q272 604 272 595ZM480 109Q474 105 466.5 106Q459 107 455 114L404 185Q386 210 375 225.5Q364 241 347 255L283 309V530L437 599Q455 607 472 608Q489 609 506 607L844 561Q851 560 854.5 555Q858 550 858 543V489Q858 482 853 476.5Q848 471 839 471L541 460Q519 459 510.5 447Q502 435 495 418L473 370Q465 353 466 334Q467 315 478 286L525 162Q529 152 527.5 144.5Q526 137 521 134ZM500 255 486 292Q481 307 477.5 319Q474 331 475 343Q483 353 490.5 356Q498 359 514 360V365Q504 365 496.5 367Q489 369 485 373L507 420Q514 434 520.5 441Q527 448 543 449L603 451L604 347Q604 323 592 307.5Q580 292 564 285Z" glyph-name="indexdown.salt" horiz-adv-x="999" /><glyph d="M550 759 618 692Q623 687 623 679.5Q623 672 616 666L283 332Q276 325 269 325Q262 325 256 331L189 398Q184 403 183.5 410.5Q183 418 190 424L524 758Q530 764 537.5 764Q545 764 550 759ZM612 595Q619 594 629 588.5Q639 583 649 573L812 397Q817 391 818 382Q819 373 814 367L779 332Q775 327 767 326Q759 325 755 332L698 397L691 389L756 314Q763 305 765 297Q767 289 760 281L728 249Q721 242 713 242Q705 242 699 249L643 314L635 307L705 228Q712 219 713.5 211Q715 203 708 195L677 165Q671 158 664.5 158.5Q658 159 652 166L585 233L578 226L773 30Q780 23 782 14Q784 5 777 -2L741 -38Q734 -45 724.5 -43.5Q715 -42 710 -38L482 161Q471 170 460.5 181Q450 192 444 200L332 365L573 608Z" glyph-name="indexdownleft" horiz-adv-x="1000" /><glyph d="M755 -38Q741 -52 726 -53Q711 -54 697 -41L475 152Q463 163 451.5 175Q440 187 433 197L323 358L295 331Q282 318 268 318.5Q254 319 241 332L188 384Q175 397 174.5 411Q174 425 189 440L508 759Q522 773 536.5 773Q551 773 564 760L617 706Q630 693 629.5 679Q629 665 618 653L583 618L610 610Q618 607 631.5 600Q645 593 656 582L814 410Q825 398 825.5 381.5Q826 365 814 353L786 324Q782 320 777 317.5Q772 315 766 314Q774 302 772.5 290Q771 278 759 268L732 240Q728 236 723 234Q718 232 713 231Q723 218 721 205Q719 192 707 181L682 156Q679 153 676 151Q673 149 669 148L774 43Q790 27 790 12Q790 -3 776 -17ZM601 667Q607 672 607 679Q607 686 602 692L579 715Q573 720 566 720Q559 720 552 714L233 395Q227 388 227.5 381.5Q228 375 233 369L255 346Q262 341 268.5 340.5Q275 340 282 346ZM711 -24Q717 -29 725 -30Q733 -31 740 -23L761 -2Q768 5 767.5 13Q767 21 759 28L569 218L584 233L646 171V172Q651 165 657 166Q663 167 669 172L692 196Q699 203 698.5 210.5Q698 218 691 226L627 300L642 315L695 253Q702 249 707.5 250Q713 251 719 257L745 282Q752 289 751 296.5Q750 304 743 312L683 382L697 398L750 335L749 337Q754 332 760.5 334Q767 336 771 340L798 367Q804 373 804 381Q804 389 798 395L641 567Q631 576 621 582Q611 588 604 589L565 600L338 374L451 208Q457 200 467.5 189Q478 178 488 169Z" glyph-name="indexdownleft.outline" horiz-adv-x="1000" /><glyph d="M576 664Q581 659 580.5 652.5Q580 646 573 639L299 365Q293 359 286.5 359Q280 359 274 365L206 432Q201 438 201 444.5Q201 451 206 458L480 732Q487 738 494.5 738Q502 738 507 733ZM769 576Q776 577 782.5 573Q789 569 790 562L801 515Q802 509 798 502.5Q794 496 784 492L663 438Q635 425 621 412.5Q607 400 600 382L582 333Q575 316 572.5 301.5Q570 287 585 271L788 51Q794 46 794 38.5Q794 31 789 26L751 -13Q746 -18 739.5 -18.5Q733 -19 728 -15L457 191Q443 202 431.5 214.5Q420 227 413 246L353 403L509 561L592 553Q614 551 633 553.5Q652 556 683 562ZM665 428 700 444 725 378Q731 361 728.5 341.5Q726 322 709 305L634 233L593 277Q583 288 583.5 298Q584 308 589 322L607 372Q611 372 618 368Q625 364 632 357L636 360Q626 372 623 379.5Q620 387 621 400Q628 408 639.5 414.5Q651 421 665 428Z" glyph-name="indexdownleft.salt" horiz-adv-x="1000" /><glyph d="M762 -13Q753 -23 741.5 -26Q730 -29 717 -19L452 180Q436 193 422 208.5Q408 224 398 247L342 394L312 364Q299 351 284.5 351.5Q270 352 257 365L205 418Q192 431 191 444.5Q190 458 205 473L464 733Q478 746 492.5 746Q507 746 520 733L573 680Q586 667 585.5 652Q585 637 573 627L519 572L587 567Q608 566 628.5 569Q649 572 671 575L762 590Q778 592 787.5 585.5Q797 579 800 566L811 522Q814 508 805 498Q796 488 781 481L711 449L735 378Q745 351 737 331.5Q729 312 712 296L640 224L793 57Q801 47 800 35Q799 23 791 15ZM558 639Q563 646 563.5 652.5Q564 659 559 664L535 689Q529 694 522 694Q515 694 508 688L249 428Q243 422 243.5 415Q244 408 249 403L272 380Q278 374 284.5 374Q291 374 297 380ZM727 0Q731 -4 737 -3Q743 -2 749 3L772 26Q777 31 777 38.5Q777 46 771 51L576 263Q561 279 559.5 297.5Q558 316 565 333L590 389Q600 411 615 423Q630 435 653 445L773 500Q783 504 787 509.5Q791 515 790 522L779 561Q778 565 774 567.5Q770 570 765 569L674 554Q650 550 627.5 547Q605 544 583 546L499 552L358 410L418 253Q426 235 437 222Q448 209 462 198ZM592 276 626 239 699 313Q711 324 716.5 338.5Q722 353 715 370L691 440L662 426Q647 420 636.5 414Q626 408 619 398Q618 389 622 379.5Q626 370 634 360L631 357Q624 364 617 368Q610 372 605 371L585 325Q579 312 580.5 300Q582 288 592 276Z" glyph-name="indexdownleft.salt_outline" horiz-adv-x="1000" /><glyph d="M812 323 649 147Q639 137 629 131.5Q619 126 612 125L573 112L332 355L444 520Q450 528 460.5 539Q471 550 482 559L710 758Q715 762 724.5 763.5Q734 765 741 758L777 722Q784 715 782 706Q780 697 773 690L578 494L585 487L652 554Q658 561 664.5 561.5Q671 562 677 555L708 525Q715 517 713.5 509Q712 501 705 492L635 414L643 406L699 471Q705 478 713 478Q721 478 728 471L760 439Q767 431 765 423Q763 415 756 406L691 331L698 323L755 388Q759 395 767 394Q775 393 779 388L814 353Q819 347 818 338Q817 329 812 323ZM616 54Q623 48 623 40.5Q623 33 618 28L550 -39Q545 -44 537.5 -44Q530 -44 524 -38L190 296Q183 302 183.5 309.5Q184 317 189 322L256 389Q262 395 269 395Q276 395 283 388Z" glyph-name="indexdownright" horiz-adv-x="1000" /><glyph d="M565 120 604 131Q611 132 621 138Q631 144 641 153L798 325Q804 331 804 339Q804 347 798 353L771 380Q767 384 760.5 386Q754 388 749 383L750 385L697 322L683 338L743 408Q750 416 751 423.5Q752 431 745 438L719 463Q712 470 706 470.5Q700 471 695 467L642 405L627 420L691 494Q698 502 698.5 509.5Q699 517 692 524L669 548Q663 553 657 554Q651 555 646 548V549L584 487L569 502L759 692Q767 699 767.5 707Q768 715 761 722L740 743Q733 751 725 750Q717 749 711 744L488 551Q478 542 467.5 531Q457 520 451 512L338 346ZM564 -40Q551 -53 536.5 -53Q522 -53 508 -39L189 280Q174 295 174.5 309Q175 323 188 336L241 388Q254 401 268 401.5Q282 402 295 389L323 362L433 523Q440 533 451.5 545Q463 557 475 568L697 761Q711 774 726 773Q741 772 755 758L776 737Q790 723 790 708Q790 693 774 677L669 572Q673 571 676 569Q679 567 682 564L707 539Q719 528 721 515Q723 502 713 489Q718 488 723 486Q728 484 732 480L759 452Q771 442 772.5 430Q774 418 766 406Q772 405 777 402.5Q782 400 786 396L814 367Q826 355 825.5 338.5Q825 322 814 310L656 138Q645 127 631.5 120Q618 113 610 110L583 102L618 67Q629 55 629.5 41Q630 27 617 14ZM602 28Q607 34 607 41Q607 48 601 53L282 374Q275 380 268.5 379.5Q262 379 255 374L233 351Q228 345 227.5 338.5Q227 332 233 325L552 6Q559 0 566 0Q573 0 579 5Z" glyph-name="indexdownright.outline" horiz-adv-x="1000" /><glyph d="M790 158Q789 151 782.5 147Q776 143 769 144L683 158Q652 164 633 166.5Q614 169 592 167L509 159L353 317L413 474Q420 493 431.5 505.5Q443 518 457 529L728 735Q733 739 739.5 738.5Q746 738 751 733L789 694Q794 689 794 681.5Q794 674 788 669L585 449Q570 433 572.5 418.5Q575 404 582 387L600 338Q607 320 621 307.5Q635 295 663 282L784 228Q794 224 798 217.5Q802 211 801 205ZM700 276 665 292Q651 299 639.5 305.5Q628 312 621 320Q620 333 623 340.5Q626 348 636 360L632 363Q625 356 618 352Q611 348 607 348L589 398Q584 412 583.5 422Q583 432 593 443L634 487L709 415Q726 398 728.5 378.5Q731 359 725 342ZM573 81Q580 74 580.5 67.5Q581 61 576 56L507 -13Q502 -18 494.5 -18Q487 -18 480 -12L206 262Q201 269 201 275.5Q201 282 206 288L274 355Q280 361 286.5 361Q293 361 299 355Z" glyph-name="indexdownright.salt" horiz-adv-x="1000" /><glyph d="M765 151Q770 150 774 152.5Q778 155 779 159L790 198Q791 205 787 210.5Q783 216 773 220L653 275Q630 285 615 297Q600 309 590 331L565 387Q558 404 559.5 422.5Q561 441 576 457L771 669Q777 674 777 681.5Q777 689 772 694L749 717Q743 722 737 723Q731 724 727 720L462 522Q448 511 437 498Q426 485 418 467L358 310L499 168L583 174Q605 176 627.5 173Q650 170 674 166ZM662 294 691 280 715 350Q722 367 716.5 381.5Q711 396 699 407L626 481L592 444Q582 432 580.5 420Q579 408 585 395L605 349Q610 348 617 352Q624 356 631 363L634 360Q626 350 622 340.5Q618 331 619 322Q626 312 636.5 306Q647 300 662 294ZM559 56Q564 61 563.5 67.5Q563 74 558 81L297 340Q291 346 284.5 346Q278 346 272 340L249 317Q244 312 243.5 305Q243 298 249 292L508 32Q515 26 522 26Q529 26 535 31ZM520 -13Q507 -26 492.5 -26Q478 -26 464 -13L205 247Q190 262 191 275.5Q192 289 205 302L257 355Q270 368 284.5 368.5Q299 369 312 356L342 326L398 473Q408 496 422 511.5Q436 527 452 540L717 739Q730 749 741.5 746Q753 743 762 733L791 705Q799 697 800 685Q801 673 793 663L640 496L712 424Q729 408 737 388.5Q745 369 735 342L711 271L781 239Q796 232 805 222Q814 212 811 198L800 154Q797 141 787.5 134.5Q778 128 762 130L671 145Q649 148 628.5 151Q608 154 587 153L519 148L573 93Q585 83 585.5 68Q586 53 573 40Z" glyph-name="indexdownright.salt_outline" horiz-adv-x="1000" /><glyph d="M727 596Q727 605 732 610Q737 615 745 615H840Q848 615 853 610Q858 605 858 596V124Q858 114 853 109.5Q848 105 840 105H745Q737 105 732 109.5Q727 114 727 124ZM399 544 639 554Q652 554 663 551Q674 548 681 544L716 525V183L520 145Q510 144 494.5 143.5Q479 143 465 144L164 165Q157 166 149 171Q141 176 141 187V237Q141 247 148.5 252Q156 257 167 257H443V268H349Q340 268 335 272Q330 276 330 284V329Q330 339 337 343Q344 347 355 348L460 356V366L373 360Q365 359 359.5 364.5Q354 370 354 380V426Q354 436 361.5 440.5Q369 445 379 446L479 453V464L393 458Q385 457 380.5 463Q376 469 376 476V525Q376 532 384 538Q392 544 399 544Z" glyph-name="indexup" horiz-adv-x="999" /><glyph d="M519 611Q525 615 532.5 614Q540 613 544 606L595 535Q613 510 624 494.5Q635 479 652 465L716 411V190L562 121Q544 113 527 112Q510 111 493 113L155 159Q148 160 144.5 165Q141 170 141 177V231Q141 238 146 243.5Q151 249 160 249L458 260Q480 261 488.5 273Q497 285 504 302L526 350Q534 367 533 386Q532 405 521 434L474 558Q470 568 471.5 575.5Q473 583 478 586ZM727 513Q727 522 731.5 527Q736 532 744 532H840Q848 532 853 527Q858 522 858 512V125Q858 116 853 111.5Q848 107 840 107H745Q736 107 731.5 111.5Q727 116 727 125ZM499 465 513 428Q518 413 521.5 401Q525 389 524 377Q516 367 508.5 364Q501 361 485 360V355Q495 355 502.5 353Q510 351 514 347L492 300Q485 286 478.5 279Q472 272 456 271L396 269L395 373Q395 397 407 412.5Q419 428 435 435Z" glyph-name="indexup.salt" horiz-adv-x="999" /><glyph d="M900 311 833 243Q828 238 820.5 238Q813 238 807 245L473 578Q466 585 466 592Q466 599 472 605L539 672Q544 677 551.5 677.5Q559 678 565 671L899 337Q905 331 905 323.5Q905 316 900 311ZM736 249Q735 242 729.5 232Q724 222 714 212L538 49Q532 44 523 43Q514 42 508 47L473 82Q468 86 467 94Q466 102 473 106L538 163L530 170L455 105Q446 98 438 96Q430 94 422 101L390 133Q383 140 383 148Q383 156 390 162L455 218L447 226L369 156Q360 149 352 147.5Q344 146 336 153L306 184Q299 190 299.5 196.5Q300 203 307 209L374 276L367 283L171 88Q164 81 155 79Q146 77 139 84L103 120Q96 127 97.5 136.5Q99 146 103 151L302 379Q311 390 322 400.5Q333 411 341 417L506 529L749 288Z" glyph-name="indexupleft" horiz-adv-x="1000" /><glyph d="M808 259Q813 253 820 253Q827 253 833 258L856 281Q861 287 861 294Q861 301 855 307L536 627Q529 633 522.5 632.5Q516 632 510 627L487 605Q482 598 481.5 591.5Q481 585 487 578ZM508 62Q514 56 522 56Q530 56 536 62L708 219Q717 229 723 239Q729 249 730 256L741 295L515 522L349 409Q341 403 330 392.5Q319 382 310 372L117 149Q112 143 111 135Q110 127 118 120L139 99Q146 92 154 92.5Q162 93 169 101L359 291L374 276L312 214H313Q306 209 307 203Q308 197 313 191L337 168Q344 161 351.5 161.5Q359 162 367 169L441 233L456 218L394 165Q390 159 391 153Q392 147 398 141L423 115Q430 108 437.5 109Q445 110 453 117L523 177L539 163L476 110L478 111Q473 106 475 99.5Q477 93 481 89ZM551 46Q539 35 522.5 34.5Q506 34 494 46L465 74Q462 78 459 83Q456 88 455 94Q443 86 431 88Q419 90 409 101L381 128Q377 132 375 137Q373 142 372 147Q359 137 346 139Q333 141 322 153L297 178Q294 181 292 184Q290 187 289 191L184 86Q168 70 153 70Q138 70 124 84L103 105Q89 119 88 134Q87 149 100 163L293 385Q304 397 316 408.5Q328 420 338 427L499 537L472 565Q459 578 459.5 592Q460 606 473 619L525 672Q538 685 552 685.5Q566 686 581 671L900 352Q914 338 914 323.5Q914 309 901 296L847 243Q834 230 820 230.5Q806 231 794 242L759 277L751 250Q748 242 741 228.5Q734 215 723 204Z" glyph-name="indexupleft.outline" horiz-adv-x="1000" /><glyph d="M804 285Q799 280 792.5 280.5Q786 281 779 288L505 562Q499 568 499 574.5Q499 581 505 587L572 655Q578 660 584.5 660Q591 660 598 655L872 381Q878 374 878 366.5Q878 359 873 354ZM716 92Q717 85 713 78.5Q709 72 702 71L655 60Q649 59 642.5 63Q636 67 632 76L578 198Q565 226 552.5 240Q540 254 522 261L473 279Q456 286 441.5 288.5Q427 291 411 276L191 73Q186 67 178.5 67Q171 67 166 72L127 110Q122 115 121.5 121.5Q121 128 125 133L331 404Q342 418 354.5 429.5Q367 441 386 448L543 508L701 352L693 269Q691 247 693.5 228Q696 209 702 178ZM568 196 584 160 518 136Q501 130 481.5 132.5Q462 135 445 152L373 227L417 268Q428 278 438 277.5Q448 277 462 272L512 254Q512 250 508 243Q504 236 497 229L500 225Q512 235 519.5 238Q527 241 540 240Q548 233 554.5 221.5Q561 210 568 196Z" glyph-name="indexupleft.salt" horiz-adv-x="1000" /><glyph d="M779 303Q786 298 792.5 297.5Q799 297 804 302L829 326Q834 332 834 339Q834 346 828 353L568 612Q562 618 555 617.5Q548 617 543 612L520 589Q514 582 514 576Q514 570 520 564ZM640 88Q644 78 649.5 74Q655 70 662 71L701 82Q705 83 707.5 87Q710 91 709 96L694 187Q690 211 687 233.5Q684 256 686 278L692 362L550 503L393 443Q375 435 362 424Q349 413 338 399L140 134Q136 130 137 124Q138 118 143 112L166 89Q171 84 178.5 84Q186 84 191 90L403 285Q419 300 437.5 301.5Q456 303 473 296L529 271Q551 261 563 246Q575 231 585 208ZM662 50Q648 47 638 56Q628 65 621 80L589 150L518 126Q491 116 471.5 124Q452 132 436 149L364 221L197 68Q187 60 175 61Q163 62 155 70L127 99Q117 108 114 119.5Q111 131 121 144L320 409Q333 425 348.5 439Q364 453 387 463L534 519L504 549Q491 562 491.5 576.5Q492 591 505 604L558 656Q571 669 584.5 670Q598 671 613 656L873 397Q886 383 886 368.5Q886 354 873 341L820 288Q807 275 792 275.5Q777 276 767 288L712 342L707 274Q706 253 709 232.5Q712 212 715 190L730 99Q732 83 725.5 73.5Q719 64 706 61ZM453 162Q464 150 478.5 144.5Q493 139 510 146L580 170L566 199Q560 214 554 224.5Q548 235 538 242Q528 242 518.5 238Q509 234 500 227L497 230Q504 238 508 245Q512 252 511 256L465 276Q452 282 440 280.5Q428 279 416 269L379 235Z" glyph-name="indexupleft.salt_outline" horiz-adv-x="1000" /><glyph d="M538 671 714 508Q724 498 729.5 488Q735 478 736 471L749 432L506 191L341 303Q333 309 322 319.5Q311 330 302 341L103 569Q99 574 97.5 583.5Q96 593 103 600L139 636Q146 643 155 641Q164 639 171 632L367 437L374 444L307 511Q300 517 299.5 523.5Q299 530 306 536L336 567Q344 574 352 572.5Q360 571 369 564L447 494L455 502L390 558Q383 564 383 572Q383 580 390 587L422 619Q430 626 438 624Q446 622 455 615L530 550L538 557L473 614Q466 618 467 626Q468 634 473 638L508 673Q514 678 523 677Q532 676 538 671ZM807 476Q813 482 820.5 482Q828 482 833 477L900 409Q905 404 905 397Q905 390 899 383L565 49Q559 42 551.5 42.5Q544 43 539 48L472 115Q466 121 466 128Q466 135 473 142Z" glyph-name="indexupright" horiz-adv-x="1000" /><glyph d="M581 49Q566 34 552 34.5Q538 35 525 48L473 101Q460 114 459.5 128Q459 142 472 155L499 183L338 293Q328 300 316 311.5Q304 323 293 335L100 557Q87 571 88 586Q89 601 103 615L124 636Q138 650 153 650Q168 650 184 634L289 529Q290 533 292 536Q294 539 297 542L322 567Q333 579 346 581Q359 583 372 573Q373 578 375 583Q377 588 381 592L409 619Q419 630 431 632Q443 634 455 626Q456 632 459 637Q462 642 465 646L494 674Q506 686 522.5 685.5Q539 685 551 674L723 516Q734 505 741 491.5Q748 478 751 470L759 443L794 478Q806 489 820 489.5Q834 490 847 477L901 424Q914 411 914 396.5Q914 382 900 368ZM515 198 741 425 730 464Q729 471 723 481Q717 491 708 501L536 658Q530 664 522 664Q514 664 508 658L481 631Q477 627 475 620.5Q473 614 478 609L476 610L539 557L523 543L453 603Q445 610 437.5 611Q430 612 423 605L398 579Q391 572 390.5 566Q390 560 394 555L456 502L441 487L367 551Q359 558 351.5 558.5Q344 559 337 552L313 529Q308 523 307 517Q306 511 313 506H312L374 444L359 429L169 619Q162 627 154 627.5Q146 628 139 621L118 600Q110 593 111 585Q112 577 117 571L310 348Q319 338 330 327.5Q341 317 349 311ZM833 462Q827 467 820 467Q813 467 808 461L487 142Q481 135 481.5 128.5Q482 122 487 115L510 93Q516 88 522.5 87.5Q529 87 536 93L855 413Q861 419 861 426Q861 433 856 439Z" glyph-name="indexupright.outline" horiz-adv-x="1000" /></font>
</defs>
</svg>
