<?xml version="1.0" encoding="utf-8"?>
<!-- Generator: Adobe Illustrator 17.1.0, SVG Export Plug-In . SVG Version: 6.00 Build 0)  -->
<!DOCTYPE svg PUBLIC "-//W3C//DTD SVG 1.1//EN" "http://www.w3.org/Graphics/SVG/1.1/DTD/svg11.dtd">
<svg version="1.1" id="Layer_1" xmlns="http://www.w3.org/2000/svg" xmlns:xlink="http://www.w3.org/1999/xlink" x="0px" y="0px"
	 viewBox="0 0 1732.4 597.4" enable-background="new 0 0 1732.4 597.4" xml:space="preserve">
<path fill="#26839C" d="M413.8,392.5c-3.2-3.3-6.4-2.4-6.4,0.8v11h-3.8c-3.7,0-4.9-1.9-4.9-6v-4.7v-57.1v-6.4V256v-6.4v-74.1v-6.4
	v-55.8V88.6v-28c0-2-1.3-3.5-4.5-2.3l-39,15.5l-39.3-15.6c-2.9-1.1-4.2,0.4-4.2,2.4v28v24.7v55.8v6.4v74.1v6.4v74.1v6.4v57.1V417
	v0.6c0,35.5,20,59.1,64.4,59.1h31.2v12.3c0,3.3,3.4,4,6.4,0.8l41.5-44.2c3.1-3.3,3.5-6,0-9.7L413.8,392.5z"/>
<path fill="#265560" d="M526.6,343.1v-77.3v-6.4v-47.2v-33.3v-20.4v-33.3V84.7v-4.2c0-1.6,0-2.1,0.3-4.7l1.6-13.7
	c0.2-1.2-1.1-2.1-2.3-1.6l-23.3,9.2c-0.7,0.4-1.8,0.2-2.4-0.3l-15.2-12.6c-1.2-1-3.1-1-4.3,0l-15.2,12.6c-0.6,0.6-1.7,0.6-2.4,0.3
	l-23.3-9.2c-1.1-0.5-2.4,0.4-2.3,1.6l1.6,13.7c0.3,2.6,0.3,3.1,0.3,4.7v4.2v40.6v33.3v20.4v33.3v47.2v6.4v77.3v3.2v0.9
	c0,1.6,0,2.1-0.3,4.7l-1.6,13.7c-0.2,1.2,1.1,2.1,2.3,1.6l23.3-9.2c0.7-0.4,1.8-0.2,2.4,0.3l15.2,12.6c1.2,1,3.1,1,4.3,0l15.2-12.6
	c0.6-0.6,1.7-0.6,2.4-0.3l23.3,9.2c1.1,0.5,2.4-0.4,2.3-1.6l-1.6-13.7c-0.3-2.6-0.3-3.1-0.3-4.7v-0.9V343.1z"/>
<path fill="#26839C" d="M164.7,74.3h-12.4V63.1c0-2.1-0.9-2.9-2.9-2.9H68.2c-2,0-2.9,0.8-2.9,2.9v11.3H52.9c-2,0-2.9,0.8-2.9,2.9
	v38.3c0,2.1,0.9,2.9,2.9,2.9c8.4,0,12.4,4.5,12.4,12.3v3.5v46.5v6.4v74.1v6.4v109.8v6.4v47.2v60.1v25v1.8v3.4
	c0,12.3,8.5,20.5,43.5,20.5c34.9,0,43.5-8.2,43.5-20.5v-3.4v-1.8v-25v-60.1v-47.2v-6.4V267.7v-6.4v-74.1v-6.4v-46.5v-2.9
	c0-8.1,3.9-12.9,12.4-12.9c2,0,2.9-0.8,2.9-2.9V77.2C167.6,75.1,166.7,74.3,164.7,74.3z"/>
<g>
	<path fill="#FFFFFF" d="M91.6,177.9c-1.6,0-2.4-0.7-2.4-2.3v-42.3c0-1.6,0.7-2.4,2.4-2.4h10.1c1.6,0,2.4,0.7,2.4,2.4v14.2h9.5
		v-14.2c0-1.6,0.7-2.4,2.4-2.4H126c1.6,0,2.4,0.7,2.4,2.4v42.3c0,1.6-0.7,2.3-2.4,2.3h-10.1c-1.6,0-2.4-0.7-2.4-2.3V161H104v14.5
		c0,1.6-0.7,2.3-2.4,2.3H91.6z"/>
	<path fill="#FFFFFF" d="M101.1,233.4h-9.6c-1.6,0-2.4-0.8-2.4-2.4v-32.3c0-7.9,3.3-13.3,19.5-13.3c16.3,0,19.6,5.4,19.6,13.3v32.3
		c0,1.6-0.7,2.4-2.4,2.4h-9.9c-1.6,0-2.4-0.8-2.4-2.4v-9.7h-10.2v9.7C103.5,232.6,102.8,233.4,101.1,233.4z M103.5,209.3h10.2v-8.4
		c0-1.8-0.5-3.1-5.1-3.1c-4.6,0-5.2,1.3-5.2,3.1V209.3z"/>
	<path fill="#FFFFFF" d="M108.8,286.6c-1.8,2.1-4.9,3.3-9.8,3.3c-9.9,0-13-5.4-13-13.3v-32.3c0-1.6,0.7-2.4,2.4-2.4H96
		c1.7,0,2.4,0.7,2.4,2.4v30.2c0,1.8,0.5,2.6,2.2,2.6c1.7,0,2.1-0.8,2.1-2.6v-30.2c0-1.6,0.7-2.4,2.4-2.4h7.6c1.6,0,2.4,0.7,2.4,2.4
		v30.2c0,1.8,0.4,2.6,2.1,2.6c1.7,0,2.2-0.8,2.2-2.6v-30.2c0-1.6,0.7-2.4,2.3-2.4h7.6c1.6,0,2.4,0.7,2.4,2.4v32.3
		c0,8-3.1,13.3-13,13.3C113.6,289.8,110.5,288.7,108.8,286.6z"/>
	<path fill="#FFFFFF" d="M101.1,344.4h-9.6c-1.6,0-2.4-0.8-2.4-2.4v-32.3c0-7.9,3.3-13.3,19.5-13.3c16.3,0,19.6,5.4,19.6,13.3v32.3
		c0,1.6-0.7,2.4-2.4,2.4h-9.9c-1.6,0-2.4-0.8-2.4-2.4v-9.7h-10.2v9.7C103.5,343.6,102.8,344.4,101.1,344.4z M103.5,320.3h10.2v-8.4
		c0-1.8-0.5-3.1-5.1-3.1c-4.6,0-5.2,1.3-5.2,3.1V320.3z"/>
	<path fill="#FFFFFF" d="M104,397.5c0,1.6-0.7,2.3-2.4,2.3H91.6c-1.6,0-2.4-0.7-2.4-2.3v-42.3c0-1.6,0.7-2.4,2.4-2.4h10.1
		c1.6,0,2.4,0.7,2.4,2.4V397.5z M113.6,355.2c0-1.6,0.7-2.4,2.4-2.4H126c1.6,0,2.4,0.7,2.4,2.4v42.3c0,1.6-0.7,2.3-2.4,2.3h-10.1
		c-1.6,0-2.4-0.7-2.4-2.3V355.2z"/>
	<path fill="#FFFFFF" d="M101.1,455.4h-9.6c-1.6,0-2.4-0.8-2.4-2.4v-32.3c0-7.9,3.3-13.3,19.5-13.3c16.3,0,19.6,5.4,19.6,13.3v32.3
		c0,1.6-0.7,2.4-2.4,2.4h-9.9c-1.6,0-2.4-0.8-2.4-2.4v-9.7h-10.2v9.7C103.5,454.6,102.8,455.4,101.1,455.4z M103.5,431.3h10.2v-8.4
		c0-1.8-0.5-3.1-5.1-3.1c-4.6,0-5.2,1.3-5.2,3.1V431.3z"/>
	<path fill="#FFFFFF" d="M108.8,462.8c16.2,0,19.6,5.4,19.6,13.3v32.3c0,1.6-0.7,2.4-2.4,2.4h-10.2c-1.6,0-2.4-0.8-2.4-2.4v-29.8
		c0-1.8-0.8-3.1-4.8-3.1c-4,0-4.8,1.3-4.8,3.1v29.8c0,1.6-0.7,2.4-2.4,2.4h-9.9c-1.6,0-2.4-0.8-2.4-2.4v-32.3
		C89.2,468.2,92.6,462.8,108.8,462.8z"/>
</g>
<g>
	<path fill="#265560" d="M233.2,57c22.9,0,39,16.1,39,39c0,22.9-16.1,39-39,39s-39-16.1-39-39C194.3,73.1,210.3,57,233.2,57z"/>
	<path fill="#265560" d="M233.2,137.6c22.9,0,39,16.1,39,39c0,22.9-16.1,39-39,39s-39-16.1-39-39
		C194.3,153.7,210.3,137.6,233.2,137.6z"/>
	<path fill="#265560" d="M233.2,218.3c22.9,0,39,16.1,39,39c0,22.9-16.1,39-39,39s-39-16.1-39-39
		C194.3,234.4,210.3,218.3,233.2,218.3z"/>
	<path fill="#265560" d="M233.2,299c22.9,0,39,16.1,39,39c0,22.9-16.1,39-39,39s-39-16.1-39-39C194.3,315,210.3,299,233.2,299z"/>
	<path fill="#265560" d="M233.2,379.6c22.9,0,39,16.1,39,39c0,22.9-16.1,39-39,39s-39-16.1-39-39
		C194.3,395.7,210.3,379.6,233.2,379.6z"/>
</g>
<g>
	<path fill="#FFFFFF" d="M217.3,118c-1.5,0-2.2-0.7-2.2-2.2v-39c0-1.5,0.7-2.2,2.2-2.2h19.4c11.4,0,14.8,5,14.8,12.3v18.8
		c0,7.3-3.4,12.3-14.8,12.3H217.3z M228.8,106.6h6.3c2.4,0,2.8-1.3,2.8-2.9V89c0-1.6-0.4-2.9-2.8-2.9h-6.3V106.6z"/>
</g>
<g>
	<path fill="#FFFFFF" d="M215.7,195.7v-7.2c0-1.5,0.7-2.2,2.2-2.2h8.1v-20.2h-8.1c-1.5,0-2.2-0.7-2.2-2.2v-7.3
		c0-1.5,0.7-2.2,2.2-2.2h30.7c1.5,0,2.2,0.7,2.2,2.2v7.3c0,1.5-0.7,2.2-2.2,2.2h-8.1v20.2h8.1c1.5,0,2.2,0.7,2.2,2.2v7.2
		c0,1.5-0.7,2.2-2.2,2.2h-30.7C216.4,197.8,215.7,197.2,215.7,195.7z"/>
</g>
<g>
	<path fill="#FFFFFF" d="M217.3,279.4c-1.5,0-2.2-0.7-2.2-2.2v-39c0-1.5,0.7-2.2,2.2-2.2h6.3c1.6,0,2.5,0.4,3.6,1.6L238,251v-12.8
		c0-1.5,0.7-2.2,2.2-2.2h9c1.5,0,2.2,0.7,2.2,2.2v39c0,1.5-0.7,2.2-2.2,2.2h-9c-1.5,0-2.2-0.7-2.2-2.2v-7.4l-9.5-12.5v19.9
		c0,1.5-0.7,2.2-2.2,2.2H217.3z"/>
</g>
<g>
	<path fill="#FFFFFF" d="M217.3,358.8c-1.5,0-2.2-0.7-2.2-2.2v-39c0-1.5,0.7-2.2,2.2-2.2h31.2c1.5,0,2.2,0.7,2.2,2.2v7
		c0,1.5-0.7,2.2-2.2,2.2h-19.7v4.6h14.8c1.5,0,2.2,0.6,2.2,2.2v6.4c0,1.5-0.7,2.2-2.2,2.2h-14.8v5.2h19.7c1.5,0,2.2,0.7,2.2,2.2v7
		c0,1.5-0.7,2.2-2.2,2.2H217.3z"/>
</g>
<g>
	<path fill="#FFFFFF" d="M217.3,439.7c-1.5,0-2.2-0.7-2.2-2.2v-39c0-1.5,0.7-2.2,2.2-2.2h19.4c9,0,11.9,4.1,11.9,10.1v2.8
		c0,3.4-0.8,5.8-3.4,6.9c3.7,0.5,6.7,3.7,6.7,8.7v12.8c0,1.5-0.7,2.2-2.2,2.2h-9.3c-1.5,0-2.2-0.7-2.2-2.2v-9.6
		c0-1.8-0.6-2.6-2.3-2.6h-7.2v12.2c0,1.5-0.7,2.2-2.2,2.2H217.3z M228.8,414.9h3.9c2.1,0,2.6-1.2,2.6-2.8v-2c0-1.6-0.5-2.8-2.6-2.8
		h-3.9V414.9z"/>
</g>
<g>
	<path fill="#265560" d="M1006.2,132.2h-68.9c-1.7,0-2.5-0.8-2.5-2.5V60.8c0-1.7,0.8-2.5,2.5-2.5h68.9c1.7,0,2.5,0.8,2.5,2.5v68.9
		C1008.6,131.4,1007.9,132.2,1006.2,132.2z"/>
	<path fill="#265560" d="M1006.2,217.6h-68.9c-1.7,0-2.5-0.8-2.5-2.5v-68.9c0-1.7,0.8-2.5,2.5-2.5h68.9c1.7,0,2.5,0.8,2.5,2.5v68.9
		C1008.6,216.9,1007.9,217.6,1006.2,217.6z"/>
	<path fill="#265560" d="M1006.2,303.1h-68.9c-1.7,0-2.5-0.8-2.5-2.5v-68.9c0-1.7,0.8-2.5,2.5-2.5h68.9c1.7,0,2.5,0.8,2.5,2.5v68.9
		C1008.6,302.3,1007.9,303.1,1006.2,303.1z"/>
	<path fill="#265560" d="M1006.2,388.5h-68.9c-1.7,0-2.5-0.8-2.5-2.5v-68.9c0-1.7,0.8-2.5,2.5-2.5h68.9c1.7,0,2.5,0.8,2.5,2.5v68.9
		C1008.6,387.8,1007.9,388.5,1006.2,388.5z"/>
	<path fill="#265560" d="M1006.2,474h-68.9c-1.7,0-2.5-0.8-2.5-2.5v-68.9c0-1.7,0.8-2.5,2.5-2.5h68.9c1.7,0,2.5,0.8,2.5,2.5v68.9
		C1008.6,473.2,1007.9,474,1006.2,474z"/>
</g>
<g>
	<path fill="#FFFFFF" d="M954.5,118c-1.5,0-2.2-0.7-2.2-2.2l0.2-39c0-1.5,0.7-2.2,2.2-2.2h7.9c1.6,0,3.1,0.4,3.9,1.8l4.2,10.6h1.4
		l4.7-10.6c0.8-1.3,1.8-1.8,3.4-1.8h8.4c1.6,0,2.2,0.7,2.2,2.2l0.2,39c0,1.5-0.6,2.2-2.2,2.2h-9.1c-1.5,0-2.2-0.7-2.2-2.2l-0.2-17.6
		v-2.5l-2.3,6.6c-0.8,1.4-1.6,1.9-3.2,1.9h-1.6c-1.6,0-2.4-0.5-3.2-1.9l-2.3-6.6v2.5l-0.2,17.6c0,1.5-0.7,2.2-2.2,2.2H954.5z"/>
</g>
<g>
	<path fill="#FFFFFF" d="M971.7,202.3c-14.8,0-18.3-4.9-18.3-12.3v-20.5c0-7.3,3.5-12.3,18.3-12.3c14.7,0,18.3,5,18.3,12.3V190
		C990,197.4,986.4,202.3,971.7,202.3z M971.7,190.7c4,0,4.7-1.2,4.7-2.8v-16.2c0-1.6-0.7-2.8-4.7-2.8c-4,0-4.6,1.2-4.6,2.8v16.2
		C967.1,189.5,967.7,190.7,971.7,190.7z"/>
</g>
<g>
	<path fill="#FFFFFF" d="M966.6,287.4c-1.5,0-2.2-0.7-2.2-2.2v-29.6h-8.7c-1.5,0-2.2-0.7-2.2-2.2v-7.3c0-1.5,0.7-2.2,2.2-2.2h31.8
		c1.5,0,2.2,0.7,2.2,2.2v7.3c0,1.5-0.7,2.2-2.2,2.2h-8.7v29.6c0,1.5-0.7,2.2-2.2,2.2H966.6z"/>
</g>
<g>
	<path fill="#FFFFFF" d="M955.8,371.3c-1.5,0-2.2-0.7-2.2-2.2v-39c0-1.5,0.7-2.2,2.2-2.2H987c1.5,0,2.2,0.7,2.2,2.2v7
		c0,1.5-0.7,2.2-2.2,2.2h-19.7v4.6h14.8c1.5,0,2.2,0.6,2.2,2.2v6.4c0,1.5-0.7,2.2-2.2,2.2h-14.8v5.2H987c1.5,0,2.2,0.7,2.2,2.2v7
		c0,1.5-0.7,2.2-2.2,2.2H955.8z"/>
</g>
<g>
	<path fill="#FFFFFF" d="M955.8,457.6c-1.5,0-2.2-0.7-2.2-2.2v-39c0-1.5,0.7-2.2,2.2-2.2h9.3c1.5,0,2.2,0.7,2.2,2.2v29.8h9.4v-9.8
		c0-1.5,0.7-2.2,2.2-2.2h8.7c1.5,0,2.2,0.7,2.2,2.2v19c0,1.5-0.7,2.2-2.2,2.2H955.8z"/>
</g>
<path fill="#26839C" d="M661.4,82.6h-1.9c0-6.2-5.1-11.3-11.3-11.3c-1.6-9.2-10.5-15.3-34.6-15.3c-24.1,0-33,6.1-34.6,15.3
	c-6.2,0-11.3,5.1-11.3,11.3h-1.9c-2,0-2.9,0.9-2.9,2.9v6.3c0,2,0.9,2.9,2.9,2.9h4.3v79.4v6.4v74.1v6.4v74.1v6.4v20.4v86.9v12.5v1.8
	v5c0,2,0.9,2.9,2.9,2.9h1.9c0,6.2,5.1,11.3,11.3,11.3v1.9c0,2,0.9,2.9,2.9,2.9H638c2,0,2.9-0.9,2.9-2.9v-1.9
	c6.2,0,11.3-5.1,11.3-11.3h1.9c2,0,2.9-0.9,2.9-2.9v-5v10.7v-25v-86.9v-20.4v-6.4V261v-6.4v-74.1v-6.4V94.6h4.3c2,0,2.9-0.9,2.9-2.9
	v-6.3C664.3,83.5,663.4,82.6,661.4,82.6z"/>
<g>
	<path fill="#26839C" d="M813,65.5c0-3.1,1.5-4.7,4.7-4.7h69.2c3.1,0,4.7,1.5,4.7,4.7v16.4H813V65.5z"/>
	<path fill="#26839C" d="M813,154.6V76.1h78.5v78.5H813z"/>
	<path fill="#26839C" d="M813,227.3v-78.5h78.5v78.5H813z"/>
	<path fill="#26839C" d="M813,390.8V221.5h78.5v169.4H813z"/>
	<path fill="#26839C" d="M813,485.6V385h78.5v100.5H813z"/>
	<path fill="#26839C" d="M891.5,483.2h10.3c5.1,0,6.7,7.1,0.7,11.6l-42.2,31.7c-4.9,3.7-11,3.7-16,0l-42.2-31.7
		c-6-4.4-4.4-11.6,0.7-11.6H813v-3.4h78.5V483.2z"/>
</g>
<g>
	<path fill="#FFFFFF" d="M836,129.1c-1.6,0-2.3-0.7-2.3-2.3v-7.3c0-1.6,0.7-2.3,2.3-2.3h19.5c1.1,0,1.6-0.8,1.6-1.8
		c0-1.4-0.6-2-1.6-2.1l-12-1.3c-5.9-0.9-9.7-3.4-9.7-10.4v-6.6c0-7.1,4.8-11,13-11h20.8c1.6,0,2.3,0.7,2.3,2.3v7.5
		c0,1.6-0.7,2.3-2.3,2.3h-17.9c-1.1,0-1.7,0.7-1.7,1.9c0,1.1,0.6,1.9,1.7,2l12,1.3c5.9,0.9,9.8,3.4,9.8,10.4v6.6c0,7.1-4.9,11-13,11
		H836z"/>
	<path fill="#FFFFFF" d="M836,182.2c-1.6,0-2.3-0.7-2.3-2.3v-40.6c0-1.6,0.7-2.3,2.3-2.3h9.7c1.6,0,2.3,0.7,2.3,2.3v31h9.8v-10.1
		c0-1.6,0.7-2.3,2.3-2.3h9.1c1.6,0,2.3,0.7,2.3,2.3v19.7c0,1.6-0.7,2.3-2.3,2.3H836z"/>
	<path fill="#FFFFFF" d="M833.5,231.2c0-1.6,0.7-2.3,2.3-2.3H853c3,0,4.6-1.2,4.6-4.2v-26.6c0-1.6,0.7-2.3,2.3-2.3h9.7
		c1.6,0,2.3,0.7,2.3,2.3v29.7c0,8.3-5.1,13.2-13.3,13.2h-22.7c-1.6,0-2.3-0.7-2.3-2.3V231.2z M835.8,220.4c-1.6,0-2.3-0.7-2.3-2.3
		v-19.9c0-1.6,0.7-2.3,2.3-2.3h9.7c1.6,0,2.3,0.7,2.3,2.3v19.9c0,1.6-0.7,2.3-2.3,2.3H835.8z"/>
	<path fill="#FFFFFF" d="M847.2,299.9c-1.6,0-2.3-0.7-2.3-2.3v-30.8h-9c-1.6,0-2.3-0.7-2.3-2.3V257c0-1.6,0.7-2.3,2.3-2.3H869
		c1.6,0,2.3,0.7,2.3,2.3v7.6c0,1.6-0.7,2.3-2.3,2.3h-9v30.8c0,1.6-0.7,2.3-2.3,2.3H847.2z"/>
	<path fill="#FFFFFF" d="M836,353.4c-1.6,0-2.3-0.7-2.3-2.3v-40.6c0-1.6,0.7-2.3,2.3-2.3h32.4c1.6,0,2.3,0.7,2.3,2.3v7.3
		c0,1.6-0.7,2.3-2.3,2.3h-20.5v4.8h15.4c1.6,0,2.3,0.6,2.3,2.3v6.7c0,1.6-0.7,2.3-2.3,2.3h-15.4v5.4h20.5c1.6,0,2.3,0.7,2.3,2.3v7.3
		c0,1.6-0.7,2.3-2.3,2.3H836z"/>
	<path fill="#FFFFFF" d="M836,408c-1.6,0-2.3-0.7-2.3-2.3v-40.6c0-1.6,0.7-2.3,2.3-2.3h20.2c9.4,0,12.3,4.3,12.3,10.5v2.9
		c0,3.5-0.9,6-3.5,7.1c3.8,0.5,7,3.8,7,9.1v13.3c0,1.6-0.7,2.3-2.3,2.3h-9.7c-1.6,0-2.3-0.7-2.3-2.3v-10c0-1.9-0.6-2.7-2.4-2.7h-7.5
		v12.7c0,1.6-0.7,2.3-2.3,2.3H836z M847.9,382.2h4c2.2,0,2.8-1.3,2.8-2.9v-2.1c0-1.7-0.6-2.9-2.8-2.9h-4V382.2z"/>
	<path fill="#FFFFFF" d="M833.5,456.2c0-1.6,0.7-2.3,2.3-2.3H853c3,0,4.6-1.2,4.6-4.2v-26.6c0-1.6,0.7-2.3,2.3-2.3h9.7
		c1.6,0,2.3,0.7,2.3,2.3v29.7c0,8.3-5.1,13.2-13.3,13.2h-22.7c-1.6,0-2.3-0.7-2.3-2.3V456.2z M835.8,445.4c-1.6,0-2.3-0.7-2.3-2.3
		v-19.9c0-1.6,0.7-2.3,2.3-2.3h9.7c1.6,0,2.3,0.7,2.3,2.3v19.9c0,1.6-0.7,2.3-2.3,2.3H835.8z"/>
</g>
<g>
	<path fill="#FFFFFF" d="M339.1,142.8c-1.6,0-2.4-0.7-2.4-2.3V98.1c0-1.6,0.7-2.4,2.4-2.4h10.1c1.6,0,2.4,0.7,2.4,2.4v32.3h10.2
		v-10.6c0-1.6,0.7-2.3,2.4-2.3h9.5c1.6,0,2.4,0.7,2.4,2.3v20.6c0,1.6-0.7,2.3-2.4,2.3H339.1z"/>
	<path fill="#FFFFFF" d="M337.3,197.9v-7.8c0-1.6,0.7-2.4,2.3-2.4h8.7v-21.9h-8.7c-1.6,0-2.3-0.7-2.3-2.4v-7.9
		c0-1.6,0.7-2.4,2.3-2.4H373c1.6,0,2.3,0.7,2.3,2.4v7.9c0,1.6-0.7,2.4-2.3,2.4h-8.7v21.9h8.7c1.6,0,2.3,0.7,2.3,2.4v7.8
		c0,1.6-0.7,2.3-2.3,2.3h-33.3C338.1,200.3,337.3,199.5,337.3,197.9z"/>
	<path fill="#FFFFFF" d="M351.3,263.1c-1.6,0-2.4-0.7-2.4-2.4v-3.7c-9.8-1.5-12.4-6.3-12.4-12.8v-21.7c0-8,3.9-13.4,19.8-13.4
		c16,0,19.8,5.4,19.8,13.4v21.7c0,6.6-2.6,11.4-12.5,12.9v3.6c0,1.6-0.7,2.4-2.4,2.4H351.3z M356.3,245.9c4.4,0,5.1-1.3,5.1-3.1V225
		c0-1.7-0.7-3-5.1-3c-4.3,0-5,1.3-5,3v17.8C351.3,244.6,352,245.9,356.3,245.9z"/>
	<path fill="#FFFFFF" d="M356.3,318.5c-15.7,0-19.6-5.4-19.6-13.3v-32.3c0-1.6,0.7-2.4,2.4-2.4h10.2c1.6,0,2.4,0.7,2.4,2.4v29.8
		c0,1.8,0.8,3.1,4.8,3.1c4,0,4.8-1.3,4.8-3.1v-29.8c0-1.6,0.7-2.4,2.4-2.4h9.9c1.6,0,2.4,0.7,2.4,2.4v32.3
		C375.9,313.1,372,318.5,356.3,318.5z"/>
	<path fill="#FFFFFF" d="M356.3,374.9c-16,0-19.8-5.4-19.8-13.3v-22.3c0-8,3.9-13.4,19.8-13.4c16,0,19.8,5.4,19.8,13.4v22.3
		C376.2,369.6,372.3,374.9,356.3,374.9z M356.3,362.3c4.4,0,5.1-1.3,5.1-3.1v-17.6c0-1.7-0.7-3-5.1-3c-4.3,0-5,1.3-5,3v17.6
		C351.3,361,352,362.3,356.3,362.3z"/>
	<path fill="#FFFFFF" d="M339.1,430.3c-1.6,0-2.4-0.7-2.4-2.3v-42.3c0-1.6,0.7-2.4,2.4-2.4h21c9.8,0,12.9,4.4,12.9,10.9v3
		c0,3.7-0.9,6.3-3.7,7.4c4,0.5,7.2,4,7.2,9.5V428c0,1.6-0.7,2.3-2.4,2.3h-10.1c-1.6,0-2.4-0.7-2.4-2.3v-10.4c0-2-0.7-2.8-2.5-2.8
		h-7.8V428c0,1.6-0.7,2.3-2.4,2.3H339.1z M351.5,403.5h4.2c2.3,0,2.9-1.3,2.9-3.1v-2.2c0-1.8-0.6-3.1-2.9-3.1h-4.2V403.5z"/>
</g>
<g>
	<path fill="#FFFFFF" d="M465.1,150.5c-1.7,0-2.4-0.7-2.4-2.4V104c0-1.7,0.7-2.4,2.4-2.4h21.1c9.2,0,13.1,4.4,13.1,10.4v3.3
		c0,3.5-1,6.1-4,7.3c4.9,0.5,8.6,4.1,8.6,10.5v6.3c0,6.9-4.5,11.2-13.2,11.2H465.1z M478,120.5h5.2c2.2,0,2.6-1.3,2.6-2.7v-1.9
		c0-1.4-0.4-2.7-2.6-2.7H478V120.5z M478,139h8.2c2.2,0,2.6-1.3,2.6-2.7v-2.6c0-1.4-0.4-2.7-2.6-2.7H478V139z"/>
	<path fill="#FFFFFF" d="M475.1,208.6h-10c-1.8,0-2.4-0.7-2.4-2.4v-17.9c0-4.7,0.7-5.7,2.7-10.9l5.2-15.4c0.6-1.7,1.7-2.2,3.5-2.2
		h17.6c1.8,0,2.8,0.5,3.4,2.2l5.9,15.4c2,5.2,2.7,6.2,2.7,10.9v17.9c0,1.7-0.7,2.4-2.4,2.4h-10.3c-1.7,0-2.7-0.7-2.7-2.4v-9.5h-10.7
		v9.5C477.5,207.8,476.8,208.6,475.1,208.6z M478.2,184.2h9.3l-3.2-10.3c-0.4-0.9-0.5-1.2-1.3-1.2h-0.3c-0.7,0-0.9,0.3-1.3,1.2
		L478.2,184.2z"/>
	<path fill="#FFFFFF" d="M465.1,267c-1.7,0-2.4-0.7-2.4-2.4v-44.1c0-1.7,0.7-2.4,2.4-2.4H487c10.2,0,13.4,4.6,13.4,11.4v3.1
		c0,3.8-1,6.5-3.8,7.8c4.1,0.5,7.5,4.1,7.5,9.9v14.4c0,1.7-0.7,2.4-2.4,2.4h-10.5c-1.7,0-2.4-0.7-2.4-2.4v-10.9c0-2-0.7-2.9-2.6-2.9
		h-8.1v13.8c0,1.7-0.7,2.4-2.4,2.4H465.1z M478.1,239h4.4c2.4,0,3-1.4,3-3.2v-2.3c0-1.8-0.6-3.2-3-3.2h-4.4V239z"/>
	<path fill="#FFFFFF" d="M461.6,313.1l-4.4-4.4c-0.5-0.5-0.5-1.2,0.1-1.7l21.6-21.6c0.5-0.6,1.2-0.5,1.7-0.1l4.4,4.4
		c0.5,0.5,0.5,1.2-0.1,1.7L463.3,313C462.8,313.5,462.1,313.5,461.6,313.1z M469.3,315.1c-0.8-0.8-1.3-1.8-1.4-2.4l-0.8-2.5
		l15.7-15.6l10.7,7.3c0.7,0.5,1.8,1.5,2.6,2.5l12.8,14.8c0.4,0.5,0.7,1.4,0,2l-2.3,2.3c-0.6,0.6-1.4,0.4-2.1-0.3l-12.6-12.6
		l-0.5,0.5l4.4,4.4c0.5,0.5,0.6,1.1,0.1,1.6l-2,2c-0.7,0.6-1.4,0.4-2.1-0.2l-5.1-4.5l-0.5,0.5l4.2,3.7c0.5,0.5,0.5,1.2,0,1.8
		l-2.1,2.1c-0.7,0.6-1.4,0.3-2.1-0.3l-4.9-4.2l-0.5,0.5l4.2,3.7c0.5,0.4,0.4,1.2,0,1.6l-2.3,2.2c-0.5,0.5-1.4,0.3-1.9-0.1
		L469.3,315.1z"/>
</g>
<g>
	<path fill="#FFFFFF" d="M598.7,136.5c-1.6,0-2.3-0.7-2.3-2.3V93.6c0-1.6,0.7-2.3,2.3-2.3h19.4c8.5,0,12,4.1,12,9.6v3
		c0,3.2-0.9,5.6-3.7,6.8c4.5,0.4,7.9,3.8,7.9,9.7v5.8c0,6.3-4.1,10.3-12.1,10.3H598.7z M610.5,108.8h4.8c2,0,2.4-1.2,2.4-2.5v-1.8
		c0-1.3-0.4-2.5-2.4-2.5h-4.8V108.8z M610.5,125.8h7.6c2,0,2.4-1.2,2.4-2.5v-2.4c0-1.3-0.4-2.4-2.4-2.4h-7.6V125.8z"/>
	<path fill="#FFFFFF" d="M615.2,191.2c-15,0-18.8-5.1-18.8-12.8v-31c0-1.6,0.7-2.3,2.3-2.3h9.8c1.6,0,2.3,0.7,2.3,2.3V176
		c0,1.7,0.8,2.9,4.6,2.9c3.9,0,4.6-1.3,4.6-2.9v-28.6c0-1.6,0.6-2.3,2.3-2.3h9.5c1.6,0,2.3,0.7,2.3,2.3v31
		C634,186,630.2,191.2,615.2,191.2z"/>
	<path fill="#FFFFFF" d="M598.7,244.3c-1.6,0-2.3-0.7-2.3-2.3v-40.6c0-1.6,0.7-2.3,2.3-2.3h20.2c9.4,0,12.3,4.3,12.3,10.5v2.9
		c0,3.5-0.9,6-3.5,7.1c3.8,0.5,7,3.8,7,9.1v13.3c0,1.6-0.7,2.3-2.3,2.3h-9.7c-1.6,0-2.3-0.7-2.3-2.3v-10c0-1.9-0.6-2.7-2.4-2.7h-7.5
		v12.7c0,1.6-0.7,2.3-2.3,2.3H598.7z M610.6,218.5h4c2.2,0,2.8-1.3,2.8-2.9v-2.1c0-1.7-0.6-2.9-2.8-2.9h-4V218.5z"/>
	<path fill="#FFFFFF" d="M611.5,297.8c-11.8,0-15.4-5.2-15.4-12.8v-19.5c0-7.6,3.6-12.8,15.4-12.8h16.2c1.6,0,2.3,0.7,2.3,2.3v7.6
		c0,1.6-0.7,2.3-2.3,2.3h-13.5c-3.3,0-3.8,1.5-3.8,3.1v15c0,1.7,0.4,3.1,2.9,3.1h6.6v-9.8c0-1.6,0.7-2.3,2.3-2.3h9.7
		c1.6,0,2.3,0.7,2.3,2.3v19.4c0,1.6-0.7,2.3-2.3,2.3H611.5z"/>
	<path fill="#FFFFFF" d="M598.7,352.4c-1.6,0-2.3-0.7-2.3-2.3v-40.6c0-1.6,0.7-2.3,2.3-2.3h32.4c1.6,0,2.3,0.7,2.3,2.3v7.3
		c0,1.6-0.7,2.3-2.3,2.3h-20.5v4.8H626c1.6,0,2.3,0.6,2.3,2.3v6.7c0,1.6-0.7,2.3-2.3,2.3h-15.4v5.4h20.5c1.6,0,2.3,0.7,2.3,2.3v7.3
		c0,1.6-0.7,2.3-2.3,2.3H598.7z"/>
	<path fill="#FFFFFF" d="M598.7,407c-1.6,0-2.3-0.7-2.3-2.3v-40.6c0-1.6,0.7-2.3,2.3-2.3h20.2c9.4,0,12.3,4.3,12.3,10.5v2.9
		c0,3.5-0.9,6-3.5,7.1c3.8,0.5,7,3.8,7,9.1v13.3c0,1.6-0.7,2.3-2.3,2.3h-9.7c-1.6,0-2.3-0.7-2.3-2.3v-10c0-1.9-0.6-2.7-2.4-2.7h-7.5
		v12.7c0,1.6-0.7,2.3-2.3,2.3H598.7z M610.6,381.2h4c2.2,0,2.8-1.3,2.8-2.9v-2.1c0-1.7-0.6-2.9-2.8-2.9h-4V381.2z"/>
	<path fill="#FFFFFF" d="M598.7,460.8c-1.6,0-2.3-0.7-2.3-2.3v-7.3c0-1.6,0.7-2.3,2.3-2.3h19.5c1.1,0,1.6-0.8,1.6-1.8
		c0-1.4-0.6-2-1.6-2.1l-12-1.3c-5.9-0.9-9.7-3.4-9.7-10.4v-6.6c0-7.1,4.8-11,13-11h20.8c1.6,0,2.3,0.7,2.3,2.3v7.5
		c0,1.6-0.7,2.3-2.3,2.3h-17.9c-1.1,0-1.7,0.7-1.7,1.9c0,1.1,0.6,1.9,1.7,2l12,1.3c5.9,0.9,9.8,3.4,9.8,10.4v6.6c0,7.1-4.9,11-13,11
		H598.7z"/>
</g>
<g>
	<path fill="#FFFFFF" d="M76.1,107c-0.7,0-1-0.3-1-1V91.9h-4.2c-0.7,0-1-0.3-1-1v-3.5c0-0.7,0.3-1,1-1h15.1c0.7,0,1,0.3,1,1v3.5
		c0,0.7-0.3,1-1,1h-4.2v14.1c0,0.7-0.3,1-1,1H76.1z"/>
	<path fill="#FFFFFF" d="M99.4,107c-0.7,0-1-0.3-1-1V87.4c0-0.7,0.3-1,1-1h4.4c0.7,0,1,0.3,1,1v6.2h4.8v-6.2c0-0.7,0.3-1,1-1h4.4
		c0.7,0,1,0.3,1,1v18.6c0,0.7-0.3,1-1,1h-4.4c-0.7,0-1-0.3-1-1v-6.4h-4.8v6.4c0,0.7-0.3,1-1,1H99.4z"/>
	<path fill="#FFFFFF" d="M129.7,107c-0.7,0-1-0.3-1-1V87.4c0-0.7,0.3-1,1-1H143c0.7,0,1,0.3,1,1v3.4c0,0.7-0.3,1-1,1h-7.8V94h5.5
		c0.7,0,1,0.3,1,1v3.1c0,0.7-0.3,1-1,1h-5.5v2.5h7.8c0.7,0,1,0.3,1,1v3.4c0,0.7-0.3,1-1,1H129.7z"/>
</g>
<g>
	<path fill="#FFFFFF" d="M1596.3,159.5c-1.7,0-2.4-0.7-2.4-2.4v-7.8c0-1.7,0.7-2.4,2.4-2.4h20.6c1.1,0,1.7-0.9,1.7-1.9
		c0-1.5-0.6-2.1-1.7-2.3l-12.7-1.4c-6.2-0.9-10.3-3.6-10.3-11v-7c0-7.6,5.1-11.7,13.7-11.7h22c1.7,0,2.4,0.7,2.4,2.4v7.9
		c0,1.7-0.7,2.4-2.4,2.4h-18.9c-1.1,0-1.8,0.8-1.8,2c0,1.2,0.7,2,1.8,2.1l12.7,1.3c6.2,0.9,10.3,3.6,10.3,11v7
		c0,7.6-5.2,11.7-13.7,11.7H1596.3z"/>
	<path fill="#FFFFFF" d="M1596.3,215.7c-1.7,0-2.4-0.7-2.4-2.4v-43c0-1.7,0.7-2.4,2.4-2.4h10.3c1.7,0,2.4,0.7,2.4,2.4v32.8h10.3
		v-10.7c0-1.7,0.7-2.4,2.4-2.4h9.6c1.7,0,2.4,0.7,2.4,2.4v20.9c0,1.7-0.7,2.4-2.4,2.4H1596.3z"/>
	<path fill="#FFFFFF" d="M1593.7,267.6c0-1.7,0.7-2.4,2.4-2.4h18.2c3.2,0,4.8-1.3,4.8-4.4v-28.1c0-1.7,0.7-2.4,2.4-2.4h10.3
		c1.7,0,2.4,0.7,2.4,2.4v31.4c0,8.8-5.4,13.9-14.1,13.9h-24c-1.7,0-2.4-0.7-2.4-2.4V267.6z M1596.1,256.1c-1.7,0-2.4-0.7-2.4-2.4
		v-21.1c0-1.7,0.7-2.4,2.4-2.4h10.3c1.7,0,2.4,0.7,2.4,2.4v21.1c0,1.7-0.7,2.4-2.4,2.4H1596.1z"/>
	<path fill="#FFFFFF" d="M1608.2,340.4c-1.7,0-2.4-0.7-2.4-2.4v-32.6h-9.6c-1.7,0-2.4-0.7-2.4-2.4v-8c0-1.7,0.7-2.4,2.4-2.4h35
		c1.7,0,2.4,0.7,2.4,2.4v8c0,1.7-0.7,2.4-2.4,2.4h-9.6V338c0,1.7-0.7,2.4-2.4,2.4H1608.2z"/>
	<path fill="#FFFFFF" d="M1596.3,397.1c-1.7,0-2.4-0.7-2.4-2.4v-43c0-1.7,0.7-2.4,2.4-2.4h34.4c1.7,0,2.4,0.7,2.4,2.4v7.8
		c0,1.7-0.7,2.4-2.4,2.4h-21.7v5.1h16.3c1.7,0,2.4,0.7,2.4,2.4v7.1c0,1.7-0.7,2.4-2.4,2.4h-16.3v5.7h21.7c1.7,0,2.4,0.7,2.4,2.4v7.8
		c0,1.7-0.7,2.4-2.4,2.4H1596.3z"/>
	<path fill="#FFFFFF" d="M1596.3,454.9c-1.7,0-2.4-0.7-2.4-2.4v-43c0-1.7,0.7-2.4,2.4-2.4h21.4c9.9,0,13.1,4.5,13.1,11.1v3.1
		c0,3.7-0.9,6.4-3.7,7.6c4,0.5,7.4,4,7.4,9.6v14.1c0,1.7-0.7,2.4-2.4,2.4h-10.3c-1.7,0-2.4-0.7-2.4-2.4v-10.6c0-2-0.7-2.9-2.5-2.9
		h-7.9v13.5c0,1.7-0.7,2.4-2.4,2.4H1596.3z M1608.9,427.6h4.2c2.3,0,2.9-1.3,2.9-3.1v-2.3c0-1.8-0.6-3.1-2.9-3.1h-4.2V427.6z"/>
	<path fill="#FFFFFF" d="M1593.7,506c0-1.7,0.7-2.4,2.4-2.4h18.2c3.2,0,4.8-1.3,4.8-4.4v-28.1c0-1.7,0.7-2.4,2.4-2.4h10.3
		c1.7,0,2.4,0.7,2.4,2.4v31.4c0,8.8-5.4,13.9-14.1,13.9h-24c-1.7,0-2.4-0.7-2.4-2.4V506z M1596.1,494.5c-1.7,0-2.4-0.7-2.4-2.4
		v-21.1c0-1.7,0.7-2.4,2.4-2.4h10.3c1.7,0,2.4,0.7,2.4,2.4v21.1c0,1.7-0.7,2.4-2.4,2.4H1596.1z"/>
</g>
<g>
	<path fill="#26839C" d="M1677.2,143.4c0,1.8-1.2,3.2-2.9,2.5l-36.1-14.3l-36.1,14.3c-1.7,0.7-2.9-0.6-2.9-2.5V70.6
		c0-1.8,0.9-1.9,2.6-2.6l34.2-13.6c1.3-0.5,2.8-0.5,4.1,0l34.4,13.6c1.7,0.6,2.6,0.8,2.6,2.6V143.4z"/>
	<path fill="#26839C" d="M1677.2,200.4h-78v-78h78V200.4z"/>
	<path fill="#26839C" d="M1677.2,261.7h-78v-78h78V261.7z"/>
	<path fill="#26839C" d="M1677.2,323.1h-78v-78h78V323.1z"/>
	<path fill="#26839C" d="M1677.2,384.5h-78v-78h78V384.5z"/>
	<path fill="#26839C" d="M1677.2,445.8h-78v-78h78V445.8z"/>
	<path fill="#26839C" d="M1677.2,497.1c0,1.8-0.9,1.9-2.6,2.6l-34.4,13.6c-1.3,0.5-2.8,0.5-4.1,0l-34.2-13.6
		c-1.7-0.6-2.6-0.8-2.6-2.6v-72.8c0-1.8,1.2-3.2,2.9-2.5l36.1,14.3l36.1-14.3c1.7-0.7,2.9,0.6,2.9,2.5V497.1z"/>
</g>
<g>
	<path fill="#26839C" d="M1609.2,143.4c0,1.8-1.2,3.2-2.9,2.5l-36.1-14.3l-36.1,14.3c-1.7,0.7-2.9-0.6-2.9-2.5V70.6
		c0-1.8,0.9-1.9,2.6-2.6l34.2-13.6c1.3-0.5,2.8-0.5,4.1,0l34.4,13.6c1.7,0.6,2.6,0.8,2.6,2.6V143.4z"/>
	<path fill="#26839C" d="M1609.2,200.4h-78v-78h78V200.4z"/>
	<path fill="#26839C" d="M1609.2,261.7h-78v-78h78V261.7z"/>
	<path fill="#26839C" d="M1609.2,323.1h-78v-78h78V323.1z"/>
	<path fill="#26839C" d="M1609.2,384.5h-78v-78h78V384.5z"/>
	<path fill="#26839C" d="M1609.2,445.8h-78v-78h78V445.8z"/>
	<path fill="#26839C" d="M1609.2,497.1c0,1.8-0.9,1.9-2.6,2.6l-34.4,13.6c-1.3,0.5-2.8,0.5-4.1,0l-34.2-13.6
		c-1.7-0.6-2.6-0.8-2.6-2.6v-72.8c0-1.8,1.2-3.2,2.9-2.5l36.1,14.3l36.1-14.3c1.7-0.7,2.9,0.6,2.9,2.5V497.1z"/>
</g>
<g>
	<path fill="#FFFFFF" d="M1614.6,105.6c0-1.5,0.6-2.1,2.1-2.1h28.6V95c0-1.5,0.6-2.1,2.1-2.1h7c1.5,0,2.1,0.6,2.1,2.1v30.7
		c0,1.5-0.6,2.1-2.1,2.1h-7c-1.5,0-2.1-0.6-2.1-2.1v-8.6h-28.6c-1.5,0-2.1-0.6-2.1-2.1V105.6z"/>
	<path fill="#FFFFFF" d="M1614.6,138.9c0-1.5,0.6-2.1,2.1-2.1h37.7c1.5,0,2.1,0.6,2.1,2.1v27c0,1.5-0.6,2.1-2.1,2.1h-6.8
		c-1.5,0-2.1-0.6-2.1-2.1V150h-4.5v11.2c0,1.5-0.6,2.1-2.1,2.1h-6.2c-1.5,0-2.1-0.6-2.1-2.1V150h-5v15.9c0,1.5-0.6,2.1-2.1,2.1h-6.8
		c-1.5,0-2.1-0.6-2.1-2.1V138.9z"/>
	<path fill="#FFFFFF" d="M1614.6,188.1v-8.6c0-1.5,0.6-2.1,2.1-2.1h28.8c7,0,11.9,3.2,11.9,17.6c0,14.5-4.8,17.7-11.9,17.7h-28.8
		c-1.5,0-2.1-0.6-2.1-2.1v-8.8c0-1.5,0.6-2.1,2.1-2.1h8.7v-9.6h-8.7C1615.2,190.2,1614.6,189.5,1614.6,188.1z M1636,190.2v9.6h7.5
		c1.6,0,2.7-0.7,2.7-4.8c0-4.1-1.2-4.8-2.7-4.8H1636z"/>
	<path fill="#FFFFFF" d="M1614.6,234.4c0-1.5,0.6-2.1,2.1-2.1h28.6v-8.6c0-1.5,0.6-2.1,2.1-2.1h7c1.5,0,2.1,0.6,2.1,2.1v30.7
		c0,1.5-0.6,2.1-2.1,2.1h-7c-1.5,0-2.1-0.6-2.1-2.1v-8.6h-28.6c-1.5,0-2.1-0.6-2.1-2.1V234.4z"/>
	<path fill="#FFFFFF" d="M1614.6,267.6c0-1.5,0.6-2.1,2.1-2.1h37.7c1.5,0,2.1,0.6,2.1,2.1V287c0,8.7-4,11.5-9.7,11.5h-2.7
		c-3.3,0-5.6-0.8-6.6-3.3c-0.5,4.2-3.5,7-8.4,7h-12.3c-1.5,0-2.1-0.6-2.1-2.1v-9c0-1.5,0.6-2.1,2.1-2.1h9.3c1.7,0,2.5-0.6,2.5-2.2
		v-8.1h-11.8c-1.5,0-2.1-0.6-2.1-2.1V267.6z M1638.5,278.7v4.4c0,2,1.2,2.6,2.7,2.6h2c1.6,0,2.7-0.5,2.7-2.6v-4.4H1638.5z"/>
	<path fill="#FFFFFF" d="M1613.7,329.4c0-14.5,4.8-18.1,11.9-18.1h19.8c7.1,0,11.9,3.5,11.9,18.1s-4.8,18-11.9,18h-19.8
		C1618.5,347.5,1613.7,344,1613.7,329.4z M1624.9,329.4c0,4.2,1.2,4.9,2.7,4.9h15.6c1.5,0,2.7-0.6,2.7-4.9c0-4.2-1.2-4.9-2.7-4.9
		h-15.6C1626.1,324.5,1624.9,325.2,1624.9,329.4z"/>
</g>
<g>
	<path fill="#FFFFFF" d="M1555.8,94.6c0-1.5,0.6-2.1,2.1-2.1h37.7c1.5,0,2.1,0.6,2.1,2.1v9.4c0,1.2-0.5,2-1.7,2.7l-9.5,5.2
		c-0.7,0.4-1,0.6-1,1v0.5c0,0.5,0.3,0.6,1,1l9.5,5.2c1.3,0.7,1.7,1.5,1.7,2.7v9.4c0,1.5-0.6,2.1-2.1,2.1h-37.7
		c-1.5,0-2.1-0.6-2.1-2.1v-9c0-1.5,0.6-2.1,2.1-2.1h20.5l-6.3-3.4c-1.3-0.7-1.9-1.6-1.9-3.1v-2.3c0-1.5,0.5-2.4,1.9-3.1l6.3-3.4
		h-20.5c-1.5,0-2.1-0.6-2.1-2.1V94.6z"/>
	<path fill="#FFFFFF" d="M1554.9,162.1c0-14.4,4.8-18,11.9-18h28.8c1.5,0,2.1,0.6,2.1,2.1v9.1c0,1.5-0.6,2.1-2.1,2.1h-26.5
		c-1.6,0-2.7,0.7-2.7,4.8c0,4.1,1.2,4.8,2.7,4.8h26.5c1.5,0,2.1,0.6,2.1,2.1v8.8c0,1.5-0.6,2.1-2.1,2.1h-28.8
		C1559.7,180,1554.9,176.5,1554.9,162.1z"/>
	<path fill="#FFFFFF" d="M1555.8,192.3c0-1.5,0.6-2.1,2.1-2.1h37.7c1.5,0,2.1,0.6,2.1,2.1v6.1c0,1.5-0.4,2.4-1.6,3.4l-12.9,11.3
		h12.4c1.5,0,2.1,0.6,2.1,2.1v8.7c0,1.5-0.6,2.1-2.1,2.1h-37.7c-1.5,0-2.1-0.6-2.1-2.1v-8.7c0-1.5,0.6-2.1,2.1-2.1h7.2l12-9.9h-19.2
		c-1.5,0-2.1-0.6-2.1-2.1V192.3z"/>
	<path fill="#FFFFFF" d="M1557.9,235.7h6.9c1.5,0,2.1,0.6,2.1,2.1v5.8h19.5v-5.8c0-1.5,0.6-2.1,2.1-2.1h7c1.5,0,2.1,0.6,2.1,2.1
		v24.8c0,1.5-0.6,2.1-2.1,2.1h-7c-1.5,0-2.1-0.6-2.1-2.1V257h-19.5v5.6c0,1.5-0.6,2.1-2.1,2.1h-6.9c-1.5,0-2.1-0.6-2.1-2.1v-24.8
		C1555.8,236.4,1556.5,235.7,1557.9,235.7z"/>
	<path fill="#FFFFFF" d="M1555.8,288.4c0-11,4.8-14.3,11.9-14.3h18.1c7.1,0,11.9,3.3,11.9,14.3v14.2c0,1.5-0.6,2.1-2.1,2.1h-7
		c-1.5,0-2.1-0.6-2.1-2.1v-11.7c0-3-1.4-3.5-2.9-3.5h-13.8c-1.6,0-2.8,0.5-2.8,3.5v11.7c0,1.5-0.6,2.1-2.1,2.1h-6.9
		c-1.5,0-2.1-0.6-2.1-2.1V288.4z"/>
	<path fill="#FFFFFF" d="M1557.9,313.7h6.9c1.5,0,2.1,0.6,2.1,2.1v5.8h19.5v-5.8c0-1.5,0.6-2.1,2.1-2.1h7c1.5,0,2.1,0.6,2.1,2.1
		v24.8c0,1.5-0.6,2.1-2.1,2.1h-7c-1.5,0-2.1-0.6-2.1-2.1v-5.6h-19.5v5.6c0,1.5-0.6,2.1-2.1,2.1h-6.9c-1.5,0-2.1-0.6-2.1-2.1v-24.8
		C1555.8,314.3,1556.5,313.7,1557.9,313.7z"/>
	<path fill="#FFFFFF" d="M1555.8,354.5c0-1.5,0.6-2.1,2.1-2.1h37.7c1.5,0,2.1,0.6,2.1,2.1v17.8c0,10.6-4.6,13.7-11.3,13.7h-7.4
		c-6.7,0-11.3-3.1-11.3-13.7v-6.7h-9.7c-1.5,0-2.1-0.6-2.1-2.1V354.5z M1578,365.5v5.2c0,2.3,1.3,2.7,2.9,2.7h3.1
		c1.5,0,2.9-0.5,2.9-2.7v-5.2H1578z"/>
	<path fill="#FFFFFF" d="M1555.8,405.7v-8.6c0-1.5,0.6-2.1,2.1-2.1h28.8c7,0,11.9,3.2,11.9,17.6c0,14.5-4.8,17.7-11.9,17.7h-28.8
		c-1.5,0-2.1-0.6-2.1-2.1v-8.8c0-1.5,0.6-2.1,2.1-2.1h8.7v-9.6h-8.7C1556.5,407.8,1555.8,407.1,1555.8,405.7z M1577.2,407.8v9.6h7.5
		c1.6,0,2.7-0.7,2.7-4.8c0-4.1-1.2-4.8-2.7-4.8H1577.2z"/>
	<path fill="#FFFFFF" d="M1555.8,442.8c0-1.5,0.6-2.1,2.1-2.1h37.7c1.5,0,2.1,0.6,2.1,2.1v9c0,1.5-0.6,2.1-2.1,2.1h-28.8v8h9.4
		c1.5,0,2.1,0.6,2.1,2.1v8.4c0,1.5-0.6,2.1-2.1,2.1h-18.3c-1.5,0-2.1-0.6-2.1-2.1V442.8z"/>
</g>
<g>
	<path fill="#26839C" d="M1129.3,134.1c0,1.2-0.9,2.2-2.2,2.2h-73.2c-1.8,0-2.6-0.8-2.6-2.6V124c0-44,21.7-65.8,65.8-65.8h9.6
		c1.8,0,2.6,0.8,2.6,2.6V134.1z"/>
	<path fill="#26839C" d="M1129.3,201.2h-78v-78h78V201.2z"/>
	<path fill="#26839C" d="M1129.3,266.2h-78v-78h78V266.2z"/>
	<path fill="#26839C" d="M1129.3,331.1h-78v-78h78V331.1z"/>
	<path fill="#26839C" d="M1129.3,396.1h-78v-78h78V396.1z"/>
	<path fill="#26839C" d="M1129.3,461.1h-78v-78h78V461.1z"/>
	<path fill="#26839C" d="M1051.3,450.3c0-1.2,0.9-2.2,2.2-2.2h73.2c1.8,0,2.6,0.8,2.6,2.6v9.6c0,44-21.7,65.8-65.8,65.8h-9.6
		c-1.8,0-2.6-0.8-2.6-2.6V450.3z"/>
</g>
<g>
	<path fill="#FFFFFF" d="M1071.1,93.3c0-1.4,0.6-2,2-2h36.5c1.4,0,2,0.6,2,2v25.1c0,1.4-0.6,2-2,2h-6.7c-1.4,0-2-0.6-2-2V104h-5.9
		v9.8c0,1.4-0.6,2-2,2h-6.8c-1.4,0-2-0.6-2-2V104h-11.1c-1.4,0-2-0.6-2-2V93.3z"/>
	<path fill="#FFFFFF" d="M1071.1,129.6c0-1.4,0.6-2,2-2h36.5c1.4,0,2,0.6,2,2v18.8c0,8.5-3.8,11.1-9.4,11.1h-2.6
		c-3.2,0-5.4-0.8-6.4-3.2c-0.5,4.1-3.4,6.8-8.2,6.8h-11.9c-1.4,0-2-0.6-2-2v-8.7c0-1.4,0.6-2,2-2h9c1.7,0,2.4-0.6,2.4-2.1v-7.9
		h-11.4c-1.4,0-2-0.6-2-2V129.6z M1094.3,140.3v4.2c0,2,1.1,2.5,2.6,2.5h1.9c1.5,0,2.6-0.5,2.6-2.5v-4.2H1094.3z"/>
	<path fill="#FFFFFF" d="M1070.3,187.8c0-14.1,4.6-17.5,11.5-17.5h19.2c6.9,0,11.6,3.4,11.6,17.5c0,14.1-4.7,17.5-11.6,17.5h-19.2
		C1074.9,205.3,1070.3,201.9,1070.3,187.8z M1081.1,187.8c0,4.1,1.1,4.7,2.6,4.7h15.2c1.5,0,2.6-0.6,2.6-4.7c0-4.1-1.1-4.7-2.6-4.7
		h-15.2C1082.3,183.1,1081.1,183.8,1081.1,187.8z"/>
	<path fill="#FFFFFF" d="M1071.1,215.3c0-1.4,0.6-2,2-2h36.5c1.4,0,2,0.6,2,2v9.1c0,1.2-0.4,1.9-1.7,2.6l-9.2,5.1
		c-0.7,0.4-1,0.6-1,1v0.5c0,0.5,0.3,0.6,1,1l9.2,5c1.2,0.7,1.7,1.4,1.7,2.6v9.1c0,1.4-0.6,2-2,2h-36.5c-1.4,0-2-0.6-2-2v-8.7
		c0-1.5,0.6-2,2-2h19.8l-6.1-3.3c-1.3-0.7-1.8-1.5-1.8-3v-2.3c0-1.5,0.5-2.3,1.8-3l6.1-3.3h-19.8c-1.4,0-2-0.6-2-2V215.3z"/>
	<path fill="#FFFFFF" d="M1071.1,271.5v-8.3c0-1.5,0.6-2,2-2h14.9c3.3,0,4.7,0.6,9,2.2l12.8,4.9c1.4,0.5,1.9,1.4,1.9,2.9v15.2
		c0,1.5-0.4,2.3-1.9,2.8L1097,294c-4.3,1.6-5.7,2.2-9,2.2h-14.9c-1.4,0-2-0.6-2-2v-8.5c0-1.4,0.6-2.2,2-2.2h7.9v-10h-7.9
		C1071.7,273.5,1071.1,272.9,1071.1,271.5z M1091.3,274.1v8.8l8.6-2.6c0.7-0.3,1-0.5,1-1.1v-1.4c0-0.6-0.2-0.7-1-1.1L1091.3,274.1z"
		/>
	<path fill="#FFFFFF" d="M1071.1,317.5c0-10.6,4.7-13.9,11.5-13.9h17.6c6.8,0,11.5,3.2,11.5,13.9v14.1c0,1.4-0.6,2-2,2h-6.8
		c-1.4,0-2-0.6-2-2v-11.7c0-2.9-1.4-3.4-2.8-3.4h-13.5c-1.5,0-2.8,0.3-2.8,2.6v5.5h8.8c1.4,0,2,0.6,2,2v8.7c0,1.4-0.6,2-2,2h-17.4
		c-1.4,0-2-0.6-2-2V317.5z"/>
	<path fill="#FFFFFF" d="M1071.1,347.1c0-1.4,0.6-2,2-2h36.5c1.4,0,2,0.6,2,2v26.1c0,1.4-0.6,2-2,2h-6.6c-1.4,0-2-0.6-2-2v-15.4
		h-4.3v10.8c0,1.4-0.6,2-2,2h-6c-1.4,0-2-0.6-2-2v-10.8h-4.8v15.4c0,1.4-0.6,2-2,2h-6.6c-1.4,0-2-0.6-2-2V347.1z"/>
	<path fill="#FFFFFF" d="M1071.1,384.9c0-1.4,0.6-2,2-2h36.5c1.4,0,2,0.6,2,2v18.8c0,8.5-3.8,11.1-9.4,11.1h-2.6
		c-3.2,0-5.4-0.8-6.4-3.2c-0.5,4.1-3.4,6.8-8.2,6.8h-11.9c-1.4,0-2-0.6-2-2v-8.7c0-1.4,0.6-2,2-2h9c1.7,0,2.4-0.6,2.4-2.1v-7.9
		h-11.4c-1.4,0-2-0.6-2-2V384.9z M1094.3,395.6v4.2c0,2,1.1,2.5,2.6,2.5h1.9c1.5,0,2.6-0.5,2.6-2.5v-4.2H1094.3z"/>
	<path fill="#FFFFFF" d="M1073.1,425.5h6.7c1.4,0,2,0.6,2,2v5.6h18.9v-5.6c0-1.4,0.6-2,2-2h6.8c1.4,0,2,0.6,2,2v24c0,1.4-0.6,2-2,2
		h-6.8c-1.4,0-2-0.6-2-2V446h-18.9v5.5c0,1.4-0.6,2-2,2h-6.7c-1.4,0-2-0.6-2-2v-24C1071.1,426.1,1071.7,425.5,1073.1,425.5z"/>
	<path fill="#FFFFFF" d="M1071.1,463.3c0-1.4,0.6-2,2-2h36.5c1.4,0,2,0.6,2,2v26.1c0,1.4-0.6,2-2,2h-6.6c-1.4,0-2-0.6-2-2v-15.4
		h-4.3v10.8c0,1.4-0.6,2-2,2h-6c-1.4,0-2-0.6-2-2v-10.8h-4.8v15.4c0,1.4-0.6,2-2,2h-6.6c-1.4,0-2-0.6-2-2V463.3z"/>
</g>
<path fill="#265560" d="M763.1,132.2H701c-1.7,0-2.5-0.8-2.5-2.5V60.8c0-1.7,0.8-2.5,2.5-2.5h75.8c1.7,0,2.8,0.8,2.5,2.5l-13.7,68.9
	C765.3,131.4,764.8,132.2,763.1,132.2z"/>
<path fill="#26839C" d="M763.1,212.9H701c-1.7,0-2.5-0.8-2.5-2.5v-68.9c0-1.7,0.8-2.5,2.5-2.5h75.8c1.7,0,2.8,0.8,2.5,2.5
	l-13.7,68.9C765.3,212.1,764.8,212.9,763.1,212.9z"/>
<path fill="#265560" d="M763.1,293.5H701c-1.7,0-2.5-0.8-2.5-2.5v-68.9c0-1.7,0.8-2.5,2.5-2.5h75.8c1.7,0,2.8,0.8,2.5,2.5
	l-13.7,68.9C765.3,292.8,764.8,293.5,763.1,293.5z"/>
<path fill="#26839C" d="M763.1,374.2H701c-1.7,0-2.5-0.8-2.5-2.5v-68.9c0-1.7,0.8-2.5,2.5-2.5h75.8c1.7,0,2.8,0.8,2.5,2.5
	l-13.7,68.9C765.3,373.4,764.8,374.2,763.1,374.2z"/>
<path fill="#265560" d="M763.1,454.8H701c-1.7,0-2.5-0.8-2.5-2.5v-68.9c0-1.7,0.8-2.5,2.5-2.5h75.8c1.7,0,2.8,0.8,2.5,2.5
	l-13.7,68.9C765.3,454.1,764.8,454.8,763.1,454.8z"/>
<path fill="#26839C" d="M763.1,535.5H701c-1.7,0-2.5-0.8-2.5-2.5v-68.9c0-1.7,0.8-2.5,2.5-2.5h75.8c1.7,0,2.8,0.8,2.5,2.5L765.6,533
	C765.3,534.8,764.8,535.5,763.1,535.5z"/>
<g>
	<path fill="#FFFFFF" d="M754.3,97.6v18.6c0,1.2-0.5,1.8-1.9,1.8h-6.3c-1.3,0-2-0.6-1.9-1.8v-15.7c0-2.6-1.3-3.7-4-3.7h-4l2.5,9.6
		c0.1,1.2-1.8,2-3.1,1.1l-19.5-13.1c-1.1-0.7-1.8-1.4-1.8-2.6s0.7-1.9,1.8-2.5l19.5-13.1c1.3-0.9,3.3-0.1,3.1,1.1l-2.5,9.5h4.9
		C751.3,86.9,754.3,91.1,754.3,97.6z"/>
</g>
<g>
	<path fill="#FFFFFF" d="M736,199l-18.3-18.3c-1.1-1.1-1.1-2.2-0.1-3.2l3-3c1-1,2.2-1,3.1-0.1l1.6,1.6l6.3-9.2
		c0.5-0.8,1.5-1.7,2.4-2.6l12.8-11.1c1.1-1,2.2-0.9,3.3,0.2l1.2,1.2c1.1,1.1,1.1,2.2-0.1,3.4l-6,6c0.2,0.1,0.5,0.2,0.7,0.5l1.4,1.4
		c0.9,0.8,1.1,1.8,0.4,2.8c0.4,0.1,0.8,0.2,1.1,0.5l1.6,1.6c0.9,0.8,1,1.7,0.4,2.6c0.4,0.1,0.8,0.3,1.1,0.6l1.6,1.6
		c0.9,1,0.8,2.3,0,3.3l-9,9.8c-0.9,0.9-2,1.4-2.6,1.6l-1.6,0.5l2,2c0.9,0.9,1,2-0.1,3.1l-3,3.1C738.2,200.1,737.1,200.1,736,199z
		 M741.3,193.7L723,175.4c-0.5-0.5-1-0.4-1.5,0l-1.3,1.3c-0.4,0.4-0.5,1,0,1.4l18.3,18.3c0.5,0.5,1.1,0.5,1.5,0.1l1.3-1.3
		C741.8,194.8,741.8,194.2,741.3,193.7z M741.5,189.3c0.5-0.1,1.4-0.5,2.1-1.3l9-9.9c0.4-0.4,0.4-1.1,0-1.6L751,175
		c-0.4-0.4-0.8-0.6-1.3-0.2v-0.1l-3,3.6l-0.8-0.9l3.4-4c0.6-0.6,0.7-1.1,0.1-1.7l-1.4-1.4c-0.5-0.5-1-0.6-1.4-0.2l-3.1,3.6l-0.8-0.8
		l3.7-4.3c0.5-0.6,0.6-1.1,0.1-1.7l-1.3-1.4c-0.5-0.4-0.9-0.5-1.3,0v-0.1l-3.6,3.5l-0.8-0.8l10.9-10.9c0.6-0.6,0.7-1.2,0.1-1.7
		l-1.2-1.2c-0.6-0.6-1.2-0.4-1.7-0.1l-12.8,11.1c-0.8,0.7-1.7,1.6-2.2,2.2l-6.4,9.5l13,13L741.5,189.3z"/>
</g>
<g>
	<path fill="#FFFFFF" d="M741.9,272.1l-6.8-7.7l-7,7c-0.9,0.9-2.7,0.1-3-1.4l-4.6-23.5c-0.2-1.3-0.2-2.3,0.6-3.1
		c0.9-0.9,1.9-0.9,3.2-0.7l23.5,4.6c1.5,0.3,2.3,2.1,1.4,3l-7,7l7.7,6.8c1,0.8,0.8,1.7-0.1,2.6l-5.4,5.4
		C743.6,273,742.8,273.1,741.9,272.1z"/>
</g>
<g>
	<path fill="#FFFFFF" d="M726.2,354.9l-2.5-0.6c-1-0.2-1.6-1-1.4-2.2l0.8-5.2c0.2-1.7,0.6-3.2,0.5-4.8l-0.3-3.9l-3.1,3.1
		c-0.8,0.9-2,1-3.1,0l-3-3.1c-1-1-1-2.1,0-3.2l14.9-14.9c1.1-1.1,2.2-1,3.2,0l3,3c1,1,1,2.1,0.1,3.1l-1.7,1.7l8.5,3.3
		c1.7,0.7,2.8,1.8,3.8,3.1l11.4,15.2c0.8,1,0.4,1.9-0.4,2.6l-1.6,1.6c-0.7,0.7-1.7,0.8-2.4,0.1l-9.6-8.8l-4.2,4.2
		c-1.3,1.3-2.6,2-4.7,1.3l-4.1-1.4l-1.8,4C728,354.3,727.3,355.1,726.2,354.9z M719.5,340.4l14.9-14.9c0.5-0.5,0.5-1,0-1.4l-1.3-1.3
		c-0.4-0.4-1-0.5-1.4,0l-14.9,14.9c-0.5,0.5-0.5,1.1-0.1,1.5l1.4,1.4C718.5,340.8,719,340.8,719.5,340.4z M727.5,352.7l3.1-6.9
		c0.8-1.8,1.5-2.8,3.2-3.6l3.3-1.4c1.3-0.6,2.8-0.5,4,0.6l12.2,11.2c0.4,0.5,1,0.5,1.4,0.1l1.3-1.3c0.4-0.4,0.5-0.9,0.2-1.3
		l-11.4-15.2c-0.8-1.1-1.7-1.9-3.1-2.5l-9-3.4l-8.1,8.1l0.4,4.8c0.2,1.7-0.2,3.4-0.5,5.2l-0.8,5.2c-0.1,0.4,0.2,0.8,0.5,0.8l2.2,0.6
		C726.8,353.8,727.2,353.5,727.5,352.7z M738.2,348.5l4.2-4.2l-2.1-1.9c-0.9-0.8-1.8-0.9-2.8-0.4l-2.7,1.1c-0.1,0.4,0.2,0.8,0.8,1.5
		l-0.2,0.2c-0.7-0.7-1.5-1-2.1-0.9c-0.8,0.6-1.2,1.3-1.7,2.5l-0.8,1.7l4,1.4C736.2,349.9,737.3,349.4,738.2,348.5z"/>
</g>
<g>
	<path fill="#FFFFFF" d="M729.1,428.6c-0.6,0-1.3-0.5-1.3-1.1v-2.8c0-0.5,0.4-1.1,1-1l4.9,0.4v-0.6l-5.7-0.4
		c-0.8-0.1-1.4-0.4-1.4-1.1v-2.6c0-0.7,0.5-1.2,1.1-1.1l5,0.4v-0.6l-6-0.4c-0.8-0.1-1.4-0.4-1.4-1.1v-2.5c0-0.7,0.4-1,1.1-1h5.4
		v-0.6h-15.8c-0.8,0-1.5-0.4-1.5-1.1v-2.9c0-0.8,0.7-1.2,1.3-1.3l17.3-1.2c1.1-0.1,2.3-0.1,3.1,0.1l11.3,2.2v19.6l-2,1.1
		c-0.5,0.3-1.4,0.6-2.4,0.6L729.1,428.6z M747.8,431.6v-27.1c0-0.7,0.4-1.1,1-1.1h5.5c0.6,0,1,0.4,1,1.1v27.1c0,0.7-0.4,1.1-1,1.1
		h-5.5C748.3,432.7,747.8,432.3,747.8,431.6z"/>
</g>
<g>
	<path fill="#FFFFFF" d="M743.1,519.7c-1.5,0-2.3-0.8-2.3-2.5v-8.4c-0.2,0.1-0.5,0.1-0.8,0.1h-2c-1.3,0-2-0.5-2.3-1.7
		c-0.3,0.2-0.7,0.4-1.1,0.4h-2.2c-1.2,0-1.9-0.5-2.2-1.6c-0.3,0.2-0.8,0.3-1.1,0.3h-2.3c-1.3,0-2.3-1-2.3-2.3l-0.5-13.4
		c0-1.3,0.4-2.4,0.7-3l0.8-1.4h-2.8c-1.3,0-2.2-0.8-2.2-2.2v-4.3c0-1.4,0.8-2.2,2.3-2.2h25.9c1.6,0,2.3,0.8,2.3,2.2v4.3
		c0,1.4-0.8,2.2-2.2,2.2h-2.2l2,11c0.2,0.9,0.2,2.3,0.1,3.5l-1.2,16.9c-0.1,1.4-0.9,2.2-2.5,2.2H743.1z M722.6,484.9h25.9
		c0.7,0,1.1-0.4,1.1-1V482c0-0.6-0.4-1-1.1-1h-25.9c-0.7,0-1.1,0.4-1.1,1v1.9C721.5,484.5,721.9,484.9,722.6,484.9z M744.8,518.5
		c0.8,0,1.2-0.5,1.3-1.1l1.2-16.9c0.1-1.1,0.1-2.3-0.1-3.1l-2.2-11.3h-18.4l-1.1,2c-0.3,0.5-0.6,1.4-0.6,2.4l0.6,13.3
		c0,0.6,0.5,1.1,1.1,1.1h2.2c0.5,0,1-0.2,1-0.8l-0.4-4.5h1.2l0.4,5.3c0.1,0.8,0.4,1.3,1.1,1.3h2c0.7,0,1.1-0.3,1.1-0.9l-0.4-4.6h1.2
		l0.4,5.6c0.1,0.8,0.4,1.3,1.1,1.3h1.9c0.7,0,1-0.2,1-0.9v-5h1.2v15.4c0,0.8,0.4,1.3,1.1,1.3H744.8z"/>
</g>
<g>
	<path fill="#26839C" d="M1364,444.1h-1.7c0,5.6-4.5,10.1-10.1,10.1v1.7c0,1.8-0.8,2.6-2.6,2.6h-43.9c-1.8,0-2.6-0.8-2.6-2.6v-1.7
		c-5.6,0-10.1-4.5-10.1-10.1h-1.7c-1.8,0-2.6-0.8-2.6-2.6v-6.1h78v6.1C1366.6,443.3,1365.8,444.1,1364,444.1z"/>
	<path fill="#26839C" d="M1288.6,359.6h78v78h-78V359.6z"/>
	<path fill="#26839C" d="M1288.6,298.3h78v78h-78V298.3z"/>
	<path fill="#26839C" d="M1288.6,252.8h78v78h-78V252.8z"/>
	<path fill="#26839C" d="M1288.6,191.4h78v78h-78V191.4z"/>
	<path fill="#26839C" d="M1288.6,130h78v78h-78V130z"/>
	<path fill="#26839C" d="M1288.6,81h78v78h-78V81z"/>
	<path fill="#26839C" d="M1291.2,73.7h1.7c0-5.6,4.5-10.1,10.1-10.1v-1.7c0-1.8,0.8-2.6,2.6-2.6h43.9c1.8,0,2.6,0.8,2.6,2.6v1.7
		c5.6,0,10.1,4.5,10.1,10.1h1.7c1.8,0,2.6,0.8,2.6,2.6v6.1h-78v-6.1C1288.6,74.5,1289.4,73.7,1291.2,73.7z"/>
</g>
<g>
	<path fill="#FFFFFF" d="M1312.2,141.5c-1.6,0-2.3-0.7-2.3-2.3V98.7c0-1.6,0.7-2.3,2.3-2.3h20.2c9.4,0,12.3,4.3,12.3,10.5v2.9
		c0,3.5-0.9,6-3.5,7.1c3.8,0.5,7,3.8,7,9.1v13.3c0,1.6-0.7,2.3-2.3,2.3h-9.7c-1.6,0-2.3-0.7-2.3-2.3v-10c0-1.9-0.6-2.7-2.4-2.7h-7.5
		v12.7c0,1.6-0.7,2.3-2.3,2.3H1312.2z M1324.1,115.7h4c2.2,0,2.8-1.3,2.8-2.9v-2.1c0-1.7-0.6-2.9-2.8-2.9h-4V115.7z"/>
	<path fill="#FFFFFF" d="M1328.8,196.2c-15.3,0-19-5.1-19-12.8v-21.4c0-7.6,3.7-12.8,19-12.8s19,5.2,19,12.8v21.4
		C1347.8,191.1,1344.1,196.2,1328.8,196.2z M1328.8,184.1c4.2,0,4.9-1.3,4.9-2.9v-16.9c0-1.6-0.7-2.9-4.9-2.9
		c-4.1,0-4.8,1.3-4.8,2.9v16.9C1323.9,182.9,1324.6,184.1,1328.8,184.1z"/>
	<path fill="#FFFFFF" d="M1312.2,249.4c-1.6,0-2.3-0.7-2.3-2.3v-7.3c0-1.6,0.7-2.3,2.3-2.3h19.5c1.1,0,1.6-0.8,1.6-1.8
		c0-1.4-0.6-2-1.6-2.1l-12-1.3c-5.9-0.9-9.7-3.4-9.7-10.4v-6.6c0-7.1,4.8-11,13-11h20.8c1.6,0,2.3,0.7,2.3,2.3v7.5
		c0,1.6-0.7,2.3-2.3,2.3h-17.9c-1.1,0-1.7,0.7-1.7,1.9c0,1.1,0.6,1.9,1.7,2l12,1.3c5.9,0.9,9.8,3.4,9.8,10.4v6.6c0,7.1-4.9,11-13,11
		H1312.2z"/>
	<path fill="#FFFFFF" d="M1310.5,301.7v-7.5c0-1.6,0.7-2.3,2.3-2.3h8.4v-21h-8.4c-1.6,0-2.3-0.7-2.3-2.3v-7.6c0-1.6,0.7-2.3,2.3-2.3
		h31.9c1.6,0,2.3,0.7,2.3,2.3v7.6c0,1.6-0.7,2.3-2.3,2.3h-8.4v21h8.4c1.6,0,2.3,0.7,2.3,2.3v7.5c0,1.6-0.7,2.3-2.3,2.3h-31.9
		C1311.2,304,1310.5,303.3,1310.5,301.7z"/>
	<path fill="#FFFFFF" d="M1312.2,359.1c-1.6,0-2.3-0.7-2.3-2.3v-40.6c0-1.6,0.7-2.3,2.3-2.3h32.4c1.6,0,2.3,0.7,2.3,2.3v7.3
		c0,1.6-0.7,2.3-2.3,2.3h-20.5v4.8h15.4c1.6,0,2.3,0.6,2.3,2.3v6.7c0,1.6-0.7,2.3-2.3,2.3h-15.4v5.4h20.5c1.6,0,2.3,0.7,2.3,2.3v7.3
		c0,1.6-0.7,2.3-2.3,2.3H1312.2z"/>
</g>
<g>
	<path fill="#FFFFFF" d="M1316.4,413.9c-1.6,0-2.3-0.7-2.3-2.3v-7.3c0-1.6,0.7-2.3,2.3-2.3h16.8c1.1,0,1.6-0.8,1.6-1.8
		c0-1.4-0.6-2-1.6-2.1l-9.4-1.3c-5.9-0.9-9.7-3.4-9.7-10.4v-6.6c0-7.1,4.8-11,13-11h17.5c1.6,0,2.3,0.7,2.3,2.3v7.5
		c0,1.6-0.7,2.3-2.3,2.3h-14.6c-1.1,0-1.7,0.7-1.7,1.9c0,1.1,0.6,1.9,1.7,2l9.3,1.3c5.9,0.9,9.8,3.4,9.8,10.4v6.6
		c0,7.1-4.9,11-13,11H1316.4z"/>
</g>
<g>
	<path fill="#FFFFFF" d="M1302.2,384.4c-1,0-1.4-0.4-1.4-1.4v-1.6c0-1,0.4-1.4,1.4-1.4h2.6c0.7,0,1.1-0.4,1.1-1.1v-0.6h-4.2
		c-1,0-1.4-0.4-1.4-1.4v-5.7c0-1,0.4-1.4,1.4-1.4h7.8c1,0,1.4,0.4,1.4,1.4v7.2c0,3.9-2.3,5.8-5.7,5.8H1302.2z"/>
</g>
<g>
	<path fill="#265560" d="M1185.5,60h47.8c23.2,18.6,22.7,59.4,0,78h-47.8C1162.5,118.9,1162.5,79,1185.5,60z"/>
	<path fill="#265560" d="M1185.5,131.5h47.8c23.2,18.6,22.7,59.4,0,78h-47.8C1162.5,190.4,1162.5,150.6,1185.5,131.5z"/>
	<path fill="#265560" d="M1185.5,203.1h47.8c23.2,18.6,22.7,59.4,0,78h-47.8C1162.5,262,1162.5,222.2,1185.5,203.1z"/>
	<path fill="#265560" d="M1185.5,274.6h47.8c23.2,18.6,22.7,59.4,0,78h-47.8C1162.5,333.6,1162.5,293.7,1185.5,274.6z"/>
	<path fill="#265560" d="M1185.5,346.2h47.8c23.2,18.6,22.7,59.4,0,78h-47.8C1162.5,405.1,1162.5,365.3,1185.5,346.2z"/>
	<path fill="#265560" d="M1185.5,417.8h47.8c23.2,18.6,22.7,59.4,0,78h-47.8C1162.5,476.7,1162.5,436.8,1185.5,417.8z"/>
</g>
<g>
	<path fill="#FFFFFF" d="M1194.3,119.8c-1.5,0-2.2-0.7-2.2-2.2v-39c0-1.5,0.7-2.2,2.2-2.2h9.3c1.5,0,2.2,0.7,2.2,2.2v29.8h9.4v-9.8
		c0-1.5,0.7-2.2,2.2-2.2h8.7c1.5,0,2.2,0.7,2.2,2.2v19c0,1.5-0.7,2.2-2.2,2.2H1194.3z"/>
</g>
<g>
	<path fill="#FFFFFF" d="M1210.2,193.4c-14.8,0-18.3-4.9-18.3-12.3v-20.5c0-7.3,3.5-12.3,18.3-12.3c14.7,0,18.3,5,18.3,12.3v20.5
		C1228.5,188.4,1225,193.4,1210.2,193.4z M1210.2,181.7c4,0,4.7-1.2,4.7-2.8v-16.2c0-1.6-0.7-2.8-4.7-2.8c-4,0-4.6,1.2-4.6,2.8v16.2
		C1205.6,180.5,1206.3,181.7,1210.2,181.7z"/>
</g>
<g>
	<path fill="#FFFFFF" d="M1210.2,266c-14.5,0-18.1-4.9-18.1-12.3v-29.8c0-1.5,0.7-2.2,2.2-2.2h9.5c1.5,0,2.2,0.7,2.2,2.2v27.5
		c0,1.6,0.7,2.8,4.4,2.8c3.7,0,4.5-1.2,4.5-2.8v-27.5c0-1.5,0.6-2.2,2.2-2.2h9.2c1.5,0,2.2,0.7,2.2,2.2v29.8
		C1228.3,261,1224.7,266,1210.2,266z"/>
</g>
<g>
	<path fill="#FFFFFF" d="M1210.2,290.4c14.9,0,18.6,4.9,18.6,12.3v29.8c0,1.5-0.7,2.2-2.2,2.2h-9.5c-1.5,0-2.2-0.7-2.2-2.2V305
		c0-1.6-0.7-2.8-4.9-2.8c-4.3,0-5,1.2-5,2.8v27.5c0,1.5-0.6,2.2-2.2,2.2h-9.2c-1.5,0-2.2-0.7-2.2-2.2v-29.8
		C1191.6,295.3,1195.3,290.4,1210.2,290.4z"/>
</g>
<g>
	<path fill="#FFFFFF" d="M1205.1,406.6c-11.4,0-14.8-5-14.8-12.3v-18.8c0-7.3,3.4-12.3,14.8-12.3h15.5c1.5,0,2.2,0.7,2.2,2.2v7.3
		c0,1.5-0.7,2.2-2.2,2.2h-13c-3.1,0-3.7,1.4-3.7,3v14.4c0,1.6,0.4,2.9,2.8,2.9h6.3v-9.4c0-1.5,0.7-2.2,2.2-2.2h9.3
		c1.5,0,2.2,0.7,2.2,2.2v18.6c0,1.5-0.7,2.2-2.2,2.2H1205.1z"/>
</g>
<g>
	<path fill="#FFFFFF" d="M1192.8,478.2c-1.5,0-2.2-0.7-2.2-2.2v-39c0-1.5,0.7-2.2,2.2-2.2h31.2c1.5,0,2.2,0.7,2.2,2.2v7
		c0,1.5-0.7,2.2-2.2,2.2h-19.7v4.6h14.8c1.5,0,2.2,0.6,2.2,2.2v6.4c0,1.5-0.7,2.2-2.2,2.2h-14.8v5.2h19.7c1.5,0,2.2,0.7,2.2,2.2v7
		c0,1.5-0.7,2.2-2.2,2.2H1192.8z"/>
</g>
<g>
	<path fill="#265560" d="M1409.8,448.7c0-1.8,0.9-2,2.6-2.6l34.6-13.7c1.3-0.5,2.8-0.5,4.1,0l34.3,13.7c1.7,0.6,2.6,0.8,2.6,2.6v73
		c0,1.8-1.2,3.2-2.9,2.5l-36.2-14.3l-36.2,14.3c-1.7,0.7-2.9-0.6-2.9-2.5V448.7z"/>
	<path fill="#265560" d="M1409.8,354.7c0-1.8,0.9-2,2.6-2.6l34.6-13.7c1.3-0.5,2.8-0.5,4.1,0l34.3,13.7c1.7,0.6,2.6,0.8,2.6,2.6v73
		c0,1.8-1.2,3.2-2.9,2.5l-36.2-14.3l-36.2,14.3c-1.7,0.7-2.9-0.6-2.9-2.5V354.7z"/>
	<path fill="#265560" d="M1409.8,260.8c0-1.8,0.9-2,2.6-2.6l34.6-13.7c1.3-0.5,2.8-0.5,4.1,0l34.3,13.7c1.7,0.6,2.6,0.8,2.6,2.6v73
		c0,1.8-1.2,3.2-2.9,2.5l-36.2-14.3l-36.2,14.3c-1.7,0.7-2.9-0.6-2.9-2.5V260.8z"/>
	<path fill="#265560" d="M1409.8,166.8c0-1.8,0.9-2,2.6-2.6l34.6-13.7c1.3-0.5,2.8-0.5,4.1,0l34.3,13.7c1.7,0.6,2.6,0.8,2.6,2.6v73
		c0,1.8-1.2,3.2-2.9,2.5l-36.2-14.3l-36.2,14.3c-1.7,0.7-2.9-0.6-2.9-2.5V166.8z"/>
	<path fill="#265560" d="M1488.1,98v47.9c0,1.8-1.2,3.2-2.9,2.5l-36.2-14.3l-36.2,14.3c-1.7,0.7-2.9-0.7-2.9-2.5V98h-10.2
		c-2.9,0-3.9-3.2-0.7-5.8l45.6-37.4c3.3-2.7,5.4-2.7,8.7,0l45.6,37.4c2.6,2.2,1.5,5.8-0.7,5.8H1488.1z"/>
</g>
<g>
	<path fill="#FFFFFF" d="M1472.8,482.9v9.3c0,1.6-0.7,2.3-2.3,2.3H1439c-7.7,0-13-3.5-13-19.2c0-15.8,5.3-19.4,13-19.4h31.4
		c1.6,0,2.3,0.7,2.3,2.3v9.7c0,1.6-0.7,2.3-2.3,2.3h-9.5v10.5h9.5C1472.1,480.6,1472.8,481.3,1472.8,482.9z M1449.4,480.6v-10.5
		h-8.2c-1.7,0-3,0.8-3,5.2c0,4.5,1.3,5.3,3,5.3H1449.4z"/>
</g>
<g>
	<path fill="#FFFFFF" d="M1473.7,383.9c0,15.8-5.2,19.6-13,19.6h-31.4c-1.6,0-2.3-0.7-2.3-2.3v-10c0-1.6,0.7-2.3,2.3-2.3h29
		c1.7,0,3-0.8,3-5.2c0-4.5-1.3-5.3-3-5.3h-29c-1.6,0-2.3-0.6-2.3-2.3v-9.7c0-1.6,0.7-2.3,2.3-2.3h31.4
		C1468.5,364.2,1473.7,368.1,1473.7,383.9z"/>
</g>
<g>
	<path fill="#FFFFFF" d="M1472.8,293.7c0,1.6-0.7,2.3-2.3,2.3h-31.2v9.3c0,1.6-0.7,2.3-2.3,2.3h-7.7c-1.6,0-2.3-0.7-2.3-2.3v-33.5
		c0-1.6,0.7-2.3,2.3-2.3h7.7c1.6,0,2.3,0.7,2.3,2.3v9.3h31.2c1.6,0,2.3,0.7,2.3,2.3V293.7z"/>
</g>
<g>
	<path fill="#FFFFFF" d="M1473.7,195.5c0,15.9-5.2,19.8-13,19.8h-21.7c-7.7,0-13-3.9-13-19.8s5.3-19.7,13-19.7h21.7
		C1468.5,175.8,1473.7,179.6,1473.7,195.5z M1461.5,195.5c0-4.6-1.3-5.3-3-5.3h-17.1c-1.7,0-2.9,0.7-2.9,5.3c0,4.6,1.3,5.3,2.9,5.3
		h17.1C1460.2,200.8,1461.5,200.1,1461.5,195.5z"/>
</g>
<g>
	<path fill="#FFFFFF" d="M1472.8,120.7c0,1.6-0.7,2.3-2.3,2.3h-7.4c-1.6,0-2.3-0.7-2.3-2.3v-17.1c0-1.1-0.8-1.7-1.8-1.7
		c-1.5,0-2,0.6-2.2,1.7l-1.3,9.5c-0.9,6-3.4,9.8-10.5,9.8h-6.7c-7.2,0-11.2-4.9-11.2-13.1V92c0-1.6,0.7-2.3,2.3-2.3h7.6
		c1.6,0,2.3,0.7,2.3,2.3v14.8c0,1.1,0.8,1.7,1.9,1.7c1.1,0,1.9-0.6,2-1.7l1.3-9.5c0.9-6,3.4-9.9,10.5-9.9h6.7
		c7.2,0,11.2,5,11.2,13.1V120.7z"/>
</g>
<g>
</g>
<g>
</g>
<g>
</g>
<g>
</g>
<g>
</g>
<g>
</g>
</svg>
