<?xml version="1.0" encoding="utf-8"?>
<!-- Generator: Adobe Illustrator 17.1.0, SVG Export Plug-In . SVG Version: 6.00 Build 0)  -->
<!DOCTYPE svg PUBLIC "-//W3C//DTD SVG 1.1//EN" "http://www.w3.org/Graphics/SVG/1.1/DTD/svg11.dtd">
<svg version="1.1" id="Layer_1" xmlns="http://www.w3.org/2000/svg" xmlns:xlink="http://www.w3.org/1999/xlink" x="0px" y="0px"
	 viewBox="0 0 1625 1021.1" enable-background="new 0 0 1625 1021.1" xml:space="preserve">
<g>
	<path fill="#102B33" stroke="#102B33" stroke-width="4.5" d="M317.8,913.7l-76.1-79.7c-5.9-6-11.8-4.4-11.8,1.5v20.2H223
		c-6.8,0-9-3.4-9-10.9V836V700.4v-11.8V553v-11.8V405.6v-11.8V258.2v-11.8V110.8V104v-5h-0.1c-2.3-44-34.4-74.6-79.5-74.6
		S57.2,55,55,99h-0.1v5v6.8v135.6v11.8v135.6v11.8v135.6V553v135.6v11.8V836v11.8v32.3c0,65,36.6,108.2,117.9,108.2h57.2v22.6
		c0,6,6.2,7.4,11.8,1.5l76.1-80.9C323.4,925.3,324.1,920.3,317.8,913.7z"/>
	<path fill="#F6ECCC" d="M234.5,1016.8L234.5,1016.8c-3.2,0-5.3-2.4-5.3-6V989h-56.5c-76.5,0-118.7-38.7-118.7-108.9V98.3h0.2
		c1.3-21.5,9.5-40.1,23.9-53.6c14.6-13.7,34-21,56.3-21s41.7,7.3,56.3,21c14.4,13.5,22.6,32.1,23.9,53.6h0.2v746.4
		c0,7.5,2.2,10.2,8.3,10.2h6.2v-19.5c0-3.6,2.1-6,5.3-6c2.5,0,5.2,1.4,7.8,4l76.1,79.7c6.2,6.5,6.3,12,0,18.7l-76.1,80.9
		C239.8,1015.4,237.1,1016.8,234.5,1016.8z M55.6,99.7v780.3c0,69.3,41.6,107.5,117.2,107.5h57.9v23.3c0,2.8,1.5,4.5,3.9,4.5
		c2.1,0,4.5-1.3,6.7-3.6l76.1-80.9c5.7-6.2,5.7-10.7,0-16.7l-76.1-79.7c-2.3-2.3-4.6-3.6-6.7-3.6c-2.4,0-3.8,1.7-3.8,4.6v20.9H223
		c-6.9,0-9.7-3.4-9.7-11.6v-745h-0.1l0-0.7c-1.1-21.5-9.2-39.9-23.5-53.3c-14.3-13.5-33.4-20.6-55.3-20.6s-41,7.1-55.3,20.6
		C64.9,59.1,56.8,77.6,55.7,99l0,0.7H55.6z"/>
</g>
<g>
	<path fill="#144A56" d="M84,183.5c-4.5,0-6.4-2-6.4-6.4V86.2c0-2.5,0.7-4.1,2-5.2l18.1-15.3c1-0.8,2.5-1.3,4.5-1.3h46.5
		c26.8,0,34.5,11.8,34.5,28.7v17.9c0,9-2.2,16.5-8.4,21.7L156.7,148c-5.3,4.5-13.7,7.1-26.1,7.1h-0.3v6.6c0,2.5-0.7,4.1-2,5.2
		l-18.2,15.1c-0.8,0.8-2.4,1.4-4.3,1.4H84z"/>
	<path fill="#144A56" d="M108.9,297.3c-0.8,0.8-2.4,1.4-4.3,1.4H83.9c-4.6,0-6.4-2-6.4-6.4v-37c0-10,1.4-12.1,5.6-22.8l10.7-31.8
		c0.6-1.7,1.4-3.1,2.5-3.9l18.2-15.3c1.4-1.1,3.4-1.7,5.9-1.7h36.3c4.3,0,6.9,1.4,8.3,5.5l12.2,31.8c4.2,10.9,5.6,13,5.6,23v37
		c0,2.5-0.7,4.1-2,5.2l-18.2,15.1c-0.8,0.8-2.4,1.4-4.3,1.4H137c-4.5,0-6.9-2.1-6.9-6.4V274H129v2.9c0,2.5-0.7,4.1-2,5.2
		L108.9,297.3z"/>
	<path fill="#144A56" d="M110,417.7c-0.8,0.8-2.4,1.4-4.3,1.4H84c-4.5,0-6.4-2-6.4-6.4v-90.8c0-2.5,0.7-4.1,2-5.2l18.1-15.3
		c1-0.8,2.5-1.3,4.5-1.3h45.1c22.3,0,29,10.2,29,24.8v6.4c0,6.9-1.5,12.1-5.3,15.3l-0.1,0.1c7.4,2.5,13.2,9.8,13.2,20.9v29.7
		c0,2.5-0.7,4.1-2,5.2l-18.2,15.1c-0.8,0.8-2.4,1.4-4.3,1.4h-20.9c-4.5,0-6.4-2-6.4-6.4v-21.4c0-1.8-0.7-3.2-2-3.9v10.1
		c0,2.5-0.7,4.1-2,5.2L110,417.7z"/>
	<path fill="#144A56" d="M110.3,537.4c-0.8,0.8-2.4,1.4-4.3,1.4H84.2c-4.5,0-6.4-2-6.4-6.4v-90.8c0-2.5,0.7-4.1,2-5.2L97.8,421
		c1-0.8,2.5-1.3,4.5-1.3H124c4.5,0,6.4,2,6.4,6.4v10.1l17.5-14.9c1.4-1.1,3.2-1.7,5.7-1.7h21.6c4.6,0,6.2,2.4,4.3,6.6l-13.5,30.8
		c10.1,1.4,16.5,9,16.5,20.3v39.5c0,2.5-0.7,4.1-2,5.2l-18.2,15.1c-0.8,0.8-2.4,1.4-4.3,1.4h-21.6c-4.5,0-6.4-2-6.4-6.4v-12.8
		c-0.3,1.1-0.8,2-1.7,2.7L110.3,537.4z"/>
	<path fill="#144A56" d="M161.1,658.9c-0.8,0.8-2.4,1.4-4.3,1.4H85.3c-4.5,0-6.4-2-6.4-6.4v-16.7c0-2.5,0.7-4.1,2-5.2l18.1-15.3
		c0.8-0.7,2.1-1.1,3.8-1.3v-29H85.3c-4.5,0-6.4-2-6.4-6.4v-17c0-2.5,0.7-4.1,2-5.2l18.1-15.3c1-0.8,2.5-1.3,4.5-1.3h71.5
		c4.5,0,6.4,2,6.4,6.4v17c0,2.5-0.7,4.1-2,5.2L161.1,585l0.1-0.1c-0.8,0.8-2.1,1.4-3.8,1.5v29h17.4c4.5,0,6.4,2,6.4,6.4v16.7
		c0,2.5-0.7,4.1-2,5.2L161.1,658.9z"/>
	<path fill="#144A56" d="M109.4,780.4c-0.8,0.8-2.4,1.4-4.3,1.4H84c-4.5,0-6.4-2-6.4-6.4v-90.8c0-2.5,0.7-4.1,2-5.2l18.1-15.3
		c1-0.8,2.5-1.3,4.5-1.3h14.6c4.1,0,6.6,1.1,9.4,4.3l8.4,10.5l16.3-13.6c1-0.8,2.5-1.3,4.5-1.3h21c4.5,0,6.4,2,6.4,6.4v90.8
		c0,2.5-0.7,4.1-2,5.2l-18.2,15.1c-0.8,0.8-2.4,1.4-4.3,1.4h-21c-4.5,0-6.4-2-6.4-6.4v-16.8l-1.1-1.4v2.9c0,2.5-0.7,4.1-2,5.2
		L109.4,780.4z"/>
	<path fill="#144A56" d="M112.8,901.5c-27.8,0-35.9-16.5-35.9-34.2v-39.5c0-9.4,2.2-17.4,8.7-22.7l18.1-15.1
		c5.6-4.8,14.3-7.4,27.2-7.4H167c4.5,0,6.4,2,6.4,6.4v17c0,2.5-0.7,4.1-2,5.2l-18.2,15.1c-0.8,0.8-2.4,1.4-4.3,1.4h-19.3v23.8
		c0,1,0,2,0.3,2.8v-2.5c0-2.5,0.7-4.1,2-5.2l18.1-15.3c1-0.8,2.5-1.3,4.5-1.3h21.7c4.5,0,6.4,2,6.4,6.4v43.3c0,2.5-0.7,4.1-2,5.2
		l-18.2,15.1c-0.8,0.8-2.4,1.4-4.3,1.4H112.8z"/>
	<path fill="#27839E" d="M102,166.8c-3.5,0-5-1.5-5-5V70.9c0-3.5,1.5-5,5-5h46.5c25.5,0,33.1,11.1,33.1,27.3v17.9
		c0,16.3-7.6,27.3-33.1,27.3h-19.8v23.3c0,3.5-1.5,5-5,5H102z M128.5,113.2h16.3c5.5,0,6.6-3.2,6.6-6.9v-7.4c0-3.6-1.1-6.9-6.6-6.9
		h-16.3V113.2z"/>
	<path fill="#27839E" d="M122.5,282h-20.6c-3.6,0-5-1.5-5-5v-37c0-9.7,1.4-11.8,5.5-22.4l10.8-31.8c1.3-3.5,3.5-4.6,7.1-4.6h36.3
		c3.6,0,5.7,1.1,7,4.6l12.2,31.8c4.1,10.7,5.5,12.8,5.5,22.4v37c0,3.5-1.5,5-5,5H155c-3.5,0-5.5-1.5-5.5-5v-19.6h-22v19.6
		C127.5,280.5,126,282,122.5,282z M128.9,231.8h19.2l-6.6-21.3c-0.8-1.8-1.1-2.4-2.7-2.4h-0.7c-1.5,0-1.8,0.6-2.7,2.4L128.9,231.8z"
		/>
	<path fill="#27839E" d="M102,402.4c-3.5,0-5-1.5-5-5v-90.8c0-3.5,1.5-5,5-5h45.1c21,0,27.6,9.5,27.6,23.4v6.4c0,7.8-2,13.5-7.8,16
		c8.6,1.1,15.6,8.6,15.6,20.3v29.7c0,3.5-1.5,5-5,5h-21.7c-3.5,0-5-1.5-5-5v-21.4c0-4.2-1.4-6-5.3-6h-16.7v27.5c0,3.5-1.5,5-5,5H102
		z M128.6,344.6h9c4.9,0,6.2-2.8,6.2-6.6v-4.8c0-3.8-1.3-6.6-6.2-6.6h-9V344.6z"/>
	<path fill="#27839E" d="M102.1,522.1c-3.5,0-5-1.5-5-5v-90.8c0-3.5,1.5-5,5-5h21.7c3.5,0,5,1.5,5,5v32.2h3.2l14.4-32.7
		c1.4-3.4,3.4-4.6,7-4.6h21.6c3.2,0,4.3,1.7,3.1,4.6L164,458.5c10.5,0.6,17.2,7.8,17.2,19.1v39.5c0,3.5-1.5,5-5,5h-21.6
		c-3.5,0-5-1.5-5-5v-27.3c0-3.1-1.5-4.8-4.5-4.8h-16.1v32.1c0,3.5-1.5,5-5,5H102.1z"/>
	<path fill="#27839E" d="M98.2,638.6v-16.7c0-3.5,1.5-5,5-5H122v-47.1h-18.8c-3.5,0-5-1.5-5-5v-17c0-3.5,1.5-5,5-5h71.5
		c3.5,0,5,1.5,5,5v17c0,3.5-1.5,5-5,5H156v47.1h18.8c3.5,0,5,1.5,5,5v16.7c0,3.5-1.5,5-5,5h-71.5C99.8,643.6,98.2,642.1,98.2,638.6z
		"/>
	<path fill="#27839E" d="M102,765.1c-3.5,0-5-1.5-5-5v-90.8c0-3.5,1.5-5,5-5h14.6c3.6,0,5.9,1,8.3,3.8l25.2,31.1v-29.9
		c0-3.5,1.5-5,5-5h21c3.5,0,5,1.5,5,5v90.8c0,3.5-1.5,5-5,5h-21c-3.5,0-5-1.5-5-5v-17.2l-22-29v46.3c0,3.5-1.5,5-5,5H102z"/>
	<path fill="#27839E" d="M130.7,884.8c-26.5,0-34.5-11.6-34.5-28.6v-43.7c0-17,8-28.6,34.5-28.6h36.2c3.5,0,5,1.5,5,5v17
		c0,3.5-1.5,5-5,5h-30.3c-7.3,0-8.6,3.4-8.6,7v33.5c0,3.8,0.8,6.9,6.4,6.9h14.7v-21.9c0-3.5,1.5-5,5-5H176c3.5,0,5,1.5,5,5v43.3
		c0,3.5-1.5,5-5,5H130.7z"/>
	<path fill="#F6ECCC" d="M113.5,126.5v27.6h-1.4V78.5H146c17.7,0,21,8.1,21,19.1v10.4c0,10.9-3.4,18.6-21,18.6H113.5z M146,125.1
		c16.5,0,19.6-7.1,19.6-17.2V97.5c0-10.1-3.1-17.7-19.6-17.7h-32.5v45.3H146z"/>
	<path fill="#F6ECCC" d="M164.5,245.3h-51.7v24.1h-1.4v-29.9c0-5.2,0.8-9.5,2.4-13.6l9-23c2.1-5.2,3.8-9.3,10.2-9.3h10.8
		c6.2,0,7.8,3.9,10.1,9.4l9.7,22.8c1.5,4.1,2.4,8.4,2.4,13.6v29.9h-1.4V245.3z M112.8,243.9h51.7v-4.3c0-5-0.8-9.3-2.2-13l-9.7-22.8
		c-2.1-4.9-3.6-8.6-8.8-8.6H133c-5.6,0-7.1,3.6-9,8.4l-9,23c-1.4,3.8-2.2,8-2.2,13V243.9z"/>
	<path fill="#F6ECCC" d="M112,389.8v-75.7h32c10.9,0,16,6.7,16,16v9.7c0,8.6-1.7,14.2-8.4,16.3h1.5c11.5,0,14,5.2,14,15v18.8h-1.4
		V371c0-9.3-2-13.7-12.6-13.7h-39.7v32.5H112z M113.4,315.5V356h30.6c11.6,0,14.6-5.7,14.6-16.1v-9.8c0-8.7-4.6-14.6-14.6-14.6
		H113.4z"/>
	<path fill="#F6ECCC" d="M112.2,509.5v-75.7h1.4v37.3h28l16.1-37.3h1.5l-16.1,37.3h5.7c11.5,0,17,3.9,17,13.7v24.7h-1.4v-24.7
		c0-9-5.2-12.3-15.6-12.3h-35.3v37H112.2z"/>
	<path fill="#F6ECCC" d="M110.7,631v-1.4h27.5v-72.9h-27.5v-1.4h56.3v1.4h-27.5v72.9h27.5v1.4H110.7z"/>
	<path fill="#F6ECCC" d="M115.5,678l49.3,58v-59.1h1.4v75.7h-1.4v-14.4l-50.7-59.4c-0.3-0.3-0.4-0.4-0.7-0.4s-0.3,0.3-0.3,0.4v73.9
		h-1.4v-74.1c0-1.1,0.8-1.7,1.7-1.7C114.2,676.7,114.5,677,115.5,678z"/>
	<path fill="#F6ECCC" d="M111.4,854.2v-39.2c0-13.3,4.5-18.4,22.4-18.4h25.4v1.4h-25.4c-16.5,0-21,4.5-21,17v39.2
		c0,12.2,4.9,16.7,23.8,16.7h27.8v-26.8h1.4v28.2h-29.2C116,872.2,111.4,867.2,111.4,854.2z"/>
</g>
<g>
	<path fill="#DA4226" d="M264.6,32.8c0-2,0.9-2.9,2.9-2.9h52.2c2,0,2.9,0.9,2.9,2.9v24.6c0,14.6-6.4,19-15.7,19h-10.3
		c-9.3,0-15.7-4.3-15.7-19v-9.3h-13.4c-2,0-2.9-0.9-2.9-2.9V32.8z M295.3,48v7.2c0,3.1,1.9,3.8,3.9,3.8h4.3c2.1,0,3.9-0.6,3.9-3.8
		V48H295.3z"/>
	<path fill="#DA4226" d="M264.6,87.7c0-2,0.9-2.9,2.9-2.9h52.2c2,0,2.9,0.9,2.9,2.9v37.3c0,2-0.9,2.9-2.9,2.9h-9.4
		c-2,0-2.9-0.9-2.9-2.9v-22.2h-6.2v15.7c0,2-0.9,2.9-2.9,2.9h-8.6c-2,0-2.9-0.9-2.9-2.9v-15.7h-6.9v22.2c0,2-0.9,2.9-2.9,2.9h-9.4
		c-2,0-2.9-0.9-2.9-2.9V87.7z"/>
	<path fill="#DA4226" d="M264.6,140.4c0-2,0.9-2.9,2.9-2.9h52.2c2,0,2.9,0.9,2.9,2.9v26.8c0,12.1-5.5,15.9-13.4,15.9h-3.7
		c-4.5,0-7.7-1.1-9.2-4.5c-0.6,5.9-4.9,9.7-11.7,9.7h-17.1c-2,0-2.9-0.9-2.9-2.9v-12.5c0-2,0.9-2.9,2.9-2.9h12.3
		c2.4,0,3.5-0.8,3.5-3.1v-11.3h-15.8c-2,0-2.9-0.9-2.9-2.9V140.4z M297.7,155.7v6c0,2.8,1.6,3.5,3.8,3.5h2.7c2.2,0,3.8-0.7,3.8-3.5
		v-6H297.7z"/>
	<path fill="#DA4226" d="M264.6,200.2c0-2,0.9-2.9,2.9-2.9h52.2c2,0,2.9,0.9,2.9,2.9v13c0,1.7-0.6,2.7-2.4,3.7l-13.1,7.2
		c-1,0.6-1.4,0.8-1.4,1.4v0.7c0,0.6,0.4,0.9,1.4,1.4l13.1,7.2c1.8,1,2.4,2,2.4,3.7v13c0,2-0.9,2.9-2.9,2.9h-52.2
		c-2,0-2.9-0.9-2.9-2.9v-12.4c0-2.1,0.9-2.9,2.9-2.9h28.3l-8.8-4.7c-1.9-1-2.6-2.2-2.6-4.3v-3.2c0-2.1,0.7-3.3,2.6-4.3l8.8-4.7
		h-28.3c-2,0-2.9-0.9-2.9-2.9V200.2z"/>
	<path fill="#DA4226" d="M264.6,279.1v-11.8c0-2,0.9-2.9,2.9-2.9h21.2c3.2,0,7.2,1,12.9,3.1l18.3,7c1.9,0.6,2.7,1.9,2.7,4.1v21.7
		c0,2.1-0.8,3.4-2.7,4l-18.3,7c-5.6,2.2-9.7,3.1-12.9,3.1h-21.2c-2,0-2.9-0.9-2.9-2.9v-12.2c0-2.2,0.9-3.1,2.9-3.1h11.3V282h-11.3
		C265.4,282,264.6,281.1,264.6,279.1z M293.4,282.8v12.6l12.2-3.8c1-0.4,1.4-0.9,1.4-1.5v-2c0-0.6-0.4-1.1-1.4-1.5L293.4,282.8z"/>
	<path fill="#DA4226" d="M264.6,327.2c0-2,0.9-2.9,2.9-2.9h52.2c2,0,2.9,0.9,2.9,2.9v8.4c0,2.1-0.6,3.4-2.2,4.7L302.5,356h17.1
		c2,0,2.9,0.9,2.9,2.9v12.1c0,2-0.9,2.9-2.9,2.9h-52.2c-2,0-2.9-0.9-2.9-2.9v-12.1c0-2,0.9-2.9,2.9-2.9h9.9l16.7-13.8h-26.6
		c-2,0-2.9-0.9-2.9-2.9V327.2z"/>
	<path fill="#DA4226" d="M264.6,387.8c0-2,0.9-2.9,2.9-2.9h52.2c2,0,2.9,0.9,2.9,2.9v37.3c0,2-0.9,2.9-2.9,2.9h-9.4
		c-2,0-2.9-0.9-2.9-2.9V403h-6.2v15.7c0,2-0.9,2.9-2.9,2.9h-8.6c-2,0-2.9-0.9-2.9-2.9V403h-6.9v22.2c0,2-0.9,2.9-2.9,2.9h-9.4
		c-2,0-2.9-0.9-2.9-2.9V387.8z"/>
	<path fill="#DA4226" d="M264.6,440.5c0-2,0.9-2.9,2.9-2.9h52.2c2,0,2.9,0.9,2.9,2.9v8.4c0,2.1-0.6,3.4-2.2,4.7l-17.9,15.6h17.1
		c2,0,2.9,0.9,2.9,2.9v12.1c0,2-0.9,2.9-2.9,2.9h-52.2c-2,0-2.9-0.9-2.9-2.9v-12.1c0-2,0.9-2.9,2.9-2.9h9.9l16.7-13.8h-26.6
		c-2,0-2.9-0.9-2.9-2.9V440.5z"/>
	<path fill="#DA4226" d="M264.6,512.5c0-2,0.9-2.9,2.9-2.9H307v-11.8c0-2,0.9-2.9,2.9-2.9h9.7c2,0,2.9,0.9,2.9,2.9v42.5
		c0,2-0.9,2.9-2.9,2.9h-9.7c-2,0-2.9-0.9-2.9-2.9v-11.8h-39.5c-2,0-2.9-0.9-2.9-2.9V512.5z"/>
	<path fill="#DA4226" d="M264.6,571.2c0-2,0.9-2.9,2.9-2.9h52.2c2,0,2.9,0.9,2.9,2.9v24.6c0,14.6-6.4,19-15.7,19h-10.3
		c-9.3,0-15.7-4.3-15.7-19v-9.3h-13.4c-2,0-2.9-0.9-2.9-2.9V571.2z M295.3,586.4v7.2c0,3.1,1.9,3.8,3.9,3.8h4.3
		c2.1,0,3.9-0.6,3.9-3.8v-7.2H295.3z"/>
	<path fill="#DA4226" d="M264.6,626.1c0-2,0.9-2.9,2.9-2.9h52.2c2,0,2.9,0.9,2.9,2.9v26.8c0,12.1-5.5,15.9-13.4,15.9h-3.7
		c-4.5,0-7.7-1.1-9.2-4.5c-0.6,5.9-4.9,9.7-11.7,9.7h-17.1c-2,0-2.9-0.9-2.9-2.9v-12.5c0-2,0.9-2.9,2.9-2.9h12.3
		c2.4,0,3.5-0.8,3.5-3.1v-11.3h-15.8c-2,0-2.9-0.9-2.9-2.9V626.1z M297.7,641.4v6c0,2.8,1.6,3.5,3.8,3.5h2.7c2.2,0,3.8-0.7,3.8-3.5
		v-6H297.7z"/>
	<path fill="#DA4226" d="M264.6,685.9c0-2,0.9-2.9,2.9-2.9h52.2c2,0,2.9,0.9,2.9,2.9v37.3c0,2-0.9,2.9-2.9,2.9h-9.4
		c-2,0-2.9-0.9-2.9-2.9V701h-6.2v15.7c0,2-0.9,2.9-2.9,2.9h-8.6c-2,0-2.9-0.9-2.9-2.9V701h-6.9v22.2c0,2-0.9,2.9-2.9,2.9h-9.4
		c-2,0-2.9-0.9-2.9-2.9V685.9z"/>
	<path fill="#DA4226" d="M264.6,737.1c0-2,0.9-2.9,2.9-2.9h9.4c2,0,2.9,0.9,2.9,2.9v21.7c0,1.4,1,2.1,2.3,2.1c1.9,0,2.6-0.7,2.7-2.1
		l1.7-12.1c1.1-7.6,4.3-12.5,13.4-12.5h8.5c9.2,0,14.2,6.2,14.2,16.7v22.5c0,2-0.9,2.9-2.9,2.9H310c-2,0-2.9-0.9-2.9-2.9v-18.8
		c0-1.4-1-2.2-2.4-2.2s-2.4,0.8-2.6,2.2l-1.6,12c-1.1,7.6-4.3,12.6-13.4,12.6h-8.5c-9.2,0-14.2-6.3-14.2-16.7V737.1z"/>
	<path fill="#DA4226" d="M264.6,789c0-2,0.9-2.9,2.9-2.9h9.4c2,0,2.9,0.9,2.9,2.9v21.7c0,1.4,1,2.1,2.3,2.1c1.9,0,2.6-0.7,2.7-2.1
		l1.7-12.1c1.1-7.6,4.3-12.5,13.4-12.5h8.5c9.2,0,14.2,6.2,14.2,16.7v22.5c0,2-0.9,2.9-2.9,2.9H310c-2,0-2.9-0.9-2.9-2.9v-18.8
		c0-1.4-1-2.2-2.4-2.2s-2.4,0.8-2.6,2.2l-1.6,12c-1.1,7.6-4.3,12.6-13.4,12.6h-8.5c-9.2,0-14.2-6.3-14.2-16.7V789z"/>
</g>
<g>
	<path fill="#CABC6C" d="M1228,929.2v51.9c0,5.3-2.3,7.6-7.6,7.6h-19.2c-5.3,0-7.6-2.3-7.6-7.6v-44.2c0-1.8-1.5-2.6-3.1-2.6
		c-2.5,0-3.8,0.8-3.9,2.8l-3.5,24.7c-2.5,16.4-9.5,27-28.9,27H1137c-19.7,0-30.6-13.1-30.6-35.7v-46c0-5.3,2.3-7.6,7.6-7.6h19.6
		c5.3,0,7.6,2.3,7.6,7.6v38.3c0,1.8,1.5,2.8,3.3,2.8c2,0,3.5-1,3.6-3l3.3-24.5c2.5-16.4,9.5-27.1,28.9-27.1h17.3
		C1217.1,893.5,1228,906.9,1228,929.2z"/>
	<path fill="#CABC6C" d="M1220.4,878.9h-106.5c-5.3,0-7.6-2.3-7.6-7.6v-50.3c0-31.4,13.8-40.4,33.7-40.4h21c19.9,0,33.7,9,33.7,40.4
		v17.3h25.6c5.3,0,7.6,2.3,7.6,7.6v25.5C1228,876.6,1225.7,878.9,1220.4,878.9z M1140.4,838.7h21.5v-13.1c0-5.1-3.1-6.1-6.4-6.1
		h-8.7c-3.3,0-6.4,1-6.4,6.1V838.7z"/>
	<path fill="#CABC6C" d="M1228,733v26.1c0,5.3-2.3,7.6-7.6,7.6h-106.5c-5.3,0-7.6-2.3-7.6-7.6V733c0-5.3,2.3-7.6,7.6-7.6h106.5
		C1225.7,725.4,1228,727.7,1228,733z"/>
	<path fill="#CABC6C" d="M1139.1,706.7c-20.7,0-35.2-9.7-35.2-52.4s14.5-52.4,35.2-52.4h81.3c5.3,0,7.6,2.3,7.6,7.6v25.8
		c0,5.3-2.3,7.6-7.6,7.6h-74.9c-3.9,0-6.1,2.8-6.1,11.8c0,9.2,2.1,12,6.1,12h74.9c5.3,0,7.6,2.1,7.6,7.6v25c0,5.3-2.3,7.6-7.6,7.6
		H1139.1z"/>
	<path fill="#CABC6C" d="M1228,466v40.1c0,28.9-11.3,42.1-35.2,42.1h-51.1c-24,0-35.3-13.1-35.3-42.1V466c0-5.3,2.3-7.6,7.6-7.6
		h19.9c5.3,0,7.6,2.3,7.6,7.6v33c0,5.6,2,8.4,6.6,8.4h39.1c4.6,0,6.2-3,6.2-8.4v-33c0-5.3,2.3-7.6,7.6-7.6h19.6
		C1225.7,458.4,1228,460.7,1228,466z"/>
	<path fill="#CABC6C" d="M1220.4,415.7H1194c-4.3,24.8-17.1,31.1-33.7,31.1h-46.2c-5.3,0-7.6-2.3-7.6-7.6v-25.5
		c0-5.3,2.3-7.6,7.6-7.6h39.4c3.9,0,6.1-2.6,6.1-11.3c0-8.9-2.1-11.5-6.1-11.5h-39.4c-5.3,0-7.6-2.3-7.6-7.6v-25.3
		c0-5.3,2.3-7.6,7.6-7.6h46.2c16.6,0,29.4,6.2,33.7,31.1h26.5c5.3,0,7.6,2.3,7.6,7.6v26.6C1228,413.4,1225.7,415.7,1220.4,415.7z"/>
	<path fill="#CABC6C" d="M1228,246.8v40.1c0,28.9-11.3,42.1-35.2,42.1h-51.1c-24,0-35.3-13.1-35.3-42.1v-40.1c0-5.3,2.3-7.6,7.6-7.6
		h19.9c5.3,0,7.6,2.3,7.6,7.6v33c0,5.6,2,8.4,6.6,8.4h39.1c4.6,0,6.2-3,6.2-8.4v-33c0-5.3,2.3-7.6,7.6-7.6h19.6
		C1225.7,239.2,1228,241.5,1228,246.8z"/>
	<path fill="#CABC6C" d="M1220.4,223.9h-106.5c-5.3,0-7.6-2.3-7.6-7.6v-25.5c0-5.3,2.3-7.6,7.6-7.6h79v-40.3c0-5.3,2.3-7.6,7.6-7.6
		h19.9c5.3,0,7.6,2.3,7.6,7.6v73.3C1228,221.6,1225.7,223.9,1220.4,223.9z"/>
	<path fill="#CABC6C" d="M1192.8,125.5h-51.1c-20.9,0-35.3-9.5-35.3-42.1V41.7c0-5.3,2.3-7.6,7.6-7.6h19.2c5.3,0,7.6,2.3,7.6,7.6V78
		c0,6.9,3,8.4,6.6,8.4h2.8V54.8c0-5.3,2.1-7.6,7.6-7.6h17.6c5.3,0,7.6,2.3,7.6,7.6v31.6h4.6c3.8,0,6.2-1.6,6.2-8.4V41.7
		c0-5.3,2.3-7.6,7.6-7.6h19.2c5.3,0,7.6,2.3,7.6,7.6v41.7C1228,116,1213.5,125.5,1192.8,125.5z"/>
	<path fill="#25839E" d="M1226.5,981.1c0,4.1-1.8,5.9-5.9,5.9h-19.2c-4.1,0-5.9-1.8-5.9-5.9v-44.2c0-2.8-2.1-4.3-4.8-4.3
		c-3.8,0-5.3,1.5-5.6,4.3l-3.5,24.7c-2.3,15.4-8.9,25.5-27.3,25.5h-17.3c-18.7,0-28.9-12.7-28.9-34v-46c0-4.1,1.8-5.9,5.9-5.9h19.6
		c4.1,0,5.9,1.8,5.9,5.9v38.3c0,2.8,2,4.4,4.9,4.4s4.9-1.6,5.3-4.4l3.3-24.5c2.3-15.4,8.9-25.6,27.3-25.6h17.3
		c18.7,0,28.9,12.8,28.9,34V981.1z"/>
	<path fill="#25839E" d="M1226.5,871.4c0,4.1-1.8,5.9-5.9,5.9h-106.5c-4.1,0-5.9-1.8-5.9-5.9v-50.3c0-29.9,13-38.8,32-38.8h21
		c19.1,0,32,8.9,32,38.8V840h27.3c4.1,0,5.9,1.8,5.9,5.9V871.4z M1163.8,840.3v-14.8c0-6.4-3.8-7.7-8.1-7.7h-8.7
		c-4.3,0-8.1,1.3-8.1,7.7v14.8H1163.8z"/>
	<path fill="#25839E" d="M1226.5,759.1c0,4.1-1.8,5.9-5.9,5.9h-106.5c-4.1,0-5.9-1.8-5.9-5.9V733c0-4.1,1.8-5.9,5.9-5.9h106.5
		c4.1,0,5.9,1.8,5.9,5.9V759.1z"/>
	<path fill="#25839E" d="M1105.8,654.3c0-40.8,13.5-50.8,33.5-50.8h81.3c4.1,0,5.9,1.8,5.9,5.9v25.8c0,4.1-1.8,5.9-5.9,5.9h-74.9
		c-4.4,0-7.7,2-7.7,13.5c0,11.7,3.3,13.6,7.7,13.6h74.9c4.1,0,5.9,1.6,5.9,5.9v25c0,4.1-1.8,5.9-5.9,5.9h-81.3
		C1119.2,705.1,1105.8,695,1105.8,654.3z"/>
	<path fill="#25839E" d="M1226.5,506.1c0,27.6-10.7,40.4-33.5,40.4h-51.1c-23,0-33.7-12.8-33.7-40.4V466c0-4.1,1.8-5.9,5.9-5.9h19.9
		c4.1,0,5.9,1.8,5.9,5.9v33c0,6.9,2.6,10,8.2,10h39.1c5.4,0,7.9-3.1,7.9-10v-33c0-4.1,1.8-5.9,5.9-5.9h19.6c4.1,0,5.9,1.8,5.9,5.9
		V506.1z"/>
	<path fill="#25839E" d="M1226.5,408.1c0,4.1-1.8,5.9-5.9,5.9h-27.9c-3.9,24.5-15.9,31.1-32.2,31.1h-46.2c-4.1,0-5.9-1.8-5.9-5.9
		v-25.5c0-4.1,1.8-5.9,5.9-5.9h39.4c4.4,0,7.7-2,7.7-13c0-11.2-3.3-13.1-7.7-13.1h-39.4c-4.1,0-5.9-1.8-5.9-5.9v-25.3
		c0-4.1,1.8-5.9,5.9-5.9h46.2c16.3,0,28.3,6.6,32.2,31.1h27.9c4.1,0,5.9,1.8,5.9,5.9V408.1z"/>
	<path fill="#25839E" d="M1226.5,286.9c0,27.6-10.7,40.4-33.5,40.4h-51.1c-23,0-33.7-12.8-33.7-40.4v-40.1c0-4.1,1.8-5.9,5.9-5.9
		h19.9c4.1,0,5.9,1.8,5.9,5.9v33c0,6.9,2.6,10,8.2,10h39.1c5.4,0,7.9-3.1,7.9-10v-33c0-4.1,1.8-5.9,5.9-5.9h19.6
		c4.1,0,5.9,1.8,5.9,5.9V286.9z"/>
	<path fill="#25839E" d="M1114.1,185h80.7v-41.9c0-4.1,1.8-5.9,5.9-5.9h19.9c4.1,0,5.9,1.8,5.9,5.9v73.3c0,4.1-1.8,5.9-5.9,5.9
		h-106.5c-4.1,0-5.9-1.8-5.9-5.9v-25.5C1108.2,186.8,1110,185,1114.1,185z"/>
	<path fill="#25839E" d="M1226.5,41.7v41.7c0,31.1-13.6,40.4-33.5,40.4h-51.1c-20,0-33.7-9.4-33.7-40.4V41.7c0-4.1,1.8-5.9,5.9-5.9
		h19.2c4.1,0,5.9,1.8,5.9,5.9V78c0,8.5,3.9,10,8.2,10h4.4V54.8c0-4.1,1.6-5.9,5.9-5.9h17.6c4.1,0,5.9,1.8,5.9,5.9V88h6.2
		c4.6,0,7.9-1.5,7.9-10V41.7c0-4.1,1.8-5.9,5.9-5.9h19.2C1224.7,35.8,1226.5,37.6,1226.5,41.7z"/>
	<path fill="#CABC6C" d="M1124.9,915.9v36.5c0,9.2,5.6,15.1,13.3,15.1h13.5c7.7,0,10-3.3,11-8.4l7.1-34.7
		c1.3-6.6,4.6-11.3,16.1-11.3h9.5c9.7,0,16.6,7.1,16.6,18.2v40.9h-1.6v-40.9c0-10.2-6.2-16.6-15-16.6h-9.5c-10.4,0-13.1,3.9-14.5,10
		l-7.1,34.7c-1.2,5.8-3.6,9.7-12.7,9.7h-13.5c-8.7,0-15-6.6-15-16.8v-36.5H1124.9z"/>
	<path fill="#CABC6C" d="M1179.6,857.2h32.4v1.6h-88.7v-35.5c0-20.7,9.5-24.7,22.3-24.7h12.2c12.8,0,21.9,3.9,21.9,24.7V857.2z
		 M1177.9,823.4c0-19.4-8.4-23-20.2-23h-12.2c-11.8,0-20.7,3.6-20.7,23v33.9h53.1V823.4z"/>
	<path fill="#CABC6C" d="M1123.2,745.2h88.7v1.6h-88.7V745.2z"/>
	<path fill="#CABC6C" d="M1212,623.2h-68.5c-12.3,0-20.5,6.7-20.5,31.2s8.2,31.4,20.5,31.4h68.5v1.6h-68.5c-13.3,0-22.2-7.2-22.2-33
		c0-25.8,8.9-32.9,22.2-32.9h68.5V623.2z"/>
	<path fill="#CABC6C" d="M1212,475v27.4c0,21.4-5.9,26.3-21.2,26.3h-46c-15.6,0-21.5-5.3-21.5-26.3V475h1.6v27.4
		c0,19.4,5.3,24.7,19.9,24.7h46c14.3,0,19.6-4.9,19.6-24.7V475H1212z"/>
	<path fill="#CABC6C" d="M1212,395.6h-33.2c-0.2,25.1-9,32-22.2,32h-33.4V426h33.4c12.3,0,20.5-6.7,20.5-31.2
		c0-24.5-8.2-31.4-20.5-31.4h-33.4v-1.6h33.4c13.3,0,22.2,7.2,22.2,32.2h33.2V395.6z"/>
	<path fill="#CABC6C" d="M1212,255.8v27.4c0,21.4-5.9,26.3-21.2,26.3h-46c-15.6,0-21.5-5.3-21.5-26.3v-27.4h1.6v27.4
		c0,19.4,5.3,24.7,19.9,24.7h46c14.3,0,19.6-4.9,19.6-24.7v-27.4H1212z"/>
	<path fill="#CABC6C" d="M1123.2,202.7h87.1v-50.8h1.6v52.4h-88.7V202.7z"/>
	<path fill="#CABC6C" d="M1212,50.5v29.9c0,21.4-5.9,26.3-21.2,26.3h-46c-15.6,0-21.5-5.3-21.5-26.3V50.5h1.6v29.9
		c0,19.4,5.3,24.7,19.9,24.7h21.4V62.1h1.6v43.1h23c14.3,0,19.6-4.9,19.6-24.7V50.5H1212z"/>
</g>
<g>
	<path fill="#CABC6C" d="M603.5,34.8c0-2.7,1.2-3.9,3.9-3.9h70.7c2.7,0,3.9,1.2,3.9,3.9v16.9c0,2.7-1.2,3.9-3.9,3.9h-54v15h17.7
		c2.7,0,3.9,1.2,3.9,3.9v15.8c0,2.7-1.2,3.9-3.9,3.9h-34.4c-2.7,0-3.9-1.2-3.9-3.9V34.8z"/>
	<path fill="#CABC6C" d="M607.4,105h13c2.7,0,3.9,1.2,3.9,3.9v10.8H661V109c0-2.7,1.2-3.9,3.9-3.9h13.2c2.7,0,3.9,1.2,3.9,3.9v46.5
		c0,2.7-1.2,3.9-3.9,3.9h-13.2c-2.7,0-3.9-1.2-3.9-3.9v-10.6h-36.7v10.6c0,2.7-1.2,3.9-3.9,3.9h-13c-2.7,0-3.9-1.2-3.9-3.9V109
		C603.5,106.2,604.7,105,607.4,105z"/>
	<path fill="#CABC6C" d="M603.5,198.5c0-18.3,7.1-26.9,22.3-26.9h34.1c15.2,0,22.3,8.5,22.3,26.9v27.3c0,2.7-1.2,3.9-3.9,3.9h-13.2
		c-2.7,0-3.9-1.2-3.9-3.9v-22.7c0-4.6-1.7-6.7-5.5-6.7h-26.1c-3.7,0-5.3,1.6-5.3,5V212h17c2.7,0,3.9,1.2,3.9,3.9v16.9
		c0,2.7-1.2,3.9-3.9,3.9h-33.7c-2.7,0-3.9-1.2-3.9-3.9V198.5z"/>
	<path fill="#CABC6C" d="M603.5,254.1c0-2.7,1.2-3.9,3.9-3.9h70.7c2.7,0,3.9,1.2,3.9,3.9V271c0,2.7-1.2,3.9-3.9,3.9h-23.7v18.2h23.7
		c2.7,0,3.9,1.2,3.9,3.9V314c0,2.7-1.2,3.9-3.9,3.9h-70.7c-2.7,0-3.9-1.2-3.9-3.9v-16.9c0-2.7,1.2-3.9,3.9-3.9h24.2v-18.2h-24.2
		c-2.7,0-3.9-1.2-3.9-3.9V254.1z"/>
	<path fill="#CABC6C" d="M603.5,352.4c0-2.7,1.2-3.9,3.9-3.9H661v-16c0-2.7,1.2-3.9,3.9-3.9h13.2c2.7,0,3.9,1.2,3.9,3.9v57.6
		c0,2.7-1.2,3.9-3.9,3.9h-13.2c-2.7,0-3.9-1.2-3.9-3.9v-16h-53.6c-2.7,0-3.9-1.2-3.9-3.9V352.4z"/>
	<path fill="#CABC6C" d="M603.5,406.6c0-2.7,1.2-3.9,3.9-3.9h12.8c2.7,0,3.9,1.2,3.9,3.9v29.4c0,1.9,1.4,2.8,3.2,2.8
		c2.5,0,3.5-1,3.7-2.8l2.3-16.4c1.5-10.3,5.9-16.9,18.1-16.9h11.5c12.4,0,19.2,8.4,19.2,22.6v30.6c0,2.7-1.2,3.9-3.9,3.9h-13
		c-2.7,0-3.9-1.2-3.9-3.9v-25.4c0-1.9-1.3-2.9-3.3-2.9s-3.3,1.1-3.5,2.9l-2.2,16.3c-1.5,10.3-5.9,17-18.1,17h-11.5
		c-12.4,0-19.2-8.5-19.2-22.6V406.6z"/>
	<path fill="#CABC6C" d="M623.9,540.4c0,3.2,1.4,4.1,4.4,4.1h15.1c2.7,0,3.9,1.2,3.9,3.9v21.2c0,2.7-1.1,3.9-3.9,3.9h-11.8
		c-2.7,0-3.9-1.2-3.9-3.9v-2.5h-4.9c-11.7,0-19.2-6.9-19.2-19.5v-30.3c0-13.4,7.5-20.6,19.2-20.6h8.7c10.3,0,16.2,5.9,16.9,13.8
		c2.1-4.8,6.2-6.4,11.8-6.4h5.2c9.6,0,16.7,6.1,16.7,21v23c0,2.7-1.2,3.9-3.9,3.9h-12.6c-2.7,0-3.9-1.2-3.9-3.9V532
		c0-3.5-1.5-4.1-3.3-4.1h-2.3c-1.7,0-3.3,0.7-3.3,4.1v1.6c0,2.7-1.2,3.9-3.9,3.9h-11.2c-2.7,0-3.9-1.2-3.9-3.9v-8.7
		c0-3.5-1.4-4.1-3.2-4.1h-3.4c-1.7,0-3.3,0.7-3.3,4.1V540.4z"/>
	<path fill="#CABC6C" d="M603.5,612.2c0-2.7,1.2-3.9,3.9-3.9h70.7c2.7,0,3.9,1.2,3.9,3.9V649c0,18.3-7.1,26.9-22.3,26.9h-34.1
		c-15.2,0-22.3-8.5-22.3-26.9V612.2z M624.1,633.1v13c0,3.5,1.6,5.1,5.3,5.1H656c3.6,0,5.2-1.6,5.2-5.1v-13H624.1z"/>
	<path fill="#CABC6C" d="M603.5,708.1v-16c0-2.7,1.2-3.9,3.9-3.9h28.8c4.4,0,9.8,1.3,17.5,4.3l24.8,9.5c2.5,0.9,3.6,2.6,3.6,5.6
		v29.4c0,2.8-1.1,4.6-3.6,5.5l-24.8,9.5c-7.6,2.9-13.1,4.3-17.5,4.3h-28.8c-2.7,0-3.9-1.2-3.9-3.9v-16.5c0-2.9,1.2-4.3,3.9-4.3h15.3
		V712h-15.3C604.7,712,603.5,710.8,603.5,708.1z M642.6,713.1v17.1l16.6-5.1c1.3-0.5,1.9-1.2,1.9-2.1v-2.7c0-0.9-0.5-1.5-1.9-2.1
		L642.6,713.1z"/>
	<path fill="#CABC6C" d="M603.5,773.4c0-2.7,1.2-3.9,3.9-3.9h70.7c2.7,0,3.9,1.2,3.9,3.9v36.4c0,16.4-7.4,21.5-18.2,21.5h-5
		c-6.1,0-10.5-1.5-12.4-6.1c-0.9,8-6.7,13.2-15.8,13.2h-23.1c-2.7,0-3.9-1.2-3.9-3.9v-16.9c0-2.7,1.2-3.9,3.9-3.9h16.7
		c3.3,0,4.7-1.1,4.7-4.1v-15.3h-21.4c-2.7,0-3.9-1.2-3.9-3.9V773.4z M648.4,794.1v8.2c0,3.8,2.2,4.8,5.1,4.8h3.7
		c2.9,0,5.1-1,5.1-4.8v-8.2H648.4z"/>
	<path fill="#CABC6C" d="M603.5,854.5c0-2.7,1.2-3.9,3.9-3.9h70.7c2.7,0,3.9,1.2,3.9,3.9v16.9c0,2.7-1.2,3.9-3.9,3.9H653v4.4
		l25.4,11.2c2.6,1.1,3.6,2.6,3.6,5.5v16.8c0,2.5-1.3,3.4-3.6,2.4L653,904.5c-0.4,8.2-6.1,13.4-14.8,13.4h-30.8
		c-2.7,0-3.9-1.2-3.9-3.9v-16.8c0-2.7,1.2-3.9,3.9-3.9h21.3c2.4,0,3.7-1.2,3.7-3.5v-14.4h-25c-2.7,0-3.9-1.2-3.9-3.9V854.5z"/>
	<path fill="#CABC6C" d="M603.5,933.9c0-2.7,1.2-3.9,3.9-3.9h12.8c2.7,0,3.9,1.2,3.9,3.9v29.4c0,1.9,1.4,2.8,3.2,2.8
		c2.5,0,3.5-1,3.7-2.8l2.3-16.4c1.5-10.3,5.9-16.9,18.1-16.9h11.5c12.4,0,19.2,8.4,19.2,22.6v30.6c0,2.7-1.2,3.9-3.9,3.9h-13
		c-2.7,0-3.9-1.2-3.9-3.9v-25.4c0-1.9-1.3-2.9-3.3-2.9s-3.3,1.1-3.5,2.9l-2.2,16.3c-1.5,10.3-5.9,17-18.1,17h-11.5
		c-12.4,0-19.2-8.5-19.2-22.6V933.9z"/>
</g>
<g>
	<path fill="#432D2C" stroke="#F6ECCC" stroke-width="1.5" d="M371.4,38.3c0-5.2,2.3-7.5,7.5-7.5h92.5c51,0,80.4,29.4,80.4,80.5
		v92.4c0,5.2-2.3,7.5-7.5,7.5H378c-3.8,0-6.6-2.8-6.6-6.6V38.3z"/>
	<path fill="#432D2C" stroke="#F6ECCC" stroke-width="1.5" d="M544.3,405.2H378.9c-5.2,0-7.5-2.3-7.5-7.5V232.3
		c0-5.2,2.3-7.5,7.5-7.5h165.3c5.2,0,7.5,2.3,7.5,7.5v165.3C551.8,402.9,549.5,405.2,544.3,405.2z"/>
	<path fill="#432D2C" stroke="#F6ECCC" stroke-width="1.5" d="M544.3,599.2H378.9c-5.2,0-7.5-2.3-7.5-7.5V426.4
		c0-5.2,2.3-7.5,7.5-7.5h165.3c5.2,0,7.5,2.3,7.5,7.5v165.3C551.8,596.9,549.5,599.2,544.3,599.2z"/>
	<path fill="#432D2C" stroke="#F6ECCC" stroke-width="1.5" d="M544.3,793.3H378.9c-5.2,0-7.5-2.3-7.5-7.5V620.4
		c0-5.2,2.3-7.5,7.5-7.5h165.3c5.2,0,7.5,2.3,7.5,7.5v165.3C551.8,791,549.5,793.3,544.3,793.3z"/>
	<path fill="#432D2C" stroke="#F6ECCC" stroke-width="1.5" d="M544.3,987.3H378.9c-5.2,0-7.5-2.3-7.5-7.5V814.4
		c0-5.2,2.3-7.5,7.5-7.5h165.3c5.2,0,7.5,2.3,7.5,7.5v165.3C551.8,985,549.5,987.3,544.3,987.3z"/>
</g>
<g>
	<path fill="#F6ECCC" d="M442.6,169.4V97.2h-20.1c-4.8,0-6.9-2.1-6.9-6.9V72.2c0-4.8,2.1-6.9,6.9-6.9h79.2c4.8,0,6.9,2.1,6.9,6.9
		v18.1c0,4.8-2.1,6.9-6.9,6.9h-20.1v72.1c0,4.8-2.1,6.9-6.9,6.9h-25.2C444.7,176.3,442.6,174.2,442.6,169.4z M480.1,169.4V95.7h21.6
		c3.8,0,5.4-1.6,5.4-5.4V72.2c0-3.8-1.6-5.4-5.4-5.4h-79.2c-3.7,0-5.4,1.6-5.4,5.4v18.1c0,3.8,1.7,5.4,5.4,5.4h21.6v73.6
		c0,3.8,1.6,5.4,5.4,5.4h25.2C478.4,174.8,480.1,173.1,480.1,169.4z M461.3,81.8h-30.7v-1.5h63v1.5h-30.7v79.5h-1.5V81.8z"/>
	<path fill="#F6ECCC" d="M416.9,361.4v-17.8c0-4.8,2.1-6.9,6.9-6.9h18.6v-47.4h-18.6c-4.8,0-6.9-2.1-6.9-6.9v-18.1
		c0-4.8,2.1-6.9,6.9-6.9h76.5c4.8,0,6.9,2.1,6.9,6.9v18.1c0,4.8-2.1,6.9-6.9,6.9h-18.6v47.4h18.6c4.8,0,6.9,2.1,6.9,6.9v17.8
		c0,4.8-2.1,6.9-6.9,6.9h-76.5C419,368.3,416.9,366.2,416.9,361.4z M500.3,366.8c3.7,0,5.4-1.6,5.4-5.4v-17.8c0-3.8-1.6-5.4-5.4-5.4
		h-20.1v-50.4h20.1c3.7,0,5.4-1.6,5.4-5.4v-18.1c0-3.8-1.6-5.4-5.4-5.4h-76.5c-3.8,0-5.4,1.6-5.4,5.4v18.1c0,3.8,1.6,5.4,5.4,5.4
		h20.1v50.4h-20.1c-3.8,0-5.4,1.6-5.4,5.4v17.8c0,3.8,1.6,5.4,5.4,5.4H500.3z M431.9,353.3v-1.5h29.4v-78h-29.4v-1.5h60.3v1.5h-29.4
		v78h29.4v1.5H431.9z"/>
	<path fill="#F6ECCC" d="M422.5,562.8c-4.8,0-6.9-2.1-6.9-6.9v-97.2c0-4.8,2.1-6.9,6.9-6.9h48.3c23.8,0,31,10.9,31,26.5v6.9
		c0,7.5-1.6,13.2-6,16.5c8.1,2.7,14.2,10.6,14.2,22.3v31.8c0,4.8-2.1,6.9-6.9,6.9h-23.2c-4.8,0-6.9-2.1-6.9-6.9V533c0-3.3-1-5-4.2-5
		h-16.3v27.9c0,4.8-2.1,6.9-6.9,6.9H422.5z M451,555.9v-29.4h17.8c4.2,0,5.7,2,5.7,6.5v22.9c0,3.8,1.6,5.4,5.4,5.4h23.2
		c3.8,0,5.4-1.6,5.4-5.4v-31.8c0-12.6-7.5-20.5-16.6-21.7c6.3-2.7,8.4-8.7,8.4-17.1v-6.9c0-14.8-7-25-29.5-25h-48.3
		c-3.7,0-5.4,1.6-5.4,5.4v97.2c0,3.8,1.7,5.4,5.4,5.4h23.1C449.3,561.3,451,559.7,451,555.9z M433.3,547.8v-81h34.2
		c11.7,0,17.1,7.2,17.1,17.1v10.3c0,9.1-1.8,15.1-9,17.4h1.6c12.3,0,15,5.5,15,16v20.1h-1.5v-20.1c0-9.9-2.1-14.7-13.5-14.7h-42.4
		v34.8H433.3z M434.8,468.3v43.3h32.7c12.4,0,15.6-6.1,15.6-17.2v-10.5c0-9.3-4.9-15.6-15.6-15.6H434.8z M460.6,480.3
		c5.2,0,6.6,3,6.6,7v5.1c0,4-1.4,7-6.6,7H451v-19.2H460.6z M452.5,481.8V498h8.1c4.2,0,5.1-2.4,5.1-5.5v-5.1c0-3.1-0.9-5.5-5.1-5.5
		H452.5z"/>
	<path fill="#F6ECCC" d="M415.7,749.7v-97.2c0-4.8,2.1-6.9,6.9-6.9h77.7c4.8,0,6.9,2.1,6.9,6.9v17.5c0,4.8-2.1,6.9-6.9,6.9h-48v8.5
		h35.8c4.8,0,6.9,1.9,6.9,6.9v16c0,4.8-2.1,6.9-6.9,6.9h-35.8v9.9h48c4.8,0,6.9,2.1,6.9,6.9v17.5c0,4.8-2.1,6.9-6.9,6.9h-77.7
		C417.8,756.6,415.7,754.5,415.7,749.7z M505.7,749.7v-17.5c0-3.8-1.6-5.4-5.4-5.4h-49.5v-12.9h37.3c3.8,0,5.4-1.7,5.4-5.4v-16
		c0-3.9-1.6-5.4-5.4-5.4h-37.3v-11.5h49.5c3.7,0,5.4-1.6,5.4-5.4v-17.5c0-3.8-1.6-5.4-5.4-5.4h-77.7c-3.7,0-5.4,1.6-5.4,5.4v97.2
		c0,3.7,1.6,5.4,5.4,5.4h77.7C504.1,755.1,505.7,753.5,505.7,749.7z M492.2,741.6h-58.9v-81h58.9v1.5h-57.4v37.6h45.3v1.5h-45.3
		v38.8h57.4V741.6z"/>
	<path fill="#F6ECCC" d="M476.2,951.2h-53.7c-4.8,0-6.9-2.1-6.9-6.9v-17.5c0-4.8,2.1-6.9,6.9-6.9h46.6c1.6,0,2.4-1.3,2.4-2.8
		c0-2.2-0.8-3.5-2.6-3.6l-28.8-3.1c-15-2.2-24.6-8.7-24.6-26.4v-15.7c0-18,12-27.9,32.5-27.9h49.8c4.8,0,6.9,2.1,6.9,6.9v17.8
		c0,4.8-2.1,6.9-6.9,6.9h-42.7c-1.6,0-2.5,1.3-2.5,3c0,1.8,0.9,3.1,2.7,3.3l28.6,3c15,2.2,24.7,8.7,24.7,26.4v15.7
		C508.7,941.3,496.6,951.2,476.2,951.2z M507.2,923.3v-15.7c0-16.8-9.3-22.8-23.4-24.9l-28.6-3c-2.5-0.3-4-2.1-4-4.8
		c0-2.7,1.5-4.5,4-4.5h42.7c3.7,0,5.4-1.7,5.4-5.4v-17.8c0-3.8-1.6-5.4-5.4-5.4h-49.8c-19.5,0-31,9.3-31,26.4v15.7
		c0,16.8,9.1,22.8,23.2,24.9l28.8,3.1c2.5,0.3,3.9,1.7,3.9,5.1c0,2.4-1.3,4.3-3.9,4.3h-46.6c-3.7,0-5.4,1.6-5.4,5.4v17.5
		c0,3.7,1.7,5.4,5.4,5.4h53.7C495.5,949.7,507.2,940.4,507.2,923.3z M489.8,856.7h-41.1c-8.5,0-13.8,4.6-13.8,12.1v13.8
		c0,6,4,10,10.6,10.6l31.9,3.1c9,0.9,13.3,5.5,13.3,13.6v12.5c0,8.4-6.4,13.6-16.6,13.6h-43.6v-1.5h43.6c9.3,0,15.1-4.7,15.1-12.1
		v-12.5c0-7.2-3.9-11.4-12.1-12.1l-31.9-3.1c-7.3-0.8-11.8-5.4-11.8-12.1v-13.8c0-8.4,5.8-13.6,15.3-13.6h41.1V856.7z"/>
</g>
<g>
	<path d="M1011,90.7c-2.3,0-3.3-1-3.3-3.3V40.8c0-1.3,0.4-2.1,1-2.7l9.3-7.8c0.5-0.4,1.3-0.6,2.3-0.6h11.2c2.3,0,3.3,1,3.3,3.3v34.9
		h0.7v-3.2c0-1.3,0.4-2.1,1-2.7l9.1-7.8c0.5-0.4,1.3-0.6,2.3-0.6h10.4c2.3,0,3.3,1,3.3,3.3v22.7c0,1.3-0.4,2.1-1,2.7l-9.4,7.8
		c-0.4,0.4-1.2,0.7-2.2,0.7H1011z M1060.9,79.6V56.9c0-1.8-0.8-2.6-2.6-2.6h-10.4c-1.8,0-2.6,0.8-2.6,2.6v11.7h-11.2V32.9
		c0-1.8-0.8-2.6-2.6-2.6h-11.2c-1.8,0-2.6,0.8-2.6,2.6v46.6c0,1.8,0.8,2.6,2.6,2.6h38C1060.1,82.1,1060.9,81.4,1060.9,79.6z
		 M1025.6,36.8h0.7V75h26.4V60.8h0.7v14.9h-27.8V36.8z"/>
	<path d="M1050.6,153.3c-0.4,0.4-1.2,0.7-2.2,0.7h-36.7c-2.3,0-3.3-1-3.3-3.3v-8.6c0-1.3,0.4-2.1,1-2.7l9.3-7.8
		c0.4-0.4,1.1-0.6,1.9-0.6v-14.9h-8.9c-2.3,0-3.3-1-3.3-3.3v-8.7c0-1.3,0.4-2.1,1-2.7l9.3-7.8c0.5-0.4,1.3-0.6,2.3-0.6h36.7
		c2.3,0,3.3,1,3.3,3.3v8.7c0,1.3-0.4,2.1-1,2.7l-9.4,7.8l0.1-0.1c-0.4,0.4-1.1,0.7-1.9,0.8V131h8.9c2.3,0,3.3,1,3.3,3.3v8.6
		c0,1.3-0.4,2.1-1,2.7L1050.6,153.3z M1057.6,145.5c1.8,0,2.6-0.8,2.6-2.6v-8.6c0-1.8-0.8-2.6-2.6-2.6h-9.6v-24.2h9.6
		c1.8,0,2.6-0.8,2.6-2.6v-8.7c0-1.8-0.8-2.6-2.6-2.6h-36.7c-1.8,0-2.6,0.8-2.6,2.6v8.7c0,1.8,0.8,2.6,2.6,2.6h9.6v24.2h-9.6
		c-1.8,0-2.6,0.8-2.6,2.6v8.6c0,1.8,0.8,2.6,2.6,2.6H1057.6z M1024.8,139v-0.7h14.1v-37.4h-14.1v-0.7h28.9v0.7h-14.1v37.4h14.1v0.7
		H1024.8z"/>
	<path d="M1024.4,223.3c-2.3,0-3.3-1-3.3-3.3v-3.4c-10.9-1.9-13.7-9.5-13.7-16.9v-21.7c0-4.5,1.1-8.3,4.3-11.1l9.4-7.8
		c3.3-2.8,8.9-4.5,18.2-4.5c18.5,0,22.6,6.4,22.6,15.5V194c0,4.5-1.1,8.3-4.3,11l-9.3,7.7l-0.3,0.3c-0.1,0.8-0.4,1.4-0.9,1.8
		l-9.4,7.8c-0.4,0.4-1.2,0.7-2.2,0.7H1024.4z M1047.3,212.1v-4c10.9-1.7,13.8-6.9,13.8-14.2v-23.9c0-8.8-4.2-14.8-21.9-14.8
		c-17.6,0-21.9,6-21.9,14.8V194c0,7.2,2.9,12.4,13.7,14.1v4c0,1.8,0.8,2.6,2.6,2.6h11.1C1046.5,214.7,1047.3,213.9,1047.3,212.1z
		 M1038.8,202.7c-10.6-0.1-13.6-4-13.6-9.7v-21.2c0-5.8,3-9.7,14-9.7c10.9,0,14.2,3.9,14.2,9.7V193c0,5.8-3.2,9.6-13.8,9.7v5.5h-0.7
		V202.7z M1039.2,202c10.4,0,13.5-3.6,13.5-9v-21.2c0-5.4-3.1-9-13.5-9s-13.2,3.6-13.2,9V193C1025.9,198.4,1028.8,202,1039.2,202z
		 M1033.7,172.7c0-1.9,0.8-3.3,5.5-3.3c4.8,0,5.6,1.4,5.6,3.3v19.6c0,1.9-0.8,3.4-5.6,3.4c-4.7,0-5.5-1.4-5.5-3.4V172.7z
		 M1035.8,194.2v-13.7c0-0.9-0.3-1.7-1.4-2.1V192C1034.4,193,1034.7,193.7,1035.8,194.2z"/>
	<path d="M1007.7,266.8v-33.5c0-1.3,0.4-2.1,1-2.7l9.3-7.8c0.5-0.4,1.3-0.6,2.3-0.6h11.3c2.3,0,3.3,1,3.3,3.3v6.5
		c0.1-0.6,0.4-1,0.7-1.3l0.1-0.1l9.4-7.8c0.5-0.4,1.2-0.6,2.3-0.6h10.9c2.3,0,3.3,1,3.3,3.3v35.6c0,4.5-1.1,8.3-4.4,11l-9.3,7.8
		c-3.3,2.7-8.9,4.4-17.9,4.4C1011.8,284.4,1007.7,275.9,1007.7,266.8z M1060.8,225.5c0-1.8-0.8-2.6-2.6-2.6h-10.9
		c-1.9,0-2.6,0.8-2.6,2.6v32.8c0,1.9-0.9,3.4-5.3,3.4c-4.4,0-5.3-1.4-5.3-3.4v-32.8c0-1.8-0.8-2.6-2.6-2.6h-11.3
		c-1.8,0-2.6,0.8-2.6,2.6v35.6c0,8.8,4.3,14.7,21.6,14.7c17.3,0,21.6-5.9,21.6-14.7V225.5z M1026.3,229.4v30c0,5.4,2.7,9,12.7,9
		c10.4,0,13.4-3.6,13.4-9v-30h0.7v30c0,5.8-3.1,9.7-14.1,9.7c-10.6,0-13.5-3.9-13.5-9.7v-30H1026.3z"/>
	<path d="M1050.6,345.3c-0.4,0.4-1.2,0.7-2.2,0.7h-36.7c-2.3,0-3.3-1-3.3-3.3v-8.6c0-1.3,0.4-2.1,1-2.7l9.3-7.8
		c0.4-0.4,1.1-0.6,1.9-0.6v-14.9h-8.9c-2.3,0-3.3-1-3.3-3.3v-8.7c0-1.3,0.4-2.1,1-2.7l9.3-7.8c0.5-0.4,1.3-0.6,2.3-0.6h36.7
		c2.3,0,3.3,1,3.3,3.3v8.7c0,1.3-0.4,2.1-1,2.7l-9.4,7.8l0.1-0.1c-0.4,0.4-1.1,0.7-1.9,0.8V323h8.9c2.3,0,3.3,1,3.3,3.3v8.6
		c0,1.3-0.4,2.1-1,2.7L1050.6,345.3z M1057.6,337.5c1.8,0,2.6-0.8,2.6-2.6v-8.6c0-1.8-0.8-2.6-2.6-2.6h-9.6v-24.2h9.6
		c1.8,0,2.6-0.8,2.6-2.6v-8.7c0-1.8-0.8-2.6-2.6-2.6h-36.7c-1.8,0-2.6,0.8-2.6,2.6v8.7c0,1.8,0.8,2.6,2.6,2.6h9.6v24.2h-9.6
		c-1.8,0-2.6,0.8-2.6,2.6v8.6c0,1.8,0.8,2.6,2.6,2.6H1057.6z M1024.8,331v-0.7h14.1v-37.4h-14.1v-0.7h28.9v0.7h-14.1v37.4h14.1v0.7
		H1024.8z"/>
	<path d="M1034.2,408.8H1011c-2.3,0-3.3-1-3.3-3.3v-46.6c0-1.3,0.4-2.1,1-2.7l9.3-7.8c0.5-0.4,1.3-0.6,2.3-0.6h23.2
		c14.2,0,18.4,6.3,18.4,15.4v22.5c0,4.8-1.2,8.9-4.5,11.6l-9.3,7.8C1045.2,407.3,1040.8,408.8,1034.2,408.8z M1061.2,385.5v-22.5
		c0-8.7-4.1-14.7-17.7-14.7h-23.2c-1.8,0-2.6,0.8-2.6,2.6v46.6c0,1.8,0.8,2.6,2.6,2.6h23.2C1057.1,400.2,1061.2,394.2,1061.2,385.5z
		 M1025.5,354.9h16.4c9.8,0,11.5,4.5,11.5,10v19.1c0,5.5-1.6,9.8-11.5,9.8h-16.4V354.9z M1026.2,355.6V393h15.7
		c9.2,0,10.8-3.8,10.8-9.1v-19.1c0-5.3-1.7-9.3-10.8-9.3H1026.2z M1041.6,362.1c2.9,0,3.4,1.6,3.4,3.5v17.5c0,1.9-0.5,3.5-3.4,3.5
		h-7.6v-24.5H1041.6z M1034.7,370.9v15h1.2v-12.4C1035.9,372.1,1035.6,371.3,1034.7,370.9z"/>
	<path d="M1034.2,494.3H1011c-2.3,0-3.3-1-3.3-3.3v-46.6c0-1.3,0.4-2.1,1-2.7l9.3-7.8c0.5-0.4,1.3-0.6,2.3-0.6h23.2
		c14.2,0,18.4,6.3,18.4,15.4v22.5c0,4.8-1.2,8.9-4.5,11.6l-9.3,7.8C1045.2,492.9,1040.8,494.3,1034.2,494.3z M1061.2,471.1v-22.5
		c0-8.7-4.1-14.7-17.7-14.7h-23.2c-1.8,0-2.6,0.8-2.6,2.6v46.6c0,1.8,0.8,2.6,2.6,2.6h23.2C1057.1,485.8,1061.2,479.8,1061.2,471.1z
		 M1025.5,440.4h16.4c9.8,0,11.5,4.5,11.5,10v19.1c0,5.5-1.6,9.8-11.5,9.8h-16.4V440.4z M1026.2,441.1v37.4h15.7
		c9.2,0,10.8-3.8,10.8-9.1v-19.1c0-5.3-1.7-9.3-10.8-9.3H1026.2z M1041.6,447.7c2.9,0,3.4,1.6,3.4,3.5v17.5c0,1.9-0.5,3.5-3.4,3.5
		h-7.6v-24.5H1041.6z M1034.7,456.5v15h1.2V459C1035.9,457.7,1035.6,456.8,1034.7,456.5z"/>
	<path d="M1011,557.1c-2.3,0-3.3-1-3.3-3.3v-46.6c0-1.3,0.4-2.1,1-2.7l9.3-7.8c0.5-0.4,1.3-0.6,2.3-0.6h37.3c2.3,0,3.3,1,3.3,3.3
		v8.4c0,1.3-0.4,2.1-1,2.7l-6.2,5.1c0.9,0.5,1.4,1.4,1.4,3v7.7c0,1.3-0.4,2.1-1,2.7l-6.4,5.4h9.9c2.3,0,3.3,1,3.3,3.3v8.4
		c0,1.3-0.4,2.1-1,2.7l-9.4,7.8c-0.4,0.4-1.2,0.7-2.2,0.7H1011z M1060.2,545.9v-8.4c0-1.8-0.8-2.6-2.6-2.6h-23.7v-6.2h17.9
		c1.8,0,2.6-0.8,2.6-2.6v-7.7c0-1.9-0.8-2.6-2.6-2.6h-17.9v-5.5h23.7c1.8,0,2.6-0.8,2.6-2.6v-8.4c0-1.8-0.8-2.6-2.6-2.6h-37.3
		c-1.8,0-2.6,0.8-2.6,2.6v46.6c0,1.8,0.8,2.6,2.6,2.6h37.3C1059.4,548.5,1060.2,547.7,1060.2,545.9z M1053.7,542h-28.3v-38.9h28.3
		v0.7h-27.6V522h21.7v0.7h-21.7v18.6h27.6V542z"/>
	<path d="M1023.9,620.4c-2.3,0-3.3-1-3.3-3.3v-34.6h-9.6c-2.3,0-3.3-1-3.3-3.3v-8.7c0-1.3,0.4-2.1,1-2.7l9.3-7.8
		c0.5-0.4,1.3-0.6,2.3-0.6h38c2.3,0,3.3,1,3.3,3.3v8.7c0,1.3-0.4,2.1-1,2.7l-9.4,7.8c-0.4,0.4-1.2,0.7-2.2,0.7h-0.4v26.8
		c0,1.3-0.4,2.1-1,2.7l-9.4,7.8c-0.4,0.4-1.2,0.7-2.2,0.7H1023.9z M1047.9,609.2v-35.3h10.4c1.8,0,2.6-0.8,2.6-2.6v-8.7
		c0-1.8-0.8-2.6-2.6-2.6h-38c-1.8,0-2.6,0.8-2.6,2.6v8.7c0,1.8,0.8,2.6,2.6,2.6h10.4v35.3c0,1.8,0.8,2.6,2.6,2.6h12.1
		C1047.1,611.8,1047.9,611,1047.9,609.2z M1038.9,567.2h-14.8v-0.7h30.2v0.7h-14.8v38.1h-0.7V567.2z"/>
	<path d="M1011,681.9c-2.3,0-3.3-1-3.3-3.3V632c0-1.3,0.4-2.1,1-2.7l9.3-7.8c0.5-0.4,1.3-0.6,2.3-0.6h37.3c2.3,0,3.3,1,3.3,3.3v8.4
		c0,1.3-0.4,2.1-1,2.7l-6.2,5.1c0.9,0.5,1.4,1.4,1.4,3v7.7c0,1.3-0.4,2.1-1,2.7l-6.4,5.4h9.9c2.3,0,3.3,1,3.3,3.3v8.4
		c0,1.3-0.4,2.1-1,2.7l-9.4,7.8c-0.4,0.4-1.2,0.7-2.2,0.7H1011z M1060.2,670.8v-8.4c0-1.8-0.8-2.6-2.6-2.6h-23.7v-6.2h17.9
		c1.8,0,2.6-0.8,2.6-2.6v-7.7c0-1.9-0.8-2.6-2.6-2.6h-17.9v-5.5h23.7c1.8,0,2.6-0.8,2.6-2.6v-8.4c0-1.8-0.8-2.6-2.6-2.6h-37.3
		c-1.8,0-2.6,0.8-2.6,2.6v46.6c0,1.8,0.8,2.6,2.6,2.6h37.3C1059.4,673.4,1060.2,672.6,1060.2,670.8z M1053.7,666.9h-28.3V628h28.3
		v0.7h-27.6v18.1h21.7v0.7h-21.7v18.6h27.6V666.9z"/>
	<path d="M1024.3,743.9c-0.4,0.4-1.2,0.7-2.2,0.7H1011c-2.3,0-3.3-1-3.3-3.3v-46.6c0-1.3,0.4-2.1,1-2.7l9.3-7.8
		c0.5-0.4,1.3-0.6,2.3-0.6h23.2c11.4,0,14.9,5.3,14.9,12.7v3.3c0,3.5-0.8,6.2-2.7,7.8l-0.1,0.1c3.8,1.3,6.8,5,6.8,10.7v15.3
		c0,1.3-0.4,2.1-1,2.7l-9.4,7.8c-0.4,0.4-1.2,0.7-2.2,0.7H1039c-2.3,0-3.3-1-3.3-3.3v-11c0-0.9-0.4-1.7-1-2v5.2c0,1.3-0.4,2.1-1,2.7
		L1024.3,743.9z M1033.9,733.5v-14.1h8.6c2,0,2.7,0.9,2.7,3.1v11c0,1.8,0.8,2.6,2.6,2.6h11.2c1.8,0,2.6-0.8,2.6-2.6v-15.3
		c0-6-3.6-9.9-8-10.4c3-1.3,4-4.2,4-8.2v-3.3c0-7.1-3.4-12-14.2-12h-23.2c-1.8,0-2.6,0.8-2.6,2.6v46.6c0,1.8,0.8,2.6,2.6,2.6h11.1
		C1033.1,736.1,1033.9,735.3,1033.9,733.5z M1025.4,729.6v-38.9h16.4c5.6,0,8.2,3.5,8.2,8.2v5c0,4.4-0.9,7.3-4.3,8.3h0.8
		c5.9,0,7.2,2.7,7.2,7.7v9.6h-0.7V720c0-4.7-1-7.1-6.5-7.1h-20.4v16.7H1025.4z M1026.2,691.5v20.8h15.7c6,0,7.5-3,7.5-8.3v-5
		c0-4.5-2.4-7.5-7.5-7.5H1026.2z M1038.5,697.2c2.5,0,3.2,1.4,3.2,3.4v2.4c0,1.9-0.6,3.4-3.2,3.4h-4.6v-9.2H1038.5z"/>
	<path d="M1026.4,806.1c-14.2,0-19.1-7.8-19.1-16.8v-21c0-4.8,1.2-8.9,4.5-11.7l9.3-7.8c2.9-2.4,7.3-3.8,14-3.8h18.6
		c2.3,0,3.3,1,3.3,3.3v8.7c0,1.3-0.4,2.1-1,2.7l-9.4,7.8c-0.4,0.4-1.2,0.7-2.2,0.7h-9.9v12.2c0,0.5,0,1,0.1,1.4v-1.3
		c0-1.3,0.4-2.1,1-2.7l9.3-7.8c0.5-0.4,1.3-0.6,2.3-0.6h11.2c2.3,0,3.3,1,3.3,3.3V795c0,1.3-0.4,2.1-1,2.7l-9.4,7.8
		c-0.4,0.4-1.2,0.7-2.2,0.7H1026.4z M1060.8,795v-22.2c0-1.8-0.8-2.6-2.6-2.6h-11.2c-1.8,0-2.6,0.8-2.6,2.6V784h-7.6
		c-2.9,0-3.3-1.6-3.3-3.5v-17.2c0-1.9,0.6-3.6,4.4-3.6h15.5c1.8,0,2.6-0.8,2.6-2.6v-8.7c0-1.8-0.8-2.6-2.6-2.6H1035
		c-13.6,0-17.7,6-17.7,14.7v22.5c0,8.7,4.1,14.7,17.7,14.7h23.2C1060.1,797.6,1060.8,796.8,1060.8,795z M1025.2,781.8v-20.1
		c0-6.8,2.3-9.4,11.5-9.4h13v0.7h-13c-8.5,0-10.8,2.3-10.8,8.7v20.1c0,6.3,2.5,8.6,12.2,8.6h14.2v-13.7h0.7v14.5h-15
		C1027.5,791.1,1025.2,788.5,1025.2,781.8z"/>
	<path d="M1011,868.9c-2.3,0-3.3-1-3.3-3.3v-46.6c0-1.3,0.4-2.1,1-2.7l9.3-7.8c0.5-0.4,1.3-0.6,2.3-0.6h37.3c2.3,0,3.3,1,3.3,3.3
		v8.4c0,1.3-0.4,2.1-1,2.7l-6.2,5.1c0.9,0.5,1.4,1.4,1.4,3v7.7c0,1.3-0.4,2.1-1,2.7l-6.4,5.4h9.9c2.3,0,3.3,1,3.3,3.3v8.4
		c0,1.3-0.4,2.1-1,2.7l-9.4,7.8c-0.4,0.4-1.2,0.7-2.2,0.7H1011z M1060.2,857.7v-8.4c0-1.8-0.8-2.6-2.6-2.6h-23.7v-6.2h17.9
		c1.8,0,2.6-0.8,2.6-2.6v-7.7c0-1.9-0.8-2.6-2.6-2.6h-17.9v-5.5h23.7c1.8,0,2.6-0.8,2.6-2.6v-8.4c0-1.8-0.8-2.6-2.6-2.6h-37.3
		c-1.8,0-2.6,0.8-2.6,2.6v46.6c0,1.8,0.8,2.6,2.6,2.6h37.3C1059.4,860.3,1060.2,859.5,1060.2,857.7z M1053.7,853.8h-28.3V815h28.3
		v0.7h-27.6v18.1h21.7v0.7h-21.7v18.6h27.6V853.8z"/>
	<path d="M1024,930.5c-0.4,0.4-1.2,0.7-2.2,0.7H1011c-2.3,0-3.3-1-3.3-3.3v-46.6c0-1.3,0.4-2.1,1-2.7l9.3-7.8
		c0.5-0.4,1.3-0.6,2.3-0.6h7.5c2.1,0,3.4,0.6,4.8,2.2l4.3,5.4l8.3-7c0.5-0.4,1.3-0.6,2.3-0.6h10.8c2.3,0,3.3,1,3.3,3.3v46.6
		c0,1.3-0.4,2.1-1,2.7l-9.4,7.8c-0.4,0.4-1.2,0.7-2.2,0.7h-10.8c-2.3,0-3.3-1-3.3-3.3v-8.6l-0.6-0.7v1.5c0,1.3-0.4,2.1-1,2.7
		L1024,930.5z M1033.6,920.1v-23.7l11.3,14.9v8.9c0,1.8,0.8,2.6,2.6,2.6h10.8c1.8,0,2.6-0.8,2.6-2.6v-46.6c0-1.8-0.8-2.6-2.6-2.6
		h-10.8c-1.8,0-2.6,0.8-2.6,2.6v15.3l-13-16c-1.2-1.4-2.4-1.9-4.2-1.9h-7.5c-1.8,0-2.6,0.8-2.6,2.6v46.6c0,1.8,0.8,2.6,2.6,2.6h10.8
		C1032.9,922.7,1033.6,921.9,1033.6,920.1z M1027.2,877.9l25.3,29.8v-30.4h0.7v38.9h-0.7v-7.4l-26-30.5c-0.1-0.1-0.2-0.2-0.4-0.2
		c-0.1,0-0.1,0.1-0.1,0.2v37.9h-0.7v-38.1c0-0.6,0.4-0.9,0.9-0.9S1026.7,877.4,1027.2,877.9z"/>
	<path d="M1023.9,993.6c-2.3,0-3.3-1-3.3-3.3v-34.6h-9.6c-2.3,0-3.3-1-3.3-3.3v-8.7c0-1.3,0.4-2.1,1-2.7l9.3-7.8
		c0.5-0.4,1.3-0.6,2.3-0.6h38c2.3,0,3.3,1,3.3,3.3v8.7c0,1.3-0.4,2.1-1,2.7l-9.4,7.8c-0.4,0.4-1.2,0.7-2.2,0.7h-0.4v26.8
		c0,1.3-0.4,2.1-1,2.7l-9.4,7.8c-0.4,0.4-1.2,0.7-2.2,0.7H1023.9z M1047.9,982.5v-35.3h10.4c1.8,0,2.6-0.8,2.6-2.6v-8.7
		c0-1.8-0.8-2.6-2.6-2.6h-38c-1.8,0-2.6,0.8-2.6,2.6v8.7c0,1.8,0.8,2.6,2.6,2.6h10.4v35.3c0,1.8,0.8,2.6,2.6,2.6h12.1
		C1047.1,985.1,1047.9,984.3,1047.9,982.5z M1038.9,940.5h-14.8v-0.7h30.2v0.7h-14.8v38.1h-0.7V940.5z"/>
</g>
<path fill="#771F15" stroke="#432D2C" stroke-width="5" d="M964.3,91h-4.8c0-15.5-12.7-28.2-28.2-28.2c-4-23-26.4-38.3-86.7-38.3
	c-60.3,0-82.6,15.3-86.7,38.3c-15.5,0-28.2,12.7-28.2,28.2h-4.8c-5,0-7.3,2.2-7.3,7.3V114c0,5,2.2,7.3,7.3,7.3h10.9v199.5v16.1
	v185.4v16.1v185.4v16.1v185.4v16.1v0.8c0,5,2.2,7.3,7.3,7.3h4.8c0,15.5,12.7,28.2,28.2,28.2v4.8c0,5,2.2,7.3,7.3,7.3h122.5
	c5,0,7.3-2.2,7.3-7.3v-4.8c15.5,0,28.2-12.7,28.2-28.2h4.8c5,0,7.3-2.2,7.3-7.3v-0.8v-16.1V739.9v-16.1V538.4v-16.1V336.9v-16.1
	V121.3h10.9c5,0,7.3-2.2,7.3-7.3V98.3C971.6,93.2,969.4,91,964.3,91z"/>
<path fill="#ECDFC1" d="M905.9,990.8H783.3c-5.6,0-8.3-2.7-8.3-8.3v-3.9c-15.3-0.5-27.7-12.9-28.2-28.2H743c-5.6,0-8.3-2.7-8.3-8.3
	v-820h-9.9c-5.6,0-8.3-2.7-8.3-8.3V98.3c0-5.6,2.7-8.3,8.3-8.3h3.9c0.5-15.4,13-27.8,28.4-28.2c5.1-26.1,32.9-38.3,87.5-38.3
	c54.5,0,82.4,12.2,87.5,38.3c15.4,0.4,27.8,12.8,28.4,28.2h3.9c5.6,0,8.3,2.7,8.3,8.3V114c0,5.6-2.7,8.3-8.3,8.3h-9.9v820
	c0,5.6-2.7,8.3-8.3,8.3h-3.9c-0.5,15.3-12.9,27.7-28.2,28.2v3.9C914.1,988.1,911.4,990.8,905.9,990.8z M724.9,92
	c-4.5,0-6.3,1.8-6.3,6.3V114c0,4.5,1.8,6.3,6.3,6.3h11.9v822c0,4.5,1.8,6.3,6.3,6.3h5.8v1c0,15,12.2,27.2,27.2,27.2h1v5.8
	c0,4.5,1.8,6.3,6.3,6.3h122.5c4.5,0,6.3-1.8,6.3-6.3v-5.8h1c15,0,27.2-12.2,27.2-27.2v-1h5.8c4.5,0,6.3-1.8,6.3-6.3v-822h11.9
	c4.5,0,6.3-1.8,6.3-6.3V98.3c0-4.5-1.8-6.3-6.3-6.3h-5.8v-1c0-15-12.2-27.2-27.2-27.2h-0.8l-0.1-0.8c-4.5-25.6-31.7-37.5-85.7-37.5
	S763.4,37.4,758.9,63l-0.1,0.8H758c-15,0-27.2,12.2-27.2,27.2v1H724.9z"/>
<g>
	<path fill="#9C5134" d="M770.5,250.3v-23.2c0-3.6,1-5.8,2.8-7.3l19.8-16.7c-14.1-4.4-22.6-13.5-22.6-32.7v-20.8
		c0-11.9,4-21.2,11.5-27.6l25.8-21.6c7.1-5.9,17.8-9.3,31.3-9.3H905c6.3,0,9.1,2.8,9.1,9.1v23.6c0,3.6-1,5.8-2.8,7.3l-18.4,15.3
		c16.3,3.8,26.4,12.9,26.4,33.7v20.8c0,11.9-4,21.2-11.7,27.6l-25.6,21.4c-7.3,6.1-18,9.5-31.3,9.5h-71
		C773.3,259.4,770.5,256.6,770.5,250.3z"/>
	<path fill="#9C5134" d="M832,433.7c-51,0-62.3-23.4-62.3-48.4v-61.7c0-12.5,3-23,11.9-30.5l25.8-21.4c9.1-7.7,24.4-12.3,50.2-12.3
		c51,0,62.3,17.6,62.3,42.6v67.6c0,12.3-3,22.8-11.9,30.3l-25.8,21.4C873,429.1,857.8,433.7,832,433.7z M848,368.4v-37.7
		c0-2.6-0.8-4.6-3.8-5.8v37.5C844.3,365.1,845.1,367.1,848,368.4z"/>
	<path fill="#9C5134" d="M814.7,598.1c-1.2,1.2-3.4,2-6.1,2h-29.1c-6.5,0-9.1-2.8-9.1-9.1v-52.3c0-14.1,2-17.1,7.9-32.3l15.1-45
		c0.8-2.4,2-4.4,3.6-5.6l25.8-21.6c2-1.6,4.8-2.4,8.3-2.4h51.4c6.1,0,9.7,2,11.7,7.7l17.3,45c5.9,15.5,7.9,18.4,7.9,32.5v52.3
		c0,3.6-1,5.8-2.8,7.3l-25.8,21.4c-1.2,1.2-3.4,2-6.1,2h-29.9c-6.3,0-9.7-3-9.7-9.1v-25.8h-1.6v4.2c0,3.6-1,5.8-2.8,7.3L814.7,598.1
		z"/>
	<path fill="#9C5134" d="M779.6,770.4c-6.3,0-9.1-2.8-9.1-9.1V632.8c0-3.6,1-5.8,2.8-7.3l25.6-21.6c1.4-1.2,3.6-1.8,6.3-1.8H871
		c37.9,0,48.8,16.7,48.8,40.6v25.4c0,12.7-3.2,23.4-11.9,30.7l-25.6,21.4c-7.5,6.3-19.4,10.1-36.9,10.1h-0.4v9.3
		c0,3.6-1,5.8-2.8,7.3l-25.8,21.4c-1.2,1.2-3.4,2-6.1,2H779.6z"/>
	<path fill="#9C5134" d="M770.5,927.2V904c0-3.6,1-5.8,2.8-7.3l19.8-16.7c-14.1-4.4-22.6-13.5-22.6-32.7v-20.8
		c0-11.9,4-21.2,11.5-27.6l25.8-21.6c7.1-5.9,17.8-9.3,31.3-9.3H905c6.3,0,9.1,2.8,9.1,9.1v23.6c0,3.6-1,5.8-2.8,7.3l-18.4,15.3
		c16.3,3.8,26.4,12.9,26.4,33.7v20.8c0,11.9-4,21.2-11.7,27.6l-25.6,21.4c-7.3,6.1-18,9.5-31.3,9.5h-71
		C773.3,936.3,770.5,933.6,770.5,927.2z"/>
	<path fill="#CABC6C" d="M805.1,235.8c-5,0-7.1-2.2-7.1-7.1v-23.2c0-5,2.2-7.1,7.1-7.1h61.7c3.4,0,5.2-2.6,5.2-5.8
		c0-4.6-1.8-6.3-5.2-6.7l-38.1-4.2c-18.6-2.8-30.7-10.7-30.7-32.9v-20.8c0-22.6,15.3-34.9,41-34.9h65.8c5,0,7.1,2.2,7.1,7.1v23.6
		c0,5-2.2,7.1-7.1,7.1h-56.5c-3.4,0-5.4,2.4-5.4,5.9c0,3.6,2,5.9,5.4,6.3l37.9,4c18.6,2.8,30.9,10.7,30.9,32.9v20.8
		c0,22.6-15.5,34.9-41,34.9H805.1z"/>
	<path fill="#CABC6C" d="M857.5,410.1c-48.6,0-60.3-16.3-60.3-40.5V302c0-24.2,11.7-40.6,60.3-40.6c48.6,0,60.3,16.5,60.3,40.6v67.6
		C917.7,393.8,906,410.1,857.5,410.1z M857.5,371.8c13.3,0,15.5-4,15.5-9.3v-53.3c0-5.2-2.2-9.1-15.5-9.1c-13.1,0-15.3,4-15.3,9.1
		v53.3C842.2,367.8,844.4,371.8,857.5,371.8z"/>
	<path fill="#CABC6C" d="M834.1,576.4h-29.1c-5.2,0-7.1-2.2-7.1-7.1V517c0-13.7,2-16.7,7.7-31.7l15.3-45c1.8-5,5-6.5,10.1-6.5h51.4
		c5.2,0,8.1,1.6,9.9,6.5l17.3,45c5.8,15.1,7.7,18,7.7,31.7v52.3c0,5-2.2,7.1-7.1,7.1h-29.9c-5,0-7.7-2.2-7.7-7.1v-27.8h-31.1v27.8
		C841.2,574.3,839,576.4,834.1,576.4z M843.2,505.5h27.2l-9.3-30.1c-1.2-2.6-1.6-3.4-3.8-3.4h-1c-2.2,0-2.6,0.8-3.8,3.4L843.2,505.5
		z"/>
	<path fill="#CABC6C" d="M805.1,746.8c-5,0-7.1-2.2-7.1-7.1V611.1c0-5,2.2-7.1,7.1-7.1h65.8c36.1,0,46.8,15.7,46.8,38.7v25.4
		c0,23-10.7,38.7-46.8,38.7h-28v32.9c0,5-2.2,7.1-7.1,7.1H805.1z M842.6,671h23c7.7,0,9.3-4.6,9.3-9.7v-10.5c0-5.2-1.6-9.7-9.3-9.7
		h-23V671z"/>
	<path fill="#CABC6C" d="M805.1,912.7c-5,0-7.1-2.2-7.1-7.1v-23.2c0-5,2.2-7.1,7.1-7.1h61.7c3.4,0,5.2-2.6,5.2-5.8
		c0-4.6-1.8-6.3-5.2-6.7l-38.1-4.2c-18.6-2.8-30.7-10.7-30.7-32.9v-20.8c0-22.6,15.3-34.9,41-34.9h65.8c5,0,7.1,2.2,7.1,7.1v23.6
		c0,5-2.2,7.1-7.1,7.1h-56.5c-3.4,0-5.4,2.4-5.4,5.9c0,3.6,2,5.9,5.4,6.3l37.9,4c18.6,2.8,30.9,10.7,30.9,32.9v20.8
		c0,22.6-15.5,34.9-41,34.9H805.1z"/>
	<path fill="#F6ECCC" d="M894,112.8h-54.3c-11.3,0-18.2,6.1-18.2,16.1v18.2c0,7.9,5.4,13.3,14.1,14.1l42.2,4.2
		c11.9,1.2,17.6,7.3,17.6,18v16.5c0,11.1-8.5,18-22,18h-57.7v-2h57.7c12.3,0,20-6.1,20-16.1v-16.5c0-9.5-5.2-15.1-16.1-16.1
		l-42.2-4.2c-9.7-1-15.7-7.1-15.7-16.1v-18.2c0-11.1,7.7-18,20.2-18H894V112.8z"/>
	<path fill="#F6ECCC" d="M857.2,391.8c-30.1,0-38.5-10.7-38.5-26.8v-58.5c0-16.1,8.3-26.8,38.5-26.8c30.1,0,39.1,10.7,39.1,26.8
		v58.5C896.2,381.1,887.3,391.8,857.2,391.8z M857.2,389.9c28.6,0,37.1-9.9,37.1-24.8v-58.5c0-14.9-8.5-24.8-37.1-24.8
		c-28.6,0-36.5,9.9-36.5,24.8v58.5C820.7,379.9,828.6,389.9,857.2,389.9z"/>
	<path fill="#F6ECCC" d="M893.6,524.5h-73.2v34.1h-2v-42.2c0-7.3,1.2-13.5,3.4-19.2l12.7-32.5c3-7.3,5.4-13.1,14.5-13.1h15.3
		c8.7,0,11.1,5.6,14.3,13.3l13.7,32.3c2.2,5.8,3.4,11.9,3.4,19.2v42.2h-2V524.5z M820.5,522.5h73.2v-6.1c0-7.1-1.2-13.1-3.2-18.4
		l-13.7-32.3c-3-6.9-5.2-12.1-12.5-12.1H849c-7.9,0-10.1,5.2-12.7,11.9l-12.7,32.5c-2,5.4-3.2,11.3-3.2,18.4V522.5z"/>
	<path fill="#F6ECCC" d="M821.5,689.9v39.1h-2V621.9h48c25,0,29.7,11.5,29.7,27v14.7c0,15.5-4.8,26.4-29.7,26.4H821.5z M867.5,687.9
		c23.4,0,27.8-10.1,27.8-24.4v-14.7c0-14.3-4.4-25-27.8-25h-46v64H867.5z"/>
	<path fill="#F6ECCC" d="M894,789.8h-54.3c-11.3,0-18.2,6.1-18.2,16.1v18.2c0,7.9,5.4,13.3,14.1,14.1l42.2,4.2
		c11.9,1.2,17.6,7.3,17.6,18v16.5c0,11.1-8.5,18-22,18h-57.7v-2h57.7c12.3,0,20-6.1,20-16.1v-16.5c0-9.5-5.2-15.1-16.1-16.1
		l-42.2-4.2c-9.7-1-15.7-7.1-15.7-16.1v-18.2c0-11.1,7.7-18,20.2-18H894V789.8z"/>
</g>
<g>
	<g>
		<g>
			<path fill="#DC4227" stroke="#ECDFC1" d="M1330,27.3c34.4,0,58.6,24.2,58.6,58.6s-24.2,58.6-58.6,58.6s-58.6-24.2-58.6-58.6
				S1295.6,27.3,1330,27.3z"/>
			<path fill="#762117" stroke="#ECDFC1" d="M1330,148.8c34.4,0,58.6,24.2,58.6,58.6S1364.4,266,1330,266s-58.6-24.2-58.6-58.6
				S1295.6,148.8,1330,148.8z"/>
			<path fill="#DC4227" stroke="#ECDFC1" d="M1330,270.3c34.4,0,58.6,24.2,58.6,58.6s-24.2,58.6-58.6,58.6s-58.6-24.2-58.6-58.6
				S1295.6,270.3,1330,270.3z"/>
			<path fill="#762117" stroke="#ECDFC1" d="M1330,391.8c34.4,0,58.6,24.2,58.6,58.6S1364.4,509,1330,509s-58.6-24.2-58.6-58.6
				S1295.6,391.8,1330,391.8z"/>
			<path fill="#DC4227" stroke="#ECDFC1" d="M1330,513.3c34.4,0,58.6,24.2,58.6,58.6s-24.2,58.6-58.6,58.6s-58.6-24.2-58.6-58.6
				S1295.6,513.3,1330,513.3z"/>
			<path fill="#762117" stroke="#ECDFC1" d="M1330,634.8c34.4,0,58.6,24.2,58.6,58.6S1364.4,752,1330,752s-58.6-24.2-58.6-58.6
				S1295.6,634.8,1330,634.8z"/>
			<path fill="#DC4227" stroke="#ECDFC1" d="M1330,756.3c34.4,0,58.6,24.2,58.6,58.6s-24.2,58.6-58.6,58.6s-58.6-24.2-58.6-58.6
				S1295.6,756.3,1330,756.3z"/>
			<path fill="#762117" stroke="#ECDFC1" d="M1330,877.8c34.4,0,58.6,24.2,58.6,58.6S1364.4,995,1330,995s-58.6-24.2-58.6-58.6
				S1295.6,877.8,1330,877.8z"/>
		</g>
	</g>
	<g>
		<path fill="#ECDFC1" d="M1306.7,117.9c-2.2,0-3.2-1-3.2-3.2V57.5c0-2.2,1-3.2,3.2-3.2h29.3c16.1,0,20.8,7,20.8,17.2v11.3
			c0,10.2-4.8,17.2-20.8,17.2h-12.5v14.7c0,2.2-1,3.2-3.2,3.2H1306.7z M1347.8,80.8v-6.5c0-6.9-2.1-12-13.2-12h-21.4V110h0.9V92.6
			h20.5C1345.6,92.6,1347.8,87.7,1347.8,80.8z M1314,63.2h20.5c10.4,0,12.4,4.8,12.4,11.1v6.5c0,6.4-1.9,10.9-12.4,10.9H1314V63.2z
			 M1323.4,84.2h10.2c3.4,0,4.2-2,4.2-4.3v-4.7c0-2.3-0.7-4.3-4.2-4.3h-10.2V84.2z"/>
		<path fill="#ECDFC1" d="M1330,238.5c-21.6,0-26.8-7.2-26.8-18v-30.1c0-10.8,5.2-18.1,26.8-18.1s26.8,7.3,26.8,18.1v30.1
			C1356.9,231.2,1351.6,238.5,1330,238.5z M1347.3,192.4c0-7.2-4-11.9-17.4-11.9c-13.4,0-17.1,4.8-17.1,11.9v26.1
			c0,7.2,3.7,11.9,17.1,11.9c13.4,0,17.4-4.8,17.4-11.9V192.4z M1313.7,192.4c0-6.6,3.5-11,16.2-11s16.5,4.4,16.5,11v26.1
			c0,6.6-3.8,11-16.5,11s-16.2-4.4-16.2-11V192.4z M1330,221.4c5.9,0,6.9-1.8,6.9-4.2v-23.8c0-2.3-1-4.1-6.9-4.1
			c-5.8,0-6.8,1.8-6.8,4.1v23.8C1323.2,219.7,1324.2,221.4,1330,221.4z"/>
		<path fill="#ECDFC1" d="M1330,360.1c-21.6,0-26.8-7.2-26.8-18V312c0-10.8,5.2-18.1,26.8-18.1s26.8,7.3,26.8,18.1v30.1
			C1356.9,352.9,1351.6,360.1,1330,360.1z M1347.3,314c0-7.2-4-11.9-17.4-11.9c-13.4,0-17.1,4.8-17.1,11.9v26.1
			c0,7.2,3.7,11.9,17.1,11.9c13.4,0,17.4-4.8,17.4-11.9V314z M1313.7,314c0-6.6,3.5-11,16.2-11s16.5,4.4,16.5,11v26.1
			c0,6.6-3.8,11-16.5,11s-16.2-4.4-16.2-11V314z M1330,343.1c5.9,0,6.9-1.8,6.9-4.2v-23.8c0-2.3-1-4.1-6.9-4.1
			c-5.8,0-6.8,1.8-6.8,4.1v23.8C1323.2,341.3,1324.2,343.1,1330,343.1z"/>
		<path fill="#ECDFC1" d="M1306.8,478c-2.2,0-3.2-1-3.2-3.2v-57.2c0-2.2,1-3.2,3.2-3.2h13.7c2.2,0,3.2,1,3.2,3.2v43.7h13.8V447
			c0-2.2,1-3.2,3.2-3.2h12.8c2.2,0,3.2,1,3.2,3.2v27.8c0,2.2-1,3.2-3.2,3.2H1306.8z M1347.4,470.1v-18.3h-0.9v17.4h-32.4v-46.8h-0.9
			v47.7H1347.4z"/>
		<path fill="#ECDFC1" d="M1306.7,600.3c-2.2,0-3.2-1-3.2-3.2v-10.3c0-2.2,1-3.2,3.2-3.2h27.5c1.5,0,2.3-1.1,2.3-2.6
			c0-2-0.8-2.8-2.3-3l-17-1.9c-8.3-1.2-13.7-4.8-13.7-14.7v-9.3c0-10.1,6.8-15.5,18.3-15.5h29.3c2.2,0,3.2,1,3.2,3.2v10.5
			c0,2.2-1,3.2-3.2,3.2h-25.2c-1.5,0-2.4,1.1-2.4,2.6c0,1.6,0.9,2.6,2.4,2.8l16.9,1.8c8.3,1.2,13.8,4.8,13.8,14.7v9.3
			c0,10.1-6.9,15.5-18.3,15.5H1306.7z M1322.1,544.7c-5.6,0-9,3.1-9,8v8.1c0,4,2.6,6.7,7,7.2l18.8,1.9c4.9,0.4,7.2,2.9,7.2,7.2v7.3
			c0,4.4-3.4,7.2-8.9,7.2h-25.7v0.9h25.7c6,0,9.8-3.1,9.8-8V577c0-4.8-2.6-7.5-7.9-8l-18.8-1.9c-3.9-0.4-6.3-2.7-6.3-6.3v-8.1
			c0-4.4,3.1-7.2,8.1-7.2h24.2v-0.9H1322.1z"/>
		<path fill="#ECDFC1" d="M1304.3,719.5V709c0-2.2,1-3.2,3.2-3.2h11.8v-29.7h-11.8c-2.2,0-3.2-1-3.2-3.2v-10.7c0-2.2,1-3.2,3.2-3.2
			h45c2.2,0,3.2,1,3.2,3.2v10.7c0,2.2-1,3.2-3.2,3.2h-11.8v29.7h11.8c2.2,0,3.2,1,3.2,3.2v10.5c0,2.2-1,3.2-3.2,3.2h-45
			C1305.3,722.7,1304.3,721.7,1304.3,719.5z M1347.8,713.8h-17.3v-45.9h17.3V667h-35.5v0.9h17.3v45.9h-17.3v0.9h35.5V713.8z"/>
		<path fill="#ECDFC1" d="M1306.7,845c-2.2,0-3.2-1-3.2-3.2v-57.2c0-2.2,1-3.2,3.2-3.2h28.5c16.7,0,21.7,7.3,21.7,18V827
			c0,10.7-5,18-21.7,18H1306.7z M1333.3,837c12.2,0,14.1-5.2,14.1-12v-23.4c0-6.8-2.1-12.3-14.1-12.3h-20.1V837H1333.3z
			 M1346.5,801.6V825c0,6.4-1.9,11.1-13.2,11.1H1314v-45.9h19.3C1344.4,790.2,1346.5,795.2,1346.5,801.6z M1323.6,828.3h9.3
			c3.5,0,4.2-1.9,4.2-4.3v-21.5c0-2.3-0.6-4.2-4.2-4.2h-9.3V828.3z"/>
		<path fill="#ECDFC1" d="M1306.8,967.3c-2.2,0-3.2-1-3.2-3.2v-57.2c0-2.2,1-3.2,3.2-3.2h45.7c2.2,0,3.2,1,3.2,3.2v10.3
			c0,2.2-1,3.2-3.2,3.2h-29.1v6.8h22c2.2,0,3.2,0.9,3.2,3.2v9.5c0,2.2-1,3.2-3.2,3.2h-22v7.6h29.1c2.2,0,3.2,1,3.2,3.2v10.3
			c0,2.2-1,3.2-3.2,3.2H1306.8z M1313.9,958.5v-22.9h26.7v-0.9h-26.7v-22.2h33.8v-0.9H1313v47.7h34.7v-0.9H1313.9z"/>
	</g>
</g>
<g>
	<path fill="#432D2C" stroke="#ECDFC1" stroke-width="1.42" d="M1572,53.4c-0.9-19.1-15.9-31.7-71.3-31.7
		c-55.5,0-70.4,12.6-71.3,31.7h0v2V64v121.6v10.6v121.6v10.6v122v10.1v110.2v9.6v110.1v10.1v122V833v121.6v8.6v2h0
		c0.9,19.1,15.9,31.7,71.3,31.7c55.5,0,70.4-12.6,71.3-31.7h0v-2v-8.6V833v-10.6v-122v-10.1V580.2v-9.6V460.4v-10.1v-122v-10.6
		V196.1v-10.6V64v-8.6L1572,53.4L1572,53.4z"/>
	<g>
		<path fill="#ECDFC1" d="M1536.6,163.6h-44.5c-28.1,0-36.4-12.5-36.4-30.4V89c0-18,8.2-30.5,36.4-30.5h44.5c4.5,0,6.5,2,6.5,6.5
			v17.2c0,4.5-2,6.5-6.5,6.5h-38.4c-6,0-7.2,2.6-7.2,5.7v33.8c0,3.3,1.4,5.4,7.2,5.4h38.4c4.5,0,6.5,2,6.5,6.5v16.9
			C1543.1,161.6,1541.2,163.6,1536.6,163.6z"/>
		<path fill="#ECDFC1" d="M1545,258.1c0,17.9-8.1,30.4-44.6,30.4c-36.5,0-44.6-12.5-44.6-30.4v-48.4c0-17.9,8.1-30.5,44.6-30.5
			c36.5,0,44.6,12.6,44.6,30.5V258.1z M1490.9,253c0,3.3,2.1,5.3,9.5,5.3c7.5,0,9.7-1.8,9.7-5.3v-38.2c0-3.3-2.3-5.1-9.7-5.1
			c-7.4,0-9.5,1.8-9.5,5.1V253z"/>
		<path fill="#ECDFC1" d="M1457.6,403.7v-16.9c0-4.5,2-6.5,6.5-6.5h17.6v-44.9h-17.6c-4.5,0-6.5-2-6.5-6.5v-17.2
			c0-4.5,2-6.5,6.5-6.5h72.5c4.5,0,6.5,2,6.5,6.5v17.2c0,4.5-2,6.5-6.5,6.5H1519v44.9h17.6c4.5,0,6.5,2,6.5,6.5v16.9
			c0,4.5-2,6.5-6.5,6.5h-72.5C1459.6,410.2,1457.6,408.2,1457.6,403.7z"/>
		<path fill="#ECDFC1" d="M1462.9,533.4c-4.5,0-6.5-2-6.5-6.5v-92.1c0-4.5,2-6.5,6.5-6.5h14.8c4.1,0,6.7,1.1,9.5,4.4l23,28.4v-26.3
			c0-4.5,2-6.5,6.5-6.5h21.3c4.5,0,6.5,2,6.5,6.5v92.1c0,4.5-2,6.5-6.5,6.5h-21.3c-4.5,0-6.5-2-6.5-6.5v-17l-19.5-25.6v42.6
			c0,4.5-2,6.5-6.5,6.5H1462.9z"/>
		<path fill="#ECDFC1" d="M1484.5,552.3c0-4.5,1.8-6.5,6.5-6.5h19c4.5,0,6.5,2,6.5,6.5v38.1c0,4.5-1.8,6.5-6.5,6.5h-19
			c-4.7,0-6.5-2-6.5-6.5V552.3z"/>
		<path fill="#ECDFC1" d="M1545,686.8c0,17.9-8.1,30.4-44.6,30.4c-36.5,0-44.6-12.5-44.6-30.4v-48.4c0-17.9,8.1-30.5,44.6-30.5
			c36.5,0,44.6,12.6,44.6,30.5V686.8z M1490.9,681.7c0,3.3,2.1,5.3,9.5,5.3c7.5,0,9.7-1.8,9.7-5.3v-38.2c0-3.3-2.3-5.1-9.7-5.1
			c-7.4,0-9.5,1.8-9.5,5.1V681.7z"/>
		<path fill="#ECDFC1" d="M1456.3,831.3v-92.1c0-4.5,2-6.5,6.5-6.5h47.2c27.1,0,34.9,11.9,34.9,29.1V780c0,17.2-7.8,29.1-34.9,29.1
			h-18.6v22.2c0,4.5-2,6.5-6.5,6.5h-22C1458.3,837.8,1456.3,835.8,1456.3,831.3z M1491.1,762.1v18.6h15.1c4.4,0,5.3-2.7,5.3-5.5
			v-7.5c0-2.8-0.9-5.5-5.3-5.5H1491.1z"/>
		<path fill="#ECDFC1" d="M1513.7,956.7h-50.9c-4.5,0-6.5-2-6.5-6.5v-16.6c0-4.5,2-6.5,6.5-6.5h44.2c1.6,0,2.3-1.3,2.3-2.7
			c0-2.1-0.7-3.3-2.4-3.4l-27.3-3c-14.2-2.1-23.3-8.2-23.3-25V878c0-17,11.4-26.4,30.8-26.4h47.2c4.5,0,6.5,2,6.5,6.5v16.9
			c0,4.5-2,6.5-6.5,6.5h-40.5c-1.6,0-2.4,1.3-2.4,2.8c0,1.7,0.9,3,2.6,3.1l27.1,2.8c14.2,2.1,23.4,8.2,23.4,25v14.9
			C1544.6,947.4,1533.1,956.7,1513.7,956.7z"/>
		<path fill="#FFFFFF" d="M1492,162.2c-26.8,0-34.9-11.8-34.9-29V89c0-17.3,8.1-29.1,34.9-29.1h44.5c3.6,0,5.1,1.6,5.1,5.1v17.2
			c0,3.6-1.6,5.1-5.1,5.1h-38.4c-7.4,0-8.7,3.4-8.7,7.1v33.8c0,4,1.3,6.8,8.7,6.8h38.4c3.6,0,5.1,1.6,5.1,5.1v16.9
			c0,3.6-1.6,5.1-5.1,5.1H1492z"/>
		<path fill="#FFFFFF" d="M1500.3,287c-34.8,0-43.2-11.6-43.2-29v-48.4c0-17.3,8.4-29.1,43.2-29.1c34.8,0,43.2,11.8,43.2,29.1v48.4
			C1543.5,275.4,1535.1,287,1500.3,287z M1500.3,259.6c9.5,0,11.1-2.8,11.1-6.7v-38.2c0-3.7-1.6-6.5-11.1-6.5
			c-9.4,0-10.9,2.8-10.9,6.5V253C1489.3,256.8,1490.9,259.6,1500.3,259.6z"/>
		<path fill="#FFFFFF" d="M1458.9,403.7v-16.9c0-3.6,1.6-5.1,5.1-5.1h19v-47.7h-19c-3.6,0-5.1-1.6-5.1-5.1v-17.2
			c0-3.6,1.6-5.1,5.1-5.1h72.5c3.6,0,5.1,1.6,5.1,5.1v17.2c0,3.6-1.6,5.1-5.1,5.1h-19v47.7h19c3.6,0,5.1,1.6,5.1,5.1v16.9
			c0,3.6-1.6,5.1-5.1,5.1h-72.5C1460.5,408.8,1458.9,407.2,1458.9,403.7z"/>
		<path fill="#FFFFFF" d="M1462.8,532c-3.6,0-5.1-1.6-5.1-5.1v-92.1c0-3.6,1.6-5.1,5.1-5.1h14.8c3.7,0,6,1,8.4,3.8l25.6,31.5v-30.3
			c0-3.6,1.6-5.1,5.1-5.1h21.3c3.6,0,5.1,1.6,5.1,5.1v92.1c0,3.6-1.6,5.1-5.1,5.1h-21.3c-3.6,0-5.1-1.6-5.1-5.1v-17.5l-22.3-29.4
			v46.9c0,3.6-1.6,5.1-5.1,5.1H1462.8z"/>
		<path fill="#FFFFFF" d="M1490.9,547.2h19c3.6,0,5.1,1.6,5.1,5.1v38.1c0,3.6-1.4,5.1-5.1,5.1h-19c-3.7,0-5.1-1.6-5.1-5.1v-38.1
			C1485.8,548.7,1487.2,547.2,1490.9,547.2z"/>
		<path fill="#FFFFFF" d="M1500.3,715.8c-34.8,0-43.2-11.6-43.2-29v-48.4c0-17.3,8.4-29.1,43.2-29.1c34.8,0,43.2,11.8,43.2,29.1
			v48.4C1543.5,704.2,1535.1,715.8,1500.3,715.8z M1500.3,688.4c9.5,0,11.1-2.8,11.1-6.7v-38.2c0-3.7-1.6-6.5-11.1-6.5
			c-9.4,0-10.9,2.8-10.9,6.5v38.2C1489.3,685.5,1490.9,688.4,1500.3,688.4z"/>
		<path fill="#FFFFFF" d="M1462.8,836.4c-3.6,0-5.1-1.6-5.1-5.1v-92.1c0-3.6,1.6-5.1,5.1-5.1h47.2c25.9,0,33.5,11.2,33.5,27.7V780
			c0,16.5-7.7,27.7-33.5,27.7h-20v23.6c0,3.6-1.6,5.1-5.1,5.1H1462.8z M1489.6,782.1h16.5c5.5,0,6.7-3.3,6.7-7v-7.5
			c0-3.7-1.1-7-6.7-7h-16.5V782.1z"/>
		<path fill="#FFFFFF" d="M1462.8,955.3c-3.6,0-5.1-1.6-5.1-5.1v-16.6c0-3.6,1.6-5.1,5.1-5.1h44.2c2.4,0,3.7-1.8,3.7-4.1
			c0-3.3-1.3-4.5-3.7-4.8l-27.3-3c-13.4-2-22-7.7-22-23.6V878c0-16.2,10.9-25,29.4-25h47.2c3.6,0,5.1,1.6,5.1,5.1v16.9
			c0,3.6-1.6,5.1-5.1,5.1h-40.5c-2.4,0-3.8,1.7-3.8,4.3c0,2.6,1.4,4.3,3.8,4.5l27.1,2.8c13.4,2,22.2,7.7,22.2,23.6v14.9
			c0,16.2-11.1,25-29.4,25H1462.8z"/>
		<path fill="#ECDFC1" d="M1528.7,149.4h-33.5c-18.5,0-22.7-5.1-22.7-18.3V91.3c0-13.5,4.5-18.6,22.7-18.6h33.5v1.4h-33.5
			c-16.8,0-21.3,4.5-21.3,17.2v39.8c0,12.4,4.3,16.9,21.3,16.9h33.5V149.4z"/>
		<path fill="#ECDFC1" d="M1500.1,274c-21.6,0-27.6-7.7-27.6-19.2v-41.9c0-11.5,6-19.2,27.6-19.2s28,7.7,28,19.2v41.9
			C1528,266.3,1521.6,274,1500.1,274z M1500.1,272.6c20.5,0,26.6-7.1,26.6-17.8v-41.9c0-10.7-6.1-17.8-26.6-17.8
			c-20.5,0-26.1,7.1-26.1,17.8v41.9C1473.9,265.5,1479.6,272.6,1500.1,272.6z"/>
		<path fill="#ECDFC1" d="M1471.6,396v-1.4h27.8v-73.9h-27.8v-1.4h57.1v1.4h-27.8v73.9h27.8v1.4H1471.6z"/>
		<path fill="#ECDFC1" d="M1476.5,443.6l50,58.8v-59.9h1.4v76.7h-1.4v-14.6l-51.4-60.2c-0.3-0.3-0.4-0.4-0.7-0.4s-0.3,0.3-0.3,0.4
			v74.9h-1.4V444c0-1.1,0.9-1.7,1.7-1.7S1475.5,442.6,1476.5,443.6z"/>
		<path fill="#ECDFC1" d="M1499.6,582.7V560h1.4v22.7H1499.6z"/>
		<path fill="#ECDFC1" d="M1500.1,702.7c-21.6,0-27.6-7.7-27.6-19.2v-41.9c0-11.5,6-19.2,27.6-19.2s28,7.7,28,19.2v41.9
			C1528,695.1,1521.6,702.7,1500.1,702.7z M1500.1,701.3c20.5,0,26.6-7.1,26.6-17.8v-41.9c0-10.7-6.1-17.8-26.6-17.8
			c-20.5,0-26.1,7.1-26.1,17.8v41.9C1473.9,694.2,1479.6,701.3,1500.1,701.3z"/>
		<path fill="#ECDFC1" d="M1474.5,795.6v28h-1.4v-76.7h34.4c17.9,0,21.3,8.2,21.3,19.3v10.5c0,11.1-3.4,18.9-21.3,18.9H1474.5z
			 M1507.4,794.2c16.8,0,19.9-7.2,19.9-17.5v-10.5c0-10.2-3.1-17.9-19.9-17.9h-33v45.9H1507.4z"/>
		<path fill="#ECDFC1" d="M1526.5,867.2h-38.9c-8.1,0-13.1,4.4-13.1,11.5v13.1c0,5.7,3.8,9.5,10.1,10.1l30.3,3
			c8.5,0.9,12.6,5.3,12.6,12.9v11.8c0,8-6.1,12.9-15.8,12.9h-41.3v-1.4h41.3c8.8,0,14.3-4.4,14.3-11.5v-11.8
			c0-6.8-3.7-10.8-11.5-11.5l-30.3-3c-7-0.7-11.2-5.1-11.2-11.5v-13.1c0-8,5.5-12.9,14.5-12.9h38.9V867.2z"/>
	</g>
</g>
<g>
</g>
<g>
</g>
<g>
</g>
<g>
</g>
<g>
</g>
<g>
</g>
</svg>
