<?xml version="1.0" encoding="utf-8"?>
<!-- Generator: Adobe Illustrator 17.1.0, SVG Export Plug-In . SVG Version: 6.00 Build 0)  -->
<!DOCTYPE svg PUBLIC "-//W3C//DTD SVG 1.1//EN" "http://www.w3.org/Graphics/SVG/1.1/DTD/svg11.dtd">
<svg version="1.1" id="Layer_1" xmlns="http://www.w3.org/2000/svg" xmlns:xlink="http://www.w3.org/1999/xlink" x="0px" y="0px"
	 viewBox="0 0 1690.1 1021.1" enable-background="new 0 0 1690.1 1021.1" xml:space="preserve">
<g>
	<path fill="#432D2C" d="M878.8,399.2l-15.5-38.7c-4-9.8-5.2-12.8-5.2-23.1v-41.7c0-2.8,0.8-4.6,2.2-5.9l20.4-17.2
		c1.1-0.9,2.8-1.4,5.1-1.4h25.1c5.1,0,7.7,2.4,7.7,7.3V322c0,2.1,0.5,3.8,1.1,6l0.5,1.1v-33.5c0-2.8,0.8-4.6,2.2-5.9l20.4-17.2
		c1.1-0.9,2.8-1.4,5.1-1.4h24.8c5.2,0,7.3,2.2,7.3,7.3v41.7c0,10.3-1.3,13.3-5.2,23.1L959.3,382c-0.6,1.9-1.7,3.3-2.8,4.3L936,403.2
		c-1.7,1.6-3.8,2.2-6.6,2.2h-41.1C883.4,405.4,880.7,403.8,878.8,399.2z"/>
	<path fill="#432D2C" d="M1002.4,405.4h-23.2c-5.1,0-7.3-2.2-7.3-7.3v-41.7c0-6.5,1.9-14.5,6.3-25.9l13.6-35.7
		c0.6-1.9,1.6-3.2,2.7-4.3l0.2-0.2l20.2-16.9c1.7-1.6,4-2.2,7-2.2h42.5c4.9,0,7.9,1.9,9.3,6.2l13.8,35.9c4.4,11.4,6.3,19.4,6.3,25.9
		v41.7c0,2.8-0.8,4.6-2.2,5.9l-20.6,17.1c-0.9,0.9-2.7,1.6-4.9,1.6h-23.9c-5.4,0-7.7-2.4-7.7-7.3v-20.6h-4.4v3.3
		c0,2.8-0.8,4.6-2.2,5.9l-20.6,17.1C1006.4,404.7,1004.6,405.4,1002.4,405.4z"/>
	<path fill="#432D2C" d="M1128.4,405.4c-27.8,0-40.5-15.7-40.5-38.6v-44.4c0-11.7,3.3-20.1,10-25.8l20.6-17.2
		c6.5-5.5,16.6-8.2,30.4-8.2h38.6c5.1,0,7.3,2.2,7.3,7.3v19.1c0,2.8-0.8,4.6-2.2,5.8l-20.6,17.1c-0.9,0.9-2.7,1.6-4.9,1.6h-19.4
		v26.7c0,4.4,2.8,6,8.1,6h31.8c5.1,0,7.3,2.2,7.3,7.3v18.8c0,2.8-0.8,4.6-2.2,5.9l-20.6,17.1c-0.9,0.9-2.7,1.6-4.9,1.6H1128.4z"/>
	<path fill="#432D2C" d="M1217.1,405.4h-23.2c-5.1,0-7.3-2.2-7.3-7.3v-41.7c0-6.5,1.9-14.5,6.3-25.9l13.6-35.7
		c0.6-1.9,1.6-3.2,2.7-4.3l0.2-0.2l20.2-16.9c1.7-1.6,4-2.2,7-2.2h42.5c4.9,0,7.9,1.9,9.3,6.2l13.8,35.9c4.4,11.4,6.3,19.4,6.3,25.9
		v41.7c0,2.8-0.8,4.6-2.2,5.9l-20.6,17.1c-0.9,0.9-2.7,1.6-4.9,1.6H1257c-5.4,0-7.7-2.4-7.7-7.3v-20.6h-4.4v3.3
		c0,2.8-0.8,4.6-2.2,5.9l-20.6,17.1C1221.1,404.7,1219.3,405.4,1217.1,405.4z"/>
	<path fill="#432D2C" d="M1340.3,403.8c-0.9,0.9-2.7,1.6-4.9,1.6h-23.7c-5.1,0-7.3-2.2-7.3-7.3V295.6c0-2.8,0.8-4.6,2.2-5.9
		l20.4-17.2c1.1-0.9,2.8-1.4,5.1-1.4h16.4c4.6,0,7.4,1.3,10.6,4.7l10.9,12.6l19.1-16c1.1-0.9,2.8-1.4,5.1-1.4h23.7
		c5.1,0,7.3,2.2,7.3,7.3v102.5c0,2.8-0.8,4.6-2.2,5.9l-20.6,17.1c-0.9,0.9-2.7,1.6-4.9,1.6h-23.7c-5.1,0-7.3-2.2-7.3-7.3v-18.8
		l-3.5-4.3v5.8c0,2.8-0.8,4.6-2.2,5.9L1340.3,403.8z"/>
	<path fill="#432D2C" d="M1462.2,405.4c-27.8,0-40.5-15.7-40.5-38.6v-44.4c0-11.7,3.3-20.1,10-25.8l20.6-17.2
		c6.5-5.5,16.6-8.2,30.4-8.2h38.6c5.1,0,7.3,2.2,7.3,7.3v19.1c0,2.8-0.8,4.6-2.2,5.8l-20.6,17.1c-0.9,0.9-2.7,1.6-4.9,1.6h-19.4
		v26.7c0,4.4,2.8,6,8.1,6h31.8c5.1,0,7.3,2.2,7.3,7.3v18.8c0,2.8-0.8,4.6-2.2,5.9l-20.6,17.1c-0.9,0.9-2.7,1.6-4.9,1.6H1462.2z"/>
	<path fill="#432D2C" d="M1556.4,405.4c-5.2,0-7.3-2.2-7.3-7.3v-19.8l-23.9-31.9c-5.1-6.8-6.3-10.1-6.3-20.4v-30.4
		c0-2.8,0.8-4.6,2.2-5.9l20.4-17.2c1.1-0.9,2.8-1.4,5.1-1.4h24.3c5.1,0,7.3,2.2,7.3,7.3v25.9c0,1.9,0,3.8,1.1,5.8l1.9,2.7v-17.2
		c0-2.8,0.8-4.6,2.2-5.9l20.4-17.2c1.1-0.9,2.8-1.4,5.1-1.4h23.6c5.1,0,7.3,2.2,7.3,7.3v30.4c0,10.3-1.3,13.6-6.3,20.4l-23.7,32.1
		v19.6c0,2.8-0.8,4.6-2.2,5.9l-20.6,17.1c-0.9,0.9-2.7,1.6-4.9,1.6H1556.4z"/>
	<path fill="#FFFFFF" d="M899.5,286.9v34.2c0,5.5,0.8,10.4,2.5,14.7l10.4,25.3c2.2,5.5,4,9.6,10,9.6h13.9c6,0,7.7-4.1,10-9.6
		l10.4-25.3c1.7-4.3,2.5-9.2,2.5-14.7v-34.2h1.6v34.2c0,5.8-0.6,10.8-2.5,15.3l-10.4,25.3c-2.5,6.2-4.9,10.6-11.5,10.6h-13.9
		c-6.6,0-9-4.4-11.5-10.6l-10.4-25.3c-1.9-4.6-2.5-9.5-2.5-15.3v-34.2H899.5z"/>
	<path fill="#FFFFFF" d="M1073.9,345.1h-61.7v27.2h-1.6v-33.7c0-5.8,0.9-10.8,2.7-15.3l10.1-25.9c2.4-5.9,4.3-10.4,11.5-10.4h15.5
		c7,0,8.9,4.4,11.4,10.6l10.9,25.8c1.7,4.6,2.7,9.5,2.7,15.3v33.7h-1.6V345.1z M1012.2,343.6h61.7v-4.9c0-5.7-0.9-10.4-2.5-14.7
		l-10.9-25.8c-2.4-5.5-4.1-9.6-10-9.6H1035c-6.3,0-8.1,4.1-10.1,9.5l-10.1,25.9c-1.6,4.3-2.5,9-2.5,14.7V343.6z"/>
	<path fill="#FFFFFF" d="M1178.7,372.3h-26.4c-20.6,0-25.3-5.7-25.3-20.4v-44.3c0-15,5.1-20.7,25.3-20.7h26.4v1.6h-26.4
		c-18.7,0-23.7,5.1-23.7,19.1v44.3c0,13.8,4.7,18.8,23.7,18.8h26.4V372.3z"/>
	<path fill="#FFFFFF" d="M1288.6,345.1h-61.7v27.2h-1.6v-33.7c0-5.8,0.9-10.8,2.7-15.3l10.1-25.9c2.4-5.9,4.3-10.4,11.5-10.4h15.5
		c7,0,8.9,4.4,11.4,10.6l10.9,25.8c1.7,4.6,2.7,9.5,2.7,15.3v33.7h-1.6V345.1z M1226.9,343.6h61.7v-4.9c0-5.7-0.9-10.4-2.5-14.7
		l-10.9-25.8c-2.4-5.5-4.1-9.6-10-9.6h-15.5c-6.3,0-8.1,4.1-10.1,9.5l-10.1,25.9c-1.6,4.3-2.5,9-2.5,14.7V343.6z"/>
	<path fill="#FFFFFF" d="M1405.4,353.7v-66.7h1.6v85.4h-1.6V356l-59.8-67c-0.3-0.3-0.5-0.5-0.8-0.5c-0.3,0-0.3,0.3-0.3,0.5v83.3
		h-1.6v-83.6c0-1.3,0.9-1.9,1.9-1.9c0.9,0,1.3,0.3,2.4,1.4L1405.4,353.7z"/>
	<path fill="#FFFFFF" d="M1512.5,372.3h-26.4c-20.6,0-25.3-5.7-25.3-20.4v-44.3c0-15,5.1-20.7,25.3-20.7h26.4v1.6h-26.4
		c-18.7,0-23.7,5.1-23.7,19.1v44.3c0,13.8,4.7,18.8,23.7,18.8h26.4V372.3z"/>
	<path fill="#FFFFFF" d="M1590.4,345.3v27h-1.6v-27h-1.6c-4.6,0-8.1-1.9-11.5-6.6l-15.3-21.3c-2.4-3.2-2.4-7.6-2.4-12.2v-18.2h1.6
		v18.2c0,4.4,0.2,8.4,2.2,11.5l15.3,21.3c2.8,4.3,6.5,5.7,10.1,5.7h4.3c4,0,7.1-1.6,10.3-5.7l15.8-21.3c2.2-2.8,2.2-7.1,2.2-11.5
		v-18.2h1.6v18.2c0,4.6,0.2,8.9-2.4,12.2l-15.8,21.3c-3.5,4.6-6.8,6.6-11.7,6.6H1590.4z"/>
</g>
<g>
	<path fill="#27839E" d="M122,605c2.2,0,2.4,1,3.1,3.1l16.5,41.7c0.6,1.6,0.6,3.4,0,5l-16.5,41.5c-0.8,2.1-1,3.1-3.1,3.1H33.9
		c-2.2,0-3.8-1.4-3-3.5l17.3-43.7l-17.3-43.7c-0.9-2.1,0.8-3.5,3-3.5H122z"/>
	<path fill="#27839E" d="M234,605c2.2,0,2.4,1,3.1,3.1l16.5,41.7c0.6,1.6,0.6,3.4,0,5l-16.5,41.5c-0.8,2.1-1,3.1-3.1,3.1h-88.1
		c-2.2,0-3.8-1.4-3-3.5l17.3-43.7l-17.3-43.7c-0.9-2.1,0.8-3.5,3-3.5H234z"/>
	<path fill="#27839E" d="M345.9,605c2.2,0,2.4,1,3.1,3.1l16.5,41.7c0.6,1.6,0.6,3.4,0,5l-16.5,41.5c-0.8,2.1-1,3.1-3.1,3.1h-88.1
		c-2.2,0-3.8-1.4-3-3.5l17.3-43.7l-17.3-43.7c-0.9-2.1,0.8-3.5,3-3.5H345.9z"/>
	<path fill="#27839E" d="M457.8,605c2.2,0,2.4,1,3.1,3.1l16.5,41.7c0.6,1.6,0.6,3.4,0,5L461,696.3c-0.8,2.1-1,3.1-3.1,3.1h-88.1
		c-2.2,0-3.8-1.4-3-3.5l17.3-43.7l-17.3-43.7c-0.9-2.1,0.8-3.5,3-3.5H457.8z"/>
	<path fill="#27839E" d="M569.8,605c2.2,0,2.4,1,3.1,3.1l16.5,41.7c0.6,1.6,0.6,3.4,0,5l-16.5,41.5c-0.8,2.1-1,3.1-3.1,3.1h-88.1
		c-2.2,0-3.8-1.4-3-3.5l17.3-43.7l-17.3-43.7c-0.9-2.1,0.8-3.5,3-3.5H569.8z"/>
	<path fill="#27839E" d="M681.7,605c2.2,0,2.4,1,3.1,3.1l16.5,41.7c0.6,1.6,0.6,3.4,0,5l-16.5,41.5c-0.8,2.1-1,3.1-3.1,3.1h-88.1
		c-2.2,0-3.8-1.4-3-3.5l17.3-43.7l-17.3-43.7c-0.9-2.1,0.8-3.5,3-3.5H681.7z"/>
	<path fill="#27839E" d="M763.4,699.4h-57.8c-2.2,0-3.8-1.4-3-3.5l17.3-43.7l-17.3-43.7c-0.9-2.1,0.8-3.5,3-3.5h57.8v-12.3
		c0-3.5,3.8-4.7,7-0.9l45.1,55.1c3.2,4,3.2,6.5,0,10.5l-45.1,55.1c-2.6,3.1-7,1.8-7-0.9V699.4z"/>
	<path fill="#92CAD3" d="M60.9,680.7V624c0-2.8,1.2-4,4-4h45.3c2.8,0,4,1.2,4,4v10.2c0,2.8-1.2,4-4,4h-28v5h20.9c2.8,0,4,1.1,4,4
		v9.4c0,2.8-1.2,4-4,4H82.2v5.8h28c2.8,0,4,1.2,4,4v10.2c0,2.8-1.2,4-4,4H64.9C62.1,684.7,60.9,683.5,60.9,680.7z"/>
	<path fill="#92CAD3" d="M175.9,684.7c-2.8,0-4-1.2-4-4v-9.4c0-5.7,1.1-7.3,3.5-11.3l5.4-9l-5.4-9c-2.4-3.9-3.5-5.6-3.5-11.3V624
		c0-2.8,1.2-4,4-4h13.5c2.8,0,4,1.2,4,4v6c0,1,0.1,2.2,0.7,3.2l3.1,5.5c0.3,0.6,0.7,1,1.3,1h1c0.6,0,1-0.4,1.3-1l3.1-5.5
		c0.6-1,0.7-2.2,0.7-3.2v-6c0-2.8,1.2-4,4-4h13.3c2.8,0,4,1.2,4,4v6.7c0,5.7-1.1,7.3-3.5,11.3l-5.4,9.1l5.4,8.9
		c2.4,3.9,3.5,5.6,3.5,11.3v9.4c0,2.8-1.2,4-4,4h-13.3c-2.8,0-4-1.2-4-4V672c0-1-0.1-2.1-0.7-3.2l-3.1-5.5c-0.3-0.7-0.7-1-1.3-1
		h-1.2c-0.6,0-1,0.3-1.3,1l-3.2,5.5c-0.6,1-0.7,2.2-0.7,3.2v8.7c0,2.8-1.2,4-4,4H175.9z"/>
	<path fill="#92CAD3" d="M282.9,680.7V624c0-2.8,1.2-4,4-4h29c16.7,0,21.5,7.3,21.5,17.9v11.2c0,10.6-4.8,17.9-21.5,17.9h-11.5v13.6
		c0,2.8-1.2,4-4,4H287C284.2,684.7,282.9,683.5,282.9,680.7z M304.4,638.1v11.5h9.3c2.7,0,3.2-1.7,3.2-3.4v-4.6
		c0-1.7-0.5-3.4-3.2-3.4H304.4z"/>
	<path fill="#92CAD3" d="M398,684.7c-2.8,0-4-1.2-4-4V624c0-2.8,1.2-4,4-4h28.2c13.9,0,18.1,6.4,18.1,15.5v4c0,4.4-1,7.7-3.5,9.6
		c4.7,1.6,8.3,6.2,8.3,13v18.5c0,2.8-1.2,4-4,4h-13.6c-2.8,0-4-1.2-4-4v-13.4c0-1.9-0.6-2.9-2.4-2.9h-9.5v16.3c0,2.8-1.2,4-4,4H398z
		 M415.5,637.5v9.4h4.7c2.4,0,3-1.4,3-3.2v-3c0-1.8-0.5-3.2-3-3.2H415.5z"/>
	<path fill="#92CAD3" d="M505.2,680.7V624c0-2.8,1.2-4,4-4h45.3c2.8,0,4,1.2,4,4v10.2c0,2.8-1.2,4-4,4h-28v5h20.9c2.8,0,4,1.1,4,4
		v9.4c0,2.8-1.2,4-4,4h-20.9v5.8h28c2.8,0,4,1.2,4,4v10.2c0,2.8-1.2,4-4,4h-45.3C506.4,684.7,505.2,683.5,505.2,680.7z"/>
	<path fill="#92CAD3" d="M651.5,684.7h-31.3c-2.8,0-4-1.2-4-4v-10.2c0-2.8,1.2-4,4-4h27.2c1,0,1.4-0.8,1.4-1.7c0-1.3-0.4-2-1.5-2.1
		l-16.8-1.8c-8.7-1.3-14.3-5.1-14.3-15.4v-9.2c0-10.5,7-16.3,19-16.3h29c2.8,0,4,1.2,4,4v10.4c0,2.8-1.2,4-4,4h-24.9
		c-1,0-1.5,0.8-1.5,1.7c0,1,0.5,1.8,1.6,1.9l16.7,1.7c8.7,1.3,14.4,5.1,14.4,15.4v9.2C670.4,678.9,663.4,684.7,651.5,684.7z"/>
	<path fill="#92CAD3" d="M762.5,684.7h-31.3c-2.8,0-4-1.2-4-4v-10.2c0-2.8,1.2-4,4-4h27.2c1,0,1.4-0.8,1.4-1.7c0-1.3-0.4-2-1.5-2.1
		l-16.8-1.8c-8.7-1.3-14.3-5.1-14.3-15.4v-9.2c0-10.5,7-16.3,19-16.3h29c2.8,0,4,1.2,4,4v10.4c0,2.8-1.2,4-4,4h-24.9
		c-1,0-1.5,0.8-1.5,1.7c0,1,0.5,1.8,1.6,1.9l16.7,1.7c8.7,1.3,14.4,5.1,14.4,15.4v9.2C781.5,678.9,774.4,684.7,762.5,684.7z"/>
	<path fill="#144A56" d="M64.9,683.9c-2.2,0-3.1-1-3.1-3.1v-56.7c0-2.2,1-3.1,3.1-3.1h45.3c2.2,0,3.1,1,3.1,3.1v10.2
		c0,2.2-1,3.1-3.1,3.1H81.4v6.7h21.8c2.2,0,3.1,0.9,3.1,3.1v9.4c0,2.2-1,3.1-3.1,3.1H81.4v7.5h28.9c2.2,0,3.1,1,3.1,3.1v10.2
		c0,2.2-1,3.1-3.1,3.1H64.9z"/>
	<path fill="#144A56" d="M189.2,683.9h-13.3c-2.2,0-3.1-1-3.1-3.1v-9.4c0-5.4,1-7,3.3-10.8l5.8-9.5l-5.8-9.5
		c-2.3-3.8-3.3-5.3-3.3-10.8v-6.7c0-2.2,1-3.1,3.1-3.1h13.5c2.2,0,3.1,1,3.1,3.1v6c0,1.2,0.1,2.5,0.8,3.7l3.1,5.5
		c0.5,1,1.1,1.5,2.1,1.5h1c1,0,1.5-0.4,2.1-1.5l3.1-5.5c0.7-1.2,0.8-2.4,0.8-3.7v-6c0-2.2,1-3.1,3.1-3.1h13.3c2.2,0,3.1,1,3.1,3.1
		v6.7c0,5.4-1,7-3.3,10.8l-5.8,9.6l5.8,9.4c2.3,3.8,3.3,5.3,3.3,10.8v9.4c0,2.2-1,3.1-3.1,3.1h-13.3c-2.2,0-3.1-1-3.1-3.1v-8.7
		c0-1.2-0.1-2.4-0.8-3.7l-3.1-5.5c-0.6-1.1-1.1-1.5-2.1-1.5h-1.2c-1,0-1.5,0.4-2.1,1.5l-3.2,5.5c-0.7,1.2-0.8,2.4-0.8,3.7v8.7
		C192.3,682.9,191.4,683.9,189.2,683.9z"/>
	<path fill="#144A56" d="M287,683.9c-2.2,0-3.1-1-3.1-3.1v-56.7c0-2.2,1-3.1,3.1-3.1h29c15.9,0,20.6,6.9,20.6,17.1v11.2
		c0,10.1-4.7,17.1-20.6,17.1h-12.3v14.5c0,2.2-1,3.1-3.1,3.1H287z M303.5,650.5h10.1c3.4,0,4.1-2,4.1-4.3v-4.6
		c0-2.3-0.7-4.3-4.1-4.3h-10.1V650.5z"/>
	<path fill="#144A56" d="M398,683.9c-2.2,0-3.1-1-3.1-3.1v-56.7c0-2.2,1-3.1,3.1-3.1h28.2c13.1,0,17.2,5.9,17.2,14.6v4
		c0,4.9-1.2,8.4-4.9,10c5.3,0.7,9.7,5.3,9.7,12.7v18.5c0,2.2-1,3.1-3.1,3.1h-13.6c-2.2,0-3.1-1-3.1-3.1v-13.4c0-2.6-0.9-3.8-3.3-3.8
		h-10.4v17.1c0,2.2-1,3.1-3.1,3.1H398z M414.6,647.9h5.6c3.1,0,3.8-1.7,3.8-4.1v-3c0-2.4-0.8-4.1-3.8-4.1h-5.6V647.9z"/>
	<path fill="#144A56" d="M509.2,683.9c-2.2,0-3.1-1-3.1-3.1v-56.7c0-2.2,1-3.1,3.1-3.1h45.3c2.2,0,3.1,1,3.1,3.1v10.2
		c0,2.2-1,3.1-3.1,3.1h-28.9v6.7h21.8c2.2,0,3.1,0.9,3.1,3.1v9.4c0,2.2-1,3.1-3.1,3.1h-21.8v7.5h28.9c2.2,0,3.1,1,3.1,3.1v10.2
		c0,2.2-1,3.1-3.1,3.1H509.2z"/>
	<path fill="#144A56" d="M620.2,683.9c-2.2,0-3.1-1-3.1-3.1v-10.2c0-2.2,1-3.1,3.1-3.1h27.2c1.5,0,2.3-1.1,2.3-2.5
		c0-2-0.8-2.8-2.3-3l-16.8-1.8c-8.2-1.2-13.6-4.7-13.6-14.5v-9.2c0-10,6.7-15.4,18.1-15.4h29c2.2,0,3.1,1,3.1,3.1v10.4
		c0,2.2-1,3.1-3.1,3.1h-24.9c-1.5,0-2.4,1-2.4,2.6c0,1.6,0.9,2.6,2.4,2.8l16.7,1.7c8.2,1.2,13.6,4.7,13.6,14.5v9.2
		c0,10-6.8,15.4-18.1,15.4H620.2z"/>
	<path fill="#144A56" d="M731.2,683.9c-2.2,0-3.1-1-3.1-3.1v-10.2c0-2.2,1-3.1,3.1-3.1h27.2c1.5,0,2.3-1.1,2.3-2.5
		c0-2-0.8-2.8-2.3-3l-16.8-1.8c-8.2-1.2-13.6-4.7-13.6-14.5v-9.2c0-10,6.7-15.4,18.1-15.4h29c2.2,0,3.1,1,3.1,3.1v10.4
		c0,2.2-1,3.1-3.1,3.1h-24.9c-1.5,0-2.4,1-2.4,2.6c0,1.6,0.9,2.6,2.4,2.8l16.7,1.7c8.2,1.2,13.6,4.7,13.6,14.5v9.2
		c0,10-6.8,15.4-18.1,15.4H731.2z"/>
</g>
<g>
	<path fill="#F2F1F0" d="M23.6,861.7c-4.3,0-6.2-1.9-6.2-6.2v-17.9c0-3.9,1.1-6.4,3.6-9.1l30.8-37.3H26c-4.3,0-6.2-1.9-6.2-6.2
		v-16.2c0-2.4,0.7-3.9,1.9-5L39,749.3c0.9-0.8,2.4-1.2,4.3-1.2h61.6c4.3,0,6.2,1.9,6.2,6.2v19.9c0,4-1.1,6.6-3.6,9.2l-29.3,35.5
		h29.2c4.3,0,6.2,1.9,6.2,6.2V841c0,2.4-0.7,3.9-1.9,5l-17.4,14.5c-0.8,0.8-2.3,1.3-4.1,1.3H23.6z"/>
	<path fill="#F2F1F0" d="M138.2,860.4c-0.8,0.8-2.3,1.3-4.1,1.3h-19.7c-4.3,0-6.2-1.9-6.2-6.2v-66.3c0-8.4,1.9-15.5,7.9-20.6
		l17.4-14.5c6-5.1,16.3-8.2,33.9-8.2c34.9,0,42.2,11.9,42.2,28.6V841c0,2.4-0.7,3.9-1.9,5l-17.4,14.5c-0.8,0.8-2.3,1.3-4.1,1.3
		h-20.3c-4.3,0-6.2-1.9-6.2-6.2V837h-2.1v4c0,2.4-0.7,3.9-1.9,5L138.2,860.4z M157.5,790v5.2h2.1v-1.3
		C159.6,792.3,159.1,790.9,157.5,790z"/>
	<path fill="#F2F1F0" d="M213.5,861.7c-4.3,0-6.2-1.9-6.2-6.2v-86.7c0-2.4,0.7-3.9,1.9-5l17.3-14.6c0.9-0.8,2.4-1.2,4.3-1.2h41
		c25.6,0,32.9,11.2,32.9,27.4v17.1c0,8.6-2.1,15.8-8,20.7l-17.4,14.5c-4.4,3.7-11.4,6.3-21.6,6.7v6.4c0,2.4-0.7,3.9-1.9,5
		l-17.4,14.5c-0.8,0.8-2.3,1.3-4.1,1.3H213.5z"/>
	<path fill="#F2F1F0" d="M328,860.4c-0.8,0.8-2.3,1.3-4.1,1.3h-19.7c-4.3,0-6.2-1.9-6.2-6.2v-66.3c0-8.4,1.9-15.5,7.9-20.6
		l17.4-14.5c6-5.1,16.3-8.2,33.9-8.2c34.9,0,42.2,11.9,42.2,28.6V841c0,2.4-0.7,3.9-1.9,5l-17.4,14.5c-0.8,0.8-2.3,1.3-4.1,1.3
		h-20.3c-4.3,0-6.2-1.9-6.2-6.2V837h-2.1v4c0,2.4-0.7,3.9-1.9,5L328,860.4z M347.3,790v5.2h2.1v-1.3
		C349.4,792.3,348.9,790.9,347.3,790z"/>
	<path fill="#F2F1F0" d="M421,861.7c-4.3,0-6.2-1.9-6.2-6.2v-64.4h-18.3c-4.3,0-6.2-1.9-6.2-6.2v-16.2c0-2.4,0.7-3.9,1.9-5
		l17.3-14.6c0.9-0.8,2.4-1.2,4.3-1.2h70.7c4.3,0,6.2,1.9,6.2,6.2v16.2c0,2.4-0.7,3.9-1.9,5l-17.4,14.5c-0.8,0.8-2.3,1.3-4.1,1.3
		h-1.1V841c0,2.4-0.7,3.9-1.9,5l-17.4,14.5c-0.8,0.8-2.3,1.3-4.1,1.3H421z"/>
	<path fill="#F2F1F0" d="M515.8,861.7c-26.5,0-34.3-15.8-34.3-32.7v-37.6c0-9.1,2.3-16.7,8.4-21.8l17.3-14.6c5.2-4.4,13.5-7,25.8-7
		h34c4.3,0,6.2,1.9,6.2,6.2v15.7c0,2.4-0.7,3.9-1.9,5l-11.4,9.5c1.7,0.8,2.5,2.5,2.5,5.5v14.3c0,2.4-0.7,3.9-1.9,5l-11.9,10h18.3
		c4.3,0,6.2,1.9,6.2,6.2V841c0,2.4-0.7,3.9-1.9,5L554,860.4c-0.8,0.8-2.3,1.3-4.1,1.3H515.8z"/>
	<path fill="#F2F1F0" d="M600,860.4c-0.8,0.8-2.3,1.3-4.2,1.3h-20.6c-4.3,0-6.2-1.9-6.2-6.2v-86.7c0-2.4,0.7-3.9,1.9-5l17.3-14.6
		c0.9-0.8,2.4-1.2,4.3-1.2h44.6c21.3,0,27.7,9.8,27.7,23.7v6.2c0,6.6-1.5,11.5-5.1,14.6h-0.1c8.4,2.4,13.9,9.5,13.9,20.1V841
		c0,2.4-0.7,3.9-1.9,5l-17.4,14.5c-0.8,0.8-2.3,1.3-4.1,1.3h-20.7c-4.3,0-6.2-1.9-6.2-6.2v-20.5c0-2.9-0.9-4.4-3.7-4.4h-0.1V841
		c0,2.4-0.7,3.9-1.9,5L600,860.4z"/>
	<path fill="#F2F1F0" d="M674.9,861.7c-4.3,0-6.2-1.9-6.2-6.2v-86.7c0-2.4,0.7-3.9,1.9-5l5.4-4.6l-11.6,1.6c-4,0.5-6-1.6-6-5.8
		v-12.9c0-2.4,0.7-3.7,1.7-4.7l17.3-14.6c0.8-0.7,2.3-1.2,4.1-1.5l42.8-5.8c4-0.5,6,1.6,6,5.8v12.9c0,2.3-0.7,3.9-1.9,4.7l-11.4,9.6
		c1.7,0.9,2.5,2.7,2.5,5.5V841c0,2.4-0.7,3.9-1.9,5l-17.4,14.5c-0.8,0.8-2.3,1.3-4.1,1.3H674.9z"/>
	<path fill="#F2F1F0" d="M747.5,860.4c-0.8,0.8-2.3,1.3-4.2,1.3h-19.7c-4.3,0-6.2-1.9-6.2-6.2v-66.3c0-8.4,1.9-15.5,7.9-20.6
		l17.4-14.5c6-5.1,16.3-8.2,33.9-8.2c34.9,0,42.2,11.9,42.2,28.6V841c0,2.4-0.7,3.9-1.9,5l-17.4,14.5c-0.8,0.8-2.3,1.3-4.1,1.3
		h-20.3c-4.3,0-6.2-1.9-6.2-6.2V837h-2.1v4c0,2.4-0.7,3.9-1.9,5L747.5,860.4z M766.8,790v5.2h2.1v-1.3
		C769,792.3,768.4,790.9,766.8,790z"/>
	<path fill="#BAA885" d="M34.7,841V823c0-3.9,1.1-6.4,3.6-9.1l30.8-37.3H43.3c-4.3,0-6.2-1.9-6.2-6.2v-16.2c0-4.3,1.9-6.2,6.2-6.2
		h61.6c4.3,0,6.2,1.9,6.2,6.2v19.9c0,4-1.1,6.6-3.6,9.2l-29.3,35.5h29.2c4.3,0,6.2,1.9,6.2,6.2V841c0,4.3-1.9,6.2-6.2,6.2H40.9
		C36.6,847.1,34.7,845.3,34.7,841z"/>
	<path fill="#BAA885" d="M125.5,841v-66.3c0-16.7,7.1-28.6,41.9-28.6c34.9,0,42.2,11.9,42.2,28.6V841c0,4.3-1.9,6.2-6.2,6.2H183
		c-4.3,0-6.2-1.9-6.2-6.2v-18.6h-19.4V841c0,4.3-1.9,6.2-6.2,6.2h-19.7C127.3,847.1,125.5,845.3,125.5,841z M157.5,795.2h19.4v-15.9
		c0-3.2-2.3-5-9.6-5c-7.5,0-9.8,1.7-9.8,5V795.2z"/>
	<path fill="#BAA885" d="M224.7,841v-86.7c0-4.3,1.9-6.2,6.2-6.2h41c25.6,0,32.9,11.2,32.9,27.4v17.1c0,16.2-7.4,27.4-32.9,27.4
		h-14.1V841c0,4.3-1.9,6.2-6.2,6.2h-20.7C226.5,847.1,224.7,845.3,224.7,841z M257.5,775.8v17.5h10.7c4.1,0,5-2.5,5-5.2V781
		c0-2.7-0.8-5.2-5-5.2H257.5z"/>
	<path fill="#BAA885" d="M315.3,841v-66.3c0-16.7,7.1-28.6,41.9-28.6c34.9,0,42.2,11.9,42.2,28.6V841c0,4.3-1.9,6.2-6.2,6.2h-20.3
		c-4.3,0-6.2-1.9-6.2-6.2v-18.6h-19.4V841c0,4.3-1.9,6.2-6.2,6.2h-19.7C317.2,847.1,315.3,845.3,315.3,841z M347.3,795.2h19.4v-15.9
		c0-3.2-2.3-5-9.6-5c-7.5,0-9.8,1.7-9.8,5V795.2z"/>
	<path fill="#BAA885" d="M432.2,841v-64.4h-18.3c-4.3,0-6.2-1.9-6.2-6.2v-16.2c0-4.3,1.9-6.2,6.2-6.2h70.7c4.3,0,6.2,1.9,6.2,6.2
		v16.2c0,4.3-1.9,6.2-6.2,6.2h-18.3V841c0,4.3-1.9,6.2-6.2,6.2h-21.7C434,847.1,432.2,845.3,432.2,841z"/>
	<path fill="#BAA885" d="M498.8,818.5v-41.6c0-17,7.8-28.8,34.3-28.8h34c4.3,0,6.2,1.9,6.2,6.2v15.7c0,4.3-1.9,6.2-6.2,6.2h-29.6
		c-5.6,0-6.8,2.4-6.8,5.4v2.3h25.7c4.3,0,6.2,1.7,6.2,6.2v14.3c0,4.3-1.9,6.2-6.2,6.2h-25.7v3.7c0,3.1,1.3,5.1,6.8,5.1h29.6
		c4.3,0,6.2,1.9,6.2,6.2V841c0,4.3-1.9,6.2-6.2,6.2h-34C506.6,847.1,498.8,835.4,498.8,818.5z"/>
	<path fill="#BAA885" d="M592.5,847.1c-4.3,0-6.2-1.9-6.2-6.2v-86.7c0-4.3,1.9-6.2,6.2-6.2h44.6c21.3,0,27.7,9.8,27.7,23.7v6.2
		c0,6.6-1.5,11.5-5.2,14.6c8.4,2.4,13.9,9.5,13.9,20.1V841c0,4.3-1.9,6.2-6.2,6.2h-20.7c-4.3,0-6.2-1.9-6.2-6.2v-20.5
		c0-2.9-0.9-4.4-3.7-4.4h-17.4V841c0,4.3-1.9,6.2-6.2,6.2H592.5z M619.3,774.9v14.5h8.7c3.7,0,4.6-2.1,4.6-5v-4.6c0-2.8-0.8-5-4.6-5
		H619.3z"/>
	<path fill="#BAA885" d="M675.5,740.6v-12.9c0-4.1,1.7-5.6,6-6.2l42.7-5.8c4-0.5,6,1.6,6,5.8v12.9c0,4.1-1.7,5.6-6,6.2l-42.7,5.8
		C677.5,746.9,675.5,744.7,675.5,740.6z M713.4,847.1h-21.3c-4.3,0-6.2-1.9-6.2-6.2v-86.7c0-4.3,1.9-6.2,6.2-6.2h21.3
		c4.3,0,6.2,1.9,6.2,6.2V841C719.6,845.3,717.7,847.1,713.4,847.1z"/>
	<path fill="#BAA885" d="M734.8,841v-66.3c0-16.7,7.1-28.6,41.9-28.6c34.9,0,42.2,11.9,42.2,28.6V841c0,4.3-1.9,6.2-6.2,6.2h-20.3
		c-4.3,0-6.2-1.9-6.2-6.2v-18.6h-19.4V841c0,4.3-1.9,6.2-6.2,6.2H741C736.7,847.1,734.8,845.3,734.8,841z M766.8,795.2h19.4v-15.9
		c0-3.2-2.3-5-9.6-5c-7.5,0-9.8,1.7-9.8,5V795.2z"/>
	<path fill="#ECDFC1" d="M40.9,846c-3.3,0-4.8-1.5-4.8-4.8v-17.9c0-3.5,0.9-5.8,3.3-8.3l32.5-39.5H43.3c-3.3,0-4.8-1.5-4.8-4.8
		v-16.2c0-3.3,1.5-4.8,4.8-4.8h61.6c3.3,0,4.8,1.5,4.8,4.8v19.9c0,3.6-0.9,5.9-3.3,8.4l-31.1,37.6h32c3.3,0,4.8,1.5,4.8,4.8v15.9
		c0,3.3-1.5,4.8-4.8,4.8H40.9z"/>
	<path fill="#ECDFC1" d="M151.3,846h-19.7c-3.3,0-4.8-1.5-4.8-4.8v-66.3c0-16.2,7.4-27.3,40.6-27.3c33.3,0,40.8,11.1,40.8,27.3v66.3
		c0,3.3-1.5,4.8-4.8,4.8H183c-3.3,0-4.8-1.5-4.8-4.8v-19.9h-22.1v19.9C156.1,844.5,154.6,846,151.3,846z M156.1,796.7h22.1v-17.3
		c0-3.6-1.6-6.3-11-6.3c-9.5,0-11.1,2.7-11.1,6.3V796.7z"/>
	<path fill="#ECDFC1" d="M230.8,846c-3.3,0-4.8-1.5-4.8-4.8v-86.7c0-3.3,1.5-4.8,4.8-4.8h41c24.4,0,31.6,10.6,31.6,26.1v17.1
		c0,15.5-7.2,26.1-31.6,26.1h-15.4v22.2c0,3.3-1.5,4.8-4.8,4.8H230.8z M256.1,794.9h12c5.2,0,6.3-3.1,6.3-6.6v-7.1
		c0-3.5-1.1-6.6-6.3-6.6h-12V794.9z"/>
	<path fill="#ECDFC1" d="M341.1,846h-19.7c-3.3,0-4.8-1.5-4.8-4.8v-66.3c0-16.2,7.4-27.3,40.6-27.3c33.3,0,40.8,11.1,40.8,27.3v66.3
		c0,3.3-1.5,4.8-4.8,4.8h-20.3c-3.3,0-4.8-1.5-4.8-4.8v-19.9h-22.1v19.9C345.9,844.5,344.5,846,341.1,846z M345.9,796.7H368v-17.3
		c0-3.6-1.6-6.3-11-6.3c-9.5,0-11.1,2.7-11.1,6.3V796.7z"/>
	<path fill="#ECDFC1" d="M438.3,846c-3.3,0-4.8-1.5-4.8-4.8v-65.7h-19.7c-3.3,0-4.8-1.5-4.8-4.8v-16.2c0-3.3,1.5-4.8,4.8-4.8h70.7
		c3.3,0,4.8,1.5,4.8,4.8v16.2c0,3.3-1.5,4.8-4.8,4.8h-19.7v65.7c0,3.3-1.5,4.8-4.8,4.8H438.3z"/>
	<path fill="#ECDFC1" d="M567.1,846h-34c-25.3,0-32.9-11.1-32.9-27.3v-41.6c0-16.3,7.6-27.4,32.9-27.4h34c3.3,0,4.8,1.5,4.8,4.8
		v15.7c0,3.3-1.5,4.8-4.8,4.8h-29.6c-7,0-8.2,3.2-8.2,6.7v3.6h27c3.3,0,4.8,1.3,4.8,4.8v14.3c0,3.3-1.5,4.8-4.8,4.8h-27v5.1
		c0,3.7,1.2,6.4,8.2,6.4h29.6c3.3,0,4.8,1.5,4.8,4.8v15.7C571.9,844.5,570.4,846,567.1,846z"/>
	<path fill="#ECDFC1" d="M592.5,846c-3.3,0-4.8-1.5-4.8-4.8v-86.7c0-3.3,1.5-4.8,4.8-4.8h44.6c20.1,0,26.4,9.1,26.4,22.4v6.2
		c0,7.5-1.9,12.9-7.5,15.3c9.8,1.1,16.2,8.2,16.2,19.4v28.4c0,3.3-1.5,4.8-4.8,4.8h-20.7c-3.3,0-4.8-1.5-4.8-4.8v-20.5
		c0-4-1.3-5.8-5.1-5.8H618v26.2c0,3.3-1.5,4.8-4.8,4.8H592.5z M618,790.8h10c4.7,0,5.9-2.7,5.9-6.3V780c0-3.6-1.2-6.3-5.9-6.3h-10
		V790.8z"/>
	<path fill="#ECDFC1" d="M681.4,745.2c-3.1,0.4-4.6-1.3-4.6-4.4v-12.9c0-3.3,1.5-4.4,4.8-4.8l42.7-5.8c3.1-0.4,4.6,1.3,4.6,4.4v12.9
		c0,3.3-1.5,4.4-4.8,4.8L681.4,745.2z M692.1,846c-3.3,0-4.8-1.5-4.8-4.8v-86.7c0-3.3,1.5-4.8,4.8-4.8h21.3c3.3,0,4.8,1.5,4.8,4.8
		v86.7c0,3.3-1.5,4.8-4.8,4.8H692.1z"/>
	<path fill="#ECDFC1" d="M760.7,846H741c-3.3,0-4.8-1.5-4.8-4.8v-66.3c0-16.2,7.4-27.3,40.6-27.3c33.3,0,40.8,11.1,40.8,27.3v66.3
		c0,3.3-1.5,4.8-4.8,4.8h-20.3c-3.3,0-4.8-1.5-4.8-4.8v-19.9h-22.1v19.9C765.5,844.5,764,846,760.7,846z M765.5,796.7h22.1v-17.3
		c0-3.6-1.6-6.3-11-6.3c-9.5,0-11.1,2.7-11.1,6.3V796.7z"/>
	<path fill="#BAA885" d="M54,823.6c-1.3,1.6-1.9,2.4-1.9,4.1v1.9c0,2.5,1.3,3.1,2.8,3.1H100v1.3H54.9c-2.9,0-4.1-1.3-4.1-4.4v-2.1
		c0-2,0.9-3.3,2.3-5l39.2-50.3c1.3-1.6,1.9-2.4,1.9-4.2v-1.9c0-2.5-1.3-3.1-2.8-3.1H50.5v-1.3h40.8c2.9,0,4.1,1.3,4.1,4.4v2.1
		c0,2-0.9,3.3-2.3,5L54,823.6z"/>
	<path fill="#BAA885" d="M192.5,809.8h-49.7v24.2h-1.3v-55.8c0-10.8,5-18.1,26-18.1c21,0,26.4,7.2,26.4,18.1v55.8h-1.3V809.8z
		 M142.9,808.5h49.7v-30.3c0-10-5.1-16.7-25-16.7c-19.9,0-24.6,6.7-24.6,16.7V808.5z"/>
	<path fill="#BAA885" d="M242.3,807.7v26.4H241v-72.3h28.9c16.9,0,20.1,7.8,20.1,18.2v9.9c0,10.4-3.2,17.8-20.1,17.8H242.3z
		 M269.9,806.3c15.8,0,18.7-6.8,18.7-16.5V780c0-9.6-2.9-16.9-18.7-16.9h-27.6v43.2H269.9z"/>
	<path fill="#BAA885" d="M382.4,809.8h-49.7v24.2h-1.3v-55.8c0-10.8,5-18.1,26-18.1c21,0,26.4,7.2,26.4,18.1v55.8h-1.3V809.8z
		 M332.7,808.5h49.7v-30.3c0-10-5.1-16.7-25-16.7c-19.9,0-24.6,6.7-24.6,16.7V808.5z"/>
	<path fill="#BAA885" d="M448.5,763.1H421v-1.3h56.2v1.3h-27.4v70.9h-1.3V763.1z"/>
	<path fill="#BAA885" d="M559.9,834.1h-24.4c-17.4,0-21.4-4.8-21.4-17.3v-37.5c0-12.7,4.3-17.5,21.4-17.5h24.4v1.3h-24.4
		c-15.8,0-20.1,4.3-20.1,16.2v17.4h35.1v1.3h-35.1v18.7c0,11.6,4,15.9,20.1,15.9h24.4V834.1z"/>
	<path fill="#BAA885" d="M602.2,834.1v-72.3h30.5c10.4,0,15.3,6.4,15.3,15.3v9.2c0,8.2-1.6,13.5-8,15.5h1.5c11,0,16.2,5,16.2,14.3
		v17.9h-1.3v-17.9c0-8.8-4.7-13.1-14.9-13.1h-37.9v31.1H602.2z M603.5,763.1v38.7h29.2c11.1,0,13.9-5.5,13.9-15.4V777
		c0-8.3-4.4-13.9-13.9-13.9H603.5z"/>
	<path fill="#BAA885" d="M716.6,729v1.3l-28,3.5v-1.3L716.6,729z M703.5,761.8v72.3h-1.3v-72.3H703.5z"/>
	<path fill="#BAA885" d="M801.9,809.8h-49.7v24.2h-1.3v-55.8c0-10.8,5-18.1,26-18.1c21,0,26.4,7.2,26.4,18.1v55.8h-1.3V809.8z
		 M752.2,808.5h49.7v-30.3c0-10-5.1-16.7-25-16.7c-19.9,0-24.6,6.7-24.6,16.7V808.5z"/>
</g>
<g>
	<path fill="#F1F2F2" d="M838.1,692.9V574.1c0-3.3,0.9-5.3,2.6-6.8l23.6-20c1.3-1.1,3.3-1.6,5.9-1.6h58.5c25.7,0,37,9.7,37,29.9v8.8
		c0,8.6-2.4,14.7-7,18.3l-0.5,0.4c13.4,2.9,19.8,12.3,19.8,29.5v16.9c0,11-3.1,18.9-9.5,24.2l-23.6,20c-6,5.1-15.2,7.7-27.9,7.7
		h-70.4C840.7,701.3,838.1,698.8,838.1,692.9z"/>
	<path fill="#F1F2F2" d="M1011.2,699.5c-1.1,1.1-3.1,1.8-5.7,1.8h-26.9c-5.9,0-8.4-2.6-8.4-8.4v-90.7c0-11.5,2.6-21.3,10.8-28.2
		l23.8-19.8c8.2-7,22.4-11.2,46.4-11.2c47.8,0,57.7,16.3,57.7,39.2v90.7c0,3.3-0.9,5.3-2.6,6.8l-23.8,19.8c-1.1,1.1-3.1,1.8-5.7,1.8
		h-27.9c-5.9,0-8.4-2.6-8.4-8.4v-25.5h-2.9v5.5c0,3.3-0.9,5.3-2.6,6.8L1011.2,699.5z M1037.6,603.1v7.1h2.9v-1.8
		C1040.5,606.2,1039.8,604.4,1037.6,603.1z"/>
	<path fill="#F1F2F2" d="M1148.3,699.5c-1.1,1.1-3.1,1.8-5.7,1.8h-28.2c-5.9,0-8.4-2.6-8.4-8.4V574.1c0-3.3,0.9-5.3,2.6-6.8l23.6-20
		c1.3-1.1,3.3-1.6,5.9-1.6h61c29.1,0,37.9,13.4,37.9,32.4v8.4c0,9-2,15.8-7,20h-0.2c11.5,3.3,19.1,13,19.1,27.5v38.9
		c0,3.3-0.9,5.3-2.6,6.8l-23.8,19.8c-1.1,1.1-3.1,1.8-5.7,1.8h-28.4c-5.9,0-8.4-2.6-8.4-8.4v-28c0-4-1.3-6-5.1-6h-0.2v14.1
		c0,3.3-0.9,5.3-2.6,6.8L1148.3,699.5z"/>
	<path fill="#F1F2F2" d="M1242.1,692.9V574.1c0-3.3,0.9-5.3,2.6-6.8l23.6-20c1.3-1.1,3.3-1.6,5.9-1.6h58.5c25.7,0,37,9.7,37,29.9
		v8.8c0,8.6-2.4,14.7-7,18.3l-0.5,0.4c13.4,2.9,19.8,12.3,19.8,29.5v16.9c0,11-3.1,18.9-9.5,24.2l-23.6,20c-6,5.1-15.2,7.7-27.9,7.7
		h-70.4C1244.7,701.3,1242.1,698.8,1242.1,692.9z"/>
	<path fill="#F1F2F2" d="M1383.4,701.3c-5.9,0-8.4-2.6-8.4-8.4V574.1c0-3.3,0.9-5.3,2.6-6.8l23.6-20c1.3-1.1,3.3-1.6,5.9-1.6h85
		c5.9,0,8.4,2.6,8.4,8.4v21.4c0,3.3-0.9,5.3-2.6,6.8l-15.8,13c2.4,1.3,3.5,3.7,3.5,7.5v19.6c0,3.3-0.9,5.3-2.6,6.8l-16.3,13.7h25.3
		c5.9,0,8.4,2.6,8.4,8.4v21.4c0,3.3-0.9,5.3-2.6,6.8l-23.8,19.8c-1.1,1.1-3.1,1.8-5.7,1.8H1383.4z"/>
	<path fill="#F1F2F2" d="M1537.2,699.5c-1.1,1.1-3.1,1.8-5.7,1.8h-28.2c-5.9,0-8.4-2.6-8.4-8.4V574.1c0-3.3,0.9-5.3,2.6-6.8l23.6-20
		c1.3-1.1,3.3-1.6,5.9-1.6h61c29.1,0,37.9,13.4,37.9,32.4v8.4c0,9-2,15.8-7,20h-0.2c11.5,3.3,19.1,13,19.1,27.5v38.9
		c0,3.3-0.9,5.3-2.6,6.8l-23.8,19.8c-1.1,1.1-3.1,1.8-5.7,1.8h-28.4c-5.9,0-8.4-2.6-8.4-8.4v-28c0-4-1.3-6-5.1-6h-0.2v14.1
		c0,3.3-0.9,5.3-2.6,6.8L1537.2,699.5z"/>
	<path fill="#EF9D92" d="M861.8,673V554.3c0-5.9,2.6-8.4,8.4-8.4h58.5c25.7,0,37,9.7,37,29.9v8.8c0,8.8-2.4,14.8-7.3,18.7
		c13.2,3.1,19.6,12.3,19.6,29.5v16.9c0,21.6-11.5,31.9-37.4,31.9h-70.4C864.3,681.5,861.8,678.9,861.8,673z M906.7,580.7v16.1h13.7
		c3.7,0,5.1-1.8,5.1-5.5v-5.1c0-3.7-1.5-5.5-5.1-5.5H906.7z M906.7,628.7v18h22c3.7,0,5.1-1.8,5.1-5.5V634c0-3.7-1.6-5.3-5.1-5.3
		H906.7z"/>
	<path fill="#92CAD3" d="M993.8,673v-90.7c0-22.9,9.7-39.2,57.4-39.2c47.8,0,57.7,16.3,57.7,39.2V673c0,5.9-2.6,8.4-8.4,8.4h-27.9
		c-5.9,0-8.4-2.6-8.4-8.4v-25.5h-26.6V673c0,5.9-2.6,8.4-8.4,8.4h-26.9C996.3,681.5,993.8,678.9,993.8,673z M1037.6,610.3h26.6
		v-21.8c0-4.4-3.1-6.8-13.2-6.8c-10.3,0-13.4,2.4-13.4,6.8V610.3z"/>
	<path fill="#EF9D92" d="M1138,681.5c-5.9,0-8.4-2.6-8.4-8.4V554.3c0-5.9,2.6-8.4,8.4-8.4h61c29.1,0,37.9,13.4,37.9,32.4v8.4
		c0,9-2,15.8-7.1,20c11.5,3.3,19.1,13,19.1,27.5V673c0,5.9-2.6,8.4-8.4,8.4h-28.4c-5.9,0-8.4-2.6-8.4-8.4v-28c0-4-1.3-6-5.1-6h-23.8
		V673c0,5.9-2.6,8.4-8.4,8.4H1138z M1174.7,582.5v19.8h11.9c5.1,0,6.2-2.9,6.2-6.8v-6.2c0-3.8-1.1-6.8-6.2-6.8H1174.7z"/>
	<path fill="#92CAD3" d="M1265.8,673V554.3c0-5.9,2.6-8.4,8.4-8.4h58.5c25.7,0,37,9.7,37,29.9v8.8c0,8.8-2.4,14.8-7.3,18.7
		c13.2,3.1,19.6,12.3,19.6,29.5v16.9c0,21.6-11.5,31.9-37.4,31.9h-70.4C1268.3,681.5,1265.8,678.9,1265.8,673z M1310.7,580.7v16.1
		h13.7c3.7,0,5.1-1.8,5.1-5.5v-5.1c0-3.7-1.5-5.5-5.1-5.5H1310.7z M1310.7,628.7v18h22c3.7,0,5.1-1.8,5.1-5.5V634
		c0-3.7-1.6-5.3-5.1-5.3H1310.7z"/>
	<path fill="#EF9D92" d="M1398.6,673V554.3c0-5.9,2.6-8.4,8.4-8.4h85c5.9,0,8.4,2.6,8.4,8.4v21.4c0,5.9-2.6,8.4-8.4,8.4h-48.8v10.4
		h33.9c5.9,0,8.4,2.6,8.4,8.4v19.6c0,5.9-2.6,8.4-8.4,8.4h-33.9v12.1h48.8c5.9,0,8.4,2.6,8.4,8.4V673c0,5.9-2.6,8.4-8.4,8.4h-85
		C1401.2,681.5,1398.6,678.9,1398.6,673z"/>
	<path fill="#92CAD3" d="M1527,681.5c-5.9,0-8.4-2.6-8.4-8.4V554.3c0-5.9,2.6-8.4,8.4-8.4h61c29.1,0,37.9,13.4,37.9,32.4v8.4
		c0,9-2,15.8-7.1,20c11.5,3.3,19.1,13,19.1,27.5V673c0,5.9-2.6,8.4-8.4,8.4H1601c-5.9,0-8.4-2.6-8.4-8.4v-28c0-4-1.3-6-5.1-6h-23.8
		V673c0,5.9-2.6,8.4-8.4,8.4H1527z M1563.6,582.5v19.8h11.9c5.1,0,6.2-2.9,6.2-6.8v-6.2c0-3.8-1.1-6.8-6.2-6.8H1563.6z"/>
	<path fill="#DA4226" d="M870.2,679.7c-4.6,0-6.6-2-6.6-6.6V554.4c0-4.6,2-6.6,6.6-6.6h58.5c24,0,35.2,8.8,35.2,28v8.8
		c0,10.3-3.5,16.7-10.8,19.8c15.8,1.5,23.1,10.4,23.1,28.4v16.9c0,20.5-11.2,30.1-35.6,30.1H870.2z M904.9,598.7h15.6
		c4.8,0,7-2.4,7-7.3v-5.1c0-4.9-2.2-7.3-7-7.3h-15.6V598.7z M904.9,648.6h23.8c4.8,0,7-2.4,7-7.3v-7.1c0-4.9-2.2-7.1-7-7.1h-23.8
		V648.6z"/>
	<path fill="#27839E" d="M1029.1,679.7h-26.9c-4.6,0-6.6-2-6.6-6.6v-90.7c0-22.2,10.1-37.4,55.5-37.4c45.6,0,55.9,15.2,55.9,37.4
		v90.7c0,4.6-2,6.6-6.6,6.6h-27.9c-4.6,0-6.6-2-6.6-6.6v-27.3h-30.2v27.3C1035.7,677.7,1033.7,679.7,1029.1,679.7z M1035.7,612.3
		h30.2v-23.6c0-4.9-2.2-8.6-15-8.6c-13,0-15.2,3.7-15.2,8.6V612.3z"/>
	<path fill="#DA4226" d="M1138,679.7c-4.6,0-6.6-2-6.6-6.6V554.4c0-4.6,2-6.6,6.6-6.6h61c27.5,0,36.1,12.5,36.1,30.6v8.4
		c0,10.3-2.6,17.6-10.3,20.9c13.4,1.5,22.2,11.2,22.2,26.6v38.9c0,4.6-2,6.6-6.6,6.6h-28.4c-4.6,0-6.6-2-6.6-6.6v-28
		c0-5.5-1.8-7.9-7-7.9h-25.7v35.9c0,4.6-2,6.6-6.6,6.6H1138z M1172.8,604.2h13.7c6.4,0,8.1-3.7,8.1-8.6v-6.2c0-4.9-1.7-8.6-8.1-8.6
		h-13.7V604.2z"/>
	<path fill="#27839E" d="M1274.2,679.7c-4.6,0-6.6-2-6.6-6.6V554.4c0-4.6,2-6.6,6.6-6.6h58.5c24,0,35.2,8.8,35.2,28v8.8
		c0,10.3-3.5,16.7-10.8,19.8c15.8,1.5,23.1,10.4,23.1,28.4v16.9c0,20.5-11.2,30.1-35.6,30.1H1274.2z M1308.8,598.7h15.6
		c4.8,0,7-2.4,7-7.3v-5.1c0-4.9-2.2-7.3-7-7.3h-15.6V598.7z M1308.8,648.6h23.8c4.8,0,7-2.4,7-7.3v-7.1c0-4.9-2.2-7.1-7-7.1h-23.8
		V648.6z"/>
	<path fill="#DA4226" d="M1407.1,679.7c-4.6,0-6.6-2-6.6-6.6V554.4c0-4.6,2-6.6,6.6-6.6h85c4.6,0,6.6,2,6.6,6.6v21.4
		c0,4.6-2,6.6-6.6,6.6h-50.6v14.1h35.7c4.6,0,6.6,2,6.6,6.6v19.6c0,4.6-2,6.6-6.6,6.6h-35.7v15.8h50.6c4.6,0,6.6,2,6.6,6.6v21.4
		c0,4.6-2,6.6-6.6,6.6H1407.1z"/>
	<path fill="#27839E" d="M1527,679.7c-4.6,0-6.6-2-6.6-6.6V554.4c0-4.6,2-6.6,6.6-6.6h61c27.5,0,36.1,12.5,36.1,30.6v8.4
		c0,10.3-2.6,17.6-10.3,20.9c13.4,1.5,22.2,11.2,22.2,26.6v38.9c0,4.6-2,6.6-6.6,6.6H1601c-4.6,0-6.6-2-6.6-6.6v-28
		c0-5.5-1.8-7.9-7-7.9h-25.7v35.9c0,4.6-2,6.6-6.6,6.6H1527z M1561.8,604.2h13.7c6.4,0,8.1-3.7,8.1-8.6v-6.2c0-4.9-1.7-8.6-8.1-8.6
		h-13.7V604.2z"/>
	<path fill="#EF9D92" d="M884,663.3v-99h37.2c20.3,0,24,8.8,24,19.4v11.7c0,7.3-1.3,13.9-11.7,16.7c20.3,0,23.8,9,23.8,21.1V645
		c0,10.8-3.5,18.3-24,18.3H884z M885.8,566.2v46h35.4c20.2,0,22.2-7.9,22.2-16.7v-11.7c0-9.9-3.7-17.6-22.2-17.6H885.8z M885.8,614
		v47.5h47.5c18.3,0,22.2-6.4,22.2-16.5v-11.7c0-11-3.5-19.2-22-19.2H885.8z"/>
	<path fill="#92CAD3" d="M1085.6,630.2h-68v33.2h-1.8v-76.4c0-14.8,6.8-24.7,35.6-24.7c28.8,0,36.1,9.9,36.1,24.7v76.4h-1.8V630.2z
		 M1017.6,628.3h68v-41.4c0-13.7-7-22.9-34.3-22.9c-27.3,0-33.7,9.2-33.7,22.9V628.3z"/>
	<path fill="#EF9D92" d="M1151.2,663.3v-99h41.8c14.3,0,20.9,8.8,20.9,20.9v12.6c0,11.2-2.2,18.5-11,21.3h2c15,0,22.2,6.8,22.2,19.6
		v24.6h-1.8v-24.6c0-12.1-6.4-18-20.3-18H1153v42.5H1151.2z M1153,566.2v53h40c15.2,0,19.1-7.5,19.1-21.1v-12.8
		c0-11.4-6-19.1-19.1-19.1H1153z"/>
	<path fill="#92CAD3" d="M1287.9,663.3v-99h37.2c20.3,0,24,8.8,24,19.4v11.7c0,7.3-1.3,13.9-11.7,16.7c20.3,0,23.8,9,23.8,21.1V645
		c0,10.8-3.5,18.3-24,18.3H1287.9z M1289.8,566.2v46h35.4c20.2,0,22.2-7.9,22.2-16.7v-11.7c0-9.9-3.7-17.6-22.2-17.6H1289.8z
		 M1289.8,614v47.5h47.5c18.3,0,22.2-6.4,22.2-16.5v-11.7c0-11-3.5-19.2-22-19.2H1289.8z"/>
	<path fill="#EF9D92" d="M1482.2,663.3h-61.8v-99h61.8v1.8h-59.9v46h45.1v1.8h-45.1v47.5h59.9V663.3z"/>
	<path fill="#92CAD3" d="M1540.2,663.3v-99h41.8c14.3,0,20.9,8.8,20.9,20.9v12.6c0,11.2-2.2,18.5-11,21.3h2c15,0,22.2,6.8,22.2,19.6
		v24.6h-1.8v-24.6c0-12.1-6.4-18-20.3-18H1542v42.5H1540.2z M1542,566.2v53h40c15.2,0,19.1-7.5,19.1-21.1v-12.8
		c0-11.4-6-19.1-19.1-19.1H1542z"/>
</g>
<g>
	<g>
		<path fill="#762117" d="M859.4,449.3c0-1.4,0.6-2,2-2h30.7c16.6,0,26.2,9.5,26.2,26.2v30.7c0,1.4-0.6,2-2,2H861
			c-0.9,0-1.6-0.7-1.6-1.6V449.3z"/>
		<path fill="#762117" d="M924.8,449.3c0-1.4,0.6-2,2-2h30.7c16.6,0,26.2,9.5,26.2,26.2v30.7c0,1.4-0.6,2-2,2h-55.3
			c-0.9,0-1.6-0.7-1.6-1.6V449.3z"/>
		<path fill="#762117" d="M990.2,449.3c0-1.4,0.6-2,2-2h30.7c16.6,0,26.2,9.5,26.2,26.2v30.7c0,1.4-0.6,2-2,2h-55.3
			c-0.9,0-1.6-0.7-1.6-1.6V449.3z"/>
		<path fill="#762117" d="M1055.6,449.3c0-1.4,0.6-2,2-2h30.7c16.6,0,26.2,9.5,26.2,26.2v30.7c0,1.4-0.6,2-2,2h-55.3
			c-0.9,0-1.6-0.7-1.6-1.6V449.3z"/>
		<path fill="#762117" d="M1121,449.3c0-1.4,0.6-2,2-2h30.7c16.6,0,26.2,9.5,26.2,26.2v30.7c0,1.4-0.6,2-2,2h-55.3
			c-0.9,0-1.6-0.7-1.6-1.6V449.3z"/>
		<path fill="#762117" d="M1186.4,449.3c0-1.4,0.6-2,2-2h30.7c16.6,0,26.2,9.5,26.2,26.2v30.7c0,1.4-0.6,2-2,2H1188
			c-0.9,0-1.6-0.7-1.6-1.6V449.3z"/>
		<path fill="#762117" d="M1251.8,449.3c0-1.4,0.6-2,2-2h30.7c16.6,0,26.2,9.5,26.2,26.2v30.7c0,1.4-0.6,2-2,2h-55.3
			c-0.9,0-1.6-0.7-1.6-1.6V449.3z"/>
		<path fill="#762117" d="M1317.2,449.3c0-1.4,0.6-2,2-2h30.7c16.6,0,26.2,9.5,26.2,26.2v30.7c0,1.4-0.6,2-2,2h-55.3
			c-0.9,0-1.6-0.7-1.6-1.6V449.3z"/>
		<path fill="#762117" d="M1382.6,449.3c0-1.4,0.6-2,2-2h30.7c16.6,0,26.2,9.5,26.2,26.2v30.7c0,1.4-0.6,2-2,2h-55.3
			c-0.9,0-1.6-0.7-1.6-1.6V449.3z"/>
		<path fill="#762117" d="M1448,449.3c0-1.4,0.6-2,2-2h30.7c16.6,0,26.2,9.5,26.2,26.2v30.7c0,1.4-0.6,2-2,2h-55.3
			c-0.9,0-1.6-0.7-1.6-1.6V449.3z"/>
		<path fill="#762117" d="M1513.4,449.3c0-1.4,0.6-2,2-2h30.7c16.6,0,26.2,9.5,26.2,26.2v30.7c0,1.4-0.6,2-2,2H1515
			c-0.9,0-1.6-0.7-1.6-1.6V449.3z"/>
		<path fill="#762117" d="M1578.8,449.3c0-1.4,0.6-2,2-2h30.7c16.6,0,26.2,9.5,26.2,26.2v30.7c0,1.4-0.6,2-2,2h-55.3
			c-0.9,0-1.6-0.7-1.6-1.6V449.3z"/>
	</g>
	<g>
		<path fill="#ECDFC1" d="M876.2,496.4c-1.2,0-1.7-0.5-1.7-1.7v-31.1c0-1.2,0.5-1.7,1.7-1.7h7.4c1.2,0,1.7,0.5,1.7,1.7v23.8h7.5
			v-7.8c0-1.2,0.5-1.7,1.7-1.7h7c1.2,0,1.7,0.5,1.7,1.7v15.1c0,1.2-0.5,1.7-1.7,1.7H876.2z"/>
		<path fill="#ECDFC1" d="M954.2,497.1c-11.5,0-14.4-3.9-14.4-9.8v-23.8c0-1.2,0.5-1.7,1.7-1.7h7.5c1.2,0,1.7,0.5,1.7,1.7v21.9
			c0,1.3,0.6,2.3,3.5,2.3c3,0,3.6-1,3.6-2.3v-21.9c0-1.2,0.5-1.7,1.7-1.7h7.3c1.2,0,1.7,0.5,1.7,1.7v23.8
			C968.6,493.1,965.7,497.1,954.2,497.1z"/>
		<path fill="#ECDFC1" d="M1006.9,496.4c-1.2,0-1.7-0.5-1.7-1.7v-31.1c0-1.2,0.5-1.7,1.7-1.7h5c1.2,0,2,0.3,2.8,1.3l8.6,10.7v-10.2
			c0-1.2,0.5-1.7,1.7-1.7h7.2c1.2,0,1.7,0.5,1.7,1.7v31.1c0,1.2-0.5,1.7-1.7,1.7h-7.2c-1.2,0-1.7-0.5-1.7-1.7v-5.9l-7.5-9.9v15.8
			c0,1.2-0.5,1.7-1.7,1.7H1006.9z"/>
		<path fill="#ECDFC1" d="M1082.2,496.4c-9.1,0-11.8-4-11.8-9.8v-14.9c0-5.9,2.7-9.8,11.8-9.8h15c1.2,0,1.7,0.5,1.7,1.7v5.8
			c0,1.2-0.5,1.7-1.7,1.7h-13c-2.5,0-2.9,1.2-2.9,2.4v11.4c0,1.3,0.4,2.3,2.9,2.3h13c1.2,0,1.7,0.5,1.7,1.7v5.7
			c0,1.2-0.5,1.7-1.7,1.7H1082.2z"/>
		<path fill="#ECDFC1" d="M1137.7,496.4c-1.2,0-1.7-0.5-1.7-1.7v-31.1c0-1.2,0.5-1.7,1.7-1.7h7.4c1.2,0,1.7,0.5,1.7,1.7v10.4h7
			v-10.4c0-1.2,0.5-1.7,1.7-1.7h7.4c1.2,0,1.7,0.5,1.7,1.7v31.1c0,1.2-0.5,1.7-1.7,1.7h-7.4c-1.2,0-1.7-0.5-1.7-1.7V484h-7v10.7
			c0,1.2-0.5,1.7-1.7,1.7H1137.7z"/>
		<path fill="#ECDFC1" d="M1203.1,496.4c-1.2,0-1.7-0.5-1.7-1.7v-31.1c0-1.2,0.5-1.7,1.7-1.7h24.9c1.2,0,1.7,0.5,1.7,1.7v5.6
			c0,1.2-0.5,1.7-1.7,1.7h-15.8v3.7h12c1.2,0,1.7,0.5,1.7,1.7v5.1c0,1.2-0.5,1.7-1.7,1.7h-12v4.1h15.8c1.2,0,1.7,0.5,1.7,1.7v5.6
			c0,1.2-0.5,1.7-1.7,1.7H1203.1z"/>
		<path fill="#ECDFC1" d="M1281.1,497.1c-11.8,0-14.6-3.9-14.6-9.8v-16.4c0-5.9,2.8-9.8,14.6-9.8s14.6,4,14.6,9.8v16.4
			C1295.7,493.1,1292.9,497.1,1281.1,497.1z M1281.1,487.8c3.2,0,3.7-1,3.7-2.3v-12.9c0-1.2-0.5-2.2-3.7-2.2c-3.2,0-3.7,1-3.7,2.2
			v12.9C1277.4,486.9,1277.9,487.8,1281.1,487.8z"/>
		<path fill="#ECDFC1" d="M1333.8,496.4c-1.2,0-1.7-0.5-1.7-1.7v-31.1c0-1.2,0.5-1.7,1.7-1.7h5c1.2,0,2,0.3,2.8,1.3l8.6,10.7v-10.2
			c0-1.2,0.5-1.7,1.7-1.7h7.2c1.2,0,1.7,0.5,1.7,1.7v31.1c0,1.2-0.5,1.7-1.7,1.7h-7.2c-1.2,0-1.7-0.5-1.7-1.7v-5.9l-7.5-9.9v15.8
			c0,1.2-0.5,1.7-1.7,1.7H1333.8z"/>
		<path fill="#ECDFC1" d="M1399.2,496.4c-1.2,0-1.7-0.5-1.7-1.7v-31.1c0-1.2,0.5-1.7,1.7-1.7h24.9c1.2,0,1.7,0.5,1.7,1.7v5.6
			c0,1.2-0.5,1.7-1.7,1.7h-15.8v3.7h12c1.2,0,1.7,0.5,1.7,1.7v5.1c0,1.2-0.5,1.7-1.7,1.7h-12v4.1h15.8c1.2,0,1.7,0.5,1.7,1.7v5.6
			c0,1.2-0.5,1.7-1.7,1.7H1399.2z"/>
		<path fill="#ECDFC1" d="M1473.2,496.4c-1.2,0-1.7-0.5-1.7-1.7v-23.6h-6.9c-1.2,0-1.7-0.5-1.7-1.7v-5.8c0-1.2,0.5-1.7,1.7-1.7h25.3
			c1.2,0,1.7,0.5,1.7,1.7v5.8c0,1.2-0.5,1.7-1.7,1.7h-6.9v23.6c0,1.2-0.5,1.7-1.7,1.7H1473.2z"/>
		<path fill="#ECDFC1" d="M1538.6,496.4c-1.2,0-1.7-0.5-1.7-1.7v-23.6h-6.9c-1.2,0-1.7-0.5-1.7-1.7v-5.8c0-1.2,0.5-1.7,1.7-1.7h25.3
			c1.2,0,1.7,0.5,1.7,1.7v5.8c0,1.2-0.5,1.7-1.7,1.7h-6.9v23.6c0,1.2-0.5,1.7-1.7,1.7H1538.6z"/>
		<path fill="#ECDFC1" d="M1595.4,496.4c-1.2,0-1.7-0.5-1.7-1.7v-31.1c0-1.2,0.5-1.7,1.7-1.7h24.9c1.2,0,1.7,0.5,1.7,1.7v5.6
			c0,1.2-0.5,1.7-1.7,1.7h-15.8v3.7h12c1.2,0,1.7,0.5,1.7,1.7v5.1c0,1.2-0.5,1.7-1.7,1.7h-12v4.1h15.8c1.2,0,1.7,0.5,1.7,1.7v5.6
			c0,1.2-0.5,1.7-1.7,1.7H1595.4z"/>
	</g>
</g>
<g>
	<g>
		<g>
			<path fill="#432D2C" d="M73.2,28.3h14.4v153.7H73.2c-4.3,0-6.2-1.6-6.2-5.1v-3.4c-13.2,0-24-9-24-19.9H39c-4.3,0-6.2-1.6-6.2-5.1
				V61.8c0-3.6,1.9-5.1,6.2-5.1h4.1c0-11,10.8-19.9,24-19.9v-3.4C67,29.8,68.9,28.3,73.2,28.3z"/>
			<path fill="#432D2C" d="M258.9,181.9h-185V28.3h185V181.9z"/>
			<path fill="#432D2C" d="M430.2,181.9h-185V28.3h185V181.9z"/>
			<path fill="#432D2C" d="M601.5,181.9h-185V28.3h185V181.9z"/>
			<path fill="#432D2C" d="M772.8,181.9h-185V28.3h185V181.9z"/>
			<path fill="#432D2C" d="M779.7,33.4v3.4c13.2,0,24,9,24,19.9h4.1c4.3,0,6.2,1.6,6.2,5.1v86.5c0,3.6-1.9,5.1-6.2,5.1h-4.1
				c0,11-10.8,19.9-24,19.9v3.4c0,3.6-1.9,5.1-6.2,5.1h-14.4V28.3h14.4C777.8,28.3,779.7,29.8,779.7,33.4z"/>
		</g>
		<g>
			<path fill="#ECDFC1" d="M73.2,32.5c-0.7,0-1,0.3-1,0.9v7.7H67c-10.3,0-18.8,7.1-18.8,15.7V61H39c-0.7,0-1,0.3-1,0.9v86.5
				c0,0.6,0.3,0.9,1,0.9h9.3v4.3c0,8.5,8.6,15.7,18.8,15.7h5.1v7.7c0,0.6,0.3,0.9,1,0.9h14.4v1.4H73.2c-2.1,0-2.7-0.6-2.7-2.3v-6.3
				H67c-11.3,0-20.6-7.7-20.6-17.1v-2.8H39c-2.1,0-2.7-0.6-2.7-2.3V61.8c0-1.7,0.7-2.3,2.7-2.3h7.5v-2.8c0-9.4,9.3-17.1,20.6-17.1
				h3.4v-6.3c0-1.7,0.7-2.3,2.7-2.3h14.4v1.4H73.2z"/>
			<path fill="#ECDFC1" d="M255.5,179.1H77.3v-148h178.2V179.1z M253.8,32.5H79v145.1h174.7V32.5z"/>
			<path fill="#ECDFC1" d="M426.8,179.1H248.6v-148h178.2V179.1z M425.1,32.5H250.3v145.1h174.7V32.5z"/>
			<path fill="#ECDFC1" d="M598.1,179.1H419.9v-148h178.2V179.1z M596.4,32.5H421.6v145.1h174.7V32.5z"/>
			<path fill="#ECDFC1" d="M769.4,179.1H591.2v-148h178.2V179.1z M767.7,32.5H592.9v145.1h174.7V32.5z"/>
			<path fill="#ECDFC1" d="M759.1,31.1h14.4c2.1,0,2.7,0.6,2.7,2.3v6.3h3.4c11.3,0,20.6,7.7,20.6,17.1v2.8h7.5
				c2.1,0,2.7,0.6,2.7,2.3v86.5c0,1.7-0.7,2.3-2.7,2.3h-7.5v2.8c0,9.4-9.3,17.1-20.6,17.1h-3.4v6.3c0,1.7-0.7,2.3-2.7,2.3h-14.4
				v-1.4h14.4c0.7,0,1-0.3,1-0.9v-7.7h5.1c10.3,0,18.8-7.1,18.8-15.7v-4.3h9.3c0.7,0,1-0.3,1-0.9V61.8c0-0.6-0.3-0.9-1-0.9h-9.3
				v-4.3c0-8.5-8.6-15.7-18.8-15.7h-5.1v-7.7c0-0.6-0.3-0.9-1-0.9h-14.4V31.1z"/>
		</g>
		<rect x="75.2" y="32.5" fill="#432D2C" width="697" height="145.1"/>
	</g>
	<g>
		<path fill="#F6ECCC" d="M105.5,146.5c-2.7,0-3.9-1.2-3.9-3.9V72.5c0-2.7,1.2-3.9,3.9-3.9h33.1c19.7,0,25.5,8.6,25.5,21.1v13.9
			c0,12.6-5.8,21.1-25.5,21.1h-12.4v18c0,2.7-1.2,3.9-3.9,3.9H105.5z M153.3,101.1v-8c0-8.4-2.6-14.7-16.2-14.7h-23.4v58.5h1.1
			v-21.3h22.3C150.7,115.5,153.3,109.5,153.3,101.1z M114.8,79.4h22.3c12.8,0,15.2,5.8,15.2,13.6v8c0,7.8-2.4,13.3-15.2,13.3h-22.3
			V79.4z M125.9,105.2h9.7c4.2,0,5.1-2.5,5.1-5.3v-5.7c0-2.8-0.9-5.3-5.1-5.3h-9.7V105.2z"/>
		<path fill="#F6ECCC" d="M179.3,146.5c-2.7,0-3.9-1.2-3.9-3.9V72.5c0-2.7,1.2-3.9,3.9-3.9h16.8c2.7,0,3.9,1.2,3.9,3.9V96h18.1V72.5
			c0-2.7,1.2-3.9,3.9-3.9h16.8c2.7,0,3.9,1.2,3.9,3.9v70.2c0,2.7-1.2,3.9-3.9,3.9H222c-2.7,0-3.9-1.2-3.9-3.9v-24H200v24
			c0,2.7-1.2,3.9-3.9,3.9H179.3z M188.2,136.8v-28.7h41.6v28.7h1.1V78.3h-1.1V107h-41.6V78.3h-1.1v58.5H188.2z"/>
		<path fill="#F6ECCC" d="M256.4,126.1V89.2C256.4,76,263,67,290,67c6.8,0,12.2,0.5,16.7,1.6c3.2-0.1,4-1.2,4-3.1v-2.3
			c0-2.6,0.8-3.4,3.2-3.4h12c2.7,0,3.9,1.2,3.9,3.9v4.8c0,5.6-1.7,10.2-7.4,12.8c0.8,2.5,1.1,5.1,1.1,7.9v36.9
			c0,13.2-6.5,22.1-33.6,22.1C263,148.2,256.4,139.3,256.4,126.1z M311.8,123.6V91.7c0-4.7-1.4-8.4-5.2-11
			c10.5-0.6,13.9-6.8,13.9-12.4v-1h-1.1v1c0,5.8-4.4,11.5-14.5,11.5c-3.5-1.6-8.2-2.6-15-2.6c-17,0-21.8,5.8-21.8,14.6v31.9
			c0,8.8,4.8,14.6,21.8,14.6S311.8,132.4,311.8,123.6z M289.8,78.1c16.1,0,20.9,5.4,20.9,13.5v31.9c0,8.1-4.8,13.5-20.9,13.5
			s-20.7-5.4-20.7-13.5V91.7C269.1,83.5,273.7,78.1,289.8,78.1z M282.4,65.6c-1.4,0.2-1.9-0.3-2.2-1.7l-1.2-8.6
			c-0.2-1.4,0.4-2.1,1.8-2.3l9.6-1.5c1.4-0.2,2.1-0.5,2.1-1.8c0-1.1-0.9-1.5-2.1-1.5h-14c-1.4,0-2.1-0.6-2.1-2.1v-7.9
			c0-1.4,0.6-2.1,2.1-2.1h18.2c7.4,0,11.7,3.8,11.7,11v6.9c0,6.4-3.4,8.7-8.8,9.4L282.4,65.6z M295.6,57.8c2.3-0.3,4.4-1.4,4.4-5.5
			v-5.4c0-4.2-2.7-5.3-5.4-5.3h-14.7v1.1h14.7c2.2,0,4.3,0.9,4.3,4.2v5.4c0,3-1.4,4.2-3.6,4.5L285,58.3l0.1,1.1L295.6,57.8z
			 M290,127.3c7.9,0,9.1-2.2,9.1-5.1V93.1c0-2.8-1.2-5-9.1-5c-7.8,0-9.1,2.2-9.1,5v29.1C281,125.1,282.2,127.3,290,127.3z"/>
		<path fill="#F6ECCC" d="M367.8,146.5c-2.7,0-3.9-1.2-3.9-3.9v-24.8h-2.5c-2.7,0-3.9-1.1-3.9-3.9v-11.6c0-2.7,1.2-3.9,3.9-3.9h2.5
			v-26c0-2.7,1.2-3.9,3.9-3.9h36.5c20.5,0,26.6,9,26.6,22.1v33.8c0,13.1-6.2,22.1-26.6,22.1H367.8z M401.9,136.8
			c14.9,0,17.3-6.4,17.3-14.7V93.4c0-8.3-2.6-15-17.3-15h-26.4v29.3h-8.2v1.1h8.2v28H401.9z M386.7,107.7h-10.2V79.4h25.3
			c13.6,0,16.2,6.1,16.2,14v28.7c0,7.9-2.4,13.6-16.2,13.6h-25.3v-27h10.2V107.7z M401.3,126.1c4.3,0,5.1-2.4,5.1-5.3V94.5
			c0-2.8-0.8-5.2-5.1-5.2h-13.2v9.2h4.4c2.7,0,3.9,1.1,3.9,3.9V114c0,2.8-1.2,3.9-3.9,3.9h-4.4v8.2H401.3z"/>
		<path fill="#F6ECCC" d="M462.8,146.5h-15.9c-2.7,0-3.9-1.2-3.9-3.9v-28.6c0-4.3,1.3-9.7,4.2-17.3l9.4-24.6
			c0.9-2.5,2.6-3.6,5.5-3.6h29.1c2.8,0,4.5,1.1,5.4,3.6l9.4,24.6c2.9,7.6,4.2,13,4.2,17.3v28.6c0,2.7-1.2,3.9-3.9,3.9h-16.3
			c-2.9,0-4.2-1.2-4.2-3.9v-15.2h-19.2v15.2C466.7,145.4,465.5,146.5,462.8,146.5z M457.8,60.4c-2.7-0.3-3.9-1.2-3.9-3.9V46.1
			c0-2.5,1.2-3.9,3.7-3.6l37.8,4.7c2.7,0.3,3.9,1.2,3.9,3.9v10.4c0,2.5-1.2,3.9-3.7,3.6L457.8,60.4z M498.9,136.8v-23.1
			c0-4-0.6-7.4-1.8-10.5l-7.5-17.6c-1.7-4.2-3-7.3-7.8-7.3h-10.6c-5,0-6.3,3.1-7.9,7.1l-6.9,17.8c-1.2,3.1-1.8,6.5-1.8,10.5v23.1
			h1.1v-18.6h42.2v18.6H498.9z M457.3,103.7l6.9-17.8c1.4-3.7,2.6-6.5,6.9-6.5h10.6c4,0,5.2,2.8,6.8,6.6l7.5,17.6
			c1.1,2.9,1.7,6.2,1.7,10.1v3.4h-42.2v-3.4C455.6,109.8,456.2,106.6,457.3,103.7z M489.6,55.9v-1.1l-25.9-3.2v1.1L489.6,55.9z
			 M467.8,107.8h17l-5.1-16.5c-0.5-1.3-1.2-1.8-2.1-1.8h-2.7c-0.9,0-1.5,0.5-2.1,1.8L467.8,107.8z"/>
		<path fill="#F6ECCC" d="M572.1,72.5v53.2h27.6c2.7,0,3.9,1.2,3.9,3.9v13.1c0,2.7-1.2,3.9-3.9,3.9h-48.3c-2.7,0-3.9-1.2-3.9-3.9
			V72.5c0-2.7,1.2-3.9,3.9-3.9h16.8C570.9,68.6,572.1,69.8,572.1,72.5z M559.3,136.8h34.5v-1.1h-33.5V78.3h-1.1V136.8z"/>
		<path fill="#F6ECCC" d="M632.2,146.5h-15.9c-2.7,0-3.9-1.2-3.9-3.9v-28.6c0-4.3,1.3-9.7,4.2-17.3l9.4-24.6
			c0.9-2.5,2.6-3.6,5.5-3.6h29.1c2.8,0,4.5,1.1,5.4,3.6l9.4,24.6c2.9,7.6,4.2,13,4.2,17.3v28.6c0,2.7-1.2,3.9-3.9,3.9h-16.3
			c-2.9,0-4.2-1.2-4.2-3.9v-15.2h-19.2v15.2C636.1,145.4,634.9,146.5,632.2,146.5z M668.3,136.8v-23.1c0-4-0.6-7.4-1.8-10.5
			L659,85.6c-1.7-4.2-3-7.3-7.8-7.3h-10.6c-5,0-6.3,3.1-7.9,7.1l-6.9,17.8c-1.2,3.1-1.8,6.5-1.8,10.5v23.1h1.1v-18.6h42.2v18.6
			H668.3z M626.7,103.7l6.9-17.8c1.4-3.7,2.6-6.5,6.9-6.5h10.6c4,0,5.2,2.8,6.8,6.6l7.5,17.6c1.1,2.9,1.7,6.2,1.7,10.1v3.4H625v-3.4
			C625,109.8,625.6,106.6,626.7,103.7z M637.5,172.5c-2.7,0-3.9-1.2-3.9-3.9v-13.7c0-2.7,1.2-3.9,3.9-3.9h17.1
			c2.7,0,3.9,1.2,3.9,3.9v13.7c0,2.7-1.2,3.9-3.9,3.9H637.5z M637.2,107.8h17l-5.1-16.5c-0.5-1.3-1.2-1.8-2.1-1.8h-2.7
			c-0.9,0-1.5,0.5-2.1,1.8L637.2,107.8z M646.6,158.6h-1.1v6.4h1.1V158.6z"/>
		<path fill="#F6ECCC" d="M708,146.5c-2.7,0-3.9-1.2-3.9-3.9V89.5h-15.9c-2.7,0-3.9-1.2-3.9-3.9V72.5c0-2.7,1.2-3.9,3.9-3.9h57.2
			c2.7,0,3.9,1.2,3.9,3.9v13.1c0,2.7-1.2,3.9-3.9,3.9h-15.9v53.2c0,2.7-1.2,3.9-3.9,3.9H708z M717.3,136.8V79.4h22.2v-1.1h-45.5v1.1
			h22.2v57.4H717.3z"/>
	</g>
</g>
<g>
	<g>
	</g>
	<g>
		<path fill="#102B33" stroke="#EF9D92" stroke-width="0.5" d="M179.1,340.7v89.1c-17.2,21.5-44.7,32.2-72.3,32.2
			c-27.9,0-55.7-10.9-73.1-32.2v-89.1c17.8-21.4,45.2-32.2,72.7-32.2S161.3,319.3,179.1,340.7z"/>
		<path fill="#102B33" stroke="#EF9D92" stroke-width="0.5" d="M337.9,340.7v89.1c-17.2,21.5-44.7,32.2-72.3,32.2
			c-27.9,0-55.7-10.9-73.1-32.2v-89.1c17.8-21.4,45.2-32.2,72.7-32.2S320.1,319.3,337.9,340.7z"/>
		<path fill="#102B33" stroke="#EF9D92" stroke-width="0.5" d="M496.7,340.7v89.1C479.4,451.3,452,462,424.4,462
			c-27.9,0-55.7-10.9-73.1-32.2v-89.1c17.8-21.4,45.2-32.2,72.7-32.2S478.9,319.3,496.7,340.7z"/>
		<path fill="#102B33" stroke="#EF9D92" stroke-width="0.5" d="M655.4,340.7v89.1c-17.2,21.5-44.7,32.2-72.3,32.2
			c-27.9,0-55.7-10.9-73.1-32.2v-89.1c17.8-21.4,45.2-32.2,72.7-32.2S637.7,319.3,655.4,340.7z"/>
		<path fill="#102B33" stroke="#EF9D92" stroke-width="0.5" d="M814.2,340.7v89.1C797,451.3,769.6,462,742,462
			c-27.9,0-55.7-10.9-73.1-32.2v-89.1c17.8-21.4,45.2-32.2,72.7-32.2S796.5,319.3,814.2,340.7z"/>
	</g>
	<g>
		<g>
			<path fill="#762117" d="M65.5,425.9v-12.3c0-1.9,0.5-3,1.5-3.9l10.5-8.8c-7.4-2.3-11.9-7.1-11.9-17.3v-11
				c0-6.3,2.1-11.2,6.1-14.6l13.6-11.4c3.8-3.1,9.4-4.9,16.6-4.9h34.8c3.4,0,4.8,1.5,4.8,4.8v12.5c0,1.9-0.5,3-1.5,3.9l-9.7,8.1
				c8.6,2,13.9,6.8,13.9,17.8v11c0,6.3-2.1,11.2-6.2,14.6l-13.5,11.3c-3.9,3.2-9.5,5-16.6,5H70.4C67,430.7,65.5,429.3,65.5,425.9z"
				/>
			<path fill="#762117" d="M223.8,406.7V358c0-1.9,0.5-3,1.5-3.9l13.5-11.4c0.7-0.6,1.9-0.9,3.4-0.9h16.4c3.4,0,4.8,1.5,4.8,4.8v9.5
				c0.2-0.8,0.5-1.5,1-1.9l0.1-0.1l13.6-11.4c0.7-0.6,1.8-0.9,3.4-0.9h15.9c3.4,0,4.8,1.5,4.8,4.8v51.9c0,6.5-1.6,12-6.4,16
				l-13.5,11.4c-4.8,4-12.9,6.4-26.1,6.4C229.9,432.3,223.8,419.9,223.8,406.7z"/>
			<path fill="#762117" d="M444.6,429.7c-0.6,0.6-1.8,1-3.2,1h-53.4c-3.4,0-4.8-1.5-4.8-4.8v-12.5c0-1.9,0.5-3,1.5-3.9l13.5-11.4
				c0.6-0.5,1.6-0.8,2.8-0.9v-21.7h-13c-3.4,0-4.8-1.5-4.8-4.8V358c0-1.9,0.5-3,1.5-3.9l13.5-11.4c0.7-0.6,1.9-0.9,3.4-0.9h53.4
				c3.4,0,4.8,1.5,4.8,4.8v12.7c0,1.9-0.5,3-1.5,3.9l-13.6,11.3l0.1-0.1c-0.6,0.6-1.6,1-2.8,1.2v21.7h13c3.4,0,4.8,1.5,4.8,4.8v12.5
				c0,1.9-0.5,3-1.5,3.9L444.6,429.7z"/>
			<path fill="#762117" d="M564.1,430.7c-3.4,0-4.8-1.5-4.8-4.8v-50.4h-14c-3.4,0-4.8-1.5-4.8-4.8V358c0-1.9,0.5-3,1.5-3.9
				l13.5-11.4c0.7-0.6,1.9-0.9,3.4-0.9h55.3c3.4,0,4.8,1.5,4.8,4.8v12.7c0,1.9-0.5,3-1.5,3.9l-13.6,11.3c-0.6,0.6-1.8,1-3.2,1h-0.5
				v39c0,1.9-0.5,3-1.5,3.9L585,429.7c-0.6,0.6-1.8,1-3.2,1H564.1z"/>
			<path fill="#762117" d="M698.7,425.9v-12.3c0-1.9,0.5-3,1.5-3.9l10.5-8.8c-7.4-2.3-11.9-7.1-11.9-17.3v-11
				c0-6.3,2.1-11.2,6.1-14.6l13.6-11.4c3.8-3.1,9.4-4.9,16.6-4.9h34.8c3.4,0,4.8,1.5,4.8,4.8v12.5c0,1.9-0.5,3-1.5,3.9l-9.7,8.1
				c8.6,2,13.9,6.8,13.9,17.8v11c0,6.3-2.1,11.2-6.2,14.6l-13.5,11.3c-3.9,3.2-9.5,5-16.6,5h-37.5
				C700.2,430.7,698.7,429.3,698.7,425.9z"/>
		</g>
		<g>
			<path fill="#DA4226" d="M83.9,418.3c-2.6,0-3.8-1.2-3.8-3.8v-12.3c0-2.6,1.2-3.8,3.8-3.8h32.6c1.8,0,2.7-1.4,2.7-3
				c0-2.4-0.9-3.4-2.7-3.6l-20.1-2.2c-9.8-1.5-16.2-5.7-16.2-17.4v-11c0-11.9,8.1-18.4,21.7-18.4h34.8c2.6,0,3.8,1.2,3.8,3.8v12.5
				c0,2.6-1.2,3.8-3.8,3.8h-29.9c-1.8,0-2.8,1.3-2.8,3.1s1,3.1,2.8,3.4l20,2.1c9.8,1.5,16.3,5.7,16.3,17.4v11
				c0,11.9-8.2,18.4-21.7,18.4H83.9z"/>
			<path fill="#DA4226" d="M269.8,419.8c-25.1,0-31.4-8.6-31.4-21.4v-51.9c0-2.6,1.2-3.8,3.8-3.8h16.4c2.6,0,3.8,1.2,3.8,3.8v47.8
				c0,2.8,1.3,4.9,7.6,4.9c6.5,0,7.8-2.1,7.8-4.9v-47.8c0-2.6,1-3.8,3.8-3.8h15.9c2.6,0,3.8,1.2,3.8,3.8v51.9
				C301.3,411.2,295,419.8,269.8,419.8z"/>
			<path fill="#DA4226" d="M397.6,414.5V402c0-2.6,1.2-3.8,3.8-3.8h14V363h-14c-2.6,0-3.8-1.2-3.8-3.8v-12.7c0-2.6,1.2-3.8,3.8-3.8
				h53.4c2.6,0,3.8,1.2,3.8,3.8v12.7c0,2.6-1.2,3.8-3.8,3.8h-14v35.2h14c2.6,0,3.8,1.2,3.8,3.8v12.5c0,2.6-1.2,3.8-3.8,3.8h-53.4
				C398.8,418.3,397.6,417.1,397.6,414.5z"/>
			<path fill="#DA4226" d="M577.6,418.3c-2.6,0-3.8-1.2-3.8-3.8V363h-15.1c-2.6,0-3.8-1.2-3.8-3.8v-12.7c0-2.6,1.2-3.8,3.8-3.8h55.3
				c2.6,0,3.8,1.2,3.8,3.8v12.7c0,2.6-1.2,3.8-3.8,3.8H599v51.4c0,2.6-1.2,3.8-3.8,3.8H577.6z"/>
			<path fill="#DA4226" d="M717.1,418.3c-2.6,0-3.8-1.2-3.8-3.8v-12.3c0-2.6,1.2-3.8,3.8-3.8h32.6c1.8,0,2.7-1.4,2.7-3
				c0-2.4-0.9-3.4-2.7-3.6l-20.1-2.2c-9.8-1.5-16.2-5.7-16.2-17.4v-11c0-11.9,8.1-18.4,21.7-18.4h34.8c2.6,0,3.8,1.2,3.8,3.8v12.5
				c0,2.6-1.2,3.8-3.8,3.8h-29.9c-1.8,0-2.8,1.3-2.8,3.1s1,3.1,2.8,3.4l20,2.1c9.8,1.5,16.3,5.7,16.3,17.4v11
				c0,11.9-8.2,18.4-21.7,18.4H717.1z"/>
		</g>
		<g>
			<path fill="#EF9D92" d="M130.9,353.3h-28.7c-6,0-9.6,3.2-9.6,8.5v9.6c0,4.2,2.8,7,7.4,7.4l22.3,2.2c6.3,0.6,9.3,3.9,9.3,9.5v8.7
				c0,5.9-4.5,9.5-11.6,9.5H89.5v-1H120c6.5,0,10.6-3.2,10.6-8.5v-8.7c0-5-2.7-8-8.5-8.5l-22.3-2.2c-5.1-0.5-8.3-3.8-8.3-8.5v-9.6
				c0-5.9,4.1-9.5,10.7-9.5h28.7V353.3z"/>
			<path fill="#EF9D92" d="M251,352.3v43.7c0,7.9,4,13.1,18.5,13.1c15.2,0,19.5-5.2,19.5-13.1v-43.7h1v43.7
				c0,8.5-4.5,14.1-20.5,14.1c-15.4,0-19.6-5.7-19.6-14.1v-43.7H251z"/>
			<path fill="#EF9D92" d="M407.1,408.8v-1h20.5v-54.5h-20.5v-1h42.1v1h-20.5v54.5h20.5v1H407.1z"/>
			<path fill="#EF9D92" d="M585.9,353.3h-21.5v-1h44v1H587v55.5h-1V353.3z"/>
			<path fill="#EF9D92" d="M764.1,353.3h-28.7c-6,0-9.6,3.2-9.6,8.5v9.6c0,4.2,2.8,7,7.4,7.4l22.3,2.2c6.3,0.6,9.3,3.9,9.3,9.5v8.7
				c0,5.9-4.5,9.5-11.6,9.5h-30.5v-1h30.5c6.5,0,10.6-3.2,10.6-8.5v-8.7c0-5-2.7-8-8.5-8.5l-22.3-2.2c-5.1-0.5-8.3-3.8-8.3-8.5v-9.6
				c0-5.9,4.1-9.5,10.7-9.5h28.7V353.3z"/>
		</g>
	</g>
</g>
<g>
	<path fill="#432D2C" d="M39.5,563.6c-2.3,0-3.3-1-3.3-3.3v-59.6c0-2.3,1-3.3,3.3-3.3h29.3c12.1,0,17.7,4.4,17.7,14.1v4.4
		c0,5.2-1.7,8.4-5.4,9.9c7.9,0.7,11.6,5.2,11.6,14.3v8.5c0,10.3-5.6,15.1-17.8,15.1H39.5z M56.9,523h7.8c2.4,0,3.5-1.2,3.5-3.7v-2.6
		c0-2.5-1.1-3.7-3.5-3.7h-7.8V523z M56.9,548h12c2.4,0,3.5-1.2,3.5-3.7v-3.6c0-2.5-1.1-3.6-3.5-3.6h-12V548z"/>
	<path fill="#432D2C" d="M140.2,565c-23,0-28.6-7.5-28.6-18.8v-31.4c0-11.2,5.6-18.9,28.6-18.9c23,0,28.5,7.6,28.5,18.9v31.4
		C168.7,557.4,163.2,565,140.2,565z M140.2,547.2c6.7,0,7.7-1.8,7.7-4.3v-24.7c0-2.4-1-4.2-7.7-4.2c-6.6,0-7.7,1.8-7.7,4.2v24.7
		C132.5,545.4,133.6,547.2,140.2,547.2z"/>
	<path fill="#432D2C" d="M218,565c-22.8,0-28.4-7.5-28.4-18.8v-45.5c0-2.3,1-3.3,3.3-3.3h14.4c2.3,0,3.3,1,3.3,3.3v41.9
		c0,2.5,1.1,4.3,7.5,4.3c6.5,0,7.6-1.8,7.6-4.3v-41.9c0-2.3,0.9-3.3,3.3-3.3h14c2.3,0,3.3,1,3.3,3.3v45.5
		C246.4,557.4,240.8,565,218,565z"/>
	<path fill="#432D2C" d="M271.7,563.6c-2.3,0-3.3-1-3.3-3.3v-59.6c0-2.3,1-3.3,3.3-3.3h14.3c2.3,0,3.3,1,3.3,3.3v45.5h12.6v-14.9
		c0-2.3,1-3.3,3.3-3.3h13.3c2.3,0,3.3,1,3.3,3.3v29c0,2.3-1,3.3-3.3,3.3H271.7z"/>
	<path fill="#432D2C" d="M358.3,563.6h-13.5c-2.3,0-3.3-1-3.3-3.3v-45.5c0-11.1,5.1-18.8,27.9-18.8c22.9,0,28.1,7.6,28.1,18.8v45.5
		c0,2.3-1,3.3-3.3,3.3h-14c-2.3,0-3.3-1-3.3-3.3v-13.7h-15.2v13.7C361.6,562.6,360.6,563.6,358.3,563.6z M361.6,529.8h15.2v-11.9
		c0-2.5-1.1-4.3-7.5-4.3c-6.5,0-7.6,1.8-7.6,4.3V529.8z"/>
	<path fill="#432D2C" d="M447.3,496c22.8,0,28.4,7.5,28.4,18.8v45.5c0,2.3-1,3.3-3.3,3.3h-14.4c-2.3,0-3.3-1-3.3-3.3v-41.9
		c0-2.5-1.1-4.3-7.5-4.3c-6.5,0-7.6,1.8-7.6,4.3v41.9c0,2.3-0.9,3.3-3.3,3.3h-14c-2.3,0-3.3-1-3.3-3.3v-45.5
		C418.9,503.5,424.5,496,447.3,496z"/>
	<path fill="#432D2C" d="M519.2,563.6c-15.5,0-22.6-6-22.6-18.8v-28.7c0-12.8,7.2-18.8,22.6-18.8h23c2.3,0,3.3,1,3.3,3.3v11.1
		c0,2.3-1,3.3-3.3,3.3h-19.1c-3.9,0-5.6,1.5-5.6,4.6v22c0,3.1,1.4,4.5,4.2,4.5h8.9v-14.4c0-2.3,1-3.3,3.3-3.3h14.3
		c2.3,0,3.3,1,3.3,3.3v28.4c0,2.3-1,3.3-3.3,3.3H519.2z"/>
	<path fill="#432D2C" d="M617.4,563.6H594c-17.4,0-22.6-7.6-22.6-18.8v-28.6c0-11.2,5.2-18.9,22.6-18.9h23.4c2.3,0,3.3,1,3.3,3.3
		v10.8c0,2.3-1,3.3-3.3,3.3h-20.3c-4.8,0-5.6,2.2-5.6,4.6v2.5H610c2.3,0,3.3,0.9,3.3,3.3v9.8c0,2.3-1,3.3-3.3,3.3h-18.6v3.5
		c0,2.6,0.8,4.4,5.6,4.4h20.3c2.3,0,3.3,1,3.3,3.3v10.8C620.7,562.6,619.7,563.6,617.4,563.6z"/>
	<path fill="#432D2C" d="M644.5,563.6c-2.3,0-3.3-1-3.3-3.3v-59.6c0-2.3,1-3.3,3.3-3.3h30.6c13.8,0,18.1,6.3,18.1,15.4v4.2
		c0,5.2-1.3,8.8-5.2,10.5c6.7,0.7,11.1,5.6,11.1,13.3v19.5c0,2.3-1,3.3-3.3,3.3h-14.3c-2.3,0-3.3-1-3.3-3.3v-14.1c0-2.8-0.9-4-3.5-4
		H662v18c0,2.3-1,3.3-3.3,3.3H644.5z M662,525.7h6.9c3.2,0,4-1.8,4-4.3v-3.1c0-2.5-0.8-4.3-4-4.3H662V525.7z"/>
	<path fill="#432D2C" d="M722.6,563.6c-2.3,0-3.3-1-3.3-3.3v-59.6c0-2.3,1-3.3,3.3-3.3h14.6c2.3,0,3.3,1,3.3,3.3v59.6
		c0,2.3-1,3.3-3.3,3.3H722.6z"/>
	<path fill="#432D2C" d="M808,563.6h-23.4c-17.4,0-22.6-7.6-22.6-18.8v-28.6c0-11.2,5.2-18.9,22.6-18.9H808c2.3,0,3.3,1,3.3,3.3
		v10.8c0,2.3-1,3.3-3.3,3.3h-20.3c-4.8,0-5.6,2.2-5.6,4.6v2.5h18.6c2.3,0,3.3,0.9,3.3,3.3v9.8c0,2.3-1,3.3-3.3,3.3h-18.6v3.5
		c0,2.6,0.8,4.4,5.6,4.4H808c2.3,0,3.3,1,3.3,3.3v10.8C811.3,562.6,810.3,563.6,808,563.6z"/>
</g>
<g>
	<path fill="#27839E" d="M49.6,277c-0.5,0.5-1.3,0.8-2.4,0.8h-12c-2.5,0-3.6-1.1-3.6-3.6v-50.5c0-1.4,0.4-2.3,1.1-2.9l10-8.5
		c0.5-0.5,1.4-0.7,2.5-0.7h25.9c12.4,0,16.1,5.7,16.1,13.8v3.6c0,3.8-0.9,6.7-3,8.5h-0.1c4.9,1.4,8.1,5.5,8.1,11.7v16.5
		c0,1.4-0.4,2.3-1.1,2.9L81.1,277c-0.5,0.5-1.3,0.8-2.4,0.8H66.6c-2.5,0-3.6-1.1-3.6-3.6v-11.9c0-1.7-0.5-2.6-2.2-2.6h-0.1v6
		c0,1.4-0.4,2.3-1.1,2.9L49.6,277z M60,265.7v-15.3h10.9c2.2,0,3,1,3,3.3v11.9c0,1.9,0.9,2.8,2.8,2.8h12.1c1.9,0,2.8-0.9,2.8-2.8
		v-16.5c0-6.5-3.7-10.7-9.4-11.3c3.3-1.4,4.4-4.5,4.4-8.9v-3.6c0-7.7-3.7-13-15.3-13H45.2c-1.9,0-2.8,0.9-2.8,2.8v50.5
		c0,1.9,0.9,2.8,2.8,2.8h12C59.1,268.5,60,267.7,60,265.7z M50.8,261.5v-42.1h17.8c6.1,0,8.9,3.7,8.9,8.9v5.4c0,4.8-0.9,7.9-4.7,9
		h0.9c6.4,0,9.4,2.9,9.4,8.3v10.4h-0.8v-10.4c0-5.1-2.7-7.6-8.6-7.6h-22v18.1H50.8z M51.6,220.2v22.5h17c6.5,0,8.1-3.2,8.1-9v-5.5
		c0-4.8-2.6-8.1-8.1-8.1H51.6z M65.8,226.5c2.7,0,3.4,1.6,3.4,3.7v2.6c0,2.1-0.7,3.7-3.4,3.7H60v-10H65.8z"/>
	<path fill="#27839E" d="M121,279c-20.4,0-25-9.2-25-19v-24.2c0-4.8,1.2-9,4.7-11.9l10.1-8.4c3.7-3.1,9.8-4.9,20.2-4.9
		c20.4,0,24.9,6.9,24.9,16.7v26.6c0,4.8-1.2,8.9-4.7,11.8l-10,8.4C137.6,277.2,131.3,279,121,279z M155.2,227.2
		c0-9.5-4.7-16-24.1-16s-24.2,6.5-24.2,16v26.6c0,9.5,4.8,15.9,24.2,15.9s24.1-6.4,24.1-15.9V227.2z M130.9,262.5
		c-12.2,0-15.7-4.2-15.7-10.5v-23c0-6.3,3.4-10.5,15.7-10.5s15.8,4.2,15.8,10.5v23C146.7,258.3,143.1,262.5,130.9,262.5z
		 M130.9,261.7c11.6,0,15-3.9,15-9.7v-23c0-5.8-3.4-9.7-15-9.7S116,223.2,116,229v23C116,257.9,119.2,261.7,130.9,261.7z M124.5,230
		c0-2,0.9-3.6,6.5-3.6c5.7,0,6.5,1.6,6.5,3.6V251c0,2.1-0.9,3.7-6.5,3.7c-5.6,0-6.5-1.6-6.5-3.7V230z M126.7,253.3v-14.8
		c0-1-0.3-1.8-1.5-2.3V251C125.2,252,125.6,252.8,126.7,253.3z"/>
	<path fill="#27839E" d="M160.6,274.2v-9.1c0-1.4,0.4-2.3,1.1-2.9l7.8-6.5c-5.5-1.7-8.9-5.3-8.9-12.9v-8.2c0-4.7,1.6-8.3,4.5-10.8
		l10.1-8.5c2.8-2.3,7-3.7,12.3-3.7h21.8c2.5,0,3.6,1.1,3.6,3.6v9.3c0,1.4-0.4,2.3-1.1,2.9l-7,5.8c6.6,1.5,10.9,5,10.9,13.4v8.2
		c0,4.7-1.6,8.3-4.6,10.8l-10,8.4c-2.9,2.4-7.1,3.7-12.3,3.7h-24.6C161.7,277.8,160.6,276.7,160.6,274.2z M215,254.8v-8.2
		c0-8.7-4.8-11.8-12.1-12.9l-11.6-1.6c-1.3-0.2-2.1-1.1-2.1-2.5c0-1.4,0.8-2.3,2.1-2.3h18.1c1.9,0,2.8-0.9,2.8-2.8v-9.3
		c0-1.9-0.9-2.8-2.8-2.8h-21.8c-10.1,0-16.1,4.8-16.1,13.7v8.2c0,8.7,4.8,11.8,12.1,12.9l11.7,1.6c1.3,0.2,2,0.9,2,2.6
		c0,1.2-0.7,2.3-2,2.3h-21c-1.9,0-2.8,0.9-2.8,2.8v9.1c0,1.9,0.9,2.8,2.8,2.8h24.6C208.9,268.5,215,263.7,215,254.8z M205.1,220.2
		h-17.3c-4.4,0-7.2,2.6-7.2,6.3v6.4c0,3.7,1.6,4.8,4,5.2l16.4,3.3c3.1,0.6,5.4,2.2,5.4,7.6v4.5c0,4.6-3.3,7.9-8.6,7.9h-19.4v-0.8
		h19.4c4.8,0,7.9-3,7.9-7.1v-4.5c0-4.9-1.9-6.2-4.8-6.9l-16.4-3.3c-2.7-0.5-4.6-1.7-4.6-6v-6.4c0-4.1,3.1-7.1,7.9-7.1h17.3V220.2z"
		/>
	<path fill="#27839E" d="M237.5,277c-0.5,0.5-1.3,0.8-2.4,0.8h-11.4c-2.5,0-3.6-1.1-3.6-3.6v-38.6c0-4.9,1.1-9,4.6-12l10.1-8.4
		c3.5-3,9.5-4.8,19.7-4.8c20.3,0,24.5,6.9,24.5,16.7v38.6c0,1.4-0.4,2.3-1.1,2.9l-10.1,8.4c-0.5,0.5-1.3,0.8-2.4,0.8h-11.8
		c-2.5,0-3.6-1.1-3.6-3.6v-10.8h-1.2v2.3c0,1.4-0.4,2.3-1.1,2.9L237.5,277z M247.9,254.1h12.9v11.6c0,1.9,0.9,2.8,2.8,2.8h11.8
		c1.9,0,2.8-0.9,2.8-2.8v-38.6c0-9.4-4.4-15.9-23.8-15.9c-19.3,0-23.6,6.5-23.6,15.9v38.6c0,1.9,0.9,2.8,2.8,2.8h11.4
		c1.9,0,2.8-0.9,2.8-2.8V254.1z M269.1,247.4h-28.9v14.1h-0.8V229c0-6.3,2.9-10.5,15.1-10.5c12.2,0,15.3,4.2,15.3,10.5v32.5h-0.8
		V247.4z M240.2,246.6h28.9V229c0-5.8-3-9.7-14.6-9.7c-11.6,0-14.3,3.9-14.3,9.7V246.6z M254.4,226.2c5.5,0,6.4,1.6,6.4,3.7v10
		h-12.9v-10C247.9,227.7,248.8,226.2,254.4,226.2z M248.7,236v3h1.2v-0.8C249.9,237.4,249.6,236.6,248.7,236z"/>
	<path fill="#27839E" d="M285.2,239.9v-2.3c0-1.1,0.3-1.8,0.9-2.3l1.6-1.4h-0.5c-1.9,0-2.8-0.9-2.8-2.8V223c0-1.1,0.3-1.8,0.9-2.3
		l10-8.5c0.5-0.5,1.2-0.5,1.9-0.5h11.4c1.9,0,2.8,0.9,2.8,2.8V225c0,3.3-1.1,5.8-3,7.3l-10,8.5c-1.5,1.2-3.7,1.9-6.2,1.9H288
		C286.1,242.7,285.2,241.9,285.2,239.9z M310.6,225v-10.5c0-1.4-0.6-2-2-2h-11.4c-1.4,0-1.9,0.6-1.9,2v8.3c0,1.4,0.5,2,1.9,2h6.2
		v0.9c0,1-0.5,1.6-1.6,1.6H298c-1.4,0-2,0.6-2,2v2.3c0,1.5,0.6,2,2,2h4.3C307.3,233.5,310.6,230.8,310.6,225z M306.8,218.2v6.7
		c0,3-1.3,5.8-4.4,5.8h-3.2v-0.8h3.2c2.6,0,3.6-2.4,3.6-5V219h-6.9v-0.8H306.8z"/>
	<path fill="#27839E" d="M315,274.2v-9.1c0-1.4,0.4-2.3,1.1-2.9l7.8-6.5c-5.5-1.7-8.9-5.3-8.9-12.9v-8.2c0-4.7,1.6-8.3,4.5-10.8
		l10.1-8.5c2.8-2.3,7-3.7,12.3-3.7h21.8c2.5,0,3.6,1.1,3.6,3.6v9.3c0,1.4-0.4,2.3-1.1,2.9l-7,5.8c6.6,1.5,10.9,5,10.9,13.4v8.2
		c0,4.7-1.6,8.3-4.6,10.8l-10,8.4c-2.9,2.4-7.1,3.7-12.3,3.7h-24.6C316.1,277.8,315,276.7,315,274.2z M369.4,254.8v-8.2
		c0-8.7-4.8-11.8-12.1-12.9l-11.6-1.6c-1.3-0.2-2.1-1.1-2.1-2.5c0-1.4,0.8-2.3,2.1-2.3h18.1c1.9,0,2.8-0.9,2.8-2.8v-9.3
		c0-1.9-0.9-2.8-2.8-2.8H342c-10.1,0-16.1,4.8-16.1,13.7v8.2c0,8.7,4.8,11.8,12.1,12.9l11.7,1.6c1.3,0.2,2,0.9,2,2.6
		c0,1.2-0.7,2.3-2,2.3h-21c-1.9,0-2.8,0.9-2.8,2.8v9.1c0,1.9,0.9,2.8,2.8,2.8h24.6C363.3,268.5,369.4,263.7,369.4,254.8z
		 M359.6,220.2h-17.3c-4.4,0-7.2,2.6-7.2,6.3v6.4c0,3.7,1.6,4.8,4,5.2l16.4,3.3c3.1,0.6,5.4,2.2,5.4,7.6v4.5c0,4.6-3.3,7.9-8.6,7.9
		h-19.4v-0.8h19.4c4.8,0,7.9-3,7.9-7.1v-4.5c0-4.9-1.9-6.2-4.8-6.9l-16.4-3.3c-2.7-0.5-4.6-1.7-4.6-6v-6.4c0-4.1,3.1-7.1,7.9-7.1
		h17.3V220.2z"/>
	<path fill="#27839E" d="M403.7,277.8c-2.5,0-3.6-1.1-3.6-3.6v-50.5c0-1.4,0.4-2.3,1.1-2.9l10-8.5c0.5-0.5,1.4-0.7,2.5-0.7h12.1
		c2.5,0,3.6,1.1,3.6,3.6v31.7l0.2-0.2l10-8.5c0.5-0.5,1.4-0.7,2.5-0.7h11.3c2.5,0,3.6,1.1,3.6,3.6v24.5c0,1.4-0.4,2.3-1.1,2.9
		l-10.1,8.4c-0.5,0.5-1.3,0.8-2.4,0.8H403.7z M456.2,265.7v-24.5c0-1.9-0.9-2.8-2.8-2.8h-11.3c-1.9,0-2.8,0.9-2.8,2.8v12.6h-10.7
		v-38.6c0-1.9-0.9-2.8-2.8-2.8h-12.1c-1.9,0-2.8,0.9-2.8,2.8v50.5c0,1.9,0.9,2.8,2.8,2.8h39.6C455.4,268.5,456.2,267.7,456.2,265.7z
		 M419.5,219.5h0.8v41.3h27.1v-15.3h0.8v16.1h-28.7V219.5z"/>
	<path fill="#27839E" d="M465.7,277.8c-2.5,0-3.6-1.1-3.6-3.6v-50.5c0-1.4,0.4-2.3,1.1-2.9l10-8.5c0.5-0.5,1.4-0.7,2.5-0.7h12.4
		c2.5,0,3.6,1.1,3.6,3.6v50.5c0,1.4-0.4,2.3-1.1,2.9l-10.1,8.4c-0.5,0.5-1.3,0.8-2.4,0.8H465.7z M490.9,265.7v-50.5
		c0-1.9-0.9-2.8-2.8-2.8h-12.4c-1.9,0-2.8,0.9-2.8,2.8v50.5c0,1.9,0.9,2.8,2.8,2.8h12.4C490.1,268.5,490.9,267.7,490.9,265.7z
		 M482.4,219.5v42.1h-0.8v-42.1H482.4z"/>
	<path fill="#27839E" d="M516.8,284.8c-2.5,0-3.6-1.1-3.6-3.6v-3.6c-12.1-2-15.3-10.3-15.3-18.4v-23.5c0-4.8,1.2-9,4.7-11.9
		l10.1-8.4c3.7-3.1,9.8-4.9,20.2-4.9c20.4,0,24.9,6.9,24.9,16.7v25.9c0,4.8-1.2,8.9-4.7,11.8l-10,8.4c-0.3,0.2-0.5,0.5-0.9,0.6
		c-0.2,0.8-0.5,1.2-0.9,1.6l-10.1,8.4c-0.5,0.5-1.3,0.8-2.4,0.8H516.8z M541.6,272.7v-4.3c12.2-1.7,15.4-7.5,15.4-15.3v-25.9
		c0-9.5-4.7-16-24.1-16c-19.5,0-24.2,6.5-24.2,16v25.9c0,7.9,3.3,13.6,15.3,15.3v4.3c0,1.9,0.9,2.8,2.8,2.8h12
		C540.8,275.5,541.6,274.7,541.6,272.7z M532.4,262.5c-11.9-0.1-15.3-4.3-15.3-10.5v-23c0-6.3,3.4-10.5,15.7-10.5
		s15.8,4.2,15.8,10.5v23c0,6.2-3.5,10.4-15.4,10.5v6h-0.8V262.5z M532.8,261.7c11.6,0,15-3.9,15-9.7v-23c0-5.8-3.4-9.7-15-9.7
		s-14.9,3.9-14.9,9.7v23C517.9,257.9,521.2,261.7,532.8,261.7z M526.4,230.1c0-2,0.9-3.6,6.5-3.6c5.7,0,6.5,1.6,6.5,3.6v21.3
		c0,2.1-0.9,3.7-6.5,3.7c-5.6,0-6.5-1.6-6.5-3.7V230.1z M528.6,253.7v-15.1c0-1-0.3-1.8-1.5-2.3v15
		C527.2,252.4,527.5,253.2,528.6,253.7z"/>
	<path fill="#27839E" d="M563.5,260v-36.2c0-1.4,0.4-2.3,1.1-2.9l10-8.5c0.5-0.5,1.4-0.7,2.5-0.7h12.2c2.5,0,3.6,1.1,3.6,3.6v35.5
		c0,0.9,0.2,1.7,1.2,2.2v-29.2c0-1.4,0.3-2.3,0.9-2.8l0.1-0.1l10.1-8.5c0.5-0.5,1.3-0.7,2.5-0.7h11.8c2.5,0,3.6,1.1,3.6,3.6v38.6
		c0,4.8-1.2,8.9-4.7,11.8l-10.1,8.4c-3.7,3.1-9.8,4.9-20.1,4.9C568.1,279,563.5,269.8,563.5,260z M622.5,215.3
		c0-1.9-0.9-2.8-2.8-2.8h-11.8c-2,0-2.8,0.9-2.8,2.8v35.5c0,2.1-0.9,3.7-6.5,3.7c-5.5,0-6.4-1.6-6.4-3.7v-35.5
		c0-1.9-0.9-2.8-2.8-2.8h-12.2c-1.9,0-2.8,0.9-2.8,2.8v38.6c0,9.5,4.8,15.9,24.1,15.9s24.1-6.4,24.1-15.9V215.3z M583.7,219.5v32.5
		c0,5.8,3.2,9.7,14.8,9.7s14.9-3.9,14.9-9.7v-32.5h0.8v32.5c0,6.3-3.4,10.5-15.7,10.5s-15.6-4.2-15.6-10.5v-32.5H583.7z"/>
	<path fill="#27839E" d="M653.9,279c-20.4,0-25-9.2-25-19v-24.2c0-4.8,1.2-9,4.7-11.9l10.1-8.4c3.7-3.1,9.8-4.9,20.2-4.9
		c20.4,0,24.9,6.9,24.9,16.7v26.6c0,4.8-1.2,8.9-4.7,11.8l-10,8.4C670.5,277.2,664.3,279,653.9,279z M688.1,227.2
		c0-9.5-4.7-16-24.1-16s-24.2,6.5-24.2,16v26.6c0,9.5,4.8,15.9,24.2,15.9s24.1-6.4,24.1-15.9V227.2z M663.8,262.5
		c-12.2,0-15.7-4.2-15.7-10.5v-23c0-6.3,3.4-10.5,15.7-10.5c12.2,0,15.8,4.2,15.8,10.5v23C679.6,258.3,676.1,262.5,663.8,262.5z
		 M663.8,261.7c11.6,0,15-3.9,15-9.7v-23c0-5.8-3.4-9.7-15-9.7c-11.6,0-14.9,3.9-14.9,9.7v23C649,257.9,652.2,261.7,663.8,261.7z
		 M657.4,230c0-2,0.9-3.6,6.5-3.6c5.7,0,6.5,1.6,6.5,3.6V251c0,2.1-0.9,3.7-6.5,3.7c-5.6,0-6.5-1.6-6.5-3.7V230z M659.7,253.3v-14.8
		c0-1-0.3-1.8-1.5-2.3V251C658.2,252,658.5,252.8,659.7,253.3z"/>
	<path fill="#27839E" d="M713,277c-0.5,0.5-1.3,0.8-2.4,0.8h-12c-2.5,0-3.6-1.1-3.6-3.6v-50.5c0-1.4,0.4-2.3,1.1-2.9l10-8.5
		c0.5-0.5,1.4-0.7,2.5-0.7h25.9c12.4,0,16.1,5.7,16.1,13.8v3.6c0,3.8-0.9,6.7-3,8.5h-0.1c4.9,1.4,8.1,5.5,8.1,11.7v16.5
		c0,1.4-0.4,2.3-1.1,2.9l-10.1,8.4c-0.5,0.5-1.3,0.8-2.4,0.8H730c-2.5,0-3.6-1.1-3.6-3.6v-11.9c0-1.7-0.5-2.6-2.2-2.6h-0.1v6
		c0,1.4-0.4,2.3-1.1,2.9L713,277z M723.4,265.7v-15.3h10.9c2.2,0,3,1,3,3.3v11.9c0,1.9,0.9,2.8,2.8,2.8h12.1c1.9,0,2.8-0.9,2.8-2.8
		v-16.5c0-6.5-3.7-10.7-9.4-11.3c3.3-1.4,4.4-4.5,4.4-8.9v-3.6c0-7.7-3.7-13-15.3-13h-25.9c-1.9,0-2.8,0.9-2.8,2.8v50.5
		c0,1.9,0.9,2.8,2.8,2.8h12C722.5,268.5,723.4,267.7,723.4,265.7z M714.2,261.5v-42.1H732c6.1,0,8.9,3.7,8.9,8.9v5.4
		c0,4.8-0.9,7.9-4.7,9h0.9c6.4,0,9.4,2.9,9.4,8.3v10.4h-0.8v-10.4c0-5.1-2.7-7.6-8.6-7.6h-22v18.1H714.2z M715,220.2v22.5h17
		c6.5,0,8.1-3.2,8.1-9v-5.5c0-4.8-2.6-8.1-8.1-8.1H715z M729.2,226.5c2.7,0,3.4,1.6,3.4,3.7v2.6c0,2.1-0.7,3.7-3.4,3.7h-5.8v-10
		H729.2z"/>
	<path fill="#27839E" d="M759.2,274.2v-9.1c0-1.4,0.4-2.3,1.1-2.9l7.8-6.5c-5.5-1.7-8.9-5.3-8.9-12.9v-8.2c0-4.7,1.6-8.3,4.5-10.8
		l10.1-8.5c2.8-2.3,7-3.7,12.3-3.7H808c2.5,0,3.6,1.1,3.6,3.6v9.3c0,1.4-0.4,2.3-1.1,2.9l-7,5.8c6.6,1.5,10.9,5,10.9,13.4v8.2
		c0,4.7-1.6,8.3-4.6,10.8l-10,8.4c-2.9,2.4-7.1,3.7-12.3,3.7h-24.6C760.3,277.8,759.2,276.7,759.2,274.2z M813.6,254.8v-8.2
		c0-8.7-4.8-11.8-12.1-12.9l-11.6-1.6c-1.3-0.2-2.1-1.1-2.1-2.5c0-1.4,0.8-2.3,2.1-2.3H808c1.9,0,2.8-0.9,2.8-2.8v-9.3
		c0-1.9-0.9-2.8-2.8-2.8h-21.8c-10.1,0-16.1,4.8-16.1,13.7v8.2c0,8.7,4.8,11.8,12.1,12.9l11.7,1.6c1.3,0.2,2,0.9,2,2.6
		c0,1.2-0.7,2.3-2,2.3h-20.9c-1.9,0-2.8,0.9-2.8,2.8v9.1c0,1.9,0.9,2.8,2.8,2.8h24.6C807.5,268.5,813.6,263.7,813.6,254.8z
		 M803.8,220.2h-17.3c-4.4,0-7.2,2.6-7.2,6.3v6.4c0,3.7,1.6,4.8,4,5.2l16.4,3.3c3.1,0.6,5.4,2.2,5.4,7.6v4.5c0,4.6-3.3,7.9-8.6,7.9
		h-19.4v-0.8h19.4c4.8,0,7.9-3,7.9-7.1v-4.5c0-4.9-1.9-6.2-4.8-6.9l-16.4-3.3c-2.7-0.5-4.6-1.7-4.6-6v-6.4c0-4.1,3.1-7.1,7.9-7.1
		h17.3V220.2z"/>
</g>
<g>
	<path fill="#27839E" d="M928.3,226.5h-33.2c-23.9,0-34.8-9.4-34.8-29.1v-42.3c0-19.8,10.9-29.2,34.8-29.2h33.2
		c4.3,0,6.3,1.9,6.3,6.3v16.4c0,4.3-1.9,6.3-6.3,6.3H901c-4.6,0-6.9,1.6-6.9,5.4v32.3c0,3.8,2.4,5.2,6.9,5.2h27.3
		c4.3,0,6.3,1.9,6.3,6.3v16.2C934.6,224.6,932.7,226.5,928.3,226.5z"/>
	<path fill="#27839E" d="M1032.1,199.5c0,17.1-7.9,29.1-43.5,29.1c-35.6,0-43.6-12-43.6-29.1v-46.3c0-17.1,8-29.2,43.6-29.2
		c35.6,0,43.5,12.1,43.5,29.2V199.5z M978.6,194.6c0,3.3,2.3,5,10.1,5s10.1-1.8,10.1-5V158c0-3.1-2.3-4.9-10.1-4.9
		c-7.6,0-10.1,1.8-10.1,4.9V194.6z"/>
	<path fill="#27839E" d="M1113.1,226.5H1080c-23.9,0-34.8-9.4-34.8-29.1v-42.3c0-19.8,10.9-29.2,34.8-29.2h33.2
		c4.3,0,6.3,1.9,6.3,6.3v16.4c0,4.3-1.9,6.3-6.3,6.3h-27.3c-4.6,0-6.9,1.6-6.9,5.4v32.3c0,3.8,2.4,5.2,6.9,5.2h27.3
		c4.3,0,6.3,1.9,6.3,6.3v16.2C1119.4,224.6,1117.5,226.5,1113.1,226.5z"/>
	<path fill="#27839E" d="M1138.3,226.5c-4.3,0-6.3-1.9-6.3-6.3v-88.1c0-4.3,1.9-6.3,6.3-6.3h21.1c4.3,0,6.3,1.9,6.3,6.3v29.9h3.3
		l13.6-30.8c1.6-3.8,3.8-5.3,8-5.3h20.9c4.5,0,6,2.3,4.2,6.4l-13,29.9c9.8,1.4,16,8.7,16,19.7v38.3c0,4.3-1.9,6.3-6.3,6.3h-20.9
		c-4.3,0-6.3-1.9-6.3-6.3v-26.5c0-2-1-3.3-3-3.3h-16.6v29.8c0,4.3-1.9,6.3-6.3,6.3H1138.3z"/>
	<path fill="#27839E" d="M1249.3,220.3v-65.4h-18.6c-4.3,0-6.3-1.9-6.3-6.3v-16.4c0-4.3,1.9-6.3,6.3-6.3h71.8c4.3,0,6.3,1.9,6.3,6.3
		v16.4c0,4.3-1.9,6.3-6.3,6.3h-18.6v65.4c0,4.3-1.9,6.3-6.3,6.3h-22C1251.2,226.5,1249.3,224.6,1249.3,220.3z"/>
	<path fill="#27839E" d="M1317.1,220.3V153c0-17,7.2-29.1,42.5-29.1c35.5,0,42.8,12.1,42.8,29.1v67.3c0,4.3-1.9,6.3-6.3,6.3h-20.7
		c-4.3,0-6.3-1.9-6.3-6.3v-18.9h-19.7v18.9c0,4.3-1.9,6.3-6.3,6.3h-20C1319,226.5,1317.1,224.6,1317.1,220.3z M1349.6,173.8h19.7
		v-16.2c0-3.3-2.3-5-9.8-5c-7.6,0-9.9,1.8-9.9,5V173.8z"/>
	<path fill="#27839E" d="M1445.8,226.5h-21.6c-4.3,0-6.3-1.9-6.3-6.3v-88.1c0-4.3,1.9-6.3,6.3-6.3h21.6c4.3,0,6.3,1.9,6.3,6.3v88.1
		C1452,224.6,1450.1,226.5,1445.8,226.5z"/>
	<path fill="#27839E" d="M1468.2,220.3v-88.1c0-4.3,1.9-6.3,6.3-6.3h21.1c4.3,0,6.3,1.9,6.3,6.3v65.4h33.3c4.3,0,6.3,1.9,6.3,6.3
		v16.4c0,4.3-1.9,6.3-6.3,6.3h-60.6C1470.1,226.5,1468.2,224.6,1468.2,220.3z"/>
	<path fill="#27839E" d="M1597.9,226.5h-42.9c-4.3,0-6.3-1.9-6.3-6.3v-15.9c0-4.3,1.9-6.3,6.3-6.3h36.6c1.5,0,2.2-1.2,2.2-2.6
		c0-2-0.7-3.1-2.3-3.3l-20.4-2.9c-13.6-2-22.3-7.9-22.3-23.9v-14.3c0-16.3,10.9-25.3,29.5-25.3h38.1c4.3,0,6.3,1.9,6.3,6.3v16.2
		c0,4.3-1.9,6.3-6.3,6.3h-31.7c-1.5,0-2.3,1.2-2.3,2.7c0,1.6,0.8,2.9,2.4,3l20.2,2.7c13.6,2,22.4,7.9,22.4,23.9v14.3
		C1627.3,217.5,1616.3,226.5,1597.9,226.5z"/>
	<path fill="#92CAD3" d="M895.2,225.3c-22.8,0-33.4-8.8-33.4-27.7v-42.3c0-19,10.6-27.9,33.4-27.9h33.2c3.4,0,4.9,1.5,4.9,4.9v16.4
		c0,3.4-1.5,4.9-4.9,4.9H901c-5.7,0-8.3,2.2-8.3,6.8v32.3c0,4.5,2.6,6.5,8.3,6.5h27.3c3.4,0,4.9,1.5,4.9,4.9v16.2
		c0,3.4-1.5,4.9-4.9,4.9H895.2z"/>
	<path fill="#92CAD3" d="M988.6,227.3c-34,0-42.3-11.1-42.3-27.7v-46.3c0-16.6,8.3-27.9,42.3-27.9s42.1,11.3,42.1,27.9v46.3
		C1030.8,216.1,1022.6,227.3,988.6,227.3z M988.6,201.1c9.9,0,11.4-2.7,11.4-6.4v-36.6c0-3.5-1.5-6.3-11.4-6.3
		c-9.8,0-11.4,2.7-11.4,6.3v36.6C977.2,198.3,978.9,201.1,988.6,201.1z"/>
	<path fill="#92CAD3" d="M1080,225.3c-22.8,0-33.4-8.8-33.4-27.7v-42.3c0-19,10.6-27.9,33.4-27.9h33.2c3.4,0,4.9,1.5,4.9,4.9v16.4
		c0,3.4-1.5,4.9-4.9,4.9h-27.3c-5.7,0-8.3,2.2-8.3,6.8v32.3c0,4.5,2.6,6.5,8.3,6.5h27.3c3.4,0,4.9,1.5,4.9,4.9v16.2
		c0,3.4-1.5,4.9-4.9,4.9H1080z"/>
	<path fill="#92CAD3" d="M1138.3,225.3c-3.4,0-4.9-1.5-4.9-4.9v-88.1c0-3.4,1.5-4.9,4.9-4.9h21.1c3.4,0,4.9,1.5,4.9,4.9v31.3h5.4
		l14-31.7c1.4-3.3,3.3-4.5,6.8-4.5h20.9c3.1,0,4.2,1.6,3,4.5l-13.9,31.7c10.2,0.5,16.7,7.6,16.7,18.5v38.3c0,3.4-1.5,4.9-4.9,4.9
		h-20.9c-3.4,0-4.9-1.5-4.9-4.9v-26.5c0-3-1.5-4.6-4.3-4.6h-17.9v31.1c0,3.4-1.5,4.9-4.9,4.9H1138.3z"/>
	<path fill="#92CAD3" d="M1255.5,225.3c-3.4,0-4.9-1.5-4.9-4.9v-66.7h-20c-3.4,0-4.9-1.5-4.9-4.9v-16.4c0-3.4,1.5-4.9,4.9-4.9h71.8
		c3.4,0,4.9,1.5,4.9,4.9v16.4c0,3.4-1.5,4.9-4.9,4.9h-20v66.7c0,3.4-1.5,4.9-4.9,4.9H1255.5z"/>
	<path fill="#92CAD3" d="M1343.3,225.3h-20c-3.4,0-4.9-1.5-4.9-4.9v-67.3c0-16.4,7.5-27.7,41.2-27.7c33.8,0,41.4,11.3,41.4,27.7
		v67.3c0,3.4-1.5,4.9-4.9,4.9h-20.7c-3.4,0-4.9-1.5-4.9-4.9v-20.2h-22.4v20.2C1348.2,223.8,1346.7,225.3,1343.3,225.3z
		 M1348.2,175.2h22.4v-17.5c0-3.7-1.6-6.4-11.1-6.4c-9.6,0-11.3,2.7-11.3,6.4V175.2z"/>
	<path fill="#92CAD3" d="M1424.2,225.3c-3.4,0-4.9-1.5-4.9-4.9v-88.1c0-3.4,1.5-4.9,4.9-4.9h21.6c3.4,0,4.9,1.5,4.9,4.9v88.1
		c0,3.4-1.5,4.9-4.9,4.9H1424.2z"/>
	<path fill="#92CAD3" d="M1500.4,132.3V199h34.7c3.4,0,4.9,1.5,4.9,4.9v16.4c0,3.4-1.5,4.9-4.9,4.9h-60.6c-3.4,0-4.9-1.5-4.9-4.9
		v-88.1c0-3.4,1.5-4.9,4.9-4.9h21.1C1498.9,127.4,1500.4,128.9,1500.4,132.3z"/>
	<path fill="#92CAD3" d="M1554.9,225.3c-3.4,0-4.9-1.5-4.9-4.9v-15.9c0-3.4,1.5-4.9,4.9-4.9h36.6c2.3,0,3.5-1.8,3.5-3.9
		c0-3.1-1.2-4.3-3.5-4.6l-20.4-2.9c-12.8-1.9-21.1-7.3-21.1-22.6v-14.3c0-15.5,10.5-23.9,28.1-23.9h38.1c3.4,0,4.9,1.5,4.9,4.9v16.2
		c0,3.4-1.5,4.9-4.9,4.9h-31.7c-2.3,0-3.7,1.6-3.7,4.1s1.4,4.1,3.7,4.3l20.2,2.7c12.8,1.9,21.2,7.3,21.2,22.6v14.3
		c0,15.5-10.6,23.9-28.1,23.9H1554.9z"/>
	<path fill="#144A56" d="M920.8,213.1h-22.7c-17.7,0-21.7-4.9-21.7-17.5v-38.1c0-12.9,4.3-17.8,21.7-17.8h22.7v1.4h-22.7
		c-16,0-20.4,4.3-20.4,16.4v38.1c0,11.8,4.1,16.2,20.4,16.2h22.7V213.1z"/>
	<path fill="#144A56" d="M988.4,214.9c-21.3,0-27.3-7.3-27.3-18.3v-40.1c0-11,6-18.3,27.3-18.3c21.3,0,27.6,7.3,27.6,18.3v40.1
		C1016,207.6,1009.7,214.9,988.4,214.9z M988.4,213.5c20.2,0,26.2-6.8,26.2-17v-40.1c0-10.2-6-17-26.2-17c-20.2,0-26,6.8-26,17v40.1
		C962.4,206.7,968.1,213.5,988.4,213.5z"/>
	<path fill="#144A56" d="M1105.7,213.1H1083c-17.7,0-21.7-4.9-21.7-17.5v-38.1c0-12.9,4.3-17.8,21.7-17.8h22.7v1.4H1083
		c-16,0-20.4,4.3-20.4,16.4v38.1c0,11.8,4.1,16.2,20.4,16.2h22.7V213.1z"/>
	<path fill="#144A56" d="M1148.2,213.1v-73.4h1.4v36.1h29.5l15.6-36.1h1.5l-15.6,36.1h5.6c11.1,0,16.4,3.8,16.4,13.3v23.9h-1.4
		v-23.9c0-8.7-5-12-15.1-12h-36.6v35.9H1148.2z"/>
	<path fill="#144A56" d="M1265.9,141.1H1238v-1.4h57.1v1.4h-27.9v72h-1.4V141.1z"/>
	<path fill="#144A56" d="M1385.2,188.5h-50.4v24.6h-1.4v-56.7c0-11,5-18.3,26.4-18.3c21.3,0,26.8,7.3,26.8,18.3v56.7h-1.4V188.5z
		 M1334.8,187.2h50.4v-30.7c0-10.2-5.2-17-25.4-17c-20.2,0-25,6.8-25,17V187.2z"/>
	<path fill="#144A56" d="M1435.7,139.7v73.4h-1.4v-73.4H1435.7z"/>
	<path fill="#144A56" d="M1485.7,139.7v72h42v1.4h-43.4v-73.4H1485.7z"/>
	<path fill="#144A56" d="M1608.9,141.1h-30.2c-7.6,0-12.5,4.6-12.5,11v11.1c0,6.4,2.7,8.3,6.9,9.1l28.7,5.8
		c5.4,1.1,9.4,3.8,9.4,13.3v7.9c0,8-5.8,13.7-15.1,13.7h-33.8v-1.4h33.8c8.4,0,13.7-5.2,13.7-12.4v-7.9c0-8.6-3.3-10.9-8.3-12
		l-28.7-5.8c-4.8-1-8-3-8-10.5v-11.1c0-7.2,5.4-12.4,13.9-12.4h30.2V141.1z"/>
</g>
<g>
	<path fill="#DC4227" stroke="#ECDFC1" d="M821.2,940.2c1.2-1.4,1.2-3.6,0-5l-14.5-17.4c-0.6-0.7-0.7-1.9-0.4-2.8l10.5-26.8
		c0.6-1.3-0.5-2.8-1.8-2.6l-15.7,1.8c-3,0.4-3.5,0.4-5.4,0.4h-4.8h-84.9h-7.4H612h-7.4h-84.9h-7.4h-84.9h-7.4h-84.9h-7.4H243h-7.4
		h-84.9h-7.4H58.5h-4.8c-1.8,0-2.4,0-5.4-0.4l-15.7-1.8c-1.4-0.2-2.4,1.3-1.8,2.6L41.3,915c0.4,0.8,0.3,2-0.4,2.8l-14.5,17.4
		c-1.2,1.4-1.2,3.6,0,5l14.5,17.4c0.6,0.7,0.8,1.9,0.4,2.8l-10.5,26.8c-0.6,1.3,0.5,2.8,1.8,2.6l15.7-1.8c3-0.4,3.5-0.4,5.4-0.4h4.8
		h84.9h7.4h84.9h7.4h84.9h7.4h84.9h7.4h84.9h7.4h84.9h7.4h84.9h7.4h84.9h4.8c1.8,0,2.4,0,5.4,0.4l15.7,1.8c1.4,0.2,2.4-1.3,1.8-2.6
		l-10.5-26.8c-0.5-0.8-0.3-2,0.4-2.8L821.2,940.2z"/>
	<g>
		<path fill="#ECDFC1" d="M84,969.5v-62.2h26.3c9,0,13.1,5.5,13.1,13.1v8c0,7-1.4,11.6-6.9,13.4h1.3c9.4,0,13.9,4.3,13.9,12.3v15.4
			h-1.2V954c0-7.6-4-11.3-12.8-11.3H85.2v26.7H84z M85.2,908.4v33.3h25.1c9.6,0,12-4.7,12-13.3v-8.1c0-7.1-3.8-12-12-12H85.2z"/>
		<path fill="#ECDFC1" d="M207.5,948.6h-42.8v20.9h-1.2v-48.1c0-9.3,4.3-15.6,22.4-15.6s22.7,6.2,22.7,15.6v48.1h-1.2V948.6z
			 M164.7,947.4h42.8v-26c0-8.6-4.4-14.4-21.5-14.4s-21.2,5.8-21.2,14.4V947.4z"/>
		<path fill="#ECDFC1" d="M262.7,969.5v-23.3c-17.6-0.1-22.5-6.3-22.5-15.6v-23.4h1.2v23.4c0,8.6,4.7,14.4,21.9,14.4s22-5.8,22-14.4
			v-23.4h1.2v23.4c0,9.3-5.1,15.6-22.6,15.6v23.3H262.7z"/>
		<path fill="#ECDFC1" d="M310.3,905.4h11.3v9.9c0,4.5-2,8.5-6.5,8.5h-4.7v-1.2h4.7c3.8,0,5.3-3.6,5.3-7.4v-8.8h-10.1V905.4z"/>
		<path fill="#ECDFC1" d="M382.4,908.4h-25.6c-6.5,0-10.6,3.9-10.6,9.3v9.4c0,5.4,2.3,7,5.9,7.7l24.3,5c4.6,0.9,8,3.2,8,11.3v6.7
			c0,6.8-5,11.6-12.8,11.6h-28.7v-1.2h28.7c7.1,0,11.6-4.4,11.6-10.5v-6.7c0-7.3-2.8-9.2-7-10.1l-24.3-5c-4-0.8-6.8-2.5-6.8-8.9
			v-9.4c0-6.1,4.6-10.5,11.8-10.5h25.6V908.4z"/>
		<path fill="#ECDFC1" d="M442.2,907.2h27.9c15.7,0,18.4,7.1,18.4,16v30.5c0,8.9-2.5,15.7-18.4,15.7h-27.9V907.2z M443.4,908.4v59.9
			h26.7c14.8,0,17.3-6.1,17.3-14.5v-30.5c0-8.4-2.8-14.9-17.3-14.9H443.4z"/>
		<path fill="#ECDFC1" d="M523.9,907.2v62.2h-1.2v-62.2H523.9z"/>
		<path fill="#ECDFC1" d="M603.7,969.5v-48.1c0-8.6-4.7-14.4-21.9-14.4s-22,5.8-22,14.4v48.1h-1.2v-48.1c0-9.3,5.1-15.6,23.2-15.6
			s23,6.2,23,15.6v48.1H603.7z"/>
		<path fill="#ECDFC1" d="M677.2,969.5h-21c-15,0-18.4-4.1-18.4-14.9v-32.3c0-10.9,3.7-15.1,18.4-15.1h21v1.2h-21
			c-13.6,0-17.3,3.7-17.3,13.9v15h30.2v1.2h-30.2v16.1c0,10,3.5,13.7,17.3,13.7h21V969.5z"/>
		<path fill="#ECDFC1" d="M707.8,969.5v-62.2h26.3c9,0,13.1,5.5,13.1,13.1v8c0,7-1.4,11.6-6.9,13.4h1.3c9.4,0,13.9,4.3,13.9,12.3
			v15.4h-1.2V954c0-7.6-4-11.3-12.8-11.3H709v26.7H707.8z M709,908.4v33.3h25.1c9.6,0,12-4.7,12-13.3v-8.1c0-7.1-3.8-12-12-12H709z"
			/>
	</g>
</g>
<g>
	<path fill="#DA4226" d="M859.1,85.6V31c0-2.7,1.2-3.9,3.9-3.9H876c2.7,0,3.9,1.2,3.9,3.9v17.4h12.4V31c0-2.7,1.2-3.9,3.9-3.9h13.1
		c2.7,0,3.9,1.2,3.9,3.9v54.6c0,2.7-1.2,3.9-3.9,3.9h-13.1c-2.7,0-3.9-1.2-3.9-3.9V67.7h-12.4v17.9c0,2.7-1.2,3.9-3.9,3.9H863
		C860.3,89.5,859.1,88.3,859.1,85.6z M879.1,85.6V66.9h14.1v18.7c0,2.1,0.9,3,3,3h13.1c2.1,0,3-0.9,3-3V31c0-2.1-0.9-3-3-3h-13.1
		c-2.1,0-3,0.9-3,3v18.3h-14.1V31c0-2.1-0.9-3-3-3H863c-2.1,0-3,0.9-3,3v54.6c0,2.1,0.9,3,3,3H876C878.1,88.6,879.1,87.7,879.1,85.6
		z M869,35.6h0.8v22.3h32.3V35.6h0.8V81h-0.8V58.7h-32.3V81H869V35.6z"/>
	<path fill="#DA4226" d="M976.1,72.7c0,10.6-4.9,18-27,18s-27-7.4-27-18V44c0-10.6,5-18.1,27-18.1s27,7.5,27,18.1V72.7z M975.3,44
		c0-10.3-5.1-17.3-26.1-17.3S923,33.7,923,44v28.7c0,10.3,5.1,17.2,26.2,17.2s26.1-6.9,26.1-17.2V44z M949,82.1
		c-13.2,0-16.9-4.5-16.9-11.4V45.9c0-6.8,3.7-11.4,16.9-11.4c13.2,0,17.1,4.5,17.1,11.4v24.9C966.1,77.6,962.2,82.1,949,82.1z
		 M949,81.3c12.6,0,16.3-4.2,16.3-10.5V45.9c0-6.3-3.7-10.5-16.3-10.5c-12.6,0-16.1,4.2-16.1,10.5v24.9
		C932.9,77.1,936.4,81.3,949,81.3z M942.1,47c0-2.2,1-3.9,7.1-3.9c6.1,0,7.1,1.7,7.1,3.9v22.7c0,2.3-0.9,4-7.1,4
		c-6.1,0-7.1-1.7-7.1-4V47z M942.9,69.7c0,2,1.4,3.1,6.2,3.1s6.2-1.1,6.2-3.1V47c0-1.9-1.4-3-6.2-3c-4.7,0-6.2,1.1-6.2,3V69.7z"/>
	<path fill="#DA4226" d="M996.7,85.6V45.1h-11.5c-2.7,0-3.9-1.2-3.9-3.9V31c0-2.7,1.2-3.9,3.9-3.9h44.5c2.7,0,3.9,1.2,3.9,3.9v10.2
		c0,2.7-1.2,3.9-3.9,3.9h-11.5v40.5c0,2.7-1.2,3.9-3.9,3.9h-13.6C997.9,89.5,996.7,88.3,996.7,85.6z M1017.2,85.6V44.2h12.4
		c2.1,0,3-0.9,3-3V31c0-2.1-0.9-3-3-3h-44.5c-2.1,0-3,0.9-3,3v10.2c0,2.1,0.9,3,3,3h12.4v41.4c0,2.1,0.9,3,3,3h13.6
		C1016.3,88.6,1017.2,87.7,1017.2,85.6z M1007,36.4h-17.3v-0.8h35.4v0.8h-17.3V81h-0.8V36.4z"/>
	<path fill="#DA4226" d="M1058.1,85.6V31c0-2.7,1.2-3.9,3.9-3.9h37.6c2.7,0,3.9,1.2,3.9,3.9v10c0,2.7-1.2,3.9-3.9,3.9h-20.6V52h13.8
		c2.7,0,3.9,1.2,3.9,3.9V66c0,2.7-1.2,3.9-3.9,3.9h-13.8v15.8c0,2.7-1.2,3.9-3.9,3.9H1062C1059.3,89.5,1058.1,88.3,1058.1,85.6z
		 M1078.1,85.6V69h14.7c2.1,0,3-0.9,3-3V55.9c0-2.1-0.9-3-3-3h-14.7v-8.8h21.5c2.1,0,3-0.9,3-3V31c0-2.1-0.9-3-3-3H1062
		c-2.1,0-3,0.9-3,3v54.6c0,2.1,0.9,3,3,3h13.1C1077.1,88.6,1078.1,87.7,1078.1,85.6z M1068.1,35.6h26.9v0.8h-26v24.1h19.2v0.8H1069
		V81h-0.8V35.6z"/>
	<path fill="#DA4226" d="M1114,89.5c-2.7,0-3.9-1.2-3.9-3.9V31c0-2.7,1.2-3.9,3.9-3.9h28.1c13.4,0,17.4,6.1,17.4,14.9v3.9
		c0,4.1-0.9,7.2-3.3,9.2c5.3,1.5,8.8,6,8.8,12.6v17.9c0,2.7-1.2,3.9-3.9,3.9h-13.1c-2.7,0-3.9-1.2-3.9-3.9V72.7
		c0-1.9-0.6-2.8-2.4-2.8h-11v15.7c0,2.7-1.2,3.9-3.9,3.9H1114z M1130,85.6V69.1h11.8c2.4,0,3.2,1.1,3.2,3.6v12.9c0,2.1,0.9,3,3,3
		h13.1c2.1,0,3-0.9,3-3V67.7c0-7.1-4-11.5-10.2-12.2c3.5-1.5,4.7-4.9,4.7-9.6V42c0-8.3-4-14.1-16.6-14.1H1114c-2.1,0-3,0.9-3,3v54.6
		c0,2.1,0.9,3,3,3h13C1129.1,88.6,1130,87.7,1130,85.6z M1120.1,81V35.6h19.2c6.6,0,9.6,4,9.6,9.6V51c0,5.1-1,8.5-5.1,9.8h0.9
		c6.9,0,10.2,3.1,10.2,9V81h-0.8V69.8c0-5.6-2.9-8.3-9.4-8.3h-23.8V81H1120.1z M1120.9,36.4v24.3h18.4c7,0,8.8-3.5,8.8-9.7v-5.9
		c0-5.2-2.8-8.8-8.8-8.8H1120.9z M1136.4,43.1c2.9,0,3.7,1.7,3.7,4V50c0,2.3-0.8,4-3.7,4h-6.3V43.1H1136.4z M1130.9,44v9.1h5.5
		c2.4,0,2.9-1.3,2.9-3.1v-2.9c0-1.8-0.5-3.1-2.9-3.1H1130.9z"/>
	<path fill="#DA4226" d="M1172.8,85.6V31c0-2.7,1.2-3.9,3.9-3.9h39.1c2.7,0,3.9,1.2,3.9,3.9v9.9c0,2.7-1.2,3.9-3.9,3.9h-22.4v4.8
		h15.6c2.7,0,3.9,1.2,3.9,3.9v9c0,2.7-1.2,3.9-3.9,3.9h-15.6v5.6h22.4c2.7,0,3.9,1.2,3.9,3.9v9.9c0,2.7-1.2,3.9-3.9,3.9h-39.1
		C1173.9,89.5,1172.8,88.3,1172.8,85.6z M1218.8,85.6v-9.9c0-2.1-0.9-3-3-3h-23.3v-7.2h16.4c2.1,0,3-0.9,3-3v-9c0-2.1-0.9-3-3-3
		h-16.4v-6.5h23.3c2.1,0,3-0.9,3-3V31c0-2.1-0.9-3-3-3h-39.1c-2.1,0-3,0.9-3,3v54.6c0,2.1,0.9,3,3,3h39.1
		C1217.8,88.6,1218.8,87.7,1218.8,85.6z M1211.2,81h-28.4V35.6h28.4v0.8h-27.5v21.1h20.7v0.8h-20.7v21.8h27.5V81z"/>
	<path fill="#DA4226" d="M1256.8,89.5h-26.6c-2.7,0-3.9-1.2-3.9-3.9v-9.9c0-2.7,1.2-3.9,3.9-3.9h22.7c0.9,0,1.3-0.8,1.3-1.6
		c0-1.3-0.4-1.9-1.4-2l-12.6-1.8c-8.4-1.3-13.8-4.9-13.8-14.8v-8.8c0-10.1,6.7-15.7,18.3-15.7h23.6c2.7,0,3.9,1.2,3.9,3.9v10
		c0,2.7-1.2,3.9-3.9,3.9h-19.6c-0.9,0-1.4,0.8-1.4,1.7c0,1,0.5,1.8,1.5,1.9l12.6,1.7c8.4,1.3,13.9,4.9,13.9,14.8v8.8
		C1275.1,83.9,1268.3,89.5,1256.8,89.5z M1274.3,73.8V65c0-9.4-5.2-12.8-13.1-14l-12.6-1.7c-1.4-0.2-2.3-1.2-2.3-2.7
		c0-1.5,0.8-2.5,2.3-2.5h19.6c2.1,0,3-0.9,3-3V31c0-2.1-0.9-3-3-3h-23.6c-11,0-17.4,5.2-17.4,14.8v8.8c0,9.4,5.1,12.8,13.1,14
		l12.6,1.8c1.4,0.2,2.2,0.9,2.2,2.9c0,1.3-0.8,2.4-2.2,2.4h-22.7c-2.1,0-3,0.9-3,3v9.9c0,2.1,0.9,3,3,3h26.6
		C1267.7,88.6,1274.3,83.4,1274.3,73.8z M1263.7,36.4H1245c-4.7,0-7.8,2.9-7.8,6.8v6.9c0,4,1.7,5.1,4.3,5.6l17.8,3.6
		c3.4,0.7,5.8,2.4,5.8,8.3v4.9c0,5-3.6,8.5-9.4,8.5h-21v-0.8h21c5.2,0,8.5-3.2,8.5-7.7v-4.9c0-5.3-2-6.7-5.1-7.4l-17.8-3.6
		c-2.9-0.6-5-1.9-5-6.5v-6.9c0-4.5,3.4-7.7,8.6-7.7h18.7V36.4z"/>
	<path fill="#DA4226" d="M1282.6,85.6V31c0-2.7,1.2-3.9,3.9-3.9h13.1c2.7,0,3.9,1.2,3.9,3.9v17.4h12.4V31c0-2.7,1.2-3.9,3.9-3.9
		h13.1c2.7,0,3.9,1.2,3.9,3.9v54.6c0,2.7-1.2,3.9-3.9,3.9h-13.1c-2.7,0-3.9-1.2-3.9-3.9V67.7h-12.4v17.9c0,2.7-1.2,3.9-3.9,3.9
		h-13.1C1283.8,89.5,1282.6,88.3,1282.6,85.6z M1302.6,85.6V66.9h14.1v18.7c0,2.1,0.9,3,3,3h13.1c2.1,0,3-0.9,3-3V31
		c0-2.1-0.9-3-3-3h-13.1c-2.1,0-3,0.9-3,3v18.3h-14.1V31c0-2.1-0.9-3-3-3h-13.1c-2.1,0-3,0.9-3,3v54.6c0,2.1,0.9,3,3,3h13.1
		C1301.7,88.6,1302.6,87.7,1302.6,85.6z M1292.6,35.6h0.8v22.3h32.3V35.6h0.8V81h-0.8V58.7h-32.3V81h-0.8V35.6z"/>
	<path fill="#DA4226" d="M1365.5,85.6V31c0-2.7,1.2-3.9,3.9-3.9h25.8c16.1,0,20.7,7.1,20.7,17.3v10.8c0,10.2-4.6,17.3-20.7,17.3
		h-8.8v13.1c0,2.7-1.2,3.9-3.9,3.9h-13.1C1366.7,89.5,1365.5,88.3,1365.5,85.6z M1385.5,85.6v-14h9.7c15.3,0,19.9-6.7,19.9-16.4
		V44.4c0-9.8-4.5-16.4-19.9-16.4h-25.8c-2.1,0-3,0.9-3,3v54.6c0,2.1,0.9,3,3,3h13.1C1384.6,88.6,1385.5,87.7,1385.5,85.6z
		 M1376.6,64.4V81h-0.8V35.6h18.2c10.6,0,12.6,4.9,12.6,11.5v6.2c0,6.6-2,11.2-12.6,11.2H1376.6z M1394,63.6
		c9.9,0,11.8-4.3,11.8-10.4V47c0-6.1-1.9-10.6-11.8-10.6h-17.4v27.2H1394z M1392.9,43.7c3.3,0,4,1.9,4,4.1v4.5c0,2.2-0.7,4.1-4,4.1
		h-7.6V43.7H1392.9z M1386.2,44.6v11h6.7c2.6,0,3.1-1.6,3.1-3.3v-4.5c0-1.7-0.5-3.3-3.1-3.3H1386.2z"/>
	<path fill="#DA4226" d="M1421.6,85.6v-10c0-2.7,1.2-3.9,3.9-3.9h7.5V45.1h-7.5c-2.7,0-3.9-1.2-3.9-3.9V31c0-2.7,1.2-3.9,3.9-3.9
		h35.9c2.7,0,3.9,1.2,3.9,3.9v10.2c0,2.7-1.2,3.9-3.9,3.9h-7.3v26.6h7.3c2.7,0,3.9,1.2,3.9,3.9v10c0,2.7-1.2,3.9-3.9,3.9h-35.9
		C1422.8,89.5,1421.6,88.3,1421.6,85.6z M1461.4,88.6c2.1,0,3-0.9,3-3v-10c0-2.1-0.9-3-3-3h-8.2V44.2h8.2c2.1,0,3-0.9,3-3V31
		c0-2.1-0.9-3-3-3h-35.9c-2.1,0-3,0.9-3,3v10.2c0,2.1,0.9,3,3,3h8.3v28.3h-8.3c-2.1,0-3,0.9-3,3v10c0,2.1,0.9,3,3,3H1461.4z
		 M1430.1,81v-0.8h13.1V36.4h-13.1v-0.8h26.8v0.8H1444v43.8h12.9V81H1430.1z"/>
	<path fill="#DA4226" d="M1472,85.6V74.3c0-2.4,0.7-4,2.3-5.7l19.4-23.5h-16.3c-2.7,0-3.9-1.2-3.9-3.9V31c0-2.7,1.2-3.9,3.9-3.9
		h38.8c2.7,0,3.9,1.2,3.9,3.9v12.6c0,2.5-0.7,4.1-2.3,5.8l-18.4,22.3h18.4c2.7,0,3.9,1.2,3.9,3.9v10c0,2.7-1.2,3.9-3.9,3.9h-41.8
		C1473.2,89.5,1472,88.3,1472,85.6z M1520.7,85.6v-10c0-2.1-0.9-3-3-3h-20.1l19.5-23.7c1.5-1.6,2.1-3,2.1-5.3V31c0-2.1-0.9-3-3-3
		h-38.8c-2.1,0-3,0.9-3,3v10.2c0,2.1,0.9,3,3,3h18L1475,69.1c-1.5,1.6-2.1,3-2.1,5.2v11.3c0,2.1,0.9,3,3,3h41.8
		C1519.8,88.6,1520.7,87.7,1520.7,85.6z M1484.1,74.5c-0.8,1-1.2,1.5-1.2,2.6v1.2c0,1.6,0.8,1.9,1.8,1.9h28.4V81h-28.4
		c-1.9,0-2.6-0.8-2.6-2.8v-1.3c0-1.3,0.6-2.1,1.4-3.1l24.7-31.7c0.8-1,1.2-1.5,1.2-2.6v-1.2c0-1.6-0.8-1.9-1.8-1.9H1482v-0.8h25.7
		c1.9,0,2.6,0.8,2.6,2.8v1.3c0,1.3-0.6,2.1-1.4,3.1L1484.1,74.5z"/>
	<path fill="#DA4226" d="M1527.2,85.6V74.3c0-2.4,0.7-4,2.3-5.7l19.4-23.5h-16.3c-2.7,0-3.9-1.2-3.9-3.9V31c0-2.7,1.2-3.9,3.9-3.9
		h38.8c2.7,0,3.9,1.2,3.9,3.9v12.6c0,2.5-0.7,4.1-2.3,5.8l-18.4,22.3h18.4c2.7,0,3.9,1.2,3.9,3.9v10c0,2.7-1.2,3.9-3.9,3.9h-41.8
		C1528.4,89.5,1527.2,88.3,1527.2,85.6z M1575.9,85.6v-10c0-2.1-0.9-3-3-3h-20.1l19.5-23.7c1.5-1.6,2.1-3,2.1-5.3V31
		c0-2.1-0.9-3-3-3h-38.8c-2.1,0-3,0.9-3,3v10.2c0,2.1,0.9,3,3,3h18l-20.5,24.9c-1.5,1.6-2.1,3-2.1,5.2v11.3c0,2.1,0.9,3,3,3h41.8
		C1575,88.6,1575.9,87.7,1575.9,85.6z M1539.3,74.5c-0.8,1-1.2,1.5-1.2,2.6v1.2c0,1.6,0.8,1.9,1.8,1.9h28.4V81h-28.4
		c-1.9,0-2.6-0.8-2.6-2.8v-1.3c0-1.3,0.6-2.1,1.4-3.1l24.7-31.7c0.8-1,1.2-1.5,1.2-2.6v-1.2c0-1.6-0.8-1.9-1.8-1.9h-25.7v-0.8h25.7
		c1.9,0,2.6,0.8,2.6,2.8v1.3c0,1.3-0.6,2.1-1.4,3.1L1539.3,74.5z"/>
	<path fill="#DA4226" d="M1583.5,85.6V63.4c0-3.5,1-7.8,3.4-13.8l7.3-19c0.8-2.4,2.4-3.4,5.1-3.4h22.7c2.6,0,4.2,1,5,3.3l7.3,19.1
		c2.4,6.1,3.4,10.4,3.4,13.8v22.2c0,2.7-1.2,3.9-3.9,3.9H1621c-2.9,0-4.1-1.3-4.1-3.9v-11h-13.2v11c0,2.7-1.2,3.9-3.9,3.9h-12.4
		C1584.7,89.5,1583.5,88.3,1583.5,85.6z M1602.8,73.8h14.9v11.8c0,2.1,1,3,3.3,3h12.7c2.1,0,3-0.9,3-3V63.4c0-3.4-1-7.6-3.3-13.5
		l-7.3-19.1c-0.7-1.9-2-2.8-4.2-2.8h-22.7c-2.3,0-3.6,0.8-4.3,2.8l-7.3,19.1c-2.3,5.9-3.3,10.1-3.3,13.5v22.2c0,2.1,0.9,3,3,3h12.4
		c2.1,0,3-0.9,3-3V73.8z M1627,66.6h-32.9V81h-0.8V63.1c0-3.1,0.5-5.7,1.4-8.2l5.4-13.8c1.3-3.1,2.3-5.6,6.1-5.6h8.3
		c3.7,0,4.7,2.4,6.1,5.6l5.8,13.7c0.9,2.4,1.4,5.1,1.4,8.2V81h-0.8V66.6z M1594.1,65.7h32.9v-2.6c0-3-0.5-5.6-1.3-7.8l-5.8-13.7
		c-1.3-2.9-2.2-5.1-5.3-5.1h-8.3c-3.4,0-4.3,2.2-5.4,5.1l-5.4,13.8c-0.8,2.3-1.3,4.8-1.3,7.8V65.7z M1609.2,44.2h2.1
		c0.7,0,1.2,0.4,1.6,1.4l4,12.8h-13.2l4-12.8C1608,44.6,1608.5,44.2,1609.2,44.2z M1612.1,46c-0.3-0.5-0.4-0.9-0.8-0.9h-2.1
		c-0.4,0-0.6,0.4-0.8,0.9l0.1-0.1l-3.6,11.7h10.9L1612.1,46L1612.1,46z"/>
</g>
<g>
	<path fill="#27839E" d="M991.5,986.5H865c-4,0-5.8-1.8-5.8-5.8V854.3c0-4,1.8-5.8,5.8-5.8h126.5c4,0,5.8,1.8,5.8,5.8v126.5
		C997.3,984.8,995.5,986.5,991.5,986.5z"/>
	<path fill="#27839E" d="M1152.1,986.5h-126.5c-4,0-5.8-1.8-5.8-5.8V854.3c0-4,1.8-5.8,5.8-5.8h126.5c4,0,5.8,1.8,5.8,5.8v126.5
		C1157.9,984.8,1156.1,986.5,1152.1,986.5z"/>
	<path fill="#27839E" d="M1312.7,986.5h-126.5c-4,0-5.8-1.8-5.8-5.8V854.3c0-4,1.8-5.8,5.8-5.8h126.5c4,0,5.8,1.8,5.8,5.8v126.5
		C1318.4,984.8,1316.7,986.5,1312.7,986.5z"/>
	<path fill="#27839E" d="M1473.3,986.5h-126.5c-4,0-5.8-1.8-5.8-5.8V854.3c0-4,1.8-5.8,5.8-5.8h126.5c4,0,5.8,1.8,5.8,5.8v126.5
		C1479,984.8,1477.3,986.5,1473.3,986.5z"/>
	<path fill="#27839E" d="M1633.9,986.5h-126.5c-4,0-5.8-1.8-5.8-5.8V854.3c0-4,1.8-5.8,5.8-5.8h126.5c4,0,5.8,1.8,5.8,5.8v126.5
		C1639.6,984.8,1637.9,986.5,1633.9,986.5z"/>
	<path fill="#92CAD3" d="M991.5,985.4H865c-3.1,0-4.5-1.4-4.5-4.5V854.4c0-3.1,1.4-4.5,4.5-4.5h126.5c3.1,0,4.5,1.4,4.5,4.5v126.5
		C996,984,994.6,985.4,991.5,985.4z"/>
	<path fill="#92CAD3" d="M1152.1,985.4h-126.5c-3.1,0-4.5-1.4-4.5-4.5V854.4c0-3.1,1.4-4.5,4.5-4.5h126.5c3.1,0,4.5,1.4,4.5,4.5
		v126.5C1156.6,984,1155.2,985.4,1152.1,985.4z"/>
	<path fill="#92CAD3" d="M1312.7,985.4h-126.5c-3.1,0-4.5-1.4-4.5-4.5V854.4c0-3.1,1.4-4.5,4.5-4.5h126.5c3.1,0,4.5,1.4,4.5,4.5
		v126.5C1317.2,984,1315.8,985.4,1312.7,985.4z"/>
	<path fill="#92CAD3" d="M1473.3,985.4h-126.5c-3.1,0-4.5-1.4-4.5-4.5V854.4c0-3.1,1.4-4.5,4.5-4.5h126.5c3.1,0,4.5,1.4,4.5,4.5
		v126.5C1477.8,984,1476.4,985.4,1473.3,985.4z"/>
	<path fill="#92CAD3" d="M1633.9,985.4h-126.5c-3.1,0-4.5-1.4-4.5-4.5V854.4c0-3.1,1.4-4.5,4.5-4.5h126.5c3.1,0,4.5,1.4,4.5,4.5
		v126.5C1638.4,984,1637,985.4,1633.9,985.4z"/>
	<path fill="#27839E" d="M863,852.5h130.5v130.5H863V852.5z M992.2,853.7h-128v128h128V853.7z"/>
	<path fill="#27839E" d="M1023.6,852.5h130.5v130.5h-130.5V852.5z M1152.8,853.7h-128v128h128V853.7z"/>
	<path fill="#27839E" d="M1184.2,852.5h130.5v130.5h-130.5V852.5z M1313.4,853.7h-128v128h128V853.7z"/>
	<path fill="#27839E" d="M1344.8,852.5h130.5v130.5h-130.5V852.5z M1474,853.7h-128v128h128V853.7z"/>
	<path fill="#27839E" d="M1505.4,852.5h130.5v130.5h-130.5V852.5z M1634.6,853.7h-128v128h128V853.7z"/>
	<path fill="#27839E" d="M902.4,963h-14.7c-3.1,0-4.5-1.4-4.5-4.5v-62.1c0-15.3,6-25.6,25-25.6c9.4,0,15.3,2.3,18.7,6.3
		c3.5-4,9.4-6.3,18.8-6.3c18.9,0,25,10.3,25,25.6v62.1c0,3.1-1.4,4.5-4.5,4.5h-14.7c-3.3,0-4.5-1.4-4.5-4.5v-58.1c0-3.4-0.9-5-4.1-5
		c-3.3,0-4,1.6-4,5v58.1c0,3.1-1.4,4.5-4.5,4.5h-14.7c-3.1,0-4.5-1.4-4.5-4.5v-58.1c0-3.4-0.8-5-4-5s-4.1,1.6-4.1,5v58.1
		C906.9,961.6,905.7,963,902.4,963z M911.2,883.7c11.8,0,15.2,6.3,15.2,15.7v52.3h1.3v-52.3c0-9.4,3.4-15.7,15.3-15.7
		c11.8,0,15.2,6.3,15.2,15.7v52.3h1.3v-52.3c0-10.2-3.6-16.9-16.4-16.9c-10.2,0-14.6,4.3-15.9,11.2c-1.4-6.9-5.6-11.2-15.8-11.2
		c-12.8,0-16.7,6.8-16.7,16.9v52.3h1.3v-52.3C895.8,890,899.4,883.7,911.2,883.7z"/>
	<path fill="#27839E" d="M1087.6,964.9c-30.7,0-38.1-10.3-38.1-25.6v-42.8c0-15.3,7.4-25.7,38.1-25.7c30.7,0,38.1,10.4,38.1,25.7
		v42.8C1125.7,954.6,1118.3,964.9,1087.6,964.9z M1112.2,899.4c0-10.2-5.6-16.9-24.7-16.9s-24.3,6.8-24.3,16.9v37
		c0,10.2,5.3,16.9,24.3,16.9s24.7-6.8,24.7-16.9V899.4z M1064.4,899.4c0-9.4,5-15.7,23.1-15.7c18.1,0,23.5,6.3,23.5,15.7v37
		c0,9.4-5.4,15.7-23.5,15.7c-18.1,0-23.1-6.3-23.1-15.7V899.4z M1087.6,940.6c8.4,0,9.8-2.5,9.8-5.9V901c0-3.3-1.4-5.8-9.8-5.8
		c-8.3,0-9.7,2.5-9.7,5.8v33.7C1077.9,938.1,1079.3,940.6,1087.6,940.6z"/>
	<path fill="#27839E" d="M1237.7,963c-3.1,0-4.5-1.4-4.5-4.5v-61.6h-18.1c-3.1,0-4.5-1.4-4.5-4.5v-15.2c0-3.1,1.4-4.5,4.5-4.5h66.2
		c3.1,0,4.5,1.4,4.5,4.5v15.2c0,3.1-1.4,4.5-4.5,4.5h-18.1v61.6c0,3.1-1.4,4.5-4.5,4.5H1237.7z M1248.8,951.7v-66.5h25.7v-1.3h-52.7
		v1.3h25.7v66.5H1248.8z"/>
	<path fill="#27839E" d="M1375.8,963c-3.1,0-4.5-1.4-4.5-4.5v-81.3c0-3.1,1.4-4.5,4.5-4.5h65c3.1,0,4.5,1.4,4.5,4.5v14.7
		c0,3.1-1.4,4.5-4.5,4.5h-41.4v9.7h31.2c3.1,0,4.5,1.3,4.5,4.5V924c0,3.1-1.4,4.5-4.5,4.5h-31.2v10.8h41.4c3.1,0,4.5,1.4,4.5,4.5
		v14.7c0,3.1-1.4,4.5-4.5,4.5H1375.8z M1386,950.4v-32.5h37.9v-1.3H1386v-31.5h48.1v-1.3h-49.3v67.7h49.3v-1.3H1386z"/>
	<path fill="#27839E" d="M1560.3,877.2v61.6h41c3.1,0,4.5,1.4,4.5,4.5v15.2c0,3.1-1.4,4.5-4.5,4.5h-65c-3.1,0-4.5-1.4-4.5-4.5v-81.3
		c0-3.1,1.4-4.5,4.5-4.5h19.4C1559,872.6,1560.3,874,1560.3,877.2z M1594.6,951.7v-1.3h-47.8v-66.5h-1.3v67.7H1594.6z"/>
</g>
<g>
	<path fill="#102B33" d="M887.6,807.7c-23.9,0-29.8-7.9-29.8-19.5v-32.7c0-11.7,5.8-19.6,29.8-19.6c23.9,0,29.7,7.9,29.7,19.6v32.7
		C917.3,799.8,911.5,807.7,887.6,807.7z M887.6,789.2c7,0,8-1.9,8-4.5V759c0-2.5-1.1-4.4-8-4.4c-6.9,0-8,1.9-8,4.4v25.8
		C879.5,787.3,880.7,789.2,887.6,789.2z"/>
	<path fill="#102B33" d="M932.9,806.3c-2.4,0-3.4-1.1-3.4-3.4v-62c0-2.4,1.1-3.4,3.4-3.4h29.3c17.4,0,22.6,7.6,22.6,18.7v12.3
		c0,11.1-5.2,18.7-22.6,18.7h-11v15.9c0,2.4-1.1,3.4-3.4,3.4H932.9z M951,769.7h8.6c3.7,0,4.5-2.2,4.5-4.7v-5.1
		c0-2.5-0.8-4.7-4.5-4.7H951V769.7z"/>
	<path fill="#102B33" d="M998.2,806.3c-2.4,0-3.4-1.1-3.4-3.4v-62c0-2.4,1.1-3.4,3.4-3.4h44.4c2.4,0,3.4,1.1,3.4,3.4V752
		c0,2.4-1.1,3.4-3.4,3.4h-26.4v7.4h18.7c2.4,0,3.4,1.1,3.4,3.4v10.2c0,2.4-1.1,3.4-3.4,3.4h-18.7v8.2h26.4c2.4,0,3.4,1.1,3.4,3.4
		v11.2c0,2.4-1.1,3.4-3.4,3.4H998.2z"/>
	<path fill="#102B33" d="M1060.8,806.3c-2.4,0-3.4-1.1-3.4-3.4v-62c0-2.4,1.1-3.4,3.4-3.4h10c2.5,0,4,0.7,5.6,2.6l18.6,21.3v-20.4
		c0-2.4,1.1-3.4,3.4-3.4h14.4c2.4,0,3.4,1.1,3.4,3.4v62c0,2.4-1.1,3.4-3.4,3.4h-14.4c-2.4,0-3.4-1.1-3.4-3.4V791l-16.4-19.8v31.6
		c0,2.4-1.1,3.4-3.4,3.4H1060.8z"/>
	<path fill="#102B33" d="M1151.7,806.3c-2.4,0-3.4-1.1-3.4-3.4v-16.5c0-14.8,6.2-18.3,15-21l12.8-4c2-0.6,2.6-1.3,2.6-3.4
		c0-1.9-0.7-2.5-2.6-2.5h-20.8c-2.4,0-3.4-1.1-3.4-3.4v-11.2c0-2.4,1.1-3.4,3.4-3.4h28.2c10.9,0,16.9,5.6,16.9,15.9v9
		c0,9.7-5.6,14.1-14.9,16.9l-13,4.1c-1.9,0.6-2.5,0.8-2.5,2.9v2h27.3c2.4,0,3.4,1.1,3.4,3.4v11.2c0,2.4-1.1,3.4-3.4,3.4H1151.7z"/>
	<path fill="#102B33" d="M1228.5,790.3c-12.4,0-17.4-5-17.4-15.9v-33.6c0-2.4,1.1-3.4,3.4-3.4h14.8c2.4,0,3.4,1.1,3.4,3.4V767
		c0,2,1.1,3.3,3,3.3h8.9v-29.5c0-2.4,1.1-3.4,3.4-3.4h14.7c2.4,0,3.4,1.1,3.4,3.4v62c0,2.4-1.1,3.4-3.4,3.4h-14.7
		c-2.4,0-3.4-1.1-3.4-3.4v-12.5H1228.5z"/>
	<path fill="#102B33" d="M1304.6,806.3c-2.4,0-3.4-1.1-3.4-3.4v-62c0-2.4,1.1-3.4,3.4-3.4h14.8c2.4,0,3.4,1.1,3.4,3.4v20.8h16v-20.8
		c0-2.4,1.1-3.4,3.4-3.4h14.8c2.4,0,3.4,1.1,3.4,3.4v62c0,2.4-1.1,3.4-3.4,3.4h-14.8c-2.4,0-3.4-1.1-3.4-3.4v-21.3h-16v21.3
		c0,2.4-1.1,3.4-3.4,3.4H1304.6z"/>
	<path fill="#102B33" d="M1402.5,807.7c-23.9,0-29.8-7.9-29.8-19.5v-32.7c0-11.7,5.8-19.6,29.8-19.6c23.9,0,29.7,7.9,29.7,19.6v32.7
		C1432.2,799.8,1426.4,807.7,1402.5,807.7z M1402.5,789.2c7,0,8-1.9,8-4.5V759c0-2.5-1.1-4.4-8-4.4c-6.9,0-8,1.9-8,4.4v25.8
		C1394.5,787.3,1395.6,789.2,1402.5,789.2z"/>
	<path fill="#102B33" d="M1473.5,807.7c-23.7,0-29.6-7.9-29.6-19.5v-47.4c0-2.4,1.1-3.4,3.4-3.4h15c2.4,0,3.4,1.1,3.4,3.4v43.7
		c0,2.6,1.1,4.5,7.9,4.5c6.8,0,7.9-1.9,7.9-4.5v-43.7c0-2.4,1-3.4,3.4-3.4h14.6c2.4,0,3.4,1.1,3.4,3.4v47.4
		C1503,799.8,1497.2,807.7,1473.5,807.7z"/>
	<path fill="#102B33" d="M1519.2,806.3c-2.4,0-3.4-1.1-3.4-3.4v-62c0-2.4,1.1-3.4,3.4-3.4h31.9c14.4,0,18.9,6.5,18.9,16v4.4
		c0,5.4-1.3,9.2-5.4,10.9c7,0.8,11.6,5.8,11.6,13.9v20.3c0,2.4-1.1,3.4-3.4,3.4h-14.8c-2.4,0-3.4-1.1-3.4-3.4v-14.7
		c0-2.9-1-4.1-3.6-4.1h-13.4v18.8c0,2.4-1.1,3.4-3.4,3.4H1519.2z M1537.4,766.8h7.2c3.4,0,4.2-1.9,4.2-4.5v-3.3
		c0-2.6-0.9-4.5-4.2-4.5h-7.2V766.8z"/>
	<path fill="#102B33" d="M1588.6,806.3c-2.4,0-3.4-1.1-3.4-3.4v-11.2c0-2.4,1.1-3.4,3.4-3.4h25.8c1.6,0,2.5-1.2,2.5-2.8
		c0-2.2-0.9-3.1-2.5-3.3l-14.4-2c-9-1.3-14.8-5.2-14.8-15.9v-10.1c0-10.9,7.4-16.9,19.8-16.9h26.8c2.4,0,3.4,1.1,3.4,3.4v11.4
		c0,2.4-1.1,3.4-3.4,3.4h-22.3c-1.6,0-2.6,1.2-2.6,2.9c0,1.7,1,2.9,2.6,3.1l14.3,1.9c9,1.3,14.9,5.2,14.9,15.9v10.1
		c0,10.9-7.5,16.9-19.8,16.9H1588.6z"/>
	<path fill="#28515B" d="M887.4,798.9c-15,0-19.2-5.2-19.2-12.9v-28.2c0-7.8,4.2-12.9,19.2-12.9c15,0,19.4,5.2,19.4,12.9V786
		C906.8,793.7,902.4,798.9,887.4,798.9z M887.4,797.9c14.3,0,18.5-4.8,18.5-12v-28.2c0-7.2-4.2-12-18.5-12s-18.3,4.8-18.3,12V786
		C869.1,793.1,873.1,797.9,887.4,797.9z"/>
	<path fill="#28515B" d="M941.1,778.8v18.9h-1v-51.7h20.7c12.1,0,14.4,5.6,14.4,13v7.1c0,7.5-2.3,12.7-14.4,12.7H941.1z
		 M960.8,777.8c11.3,0,13.4-4.9,13.4-11.8V759c0-6.9-2.1-12.1-13.4-12.1h-19.7v30.9H960.8z"/>
	<path fill="#28515B" d="M1037.4,797.6h-32.3v-51.7h32.3v1h-31.3v24h23.6v1h-23.6v24.8h31.3V797.6z"/>
	<path fill="#28515B" d="M1105.2,786.3v-40.4h1v51.7h-1v-9.9l-36.2-40.6c-0.2-0.2-0.3-0.3-0.5-0.3s-0.2,0.2-0.2,0.3v50.5h-1V747
		c0-0.8,0.6-1.1,1.1-1.1c0.6,0,0.8,0.2,1.4,0.9L1105.2,786.3z"/>
	<path fill="#28515B" d="M1186.2,767.5c1.6-0.7,2.8-2.1,2.8-4.5v-8.7c0-5.8-3.5-7.4-9.3-7.4h-19.2v-1h19.2c6.5,0,10.2,1.9,10.2,8.3
		v8.7c0,3-1.3,4.5-3.4,5.4l-22.3,7.4c-3.6,1.2-4.8,2.7-4.8,7v14h32.6v1h-33.4v-14.9c0-4.7,1.3-6.5,5.3-7.9L1186.2,767.5z"/>
	<path fill="#28515B" d="M1255.1,780.7h-22.9c-7.4,0-10.6-3.4-10.6-10.1v-24.7h1v24.7c0,6.1,3.1,9.1,9.7,9.1h22.9v-33.8h1v51.7h-1
		V780.7z"/>
	<path fill="#28515B" d="M1311.4,745.9h1v25.4h36.8v-25.4h1v51.7h-1v-25.4h-36.8v25.4h-1V745.9z"/>
	<path fill="#28515B" d="M1402.3,798.9c-15,0-19.2-5.2-19.2-12.9v-28.2c0-7.8,4.2-12.9,19.2-12.9c15,0,19.4,5.2,19.4,12.9V786
		C1421.7,793.7,1417.3,798.9,1402.3,798.9z M1402.3,797.9c14.3,0,18.5-4.8,18.5-12v-28.2c0-7.2-4.2-12-18.5-12s-18.3,4.8-18.3,12
		V786C1384,793.1,1388,797.9,1402.3,797.9z"/>
	<path fill="#28515B" d="M1455.4,745.9v39.9c0,7.2,3.9,12,18.2,12s18.3-4.8,18.3-12v-39.9h1v39.9c0,7.8-4.2,12.9-19.2,12.9
		c-15,0-19.2-5.2-19.2-12.9v-39.9H1455.4z"/>
	<path fill="#28515B" d="M1526.1,797.6v-51.7h21.8c7.5,0,10.9,4.6,10.9,10.9v6.6c0,5.8-1.1,9.7-5.7,11.1h1.1
		c7.9,0,11.6,3.5,11.6,10.2v12.8h-1v-12.8c0-6.3-3.4-9.4-10.6-9.4h-27.1v22.2H1526.1z M1527.1,746.9v27.7h20.9c7.9,0,10-3.9,10-11
		v-6.7c0-5.9-3.2-10-10-10H1527.1z"/>
	<path fill="#28515B" d="M1626.6,746.9h-21.3c-5.4,0-8.8,3.3-8.8,7.8v7.9c0,4.5,1.9,5.8,4.9,6.4l20.2,4.1c3.8,0.8,6.6,2.7,6.6,9.4
		v5.6c0,5.7-4.1,9.7-10.6,9.7h-23.8v-1h23.8c5.9,0,9.7-3.6,9.7-8.7v-5.6c0-6-2.3-7.7-5.8-8.4l-20.2-4.1c-3.4-0.7-5.6-2.1-5.6-7.4
		v-7.9c0-5.1,3.8-8.7,9.8-8.7h21.3V746.9z"/>
</g>
<g>
</g>
<g>
</g>
<g>
</g>
<g>
</g>
<g>
</g>
<g>
</g>
</svg>
