<?xml version="1.0" encoding="utf-8"?>
<!-- Generator: Adobe Illustrator 17.1.0, SVG Export Plug-In . SVG Version: 6.00 Build 0)  -->
<!DOCTYPE svg PUBLIC "-//W3C//DTD SVG 1.1//EN" "http://www.w3.org/Graphics/SVG/1.1/DTD/svg11.dtd">
<svg version="1.1" xmlns="http://www.w3.org/2000/svg" xmlns:xlink="http://www.w3.org/1999/xlink" x="0px" y="0px"
	 viewBox="0 0 1097.2 1021.1" enable-background="new 0 0 1097.2 1021.1" xml:space="preserve">
<g id="Layer_1">
	<g>
		<g>
			<path fill="#102B33" d="M250.5,50.8c4,0,7,2.5,5.4,6.3l-31.3,79.1l31.3,79.1c1.6,3.8-1.4,6.3-5.4,6.3H90.9c-4,0-4.3-1.9-5.7-5.7
				l-29.9-75c-1.1-2.8-1.1-6.2,0-9l29.9-75.5c1.4-3.8,1.7-5.7,5.7-5.7H250.5z"/>
			<path fill="#432D2C" d="M437.2,50.8c4,0,7,2.5,5.4,6.3l-31.3,79.1l31.3,79.1c1.6,3.8-1.4,6.3-5.4,6.3H277.7c-4,0-4.3-1.9-5.7-5.7
				l-29.9-75c-1.1-2.8-1.1-6.2,0-9L272,56.5c1.4-3.8,1.7-5.7,5.7-5.7H437.2z"/>
			<path fill="#102B33" d="M623.9,50.8c4,0,7,2.5,5.4,6.3L598,136.2l31.3,79.1c1.6,3.8-1.4,6.3-5.4,6.3H464.4c-4,0-4.3-1.9-5.7-5.7
				l-29.9-75c-1.1-2.8-1.1-6.2,0-9l29.9-75.5c1.4-3.8,1.7-5.7,5.7-5.7H623.9z"/>
			<path fill="#432D2C" d="M810.7,50.8c4,0,7,2.5,5.4,6.3l-31.3,79.1l31.3,79.1c1.6,3.8-1.4,6.3-5.4,6.3H651.2c-4,0-4.3-1.9-5.7-5.7
				l-29.9-75c-1.1-2.8-1.1-6.2,0-9l29.9-75.5c1.4-3.8,1.7-5.7,5.7-5.7H810.7z"/>
			<path fill="#102B33" d="M997.4,50.8c4,0,7,2.5,5.4,6.3l-31.3,79.1l31.3,79.1c1.6,3.8-1.4,6.3-5.4,6.3H837.9c-4,0-4.3-1.9-5.7-5.7
				l-29.9-75c-1.1-2.8-1.1-6.2,0-9l29.9-75.5c1.4-3.8,1.7-5.7,5.7-5.7H997.4z"/>
		</g>
		<g>
			<path fill="#9FBFCE" d="M93.2,218.5c-2.2,0-3.3-0.9-4.4-3.6l-29.9-75c-0.6-2.1-0.6-4.7,0-6.8l29.9-75.5c1.1-2.7,2.2-3.6,4.4-3.6
				h157.9c1.9,0,3,0.6,2.5,2.1l-31.8,80.2l31.8,80.4c0.5,1.1,0,1.9-1.9,1.9H93.2z M220.1,135.9l32-80.4H93.2c-1.6,0-2.4,1.3-2.8,2.7
				l-29.9,75.5c-0.6,1.7-0.6,3.8,0,5.5l29.9,75c0.5,1.4,1.3,2.7,2.8,2.7h158.7l-31.8-80.7V135.9z"/>
			<path fill="#EF9D92" d="M279.9,218.5c-2.2,0-3.3-0.9-4.4-3.6l-29.9-75c-0.6-2.1-0.6-4.7,0-6.8l29.9-75.5c1.1-2.7,2.2-3.6,4.4-3.6
				h157.9c1.9,0,3,0.6,2.5,2.1l-31.8,80.2l31.8,80.4c0.5,1.1,0,1.9-1.9,1.9H279.9z M406.8,135.9l32-80.4H279.9
				c-1.6,0-2.4,1.3-2.8,2.7l-29.9,75.5c-0.6,1.7-0.6,3.8,0,5.5l29.9,75c0.5,1.4,1.3,2.7,2.8,2.7h158.7l-31.8-80.7V135.9z"/>
			<path fill="#9FBFCE" d="M466.6,218.5c-2.2,0-3.3-0.9-4.4-3.6l-29.9-75c-0.6-2.1-0.6-4.7,0-6.8l29.9-75.5c1.1-2.7,2.2-3.6,4.4-3.6
				h157.9c1.9,0,3,0.6,2.5,2.1l-31.8,80.2l31.8,80.4c0.5,1.1,0,1.9-1.9,1.9H466.6z M593.6,135.9l32-80.4H466.6
				c-1.6,0-2.4,1.3-2.8,2.7l-29.9,75.5c-0.6,1.7-0.6,3.8,0,5.5l29.9,75c0.5,1.4,1.3,2.7,2.8,2.7h158.7l-31.8-80.7V135.9z"/>
			<path fill="#EF9D92" d="M653.4,218.5c-2.2,0-3.3-0.9-4.4-3.6l-29.9-75c-0.6-2.1-0.6-4.7,0-6.8l29.9-75.5c1.1-2.7,2.2-3.6,4.4-3.6
				h157.9c1.9,0,3,0.6,2.5,2.1L782,136.2l31.8,80.4c0.5,1.1,0,1.9-1.9,1.9H653.4z M780.3,135.9l32-80.4H653.4
				c-1.6,0-2.4,1.3-2.8,2.7l-29.9,75.5c-0.6,1.7-0.6,3.8,0,5.5l29.9,75c0.5,1.4,1.3,2.7,2.8,2.7h158.7l-31.8-80.7V135.9z"/>
			<path fill="#9FBFCE" d="M840.1,218.5c-2.2,0-3.3-0.9-4.4-3.6l-29.9-75c-0.6-2.1-0.6-4.7,0-6.8l29.9-75.5c1.1-2.7,2.2-3.6,4.4-3.6
				H998c1.9,0,3,0.6,2.5,2.1l-31.8,80.2l31.8,80.4c0.5,1.1,0,1.9-1.9,1.9H840.1z M967,135.9l32-80.4H840.1c-1.6,0-2.4,1.3-2.8,2.7
				l-29.9,75.5c-0.6,1.7-0.6,3.8,0,5.5l29.9,75c0.5,1.4,1.3,2.7,2.8,2.7h158.7L967,136.2V135.9z"/>
		</g>
	</g>
	<g>
		<g>
			<path fill="#102B33" d="M250.5,793.3c4,0,7,2.5,5.4,6.3l-31.3,79.1l31.3,79.1c1.6,3.8-1.4,6.3-5.4,6.3H90.9c-4,0-4.3-1.9-5.7-5.7
				l-29.9-75c-1.1-2.8-1.1-6.2,0-9L85.3,799c1.4-3.8,1.7-5.7,5.7-5.7H250.5z"/>
			<path fill="#432D2C" d="M437.2,793.3c4,0,7,2.5,5.4,6.3l-31.3,79.1l31.3,79.1c1.6,3.8-1.4,6.3-5.4,6.3H277.7
				c-4,0-4.3-1.9-5.7-5.7l-29.9-75c-1.1-2.8-1.1-6.2,0-9L272,799c1.4-3.8,1.7-5.7,5.7-5.7H437.2z"/>
			<path fill="#102B33" d="M623.9,793.3c4,0,7,2.5,5.4,6.3L598,878.7l31.3,79.1c1.6,3.8-1.4,6.3-5.4,6.3H464.4c-4,0-4.3-1.9-5.7-5.7
				l-29.9-75c-1.1-2.8-1.1-6.2,0-9l29.9-75.5c1.4-3.8,1.7-5.7,5.7-5.7H623.9z"/>
			<path fill="#432D2C" d="M810.7,793.3c4,0,7,2.5,5.4,6.3l-31.3,79.1l31.3,79.1c1.6,3.8-1.4,6.3-5.4,6.3H651.2
				c-4,0-4.3-1.9-5.7-5.7l-29.9-75c-1.1-2.8-1.1-6.2,0-9l29.9-75.5c1.4-3.8,1.7-5.7,5.7-5.7H810.7z"/>
			<path fill="#102B33" d="M997.4,793.3c4,0,7,2.5,5.4,6.3l-31.3,79.1l31.3,79.1c1.6,3.8-1.4,6.3-5.4,6.3H837.9
				c-4,0-4.3-1.9-5.7-5.7l-29.9-75c-1.1-2.8-1.1-6.2,0-9l29.9-75.5c1.4-3.8,1.7-5.7,5.7-5.7H997.4z"/>
		</g>
		<g>
			<path fill="#9FBFCE" d="M93.2,961c-2.2,0-3.3-1-4.4-3.6l-29.9-75c-0.6-2.1-0.6-4.7,0-6.8l29.9-75.5c1.1-2.7,2.2-3.6,4.4-3.6
				h157.9c1.9,0,3,0.6,2.5,2.1l-31.8,80.2l31.8,80.4c0.5,1.1,0,1.9-1.9,1.9H93.2z M220.1,878.4l32-80.4H93.2c-1.6,0-2.4,1.3-2.8,2.7
				l-29.9,75.5c-0.6,1.7-0.6,3.8,0,5.5l29.9,75c0.5,1.4,1.3,2.7,2.8,2.7h158.7l-31.8-80.7V878.4z"/>
			<path fill="#EF9D92" d="M279.9,961c-2.2,0-3.3-1-4.4-3.6l-29.9-75c-0.6-2.1-0.6-4.7,0-6.8l29.9-75.5c1.1-2.7,2.2-3.6,4.4-3.6
				h157.9c1.9,0,3,0.6,2.5,2.1l-31.8,80.2l31.8,80.4c0.5,1.1,0,1.9-1.9,1.9H279.9z M406.8,878.4l32-80.4H279.9
				c-1.6,0-2.4,1.3-2.8,2.7l-29.9,75.5c-0.6,1.7-0.6,3.8,0,5.5l29.9,75c0.5,1.4,1.3,2.7,2.8,2.7h158.7l-31.8-80.7V878.4z"/>
			<path fill="#9FBFCE" d="M466.6,961c-2.2,0-3.3-1-4.4-3.6l-29.9-75c-0.6-2.1-0.6-4.7,0-6.8l29.9-75.5c1.1-2.7,2.2-3.6,4.4-3.6
				h157.9c1.9,0,3,0.6,2.5,2.1l-31.8,80.2l31.8,80.4c0.5,1.1,0,1.9-1.9,1.9H466.6z M593.6,878.4l32-80.4H466.6
				c-1.6,0-2.4,1.3-2.8,2.7l-29.9,75.5c-0.6,1.7-0.6,3.8,0,5.5l29.9,75c0.5,1.4,1.3,2.7,2.8,2.7h158.7l-31.8-80.7V878.4z"/>
			<path fill="#EF9D92" d="M653.4,961c-2.2,0-3.3-1-4.4-3.6l-29.9-75c-0.6-2.1-0.6-4.7,0-6.8l29.9-75.5c1.1-2.7,2.2-3.6,4.4-3.6
				h157.9c1.9,0,3,0.6,2.5,2.1L782,878.7l31.8,80.4c0.5,1.1,0,1.9-1.9,1.9H653.4z M780.3,878.4l32-80.4H653.4
				c-1.6,0-2.4,1.3-2.8,2.7l-29.9,75.5c-0.6,1.7-0.6,3.8,0,5.5l29.9,75c0.5,1.4,1.3,2.7,2.8,2.7h158.7l-31.8-80.7V878.4z"/>
			<path fill="#9FBFCE" d="M840.1,961c-2.2,0-3.3-1-4.4-3.6l-29.9-75c-0.6-2.1-0.6-4.7,0-6.8l29.9-75.5c1.1-2.7,2.2-3.6,4.4-3.6H998
				c1.9,0,3,0.6,2.5,2.1l-31.8,80.2l31.8,80.4c0.5,1.1,0,1.9-1.9,1.9H840.1z M967,878.4l32-80.4H840.1c-1.6,0-2.4,1.3-2.8,2.7
				l-29.9,75.5c-0.6,1.7-0.6,3.8,0,5.5l29.9,75c0.5,1.4,1.3,2.7,2.8,2.7h158.7L967,878.7V878.4z"/>
		</g>
	</g>
	<g>
		<g>
			<path fill="#432D2C" d="M259,236.4c4,0,4.3,1.9,5.7,5.7l29.9,75.5c1.1,2.8,1.1,6.2,0,9l-29.9,75c-1.4,3.8-1.7,5.7-5.7,5.7H99.5
				c-4,0-7-2.5-5.4-6.3l31.3-79.1l-31.3-79.1c-1.6-3.8,1.4-6.3,5.4-6.3H259z"/>
			<path fill="#102B33" d="M445.8,236.4c4,0,4.3,1.9,5.7,5.7l29.9,75.5c1.1,2.8,1.1,6.2,0,9l-29.9,75c-1.4,3.8-1.7,5.7-5.7,5.7
				H286.3c-4,0-7-2.5-5.4-6.3l31.3-79.1l-31.3-79.1c-1.6-3.8,1.4-6.3,5.4-6.3H445.8z"/>
			<path fill="#432D2C" d="M632.5,236.4c4,0,4.3,1.9,5.7,5.7l29.9,75.5c1.1,2.8,1.1,6.2,0,9l-29.9,75c-1.4,3.8-1.7,5.7-5.7,5.7H473
				c-4,0-7-2.5-5.4-6.3l31.3-79.1l-31.3-79.1c-1.6-3.8,1.4-6.3,5.4-6.3H632.5z"/>
			<path fill="#102B33" d="M819.2,236.4c4,0,4.3,1.9,5.7,5.7l29.9,75.5c1.1,2.8,1.1,6.2,0,9l-29.9,75c-1.4,3.8-1.7,5.7-5.7,5.7
				H659.7c-4,0-7-2.5-5.4-6.3l31.3-79.1l-31.3-79.1c-1.6-3.8,1.4-6.3,5.4-6.3H819.2z"/>
			<path fill="#432D2C" d="M1006,236.4c4,0,4.3,1.9,5.7,5.7l29.9,75.5c1.1,2.8,1.1,6.2,0,9l-29.9,75c-1.4,3.8-1.7,5.7-5.7,5.7H846.5
				c-4,0-7-2.5-5.4-6.3l31.3-79.1l-31.3-79.1c-1.6-3.8,1.4-6.3,5.4-6.3H1006z"/>
		</g>
		<g>
			<path fill="#EF9D92" d="M96.6,402.2l31.8-80.4l-31.8-80.2c-0.5-1.4,0.6-2.1,2.5-2.1h157.9c2.2,0,3.3,0.9,4.4,3.6l29.9,75.5
				c0.6,2.1,0.6,4.7,0,6.8l-29.9,75c-1.1,2.7-2.2,3.6-4.4,3.6H98.5C96.6,404.1,96.1,403.3,96.6,402.2z M98.3,402.5h158.7
				c1.6,0,2.4-1.3,2.8-2.7l29.9-75c0.6-1.7,0.6-3.8,0-5.5l-29.9-75.5c-0.5-1.4-1.3-2.7-2.8-2.7H98.2l32,80.4v0.3L98.3,402.5z"/>
			<path fill="#9FBFCE" d="M283.3,402.2l31.8-80.4l-31.8-80.2c-0.5-1.4,0.6-2.1,2.5-2.1h157.9c2.2,0,3.3,0.9,4.4,3.6l29.9,75.5
				c0.6,2.1,0.6,4.7,0,6.8l-29.9,75c-1.1,2.7-2.2,3.6-4.4,3.6H285.2C283.3,404.1,282.9,403.3,283.3,402.2z M285.1,402.5h158.7
				c1.6,0,2.4-1.3,2.8-2.7l29.9-75c0.6-1.7,0.6-3.8,0-5.5l-29.9-75.5c-0.5-1.4-1.3-2.7-2.8-2.7H284.9l32,80.4v0.3L285.1,402.5z"/>
			<path fill="#EF9D92" d="M470.1,402.2l31.8-80.4l-31.8-80.2c-0.5-1.4,0.6-2.1,2.5-2.1h157.9c2.2,0,3.3,0.9,4.4,3.6l29.9,75.5
				c0.6,2.1,0.6,4.7,0,6.8l-29.9,75c-1.1,2.7-2.2,3.6-4.4,3.6H472C470.1,404.1,469.6,403.3,470.1,402.2z M471.8,402.5h158.7
				c1.6,0,2.4-1.3,2.8-2.7l29.9-75c0.6-1.7,0.6-3.8,0-5.5l-29.9-75.5c-0.5-1.4-1.3-2.7-2.8-2.7H471.6l32,80.4v0.3L471.8,402.5z"/>
			<path fill="#9FBFCE" d="M656.8,402.2l31.8-80.4l-31.8-80.2c-0.5-1.4,0.6-2.1,2.5-2.1h157.9c2.2,0,3.3,0.9,4.4,3.6l29.9,75.5
				c0.6,2.1,0.6,4.7,0,6.8l-29.9,75c-1.1,2.7-2.2,3.6-4.4,3.6H658.7C656.8,404.1,656.3,403.3,656.8,402.2z M658.5,402.5h158.7
				c1.6,0,2.4-1.3,2.8-2.7l29.9-75c0.6-1.7,0.6-3.8,0-5.5l-29.9-75.5c-0.5-1.4-1.3-2.7-2.8-2.7H658.4l32,80.4v0.3L658.5,402.5z"/>
			<path fill="#EF9D92" d="M843.5,402.2l31.8-80.4l-31.8-80.2c-0.5-1.4,0.6-2.1,2.5-2.1H1004c2.2,0,3.3,0.9,4.4,3.6l29.9,75.5
				c0.6,2.1,0.6,4.7,0,6.8l-29.9,75c-1.1,2.7-2.2,3.6-4.4,3.6H845.4C843.5,404.1,843.1,403.3,843.5,402.2z M845.3,402.5H1004
				c1.6,0,2.4-1.3,2.8-2.7l29.9-75c0.6-1.7,0.6-3.8,0-5.5l-29.9-75.5c-0.5-1.4-1.3-2.7-2.8-2.7H845.1l32,80.4v0.3L845.3,402.5z"/>
		</g>
	</g>
	<g>
		<g>
			<path fill="#102B33" d="M250.5,422c4,0,7,2.5,5.4,6.3l-31.3,79.1l31.3,79.1c1.6,3.8-1.4,6.3-5.4,6.3H90.9c-4,0-4.3-1.9-5.7-5.7
				l-29.9-75c-1.1-2.8-1.1-6.2,0-9l29.9-75.5c1.4-3.8,1.7-5.7,5.7-5.7H250.5z"/>
			<path fill="#432D2C" d="M437.2,422c4,0,7,2.5,5.4,6.3l-31.3,79.1l31.3,79.1c1.6,3.8-1.4,6.3-5.4,6.3H277.7c-4,0-4.3-1.9-5.7-5.7
				l-29.9-75c-1.1-2.8-1.1-6.2,0-9l29.9-75.5c1.4-3.8,1.7-5.7,5.7-5.7H437.2z"/>
			<path fill="#102B33" d="M623.9,422c4,0,7,2.5,5.4,6.3L598,507.5l31.3,79.1c1.6,3.8-1.4,6.3-5.4,6.3H464.4c-4,0-4.3-1.9-5.7-5.7
				l-29.9-75c-1.1-2.8-1.1-6.2,0-9l29.9-75.5c1.4-3.8,1.7-5.7,5.7-5.7H623.9z"/>
			<path fill="#432D2C" d="M810.7,422c4,0,7,2.5,5.4,6.3l-31.3,79.1l31.3,79.1c1.6,3.8-1.4,6.3-5.4,6.3H651.2c-4,0-4.3-1.9-5.7-5.7
				l-29.9-75c-1.1-2.8-1.1-6.2,0-9l29.9-75.5c1.4-3.8,1.7-5.7,5.7-5.7H810.7z"/>
			<path fill="#102B33" d="M997.4,422c4,0,7,2.5,5.4,6.3l-31.3,79.1l31.3,79.1c1.6,3.8-1.4,6.3-5.4,6.3H837.9c-4,0-4.3-1.9-5.7-5.7
				l-29.9-75c-1.1-2.8-1.1-6.2,0-9l29.9-75.5c1.4-3.8,1.7-5.7,5.7-5.7H997.4z"/>
		</g>
		<g>
			<path fill="#9FBFCE" d="M93.2,589.8c-2.2,0-3.3-0.9-4.4-3.6l-29.9-75c-0.6-2.1-0.6-4.7,0-6.8l29.9-75.5c1.1-2.7,2.2-3.6,4.4-3.6
				h157.9c1.9,0,3,0.6,2.5,2.1l-31.8,80.2l31.8,80.4c0.5,1.1,0,1.9-1.9,1.9H93.2z M220.1,507.2l32-80.4H93.2c-1.6,0-2.4,1.3-2.8,2.7
				l-29.9,75.5c-0.6,1.7-0.6,3.8,0,5.5l29.9,75c0.5,1.4,1.3,2.7,2.8,2.7h158.7l-31.8-80.7V507.2z"/>
			<path fill="#EF9D92" d="M279.9,589.8c-2.2,0-3.3-0.9-4.4-3.6l-29.9-75c-0.6-2.1-0.6-4.7,0-6.8l29.9-75.5c1.1-2.7,2.2-3.6,4.4-3.6
				h157.9c1.9,0,3,0.6,2.5,2.1l-31.8,80.2l31.8,80.4c0.5,1.1,0,1.9-1.9,1.9H279.9z M406.8,507.2l32-80.4H279.9
				c-1.6,0-2.4,1.3-2.8,2.7l-29.9,75.5c-0.6,1.7-0.6,3.8,0,5.5l29.9,75c0.5,1.4,1.3,2.7,2.8,2.7h158.7l-31.8-80.7V507.2z"/>
			<path fill="#9FBFCE" d="M466.6,589.8c-2.2,0-3.3-0.9-4.4-3.6l-29.9-75c-0.6-2.1-0.6-4.7,0-6.8l29.9-75.5c1.1-2.7,2.2-3.6,4.4-3.6
				h157.9c1.9,0,3,0.6,2.5,2.1l-31.8,80.2l31.8,80.4c0.5,1.1,0,1.9-1.9,1.9H466.6z M593.6,507.2l32-80.4H466.6
				c-1.6,0-2.4,1.3-2.8,2.7l-29.9,75.5c-0.6,1.7-0.6,3.8,0,5.5l29.9,75c0.5,1.4,1.3,2.7,2.8,2.7h158.7l-31.8-80.7V507.2z"/>
			<path fill="#EF9D92" d="M653.4,589.8c-2.2,0-3.3-0.9-4.4-3.6l-29.9-75c-0.6-2.1-0.6-4.7,0-6.8l29.9-75.5c1.1-2.7,2.2-3.6,4.4-3.6
				h157.9c1.9,0,3,0.6,2.5,2.1L782,507.5l31.8,80.4c0.5,1.1,0,1.9-1.9,1.9H653.4z M780.3,507.2l32-80.4H653.4
				c-1.6,0-2.4,1.3-2.8,2.7l-29.9,75.5c-0.6,1.7-0.6,3.8,0,5.5l29.9,75c0.5,1.4,1.3,2.7,2.8,2.7h158.7l-31.8-80.7V507.2z"/>
			<path fill="#9FBFCE" d="M840.1,589.8c-2.2,0-3.3-0.9-4.4-3.6l-29.9-75c-0.6-2.1-0.6-4.7,0-6.8l29.9-75.5c1.1-2.7,2.2-3.6,4.4-3.6
				H998c1.9,0,3,0.6,2.5,2.1l-31.8,80.2l31.8,80.4c0.5,1.1,0,1.9-1.9,1.9H840.1z M967,507.2l32-80.4H840.1c-1.6,0-2.4,1.3-2.8,2.7
				l-29.9,75.5c-0.6,1.7-0.6,3.8,0,5.5l29.9,75c0.5,1.4,1.3,2.7,2.8,2.7h158.7L967,507.5V507.2z"/>
		</g>
	</g>
	<g>
		<g>
			<path fill="#432D2C" d="M259,607.6c4,0,4.3,1.9,5.7,5.7l29.9,75.5c1.1,2.8,1.1,6.2,0,9l-29.9,75c-1.4,3.8-1.7,5.7-5.7,5.7H99.5
				c-4,0-7-2.5-5.4-6.3l31.3-79.1L94.1,614c-1.6-3.8,1.4-6.3,5.4-6.3H259z"/>
			<path fill="#102B33" d="M445.8,607.6c4,0,4.3,1.9,5.7,5.7l29.9,75.5c1.1,2.8,1.1,6.2,0,9l-29.9,75c-1.4,3.8-1.7,5.7-5.7,5.7
				H286.3c-4,0-7-2.5-5.4-6.3l31.3-79.1L280.9,614c-1.6-3.8,1.4-6.3,5.4-6.3H445.8z"/>
			<path fill="#432D2C" d="M632.5,607.6c4,0,4.3,1.9,5.7,5.7l29.9,75.5c1.1,2.8,1.1,6.2,0,9l-29.9,75c-1.4,3.8-1.7,5.7-5.7,5.7H473
				c-4,0-7-2.5-5.4-6.3l31.3-79.1L467.6,614c-1.6-3.8,1.4-6.3,5.4-6.3H632.5z"/>
			<path fill="#102B33" d="M819.2,607.6c4,0,4.3,1.9,5.7,5.7l29.9,75.5c1.1,2.8,1.1,6.2,0,9l-29.9,75c-1.4,3.8-1.7,5.7-5.7,5.7
				H659.7c-4,0-7-2.5-5.4-6.3l31.3-79.1L654.4,614c-1.6-3.8,1.4-6.3,5.4-6.3H819.2z"/>
			<path fill="#432D2C" d="M1006,607.6c4,0,4.3,1.9,5.7,5.7l29.9,75.5c1.1,2.8,1.1,6.2,0,9l-29.9,75c-1.4,3.8-1.7,5.7-5.7,5.7H846.5
				c-4,0-7-2.5-5.4-6.3l31.3-79.1L841.1,614c-1.6-3.8,1.4-6.3,5.4-6.3H1006z"/>
		</g>
		<g>
			<path fill="#EF9D92" d="M96.6,773.5l31.8-80.4l-31.8-80.2c-0.5-1.4,0.6-2.1,2.5-2.1h157.9c2.2,0,3.3,0.9,4.4,3.6l29.9,75.5
				c0.6,2.1,0.6,4.7,0,6.8l-29.9,75c-1.1,2.7-2.2,3.6-4.4,3.6H98.5C96.6,775.4,96.1,774.6,96.6,773.5z M98.3,773.8h158.7
				c1.6,0,2.4-1.3,2.8-2.7l29.9-75c0.6-1.7,0.6-3.8,0-5.5l-29.9-75.5c-0.5-1.4-1.3-2.7-2.8-2.7H98.2l32,80.4v0.3L98.3,773.8z"/>
			<path fill="#9FBFCE" d="M283.3,773.5l31.8-80.4l-31.8-80.2c-0.5-1.4,0.6-2.1,2.5-2.1h157.9c2.2,0,3.3,0.9,4.4,3.6l29.9,75.5
				c0.6,2.1,0.6,4.7,0,6.8l-29.9,75c-1.1,2.7-2.2,3.6-4.4,3.6H285.2C283.3,775.4,282.9,774.6,283.3,773.5z M285.1,773.8h158.7
				c1.6,0,2.4-1.3,2.8-2.7l29.9-75c0.6-1.7,0.6-3.8,0-5.5l-29.9-75.5c-0.5-1.4-1.3-2.7-2.8-2.7H284.9l32,80.4v0.3L285.1,773.8z"/>
			<path fill="#EF9D92" d="M470.1,773.5l31.8-80.4l-31.8-80.2c-0.5-1.4,0.6-2.1,2.5-2.1h157.9c2.2,0,3.3,0.9,4.4,3.6l29.9,75.5
				c0.6,2.1,0.6,4.7,0,6.8l-29.9,75c-1.1,2.7-2.2,3.6-4.4,3.6H472C470.1,775.4,469.6,774.6,470.1,773.5z M471.8,773.8h158.7
				c1.6,0,2.4-1.3,2.8-2.7l29.9-75c0.6-1.7,0.6-3.8,0-5.5l-29.9-75.5c-0.5-1.4-1.3-2.7-2.8-2.7H471.6l32,80.4v0.3L471.8,773.8z"/>
			<path fill="#9FBFCE" d="M656.8,773.5l31.8-80.4l-31.8-80.2c-0.5-1.4,0.6-2.1,2.5-2.1h157.9c2.2,0,3.3,0.9,4.4,3.6l29.9,75.5
				c0.6,2.1,0.6,4.7,0,6.8l-29.9,75c-1.1,2.7-2.2,3.6-4.4,3.6H658.7C656.8,775.4,656.3,774.6,656.8,773.5z M658.5,773.8h158.7
				c1.6,0,2.4-1.3,2.8-2.7l29.9-75c0.6-1.7,0.6-3.8,0-5.5l-29.9-75.5c-0.5-1.4-1.3-2.7-2.8-2.7H658.4l32,80.4v0.3L658.5,773.8z"/>
			<path fill="#EF9D92" d="M843.5,773.5l31.8-80.4l-31.8-80.2c-0.5-1.4,0.6-2.1,2.5-2.1H1004c2.2,0,3.3,0.9,4.4,3.6l29.9,75.5
				c0.6,2.1,0.6,4.7,0,6.8l-29.9,75c-1.1,2.7-2.2,3.6-4.4,3.6H845.4C843.5,775.4,843.1,774.6,843.5,773.5z M845.3,773.8H1004
				c1.6,0,2.4-1.3,2.8-2.7l29.9-75c0.6-1.7,0.6-3.8,0-5.5l-29.9-75.5c-0.5-1.4-1.3-2.7-2.8-2.7H845.1l32,80.4v0.3L845.3,773.8z"/>
		</g>
	</g>
</g>
<g id="Layer_2">
	<g>
		<g>
			<path fill="#762117" d="M104.2,183.8v-14.4c0-2.2,0.6-3.6,1.7-4.6l12.3-10.3c-8.7-2.7-14-8.4-14-20.3v-12.9
				c0-7.4,2.5-13.2,7.1-17.1l16-13.4c4.4-3.7,11.1-5.8,19.5-5.8h40.9c3.9,0,5.7,1.7,5.7,5.7v14.7c0,2.2-0.6,3.6-1.7,4.6l-11.5,9.5
				c10.1,2.3,16.4,8,16.4,20.9v12.9c0,7.4-2.5,13.2-7.3,17.1l-15.9,13.3c-4.6,3.8-11.2,5.9-19.5,5.9h-44.1
				C105.9,189.5,104.2,187.8,104.2,183.8z"/>
			<path fill="#102B33" d="M317.8,188.3c-0.7,0.7-2.1,1.2-3.8,1.2h-18.1c-4.1,0-5.7-1.7-5.7-5.7v-32.5c0-8.7,1.2-10.6,4.9-20.1
				l9.4-28c0.5-1.5,1.2-2.7,2.2-3.4l16-13.4c1.2-1,3-1.5,5.2-1.5h31.9c3.8,0,6,1.2,7.3,4.8l10.7,28c3.7,9.6,4.9,11.5,4.9,20.2v32.5
				c0,2.2-0.6,3.6-1.7,4.6l-16,13.3c-0.7,0.7-2.1,1.2-3.8,1.2h-18.6c-3.9,0-6-1.8-6-5.7v-16h-1v2.6c0,2.2-0.6,3.6-1.7,4.6
				L317.8,188.3z"/>
			<path fill="#762117" d="M504.3,189.5c-3.9,0-5.7-1.7-5.7-5.7v-59.3h-16.5c-3.9,0-5.7-1.7-5.7-5.7V104c0-2.2,0.6-3.6,1.7-4.6
				L494.1,86c0.9-0.7,2.2-1.1,3.9-1.1h65c3.9,0,5.7,1.7,5.7,5.7v14.9c0,2.2-0.6,3.6-1.7,4.6l-16,13.3c-0.7,0.7-2.1,1.2-3.8,1.2h-0.6
				v45.8c0,2.2-0.6,3.6-1.7,4.6l-16,13.3c-0.7,0.7-2.1,1.2-3.8,1.2H504.3z"/>
			<path fill="#102B33" d="M700.8,191.4c-31.7,0-38.7-14.5-38.7-30.1V123c0-7.8,1.8-14.3,7.4-19l16-13.3c5.7-4.8,15.2-7.6,31.2-7.6
				c31.7,0,38.7,11,38.7,26.5v42c0,7.6-1.8,14.2-7.4,18.8l-16,13.3C726.3,188.5,716.9,191.4,700.8,191.4z M710.8,150.8v-23.4
				c0-1.6-0.5-2.8-2.3-3.6v23.3C708.5,148.7,709,150,710.8,150.8z"/>
			<path fill="#762117" d="M877.3,188.3c-0.7,0.7-2.1,1.2-3.8,1.2h-19c-3.9,0-5.7-1.7-5.7-5.7V104c0-2.2,0.6-3.6,1.7-4.6L866.4,86
				c0.9-0.7,2.2-1.1,3.9-1.1H910c19.6,0,25.5,9,25.5,21.8v5.7c0,6-1.4,10.6-4.7,13.4l-0.1,0.1c6.5,2.2,11.6,8.6,11.6,18.4v26.1
				c0,2.2-0.6,3.6-1.7,4.6l-16,13.3c-0.7,0.7-2.1,1.2-3.8,1.2h-18.4c-3.9,0-5.7-1.7-5.7-5.7V165c0-1.6-0.6-2.8-1.7-3.4v8.9
				c0,2.2-0.6,3.6-1.7,4.6L877.3,188.3z"/>
		</g>
		<g>
			<path fill="#DA4226" d="M125.8,174.9c-3.1,0-4.4-1.4-4.4-4.4V156c0-3.1,1.4-4.4,4.4-4.4h38.3c2.1,0,3.2-1.6,3.2-3.6
				c0-2.8-1.1-3.9-3.2-4.2l-23.7-2.6c-11.6-1.7-19.1-6.7-19.1-20.5v-12.9c0-14,9.5-21.7,25.5-21.7h40.9c3.1,0,4.4,1.4,4.4,4.4v14.7
				c0,3.1-1.4,4.4-4.4,4.4h-35.1c-2.1,0-3.3,1.5-3.3,3.7s1.2,3.7,3.3,3.9l23.5,2.5c11.6,1.7,19.2,6.7,19.2,20.5v12.9
				c0,14-9.6,21.7-25.5,21.7H125.8z"/>
			<path fill="#27839E" d="M329.9,174.9h-18.1c-3.2,0-4.4-1.4-4.4-4.4v-32.5c0-8.5,1.2-10.3,4.8-19.7l9.5-28
				c1.1-3.1,3.1-4.1,6.3-4.1h31.9c3.2,0,5.1,1,6.2,4.1l10.7,28c3.6,9.4,4.8,11.2,4.8,19.7v32.5c0,3.1-1.4,4.4-4.4,4.4h-18.6
				c-3.1,0-4.8-1.4-4.8-4.4v-17.2h-19.3v17.2C334.3,173.5,333,174.9,329.9,174.9z M335.6,130.7h16.9l-5.8-18.7
				c-0.7-1.6-1-2.1-2.3-2.1h-0.6c-1.4,0-1.6,0.5-2.3,2.1L335.6,130.7z"/>
			<path fill="#DA4226" d="M520.2,174.9c-3.1,0-4.4-1.4-4.4-4.4v-60.5h-17.7c-3.1,0-4.4-1.4-4.4-4.4V90.6c0-3.1,1.4-4.4,4.4-4.4h65
				c3.1,0,4.4,1.4,4.4,4.4v14.9c0,3.1-1.4,4.4-4.4,4.4h-17.7v60.5c0,3.1-1.4,4.4-4.4,4.4H520.2z"/>
			<path fill="#27839E" d="M716.7,176.7c-30.2,0-37.5-10.1-37.5-25.1v-42c0-15,7.3-25.3,37.5-25.3s37.5,10.2,37.5,25.3v42
				C754.2,166.6,746.9,176.7,716.7,176.7z M716.7,152.9c8.3,0,9.6-2.5,9.6-5.8V114c0-3.2-1.4-5.7-9.6-5.7c-8.1,0-9.5,2.5-9.5,5.7
				v33.1C707.2,150.5,708.6,152.9,716.7,152.9z"/>
			<path fill="#DA4226" d="M870.4,174.9c-3.1,0-4.4-1.4-4.4-4.4V90.6c0-3.1,1.4-4.4,4.4-4.4H910c18.5,0,24.3,8.4,24.3,20.6v5.7
				c0,6.9-1.7,11.8-6.9,14c7.5,1,13.7,7.5,13.7,17.9v26.1c0,3.1-1.4,4.4-4.4,4.4h-19.1c-3.1,0-4.4-1.4-4.4-4.4v-18.8
				c0-3.7-1.2-5.3-4.7-5.3h-14.7v24.1c0,3.1-1.4,4.4-4.4,4.4H870.4z M893.8,124.1h7.9c4.3,0,5.4-2.5,5.4-5.8v-4.2
				c0-3.3-1.1-5.8-5.4-5.8h-7.9V124.1z"/>
		</g>
		<g>
			<path fill="#EF9D92" d="M181.1,98.5h-33.8c-7,0-11.3,3.8-11.3,10v11.3c0,4.9,3.3,8.3,8.7,8.7l26.2,2.6c7.4,0.7,11,4.6,11,11.2
				v10.2c0,6.9-5.3,11.2-13.7,11.2h-35.9v-1.2h35.9c7.6,0,12.4-3.8,12.4-10v-10.2c0-5.9-3.2-9.4-10-10l-26.2-2.6
				c-6-0.6-9.7-4.4-9.7-10v-11.3c0-6.9,4.8-11.2,12.6-11.2h33.8V98.5z"/>
			<path fill="#9FBFCE" d="M367,142.6h-45.5v21.2h-1.2v-26.2c0-4.6,0.7-8.4,2.1-12l7.9-20.2c1.8-4.6,3.3-8.1,9-8.1h9.5
				c5.4,0,6.9,3.4,8.9,8.3l8.5,20.1c1.4,3.6,2.1,7.4,2.1,12v26.2H367V142.6z M321.5,141.3H367v-3.8c0-4.4-0.7-8.1-2-11.5l-8.5-20.1
				c-1.8-4.3-3.2-7.5-7.8-7.5h-9.5c-4.9,0-6.3,3.2-7.9,7.4l-7.9,20.2c-1.2,3.3-2,7-2,11.5V141.3z"/>
			<path fill="#EF9D92" d="M530,98.5h-25.3v-1.2h51.7v1.2h-25.3v65.3H530V98.5z"/>
			<path fill="#9FBFCE" d="M716.6,165.4c-18.7,0-23.9-6.7-23.9-16.6v-36.3c0-10,5.2-16.6,23.9-16.6s24.3,6.7,24.3,16.6v36.3
				C740.9,158.7,735.3,165.4,716.6,165.4z M716.6,164.1c17.7,0,23-6.2,23-15.4v-36.3c0-9.2-5.3-15.4-23-15.4
				c-17.7,0-22.7,6.2-22.7,15.4v36.3C693.9,158,698.9,164.1,716.6,164.1z"/>
			<path fill="#EF9D92" d="M879.2,163.8V97.2h28.1c9.6,0,14,5.9,14,14v8.5c0,7.5-1.5,12.4-7.4,14.3h1.4c10.1,0,12.3,4.6,12.3,13.2
				v16.5h-1.2v-16.5c0-8.1-1.7-12.1-11.1-12.1h-34.9v28.6H879.2z M880.5,98.5v35.6h26.9c10.2,0,12.8-5.1,12.8-14.2v-8.6
				c0-7.6-4.1-12.8-12.8-12.8H880.5z"/>
		</g>
	</g>
	<g>
		<g>
			<path fill="#762117" d="M132.7,925.9c-0.7,0.7-2.1,1.2-3.8,1.2h-19c-3.9,0-5.7-1.7-5.7-5.7v-79.8c0-2.2,0.6-3.6,1.7-4.6
				l15.9-13.4c0.9-0.7,2.2-1.1,3.9-1.1h39.7c19.6,0,25.5,9,25.5,21.8v5.7c0,6-1.4,10.6-4.7,13.4l-0.1,0.1
				c6.5,2.2,11.6,8.6,11.6,18.4V908c0,2.2-0.6,3.6-1.7,4.6l-16,13.3c-0.7,0.7-2.1,1.2-3.8,1.2h-18.4c-3.9,0-5.7-1.7-5.7-5.7v-18.8
				c0-1.6-0.6-2.8-1.7-3.5v8.9c0,2.2-0.6,3.6-1.7,4.6L132.7,925.9z"/>
			<path fill="#144A56" d="M328.5,929c-31.7,0-38.7-14.5-38.7-30.1v-38.3c0-7.8,1.8-14.3,7.4-19l16-13.3c5.7-4.8,15.2-7.6,31.2-7.6
				c31.7,0,38.7,11,38.7,26.5v42c0,7.6-1.8,14.2-7.4,18.8l-16,13.3C354,926.1,344.6,929,328.5,929z M338.5,888.4V865
				c0-1.6-0.5-2.8-2.3-3.6v23.3C336.2,886.3,336.7,887.6,338.5,888.4z"/>
			<path fill="#762117" d="M504.3,927.1c-3.9,0-5.7-1.7-5.7-5.7v-59.3h-16.5c-3.9,0-5.7-1.7-5.7-5.7v-14.9c0-2.2,0.6-3.6,1.7-4.6
				l15.9-13.4c0.9-0.7,2.2-1.1,3.9-1.1h65c3.9,0,5.7,1.7,5.7,5.7v14.9c0,2.2-0.6,3.6-1.7,4.6l-16,13.3c-0.7,0.7-2.1,1.2-3.8,1.2
				h-0.6V908c0,2.2-0.6,3.6-1.7,4.6l-16,13.3c-0.7,0.7-2.1,1.2-3.8,1.2H504.3z"/>
			<path fill="#144A56" d="M690.1,925.9c-0.7,0.7-2.1,1.2-3.8,1.2h-18.1c-4.1,0-5.7-1.7-5.7-5.7v-32.5c0-8.7,1.2-10.6,4.9-20.1
				l9.4-28c0.5-1.5,1.2-2.7,2.2-3.4l16-13.4c1.2-1,3-1.5,5.2-1.5h31.9c3.8,0,6,1.2,7.3,4.8l10.7,28c3.7,9.6,4.9,11.5,4.9,20.2V908
				c0,2.2-0.6,3.6-1.7,4.6l-16,13.3c-0.7,0.7-2.1,1.2-3.8,1.2h-18.6c-3.9,0-6-1.8-6-5.7v-16h-1v2.6c0,2.2-0.6,3.6-1.7,4.6
				L690.1,925.9z"/>
			<path fill="#762117" d="M848.8,921.4V907c0-2.2,0.6-3.6,1.7-4.6l12.3-10.3c-8.7-2.7-14-8.4-14-20.3v-12.9
				c0-7.4,2.5-13.2,7.1-17.1l16-13.4c4.4-3.7,11.1-5.8,19.5-5.8h40.9c3.9,0,5.7,1.7,5.7,5.7v14.7c0,2.2-0.6,3.6-1.7,4.6l-11.5,9.5
				c10.1,2.3,16.4,8,16.4,20.9v12.9c0,7.4-2.5,13.2-7.3,17.1L918,921.2c-4.6,3.8-11.2,5.9-19.5,5.9h-44.1
				C850.5,927.1,848.8,925.4,848.8,921.4z"/>
		</g>
		<g>
			<path fill="#DA4226" d="M125.8,912.4c-3.1,0-4.4-1.4-4.4-4.4v-79.8c0-3.1,1.4-4.4,4.4-4.4h39.7c18.5,0,24.3,8.4,24.3,20.6v5.7
				c0,6.9-1.7,11.8-6.9,14c7.5,1,13.7,7.5,13.7,17.9V908c0,3.1-1.4,4.4-4.4,4.4h-19.1c-3.1,0-4.4-1.4-4.4-4.4v-18.8
				c0-3.7-1.2-5.3-4.7-5.3h-14.7V908c0,3.1-1.4,4.4-4.4,4.4H125.8z M149.2,861.7h7.9c4.3,0,5.4-2.5,5.4-5.8v-4.2
				c0-3.3-1.1-5.8-5.4-5.8h-7.9V861.7z"/>
			<path fill="#27839E" d="M344.4,914.3c-30.2,0-37.5-10.1-37.5-25.1v-42c0-15,7.3-25.3,37.5-25.3c30.2,0,37.5,10.2,37.5,25.3v42
				C381.9,904.2,374.6,914.3,344.4,914.3z M344.4,890.5c8.3,0,9.6-2.5,9.6-5.8v-33.1c0-3.2-1.4-5.7-9.6-5.7c-8.1,0-9.5,2.5-9.5,5.7
				v33.1C334.9,888.1,336.3,890.5,344.4,890.5z"/>
			<path fill="#DA4226" d="M520.2,912.4c-3.1,0-4.4-1.4-4.4-4.4v-60.5h-17.7c-3.1,0-4.4-1.4-4.4-4.4v-14.9c0-3.1,1.4-4.4,4.4-4.4h65
				c3.1,0,4.4,1.4,4.4,4.4v14.9c0,3.1-1.4,4.4-4.4,4.4h-17.7V908c0,3.1-1.4,4.4-4.4,4.4H520.2z"/>
			<path fill="#27839E" d="M702.2,912.4h-18.1c-3.2,0-4.4-1.4-4.4-4.4v-32.5c0-8.5,1.2-10.3,4.8-19.7l9.5-28
				c1.1-3.1,3.1-4.1,6.3-4.1h31.9c3.2,0,5.1,1,6.2,4.1l10.7,28c3.6,9.4,4.8,11.2,4.8,19.7V908c0,3.1-1.4,4.4-4.4,4.4h-18.6
				c-3.1,0-4.8-1.4-4.8-4.4v-17.2h-19.3V908C706.6,911.1,705.3,912.4,702.2,912.4z M707.9,868.3h16.9l-5.8-18.7
				c-0.7-1.6-1-2.1-2.3-2.1H716c-1.4,0-1.6,0.5-2.3,2.1L707.9,868.3z"/>
			<path fill="#DA4226" d="M870.4,912.4c-3.1,0-4.4-1.4-4.4-4.4v-14.4c0-3.1,1.4-4.4,4.4-4.4h38.3c2.1,0,3.2-1.6,3.2-3.6
				c0-2.8-1.1-3.9-3.2-4.2l-23.7-2.6c-11.6-1.7-19.1-6.7-19.1-20.5v-12.9c0-14,9.5-21.7,25.5-21.7h40.9c3.1,0,4.4,1.4,4.4,4.4v14.7
				c0,3.1-1.4,4.4-4.4,4.4h-35.1c-2.1,0-3.3,1.5-3.3,3.7s1.2,3.7,3.3,3.9l23.5,2.5c11.6,1.7,19.2,6.7,19.2,20.5v12.9
				c0,14-9.6,21.7-25.5,21.7H870.4z"/>
		</g>
		<g>
			<path fill="#EF9D92" d="M134.6,901.4v-66.5h28.1c9.6,0,14,5.9,14,14v8.5c0,7.5-1.5,12.4-7.4,14.3h1.4c10.1,0,12.3,4.6,12.3,13.2
				v16.5h-1.2v-16.5c0-8.1-1.7-12.1-11.1-12.1h-34.9v28.6H134.6z M135.9,836.1v35.6h26.9c10.2,0,12.8-5.1,12.8-14.2v-8.6
				c0-7.6-4.1-12.8-12.8-12.8H135.9z"/>
			<path fill="#9FBFCE" d="M344.3,903c-18.7,0-23.9-6.7-23.9-16.6V850c0-10,5.2-16.6,23.9-16.6c18.7,0,24.3,6.7,24.3,16.6v36.3
				C368.6,896.3,363,903,344.3,903z M344.3,901.7c17.7,0,23-6.2,23-15.4V850c0-9.2-5.3-15.4-23-15.4s-22.7,6.2-22.7,15.4v36.3
				C321.6,895.6,326.6,901.7,344.3,901.7z"/>
			<path fill="#EF9D92" d="M530,836.1h-25.3v-1.2h51.7v1.2h-25.3v65.3H530V836.1z"/>
			<path fill="#9FBFCE" d="M739.3,880.2h-45.5v21.2h-1.2v-26.2c0-4.6,0.7-8.4,2.1-12l7.9-20.2c1.8-4.6,3.3-8.1,9-8.1h9.5
				c5.4,0,6.9,3.4,8.9,8.3l8.5,20.1c1.4,3.6,2.1,7.4,2.1,12v26.2h-1.2V880.2z M693.8,878.9h45.5v-3.8c0-4.4-0.7-8.1-2-11.5
				l-8.5-20.1c-1.8-4.3-3.2-7.5-7.8-7.5h-9.5c-4.9,0-6.3,3.2-7.9,7.4l-7.9,20.2c-1.2,3.3-2,7-2,11.5V878.9z"/>
			<path fill="#EF9D92" d="M925.7,836.1h-33.8c-7,0-11.3,3.8-11.3,10v11.3c0,4.9,3.3,8.3,8.7,8.7l26.2,2.6c7.4,0.7,11,4.6,11,11.2
				v10.2c0,6.9-5.3,11.2-13.7,11.2H877v-1.2h35.9c7.6,0,12.4-3.8,12.4-10v-10.2c0-5.9-3.2-9.4-10-10l-26.2-2.6
				c-6-0.6-9.7-4.4-9.7-10V846c0-6.9,4.8-11.2,12.6-11.2h33.8V836.1z"/>
		</g>
	</g>
	<g>
		<g>
			<path fill="#102B33" d="M181.2,374.1c-0.7,0.7-2.1,1.2-3.8,1.2h-18.1c-4.1,0-5.7-1.7-5.7-5.7v-32.5c0-8.7,1.2-10.6,4.9-20.1
				l9.4-28c0.5-1.5,1.2-2.7,2.2-3.4l16-13.4c1.2-1,3-1.5,5.2-1.5h31.9c3.8,0,6,1.2,7.3,4.8l10.7,28c3.7,9.6,4.9,11.5,4.9,20.2v32.5
				c0,2.2-0.6,3.6-1.7,4.6l-16,13.3c-0.7,0.7-2.1,1.2-3.8,1.2H206c-3.9,0-6-1.8-6-5.7v-16h-1v2.6c0,2.2-0.6,3.6-1.7,4.6L181.2,374.1
				z"/>
			<path fill="#762117" d="M368.3,374.1c-0.7,0.7-2.1,1.2-3.8,1.2h-19c-3.9,0-5.7-1.7-5.7-5.7v-79.8c0-2.2,0.6-3.6,1.7-4.6
				l15.9-13.4c0.9-0.7,2.2-1.1,3.9-1.1h39.7c19.6,0,25.5,9,25.5,21.8v5.7c0,6-1.4,10.6-4.7,13.4l-0.1,0.1
				c6.5,2.2,11.6,8.6,11.6,18.4v26.1c0,2.2-0.6,3.6-1.7,4.6l-16,13.3c-0.7,0.7-2.1,1.2-3.8,1.2h-18.4c-3.9,0-5.7-1.7-5.7-5.7v-18.8
				c0-1.6-0.6-2.8-1.7-3.4v8.9c0,2.2-0.6,3.6-1.7,4.6L368.3,374.1z"/>
			<path fill="#102B33" d="M531.8,375.3c-3.9,0-5.7-1.7-5.7-5.7v-79.8c0-2.2,0.6-3.6,1.7-4.6l15.9-13.4c0.9-0.7,2.2-1.1,3.9-1.1
				h63.8c3.9,0,5.7,1.7,5.7,5.7v14.4c0,2.2-0.6,3.6-1.7,4.6l-10.6,8.7c1.6,0.9,2.3,2.3,2.3,5.1v13.2c0,2.2-0.6,3.6-1.7,4.6l-11,9.2
				h17c3.9,0,5.7,1.7,5.7,5.7v14.4c0,2.2-0.6,3.6-1.7,4.6l-16,13.3c-0.7,0.7-2.1,1.2-3.8,1.2H531.8z"/>
			<path fill="#762117" d="M717.8,375.3c-3.9,0-5.7-1.7-5.7-5.7v-79.8c0-2.2,0.6-3.6,1.7-4.6l15.9-13.4c0.9-0.7,2.2-1.1,3.9-1.1
				h40.9c23.5,0,30.3,10.3,30.3,25.3v15.8c0,7.9-2,14.5-7.4,19.1l-15.9,13.3c-4.7,3.9-12.1,6.3-22.9,6.3h-0.2v5.8
				c0,2.2-0.6,3.6-1.7,4.6l-16,13.3c-0.7,0.7-2.1,1.2-3.8,1.2H717.8z"/>
			<path fill="#102B33" d="M936.5,377.2c-31.7,0-38.7-14.5-38.7-30.1v-38.3c0-7.8,1.8-14.3,7.4-19l16-13.3
				c5.7-4.8,15.2-7.6,31.2-7.6c31.7,0,38.7,11,38.7,26.5v42c0,7.6-1.8,14.2-7.4,18.8l-16,13.3C962,374.3,952.5,377.2,936.5,377.2z
				 M946.5,336.6v-23.4c0-1.6-0.5-2.8-2.3-3.6v23.3C944.2,334.5,944.7,335.8,946.5,336.6z"/>
		</g>
		<g>
			<path fill="#27839E" d="M193.3,360.6h-18.1c-3.2,0-4.4-1.4-4.4-4.4v-32.5c0-8.5,1.2-10.3,4.8-19.7l9.5-28
				c1.1-3.1,3.1-4.1,6.3-4.1h31.9c3.2,0,5.1,1,6.2,4.1l10.7,28c3.6,9.4,4.8,11.2,4.8,19.7v32.5c0,3.1-1.4,4.4-4.4,4.4h-18.6
				c-3.1,0-4.8-1.4-4.8-4.4V339h-19.3v17.2C197.7,359.3,196.4,360.6,193.3,360.6z M198.9,316.5h16.9l-5.8-18.7
				c-0.7-1.6-1-2.1-2.3-2.1h-0.6c-1.4,0-1.6,0.5-2.3,2.1L198.9,316.5z"/>
			<path fill="#DA4226" d="M361.4,360.6c-3.1,0-4.4-1.4-4.4-4.4v-79.8c0-3.1,1.4-4.4,4.4-4.4h39.7c18.5,0,24.3,8.4,24.3,20.6v5.7
				c0,6.9-1.7,11.8-6.9,14c7.5,1,13.7,7.5,13.7,17.9v26.1c0,3.1-1.4,4.4-4.4,4.4h-19.1c-3.1,0-4.4-1.4-4.4-4.4v-18.8
				c0-3.7-1.2-5.3-4.7-5.3h-14.7v24.1c0,3.1-1.4,4.4-4.4,4.4H361.4z M384.8,309.9h7.9c4.3,0,5.4-2.5,5.4-5.8v-4.2
				c0-3.3-1.1-5.8-5.4-5.8h-7.9V309.9z"/>
			<path fill="#27839E" d="M547.7,360.6c-3.1,0-4.4-1.4-4.4-4.4v-79.8c0-3.1,1.4-4.4,4.4-4.4h63.8c3.1,0,4.4,1.4,4.4,4.4v14.4
				c0,3.1-1.4,4.4-4.4,4.4h-40.7v9.5h30.7c3.1,0,4.4,1.2,4.4,4.4v13.2c0,3.1-1.4,4.4-4.4,4.4h-30.7v10.6h40.7c3.1,0,4.4,1.4,4.4,4.4
				v14.4c0,3.1-1.4,4.4-4.4,4.4H547.7z"/>
			<path fill="#DA4226" d="M733.7,360.6c-3.1,0-4.4-1.4-4.4-4.4v-79.8c0-3.1,1.4-4.4,4.4-4.4h40.9c22.4,0,29.1,9.7,29.1,24v15.8
				c0,14.3-6.7,24-29.1,24h-17.4v20.5c0,3.1-1.4,4.4-4.4,4.4H733.7z M757,313.6h14.3c4.8,0,5.8-2.8,5.8-6V301c0-3.2-1-6-5.8-6H757
				V313.6z"/>
			<path fill="#27839E" d="M952.4,362.5c-30.2,0-37.5-10.1-37.5-25.1v-42c0-15,7.3-25.3,37.5-25.3s37.5,10.2,37.5,25.3v42
				C989.9,352.4,982.6,362.5,952.4,362.5z M952.4,338.7c8.3,0,9.6-2.5,9.6-5.8v-33.1c0-3.2-1.4-5.7-9.6-5.7c-8.1,0-9.5,2.5-9.5,5.7
				v33.1C942.9,336.3,944.3,338.7,952.4,338.7z"/>
		</g>
		<g>
			<path fill="#9FBFCE" d="M230.4,328.4h-45.5v21.2h-1.2v-26.2c0-4.6,0.7-8.4,2.1-12l7.9-20.2c1.8-4.6,3.3-8.1,9-8.1h9.5
				c5.4,0,6.9,3.4,8.9,8.3l8.5,20.1c1.4,3.6,2.1,7.4,2.1,12v26.2h-1.2V328.4z M184.9,327.1h45.5v-3.8c0-4.4-0.7-8.1-2-11.5
				l-8.5-20.1c-1.8-4.3-3.2-7.5-7.8-7.5h-9.5c-4.9,0-6.3,3.2-7.9,7.4l-7.9,20.2c-1.2,3.3-2,7-2,11.5V327.1z"/>
			<path fill="#EF9D92" d="M370.3,349.6V283h28.1c9.6,0,14,5.9,14,14v8.5c0,7.5-1.5,12.4-7.4,14.3h1.4c10.1,0,12.3,4.6,12.3,13.2
				v16.5h-1.2V333c0-8.1-1.7-12.1-11.1-12.1h-34.9v28.6H370.3z M371.5,284.3v35.6h26.9c10.2,0,12.8-5.1,12.8-14.2v-8.6
				c0-7.6-4.1-12.8-12.8-12.8H371.5z"/>
			<path fill="#9FBFCE" d="M604.9,349.6h-48.4V283h48.4v1.2h-47.2v30.9h37.2v1.2h-37.2v31.9h47.2V349.6z"/>
			<path fill="#EF9D92" d="M744,325.3v24.3h-1.2V283h29.8c15.5,0,18.5,7.1,18.5,16.8v9.1c0,9.6-3,16.4-18.5,16.4H744z M772.5,324.1
				c14.5,0,17.2-6.3,17.2-15.2v-9.1c0-8.9-2.7-15.5-17.2-15.5H744v39.8H772.5z"/>
			<path fill="#9FBFCE" d="M952.3,351.2c-18.7,0-23.9-6.7-23.9-16.6v-36.3c0-10,5.2-16.6,23.9-16.6s24.3,6.7,24.3,16.6v36.3
				C976.6,344.5,971,351.2,952.3,351.2z M952.3,349.9c17.7,0,23-6.2,23-15.4v-36.3c0-9.2-5.3-15.4-23-15.4
				c-17.7,0-22.7,6.2-22.7,15.4v36.3C929.6,343.8,934.5,349.9,952.3,349.9z"/>
		</g>
	</g>
	<g>
		<g>
			<path fill="#144A56" d="M191.9,743.4c-31.7,0-38.7-14.5-38.7-30.1V675c0-7.8,1.8-14.3,7.4-19l16-13.3c5.7-4.8,15.2-7.6,31.2-7.6
				c31.7,0,38.7,11,38.7,26.5v42c0,7.6-1.8,14.2-7.4,18.9l-16,13.3C217.4,740.6,207.9,743.4,191.9,743.4z M201.9,702.9v-23.4
				c0-1.6-0.5-2.8-2.3-3.6v23.3C199.6,700.8,200.1,702,201.9,702.9z"/>
			<path fill="#762117" d="M345.5,741.6c-3.9,0-5.7-1.7-5.7-5.7v-79.8c0-2.2,0.6-3.6,1.7-4.6l15.9-13.4c0.9-0.7,2.2-1.1,3.9-1.1
				h40.9c23.5,0,30.3,10.3,30.3,25.3V678c0,7.9-2,14.5-7.4,19.1l-15.9,13.3c-4.7,3.9-12.1,6.3-22.9,6.3h-0.2v5.8
				c0,2.2-0.6,3.6-1.7,4.6l-16,13.3c-0.7,0.7-2.1,1.2-3.8,1.2H345.5z"/>
			<path fill="#144A56" d="M531.8,741.6c-3.9,0-5.7-1.7-5.7-5.7v-79.8c0-2.2,0.6-3.6,1.7-4.6l15.9-13.4c0.9-0.7,2.2-1.1,3.9-1.1
				h63.8c3.9,0,5.7,1.7,5.7,5.7V657c0,2.2-0.6,3.6-1.7,4.6l-10.6,8.7c1.6,0.9,2.3,2.3,2.3,5.1v13.2c0,2.2-0.6,3.6-1.7,4.6l-11,9.2
				h17c3.9,0,5.7,1.7,5.7,5.7v14.4c0,2.2-0.6,3.6-1.7,4.6l-16,13.3c-0.7,0.7-2.1,1.2-3.8,1.2H531.8z"/>
			<path fill="#762117" d="M740.6,740.3c-0.7,0.7-2.1,1.2-3.8,1.2h-19c-3.9,0-5.7-1.7-5.7-5.7v-79.8c0-2.2,0.6-3.6,1.7-4.6
				l15.9-13.4c0.9-0.7,2.2-1.1,3.9-1.1h39.7c19.6,0,25.5,9,25.5,21.8v5.7c0,6-1.4,10.6-4.7,13.4l-0.1,0.1
				c6.5,2.2,11.6,8.6,11.6,18.4v26.1c0,2.2-0.6,3.6-1.7,4.6l-16,13.3c-0.7,0.7-2.1,1.2-3.8,1.2h-18.4c-3.9,0-5.7-1.7-5.7-5.7V717
				c0-1.6-0.6-2.8-1.7-3.4v8.9c0,2.2-0.6,3.6-1.7,4.6L740.6,740.3z"/>
			<path fill="#144A56" d="M925.8,740.3c-0.7,0.7-2.1,1.2-3.8,1.2h-18.1c-4.1,0-5.7-1.7-5.7-5.7v-32.5c0-8.7,1.2-10.6,4.9-20.1
				l9.4-28c0.5-1.5,1.2-2.7,2.2-3.4l16-13.4c1.2-1,3-1.5,5.2-1.5h31.9c3.8,0,6,1.2,7.3,4.8l10.7,28c3.7,9.6,4.9,11.5,4.9,20.2v32.5
				c0,2.2-0.6,3.6-1.7,4.6l-16,13.3c-0.7,0.7-2.1,1.2-3.8,1.2h-18.6c-3.9,0-6-1.8-6-5.7v-16h-1v2.6c0,2.2-0.6,3.6-1.7,4.6
				L925.8,740.3z"/>
		</g>
		<g>
			<path fill="#27839E" d="M207.8,728.7c-30.2,0-37.5-10.1-37.5-25.1v-42c0-15,7.3-25.3,37.5-25.3c30.2,0,37.5,10.2,37.5,25.3v42
				C245.3,718.6,238,728.7,207.8,728.7z M207.8,705c8.3,0,9.6-2.5,9.6-5.8V666c0-3.2-1.4-5.7-9.6-5.7c-8.1,0-9.5,2.5-9.5,5.7v33.1
				C198.3,702.5,199.7,705,207.8,705z"/>
			<path fill="#DA4226" d="M361.4,726.9c-3.1,0-4.4-1.4-4.4-4.4v-79.8c0-3.1,1.4-4.4,4.4-4.4h40.9c22.4,0,29.1,9.7,29.1,24V678
				c0,14.3-6.7,24-29.1,24H385v20.5c0,3.1-1.4,4.4-4.4,4.4H361.4z M384.7,679.8H399c4.8,0,5.8-2.8,5.8-6v-6.5c0-3.2-1-6-5.8-6h-14.3
				V679.8z"/>
			<path fill="#27839E" d="M547.7,726.9c-3.1,0-4.4-1.4-4.4-4.4v-79.8c0-3.1,1.4-4.4,4.4-4.4h63.8c3.1,0,4.4,1.4,4.4,4.4V657
				c0,3.1-1.4,4.4-4.4,4.4h-40.7v9.5h30.7c3.1,0,4.4,1.2,4.4,4.4v13.2c0,3.1-1.4,4.4-4.4,4.4h-30.7v10.6h40.7c3.1,0,4.4,1.4,4.4,4.4
				v14.4c0,3.1-1.4,4.4-4.4,4.4H547.7z"/>
			<path fill="#DA4226" d="M733.7,726.9c-3.1,0-4.4-1.4-4.4-4.4v-79.8c0-3.1,1.4-4.4,4.4-4.4h39.7c18.5,0,24.3,8.4,24.3,20.6v5.7
				c0,6.9-1.7,11.8-6.9,14c7.5,1,13.7,7.5,13.7,17.9v26.1c0,3.1-1.4,4.4-4.4,4.4h-19.1c-3.1,0-4.4-1.4-4.4-4.4v-18.9
				c0-3.7-1.2-5.3-4.7-5.3h-14.7v24.1c0,3.1-1.4,4.4-4.4,4.4H733.7z M757.1,676.1h7.9c4.3,0,5.4-2.5,5.4-5.8v-4.2
				c0-3.3-1.1-5.8-5.4-5.8h-7.9V676.1z"/>
			<path fill="#27839E" d="M937.9,726.9h-18.1c-3.2,0-4.4-1.4-4.4-4.4v-32.5c0-8.5,1.2-10.3,4.8-19.7l9.5-28
				c1.1-3.1,3.1-4.1,6.3-4.1h31.9c3.2,0,5.1,1,6.2,4.1l10.7,28c3.6,9.4,4.8,11.2,4.8,19.7v32.5c0,3.1-1.4,4.4-4.4,4.4h-18.6
				c-3.1,0-4.8-1.4-4.8-4.4v-17.2h-19.3v17.2C942.3,725.5,941,726.9,937.9,726.9z M943.5,682.8h16.9l-5.8-18.7
				c-0.7-1.6-1-2.1-2.3-2.1h-0.6c-1.4,0-1.6,0.5-2.3,2.1L943.5,682.8z"/>
		</g>
		<g>
			<path fill="#9FBFCE" d="M207.7,717.4c-18.7,0-23.9-6.7-23.9-16.6v-36.3c0-10,5.2-16.6,23.9-16.6c18.7,0,24.3,6.7,24.3,16.6v36.3
				C232,710.8,226.4,717.4,207.7,717.4z M207.7,716.2c17.7,0,23-6.2,23-15.4v-36.3c0-9.2-5.3-15.4-23-15.4s-22.7,6.2-22.7,15.4v36.3
				C185,710,190,716.2,207.7,716.2z"/>
			<path fill="#EF9D92" d="M371.7,691.5v24.3h-1.2v-66.5h29.8c15.5,0,18.5,7.1,18.5,16.8v9.1c0,9.6-3,16.4-18.5,16.4H371.7z
				 M400.2,690.3c14.5,0,17.2-6.3,17.2-15.2V666c0-8.9-2.7-15.5-17.2-15.5h-28.6v39.8H400.2z"/>
			<path fill="#9FBFCE" d="M604.9,715.8h-48.4v-66.5h48.4v1.2h-47.2v30.9h37.2v1.2h-37.2v31.9h47.2V715.8z"/>
			<path fill="#EF9D92" d="M742.6,715.8v-66.5h28.1c9.6,0,14,5.9,14,14v8.5c0,7.5-1.5,12.4-7.4,14.3h1.4c10.1,0,12.3,4.6,12.3,13.2
				v16.5h-1.2v-16.5c0-8.1-1.7-12.1-11.1-12.1h-34.9v28.6H742.6z M743.8,650.5v35.6h26.9c10.2,0,12.8-5.1,12.8-14.2v-8.6
				c0-7.6-4.1-12.8-12.8-12.8H743.8z"/>
			<path fill="#9FBFCE" d="M975,694.6h-45.5v21.2h-1.2v-26.2c0-4.6,0.7-8.4,2.1-12l7.9-20.2c1.8-4.6,3.3-8.1,9-8.1h9.5
				c5.4,0,6.9,3.4,8.9,8.3l8.5,20.1c1.4,3.6,2.1,7.4,2.1,12v26.2H975V694.6z M929.5,693.4H975v-3.8c0-4.4-0.7-8.1-2-11.5l-8.5-20.1
				c-1.8-4.3-3.2-7.5-7.8-7.5h-9.5c-4.9,0-6.3,3.2-7.9,7.4l-7.9,20.2c-1.2,3.3-2,7-2,11.5V693.4z"/>
		</g>
	</g>
	<g>
		<g>
			<path fill="#762117" d="M132,558.3c-3.9,0-5.7-1.7-5.7-5.7v-59.3h-16.5c-3.9,0-5.7-1.7-5.7-5.7v-14.9c0-2.2,0.6-3.6,1.7-4.6
				l15.9-13.4c0.9-0.7,2.2-1.1,3.9-1.1h65c3.9,0,5.7,1.7,5.7,5.7v14.9c0,2.2-0.6,3.6-1.7,4.6l-16,13.3c-0.7,0.7-2.1,1.2-3.8,1.2
				h-0.6v45.8c0,2.2-0.6,3.6-1.7,4.6l-16,13.3c-0.7,0.7-2.1,1.2-3.8,1.2H132z"/>
			<path fill="#102B33" d="M296.1,558.3c-3.9,0-5.7-1.7-5.7-5.7v-79.8c0-2.2,0.6-3.6,1.7-4.6l15.9-13.4c0.9-0.7,2.2-1.1,3.9-1.1
				h63.8c3.9,0,5.7,1.7,5.7,5.7v14.4c0,2.2-0.6,3.6-1.7,4.6l-10.6,8.7c1.6,0.9,2.3,2.3,2.3,5.1v13.2c0,2.2-0.6,3.6-1.7,4.6l-11,9.2
				h17c3.9,0,5.7,1.7,5.7,5.7v14.4c0,2.2-0.6,3.6-1.7,4.6l-16,13.3c-0.7,0.7-2.1,1.2-3.8,1.2H296.1z"/>
			<path fill="#762117" d="M504.5,557c-0.7,0.7-2.1,1.2-3.8,1.2h-18.5c-3.9,0-5.7-1.7-5.7-5.7v-79.8c0-2.2,0.6-3.6,1.7-4.6
				l15.9-13.4c0.9-0.7,2.2-1.1,3.9-1.1h12.8c3.6,0,5.8,1,8.3,3.8l7.4,9.2l14.3-12c0.9-0.7,2.2-1.1,3.9-1.1h18.5
				c3.9,0,5.7,1.7,5.7,5.7v79.8c0,2.2-0.6,3.6-1.7,4.6l-16,13.3c-0.7,0.7-2.1,1.2-3.8,1.2h-18.5c-3.9,0-5.7-1.7-5.7-5.7v-14.8
				l-1-1.2v2.6c0,2.2-0.6,3.6-1.7,4.6L504.5,557z"/>
			<path fill="#102B33" d="M668.4,558.3c-3.9,0-5.7-1.7-5.7-5.7v-79.8c0-2.2,0.6-3.6,1.7-4.6l15.9-13.4c0.9-0.7,2.2-1.1,3.9-1.1
				h63.8c3.9,0,5.7,1.7,5.7,5.7v14.4c0,2.2-0.6,3.6-1.7,4.6l-10.6,8.7c1.6,0.9,2.3,2.3,2.3,5.1v13.2c0,2.2-0.6,3.6-1.7,4.6l-11,9.2
				h17c3.9,0,5.7,1.7,5.7,5.7v14.4c0,2.2-0.6,3.6-1.7,4.6l-16,13.3c-0.7,0.7-2.1,1.2-3.8,1.2H668.4z"/>
			<path fill="#762117" d="M876.6,558.3c-3.9,0-5.7-1.7-5.7-5.7v-59.3h-16.5c-3.9,0-5.7-1.7-5.7-5.7v-14.9c0-2.2,0.6-3.6,1.7-4.6
				l15.9-13.4c0.9-0.7,2.2-1.1,3.9-1.1h65c3.9,0,5.7,1.7,5.7,5.7v14.9c0,2.2-0.6,3.6-1.7,4.6l-16,13.3c-0.7,0.7-2.1,1.2-3.8,1.2
				h-0.6v45.8c0,2.2-0.6,3.6-1.7,4.6l-16,13.3c-0.7,0.7-2.1,1.2-3.8,1.2H876.6z"/>
		</g>
		<g>
			<path fill="#DA4226" d="M147.9,543.6c-3.1,0-4.4-1.4-4.4-4.4v-60.5h-17.7c-3.1,0-4.4-1.4-4.4-4.4v-14.9c0-3.1,1.4-4.4,4.4-4.4h65
				c3.1,0,4.4,1.4,4.4,4.4v14.9c0,3.1-1.4,4.4-4.4,4.4h-17.7v60.5c0,3.1-1.4,4.4-4.4,4.4H147.9z"/>
			<path fill="#27839E" d="M312,543.6c-3.1,0-4.4-1.4-4.4-4.4v-79.8c0-3.1,1.4-4.4,4.4-4.4h63.8c3.1,0,4.4,1.4,4.4,4.4v14.4
				c0,3.1-1.4,4.4-4.4,4.4h-40.7v9.5h30.7c3.1,0,4.4,1.2,4.4,4.4v13.2c0,3.1-1.4,4.4-4.4,4.4h-30.7v10.6h40.7c3.1,0,4.4,1.4,4.4,4.4
				v14.4c0,3.1-1.4,4.4-4.4,4.4H312z"/>
			<path fill="#DA4226" d="M498.1,543.6c-3.1,0-4.4-1.4-4.4-4.4v-79.8c0-3.1,1.4-4.4,4.4-4.4h12.8c3.2,0,5.2,0.9,7.3,3.3l22.2,27.4
				v-26.2c0-3.1,1.4-4.4,4.4-4.4h18.5c3.1,0,4.4,1.4,4.4,4.4v79.8c0,3.1-1.4,4.4-4.4,4.4h-18.5c-3.1,0-4.4-1.4-4.4-4.4V524
				L521,498.5v40.7c0,3.1-1.4,4.4-4.4,4.4H498.1z"/>
			<path fill="#27839E" d="M684.3,543.6c-3.1,0-4.4-1.4-4.4-4.4v-79.8c0-3.1,1.4-4.4,4.4-4.4h63.8c3.1,0,4.4,1.4,4.4,4.4v14.4
				c0,3.1-1.4,4.4-4.4,4.4h-40.7v9.5h30.7c3.1,0,4.4,1.2,4.4,4.4v13.2c0,3.1-1.4,4.4-4.4,4.4h-30.7v10.6h40.7c3.1,0,4.4,1.4,4.4,4.4
				v14.4c0,3.1-1.4,4.4-4.4,4.4H684.3z"/>
			<path fill="#DA4226" d="M892.5,543.6c-3.1,0-4.4-1.4-4.4-4.4v-60.5h-17.7c-3.1,0-4.4-1.4-4.4-4.4v-14.9c0-3.1,1.4-4.4,4.4-4.4h65
				c3.1,0,4.4,1.4,4.4,4.4v14.9c0,3.1-1.4,4.4-4.4,4.4h-17.7v60.5c0,3.1-1.4,4.4-4.4,4.4H892.5z"/>
		</g>
		<g>
			<path fill="#EF9D92" d="M157.7,467.2h-25.3V466h51.7v1.2h-25.3v65.3h-1.2V467.2z"/>
			<path fill="#9FBFCE" d="M369.2,532.5h-48.4V466h48.4v1.2H322v30.9h37.2v1.2H322v31.9h47.2V532.5z"/>
			<path fill="#EF9D92" d="M510,467l43.4,51v-52h1.2v66.5h-1.2v-12.7l-44.6-52.2c-0.2-0.2-0.4-0.4-0.6-0.4c-0.2,0-0.2,0.2-0.2,0.4
				v64.9h-1.2v-65.2c0-1,0.7-1.5,1.5-1.5C508.9,465.9,509.1,466.1,510,467z"/>
			<path fill="#9FBFCE" d="M741.5,532.5h-48.4V466h48.4v1.2h-47.2v30.9h37.2v1.2h-37.2v31.9h47.2V532.5z"/>
			<path fill="#EF9D92" d="M902.3,467.2H877V466h51.7v1.2h-25.3v65.3h-1.2V467.2z"/>
		</g>
	</g>
	<g>
	</g>
	<g>
	</g>
	<g>
	</g>
	<g>
	</g>
	<g>
	</g>
	<g>
	</g>
</g>
</svg>
