<?xml version="1.0" standalone="no"?><!DOCTYPE svg PUBLIC "-//W3C//DTD SVG 1.1//EN" "http://www.w3.org/Graphics/SVG/1.1/DTD/svg11.dtd" ><svg version="1.1" xmlns="http://www.w3.org/2000/svg"><defs><font horiz-adv-x="0" id="font"><font-face ascent="860" bbox="-606.1176 -914.1176 1942.1176 1634.1176" cap-height="720" descent="-140" font-family="Bungee" font-stretch="normal" font-style="normal" font-weight="700" units-per-em="1000" x-height="500" /><missing-glyph d="M850 -159H122Q98 -159 87 -148Q76 -137 76 -113V615Q76 628 79.5 637Q83 646 90 652L219 761Q224 765 232.5 767.5Q241 770 251 770H979Q1003 770 1014 759Q1025 748 1025 724V-4Q1025 -17 1021.5 -26Q1018 -35 1011 -41L881 -149Q877 -153 868.5 -156Q860 -159 850 -159ZM1015 -4V724Q1015 743 1006.5 751.5Q998 760 979 760H251Q232 760 223.5 751.5Q215 743 215 724V-4Q215 -23 223.5 -31.5Q232 -40 251 -40H979Q998 -40 1006.5 -31.5Q1015 -23 1015 -4ZM235 -20V740H995V-20ZM985 -10V730H245V-10ZM965 10H265V710H965ZM826 591H275V20H826Z" horiz-adv-x="1100" /><glyph d="M285 303V272H675V303Q675 330 670.5 353Q666 376 659 396L590 559Q579 585 567 602.5Q555 620 527 620H429Q399 620 387 602.5Q375 585 365 560L301 396Q294 376 289.5 353Q285 330 285 303ZM445 510Q449 519 453.5 523Q458 527 464 527H489Q495 527 499.5 523Q504 519 508 510L555 358H398ZM675 90V262H285V90H275V303Q275 331 279.5 354.5Q284 378 292 400L356 564Q367 592 381 611Q395 630 429 630H527Q560 630 573.5 611Q587 592 599 563L668 400Q676 378 680.5 354.5Q685 331 685 303V90ZM388 36V176H565V36Q565 17 574.5 8.5Q584 0 604 0H755Q774 0 782.5 8.5Q791 17 791 36V300Q791 330 781.5 369Q772 408 752 460L665 687Q659 704 646.5 712Q634 720 615 720H346Q326 720 313.5 712Q301 704 295 687L208 460Q188 408 178.5 369Q169 330 169 300V36Q169 17 177.5 8.5Q186 0 205 0H352Q371 0 379.5 8.5Q388 17 388 36ZM254 -109Q250 -113 241.5 -116Q233 -119 223 -119H76Q52 -119 41 -108Q30 -97 30 -73V191Q30 222 39.5 261.5Q49 301 70 355L156 581Q159 590 163.5 596.5Q168 603 173 608L174 609L302 716Q310 723 321 726.5Q332 730 346 730H615Q638 730 652.5 720.5Q667 711 674 691L761 464Q782 410 791.5 370.5Q801 331 801 300V36Q801 23 797.5 14Q794 5 787 -1L657 -109Q653 -113 644.5 -116Q636 -119 626 -119H475Q450 -119 438 -107.5Q426 -96 426 -73V57H398V36Q398 23 394.5 14Q391 5 384 -1Z" glyph-name="A" horiz-adv-x="830" unicode="A" /><glyph d="M379 283V252H748V283Q748 310 743.5 333Q739 356 732 376L673 519Q662 545 645 562.5Q628 580 600 580H523Q493 580 476 562.5Q459 545 449 520L395 376Q388 356 383.5 333Q379 310 379 283ZM542 470Q546 480 549.5 483.5Q553 487 561 487H566Q574 487 577.5 483.5Q581 480 585 470L632 338H495ZM748 90V242H379V90H369V283Q369 311 373.5 334.5Q378 358 386 380L440 524Q450 552 469.5 571Q489 590 523 590H600Q633 590 651.5 570.5Q670 551 682 523L741 380Q750 358 754 334.5Q758 311 758 283V90ZM485 36V156H642V36Q642 17 652 8.5Q662 0 681 0H832Q851 0 859.5 8.5Q868 17 868 36V280Q868 306 866 323.5Q864 341 859.5 357.5Q855 374 847.5 393Q840 412 829 440L742 647Q735 666 723 673Q711 680 692 680H433Q414 680 401.5 673Q389 666 382 647L305 440Q294 412 286.5 393Q279 374 274.5 357.5Q270 341 268 323.5Q266 306 266 280V36Q266 17 274.5 8.5Q283 0 302 0H449Q468 0 476.5 8.5Q485 17 485 36ZM481 -1 351 -109Q347 -113 338.5 -116Q330 -119 320 -119H173Q148 -119 137.5 -108Q127 -97 127 -73V171Q127 197 129 215.5Q131 234 135.5 250.5Q140 267 148 286Q156 305 167 334L243 541Q246 550 250.5 557.5Q255 565 261 569L391 678Q398 684 409 687Q420 690 433 690H692Q715 690 729.5 681.5Q744 673 751 651L838 444Q849 415 857 395.5Q865 376 869.5 359.5Q874 343 876 324.5Q878 306 878 280V36Q878 23 874.5 14Q871 5 864 -1L734 -109Q730 -113 721.5 -116Q713 -119 703 -119H552Q528 -119 515.5 -107.5Q503 -96 503 -73V37H495V36Q495 23 491.5 14Q488 5 481 -1Z" glyph-name="A.s_v" horiz-adv-x="1000" unicode="&#57926;" /><glyph d="M299 507V281H670V507Q670 535 661.5 558Q653 581 632 597.5Q611 614 575 623Q539 632 483 632Q427 632 391.5 623Q356 614 335.5 597.5Q315 581 307 558Q299 535 299 507ZM398 497Q398 517 413 530.5Q428 544 481 544Q533 544 548 530.5Q563 517 563 497V368H398ZM424 388Q424 397 420.5 404.5Q417 412 408 417V378H424ZM670 90V271H299V90H289V507Q289 537 297.5 562Q306 587 327.5 605Q349 623 386.5 632.5Q424 642 483 642Q542 642 580 632.5Q618 623 640 605Q662 587 671 562Q680 537 680 507V90ZM398 36V185H563V36Q563 17 571.5 8.5Q580 0 599 0H751Q770 0 778.5 8.5Q787 17 787 36V531Q787 576 774.5 614Q762 652 728 678.5Q694 705 634.5 720Q575 735 482 735Q389 735 330 720Q271 705 237.5 678.5Q204 652 191.5 614Q179 576 179 531V36Q179 17 187.5 8.5Q196 0 215 0H362Q381 0 389.5 8.5Q398 17 398 36ZM394 -1 264 -109Q260 -113 251.5 -116Q243 -119 233 -119H86Q62 -119 51 -108Q40 -97 40 -73V422Q40 469 52.5 508.5Q65 548 99 576L229 684Q263 712 323.5 728.5Q384 745 482 745Q579 745 641 729Q703 713 737.5 685Q772 657 784.5 617.5Q797 578 797 531V36Q797 23 793.5 14Q790 5 783 -1L653 -109Q649 -113 640.5 -116Q632 -119 622 -119H470Q446 -119 435 -108Q424 -97 424 -73V66H408V36Q408 23 404.5 14Q401 5 394 -1Z" glyph-name="A.salt" horiz-adv-x="836" unicode="&#57600;" /><glyph d="M380 467V261H748V467Q748 495 740 518Q732 541 711.5 557.5Q691 574 655 583Q619 592 564 592Q508 592 472.5 583Q437 574 416.5 557.5Q396 541 388 518Q380 495 380 467ZM483 457Q483 477 496.5 490.5Q510 504 563 504Q615 504 628.5 490.5Q642 477 642 457V348H483ZM503 368Q503 375 501 382Q499 389 493 393V358H503ZM748 90V251H380V90H370V467Q370 497 378.5 522Q387 547 408.5 565Q430 583 467.5 592.5Q505 602 564 602Q622 602 659.5 592.5Q697 583 719 565Q741 547 749.5 522Q758 497 758 467V90ZM483 36V165H642V36Q642 17 650.5 8.5Q659 0 678 0H830Q849 0 857.5 8.5Q866 17 866 36V491Q866 536 853.5 574Q841 612 808 638.5Q775 665 716 680Q657 695 564 695Q471 695 412.5 680Q354 665 321 638.5Q288 612 276 574Q264 536 264 491V36Q264 17 272.5 8.5Q281 0 300 0H447Q466 0 474.5 8.5Q483 17 483 36ZM479 -1 349 -109Q345 -113 336.5 -116Q328 -119 318 -119H171Q147 -119 136 -108Q125 -97 125 -73V382Q125 429 137.5 468.5Q150 508 184 536L313 645Q347 673 407 689Q467 705 564 705Q661 705 722.5 689Q784 673 818 645Q852 617 864 577.5Q876 538 876 491V36Q876 23 872.5 14Q869 5 862 -1L732 -109Q728 -113 719.5 -116Q711 -119 701 -119H549Q525 -119 514 -108Q503 -97 503 -73V46H493V36Q493 23 489.5 14Q486 5 479 -1Z" glyph-name="A.salt_s_v" horiz-adv-x="1000" unicode="&#57945;" /><glyph d="M380 507V281H748V507Q748 535 740 558Q732 581 711.5 597.5Q691 614 655 623Q619 632 564 632Q508 632 472.5 623Q437 614 416.5 597.5Q396 581 388 558Q380 535 380 507ZM484 498Q484 518 497 531.5Q510 545 563 545Q615 545 628 531.5Q641 518 641 498V369H484ZM504 389Q504 396 502 403Q500 410 494 414V379H504ZM748 90V271H380V90H370V507Q370 537 378.5 562Q387 587 408.5 605Q430 623 467.5 632.5Q505 642 564 642Q622 642 659.5 632.5Q697 623 719 605Q741 587 749.5 562Q758 537 758 507V90ZM484 37V186H641V37Q641 18 649.5 9Q658 0 677 0H829Q848 0 856.5 9Q865 18 865 37V532Q865 577 853 615Q841 653 808 679.5Q775 706 716 721Q657 736 564 736Q471 736 412.5 721Q354 706 321.5 679.5Q289 653 277 615Q265 577 265 532V37Q265 18 273.5 9Q282 0 301 0H448Q467 0 475.5 9Q484 18 484 37ZM172 -119Q148 -119 137 -107.5Q126 -96 126 -72V423Q126 470 138.5 510Q151 550 185 578L314 686Q348 714 408 730Q468 746 564 746Q661 746 722.5 730Q784 714 817.5 686Q851 658 863 618.5Q875 579 875 532V37Q875 24 871 14.5Q867 5 860 -1L731 -109Q726 -113 718 -116Q710 -119 700 -119H550Q526 -119 515 -107.5Q504 -96 504 -72V67H494V37Q494 24 490 14.5Q486 5 479 -1L350 -109Q345 -113 337 -116Q329 -119 319 -119Z" glyph-name="A.salt_v" horiz-adv-x="1000" unicode="&#57837;" /><glyph d="M379 303V272H748V303Q748 330 743.5 353Q739 376 732 396L663 559Q652 585 640 602.5Q628 620 600 620H523Q493 620 481 602.5Q469 585 459 560L395 396Q388 376 383.5 353Q379 330 379 303ZM540 510Q544 520 547.5 523.5Q551 527 559 527H564Q572 527 575.5 523.5Q579 520 583 510L630 358H493ZM748 90V262H379V90H369V303Q369 331 373.5 354.5Q378 378 386 400L450 564Q461 592 475 611Q489 630 523 630H600Q633 630 646.5 611Q660 592 672 563L741 400Q749 378 753.5 354.5Q758 331 758 303V90ZM483 36V176H640V36Q640 17 650 8.5Q660 0 679 0H830Q849 0 857.5 8.5Q866 17 866 36V300Q866 326 864 343.5Q862 361 857.5 377.5Q853 394 845.5 413Q838 432 827 460L740 687Q733 706 721 713Q709 720 690 720H431Q412 720 399.5 713Q387 706 380 687L303 460Q292 432 284.5 413Q277 394 272.5 377.5Q268 361 266 343.5Q264 326 264 300V36Q264 17 272.5 8.5Q281 0 300 0H447Q466 0 474.5 8.5Q483 17 483 36ZM479 -1 349 -109Q345 -113 336.5 -116Q328 -119 318 -119H171Q146 -119 135.5 -108Q125 -97 125 -73V191Q125 217 127 235.5Q129 254 133.5 270.5Q138 287 146 306Q154 325 165 354L241 581Q244 590 248.5 597.5Q253 605 259 609L389 718Q396 724 407 727Q418 730 431 730H690Q713 730 727.5 721.5Q742 713 749 691L836 464Q847 435 855 415.5Q863 396 867.5 379.5Q872 363 874 344.5Q876 326 876 300V36Q876 23 872.5 14Q869 5 862 -1L732 -109Q728 -113 719.5 -116Q711 -119 701 -119H550Q526 -119 513.5 -107.5Q501 -96 501 -73V57H493V36Q493 23 489.5 14Q486 5 479 -1Z" glyph-name="A.v" horiz-adv-x="1000" unicode="&#65313;" /><glyph d="M283 291V273H664V620H409Q394 620 384.5 612Q375 604 368 582L294 379Q287 360 285 339.5Q283 319 283 291ZM449 514Q453 524 456.5 527.5Q460 531 468 531H555V358H397ZM273 90V291Q273 320 275 341Q277 362 284 383L358 586Q368 612 379.5 621Q391 630 409 630H981V620H674V370H900V360H674V100H981V90H664V263H283V90ZM387 36V176H555V36Q555 17 563.5 8.5Q572 0 591 0H1035Q1054 0 1062.5 8.5Q1071 17 1071 36V153Q1071 172 1062.5 180.5Q1054 189 1035 189H782V275H954Q973 275 981.5 283.5Q990 292 990 311V418Q990 437 981.5 445.5Q973 454 954 454H782V531H1035Q1054 531 1062.5 539.5Q1071 548 1071 567V684Q1071 703 1062.5 711.5Q1054 720 1035 720H347Q322 720 307.5 711Q293 702 285 679L198 440Q184 403 176.5 368.5Q169 334 169 290V36Q169 17 177.5 8.5Q186 0 205 0H351Q370 0 378.5 8.5Q387 17 387 36ZM383 -1 253 -109Q249 -113 240.5 -116Q232 -119 222 -119H76Q52 -119 41 -108Q30 -97 30 -73V181Q30 226 37.5 261Q45 296 60 334L147 573Q150 586 155.5 594Q161 602 168 607L296 715Q305 723 317.5 726.5Q330 730 347 730H1035Q1059 730 1070 719Q1081 708 1081 684V567Q1081 554 1077.5 545Q1074 536 1067 530L981 459Q991 454 995.5 444Q1000 434 1000 418V311Q1000 298 996.5 289Q993 280 986 274L897 199H1035Q1059 199 1070 188Q1081 177 1081 153V36Q1081 23 1077.5 14Q1074 5 1067 -1L937 -109Q933 -113 924.5 -116Q916 -119 906 -119H462Q438 -119 427 -108Q416 -97 416 -73V57H397V36Q397 23 393.5 14Q390 5 383 -1Z" glyph-name="AE" horiz-adv-x="1105" unicode="&#198;" /><glyph d="M295 495V281H673V620H452Q359 620 327 585.5Q295 551 295 495ZM398 489Q398 509 413 522.5Q428 536 481 536H563V368H398ZM424 417H408V378H424ZM673 89V271H295V89H285V495Q285 555 319 592.5Q353 630 452 630H989V620H683V368H909V358H683V99H990V89ZM398 36V185H563V36Q563 17 571.5 8.5Q580 0 599 0H1043Q1062 0 1070.5 8.5Q1079 17 1079 36V153Q1079 172 1070.5 180.5Q1062 189 1043 189H790V275H962Q981 275 989.5 283.5Q998 292 998 311V418Q998 437 989.5 445.5Q981 454 962 454H790V531H1043Q1062 531 1070.5 539.5Q1079 548 1079 567V684Q1079 703 1070.5 711.5Q1062 720 1043 720H482Q389 720 330 705Q271 690 237.5 663.5Q204 637 191.5 599Q179 561 179 516V36Q179 17 187.5 8.5Q196 0 215 0H362Q381 0 389.5 8.5Q398 17 398 36ZM394 -1 264 -109Q260 -113 251.5 -116Q243 -119 233 -119H86Q62 -119 51 -108Q40 -97 40 -73V407Q40 454 52.5 493.5Q65 533 99 561L229 669Q263 697 323.5 713.5Q384 730 482 730H1043Q1067 730 1078 719Q1089 708 1089 684V567Q1089 554 1085.5 545Q1082 536 1075 530L989 459Q999 454 1003.5 444Q1008 434 1008 418V311Q1008 298 1004.5 289Q1001 280 994 274L905 199H1043Q1067 199 1078 188Q1089 177 1089 153V36Q1089 23 1085.5 14Q1082 5 1075 -1L945 -109Q941 -113 932.5 -116Q924 -119 914 -119H470Q446 -119 435 -108Q424 -97 424 -73V66H408V36Q408 23 404.5 14Q401 5 394 -1Z" glyph-name="AE.salt" horiz-adv-x="1113" unicode="&#57653;" /><glyph d="M351 495V281H641V620H508Q415 620 383 585.5Q351 551 351 495ZM447 489Q447 509 456.5 522.5Q466 536 496 536H545V368H447ZM641 90V271H351V89H341V495Q341 555 375 592.5Q409 630 508 630H796V620H651V368H795V358H651V100H796V90ZM447 36V185H545V36Q545 17 553.5 8.5Q562 0 581 0H850Q869 0 877.5 8.5Q886 17 886 36V153Q886 172 877.5 180.5Q869 189 850 189H747V275H849Q868 275 876.5 283.5Q885 292 885 311V418Q885 437 876.5 445.5Q868 454 849 454H747V531H850Q869 531 877.5 539.5Q886 548 886 567V684Q886 703 877.5 711.5Q869 720 850 720H494Q421 720 372.5 705Q324 690 295.5 663.5Q267 637 255.5 599Q244 561 244 516V36Q244 17 252.5 8.5Q261 0 280 0H411Q430 0 438.5 8.5Q447 17 447 36ZM406 -32 313 -109Q309 -113 300.5 -116Q292 -119 282 -119H151Q127 -119 116 -108Q105 -97 105 -73V407Q105 457 119 498.5Q133 540 167 568L296 677Q326 702 374.5 716Q423 730 494 730H850Q874 730 885 719Q896 708 896 684V567Q896 554 892.5 545Q889 536 882 530L803 464H849Q873 464 884 453.5Q895 443 895 418V311Q895 298 891.5 289Q888 280 881 274L792 199H850Q874 199 885 188Q896 177 896 153V36Q896 23 892.5 14Q889 5 882 -1L752 -109Q748 -113 739.5 -116Q731 -119 721 -119H452Q428 -119 417 -108Q406 -97 406 -73Z" glyph-name="AE.salt_v" horiz-adv-x="1000" unicode="&#57892;" /><glyph d="M341 291V273H631V620H477Q462 620 453.5 611.5Q445 603 436 582L352 379Q344 360 342.5 339.5Q341 319 341 291ZM507 514Q511 524 514.5 527.5Q518 531 526 531H535V358H448ZM331 90V291Q331 320 332.5 341.5Q334 363 342 383L426 586Q436 612 447.5 621Q459 630 477 630H786V620H641V370H785V360H641V100H786V90H631V263H341V90ZM437 36V176H535V36Q535 17 543.5 8.5Q552 0 571 0H840Q859 0 867.5 8.5Q876 17 876 36V153Q876 172 867.5 180.5Q859 189 840 189H737V275H839Q858 275 866.5 283.5Q875 292 875 311V418Q875 437 866.5 445.5Q858 454 839 454H737V531H840Q859 531 867.5 539.5Q876 548 876 567V684Q876 703 867.5 711.5Q859 720 840 720H420Q395 720 380.5 711Q366 702 358 679L263 440Q249 403 241.5 368.5Q234 334 234 290V36Q234 17 242.5 8.5Q251 0 270 0H401Q420 0 428.5 8.5Q437 17 437 36ZM396 -32 303 -109Q299 -113 290.5 -116Q282 -119 272 -119H141Q117 -119 106 -108Q95 -97 95 -73V181Q95 226 102.5 261Q110 296 125 335L220 573Q223 586 228.5 594Q234 602 241 607L369 715Q378 723 390.5 726.5Q403 730 420 730H840Q864 730 875 719Q886 708 886 684V567Q886 554 882.5 545Q879 536 872 530L793 464H839Q863 464 874 453.5Q885 443 885 418V311Q885 298 881.5 289Q878 280 871 274L782 199H840Q864 199 875 188Q886 177 886 153V36Q886 23 882.5 14Q879 5 872 -1L742 -109Q738 -113 729.5 -116Q721 -119 711 -119H442Q418 -119 407 -108Q396 -97 396 -73Z" glyph-name="AE.v" horiz-adv-x="1000" unicode="&#57824;" /><glyph d="M653 796Q672 798 680.5 805.5Q689 813 689 832V928Q689 945 680.5 954Q672 963 655 961L306 918Q287 916 278.5 908.5Q270 901 270 882V786Q270 769 278.5 760Q287 751 304 753ZM360 847 599 877V867L360 837ZM285 303V272H675V303Q675 330 670.5 353Q666 376 659 396L590 559Q579 585 567 602.5Q555 620 527 620H429Q399 620 387 602.5Q375 585 365 560L301 396Q294 376 289.5 353Q285 330 285 303ZM445 510Q449 519 453.5 523Q458 527 464 527H489Q495 527 499.5 523Q504 519 508 510L555 358H398ZM675 90V262H285V90H275V303Q275 331 279.5 354.5Q284 378 292 400L356 564Q367 592 381 611Q395 630 429 630H527Q560 630 573.5 611Q587 592 599 563L668 400Q676 378 680.5 354.5Q685 331 685 303V90ZM388 36V176H565V36Q565 17 574.5 8.5Q584 0 604 0H755Q774 0 782.5 8.5Q791 17 791 36V300Q791 330 781.5 369Q772 408 752 460L665 687Q659 704 646.5 712Q634 720 615 720H346Q326 720 313.5 712Q301 704 295 687L208 460Q188 408 178.5 369Q169 330 169 300V36Q169 17 177.5 8.5Q186 0 205 0H352Q371 0 379.5 8.5Q388 17 388 36ZM254 -109Q250 -113 241.5 -116Q233 -119 223 -119H76Q52 -119 41 -108Q30 -97 30 -73V191Q30 222 39.5 261.5Q49 301 70 355L156 581Q159 590 163.5 596.5Q168 603 173 608L174 609L209 638L176 634Q154 631 142.5 642.5Q131 654 131 677V773Q131 786 134.5 794.5Q138 803 144 808L274 917Q278 921 286.5 924Q295 927 305 928L654 971Q676 974 687.5 962.5Q699 951 699 928V832Q699 819 695.5 810Q692 801 685 797L606 730H615Q638 730 652.5 720.5Q667 711 674 691L761 464Q782 410 791.5 370.5Q801 331 801 300V36Q801 23 797.5 14Q794 5 787 -1L657 -109Q653 -113 644.5 -116Q636 -119 626 -119H475Q450 -119 438 -107.5Q426 -96 426 -73V57H398V36Q398 23 394.5 14Q391 5 384 -1Z" glyph-name="Aacute" horiz-adv-x="830" unicode="&#193;" /><glyph d="M666 796Q685 798 693.5 805.5Q702 813 702 832V928Q702 945 693.5 954Q685 963 668 961L319 918Q300 916 291.5 908.5Q283 901 283 882V786Q283 769 291.5 760Q300 751 317 753ZM373 847 612 877V867L373 837ZM299 507V281H670V507Q670 535 661.5 558Q653 581 632 597.5Q611 614 575 623Q539 632 483 632Q427 632 391.5 623Q356 614 335.5 597.5Q315 581 307 558Q299 535 299 507ZM398 497Q398 517 413 530.5Q428 544 481 544Q533 544 548 530.5Q563 517 563 497V368H398ZM424 388Q424 397 420.5 404.5Q417 412 408 417V378H424ZM670 90V271H299V90H289V507Q289 537 297.5 562Q306 587 327.5 605Q349 623 386.5 632.5Q424 642 483 642Q542 642 580 632.5Q618 623 640 605Q662 587 671 562Q680 537 680 507V90ZM398 36V185H563V36Q563 17 571.5 8.5Q580 0 599 0H751Q770 0 778.5 8.5Q787 17 787 36V531Q787 576 774.5 614Q762 652 728 678.5Q694 705 634.5 720Q575 735 482 735Q389 735 330 720Q271 705 237.5 678.5Q204 652 191.5 614Q179 576 179 531V36Q179 17 187.5 8.5Q196 0 215 0H362Q381 0 389.5 8.5Q398 17 398 36ZM264 -109Q260 -113 251.5 -116Q243 -119 233 -119H86Q62 -119 51 -108Q40 -97 40 -73V422Q40 469 52.5 508.5Q65 548 99 576L170 635Q157 638 150.5 649Q144 660 144 677V773Q144 786 147.5 794.5Q151 803 157 808L287 917Q291 921 299.5 924Q308 927 318 928L667 971Q689 974 700.5 962.5Q712 951 712 928V832Q712 819 708.5 810Q705 801 698 797L622 733Q675 723 709 703.5Q743 684 762.5 658Q782 632 789.5 600Q797 568 797 531V36Q797 23 793.5 14Q790 5 783 -1L653 -109Q649 -113 640.5 -116Q632 -119 622 -119H470Q446 -119 435 -108Q424 -97 424 -73V66H408V36Q408 23 404.5 14Q401 5 394 -1Z" glyph-name="Aacute.salt" horiz-adv-x="836" unicode="&#57602;" /><glyph d="M738 756Q757 758 765.5 765.5Q774 773 774 792V888Q774 905 765.5 914Q757 923 740 921L391 878Q372 876 363.5 868.5Q355 861 355 842V746Q355 729 363.5 720Q372 711 389 713ZM445 807 684 837V827L445 797ZM380 467V261H748V467Q748 495 740 518Q732 541 711.5 557.5Q691 574 655 583Q619 592 564 592Q508 592 472.5 583Q437 574 416.5 557.5Q396 541 388 518Q380 495 380 467ZM483 457Q483 477 496.5 490.5Q510 504 563 504Q615 504 628.5 490.5Q642 477 642 457V348H483ZM503 368Q503 375 501 382Q499 389 493 393V358H503ZM748 90V251H380V90H370V467Q370 497 378.5 522Q387 547 408.5 565Q430 583 467.5 592.5Q505 602 564 602Q622 602 659.5 592.5Q697 583 719 565Q741 547 749.5 522Q758 497 758 467V90ZM483 36V165H642V36Q642 17 650.5 8.5Q659 0 678 0H830Q849 0 857.5 8.5Q866 17 866 36V491Q866 536 853.5 574Q841 612 808 638.5Q775 665 716 680Q657 695 564 695Q471 695 412.5 680Q354 665 321 638.5Q288 612 276 574Q264 536 264 491V36Q264 17 272.5 8.5Q281 0 300 0H447Q466 0 474.5 8.5Q483 17 483 36ZM349 -109Q345 -113 336.5 -116Q328 -119 318 -119H171Q147 -119 136 -108Q125 -97 125 -73V382Q125 429 137.5 468.5Q150 508 184 536L252 593Q234 594 225 605Q216 616 216 637V733Q216 746 219.5 754.5Q223 763 229 768L359 877Q363 881 371.5 884Q380 887 390 888L739 931Q761 934 772.5 922.5Q784 911 784 888V792Q784 779 780.5 770Q777 761 770 757L696 695Q751 685 786 666Q821 647 841 620.5Q861 594 868.5 561Q876 528 876 491V36Q876 23 872.5 14Q869 5 862 -1L732 -109Q728 -113 719.5 -116Q711 -119 701 -119H549Q525 -119 514 -108Q503 -97 503 -73V46H493V36Q493 23 489.5 14Q486 5 479 -1Z" glyph-name="Aacute.salt_v" horiz-adv-x="1000" unicode="&#57839;" /><glyph d="M739 756Q758 758 766.5 765.5Q775 773 775 792V888Q775 905 766.5 914Q758 923 741 921L392 878Q373 876 364.5 868.5Q356 861 356 842V746Q356 729 364.5 720Q373 711 390 713ZM446 807 685 837V827L446 797ZM379 283V252H748V283Q748 310 743.5 333Q739 356 732 376L673 519Q662 545 645 562.5Q628 580 600 580H523Q493 580 476 562.5Q459 545 449 520L395 376Q388 356 383.5 333Q379 310 379 283ZM542 470Q546 480 549.5 483.5Q553 487 561 487H566Q574 487 577.5 483.5Q581 480 585 470L632 338H495ZM748 90V242H379V90H369V283Q369 311 373.5 334.5Q378 358 386 380L440 524Q450 552 469.5 571Q489 590 523 590H600Q633 590 651.5 570.5Q670 551 682 523L741 380Q750 358 754 334.5Q758 311 758 283V90ZM485 36V156H642V36Q642 17 652 8.5Q662 0 681 0H832Q851 0 859.5 8.5Q868 17 868 36V280Q868 306 866 323.5Q864 341 859.5 357.5Q855 374 847.5 393Q840 412 829 440L742 647Q735 666 723 673Q711 680 692 680H433Q414 680 401.5 673Q389 666 382 647L305 440Q294 412 286.5 393Q279 374 274.5 357.5Q270 341 268 323.5Q266 306 266 280V36Q266 17 274.5 8.5Q283 0 302 0H449Q468 0 476.5 8.5Q485 17 485 36ZM351 -109Q347 -113 338.5 -116Q330 -119 320 -119H173Q148 -119 137.5 -108Q127 -97 127 -73V171Q127 197 129 215.5Q131 234 135.5 250.5Q140 267 148 286Q156 305 167 334L243 541Q246 550 250.5 557.5Q255 565 261 569L296 598L262 594Q240 591 228.5 602.5Q217 614 217 637V733Q217 746 220.5 754.5Q224 763 230 768L360 877Q364 881 372.5 884Q381 887 391 888L740 931Q762 934 773.5 922.5Q785 911 785 888V792Q785 779 781.5 770Q778 761 771 757L692 690Q715 690 729.5 681.5Q744 673 751 651L838 444Q849 415 857 395.5Q865 376 869.5 359.5Q874 343 876 324.5Q878 306 878 280V36Q878 23 874.5 14Q871 5 864 -1L734 -109Q730 -113 721.5 -116Q713 -119 703 -119H552Q528 -119 515.5 -107.5Q503 -96 503 -73V37H495V36Q495 23 491.5 14Q488 5 481 -1Z" glyph-name="Aacute.v" horiz-adv-x="1000" unicode="&#57739;" /><glyph d="M697 897V941Q697 960 688.5 968.5Q680 977 661 977H570Q553 977 546.5 970.5Q540 964 540 946V925Q540 911 529 901.5Q518 892 481 892Q444 892 434 901.5Q424 911 424 925V946Q424 964 417.5 970.5Q411 977 395 977H299Q280 977 271.5 968.5Q263 960 263 941V897Q263 865 272.5 838.5Q282 812 306.5 793.5Q331 775 373 764.5Q415 754 480 754Q545 754 587 764.5Q629 775 653.5 793.5Q678 812 687.5 838.5Q697 865 697 897ZM614 907H624V898Q624 884 618.5 869.5Q613 855 598 843.5Q583 832 554 825Q525 818 479 818Q433 818 405 825Q377 832 362.5 843.5Q348 855 343.5 869.5Q339 884 339 898V907H349V898Q349 871 373.5 849.5Q398 828 479 828Q560 828 587 849.5Q614 871 614 898ZM285 303V272H675V303Q675 330 670.5 353Q666 376 659 396L590 559Q579 585 567 602.5Q555 620 527 620H429Q399 620 387 602.5Q375 585 365 560L301 396Q294 376 289.5 353Q285 330 285 303ZM445 510Q449 519 453.5 523Q458 527 464 527H489Q495 527 499.5 523Q504 519 508 510L555 358H398ZM675 90V262H285V90H275V303Q275 331 279.5 354.5Q284 378 292 400L356 564Q367 592 381 611Q395 630 429 630H527Q560 630 573.5 611Q587 592 599 563L668 400Q676 378 680.5 354.5Q685 331 685 303V90ZM388 36V176H565V36Q565 17 574.5 8.5Q584 0 604 0H755Q774 0 782.5 8.5Q791 17 791 36V300Q791 330 781.5 369Q772 408 752 460L665 687Q659 704 646.5 712Q634 720 615 720H346Q326 720 313.5 712Q301 704 295 687L208 460Q188 408 178.5 369Q169 330 169 300V36Q169 17 177.5 8.5Q186 0 205 0H352Q371 0 379.5 8.5Q388 17 388 36ZM254 -109Q250 -113 241.5 -116Q233 -119 223 -119H76Q52 -119 41 -108Q30 -97 30 -73V191Q30 222 39.5 261.5Q49 301 70 355L156 581Q159 590 163.5 596.5Q168 603 173 608L174 609L223 650Q165 668 144.5 704.5Q124 741 124 788V832Q124 845 127.5 854Q131 863 138 869L267 978Q272 982 280.5 984.5Q289 987 299 987H395Q416 987 425 978.5Q434 970 434 946V925Q434 918 438 912.5Q442 907 452 905L542 980L541 979Q545 983 552 985Q559 987 570 987H661Q685 987 696 976Q707 965 707 941V897Q707 864 697.5 836Q688 808 663 788L593 730H615Q638 730 652.5 720.5Q667 711 674 691L761 464Q782 410 791.5 370.5Q801 331 801 300V36Q801 23 797.5 14Q794 5 787 -1L657 -109Q653 -113 644.5 -116Q636 -119 626 -119H475Q450 -119 438 -107.5Q426 -96 426 -73V57H398V36Q398 23 394.5 14Q391 5 384 -1Z" glyph-name="Abreve" horiz-adv-x="830" unicode="&#258;" /><glyph d="M700 897V941Q700 960 691.5 968.5Q683 977 664 977H573Q556 977 549.5 970.5Q543 964 543 946V925Q543 911 532 901.5Q521 892 484 892Q447 892 437 901.5Q427 911 427 925V946Q427 964 420.5 970.5Q414 977 398 977H302Q283 977 274.5 968.5Q266 960 266 941V897Q266 865 275.5 838.5Q285 812 309.5 793.5Q334 775 376 764.5Q418 754 483 754Q548 754 590 764.5Q632 775 656.5 793.5Q681 812 690.5 838.5Q700 865 700 897ZM617 907H627V898Q627 884 621.5 869.5Q616 855 601 843.5Q586 832 557 825Q528 818 482 818Q436 818 408 825Q380 832 365.5 843.5Q351 855 346.5 869.5Q342 884 342 898V907H352V898Q352 871 376.5 849.5Q401 828 482 828Q563 828 590 849.5Q617 871 617 898ZM299 507V281H670V507Q670 535 661.5 558Q653 581 632 597.5Q611 614 575 623Q539 632 483 632Q427 632 391.5 623Q356 614 335.5 597.5Q315 581 307 558Q299 535 299 507ZM398 497Q398 517 413 530.5Q428 544 481 544Q533 544 548 530.5Q563 517 563 497V368H398ZM424 388Q424 397 420.5 404.5Q417 412 408 417V378H424ZM670 90V271H299V90H289V507Q289 537 297.5 562Q306 587 327.5 605Q349 623 386.5 632.5Q424 642 483 642Q542 642 580 632.5Q618 623 640 605Q662 587 671 562Q680 537 680 507V90ZM398 36V185H563V36Q563 17 571.5 8.5Q580 0 599 0H751Q770 0 778.5 8.5Q787 17 787 36V531Q787 576 774.5 614Q762 652 728 678.5Q694 705 634.5 720Q575 735 482 735Q389 735 330 720Q271 705 237.5 678.5Q204 652 191.5 614Q179 576 179 531V36Q179 17 187.5 8.5Q196 0 215 0H362Q381 0 389.5 8.5Q398 17 398 36ZM264 -109Q260 -113 251.5 -116Q243 -119 233 -119H86Q62 -119 51 -108Q40 -97 40 -73V422Q40 469 52.5 508.5Q65 548 99 576L200 660Q157 680 142 713Q127 746 127 788V832Q127 845 130.5 854Q134 863 141 869L270 978Q275 982 283.5 984.5Q292 987 302 987H398Q419 987 428 978.5Q437 970 437 946V925Q437 918 441 912.5Q445 907 455 905L545 980L544 979Q548 983 555 985Q562 987 573 987H664Q688 987 699 976Q710 965 710 941V897Q710 864 700.5 836Q691 808 666 788L604 737Q663 728 700.5 708.5Q738 689 759.5 662.5Q781 636 789 602.5Q797 569 797 531V36Q797 23 793.5 14Q790 5 783 -1L653 -109Q649 -113 640.5 -116Q632 -119 622 -119H470Q446 -119 435 -108Q424 -97 424 -73V66H408V36Q408 23 404.5 14Q401 5 394 -1Z" glyph-name="Abreve.salt" horiz-adv-x="836" unicode="&#57608;" /><glyph d="M782 857V901Q782 920 773.5 928.5Q765 937 746 937H655Q638 937 631.5 930.5Q625 924 625 906V885Q625 871 614 861.5Q603 852 566 852Q529 852 519 861.5Q509 871 509 885V906Q509 924 502.5 930.5Q496 937 480 937H384Q365 937 356.5 928.5Q348 920 348 901V857Q348 825 357.5 798.5Q367 772 391.5 753.5Q416 735 458 724.5Q500 714 565 714Q630 714 672 724.5Q714 735 738.5 753.5Q763 772 772.5 798.5Q782 825 782 857ZM699 867H709V858Q709 844 703.5 829.5Q698 815 683 803.5Q668 792 639 785Q610 778 564 778Q518 778 490 785Q462 792 447.5 803.5Q433 815 428.5 829.5Q424 844 424 858V867H434V858Q434 831 458.5 809.5Q483 788 564 788Q645 788 672 809.5Q699 831 699 858ZM380 467V261H748V467Q748 495 740 518Q732 541 711.5 557.5Q691 574 655 583Q619 592 564 592Q508 592 472.5 583Q437 574 416.5 557.5Q396 541 388 518Q380 495 380 467ZM483 457Q483 477 496.5 490.5Q510 504 563 504Q615 504 628.5 490.5Q642 477 642 457V348H483ZM503 368Q503 375 501 382Q499 389 493 393V358H503ZM748 90V251H380V90H370V467Q370 497 378.5 522Q387 547 408.5 565Q430 583 467.5 592.5Q505 602 564 602Q622 602 659.5 592.5Q697 583 719 565Q741 547 749.5 522Q758 497 758 467V90ZM483 36V165H642V36Q642 17 650.5 8.5Q659 0 678 0H830Q849 0 857.5 8.5Q866 17 866 36V491Q866 536 853.5 574Q841 612 808 638.5Q775 665 716 680Q657 695 564 695Q471 695 412.5 680Q354 665 321 638.5Q288 612 276 574Q264 536 264 491V36Q264 17 272.5 8.5Q281 0 300 0H447Q466 0 474.5 8.5Q483 17 483 36ZM349 -109Q345 -113 336.5 -116Q328 -119 318 -119H171Q147 -119 136 -108Q125 -97 125 -73V382Q125 429 137.5 468.5Q150 508 184 536L283 620Q240 639 224.5 672.5Q209 706 209 748V792Q209 805 212.5 814Q216 823 223 829L352 938Q357 942 365.5 944.5Q374 947 384 947H480Q501 947 510 938.5Q519 930 519 906V885Q519 878 523 872.5Q527 867 537 865L627 940L626 939Q630 943 637 945Q644 947 655 947H746Q770 947 781 936Q792 925 792 901V857Q792 824 782.5 796Q773 768 748 748L686 697Q744 688 781.5 668.5Q819 649 839.5 622.5Q860 596 868 562.5Q876 529 876 491V36Q876 23 872.5 14Q869 5 862 -1L732 -109Q728 -113 719.5 -116Q711 -119 701 -119H549Q525 -119 514 -108Q503 -97 503 -73V46H493V36Q493 23 489.5 14Q486 5 479 -1Z" glyph-name="Abreve.salt_v" horiz-adv-x="1000" unicode="&#57845;" /><glyph d="M783 857V901Q783 920 774.5 928.5Q766 937 747 937H656Q639 937 632.5 930.5Q626 924 626 906V885Q626 871 615 861.5Q604 852 567 852Q530 852 520 861.5Q510 871 510 885V906Q510 924 503.5 930.5Q497 937 481 937H385Q366 937 357.5 928.5Q349 920 349 901V857Q349 825 358.5 798.5Q368 772 392.5 753.5Q417 735 459 724.5Q501 714 566 714Q631 714 673 724.5Q715 735 739.5 753.5Q764 772 773.5 798.5Q783 825 783 857ZM700 867H710V858Q710 844 704.5 829.5Q699 815 684 803.5Q669 792 640 785Q611 778 565 778Q519 778 491 785Q463 792 448.5 803.5Q434 815 429.5 829.5Q425 844 425 858V867H435V858Q435 831 459.5 809.5Q484 788 565 788Q646 788 673 809.5Q700 831 700 858ZM379 283V252H748V283Q748 310 743.5 333Q739 356 732 376L673 519Q662 545 645 562.5Q628 580 600 580H523Q493 580 476 562.5Q459 545 449 520L395 376Q388 356 383.5 333Q379 310 379 283ZM542 470Q546 480 549.5 483.5Q553 487 561 487H566Q574 487 577.5 483.5Q581 480 585 470L632 338H495ZM748 90V242H379V90H369V283Q369 311 373.5 334.5Q378 358 386 380L440 524Q450 552 469.5 571Q489 590 523 590H600Q633 590 651.5 570.5Q670 551 682 523L741 380Q750 358 754 334.5Q758 311 758 283V90ZM485 36V156H642V36Q642 17 652 8.5Q662 0 681 0H832Q851 0 859.5 8.5Q868 17 868 36V280Q868 306 866 323.5Q864 341 859.5 357.5Q855 374 847.5 393Q840 412 829 440L742 647Q735 666 723 673Q711 680 692 680H433Q414 680 401.5 673Q389 666 382 647L305 440Q294 412 286.5 393Q279 374 274.5 357.5Q270 341 268 323.5Q266 306 266 280V36Q266 17 274.5 8.5Q283 0 302 0H449Q468 0 476.5 8.5Q485 17 485 36ZM351 -109Q347 -113 338.5 -116Q330 -119 320 -119H173Q148 -119 137.5 -108Q127 -97 127 -73V171Q127 197 129 215.5Q131 234 135.5 250.5Q140 267 148 286Q156 305 167 334L243 541Q246 550 250.5 557.5Q255 565 261 569L310 610Q251 628 230.5 664.5Q210 701 210 748V792Q210 805 213.5 814Q217 823 224 829L353 938Q358 942 366.5 944.5Q375 947 385 947H481Q502 947 511 938.5Q520 930 520 906V885Q520 878 524 872.5Q528 867 538 865L628 940L627 939Q631 943 638 945Q645 947 656 947H747Q771 947 782 936Q793 925 793 901V857Q793 824 783.5 796Q774 768 749 748L680 690H692Q715 690 729.5 681.5Q744 673 751 651L838 444Q849 415 857 395.5Q865 376 869.5 359.5Q874 343 876 324.5Q878 306 878 280V36Q878 23 874.5 14Q871 5 864 -1L734 -109Q730 -113 721.5 -116Q713 -119 703 -119H552Q528 -119 515.5 -107.5Q503 -96 503 -73V37H495V36Q495 23 491.5 14Q488 5 481 -1Z" glyph-name="Abreve.v" horiz-adv-x="1000" unicode="&#57745;" /><glyph d="M602 1202 465 1169Q447 1165 438 1158.5Q429 1152 429 1133V1027Q429 1010 438 1000Q447 990 463 994L600 1027Q618 1031 627 1037.5Q636 1044 636 1063V1169Q636 1186 627 1196Q618 1206 602 1202ZM575 1104 488 1083V1093L575 1114ZM697 897V941Q697 960 688.5 968.5Q680 977 661 977H570Q553 977 546.5 970.5Q540 964 540 946V925Q540 911 529 901.5Q518 892 481 892Q444 892 434 901.5Q424 911 424 925V946Q424 964 417.5 970.5Q411 977 395 977H299Q280 977 271.5 968.5Q263 960 263 941V897Q263 865 272.5 838.5Q282 812 306.5 793.5Q331 775 373 764.5Q415 754 480 754Q545 754 587 764.5Q629 775 653.5 793.5Q678 812 687.5 838.5Q697 865 697 897ZM614 907H624V898Q624 884 618.5 869.5Q613 855 598 843.5Q583 832 554 825Q525 818 479 818Q433 818 405 825Q377 832 362.5 843.5Q348 855 343.5 869.5Q339 884 339 898V907H349V898Q349 871 373.5 849.5Q398 828 479 828Q560 828 587 849.5Q614 871 614 898ZM285 303V272H675V303Q675 330 670.5 353Q666 376 659 396L590 559Q579 585 567 602.5Q555 620 527 620H429Q399 620 387 602.5Q375 585 365 560L301 396Q294 376 289.5 353Q285 330 285 303ZM445 510Q449 519 453.5 523Q458 527 464 527H489Q495 527 499.5 523Q504 519 508 510L555 358H398ZM675 90V262H285V90H275V303Q275 331 279.5 354.5Q284 378 292 400L356 564Q367 592 381 611Q395 630 429 630H527Q560 630 573.5 611Q587 592 599 563L668 400Q676 378 680.5 354.5Q685 331 685 303V90ZM388 36V176H565V36Q565 17 574.5 8.5Q584 0 604 0H755Q774 0 782.5 8.5Q791 17 791 36V300Q791 330 781.5 369Q772 408 752 460L665 687Q659 704 646.5 712Q634 720 615 720H346Q326 720 313.5 712Q301 704 295 687L208 460Q188 408 178.5 369Q169 330 169 300V36Q169 17 177.5 8.5Q186 0 205 0H352Q371 0 379.5 8.5Q388 17 388 36ZM254 -109Q250 -113 241.5 -116Q233 -119 223 -119H76Q52 -119 41 -108Q30 -97 30 -73V191Q30 222 39.5 261.5Q49 301 70 355L156 581Q159 590 163.5 596.5Q168 603 173 608L174 609L223 650Q165 668 144.5 704.5Q124 741 124 788V832Q124 845 127.5 854Q131 863 138 869L267 978Q271 982 277 983.5Q283 985 290 986V1024Q290 1037 293.5 1045Q297 1053 303 1058L432 1166Q437 1170 445 1173Q453 1176 463 1179L600 1212Q621 1216 633.5 1204.5Q646 1193 646 1169V1063Q646 1050 642.5 1042.5Q639 1035 633 1030L582 987H661Q685 987 696 976Q707 965 707 941V897Q707 864 697.5 836Q688 808 663 788L594 730H615Q638 730 652.5 720.5Q667 711 674 691L761 464Q782 410 791.5 370.5Q801 331 801 300V36Q801 23 797.5 14Q794 5 787 -1L657 -109Q653 -113 644.5 -116Q636 -119 626 -119H475Q450 -119 438 -107.5Q426 -96 426 -73V57H398V36Q398 23 394.5 14Q391 5 384 -1Z" glyph-name="Abreveacute" horiz-adv-x="830" unicode="&#7854;" /><glyph d="M461 -349Q457 -353 448.5 -356Q440 -359 430 -359H272Q248 -359 237 -348Q226 -337 226 -313V-186Q226 -173 229.5 -164Q233 -155 240 -149L369 -40Q374 -36 382.5 -33.5Q391 -31 401 -31H426V57H398V36Q398 23 394.5 14Q391 5 384 -1L254 -109Q250 -113 241.5 -116Q233 -119 223 -119H76Q52 -119 41 -108Q30 -97 30 -73V191Q30 222 39.5 261.5Q49 301 70 355L156 581Q159 590 163.5 596.5Q168 603 173 608L174 609L223 650Q165 668 144.5 704.5Q124 741 124 788V832Q124 845 127.5 854Q131 863 138 869L267 978Q272 982 280.5 984.5Q289 987 299 987H395Q416 987 425 978.5Q434 970 434 946V925Q434 918 438 912.5Q442 907 452 905L542 980L541 979Q545 983 552 985Q559 987 570 987H661Q685 987 696 976Q707 965 707 941V897Q707 864 697.5 836Q688 808 663 788L593 730H615Q638 730 652.5 720.5Q667 711 674 691L761 464Q782 410 791.5 370.5Q801 331 801 300V36Q801 23 797.5 14Q794 5 787 -1L657 -109Q653 -113 644.5 -116Q636 -119 626 -119H605V-204Q605 -217 601.5 -226Q598 -235 591 -241ZM697 897V941Q697 960 688.5 968.5Q680 977 661 977H570Q553 977 546.5 970.5Q540 964 540 946V925Q540 911 529 901.5Q518 892 481 892Q444 892 434 901.5Q424 911 424 925V946Q424 964 417.5 970.5Q411 977 395 977H299Q280 977 271.5 968.5Q263 960 263 941V897Q263 865 272.5 838.5Q282 812 306.5 793.5Q331 775 373 764.5Q415 754 480 754Q545 754 587 764.5Q629 775 653.5 793.5Q678 812 687.5 838.5Q697 865 697 897ZM614 907H624V898Q624 884 618.5 869.5Q613 855 598 843.5Q583 832 554 825Q525 818 479 818Q433 818 405 825Q377 832 362.5 843.5Q348 855 343.5 869.5Q339 884 339 898V907H349V898Q349 871 373.5 849.5Q398 828 479 828Q560 828 587 849.5Q614 871 614 898ZM285 303V272H675V303Q675 330 670.5 353Q666 376 659 396L590 559Q579 585 567 602.5Q555 620 527 620H429Q399 620 387 602.5Q375 585 365 560L301 396Q294 376 289.5 353Q285 330 285 303ZM445 510Q449 519 453.5 523Q458 527 464 527H489Q495 527 499.5 523Q504 519 508 510L555 358H398ZM675 90V262H285V90H275V303Q275 331 279.5 354.5Q284 378 292 400L356 564Q367 592 381 611Q395 630 429 630H527Q560 630 573.5 611Q587 592 599 563L668 400Q676 378 680.5 354.5Q685 331 685 303V90ZM388 36V176H565V36Q565 17 574.5 8.5Q584 0 604 0H755Q774 0 782.5 8.5Q791 17 791 36V300Q791 330 781.5 369Q772 408 752 460L665 687Q659 704 646.5 712Q634 720 615 720H346Q326 720 313.5 712Q301 704 295 687L208 460Q188 408 178.5 369Q169 330 169 300V36Q169 17 177.5 8.5Q186 0 205 0H352Q371 0 379.5 8.5Q388 17 388 36ZM559 -240Q578 -240 586.5 -231.5Q595 -223 595 -204V-77Q595 -58 586.5 -49.5Q578 -41 559 -41H401Q382 -41 373.5 -49.5Q365 -58 365 -77V-204Q365 -223 373.5 -231.5Q382 -240 401 -240ZM485 -170H475V-111H485Z" glyph-name="Abrevedotbelow" horiz-adv-x="830" unicode="&#7862;" /><glyph d="M362 1202Q346 1206 337 1196Q328 1186 328 1169V1063Q328 1044 337 1037.5Q346 1031 364 1027L501 994Q517 990 526 1000Q535 1010 535 1027V1133Q535 1152 526 1158.5Q517 1165 499 1169ZM474 1093V1083L387 1104V1114ZM697 897V941Q697 960 688.5 968.5Q680 977 661 977H570Q553 977 546.5 970.5Q540 964 540 946V925Q540 911 529 901.5Q518 892 481 892Q444 892 434 901.5Q424 911 424 925V946Q424 964 417.5 970.5Q411 977 395 977H299Q280 977 271.5 968.5Q263 960 263 941V897Q263 865 272.5 838.5Q282 812 306.5 793.5Q331 775 373 764.5Q415 754 480 754Q545 754 587 764.5Q629 775 653.5 793.5Q678 812 687.5 838.5Q697 865 697 897ZM614 907H624V898Q624 884 618.5 869.5Q613 855 598 843.5Q583 832 554 825Q525 818 479 818Q433 818 405 825Q377 832 362.5 843.5Q348 855 343.5 869.5Q339 884 339 898V907H349V898Q349 871 373.5 849.5Q398 828 479 828Q560 828 587 849.5Q614 871 614 898ZM285 303V272H675V303Q675 330 670.5 353Q666 376 659 396L590 559Q579 585 567 602.5Q555 620 527 620H429Q399 620 387 602.5Q375 585 365 560L301 396Q294 376 289.5 353Q285 330 285 303ZM445 510Q449 519 453.5 523Q458 527 464 527H489Q495 527 499.5 523Q504 519 508 510L555 358H398ZM675 90V262H285V90H275V303Q275 331 279.5 354.5Q284 378 292 400L356 564Q367 592 381 611Q395 630 429 630H527Q560 630 573.5 611Q587 592 599 563L668 400Q676 378 680.5 354.5Q685 331 685 303V90ZM388 36V176H565V36Q565 17 574.5 8.5Q584 0 604 0H755Q774 0 782.5 8.5Q791 17 791 36V300Q791 330 781.5 369Q772 408 752 460L665 687Q659 704 646.5 712Q634 720 615 720H346Q326 720 313.5 712Q301 704 295 687L208 460Q188 408 178.5 369Q169 330 169 300V36Q169 17 177.5 8.5Q186 0 205 0H352Q371 0 379.5 8.5Q388 17 388 36ZM254 -109Q250 -113 241.5 -116Q233 -119 223 -119H76Q52 -119 41 -108Q30 -97 30 -73V191Q30 222 39.5 261.5Q49 301 70 355L156 581Q159 590 163.5 596.5Q168 603 173 608L174 609L223 650Q165 668 144.5 704Q124 740 124 788V832Q124 845 127.5 854Q131 863 138 869L200 921Q194 926 191 934Q188 942 188 954V1060Q188 1073 191.5 1082Q195 1091 202 1097L332 1206Q337 1210 345 1212Q353 1214 363 1212L500 1179Q523 1173 533.5 1164.5Q544 1156 544 1133V1027Q544 1014 540 1005Q536 996 529 990L437 913Q439 910 443 908Q447 906 452 905L542 980L541 979Q545 983 552 985Q559 987 570 987H661Q685 987 696 976Q707 965 707 941V897Q707 864 697.5 836Q688 808 663 788L593 730H615Q638 730 652.5 720.5Q667 711 674 691L761 464Q782 410 791.5 370.5Q801 331 801 300V36Q801 23 797.5 14Q794 5 787 -1L657 -109Q653 -113 644.5 -116Q636 -119 626 -119H475Q450 -119 438 -107.5Q426 -96 426 -73V57H398V36Q398 23 394.5 14Q391 5 384 -1Z" glyph-name="Abrevegrave" horiz-adv-x="830" unicode="&#7856;" /><glyph d="M584 1017Q621 1022 643 1041Q665 1060 665 1104V1168Q665 1218 636.5 1244Q608 1270 557 1270H389Q379 1270 374.5 1265.5Q370 1261 370 1251V1178Q370 1168 374.5 1163.5Q379 1159 389 1159H518Q526 1159 531.5 1155.5Q537 1152 537 1145Q537 1136 532.5 1132.5Q528 1129 518 1128L429 1114Q419 1113 415 1108Q411 1103 412 1093L423 1014Q424 1004 428.5 1000.5Q433 997 443 998ZM468 1055 467 1065 563 1079Q578 1081 587 1090.5Q596 1100 596 1121V1171Q596 1194 583.5 1202Q571 1210 556 1210H420V1220H556Q575 1220 590.5 1210Q606 1200 606 1171V1121Q606 1093 593.5 1082.5Q581 1072 565 1070ZM697 897V941Q697 960 688.5 968.5Q680 977 661 977H570Q553 977 546.5 970.5Q540 964 540 946V925Q540 911 529 901.5Q518 892 481 892Q444 892 434 901.5Q424 911 424 925V946Q424 964 417.5 970.5Q411 977 395 977H299Q280 977 271.5 968.5Q263 960 263 941V897Q263 865 272.5 838.5Q282 812 306.5 793.5Q331 775 373 764.5Q415 754 480 754Q545 754 587 764.5Q629 775 653.5 793.5Q678 812 687.5 838.5Q697 865 697 897ZM614 907H624V898Q624 884 618.5 869.5Q613 855 598 843.5Q583 832 554 825Q525 818 479 818Q433 818 405 825Q377 832 362.5 843.5Q348 855 343.5 869.5Q339 884 339 898V907H349V898Q349 871 373.5 849.5Q398 828 479 828Q560 828 587 849.5Q614 871 614 898ZM285 303V272H675V303Q675 330 670.5 353Q666 376 659 396L590 559Q579 585 567 602.5Q555 620 527 620H429Q399 620 387 602.5Q375 585 365 560L301 396Q294 376 289.5 353Q285 330 285 303ZM445 510Q449 519 453.5 523Q458 527 464 527H489Q495 527 499.5 523Q504 519 508 510L555 358H398ZM675 90V262H285V90H275V303Q275 331 279.5 354.5Q284 378 292 400L356 564Q367 592 381 611Q395 630 429 630H527Q560 630 573.5 611Q587 592 599 563L668 400Q676 378 680.5 354.5Q685 331 685 303V90ZM388 36V176H565V36Q565 17 574.5 8.5Q584 0 604 0H755Q774 0 782.5 8.5Q791 17 791 36V300Q791 330 781.5 369Q772 408 752 460L665 687Q659 704 646.5 712Q634 720 615 720H346Q326 720 313.5 712Q301 704 295 687L208 460Q188 408 178.5 369Q169 330 169 300V36Q169 17 177.5 8.5Q186 0 205 0H352Q371 0 379.5 8.5Q388 17 388 36ZM254 -109Q250 -113 241.5 -116Q233 -119 223 -119H76Q52 -119 41 -108Q30 -97 30 -73V191Q30 222 39.5 261.5Q49 301 70 355L156 581Q159 590 163.5 596.5Q168 603 173 608L174 609L223 650Q164 668 144 704.5Q124 741 124 788V832Q124 845 127.5 854Q131 863 138 869L267 978Q268 979 270 980Q272 981 273 982Q271 991 273.5 997.5Q276 1004 280 1008L318 1040H260Q245 1040 238 1047Q231 1054 231 1069V1142Q231 1150 233.5 1155.5Q236 1161 240 1165L369 1274Q373 1277 377.5 1278.5Q382 1280 389 1280H557Q613 1280 644 1251Q675 1222 675 1168V1104Q675 1077 667 1059.5Q659 1042 646 1030L595 987H661Q685 987 696 976Q707 965 707 941V897Q707 864 697.5 836Q688 808 663 788L593 730H615Q638 730 652.5 720.5Q667 711 674 691L761 464Q782 410 791.5 370.5Q801 331 801 300V36Q801 23 797.5 14Q794 5 787 -1L657 -109Q653 -113 644.5 -116Q636 -119 626 -119H475Q450 -119 438 -107.5Q426 -96 426 -73V57H398V36Q398 23 394.5 14Q391 5 384 -1Z" glyph-name="Abrevehookabove" horiz-adv-x="830" unicode="&#7858;" /><glyph d="M479 1024 495 1022Q525 1018 544.5 1015.5Q564 1013 580 1013Q596 1013 612 1016.5Q628 1020 652 1027Q669 1034 678.5 1041.5Q688 1049 688 1068V1169Q688 1188 679 1194Q670 1200 652 1195Q630 1188 616 1184Q602 1180 587.5 1179Q573 1178 553.5 1180Q534 1182 501 1187L479 1190L462 1192Q432 1196 412.5 1198.5Q393 1201 377.5 1201Q362 1201 346 1197.5Q330 1194 306 1187Q289 1180 279.5 1172.5Q270 1165 270 1146V1045Q270 1026 279 1020Q288 1014 306 1019Q326 1025 340.5 1028.5Q355 1032 370 1033.5Q385 1035 404 1033.5Q423 1032 451 1028ZM598 1101V1091Q578 1089 555 1091Q532 1093 494 1099L478 1101L450 1105Q417 1110 396.5 1111Q376 1112 360 1109V1120Q377 1122 397.5 1120.5Q418 1119 452 1115L480 1111L496 1109Q534 1103 556 1101Q578 1099 598 1101ZM697 897V941Q697 960 688.5 968.5Q680 977 661 977H570Q553 977 546.5 970.5Q540 964 540 946V925Q540 911 529 901.5Q518 892 481 892Q444 892 434 901.5Q424 911 424 925V946Q424 964 417.5 970.5Q411 977 395 977H299Q280 977 271.5 968.5Q263 960 263 941V897Q263 865 272.5 838.5Q282 812 306.5 793.5Q331 775 373 764.5Q415 754 480 754Q545 754 587 764.5Q629 775 653.5 793.5Q678 812 687.5 838.5Q697 865 697 897ZM614 907H624V898Q624 884 618.5 869.5Q613 855 598 843.5Q583 832 554 825Q525 818 479 818Q433 818 405 825Q377 832 362.5 843.5Q348 855 343.5 869.5Q339 884 339 898V907H349V898Q349 871 373.5 849.5Q398 828 479 828Q560 828 587 849.5Q614 871 614 898ZM285 303V272H675V303Q675 330 670.5 353Q666 376 659 396L590 559Q579 585 567 602.5Q555 620 527 620H429Q399 620 387 602.5Q375 585 365 560L301 396Q294 376 289.5 353Q285 330 285 303ZM445 510Q449 519 453.5 523Q458 527 464 527H489Q495 527 499.5 523Q504 519 508 510L555 358H398ZM675 90V262H285V90H275V303Q275 331 279.5 354.5Q284 378 292 400L356 564Q367 592 381 611Q395 630 429 630H527Q560 630 573.5 611Q587 592 599 563L668 400Q676 378 680.5 354.5Q685 331 685 303V90ZM388 36V176H565V36Q565 17 574.5 8.5Q584 0 604 0H755Q774 0 782.5 8.5Q791 17 791 36V300Q791 330 781.5 369Q772 408 752 460L665 687Q659 704 646.5 712Q634 720 615 720H346Q326 720 313.5 712Q301 704 295 687L208 460Q188 408 178.5 369Q169 330 169 300V36Q169 17 177.5 8.5Q186 0 205 0H352Q371 0 379.5 8.5Q388 17 388 36ZM254 -109Q250 -113 241.5 -116Q233 -119 223 -119H76Q52 -119 41 -108Q30 -97 30 -73V191Q30 222 39.5 261.5Q49 301 70 355L156 581Q159 590 163.5 596.5Q168 603 173 608L174 609L223 650Q165 668 144.5 704.5Q124 741 124 788V832Q124 845 127.5 854Q131 863 138 869L173 898Q152 894 141.5 903.5Q131 913 131 936V1037Q131 1050 134.5 1058.5Q138 1067 146 1074L275 1182Q279 1186 286.5 1189.5Q294 1193 302 1196H303V1197Q327 1204 343.5 1207.5Q360 1211 376.5 1211Q393 1211 412.5 1208.5Q432 1206 463 1202L480 1200L502 1197Q534 1192 553 1190Q572 1188 586 1189Q600 1190 614 1194Q628 1198 649 1205Q674 1212 686 1203Q698 1194 698 1169V1068Q698 1055 694 1046.5Q690 1038 683 1032L629 987H661Q685 987 696 976Q707 965 707 941V897Q707 864 697.5 836Q688 808 663 788L594 730H615Q638 730 652.5 720.5Q667 711 674 691L761 464Q782 410 791.5 370.5Q801 331 801 300V36Q801 23 797.5 14Q794 5 787 -1L657 -109Q653 -113 644.5 -116Q636 -119 626 -119H475Q450 -119 438 -107.5Q426 -96 426 -73V57H398V36Q398 23 394.5 14Q391 5 384 -1Z" glyph-name="Abrevetilde" horiz-adv-x="830" unicode="&#7860;" /><glyph d="M511 932Q494 928 480 928Q466 928 449 932L312 972Q286 980 278 974Q270 968 270 941V860Q270 833 278.5 825Q287 817 312 807L449 757Q456 754 464 753Q472 752 481 752Q490 753 500.5 755Q511 757 520 761L648 807Q672 817 680.5 825Q689 833 689 860V941Q689 968 681 974Q673 980 648 972ZM360 879 447 851Q454 849 461.5 847Q469 845 479 845Q489 845 496.5 847Q504 849 511 851L598 879V868L515 841Q506 839 498 837Q490 835 479 835Q468 835 460 837Q452 839 443 841L360 868ZM285 303V272H675V303Q675 330 670.5 353Q666 376 659 396L590 559Q579 585 567 602.5Q555 620 527 620H429Q399 620 387 602.5Q375 585 365 560L301 396Q294 376 289.5 353Q285 330 285 303ZM445 510Q449 519 453.5 523Q458 527 464 527H489Q495 527 499.5 523Q504 519 508 510L555 358H398ZM675 90V262H285V90H275V303Q275 331 279.5 354.5Q284 378 292 400L356 564Q367 592 381 611Q395 630 429 630H527Q560 630 573.5 611Q587 592 599 563L668 400Q676 378 680.5 354.5Q685 331 685 303V90ZM388 36V176H565V36Q565 17 574.5 8.5Q584 0 604 0H755Q774 0 782.5 8.5Q791 17 791 36V300Q791 330 781.5 369Q772 408 752 460L665 687Q659 704 646.5 712Q634 720 615 720H346Q326 720 313.5 712Q301 704 295 687L208 460Q188 408 178.5 369Q169 330 169 300V36Q169 17 177.5 8.5Q186 0 205 0H352Q371 0 379.5 8.5Q388 17 388 36ZM254 -109Q250 -113 241.5 -116Q233 -119 223 -119H76Q52 -119 41 -108Q30 -97 30 -73V191Q30 222 39.5 261.5Q49 301 70 355L156 581Q159 590 163.5 596.5Q168 603 173 608L174 609L242 666L179 689Q149 700 140 710Q131 720 131 751V832Q131 849 133.5 859Q136 869 142 873L271 982Q276 986 286.5 986.5Q297 987 315 982L452 942Q468 938 480 938Q492 938 508 942L645 982Q678 992 688.5 984.5Q699 977 699 941V860Q699 841 695 831Q691 821 683 814L583 730H615Q638 730 652.5 720.5Q667 711 674 691L761 464Q782 410 791.5 370.5Q801 331 801 300V36Q801 23 797.5 14Q794 5 787 -1L657 -109Q653 -113 644.5 -116Q636 -119 626 -119H475Q450 -119 438 -107.5Q426 -96 426 -73V57H398V36Q398 23 394.5 14Q391 5 384 -1Z" glyph-name="Acaron" horiz-adv-x="830" unicode="&#461;" /><glyph d="M598 850 511 878Q504 880 496.5 882Q489 884 479 884Q469 884 461.5 882Q454 880 447 878L360 850V861L443 888Q452 890 460 892Q468 894 479 894Q490 894 498 892Q506 890 515 888L598 861ZM448 797Q465 801 479 801Q493 801 510 797L647 757Q673 749 681 755Q689 761 689 788V869Q689 896 680.5 904Q672 912 647 922L510 972Q503 975 495 976Q487 977 478 977Q469 976 458.5 974Q448 972 439 968L311 922Q287 912 278.5 904Q270 896 270 869V788Q270 761 278 755Q286 749 311 757ZM285 303V272H675V303Q675 330 670.5 353Q666 376 659 396L590 559Q579 585 567 602.5Q555 620 527 620H429Q399 620 387 602.5Q375 585 365 560L301 396Q294 376 289.5 353Q285 330 285 303ZM445 510Q449 519 453.5 523Q458 527 464 527H489Q495 527 499.5 523Q504 519 508 510L555 358H398ZM675 90V262H285V90H275V303Q275 331 279.5 354.5Q284 378 292 400L356 564Q367 592 381 611Q395 630 429 630H527Q560 630 573.5 611Q587 592 599 563L668 400Q676 378 680.5 354.5Q685 331 685 303V90ZM388 36V176H565V36Q565 17 574.5 8.5Q584 0 604 0H755Q774 0 782.5 8.5Q791 17 791 36V300Q791 330 781.5 369Q772 408 752 460L665 687Q659 704 646.5 712Q634 720 615 720H346Q326 720 313.5 712Q301 704 295 687L208 460Q188 408 178.5 369Q169 330 169 300V36Q169 17 177.5 8.5Q186 0 205 0H352Q371 0 379.5 8.5Q388 17 388 36ZM254 -109Q250 -113 241.5 -116Q233 -119 223 -119H76Q52 -119 41 -108Q30 -97 30 -73V191Q30 222 39.5 261.5Q49 301 70 355L156 581Q159 590 163.5 596.5Q168 603 173 608L174 609L222 649L185 638Q152 628 141.5 635.5Q131 643 131 679V760Q131 779 134.5 789Q138 799 145 806L276 915L275 914Q280 919 288.5 923Q297 927 308 931L435 977Q445 981 456.5 983.5Q468 986 478 987Q488 987 497 986Q506 985 513 981L651 931Q681 920 690 910Q699 900 699 869V788Q699 772 696 762Q693 752 689 748L688 747L655 719Q661 715 666 708Q671 701 674 691L761 464Q782 410 791.5 370.5Q801 331 801 300V36Q801 23 797.5 14Q794 5 787 -1L657 -109Q653 -113 644.5 -116Q636 -119 626 -119H475Q450 -119 438 -107.5Q426 -96 426 -73V57H398V36Q398 23 394.5 14Q391 5 384 -1Z" glyph-name="Acircumflex" horiz-adv-x="830" unicode="&#194;" /><glyph d="M601 850 514 878Q507 880 499.5 882Q492 884 482 884Q472 884 464.5 882Q457 880 450 878L363 850V861L446 888Q455 890 463 892Q471 894 482 894Q493 894 501 892Q509 890 518 888L601 861ZM451 797Q468 801 482 801Q496 801 513 797L650 757Q676 749 684 755Q692 761 692 788V869Q692 896 683.5 904Q675 912 650 922L513 972Q506 975 498 976Q490 977 481 977Q472 976 461.5 974Q451 972 442 968L314 922Q290 912 281.5 904Q273 896 273 869V788Q273 761 281 755Q289 749 314 757ZM299 507V281H670V507Q670 535 661.5 558Q653 581 632 597.5Q611 614 575 623Q539 632 483 632Q427 632 391.5 623Q356 614 335.5 597.5Q315 581 307 558Q299 535 299 507ZM398 497Q398 517 413 530.5Q428 544 481 544Q533 544 548 530.5Q563 517 563 497V368H398ZM424 388Q424 397 420.5 404.5Q417 412 408 417V378H424ZM670 90V271H299V90H289V507Q289 537 297.5 562Q306 587 327.5 605Q349 623 386.5 632.5Q424 642 483 642Q542 642 580 632.5Q618 623 640 605Q662 587 671 562Q680 537 680 507V90ZM398 36V185H563V36Q563 17 571.5 8.5Q580 0 599 0H751Q770 0 778.5 8.5Q787 17 787 36V531Q787 576 774.5 614Q762 652 728 678.5Q694 705 634.5 720Q575 735 482 735Q389 735 330 720Q271 705 237.5 678.5Q204 652 191.5 614Q179 576 179 531V36Q179 17 187.5 8.5Q196 0 215 0H362Q381 0 389.5 8.5Q398 17 398 36ZM264 -109Q260 -113 251.5 -116Q243 -119 233 -119H86Q62 -119 51 -108Q40 -97 40 -73V422Q40 469 52.5 508.5Q65 548 99 576L167 633Q148 629 141 639.5Q134 650 134 679V760Q134 779 137.5 789Q141 799 148 806L279 915L278 914Q283 919 291.5 923Q300 927 311 931L438 977Q448 981 459.5 983.5Q471 986 481 987Q491 987 500 986Q509 985 516 981L654 931Q684 920 693 910Q702 900 702 869V788Q702 772 699 762Q696 752 692 748L691 747L662 723Q743 698 770 647.5Q797 597 797 531V36Q797 23 793.5 14Q790 5 783 -1L653 -109Q649 -113 640.5 -116Q632 -119 622 -119H470Q446 -119 435 -108Q424 -97 424 -73V66H408V36Q408 23 404.5 14Q401 5 394 -1Z" glyph-name="Acircumflex.salt" horiz-adv-x="836" unicode="&#57603;" /><glyph d="M683 810 596 838Q589 840 581.5 842Q574 844 564 844Q554 844 546.5 842Q539 840 532 838L445 810V821L528 848Q537 850 545 852Q553 854 564 854Q575 854 583 852Q591 850 600 848L683 821ZM533 757Q550 761 564 761Q578 761 595 757L732 717Q758 709 766 715Q774 721 774 748V829Q774 856 765.5 864Q757 872 732 882L595 932Q588 935 580 936Q572 937 563 937Q554 936 543.5 934Q533 932 524 928L396 882Q372 872 363.5 864Q355 856 355 829V748Q355 721 363 715Q371 709 396 717ZM380 467V261H748V467Q748 495 740 518Q732 541 711.5 557.5Q691 574 655 583Q619 592 564 592Q508 592 472.5 583Q437 574 416.5 557.5Q396 541 388 518Q380 495 380 467ZM483 457Q483 477 496.5 490.5Q510 504 563 504Q615 504 628.5 490.5Q642 477 642 457V348H483ZM503 368Q503 375 501 382Q499 389 493 393V358H503ZM748 90V251H380V90H370V467Q370 497 378.5 522Q387 547 408.5 565Q430 583 467.5 592.5Q505 602 564 602Q622 602 659.5 592.5Q697 583 719 565Q741 547 749.5 522Q758 497 758 467V90ZM483 36V165H642V36Q642 17 650.5 8.5Q659 0 678 0H830Q849 0 857.5 8.5Q866 17 866 36V491Q866 536 853.5 574Q841 612 808 638.5Q775 665 716 680Q657 695 564 695Q471 695 412.5 680Q354 665 321 638.5Q288 612 276 574Q264 536 264 491V36Q264 17 272.5 8.5Q281 0 300 0H447Q466 0 474.5 8.5Q483 17 483 36ZM349 -109Q345 -113 336.5 -116Q328 -119 318 -119H171Q147 -119 136 -108Q125 -97 125 -73V382Q125 429 137.5 468.5Q150 508 184 536L252 593Q230 589 223 599Q216 609 216 639V720Q216 739 219.5 749Q223 759 230 766L361 875L360 874Q365 879 373.5 883Q382 887 393 891L520 937Q530 941 541.5 943.5Q553 946 563 947Q573 947 582 946Q591 945 598 941L736 891Q766 880 775 870Q784 860 784 829V748Q784 732 781 722Q778 712 774 708L773 707L745 683Q824 658 850 607.5Q876 557 876 491V36Q876 23 872.5 14Q869 5 862 -1L732 -109Q728 -113 719.5 -116Q711 -119 701 -119H549Q525 -119 514 -108Q503 -97 503 -73V46H493V36Q493 23 489.5 14Q486 5 479 -1Z" glyph-name="Acircumflex.salt_v" horiz-adv-x="1000" unicode="&#57840;" /><glyph d="M684 810 597 838Q590 840 582.5 842Q575 844 565 844Q555 844 547.5 842Q540 840 533 838L446 810V821L529 848Q538 850 546 852Q554 854 565 854Q576 854 584 852Q592 850 601 848L684 821ZM534 757Q551 761 565 761Q579 761 596 757L733 717Q759 709 767 715Q775 721 775 748V829Q775 856 766.5 864Q758 872 733 882L596 932Q589 935 581 936Q573 937 564 937Q555 936 544.5 934Q534 932 525 928L397 882Q373 872 364.5 864Q356 856 356 829V748Q356 721 364 715Q372 709 397 717ZM379 283V252H748V283Q748 310 743.5 333Q739 356 732 376L673 519Q662 545 645 562.5Q628 580 600 580H523Q493 580 476 562.5Q459 545 449 520L395 376Q388 356 383.5 333Q379 310 379 283ZM542 470Q546 480 549.5 483.5Q553 487 561 487H566Q574 487 577.5 483.5Q581 480 585 470L632 338H495ZM748 90V242H379V90H369V283Q369 311 373.5 334.5Q378 358 386 380L440 524Q450 552 469.5 571Q489 590 523 590H600Q633 590 651.5 570.5Q670 551 682 523L741 380Q750 358 754 334.5Q758 311 758 283V90ZM485 36V156H642V36Q642 17 652 8.5Q662 0 681 0H832Q851 0 859.5 8.5Q868 17 868 36V280Q868 306 866 323.5Q864 341 859.5 357.5Q855 374 847.5 393Q840 412 829 440L742 647Q735 666 723 673Q711 680 692 680H433Q414 680 401.5 673Q389 666 382 647L305 440Q294 412 286.5 393Q279 374 274.5 357.5Q270 341 268 323.5Q266 306 266 280V36Q266 17 274.5 8.5Q283 0 302 0H449Q468 0 476.5 8.5Q485 17 485 36ZM351 -109Q347 -113 338.5 -116Q330 -119 320 -119H173Q148 -119 137.5 -108Q127 -97 127 -73V171Q127 197 129 215.5Q131 234 135.5 250.5Q140 267 148 286Q156 305 167 334L243 541Q246 550 250.5 557.5Q255 565 261 569L309 609L271 598Q238 588 227.5 595.5Q217 603 217 639V720Q217 739 220.5 749Q224 759 231 766L362 875L361 874Q366 879 374.5 883Q383 887 394 891L521 937Q531 941 542.5 943.5Q554 946 564 947Q574 947 583 946Q592 945 599 941L737 891Q767 880 776 870Q785 860 785 829V748Q785 732 782 722Q779 712 775 708L774 707L736 676Q740 672 744 665.5Q748 659 751 651L838 444Q849 415 857 395.5Q865 376 869.5 359.5Q874 343 876 324.5Q878 306 878 280V36Q878 23 874.5 14Q871 5 864 -1L734 -109Q730 -113 721.5 -116Q713 -119 703 -119H552Q528 -119 515.5 -107.5Q503 -96 503 -73V37H495V36Q495 23 491.5 14Q488 5 481 -1Z" glyph-name="Acircumflex.v" horiz-adv-x="1000" unicode="&#57740;" /><glyph d="M695 1202 558 1169Q540 1165 531 1158.5Q522 1152 522 1133V1027Q522 1010 531 1000Q540 990 556 994L693 1027Q711 1031 720 1037.5Q729 1044 729 1063V1169Q729 1186 720 1196Q711 1206 695 1202ZM668 1104 581 1083V1093L668 1114ZM598 850 511 878Q504 880 496.5 882Q489 884 479 884Q469 884 461.5 882Q454 880 447 878L360 850V861L443 888Q452 890 460 892Q468 894 479 894Q490 894 498 892Q506 890 515 888L598 861ZM448 797Q465 801 479 801Q493 801 510 797L647 757Q673 749 681 755Q689 761 689 788V869Q689 896 680.5 904Q672 912 647 922L510 972Q503 975 495 976Q487 977 478 977Q469 976 458.5 974Q448 972 439 968L311 922Q287 912 278.5 904Q270 896 270 869V788Q270 761 278 755Q286 749 311 757ZM285 303V272H675V303Q675 330 670.5 353Q666 376 659 396L590 559Q579 585 567 602.5Q555 620 527 620H429Q399 620 387 602.5Q375 585 365 560L301 396Q294 376 289.5 353Q285 330 285 303ZM445 510Q449 519 453.5 523Q458 527 464 527H489Q495 527 499.5 523Q504 519 508 510L555 358H398ZM675 90V262H285V90H275V303Q275 331 279.5 354.5Q284 378 292 400L356 564Q367 592 381 611Q395 630 429 630H527Q560 630 573.5 611Q587 592 599 563L668 400Q676 378 680.5 354.5Q685 331 685 303V90ZM388 36V176H565V36Q565 17 574.5 8.5Q584 0 604 0H755Q774 0 782.5 8.5Q791 17 791 36V300Q791 330 781.5 369Q772 408 752 460L665 687Q659 704 646.5 712Q634 720 615 720H346Q326 720 313.5 712Q301 704 295 687L208 460Q188 408 178.5 369Q169 330 169 300V36Q169 17 177.5 8.5Q186 0 205 0H352Q371 0 379.5 8.5Q388 17 388 36ZM254 -109Q250 -113 241.5 -116Q233 -119 223 -119H76Q52 -119 41 -108Q30 -97 30 -73V191Q30 222 39.5 261.5Q49 301 70 355L156 581Q159 590 163.5 596.5Q168 603 173 608L174 609L222 649L185 638Q152 628 141.5 635.5Q131 643 131 679V760Q131 779 134.5 789Q138 799 145 806L276 915L275 914Q280 919 288.5 923Q297 927 308 931L383 958V1024Q383 1037 386.5 1045Q390 1053 396 1058L525 1166Q530 1170 538 1173Q546 1176 556 1179L693 1212Q714 1216 726.5 1204.5Q739 1193 739 1169V1063Q739 1050 735.5 1042.5Q732 1035 726 1030L621 942L651 931Q681 920 690 910Q699 900 699 869V788Q699 772 696 762Q693 752 689 748L688 747L655 719Q661 715 666 708Q671 701 674 691L761 464Q782 410 791.5 370.5Q801 331 801 300V36Q801 23 797.5 14Q794 5 787 -1L657 -109Q653 -113 644.5 -116Q636 -119 626 -119H475Q450 -119 438 -107.5Q426 -96 426 -73V57H398V36Q398 23 394.5 14Q391 5 384 -1Z" glyph-name="Acircumflexacute" horiz-adv-x="830" unicode="&#7844;" /><glyph d="M461 -349Q457 -353 448.5 -356Q440 -359 430 -359H272Q248 -359 237 -348Q226 -337 226 -313V-186Q226 -173 229.5 -164Q233 -155 240 -149L369 -40Q374 -36 382.5 -33.5Q391 -31 401 -31H426V57H398V36Q398 23 394.5 14Q391 5 384 -1L254 -109Q250 -113 241.5 -116Q233 -119 223 -119H76Q52 -119 41 -108Q30 -97 30 -73V191Q30 222 39.5 261.5Q49 301 70 355L156 581Q159 590 163.5 596.5Q168 603 173 608L174 609L222 649L185 638Q152 628 141.5 635.5Q131 643 131 679V760Q131 779 134.5 789Q138 799 145 806L276 915L275 914Q280 919 288.5 923Q297 927 308 931L435 977Q445 981 456.5 983.5Q468 986 478 987Q488 987 497 986Q506 985 513 981L651 931Q681 920 690 910Q699 900 699 869V788Q699 772 696 762Q693 752 689 748L688 747L655 719Q661 715 666 708Q671 701 674 691L761 464Q782 410 791.5 370.5Q801 331 801 300V36Q801 23 797.5 14Q794 5 787 -1L657 -109Q653 -113 644.5 -116Q636 -119 626 -119H605V-204Q605 -217 601.5 -226Q598 -235 591 -241ZM598 850 511 878Q504 880 496.5 882Q489 884 479 884Q469 884 461.5 882Q454 880 447 878L360 850V861L443 888Q452 890 460 892Q468 894 479 894Q490 894 498 892Q506 890 515 888L598 861ZM448 797Q465 801 479 801Q493 801 510 797L647 757Q673 749 681 755Q689 761 689 788V869Q689 896 680.5 904Q672 912 647 922L510 972Q503 975 495 976Q487 977 478 977Q469 976 458.5 974Q448 972 439 968L311 922Q287 912 278.5 904Q270 896 270 869V788Q270 761 278 755Q286 749 311 757ZM285 303V272H675V303Q675 330 670.5 353Q666 376 659 396L590 559Q579 585 567 602.5Q555 620 527 620H429Q399 620 387 602.5Q375 585 365 560L301 396Q294 376 289.5 353Q285 330 285 303ZM445 510Q449 519 453.5 523Q458 527 464 527H489Q495 527 499.5 523Q504 519 508 510L555 358H398ZM675 90V262H285V90H275V303Q275 331 279.5 354.5Q284 378 292 400L356 564Q367 592 381 611Q395 630 429 630H527Q560 630 573.5 611Q587 592 599 563L668 400Q676 378 680.5 354.5Q685 331 685 303V90ZM388 36V176H565V36Q565 17 574.5 8.5Q584 0 604 0H755Q774 0 782.5 8.5Q791 17 791 36V300Q791 330 781.5 369Q772 408 752 460L665 687Q659 704 646.5 712Q634 720 615 720H346Q326 720 313.5 712Q301 704 295 687L208 460Q188 408 178.5 369Q169 330 169 300V36Q169 17 177.5 8.5Q186 0 205 0H352Q371 0 379.5 8.5Q388 17 388 36ZM559 -240Q578 -240 586.5 -231.5Q595 -223 595 -204V-77Q595 -58 586.5 -49.5Q578 -41 559 -41H401Q382 -41 373.5 -49.5Q365 -58 365 -77V-204Q365 -223 373.5 -231.5Q382 -240 401 -240ZM485 -170H475V-111H485Z" glyph-name="Acircumflexdotbelow" horiz-adv-x="830" unicode="&#7852;" /><glyph d="M536 1177Q520 1181 511 1171Q502 1161 502 1144V1038Q502 1019 511 1012.5Q520 1006 538 1002L675 969Q691 965 700 975Q709 985 709 1002V1108Q709 1127 700 1133.5Q691 1140 673 1144ZM648 1068V1058L561 1079V1089ZM598 850 511 878Q504 880 496.5 882Q489 884 479 884Q469 884 461.5 882Q454 880 447 878L360 850V861L443 888Q452 890 460 892Q468 894 479 894Q490 894 498 892Q506 890 515 888L598 861ZM448 797Q465 801 479 801Q493 801 510 797L647 757Q673 749 681 755Q689 761 689 788V869Q689 896 680.5 904Q672 912 647 922L510 972Q503 975 495 976Q487 977 478 977Q469 976 458.5 974Q448 972 439 968L311 922Q287 912 278.5 904Q270 896 270 869V788Q270 761 278 755Q286 749 311 757ZM285 303V272H675V303Q675 330 670.5 353Q666 376 659 396L590 559Q579 585 567 602.5Q555 620 527 620H429Q399 620 387 602.5Q375 585 365 560L301 396Q294 376 289.5 353Q285 330 285 303ZM445 510Q449 519 453.5 523Q458 527 464 527H489Q495 527 499.5 523Q504 519 508 510L555 358H398ZM675 90V262H285V90H275V303Q275 331 279.5 354.5Q284 378 292 400L356 564Q367 592 381 611Q395 630 429 630H527Q560 630 573.5 611Q587 592 599 563L668 400Q676 378 680.5 354.5Q685 331 685 303V90ZM388 36V176H565V36Q565 17 574.5 8.5Q584 0 604 0H755Q774 0 782.5 8.5Q791 17 791 36V300Q791 330 781.5 369Q772 408 752 460L665 687Q659 704 646.5 712Q634 720 615 720H346Q326 720 313.5 712Q301 704 295 687L208 460Q188 408 178.5 369Q169 330 169 300V36Q169 17 177.5 8.5Q186 0 205 0H352Q371 0 379.5 8.5Q388 17 388 36ZM254 -109Q250 -113 241.5 -116Q233 -119 223 -119H76Q52 -119 41 -108Q30 -97 30 -73V191Q30 222 39.5 261.5Q49 301 70 355L156 581Q159 590 163.5 596.5Q168 603 173 608L174 609L221 648L185 638Q152 628 141.5 635.5Q131 643 131 679V760Q131 779 134.5 789Q138 799 145 806L276 915L275 914Q280 919 288.5 923Q297 927 308 931L362 951V1035Q362 1048 365.5 1057Q369 1066 376 1072L506 1181Q511 1185 519 1187Q527 1189 537 1187L674 1154Q697 1148 707.5 1139.5Q718 1131 718 1108V1002Q718 989 714 980Q710 971 703 965L659 928Q684 918 691.5 908Q699 898 699 869V788Q699 772 696 762Q693 752 689 748L688 747L655 719Q662 715 666.5 708Q671 701 674 691L761 464Q782 410 791.5 370.5Q801 331 801 300V36Q801 23 797.5 14Q794 5 787 -1L657 -109Q653 -113 644.5 -116Q636 -119 626 -119H475Q450 -119 438 -107.5Q426 -96 426 -73V57H398V36Q398 23 394.5 14Q391 5 384 -1Z" glyph-name="Acircumflexgrave" horiz-adv-x="830" unicode="&#7846;" /><glyph d="M733 991Q770 996 792 1015Q814 1034 814 1078V1142Q814 1192 785.5 1218Q757 1244 706 1244H538Q528 1244 523.5 1239.5Q519 1235 519 1225V1152Q519 1142 523.5 1137.5Q528 1133 538 1133H667Q675 1133 680.5 1129.5Q686 1126 686 1119Q686 1110 681.5 1106.5Q677 1103 667 1102L578 1088Q568 1087 564 1082Q560 1077 561 1067L572 988Q573 978 577.5 974.5Q582 971 592 972ZM617 1029 616 1039 712 1053Q727 1055 736 1064.5Q745 1074 745 1095V1145Q745 1168 732.5 1176Q720 1184 705 1184H569V1194H705Q724 1194 739.5 1184Q755 1174 755 1145V1095Q755 1067 742.5 1056.5Q730 1046 714 1044ZM598 850 511 878Q504 880 496.5 882Q489 884 479 884Q469 884 461.5 882Q454 880 447 878L360 850V861L443 888Q452 890 460 892Q468 894 479 894Q490 894 498 892Q506 890 515 888L598 861ZM448 797Q465 801 479 801Q493 801 510 797L647 757Q673 749 681 755Q689 761 689 788V869Q689 896 680.5 904Q672 912 647 922L510 972Q503 975 495 976Q487 977 478 977Q469 976 458.5 974Q448 972 439 968L311 922Q287 912 278.5 904Q270 896 270 869V788Q270 761 278 755Q286 749 311 757ZM285 303V272H675V303Q675 330 670.5 353Q666 376 659 396L590 559Q579 585 567 602.5Q555 620 527 620H429Q399 620 387 602.5Q375 585 365 560L301 396Q294 376 289.5 353Q285 330 285 303ZM445 510Q449 519 453.5 523Q458 527 464 527H489Q495 527 499.5 523Q504 519 508 510L555 358H398ZM675 90V262H285V90H275V303Q275 331 279.5 354.5Q284 378 292 400L356 564Q367 592 381 611Q395 630 429 630H527Q560 630 573.5 611Q587 592 599 563L668 400Q676 378 680.5 354.5Q685 331 685 303V90ZM388 36V176H565V36Q565 17 574.5 8.5Q584 0 604 0H755Q774 0 782.5 8.5Q791 17 791 36V300Q791 330 781.5 369Q772 408 752 460L665 687Q659 704 646.5 712Q634 720 615 720H346Q326 720 313.5 712Q301 704 295 687L208 460Q188 408 178.5 369Q169 330 169 300V36Q169 17 177.5 8.5Q186 0 205 0H352Q371 0 379.5 8.5Q388 17 388 36ZM254 -109Q250 -113 241.5 -116Q233 -119 223 -119H76Q52 -119 41 -108Q30 -97 30 -73V191Q30 222 39.5 261.5Q49 301 70 355L156 581Q159 590 163.5 596.5Q168 603 173 608L174 609L221 648L185 638Q152 628 141.5 635.5Q131 643 131 679V760Q131 779 134.5 789Q138 799 145 806L276 915L275 914Q280 919 288.5 923Q297 927 308 931L423 973Q424 975 425.5 977.5Q427 980 429 982L467 1014H409Q394 1014 387 1021Q380 1028 380 1043V1116Q380 1124 382.5 1129.5Q385 1135 389 1139L518 1248Q522 1251 526.5 1252.5Q531 1254 538 1254H706Q762 1254 793 1225Q824 1196 824 1142V1078Q824 1051 816 1033.5Q808 1016 795 1004L687 913Q694 906 696.5 896Q699 886 699 869V788Q699 772 696 762Q693 752 689 748L688 747L654 719Q661 715 666 708Q671 701 674 691L761 464Q782 410 791.5 370.5Q801 331 801 300V36Q801 23 797.5 14Q794 5 787 -1L657 -109Q653 -113 644.5 -116Q636 -119 626 -119H475Q450 -119 438 -107.5Q426 -96 426 -73V57H398V36Q398 23 394.5 14Q391 5 384 -1Z" glyph-name="Acircumflexhookabove" horiz-adv-x="830" unicode="&#7848;" /><glyph d="M479 1014 495 1012Q525 1008 544.5 1005.5Q564 1003 580 1003Q596 1003 612 1006.5Q628 1010 652 1017Q669 1024 678.5 1031.5Q688 1039 688 1058V1159Q688 1178 679 1184Q670 1190 652 1185Q630 1178 616 1174Q602 1170 587.5 1169Q573 1168 553.5 1170Q534 1172 501 1177L479 1180L462 1182Q432 1186 412.5 1188.5Q393 1191 377.5 1191Q362 1191 346 1187.5Q330 1184 306 1177Q289 1170 279.5 1162.5Q270 1155 270 1136V1035Q270 1016 279 1010Q288 1004 306 1009Q326 1015 340.5 1018.5Q355 1022 370 1023.5Q385 1025 404 1023.5Q423 1022 451 1018ZM598 1091V1081Q578 1079 555 1081Q532 1083 494 1089L478 1091L450 1095Q417 1100 396.5 1101Q376 1102 360 1099V1110Q377 1112 397.5 1110.5Q418 1109 452 1105L480 1101L496 1099Q534 1093 556 1091Q578 1089 598 1091ZM598 850 511 878Q504 880 496.5 882Q489 884 479 884Q469 884 461.5 882Q454 880 447 878L360 850V861L443 888Q452 890 460 892Q468 894 479 894Q490 894 498 892Q506 890 515 888L598 861ZM448 797Q465 801 479 801Q493 801 510 797L647 757Q673 749 681 755Q689 761 689 788V869Q689 896 680.5 904Q672 912 647 922L510 972Q503 975 495 976Q487 977 478 977Q469 976 458.5 974Q448 972 439 968L311 922Q287 912 278.5 904Q270 896 270 869V788Q270 761 278 755Q286 749 311 757ZM285 303V272H675V303Q675 330 670.5 353Q666 376 659 396L590 559Q579 585 567 602.5Q555 620 527 620H429Q399 620 387 602.5Q375 585 365 560L301 396Q294 376 289.5 353Q285 330 285 303ZM445 510Q449 519 453.5 523Q458 527 464 527H489Q495 527 499.5 523Q504 519 508 510L555 358H398ZM675 90V262H285V90H275V303Q275 331 279.5 354.5Q284 378 292 400L356 564Q367 592 381 611Q395 630 429 630H527Q560 630 573.5 611Q587 592 599 563L668 400Q676 378 680.5 354.5Q685 331 685 303V90ZM388 36V176H565V36Q565 17 574.5 8.5Q584 0 604 0H755Q774 0 782.5 8.5Q791 17 791 36V300Q791 330 781.5 369Q772 408 752 460L665 687Q659 704 646.5 712Q634 720 615 720H346Q326 720 313.5 712Q301 704 295 687L208 460Q188 408 178.5 369Q169 330 169 300V36Q169 17 177.5 8.5Q186 0 205 0H352Q371 0 379.5 8.5Q388 17 388 36ZM254 -109Q250 -113 241.5 -116Q233 -119 223 -119H76Q52 -119 41 -108Q30 -97 30 -73V191Q30 222 39.5 261.5Q49 301 70 355L156 581Q159 590 163.5 596.5Q168 603 173 608L174 609L222 649L185 638Q152 628 141.5 635.5Q131 643 131 679V760Q131 779 134.5 789Q138 799 145 806L264 905Q241 906 223 902Q205 898 180 890Q155 883 143 892Q131 901 131 926V1027Q131 1040 134.5 1048.5Q138 1057 146 1064L275 1172Q279 1176 286.5 1179.5Q294 1183 302 1186H303V1187Q327 1194 343.5 1197.5Q360 1201 376.5 1201Q393 1201 412.5 1198.5Q432 1196 463 1192L480 1190L502 1187Q534 1182 553 1180Q572 1178 586 1179Q600 1180 614 1184Q628 1188 649 1195Q674 1202 686 1193Q698 1184 698 1159V1058Q698 1045 694 1036.5Q690 1028 683 1022L598 950L651 931Q681 920 690 910Q699 900 699 869V788Q699 772 696 762Q693 752 689 748L688 747L655 719Q661 715 666 708Q671 701 674 691L761 464Q782 410 791.5 370.5Q801 331 801 300V36Q801 23 797.5 14Q794 5 787 -1L657 -109Q653 -113 644.5 -116Q636 -119 626 -119H475Q450 -119 438 -107.5Q426 -96 426 -73V57H398V36Q398 23 394.5 14Q391 5 384 -1Z" glyph-name="Acircumflextilde" horiz-adv-x="830" unicode="&#7850;" /><glyph d="M676 760Q693 760 701 768Q709 776 709 793V914Q709 931 701 939Q693 947 676 947H538Q521 947 513 939Q505 931 505 914V793Q505 776 513 768Q521 760 538 760ZM418 760Q435 760 443 768Q451 776 451 793V914Q451 931 443 939Q435 947 418 947H280Q263 947 254.5 939Q246 931 246 914V793Q246 776 254.5 768Q263 760 280 760ZM612 830H602V877H612ZM354 830H344V877H354ZM285 303V272H675V303Q675 330 670.5 353Q666 376 659 396L590 559Q579 585 567 602.5Q555 620 527 620H429Q399 620 387 602.5Q375 585 365 560L301 396Q294 376 289.5 353Q285 330 285 303ZM445 510Q449 519 453.5 523Q458 527 464 527H489Q495 527 499.5 523Q504 519 508 510L555 358H398ZM675 90V262H285V90H275V303Q275 331 279.5 354.5Q284 378 292 400L356 564Q367 592 381 611Q395 630 429 630H527Q560 630 573.5 611Q587 592 599 563L668 400Q676 378 680.5 354.5Q685 331 685 303V90ZM388 36V176H565V36Q565 17 574.5 8.5Q584 0 604 0H755Q774 0 782.5 8.5Q791 17 791 36V300Q791 330 781.5 369Q772 408 752 460L665 687Q659 704 646.5 712Q634 720 615 720H346Q326 720 313.5 712Q301 704 295 687L208 460Q188 408 178.5 369Q169 330 169 300V36Q169 17 177.5 8.5Q186 0 205 0H352Q371 0 379.5 8.5Q388 17 388 36ZM254 -109Q250 -113 241.5 -116Q233 -119 223 -119H76Q52 -119 41 -108Q30 -97 30 -73V191Q30 222 39.5 261.5Q49 301 70 355L156 581Q159 590 163.5 596.5Q168 603 173 608L174 609L212 641H151Q129 641 118 651.5Q107 662 107 684V805Q107 818 110.5 826Q114 834 120 839L249 948Q254 952 262 954.5Q270 957 280 957H418Q440 957 450.5 946.5Q461 936 461 914V908L508 948Q513 952 520.5 954.5Q528 957 538 957H676Q698 957 708.5 946.5Q719 936 719 914V793Q719 781 715.5 772.5Q712 764 706 759L656 718Q662 714 666.5 707Q671 700 674 691L761 464Q782 410 791.5 370.5Q801 331 801 300V36Q801 23 797.5 14Q794 5 787 -1L657 -109Q653 -113 644.5 -116Q636 -119 626 -119H475Q450 -119 438 -107.5Q426 -96 426 -73V57H398V36Q398 23 394.5 14Q391 5 384 -1Z" glyph-name="Adieresis" horiz-adv-x="830" unicode="&#196;" /><glyph d="M679 760Q696 760 704 768Q712 776 712 793V914Q712 931 704 939Q696 947 679 947H541Q524 947 516 939Q508 931 508 914V793Q508 776 516 768Q524 760 541 760ZM421 760Q438 760 446 768Q454 776 454 793V914Q454 931 446 939Q438 947 421 947H283Q266 947 257.5 939Q249 931 249 914V793Q249 776 257.5 768Q266 760 283 760ZM615 830H605V877H615ZM357 830H347V877H357ZM299 507V281H670V507Q670 535 661.5 558Q653 581 632 597.5Q611 614 575 623Q539 632 483 632Q427 632 391.5 623Q356 614 335.5 597.5Q315 581 307 558Q299 535 299 507ZM398 497Q398 517 413 530.5Q428 544 481 544Q533 544 548 530.5Q563 517 563 497V368H398ZM424 388Q424 397 420.5 404.5Q417 412 408 417V378H424ZM670 90V271H299V90H289V507Q289 537 297.5 562Q306 587 327.5 605Q349 623 386.5 632.5Q424 642 483 642Q542 642 580 632.5Q618 623 640 605Q662 587 671 562Q680 537 680 507V90ZM398 36V185H563V36Q563 17 571.5 8.5Q580 0 599 0H751Q770 0 778.5 8.5Q787 17 787 36V531Q787 576 774.5 614Q762 652 728 678.5Q694 705 634.5 720Q575 735 482 735Q389 735 330 720Q271 705 237.5 678.5Q204 652 191.5 614Q179 576 179 531V36Q179 17 187.5 8.5Q196 0 215 0H362Q381 0 389.5 8.5Q398 17 398 36ZM264 -109Q260 -113 251.5 -116Q243 -119 233 -119H86Q62 -119 51 -108Q40 -97 40 -73V422Q40 469 52.5 508.5Q65 548 99 576L177 641H154Q132 641 121 651.5Q110 662 110 684V805Q110 818 113.5 826Q117 834 123 839L252 948Q257 952 265 954.5Q273 957 283 957H421Q443 957 453.5 946.5Q464 936 464 914V908L511 948Q516 952 523.5 954.5Q531 957 541 957H679Q701 957 711.5 946.5Q722 936 722 914V793Q722 781 718.5 772.5Q715 764 709 759L665 722Q744 697 770.5 646.5Q797 596 797 531V36Q797 23 793.5 14Q790 5 783 -1L653 -109Q649 -113 640.5 -116Q632 -119 622 -119H470Q446 -119 435 -108Q424 -97 424 -73V66H408V36Q408 23 404.5 14Q401 5 394 -1Z" glyph-name="Adieresis.salt" horiz-adv-x="836" unicode="&#57605;" /><glyph d="M761 720Q778 720 786 728Q794 736 794 753V874Q794 891 786 899Q778 907 761 907H623Q606 907 598 899Q590 891 590 874V753Q590 736 598 728Q606 720 623 720ZM503 720Q520 720 528 728Q536 736 536 753V874Q536 891 528 899Q520 907 503 907H365Q348 907 339.5 899Q331 891 331 874V753Q331 736 339.5 728Q348 720 365 720ZM697 790H687V837H697ZM439 790H429V837H439ZM380 467V261H748V467Q748 495 740 518Q732 541 711.5 557.5Q691 574 655 583Q619 592 564 592Q508 592 472.5 583Q437 574 416.5 557.5Q396 541 388 518Q380 495 380 467ZM483 457Q483 477 496.5 490.5Q510 504 563 504Q615 504 628.5 490.5Q642 477 642 457V348H483ZM503 368Q503 375 501 382Q499 389 493 393V358H503ZM748 90V251H380V90H370V467Q370 497 378.5 522Q387 547 408.5 565Q430 583 467.5 592.5Q505 602 564 602Q622 602 659.5 592.5Q697 583 719 565Q741 547 749.5 522Q758 497 758 467V90ZM483 36V165H642V36Q642 17 650.5 8.5Q659 0 678 0H830Q849 0 857.5 8.5Q866 17 866 36V491Q866 536 853.5 574Q841 612 808 638.5Q775 665 716 680Q657 695 564 695Q471 695 412.5 680Q354 665 321 638.5Q288 612 276 574Q264 536 264 491V36Q264 17 272.5 8.5Q281 0 300 0H447Q466 0 474.5 8.5Q483 17 483 36ZM349 -109Q345 -113 336.5 -116Q328 -119 318 -119H171Q147 -119 136 -108Q125 -97 125 -73V382Q125 429 137.5 468.5Q150 508 184 536L261 601H236Q214 601 203 611.5Q192 622 192 644V765Q192 778 195.5 786Q199 794 205 799L334 908Q339 912 347 914.5Q355 917 365 917H503Q525 917 535.5 906.5Q546 896 546 874V868L593 908Q598 912 605.5 914.5Q613 917 623 917H761Q783 917 793.5 906.5Q804 896 804 874V753Q804 741 800.5 732.5Q797 724 791 719L747 682Q825 657 850.5 606.5Q876 556 876 491V36Q876 23 872.5 14Q869 5 862 -1L732 -109Q728 -113 719.5 -116Q711 -119 701 -119H549Q525 -119 514 -108Q503 -97 503 -73V46H493V36Q493 23 489.5 14Q486 5 479 -1Z" glyph-name="Adieresis.salt_v" horiz-adv-x="1000" unicode="&#57842;" /><glyph d="M762 720Q779 720 787 728Q795 736 795 753V874Q795 891 787 899Q779 907 762 907H624Q607 907 599 899Q591 891 591 874V753Q591 736 599 728Q607 720 624 720ZM504 720Q521 720 529 728Q537 736 537 753V874Q537 891 529 899Q521 907 504 907H366Q349 907 340.5 899Q332 891 332 874V753Q332 736 340.5 728Q349 720 366 720ZM698 790H688V837H698ZM440 790H430V837H440ZM379 283V252H748V283Q748 310 743.5 333Q739 356 732 376L673 519Q662 545 645 562.5Q628 580 600 580H523Q493 580 476 562.5Q459 545 449 520L395 376Q388 356 383.5 333Q379 310 379 283ZM542 470Q546 480 549.5 483.5Q553 487 561 487H566Q574 487 577.5 483.5Q581 480 585 470L632 338H495ZM748 90V242H379V90H369V283Q369 311 373.5 334.5Q378 358 386 380L440 524Q450 552 469.5 571Q489 590 523 590H600Q633 590 651.5 570.5Q670 551 682 523L741 380Q750 358 754 334.5Q758 311 758 283V90ZM485 36V156H642V36Q642 17 652 8.5Q662 0 681 0H832Q851 0 859.5 8.5Q868 17 868 36V280Q868 306 866 323.5Q864 341 859.5 357.5Q855 374 847.5 393Q840 412 829 440L742 647Q735 666 723 673Q711 680 692 680H433Q414 680 401.5 673Q389 666 382 647L305 440Q294 412 286.5 393Q279 374 274.5 357.5Q270 341 268 323.5Q266 306 266 280V36Q266 17 274.5 8.5Q283 0 302 0H449Q468 0 476.5 8.5Q485 17 485 36ZM351 -109Q347 -113 338.5 -116Q330 -119 320 -119H173Q148 -119 137.5 -108Q127 -97 127 -73V171Q127 197 129 215.5Q131 234 135.5 250.5Q140 267 148 286Q156 305 167 334L243 541Q246 550 250.5 557.5Q255 565 261 569L299 601H237Q215 601 204 611.5Q193 622 193 644V765Q193 778 196.5 786Q200 794 206 799L335 908Q340 912 348 914.5Q356 917 366 917H504Q526 917 536.5 906.5Q547 896 547 874V868L594 908Q599 912 606.5 914.5Q614 917 624 917H762Q784 917 794.5 906.5Q805 896 805 874V753Q805 741 801.5 732.5Q798 724 792 719L738 674Q742 670 745.5 664Q749 658 751 651L838 444Q849 415 857 395.5Q865 376 869.5 359.5Q874 343 876 324.5Q878 306 878 280V36Q878 23 874.5 14Q871 5 864 -1L734 -109Q730 -113 721.5 -116Q713 -119 703 -119H552Q528 -119 515.5 -107.5Q503 -96 503 -73V37H495V36Q495 23 491.5 14Q488 5 481 -1Z" glyph-name="Adieresis.v" horiz-adv-x="1000" unicode="&#57742;" /><glyph d="M461 -349Q457 -353 448.5 -356Q440 -359 430 -359H272Q248 -359 237 -348Q226 -337 226 -313V-186Q226 -173 229.5 -164Q233 -155 240 -149L369 -40Q374 -36 382.5 -33.5Q391 -31 401 -31H426V57H398V36Q398 23 394.5 14Q391 5 384 -1L254 -109Q250 -113 241.5 -116Q233 -119 223 -119H76Q52 -119 41 -108Q30 -97 30 -73V191Q30 222 39.5 261.5Q49 301 70 355L156 581Q159 590 163.5 596.5Q168 603 173 608L174 609L302 716Q310 723 321 726.5Q332 730 346 730H615Q638 730 652.5 720.5Q667 711 674 691L761 464Q782 410 791.5 370.5Q801 331 801 300V36Q801 23 797.5 14Q794 5 787 -1L657 -109Q653 -113 644.5 -116Q636 -119 626 -119H605V-204Q605 -217 601.5 -226Q598 -235 591 -241ZM285 303V272H675V303Q675 330 670.5 353Q666 376 659 396L590 559Q579 585 567 602.5Q555 620 527 620H429Q399 620 387 602.5Q375 585 365 560L301 396Q294 376 289.5 353Q285 330 285 303ZM445 510Q449 519 453.5 523Q458 527 464 527H489Q495 527 499.5 523Q504 519 508 510L555 358H398ZM675 90V262H285V90H275V303Q275 331 279.5 354.5Q284 378 292 400L356 564Q367 592 381 611Q395 630 429 630H527Q560 630 573.5 611Q587 592 599 563L668 400Q676 378 680.5 354.5Q685 331 685 303V90ZM388 36V176H565V36Q565 17 574.5 8.5Q584 0 604 0H755Q774 0 782.5 8.5Q791 17 791 36V300Q791 330 781.5 369Q772 408 752 460L665 687Q659 704 646.5 712Q634 720 615 720H346Q326 720 313.5 712Q301 704 295 687L208 460Q188 408 178.5 369Q169 330 169 300V36Q169 17 177.5 8.5Q186 0 205 0H352Q371 0 379.5 8.5Q388 17 388 36ZM559 -240Q578 -240 586.5 -231.5Q595 -223 595 -204V-77Q595 -58 586.5 -49.5Q578 -41 559 -41H401Q382 -41 373.5 -49.5Q365 -58 365 -77V-204Q365 -223 373.5 -231.5Q382 -240 401 -240ZM485 -170H475V-111H485Z" glyph-name="Adotbelow" horiz-adv-x="830" unicode="&#7840;" /><glyph d="M655 753Q672 751 680.5 760Q689 769 689 786V882Q689 901 680.5 908.5Q672 916 653 918L304 961Q287 963 278.5 954Q270 945 270 928V832Q270 813 278.5 805.5Q287 798 306 796ZM360 867V877L599 847V837ZM285 303V272H675V303Q675 330 670.5 353Q666 376 659 396L590 559Q579 585 567 602.5Q555 620 527 620H429Q399 620 387 602.5Q375 585 365 560L301 396Q294 376 289.5 353Q285 330 285 303ZM445 510Q449 519 453.5 523Q458 527 464 527H489Q495 527 499.5 523Q504 519 508 510L555 358H398ZM675 90V262H285V90H275V303Q275 331 279.5 354.5Q284 378 292 400L356 564Q367 592 381 611Q395 630 429 630H527Q560 630 573.5 611Q587 592 599 563L668 400Q676 378 680.5 354.5Q685 331 685 303V90ZM388 36V176H565V36Q565 17 574.5 8.5Q584 0 604 0H755Q774 0 782.5 8.5Q791 17 791 36V300Q791 330 781.5 369Q772 408 752 460L665 687Q659 704 646.5 712Q634 720 615 720H346Q326 720 313.5 712Q301 704 295 687L208 460Q188 408 178.5 369Q169 330 169 300V36Q169 17 177.5 8.5Q186 0 205 0H352Q371 0 379.5 8.5Q388 17 388 36ZM254 -109Q250 -113 241.5 -116Q233 -119 223 -119H76Q52 -119 41 -108Q30 -97 30 -73V191Q30 222 39.5 261.5Q49 301 70 355L156 581Q159 590 163.5 596.5Q168 603 173 608L174 609L245 668L176 677Q152 680 141.5 690Q131 700 131 723V819Q131 832 134.5 840.5Q138 849 145 855L274 964Q280 968 287.5 970Q295 972 305 971L654 928Q678 925 688.5 915Q699 905 699 882V786Q699 773 695.5 764.5Q692 756 685 750L651 722Q659 717 664.5 709Q670 701 674 691L761 464Q782 410 791.5 370.5Q801 331 801 300V36Q801 23 797.5 14Q794 5 787 -1L657 -109Q653 -113 644.5 -116Q636 -119 626 -119H475Q450 -119 438 -107.5Q426 -96 426 -73V57H398V36Q398 23 394.5 14Q391 5 384 -1Z" glyph-name="Agrave" horiz-adv-x="830" unicode="&#192;" /><glyph d="M658 753Q675 751 683.5 760Q692 769 692 786V882Q692 901 683.5 908.5Q675 916 656 918L307 961Q290 963 281.5 954Q273 945 273 928V832Q273 813 281.5 805.5Q290 798 309 796ZM363 867V877L602 847V837ZM299 507V281H670V507Q670 535 661.5 558Q653 581 632 597.5Q611 614 575 623Q539 632 483 632Q427 632 391.5 623Q356 614 335.5 597.5Q315 581 307 558Q299 535 299 507ZM398 497Q398 517 413 530.5Q428 544 481 544Q533 544 548 530.5Q563 517 563 497V368H398ZM424 388Q424 397 420.5 404.5Q417 412 408 417V378H424ZM670 90V271H299V90H289V507Q289 537 297.5 562Q306 587 327.5 605Q349 623 386.5 632.5Q424 642 483 642Q542 642 580 632.5Q618 623 640 605Q662 587 671 562Q680 537 680 507V90ZM398 36V185H563V36Q563 17 571.5 8.5Q580 0 599 0H751Q770 0 778.5 8.5Q787 17 787 36V531Q787 576 774.5 614Q762 652 728 678.5Q694 705 634.5 720Q575 735 482 735Q389 735 330 720Q271 705 237.5 678.5Q204 652 191.5 614Q179 576 179 531V36Q179 17 187.5 8.5Q196 0 215 0H362Q381 0 389.5 8.5Q398 17 398 36ZM264 -109Q260 -113 251.5 -116Q243 -119 233 -119H86Q62 -119 51 -108Q40 -97 40 -73V422Q40 469 52.5 508.5Q65 548 99 576L215 673L179 677Q155 680 144.5 690Q134 700 134 723V819Q134 832 137.5 840.5Q141 849 148 855L277 964Q283 968 290.5 970Q298 972 308 971L657 928Q681 925 691.5 915Q702 905 702 882V786Q702 773 698.5 764.5Q695 756 688 750L658 725Q741 700 769 648.5Q797 597 797 531V36Q797 23 793.5 14Q790 5 783 -1L653 -109Q649 -113 640.5 -116Q632 -119 622 -119H470Q446 -119 435 -108Q424 -97 424 -73V66H408V36Q408 23 404.5 14Q401 5 394 -1Z" glyph-name="Agrave.salt" horiz-adv-x="836" unicode="&#57601;" /><glyph d="M740 713Q757 711 765.5 720Q774 729 774 746V842Q774 861 765.5 868.5Q757 876 738 878L389 921Q372 923 363.5 914Q355 905 355 888V792Q355 773 363.5 765.5Q372 758 391 756ZM445 827V837L684 807V797ZM380 467V261H748V467Q748 495 740 518Q732 541 711.5 557.5Q691 574 655 583Q619 592 564 592Q508 592 472.5 583Q437 574 416.5 557.5Q396 541 388 518Q380 495 380 467ZM483 457Q483 477 496.5 490.5Q510 504 563 504Q615 504 628.5 490.5Q642 477 642 457V348H483ZM503 368Q503 375 501 382Q499 389 493 393V358H503ZM748 90V251H380V90H370V467Q370 497 378.5 522Q387 547 408.5 565Q430 583 467.5 592.5Q505 602 564 602Q622 602 659.5 592.5Q697 583 719 565Q741 547 749.5 522Q758 497 758 467V90ZM483 36V165H642V36Q642 17 650.5 8.5Q659 0 678 0H830Q849 0 857.5 8.5Q866 17 866 36V491Q866 536 853.5 574Q841 612 808 638.5Q775 665 716 680Q657 695 564 695Q471 695 412.5 680Q354 665 321 638.5Q288 612 276 574Q264 536 264 491V36Q264 17 272.5 8.5Q281 0 300 0H447Q466 0 474.5 8.5Q483 17 483 36ZM349 -109Q345 -113 336.5 -116Q328 -119 318 -119H171Q147 -119 136 -108Q125 -97 125 -73V382Q125 429 137.5 468.5Q150 508 184 536L298 633L261 637Q237 640 226.5 650Q216 660 216 683V779Q216 792 219.5 800.5Q223 809 230 815L359 924Q365 928 372.5 930Q380 932 390 931L739 888Q763 885 773.5 875Q784 865 784 842V746Q784 733 780.5 724.5Q777 716 770 710L739 685Q822 660 849 608.5Q876 557 876 491V36Q876 23 872.5 14Q869 5 862 -1L732 -109Q728 -113 719.5 -116Q711 -119 701 -119H549Q525 -119 514 -108Q503 -97 503 -73V46H493V36Q493 23 489.5 14Q486 5 479 -1Z" glyph-name="Agrave.salt_v" horiz-adv-x="1000" unicode="&#57838;" /><glyph d="M741 713Q758 711 766.5 720Q775 729 775 746V842Q775 861 766.5 868.5Q758 876 739 878L390 921Q373 923 364.5 914Q356 905 356 888V792Q356 773 364.5 765.5Q373 758 392 756ZM446 827V837L685 807V797ZM379 283V252H748V283Q748 310 743.5 333Q739 356 732 376L673 519Q662 545 645 562.5Q628 580 600 580H523Q493 580 476 562.5Q459 545 449 520L395 376Q388 356 383.5 333Q379 310 379 283ZM542 470Q546 480 549.5 483.5Q553 487 561 487H566Q574 487 577.5 483.5Q581 480 585 470L632 338H495ZM748 90V242H379V90H369V283Q369 311 373.5 334.5Q378 358 386 380L440 524Q450 552 469.5 571Q489 590 523 590H600Q633 590 651.5 570.5Q670 551 682 523L741 380Q750 358 754 334.5Q758 311 758 283V90ZM485 36V156H642V36Q642 17 652 8.5Q662 0 681 0H832Q851 0 859.5 8.5Q868 17 868 36V280Q868 306 866 323.5Q864 341 859.5 357.5Q855 374 847.5 393Q840 412 829 440L742 647Q735 666 723 673Q711 680 692 680H433Q414 680 401.5 673Q389 666 382 647L305 440Q294 412 286.5 393Q279 374 274.5 357.5Q270 341 268 323.5Q266 306 266 280V36Q266 17 274.5 8.5Q283 0 302 0H449Q468 0 476.5 8.5Q485 17 485 36ZM351 -109Q347 -113 338.5 -116Q330 -119 320 -119H173Q148 -119 137.5 -108Q127 -97 127 -73V171Q127 197 129 215.5Q131 234 135.5 250.5Q140 267 148 286Q156 305 167 334L243 541Q246 550 250.5 557.5Q255 565 261 569L332 629L262 637Q238 640 227.5 650Q217 660 217 683V779Q217 792 220.5 800.5Q224 809 231 815L360 924Q366 928 373.5 930Q381 932 391 931L740 888Q764 885 774.5 875Q785 865 785 842V746Q785 733 781.5 724.5Q778 716 771 710L733 679Q739 674 743.5 667Q748 660 751 651L838 444Q849 415 857 395.5Q865 376 869.5 359.5Q874 343 876 324.5Q878 306 878 280V36Q878 23 874.5 14Q871 5 864 -1L734 -109Q730 -113 721.5 -116Q713 -119 703 -119H552Q528 -119 515.5 -107.5Q503 -96 503 -73V37H495V36Q495 23 491.5 14Q488 5 481 -1Z" glyph-name="Agrave.v" horiz-adv-x="1000" unicode="&#57738;" /><glyph d="M554 767Q591 772 613 791Q635 810 635 854V918Q635 968 606.5 994Q578 1020 527 1020H359Q349 1020 344.5 1015.5Q340 1011 340 1001V928Q340 918 344.5 913.5Q349 909 359 909H488Q496 909 501.5 905.5Q507 902 507 895Q507 886 502.5 882.5Q498 879 488 878L399 864Q389 863 385 858Q381 853 382 843L393 764Q394 754 398.5 750.5Q403 747 413 748ZM438 805 437 815 533 829Q548 831 557 840.5Q566 850 566 871V921Q566 944 553.5 952Q541 960 526 960H390V970H526Q545 970 560.5 960Q576 950 576 921V871Q576 843 563.5 832.5Q551 822 535 820ZM285 303V272H675V303Q675 330 670.5 353Q666 376 659 396L590 559Q579 585 567 602.5Q555 620 527 620H429Q399 620 387 602.5Q375 585 365 560L301 396Q294 376 289.5 353Q285 330 285 303ZM445 510Q449 519 453.5 523Q458 527 464 527H489Q495 527 499.5 523Q504 519 508 510L555 358H398ZM675 90V262H285V90H275V303Q275 331 279.5 354.5Q284 378 292 400L356 564Q367 592 381 611Q395 630 429 630H527Q560 630 573.5 611Q587 592 599 563L668 400Q676 378 680.5 354.5Q685 331 685 303V90ZM388 36V176H565V36Q565 17 574.5 8.5Q584 0 604 0H755Q774 0 782.5 8.5Q791 17 791 36V300Q791 330 781.5 369Q772 408 752 460L665 687Q659 704 646.5 712Q634 720 615 720H346Q326 720 313.5 712Q301 704 295 687L208 460Q188 408 178.5 369Q169 330 169 300V36Q169 17 177.5 8.5Q186 0 205 0H352Q371 0 379.5 8.5Q388 17 388 36ZM254 -109Q250 -113 241.5 -116Q233 -119 223 -119H76Q52 -119 41 -108Q30 -97 30 -73V191Q30 222 39.5 261.5Q49 301 70 355L156 581Q159 590 163.5 596.5Q168 603 173 608L174 609L251 674L243 732Q241 741 243.5 747.5Q246 754 250 758L288 790H230Q215 790 208 797Q201 804 201 819V892Q201 900 203.5 905.5Q206 911 210 915L339 1024Q343 1027 347.5 1028.5Q352 1030 359 1030H527Q583 1030 614 1001Q645 972 645 918V854Q645 827 637 809.5Q629 792 616 780L556 730H615Q638 730 652.5 720.5Q667 711 674 691L761 464Q782 410 791.5 370.5Q801 331 801 300V36Q801 23 797.5 14Q794 5 787 -1L657 -109Q653 -113 644.5 -116Q636 -119 626 -119H475Q450 -119 438 -107.5Q426 -96 426 -73V57H398V36Q398 23 394.5 14Q391 5 384 -1Z" glyph-name="Ahookabove" horiz-adv-x="830" unicode="&#7842;" /><glyph d="M653 760Q672 760 680.5 768.5Q689 777 689 796V889Q689 908 680.5 916.5Q672 925 653 925H306Q287 925 278.5 916.5Q270 908 270 889V796Q270 777 278.5 768.5Q287 760 306 760ZM360 847H599V837H360ZM285 303V272H675V303Q675 330 670.5 353Q666 376 659 396L590 559Q579 585 567 602.5Q555 620 527 620H429Q399 620 387 602.5Q375 585 365 560L301 396Q294 376 289.5 353Q285 330 285 303ZM445 510Q449 519 453.5 523Q458 527 464 527H489Q495 527 499.5 523Q504 519 508 510L555 358H398ZM675 90V262H285V90H275V303Q275 331 279.5 354.5Q284 378 292 400L356 564Q367 592 381 611Q395 630 429 630H527Q560 630 573.5 611Q587 592 599 563L668 400Q676 378 680.5 354.5Q685 331 685 303V90ZM388 36V176H565V36Q565 17 574.5 8.5Q584 0 604 0H755Q774 0 782.5 8.5Q791 17 791 36V300Q791 330 781.5 369Q772 408 752 460L665 687Q659 704 646.5 712Q634 720 615 720H346Q326 720 313.5 712Q301 704 295 687L208 460Q188 408 178.5 369Q169 330 169 300V36Q169 17 177.5 8.5Q186 0 205 0H352Q371 0 379.5 8.5Q388 17 388 36ZM254 -109Q250 -113 241.5 -116Q233 -119 223 -119H76Q52 -119 41 -108Q30 -97 30 -73V191Q30 222 39.5 261.5Q49 301 70 355L156 581Q159 590 163.5 596.5Q168 603 173 608L174 609L212 641H177Q153 641 142 652Q131 663 131 687V780Q131 793 134.5 802Q138 811 145 817L274 926Q279 930 287.5 932.5Q296 935 306 935H653Q677 935 688 924Q699 913 699 889V796Q699 783 695.5 774Q692 765 685 759L645 725Q655 721 662.5 712.5Q670 704 674 691L761 464Q782 410 791.5 370.5Q801 331 801 300V36Q801 23 797.5 14Q794 5 787 -1L657 -109Q653 -113 644.5 -116Q636 -119 626 -119H475Q450 -119 438 -107.5Q426 -96 426 -73V57H398V36Q398 23 394.5 14Q391 5 384 -1Z" glyph-name="Amacron" horiz-adv-x="830" unicode="&#256;" /><glyph d="M656 760Q675 760 683.5 768.5Q692 777 692 796V889Q692 908 683.5 916.5Q675 925 656 925H309Q290 925 281.5 916.5Q273 908 273 889V796Q273 777 281.5 768.5Q290 760 309 760ZM363 847H602V837H363ZM299 507V281H670V507Q670 535 661.5 558Q653 581 632 597.5Q611 614 575 623Q539 632 483 632Q427 632 391.5 623Q356 614 335.5 597.5Q315 581 307 558Q299 535 299 507ZM398 497Q398 517 413 530.5Q428 544 481 544Q533 544 548 530.5Q563 517 563 497V368H398ZM424 388Q424 397 420.5 404.5Q417 412 408 417V378H424ZM670 90V271H299V90H289V507Q289 537 297.5 562Q306 587 327.5 605Q349 623 386.5 632.5Q424 642 483 642Q542 642 580 632.5Q618 623 640 605Q662 587 671 562Q680 537 680 507V90ZM398 36V185H563V36Q563 17 571.5 8.5Q580 0 599 0H751Q770 0 778.5 8.5Q787 17 787 36V531Q787 576 774.5 614Q762 652 728 678.5Q694 705 634.5 720Q575 735 482 735Q389 735 330 720Q271 705 237.5 678.5Q204 652 191.5 614Q179 576 179 531V36Q179 17 187.5 8.5Q196 0 215 0H362Q381 0 389.5 8.5Q398 17 398 36ZM264 -109Q260 -113 251.5 -116Q243 -119 233 -119H86Q62 -119 51 -108Q40 -97 40 -73V422Q40 469 52.5 508.5Q65 548 99 576L177 641Q155 642 144.5 653Q134 664 134 687V780Q134 793 137.5 802Q141 811 148 817L277 926Q282 930 290.5 932.5Q299 935 309 935H656Q680 935 691 924Q702 913 702 889V796Q702 783 698.5 774Q695 765 688 759L649 727Q738 703 767.5 651.5Q797 600 797 531V36Q797 23 793.5 14Q790 5 783 -1L653 -109Q649 -113 640.5 -116Q632 -119 622 -119H470Q446 -119 435 -108Q424 -97 424 -73V66H408V36Q408 23 404.5 14Q401 5 394 -1Z" glyph-name="Amacron.salt" horiz-adv-x="836" unicode="&#57607;" /><glyph d="M738 720Q757 720 765.5 728.5Q774 737 774 756V849Q774 868 765.5 876.5Q757 885 738 885H391Q372 885 363.5 876.5Q355 868 355 849V756Q355 737 363.5 728.5Q372 720 391 720ZM445 807H684V797H445ZM380 467V261H748V467Q748 495 740 518Q732 541 711.5 557.5Q691 574 655 583Q619 592 564 592Q508 592 472.5 583Q437 574 416.5 557.5Q396 541 388 518Q380 495 380 467ZM483 457Q483 477 496.5 490.5Q510 504 563 504Q615 504 628.5 490.5Q642 477 642 457V348H483ZM503 368Q503 375 501 382Q499 389 493 393V358H503ZM748 90V251H380V90H370V467Q370 497 378.5 522Q387 547 408.5 565Q430 583 467.5 592.5Q505 602 564 602Q622 602 659.5 592.5Q697 583 719 565Q741 547 749.5 522Q758 497 758 467V90ZM483 36V165H642V36Q642 17 650.5 8.5Q659 0 678 0H830Q849 0 857.5 8.5Q866 17 866 36V491Q866 536 853.5 574Q841 612 808 638.5Q775 665 716 680Q657 695 564 695Q471 695 412.5 680Q354 665 321 638.5Q288 612 276 574Q264 536 264 491V36Q264 17 272.5 8.5Q281 0 300 0H447Q466 0 474.5 8.5Q483 17 483 36ZM349 -109Q345 -113 336.5 -116Q328 -119 318 -119H171Q147 -119 136 -108Q125 -97 125 -73V382Q125 429 137.5 468.5Q150 508 184 536L261 601Q238 601 227 612Q216 623 216 647V740Q216 753 219.5 762Q223 771 230 777L359 886Q364 890 372.5 892.5Q381 895 391 895H738Q762 895 773 884Q784 873 784 849V756Q784 743 780.5 734Q777 725 770 719L731 687Q819 663 847.5 611.5Q876 560 876 491V36Q876 23 872.5 14Q869 5 862 -1L732 -109Q728 -113 719.5 -116Q711 -119 701 -119H549Q525 -119 514 -108Q503 -97 503 -73V46H493V36Q493 23 489.5 14Q486 5 479 -1Z" glyph-name="Amacron.salt_v" horiz-adv-x="1000" unicode="&#57844;" /><glyph d="M739 720Q758 720 766.5 728.5Q775 737 775 756V849Q775 868 766.5 876.5Q758 885 739 885H392Q373 885 364.5 876.5Q356 868 356 849V756Q356 737 364.5 728.5Q373 720 392 720ZM446 807H685V797H446ZM379 283V252H748V283Q748 310 743.5 333Q739 356 732 376L673 519Q662 545 645 562.5Q628 580 600 580H523Q493 580 476 562.5Q459 545 449 520L395 376Q388 356 383.5 333Q379 310 379 283ZM542 470Q546 480 549.5 483.5Q553 487 561 487H566Q574 487 577.5 483.5Q581 480 585 470L632 338H495ZM748 90V242H379V90H369V283Q369 311 373.5 334.5Q378 358 386 380L440 524Q450 552 469.5 571Q489 590 523 590H600Q633 590 651.5 570.5Q670 551 682 523L741 380Q750 358 754 334.5Q758 311 758 283V90ZM485 36V156H642V36Q642 17 652 8.5Q662 0 681 0H832Q851 0 859.5 8.5Q868 17 868 36V280Q868 306 866 323.5Q864 341 859.5 357.5Q855 374 847.5 393Q840 412 829 440L742 647Q735 666 723 673Q711 680 692 680H433Q414 680 401.5 673Q389 666 382 647L305 440Q294 412 286.5 393Q279 374 274.5 357.5Q270 341 268 323.5Q266 306 266 280V36Q266 17 274.5 8.5Q283 0 302 0H449Q468 0 476.5 8.5Q485 17 485 36ZM351 -109Q347 -113 338.5 -116Q330 -119 320 -119H173Q148 -119 137.5 -108Q127 -97 127 -73V171Q127 197 129 215.5Q131 234 135.5 250.5Q140 267 148 286Q156 305 167 334L243 541Q246 550 250.5 557.5Q255 565 261 569L299 601H263Q239 601 228 612Q217 623 217 647V740Q217 753 220.5 762Q224 771 231 777L360 886Q365 890 373.5 892.5Q382 895 392 895H739Q763 895 774 884Q785 873 785 849V756Q785 743 781.5 734Q778 725 771 719L727 683Q735 679 741 670.5Q747 662 751 651L838 444Q849 415 857 395.5Q865 376 869.5 359.5Q874 343 876 324.5Q878 306 878 280V36Q878 23 874.5 14Q871 5 864 -1L734 -109Q730 -113 721.5 -116Q713 -119 703 -119H552Q528 -119 515.5 -107.5Q503 -96 503 -73V37H495V36Q495 23 491.5 14Q488 5 481 -1Z" glyph-name="Amacron.v" horiz-adv-x="1000" unicode="&#57744;" /><glyph d="M629 -305H518Q456 -305 425.5 -265Q395 -225 407 -158L426 -54V57H398V36Q398 23 394.5 14Q391 5 384 -1L254 -109Q250 -113 241.5 -116Q233 -119 223 -119H76Q52 -119 41 -108Q30 -97 30 -73V191Q30 222 39.5 261.5Q49 301 70 355L156 581Q159 590 163.5 596.5Q168 603 173 608L174 609L302 716Q310 723 321 726.5Q332 730 346 730H615Q638 730 652.5 720.5Q667 711 674 691L761 464Q782 410 791.5 370.5Q801 331 801 300V36Q801 12 790 1Q779 -10 755 -10H730L726 -36H755Q782 -36 791.5 -45.5Q801 -55 801 -80V-152Q801 -168 797 -177Q793 -186 786 -192L659 -297Q655 -301 647 -303Q639 -305 629 -305ZM647 -186H758Q777 -186 784 -178.5Q791 -171 791 -152V-80Q791 -61 783.5 -53.5Q776 -46 755 -46H714L721 0H755Q774 0 782.5 8.5Q791 17 791 36V300Q791 330 781.5 369Q772 408 752 460L665 687Q659 704 646.5 712Q634 720 615 720H346Q326 720 313.5 712Q301 704 295 687L208 460Q188 408 178.5 369Q169 330 169 300V36Q169 17 177.5 8.5Q186 0 205 0H352Q371 0 379.5 8.5Q388 17 388 36V176H565V57L546 -51Q536 -120 559.5 -153Q583 -186 647 -186ZM677 -106H701V-116H677Q640 -116 630 -97Q620 -78 626 -41L638 42Q642 66 648 76Q654 86 675 98V262H285V90H275V303Q275 331 279.5 354.5Q284 378 292 400L356 564Q367 592 381 611Q395 630 429 630H527Q560 630 573.5 611Q587 592 599 563L668 400Q676 378 680.5 354.5Q685 331 685 303V90H681Q662 80 656.5 72Q651 64 648 42L636 -43Q632 -73 639 -89.5Q646 -106 677 -106ZM285 303V272H675V303Q675 330 670.5 353Q666 376 659 396L590 559Q579 585 567 602.5Q555 620 527 620H429Q399 620 387 602.5Q375 585 365 560L301 396Q294 376 289.5 353Q285 330 285 303ZM445 510Q449 519 453.5 523Q458 527 464 527H489Q495 527 499.5 523Q504 519 508 510L555 358H398Z" glyph-name="Aogonek" horiz-adv-x="830" unicode="&#260;" /><glyph d="M625 -305H514Q445 -305 418.5 -270Q392 -235 403 -158L424 -41V66H408V36Q408 23 404.5 14Q401 5 394 -1L264 -109Q260 -113 251.5 -116Q243 -119 233 -119H86Q62 -119 51 -108Q40 -97 40 -73V422Q40 469 52.5 508.5Q65 548 99 576L229 684Q263 712 323.5 728.5Q384 745 482 745Q579 745 641 729Q703 713 737.5 685Q772 657 784.5 617.5Q797 578 797 531V36Q797 23 793.5 14Q790 5 783 -1L741 -36H751Q778 -36 787.5 -45.5Q797 -55 797 -80V-152Q797 -165 794 -174Q791 -183 785 -188L655 -297Q651 -301 643 -303Q635 -305 625 -305ZM787 -152V-80Q787 -61 779.5 -53.5Q772 -46 751 -46H710L717 0H751Q759 0 766 1.5Q773 3 777 7Q782 11 784.5 18.5Q787 26 787 36V531Q787 576 774.5 614Q762 652 728 678.5Q694 705 634.5 720Q575 735 482 735Q387 735 327.5 719.5Q268 704 235 676Q203 649 191 612Q179 575 179 531V36Q179 17 187.5 8.5Q196 0 215 0H362Q370 0 377 1.5Q384 3 388 7Q393 11 395.5 18.5Q398 26 398 36V185H563V67L542 -51Q532 -120 555.5 -153Q579 -186 643 -186H754Q763 -186 769 -184.5Q775 -183 779 -180Q783 -176 785 -169Q787 -162 787 -152ZM673 -116Q636 -116 626 -97Q616 -78 622 -41L634 42Q637 59 640.5 68.5Q644 78 652 85Q656 88 660.5 91Q665 94 670 97V271H299V90H289V507Q289 537 297 561.5Q305 586 326 604Q348 622 386 632Q424 642 483 642Q542 642 580 632.5Q618 623 640 605Q662 587 671 562Q680 537 680 507V90H677Q671 87 666.5 84Q662 81 659 78Q652 72 649 64.5Q646 57 644 42L632 -43Q628 -73 635 -89.5Q642 -106 673 -106H697V-116ZM483 632Q426 632 389.5 622.5Q353 613 333 596Q314 580 306.5 557.5Q299 535 299 507V281H670V507Q670 535 661.5 558Q653 581 632 597.5Q611 614 575 623Q539 632 483 632ZM398 368V497Q398 506 400.5 514Q403 522 410 529Q419 536 436 540Q453 544 481 544Q533 544 548 530.5Q563 517 563 497V368ZM424 388Q424 397 420.5 404.5Q417 412 408 417V378H424Z" glyph-name="Aogonek.salt" horiz-adv-x="836" unicode="&#57609;" /><glyph d="M706 -305H595Q526 -305 499.5 -270Q473 -235 484 -158L503 -52V46H493V36Q493 23 489.5 14Q486 5 479 -1L349 -109Q345 -113 336.5 -116Q328 -119 318 -119H171Q147 -119 136 -108Q125 -97 125 -73V382Q125 429 137.5 468.5Q150 508 184 536L313 645Q347 673 407 689Q467 705 564 705Q661 705 722.5 689Q784 673 818 645Q852 617 864 577.5Q876 538 876 491V36Q876 23 872.5 14Q869 5 862 -1L820 -36H832Q859 -36 868.5 -45.5Q878 -55 878 -80V-152Q878 -165 875 -174Q872 -183 866 -188L736 -297Q732 -301 724 -303Q716 -305 706 -305ZM868 -152V-80Q868 -61 860.5 -53.5Q853 -46 832 -46H791L798 0H830Q838 0 845 1.5Q852 3 856 7Q861 11 863.5 18.5Q866 26 866 36V491Q866 536 853.5 574Q841 612 808 638.5Q775 665 716 680Q657 695 564 695Q470 695 411 680Q352 665 319 637Q288 610 276 573Q264 536 264 491V36Q264 17 272.5 8.5Q281 0 300 0H447Q455 0 462 1.5Q469 3 473 7Q478 11 480.5 18.5Q483 26 483 36V165H642V56L623 -51Q613 -120 636.5 -153Q660 -186 724 -186H835Q844 -186 850 -184.5Q856 -183 860 -180Q864 -176 866 -169Q868 -162 868 -152ZM754 -116Q717 -116 707 -97Q697 -78 703 -41L715 42Q718 59 721.5 69Q725 79 735 87Q737 89 740.5 91.5Q744 94 748 96V251H380V90H370V467Q370 497 378 521.5Q386 546 407 564Q429 582 467 592Q505 602 564 602Q622 602 659.5 592.5Q697 583 719 565Q741 547 749.5 522Q758 497 758 467V90Q752 87 747.5 84Q743 81 740 78Q733 72 730 64.5Q727 57 725 42L713 -43Q709 -73 716 -89.5Q723 -106 754 -106H778V-116ZM380 467V261H748V467Q748 495 740 518Q732 541 711.5 557.5Q691 574 655 583Q619 592 564 592Q507 592 470.5 582.5Q434 573 414 556Q395 540 387.5 517.5Q380 495 380 467ZM483 457Q483 467 485.5 475Q488 483 495 489Q503 496 519 500Q535 504 563 504Q615 504 628.5 490.5Q642 477 642 457V348H483ZM502 358Q501 362 499 366.5Q497 371 493 374V358Z" glyph-name="Aogonek.salt_v" horiz-adv-x="1000" unicode="&#57846;" /><glyph d="M704 -265H593Q524 -265 497.5 -230Q471 -195 482 -118L503 -1V77H495V76Q495 63 491.5 54Q488 45 481 39L351 -69Q347 -73 338.5 -76Q330 -79 320 -79H173Q148 -79 137.5 -68Q127 -57 127 -33V211Q127 237 129 255.5Q131 274 135.5 290.5Q140 307 148 326Q156 345 167 374L243 581Q246 590 250.5 597.5Q255 605 261 609L391 718Q398 724 409 727Q420 730 433 730H692Q715 730 729.5 721.5Q744 713 751 691L838 484Q849 455 857 435.5Q865 416 869.5 399.5Q874 383 876 364.5Q878 346 878 320V76Q878 63 874.5 54Q871 45 864 39L822 4H830Q857 4 866.5 -5.5Q876 -15 876 -40V-112Q876 -125 873 -134Q870 -143 864 -148L734 -257Q730 -261 722 -263Q714 -265 704 -265ZM866 -112V-40Q866 -21 858.5 -13.5Q851 -6 830 -6H789L796 40H832Q840 40 847 41.5Q854 43 858 47Q863 51 865.5 58.5Q868 66 868 76V320Q868 346 866 363.5Q864 381 859.5 397.5Q855 414 847.5 433Q840 452 829 480L742 687Q735 706 723 713Q711 720 692 720H433Q422 720 413 717.5Q404 715 397 710Q392 706 388.5 700Q385 694 382 687L305 480Q294 452 286.5 433Q279 414 274.5 397.5Q270 381 268 363.5Q266 346 266 320V76Q266 57 274.5 48.5Q283 40 302 40H449Q457 40 464 41.5Q471 43 475 47Q480 51 482.5 58.5Q485 66 485 76V196H642V107L621 -11Q611 -80 634.5 -113Q658 -146 722 -146H833Q842 -146 848 -144.5Q854 -143 858 -140Q862 -136 864 -129Q866 -122 866 -112ZM752 -76Q715 -76 705 -57Q695 -38 701 -1L713 82Q716 100 719.5 109.5Q723 119 732 126Q735 129 739 131.5Q743 134 748 137V282H379V130H369V323Q369 351 373.5 374.5Q378 398 386 420L440 564Q445 578 453 591Q461 604 471 613Q481 620 494 625Q507 630 523 630H600Q633 630 651.5 610.5Q670 591 682 563L741 420Q750 398 754 374.5Q758 351 758 323V130H756Q750 127 745.5 124Q741 121 738 118Q731 112 728 104.5Q725 97 723 82L711 -3Q707 -33 714 -49.5Q721 -66 752 -66H776V-76ZM379 323V292H748V323Q748 350 743.5 373Q739 396 732 416L673 559Q662 585 645 602.5Q628 620 600 620H523Q509 620 497.5 615.5Q486 611 478 604Q468 597 461 585Q454 573 449 560L395 416Q388 396 383.5 373Q379 350 379 323ZM542 510Q544 515 546 519Q548 523 550 524Q552 525 554.5 526Q557 527 561 527H566Q574 527 577.5 523.5Q581 520 585 510L632 378H495Z" glyph-name="Aogonek.v" horiz-adv-x="1000" unicode="&#57746;" /><glyph d="M340 760V805Q340 827 345.5 846Q351 865 366 878Q381 891 409 898.5Q437 906 481 906Q570 906 597 877.5Q624 849 624 805V760Q624 715 597 687.5Q570 660 481 660Q437 660 409 667Q381 674 366 687.5Q351 701 345.5 719.5Q340 738 340 760ZM481 896Q401 896 375.5 871.5Q350 847 350 805V760Q350 718 375.5 694Q401 670 481 670Q561 670 587.5 694Q614 718 614 760V805Q614 846 587.5 871Q561 896 481 896ZM540 764Q540 742 529 731.5Q518 721 481 721Q444 721 434 731.5Q424 742 424 764V799Q424 818 434 828.5Q444 839 481 839Q518 839 529 828.5Q540 818 540 799ZM285 303V272H675V303Q675 330 670.5 353Q666 376 659 396L590 559Q579 585 567 602.5Q555 620 527 620H429Q399 620 387 602.5Q375 585 365 560L301 396Q294 376 289.5 353Q285 330 285 303ZM445 510Q448 519 453 523Q458 527 464 527H489Q495 527 500 523Q505 519 508 510L555 358H398ZM675 90V262H285V90H275V303Q275 331 279.5 354.5Q284 378 292 400L356 564Q367 592 381 611Q395 630 429 630H527Q560 630 573.5 611Q587 592 599 563L668 400Q676 378 680.5 354.5Q685 331 685 303V90ZM388 36V176H565V36Q565 17 574.5 8.5Q584 0 604 0H755Q774 0 782.5 8.5Q791 17 791 36V300Q791 330 781.5 369Q772 408 752 460L668 680Q684 698 690.5 721Q697 744 697 771V829Q697 861 687.5 887.5Q678 914 653.5 932.5Q629 951 587 961.5Q545 972 480 972Q415 972 373 961.5Q331 951 306.5 932.5Q282 914 272.5 887.5Q263 861 263 829V771Q263 744 269.5 721Q276 698 292 680L208 460Q188 408 178.5 369Q169 330 169 300V36Q169 17 177.5 8.5Q186 0 205 0H352Q371 0 379.5 8.5Q388 17 388 36ZM384 -1 254 -109Q250 -113 241.5 -116Q233 -119 223 -119H76Q52 -119 41 -108Q30 -97 30 -73V191Q30 222 39.5 261.5Q49 301 70 355L152 569Q137 588 130.5 611.5Q124 635 124 662V720Q124 753 133 781Q142 809 167 829L297 938Q322 958 366.5 970Q411 982 480 982Q549 982 593.5 970.5Q638 959 663 939Q688 919 697.5 890.5Q707 862 707 829V771Q707 744 700.5 720.5Q694 697 679 678L761 464Q782 410 791.5 370.5Q801 331 801 300V36Q801 23 797.5 14Q794 5 787 -1L657 -109Q653 -113 644.5 -116Q636 -119 626 -119H475Q450 -119 438 -107.5Q426 -96 426 -73V57H398V36Q398 23 394.5 14Q391 5 384 -1Z" glyph-name="Aring" horiz-adv-x="830" unicode="&#197;" /><glyph d="M340 760V805Q340 827 345.5 846Q351 865 366 878Q381 891 409 898.5Q437 906 481 906Q570 906 597 877.5Q624 849 624 805V760Q624 715 597 687.5Q570 660 481 660Q437 660 409 667Q381 674 366 687.5Q351 701 345.5 719.5Q340 738 340 760ZM481 896Q401 896 375.5 871.5Q350 847 350 805V760Q350 718 375.5 694Q401 670 481 670Q561 670 587.5 694Q614 718 614 760V805Q614 846 587.5 871Q561 896 481 896ZM540 764Q540 742 529 731.5Q518 721 481 721Q444 721 434 731.5Q424 742 424 764V799Q424 818 434 828.5Q444 839 481 839Q518 839 529 828.5Q540 818 540 799ZM299 507V281H670V507Q670 535 661.5 558Q653 581 632 597.5Q611 614 575 623Q539 632 483 632Q427 632 391.5 623Q356 614 335.5 597.5Q315 581 307 558Q299 535 299 507ZM398 497Q398 517 413 530.5Q428 544 481 544Q533 544 548 530.5Q563 517 563 497V368H398ZM424 388Q424 397 420.5 404.5Q417 412 408 417V378H424ZM670 90V271H299V90H289V507Q289 537 297.5 562Q306 587 327.5 605Q349 623 386.5 632.5Q424 642 483 642Q542 642 580 632.5Q618 623 640 605Q662 587 671 562Q680 537 680 507V90ZM398 36V185H563V36Q563 17 571.5 8.5Q580 0 599 0H751Q770 0 778.5 8.5Q787 17 787 36V531Q787 588 765.5 633.5Q744 679 684 704Q691 719 694 735.5Q697 752 697 771V829Q697 861 687.5 887.5Q678 914 653.5 932.5Q629 951 587 961.5Q545 972 480 972Q415 972 373 961.5Q331 951 306.5 932.5Q282 914 272.5 887.5Q263 861 263 829V771Q263 752 266.5 734.5Q270 717 277 702Q220 676 199.5 632Q179 588 179 531V36Q179 17 187.5 8.5Q196 0 215 0H362Q381 0 389.5 8.5Q398 17 398 36ZM394 -1 264 -109Q260 -113 251.5 -116Q243 -119 233 -119H86Q62 -119 51 -108Q40 -97 40 -73V422Q40 469 52.5 508Q65 547 99 575L132 603Q128 616 126 631Q124 646 124 662V720Q124 753 133 781Q142 809 167 829L297 938Q322 958 366.5 970Q411 982 480 982Q549 982 593.5 970.5Q638 959 663 939Q688 919 697.5 890.5Q707 862 707 829V771Q707 754 704.5 738.5Q702 723 697 709Q755 682 776 635.5Q797 589 797 531V36Q797 23 793.5 14Q790 5 783 -1L653 -109Q649 -113 640.5 -116Q632 -119 622 -119H470Q446 -119 435 -108Q424 -97 424 -73V66H408V36Q408 23 404.5 14Q401 5 394 -1Z" glyph-name="Aring.salt" horiz-adv-x="836" unicode="&#57606;" /><glyph d="M421 730V770Q421 792 426.5 811Q432 830 447 843Q462 856 490 863.5Q518 871 562 871Q651 871 678 842.5Q705 814 705 770V730Q705 685 678 657.5Q651 630 562 630Q518 630 490 637Q462 644 447 657.5Q432 671 426.5 689.5Q421 708 421 730ZM562 861Q482 861 456.5 836.5Q431 812 431 770V730Q431 688 456.5 664Q482 640 562 640Q642 640 668.5 664Q695 688 695 730V770Q695 811 668.5 836Q642 861 562 861ZM622 725Q622 703 611 692.5Q600 682 563 682Q526 682 516 692.5Q506 703 506 725V760Q506 779 516 789.5Q526 800 563 800Q600 800 611 789.5Q622 779 622 760ZM380 467V261H748V467Q748 495 740 518Q732 541 711.5 557.5Q691 574 655 583Q619 592 564 592Q508 592 472.5 583Q437 574 416.5 557.5Q396 541 388 518Q380 495 380 467ZM484 458Q484 478 497 491.5Q510 505 563 505Q615 505 628 491.5Q641 478 641 458V349H484ZM748 90V251H380V90H370V467Q370 497 378.5 522Q387 547 408.5 565Q430 583 467.5 592.5Q505 602 564 602Q622 602 659.5 592.5Q697 583 719 565Q741 547 749.5 522Q758 497 758 467V90ZM484 36V166H641V36Q641 17 649.5 8.5Q658 0 677 0H829Q848 0 856.5 8.5Q865 17 865 36V492Q865 549 845 594.5Q825 640 766 665Q773 680 776 696.5Q779 713 779 732V790Q779 822 769.5 848.5Q760 875 735.5 893.5Q711 912 669 922.5Q627 933 562 933Q497 933 455 922.5Q413 912 388.5 893.5Q364 875 354.5 848.5Q345 822 345 790V732Q345 713 348.5 695.5Q352 678 359 663Q303 637 284 593Q265 549 265 492V36Q265 17 273.5 8.5Q282 0 301 0H448Q467 0 475.5 8.5Q484 17 484 36ZM480 -1 350 -109Q346 -113 337.5 -116Q329 -119 319 -119H172Q148 -119 137 -108Q126 -97 126 -73V383Q126 431 138 470.5Q150 510 184 538L215 563Q211 576 208.5 591.5Q206 607 206 623V681Q206 714 215 742Q224 770 249 790L379 899Q404 919 448.5 931Q493 943 562 943Q631 943 675.5 931.5Q720 920 745 900Q770 880 779.5 851.5Q789 823 789 790V732Q789 715 786.5 699.5Q784 684 779 670Q836 643 855.5 596.5Q875 550 875 492V36Q875 23 871.5 14Q868 5 861 -1L731 -109Q727 -113 718.5 -116Q710 -119 700 -119H548Q524 -119 513 -108Q502 -97 502 -73V47H494V36Q494 23 490.5 14Q487 5 480 -1Z" glyph-name="Aring.salt_v" horiz-adv-x="1000" unicode="&#57843;" /><glyph d="M423 731V770Q423 792 428.5 811Q434 830 449 843Q464 856 492 863.5Q520 871 564 871Q653 871 680 842.5Q707 814 707 770V731Q707 686 680 658.5Q653 631 564 631Q520 631 492 638Q464 645 449 658.5Q434 672 428.5 690.5Q423 709 423 731ZM564 861Q484 861 458.5 836.5Q433 812 433 770V731Q433 689 458.5 665Q484 641 564 641Q644 641 670.5 665Q697 689 697 731V770Q697 811 670.5 836Q644 861 564 861ZM625 724Q625 702 614 691.5Q603 681 566 681Q529 681 519 691.5Q509 702 509 724V759Q509 778 519 788.5Q529 799 566 799Q603 799 614 788.5Q625 778 625 759ZM379 303V272H748V303Q748 330 743.5 353Q739 376 732 396L663 539Q652 565 640 582.5Q628 600 600 600H523Q493 600 481 582.5Q469 565 459 540L395 396Q388 376 383.5 353Q379 330 379 303ZM534 474Q538 484 541.5 487.5Q545 491 553 491H570Q578 491 581.5 487.5Q585 484 589 474L631 338H491ZM748 90V262H379V90H369V303Q369 331 373.5 354.5Q378 378 386 400L450 544Q462 571 475.5 590.5Q489 610 523 610H600Q633 610 646 590.5Q659 571 672 543L741 400Q751 379 754.5 355Q758 331 758 303V90ZM482 36V156H640V36Q640 17 648.5 8.5Q657 0 676 0H830Q849 0 857.5 8.5Q866 17 866 36V270Q866 314 858.5 348.5Q851 383 837 420L777 593Q771 609 763 617.5Q755 626 742 630Q764 649 773 674.5Q782 700 782 731V789Q782 821 772.5 847.5Q763 874 738.5 892.5Q714 911 672 921.5Q630 932 565 932Q500 932 458 921.5Q416 911 391.5 892.5Q367 874 357.5 847.5Q348 821 348 789V731Q348 700 357 674.5Q366 649 388 630Q376 626 368 617Q360 608 353 593L293 420Q279 383 271.5 348.5Q264 314 264 270V36Q264 17 272.5 8.5Q281 0 300 0H446Q465 0 473.5 8.5Q482 17 482 36ZM348 -109Q344 -113 335.5 -116Q327 -119 317 -119H171Q147 -119 136 -108Q125 -97 125 -73V161Q125 206 132.5 241Q140 276 155 314L215 488Q219 498 224.5 506.5Q230 515 237 521L241 524Q223 543 216 568.5Q209 594 209 622V680Q209 713 218 741Q227 769 252 789L382 898Q407 918 451.5 930Q496 942 565 942Q634 942 678.5 930.5Q723 919 748 899Q773 879 782.5 850.5Q792 822 792 789V731Q792 702 784.5 677Q777 652 760 633Q768 628 775 618.5Q782 609 786 596L846 424Q861 385 868.5 350Q876 315 876 270V36Q876 23 872.5 14Q869 5 862 -1L733 -110Q727 -114 719 -116.5Q711 -119 701 -119H547Q523 -119 512 -108Q501 -97 501 -73V37H492V36Q492 23 488.5 14Q485 5 478 -1Z" glyph-name="Aring.v" horiz-adv-x="1000" unicode="&#57743;" /><glyph d="M479 764 495 762Q525 758 544.5 755.5Q564 753 580 753Q596 753 612 756.5Q628 760 652 767Q669 774 678.5 781.5Q688 789 688 808V909Q688 928 679 934Q670 940 652 935Q630 928 616 924Q602 920 587.5 919Q573 918 553.5 920Q534 922 501 927L479 930L462 932Q432 936 412.5 938.5Q393 941 377.5 941Q362 941 346 937.5Q330 934 306 927Q289 920 279.5 912.5Q270 905 270 886V785Q270 766 279 760Q288 754 306 759Q326 765 340.5 768.5Q355 772 370 773.5Q385 775 404 773.5Q423 772 451 768ZM598 841V831Q578 829 555 831Q532 833 494 839L478 841L450 845Q417 850 396.5 851Q376 852 360 849V860Q377 862 397.5 860.5Q418 859 452 855L480 851L496 849Q534 843 556 841Q578 839 598 841ZM285 303V272H675V303Q675 330 670.5 353Q666 376 659 396L590 559Q579 585 567 602.5Q555 620 527 620H429Q399 620 387 602.5Q375 585 365 560L301 396Q294 376 289.5 353Q285 330 285 303ZM445 510Q449 519 453.5 523Q458 527 464 527H489Q495 527 499.5 523Q504 519 508 510L555 358H398ZM675 90V262H285V90H275V303Q275 331 279.5 354.5Q284 378 292 400L356 564Q367 592 381 611Q395 630 429 630H527Q560 630 573.5 611Q587 592 599 563L668 400Q676 378 680.5 354.5Q685 331 685 303V90ZM388 36V176H565V36Q565 17 574.5 8.5Q584 0 604 0H755Q774 0 782.5 8.5Q791 17 791 36V300Q791 330 781.5 369Q772 408 752 460L665 687Q659 704 646.5 712Q634 720 615 720H346Q326 720 313.5 712Q301 704 295 687L208 460Q188 408 178.5 369Q169 330 169 300V36Q169 17 177.5 8.5Q186 0 205 0H352Q371 0 379.5 8.5Q388 17 388 36ZM254 -109Q250 -113 241.5 -116Q233 -119 223 -119H76Q52 -119 41 -108Q30 -97 30 -73V191Q30 222 39.5 261.5Q49 301 70 355L156 581Q159 590 163.5 596.5Q168 603 173 608L174 609L226 653Q216 651 205 647.5Q194 644 180 640Q155 633 143 642Q131 651 131 676V777Q131 790 134.5 798.5Q138 807 146 814L275 922Q279 926 286.5 929.5Q294 933 302 936H303V937Q327 944 343.5 947.5Q360 951 376.5 951Q393 951 412.5 948.5Q432 946 463 942L480 940L502 937Q534 932 553 930Q572 928 586 929Q600 930 614 934Q628 938 649 945Q674 952 686 943Q698 934 698 909V808Q698 795 694 786.5Q690 778 683 772L632 729Q648 726 658.5 716.5Q669 707 674 691L761 464Q782 410 791.5 370.5Q801 331 801 300V36Q801 23 797.5 14Q794 5 787 -1L657 -109Q653 -113 644.5 -116Q636 -119 626 -119H475Q450 -119 438 -107.5Q426 -96 426 -73V57H398V36Q398 23 394.5 14Q391 5 384 -1Z" glyph-name="Atilde" horiz-adv-x="830" unicode="&#195;" /><glyph d="M482 764 498 762Q528 758 547.5 755.5Q567 753 583 753Q599 753 615 756.5Q631 760 655 767Q672 774 681.5 781.5Q691 789 691 808V909Q691 928 682 934Q673 940 655 935Q633 928 619 924Q605 920 590.5 919Q576 918 556.5 920Q537 922 504 927L482 930L465 932Q435 936 415.5 938.5Q396 941 380.5 941Q365 941 349 937.5Q333 934 309 927Q292 920 282.5 912.5Q273 905 273 886V785Q273 766 282 760Q291 754 309 759Q329 765 343.5 768.5Q358 772 373 773.5Q388 775 407 773.5Q426 772 454 768ZM601 841V831Q581 829 558 831Q535 833 497 839L481 841L453 845Q420 850 399.5 851Q379 852 363 849V860Q380 862 400.5 860.5Q421 859 455 855L483 851L499 849Q537 843 559 841Q581 839 601 841ZM299 507V281H670V507Q670 535 661.5 558Q653 581 632 597.5Q611 614 575 623Q539 632 483 632Q427 632 391.5 623Q356 614 335.5 597.5Q315 581 307 558Q299 535 299 507ZM398 497Q398 517 413 530.5Q428 544 481 544Q533 544 548 530.5Q563 517 563 497V368H398ZM424 388Q424 397 420.5 404.5Q417 412 408 417V378H424ZM670 90V271H299V90H289V507Q289 537 297.5 562Q306 587 327.5 605Q349 623 386.5 632.5Q424 642 483 642Q542 642 580 632.5Q618 623 640 605Q662 587 671 562Q680 537 680 507V90ZM398 36V185H563V36Q563 17 571.5 8.5Q580 0 599 0H751Q770 0 778.5 8.5Q787 17 787 36V531Q787 576 774.5 614Q762 652 728 678.5Q694 705 634.5 720Q575 735 482 735Q389 735 330 720Q271 705 237.5 678.5Q204 652 191.5 614Q179 576 179 531V36Q179 17 187.5 8.5Q196 0 215 0H362Q381 0 389.5 8.5Q398 17 398 36ZM264 -109Q260 -113 251.5 -116Q243 -119 233 -119H86Q62 -119 51 -108Q40 -97 40 -73V422Q40 469 52.5 508.5Q65 548 99 576L174 638Q154 634 144 643.5Q134 653 134 676V777Q134 790 137.5 798.5Q141 807 149 814L278 922Q282 926 289.5 929.5Q297 933 305 936H306V937Q330 944 346.5 947.5Q363 951 379.5 951Q396 951 415.5 948.5Q435 946 466 942L483 940L505 937Q537 932 556 930Q575 928 589 929Q603 930 617 934Q631 938 652 945Q677 952 689 943Q701 934 701 909V808Q701 795 697 786.5Q693 778 686 772L636 730Q733 708 765 655Q797 602 797 531V36Q797 23 793.5 14Q790 5 783 -1L653 -109Q649 -113 640.5 -116Q632 -119 622 -119H470Q446 -119 435 -108Q424 -97 424 -73V66H408V36Q408 23 404.5 14Q401 5 394 -1Z" glyph-name="Atilde.salt" horiz-adv-x="836" unicode="&#57604;" /><glyph d="M564 724 580 722Q610 718 629.5 715.5Q649 713 665 713Q681 713 697 716.5Q713 720 737 727Q754 734 763.5 741.5Q773 749 773 768V869Q773 888 764 894Q755 900 737 895Q715 888 701 884Q687 880 672.5 879Q658 878 638.5 880Q619 882 586 887L564 890L547 892Q517 896 497.5 898.5Q478 901 462.5 901Q447 901 431 897.5Q415 894 391 887Q374 880 364.5 872.5Q355 865 355 846V745Q355 726 364 720Q373 714 391 719Q411 725 425.5 728.5Q440 732 455 733.5Q470 735 489 733.5Q508 732 536 728ZM683 801V791Q663 789 640 791Q617 793 579 799L563 801L535 805Q502 810 481.5 811Q461 812 445 809V820Q462 822 482.5 820.5Q503 819 537 815L565 811L581 809Q619 803 641 801Q663 799 683 801ZM380 467V261H748V467Q748 495 740 518Q732 541 711.5 557.5Q691 574 655 583Q619 592 564 592Q508 592 472.5 583Q437 574 416.5 557.5Q396 541 388 518Q380 495 380 467ZM483 457Q483 477 496.5 490.5Q510 504 563 504Q615 504 628.5 490.5Q642 477 642 457V348H483ZM503 368Q503 375 501 382Q499 389 493 393V358H503ZM748 90V251H380V90H370V467Q370 497 378.5 522Q387 547 408.5 565Q430 583 467.5 592.5Q505 602 564 602Q622 602 659.5 592.5Q697 583 719 565Q741 547 749.5 522Q758 497 758 467V90ZM483 36V165H642V36Q642 17 650.5 8.5Q659 0 678 0H830Q849 0 857.5 8.5Q866 17 866 36V491Q866 536 853.5 574Q841 612 808 638.5Q775 665 716 680Q657 695 564 695Q471 695 412.5 680Q354 665 321 638.5Q288 612 276 574Q264 536 264 491V36Q264 17 272.5 8.5Q281 0 300 0H447Q466 0 474.5 8.5Q483 17 483 36ZM349 -109Q345 -113 336.5 -116Q328 -119 318 -119H171Q147 -119 136 -108Q125 -97 125 -73V382Q125 429 137.5 468.5Q150 508 184 536L258 598Q237 594 226.5 603.5Q216 613 216 636V737Q216 750 219.5 758.5Q223 767 231 774L360 882Q364 886 371.5 889.5Q379 893 387 896H388V897Q412 904 428.5 907.5Q445 911 461.5 911Q478 911 497.5 908.5Q517 906 548 902L565 900L587 897Q619 892 638 890Q657 888 671 889Q685 890 699 894Q713 898 734 905Q759 912 771 903Q783 894 783 869V768Q783 755 779 746.5Q775 738 768 732L718 690Q814 668 845 615Q876 562 876 491V36Q876 23 872.5 14Q869 5 862 -1L732 -109Q728 -113 719.5 -116Q711 -119 701 -119H549Q525 -119 514 -108Q503 -97 503 -73V46H493V36Q493 23 489.5 14Q486 5 479 -1Z" glyph-name="Atilde.salt_v" horiz-adv-x="1000" unicode="&#57841;" /><glyph d="M565 724 581 722Q611 718 630.5 715.5Q650 713 666 713Q682 713 698 716.5Q714 720 738 727Q755 734 764.5 741.5Q774 749 774 768V869Q774 888 765 894Q756 900 738 895Q716 888 702 884Q688 880 673.5 879Q659 878 639.5 880Q620 882 587 887L565 890L548 892Q518 896 498.5 898.5Q479 901 463.5 901Q448 901 432 897.5Q416 894 392 887Q375 880 365.5 872.5Q356 865 356 846V745Q356 726 365 720Q374 714 392 719Q412 725 426.5 728.5Q441 732 456 733.5Q471 735 490 733.5Q509 732 537 728ZM684 801V791Q664 789 641 791Q618 793 580 799L564 801L536 805Q503 810 482.5 811Q462 812 446 809V820Q463 822 483.5 820.5Q504 819 538 815L566 811L582 809Q620 803 642 801Q664 799 684 801ZM379 283V252H748V283Q748 310 743.5 333Q739 356 732 376L673 519Q662 545 645 562.5Q628 580 600 580H523Q493 580 476 562.5Q459 545 449 520L395 376Q388 356 383.5 333Q379 310 379 283ZM542 470Q546 480 549.5 483.5Q553 487 561 487H566Q574 487 577.5 483.5Q581 480 585 470L632 338H495ZM748 90V242H379V90H369V283Q369 311 373.5 334.5Q378 358 386 380L440 524Q450 552 469.5 571Q489 590 523 590H600Q633 590 651.5 570.5Q670 551 682 523L741 380Q750 358 754 334.5Q758 311 758 283V90ZM485 36V156H642V36Q642 17 652 8.5Q662 0 681 0H832Q851 0 859.5 8.5Q868 17 868 36V280Q868 306 866 323.5Q864 341 859.5 357.5Q855 374 847.5 393Q840 412 829 440L742 647Q735 666 723 673Q711 680 692 680H433Q414 680 401.5 673Q389 666 382 647L305 440Q294 412 286.5 393Q279 374 274.5 357.5Q270 341 268 323.5Q266 306 266 280V36Q266 17 274.5 8.5Q283 0 302 0H449Q468 0 476.5 8.5Q485 17 485 36ZM351 -109Q347 -113 338.5 -116Q330 -119 320 -119H173Q148 -119 137.5 -108Q127 -97 127 -73V171Q127 197 129 215.5Q131 234 135.5 250.5Q140 267 148 286Q156 305 167 334L243 541Q246 550 250.5 557.5Q255 565 261 569L313 613Q303 611 291.5 607.5Q280 604 266 600Q241 593 229 602Q217 611 217 636V737Q217 750 220.5 758.5Q224 767 232 774L361 882Q365 886 372.5 889.5Q380 893 388 896H389V897Q413 904 429.5 907.5Q446 911 462.5 911Q479 911 498.5 908.5Q518 906 549 902L566 900L588 897Q620 892 639 890Q658 888 672 889Q686 890 700 894Q714 898 735 905Q760 912 772 903Q784 894 784 869V768Q784 755 780 746.5Q776 738 769 732L716 687Q729 683 737.5 674.5Q746 666 751 651L838 444Q849 415 857 395.5Q865 376 869.5 359.5Q874 343 876 324.5Q878 306 878 280V36Q878 23 874.5 14Q871 5 864 -1L734 -109Q730 -113 721.5 -116Q713 -119 703 -119H552Q528 -119 515.5 -107.5Q503 -96 503 -73V37H495V36Q495 23 491.5 14Q488 5 481 -1Z" glyph-name="Atilde.v" horiz-adv-x="1000" unicode="&#57741;" /><glyph d="M91 -119Q67 -119 56 -108Q45 -97 45 -73V575Q45 588 48.5 597Q52 606 59 612L188 721Q193 725 201.5 727.5Q210 730 220 730H539Q643 730 692 689.5Q741 649 741 567V519Q741 484 731.5 459Q722 434 703 419L700 417Q754 405 781 365.5Q808 326 808 256V164Q808 119 795 86.5Q782 54 756 32L627 -77Q602 -98 564 -108.5Q526 -119 475 -119ZM604 0Q703 0 750.5 40Q798 80 798 164V256Q798 329 767 367Q736 405 672 411Q702 424 716.5 450.5Q731 477 731 519V567Q731 645 684 682.5Q637 720 539 720H220Q201 720 192.5 711.5Q184 703 184 684V36Q184 17 192.5 8.5Q201 0 220 0ZM564 90H295V630H498Q539 630 565 621.5Q591 613 605 598.5Q619 584 624 565Q629 546 629 524V460Q629 430 618.5 405Q608 380 565 369Q606 369 632 360.5Q658 352 672 336.5Q686 321 690.5 300Q695 279 695 254V190Q695 168 690 149.5Q685 131 671.5 118Q658 105 632 97.5Q606 90 564 90ZM498 620H305V369H498Q539 369 563 376.5Q587 384 599.5 396.5Q612 409 615.5 425.5Q619 442 619 460V524Q619 564 596 592Q573 620 498 620ZM409 550H494Q513 550 522.5 540Q532 530 532 510V482Q532 462 522.5 452Q513 442 494 442H409ZM565 359H305V100H564Q639 100 662 124.5Q685 149 685 190V254Q685 299 662.5 329Q640 359 565 359ZM409 288H539Q558 288 567.5 278.5Q577 269 577 249V210Q577 190 567.5 180Q558 170 539 170H409Z" glyph-name="B" horiz-adv-x="825" unicode="B" /><glyph d="M173 -118Q149 -118 138 -107Q127 -96 127 -72V576Q127 589 130.5 598Q134 607 141 613L270 722Q275 726 283.5 728.5Q292 731 302 731H612Q720 731 767 684Q814 637 814 568V520Q814 487 805 461.5Q796 436 776 419L773 417Q820 404 850.5 363.5Q881 323 881 257V165Q881 124 867.5 91Q854 58 826 35L697 -73Q672 -95 634.5 -106.5Q597 -118 548 -118ZM677 1Q773 1 822 45.5Q871 90 871 165V257Q871 327 835 367Q799 407 745 412Q778 426 791 454Q804 482 804 520V568Q804 634 758.5 677.5Q713 721 612 721H302Q283 721 274.5 712.5Q266 704 266 685V37Q266 18 274.5 9.5Q283 1 302 1ZM634 90H374V630H568Q609 630 635 621.5Q661 613 675 598.5Q689 584 694 565Q699 546 699 524V460Q699 430 688.5 405Q678 380 635 369Q676 369 702 360.5Q728 352 742 336.5Q756 321 760.5 300Q765 279 765 254V190Q765 168 760 149.5Q755 131 741.5 118Q728 105 702 97.5Q676 90 634 90ZM568 620H384V369H568Q609 369 633 376.5Q657 384 669.5 396.5Q682 409 685.5 425.5Q689 442 689 460V524Q689 564 666 592Q643 620 568 620ZM491 551H567Q591 551 598 539Q605 527 605 511V483Q605 467 598 455Q591 443 567 443H491ZM635 359H384V100H634Q709 100 732 124.5Q755 149 755 190V254Q755 299 732.5 329Q710 359 635 359ZM491 289H612Q636 289 643 277.5Q650 266 650 250V211Q650 195 643 183Q636 171 612 171H491Z" glyph-name="B.v" horiz-adv-x="1000" unicode="&#65314;" /><glyph d="M534 -119H290Q159 -119 96.5 -51Q34 17 34 125V406Q34 461 50 501.5Q66 542 97 569L227 678Q258 704 306 717Q354 730 419 730H663Q687 730 698 719Q709 708 709 684V563Q709 550 705.5 541Q702 532 695 526L565 418Q561 414 552.5 411Q544 408 534 408H411V239Q411 218 424 209.5Q437 201 462 201H663Q687 201 698 190Q709 179 709 155V36Q709 23 705.5 14Q702 5 695 -1L565 -109Q561 -113 552.5 -116Q544 -119 534 -119ZM663 0Q682 0 690.5 8.5Q699 17 699 36V155Q699 174 690.5 182.5Q682 191 663 191H462Q431 191 416 202.5Q401 214 401 239V477Q401 502 416 514.5Q431 527 462 527H663Q682 527 690.5 535.5Q699 544 699 563V684Q699 703 690.5 711.5Q682 720 663 720H419Q294 720 233.5 669.5Q173 619 173 515V204Q173 100 233.5 50Q294 0 419 0ZM608 100V90H441Q344 90 312.5 120Q281 150 281 219V499Q281 570 313 600Q345 630 441 630H608V620H441Q353 620 322 592.5Q291 565 291 499V219Q291 154 321 127Q351 100 441 100Z" glyph-name="C" horiz-adv-x="728" unicode="C" /><glyph d="M691 -119H378Q304 -119 254.5 -98.5Q205 -78 175.5 -44Q146 -10 134 34Q122 78 122 125V366Q122 417 136.5 459Q151 501 185 529L314 638Q343 663 390.5 676.5Q438 690 507 690H820Q844 690 855 679Q866 668 866 644V523Q866 510 862.5 501Q859 492 852 486L722 378Q718 374 709.5 371Q701 368 691 368H499V239Q499 222 509 211.5Q519 201 550 201H820Q844 201 855 190Q866 179 866 155V36Q866 23 862.5 14Q859 5 852 -1L722 -109Q718 -113 709.5 -116Q701 -119 691 -119ZM820 0Q839 0 847.5 8.5Q856 17 856 36V155Q856 174 847.5 182.5Q839 191 820 191H550Q511 191 500 204.5Q489 218 489 239V437Q489 456 500 471.5Q511 487 550 487H820Q839 487 847.5 495.5Q856 504 856 523V644Q856 663 847.5 671.5Q839 680 820 680H507Q366 680 313.5 623Q261 566 261 475V204Q261 114 313.5 57Q366 0 507 0ZM766 100V90H530Q433 90 401.5 120Q370 150 370 219V459Q370 530 402 560Q434 590 530 590H766V580H530Q442 580 411 552.5Q380 525 380 459V219Q380 154 410 127Q440 100 530 100Z" glyph-name="C.s_v" horiz-adv-x="1000" unicode="&#57927;" /><glyph d="M691 -119H378Q304 -119 254.5 -98.5Q205 -78 175.5 -44Q146 -10 134 34Q122 78 122 125V406Q122 457 136.5 499Q151 541 185 569L314 678Q343 703 390.5 716.5Q438 730 507 730H820Q844 730 855 719Q866 708 866 684V563Q866 550 862.5 541Q859 532 852 526L722 418Q718 414 709.5 411Q701 408 691 408H499V239Q499 222 509 211.5Q519 201 550 201H820Q844 201 855 190Q866 179 866 155V36Q866 23 862.5 14Q859 5 852 -1L722 -109Q718 -113 709.5 -116Q701 -119 691 -119ZM820 0Q839 0 847.5 8.5Q856 17 856 36V155Q856 174 847.5 182.5Q839 191 820 191H550Q511 191 500 204.5Q489 218 489 239V477Q489 496 500 511.5Q511 527 550 527H820Q839 527 847.5 535.5Q856 544 856 563V684Q856 703 847.5 711.5Q839 720 820 720H507Q366 720 313.5 663Q261 606 261 515V204Q261 114 313.5 57Q366 0 507 0ZM766 100V90H530Q433 90 401.5 120Q370 150 370 219V499Q370 570 402 600Q434 630 530 630H766V620H530Q442 620 411 592.5Q380 565 380 499V219Q380 154 410 127Q440 100 530 100Z" glyph-name="C.v" horiz-adv-x="1000" unicode="&#65315;" /><glyph d="M534 -119H290Q159 -119 96.5 -51Q34 17 34 125V406Q34 461 50 501.5Q66 542 97 569L174 634Q158 635 149.5 646Q141 657 141 677V773Q141 786 144.5 794.5Q148 803 154 808L284 917Q288 921 296.5 924Q305 927 315 928L664 971Q686 974 697.5 962.5Q709 951 709 928V832Q709 819 705.5 810Q702 801 695 797L615 730H663Q687 730 698 719Q709 708 709 684V563Q709 550 705.5 541Q702 532 695 526L565 418Q561 414 552.5 411Q544 408 534 408H411V239Q411 218 424 209.5Q437 201 462 201H663Q687 201 698 190Q709 179 709 155V36Q709 23 705.5 14Q702 5 695 -1L565 -109Q561 -113 552.5 -116Q544 -119 534 -119ZM663 796Q682 798 690.5 805.5Q699 813 699 832V928Q699 945 690.5 954Q682 963 665 961L316 918Q297 916 288.5 908.5Q280 901 280 882V786Q280 769 288.5 760Q297 751 314 753ZM370 847 609 877V867L370 837ZM663 0Q682 0 690.5 8.5Q699 17 699 36V155Q699 174 690.5 182.5Q682 191 663 191H462Q431 191 416 202.5Q401 214 401 239V477Q401 502 416 514.5Q431 527 462 527H663Q682 527 690.5 535.5Q699 544 699 563V684Q699 703 690.5 711.5Q682 720 663 720H419Q294 720 233.5 669.5Q173 619 173 515V204Q173 100 233.5 50Q294 0 419 0ZM608 100V90H441Q344 90 312.5 120Q281 150 281 219V499Q281 570 313 600Q345 630 441 630H608V620H441Q353 620 322 592.5Q291 565 291 499V219Q291 154 321 127Q351 100 441 100Z" glyph-name="Cacute" horiz-adv-x="728" unicode="&#262;" /><glyph d="M691 -119H378Q304 -119 254.5 -98.5Q205 -78 175.5 -44Q146 -10 134 34Q122 78 122 125V366Q122 417 136.5 459Q151 501 185 529L261 593Q244 594 235 605.5Q226 617 226 637V733Q226 746 229.5 754.5Q233 763 239 768L369 877Q373 881 381.5 884Q390 887 400 888L749 931Q771 934 782.5 922.5Q794 911 794 888V792Q794 779 790.5 770Q787 761 780 757L701 690H820Q844 690 855 679Q866 668 866 644V523Q866 510 862.5 501Q859 492 852 486L722 378Q718 374 709.5 371Q701 368 691 368H499V239Q499 222 509 211.5Q519 201 550 201H820Q844 201 855 190Q866 179 866 155V36Q866 23 862.5 14Q859 5 852 -1L722 -109Q718 -113 709.5 -116Q701 -119 691 -119ZM748 756Q767 758 775.5 765.5Q784 773 784 792V888Q784 905 775.5 914Q767 923 750 921L401 878Q382 876 373.5 868.5Q365 861 365 842V746Q365 729 373.5 720Q382 711 399 713ZM455 807 694 837V827L455 797ZM820 0Q839 0 847.5 8.5Q856 17 856 36V155Q856 174 847.5 182.5Q839 191 820 191H550Q511 191 500 204.5Q489 218 489 239V437Q489 456 500 471.5Q511 487 550 487H820Q839 487 847.5 495.5Q856 504 856 523V644Q856 663 847.5 671.5Q839 680 820 680H507Q366 680 313.5 623Q261 566 261 475V204Q261 114 313.5 57Q366 0 507 0ZM766 100V90H530Q433 90 401.5 120Q370 150 370 219V459Q370 530 402 560Q434 590 530 590H766V580H530Q442 580 411 552.5Q380 525 380 459V219Q380 154 410 127Q440 100 530 100Z" glyph-name="Cacute.v" horiz-adv-x="1000" unicode="&#57748;" /><glyph d="M534 -119H290Q159 -119 96.5 -51Q34 17 34 125V406Q34 461 50 501.5Q66 542 97 569L216 668L159 689Q129 700 120 710Q111 720 111 751V832Q111 849 113.5 859Q116 869 122 873L251 982Q256 986 266.5 986.5Q277 987 295 982L432 942Q448 938 460 938Q472 938 488 942L625 982Q658 992 668.5 984.5Q679 977 679 941V860Q679 841 675 831Q671 821 663 814L564 730H663Q687 730 698 719Q709 708 709 684V563Q709 550 705.5 541Q702 532 695 526L565 418Q561 414 552.5 411Q544 408 534 408H411V239Q411 218 424 209.5Q437 201 462 201H663Q687 201 698 190Q709 179 709 155V36Q709 23 705.5 14Q702 5 695 -1L565 -109Q561 -113 552.5 -116Q544 -119 534 -119ZM491 932Q474 928 460 928Q446 928 429 932L292 972Q266 980 258 974Q250 968 250 941V860Q250 833 258.5 825Q267 817 292 807L429 757Q436 754 444 753Q452 752 461 752Q470 753 480.5 755Q491 757 500 761L628 807Q652 817 660.5 825Q669 833 669 860V941Q669 968 661 974Q653 980 628 972ZM340 879 427 851Q434 849 441.5 847Q449 845 459 845Q469 845 476.5 847Q484 849 491 851L578 879V868L495 841Q486 839 478 837Q470 835 459 835Q448 835 440 837Q432 839 423 841L340 868ZM663 0Q682 0 690.5 8.5Q699 17 699 36V155Q699 174 690.5 182.5Q682 191 663 191H462Q431 191 416 202.5Q401 214 401 239V477Q401 502 416 514.5Q431 527 462 527H663Q682 527 690.5 535.5Q699 544 699 563V684Q699 703 690.5 711.5Q682 720 663 720H419Q294 720 233.5 669.5Q173 619 173 515V204Q173 100 233.5 50Q294 0 419 0ZM608 100V90H441Q344 90 312.5 120Q281 150 281 219V499Q281 570 313 600Q345 630 441 630H608V620H441Q353 620 322 592.5Q291 565 291 499V219Q291 154 321 127Q351 100 441 100Z" glyph-name="Ccaron" horiz-adv-x="728" unicode="&#268;" /><glyph d="M691 -119H378Q304 -119 254.5 -98.5Q205 -78 175.5 -44Q146 -10 134 34Q122 78 122 125V366Q122 417 136.5 459Q151 501 185 529L311 636L274 649Q244 660 235 670Q226 680 226 711V792Q226 809 228.5 819Q231 829 237 833L366 942Q371 946 381.5 946.5Q392 947 410 942L547 902Q563 898 575 898Q587 898 603 902L740 942Q773 952 783.5 944.5Q794 937 794 901V820Q794 801 790 791Q786 781 778 774L679 690H820Q844 690 855 679Q866 668 866 644V523Q866 510 862.5 501Q859 492 852 486L722 378Q718 374 709.5 371Q701 368 691 368H499V239Q499 222 509 211.5Q519 201 550 201H820Q844 201 855 190Q866 179 866 155V36Q866 23 862.5 14Q859 5 852 -1L722 -109Q718 -113 709.5 -116Q701 -119 691 -119ZM606 892Q589 888 575 888Q561 888 544 892L407 932Q381 940 373 934Q365 928 365 901V820Q365 793 373.5 785Q382 777 407 767L544 717Q551 714 559 713Q567 712 576 712Q585 713 595.5 715Q606 717 615 721L743 767Q767 777 775.5 785Q784 793 784 820V901Q784 928 776 934Q768 940 743 932ZM455 839 542 811Q549 809 556.5 807Q564 805 574 805Q584 805 591.5 807Q599 809 606 811L693 839V828L610 801Q601 799 593 797Q585 795 574 795Q563 795 555 797Q547 799 538 801L455 828ZM820 0Q839 0 847.5 8.5Q856 17 856 36V155Q856 174 847.5 182.5Q839 191 820 191H550Q511 191 500 204.5Q489 218 489 239V437Q489 456 500 471.5Q511 487 550 487H820Q839 487 847.5 495.5Q856 504 856 523V644Q856 663 847.5 671.5Q839 680 820 680H507Q366 680 313.5 623Q261 566 261 475V204Q261 114 313.5 57Q366 0 507 0ZM766 100V90H530Q433 90 401.5 120Q370 150 370 219V459Q370 530 402 560Q434 590 530 590H766V580H530Q442 580 411 552.5Q380 525 380 459V219Q380 154 410 127Q440 100 530 100Z" glyph-name="Ccaron.v" horiz-adv-x="1000" unicode="&#57751;" /><glyph d="M550 -96 584 0H663Q671 0 678 1.5Q685 3 689 7Q694 11 696.5 18.5Q699 26 699 36V155Q699 174 690.5 182.5Q682 191 663 191H462Q431 191 416 202.5Q401 214 401 239V477Q401 490 405 499Q409 508 416 515Q423 521 434.5 524Q446 527 462 527H663Q671 527 678 528.5Q685 530 689 534Q694 538 696.5 545.5Q699 553 699 563V684Q699 703 690.5 711.5Q682 720 663 720H419Q356 720 309.5 707.5Q263 695 233 670Q202 645 187.5 606Q173 567 173 515V204Q173 110 222.5 60Q272 10 373 2H381L348 -86Q341 -104 347 -115Q353 -126 378 -126H504Q515 -126 523 -123.5Q531 -121 537 -117Q541 -113 544.5 -108Q548 -103 550 -96ZM608 90H520L474 -36H464L509 90H441Q344 90 312.5 120Q281 150 281 219V499Q281 570 313 600Q345 630 441 630H608V620H441Q353 620 322 592.5Q291 565 291 499V219Q291 154 321 127Q351 100 441 100H608ZM414 -232Q408 -239 398 -242Q388 -245 375 -245H249Q215 -245 208 -230Q201 -215 210 -191L238 -116Q186 -112 147.5 -91.5Q109 -71 84 -39.5Q59 -8 46.5 34Q34 76 34 125V406Q34 461 50 501.5Q66 542 97 569L227 678Q258 704 306 717Q354 730 419 730H663Q687 730 698 719Q709 708 709 684V563Q709 550 705.5 541Q702 532 695 526L565 418Q561 414 552.5 411Q544 408 534 408H411V239Q411 218 424 209.5Q437 201 462 201H663Q687 201 698 190Q709 179 709 155V36Q709 23 705.5 14Q702 5 695 -1L413 -233Z" glyph-name="Ccedilla" horiz-adv-x="728" unicode="&#199;" /><glyph d="M470 -205H344Q310 -205 303 -190Q296 -175 305 -152L332 -77Q272 -72 231.5 -50Q191 -28 167 5Q143 38 132.5 80Q122 122 122 165V406Q122 457 136.5 499Q151 541 185 569L314 678Q343 703 390.5 716.5Q438 730 507 730H820Q844 730 855 719Q866 708 866 684V563Q866 550 862.5 541Q859 532 852 526L722 418Q718 414 709.5 411Q701 408 691 408H499V279Q499 262 509 251.5Q519 241 550 241H820Q844 241 855 230Q866 219 866 195V76Q866 63 862.5 54Q859 45 852 39L722 -69Q718 -73 709.5 -76Q701 -79 691 -79H644Q643 -80 641.5 -81.5Q640 -83 639 -84L638 -85L510 -193Q503 -199 493 -202Q483 -205 470 -205ZM645 -56 679 40H820Q828 40 835 41.5Q842 43 846 47Q851 51 853.5 58.5Q856 66 856 76V195Q856 214 847.5 222.5Q839 231 820 231H550Q511 231 500 244.5Q489 258 489 279V477Q489 487 492 497.5Q495 508 503 515Q510 520 521.5 523.5Q533 527 550 527H820Q828 527 835 528.5Q842 530 846 534Q851 538 853.5 545.5Q856 553 856 563V684Q856 703 847.5 711.5Q839 720 820 720H507Q441 720 394.5 707Q348 694 320 670Q288 642 274.5 603Q261 564 261 515V244Q261 159 307 103.5Q353 48 475 41L443 -46Q436 -64 442 -75Q448 -86 473 -86H599Q610 -86 618 -83.5Q626 -81 632 -77Q636 -73 639.5 -68Q643 -63 645 -56ZM569 4H559L604 130H530Q433 130 401.5 160Q370 190 370 259V499Q370 570 402 600Q434 630 530 630H766V620H530Q442 620 411 592.5Q380 565 380 499V259Q380 194 410 167Q440 140 530 140H766V130H615Z" glyph-name="Ccedilla.v" horiz-adv-x="1000" unicode="&#57747;" /><glyph d="M534 -119H290Q159 -119 96.5 -51Q34 17 34 125V406Q34 461 50 501.5Q66 542 97 569L187 645L165 638Q132 628 121.5 635.5Q111 643 111 679V760Q111 779 114.5 789Q118 799 125 806L256 915L255 914Q260 919 268.5 923Q277 927 288 931L415 977Q425 981 436.5 983.5Q448 986 458 987Q468 987 477 986Q486 985 493 981L631 931Q661 920 670 910Q679 900 679 869V788Q679 772 676 762Q673 752 669 748L668 747L647 730H663Q687 730 698 719Q709 708 709 684V563Q709 550 705.5 541Q702 532 695 526L565 418Q561 414 552.5 411Q544 408 534 408H411V239Q411 218 424 209.5Q437 201 462 201H663Q687 201 698 190Q709 179 709 155V36Q709 23 705.5 14Q702 5 695 -1L565 -109Q561 -113 552.5 -116Q544 -119 534 -119ZM578 850 491 878Q484 880 476.5 882Q469 884 459 884Q449 884 441.5 882Q434 880 427 878L340 850V861L423 888Q432 890 440 892Q448 894 459 894Q470 894 478 892Q486 890 495 888L578 861ZM428 797Q445 801 459 801Q473 801 490 797L627 757Q653 749 661 755Q669 761 669 788V869Q669 896 660.5 904Q652 912 627 922L490 972Q483 975 475 976Q467 977 458 977Q449 976 438.5 974Q428 972 419 968L291 922Q267 912 258.5 904Q250 896 250 869V788Q250 761 258 755Q266 749 291 757ZM663 0Q682 0 690.5 8.5Q699 17 699 36V155Q699 174 690.5 182.5Q682 191 663 191H462Q431 191 416 202.5Q401 214 401 239V477Q401 502 416 514.5Q431 527 462 527H663Q682 527 690.5 535.5Q699 544 699 563V684Q699 703 690.5 711.5Q682 720 663 720H419Q294 720 233.5 669.5Q173 619 173 515V204Q173 100 233.5 50Q294 0 419 0ZM608 100V90H441Q344 90 312.5 120Q281 150 281 219V499Q281 570 313 600Q345 630 441 630H608V620H441Q353 620 322 592.5Q291 565 291 499V219Q291 154 321 127Q351 100 441 100Z" glyph-name="Ccircumflex" horiz-adv-x="728" unicode="&#264;" /><glyph d="M691 -119H378Q304 -119 254.5 -98.5Q205 -78 175.5 -44Q146 -10 134 34Q122 78 122 125V366Q122 417 136.5 459Q151 501 185 529L261 593Q240 589 233 599Q226 609 226 639V720Q226 739 229.5 749Q233 759 240 766L371 875L370 874Q375 879 383.5 883Q392 887 403 891L530 937Q540 941 551.5 943.5Q563 946 573 947Q583 947 592 946Q601 945 608 941L746 891Q776 880 785 870Q794 860 794 829V748Q794 732 791 722Q788 712 784 708L783 707L763 690H820Q844 690 855 679Q866 668 866 644V523Q866 510 862.5 501Q859 492 852 486L722 378Q718 374 709.5 371Q701 368 691 368H499V239Q499 222 509 211.5Q519 201 550 201H820Q844 201 855 190Q866 179 866 155V36Q866 23 862.5 14Q859 5 852 -1L722 -109Q718 -113 709.5 -116Q701 -119 691 -119ZM693 810 606 838Q599 840 591.5 842Q584 844 574 844Q564 844 556.5 842Q549 840 542 838L455 810V821L538 848Q547 850 555 852Q563 854 574 854Q585 854 593 852Q601 850 610 848L693 821ZM543 757Q560 761 574 761Q588 761 605 757L742 717Q768 709 776 715Q784 721 784 748V829Q784 856 775.5 864Q767 872 742 882L605 932Q598 935 590 936Q582 937 573 937Q564 936 553.5 934Q543 932 534 928L406 882Q382 872 373.5 864Q365 856 365 829V748Q365 721 373 715Q381 709 406 717ZM820 0Q839 0 847.5 8.5Q856 17 856 36V155Q856 174 847.5 182.5Q839 191 820 191H550Q511 191 500 204.5Q489 218 489 239V437Q489 456 500 471.5Q511 487 550 487H820Q839 487 847.5 495.5Q856 504 856 523V644Q856 663 847.5 671.5Q839 680 820 680H507Q366 680 313.5 623Q261 566 261 475V204Q261 114 313.5 57Q366 0 507 0ZM766 100V90H530Q433 90 401.5 120Q370 150 370 219V459Q370 530 402 560Q434 590 530 590H766V580H530Q442 580 411 552.5Q380 525 380 459V219Q380 154 410 127Q440 100 530 100Z" glyph-name="Ccircumflex.v" horiz-adv-x="1000" unicode="&#57749;" /><glyph d="M534 -119H290Q159 -119 96.5 -51Q34 17 34 125V406Q34 461 50 501.5Q66 542 97 569L218 671Q217 674 217 678.5Q217 683 217 687V814Q217 827 220.5 836Q224 845 231 851L360 960Q365 964 373.5 966.5Q382 969 392 969H550Q574 969 585 958Q596 947 596 923V796Q596 783 592.5 774Q589 765 582 759L547 730H663Q687 730 698 719Q709 708 709 684V563Q709 550 705.5 541Q702 532 695 526L565 418Q561 414 552.5 411Q544 408 534 408H411V239Q411 218 424 209.5Q437 201 462 201H663Q687 201 698 190Q709 179 709 155V36Q709 23 705.5 14Q702 5 695 -1L565 -109Q561 -113 552.5 -116Q544 -119 534 -119ZM550 760Q569 760 577.5 768.5Q586 777 586 796V923Q586 942 577.5 950.5Q569 959 550 959H392Q373 959 364.5 950.5Q356 942 356 923V796Q356 777 364.5 768.5Q373 760 392 760ZM476 830H466V889H476ZM663 0Q682 0 690.5 8.5Q699 17 699 36V155Q699 174 690.5 182.5Q682 191 663 191H462Q431 191 416 202.5Q401 214 401 239V477Q401 502 416 514.5Q431 527 462 527H663Q682 527 690.5 535.5Q699 544 699 563V684Q699 703 690.5 711.5Q682 720 663 720H419Q294 720 233.5 669.5Q173 619 173 515V204Q173 100 233.5 50Q294 0 419 0ZM608 100V90H441Q344 90 312.5 120Q281 150 281 219V499Q281 570 313 600Q345 630 441 630H608V620H441Q353 620 322 592.5Q291 565 291 499V219Q291 154 321 127Q351 100 441 100Z" glyph-name="Cdotaccent" horiz-adv-x="728" unicode="&#266;" /><glyph d="M691 -119H378Q304 -119 254.5 -98.5Q205 -78 175.5 -44Q146 -10 134 34Q122 78 122 125V366Q122 417 136.5 459Q151 501 185 529L314 638Q316 639 318 641Q320 643 322 644V774Q322 787 325.5 796Q329 805 336 811L465 920Q470 924 478.5 926.5Q487 929 497 929H655Q679 929 690 918Q701 907 701 883V756Q701 743 697.5 734Q694 725 687 719L651 690H820Q844 690 855 679Q866 668 866 644V523Q866 510 862.5 501Q859 492 852 486L722 378Q718 374 709.5 371Q701 368 691 368H499V239Q499 222 509 211.5Q519 201 550 201H820Q844 201 855 190Q866 179 866 155V36Q866 23 862.5 14Q859 5 852 -1L722 -109Q718 -113 709.5 -116Q701 -119 691 -119ZM655 720Q674 720 682.5 728.5Q691 737 691 756V883Q691 902 682.5 910.5Q674 919 655 919H497Q478 919 469.5 910.5Q461 902 461 883V756Q461 737 469.5 728.5Q478 720 497 720ZM581 790H571V849H581ZM820 0Q839 0 847.5 8.5Q856 17 856 36V155Q856 174 847.5 182.5Q839 191 820 191H550Q511 191 500 204.5Q489 218 489 239V437Q489 456 500 471.5Q511 487 550 487H820Q839 487 847.5 495.5Q856 504 856 523V644Q856 663 847.5 671.5Q839 680 820 680H507Q366 680 313.5 623Q261 566 261 475V204Q261 114 313.5 57Q366 0 507 0ZM766 100V90H530Q433 90 401.5 120Q370 150 370 219V459Q370 530 402 560Q434 590 530 590H766V580H530Q442 580 411 552.5Q380 525 380 459V219Q380 154 410 127Q440 100 530 100Z" glyph-name="Cdotaccent.v" horiz-adv-x="1000" unicode="&#57750;" /><glyph d="M620 -66Q589 -92 541 -105.5Q493 -119 428 -119H91Q67 -119 56 -108Q45 -97 45 -73V575Q45 588 48.5 597Q52 606 59 612L188 721Q193 725 201.5 727.5Q210 730 220 730H557Q688 730 750.5 677Q813 624 813 516V204Q813 150 797 109.5Q781 69 750 42ZM557 0Q682 0 742.5 50Q803 100 803 204V516Q803 620 742.5 670Q682 720 557 720H220Q201 720 192.5 711.5Q184 703 184 684V36Q184 17 192.5 8.5Q201 0 220 0ZM293 90V630H535Q586 630 617.5 619Q649 608 666 589.5Q683 571 689 545.5Q695 520 695 491V226Q695 197 689.5 172Q684 147 667 129Q650 111 618 100.5Q586 90 535 90ZM535 620H303V100H535Q583 100 612.5 109.5Q642 119 658 135.5Q674 152 679.5 175.5Q685 199 685 226V491Q685 518 679 542Q673 566 657 583Q641 600 611.5 610Q582 620 535 620ZM411 529H530Q554 529 565.5 517.5Q577 506 577 481V238Q577 213 565.5 201Q554 189 530 189H411ZM438 372Q438 385 434 394Q430 403 421 407V199H438Z" glyph-name="D" horiz-adv-x="846" unicode="D" /><glyph d="M688 -66Q658 -91 611 -105Q564 -119 495 -119H172Q148 -119 137 -108Q126 -97 126 -73V535Q126 548 129.5 557Q133 566 140 572L269 681Q274 685 282.5 687.5Q291 690 301 690H624Q698 690 747.5 674Q797 658 826.5 630Q856 602 868 562.5Q880 523 880 476V204Q880 154 865.5 112.5Q851 71 817 43ZM624 0Q765 0 817.5 57Q870 114 870 204V476Q870 566 817.5 623Q765 680 624 680H301Q282 680 273.5 671.5Q265 663 265 644V36Q265 17 273.5 8.5Q282 0 301 0ZM374 90V590H602Q653 590 684.5 579Q716 568 733 549.5Q750 531 756 505.5Q762 480 762 451V226Q762 197 756.5 172Q751 147 734 129Q717 111 685 100.5Q653 90 602 90ZM602 580H384V100H602Q650 100 679.5 109.5Q709 119 725 135.5Q741 152 746.5 175.5Q752 199 752 226V451Q752 478 746 502Q740 526 724 543Q708 560 678.5 570Q649 580 602 580ZM492 489H597Q627 489 635.5 474.5Q644 460 644 441V238Q644 218 635.5 203.5Q627 189 597 189H492ZM519 332Q519 345 515 354Q511 363 502 367V199H519Z" glyph-name="D.s_v" horiz-adv-x="1000" unicode="&#57928;" /><glyph d="M688 -66Q658 -91 611 -105Q564 -119 495 -119H172Q148 -119 137 -108Q126 -97 126 -73V575Q126 588 129.5 597Q133 606 140 612L269 721Q274 725 282.5 727.5Q291 730 301 730H624Q698 730 747.5 714Q797 698 826.5 670Q856 642 868 602.5Q880 563 880 516V204Q880 154 865.5 112.5Q851 71 817 43ZM624 0Q765 0 817.5 57Q870 114 870 204V516Q870 606 817.5 663Q765 720 624 720H301Q282 720 273.5 711.5Q265 703 265 684V36Q265 17 273.5 8.5Q282 0 301 0ZM374 90V630H602Q653 630 684.5 619Q716 608 733 589.5Q750 571 756 545.5Q762 520 762 491V226Q762 197 756.5 172Q751 147 734 129Q717 111 685 100.5Q653 90 602 90ZM602 620H384V100H602Q650 100 679.5 109.5Q709 119 725 135.5Q741 152 746.5 175.5Q752 199 752 226V491Q752 518 746 542Q740 566 724 583Q708 600 678.5 610Q649 620 602 620ZM492 529H597Q627 529 635.5 514.5Q644 500 644 481V238Q644 218 635.5 203.5Q627 189 597 189H492ZM519 372Q519 385 515 394Q511 403 502 407V199H519Z" glyph-name="D.v" horiz-adv-x="1000" unicode="&#65316;" /><glyph d="M428 -119H91Q67 -119 56 -108Q45 -97 45 -73V575Q45 588 48.5 597Q52 606 59 612L162 699Q149 706 144 717Q139 728 139 751V832Q139 849 141.5 859Q144 869 150 873L279 982Q284 986 294.5 986.5Q305 987 323 982L460 942Q476 938 488 938Q500 938 516 942L653 982Q686 992 696.5 984.5Q707 977 707 941V860Q707 841 703 831Q699 821 691 814L590 729Q704 723 758.5 670Q813 617 813 516V204Q813 150 797 109.5Q781 69 750 42L620 -66Q589 -92 541 -105.5Q493 -119 428 -119ZM519 932Q502 928 488 928Q474 928 457 932L320 972Q294 980 286 974Q278 968 278 941V860Q278 833 286.5 825Q295 817 320 807L457 757Q464 754 472 753Q480 752 489 752Q498 753 508.5 755Q519 757 528 761L656 807Q680 817 688.5 825Q697 833 697 860V941Q697 968 689 974Q681 980 656 972ZM368 879 455 851Q462 849 469.5 847Q477 845 487 845Q497 845 504.5 847Q512 849 519 851L606 879V868L523 841Q514 839 506 837Q498 835 487 835Q476 835 468 837Q460 839 451 841L368 868ZM557 0Q682 0 742.5 50Q803 100 803 204V516Q803 620 742.5 670Q682 720 557 720H220Q201 720 192.5 711.5Q184 703 184 684V36Q184 17 192.5 8.5Q201 0 220 0ZM293 90V630H535Q586 630 617.5 619Q649 608 666 589.5Q683 571 689 545.5Q695 520 695 491V226Q695 197 689.5 172Q684 147 667 129Q650 111 618 100.5Q586 90 535 90ZM535 620H303V100H535Q583 100 612.5 109.5Q642 119 658 135.5Q674 152 679.5 175.5Q685 199 685 226V491Q685 518 679 542Q673 566 657 583Q641 600 611.5 610Q582 620 535 620ZM411 529H530Q554 529 565.5 517.5Q577 506 577 481V238Q577 213 565.5 201Q554 189 530 189H411ZM438 372Q438 385 434 394Q430 403 421 407V199H438Z" glyph-name="Dcaron" horiz-adv-x="846" unicode="&#270;" /><glyph d="M495 -119H172Q148 -119 137 -108Q126 -97 126 -73V535Q126 548 129.5 557Q133 566 140 572L242 658Q226 665 221 675.5Q216 686 216 711V792Q216 809 218.5 819Q221 829 227 833L356 942Q361 946 371.5 946.5Q382 947 400 942L537 902Q553 898 565 898Q577 898 593 902L730 942Q763 952 773.5 944.5Q784 937 784 901V820Q784 801 780 791Q776 781 768 774L668 688Q790 679 835 621Q880 563 880 476V204Q880 154 865.5 112.5Q851 71 817 43L688 -66Q658 -91 611 -105Q564 -119 495 -119ZM596 892Q579 888 565 888Q551 888 534 892L397 932Q371 940 363 934Q355 928 355 901V820Q355 793 363.5 785Q372 777 397 767L534 717Q541 714 549 713Q557 712 566 712Q575 713 585.5 715Q596 717 605 721L733 767Q757 777 765.5 785Q774 793 774 820V901Q774 928 766 934Q758 940 733 932ZM445 839 532 811Q539 809 546.5 807Q554 805 564 805Q574 805 581.5 807Q589 809 596 811L683 839V828L600 801Q591 799 583 797Q575 795 564 795Q553 795 545 797Q537 799 528 801L445 828ZM624 0Q765 0 817.5 57Q870 114 870 204V476Q870 566 817.5 623Q765 680 624 680H301Q282 680 273.5 671.5Q265 663 265 644V36Q265 17 273.5 8.5Q282 0 301 0ZM374 90V590H602Q653 590 684.5 579Q716 568 733 549.5Q750 531 756 505.5Q762 480 762 451V226Q762 197 756.5 172Q751 147 734 129Q717 111 685 100.5Q653 90 602 90ZM602 580H384V100H602Q650 100 679.5 109.5Q709 119 725 135.5Q741 152 746.5 175.5Q752 199 752 226V451Q752 478 746 502Q740 526 724 543Q708 560 678.5 570Q649 580 602 580ZM492 489H597Q627 489 635.5 474.5Q644 460 644 441V238Q644 218 635.5 203.5Q627 189 597 189H492ZM519 332Q519 345 515 354Q511 363 502 367V199H519Z" glyph-name="Dcaron.v" horiz-adv-x="1000" unicode="&#57752;" /><glyph d="M101 -119Q77 -119 66 -108Q55 -97 55 -73V146H42Q18 146 7 156.5Q-4 167 -4 192V299Q-4 312 -0.5 321Q3 330 10 336L55 374V575Q55 588 58.5 597Q62 606 69 612L198 721Q203 725 211.5 727.5Q220 730 230 730H567Q641 730 690.5 714Q740 698 769.5 670Q799 642 811 602.5Q823 563 823 516V204Q823 154 808.5 112.5Q794 71 760 43L631 -66Q601 -91 554 -105Q507 -119 438 -119ZM567 0Q708 0 760.5 57Q813 114 813 204V516Q813 606 760.5 663Q708 720 567 720H230Q211 720 202.5 711.5Q194 703 194 684V444H171Q152 444 143.5 435.5Q135 427 135 408V301Q135 282 143.5 273.5Q152 265 171 265H194V36Q194 17 202.5 8.5Q211 0 230 0ZM301 90V349H225V359H301V630H545Q596 630 627.5 619Q659 608 676 589.5Q693 571 699 545.5Q705 520 705 491V226Q705 197 699.5 172Q694 147 677 129Q660 111 628 100.5Q596 90 545 90ZM405 349H311V100H545Q593 100 622.5 109.5Q652 119 668 135.5Q684 152 689.5 175.5Q695 199 695 226V491Q695 518 689 542Q683 566 667 583Q651 600 621.5 610Q592 620 545 620H311V359H405ZM418 189V265H459Q478 265 486.5 273.5Q495 282 495 301V408Q495 427 486.5 435.5Q478 444 459 444H418V529H540Q570 529 578.5 514.5Q587 500 587 481V238Q587 218 578.5 203.5Q570 189 540 189ZM448 199V228L428 211V199Z" glyph-name="Dcroat" horiz-adv-x="856" unicode="&#272;" /><glyph d="M172 -119Q148 -119 137 -108Q126 -97 126 -73V146H113Q89 146 78 156.5Q67 167 67 192V299Q67 312 70.5 321Q74 330 81 336L126 374V575Q126 588 129.5 597Q133 606 140 612L269 721Q274 725 282.5 727.5Q291 730 301 730H619Q693 730 742.5 714Q792 698 821.5 670Q851 642 863 602.5Q875 563 875 516V204Q875 154 860.5 112.5Q846 71 812 43L683 -66Q653 -91 606 -105Q559 -119 490 -119ZM619 0Q760 0 812.5 57Q865 114 865 204V516Q865 606 812.5 663Q760 720 619 720H301Q282 720 273.5 711.5Q265 703 265 684V444H242Q223 444 214.5 435.5Q206 427 206 408V301Q206 282 214.5 273.5Q223 265 242 265H265V36Q265 17 273.5 8.5Q282 0 301 0ZM372 90V349H296V359H372V630H597Q648 630 679.5 619Q711 608 728 589.5Q745 571 751 545.5Q757 520 757 491V226Q757 197 751.5 172Q746 147 729 129Q712 111 680 100.5Q648 90 597 90ZM476 349H382V100H597Q645 100 674.5 109.5Q704 119 720 135.5Q736 152 741.5 175.5Q747 199 747 226V491Q747 518 741 542Q735 566 719 583Q703 600 673.5 610Q644 620 597 620H382V359H476ZM489 189V265H531Q550 265 558.5 273.5Q567 282 567 301V408Q567 427 558.5 435.5Q550 444 531 444H489V529H592Q622 529 630.5 514.5Q639 500 639 481V238Q639 218 630.5 203.5Q622 189 592 189Z" glyph-name="Dcroat.v" horiz-adv-x="1000" unicode="&#57828;" /><glyph d="M438 -359H280Q256 -359 245 -348Q234 -337 234 -313V-186Q234 -173 237.5 -164Q241 -155 248 -149L284 -119H91Q67 -119 56 -108Q45 -97 45 -73V575Q45 588 48.5 597Q52 606 59 612L188 721Q193 725 201.5 727.5Q210 730 220 730H557Q688 730 750.5 677Q813 624 813 516V204Q813 150 797 109.5Q781 69 750 42L620 -66L613 -71V-204Q613 -217 609.5 -226Q606 -235 599 -241L469 -349Q465 -353 456.5 -356Q448 -359 438 -359ZM557 0Q682 0 742.5 50Q803 100 803 204V516Q803 620 742.5 670Q682 720 557 720H220Q201 720 192.5 711.5Q184 703 184 684V36Q184 17 192.5 8.5Q201 0 220 0ZM293 90V630H535Q586 630 617.5 619Q649 608 666 589.5Q683 571 689 545.5Q695 520 695 491V226Q695 197 689.5 172Q684 147 667 129Q650 111 618 100.5Q586 90 535 90ZM535 620H303V100H535Q583 100 612.5 109.5Q642 119 658 135.5Q674 152 679.5 175.5Q685 199 685 226V491Q685 518 679 542Q673 566 657 583Q641 600 611.5 610Q582 620 535 620ZM411 529H530Q554 529 565.5 517.5Q577 506 577 481V238Q577 213 565.5 201Q554 189 530 189H411ZM438 372Q438 385 434 394Q430 403 421 407V199H438ZM567 -240Q586 -240 594.5 -231.5Q603 -223 603 -204V-77Q603 -58 594.5 -49.5Q586 -41 567 -41H409Q390 -41 381.5 -49.5Q373 -58 373 -77V-204Q373 -223 381.5 -231.5Q390 -240 409 -240ZM493 -170H483V-111H493Z" glyph-name="Ddotbelow" horiz-adv-x="846" unicode="&#7692;" /><glyph d="M626 -119H76Q52 -119 41 -108Q30 -97 30 -73V61Q30 106 39.5 150Q49 194 59 233L146 573L147 574Q151 585 156.5 593.5Q162 602 169 607L298 716Q308 723 319.5 726.5Q331 730 347 730H614Q642 730 658 719Q674 708 684 683L685 682V681L772 342Q782 303 791.5 259Q801 215 801 170V36Q801 23 797.5 14Q794 5 787 -1L658 -110Q652 -114 644 -116.5Q636 -119 626 -119ZM755 0Q774 0 782.5 8.5Q791 17 791 36V170Q791 214 781.5 257.5Q772 301 762 340L675 679Q666 701 652.5 710.5Q639 720 614 720H347Q322 720 308.5 710.5Q295 701 285 679L198 340Q188 301 178.5 257.5Q169 214 169 170V36Q169 17 177.5 8.5Q186 0 205 0ZM277 90V193Q277 221 280.5 245.5Q284 270 288 288L347 535Q355 568 363.5 586.5Q372 605 383.5 613.5Q395 622 411.5 623.5Q428 625 451 625H502Q525 625 541 623.5Q557 622 569 613.5Q581 605 589.5 586.5Q598 568 606 535L669 285Q673 269 676 245Q679 221 679 193V90ZM287 193V100H669V193Q669 221 666 244Q663 267 659 283L596 533Q589 563 581 580Q573 597 562.5 604.5Q552 612 537.5 613.5Q523 615 502 615H451Q430 615 415.5 613.5Q401 612 390.5 604.5Q380 597 372 580Q364 563 357 533L298 286Q294 268 290.5 244.5Q287 221 287 193ZM387 210Q387 220 389.5 234.5Q392 249 395 261L449 504Q453 514 456.5 517.5Q460 521 468 521H485Q493 521 496.5 517.5Q500 514 504 504L557 261Q560 249 562.5 234.5Q565 220 565 210V189H387Z" glyph-name="Delta" horiz-adv-x="830" unicode="&#8710;" /><glyph d="M527 -341H180Q156 -341 145 -330Q134 -319 134 -295V-202Q134 -189 137.5 -180Q141 -171 148 -165L202 -119H91Q67 -119 56 -108Q45 -97 45 -73V575Q45 588 48.5 597Q52 606 59 612L188 721Q193 725 201.5 727.5Q210 730 220 730H557Q688 730 750.5 677Q813 624 813 516V204Q813 150 797 109.5Q781 69 750 42L643 -47H656Q680 -47 691 -58Q702 -69 702 -93V-186Q702 -199 698.5 -208Q695 -217 688 -223L558 -331Q554 -335 545.5 -338Q537 -341 527 -341ZM557 0Q682 0 742.5 50Q803 100 803 204V516Q803 620 742.5 670Q682 720 557 720H220Q201 720 192.5 711.5Q184 703 184 684V36Q184 17 192.5 8.5Q201 0 220 0ZM293 90V630H535Q586 630 617.5 619Q649 608 666 589.5Q683 571 689 545.5Q695 520 695 491V226Q695 197 689.5 172Q684 147 667 129Q650 111 618 100.5Q586 90 535 90ZM535 620H303V100H535Q583 100 612.5 109.5Q642 119 658 135.5Q674 152 679.5 175.5Q685 199 685 226V491Q685 518 679 542Q673 566 657 583Q641 600 611.5 610Q582 620 535 620ZM411 529H530Q554 529 565.5 517.5Q577 506 577 481V238Q577 213 565.5 201Q554 189 530 189H411ZM438 372Q438 385 434 394Q430 403 421 407V199H438ZM656 -222Q675 -222 683.5 -213.5Q692 -205 692 -186V-93Q692 -74 683.5 -65.5Q675 -57 656 -57H309Q290 -57 281.5 -65.5Q273 -74 273 -93V-186Q273 -205 281.5 -213.5Q290 -222 309 -222ZM363 -135H602V-145H363Z" glyph-name="Dlinebelow" horiz-adv-x="846" unicode="&#7694;" /><glyph d="M555 -119H91Q67 -119 56 -108Q45 -97 45 -73V575Q45 588 48.5 597Q52 606 59 612L188 721Q193 725 201.5 727.5Q210 730 220 730H684Q708 730 719 719Q730 708 730 684V567Q730 554 726.5 545Q723 536 716 530L630 459Q640 454 644.5 444Q649 434 649 418V311Q649 298 645.5 289Q642 280 635 274L546 199H684Q708 199 719 188Q730 177 730 153V36Q730 23 726.5 14Q723 5 716 -1L586 -109Q582 -113 573.5 -116Q565 -119 555 -119ZM684 0Q703 0 711.5 8.5Q720 17 720 36V153Q720 172 711.5 180.5Q703 189 684 189H408V275H603Q622 275 630.5 283.5Q639 292 639 311V418Q639 437 630.5 445.5Q622 454 603 454H408V531H684Q703 531 711.5 539.5Q720 548 720 567V684Q720 703 711.5 711.5Q703 720 684 720H220Q201 720 192.5 711.5Q184 703 184 684V36Q184 17 192.5 8.5Q201 0 220 0ZM630 100V90H293V630H630V620H303V369H549V359H303V100Z" glyph-name="E" horiz-adv-x="754" unicode="E" /><glyph d="M690 -119H172Q148 -119 137 -108Q126 -97 126 -73V535Q126 548 129.5 557Q133 566 140 572L269 681Q274 685 282.5 687.5Q291 690 301 690H819Q843 690 854 679Q865 668 865 644V531Q865 518 861.5 509Q858 500 851 494L772 428Q778 423 781 414Q784 405 784 392V297Q784 284 780.5 275Q777 266 770 260L692 195H819Q843 195 854 184Q865 173 865 149V36Q865 23 861.5 14Q858 5 851 -1L721 -109Q717 -113 708.5 -116Q700 -119 690 -119ZM819 0Q838 0 846.5 8.5Q855 17 855 36V149Q855 168 846.5 176.5Q838 185 819 185H489V261H738Q757 261 765.5 269.5Q774 278 774 297V392Q774 411 765.5 419.5Q757 428 738 428H489V495H819Q838 495 846.5 503.5Q855 512 855 531V644Q855 663 846.5 671.5Q838 680 819 680H301Q282 680 273.5 671.5Q265 663 265 644V36Q265 17 273.5 8.5Q282 0 301 0ZM766 100V90H373V590H766V580H383V349H685V339H383V100Z" glyph-name="E.s_v" horiz-adv-x="1000" unicode="&#57929;" /><glyph d="M544 -119H290Q216 -119 166.5 -98.5Q117 -78 87.5 -44Q58 -10 46 34Q34 78 34 125V406Q34 457 48.5 499Q63 541 97 569L226 678Q255 703 302.5 716.5Q350 730 419 730H673Q697 730 708 719Q719 708 719 684V567Q719 554 715.5 545Q712 536 705 530L620 459Q630 455 634.5 444.5Q639 434 639 418V311Q639 298 635.5 289Q632 280 625 274L536 199H673Q697 199 708 188Q719 177 719 153V36Q719 23 715.5 14Q712 5 705 -1L575 -109Q571 -113 562.5 -116Q554 -119 544 -119ZM709 36V153Q709 172 700.5 180.5Q692 189 673 189H452Q413 189 402 202.5Q391 216 391 237V275H593Q612 275 620.5 283.5Q629 292 629 311V418Q629 437 620.5 445.5Q612 454 593 454H391V481Q391 500 402 515.5Q413 531 452 531H673Q692 531 700.5 539.5Q709 548 709 567V684Q709 703 700.5 711.5Q692 720 673 720H419Q278 720 225.5 663Q173 606 173 515V204Q173 114 225.5 57Q278 0 419 0H673Q692 0 700.5 8.5Q709 17 709 36ZM619 100V90H437Q340 90 308.5 120Q277 150 277 219V499Q277 570 309 600Q341 630 437 630H619V620H437Q349 620 318 592.5Q287 565 287 499V369H549V359H287V219Q287 154 317 127Q347 100 437 100Z" glyph-name="E.salt" horiz-adv-x="743" unicode="&#57610;" /><glyph d="M690 -119H378Q304 -119 254.5 -98.5Q205 -78 175.5 -44Q146 -10 134 34Q122 78 122 125V366Q122 417 136.5 459Q151 501 185 529L314 638Q343 663 390.5 676.5Q438 690 507 690H819Q843 690 854 679Q865 668 865 644V531Q865 518 861.5 509Q858 500 851 494L772 428Q778 423 781 414Q784 405 784 392V297Q784 284 780.5 275Q777 266 770 260L692 195H819Q843 195 854 184Q865 173 865 149V36Q865 23 861.5 14Q858 5 851 -1L721 -109Q717 -113 708.5 -116Q700 -119 690 -119ZM855 36V149Q855 168 846.5 176.5Q838 185 819 185H546Q507 185 496 198.5Q485 212 485 233V261H738Q757 261 765.5 269.5Q774 278 774 297V392Q774 411 765.5 419.5Q757 428 738 428H485V445Q485 464 496 479.5Q507 495 546 495H819Q838 495 846.5 503.5Q855 512 855 531V644Q855 663 846.5 671.5Q838 680 819 680H507Q366 680 313.5 623Q261 566 261 475V204Q261 114 313.5 57Q366 0 507 0H819Q838 0 846.5 8.5Q855 17 855 36ZM533 90Q436 90 404.5 120Q373 150 373 219V459Q373 530 405 560Q437 590 533 590H769V580H533Q445 580 414 552.5Q383 525 383 459V349H688V339H383V219Q383 154 413 127Q443 100 533 100H769V90Z" glyph-name="E.salt_s_v" horiz-adv-x="1000" unicode="&#57946;" /><glyph d="M691 -119H388Q314 -119 263 -97Q212 -75 181 -39.5Q150 -4 136 42Q122 88 122 135V406Q122 457 136.5 499Q151 541 185 569L314 678Q343 703 390.5 716.5Q438 730 507 730H820Q844 730 855 719Q866 708 866 684V567Q866 554 862.5 545Q859 536 852 530L766 459Q776 454 780.5 444Q785 434 785 418V311Q785 298 781.5 289Q778 280 771 274L682 199H820Q844 199 855 188Q866 177 866 153V36Q866 23 862.5 14Q859 5 852 -1L722 -109Q718 -113 709.5 -116Q701 -119 691 -119ZM856 36V153Q856 172 847.5 180.5Q839 189 820 189H547Q508 189 497 202.5Q486 216 486 237V275H739Q758 275 766.5 283.5Q775 292 775 311V418Q775 437 766.5 445.5Q758 454 739 454H486V481Q486 500 497 515.5Q508 531 547 531H820Q839 531 847.5 539.5Q856 548 856 567V684Q856 703 847.5 711.5Q839 720 820 720H507Q366 720 313.5 663Q261 606 261 515V204Q261 114 313.5 57Q366 0 507 0H820Q839 0 847.5 8.5Q856 17 856 36ZM533 90Q436 90 404.5 120Q373 150 373 219V499Q373 570 405 600Q437 630 533 630H769V620H533Q445 620 414 592.5Q383 565 383 499V369H688V359H383V219Q383 154 413 127Q443 100 533 100H769V90Z" glyph-name="E.salt_v" horiz-adv-x="1000" unicode="&#57847;" /><glyph d="M691 -119H173Q149 -119 138 -108Q127 -97 127 -73V575Q127 588 130.5 597Q134 606 141 612L270 721Q275 725 283.5 727.5Q292 730 302 730H820Q844 730 855 719Q866 708 866 684V567Q866 554 862.5 545Q859 536 852 530L766 459Q776 454 780.5 444Q785 434 785 418V311Q785 298 781.5 289Q778 280 771 274L682 199H820Q844 199 855 188Q866 177 866 153V36Q866 23 862.5 14Q859 5 852 -1L722 -109Q718 -113 709.5 -116Q701 -119 691 -119ZM820 0Q839 0 847.5 8.5Q856 17 856 36V153Q856 172 847.5 180.5Q839 189 820 189H490V275H739Q758 275 766.5 283.5Q775 292 775 311V418Q775 437 766.5 445.5Q758 454 739 454H490V531H820Q839 531 847.5 539.5Q856 548 856 567V684Q856 703 847.5 711.5Q839 720 820 720H302Q283 720 274.5 711.5Q266 703 266 684V36Q266 17 274.5 8.5Q283 0 302 0ZM766 100V90H373V630H766V620H383V369H685V359H383V100Z" glyph-name="E.v" horiz-adv-x="1000" unicode="&#65317;" /><glyph d="M555 -119H91Q67 -119 56 -108Q45 -97 45 -73V575Q45 588 48.5 597Q52 606 59 612L124 667Q123 669 123 671.5Q123 674 123 677V773Q123 786 126.5 794.5Q130 803 136 808L266 917Q270 921 278.5 924Q287 927 297 928L646 971Q668 974 679.5 962.5Q691 951 691 928V832Q691 819 687.5 810Q684 801 677 797L598 730H684Q708 730 719 719Q730 708 730 684V567Q730 554 726.5 545Q723 536 716 530L630 459Q640 454 644.5 444Q649 434 649 418V311Q649 298 645.5 289Q642 280 635 274L546 199H684Q708 199 719 188Q730 177 730 153V36Q730 23 726.5 14Q723 5 716 -1L586 -109Q582 -113 573.5 -116Q565 -119 555 -119ZM645 796Q664 798 672.5 805.5Q681 813 681 832V928Q681 945 672.5 954Q664 963 647 961L298 918Q279 916 270.5 908.5Q262 901 262 882V786Q262 769 270.5 760Q279 751 296 753ZM352 847 591 877V867L352 837ZM684 0Q703 0 711.5 8.5Q720 17 720 36V153Q720 172 711.5 180.5Q703 189 684 189H408V275H603Q622 275 630.5 283.5Q639 292 639 311V418Q639 437 630.5 445.5Q622 454 603 454H408V531H684Q703 531 711.5 539.5Q720 548 720 567V684Q720 703 711.5 711.5Q703 720 684 720H220Q201 720 192.5 711.5Q184 703 184 684V36Q184 17 192.5 8.5Q201 0 220 0ZM630 100V90H293V630H630V620H303V369H549V359H303V100Z" glyph-name="Eacute" horiz-adv-x="754" unicode="&#201;" /><glyph d="M544 -119H290Q216 -119 166.5 -98.5Q117 -78 87.5 -44Q58 -10 46 34Q34 78 34 125V406Q34 457 48.5 499Q63 541 97 569L175 635L168 634Q146 631 134.5 642.5Q123 654 123 677V773Q123 786 126.5 794.5Q130 803 136 808L266 917Q270 921 278.5 924Q287 927 297 928L646 971Q668 974 679.5 962.5Q691 951 691 928V832Q691 819 687.5 810Q684 801 677 797L597 730H673Q697 730 708 719Q719 708 719 684V567Q719 554 715.5 545Q712 536 705 530L620 459Q630 455 634.5 444.5Q639 434 639 418V311Q639 298 635.5 289Q632 280 625 274L536 199H673Q697 199 708 188Q719 177 719 153V36Q719 23 715.5 14Q712 5 705 -1L575 -109Q571 -113 562.5 -116Q554 -119 544 -119ZM645 796Q664 798 672.5 805.5Q681 813 681 832V928Q681 945 672.5 954Q664 963 647 961L298 918Q279 916 270.5 908.5Q262 901 262 882V786Q262 769 270.5 760Q279 751 296 753ZM352 847 591 877V867L352 837ZM709 36V153Q709 172 700.5 180.5Q692 189 673 189H452Q413 189 402 202.5Q391 216 391 237V275H593Q612 275 620.5 283.5Q629 292 629 311V418Q629 437 620.5 445.5Q612 454 593 454H391V481Q391 500 402 515.5Q413 531 452 531H673Q692 531 700.5 539.5Q709 548 709 567V684Q709 703 700.5 711.5Q692 720 673 720H419Q278 720 225.5 663Q173 606 173 515V204Q173 114 225.5 57Q278 0 419 0H673Q692 0 700.5 8.5Q709 17 709 36ZM619 100V90H437Q340 90 308.5 120Q277 150 277 219V499Q277 570 309 600Q341 630 437 630H619V620H437Q349 620 318 592.5Q287 565 287 499V369H549V359H287V219Q287 154 317 127Q347 100 437 100Z" glyph-name="Eacute.salt" horiz-adv-x="743" unicode="&#57612;" /><glyph d="M690 -119H378Q304 -119 254.5 -98.5Q205 -78 175.5 -44Q146 -10 134 34Q122 78 122 125V366Q122 417 136.5 459Q151 501 185 529L262 594H261Q239 591 227.5 602.5Q216 614 216 637V733Q216 746 219.5 754.5Q223 763 229 768L359 877Q363 881 371.5 884Q380 887 390 888L739 931Q761 934 772.5 922.5Q784 911 784 888V792Q784 779 780.5 770Q777 761 770 757L691 690H819Q843 690 854 679Q865 668 865 644V531Q865 518 861.5 509Q858 500 851 494L772 428Q778 423 781 414Q784 405 784 392V297Q784 284 780.5 275Q777 266 770 260L692 195H819Q843 195 854 184Q865 173 865 149V36Q865 23 861.5 14Q858 5 851 -1L721 -109Q717 -113 708.5 -116Q700 -119 690 -119ZM738 756Q757 758 765.5 765.5Q774 773 774 792V888Q774 905 765.5 914Q757 923 740 921L391 878Q372 876 363.5 868.5Q355 861 355 842V746Q355 729 363.5 720Q372 711 389 713ZM445 807 684 837V827L445 797ZM855 36V149Q855 168 846.5 176.5Q838 185 819 185H546Q507 185 496 198.5Q485 212 485 233V261H738Q757 261 765.5 269.5Q774 278 774 297V392Q774 411 765.5 419.5Q757 428 738 428H485V445Q485 464 496 479.5Q507 495 546 495H819Q838 495 846.5 503.5Q855 512 855 531V644Q855 663 846.5 671.5Q838 680 819 680H507Q366 680 313.5 623Q261 566 261 475V204Q261 114 313.5 57Q366 0 507 0H819Q838 0 846.5 8.5Q855 17 855 36ZM533 90Q436 90 404.5 120Q373 150 373 219V459Q373 530 405 560Q437 590 533 590H769V580H533Q445 580 414 552.5Q383 525 383 459V349H688V339H383V219Q383 154 413 127Q443 100 533 100H769V90Z" glyph-name="Eacute.salt_v" horiz-adv-x="1000" unicode="&#57849;" /><glyph d="M690 -119H172Q148 -119 137 -108Q126 -97 126 -73V535Q126 548 129.5 557Q133 566 140 572L216 636V733Q216 746 219.5 754.5Q223 763 229 768L359 877Q363 881 371.5 884Q380 887 390 888L739 931Q761 934 772.5 922.5Q784 911 784 888V792Q784 779 780.5 770Q777 761 770 757L691 690H819Q843 690 854 679Q865 668 865 644V531Q865 518 861.5 509Q858 500 851 494L772 428Q778 423 781 414Q784 405 784 392V297Q784 284 780.5 275Q777 266 770 260L692 195H819Q843 195 854 184Q865 173 865 149V36Q865 23 861.5 14Q858 5 851 -1L721 -109Q717 -113 708.5 -116Q700 -119 690 -119ZM738 756Q757 758 765.5 765.5Q774 773 774 792V888Q774 905 765.5 914Q757 923 740 921L391 878Q372 876 363.5 868.5Q355 861 355 842V746Q355 729 363.5 720Q372 711 389 713ZM445 807 684 837V827L445 797ZM819 0Q838 0 846.5 8.5Q855 17 855 36V149Q855 168 846.5 176.5Q838 185 819 185H489V261H738Q757 261 765.5 269.5Q774 278 774 297V392Q774 411 765.5 419.5Q757 428 738 428H489V495H819Q838 495 846.5 503.5Q855 512 855 531V644Q855 663 846.5 671.5Q838 680 819 680H301Q282 680 273.5 671.5Q265 663 265 644V36Q265 17 273.5 8.5Q282 0 301 0ZM766 100V90H373V590H766V580H383V349H685V339H383V100Z" glyph-name="Eacute.v" horiz-adv-x="1000" unicode="&#57754;" /><glyph d="M555 -119H91Q67 -119 56 -108Q45 -97 45 -73V575Q45 588 48.5 597Q52 606 59 612L143 683Q122 703 114 730Q106 757 106 788V832Q106 845 109.5 854Q113 863 120 869L249 978Q254 982 262.5 984.5Q271 987 281 987H377Q398 987 407 978.5Q416 970 416 946V925Q416 918 420 912.5Q424 907 434 905L524 980L523 979Q527 983 534 985Q541 987 552 987H643Q667 987 678 976Q689 965 689 941V897Q689 864 679.5 836Q670 808 645 788L575 730H684Q708 730 719 719Q730 708 730 684V567Q730 554 726.5 545Q723 536 716 530L630 459Q640 454 644.5 444Q649 434 649 418V311Q649 298 645.5 289Q642 280 635 274L546 199H684Q708 199 719 188Q730 177 730 153V36Q730 23 726.5 14Q723 5 716 -1L586 -109Q582 -113 573.5 -116Q565 -119 555 -119ZM679 897V941Q679 960 670.5 968.5Q662 977 643 977H552Q535 977 528.5 970.5Q522 964 522 946V925Q522 911 511 901.5Q500 892 463 892Q426 892 416 901.5Q406 911 406 925V946Q406 964 399.5 970.5Q393 977 377 977H281Q262 977 253.5 968.5Q245 960 245 941V897Q245 865 254.5 838.5Q264 812 288.5 793.5Q313 775 355 764.5Q397 754 462 754Q527 754 569 764.5Q611 775 635.5 793.5Q660 812 669.5 838.5Q679 865 679 897ZM596 907H606V898Q606 884 600.5 869.5Q595 855 580 843.5Q565 832 536 825Q507 818 461 818Q415 818 387 825Q359 832 344.5 843.5Q330 855 325.5 869.5Q321 884 321 898V907H331V898Q331 871 355.5 849.5Q380 828 461 828Q542 828 569 849.5Q596 871 596 898ZM684 0Q703 0 711.5 8.5Q720 17 720 36V153Q720 172 711.5 180.5Q703 189 684 189H408V275H603Q622 275 630.5 283.5Q639 292 639 311V418Q639 437 630.5 445.5Q622 454 603 454H408V531H684Q703 531 711.5 539.5Q720 548 720 567V684Q720 703 711.5 711.5Q703 720 684 720H220Q201 720 192.5 711.5Q184 703 184 684V36Q184 17 192.5 8.5Q201 0 220 0ZM630 100V90H293V630H630V620H303V369H549V359H303V100Z" glyph-name="Ebreve" horiz-adv-x="754" unicode="&#276;" /><glyph d="M544 -119H290Q216 -119 166.5 -98.5Q117 -78 87.5 -44Q58 -10 46 34Q34 78 34 125V406Q34 457 48.5 499Q63 541 97 569L200 656Q151 675 133.5 709.5Q116 744 116 788V832Q116 845 119.5 854Q123 863 130 869L259 978Q264 982 272.5 984.5Q281 987 291 987H387Q408 987 417 978.5Q426 970 426 946V925Q426 918 430 912.5Q434 907 444 905L534 980L533 979Q537 983 544 985Q551 987 562 987H653Q677 987 688 976Q699 965 699 941V897Q699 864 689.5 836Q680 808 655 788L586 730H673Q697 730 708 719Q719 708 719 684V567Q719 554 715.5 545Q712 536 705 530L620 459Q630 455 634.5 444.5Q639 434 639 418V311Q639 298 635.5 289Q632 280 625 274L536 199H673Q697 199 708 188Q719 177 719 153V36Q719 23 715.5 14Q712 5 705 -1L575 -109Q571 -113 562.5 -116Q554 -119 544 -119ZM689 897V941Q689 960 680.5 968.5Q672 977 653 977H562Q545 977 538.5 970.5Q532 964 532 946V925Q532 911 521 901.5Q510 892 473 892Q436 892 426 901.5Q416 911 416 925V946Q416 964 409.5 970.5Q403 977 387 977H291Q272 977 263.5 968.5Q255 960 255 941V897Q255 865 264.5 838.5Q274 812 298.5 793.5Q323 775 365 764.5Q407 754 472 754Q537 754 579 764.5Q621 775 645.5 793.5Q670 812 679.5 838.5Q689 865 689 897ZM606 907H616V898Q616 884 610.5 869.5Q605 855 590 843.5Q575 832 546 825Q517 818 471 818Q425 818 397 825Q369 832 354.5 843.5Q340 855 335.5 869.5Q331 884 331 898V907H341V898Q341 871 365.5 849.5Q390 828 471 828Q552 828 579 849.5Q606 871 606 898ZM709 36V153Q709 172 700.5 180.5Q692 189 673 189H452Q413 189 402 202.5Q391 216 391 237V275H593Q612 275 620.5 283.5Q629 292 629 311V418Q629 437 620.5 445.5Q612 454 593 454H391V481Q391 500 402 515.5Q413 531 452 531H673Q692 531 700.5 539.5Q709 548 709 567V684Q709 703 700.5 711.5Q692 720 673 720H419Q278 720 225.5 663Q173 606 173 515V204Q173 114 225.5 57Q278 0 419 0H673Q692 0 700.5 8.5Q709 17 709 36ZM619 100V90H437Q340 90 308.5 120Q277 150 277 219V499Q277 570 309 600Q341 630 437 630H619V620H437Q349 620 318 592.5Q287 565 287 499V369H549V359H287V219Q287 154 317 127Q347 100 437 100Z" glyph-name="Ebreve.salt" horiz-adv-x="743" unicode="&#57616;" /><glyph d="M690 -119H378Q304 -119 254.5 -98.5Q205 -78 175.5 -44Q146 -10 134 34Q122 78 122 125V366Q122 417 136.5 459Q151 501 185 529L289 617Q243 636 226 670.5Q209 705 209 748V792Q209 805 212.5 814Q216 823 223 829L352 938Q357 942 365.5 944.5Q374 947 384 947H480Q501 947 510 938.5Q519 930 519 906V885Q519 878 523 872.5Q527 867 537 865L627 940L626 939Q630 943 637 945Q644 947 655 947H746Q770 947 781 936Q792 925 792 901V857Q792 824 782.5 796Q773 768 748 748L678 690H819Q843 690 854 679Q865 668 865 644V531Q865 518 861.5 509Q858 500 851 494L772 428Q778 423 781 414Q784 405 784 392V297Q784 284 780.5 275Q777 266 770 260L692 195H819Q843 195 854 184Q865 173 865 149V36Q865 23 861.5 14Q858 5 851 -1L721 -109Q717 -113 708.5 -116Q700 -119 690 -119ZM782 857V901Q782 920 773.5 928.5Q765 937 746 937H655Q638 937 631.5 930.5Q625 924 625 906V885Q625 871 614 861.5Q603 852 566 852Q529 852 519 861.5Q509 871 509 885V906Q509 924 502.5 930.5Q496 937 480 937H384Q365 937 356.5 928.5Q348 920 348 901V857Q348 825 357.5 798.5Q367 772 391.5 753.5Q416 735 458 724.5Q500 714 565 714Q630 714 672 724.5Q714 735 738.5 753.5Q763 772 772.5 798.5Q782 825 782 857ZM699 867H709V858Q709 844 703.5 829.5Q698 815 683 803.5Q668 792 639 785Q610 778 564 778Q518 778 490 785Q462 792 447.5 803.5Q433 815 428.5 829.5Q424 844 424 858V867H434V858Q434 831 458.5 809.5Q483 788 564 788Q645 788 672 809.5Q699 831 699 858ZM855 36V149Q855 168 846.5 176.5Q838 185 819 185H546Q507 185 496 198.5Q485 212 485 233V261H738Q757 261 765.5 269.5Q774 278 774 297V392Q774 411 765.5 419.5Q757 428 738 428H485V445Q485 464 496 479.5Q507 495 546 495H819Q838 495 846.5 503.5Q855 512 855 531V644Q855 663 846.5 671.5Q838 680 819 680H507Q366 680 313.5 623Q261 566 261 475V204Q261 114 313.5 57Q366 0 507 0H819Q838 0 846.5 8.5Q855 17 855 36ZM533 90Q436 90 404.5 120Q373 150 373 219V459Q373 530 405 560Q437 590 533 590H769V580H533Q445 580 414 552.5Q383 525 383 459V349H688V339H383V219Q383 154 413 127Q443 100 533 100H769V90Z" glyph-name="Ebreve.salt_v" horiz-adv-x="1000" unicode="&#57853;" /><glyph d="M690 -119H172Q148 -119 137 -108Q126 -97 126 -73V535Q126 548 129.5 557Q133 566 140 572L237 654Q221 673 215 696.5Q209 720 209 748V792Q209 805 212.5 814Q216 823 223 829L352 938Q357 942 365.5 944.5Q374 947 384 947H480Q501 947 510 938.5Q519 930 519 906V885Q519 878 523 872.5Q527 867 537 865L627 940L626 939Q630 943 637 945Q644 947 655 947H746Q770 947 781 936Q792 925 792 901V857Q792 824 782.5 796Q773 768 748 748L679 690H819Q843 690 854 679Q865 668 865 644V531Q865 518 861.5 509Q858 500 851 494L772 428Q778 423 781 414Q784 405 784 392V297Q784 284 780.5 275Q777 266 770 260L692 195H819Q843 195 854 184Q865 173 865 149V36Q865 23 861.5 14Q858 5 851 -1L721 -109Q717 -113 708.5 -116Q700 -119 690 -119ZM782 857V901Q782 920 773.5 928.5Q765 937 746 937H655Q638 937 631.5 930.5Q625 924 625 906V885Q625 871 614 861.5Q603 852 566 852Q529 852 519 861.5Q509 871 509 885V906Q509 924 502.5 930.5Q496 937 480 937H384Q365 937 356.5 928.5Q348 920 348 901V857Q348 825 357.5 798.5Q367 772 391.5 753.5Q416 735 458 724.5Q500 714 565 714Q630 714 672 724.5Q714 735 738.5 753.5Q763 772 772.5 798.5Q782 825 782 857ZM699 867H709V858Q709 844 703.5 829.5Q698 815 683 803.5Q668 792 639 785Q610 778 564 778Q518 778 490 785Q462 792 447.5 803.5Q433 815 428.5 829.5Q424 844 424 858V867H434V858Q434 831 458.5 809.5Q483 788 564 788Q645 788 672 809.5Q699 831 699 858ZM819 0Q838 0 846.5 8.5Q855 17 855 36V149Q855 168 846.5 176.5Q838 185 819 185H489V261H738Q757 261 765.5 269.5Q774 278 774 297V392Q774 411 765.5 419.5Q757 428 738 428H489V495H819Q838 495 846.5 503.5Q855 512 855 531V644Q855 663 846.5 671.5Q838 680 819 680H301Q282 680 273.5 671.5Q265 663 265 644V36Q265 17 273.5 8.5Q282 0 301 0ZM766 100V90H373V590H766V580H383V349H685V339H383V100Z" glyph-name="Ebreve.v" horiz-adv-x="1000" unicode="&#57758;" /><glyph d="M555 -119H91Q67 -119 56 -108Q45 -97 45 -73V575Q45 588 48.5 597Q52 606 59 612L153 691Q126 701 118 711Q110 721 110 751V832Q110 849 112.5 859Q115 869 121 873L250 982Q255 986 265.5 986.5Q276 987 294 982L431 942Q447 938 459 938Q471 938 487 942L624 982Q657 992 667.5 984.5Q678 977 678 941V860Q678 841 674 831Q670 821 662 814L562 730H684Q708 730 719 719Q730 708 730 684V567Q730 554 726.5 545Q723 536 716 530L630 459Q640 454 644.5 444Q649 434 649 418V311Q649 298 645.5 289Q642 280 635 274L546 199H684Q708 199 719 188Q730 177 730 153V36Q730 23 726.5 14Q723 5 716 -1L586 -109Q582 -113 573.5 -116Q565 -119 555 -119ZM490 932Q473 928 459 928Q445 928 428 932L291 972Q265 980 257 974Q249 968 249 941V860Q249 833 257.5 825Q266 817 291 807L428 757Q435 754 443 753Q451 752 460 752Q469 753 479.5 755Q490 757 499 761L627 807Q651 817 659.5 825Q668 833 668 860V941Q668 968 660 974Q652 980 627 972ZM339 879 426 851Q433 849 440.5 847Q448 845 458 845Q468 845 475.5 847Q483 849 490 851L577 879V868L494 841Q485 839 477 837Q469 835 458 835Q447 835 439 837Q431 839 422 841L339 868ZM684 0Q703 0 711.5 8.5Q720 17 720 36V153Q720 172 711.5 180.5Q703 189 684 189H408V275H603Q622 275 630.5 283.5Q639 292 639 311V418Q639 437 630.5 445.5Q622 454 603 454H408V531H684Q703 531 711.5 539.5Q720 548 720 567V684Q720 703 711.5 711.5Q703 720 684 720H220Q201 720 192.5 711.5Q184 703 184 684V36Q184 17 192.5 8.5Q201 0 220 0ZM630 100V90H293V630H630V620H303V369H549V359H303V100Z" glyph-name="Ecaron" horiz-adv-x="754" unicode="&#282;" /><glyph d="M544 -119H290Q216 -119 166.5 -98.5Q117 -78 87.5 -44Q58 -10 46 34Q34 78 34 125V406Q34 457 48.5 499Q63 541 97 569L218 671L168 689Q138 700 129 710Q120 720 120 751V832Q120 849 122.5 859Q125 869 131 873L260 982Q265 986 275.5 986.5Q286 987 304 982L441 942Q457 938 469 938Q481 938 497 942L634 982Q667 992 677.5 984.5Q688 977 688 941V860Q688 841 684 831Q680 821 672 814L573 730H673Q697 730 708 719Q719 708 719 684V567Q719 554 715.5 545Q712 536 705 530L620 459Q630 455 634.5 444.5Q639 434 639 418V311Q639 298 635.5 289Q632 280 625 274L536 199H673Q697 199 708 188Q719 177 719 153V36Q719 23 715.5 14Q712 5 705 -1L575 -109Q571 -113 562.5 -116Q554 -119 544 -119ZM500 932Q483 928 469 928Q455 928 438 932L301 972Q275 980 267 974Q259 968 259 941V860Q259 833 267.5 825Q276 817 301 807L438 757Q445 754 453 753Q461 752 470 752Q479 753 489.5 755Q500 757 509 761L637 807Q661 817 669.5 825Q678 833 678 860V941Q678 968 670 974Q662 980 637 972ZM349 879 436 851Q443 849 450.5 847Q458 845 468 845Q478 845 485.5 847Q493 849 500 851L587 879V868L504 841Q495 839 487 837Q479 835 468 835Q457 835 449 837Q441 839 432 841L349 868ZM709 36V153Q709 172 700.5 180.5Q692 189 673 189H452Q413 189 402 202.5Q391 216 391 237V275H593Q612 275 620.5 283.5Q629 292 629 311V418Q629 437 620.5 445.5Q612 454 593 454H391V481Q391 500 402 515.5Q413 531 452 531H673Q692 531 700.5 539.5Q709 548 709 567V684Q709 703 700.5 711.5Q692 720 673 720H419Q278 720 225.5 663Q173 606 173 515V204Q173 114 225.5 57Q278 0 419 0H673Q692 0 700.5 8.5Q709 17 709 36ZM619 100V90H437Q340 90 308.5 120Q277 150 277 219V499Q277 570 309 600Q341 630 437 630H619V620H437Q349 620 318 592.5Q287 565 287 499V369H549V359H287V219Q287 154 317 127Q347 100 437 100Z" glyph-name="Ecaron.salt" horiz-adv-x="743" unicode="&#57619;" /><glyph d="M690 -119H378Q304 -119 254.5 -98.5Q205 -78 175.5 -44Q146 -10 134 34Q122 78 122 125V366Q122 417 136.5 459Q151 501 185 529L308 633L264 649Q234 660 225 670Q216 680 216 711V792Q216 809 218.5 819Q221 829 227 833L356 942Q361 946 371.5 946.5Q382 947 400 942L537 902Q553 898 565 898Q577 898 593 902L730 942Q763 952 773.5 944.5Q784 937 784 901V820Q784 801 780 791Q776 781 768 774L668 690H819Q843 690 854 679Q865 668 865 644V531Q865 518 861.5 509Q858 500 851 494L772 428Q778 423 781 414Q784 405 784 392V297Q784 284 780.5 275Q777 266 770 260L692 195H819Q843 195 854 184Q865 173 865 149V36Q865 23 861.5 14Q858 5 851 -1L721 -109Q717 -113 708.5 -116Q700 -119 690 -119ZM596 892Q579 888 565 888Q551 888 534 892L397 932Q371 940 363 934Q355 928 355 901V820Q355 793 363.5 785Q372 777 397 767L534 717Q541 714 549 713Q557 712 566 712Q575 713 585.5 715Q596 717 605 721L733 767Q757 777 765.5 785Q774 793 774 820V901Q774 928 766 934Q758 940 733 932ZM445 839 532 811Q539 809 546.5 807Q554 805 564 805Q574 805 581.5 807Q589 809 596 811L683 839V828L600 801Q591 799 583 797Q575 795 564 795Q553 795 545 797Q537 799 528 801L445 828ZM855 36V149Q855 168 846.5 176.5Q838 185 819 185H546Q507 185 496 198.5Q485 212 485 233V261H738Q757 261 765.5 269.5Q774 278 774 297V392Q774 411 765.5 419.5Q757 428 738 428H485V445Q485 464 496 479.5Q507 495 546 495H819Q838 495 846.5 503.5Q855 512 855 531V644Q855 663 846.5 671.5Q838 680 819 680H507Q366 680 313.5 623Q261 566 261 475V204Q261 114 313.5 57Q366 0 507 0H819Q838 0 846.5 8.5Q855 17 855 36ZM533 90Q436 90 404.5 120Q373 150 373 219V459Q373 530 405 560Q437 590 533 590H769V580H533Q445 580 414 552.5Q383 525 383 459V349H688V339H383V219Q383 154 413 127Q443 100 533 100H769V90Z" glyph-name="Ecaron.salt_v" horiz-adv-x="1000" unicode="&#57856;" /><glyph d="M690 -119H172Q148 -119 137 -108Q126 -97 126 -73V535Q126 548 129.5 557Q133 566 140 572L242 658Q226 665 221 676Q216 687 216 711V792Q216 809 218.5 819Q221 829 227 833L356 942Q361 946 371.5 946.5Q382 947 400 942L537 902Q553 898 565 898Q577 898 593 902L730 942Q763 952 773.5 944.5Q784 937 784 901V820Q784 801 780 791Q776 781 768 774L669 690H819Q843 690 854 679Q865 668 865 644V531Q865 518 861.5 509Q858 500 851 494L772 428Q778 423 781 414Q784 405 784 392V297Q784 284 780.5 275Q777 266 770 260L692 195H819Q843 195 854 184Q865 173 865 149V36Q865 23 861.5 14Q858 5 851 -1L721 -109Q717 -113 708.5 -116Q700 -119 690 -119ZM596 892Q579 888 565 888Q551 888 534 892L397 932Q371 940 363 934Q355 928 355 901V820Q355 793 363.5 785Q372 777 397 767L534 717Q541 714 549 713Q557 712 566 712Q575 713 585.5 715Q596 717 605 721L733 767Q757 777 765.5 785Q774 793 774 820V901Q774 928 766 934Q758 940 733 932ZM445 839 532 811Q539 809 546.5 807Q554 805 564 805Q574 805 581.5 807Q589 809 596 811L683 839V828L600 801Q591 799 583 797Q575 795 564 795Q553 795 545 797Q537 799 528 801L445 828ZM819 0Q838 0 846.5 8.5Q855 17 855 36V149Q855 168 846.5 176.5Q838 185 819 185H489V261H738Q757 261 765.5 269.5Q774 278 774 297V392Q774 411 765.5 419.5Q757 428 738 428H489V495H819Q838 495 846.5 503.5Q855 512 855 531V644Q855 663 846.5 671.5Q838 680 819 680H301Q282 680 273.5 671.5Q265 663 265 644V36Q265 17 273.5 8.5Q282 0 301 0ZM766 100V90H373V590H766V580H383V349H685V339H383V100Z" glyph-name="Ecaron.v" horiz-adv-x="1000" unicode="&#57761;" /><glyph d="M555 -119H91Q67 -119 56 -108Q45 -97 45 -73V575Q45 588 48.5 597Q52 606 59 612L105 651Q104 656 103.5 663Q103 670 103 679V760Q103 779 106.5 789Q110 799 117 806L248 915L247 914Q252 919 260.5 923Q269 927 280 931L407 977Q417 981 428.5 983.5Q440 986 450 987Q460 987 469 986Q478 985 485 981L623 931Q653 920 662 910Q671 900 671 869V788Q671 772 668 762Q665 752 661 748L660 747L640 730H684Q708 730 719 719Q730 708 730 684V567Q730 554 726.5 545Q723 536 716 530L630 459Q640 454 644.5 444Q649 434 649 418V311Q649 298 645.5 289Q642 280 635 274L546 199H684Q708 199 719 188Q730 177 730 153V36Q730 23 726.5 14Q723 5 716 -1L586 -109Q582 -113 573.5 -116Q565 -119 555 -119ZM570 850 483 878Q476 880 468.5 882Q461 884 451 884Q441 884 433.5 882Q426 880 419 878L332 850V861L415 888Q424 890 432 892Q440 894 451 894Q462 894 470 892Q478 890 487 888L570 861ZM420 797Q437 801 451 801Q465 801 482 797L619 757Q645 749 653 755Q661 761 661 788V869Q661 896 652.5 904Q644 912 619 922L482 972Q475 975 467 976Q459 977 450 977Q441 976 430.5 974Q420 972 411 968L283 922Q259 912 250.5 904Q242 896 242 869V788Q242 761 250 755Q258 749 283 757ZM684 0Q703 0 711.5 8.5Q720 17 720 36V153Q720 172 711.5 180.5Q703 189 684 189H408V275H603Q622 275 630.5 283.5Q639 292 639 311V418Q639 437 630.5 445.5Q622 454 603 454H408V531H684Q703 531 711.5 539.5Q720 548 720 567V684Q720 703 711.5 711.5Q703 720 684 720H220Q201 720 192.5 711.5Q184 703 184 684V36Q184 17 192.5 8.5Q201 0 220 0ZM630 100V90H293V630H630V620H303V369H549V359H303V100Z" glyph-name="Ecircumflex" horiz-adv-x="754" unicode="&#202;" /><glyph d="M544 -119H290Q216 -119 166.5 -98.5Q117 -78 87.5 -44Q58 -10 46 34Q34 78 34 125V406Q34 457 48.5 499Q63 541 97 569L185 643L167 638Q134 628 123.5 635.5Q113 643 113 679V760Q113 779 116.5 789Q120 799 127 806L258 915L257 914Q262 919 270.5 923Q279 927 290 931L417 977Q427 981 438.5 983.5Q450 986 460 987Q470 987 479 986Q488 985 495 981L633 931Q663 920 672 910Q681 900 681 869V788Q681 772 678 762Q675 752 671 748L670 747L649 730H673Q697 730 708 719Q719 708 719 684V567Q719 554 715.5 545Q712 536 705 530L620 459Q630 455 634.5 444.5Q639 434 639 418V311Q639 298 635.5 289Q632 280 625 274L536 199H673Q697 199 708 188Q719 177 719 153V36Q719 23 715.5 14Q712 5 705 -1L575 -109Q571 -113 562.5 -116Q554 -119 544 -119ZM580 850 493 878Q486 880 478.5 882Q471 884 461 884Q451 884 443.5 882Q436 880 429 878L342 850V861L425 888Q434 890 442 892Q450 894 461 894Q472 894 480 892Q488 890 497 888L580 861ZM430 797Q447 801 461 801Q475 801 492 797L629 757Q655 749 663 755Q671 761 671 788V869Q671 896 662.5 904Q654 912 629 922L492 972Q485 975 477 976Q469 977 460 977Q451 976 440.5 974Q430 972 421 968L293 922Q269 912 260.5 904Q252 896 252 869V788Q252 761 260 755Q268 749 293 757ZM709 36V153Q709 172 700.5 180.5Q692 189 673 189H452Q413 189 402 202.5Q391 216 391 237V275H593Q612 275 620.5 283.5Q629 292 629 311V418Q629 437 620.5 445.5Q612 454 593 454H391V481Q391 500 402 515.5Q413 531 452 531H673Q692 531 700.5 539.5Q709 548 709 567V684Q709 703 700.5 711.5Q692 720 673 720H419Q278 720 225.5 663Q173 606 173 515V204Q173 114 225.5 57Q278 0 419 0H673Q692 0 700.5 8.5Q709 17 709 36ZM619 100V90H437Q340 90 308.5 120Q277 150 277 219V499Q277 570 309 600Q341 630 437 630H619V620H437Q349 620 318 592.5Q287 565 287 499V369H549V359H287V219Q287 154 317 127Q347 100 437 100Z" glyph-name="Ecircumflex.salt" horiz-adv-x="743" unicode="&#57613;" /><glyph d="M690 -119H378Q304 -119 254.5 -98.5Q205 -78 175.5 -44Q146 -10 134 34Q122 78 122 125V366Q122 417 136.5 459Q151 501 185 529L265 596Q235 588 225.5 596.5Q216 605 216 639V720Q216 739 219.5 749Q223 759 230 766L361 875L360 874Q365 879 373.5 883Q382 887 393 891L520 937Q530 941 541.5 943.5Q553 946 563 947Q573 947 582 946Q591 945 598 941L736 891Q766 880 775 870Q784 860 784 829V748Q784 732 781 722Q778 712 774 708L773 707L752 690H819Q843 690 854 679Q865 668 865 644V531Q865 518 861.5 509Q858 500 851 494L772 428Q778 423 781 414Q784 405 784 392V297Q784 284 780.5 275Q777 266 770 260L692 195H819Q843 195 854 184Q865 173 865 149V36Q865 23 861.5 14Q858 5 851 -1L721 -109Q717 -113 708.5 -116Q700 -119 690 -119ZM683 810 596 838Q589 840 581.5 842Q574 844 564 844Q554 844 546.5 842Q539 840 532 838L445 810V821L528 848Q537 850 545 852Q553 854 564 854Q575 854 583 852Q591 850 600 848L683 821ZM533 757Q550 761 564 761Q578 761 595 757L732 717Q758 709 766 715Q774 721 774 748V829Q774 856 765.5 864Q757 872 732 882L595 932Q588 935 580 936Q572 937 563 937Q554 936 543.5 934Q533 932 524 928L396 882Q372 872 363.5 864Q355 856 355 829V748Q355 721 363 715Q371 709 396 717ZM855 36V149Q855 168 846.5 176.5Q838 185 819 185H546Q507 185 496 198.5Q485 212 485 233V261H738Q757 261 765.5 269.5Q774 278 774 297V392Q774 411 765.5 419.5Q757 428 738 428H485V445Q485 464 496 479.5Q507 495 546 495H819Q838 495 846.5 503.5Q855 512 855 531V644Q855 663 846.5 671.5Q838 680 819 680H507Q366 680 313.5 623Q261 566 261 475V204Q261 114 313.5 57Q366 0 507 0H819Q838 0 846.5 8.5Q855 17 855 36ZM533 90Q436 90 404.5 120Q373 150 373 219V459Q373 530 405 560Q437 590 533 590H769V580H533Q445 580 414 552.5Q383 525 383 459V349H688V339H383V219Q383 154 413 127Q443 100 533 100H769V90Z" glyph-name="Ecircumflex.salt_v" horiz-adv-x="1000" unicode="&#57850;" /><glyph d="M690 -119H172Q148 -119 137 -108Q126 -97 126 -73V535Q126 548 129.5 557Q133 566 140 572L216 636V720Q216 739 219.5 749Q223 759 230 766L361 875L360 874Q365 879 373.5 883Q382 887 393 891L520 937Q530 941 541.5 943.5Q553 946 563 947Q573 947 582 946Q591 945 598 941L736 891Q766 880 775 870Q784 860 784 829V748Q784 732 781 722Q778 712 774 708L773 707L752 690H819Q843 690 854 679Q865 668 865 644V531Q865 518 861.5 509Q858 500 851 494L772 428Q778 423 781 414Q784 405 784 392V297Q784 284 780.5 275Q777 266 770 260L692 195H819Q843 195 854 184Q865 173 865 149V36Q865 23 861.5 14Q858 5 851 -1L721 -109Q717 -113 708.5 -116Q700 -119 690 -119ZM683 810 596 838Q589 840 581.5 842Q574 844 564 844Q554 844 546.5 842Q539 840 532 838L445 810V821L528 848Q537 850 545 852Q553 854 564 854Q575 854 583 852Q591 850 600 848L683 821ZM533 757Q550 761 564 761Q578 761 595 757L732 717Q758 709 766 715Q774 721 774 748V829Q774 856 765.5 864Q757 872 732 882L595 932Q588 935 580 936Q572 937 563 937Q554 936 543.5 934Q533 932 524 928L396 882Q372 872 363.5 864Q355 856 355 829V748Q355 721 363 715Q371 709 396 717ZM819 0Q838 0 846.5 8.5Q855 17 855 36V149Q855 168 846.5 176.5Q838 185 819 185H489V261H738Q757 261 765.5 269.5Q774 278 774 297V392Q774 411 765.5 419.5Q757 428 738 428H489V495H819Q838 495 846.5 503.5Q855 512 855 531V644Q855 663 846.5 671.5Q838 680 819 680H301Q282 680 273.5 671.5Q265 663 265 644V36Q265 17 273.5 8.5Q282 0 301 0ZM766 100V90H373V590H766V580H383V349H685V339H383V100Z" glyph-name="Ecircumflex.v" horiz-adv-x="1000" unicode="&#57755;" /><glyph d="M667 1202 530 1169Q512 1165 503 1158.5Q494 1152 494 1133V1027Q494 1010 503 1000Q512 990 528 994L665 1027Q683 1031 692 1037.5Q701 1044 701 1063V1169Q701 1186 692 1196Q683 1206 667 1202ZM640 1104 553 1083V1093L640 1114ZM555 -119H91Q67 -119 56 -108Q45 -97 45 -73V575Q45 588 48.5 597Q52 606 59 612L105 651Q104 656 103.5 663Q103 670 103 679V760Q103 779 106.5 789Q110 799 117 806L248 915L247 914Q252 919 260.5 923Q269 927 280 931L355 958V1024Q355 1037 358.5 1045Q362 1053 368 1058L497 1166Q502 1170 510 1173Q518 1176 528 1179L665 1212Q686 1216 698.5 1204.5Q711 1193 711 1169V1063Q711 1050 707.5 1042.5Q704 1035 698 1030L593 942L623 931Q653 920 662 910Q671 900 671 869V788Q671 772 668 762Q665 752 661 748L660 747L640 730H684Q708 730 719 719Q730 708 730 684V567Q730 554 726.5 545Q723 536 716 530L630 459Q640 454 644.5 444Q649 434 649 418V311Q649 298 645.5 289Q642 280 635 274L546 199H684Q708 199 719 188Q730 177 730 153V36Q730 23 726.5 14Q723 5 716 -1L586 -109Q582 -113 573.5 -116Q565 -119 555 -119ZM570 850 483 878Q476 880 468.5 882Q461 884 451 884Q441 884 433.5 882Q426 880 419 878L332 850V861L415 888Q424 890 432 892Q440 894 451 894Q462 894 470 892Q478 890 487 888L570 861ZM420 797Q437 801 451 801Q465 801 482 797L619 757Q645 749 653 755Q661 761 661 788V869Q661 896 652.5 904Q644 912 619 922L482 972Q475 975 467 976Q459 977 450 977Q441 976 430.5 974Q420 972 411 968L283 922Q259 912 250.5 904Q242 896 242 869V788Q242 761 250 755Q258 749 283 757ZM684 0Q703 0 711.5 8.5Q720 17 720 36V153Q720 172 711.5 180.5Q703 189 684 189H408V275H603Q622 275 630.5 283.5Q639 292 639 311V418Q639 437 630.5 445.5Q622 454 603 454H408V531H684Q703 531 711.5 539.5Q720 548 720 567V684Q720 703 711.5 711.5Q703 720 684 720H220Q201 720 192.5 711.5Q184 703 184 684V36Q184 17 192.5 8.5Q201 0 220 0ZM630 100V90H293V630H630V620H303V369H549V359H303V100Z" glyph-name="Ecircumflexacute" horiz-adv-x="754" unicode="&#7870;" /><glyph d="M392 -359H234Q210 -359 199 -348Q188 -337 188 -313V-186Q188 -173 191.5 -164Q195 -155 202 -149L238 -119H91Q67 -119 56 -108Q45 -97 45 -73V575Q45 588 48.5 597Q52 606 59 612L105 651Q104 656 103.5 663Q103 670 103 679V760Q103 779 106.5 789Q110 799 117 806L248 915L247 914Q252 919 260.5 923Q269 927 280 931L407 977Q417 981 428.5 983.5Q440 986 450 987Q460 987 469 986Q478 985 485 981L623 931Q653 920 662 910Q671 900 671 869V788Q671 772 668 762Q665 752 661 748L660 747L640 730H684Q708 730 719 719Q730 708 730 684V567Q730 554 726.5 545Q723 536 716 530L630 459Q640 454 644.5 444Q649 434 649 418V311Q649 298 645.5 289Q642 280 635 274L546 199H684Q708 199 719 188Q730 177 730 153V36Q730 23 726.5 14Q723 5 716 -1L586 -109Q582 -113 576.5 -115Q571 -117 567 -118V-204Q567 -217 563.5 -226Q560 -235 553 -241L423 -349Q419 -353 410.5 -356Q402 -359 392 -359ZM570 850 483 878Q476 880 468.5 882Q461 884 451 884Q441 884 433.5 882Q426 880 419 878L332 850V861L415 888Q424 890 432 892Q440 894 451 894Q462 894 470 892Q478 890 487 888L570 861ZM420 797Q437 801 451 801Q465 801 482 797L619 757Q645 749 653 755Q661 761 661 788V869Q661 896 652.5 904Q644 912 619 922L482 972Q475 975 467 976Q459 977 450 977Q441 976 430.5 974Q420 972 411 968L283 922Q259 912 250.5 904Q242 896 242 869V788Q242 761 250 755Q258 749 283 757ZM684 0Q703 0 711.5 8.5Q720 17 720 36V153Q720 172 711.5 180.5Q703 189 684 189H408V275H603Q622 275 630.5 283.5Q639 292 639 311V418Q639 437 630.5 445.5Q622 454 603 454H408V531H684Q703 531 711.5 539.5Q720 548 720 567V684Q720 703 711.5 711.5Q703 720 684 720H220Q201 720 192.5 711.5Q184 703 184 684V36Q184 17 192.5 8.5Q201 0 220 0ZM630 100V90H293V630H630V620H303V369H549V359H303V100ZM521 -240Q540 -240 548.5 -231.5Q557 -223 557 -204V-77Q557 -58 548.5 -49.5Q540 -41 521 -41H363Q344 -41 335.5 -49.5Q327 -58 327 -77V-204Q327 -223 335.5 -231.5Q344 -240 363 -240ZM447 -170H437V-111H447Z" glyph-name="Ecircumflexdotbelow" horiz-adv-x="754" unicode="&#7878;" /><glyph d="M508 1177Q492 1181 483 1171Q474 1161 474 1144V1038Q474 1019 483 1012.5Q492 1006 510 1002L647 969Q663 965 672 975Q681 985 681 1002V1108Q681 1127 672 1133.5Q663 1140 645 1144ZM620 1068V1058L533 1079V1089ZM555 -119H91Q67 -119 56 -108Q45 -97 45 -73V575Q45 588 48.5 597Q52 606 59 612L105 651Q104 656 103.5 663Q103 670 103 679V760Q103 779 106.5 789Q110 799 117 806L248 915L247 914Q252 919 260.5 923Q269 927 280 931L334 951V1035Q334 1048 337.5 1057Q341 1066 348 1072L478 1181Q483 1185 491 1187Q499 1189 509 1187L646 1154Q669 1148 679.5 1139.5Q690 1131 690 1108V1002Q690 989 686 980Q682 971 675 965L631 928Q656 918 663.5 908Q671 898 671 869V788Q671 772 668 762Q665 752 661 748L660 747L640 730H684Q708 730 719 719Q730 708 730 684V567Q730 554 726.5 545Q723 536 716 530L630 459Q640 454 644.5 444Q649 434 649 418V311Q649 298 645.5 289Q642 280 635 274L546 199H684Q708 199 719 188Q730 177 730 153V36Q730 23 726.5 14Q723 5 716 -1L586 -109Q582 -113 573.5 -116Q565 -119 555 -119ZM570 850 483 878Q476 880 468.5 882Q461 884 451 884Q441 884 433.5 882Q426 880 419 878L332 850V861L415 888Q424 890 432 892Q440 894 451 894Q462 894 470 892Q478 890 487 888L570 861ZM420 797Q437 801 451 801Q465 801 482 797L619 757Q645 749 653 755Q661 761 661 788V869Q661 896 652.5 904Q644 912 619 922L482 972Q475 975 467 976Q459 977 450 977Q441 976 430.5 974Q420 972 411 968L283 922Q259 912 250.5 904Q242 896 242 869V788Q242 761 250 755Q258 749 283 757ZM684 0Q703 0 711.5 8.5Q720 17 720 36V153Q720 172 711.5 180.5Q703 189 684 189H408V275H603Q622 275 630.5 283.5Q639 292 639 311V418Q639 437 630.5 445.5Q622 454 603 454H408V531H684Q703 531 711.5 539.5Q720 548 720 567V684Q720 703 711.5 711.5Q703 720 684 720H220Q201 720 192.5 711.5Q184 703 184 684V36Q184 17 192.5 8.5Q201 0 220 0ZM630 100V90H293V630H630V620H303V369H549V359H303V100Z" glyph-name="Ecircumflexgrave" horiz-adv-x="754" unicode="&#7872;" /><glyph d="M705 991Q742 996 764 1015Q786 1034 786 1078V1142Q786 1192 757.5 1218Q729 1244 678 1244H510Q500 1244 495.5 1239.5Q491 1235 491 1225V1152Q491 1142 495.5 1137.5Q500 1133 510 1133H639Q647 1133 652.5 1129.5Q658 1126 658 1119Q658 1110 653.5 1106.5Q649 1103 639 1102L550 1088Q540 1087 536 1082Q532 1077 533 1067L544 988Q545 978 549.5 974.5Q554 971 564 972ZM589 1029 588 1039 684 1053Q699 1055 708 1064.5Q717 1074 717 1095V1145Q717 1168 704.5 1176Q692 1184 677 1184H541V1194H677Q696 1194 711.5 1184Q727 1174 727 1145V1095Q727 1067 714.5 1056.5Q702 1046 686 1044ZM555 -119H91Q67 -119 56 -108Q45 -97 45 -73V575Q45 588 48.5 597Q52 606 59 612L105 651Q104 656 103.5 663Q103 670 103 679V760Q103 779 106.5 789Q110 799 117 806L248 915L247 914Q252 919 260.5 923Q269 927 280 931L395 973Q396 975 397.5 977.5Q399 980 401 982L439 1014H381Q366 1014 359 1021Q352 1028 352 1043V1116Q352 1124 354.5 1129.5Q357 1135 361 1139L490 1248Q494 1251 498.5 1252.5Q503 1254 510 1254H678Q734 1254 765 1225Q796 1196 796 1142V1078Q796 1051 788 1033.5Q780 1016 767 1004L659 913Q666 906 668.5 896Q671 886 671 869V788Q671 772 668 762Q665 752 661 748L660 747L640 730H684Q708 730 719 719Q730 708 730 684V567Q730 554 726.5 545Q723 536 716 530L630 459Q640 454 644.5 444Q649 434 649 418V311Q649 298 645.5 289Q642 280 635 274L546 199H684Q708 199 719 188Q730 177 730 153V36Q730 23 726.5 14Q723 5 716 -1L586 -109Q582 -113 573.5 -116Q565 -119 555 -119ZM570 850 483 878Q476 880 468.5 882Q461 884 451 884Q441 884 433.5 882Q426 880 419 878L332 850V861L415 888Q424 890 432 892Q440 894 451 894Q462 894 470 892Q478 890 487 888L570 861ZM420 797Q437 801 451 801Q465 801 482 797L619 757Q645 749 653 755Q661 761 661 788V869Q661 896 652.5 904Q644 912 619 922L482 972Q475 975 467 976Q459 977 450 977Q441 976 430.5 974Q420 972 411 968L283 922Q259 912 250.5 904Q242 896 242 869V788Q242 761 250 755Q258 749 283 757ZM684 0Q703 0 711.5 8.5Q720 17 720 36V153Q720 172 711.5 180.5Q703 189 684 189H408V275H603Q622 275 630.5 283.5Q639 292 639 311V418Q639 437 630.5 445.5Q622 454 603 454H408V531H684Q703 531 711.5 539.5Q720 548 720 567V684Q720 703 711.5 711.5Q703 720 684 720H220Q201 720 192.5 711.5Q184 703 184 684V36Q184 17 192.5 8.5Q201 0 220 0ZM630 100V90H293V630H630V620H303V369H549V359H303V100Z" glyph-name="Ecircumflexhookabove" horiz-adv-x="754" unicode="&#7874;" /><glyph d="M555 -119H91Q67 -119 56 -108Q45 -97 45 -73V575Q45 588 48.5 597Q52 606 59 612L105 651Q104 656 103.5 663Q103 670 103 679V760Q103 779 106.5 789Q110 799 117 806L236 905Q213 906 195 902Q177 898 152 890Q127 883 115 892Q103 901 103 926V1027Q103 1040 106.5 1048.5Q110 1057 118 1064L247 1172Q251 1176 258.5 1179.5Q266 1183 274 1186H275V1187Q299 1194 315.5 1197.5Q332 1201 348.5 1201Q365 1201 384.5 1198.5Q404 1196 435 1192L452 1190L474 1187Q506 1182 525 1180Q544 1178 558 1179Q572 1180 586 1184Q600 1188 621 1195Q646 1202 658 1193Q670 1184 670 1159V1058Q670 1045 666 1036.5Q662 1028 655 1022L570 950L623 931Q653 920 662 910Q671 900 671 869V788Q671 772 668 762Q665 752 661 748L660 747L640 730H684Q708 730 719 719Q730 708 730 684V567Q730 554 726.5 545Q723 536 716 530L630 459Q640 454 644.5 444Q649 434 649 418V311Q649 298 645.5 289Q642 280 635 274L546 199H684Q708 199 719 188Q730 177 730 153V36Q730 23 726.5 14Q723 5 716 -1L586 -109Q582 -113 573.5 -116Q565 -119 555 -119ZM451 1014 467 1012Q497 1008 516.5 1005.5Q536 1003 552 1003Q568 1003 584 1006.5Q600 1010 624 1017Q641 1024 650.5 1031.5Q660 1039 660 1058V1159Q660 1178 651 1184Q642 1190 624 1185Q602 1178 588 1174Q574 1170 559.5 1169Q545 1168 525.5 1170Q506 1172 473 1177L451 1180L434 1182Q404 1186 384.5 1188.5Q365 1191 349.5 1191Q334 1191 318 1187.5Q302 1184 278 1177Q261 1170 251.5 1162.5Q242 1155 242 1136V1035Q242 1016 251 1010Q260 1004 278 1009Q298 1015 312.5 1018.5Q327 1022 342 1023.5Q357 1025 376 1023.5Q395 1022 423 1018ZM570 1091V1081Q550 1079 527 1081Q504 1083 466 1089L450 1091L422 1095Q389 1100 368.5 1101Q348 1102 332 1099V1110Q349 1112 369.5 1110.5Q390 1109 424 1105L452 1101L468 1099Q506 1093 528 1091Q550 1089 570 1091ZM570 850 483 878Q476 880 468.5 882Q461 884 451 884Q441 884 433.5 882Q426 880 419 878L332 850V861L415 888Q424 890 432 892Q440 894 451 894Q462 894 470 892Q478 890 487 888L570 861ZM420 797Q437 801 451 801Q465 801 482 797L619 757Q645 749 653 755Q661 761 661 788V869Q661 896 652.5 904Q644 912 619 922L482 972Q475 975 467 976Q459 977 450 977Q441 976 430.5 974Q420 972 411 968L283 922Q259 912 250.5 904Q242 896 242 869V788Q242 761 250 755Q258 749 283 757ZM684 0Q703 0 711.5 8.5Q720 17 720 36V153Q720 172 711.5 180.5Q703 189 684 189H408V275H603Q622 275 630.5 283.5Q639 292 639 311V418Q639 437 630.5 445.5Q622 454 603 454H408V531H684Q703 531 711.5 539.5Q720 548 720 567V684Q720 703 711.5 711.5Q703 720 684 720H220Q201 720 192.5 711.5Q184 703 184 684V36Q184 17 192.5 8.5Q201 0 220 0ZM630 100V90H293V630H630V620H303V369H549V359H303V100Z" glyph-name="Ecircumflextilde" horiz-adv-x="754" unicode="&#7876;" /><glyph d="M555 -119H91Q67 -119 56 -108Q45 -97 45 -73V575Q45 588 48.5 597Q52 606 59 612L103 649Q96 654 92.5 662.5Q89 671 89 684V805Q89 818 92.5 826Q96 834 102 839L231 948Q236 952 244 954.5Q252 957 262 957H400Q422 957 432.5 946.5Q443 936 443 914V908L490 948Q495 952 502.5 954.5Q510 957 520 957H658Q680 957 690.5 946.5Q701 936 701 914V793Q701 781 697.5 772.5Q694 764 688 759L653 730H684Q708 730 719 719Q730 708 730 684V567Q730 554 726.5 545Q723 536 716 530L630 459Q640 454 644.5 444Q649 434 649 418V311Q649 298 645.5 289Q642 280 635 274L546 199H684Q708 199 719 188Q730 177 730 153V36Q730 23 726.5 14Q723 5 716 -1L586 -109Q582 -113 573.5 -116Q565 -119 555 -119ZM658 760Q675 760 683 768Q691 776 691 793V914Q691 931 683 939Q675 947 658 947H520Q503 947 495 939Q487 931 487 914V793Q487 776 495 768Q503 760 520 760ZM400 760Q417 760 425 768Q433 776 433 793V914Q433 931 425 939Q417 947 400 947H262Q245 947 236.5 939Q228 931 228 914V793Q228 776 236.5 768Q245 760 262 760ZM594 830H584V877H594ZM336 830H326V877H336ZM684 0Q703 0 711.5 8.5Q720 17 720 36V153Q720 172 711.5 180.5Q703 189 684 189H408V275H603Q622 275 630.5 283.5Q639 292 639 311V418Q639 437 630.5 445.5Q622 454 603 454H408V531H684Q703 531 711.5 539.5Q720 548 720 567V684Q720 703 711.5 711.5Q703 720 684 720H220Q201 720 192.5 711.5Q184 703 184 684V36Q184 17 192.5 8.5Q201 0 220 0ZM630 100V90H293V630H630V620H303V369H549V359H303V100Z" glyph-name="Edieresis" horiz-adv-x="754" unicode="&#203;" /><glyph d="M544 -119H290Q216 -119 166.5 -98.5Q117 -78 87.5 -44Q58 -10 46 34Q34 78 34 125V406Q34 457 48.5 499Q63 541 97 569L182 641H143Q121 641 110 651.5Q99 662 99 684V805Q99 818 102.5 826Q106 834 112 839L241 948Q246 952 254 954.5Q262 957 272 957H410Q432 957 442.5 946.5Q453 936 453 914V908L500 948Q505 952 512.5 954.5Q520 957 530 957H668Q690 957 700.5 946.5Q711 936 711 914V793Q711 781 707.5 772.5Q704 764 698 759L664 730H673Q697 730 708 719Q719 708 719 684V567Q719 554 715.5 545Q712 536 705 530L620 459Q630 455 634.5 444.5Q639 434 639 418V311Q639 298 635.5 289Q632 280 625 274L536 199H673Q697 199 708 188Q719 177 719 153V36Q719 23 715.5 14Q712 5 705 -1L575 -109Q571 -113 562.5 -116Q554 -119 544 -119ZM668 760Q685 760 693 768Q701 776 701 793V914Q701 931 693 939Q685 947 668 947H530Q513 947 505 939Q497 931 497 914V793Q497 776 505 768Q513 760 530 760ZM410 760Q427 760 435 768Q443 776 443 793V914Q443 931 435 939Q427 947 410 947H272Q255 947 246.5 939Q238 931 238 914V793Q238 776 246.5 768Q255 760 272 760ZM604 830H594V877H604ZM346 830H336V877H346ZM709 36V153Q709 172 700.5 180.5Q692 189 673 189H452Q413 189 402 202.5Q391 216 391 237V275H593Q612 275 620.5 283.5Q629 292 629 311V418Q629 437 620.5 445.5Q612 454 593 454H391V481Q391 500 402 515.5Q413 531 452 531H673Q692 531 700.5 539.5Q709 548 709 567V684Q709 703 700.5 711.5Q692 720 673 720H419Q278 720 225.5 663Q173 606 173 515V204Q173 114 225.5 57Q278 0 419 0H673Q692 0 700.5 8.5Q709 17 709 36ZM619 100V90H437Q340 90 308.5 120Q277 150 277 219V499Q277 570 309 600Q341 630 437 630H619V620H437Q349 620 318 592.5Q287 565 287 499V369H549V359H287V219Q287 154 317 127Q347 100 437 100Z" glyph-name="Edieresis.salt" horiz-adv-x="743" unicode="&#57614;" /><glyph d="M691 -119H379Q305 -119 255.5 -98.5Q206 -78 176.5 -44Q147 -10 135 34Q123 78 123 125V366Q123 417 137.5 459Q152 501 186 529L271 601H236Q214 601 203 611.5Q192 622 192 644V765Q192 778 195.5 786Q199 794 205 799L334 908Q339 912 347 914.5Q355 917 365 917H503Q525 917 535.5 906.5Q546 896 546 874V868L593 908Q598 912 605.5 914.5Q613 917 623 917H761Q783 917 793.5 906.5Q804 896 804 874V753Q804 741 800.5 732.5Q797 724 791 719L757 690H820Q844 690 855 679Q866 668 866 644V531Q866 518 862.5 509Q859 500 852 494L773 428Q779 423 782 414Q785 405 785 392V297Q785 284 781.5 275Q778 266 771 260L693 195H820Q844 195 855 184Q866 173 866 149V36Q866 23 862.5 14Q859 5 852 -1L722 -109Q718 -113 709.5 -116Q701 -119 691 -119ZM761 720Q778 720 786 728Q794 736 794 753V874Q794 891 786 899Q778 907 761 907H623Q606 907 598 899Q590 891 590 874V753Q590 736 598 728Q606 720 623 720ZM503 720Q520 720 528 728Q536 736 536 753V874Q536 891 528 899Q520 907 503 907H365Q348 907 339.5 899Q331 891 331 874V753Q331 736 339.5 728Q348 720 365 720ZM697 790H687V837H697ZM439 790H429V837H439ZM856 36V149Q856 168 847.5 176.5Q839 185 820 185H547Q508 185 497 198.5Q486 212 486 233V261H739Q758 261 766.5 269.5Q775 278 775 297V392Q775 411 766.5 419.5Q758 428 739 428H486V445Q486 464 497 479.5Q508 495 547 495H820Q839 495 847.5 503.5Q856 512 856 531V644Q856 663 847.5 671.5Q839 680 820 680H508Q367 680 314.5 623Q262 566 262 475V204Q262 114 314.5 57Q367 0 508 0H820Q839 0 847.5 8.5Q856 17 856 36ZM534 90Q437 90 405.5 120Q374 150 374 219V459Q374 530 406 560Q438 590 534 590H770V580H534Q446 580 415 552.5Q384 525 384 459V349H689V339H384V219Q384 154 414 127Q444 100 534 100H770V90Z" glyph-name="Edieresis.salt_v" horiz-adv-x="1000" unicode="&#57851;" /><glyph d="M690 -119H172Q148 -119 137 -108Q126 -97 126 -73V535Q126 548 129.5 557Q133 566 140 572L197 620Q195 624 193.5 630.5Q192 637 192 644V765Q192 778 195.5 786Q199 794 205 799L334 908Q339 912 347 914.5Q355 917 365 917H503Q525 917 535.5 906.5Q546 896 546 874V868L593 908Q598 912 605.5 914.5Q613 917 623 917H761Q783 917 793.5 906.5Q804 896 804 874V753Q804 741 800.5 732.5Q797 724 791 719L756 690H819Q843 690 854 679Q865 668 865 644V531Q865 518 861.5 509Q858 500 851 494L772 428Q778 423 781 414Q784 405 784 392V297Q784 284 780.5 275Q777 266 770 260L692 195H819Q843 195 854 184Q865 173 865 149V36Q865 23 861.5 14Q858 5 851 -1L721 -109Q717 -113 708.5 -116Q700 -119 690 -119ZM761 720Q778 720 786 728Q794 736 794 753V874Q794 891 786 899Q778 907 761 907H623Q606 907 598 899Q590 891 590 874V753Q590 736 598 728Q606 720 623 720ZM503 720Q520 720 528 728Q536 736 536 753V874Q536 891 528 899Q520 907 503 907H365Q348 907 339.5 899Q331 891 331 874V753Q331 736 339.5 728Q348 720 365 720ZM697 790H687V837H697ZM439 790H429V837H439ZM819 0Q838 0 846.5 8.5Q855 17 855 36V149Q855 168 846.5 176.5Q838 185 819 185H489V261H738Q757 261 765.5 269.5Q774 278 774 297V392Q774 411 765.5 419.5Q757 428 738 428H489V495H819Q838 495 846.5 503.5Q855 512 855 531V644Q855 663 846.5 671.5Q838 680 819 680H301Q282 680 273.5 671.5Q265 663 265 644V36Q265 17 273.5 8.5Q282 0 301 0ZM766 100V90H373V590H766V580H383V349H685V339H383V100Z" glyph-name="Edieresis.v" horiz-adv-x="1000" unicode="&#57756;" /><glyph d="M555 -119H91Q67 -119 56 -108Q45 -97 45 -73V575Q45 588 48.5 597Q52 606 59 612L187 720V814Q187 827 190.5 836Q194 845 201 851L330 960Q335 964 343.5 966.5Q352 969 362 969H520Q544 969 555 958Q566 947 566 923V796Q566 783 562.5 774Q559 765 552 759L517 730H684Q708 730 719 719Q730 708 730 684V567Q730 554 726.5 545Q723 536 716 530L630 459Q640 454 644.5 444Q649 434 649 418V311Q649 298 645.5 289Q642 280 635 274L546 199H684Q708 199 719 188Q730 177 730 153V36Q730 23 726.5 14Q723 5 716 -1L586 -109Q582 -113 573.5 -116Q565 -119 555 -119ZM520 760Q539 760 547.5 768.5Q556 777 556 796V923Q556 942 547.5 950.5Q539 959 520 959H362Q343 959 334.5 950.5Q326 942 326 923V796Q326 777 334.5 768.5Q343 760 362 760ZM446 830H436V889H446ZM684 0Q703 0 711.5 8.5Q720 17 720 36V153Q720 172 711.5 180.5Q703 189 684 189H408V275H603Q622 275 630.5 283.5Q639 292 639 311V418Q639 437 630.5 445.5Q622 454 603 454H408V531H684Q703 531 711.5 539.5Q720 548 720 567V684Q720 703 711.5 711.5Q703 720 684 720H220Q201 720 192.5 711.5Q184 703 184 684V36Q184 17 192.5 8.5Q201 0 220 0ZM630 100V90H293V630H630V620H303V369H549V359H303V100Z" glyph-name="Edotaccent" horiz-adv-x="754" unicode="&#278;" /><glyph d="M544 -119H290Q216 -119 166.5 -98.5Q117 -78 87.5 -44Q58 -10 46 34Q34 78 34 125V406Q34 457 48.5 499Q63 541 97 569L220 673Q219 676 219 679.5Q219 683 219 687V814Q219 827 222.5 836Q226 845 233 851L362 960Q367 964 375.5 966.5Q384 969 394 969H552Q576 969 587 958Q598 947 598 923V796Q598 783 594.5 774Q591 765 584 759L549 730H673Q697 730 708 719Q719 708 719 684V567Q719 554 715.5 545Q712 536 705 530L620 459Q630 455 634.5 444.5Q639 434 639 418V311Q639 298 635.5 289Q632 280 625 274L536 199H673Q697 199 708 188Q719 177 719 153V36Q719 23 715.5 14Q712 5 705 -1L575 -109Q571 -113 562.5 -116Q554 -119 544 -119ZM552 760Q571 760 579.5 768.5Q588 777 588 796V923Q588 942 579.5 950.5Q571 959 552 959H394Q375 959 366.5 950.5Q358 942 358 923V796Q358 777 366.5 768.5Q375 760 394 760ZM478 830H468V889H478ZM709 36V153Q709 172 700.5 180.5Q692 189 673 189H452Q413 189 402 202.5Q391 216 391 237V275H593Q612 275 620.5 283.5Q629 292 629 311V418Q629 437 620.5 445.5Q612 454 593 454H391V481Q391 500 402 515.5Q413 531 452 531H673Q692 531 700.5 539.5Q709 548 709 567V684Q709 703 700.5 711.5Q692 720 673 720H419Q278 720 225.5 663Q173 606 173 515V204Q173 114 225.5 57Q278 0 419 0H673Q692 0 700.5 8.5Q709 17 709 36ZM619 100V90H437Q340 90 308.5 120Q277 150 277 219V499Q277 570 309 600Q341 630 437 630H619V620H437Q349 620 318 592.5Q287 565 287 499V369H549V359H287V219Q287 154 317 127Q347 100 437 100Z" glyph-name="Edotaccent.salt" horiz-adv-x="743" unicode="&#57617;" /></font>
</defs>
</svg>
