<?xml version="1.0" encoding="utf-8"?>
<!-- Generator: Adobe Illustrator 17.1.0, SVG Export Plug-In . SVG Version: 6.00 Build 0)  -->
<!DOCTYPE svg PUBLIC "-//W3C//DTD SVG 1.1//EN" "http://www.w3.org/Graphics/SVG/1.1/DTD/svg11.dtd">
<svg version="1.1" id="Layer_1" xmlns="http://www.w3.org/2000/svg" xmlns:xlink="http://www.w3.org/1999/xlink" x="0px" y="0px"
	 viewBox="0 0 708.6 200" enable-background="new 0 0 708.6 200" xml:space="preserve">
<g>
	<path d="M-740.1-517.9c0.5-0.1,1.2-0.2,2-0.2c1,0,1.8,0.2,2.3,0.7c0.4,0.4,0.7,1,0.7,1.7c0,0.7-0.2,1.3-0.6,1.7
		c-0.6,0.6-1.5,0.9-2.5,0.9c-0.3,0-0.6,0-0.8-0.1v3.2h-1V-517.9z M-739.1-514c0.2,0.1,0.5,0.1,0.9,0.1c1.3,0,2-0.6,2-1.7
		c0-1.1-0.8-1.6-1.9-1.6c-0.5,0-0.8,0-1,0.1V-514z"/>
	<path d="M-726.8-514.1c0,2.8-1.7,4.3-3.8,4.3c-2.1,0-3.6-1.7-3.6-4.1c0-2.6,1.6-4.2,3.8-4.2C-728.3-518.2-726.8-516.5-726.8-514.1z
		 M-733.1-513.9c0,1.7,0.9,3.3,2.6,3.3c1.7,0,2.6-1.5,2.6-3.4c0-1.6-0.8-3.3-2.6-3.3C-732.2-517.3-733.1-515.7-733.1-513.9z"/>
	<path d="M-725.5-518h1v7.2h3.5v0.9h-4.5V-518z"/>
	<path d="M-718.8-518v8.1h-1v-8.1H-718.8z"/>
	<path d="M-711.3-510.2c-0.4,0.2-1.2,0.4-2.1,0.4c-2.3,0-4-1.4-4-4.1c0-2.5,1.7-4.2,4.2-4.2c1,0,1.6,0.2,1.9,0.4l-0.3,0.9
		c-0.4-0.2-1-0.3-1.6-0.3c-1.9,0-3.2,1.2-3.2,3.3c0,2,1.1,3.3,3.1,3.3c0.6,0,1.3-0.1,1.7-0.3L-711.3-510.2z"/>
	<path d="M-708.1-509.9v-3.4l-2.6-4.7h1.2l1.1,2.2c0.3,0.6,0.6,1.1,0.8,1.7h0c0.2-0.5,0.5-1.1,0.8-1.7l1.2-2.2h1.2l-2.7,4.6v3.4
		H-708.1z"/>
</g>
<g>
	<path fill="#666766" d="M6,86.5V21.7c0-1.8,0.5-2.9,1.4-3.7L20.3,7.1c0.7-0.6,1.8-0.9,3.2-0.9h31.9c14,0,20.2,5.3,20.2,16.3v4.8
		c0,4.7-1.3,8-3.8,10l-0.3,0.2c7.3,1.6,10.8,6.7,10.8,16.1v9.2c0,6-1.7,10.3-5.2,13.2L64.2,86.9c-3.3,2.8-8.3,4.2-15.2,4.2H10.6
		C7.4,91.1,6,89.7,6,86.5z"/>
	<path fill="#666766" d="M109.5,92.6c-26.2,0-32.1-8.8-32.1-21.4V37.1c0-6.2,1.5-11.5,6-15.3l13-10.8c4.7-4,12.6-6.3,26-6.3
		c26.2,0,32,8.9,32,21.5v34.1c0,6.2-1.5,11.4-6,15.2l-12.9,10.8C130.8,90.3,122.8,92.6,109.5,92.6z M116.9,59.7v-19
		c0-1.3-0.4-2.3-1.9-2.9v18.9C115,58,115.4,59,116.9,59.7z"/>
	<path fill="#666766" d="M152.2,86.5V21.7c0-1.8,0.5-2.9,1.4-3.7l12.9-10.9c0.7-0.6,1.8-0.9,3.2-0.9h31.9c14,0,20.2,5.3,20.2,16.3
		v4.8c0,4.7-1.3,8-3.8,10l-0.3,0.2c7.3,1.6,10.8,6.7,10.8,16.1v9.2c0,6-1.7,10.3-5.2,13.2l-12.9,10.9c-3.3,2.8-8.3,4.2-15.2,4.2
		h-38.4C153.6,91.1,152.2,89.7,152.2,86.5z"/>
	<path fill="#666766" d="M223.1,52v-4c0-1.8,0.5-2.9,1.4-3.7l3.8-3.2h-1.9c-3.2,0-4.6-1.4-4.6-4.6V21.7c0-1.8,0.5-2.9,1.4-3.7
		l12.9-10.9c0.7-0.6,1.8-0.9,3.2-0.9h20.2c3.2,0,4.6,1.4,4.6,4.6v18.8c0,5.9-1.9,10-5,12.7l-13,10.9c-2.6,2.2-6.3,3.4-10.7,3.4h-7.7
		C224.5,56.6,223.1,55.3,223.1,52z"/>
	<path fill="#666766" d="M258.8,86.5V74.8c0-1.8,0.5-2.9,1.4-3.7l10-8.4c-7.1-2.2-11.4-6.8-11.4-16.5V35.7c0-6,2-10.7,5.8-13.9
		l13-10.9c3.6-3,9-4.7,15.8-4.7h28c3.2,0,4.6,1.4,4.6,4.6v11.9c0,1.8-0.5,2.9-1.4,3.7l-9,7.5c8.5,1.9,14,6.4,14,17.2v10.5
		c0,6-2,10.7-5.9,13.9l-12.9,10.8c-3.7,3.1-9.1,4.8-15.8,4.8h-31.6C260.2,91.1,258.8,89.7,258.8,86.5z"/>
	<path fill="#666766" d="M386.4,91.1h-33.7c-3.2,0-4.6-1.4-4.6-4.6V21.7c0-1.8,0.5-2.9,1.4-3.7l12.9-10.9c0.7-0.6,1.8-0.9,3.2-0.9
		h33.7c17.6,0,25.6,6.9,25.6,21.4v31.2c0,7.3-2.1,12.6-6.3,16.2l-13,10.8C401.5,89.3,395.1,91.1,386.4,91.1z M385.7,38.5v20.8h1.7
		V42C387.4,40.2,386.9,39,385.7,38.5z"/>
	<path fill="#666766" d="M425.7,91.1c-3.2,0-4.6-1.4-4.6-4.6V74.6c0-1.8,0.5-2.9,1.4-3.7l12.1-10.2V38.4h-8.9
		c-3.2,0-4.6-1.4-4.6-4.6V21.7c0-1.8,0.5-2.9,1.4-3.7l12.9-10.9c0.7-0.6,1.8-0.9,3.2-0.9h42.6c3.2,0,4.6,1.4,4.6,4.6v12.1
		c0,1.8-0.5,2.9-1.4,3.7l-11.9,10v22.5h8.7c3.2,0,4.6,1.4,4.6,4.6v11.9c0,1.8-0.5,2.9-1.4,3.7l-13,10.8c-0.6,0.6-1.7,1-3.1,1H425.7z
		"/>
	<path fill="#666766" d="M505.9,90.1c-0.6,0.6-1.7,1-3.1,1h-15c-3.2,0-4.6-1.4-4.6-4.6V21.7c0-1.8,0.5-2.9,1.4-3.7l12.9-10.9
		c0.7-0.6,1.8-0.9,3.2-0.9h10.4c2.9,0,4.7,0.8,6.7,3l6.9,8l12.1-10.1c0.7-0.6,1.8-0.9,3.2-0.9h15c3.2,0,4.6,1.4,4.6,4.6v64.8
		c0,1.8-0.5,2.9-1.4,3.7l-13,10.8c-0.6,0.6-1.7,1-3.1,1h-15c-3.2,0-4.6-1.4-4.6-4.6V74.6l-2.2-2.7v3.7c0,1.8-0.5,2.9-1.4,3.7
		L505.9,90.1z"/>
	<path fill="#666766" d="M563.1,91.1c-3.2,0-4.6-1.4-4.6-4.6V21.7c0-1.8,0.5-2.9,1.4-3.7l12.9-10.9c0.7-0.6,1.8-0.9,3.2-0.9h46.4
		c3.2,0,4.6,1.4,4.6,4.6v11.7c0,1.8-0.5,2.9-1.4,3.7l-8.6,7.1c1.3,0.7,1.9,2,1.9,4.1v10.7c0,1.8-0.5,2.9-1.4,3.7l-8.9,7.5h13.8
		c3.2,0,4.6,1.4,4.6,4.6v11.7c0,1.8-0.5,2.9-1.4,3.7l-13,10.8c-0.6,0.6-1.7,1-3.1,1H563.1z"/>
	<path fill="#666766" d="M647,90.1c-0.6,0.6-1.7,1-3.1,1h-15.4c-3.2,0-4.6-1.4-4.6-4.6V21.7c0-1.8,0.5-2.9,1.4-3.7l12.9-10.9
		c0.7-0.6,1.8-0.9,3.2-0.9h33.3c15.9,0,20.7,7.3,20.7,17.7v4.6c0,4.9-1.1,8.6-3.8,10.9h-0.1c6.3,1.8,10.4,7.1,10.4,15v21.2
		c0,1.8-0.5,2.9-1.4,3.7l-13,10.8c-0.6,0.6-1.7,1-3.1,1h-15.5c-3.2,0-4.6-1.4-4.6-4.6V71.2c0-2.2-0.7-3.3-2.8-3.3h-0.1v7.7
		c0,1.8-0.5,2.9-1.4,3.7L647,90.1z"/>
	<path fill="#B5B5B6" d="M23.5,79.2c-2.5,0-3.6-1.1-3.6-3.6V10.8c0-2.5,1.1-3.6,3.6-3.6h31.9c13.1,0,19.2,4.8,19.2,15.3v4.8
		c0,5.6-1.9,9.1-5.9,10.8c8.6,0.8,12.6,5.7,12.6,15.5v9.2c0,11.2-6.1,16.4-19.4,16.4H23.5z M42.4,35h8.5c2.6,0,3.8-1.3,3.8-4v-2.8
		c0-2.7-1.2-4-3.8-4h-8.5V35z M42.4,62.2h13c2.6,0,3.8-1.3,3.8-4v-3.9c0-2.7-1.2-3.9-3.8-3.9h-13V62.2z"/>
	<path fill="#B5B5B6" d="M122.4,80.7c-25,0-31.1-8.2-31.1-20.4V26.2c0-12.2,6.1-20.5,31.1-20.5c25,0,31,8.3,31,20.5v34.1
		C153.4,72.5,147.4,80.7,122.4,80.7z M122.4,61.4c7.3,0,8.4-2,8.4-4.7V29.8c0-2.6-1.1-4.6-8.4-4.6c-7.2,0-8.4,2-8.4,4.6v26.9
		C114,59.4,115.2,61.4,122.4,61.4z"/>
	<path fill="#B5B5B6" d="M169.7,79.2c-2.5,0-3.6-1.1-3.6-3.6V10.8c0-2.5,1.1-3.6,3.6-3.6h31.9c13.1,0,19.2,4.8,19.2,15.3v4.8
		c0,5.6-1.9,9.1-5.9,10.8c8.6,0.8,12.6,5.7,12.6,15.5v9.2c0,11.2-6.1,16.4-19.4,16.4H169.7z M188.6,35h8.5c2.6,0,3.8-1.3,3.8-4v-2.8
		c0-2.7-1.2-4-3.8-4h-8.5V35z M188.6,62.2h13c2.6,0,3.8-1.3,3.8-4v-3.9c0-2.7-1.2-3.9-3.8-3.9h-13V62.2z"/>
	<path fill="#B5B5B6" d="M240.6,44.7c-2.5,0-3.6-1-3.6-3.6v-4c0-2.5,1.1-3.6,3.6-3.6h6.9c1.8,0,2.7-1,2.7-2.8v-1.5h-10.9
		c-2.5,0-3.6-1.1-3.6-3.6V10.8c0-2.5,1.1-3.6,3.6-3.6h20.2c2.5,0,3.6,1.1,3.6,3.6v18.8c0,10.2-5.8,15.1-14.8,15.1H240.6z"/>
	<path fill="#B5B5B6" d="M276.3,79.2c-2.5,0-3.6-1.1-3.6-3.6V63.9c0-2.5,1.1-3.6,3.6-3.6h26.9c1.7,0,2.6-1.3,2.6-2.9
		c0-2.3-0.9-3.2-2.6-3.4l-15-2.1c-9.4-1.4-15.5-5.4-15.5-16.6V24.8c0-11.4,7.7-17.6,20.7-17.6h28c2.5,0,3.6,1.1,3.6,3.6v11.9
		c0,2.5-1.1,3.6-3.6,3.6h-23.3c-1.7,0-2.7,1.2-2.7,3c0,1.8,1,3,2.7,3.2l14.9,2c9.4,1.4,15.6,5.4,15.6,16.6v10.5
		c0,11.4-7.8,17.6-20.7,17.6H276.3z"/>
	<path fill="#B5B5B6" d="M365.6,79.2c-2.5,0-3.6-1.1-3.6-3.6V10.8c0-2.5,1.1-3.6,3.6-3.6h33.7c16.8,0,24.6,6.5,24.6,20.4v31.2
		c0,13.9-7.8,20.4-24.6,20.4H365.6z M384.7,60.3h11.9c3.2,0,4.7-1.5,4.7-4.9V31.1c0-3.3-1.5-4.8-4.7-4.8h-11.9V60.3z"/>
	<path fill="#B5B5B6" d="M435,75.6V63.7c0-2.5,1.1-3.6,3.6-3.6h9.9V26.5h-9.9c-2.5,0-3.6-1.1-3.6-3.6V10.8c0-2.5,1.1-3.6,3.6-3.6
		h42.6c2.5,0,3.6,1.1,3.6,3.6v12.1c0,2.5-1.1,3.6-3.6,3.6h-9.7v33.6h9.7c2.5,0,3.6,1.1,3.6,3.6v11.9c0,2.5-1.1,3.6-3.6,3.6h-42.6
		C436.1,79.2,435,78.1,435,75.6z"/>
	<path fill="#B5B5B6" d="M500.7,79.2c-2.5,0-3.6-1.1-3.6-3.6V10.8c0-2.5,1.1-3.6,3.6-3.6h10.4c2.6,0,4.2,0.7,5.9,2.7l19.4,22.2V10.8
		c0-2.5,1.1-3.6,3.6-3.6h15c2.5,0,3.6,1.1,3.6,3.6v64.8c0,2.5-1.1,3.6-3.6,3.6h-15c-2.5,0-3.6-1.1-3.6-3.6V63.3l-17.1-20.7v33
		c0,2.5-1.1,3.6-3.6,3.6H500.7z"/>
	<path fill="#B5B5B6" d="M576,79.2c-2.5,0-3.6-1.1-3.6-3.6V10.8c0-2.5,1.1-3.6,3.6-3.6h46.4c2.5,0,3.6,1.1,3.6,3.6v11.7
		c0,2.5-1.1,3.6-3.6,3.6h-27.6v7.7h19.5c2.5,0,3.6,1.1,3.6,3.6v10.7c0,2.5-1.1,3.6-3.6,3.6h-19.5v8.6h27.6c2.5,0,3.6,1.1,3.6,3.6
		v11.7c0,2.5-1.1,3.6-3.6,3.6H576z"/>
	<path fill="#B5B5B6" d="M641.4,79.2c-2.5,0-3.6-1.1-3.6-3.6V10.8c0-2.5,1.1-3.6,3.6-3.6h33.3c15,0,19.7,6.8,19.7,16.7v4.6
		c0,5.6-1.4,9.6-5.6,11.4c7.3,0.8,12.1,6.1,12.1,14.5v21.2c0,2.5-1.1,3.6-3.6,3.6h-15.5c-2.5,0-3.6-1.1-3.6-3.6V60.3
		c0-3-1-4.3-3.8-4.3h-14v19.6c0,2.5-1.1,3.6-3.6,3.6H641.4z M660.4,38h7.5c3.5,0,4.4-2,4.4-4.7v-3.4c0-2.7-0.9-4.7-4.4-4.7h-7.5V38z
		"/>
	<path fill="#FAFBFB" d="M31,70.4v-54h20.3c11.1,0,13.1,4.8,13.1,10.6v6.4c0,4-0.7,7.6-6.4,9.1c11.1,0,13,4.9,13,11.5v6.4
		c0,5.9-1.9,10-13.1,10H31z M32,17.4v25.1h19.3c11,0,12.1-4.3,12.1-9.1V27c0-5.4-2-9.6-12.1-9.6H32z M32,43.5v25.9h25.9
		c10,0,12.1-3.5,12.1-9V54c0-6-1.9-10.5-12-10.5H32z"/>
	<path fill="#FAFBFB" d="M122.2,71.7c-15.7,0-20.1-5.4-20.1-13.5V28.7c0-8.1,4.4-13.5,20.1-13.5s20.3,5.4,20.3,13.5v29.5
		C142.5,66.3,137.9,71.7,122.2,71.7z M122.2,70.7c14.9,0,19.3-5,19.3-12.5V28.7c0-7.5-4.4-12.5-19.3-12.5c-14.9,0-19.1,5-19.1,12.5
		v29.5C103.1,65.7,107.3,70.7,122.2,70.7z"/>
	<path fill="#FAFBFB" d="M177.2,70.4v-54h20.3c11.1,0,13.1,4.8,13.1,10.6v6.4c0,4-0.7,7.6-6.4,9.1c11.1,0,13,4.9,13,11.5v6.4
		c0,5.9-1.9,10-13.1,10H177.2z M178.2,17.4v25.1h19.3c11,0,12.1-4.3,12.1-9.1V27c0-5.4-2-9.6-12.1-9.6H178.2z M178.2,43.5v25.9h25.9
		c10,0,12.1-3.5,12.1-9V54c0-6-1.9-10.5-12-10.5H178.2z"/>
	<path fill="#FAFBFB" d="M256.1,29.8c0,6.1-3.4,9.1-8.8,9.1h-4.6v-1h4.6c4.8,0,7.8-2.7,7.8-8.1V18.9h-12.4v-1h13.4V29.8z"/>
	<path fill="#FAFBFB" d="M316,17.4h-22.2c-5.6,0-9.2,3.4-9.2,8.1v8.2c0,4.7,2,6.1,5.1,6.7l21.1,4.3c4,0.8,6.9,2.8,6.9,9.8v5.8
		c0,5.9-4.3,10.1-11.1,10.1h-24.9v-1h24.9c6.2,0,10.1-3.8,10.1-9.1v-5.8c0-6.3-2.4-8-6.1-8.8l-21.1-4.3c-3.5-0.7-5.9-2.2-5.9-7.7
		v-8.2c0-5.3,4-9.1,10.2-9.1H316V17.4z"/>
	<path fill="#FAFBFB" d="M372.9,16.4h24.2c13.6,0,16,6.2,16,13.9v26.5c0,7.7-2.2,13.6-16,13.6h-24.2V16.4z M373.9,17.4v52h23.2
		c12.8,0,15-5.3,15-12.6V30.3c0-7.3-2.4-12.9-15-12.9H373.9z"/>
	<path fill="#FAFBFB" d="M444,70.4v-1h15.5v-52H444v-1h31.8v1h-15.3v52h15.3v1H444z"/>
	<path fill="#FAFBFB" d="M547.1,58.6V16.4h1v54h-1V60.1l-37.8-42.4c-0.2-0.2-0.3-0.3-0.5-0.3c-0.2,0-0.2,0.2-0.2,0.3v52.7h-1V17.5
		c0-0.8,0.6-1.2,1.2-1.2c0.6,0,0.8,0.2,1.5,0.9L547.1,58.6z"/>
	<path fill="#FAFBFB" d="M617,70.4h-33.7v-54H617v1h-32.7v25.1h24.6v1h-24.6v25.9H617V70.4z"/>
	<path fill="#FAFBFB" d="M648.6,70.4v-54h22.8c7.8,0,11.4,4.8,11.4,11.4v6.9c0,6.1-1.2,10.1-6,11.6h1.1c8.2,0,12.1,3.7,12.1,10.7
		v13.4h-1V57c0-6.6-3.5-9.8-11.1-9.8h-28.3v23.2H648.6z M649.6,17.4v28.9h21.8c8.3,0,10.4-4.1,10.4-11.5v-7
		c0-6.2-3.3-10.4-10.4-10.4H649.6z"/>
</g>
<g>
	<path fill="#9F1D21" d="M6,185.6v-64.8c0-1.8,0.5-2.9,1.4-3.7l12.9-10.9c0.7-0.6,1.8-0.9,3.2-0.9h31.9c14,0,20.2,5.3,20.2,16.3v4.8
		c0,4.7-1.3,8-3.8,10l-0.3,0.2c7.3,1.6,10.8,6.7,10.8,16.1v9.2c0,6-1.7,10.3-5.2,13.2L64.2,186c-3.3,2.8-8.3,4.2-15.2,4.2H10.6
		C7.4,190.2,6,188.8,6,185.6z"/>
	<path fill="#9F1D21" d="M109.5,191.7c-26.2,0-32.1-8.8-32.1-21.4v-34.1c0-6.2,1.5-11.5,6-15.3l13-10.8c4.7-4,12.6-6.3,26-6.3
		c26.2,0,32,8.9,32,21.5v34.1c0,6.2-1.5,11.4-6,15.2l-12.9,10.8C130.8,189.4,122.8,191.7,109.5,191.7z M116.9,158.8v-19
		c0-1.3-0.4-2.3-1.9-2.9v18.9C115,157.1,115.4,158.1,116.9,158.8z"/>
	<path fill="#9F1D21" d="M152.2,185.6v-64.8c0-1.8,0.5-2.9,1.4-3.7l12.9-10.9c0.7-0.6,1.8-0.9,3.2-0.9h31.9c14,0,20.2,5.3,20.2,16.3
		v4.8c0,4.7-1.3,8-3.8,10l-0.3,0.2c7.3,1.6,10.8,6.7,10.8,16.1v9.2c0,6-1.7,10.3-5.2,13.2L210.4,186c-3.3,2.8-8.3,4.2-15.2,4.2
		h-38.4C153.6,190.2,152.2,188.8,152.2,185.6z"/>
	<path fill="#9F1D21" d="M220.8,141.6v-2.9c0-1.4,0.4-2.3,1.1-2.9l2.1-1.8h-0.6c-2.5,0-3.6-1.1-3.6-3.6v-10.6c0-1.4,0.4-2.3,1.1-2.9
		l12.9-10.9c0.6-0.6,1.5-0.7,2.5-0.7h14.6c2.5,0,3.6,1.1,3.6,3.6v13.5c0,4.3-1.4,7.4-3.8,9.4l-12.9,10.9c-1.9,1.6-4.7,2.5-7.9,2.5
		h-5.5C221.9,145.2,220.8,144.1,220.8,141.6z"/>
	<path fill="#9F1D21" d="M249.1,185.6v-11.7c0-1.8,0.5-2.9,1.4-3.7l10-8.4c-7.1-2.2-11.4-6.8-11.4-16.5v-10.5c0-6,2-10.7,5.8-13.9
		l13-10.9c3.6-3,9-4.7,15.8-4.7h28c3.2,0,4.6,1.4,4.6,4.6v11.9c0,1.8-0.5,2.9-1.4,3.7l-9,7.5c8.5,1.9,14,6.4,14,17.2v10.5
		c0,6-2,10.7-5.9,13.9l-12.9,10.8c-3.7,3.1-9.1,4.8-15.8,4.8h-31.6C250.5,190.2,249.1,188.8,249.1,185.6z"/>
	<path fill="#9F1D21" d="M376.7,190.2H343c-3.2,0-4.6-1.4-4.6-4.6v-64.8c0-1.8,0.5-2.9,1.4-3.7l12.9-10.9c0.7-0.6,1.8-0.9,3.2-0.9
		h33.7c17.6,0,25.6,6.9,25.6,21.4v31.2c0,7.3-2.1,12.6-6.3,16.2l-13,10.8C391.8,188.4,385.4,190.2,376.7,190.2z M376,137.6v20.8h1.7
		v-17.3C377.7,139.3,377.2,138.1,376,137.6z"/>
	<path fill="#9F1D21" d="M416,190.2c-3.2,0-4.6-1.4-4.6-4.6v-11.9c0-1.8,0.5-2.9,1.4-3.7l12.1-10.2v-22.3H416
		c-3.2,0-4.6-1.4-4.6-4.6v-12.1c0-1.8,0.5-2.9,1.4-3.7l12.9-10.9c0.7-0.6,1.8-0.9,3.2-0.9h42.6c3.2,0,4.6,1.4,4.6,4.6V122
		c0,1.8-0.5,2.9-1.4,3.7l-11.9,10v22.5h8.7c3.2,0,4.6,1.4,4.6,4.6v11.9c0,1.8-0.5,2.9-1.4,3.7l-13,10.8c-0.6,0.6-1.7,1-3.1,1H416z"
		/>
	<path fill="#9F1D21" d="M496.2,189.2c-0.6,0.6-1.7,1-3.1,1h-15c-3.2,0-4.6-1.4-4.6-4.6v-64.8c0-1.8,0.5-2.9,1.4-3.7l12.9-10.9
		c0.7-0.6,1.8-0.9,3.2-0.9h10.4c2.9,0,4.7,0.8,6.7,3l6.9,8l12.1-10.1c0.7-0.6,1.8-0.9,3.2-0.9h15c3.2,0,4.6,1.4,4.6,4.6v64.8
		c0,1.8-0.5,2.9-1.4,3.7l-13,10.8c-0.6,0.6-1.7,1-3.1,1h-15c-3.2,0-4.6-1.4-4.6-4.6v-11.9l-2.2-2.7v3.7c0,1.8-0.5,2.9-1.4,3.7
		L496.2,189.2z"/>
	<path fill="#9F1D21" d="M553.4,190.2c-3.2,0-4.6-1.4-4.6-4.6v-64.8c0-1.8,0.5-2.9,1.4-3.7l12.9-10.9c0.7-0.6,1.8-0.9,3.2-0.9h46.4
		c3.2,0,4.6,1.4,4.6,4.6v11.7c0,1.8-0.5,2.9-1.4,3.7l-8.6,7.1c1.3,0.7,1.9,2,1.9,4.1v10.7c0,1.8-0.5,2.9-1.4,3.7l-8.9,7.5h13.8
		c3.2,0,4.6,1.4,4.6,4.6v11.7c0,1.8-0.5,2.9-1.4,3.7l-13,10.8c-0.6,0.6-1.7,1-3.1,1H553.4z"/>
	<path fill="#9F1D21" d="M637.3,189.2c-0.6,0.6-1.7,1-3.1,1h-15.4c-3.2,0-4.6-1.4-4.6-4.6v-64.8c0-1.8,0.5-2.9,1.4-3.7l12.9-10.9
		c0.7-0.6,1.8-0.9,3.2-0.9H665c15.9,0,20.7,7.3,20.7,17.7v4.6c0,4.9-1.1,8.6-3.8,10.9h-0.1c6.3,1.8,10.4,7.1,10.4,15v21.2
		c0,1.8-0.5,2.9-1.4,3.7l-13,10.8c-0.6,0.6-1.7,1-3.1,1h-15.5c-3.2,0-4.6-1.4-4.6-4.6v-15.3c0-2.2-0.7-3.3-2.8-3.3h-0.1v7.7
		c0,1.8-0.5,2.9-1.4,3.7L637.3,189.2z"/>
	<path fill="#EF3A38" d="M23.5,178.3c-2.5,0-3.6-1.1-3.6-3.6v-64.8c0-2.5,1.1-3.6,3.6-3.6h31.9c13.1,0,19.2,4.8,19.2,15.3v4.8
		c0,5.6-1.9,9.1-5.9,10.8c8.6,0.8,12.6,5.7,12.6,15.5v9.2c0,11.2-6.1,16.4-19.4,16.4H23.5z M42.4,134.1h8.5c2.6,0,3.8-1.3,3.8-4
		v-2.8c0-2.7-1.2-4-3.8-4h-8.5V134.1z M42.4,161.3h13c2.6,0,3.8-1.3,3.8-4v-3.9c0-2.7-1.2-3.9-3.8-3.9h-13V161.3z"/>
	<path fill="#EF3A38" d="M122.4,179.8c-25,0-31.1-8.2-31.1-20.4v-34.1c0-12.2,6.1-20.5,31.1-20.5c25,0,31,8.3,31,20.5v34.1
		C153.4,171.6,147.4,179.8,122.4,179.8z M122.4,160.5c7.3,0,8.4-2,8.4-4.7v-26.9c0-2.6-1.1-4.6-8.4-4.6c-7.2,0-8.4,2-8.4,4.6v26.9
		C114,158.5,115.2,160.5,122.4,160.5z"/>
	<path fill="#EF3A38" d="M169.7,178.3c-2.5,0-3.6-1.1-3.6-3.6v-64.8c0-2.5,1.1-3.6,3.6-3.6h31.9c13.1,0,19.2,4.8,19.2,15.3v4.8
		c0,5.6-1.9,9.1-5.9,10.8c8.6,0.8,12.6,5.7,12.6,15.5v9.2c0,11.2-6.1,16.4-19.4,16.4H169.7z M188.6,134.1h8.5c2.6,0,3.8-1.3,3.8-4
		v-2.8c0-2.7-1.2-4-3.8-4h-8.5V134.1z M188.6,161.3h13c2.6,0,3.8-1.3,3.8-4v-3.9c0-2.7-1.2-3.9-3.8-3.9h-13V161.3z"/>
	<path fill="#EF3A38" d="M237.2,133.3c-1.8,0-2.6-0.7-2.6-2.6v-2.9c0-1.8,0.8-2.6,2.6-2.6h4.9c1.3,0,2-0.7,2-2v-1.1h-7.9
		c-1.8,0-2.5-0.8-2.5-2.6v-10.6c0-1.8,0.7-2.6,2.5-2.6h14.6c1.8,0,2.6,0.8,2.6,2.6v13.5c0,7.4-4.2,10.9-10.7,10.9H237.2z
		 M238.7,114.7h8.8v7.6c0,3.3-1.3,6.4-4.6,6.4h-4.1v1h4.1c3.9,0,5.6-3.5,5.6-7.4v-8.6h-9.8V114.7z"/>
	<path fill="#EF3A38" d="M266.6,178.3c-2.5,0-3.6-1.1-3.6-3.6V163c0-2.5,1.1-3.6,3.6-3.6h26.9c1.7,0,2.6-1.3,2.6-2.9
		c0-2.3-0.9-3.2-2.6-3.4l-15-2.1c-9.4-1.4-15.5-5.4-15.5-16.6v-10.5c0-11.4,7.7-17.6,20.7-17.6h28c2.5,0,3.6,1.1,3.6,3.6v11.9
		c0,2.5-1.1,3.6-3.6,3.6h-23.3c-1.7,0-2.7,1.2-2.7,3c0,1.8,1,3,2.7,3.2l14.9,2c9.4,1.4,15.6,5.4,15.6,16.6v10.5
		c0,11.4-7.8,17.6-20.7,17.6H266.6z"/>
	<path fill="#EF3A38" d="M355.9,178.3c-2.5,0-3.6-1.1-3.6-3.6v-64.8c0-2.5,1.1-3.6,3.6-3.6h33.7c16.8,0,24.6,6.5,24.6,20.4v31.2
		c0,13.9-7.8,20.4-24.6,20.4H355.9z M375,159.4h11.9c3.2,0,4.7-1.5,4.7-4.9v-24.3c0-3.3-1.5-4.8-4.7-4.8H375V159.4z"/>
	<path fill="#EF3A38" d="M425.3,174.7v-11.9c0-2.5,1.1-3.6,3.6-3.6h9.9v-33.6h-9.9c-2.5,0-3.6-1.1-3.6-3.6v-12.1
		c0-2.5,1.1-3.6,3.6-3.6h42.6c2.5,0,3.6,1.1,3.6,3.6V122c0,2.5-1.1,3.6-3.6,3.6h-9.7v33.6h9.7c2.5,0,3.6,1.1,3.6,3.6v11.9
		c0,2.5-1.1,3.6-3.6,3.6h-42.6C426.4,178.3,425.3,177.2,425.3,174.7z"/>
	<path fill="#EF3A38" d="M491,178.3c-2.5,0-3.6-1.1-3.6-3.6v-64.8c0-2.5,1.1-3.6,3.6-3.6h10.4c2.6,0,4.2,0.7,5.9,2.7l19.4,22.2
		v-21.3c0-2.5,1.1-3.6,3.6-3.6h15c2.5,0,3.6,1.1,3.6,3.6v64.8c0,2.5-1.1,3.6-3.6,3.6h-15c-2.5,0-3.6-1.1-3.6-3.6v-12.3l-17.1-20.7
		v33c0,2.5-1.1,3.6-3.6,3.6H491z"/>
	<path fill="#EF3A38" d="M566.3,178.3c-2.5,0-3.6-1.1-3.6-3.6v-64.8c0-2.5,1.1-3.6,3.6-3.6h46.4c2.5,0,3.6,1.1,3.6,3.6v11.7
		c0,2.5-1.1,3.6-3.6,3.6h-27.6v7.7h19.5c2.5,0,3.6,1.1,3.6,3.6v10.7c0,2.5-1.1,3.6-3.6,3.6h-19.5v8.6h27.6c2.5,0,3.6,1.1,3.6,3.6
		v11.7c0,2.5-1.1,3.6-3.6,3.6H566.3z"/>
	<path fill="#EF3A38" d="M631.7,178.3c-2.5,0-3.6-1.1-3.6-3.6v-64.8c0-2.5,1.1-3.6,3.6-3.6H665c15,0,19.7,6.8,19.7,16.7v4.6
		c0,5.6-1.4,9.6-5.6,11.4c7.3,0.8,12.1,6.1,12.1,14.5v21.2c0,2.5-1.1,3.6-3.6,3.6h-15.5c-2.5,0-3.6-1.1-3.6-3.6v-15.3
		c0-3-1-4.3-3.8-4.3h-14v19.6c0,2.5-1.1,3.6-3.6,3.6H631.7z M650.7,137.1h7.5c3.5,0,4.4-2,4.4-4.7V129c0-2.7-0.9-4.7-4.4-4.7h-7.5
		V137.1z"/>
	<path fill="#FBCFD0" d="M31,169.5v-54h20.3c11.1,0,13.1,4.8,13.1,10.6v6.4c0,4-0.7,7.6-6.4,9.1c11.1,0,13,4.9,13,11.5v6.4
		c0,5.9-1.9,10-13.1,10H31z M32,116.5v25.1h19.3c11,0,12.1-4.3,12.1-9.1v-6.4c0-5.4-2-9.6-12.1-9.6H32z M32,142.6v25.9h25.9
		c10,0,12.1-3.5,12.1-9v-6.4c0-6-1.9-10.5-12-10.5H32z"/>
	<path fill="#FBCFD0" d="M122.2,170.8c-15.7,0-20.1-5.4-20.1-13.5v-29.5c0-8.1,4.4-13.5,20.1-13.5s20.3,5.4,20.3,13.5v29.5
		C142.5,165.4,137.9,170.8,122.2,170.8z M122.2,169.8c14.9,0,19.3-5,19.3-12.5v-29.5c0-7.5-4.4-12.5-19.3-12.5
		c-14.9,0-19.1,5-19.1,12.5v29.5C103.1,164.8,107.3,169.8,122.2,169.8z"/>
	<path fill="#FBCFD0" d="M177.2,169.5v-54h20.3c11.1,0,13.1,4.8,13.1,10.6v6.4c0,4-0.7,7.6-6.4,9.1c11.1,0,13,4.9,13,11.5v6.4
		c0,5.9-1.9,10-13.1,10H177.2z M178.2,116.5v25.1h19.3c11,0,12.1-4.3,12.1-9.1v-6.4c0-5.4-2-9.6-12.1-9.6H178.2z M178.2,142.6v25.9
		h25.9c10,0,12.1-3.5,12.1-9v-6.4c0-6-1.9-10.5-12-10.5H178.2z"/>
	<path fill="#FBCFD0" d="M238.7,113.9h9.8v8.6c0,3.9-1.7,7.4-5.6,7.4h-4.1v-1h4.1c3.3,0,4.6-3.1,4.6-6.4v-7.6h-8.8V113.9z"/>
	<path fill="#FBCFD0" d="M306.3,116.5h-22.2c-5.6,0-9.2,3.4-9.2,8.1v8.2c0,4.7,2,6.1,5.1,6.7l21.1,4.3c4,0.8,6.9,2.8,6.9,9.8v5.8
		c0,5.9-4.3,10.1-11.1,10.1H272v-1h24.9c6.2,0,10.1-3.8,10.1-9.1v-5.8c0-6.3-2.4-8-6.1-8.8l-21.1-4.3c-3.5-0.7-5.9-2.2-5.9-7.7v-8.2
		c0-5.3,4-9.1,10.2-9.1h22.2V116.5z"/>
	<path fill="#FBCFD0" d="M363.2,115.5h24.2c13.6,0,16,6.2,16,13.9v26.5c0,7.7-2.2,13.6-16,13.6h-24.2V115.5z M364.2,116.5v52h23.2
		c12.8,0,15-5.3,15-12.6v-26.5c0-7.3-2.4-12.9-15-12.9H364.2z"/>
	<path fill="#FBCFD0" d="M434.3,169.5v-1h15.5v-52h-15.5v-1h31.8v1h-15.3v52h15.3v1H434.3z"/>
	<path fill="#FBCFD0" d="M537.4,157.7v-42.2h1v54h-1v-10.3l-37.8-42.4c-0.2-0.2-0.3-0.3-0.5-0.3c-0.2,0-0.2,0.2-0.2,0.3v52.7h-1
		v-52.9c0-0.8,0.6-1.2,1.2-1.2c0.6,0,0.8,0.2,1.5,0.9L537.4,157.7z"/>
	<path fill="#FBCFD0" d="M607.3,169.5h-33.7v-54h33.7v1h-32.7v25.1h24.6v1h-24.6v25.9h32.7V169.5z"/>
	<path fill="#FBCFD0" d="M638.9,169.5v-54h22.8c7.8,0,11.4,4.8,11.4,11.4v6.9c0,6.1-1.2,10.1-6,11.6h1.1c8.2,0,12.1,3.7,12.1,10.7
		v13.4h-1v-13.4c0-6.6-3.5-9.8-11.1-9.8h-28.3v23.2H638.9z M639.9,116.5v28.9h21.8c8.3,0,10.4-4.1,10.4-11.5v-7
		c0-6.2-3.3-10.4-10.4-10.4H639.9z"/>
</g>
</svg>
