<?xml version="1.0" encoding="utf-8"?>
<!-- Generator: Adobe Illustrator 17.1.0, SVG Export Plug-In . SVG Version: 6.00 Build 0)  -->
<!DOCTYPE svg PUBLIC "-//W3C//DTD SVG 1.1//EN" "http://www.w3.org/Graphics/SVG/1.1/DTD/svg11.dtd">
<svg version="1.1" id="Layer_1" xmlns="http://www.w3.org/2000/svg" xmlns:xlink="http://www.w3.org/1999/xlink" x="0px" y="0px"
	 viewBox="0 0 508.4 200" enable-background="new 0 0 508.4 200" xml:space="preserve">
<g>
	<path d="M-740.1-517.9c0.5-0.1,1.2-0.2,2-0.2c1,0,1.8,0.2,2.3,0.7c0.4,0.4,0.7,1,0.7,1.7c0,0.7-0.2,1.3-0.6,1.7
		c-0.6,0.6-1.5,0.9-2.5,0.9c-0.3,0-0.6,0-0.8-0.1v3.2h-1V-517.9z M-739.1-514c0.2,0.1,0.5,0.1,0.9,0.1c1.3,0,2-0.6,2-1.7
		c0-1.1-0.8-1.6-1.9-1.6c-0.5,0-0.8,0-1,0.1V-514z"/>
	<path d="M-726.8-514.1c0,2.8-1.7,4.3-3.8,4.3c-2.1,0-3.6-1.7-3.6-4.1c0-2.6,1.6-4.2,3.8-4.2C-728.3-518.2-726.8-516.5-726.8-514.1z
		 M-733.1-513.9c0,1.7,0.9,3.3,2.6,3.3c1.7,0,2.6-1.5,2.6-3.4c0-1.6-0.8-3.3-2.6-3.3C-732.2-517.3-733.1-515.7-733.1-513.9z"/>
	<path d="M-725.5-518h1v7.2h3.5v0.9h-4.5V-518z"/>
	<path d="M-718.8-518v8.1h-1v-8.1H-718.8z"/>
	<path d="M-711.3-510.2c-0.4,0.2-1.2,0.4-2.1,0.4c-2.3,0-4-1.4-4-4.1c0-2.5,1.7-4.2,4.2-4.2c1,0,1.6,0.2,1.9,0.4l-0.3,0.9
		c-0.4-0.2-1-0.3-1.6-0.3c-1.9,0-3.2,1.2-3.2,3.3c0,2,1.1,3.3,3.1,3.3c0.6,0,1.3-0.1,1.7-0.3L-711.3-510.2z"/>
	<path d="M-708.1-509.9v-3.4l-2.6-4.7h1.2l1.1,2.2c0.3,0.6,0.6,1.1,0.8,1.7h0c0.2-0.5,0.5-1.1,0.8-1.7l1.2-2.2h1.2l-2.7,4.6v3.4
		H-708.1z"/>
</g>
<g>
	<path fill="#666766" d="M6,86.5V21.7c0-1.8,0.5-2.9,1.4-3.7L20.3,7.1c0.7-0.6,1.8-0.9,3.2-0.9h31.9c14,0,20.2,5.3,20.2,16.3v4.8
		c0,4.7-1.3,8-3.8,10l-0.3,0.2c7.3,1.6,10.8,6.7,10.8,16.1v9.2c0,6-1.7,10.3-5.2,13.2L64.2,86.9c-3.3,2.8-8.3,4.2-15.2,4.2H10.6
		C7.4,91.1,6,89.7,6,86.5z"/>
	<path fill="#666766" d="M83.1,91.1c-3.2,0-4.6-1.4-4.6-4.6V21.7c0-1.8,0.5-2.9,1.4-3.7L92.8,7.1c0.7-0.6,1.8-0.9,3.2-0.9h46.4
		c3.2,0,4.6,1.4,4.6,4.6v11.7c0,1.8-0.5,2.9-1.4,3.7l-8.6,7.1c1.3,0.7,1.9,2,1.9,4.1v10.7c0,1.8-0.5,2.9-1.4,3.7l-8.9,7.5h13.8
		c3.2,0,4.6,1.4,4.6,4.6v11.7c0,1.8-0.5,2.9-1.4,3.7l-13,10.8c-0.6,0.6-1.7,1-3.1,1H83.1z"/>
	<path fill="#666766" d="M162.7,91.1c-3.2,0-4.6-1.4-4.6-4.6V38.4h-13.7c-3.2,0-4.6-1.4-4.6-4.6V21.7c0-1.8,0.5-2.9,1.4-3.7
		l12.9-10.9c0.7-0.6,1.8-0.9,3.2-0.9h52.8c3.2,0,4.6,1.4,4.6,4.6v12.1c0,1.8-0.5,2.9-1.4,3.7l-13,10.8c-0.6,0.6-1.7,1-3.1,1h-0.8
		v37.2c0,1.8-0.5,2.9-1.4,3.7l-13,10.8c-0.6,0.6-1.7,1-3.1,1H162.7z"/>
	<path fill="#666766" d="M234,91.1h-13.2c-2.6,0-4.5-1.7-5.3-4.3l-5-13.8c-1.9-5-1.9-8.3-1.9-12.7V21.7c0-1.8,0.5-2.9,1.4-3.7
		l12.9-10.9c0.7-0.6,1.8-0.9,3.2-0.9h15.4c3.2,0,4.6,1.4,4.6,4.6v26.1l5.6-4.7c1.1-0.9,2.6-1.3,4.5-1.3h1.4v-9.2
		c0-1.8,0.4-2.9,1.2-3.6l0.1-0.1l13-10.9c0.7-0.6,1.7-0.9,3.2-0.9H290c3.2,0,4.6,1.4,4.6,4.6v38.8c0,4.4,0,7.7-1.9,12.7l-5,13.6
		c-0.4,1.3-1,2.4-2,3.3l-12.9,10.7c-0.8,0.8-1.7,1.2-2.9,1.2h-13.3c-2.7,0-4.8-1.2-5.6-3.7l-2-7.1l-11.5,9.6
		C236.5,90.6,235.3,91.1,234,91.1z"/>
	<path fill="#666766" d="M297.2,91.1c-3.2,0-4.6-1.4-4.6-4.6V21.7c0-1.8,0.5-2.9,1.4-3.7l12.9-10.9c0.7-0.6,1.8-0.9,3.2-0.9h46.4
		c3.2,0,4.6,1.4,4.6,4.6v11.7c0,1.8-0.5,2.9-1.4,3.7l-8.6,7.1c1.3,0.7,1.9,2,1.9,4.1v10.7c0,1.8-0.5,2.9-1.4,3.7l-8.9,7.5h13.8
		c3.2,0,4.6,1.4,4.6,4.6v11.7c0,1.8-0.5,2.9-1.4,3.7l-13,10.8c-0.6,0.6-1.7,1-3.1,1H297.2z"/>
	<path fill="#666766" d="M362.6,91.1c-3.2,0-4.6-1.4-4.6-4.6V21.7c0-1.8,0.5-2.9,1.4-3.7l12.9-10.9c0.7-0.6,1.8-0.9,3.2-0.9h46.4
		c3.2,0,4.6,1.4,4.6,4.6v11.7c0,1.8-0.5,2.9-1.4,3.7l-8.6,7.1c1.3,0.7,1.9,2,1.9,4.1v10.7c0,1.8-0.5,2.9-1.4,3.7l-8.9,7.5h13.8
		c3.2,0,4.6,1.4,4.6,4.6v11.7c0,1.8-0.5,2.9-1.4,3.7l-13,10.8c-0.6,0.6-1.7,1-3.1,1H362.6z"/>
	<path fill="#666766" d="M446.1,90.1c-0.6,0.6-1.7,1-3.1,1h-15c-3.2,0-4.6-1.4-4.6-4.6V21.7c0-1.8,0.5-2.9,1.4-3.7l12.9-10.9
		c0.7-0.6,1.8-0.9,3.2-0.9h10.4c2.9,0,4.7,0.8,6.7,3l6.9,8L477,7.1c0.7-0.6,1.8-0.9,3.2-0.9h15c3.2,0,4.6,1.4,4.6,4.6v64.8
		c0,1.8-0.5,2.9-1.4,3.7l-13,10.8c-0.6,0.6-1.7,1-3.1,1h-15c-3.2,0-4.6-1.4-4.6-4.6V74.6l-2.2-2.7v3.7c0,1.8-0.5,2.9-1.4,3.7
		L446.1,90.1z"/>
	<path fill="#B5B5B6" d="M23.5,79.2c-2.5,0-3.6-1.1-3.6-3.6V10.8c0-2.5,1.1-3.6,3.6-3.6h31.9c13.1,0,19.2,4.8,19.2,15.3v4.8
		c0,5.6-1.9,9.1-5.9,10.8c8.6,0.8,12.6,5.7,12.6,15.5v9.2c0,11.2-6.1,16.4-19.4,16.4H23.5z M42.4,35h8.5c2.6,0,3.8-1.3,3.8-4v-2.8
		c0-2.7-1.2-4-3.8-4h-8.5V35z M42.4,62.2h13c2.6,0,3.8-1.3,3.8-4v-3.9c0-2.7-1.2-3.9-3.8-3.9h-13V62.2z"/>
	<path fill="#B5B5B6" d="M96,79.2c-2.5,0-3.6-1.1-3.6-3.6V10.8c0-2.5,1.1-3.6,3.6-3.6h46.4c2.5,0,3.6,1.1,3.6,3.6v11.7
		c0,2.5-1.1,3.6-3.6,3.6h-27.6v7.7h19.5c2.5,0,3.6,1.1,3.6,3.6v10.7c0,2.5-1.1,3.6-3.6,3.6h-19.5v8.6h27.6c2.5,0,3.6,1.1,3.6,3.6
		v11.7c0,2.5-1.1,3.6-3.6,3.6H96z"/>
	<path fill="#B5B5B6" d="M175.6,79.2c-2.5,0-3.6-1.1-3.6-3.6V26.5h-14.7c-2.5,0-3.6-1.1-3.6-3.6V10.8c0-2.5,1.1-3.6,3.6-3.6h52.8
		c2.5,0,3.6,1.1,3.6,3.6v12.1c0,2.5-1.1,3.6-3.6,3.6h-14.7v49.1c0,2.5-1.1,3.6-3.6,3.6H175.6z"/>
	<path fill="#B5B5B6" d="M290,7.2c2.5,0,3.6,1.1,3.6,3.6v38.8c0,4.3,0,7.5-1.8,12.4l-5,13.6c-0.7,2-1.9,3.6-4,3.6h-13.3
		c-2.2,0-4-0.9-4.6-3l-4.6-16.3c-0.4-1.3-1-1.7-1.8-1.7h-0.9c-0.8,0-1.4,0.4-1.8,1.7l-4.7,16.3c-0.6,2-2.1,3-4.2,3h-13.2
		c-2.2,0-3.7-1.5-4.4-3.6l-5-13.8c-1.8-4.9-1.8-8.1-1.8-12.4V10.8c0-2.5,1.1-3.6,3.6-3.6h15.4c2.5,0,3.6,1.1,3.6,3.6v36.8l5.8-12.6
		c1.1-2.3,2.7-3.1,5.3-3.1h4.2c2.6,0,4.2,0.8,5.3,3.1l5.8,12.6V10.8c0-2.5,1-3.6,3.6-3.6H290z"/>
	<path fill="#B5B5B6" d="M310.1,79.2c-2.5,0-3.6-1.1-3.6-3.6V10.8c0-2.5,1.1-3.6,3.6-3.6h46.4c2.5,0,3.6,1.1,3.6,3.6v11.7
		c0,2.5-1.1,3.6-3.6,3.6h-27.6v7.7h19.5c2.5,0,3.6,1.1,3.6,3.6v10.7c0,2.5-1.1,3.6-3.6,3.6h-19.5v8.6h27.6c2.5,0,3.6,1.1,3.6,3.6
		v11.7c0,2.5-1.1,3.6-3.6,3.6H310.1z"/>
	<path fill="#B5B5B6" d="M375.5,79.2c-2.5,0-3.6-1.1-3.6-3.6V10.8c0-2.5,1.1-3.6,3.6-3.6h46.4c2.5,0,3.6,1.1,3.6,3.6v11.7
		c0,2.5-1.1,3.6-3.6,3.6h-27.6v7.7h19.5c2.5,0,3.6,1.1,3.6,3.6v10.7c0,2.5-1.1,3.6-3.6,3.6h-19.5v8.6h27.6c2.5,0,3.6,1.1,3.6,3.6
		v11.7c0,2.5-1.1,3.6-3.6,3.6H375.5z"/>
	<path fill="#B5B5B6" d="M440.9,79.2c-2.5,0-3.6-1.1-3.6-3.6V10.8c0-2.5,1.1-3.6,3.6-3.6h10.4c2.6,0,4.2,0.7,5.9,2.7l19.4,22.2V10.8
		c0-2.5,1.1-3.6,3.6-3.6h15c2.5,0,3.6,1.1,3.6,3.6v64.8c0,2.5-1.1,3.6-3.6,3.6h-15c-2.5,0-3.6-1.1-3.6-3.6V63.3l-17.1-20.7v33
		c0,2.5-1.1,3.6-3.6,3.6H440.9z"/>
	<path fill="#FAFBFB" d="M31,70.4v-54h20.3c11.1,0,13.1,4.8,13.1,10.6v6.4c0,4-0.7,7.6-6.4,9.1c11.1,0,13,4.9,13,11.5v6.4
		c0,5.9-1.9,10-13.1,10H31z M32,17.4v25.1h19.3c11,0,12.1-4.3,12.1-9.1V27c0-5.4-2-9.6-12.1-9.6H32z M32,43.5v25.9h25.9
		c10,0,12.1-3.5,12.1-9V54c0-6-1.9-10.5-12-10.5H32z"/>
	<path fill="#FAFBFB" d="M137,70.4h-33.7v-54H137v1h-32.7v25.1h24.6v1h-24.6v25.9H137V70.4z"/>
	<path fill="#FAFBFB" d="M183.2,17.4h-20.5v-1h42v1h-20.5v53h-1V17.4z"/>
	<path fill="#FAFBFB" d="M265.3,49.6l8.2,18.4c0.6,1.4,1.7,1.4,2.7,1.4h0.5c1.1,0,2.1-1,2.3-2.1l2.5-11.4c0.5-2.5,0.5-7.1,0.5-10.1
		V16.4h1v29.5c0,3,0,7.6-0.5,10.1L280,67.3c-0.5,2.2-1.7,3.1-3.3,3.1H276c-1.2,0-2.7-0.3-3.3-1.7l-8.2-18.6
		c-1.6-3.6-2.5-4.2-4.1-4.2h-4.5c-1.6,0-2.5,0.6-4.1,4.2l-8.2,18.6c-0.6,1.4-2.1,1.7-3.3,1.7h-0.7c-1.6,0-2.8-0.9-3.3-3.1L233.8,56
		c-0.5-2.5-0.5-7.1-0.5-10.1V16.4h1v29.4c0,3,0,7.6,0.5,10.1l2.5,11.4c0.2,1.1,1.2,2.1,2.3,2.1h0.5c1,0,2.1,0,2.7-1.4l8.2-18.4
		c1.7-3.8,2.8-4.7,4.9-4.7h4.5C262.5,44.9,263.6,45.8,265.3,49.6z"/>
	<path fill="#FAFBFB" d="M351.1,70.4h-33.7v-54h33.7v1h-32.7v25.1H343v1h-24.6v25.9h32.7V70.4z"/>
	<path fill="#FAFBFB" d="M416.5,70.4h-33.7v-54h33.7v1h-32.7v25.1h24.6v1h-24.6v25.9h32.7V70.4z"/>
	<path fill="#FAFBFB" d="M487.3,58.6V16.4h1v54h-1V60.1l-37.8-42.4c-0.2-0.2-0.3-0.3-0.5-0.3c-0.2,0-0.2,0.2-0.2,0.3v52.7h-1V17.5
		c0-0.8,0.6-1.2,1.2-1.2c0.6,0,0.8,0.2,1.5,0.9L487.3,58.6z"/>
</g>
<g>
	<path fill="#9F1D21" d="M6,185.6v-64.8c0-1.8,0.5-2.9,1.4-3.7l12.9-10.9c0.7-0.6,1.8-0.9,3.2-0.9h31.9c14,0,20.2,5.3,20.2,16.3v4.8
		c0,4.7-1.3,8-3.8,10l-0.3,0.2c7.3,1.6,10.8,6.7,10.8,16.1v9.2c0,6-1.7,10.3-5.2,13.2L64.2,186c-3.3,2.8-8.3,4.2-15.2,4.2H10.6
		C7.4,190.2,6,188.8,6,185.6z"/>
	<path fill="#9F1D21" d="M103,190.2c-19.8,0-25.6-8.8-25.6-21.4v-31.1c0-6.8,1.7-12.5,6.3-16.3l12.9-10.9c3.9-3.3,10.1-5.2,19.3-5.2
		h25.4c3.2,0,4.6,1.4,4.6,4.6v11.7c0,1.8-0.5,2.9-1.4,3.7l-8.5,7.1c1.3,0.6,1.9,1.9,1.9,4.1v10.7c0,1.8-0.5,2.9-1.4,3.7l-8.9,7.5
		h13.7c3.2,0,4.6,1.4,4.6,4.6v11.7c0,1.8-0.5,2.9-1.4,3.7l-13,10.8c-0.6,0.6-1.7,1-3.1,1H103z"/>
	<path fill="#9F1D21" d="M161.6,190.2c-3.2,0-4.6-1.4-4.6-4.6v-48.1h-13.7c-3.2,0-4.6-1.4-4.6-4.6v-12.1c0-1.8,0.5-2.9,1.4-3.7
		l12.9-10.9c0.7-0.6,1.8-0.9,3.2-0.9H209c3.2,0,4.6,1.4,4.6,4.6V122c0,1.8-0.5,2.9-1.4,3.7l-13,10.8c-0.6,0.6-1.7,1-3.1,1h-0.8v37.2
		c0,1.8-0.5,2.9-1.4,3.7l-13,10.8c-0.6,0.6-1.7,1-3.1,1H161.6z"/>
	<path fill="#9F1D21" d="M232.9,190.2h-13.2c-2.6,0-4.5-1.7-5.3-4.3l-5-13.8c-1.9-5-1.9-8.3-1.9-12.7v-38.6c0-1.8,0.5-2.9,1.4-3.7
		l12.9-10.9c0.7-0.6,1.8-0.9,3.2-0.9h15.4c3.2,0,4.6,1.4,4.6,4.6V136l5.6-4.7c1.1-0.9,2.6-1.3,4.5-1.3h1.4v-9.2
		c0-1.8,0.4-2.9,1.2-3.6l0.1-0.1l13-10.9c0.7-0.6,1.7-0.9,3.2-0.9h14.9c3.2,0,4.6,1.4,4.6,4.6v38.8c0,4.4,0,7.7-1.9,12.7l-5,13.6
		c-0.4,1.3-1,2.4-2,3.3L271.7,189c-0.8,0.8-1.7,1.2-2.9,1.2h-13.3c-2.7,0-4.8-1.2-5.6-3.7l-2-7.1l-11.5,9.6
		C235.4,189.7,234.2,190.2,232.9,190.2z"/>
	<path fill="#9F1D21" d="M316,190.2c-19.8,0-25.6-8.8-25.6-21.4v-31.1c0-6.8,1.7-12.5,6.3-16.3l12.9-10.9c3.9-3.3,10.1-5.2,19.3-5.2
		h25.4c3.2,0,4.6,1.4,4.6,4.6v11.7c0,1.8-0.5,2.9-1.4,3.7l-8.5,7.1c1.3,0.6,1.9,1.9,1.9,4.1v10.7c0,1.8-0.5,2.9-1.4,3.7l-8.9,7.5
		h13.7c3.2,0,4.6,1.4,4.6,4.6v11.7c0,1.8-0.5,2.9-1.4,3.7l-13,10.8c-0.6,0.6-1.7,1-3.1,1H316z"/>
	<path fill="#9F1D21" d="M379.8,190.2c-19.8,0-25.6-8.8-25.6-21.4v-31.1c0-6.8,1.7-12.5,6.3-16.3l12.9-10.9
		c3.9-3.3,10.1-5.2,19.3-5.2h25.4c3.2,0,4.6,1.4,4.6,4.6v11.7c0,1.8-0.5,2.9-1.4,3.7l-8.5,7.1c1.3,0.6,1.9,1.9,1.9,4.1v10.7
		c0,1.8-0.5,2.9-1.4,3.7l-8.9,7.5h13.7c3.2,0,4.6,1.4,4.6,4.6v11.7c0,1.8-0.5,2.9-1.4,3.7l-13,10.8c-0.6,0.6-1.7,1-3.1,1H379.8z"/>
	<path fill="#9F1D21" d="M442.3,189.2c-0.6,0.6-1.7,1-3.1,1h-15c-3.2,0-4.6-1.4-4.6-4.6v-64.8c0-1.8,0.5-2.9,1.4-3.7l12.9-10.9
		c0.7-0.6,1.8-0.9,3.2-0.9h10.4c2.9,0,4.7,0.8,6.7,3l6.9,8l12.1-10.1c0.7-0.6,1.8-0.9,3.2-0.9h15c3.2,0,4.6,1.4,4.6,4.6v64.8
		c0,1.8-0.5,2.9-1.4,3.7l-13,10.8c-0.6,0.6-1.7,1-3.1,1h-15c-3.2,0-4.6-1.4-4.6-4.6v-11.9l-2.2-2.7v3.7c0,1.8-0.5,2.9-1.4,3.7
		L442.3,189.2z"/>
	<path fill="#EF3A38" d="M23.5,178.3c-2.5,0-3.6-1.1-3.6-3.6v-64.8c0-2.5,1.1-3.6,3.6-3.6h31.9c13.1,0,19.2,4.8,19.2,15.3v4.8
		c0,5.6-1.9,9.1-5.9,10.8c8.6,0.8,12.6,5.7,12.6,15.5v9.2c0,11.2-6.1,16.4-19.4,16.4H23.5z M42.4,134.1h8.5c2.6,0,3.8-1.3,3.8-4
		v-2.8c0-2.7-1.2-4-3.8-4h-8.5V134.1z M42.4,161.3h13c2.6,0,3.8-1.3,3.8-4v-3.9c0-2.7-1.2-3.9-3.8-3.9h-13V161.3z"/>
	<path fill="#EF3A38" d="M141.3,178.3h-25.4c-18.9,0-24.6-8.3-24.6-20.4v-31.1c0-12.2,5.7-20.5,24.6-20.5h25.4
		c2.5,0,3.6,1.1,3.6,3.6v11.7c0,2.5-1.1,3.6-3.6,3.6h-22.1c-5.2,0-6.1,2.4-6.1,5v2.7h20.2c2.5,0,3.6,1,3.6,3.6v10.7
		c0,2.5-1.1,3.6-3.6,3.6h-20.2v3.8c0,2.8,0.9,4.8,6.1,4.8h22.1c2.5,0,3.6,1.1,3.6,3.6v11.7C144.9,177.2,143.8,178.3,141.3,178.3z"/>
	<path fill="#EF3A38" d="M174.5,178.3c-2.5,0-3.6-1.1-3.6-3.6v-49.1h-14.7c-2.5,0-3.6-1.1-3.6-3.6v-12.1c0-2.5,1.1-3.6,3.6-3.6H209
		c2.5,0,3.6,1.1,3.6,3.6V122c0,2.5-1.1,3.6-3.6,3.6h-14.7v49.1c0,2.5-1.1,3.6-3.6,3.6H174.5z"/>
	<path fill="#EF3A38" d="M288.9,106.3c2.5,0,3.6,1.1,3.6,3.6v38.8c0,4.3,0,7.5-1.8,12.4l-5,13.6c-0.7,2-1.9,3.6-4,3.6h-13.3
		c-2.2,0-4-0.9-4.6-3l-4.6-16.3c-0.4-1.3-1-1.7-1.8-1.7h-0.9c-0.8,0-1.4,0.4-1.8,1.7l-4.7,16.3c-0.6,2-2.1,3-4.2,3h-13.2
		c-2.2,0-3.7-1.5-4.4-3.6l-5-13.8c-1.8-4.9-1.8-8.1-1.8-12.4v-38.6c0-2.5,1.1-3.6,3.6-3.6h15.4c2.5,0,3.6,1.1,3.6,3.6v36.8l5.8-12.6
		c1.1-2.3,2.7-3.1,5.3-3.1h4.2c2.6,0,4.2,0.8,5.3,3.1l5.8,12.6v-36.8c0-2.5,1-3.6,3.6-3.6H288.9z"/>
	<path fill="#EF3A38" d="M354.3,178.3h-25.4c-18.9,0-24.6-8.3-24.6-20.4v-31.1c0-12.2,5.7-20.5,24.6-20.5h25.4
		c2.5,0,3.6,1.1,3.6,3.6v11.7c0,2.5-1.1,3.6-3.6,3.6h-22.1c-5.2,0-6.1,2.4-6.1,5v2.7h20.2c2.5,0,3.6,1,3.6,3.6v10.7
		c0,2.5-1.1,3.6-3.6,3.6h-20.2v3.8c0,2.8,0.9,4.8,6.1,4.8h22.1c2.5,0,3.6,1.1,3.6,3.6v11.7C357.9,177.2,356.8,178.3,354.3,178.3z"/>
	<path fill="#EF3A38" d="M418.1,178.3h-25.4c-18.9,0-24.6-8.3-24.6-20.4v-31.1c0-12.2,5.7-20.5,24.6-20.5h25.4
		c2.5,0,3.6,1.1,3.6,3.6v11.7c0,2.5-1.1,3.6-3.6,3.6H396c-5.2,0-6.1,2.4-6.1,5v2.7h20.2c2.5,0,3.6,1,3.6,3.6v10.7
		c0,2.5-1.1,3.6-3.6,3.6h-20.2v3.8c0,2.8,0.9,4.8,6.1,4.8h22.1c2.5,0,3.6,1.1,3.6,3.6v11.7C421.7,177.2,420.6,178.3,418.1,178.3z"/>
	<path fill="#EF3A38" d="M437.1,178.3c-2.5,0-3.6-1.1-3.6-3.6v-64.8c0-2.5,1.1-3.6,3.6-3.6h10.4c2.6,0,4.2,0.7,5.9,2.7l19.4,22.2
		v-21.3c0-2.5,1.1-3.6,3.6-3.6h15c2.5,0,3.6,1.1,3.6,3.6v64.8c0,2.5-1.1,3.6-3.6,3.6h-15c-2.5,0-3.6-1.1-3.6-3.6v-12.3l-17.1-20.7
		v33c0,2.5-1.1,3.6-3.6,3.6H437.1z"/>
	<path fill="#FBCFD0" d="M31,169.5v-54h20.3c11.1,0,13.1,4.8,13.1,10.6v6.4c0,4-0.7,7.6-6.4,9.1c11.1,0,13,4.9,13,11.5v6.4
		c0,5.9-1.9,10-13.1,10H31z M32,116.5v25.1h19.3c11,0,12.1-4.3,12.1-9.1v-6.4c0-5.4-2-9.6-12.1-9.6H32z M32,142.6v25.9h25.9
		c10,0,12.1-3.5,12.1-9v-6.4c0-6-1.9-10.5-12-10.5H32z"/>
	<path fill="#FBCFD0" d="M135.9,169.5h-18.2c-13,0-16-3.6-16-12.9v-28c0-9.5,3.2-13.1,16-13.1h18.2v1h-18.2c-11.8,0-15,3.2-15,12.1
		v13h26.2v1h-26.2v14c0,8.7,3,11.9,15,11.9h18.2V169.5z"/>
	<path fill="#FBCFD0" d="M182.1,116.5h-20.5v-1h42v1h-20.5v53h-1V116.5z"/>
	<path fill="#FBCFD0" d="M264.2,148.7l8.2,18.4c0.6,1.4,1.7,1.4,2.7,1.4h0.5c1.1,0,2.1-1,2.3-2.1l2.5-11.4c0.5-2.5,0.5-7.1,0.5-10.1
		v-29.4h1V145c0,3,0,7.6-0.5,10.1l-2.5,11.3c-0.5,2.2-1.7,3.1-3.3,3.1h-0.7c-1.2,0-2.7-0.3-3.3-1.7l-8.2-18.6
		c-1.6-3.6-2.5-4.2-4.1-4.2h-4.5c-1.6,0-2.5,0.6-4.1,4.2l-8.2,18.6c-0.6,1.4-2.1,1.7-3.3,1.7h-0.7c-1.6,0-2.8-0.9-3.3-3.1l-2.5-11.3
		c-0.5-2.5-0.5-7.1-0.5-10.1v-29.5h1v29.4c0,3,0,7.6,0.5,10.1l2.5,11.4c0.2,1.1,1.2,2.1,2.3,2.1h0.5c1,0,2.1,0,2.7-1.4l8.2-18.4
		c1.7-3.8,2.8-4.7,4.9-4.7h4.5C261.4,144,262.5,144.9,264.2,148.7z"/>
	<path fill="#FBCFD0" d="M348.9,169.5h-18.2c-13,0-16-3.6-16-12.9v-28c0-9.5,3.2-13.1,16-13.1h18.2v1h-18.2c-11.8,0-15,3.2-15,12.1
		v13h26.2v1h-26.2v14c0,8.7,3,11.9,15,11.9h18.2V169.5z"/>
	<path fill="#FBCFD0" d="M412.7,169.5h-18.2c-13,0-16-3.6-16-12.9v-28c0-9.5,3.2-13.1,16-13.1h18.2v1h-18.2c-11.8,0-15,3.2-15,12.1
		v13h26.2v1h-26.2v14c0,8.7,3,11.9,15,11.9h18.2V169.5z"/>
	<path fill="#FBCFD0" d="M483.5,157.7v-42.2h1v54h-1v-10.3l-37.8-42.4c-0.2-0.2-0.3-0.3-0.5-0.3c-0.2,0-0.2,0.2-0.2,0.3v52.7h-1
		v-52.9c0-0.8,0.6-1.2,1.2-1.2c0.6,0,0.8,0.2,1.5,0.9L483.5,157.7z"/>
</g>
</svg>
