<?xml version="1.0" encoding="utf-8"?>
<!-- Generator: Adobe Illustrator 17.1.0, SVG Export Plug-In . SVG Version: 6.00 Build 0)  -->
<!DOCTYPE svg PUBLIC "-//W3C//DTD SVG 1.1//EN" "http://www.w3.org/Graphics/SVG/1.1/DTD/svg11.dtd">
<svg version="1.1" id="Layer_1" xmlns="http://www.w3.org/2000/svg" xmlns:xlink="http://www.w3.org/1999/xlink" x="0px" y="0px"
	 viewBox="0 0 536.9 200" enable-background="new 0 0 536.9 200" xml:space="preserve">
<g>
	<path d="M-740.1-517.9c0.5-0.1,1.2-0.2,2-0.2c1,0,1.8,0.2,2.3,0.7c0.4,0.4,0.7,1,0.7,1.7c0,0.7-0.2,1.3-0.6,1.7
		c-0.6,0.6-1.5,0.9-2.5,0.9c-0.3,0-0.6,0-0.8-0.1v3.2h-1V-517.9z M-739.1-514c0.2,0.1,0.5,0.1,0.9,0.1c1.3,0,2-0.6,2-1.7
		c0-1.1-0.8-1.6-1.9-1.6c-0.5,0-0.8,0-1,0.1V-514z"/>
	<path d="M-726.8-514.1c0,2.8-1.7,4.3-3.8,4.3c-2.1,0-3.6-1.7-3.6-4.1c0-2.6,1.6-4.2,3.8-4.2C-728.3-518.2-726.8-516.5-726.8-514.1z
		 M-733.1-513.9c0,1.7,0.9,3.3,2.6,3.3c1.7,0,2.6-1.5,2.6-3.4c0-1.6-0.8-3.3-2.6-3.3C-732.2-517.3-733.1-515.7-733.1-513.9z"/>
	<path d="M-725.5-518h1v7.2h3.5v0.9h-4.5V-518z"/>
	<path d="M-718.8-518v8.1h-1v-8.1H-718.8z"/>
	<path d="M-711.3-510.2c-0.4,0.2-1.2,0.4-2.1,0.4c-2.3,0-4-1.4-4-4.1c0-2.5,1.7-4.2,4.2-4.2c1,0,1.6,0.2,1.9,0.4l-0.3,0.9
		c-0.4-0.2-1-0.3-1.6-0.3c-1.9,0-3.2,1.2-3.2,3.3c0,2,1.1,3.3,3.1,3.3c0.6,0,1.3-0.1,1.7-0.3L-711.3-510.2z"/>
	<path d="M-708.1-509.9v-3.4l-2.6-4.7h1.2l1.1,2.2c0.3,0.6,0.6,1.1,0.8,1.7h0c0.2-0.5,0.5-1.1,0.8-1.7l1.2-2.2h1.2l-2.7,4.6v3.4
		H-708.1z"/>
</g>
<g>
	<path fill="#666766" d="M28.6,90.1c-0.6,0.6-1.7,1-3.1,1H10.6c-3.2,0-4.6-1.4-4.6-4.6V21.7c0-1.8,0.5-2.9,1.4-3.7L20.3,7.1
		c0.7-0.6,1.8-0.9,3.2-0.9h16.1c2.5,0,4,0.9,5.5,3.5l6.8,12.5l0.9-1.6c0.5-1,1.1-1.8,1.8-2.4L67.5,7.4c1.1-0.8,2.1-1.2,3.7-1.2h16.2
		c3.2,0,4.6,1.4,4.6,4.6v64.8c0,1.8-0.5,2.9-1.4,3.7l-13,10.8c-0.6,0.6-1.7,1-3.1,1H59.1c-3.3,0-4.6-1.4-4.6-4.6V60.1L48.6,65
		c-1.1,0.9-2.4,1.4-4.3,1.4H43v9.2c0,1.8-0.5,2.9-1.4,3.7L28.6,90.1z"/>
	<path fill="#666766" d="M108.7,91.1H94c-3.2,0-4.6-1.4-4.6-4.6V60.1c0-4.1,1.2-9.2,4-16.4l8.6-22.6c0.4-1.2,1-2,1.7-2.7l0.1-0.1
		l12.8-10.7c1.1-1,2.5-1.4,4.4-1.4h26.9c3.1,0,5,1.2,5.9,3.9l8.7,22.7c2.8,7.2,4,12.3,4,16.4v26.4c0,1.8-0.5,2.9-1.4,3.7l-13,10.8
		c-0.6,0.6-1.7,1-3.1,1h-15.1c-3.4,0-4.9-1.5-4.9-4.6v-13h-2.8v2.1c0,1.8-0.5,2.9-1.4,3.7l-13,10.8
		C111.2,90.7,110.1,91.1,108.7,91.1z"/>
	<path fill="#666766" d="M188.4,91.1c-17.6,0-25.6-6.9-25.6-21.4V38.6c0-7.4,2.1-12.7,6.3-16.3l13-10.9c4.1-3.5,10.5-5.2,19.2-5.2
		h24.4c3.2,0,4.6,1.4,4.6,4.6v12.1c0,1.8-0.5,2.9-1.4,3.7l-13,10.8c-0.6,0.6-1.7,1-3.1,1h-12.3v16.9c0,2.8,1.8,3.8,5.1,3.8h20.1
		c3.2,0,4.6,1.4,4.6,4.6v11.9c0,1.8-0.5,2.9-1.4,3.7l-13,10.8c-0.6,0.6-1.7,1-3.1,1H188.4z"/>
	<path fill="#666766" d="M249.9,90.1c-0.6,0.6-1.7,1-3.1,1h-15.5c-3.2,0-4.6-1.4-4.6-4.6V21.7c0-1.8,0.5-2.9,1.4-3.7L241,7.1
		c0.7-0.6,1.8-0.9,3.2-0.9h15.5c3.2,0,4.6,1.4,4.6,4.6v20.7h1.8v-9.8c0-1.8,0.5-2.9,1.4-3.7l12.9-10.9c0.7-0.6,1.8-0.9,3.2-0.9h15.5
		c3.2,0,4.6,1.4,4.6,4.6v64.8c0,1.8-0.5,2.9-1.4,3.7l-13,10.8c-0.6,0.6-1.7,1-3.1,1h-15.5c-3.2,0-4.6-1.4-4.6-4.6V65.3h-1.8v10.3
		c0,1.8-0.5,2.9-1.4,3.7L249.9,90.1z"/>
	<path fill="#666766" d="M305.6,91.1c-3.2,0-4.6-1.4-4.6-4.6V74.6c0-1.8,0.5-2.9,1.4-3.7l12.1-10.2V38.4h-8.9
		c-3.2,0-4.6-1.4-4.6-4.6V21.7c0-1.8,0.5-2.9,1.4-3.7l12.9-10.9c0.7-0.6,1.8-0.9,3.2-0.9h42.6c3.2,0,4.6,1.4,4.6,4.6v12.1
		c0,1.8-0.5,2.9-1.4,3.7l-11.9,10v22.5h8.7c3.2,0,4.6,1.4,4.6,4.6v11.9c0,1.8-0.5,2.9-1.4,3.7l-13,10.8c-0.6,0.6-1.7,1-3.1,1H305.6z
		"/>
	<path fill="#666766" d="M385.8,90.1c-0.6,0.6-1.7,1-3.1,1h-15c-3.2,0-4.6-1.4-4.6-4.6V21.7c0-1.8,0.5-2.9,1.4-3.7l12.9-10.9
		c0.7-0.6,1.8-0.9,3.2-0.9H391c2.9,0,4.7,0.8,6.7,3l6.9,8l12.1-10.1c0.7-0.6,1.8-0.9,3.2-0.9h15c3.2,0,4.6,1.4,4.6,4.6v64.8
		c0,1.8-0.5,2.9-1.4,3.7l-13,10.8c-0.6,0.6-1.7,1-3.1,1h-15c-3.2,0-4.6-1.4-4.6-4.6V74.6l-2.2-2.7v3.7c0,1.8-0.5,2.9-1.4,3.7
		L385.8,90.1z"/>
	<path fill="#666766" d="M443,91.1c-3.2,0-4.6-1.4-4.6-4.6V21.7c0-1.8,0.5-2.9,1.4-3.7l12.9-10.9c0.7-0.6,1.8-0.9,3.2-0.9h46.4
		c3.2,0,4.6,1.4,4.6,4.6v11.7c0,1.8-0.5,2.9-1.4,3.7l-8.6,7.1c1.3,0.7,1.9,2,1.9,4.1v10.7c0,1.8-0.5,2.9-1.4,3.7l-8.9,7.5h13.8
		c3.2,0,4.6,1.4,4.6,4.6v11.7c0,1.8-0.5,2.9-1.4,3.7l-13,10.8c-0.6,0.6-1.7,1-3.1,1H443z"/>
	<path fill="#B5B5B6" d="M23.5,79.2c-2.5,0-3.6-1.1-3.6-3.6V10.8c0-2.5,1.1-3.6,3.6-3.6h16.1c2.1,0,3.4,0.8,4.6,3l9,16.3
		c0.7,1.2,1,1.7,1.8,1.7h0.9c0.8,0,1.1-0.5,1.8-1.7l8.9-16.3c1.2-2.2,2.5-3,4.6-3h16.2c2.5,0,3.6,1.1,3.6,3.6v64.8
		c0,2.5-1.1,3.6-3.6,3.6H72c-2.6,0-3.6-1.1-3.6-3.6V40.4l-5.9,10.9c-1.2,2.3-2.7,3.2-5.3,3.2h-4c-2.6,0-4.1-0.9-5.3-3.2L42,40.4
		v35.2c0,2.5-1.1,3.6-3.6,3.6H23.5z"/>
	<path fill="#B5B5B6" d="M121.6,79.2h-14.7c-2.5,0-3.6-1.1-3.6-3.6V49.2c0-4,1.2-9,3.9-16l8.7-22.7c0.8-2.3,2.4-3.3,5.1-3.3h26.9
		c2.6,0,4.2,1,5,3.3l8.7,22.7c2.7,7,3.9,12,3.9,16v26.4c0,2.5-1.1,3.6-3.6,3.6h-15.1c-2.7,0-3.9-1.1-3.9-3.6v-14h-17.7v14
		C125.2,78.1,124.1,79.2,121.6,79.2z M126.2,43.4h15.7l-4.7-15.2c-0.5-1.2-1.1-1.7-1.9-1.7h-2.5c-0.8,0-1.4,0.5-1.9,1.7L126.2,43.4z
		"/>
	<path fill="#B5B5B6" d="M201.3,79.2c-16.8,0-24.6-6.5-24.6-20.4V27.7c0-14,7.8-20.5,24.6-20.5h24.4c2.5,0,3.6,1.1,3.6,3.6v12.1
		c0,2.5-1.1,3.6-3.6,3.6h-20.1c-4.2,0-6.1,1.6-6.1,5v23.8c0,3.3,1.9,4.8,6.1,4.8h20.1c2.5,0,3.6,1.1,3.6,3.6v11.9
		c0,2.5-1.1,3.6-3.6,3.6H201.3z"/>
	<path fill="#B5B5B6" d="M244.2,79.2c-2.5,0-3.6-1.1-3.6-3.6V10.8c0-2.5,1.1-3.6,3.6-3.6h15.5c2.5,0,3.6,1.1,3.6,3.6v21.7H280V10.8
		c0-2.5,1.1-3.6,3.6-3.6h15.5c2.5,0,3.6,1.1,3.6,3.6v64.8c0,2.5-1.1,3.6-3.6,3.6h-15.5c-2.5,0-3.6-1.1-3.6-3.6V53.4h-16.7v22.2
		c0,2.5-1.1,3.6-3.6,3.6H244.2z"/>
	<path fill="#B5B5B6" d="M314.9,75.6V63.7c0-2.5,1.1-3.6,3.6-3.6h9.9V26.5h-9.9c-2.5,0-3.6-1.1-3.6-3.6V10.8c0-2.5,1.1-3.6,3.6-3.6
		h42.6c2.5,0,3.6,1.1,3.6,3.6v12.1c0,2.5-1.1,3.6-3.6,3.6h-9.7v33.6h9.7c2.5,0,3.6,1.1,3.6,3.6v11.9c0,2.5-1.1,3.6-3.6,3.6h-42.6
		C316,79.2,314.9,78.1,314.9,75.6z"/>
	<path fill="#B5B5B6" d="M380.6,79.2c-2.5,0-3.6-1.1-3.6-3.6V10.8c0-2.5,1.1-3.6,3.6-3.6H391c2.6,0,4.2,0.7,5.9,2.7l19.4,22.2V10.8
		c0-2.5,1.1-3.6,3.6-3.6h15c2.5,0,3.6,1.1,3.6,3.6v64.8c0,2.5-1.1,3.6-3.6,3.6h-15c-2.5,0-3.6-1.1-3.6-3.6V63.3l-17.1-20.7v33
		c0,2.5-1.1,3.6-3.6,3.6H380.6z"/>
	<path fill="#B5B5B6" d="M455.9,79.2c-2.5,0-3.6-1.1-3.6-3.6V10.8c0-2.5,1.1-3.6,3.6-3.6h46.4c2.5,0,3.6,1.1,3.6,3.6v11.7
		c0,2.5-1.1,3.6-3.6,3.6h-27.6v7.7h19.5c2.5,0,3.6,1.1,3.6,3.6v10.7c0,2.5-1.1,3.6-3.6,3.6h-19.5v8.6h27.6c2.5,0,3.6,1.1,3.6,3.6
		v11.7c0,2.5-1.1,3.6-3.6,3.6H455.9z"/>
	<path fill="#FAFBFB" d="M60.2,36.7l12.2-18.6c0.8-1.3,1.8-1.7,2.9-1.7H77c1.9,0,2.7,0.9,2.7,3.1v50.9h-1V19.5
		c0-1.1-0.3-2.1-1.7-2.1h-1.5c-0.9,0-1.5,0.1-2.3,1.4L61,37.2c-2.4,3.6-3,4.7-5.9,4.7s-3.5-1.1-5.9-4.7L37,18.8
		c-0.8-1.3-1.5-1.4-2.4-1.4h-1.5c-1.4,0-1.6,1-1.6,2.1v50.9h-1V19.5c0-2.2,0.8-3.1,2.6-3.1h1.7c1.1,0,2.2,0.4,3,1.7L50,36.7
		c2.3,3.5,2.7,4.2,5.1,4.2C57.5,40.9,57.9,40.2,60.2,36.7z"/>
	<path fill="#FAFBFB" d="M153.9,53.2h-39v17.2h-1V49.1c0-3.7,0.6-6.8,1.7-9.7L122,23c1.5-3.7,2.7-6.6,7.3-6.6h9.8
		c4.4,0,5.6,2.8,7.2,6.7l6.9,16.3c1.1,2.9,1.7,6,1.7,9.7v21.3h-1V53.2z M114.9,52.2h39v-3.1c0-3.6-0.6-6.6-1.6-9.3l-6.9-16.3
		c-1.5-3.5-2.6-6.1-6.3-6.1h-9.8c-4,0-5.1,2.6-6.4,6l-6.4,16.4c-1,2.7-1.6,5.7-1.6,9.3V52.2z"/>
	<path fill="#FAFBFB" d="M220.2,70.4h-16.7c-13,0-16-3.6-16-12.9v-28c0-9.5,3.2-13.1,16-13.1h16.7v1h-16.7c-11.8,0-15,3.2-15,12.1
		v28c0,8.7,3,11.9,15,11.9h16.7V70.4z"/>
	<path fill="#FAFBFB" d="M251.4,16.4h1v26.5h38.4V16.4h1v54h-1V43.9h-38.4v26.5h-1V16.4z"/>
	<path fill="#FAFBFB" d="M323.9,70.4v-1h15.5v-52h-15.5v-1h31.8v1h-15.3v52h15.3v1H323.9z"/>
	<path fill="#FAFBFB" d="M427,58.6V16.4h1v54h-1V60.1l-37.8-42.4c-0.2-0.2-0.3-0.3-0.5-0.3c-0.2,0-0.2,0.2-0.2,0.3v52.7h-1V17.5
		c0-0.8,0.6-1.2,1.2-1.2c0.6,0,0.8,0.2,1.5,0.9L427,58.6z"/>
	<path fill="#FAFBFB" d="M496.9,70.4h-33.7v-54h33.7v1h-32.7v25.1h24.6v1h-24.6v25.9h32.7V70.4z"/>
</g>
<g>
	<path fill="#9F1D21" d="M25.3,190.2H10.1c-3.2,0-4.6-1.4-4.6-4.6v-49.5c0-6.6,1.4-12.2,6-16l13-10.8c4.1-3.5,10.8-5.5,21.3-5.5
		c10,0,16.5,1.8,20.7,4.9c4.2-3.1,10.7-4.9,20.7-4.9c22.2,0,27.4,8.7,27.4,21.4v49.5c0,1.8-0.5,2.9-1.4,3.7l-13,10.8
		c-0.6,0.6-1.7,1-3.1,1H81.9c-3.3,0-4.6-1.4-4.6-4.6v-7.2l-13,10.8c-0.6,0.6-1.7,1-3.1,1H46c-3.2,0-4.6-1.4-4.6-4.6v-7.2l-12.9,10.9
		C27.7,189.8,26.6,190.2,25.3,190.2z"/>
	<path fill="#9F1D21" d="M134.9,189.2c-0.6,0.6-1.7,1-3.1,1h-14.7c-3.2,0-4.6-1.4-4.6-4.6v-49.5c0-6.3,1.4-11.6,5.9-15.4l13-10.8
		c4.5-3.8,12.2-6.1,25.3-6.1c26.1,0,31.5,8.9,31.5,21.4v49.5c0,1.8-0.5,2.9-1.4,3.7l-13,10.8c-0.6,0.6-1.7,1-3.1,1h-15.2
		c-3.2,0-4.6-1.4-4.6-4.6v-13.9h-1.6v3c0,1.8-0.5,2.9-1.4,3.7L134.9,189.2z M149.3,136.6v3.9h1.6v-1
		C150.9,138.3,150.5,137.3,149.3,136.6z"/>
	<path fill="#9F1D21" d="M211.1,190.2c-17.6,0-25.6-6.9-25.6-21.4v-31.1c0-7.4,2.1-12.7,6.3-16.3l13-10.9c4.1-3.5,10.5-5.2,19.2-5.2
		h24.4c3.2,0,4.6,1.4,4.6,4.6V122c0,1.8-0.5,2.9-1.4,3.7l-13,10.8c-0.6,0.6-1.7,1-3.1,1h-12.3v16.9c0,2.8,1.8,3.8,5.1,3.8h20.1
		c3.2,0,4.6,1.4,4.6,4.6v11.9c0,1.8-0.5,2.9-1.4,3.7l-13,10.8c-0.6,0.6-1.7,1-3.1,1H211.1z"/>
	<path fill="#9F1D21" d="M272.6,189.2c-0.6,0.6-1.7,1-3.1,1H254c-3.2,0-4.6-1.4-4.6-4.6v-64.8c0-1.8,0.5-2.9,1.4-3.7l12.9-10.9
		c0.7-0.6,1.8-0.9,3.2-0.9h15.5c3.2,0,4.6,1.4,4.6,4.6v20.7h1.8v-9.8c0-1.8,0.5-2.9,1.4-3.7l12.9-10.9c0.7-0.6,1.8-0.9,3.2-0.9h15.5
		c3.2,0,4.6,1.4,4.6,4.6v64.8c0,1.8-0.5,2.9-1.4,3.7l-13,10.8c-0.6,0.6-1.7,1-3.1,1h-15.5c-3.2,0-4.6-1.4-4.6-4.6v-21.2H287v10.3
		c0,1.8-0.5,2.9-1.4,3.7L272.6,189.2z"/>
	<path fill="#9F1D21" d="M328.3,190.2c-3.2,0-4.6-1.4-4.6-4.6v-11.9c0-1.8,0.5-2.9,1.4-3.7l12.1-10.2v-22.3h-8.9
		c-3.2,0-4.6-1.4-4.6-4.6v-12.1c0-1.8,0.5-2.9,1.4-3.7l12.9-10.9c0.7-0.6,1.8-0.9,3.2-0.9h42.6c3.2,0,4.6,1.4,4.6,4.6V122
		c0,1.8-0.5,2.9-1.4,3.7l-11.9,10v22.5h8.7c3.2,0,4.6,1.4,4.6,4.6v11.9c0,1.8-0.5,2.9-1.4,3.7l-13,10.8c-0.6,0.6-1.7,1-3.1,1H328.3z
		"/>
	<path fill="#9F1D21" d="M405.1,190.2h-15.2c-3.2,0-4.6-1.4-4.6-4.6v-49.5c0-6.2,1.5-11.5,6-15.2l12.9-10.9
		c4.7-3.9,12.6-6.2,25.9-6.2c26,0,31.9,8.8,31.9,21.4v49.5c0,1.8-0.5,2.9-1.4,3.7l-13,10.8c-0.6,0.6-1.7,1-3.1,1h-15.7
		c-3.2,0-4.6-1.4-4.6-4.6V140c0-1.2-0.4-2.2-1.6-2.9v37.6c0,1.8-0.5,2.9-1.4,3.7l-12.9,10.9C407.5,189.8,406.4,190.2,405.1,190.2z"
		/>
	<path fill="#9F1D21" d="M465,190.2c-3.2,0-4.6-1.4-4.6-4.6v-64.8c0-1.8,0.5-2.9,1.4-3.7l12.9-10.9c0.7-0.6,1.8-0.9,3.2-0.9h46.4
		c3.2,0,4.6,1.4,4.6,4.6v11.7c0,1.8-0.5,2.9-1.4,3.7l-8.6,7.1c1.3,0.7,1.9,2,1.9,4.1v10.7c0,1.8-0.5,2.9-1.4,3.7l-8.9,7.5h13.8
		c3.2,0,4.6,1.4,4.6,4.6v11.7c0,1.8-0.5,2.9-1.4,3.7l-13,10.8c-0.6,0.6-1.7,1-3.1,1H465z"/>
	<path fill="#EF3A38" d="M38.2,178.3H23c-2.5,0-3.6-1.1-3.6-3.6v-49.5c0-12.2,5.2-20.4,26.4-20.4c10.2,0,16.7,1.9,20.7,5.2
		c4-3.3,10.5-5.2,20.7-5.2c21.2,0,26.4,8.2,26.4,20.4v49.5c0,2.5-1.1,3.6-3.6,3.6H94.8c-2.6,0-3.6-1.1-3.6-3.6v-45.6
		c0-2.7-1-4.7-6.8-4.7c-5.7,0-6.7,2-6.7,4.7v45.6c0,2.5-1.1,3.6-3.6,3.6H58.9c-2.5,0-3.6-1.1-3.6-3.6v-45.6c0-2.7-1-4.7-6.7-4.7
		c-5.8,0-6.8,2-6.8,4.7v45.6C41.8,177.2,40.8,178.3,38.2,178.3z"/>
	<path fill="#EF3A38" d="M144.7,178.3H130c-2.5,0-3.6-1.1-3.6-3.6v-49.5c0-12.1,5.5-20.4,30.3-20.4c24.9,0,30.5,8.3,30.5,20.4v49.5
		c0,2.5-1.1,3.6-3.6,3.6h-15.2c-2.5,0-3.6-1.1-3.6-3.6v-14.9h-16.5v14.9C148.3,177.2,147.2,178.3,144.7,178.3z M148.3,141.5h16.5
		v-12.9c0-2.7-1.2-4.7-8.2-4.7c-7.1,0-8.3,2-8.3,4.7V141.5z"/>
	<path fill="#EF3A38" d="M224,178.3c-16.8,0-24.6-6.5-24.6-20.4v-31.1c0-14,7.8-20.5,24.6-20.5h24.4c2.5,0,3.6,1.1,3.6,3.6V122
		c0,2.5-1.1,3.6-3.6,3.6h-20.1c-4.2,0-6.1,1.6-6.1,5v23.8c0,3.3,1.9,4.8,6.1,4.8h20.1c2.5,0,3.6,1.1,3.6,3.6v11.9
		c0,2.5-1.1,3.6-3.6,3.6H224z"/>
	<path fill="#EF3A38" d="M266.9,178.3c-2.5,0-3.6-1.1-3.6-3.6v-64.8c0-2.5,1.1-3.6,3.6-3.6h15.5c2.5,0,3.6,1.1,3.6,3.6v21.7h16.7
		v-21.7c0-2.5,1.1-3.6,3.6-3.6h15.5c2.5,0,3.6,1.1,3.6,3.6v64.8c0,2.5-1.1,3.6-3.6,3.6h-15.5c-2.5,0-3.6-1.1-3.6-3.6v-22.2H286v22.2
		c0,2.5-1.1,3.6-3.6,3.6H266.9z"/>
	<path fill="#EF3A38" d="M337.6,174.7v-11.9c0-2.5,1.1-3.6,3.6-3.6h9.9v-33.6h-9.9c-2.5,0-3.6-1.1-3.6-3.6v-12.1
		c0-2.5,1.1-3.6,3.6-3.6h42.6c2.5,0,3.6,1.1,3.6,3.6V122c0,2.5-1.1,3.6-3.6,3.6h-9.7v33.6h9.7c2.5,0,3.6,1.1,3.6,3.6v11.9
		c0,2.5-1.1,3.6-3.6,3.6h-42.6C338.7,178.3,337.6,177.2,337.6,174.7z"/>
	<path fill="#EF3A38" d="M430.1,104.8c24.8,0,30.9,8.2,30.9,20.4v49.5c0,2.5-1.1,3.6-3.6,3.6h-15.7c-2.5,0-3.6-1.1-3.6-3.6v-45.6
		c0-2.7-1.2-4.7-8.2-4.7c-7.1,0-8.3,2-8.3,4.7v45.6c0,2.5-1,3.6-3.6,3.6h-15.2c-2.5,0-3.6-1.1-3.6-3.6v-49.5
		C399.2,113,405.3,104.8,430.1,104.8z"/>
	<path fill="#EF3A38" d="M477.9,178.3c-2.5,0-3.6-1.1-3.6-3.6v-64.8c0-2.5,1.1-3.6,3.6-3.6h46.4c2.5,0,3.6,1.1,3.6,3.6v11.7
		c0,2.5-1.1,3.6-3.6,3.6h-27.6v7.7h19.5c2.5,0,3.6,1.1,3.6,3.6v10.7c0,2.5-1.1,3.6-3.6,3.6h-19.5v8.6h27.6c2.5,0,3.6,1.1,3.6,3.6
		v11.7c0,2.5-1.1,3.6-3.6,3.6H477.9z"/>
	<path fill="#FBCFD0" d="M30.1,169.5h-1v-41.7c0-8.1,4.3-13.5,19-13.5c12.2,0,17.1,3.7,18.4,9.6c1.4-5.9,6.3-9.6,18.5-9.6
		c14.7,0,18.9,5.4,18.9,13.5v41.7h-1v-41.7c0-7.5-4-12.5-17.9-12.5s-18,5-18,12.5v41.7h-1v-41.7c0-7.5-4-12.5-17.9-12.5
		s-18,5-18,12.5V169.5z"/>
	<path fill="#FBCFD0" d="M175.5,151.4h-37.1v18.1h-1v-41.7c0-8.1,3.7-13.5,19.4-13.5c15.7,0,19.7,5.4,19.7,13.5v41.7h-1V151.4z
		 M138.4,150.4h37.1v-22.6c0-7.5-3.8-12.5-18.7-12.5c-14.9,0-18.4,5-18.4,12.5V150.4z"/>
	<path fill="#FBCFD0" d="M242.9,169.5h-16.7c-13,0-16-3.6-16-12.9v-28c0-9.5,3.2-13.1,16-13.1h16.7v1h-16.7c-11.8,0-15,3.2-15,12.1
		v28c0,8.7,3,11.9,15,11.9h16.7V169.5z"/>
	<path fill="#FBCFD0" d="M274.1,115.5h1V142h38.4v-26.5h1v54h-1V143h-38.4v26.5h-1V115.5z"/>
	<path fill="#FBCFD0" d="M346.6,169.5v-1h15.5v-52h-15.5v-1h31.8v1h-15.3v52h15.3v1H346.6z"/>
	<path fill="#FBCFD0" d="M449,169.5v-41.7c0-7.5-4.1-12.5-19-12.5c-14.9,0-19.1,5-19.1,12.5v41.7h-1v-41.7c0-8.1,4.4-13.5,20.1-13.5
		s20,5.4,20,13.5v41.7H449z"/>
	<path fill="#FBCFD0" d="M518.9,169.5h-33.7v-54h33.7v1h-32.7v25.1h24.6v1h-24.6v25.9h32.7V169.5z"/>
</g>
</svg>
