<?xml version="1.0" encoding="utf-8"?>
<!-- Generator: Adobe Illustrator 17.1.0, SVG Export Plug-In . SVG Version: 6.00 Build 0)  -->
<!DOCTYPE svg PUBLIC "-//W3C//DTD SVG 1.1//EN" "http://www.w3.org/Graphics/SVG/1.1/DTD/svg11.dtd">
<svg version="1.1" id="Layer_1" xmlns="http://www.w3.org/2000/svg" xmlns:xlink="http://www.w3.org/1999/xlink" x="0px" y="0px"
	 viewBox="0 0 550.2 200" enable-background="new 0 0 550.2 200" xml:space="preserve">
<g>
	<path d="M-740.1-517.9c0.5-0.1,1.2-0.2,2-0.2c1,0,1.8,0.2,2.3,0.7c0.4,0.4,0.7,1,0.7,1.7c0,0.7-0.2,1.3-0.6,1.7
		c-0.6,0.6-1.5,0.9-2.5,0.9c-0.3,0-0.6,0-0.8-0.1v3.2h-1V-517.9z M-739.1-514c0.2,0.1,0.5,0.1,0.9,0.1c1.3,0,2-0.6,2-1.7
		c0-1.1-0.8-1.6-1.9-1.6c-0.5,0-0.8,0-1,0.1V-514z"/>
	<path d="M-726.8-514.1c0,2.8-1.7,4.3-3.8,4.3c-2.1,0-3.6-1.7-3.6-4.1c0-2.6,1.6-4.2,3.8-4.2C-728.3-518.2-726.8-516.5-726.8-514.1z
		 M-733.1-513.9c0,1.7,0.9,3.3,2.6,3.3c1.7,0,2.6-1.5,2.6-3.4c0-1.6-0.8-3.3-2.6-3.3C-732.2-517.3-733.1-515.7-733.1-513.9z"/>
	<path d="M-725.5-518h1v7.2h3.5v0.9h-4.5V-518z"/>
	<path d="M-718.8-518v8.1h-1v-8.1H-718.8z"/>
	<path d="M-711.3-510.2c-0.4,0.2-1.2,0.4-2.1,0.4c-2.3,0-4-1.4-4-4.1c0-2.5,1.7-4.2,4.2-4.2c1,0,1.6,0.2,1.9,0.4l-0.3,0.9
		c-0.4-0.2-1-0.3-1.6-0.3c-1.9,0-3.2,1.2-3.2,3.3c0,2,1.1,3.3,3.1,3.3c0.6,0,1.3-0.1,1.7-0.3L-711.3-510.2z"/>
	<path d="M-708.1-509.9v-3.4l-2.6-4.7h1.2l1.1,2.2c0.3,0.6,0.6,1.1,0.8,1.7h0c0.2-0.5,0.5-1.1,0.8-1.7l1.2-2.2h1.2l-2.7,4.6v3.4
		H-708.1z"/>
</g>
<g>
	<path fill="#666766" d="M9,91.1c-3.2,0-4.6-1.4-4.6-4.6V74.6c0-1.8,0.5-2.9,1.4-3.7l12.1-10.2V38.4H9c-3.2,0-4.6-1.4-4.6-4.6V21.7
		c0-1.8,0.5-2.9,1.4-3.7L18.7,7.1c0.7-0.6,1.8-0.9,3.2-0.9h42.6c3.2,0,4.6,1.4,4.6,4.6v12.1c0,1.8-0.5,2.9-1.4,3.7l-11.9,10v22.5
		h8.7c3.2,0,4.6,1.4,4.6,4.6v11.9c0,1.8-0.5,2.9-1.4,3.7l-13,10.8c-0.6,0.6-1.7,1-3.1,1H9z"/>
	<path fill="#666766" d="M104.8,91.1H71.1c-3.2,0-4.6-1.4-4.6-4.6V21.7c0-1.8,0.5-2.9,1.4-3.7L80.8,7.1c0.7-0.6,1.8-0.9,3.2-0.9
		h33.7c17.6,0,25.6,6.9,25.6,21.4v31.2c0,7.3-2.1,12.6-6.3,16.2l-13,10.8C119.9,89.3,113.5,91.1,104.8,91.1z M104.1,38.5v20.8h1.7
		V42C105.8,40.2,105.3,39,104.1,38.5z"/>
	<path fill="#666766" d="M145.7,91.1c-3.2,0-4.6-1.4-4.6-4.6V21.7c0-1.8,0.5-2.9,1.4-3.7l12.9-10.9c0.7-0.6,1.8-0.9,3.2-0.9H205
		c3.2,0,4.6,1.4,4.6,4.6v11.7c0,1.8-0.5,2.9-1.4,3.7l-8.6,7.1c1.3,0.7,1.9,2,1.9,4.1v10.7c0,1.8-0.5,2.9-1.4,3.7l-8.9,7.5H205
		c3.2,0,4.6,1.4,4.6,4.6v11.7c0,1.8-0.5,2.9-1.4,3.7l-13,10.8c-0.6,0.6-1.7,1-3.1,1H145.7z"/>
	<path fill="#666766" d="M229.2,90.1c-0.6,0.6-1.7,1-3.1,1h-15c-3.2,0-4.6-1.4-4.6-4.6V21.7c0-1.8,0.5-2.9,1.4-3.7l12.9-10.9
		c0.7-0.6,1.8-0.9,3.2-0.9h10.4c2.9,0,4.7,0.8,6.7,3l6.9,8l12.1-10.1c0.7-0.6,1.8-0.9,3.2-0.9h15c3.2,0,4.6,1.4,4.6,4.6v64.8
		c0,1.8-0.5,2.9-1.4,3.7l-13,10.8c-0.6,0.6-1.7,1-3.1,1h-15c-3.2,0-4.6-1.4-4.6-4.6V74.6l-2.2-2.7v3.7c0,1.8-0.5,2.9-1.4,3.7
		L229.2,90.1z"/>
	<path fill="#666766" d="M300.6,91.1c-3.2,0-4.6-1.4-4.6-4.6V38.4h-13.7c-3.2,0-4.6-1.4-4.6-4.6V21.7c0-1.8,0.5-2.9,1.4-3.7L292,7.1
		c0.7-0.6,1.8-0.9,3.2-0.9H348c3.2,0,4.6,1.4,4.6,4.6v12.1c0,1.8-0.5,2.9-1.4,3.7l-13,10.8c-0.6,0.6-1.7,1-3.1,1h-0.8v37.2
		c0,1.8-0.5,2.9-1.4,3.7l-13,10.8c-0.6,0.6-1.7,1-3.1,1H300.6z"/>
	<path fill="#666766" d="M350.4,91.1c-3.2,0-4.6-1.4-4.6-4.6V74.6c0-1.8,0.5-2.9,1.4-3.7l12.1-10.2V38.4h-8.9
		c-3.2,0-4.6-1.4-4.6-4.6V21.7c0-1.8,0.5-2.9,1.4-3.7l12.9-10.9c0.7-0.6,1.8-0.9,3.2-0.9h42.6c3.2,0,4.6,1.4,4.6,4.6v12.1
		c0,1.8-0.5,2.9-1.4,3.7l-11.9,10v22.5h8.7c3.2,0,4.6,1.4,4.6,4.6v11.9c0,1.8-0.5,2.9-1.4,3.7l-13,10.8c-0.6,0.6-1.7,1-3.1,1H350.4z
		"/>
	<path fill="#666766" d="M412.5,91.1c-3.2,0-4.6-1.4-4.6-4.6V21.7c0-1.8,0.5-2.9,1.4-3.7l12.9-10.9c0.7-0.6,1.8-0.9,3.2-0.9H470
		c3.2,0,4.6,1.4,4.6,4.6v11.9c0,1.8-0.5,2.9-1.4,3.7L462,35.7c3.1,0,4.5,1.4,4.5,4.6v12c0,1.8-0.5,2.9-1.4,3.7l-13,10.8
		c-0.6,0.6-1.7,1-3.1,1h-3.5v7.8c0,1.8-0.5,2.9-1.4,3.7l-13,10.8c-0.6,0.6-1.7,1-3.1,1H412.5z"/>
	<path fill="#666766" d="M491,91.1c-3.3,0-4.6-1.4-4.6-4.6V74l-15.1-20.2c-3.2-4.3-4-6.4-4-12.9V21.7c0-1.8,0.5-2.9,1.4-3.7
		l12.9-10.9c0.7-0.6,1.8-0.9,3.2-0.9h15.4c3.2,0,4.6,1.4,4.6,4.6v16.4c0,1.2,0,2.4,0.7,3.7l1.2,1.7V21.7c0-1.8,0.5-2.9,1.4-3.7
		L521,7.1c0.7-0.6,1.8-0.9,3.2-0.9h14.9c3.2,0,4.6,1.4,4.6,4.6V30c0,6.5-0.8,8.6-4,12.9l-15,20.3v12.4c0,1.8-0.5,2.9-1.4,3.7
		l-13,10.8c-0.6,0.6-1.7,1-3.1,1H491z"/>
	<path fill="#B5B5B6" d="M18.3,75.6V63.7c0-2.5,1.1-3.6,3.6-3.6h9.9V26.5h-9.9c-2.5,0-3.6-1.1-3.6-3.6V10.8c0-2.5,1.1-3.6,3.6-3.6
		h42.6c2.5,0,3.6,1.1,3.6,3.6v12.1c0,2.5-1.1,3.6-3.6,3.6h-9.7v33.6h9.7c2.5,0,3.6,1.1,3.6,3.6v11.9c0,2.5-1.1,3.6-3.6,3.6H21.9
		C19.4,79.2,18.3,78.1,18.3,75.6z"/>
	<path fill="#B5B5B6" d="M84,79.2c-2.5,0-3.6-1.1-3.6-3.6V10.8c0-2.5,1.1-3.6,3.6-3.6h33.7c16.8,0,24.6,6.5,24.6,20.4v31.2
		c0,13.9-7.8,20.4-24.6,20.4H84z M103.1,60.3H115c3.2,0,4.7-1.5,4.7-4.9V31.1c0-3.3-1.5-4.8-4.7-4.8h-11.9V60.3z"/>
	<path fill="#B5B5B6" d="M158.6,79.2c-2.5,0-3.6-1.1-3.6-3.6V10.8c0-2.5,1.1-3.6,3.6-3.6H205c2.5,0,3.6,1.1,3.6,3.6v11.7
		c0,2.5-1.1,3.6-3.6,3.6h-27.6v7.7h19.5c2.5,0,3.6,1.1,3.6,3.6v10.7c0,2.5-1.1,3.6-3.6,3.6h-19.5v8.6H205c2.5,0,3.6,1.1,3.6,3.6
		v11.7c0,2.5-1.1,3.6-3.6,3.6H158.6z"/>
	<path fill="#B5B5B6" d="M224,79.2c-2.5,0-3.6-1.1-3.6-3.6V10.8c0-2.5,1.1-3.6,3.6-3.6h10.4c2.6,0,4.2,0.7,5.9,2.7l19.4,22.2V10.8
		c0-2.5,1.1-3.6,3.6-3.6h15c2.5,0,3.6,1.1,3.6,3.6v64.8c0,2.5-1.1,3.6-3.6,3.6h-15c-2.5,0-3.6-1.1-3.6-3.6V63.3l-17.1-20.7v33
		c0,2.5-1.1,3.6-3.6,3.6H224z"/>
	<path fill="#B5B5B6" d="M313.5,79.2c-2.5,0-3.6-1.1-3.6-3.6V26.5h-14.7c-2.5,0-3.6-1.1-3.6-3.6V10.8c0-2.5,1.1-3.6,3.6-3.6H348
		c2.5,0,3.6,1.1,3.6,3.6v12.1c0,2.5-1.1,3.6-3.6,3.6h-14.7v49.1c0,2.5-1.1,3.6-3.6,3.6H313.5z"/>
	<path fill="#B5B5B6" d="M359.7,75.6V63.7c0-2.5,1.1-3.6,3.6-3.6h9.9V26.5h-9.9c-2.5,0-3.6-1.1-3.6-3.6V10.8c0-2.5,1.1-3.6,3.6-3.6
		h42.6c2.5,0,3.6,1.1,3.6,3.6v12.1c0,2.5-1.1,3.6-3.6,3.6h-9.7v33.6h9.7c2.5,0,3.6,1.1,3.6,3.6v11.9c0,2.5-1.1,3.6-3.6,3.6h-42.6
		C360.8,79.2,359.7,78.1,359.7,75.6z"/>
	<path fill="#B5B5B6" d="M425.4,79.2c-2.5,0-3.6-1.1-3.6-3.6V10.8c0-2.5,1.1-3.6,3.6-3.6H470c2.5,0,3.6,1.1,3.6,3.6v11.9
		c0,2.5-1.1,3.6-3.6,3.6h-25.5v10.4h17.4c2.5,0,3.6,1.1,3.6,3.6v12c0,2.5-1.1,3.6-3.6,3.6h-17.4v19.7c0,2.5-1.1,3.6-3.6,3.6H425.4z"
		/>
	<path fill="#B5B5B6" d="M503.9,79.2c-2.6,0-3.6-1.1-3.6-3.6V62.8L485,42.3c-3.1-4.1-3.8-6.1-3.8-12.3V10.8c0-2.5,1.1-3.6,3.6-3.6
		h15.4c2.5,0,3.6,1.1,3.6,3.6v16.4c0,1.4,0,2.8,0.9,4.2l4.6,7.2c0.7,1.2,1.3,1.7,2.4,1.7h1c1.1,0,1.7-0.5,2.4-1.7l4.6-7.2
		c0.9-1.4,0.9-2.8,0.9-4.2V10.8c0-2.5,1.1-3.6,3.6-3.6h14.9c2.5,0,3.6,1.1,3.6,3.6V30c0,6.2-0.8,8.2-3.8,12.3l-15.2,20.6v12.7
		c0,2.5-1.1,3.6-3.6,3.6H503.9z"/>
	<path fill="#FAFBFB" d="M27.3,70.4v-1h15.5v-52H27.3v-1h31.8v1H43.8v52h15.3v1H27.3z"/>
	<path fill="#FAFBFB" d="M91.3,16.4h24.2c13.6,0,16,6.2,16,13.9v26.5c0,7.7-2.2,13.6-16,13.6H91.3V16.4z M92.3,17.4v52h23.2
		c12.8,0,15-5.3,15-12.6V30.3c0-7.3-2.4-12.9-15-12.9H92.3z"/>
	<path fill="#FAFBFB" d="M199.6,70.4h-33.7v-54h33.7v1h-32.7v25.1h24.6v1h-24.6v25.9h32.7V70.4z"/>
	<path fill="#FAFBFB" d="M270.4,58.6V16.4h1v54h-1V60.1l-37.8-42.4c-0.2-0.2-0.3-0.3-0.5-0.3c-0.2,0-0.2,0.2-0.2,0.3v52.7h-1V17.5
		c0-0.8,0.6-1.2,1.2-1.2c0.6,0,0.8,0.2,1.5,0.9L270.4,58.6z"/>
	<path fill="#FAFBFB" d="M321.1,17.4h-20.5v-1h42v1h-20.5v53h-1V17.4z"/>
	<path fill="#FAFBFB" d="M368.7,70.4v-1h15.5v-52h-15.5v-1h31.8v1h-15.3v52h15.3v1H368.7z"/>
	<path fill="#FAFBFB" d="M432.7,16.4h31.9v1h-30.9V46h22.8v1h-22.8v23.4h-1V16.4z"/>
	<path fill="#FAFBFB" d="M512.5,53.3v17.1h-1V53.3h-1c-2.9,0-5.1-1.2-7.3-4.2l-9.7-13.5c-1.5-2-1.5-4.8-1.5-7.7V16.4h1v11.5
		c0,2.8,0.1,5.3,1.4,7.3l9.7,13.5c1.8,2.7,4.1,3.6,6.4,3.6h2.7c2.5,0,4.5-1,6.5-3.6l10-13.5c1.4-1.8,1.4-4.5,1.4-7.3V16.4h1v11.5
		c0,2.9,0.1,5.6-1.5,7.7l-10,13.5c-2.2,2.9-4.3,4.2-7.4,4.2H512.5z"/>
</g>
<g>
	<path fill="#9F1D21" d="M10.7,190.2c-3.2,0-4.6-1.4-4.6-4.6v-64.8c0-1.8,0.5-2.9,1.4-3.7l12.9-10.9c0.7-0.6,1.8-0.9,3.2-0.9h15.9
		c3.2,0,4.6,1.4,4.6,4.6v64.8c0,1.8-0.5,2.9-1.4,3.7l-13,10.8c-0.6,0.6-1.7,1-3.1,1H10.7z"/>
	<path fill="#9F1D21" d="M81.4,190.2H47.7c-3.2,0-4.6-1.4-4.6-4.6v-64.8c0-1.8,0.5-2.9,1.4-3.7l12.9-10.9c0.7-0.6,1.8-0.9,3.2-0.9
		h33.7c17.6,0,25.6,6.9,25.6,21.4v31.2c0,7.3-2.1,12.6-6.3,16.2l-13,10.8C96.5,188.4,90.1,190.2,81.4,190.2z M80.7,137.6v20.8h1.7
		v-17.3C82.4,139.3,81.9,138.1,80.7,137.6z"/>
	<path fill="#9F1D21" d="M122.3,190.2c-3.2,0-4.6-1.4-4.6-4.6v-64.8c0-1.8,0.5-2.9,1.4-3.7l12.9-10.9c0.7-0.6,1.8-0.9,3.2-0.9h46.4
		c3.2,0,4.6,1.4,4.6,4.6v11.7c0,1.8-0.5,2.9-1.4,3.7l-8.6,7.1c1.3,0.7,1.9,2,1.9,4.1v10.7c0,1.8-0.5,2.9-1.4,3.7l-8.9,7.5h13.8
		c3.2,0,4.6,1.4,4.6,4.6v11.7c0,1.8-0.5,2.9-1.4,3.7l-13,10.8c-0.6,0.6-1.7,1-3.1,1H122.3z"/>
	<path fill="#9F1D21" d="M205.8,189.2c-0.6,0.6-1.7,1-3.1,1h-15c-3.2,0-4.6-1.4-4.6-4.6v-64.8c0-1.8,0.5-2.9,1.4-3.7l12.9-10.9
		c0.7-0.6,1.8-0.9,3.2-0.9H211c2.9,0,4.7,0.8,6.7,3l6.9,8l12.1-10.1c0.7-0.6,1.8-0.9,3.2-0.9h15c3.2,0,4.6,1.4,4.6,4.6v64.8
		c0,1.8-0.5,2.9-1.4,3.7l-13,10.8c-0.6,0.6-1.7,1-3.1,1h-15c-3.2,0-4.6-1.4-4.6-4.6v-11.9l-2.2-2.7v3.7c0,1.8-0.5,2.9-1.4,3.7
		L205.8,189.2z"/>
	<path fill="#9F1D21" d="M277.2,190.2c-3.2,0-4.6-1.4-4.6-4.6v-48.1h-13.7c-3.2,0-4.6-1.4-4.6-4.6v-12.1c0-1.8,0.5-2.9,1.4-3.7
		l12.9-10.9c0.7-0.6,1.8-0.9,3.2-0.9h52.8c3.2,0,4.6,1.4,4.6,4.6V122c0,1.8-0.5,2.9-1.4,3.7l-13,10.8c-0.6,0.6-1.7,1-3.1,1h-0.8
		v37.2c0,1.8-0.5,2.9-1.4,3.7l-13,10.8c-0.6,0.6-1.7,1-3.1,1H277.2z"/>
	<path fill="#9F1D21" d="M328.7,190.2c-3.2,0-4.6-1.4-4.6-4.6v-64.8c0-1.8,0.5-2.9,1.4-3.7l12.9-10.9c0.7-0.6,1.8-0.9,3.2-0.9h15.9
		c3.2,0,4.6,1.4,4.6,4.6v64.8c0,1.8-0.5,2.9-1.4,3.7l-13,10.8c-0.6,0.6-1.7,1-3.1,1H328.7z"/>
	<path fill="#9F1D21" d="M365.7,190.2c-3.2,0-4.6-1.4-4.6-4.6v-64.8c0-1.8,0.5-2.9,1.4-3.7l12.9-10.9c0.7-0.6,1.8-0.9,3.2-0.9h44.6
		c3.2,0,4.6,1.4,4.6,4.6v11.9c0,1.8-0.5,2.9-1.4,3.7l-11.2,9.3c3.1,0,4.5,1.4,4.5,4.6v12c0,1.8-0.5,2.9-1.4,3.7l-13,10.8
		c-0.6,0.6-1.7,1-3.1,1h-3.5v7.8c0,1.8-0.5,2.9-1.4,3.7l-13,10.8c-0.6,0.6-1.7,1-3.1,1H365.7z"/>
	<path fill="#9F1D21" d="M444.2,190.2c-3.3,0-4.6-1.4-4.6-4.6v-12.5l-15.1-20.2c-3.2-4.3-4-6.4-4-12.9v-19.2c0-1.8,0.5-2.9,1.4-3.7
		l12.9-10.9c0.7-0.6,1.8-0.9,3.2-0.9h15.4c3.2,0,4.6,1.4,4.6,4.6v16.4c0,1.2,0,2.4,0.7,3.7l1.2,1.7v-10.9c0-1.8,0.5-2.9,1.4-3.7
		l12.9-10.9c0.7-0.6,1.8-0.9,3.2-0.9h14.9c3.2,0,4.6,1.4,4.6,4.6v19.2c0,6.5-0.8,8.6-4,12.9l-15,20.3v12.4c0,1.8-0.5,2.9-1.4,3.7
		l-13,10.8c-0.6,0.6-1.7,1-3.1,1H444.2z"/>
	<path fill="#EF3A38" d="M23.6,178.3c-2.5,0-3.6-1.1-3.6-3.6v-64.8c0-2.5,1.1-3.6,3.6-3.6h15.9c2.5,0,3.6,1.1,3.6,3.6v64.8
		c0,2.5-1.1,3.6-3.6,3.6H23.6z"/>
	<path fill="#EF3A38" d="M60.6,178.3c-2.5,0-3.6-1.1-3.6-3.6v-64.8c0-2.5,1.1-3.6,3.6-3.6h33.7c16.8,0,24.6,6.5,24.6,20.4v31.2
		c0,13.9-7.8,20.4-24.6,20.4H60.6z M79.7,159.4h11.9c3.2,0,4.7-1.5,4.7-4.9v-24.3c0-3.3-1.5-4.8-4.7-4.8H79.7V159.4z"/>
	<path fill="#EF3A38" d="M135.2,178.3c-2.5,0-3.6-1.1-3.6-3.6v-64.8c0-2.5,1.1-3.6,3.6-3.6h46.4c2.5,0,3.6,1.1,3.6,3.6v11.7
		c0,2.5-1.1,3.6-3.6,3.6H154v7.7h19.5c2.5,0,3.6,1.1,3.6,3.6v10.7c0,2.5-1.1,3.6-3.6,3.6H154v8.6h27.6c2.5,0,3.6,1.1,3.6,3.6v11.7
		c0,2.5-1.1,3.6-3.6,3.6H135.2z"/>
	<path fill="#EF3A38" d="M200.6,178.3c-2.5,0-3.6-1.1-3.6-3.6v-64.8c0-2.5,1.1-3.6,3.6-3.6H211c2.6,0,4.2,0.7,5.9,2.7l19.4,22.2
		v-21.3c0-2.5,1.1-3.6,3.6-3.6h15c2.5,0,3.6,1.1,3.6,3.6v64.8c0,2.5-1.1,3.6-3.6,3.6h-15c-2.5,0-3.6-1.1-3.6-3.6v-12.3l-17.1-20.7
		v33c0,2.5-1.1,3.6-3.6,3.6H200.6z"/>
	<path fill="#EF3A38" d="M290.1,178.3c-2.5,0-3.6-1.1-3.6-3.6v-49.1h-14.7c-2.5,0-3.6-1.1-3.6-3.6v-12.1c0-2.5,1.1-3.6,3.6-3.6h52.8
		c2.5,0,3.6,1.1,3.6,3.6V122c0,2.5-1.1,3.6-3.6,3.6h-14.7v49.1c0,2.5-1.1,3.6-3.6,3.6H290.1z"/>
	<path fill="#EF3A38" d="M341.6,178.3c-2.5,0-3.6-1.1-3.6-3.6v-64.8c0-2.5,1.1-3.6,3.6-3.6h15.9c2.5,0,3.6,1.1,3.6,3.6v64.8
		c0,2.5-1.1,3.6-3.6,3.6H341.6z"/>
	<path fill="#EF3A38" d="M378.6,178.3c-2.5,0-3.6-1.1-3.6-3.6v-64.8c0-2.5,1.1-3.6,3.6-3.6h44.6c2.5,0,3.6,1.1,3.6,3.6v11.9
		c0,2.5-1.1,3.6-3.6,3.6h-25.5v10.4h17.4c2.5,0,3.6,1.1,3.6,3.6v12c0,2.5-1.1,3.6-3.6,3.6h-17.4v19.7c0,2.5-1.1,3.6-3.6,3.6H378.6z"
		/>
	<path fill="#EF3A38" d="M457.1,178.3c-2.6,0-3.6-1.1-3.6-3.6v-12.8l-15.3-20.5c-3.1-4.1-3.8-6.1-3.8-12.3v-19.2
		c0-2.5,1.1-3.6,3.6-3.6h15.4c2.5,0,3.6,1.1,3.6,3.6v16.4c0,1.4,0,2.8,0.9,4.2l4.6,7.2c0.7,1.2,1.3,1.7,2.4,1.7h1
		c1.1,0,1.7-0.5,2.4-1.7l4.6-7.2c0.9-1.4,0.9-2.8,0.9-4.2v-16.4c0-2.5,1.1-3.6,3.6-3.6h14.9c2.5,0,3.6,1.1,3.6,3.6v19.2
		c0,6.2-0.8,8.2-3.8,12.3L476.9,162v12.7c0,2.5-1.1,3.6-3.6,3.6H457.1z"/>
	<path fill="#FBCFD0" d="M32.1,115.5v54h-1v-54H32.1z"/>
	<path fill="#FBCFD0" d="M67.9,115.5h24.2c13.6,0,16,6.2,16,13.9v26.5c0,7.7-2.2,13.6-16,13.6H67.9V115.5z M68.9,116.5v52h23.2
		c12.8,0,15-5.3,15-12.6v-26.5c0-7.3-2.4-12.9-15-12.9H68.9z"/>
	<path fill="#FBCFD0" d="M176.2,169.5h-33.7v-54h33.7v1h-32.7v25.1h24.6v1h-24.6v25.9h32.7V169.5z"/>
	<path fill="#FBCFD0" d="M247,157.7v-42.2h1v54h-1v-10.3l-37.8-42.4c-0.2-0.2-0.3-0.3-0.5-0.3c-0.2,0-0.2,0.2-0.2,0.3v52.7h-1v-52.9
		c0-0.8,0.6-1.2,1.2-1.2c0.6,0,0.8,0.2,1.5,0.9L247,157.7z"/>
	<path fill="#FBCFD0" d="M297.7,116.5h-20.5v-1h42v1h-20.5v53h-1V116.5z"/>
	<path fill="#FBCFD0" d="M350.1,115.5v54h-1v-54H350.1z"/>
	<path fill="#FBCFD0" d="M385.9,115.5h31.9v1h-30.9v28.6h22.8v1h-22.8v23.4h-1V115.5z"/>
	<path fill="#FBCFD0" d="M465.7,152.4v17.1h-1v-17.1h-1c-2.9,0-5.1-1.2-7.3-4.2l-9.7-13.5c-1.5-2-1.5-4.8-1.5-7.7v-11.5h1V127
		c0,2.8,0.1,5.3,1.4,7.3l9.7,13.5c1.8,2.7,4.1,3.6,6.4,3.6h2.7c2.5,0,4.5-1,6.5-3.6l10-13.5c1.4-1.8,1.4-4.5,1.4-7.3v-11.5h1V127
		c0,2.9,0.1,5.6-1.5,7.7l-10,13.5c-2.2,2.9-4.3,4.2-7.4,4.2H465.7z"/>
</g>
</svg>
