<?xml version="1.0" encoding="utf-8"?>
<!-- Generator: Adobe Illustrator 17.1.0, SVG Export Plug-In . SVG Version: 6.00 Build 0)  -->
<!DOCTYPE svg PUBLIC "-//W3C//DTD SVG 1.1//EN" "http://www.w3.org/Graphics/SVG/1.1/DTD/svg11.dtd">
<svg version="1.1" id="Layer_1" xmlns="http://www.w3.org/2000/svg" xmlns:xlink="http://www.w3.org/1999/xlink" x="0px" y="0px"
	 viewBox="0 0 607.6 200" enable-background="new 0 0 607.6 200" xml:space="preserve">
<g>
	<path d="M-740.1-517.9c0.5-0.1,1.2-0.2,2-0.2c1,0,1.8,0.2,2.3,0.7c0.4,0.4,0.7,1,0.7,1.7c0,0.7-0.2,1.3-0.6,1.7
		c-0.6,0.6-1.5,0.9-2.5,0.9c-0.3,0-0.6,0-0.8-0.1v3.2h-1V-517.9z M-739.1-514c0.2,0.1,0.5,0.1,0.9,0.1c1.3,0,2-0.6,2-1.7
		c0-1.1-0.8-1.6-1.9-1.6c-0.5,0-0.8,0-1,0.1V-514z"/>
	<path d="M-726.8-514.1c0,2.8-1.7,4.3-3.8,4.3c-2.1,0-3.6-1.7-3.6-4.1c0-2.6,1.6-4.2,3.8-4.2C-728.3-518.2-726.8-516.5-726.8-514.1z
		 M-733.1-513.9c0,1.7,0.9,3.3,2.6,3.3c1.7,0,2.6-1.5,2.6-3.4c0-1.6-0.8-3.3-2.6-3.3C-732.2-517.3-733.1-515.7-733.1-513.9z"/>
	<path d="M-725.5-518h1v7.2h3.5v0.9h-4.5V-518z"/>
	<path d="M-718.8-518v8.1h-1v-8.1H-718.8z"/>
	<path d="M-711.3-510.2c-0.4,0.2-1.2,0.4-2.1,0.4c-2.3,0-4-1.4-4-4.1c0-2.5,1.7-4.2,4.2-4.2c1,0,1.6,0.2,1.9,0.4l-0.3,0.9
		c-0.4-0.2-1-0.3-1.6-0.3c-1.9,0-3.2,1.2-3.2,3.3c0,2,1.1,3.3,3.1,3.3c0.6,0,1.3-0.1,1.7-0.3L-711.3-510.2z"/>
	<path d="M-708.1-509.9v-3.4l-2.6-4.7h1.2l1.1,2.2c0.3,0.6,0.6,1.1,0.8,1.7h0c0.2-0.5,0.5-1.1,0.8-1.7l1.2-2.2h1.2l-2.7,4.6v3.4
		H-708.1z"/>
</g>
<g>
	<path fill="#666766" d="M4.2,86.5V74.8c0-1.8,0.5-2.9,1.4-3.7l10-8.4C8.5,60.5,4.2,55.9,4.2,46.2V35.7c0-6,2-10.7,5.8-13.9l13-10.9
		c3.6-3,9-4.7,15.8-4.7h28c3.2,0,4.6,1.4,4.6,4.6v11.9c0,1.8-0.5,2.9-1.4,3.7l-9,7.5c8.5,1.9,14,6.4,14,17.2v10.5
		c0,6-2,10.7-5.9,13.9L56.2,86.3c-3.7,3.1-9.1,4.8-15.8,4.8H8.8C5.6,91.1,4.2,89.7,4.2,86.5z"/>
	<path fill="#666766" d="M75.6,91.1c-3.2,0-4.6-1.4-4.6-4.6V21.7c0-1.8,0.5-2.9,1.4-3.7L85.3,7.1c0.7-0.6,1.8-0.9,3.2-0.9H104
		c3.2,0,4.6,1.4,4.6,4.6v40.7l0.2-0.2l12.9-10.9c0.7-0.6,1.8-0.9,3.2-0.9h14.5c3.2,0,4.6,1.4,4.6,4.6v31.5c0,1.8-0.5,2.9-1.4,3.7
		l-13,10.8c-0.6,0.6-1.7,1-3.1,1H75.6z"/>
	<path fill="#666766" d="M145.1,91.1c-3.2,0-4.6-1.4-4.6-4.6V74.4c0-1.8,0.5-2.9,1.4-3.7l12.5-10.6h-9.3c-3.2,0-4.6-1.4-4.6-4.6
		V21.7c0-1.8,0.5-2.9,1.4-3.7l12.9-10.9c0.7-0.6,1.8-0.9,3.2-0.9h15.5c3.2,0,4.6,1.4,4.6,4.6v9.1l15.1-12.8c0.7-0.6,1.8-0.9,3.2-0.9
		h15.5c3.2,0,4.6,1.4,4.6,4.6v47.4c0,7.6-2.6,13.3-7.1,17.1l-12.9,10.9c-3.7,3.1-8.9,4.9-15.2,4.9H145.1z M176.7,58.9V48.3
		l-12.8,10.6H176.7z"/>
	<path fill="#666766" d="M233.7,91.1c-3.2,0-4.6-1.4-4.6-4.6V38.4h-13.7c-3.2,0-4.6-1.4-4.6-4.6V21.7c0-1.8,0.5-2.9,1.4-3.7
		l12.9-10.9c0.7-0.6,1.8-0.9,3.2-0.9h52.8c3.2,0,4.6,1.4,4.6,4.6v12.1c0,1.8-0.5,2.9-1.4,3.7l-13,10.8c-0.6,0.6-1.7,1-3.1,1h-0.8
		v37.2c0,1.8-0.5,2.9-1.4,3.7l-13,10.8c-0.6,0.6-1.7,1-3.1,1H233.7z"/>
	<path fill="#666766" d="M285.1,91.1c-3.2,0-4.6-1.4-4.6-4.6V21.7c0-1.8,0.5-2.9,1.4-3.7l12.9-10.9c0.7-0.6,1.8-0.9,3.2-0.9h46.4
		c3.2,0,4.6,1.4,4.6,4.6v11.7c0,1.8-0.5,2.9-1.4,3.7l-8.6,7.1c1.3,0.7,1.9,2,1.9,4.1v10.7c0,1.8-0.5,2.9-1.4,3.7l-8.9,7.5h13.8
		c3.2,0,4.6,1.4,4.6,4.6v11.7c0,1.8-0.5,2.9-1.4,3.7l-13,10.8c-0.6,0.6-1.7,1-3.1,1H285.1z"/>
	<path fill="#666766" d="M369,90.1c-0.6,0.6-1.7,1-3.1,1h-15.4c-3.2,0-4.6-1.4-4.6-4.6V21.7c0-1.8,0.5-2.9,1.4-3.7l12.9-10.9
		c0.7-0.6,1.8-0.9,3.2-0.9h33.3c15.9,0,20.7,7.3,20.7,17.7v4.6c0,4.9-1.1,8.6-3.8,10.9h-0.1c6.3,1.8,10.4,7.1,10.4,15v21.2
		c0,1.8-0.5,2.9-1.4,3.7l-13,10.8c-0.6,0.6-1.7,1-3.1,1h-15.5c-3.2,0-4.6-1.4-4.6-4.6V71.2c0-2.2-0.7-3.3-2.8-3.3h-0.1v7.7
		c0,1.8-0.5,2.9-1.4,3.7L369,90.1z"/>
	<path fill="#666766" d="M424.8,91.1c-3.2,0-4.6-1.4-4.6-4.6V74.4c0-1.8,0.5-2.9,1.4-3.7l12.5-10.6h-9.3c-3.2,0-4.6-1.4-4.6-4.6
		V21.7c0-1.8,0.5-2.9,1.4-3.7l12.9-10.9c0.7-0.6,1.8-0.9,3.2-0.9h15.5c3.2,0,4.6,1.4,4.6,4.6v9.1l15.1-12.8c0.7-0.6,1.8-0.9,3.2-0.9
		h15.5c3.2,0,4.6,1.4,4.6,4.6v47.4c0,7.6-2.6,13.3-7.1,17.1l-12.9,10.9c-3.7,3.1-8.9,4.9-15.2,4.9H424.8z M456.4,58.9V48.3
		l-12.8,10.6H456.4z"/>
	<path fill="#B5B5B6" d="M21.7,79.2c-2.5,0-3.6-1.1-3.6-3.6V63.9c0-2.5,1.1-3.6,3.6-3.6h26.9c1.7,0,2.6-1.3,2.6-2.9
		c0-2.3-0.9-3.2-2.6-3.4l-15-2.1c-9.4-1.4-15.5-5.4-15.5-16.6V24.8c0-11.4,7.7-17.6,20.7-17.6h28c2.5,0,3.6,1.1,3.6,3.6v11.9
		c0,2.5-1.1,3.6-3.6,3.6H43.5c-1.7,0-2.7,1.2-2.7,3c0,1.8,1,3,2.7,3.2l14.9,2C67.8,35.9,74,39.9,74,51.1v10.5
		c0,11.4-7.8,17.6-20.7,17.6H21.7z"/>
	<path fill="#B5B5B6" d="M88.5,79.2c-2.5,0-3.6-1.1-3.6-3.6V10.8c0-2.5,1.1-3.6,3.6-3.6H104c2.5,0,3.6,1.1,3.6,3.6v49.5h13.7V44.1
		c0-2.5,1.1-3.6,3.6-3.6h14.5c2.5,0,3.6,1.1,3.6,3.6v31.5c0,2.5-1.1,3.6-3.6,3.6H88.5z"/>
	<path fill="#B5B5B6" d="M154.4,63.5c0-2.5,1.1-3.6,3.6-3.6h27.5c4.8,0,7.3-1.9,7.3-6.7V10.8c0-2.5,1.1-3.6,3.6-3.6h15.5
		c2.5,0,3.6,1.1,3.6,3.6v47.4c0,13.2-8.1,21-21.3,21H158c-2.5,0-3.6-1.1-3.6-3.6V63.5z M158,48.2c-2.5,0-3.6-1.1-3.6-3.6V10.8
		c0-2.5,1.1-3.6,3.6-3.6h15.5c2.5,0,3.6,1.1,3.6,3.6v33.8c0,2.5-1.1,3.6-3.6,3.6H158z"/>
	<path fill="#B5B5B6" d="M246.6,79.2c-2.5,0-3.6-1.1-3.6-3.6V26.5h-14.7c-2.5,0-3.6-1.1-3.6-3.6V10.8c0-2.5,1.1-3.6,3.6-3.6h52.8
		c2.5,0,3.6,1.1,3.6,3.6v12.1c0,2.5-1.1,3.6-3.6,3.6h-14.7v49.1c0,2.5-1.1,3.6-3.6,3.6H246.6z"/>
	<path fill="#B5B5B6" d="M298,79.2c-2.5,0-3.6-1.1-3.6-3.6V10.8c0-2.5,1.1-3.6,3.6-3.6h46.4c2.5,0,3.6,1.1,3.6,3.6v11.7
		c0,2.5-1.1,3.6-3.6,3.6h-27.6v7.7h19.5c2.5,0,3.6,1.1,3.6,3.6v10.7c0,2.5-1.1,3.6-3.6,3.6h-19.5v8.6h27.6c2.5,0,3.6,1.1,3.6,3.6
		v11.7c0,2.5-1.1,3.6-3.6,3.6H298z"/>
	<path fill="#B5B5B6" d="M363.4,79.2c-2.5,0-3.6-1.1-3.6-3.6V10.8c0-2.5,1.1-3.6,3.6-3.6h33.3c15,0,19.7,6.8,19.7,16.7v4.6
		c0,5.6-1.4,9.6-5.6,11.4c7.3,0.8,12.1,6.1,12.1,14.5v21.2c0,2.5-1.1,3.6-3.6,3.6h-15.5c-2.5,0-3.6-1.1-3.6-3.6V60.3
		c0-3-1-4.3-3.8-4.3h-14v19.6c0,2.5-1.1,3.6-3.6,3.6H363.4z M382.4,38h7.5c3.5,0,4.4-2,4.4-4.7v-3.4c0-2.7-0.9-4.7-4.4-4.7h-7.5V38z
		"/>
	<path fill="#B5B5B6" d="M434.1,63.5c0-2.5,1.1-3.6,3.6-3.6h27.5c4.8,0,7.3-1.9,7.3-6.7V10.8c0-2.5,1.1-3.6,3.6-3.6h15.5
		c2.5,0,3.6,1.1,3.6,3.6v47.4c0,13.2-8.1,21-21.3,21h-36.2c-2.5,0-3.6-1.1-3.6-3.6V63.5z M437.7,48.2c-2.5,0-3.6-1.1-3.6-3.6V10.8
		c0-2.5,1.1-3.6,3.6-3.6h15.5c2.5,0,3.6,1.1,3.6,3.6v33.8c0,2.5-1.1,3.6-3.6,3.6H437.7z"/>
	<path fill="#FAFBFB" d="M61.4,17.4H39.2c-5.6,0-9.2,3.4-9.2,8.1v8.2c0,4.7,2,6.1,5.1,6.7l21.1,4.3c4,0.8,6.9,2.8,6.9,9.8v5.8
		c0,5.9-4.3,10.1-11.1,10.1H27.1v-1H52c6.2,0,10.1-3.8,10.1-9.1v-5.8c0-6.3-2.4-8-6.1-8.8l-21.1-4.3c-3.5-0.7-5.9-2.2-5.9-7.7v-8.2
		c0-5.3,4-9.1,10.2-9.1h22.2V17.4z"/>
	<path fill="#FAFBFB" d="M95.8,16.4h1v53h34.8V49.7h1v20.7H95.8V16.4z"/>
	<path fill="#FAFBFB" d="M163.4,70.4v-1h26.1c11.8,0,14.2-5.3,14.2-15.6V16.4h1v37.4c0,10.7-2.4,16.6-15.2,16.6H163.4z M165.2,39.4
		v-23h1v23H165.2z"/>
	<path fill="#FAFBFB" d="M254.2,17.4h-20.5v-1h42v1h-20.5v53h-1V17.4z"/>
	<path fill="#FAFBFB" d="M339,70.4h-33.7v-54H339v1h-32.7v25.1h24.6v1h-24.6v25.9H339V70.4z"/>
	<path fill="#FAFBFB" d="M370.6,70.4v-54h22.8c7.8,0,11.4,4.8,11.4,11.4v6.9c0,6.1-1.2,10.1-6,11.6h1.1c8.2,0,12.1,3.7,12.1,10.7
		v13.4h-1V57c0-6.6-3.5-9.8-11.1-9.8h-28.3v23.2H370.6z M371.6,17.4v28.9h21.8c8.3,0,10.4-4.1,10.4-11.5v-7
		c0-6.2-3.3-10.4-10.4-10.4H371.6z"/>
	<path fill="#FAFBFB" d="M443.1,70.4v-1h26.1c11.8,0,14.2-5.3,14.2-15.6V16.4h1v37.4c0,10.7-2.4,16.6-15.2,16.6H443.1z M444.9,39.4
		v-23h1v23H444.9z"/>
</g>
<g>
	<path fill="#9F1D21" d="M4.2,185.6v-11.7c0-1.8,0.5-2.9,1.4-3.7l10-8.4c-7.1-2.2-11.4-6.8-11.4-16.5v-10.5c0-6,2-10.7,5.8-13.9
		L23,110c3.6-3,9-4.7,15.8-4.7h28c3.2,0,4.6,1.4,4.6,4.6v11.9c0,1.8-0.5,2.9-1.4,3.7l-9,7.5c8.5,1.9,14,6.4,14,17.2v10.5
		c0,6-2,10.7-5.9,13.9l-12.9,10.8c-3.7,3.1-9.1,4.8-15.8,4.8H8.8C5.6,190.2,4.2,188.8,4.2,185.6z"/>
	<path fill="#9F1D21" d="M75.6,190.2c-3.2,0-4.6-1.4-4.6-4.6v-64.8c0-1.8,0.5-2.9,1.4-3.7l12.9-10.9c0.7-0.6,1.8-0.9,3.2-0.9H104
		c3.2,0,4.6,1.4,4.6,4.6v40.7l0.2-0.2l12.9-10.9c0.7-0.6,1.8-0.9,3.2-0.9h14.5c3.2,0,4.6,1.4,4.6,4.6v31.5c0,1.8-0.5,2.9-1.4,3.7
		l-13,10.8c-0.6,0.6-1.7,1-3.1,1H75.6z"/>
	<path fill="#9F1D21" d="M143.5,190.2c-3.2,0-4.6-1.4-4.6-4.6v-11.9c0-1.8,0.5-2.9,1.4-3.7l12.1-10.2v-22.3h-8.9
		c-3.2,0-4.6-1.4-4.6-4.6v-12.1c0-1.8,0.5-2.9,1.4-3.7l12.9-10.9c0.7-0.6,1.8-0.9,3.2-0.9H199c3.2,0,4.6,1.4,4.6,4.6V122
		c0,1.8-0.5,2.9-1.4,3.7l-11.9,10v22.5h8.7c3.2,0,4.6,1.4,4.6,4.6v11.9c0,1.8-0.5,2.9-1.4,3.7l-13,10.8c-0.6,0.6-1.7,1-3.1,1H143.5z
		 M195.2,170.3v-16.2c0-1.8,0.5-3,1.3-3.7l13-10.9c0.7-0.6,1.7-0.9,3.2-0.9h14.5c1.5,0,2.6,0.3,3.4,1v-18.8c0-1.8,0.5-2.9,1.4-3.7
		l12.9-10.9c0.7-0.6,1.8-0.9,3.2-0.9h15.7c3.2,0,4.6,1.4,4.6,4.6v49.5c0,6.3-1.5,11.7-6.1,15.4l-12.9,10.9c-4.5,3.8-11.9,6-24.2,6
		C200.8,191.7,195.2,182.9,195.2,170.3z"/>
	<path fill="#9F1D21" d="M285.6,190.2c-3.2,0-4.6-1.4-4.6-4.6v-48.1h-13.7c-3.2,0-4.6-1.4-4.6-4.6v-12.1c0-1.8,0.5-2.9,1.4-3.7
		l12.9-10.9c0.7-0.6,1.8-0.9,3.2-0.9H333c3.2,0,4.6,1.4,4.6,4.6V122c0,1.8-0.5,2.9-1.4,3.7l-13,10.8c-0.6,0.6-1.7,1-3.1,1h-0.8v37.2
		c0,1.8-0.5,2.9-1.4,3.7l-13,10.8c-0.6,0.6-1.7,1-3.1,1H285.6z"/>
	<path fill="#9F1D21" d="M337,190.2c-3.2,0-4.6-1.4-4.6-4.6v-64.8c0-1.8,0.5-2.9,1.4-3.7l12.9-10.9c0.7-0.6,1.8-0.9,3.2-0.9h46.4
		c3.2,0,4.6,1.4,4.6,4.6v11.7c0,1.8-0.5,2.9-1.4,3.7l-8.6,7.1c1.3,0.7,1.9,2,1.9,4.1v10.7c0,1.8-0.5,2.9-1.4,3.7l-8.9,7.5h13.8
		c3.2,0,4.6,1.4,4.6,4.6v11.7c0,1.8-0.5,2.9-1.4,3.7l-13,10.8c-0.6,0.6-1.7,1-3.1,1H337z"/>
	<path fill="#9F1D21" d="M420.9,189.2c-0.6,0.6-1.7,1-3.1,1h-15.4c-3.2,0-4.6-1.4-4.6-4.6v-64.8c0-1.8,0.5-2.9,1.4-3.7l12.9-10.9
		c0.7-0.6,1.8-0.9,3.2-0.9h33.3c15.9,0,20.7,7.3,20.7,17.7v4.6c0,4.9-1.1,8.6-3.8,10.9h-0.1c6.3,1.8,10.4,7.1,10.4,15v21.2
		c0,1.8-0.5,2.9-1.4,3.7l-13,10.8c-0.6,0.6-1.7,1-3.1,1h-15.5c-3.2,0-4.6-1.4-4.6-4.6v-15.3c0-2.2-0.7-3.3-2.8-3.3h-0.1v7.7
		c0,1.8-0.5,2.9-1.4,3.7L420.9,189.2z"/>
	<path fill="#9F1D21" d="M475.1,190.2c-3.2,0-4.6-1.4-4.6-4.6v-11.9c0-1.8,0.5-2.9,1.4-3.7l12.1-10.2v-22.3h-8.9
		c-3.2,0-4.6-1.4-4.6-4.6v-12.1c0-1.8,0.5-2.9,1.4-3.7l12.9-10.9c0.7-0.6,1.8-0.9,3.2-0.9h42.6c3.2,0,4.6,1.4,4.6,4.6V122
		c0,1.8-0.5,2.9-1.4,3.7l-11.9,10v22.5h8.7c3.2,0,4.6,1.4,4.6,4.6v11.9c0,1.8-0.5,2.9-1.4,3.7l-13,10.8c-0.6,0.6-1.7,1-3.1,1H475.1z
		 M526.8,170.3v-16.2c0-1.8,0.5-3,1.3-3.7l13-10.9c0.7-0.6,1.7-0.9,3.2-0.9h14.5c1.5,0,2.6,0.3,3.4,1v-18.8c0-1.8,0.5-2.9,1.4-3.7
		l12.9-10.9c0.7-0.6,1.8-0.9,3.2-0.9h15.7c3.2,0,4.6,1.4,4.6,4.6v49.5c0,6.3-1.5,11.7-6.1,15.4L581,185.7c-4.5,3.8-11.9,6-24.2,6
		C532.4,191.7,526.8,182.9,526.8,170.3z"/>
	<path fill="#EF3A38" d="M21.7,178.3c-2.5,0-3.6-1.1-3.6-3.6V163c0-2.5,1.1-3.6,3.6-3.6h26.9c1.7,0,2.6-1.3,2.6-2.9
		c0-2.3-0.9-3.2-2.6-3.4l-15-2.1c-9.4-1.4-15.5-5.4-15.5-16.6v-10.5c0-11.4,7.7-17.6,20.7-17.6h28c2.5,0,3.6,1.1,3.6,3.6v11.9
		c0,2.5-1.1,3.6-3.6,3.6H43.5c-1.7,0-2.7,1.2-2.7,3c0,1.8,1,3,2.7,3.2l14.9,2C67.8,135,74,139,74,150.2v10.5
		c0,11.4-7.8,17.6-20.7,17.6H21.7z"/>
	<path fill="#EF3A38" d="M88.5,178.3c-2.5,0-3.6-1.1-3.6-3.6v-64.8c0-2.5,1.1-3.6,3.6-3.6H104c2.5,0,3.6,1.1,3.6,3.6v49.5h13.7
		v-16.2c0-2.5,1.1-3.6,3.6-3.6h14.5c2.5,0,3.6,1.1,3.6,3.6v31.5c0,2.5-1.1,3.6-3.6,3.6H88.5z"/>
	<path fill="#EF3A38" d="M152.8,174.7v-11.9c0-2.5,1.1-3.6,3.6-3.6h9.9v-33.6h-9.9c-2.5,0-3.6-1.1-3.6-3.6v-12.1
		c0-2.5,1.1-3.6,3.6-3.6H199c2.5,0,3.6,1.1,3.6,3.6V122c0,2.5-1.1,3.6-3.6,3.6h-9.7v33.6h9.7c2.5,0,3.6,1.1,3.6,3.6v11.9
		c0,2.5-1.1,3.6-3.6,3.6h-42.6C153.9,178.3,152.8,177.2,152.8,174.7z M238.1,179.8c-23.3,0-29-8.2-29-20.4v-16.2
		c0-2.6,1.1-3.6,3.6-3.6h14.5c2.5,0,3.6,1,3.6,3.6v12.2c0,2.7,0.9,4.7,7.1,4.7c5.8,0,6.6-2,6.6-4.7v-45.5c0-2.5,1.1-3.6,3.6-3.6
		h15.7c2.5,0,3.6,1.1,3.6,3.6v49.5C267.4,171.6,261.6,179.8,238.1,179.8z"/>
	<path fill="#EF3A38" d="M298.5,178.3c-2.5,0-3.6-1.1-3.6-3.6v-49.1h-14.7c-2.5,0-3.6-1.1-3.6-3.6v-12.1c0-2.5,1.1-3.6,3.6-3.6H333
		c2.5,0,3.6,1.1,3.6,3.6V122c0,2.5-1.1,3.6-3.6,3.6h-14.7v49.1c0,2.5-1.1,3.6-3.6,3.6H298.5z"/>
	<path fill="#EF3A38" d="M349.9,178.3c-2.5,0-3.6-1.1-3.6-3.6v-64.8c0-2.5,1.1-3.6,3.6-3.6h46.4c2.5,0,3.6,1.1,3.6,3.6v11.7
		c0,2.5-1.1,3.6-3.6,3.6h-27.6v7.7h19.5c2.5,0,3.6,1.1,3.6,3.6v10.7c0,2.5-1.1,3.6-3.6,3.6h-19.5v8.6h27.6c2.5,0,3.6,1.1,3.6,3.6
		v11.7c0,2.5-1.1,3.6-3.6,3.6H349.9z"/>
	<path fill="#EF3A38" d="M415.3,178.3c-2.5,0-3.6-1.1-3.6-3.6v-64.8c0-2.5,1.1-3.6,3.6-3.6h33.3c15,0,19.7,6.8,19.7,16.7v4.6
		c0,5.6-1.4,9.6-5.6,11.4c7.3,0.8,12.1,6.1,12.1,14.5v21.2c0,2.5-1.1,3.6-3.6,3.6h-15.5c-2.5,0-3.6-1.1-3.6-3.6v-15.3
		c0-3-1-4.3-3.8-4.3h-14v19.6c0,2.5-1.1,3.6-3.6,3.6H415.3z M434.3,137.1h7.5c3.5,0,4.4-2,4.4-4.7V129c0-2.7-0.9-4.7-4.4-4.7h-7.5
		V137.1z"/>
	<path fill="#EF3A38" d="M484.4,174.7v-11.9c0-2.5,1.1-3.6,3.6-3.6h9.9v-33.6H488c-2.5,0-3.6-1.1-3.6-3.6v-12.1
		c0-2.5,1.1-3.6,3.6-3.6h42.6c2.5,0,3.6,1.1,3.6,3.6V122c0,2.5-1.1,3.6-3.6,3.6h-9.7v33.6h9.7c2.5,0,3.6,1.1,3.6,3.6v11.9
		c0,2.5-1.1,3.6-3.6,3.6H488C485.5,178.3,484.4,177.2,484.4,174.7z M569.7,179.8c-23.3,0-29-8.2-29-20.4v-16.2
		c0-2.6,1.1-3.6,3.6-3.6h14.5c2.5,0,3.6,1,3.6,3.6v12.2c0,2.7,0.9,4.7,7.1,4.7c5.8,0,6.6-2,6.6-4.7v-45.5c0-2.5,1.1-3.6,3.6-3.6
		h15.7c2.5,0,3.6,1.1,3.6,3.6v49.5C599,171.6,593.2,179.8,569.7,179.8z"/>
	<path fill="#FBCFD0" d="M61.4,116.5H39.2c-5.6,0-9.2,3.4-9.2,8.1v8.2c0,4.7,2,6.1,5.1,6.7l21.1,4.3c4,0.8,6.9,2.8,6.9,9.8v5.8
		c0,5.9-4.3,10.1-11.1,10.1H27.1v-1H52c6.2,0,10.1-3.8,10.1-9.1v-5.8c0-6.3-2.4-8-6.1-8.8l-21.1-4.3c-3.5-0.7-5.9-2.2-5.9-7.7v-8.2
		c0-5.3,4-9.1,10.2-9.1h22.2V116.5z"/>
	<path fill="#FBCFD0" d="M95.8,115.5h1v53h34.8v-19.7h1v20.7H95.8V115.5z"/>
	<path fill="#FBCFD0" d="M161.8,169.5v-1h15.5v-52h-15.5v-1h31.8v1h-15.3v52h15.3v1H161.8z M256.4,115.5v41.7
		c0,7.9-3.9,13.5-18.1,13.5c-15,0-18.8-5.5-18.8-13.5v-7.9h1v7.9c0,7.6,4,12.5,17.8,12.5c13.2,0,17.1-5,17.1-12.5v-41.7H256.4z"/>
	<path fill="#FBCFD0" d="M306.1,116.5h-20.5v-1h42v1h-20.5v53h-1V116.5z"/>
	<path fill="#FBCFD0" d="M390.9,169.5h-33.7v-54h33.7v1h-32.7v25.1h24.6v1h-24.6v25.9h32.7V169.5z"/>
	<path fill="#FBCFD0" d="M422.5,169.5v-54h22.8c7.8,0,11.4,4.8,11.4,11.4v6.9c0,6.1-1.2,10.1-6,11.6h1.1c8.2,0,12.1,3.7,12.1,10.7
		v13.4h-1v-13.4c0-6.6-3.5-9.8-11.1-9.8h-28.3v23.2H422.5z M423.5,116.5v28.9h21.8c8.3,0,10.4-4.1,10.4-11.5v-7
		c0-6.2-3.3-10.4-10.4-10.4H423.5z"/>
	<path fill="#FBCFD0" d="M493.4,169.5v-1h15.5v-52h-15.5v-1h31.8v1h-15.3v52h15.3v1H493.4z M588,115.5v41.7
		c0,7.9-3.9,13.5-18.1,13.5c-15,0-18.8-5.5-18.8-13.5v-7.9h1v7.9c0,7.6,4,12.5,17.8,12.5c13.2,0,17.1-5,17.1-12.5v-41.7H588z"/>
</g>
</svg>
