<?xml version="1.0" encoding="utf-8"?>
<!-- Generator: Adobe Illustrator 17.1.0, SVG Export Plug-In . SVG Version: 6.00 Build 0)  -->
<!DOCTYPE svg PUBLIC "-//W3C//DTD SVG 1.1//EN" "http://www.w3.org/Graphics/SVG/1.1/DTD/svg11.dtd">
<svg version="1.1" id="Layer_1" xmlns="http://www.w3.org/2000/svg" xmlns:xlink="http://www.w3.org/1999/xlink" x="0px" y="0px"
	 viewBox="0 0 714.7 200" enable-background="new 0 0 714.7 200" xml:space="preserve">
<g>
	<path d="M-740.1-517.9c0.5-0.1,1.2-0.2,2-0.2c1,0,1.8,0.2,2.3,0.7c0.4,0.4,0.7,1,0.7,1.7c0,0.7-0.2,1.3-0.6,1.7
		c-0.6,0.6-1.5,0.9-2.5,0.9c-0.3,0-0.6,0-0.8-0.1v3.2h-1V-517.9z M-739.1-514c0.2,0.1,0.5,0.1,0.9,0.1c1.3,0,2-0.6,2-1.7
		c0-1.1-0.8-1.6-1.9-1.6c-0.5,0-0.8,0-1,0.1V-514z"/>
	<path d="M-726.8-514.1c0,2.8-1.7,4.3-3.8,4.3c-2.1,0-3.6-1.7-3.6-4.1c0-2.6,1.6-4.2,3.8-4.2C-728.3-518.2-726.8-516.5-726.8-514.1z
		 M-733.1-513.9c0,1.7,0.9,3.3,2.6,3.3c1.7,0,2.6-1.5,2.6-3.4c0-1.6-0.8-3.3-2.6-3.3C-732.2-517.3-733.1-515.7-733.1-513.9z"/>
	<path d="M-725.5-518h1v7.2h3.5v0.9h-4.5V-518z"/>
	<path d="M-718.8-518v8.1h-1v-8.1H-718.8z"/>
	<path d="M-711.3-510.2c-0.4,0.2-1.2,0.4-2.1,0.4c-2.3,0-4-1.4-4-4.1c0-2.5,1.7-4.2,4.2-4.2c1,0,1.6,0.2,1.9,0.4l-0.3,0.9
		c-0.4-0.2-1-0.3-1.6-0.3c-1.9,0-3.2,1.2-3.2,3.3c0,2,1.1,3.3,3.1,3.3c0.6,0,1.3-0.1,1.7-0.3L-711.3-510.2z"/>
	<path d="M-708.1-509.9v-3.4l-2.6-4.7h1.2l1.1,2.2c0.3,0.6,0.6,1.1,0.8,1.7h0c0.2-0.5,0.5-1.1,0.8-1.7l1.2-2.2h1.2l-2.7,4.6v3.4
		H-708.1z"/>
</g>
<g>
	<path fill="#666766" d="M28.6,90.1c-0.6,0.6-1.7,1-3.1,1H10.6c-3.2,0-4.6-1.4-4.6-4.6V21.7c0-1.8,0.5-2.9,1.4-3.7L20.3,7.1
		c0.7-0.6,1.8-0.9,3.2-0.9h16.1c2.5,0,4,0.9,5.5,3.5l6.8,12.5l0.9-1.6c0.5-1,1.1-1.8,1.8-2.4L67.5,7.4c1.1-0.8,2.1-1.2,3.7-1.2h16.2
		c3.2,0,4.6,1.4,4.6,4.6v64.8c0,1.8-0.5,2.9-1.4,3.7l-13,10.8c-0.6,0.6-1.7,1-3.1,1H59.1c-3.3,0-4.6-1.4-4.6-4.6V60.1L48.6,65
		c-1.1,0.9-2.4,1.4-4.3,1.4H43v9.2c0,1.8-0.5,2.9-1.4,3.7L28.6,90.1z"/>
	<path fill="#666766" d="M121.9,92.6c-26.2,0-32.1-8.8-32.1-21.4V37.1c0-6.2,1.5-11.5,6-15.3l13-10.8c4.7-4,12.6-6.3,26-6.3
		c26.2,0,32,8.9,32,21.5v34.1c0,6.2-1.5,11.4-6,15.2l-12.9,10.8C143.2,90.3,135.2,92.6,121.9,92.6z M129.3,59.7v-19
		c0-1.3-0.4-2.3-1.9-2.9v18.9C127.4,58,127.8,59,129.3,59.7z"/>
	<path fill="#666766" d="M187.7,90.1c-0.6,0.6-1.7,1-3.1,1h-15.4c-3.2,0-4.6-1.4-4.6-4.6V21.7c0-1.8,0.5-2.9,1.4-3.7l12.9-10.9
		c0.7-0.6,1.8-0.9,3.2-0.9h33.3c15.9,0,20.7,7.3,20.7,17.7v4.6c0,4.9-1.1,8.6-3.8,10.9h-0.1c6.3,1.8,10.4,7.1,10.4,15v21.2
		c0,1.8-0.5,2.9-1.4,3.7l-13,10.8c-0.6,0.6-1.7,1-3.1,1h-15.5c-3.2,0-4.6-1.4-4.6-4.6V71.2c0-2.2-0.7-3.3-2.8-3.3h-0.1v7.7
		c0,1.8-0.5,2.9-1.4,3.7L187.7,90.1z"/>
	<path fill="#666766" d="M261.6,90.1c-0.6,0.6-1.7,1-3.1,1h-15c-3.2,0-4.6-1.4-4.6-4.6V21.7c0-1.8,0.5-2.9,1.4-3.7l12.9-10.9
		c0.7-0.6,1.8-0.9,3.2-0.9h10.4c2.9,0,4.7,0.8,6.7,3l6.9,8l12.1-10.1c0.7-0.6,1.8-0.9,3.2-0.9h15c3.2,0,4.6,1.4,4.6,4.6v64.8
		c0,1.8-0.5,2.9-1.4,3.7l-13,10.8c-0.6,0.6-1.7,1-3.1,1h-15c-3.2,0-4.6-1.4-4.6-4.6V74.6l-2.2-2.7v3.7c0,1.8-0.5,2.9-1.4,3.7
		L261.6,90.1z"/>
	<path fill="#666766" d="M317.2,91.1c-3.2,0-4.6-1.4-4.6-4.6V74.6c0-1.8,0.5-2.9,1.4-3.7l12.1-10.2V38.4h-8.9
		c-3.2,0-4.6-1.4-4.6-4.6V21.7c0-1.8,0.5-2.9,1.4-3.7l12.9-10.9c0.7-0.6,1.8-0.9,3.2-0.9h42.6c3.2,0,4.6,1.4,4.6,4.6v12.1
		c0,1.8-0.5,2.9-1.4,3.7l-11.9,10v22.5h8.7c3.2,0,4.6,1.4,4.6,4.6v11.9c0,1.8-0.5,2.9-1.4,3.7l-13,10.8c-0.6,0.6-1.7,1-3.1,1H317.2z
		"/>
	<path fill="#666766" d="M397.4,90.1c-0.6,0.6-1.7,1-3.1,1h-15c-3.2,0-4.6-1.4-4.6-4.6V21.7c0-1.8,0.5-2.9,1.4-3.7L389,7.1
		c0.7-0.6,1.8-0.9,3.2-0.9h10.4c2.9,0,4.7,0.8,6.7,3l6.9,8l12.1-10.1c0.7-0.6,1.8-0.9,3.2-0.9h15c3.2,0,4.6,1.4,4.6,4.6v64.8
		c0,1.8-0.5,2.9-1.4,3.7l-13,10.8c-0.6,0.6-1.7,1-3.1,1h-15c-3.2,0-4.6-1.4-4.6-4.6V74.6l-2.2-2.7v3.7c0,1.8-0.5,2.9-1.4,3.7
		L397.4,90.1z"/>
	<path fill="#666766" d="M474.5,91.1c-17.6,0-25.6-6.9-25.6-21.4V38.5c0-7.4,2.1-12.6,6.3-16.2l12.9-10.9c4.2-3.5,10.6-5.2,19.3-5.2
		h25c3.2,0,4.6,1.4,4.6,4.6v12.1c0,1.8-0.5,2.9-1.4,3.7l-13,10.8c-0.6,0.6-1.7,1-3.1,1h-13v14.4c0.2-0.3,0.5-0.6,0.8-0.9L500.2,41
		c0.7-0.6,1.8-0.9,3.2-0.9h15.5c3.2,0,4.6,1.4,4.6,4.6v30.9c0,1.8-0.5,2.9-1.4,3.7l-13,10.8c-0.6,0.6-1.7,1-3.1,1H474.5z"/>
	<path fill="#B5B5B6" d="M23.5,79.2c-2.5,0-3.6-1.1-3.6-3.6V10.8c0-2.5,1.1-3.6,3.6-3.6h16.1c2.1,0,3.4,0.8,4.6,3l9,16.3
		c0.7,1.2,1,1.7,1.8,1.7h0.9c0.8,0,1.1-0.5,1.8-1.7l8.9-16.3c1.2-2.2,2.5-3,4.6-3h16.2c2.5,0,3.6,1.1,3.6,3.6v64.8
		c0,2.5-1.1,3.6-3.6,3.6H72c-2.6,0-3.6-1.1-3.6-3.6V40.4l-5.9,10.9c-1.2,2.3-2.7,3.2-5.3,3.2h-4c-2.6,0-4.1-0.9-5.3-3.2L42,40.4
		v35.2c0,2.5-1.1,3.6-3.6,3.6H23.5z"/>
	<path fill="#B5B5B6" d="M134.8,80.7c-25,0-31.1-8.2-31.1-20.4V26.2c0-12.2,6.1-20.5,31.1-20.5c25,0,31,8.3,31,20.5v34.1
		C165.8,72.5,159.8,80.7,134.8,80.7z M134.8,61.4c7.3,0,8.4-2,8.4-4.7V29.8c0-2.6-1.1-4.6-8.4-4.6c-7.2,0-8.4,2-8.4,4.6v26.9
		C126.4,59.4,127.6,61.4,134.8,61.4z"/>
	<path fill="#B5B5B6" d="M182.1,79.2c-2.5,0-3.6-1.1-3.6-3.6V10.8c0-2.5,1.1-3.6,3.6-3.6h33.3c15,0,19.7,6.8,19.7,16.7v4.6
		c0,5.6-1.4,9.6-5.6,11.4c7.3,0.8,12.1,6.1,12.1,14.5v21.2c0,2.5-1.1,3.6-3.6,3.6h-15.5c-2.5,0-3.6-1.1-3.6-3.6V60.3
		c0-3-1-4.3-3.8-4.3h-14v19.6c0,2.5-1.1,3.6-3.6,3.6H182.1z M201.1,38h7.5c3.5,0,4.4-2,4.4-4.7v-3.4c0-2.7-0.9-4.7-4.4-4.7h-7.5V38z
		"/>
	<path fill="#B5B5B6" d="M256.4,79.2c-2.5,0-3.6-1.1-3.6-3.6V10.8c0-2.5,1.1-3.6,3.6-3.6h10.4c2.6,0,4.2,0.7,5.9,2.7l19.4,22.2V10.8
		c0-2.5,1.1-3.6,3.6-3.6h15c2.5,0,3.6,1.1,3.6,3.6v64.8c0,2.5-1.1,3.6-3.6,3.6h-15c-2.5,0-3.6-1.1-3.6-3.6V63.3L275,42.6v33
		c0,2.5-1.1,3.6-3.6,3.6H256.4z"/>
	<path fill="#B5B5B6" d="M326.5,75.6V63.7c0-2.5,1.1-3.6,3.6-3.6h9.9V26.5h-9.9c-2.5,0-3.6-1.1-3.6-3.6V10.8c0-2.5,1.1-3.6,3.6-3.6
		h42.6c2.5,0,3.6,1.1,3.6,3.6v12.1c0,2.5-1.1,3.6-3.6,3.6H363v33.6h9.7c2.5,0,3.6,1.1,3.6,3.6v11.9c0,2.5-1.1,3.6-3.6,3.6h-42.6
		C327.6,79.2,326.5,78.1,326.5,75.6z"/>
	<path fill="#B5B5B6" d="M392.2,79.2c-2.5,0-3.6-1.1-3.6-3.6V10.8c0-2.5,1.1-3.6,3.6-3.6h10.4c2.6,0,4.2,0.7,5.9,2.7l19.4,22.2V10.8
		c0-2.5,1.1-3.6,3.6-3.6h15c2.5,0,3.6,1.1,3.6,3.6v64.8c0,2.5-1.1,3.6-3.6,3.6h-15c-2.5,0-3.6-1.1-3.6-3.6V63.3l-17.1-20.7v33
		c0,2.5-1.1,3.6-3.6,3.6H392.2z"/>
	<path fill="#B5B5B6" d="M487.4,79.2c-16.8,0-24.6-6.5-24.6-20.4V27.6c0-13.9,7.8-20.4,24.6-20.4h25c2.5,0,3.6,1.1,3.6,3.6v12.1
		c0,2.5-1.1,3.6-3.6,3.6h-20.8c-4.2,0-6.1,1.6-6.1,5v23.9c0,3.4,1.5,4.9,4.6,4.9h9.7V44.7c0-2.5,1.1-3.6,3.6-3.6h15.5
		c2.5,0,3.6,1.1,3.6,3.6v30.9c0,2.5-1.1,3.6-3.6,3.6H487.4z"/>
	<path fill="#FAFBFB" d="M60.2,36.7l12.2-18.6c0.8-1.3,1.8-1.7,2.9-1.7H77c1.9,0,2.7,0.9,2.7,3.1v50.9h-1V19.5
		c0-1.1-0.3-2.1-1.7-2.1h-1.5c-0.9,0-1.5,0.1-2.3,1.4L61,37.2c-2.4,3.6-3,4.7-5.9,4.7s-3.5-1.1-5.9-4.7L37,18.8
		c-0.8-1.3-1.5-1.4-2.4-1.4h-1.5c-1.4,0-1.6,1-1.6,2.1v50.9h-1V19.5c0-2.2,0.8-3.1,2.6-3.1h1.7c1.1,0,2.2,0.4,3,1.7L50,36.7
		c2.3,3.5,2.7,4.2,5.1,4.2C57.5,40.9,57.9,40.2,60.2,36.7z"/>
	<path fill="#FAFBFB" d="M134.6,71.7c-15.7,0-20.1-5.4-20.1-13.5V28.7c0-8.1,4.4-13.5,20.1-13.5s20.3,5.4,20.3,13.5v29.5
		C154.9,66.3,150.3,71.7,134.6,71.7z M134.6,70.7c14.9,0,19.3-5,19.3-12.5V28.7c0-7.5-4.4-12.5-19.3-12.5c-14.9,0-19.1,5-19.1,12.5
		v29.5C115.5,65.7,119.7,70.7,134.6,70.7z"/>
	<path fill="#FAFBFB" d="M189.3,70.4v-54h22.8c7.8,0,11.4,4.8,11.4,11.4v6.9c0,6.1-1.2,10.1-6,11.6h1.1c8.2,0,12.1,3.7,12.1,10.7
		v13.4h-1V57c0-6.6-3.5-9.8-11.1-9.8h-28.3v23.2H189.3z M190.3,17.4v28.9h21.8c8.3,0,10.4-4.1,10.4-11.5v-7
		c0-6.2-3.3-10.4-10.4-10.4H190.3z"/>
	<path fill="#FAFBFB" d="M302.8,58.6V16.4h1v54h-1V60.1L265,17.7c-0.2-0.2-0.3-0.3-0.5-0.3c-0.2,0-0.2,0.2-0.2,0.3v52.7h-1V17.5
		c0-0.8,0.6-1.2,1.2-1.2c0.6,0,0.8,0.2,1.5,0.9L302.8,58.6z"/>
	<path fill="#FAFBFB" d="M335.5,70.4v-1H351v-52h-15.5v-1h31.8v1H352v52h15.3v1H335.5z"/>
	<path fill="#FAFBFB" d="M438.6,58.6V16.4h1v54h-1V60.1l-37.8-42.4c-0.2-0.2-0.3-0.3-0.5-0.3c-0.2,0-0.2,0.2-0.2,0.3v52.7h-1V17.5
		c0-0.8,0.6-1.2,1.2-1.2c0.6,0,0.8,0.2,1.5,0.9L438.6,58.6z"/>
	<path fill="#FAFBFB" d="M473.7,57.5v-28c0-9.5,3.2-13.1,16-13.1H507v1h-17.3c-11.8,0-15,3.2-15,12.1v28c0,8.7,3.5,11.9,17,11.9
		h18.9V50.3h1v20.1h-19.9C477,70.4,473.7,66.8,473.7,57.5z"/>
</g>
<g>
	<path fill="#9F1D21" d="M34.8,190.2H21.6c-3.2,0-4.6-1.4-4.6-4.6l0.4-64.8c0-1.8,0.5-2.9,1.4-3.7l12.9-10.9
		c0.7-0.6,1.8-0.9,3.2-0.9H48c3,0,5.9,0.9,7.4,3.5v0.1l3.7,9.2l0.5-0.5l12.9-10.7c1.2-1.1,2.7-1.6,4.8-1.6h14c3.3,0,4.6,1.4,4.6,4.6
		l0.4,64.8c0,1.8-0.5,2.9-1.4,3.7L82,189.3c-0.8,0.5-1.9,0.9-3.2,0.9H63.7c-3.2,0-4.6-1.4-4.6-4.6l-0.4-23l-3.8,3.2
		c-0.7,0.7-1.5,1.1-2.5,1.3l-0.1,7.6c0,1.8-0.5,2.9-1.4,3.7l-13,10.8C37.3,189.8,36.2,190.2,34.8,190.2z"/>
	<path fill="#9F1D21" d="M150.1,191.7c-25.7,0-31.4-8.8-31.4-21.4v-34.1c0-6.3,1.5-11.6,6-15.4l13-10.8c4.6-3.9,12.3-6.2,25.3-6.2
		c25.7,0,31.4,8.9,31.4,21.5v34.1c0,6.2-1.5,11.5-6,15.3l-13,10.8C170.8,189.4,163.1,191.7,150.1,191.7z M158.2,158.8v-19
		c0-1.3-0.4-2.3-1.9-2.9v18.9C156.3,157.1,156.7,158.1,158.2,158.8z"/>
	<path fill="#9F1D21" d="M242.2,189.2c-0.6,0.6-1.7,1-3.1,1h-15.4c-3.2,0-4.6-1.4-4.6-4.6v-64.8c0-1.8,0.5-2.9,1.4-3.7l12.9-10.9
		c0.7-0.6,1.8-0.9,3.2-0.9h32.2c15.9,0,20.7,7.3,20.7,17.7v4.6c0,4.9-1.1,8.6-3.8,10.9l-0.1,0.1c5.3,1.8,9.4,7,9.4,14.9v21.2
		c0,1.8-0.5,2.9-1.4,3.7l-13,10.8c-0.6,0.6-1.7,1-3.1,1h-14.9c-3.2,0-4.6-1.4-4.6-4.6v-15.3c0-1.3-0.5-2.3-1.4-2.8v7.2
		c0,1.8-0.5,2.9-1.4,3.7L242.2,189.2z"/>
	<path fill="#9F1D21" d="M341.8,189.2c-0.6,0.6-1.7,1-3.1,1h-15c-3.2,0-4.6-1.4-4.6-4.6v-64.8c0-1.8,0.5-2.9,1.4-3.7l12.9-10.9
		c0.7-0.6,1.8-0.9,3.2-0.9H347c2.9,0,4.7,0.8,6.7,3.1l6,7.5l11.6-9.7c0.7-0.6,1.8-0.9,3.2-0.9h15c3.2,0,4.6,1.4,4.6,4.6v64.8
		c0,1.8-0.5,2.9-1.4,3.7l-13,10.8c-0.6,0.6-1.7,1-3.1,1h-15c-3.2,0-4.6-1.4-4.6-4.6v-12l-0.8-1v2.1c0,1.8-0.5,2.9-1.4,3.7
		L341.8,189.2z"/>
	<path fill="#9F1D21" d="M478.7,189.2c-0.6,0.6-1.7,1-3.1,1h-51c-3.2,0-4.6-1.4-4.6-4.6v-11.9c0-1.8,0.5-2.9,1.4-3.7l12.9-10.9
		c0.6-0.5,1.5-0.8,2.7-0.9v-20.7h-12.4c-3.2,0-4.6-1.4-4.6-4.6v-12.1c0-1.8,0.5-2.9,1.4-3.7l12.9-10.9c0.7-0.6,1.8-0.9,3.2-0.9h51
		c3.2,0,4.6,1.4,4.6,4.6V122c0,1.8-0.5,2.9-1.4,3.7l-13,10.8l0.1-0.1c-0.6,0.6-1.5,1-2.7,1.1v20.7h12.4c3.2,0,4.6,1.4,4.6,4.6v11.9
		c0,1.8-0.5,2.9-1.4,3.7L478.7,189.2z"/>
	<path fill="#9F1D21" d="M541.8,189.2c-0.6,0.6-1.7,1-3.1,1h-15c-3.2,0-4.6-1.4-4.6-4.6v-64.8c0-1.8,0.5-2.9,1.4-3.7l12.9-10.9
		c0.7-0.6,1.8-0.9,3.2-0.9H547c2.9,0,4.7,0.8,6.7,3.1l6,7.5l11.6-9.7c0.7-0.6,1.8-0.9,3.2-0.9h15c3.2,0,4.6,1.4,4.6,4.6v64.8
		c0,1.8-0.5,2.9-1.4,3.7l-13,10.8c-0.6,0.6-1.7,1-3.1,1h-15c-3.2,0-4.6-1.4-4.6-4.6v-12l-0.8-1v2.1c0,1.8-0.5,2.9-1.4,3.7
		L541.8,189.2z"/>
	<path fill="#9F1D21" d="M644.2,190.2c-19.8,0-25.6-8.8-25.6-21.4v-31.2c0-6.7,1.6-12.4,6.2-16.2l12.9-10.8c4-3.4,10.2-5.3,19.4-5.3
		h25.8c3.2,0,4.6,1.4,4.6,4.6V122c0,1.8-0.5,2.9-1.4,3.7l-13,10.8c-0.6,0.6-1.7,1-3.1,1h-13.8v17c0,0.7,0,1.4,0.2,2v-1.8
		c0-1.8,0.5-2.9,1.4-3.7l12.9-10.9c0.7-0.6,1.8-0.9,3.2-0.9h15.5c3.2,0,4.6,1.4,4.6,4.6v30.9c0,1.8-0.5,2.9-1.4,3.7l-13,10.8
		c-0.6,0.6-1.7,1-3.1,1H644.2z"/>
	<path fill="#EF3A38" d="M34.5,178.3c-2.5,0-3.6-1.1-3.6-3.6l0.4-64.8c0-2.5,1.1-3.6,3.6-3.6H48c2.6,0,5.2,0.7,6.5,3l7,17.6h2.4
		l7.8-17.6c1.4-2.2,3-3,5.6-3h14c2.6,0,3.6,1.1,3.6,3.6l0.4,64.8c0,2.5-1,3.6-3.6,3.6H76.6c-2.5,0-3.6-1.1-3.6-3.6l-0.4-29.3v-4.2
		l-3.8,11c-1.3,2.3-2.7,3.2-5.3,3.2h-2.7c-2.6,0-4-0.9-5.3-3.2l-3.9-11v4.2l-0.3,29.3c0,2.5-1.1,3.6-3.6,3.6H34.5z"/>
	<path fill="#EF3A38" d="M163,179.8c-24.5,0-30.4-8.2-30.4-20.4v-34.1c0-12.2,5.9-20.5,30.4-20.5c24.5,0,30.4,8.3,30.4,20.5v34.1
		C193.4,171.6,187.5,179.8,163,179.8z M163,160.5c6.7,0,7.8-2,7.8-4.7v-26.9c0-2.6-1.1-4.6-7.8-4.6c-6.6,0-7.7,2-7.7,4.6v26.9
		C155.3,158.5,156.4,160.5,163,160.5z"/>
	<path fill="#EF3A38" d="M236.6,178.3c-2.5,0-3.6-1.1-3.6-3.6v-64.8c0-2.5,1.1-3.6,3.6-3.6h32.2c15,0,19.7,6.8,19.7,16.7v4.6
		c0,5.6-1.4,9.6-5.6,11.4c6.1,0.8,11.1,6.1,11.1,14.5v21.2c0,2.5-1.1,3.6-3.6,3.6h-15.5c-2.5,0-3.6-1.1-3.6-3.6v-15.3
		c0-3-1-4.3-3.8-4.3h-11.9v19.6c0,2.5-1.1,3.6-3.6,3.6H236.6z M255.6,137.1h6.4c3.5,0,4.4-2,4.4-4.7V129c0-2.7-0.9-4.7-4.4-4.7h-6.4
		V137.1z"/>
	<path fill="#EF3A38" d="M336.6,178.3c-2.5,0-3.6-1.1-3.6-3.6v-64.8c0-2.5,1.1-3.6,3.6-3.6H347c2.6,0,4.2,0.7,5.9,2.7l18,22.2v-21.3
		c0-2.5,1.1-3.6,3.6-3.6h15c2.5,0,3.6,1.1,3.6,3.6v64.8c0,2.5-1.1,3.6-3.6,3.6h-15c-2.5,0-3.6-1.1-3.6-3.6v-12.3l-15.7-20.7v33
		c0,2.5-1.1,3.6-3.6,3.6H336.6z"/>
	<path fill="#EF3A38" d="M433.9,174.7v-11.9c0-2.5,1.1-3.6,3.6-3.6h13.4v-33.6h-13.4c-2.5,0-3.6-1.1-3.6-3.6v-12.1
		c0-2.5,1.1-3.6,3.6-3.6h51c2.5,0,3.6,1.1,3.6,3.6V122c0,2.5-1.1,3.6-3.6,3.6h-13.4v33.6h13.4c2.5,0,3.6,1.1,3.6,3.6v11.9
		c0,2.5-1.1,3.6-3.6,3.6h-51C435,178.3,433.9,177.2,433.9,174.7z"/>
	<path fill="#EF3A38" d="M536.6,178.3c-2.5,0-3.6-1.1-3.6-3.6v-64.8c0-2.5,1.1-3.6,3.6-3.6H547c2.6,0,4.2,0.7,5.9,2.7l18,22.2v-21.3
		c0-2.5,1.1-3.6,3.6-3.6h15c2.5,0,3.6,1.1,3.6,3.6v64.8c0,2.5-1.1,3.6-3.6,3.6h-15c-2.5,0-3.6-1.1-3.6-3.6v-12.3l-15.7-20.7v33
		c0,2.5-1.1,3.6-3.6,3.6H536.6z"/>
	<path fill="#EF3A38" d="M657.1,178.3c-18.9,0-24.6-8.3-24.6-20.4v-31.2c0-12.1,5.7-20.4,24.6-20.4h25.8c2.5,0,3.6,1.1,3.6,3.6V122
		c0,2.5-1.1,3.6-3.6,3.6h-21.6c-5.2,0-6.1,2.4-6.1,5v23.9c0,2.7,0.6,4.9,4.6,4.9h10.5v-15.6c0-2.5,1.1-3.6,3.6-3.6h15.5
		c2.5,0,3.6,1.1,3.6,3.6v30.9c0,2.5-1.1,3.6-3.6,3.6H657.1z"/>
	<path fill="#FBCFD0" d="M66.7,137.8l9.3-20.6c0.7-1.5,2.1-1.7,3.3-1.7h2.1c2,0,2.9,0.9,2.9,3.1l0.2,50.9h-1l-0.2-50.9
		c0-1.1-0.3-2.1-1.9-2.1h-1.9c-1,0-2.1,0-2.7,1.4l-9.3,20.4c-1.7,3.8-2.5,4.7-4.9,4.7s-3.2-0.9-4.9-4.7l-9.3-20.4
		c-0.6-1.4-1.7-1.4-2.7-1.4h-1.5c-1.9,0-2.3,1-2.3,2.1l-0.2,50.9h-1l0.2-50.9c0-2.2,1-3.1,3.3-3.1h1.7c1.2,0,2.7,0.3,3.3,1.7
		l9.3,20.6c1.6,3.6,2.2,4.2,4.1,4.2S65,141.6,66.7,137.8z"/>
	<path fill="#FBCFD0" d="M162.9,170.8c-15.2,0-19.4-5.4-19.4-13.5v-29.5c0-8.1,4.2-13.5,19.4-13.5c15.2,0,19.7,5.4,19.7,13.5v29.5
		C182.6,165.4,178.1,170.8,162.9,170.8z M162.9,169.8c14.4,0,18.7-5,18.7-12.5v-29.5c0-7.5-4.3-12.5-18.7-12.5
		c-14.4,0-18.4,5-18.4,12.5v29.5C144.5,164.8,148.5,169.8,162.9,169.8z"/>
	<path fill="#FBCFD0" d="M243.8,169.5v-54h22.8c7.8,0,11.4,4.8,11.4,11.4v6.9c0,6.1-1.2,10.1-6,11.6h1.1c8.2,0,10,3.7,10,10.7v13.4
		h-1v-13.4c0-6.6-1.4-9.8-9-9.8h-28.3v23.2H243.8z M244.8,116.5v28.9h21.8c8.3,0,10.4-4.1,10.4-11.5v-7c0-6.2-3.3-10.4-10.4-10.4
		H244.8z"/>
	<path fill="#FBCFD0" d="M346.3,116.3l35.2,41.4v-42.2h1v54h-1v-10.3l-36.2-42.4c-0.2-0.2-0.3-0.3-0.5-0.3s-0.2,0.2-0.2,0.3v52.7h-1
		v-52.9c0-0.8,0.6-1.2,1.2-1.2C345.4,115.4,345.6,115.6,346.3,116.3z"/>
	<path fill="#FBCFD0" d="M442.9,169.5v-1h19.6v-52h-19.6v-1h40.2v1h-19.6v52h19.6v1H442.9z"/>
	<path fill="#FBCFD0" d="M546.3,116.3l35.2,41.4v-42.2h1v54h-1v-10.3l-36.2-42.4c-0.2-0.2-0.3-0.3-0.5-0.3s-0.2,0.2-0.2,0.3v52.7h-1
		v-52.9c0-0.8,0.6-1.2,1.2-1.2C545.4,115.4,545.6,115.6,546.3,116.3z"/>
	<path fill="#FBCFD0" d="M643.4,156.6v-28c0-9.5,3.2-13.1,16-13.1h18.1v1h-18.1c-11.8,0-15,3.2-15,12.1v28c0,8.7,3.5,11.9,17,11.9
		h19.8v-19.1h1v20.1h-20.8C646.7,169.5,643.4,165.9,643.4,156.6z"/>
</g>
</svg>
