<?xml version="1.0" encoding="utf-8"?>
<!-- Generator: Adobe Illustrator 17.1.0, SVG Export Plug-In . SVG Version: 6.00 Build 0)  -->
<!DOCTYPE svg PUBLIC "-//W3C//DTD SVG 1.1//EN" "http://www.w3.org/Graphics/SVG/1.1/DTD/svg11.dtd">
<svg version="1.1" id="Layer_1" xmlns="http://www.w3.org/2000/svg" xmlns:xlink="http://www.w3.org/1999/xlink" x="0px" y="0px"
	 viewBox="0 0 200 554.1" enable-background="new 0 0 200 554.1" xml:space="preserve">
<g>
	<path d="M-915.2-367.9c0.5-0.1,1.2-0.2,2-0.2c1,0,1.8,0.2,2.3,0.7c0.4,0.4,0.7,1,0.7,1.7c0,0.7-0.2,1.3-0.6,1.7
		c-0.6,0.6-1.5,0.9-2.5,0.9c-0.3,0-0.6,0-0.8-0.1v3.2h-1V-367.9z M-914.2-364c0.2,0.1,0.5,0.1,0.9,0.1c1.3,0,2-0.6,2-1.7
		c0-1.1-0.8-1.6-1.9-1.6c-0.5,0-0.8,0-1,0.1V-364z"/>
	<path d="M-901.9-364.1c0,2.8-1.7,4.3-3.8,4.3c-2.1,0-3.6-1.7-3.6-4.1c0-2.6,1.6-4.2,3.8-4.2C-903.3-368.2-901.9-366.5-901.9-364.1z
		 M-908.2-363.9c0,1.7,0.9,3.3,2.6,3.3c1.7,0,2.6-1.5,2.6-3.4c0-1.6-0.8-3.3-2.6-3.3C-907.3-367.3-908.2-365.7-908.2-363.9z"/>
	<path d="M-900.6-368h1v7.2h3.5v0.9h-4.5V-368z"/>
	<path d="M-893.9-368v8.1h-1v-8.1H-893.9z"/>
	<path d="M-886.4-360.2c-0.4,0.2-1.2,0.4-2.1,0.4c-2.3,0-4-1.4-4-4.1c0-2.5,1.7-4.2,4.2-4.2c1,0,1.6,0.2,1.9,0.4l-0.3,0.9
		c-0.4-0.2-1-0.3-1.6-0.3c-1.9,0-3.2,1.2-3.2,3.3c0,2,1.1,3.3,3.1,3.3c0.6,0,1.3-0.1,1.7-0.3L-886.4-360.2z"/>
	<path d="M-883.2-359.9v-3.4l-2.6-4.7h1.2l1.1,2.2c0.3,0.6,0.6,1.1,0.8,1.7h0c0.2-0.5,0.5-1.1,0.8-1.7l1.2-2.2h1.2l-2.7,4.6v3.4
		H-883.2z"/>
</g>
<g>
	<path fill="#9F1D21" d="M112.7,92.4c-3.2,0-4.6-1.4-4.6-4.6V23c0-1.8,0.5-2.9,1.4-3.7l12.9-10.9c0.7-0.6,1.8-0.9,3.2-0.9h15.5
		c3.2,0,4.6,1.4,4.6,4.6v48.5h1v-4.4c0-1.8,0.5-2.9,1.4-3.7l12.6-10.8c0.7-0.6,1.8-0.9,3.2-0.9h14.5c3.2,0,4.6,1.4,4.6,4.6v31.5
		c0,1.8-0.5,2.9-1.4,3.7l-13,10.8c-0.6,0.6-1.7,1-3.1,1H112.7z"/>
	<path fill="#9F1D21" d="M102.6,190.4c-3.2,0-4.6-1.4-4.6-4.6V113c0-1.8,0.5-2.9,1.4-3.7l12.9-10.9c0.7-0.6,1.8-0.9,3.2-0.9h72.8
		c3.2,0,4.6,1.4,4.6,4.6v72.8c0,1.8-0.5,2.9-1.4,3.7l-13,10.8c-0.6,0.6-1.7,1-3.1,1H102.6z M117.9,115.4v57.1H173v-57.1H117.9z"/>
	<path fill="#9F1D21" d="M131.2,288.6c-3.2,0-4.6-1.4-4.6-4.6v-4.7c-15.1-2.6-19-10.2-19-20.5v-33.2c0-6.3,1.5-11.6,6-15.4l13-10.8
		c4.6-3.9,12.3-6.2,25.3-6.2c25.7,0,31.4,8.9,31.4,21.5v33.2c0,6.2-1.5,11.5-6,15.3l-12.9,10.7l-0.4,0.4c-0.1,1.1-0.6,1.9-1.3,2.5
		l-13,10.8c-0.6,0.6-1.7,1-3.1,1H131.2z M147.1,248.2v-19c0-1.3-0.4-2.3-1.9-2.9v18.9C145.2,246.5,145.6,247.5,147.1,248.2z"/>
	<path fill="#9F1D21" d="M108,352.1v-49.5c0-1.8,0.5-2.9,1.4-3.7l12.9-10.9c0.7-0.6,1.8-0.9,3.2-0.9h15.7c3.2,0,4.6,1.4,4.6,4.6v9.1
		c0.2-0.8,0.5-1.4,1-1.8l0.1-0.1l13-10.9c0.7-0.6,1.7-0.9,3.2-0.9h15.2c3.2,0,4.6,1.4,4.6,4.6v49.5c0,6.2-1.5,11.5-6.1,15.3
		l-12.9,10.9c-4.6,3.8-12.3,6.1-24.9,6.1C113.8,373.5,108,364.7,108,352.1z"/>
	<path fill="#9F1D21" d="M139,459.9c-25.7,0-31.4-8.8-31.4-21.4v-34.1c0-6.3,1.5-11.6,6-15.4l13-10.8c4.6-3.9,12.3-6.2,25.3-6.2
		c25.7,0,31.4,8.9,31.4,21.5v34.1c0,6.2-1.5,11.5-6,15.3l-13,10.8C159.7,457.6,152,459.9,139,459.9z M147.1,427v-19
		c0-1.3-0.4-2.3-1.9-2.9V424C145.2,425.3,145.6,426.3,147.1,427z"/>
	<path fill="#9F1D21" d="M131.1,543.8c-0.6,0.6-1.7,1-3.1,1h-15.4c-3.2,0-4.6-1.4-4.6-4.6v-64.8c0-1.8,0.5-2.9,1.4-3.7l12.9-10.9
		c0.7-0.6,1.8-0.9,3.2-0.9h32.2c15.9,0,20.7,7.3,20.7,17.7v4.6c0,4.9-1.1,8.6-3.8,10.9l-0.1,0.1c5.3,1.8,9.4,7,9.4,14.9v21.2
		c0,1.8-0.5,2.9-1.4,3.7l-13,10.8c-0.6,0.6-1.7,1-3.1,1h-14.9c-3.2,0-4.6-1.4-4.6-4.6v-15.3c0-1.3-0.5-2.3-1.4-2.8v7.2
		c0,1.8-0.5,2.9-1.4,3.7L131.1,543.8z"/>
	<path fill="#EF3A38" d="M125.6,80.5c-2.5,0-3.6-1.1-3.6-3.6V12.1c0-2.5,1.1-3.6,3.6-3.6h15.5c2.5,0,3.6,1.1,3.6,3.6v49.5h15.6V45.4
		c0-2.5,1.1-3.6,3.6-3.6h14.5c2.5,0,3.6,1.1,3.6,3.6v31.5c0,2.5-1.1,3.6-3.6,3.6H125.6z"/>
	<path fill="#EF3A38" d="M188.3,178.5h-72.8c-2.5,0-3.6-1.1-3.6-3.6v-72.8c0-2.5,1.1-3.6,3.6-3.6h72.8c2.5,0,3.6,1.1,3.6,3.6v72.8
		C191.9,177.4,190.8,178.5,188.3,178.5z M186.9,103.5h-70v70h70V103.5z"/>
	<path fill="#EF3A38" d="M144.1,276.7c-2.5,0-3.6-1.1-3.6-3.6v-5.6c-15-2.3-19-9.6-19-19.6v-33.2c0-12.2,5.9-20.5,30.4-20.5
		c24.5,0,30.4,8.3,30.4,20.5v33.2c0,10.1-4,17.4-19.2,19.7v5.5c0,2.5-1.1,3.6-3.6,3.6H144.1z M151.9,250.4c6.7,0,7.8-2,7.8-4.7
		v-27.3c0-2.6-1.1-4.6-7.8-4.6c-6.6,0-7.7,2-7.7,4.6v27.3C144.2,248.4,145.3,250.4,151.9,250.4z"/>
	<path fill="#EF3A38" d="M151.9,361.6c-24,0-30-8.2-30-20.4v-49.5c0-2.5,1.1-3.6,3.6-3.6h15.7c2.5,0,3.6,1.1,3.6,3.6v45.6
		c0,2.7,1.2,4.7,7.3,4.7c6.2,0,7.4-2,7.4-4.7v-45.6c0-2.5,1-3.6,3.6-3.6h15.2c2.5,0,3.6,1.1,3.6,3.6v49.5
		C181.9,353.4,175.9,361.6,151.9,361.6z"/>
	<path fill="#EF3A38" d="M151.9,448c-24.5,0-30.4-8.2-30.4-20.4v-34.1c0-12.2,5.9-20.5,30.4-20.5c24.5,0,30.4,8.3,30.4,20.5v34.1
		C182.3,439.8,176.4,448,151.9,448z M151.9,428.7c6.7,0,7.8-2,7.8-4.7v-26.9c0-2.6-1.1-4.6-7.8-4.6c-6.6,0-7.7,2-7.7,4.6V424
		C144.2,426.7,145.3,428.7,151.9,428.7z"/>
	<path fill="#EF3A38" d="M125.5,532.9c-2.5,0-3.6-1.1-3.6-3.6v-64.8c0-2.5,1.1-3.6,3.6-3.6h32.2c15,0,19.7,6.8,19.7,16.7v4.6
		c0,5.6-1.4,9.6-5.6,11.4c6.1,0.8,11.1,6.1,11.1,14.5v21.2c0,2.5-1.1,3.6-3.6,3.6h-15.5c-2.5,0-3.6-1.1-3.6-3.6V514
		c0-3-1-4.3-3.8-4.3h-11.9v19.6c0,2.5-1.1,3.6-3.6,3.6H125.5z M144.5,491.7h6.4c3.5,0,4.4-2,4.4-4.7v-3.4c0-2.7-0.9-4.7-4.4-4.7
		h-6.4V491.7z"/>
	<path fill="#FBCFD0" d="M132.7,17.5h1v53h36.7V50.8h1v20.7h-38.7V17.5z"/>
	<path fill="#FBCFD0" d="M113.7,100.5h76v76h-76V100.5z M188.7,101.5h-74v74h74V101.5z"/>
	<path fill="#FBCFD0" d="M151.1,260c-14.8-0.1-18.9-5.5-18.9-13.5V217c0-8.1,4.2-13.5,19.4-13.5c15.2,0,19.7,5.4,19.7,13.5v29.5
		c0,8-4.4,13.4-19.2,13.5v7.7h-1V260z M151.6,259c14.4,0,18.7-5,18.7-12.5V217c0-7.5-4.3-12.5-18.7-12.5c-14.4,0-18.4,5-18.4,12.5
		v29.5C133.2,254,137.2,259,151.6,259z"/>
	<path fill="#FBCFD0" d="M133.7,297.1v41.7c0,7.5,3.8,12.5,17.7,12.5c14.5,0,18.6-5,18.6-12.5v-41.7h1v41.7
		c0,8.1-4.3,13.5-19.6,13.5c-14.7,0-18.7-5.4-18.7-13.5v-41.7H133.7z"/>
	<path fill="#FBCFD0" d="M151.6,438.8c-15.2,0-19.4-5.4-19.4-13.5v-29.5c0-8.1,4.2-13.5,19.4-13.5c15.2,0,19.7,5.4,19.7,13.5v29.5
		C171.3,433.4,166.8,438.8,151.6,438.8z M151.6,437.8c14.4,0,18.7-5,18.7-12.5v-29.5c0-7.5-4.3-12.5-18.7-12.5
		c-14.4,0-18.4,5-18.4,12.5v29.5C133.2,432.8,137.2,437.8,151.6,437.8z"/>
	<path fill="#FBCFD0" d="M132.5,523.9v-54h22.8c7.8,0,11.4,4.8,11.4,11.4v6.9c0,6.1-1.2,10.1-6,11.6h1.1c8.2,0,10,3.7,10,10.7v13.4
		h-1v-13.4c0-6.6-1.4-9.8-9-9.8h-28.3v23.2H132.5z M133.5,470.9v28.9h21.8c8.3,0,10.4-4.1,10.4-11.5v-7c0-6.2-3.3-10.4-10.4-10.4
		H133.5z"/>
</g>
<g>
	<path fill="#666766" d="M19.8,92.4c-3.2,0-4.6-1.4-4.6-4.6V23c0-1.8,0.5-2.9,1.4-3.7L29.5,8.4c0.7-0.6,1.8-0.9,3.2-0.9h15.5
		c3.2,0,4.6,1.4,4.6,4.6v48.5h1v-4.4c0-1.8,0.5-2.9,1.4-3.7l12.6-10.8c0.7-0.6,1.8-0.9,3.2-0.9h14.5c3.2,0,4.6,1.4,4.6,4.6v31.5
		c0,1.8-0.5,2.9-1.4,3.7l-13,10.8c-0.6,0.6-1.7,1-3.1,1H19.8z"/>
	<path fill="#666766" d="M74.7,179.4c-0.6,0.6-1.7,1-3.1,1h-51c-3.2,0-4.6-1.4-4.6-4.6v-11.9c0-1.8,0.5-2.9,1.4-3.7l12.9-10.9
		c0.6-0.5,1.5-0.8,2.7-0.9v-20.7H20.6c-3.2,0-4.6-1.4-4.6-4.6V111c0-1.8,0.5-2.9,1.4-3.7l12.9-10.9c0.7-0.6,1.8-0.9,3.2-0.9h51
		c3.2,0,4.6,1.4,4.6,4.6v12.1c0,1.8-0.5,2.9-1.4,3.7l-13,10.8l0.1-0.1c-0.6,0.6-1.5,1-2.7,1.1v20.7h12.4c3.2,0,4.6,1.4,4.6,4.6v11.9
		c0,1.8-0.5,2.9-1.4,3.7L74.7,179.4z"/>
	<path fill="#666766" d="M38.3,276.6c-3.2,0-4.6-1.4-4.6-4.6v-4.7c-15.1-2.6-19-10.2-19-20.5v-33.2c0-6.3,1.5-11.6,6-15.4l13-10.8
		c4.6-3.9,12.3-6.2,25.3-6.2c25.7,0,31.4,8.9,31.4,21.5v33.2c0,6.2-1.5,11.5-6,15.3l-12.9,10.7l-0.4,0.4c-0.1,1.1-0.6,1.9-1.3,2.5
		l-13,10.8c-0.6,0.6-1.7,1-3.1,1H38.3z M54.2,236.2v-19c0-1.3-0.4-2.3-1.9-2.9v18.9C52.3,234.5,52.7,235.5,54.2,236.2z"/>
	<path fill="#666766" d="M15.1,340.1v-49.5c0-1.8,0.5-2.9,1.4-3.7L29.4,276c0.7-0.6,1.8-0.9,3.2-0.9h15.7c3.2,0,4.6,1.4,4.6,4.6v9.1
		c0.2-0.8,0.5-1.4,1-1.8l0.1-0.1L67,276c0.7-0.6,1.7-0.9,3.2-0.9h15.2c3.2,0,4.6,1.4,4.6,4.6v49.5c0,6.2-1.5,11.5-6.1,15.3L71,355.4
		c-4.6,3.8-12.3,6.1-24.9,6.1C20.9,361.5,15.1,352.7,15.1,340.1z"/>
	<path fill="#666766" d="M46.1,447.9c-25.7,0-31.4-8.8-31.4-21.4v-34.1c0-6.3,1.5-11.6,6-15.4l13-10.8C38.3,362.3,46,360,59,360
		c25.7,0,31.4,8.9,31.4,21.5v34.1c0,6.2-1.5,11.5-6,15.3l-13,10.8C66.8,445.6,59.1,447.9,46.1,447.9z M54.2,415v-19
		c0-1.3-0.4-2.3-1.9-2.9V412C52.3,413.3,52.7,414.3,54.2,415z"/>
	<path fill="#666766" d="M38.2,531.8c-0.6,0.6-1.7,1-3.1,1H19.7c-3.2,0-4.6-1.4-4.6-4.6v-64.8c0-1.8,0.5-2.9,1.4-3.7l12.9-10.9
		c0.7-0.6,1.8-0.9,3.2-0.9h32.2c15.9,0,20.7,7.3,20.7,17.7v4.6c0,4.9-1.1,8.6-3.8,10.9l-0.1,0.1c5.3,1.8,9.4,7,9.4,14.9v21.2
		c0,1.8-0.5,2.9-1.4,3.7l-13,10.8c-0.6,0.6-1.7,1-3.1,1H58.6c-3.2,0-4.6-1.4-4.6-4.6v-15.3c0-1.3-0.5-2.3-1.4-2.8v7.2
		c0,1.8-0.5,2.9-1.4,3.7L38.2,531.8z"/>
	<path fill="#B5B5B6" d="M32.7,80.5c-2.5,0-3.6-1.1-3.6-3.6V12.1c0-2.5,1.1-3.6,3.6-3.6h15.5c2.5,0,3.6,1.1,3.6,3.6v49.5h15.6V45.4
		c0-2.5,1.1-3.6,3.6-3.6h14.5c2.5,0,3.6,1.1,3.6,3.6v31.5c0,2.5-1.1,3.6-3.6,3.6H32.7z"/>
	<path fill="#B5B5B6" d="M29.9,164.9V153c0-2.5,1.1-3.6,3.6-3.6h13.4v-33.6H33.5c-2.5,0-3.6-1.1-3.6-3.6v-12.1
		c0-2.5,1.1-3.6,3.6-3.6h51c2.5,0,3.6,1.1,3.6,3.6v12.1c0,2.5-1.1,3.6-3.6,3.6H71.1v33.6h13.4c2.5,0,3.6,1.1,3.6,3.6v11.9
		c0,2.5-1.1,3.6-3.6,3.6h-51C31,168.5,29.9,167.4,29.9,164.9z"/>
	<path fill="#B5B5B6" d="M51.2,264.7c-2.5,0-3.6-1.1-3.6-3.6v-5.6c-15-2.3-19-9.6-19-19.6v-33.2c0-12.2,5.9-20.5,30.4-20.5
		c24.5,0,30.4,8.3,30.4,20.5v33.2c0,10.1-4,17.4-19.2,19.7v5.5c0,2.5-1.1,3.6-3.6,3.6H51.2z M59,238.4c6.7,0,7.8-2,7.8-4.7v-27.3
		c0-2.6-1.1-4.6-7.8-4.6c-6.6,0-7.7,2-7.7,4.6v27.3C51.3,236.4,52.4,238.4,59,238.4z"/>
	<path fill="#B5B5B6" d="M59,349.6c-24,0-30-8.2-30-20.4v-49.5c0-2.5,1.1-3.6,3.6-3.6h15.7c2.5,0,3.6,1.1,3.6,3.6v45.6
		c0,2.7,1.2,4.7,7.3,4.7c6.2,0,7.4-2,7.4-4.7v-45.6c0-2.5,1-3.6,3.6-3.6h15.2c2.5,0,3.6,1.1,3.6,3.6v49.5
		C89,341.4,83,349.6,59,349.6z"/>
	<path fill="#B5B5B6" d="M59,436c-24.5,0-30.4-8.2-30.4-20.4v-34.1c0-12.2,5.9-20.5,30.4-20.5c24.5,0,30.4,8.3,30.4,20.5v34.1
		C89.4,427.8,83.5,436,59,436z M59,416.7c6.7,0,7.8-2,7.8-4.7v-26.9c0-2.6-1.1-4.6-7.8-4.6c-6.6,0-7.7,2-7.7,4.6V412
		C51.3,414.7,52.4,416.7,59,416.7z"/>
	<path fill="#B5B5B6" d="M32.6,520.9c-2.5,0-3.6-1.1-3.6-3.6v-64.8c0-2.5,1.1-3.6,3.6-3.6h32.2c15,0,19.7,6.8,19.7,16.7v4.6
		c0,5.6-1.4,9.6-5.6,11.4c6.1,0.8,11.1,6.1,11.1,14.5v21.2c0,2.5-1.1,3.6-3.6,3.6H70.9c-2.5,0-3.6-1.1-3.6-3.6V502
		c0-3-1-4.3-3.8-4.3H51.6v19.6c0,2.5-1.1,3.6-3.6,3.6H32.6z M51.6,479.7H58c3.5,0,4.4-2,4.4-4.7v-3.4c0-2.7-0.9-4.7-4.4-4.7h-6.4
		V479.7z"/>
	<path fill="#FAFBFB" d="M39.8,17.5h1v53h36.7V50.8h1v20.7H39.8V17.5z"/>
	<path fill="#FAFBFB" d="M38.7,159.5v-1h19.6v-52H38.7v-1h40.2v1H59.3v52h19.6v1H38.7z"/>
	<path fill="#FAFBFB" d="M58.2,248c-14.8-0.1-18.9-5.5-18.9-13.5V205c0-8.1,4.2-13.5,19.4-13.5c15.2,0,19.7,5.4,19.7,13.5v29.5
		c0,8-4.4,13.4-19.2,13.5v7.7h-1V248z M58.7,247c14.4,0,18.7-5,18.7-12.5V205c0-7.5-4.3-12.5-18.7-12.5c-14.4,0-18.4,5-18.4,12.5
		v29.5C40.3,242,44.3,247,58.7,247z"/>
	<path fill="#FAFBFB" d="M40.8,285.1v41.7c0,7.5,3.8,12.5,17.7,12.5c14.5,0,18.6-5,18.6-12.5v-41.7h1v41.7c0,8.1-4.3,13.5-19.6,13.5
		c-14.7,0-18.7-5.4-18.7-13.5v-41.7H40.8z"/>
	<path fill="#FAFBFB" d="M58.7,426.8c-15.2,0-19.4-5.4-19.4-13.5v-29.5c0-8.1,4.2-13.5,19.4-13.5c15.2,0,19.7,5.4,19.7,13.5v29.5
		C78.4,421.4,73.9,426.8,58.7,426.8z M58.7,425.8c14.4,0,18.7-5,18.7-12.5v-29.5c0-7.5-4.3-12.5-18.7-12.5c-14.4,0-18.4,5-18.4,12.5
		v29.5C40.3,420.8,44.3,425.8,58.7,425.8z"/>
	<path fill="#FAFBFB" d="M39.6,511.9v-54h22.8c7.8,0,11.4,4.8,11.4,11.4v6.9c0,6.1-1.2,10.1-6,11.6h1.1c8.2,0,10,3.7,10,10.7v13.4
		h-1v-13.4c0-6.6-1.4-9.8-9-9.8H40.6v23.2H39.6z M40.6,458.9v28.9h21.8c8.3,0,10.4-4.1,10.4-11.5v-7c0-6.2-3.3-10.4-10.4-10.4H40.6z
		"/>
</g>
</svg>
