<?xml version="1.0" standalone="no"?><!DOCTYPE svg PUBLIC "-//W3C//DTD SVG 1.1//EN" "http://www.w3.org/Graphics/SVG/1.1/DTD/svg11.dtd" ><svg version="1.1" xmlns="http://www.w3.org/2000/svg"><defs><font horiz-adv-x="0" id="font"><font-face ascent="860" bbox="-370 -502 1403 1280" cap-height="720" descent="-140" font-family="Bungee Layers" font-stretch="normal" font-style="normal" font-weight="700" units-per-em="1000" x-height="500" /><missing-glyph d="M735 -159H7Q-17 -159 -28 -148Q-39 -137 -39 -113V615Q-39 628 -35.5 637Q-32 646 -25 652L104 761Q109 765 117.5 767.5Q126 770 136 770H864Q888 770 899 759Q910 748 910 724V-4Q910 -17 906.5 -26Q903 -35 896 -41L766 -149Q762 -153 753.5 -156Q745 -159 735 -159ZM711 591H160V20H711Z" horiz-adv-x="1000" /><glyph d="M139 -109Q135 -113 126.5 -116Q118 -119 108 -119H-39Q-63 -119 -74 -108Q-85 -97 -85 -73V191Q-85 222 -75.5 261.5Q-66 301 -45 355L41 581Q44 590 48.5 596.5Q53 603 58 608L59 609L187 716Q195 723 206 726.5Q217 730 231 730H500Q523 730 537.5 720.5Q552 711 559 691L646 464Q667 410 676.5 370.5Q686 331 686 300V36Q686 23 682.5 14Q679 5 672 -1L542 -109Q538 -113 529.5 -116Q521 -119 511 -119H360Q335 -119 323 -107.5Q311 -96 311 -73V57H283V36Q283 23 279.5 14Q276 5 269 -1Z" glyph-name="A" horiz-adv-x="730" unicode="A" /><glyph d="M416 -1 286 -109Q282 -113 273.5 -116Q265 -119 255 -119H108Q83 -119 72.5 -108Q62 -97 62 -73V171Q62 197 64 215.5Q66 234 70.5 250.5Q75 267 83 286Q91 305 102 334L178 541Q181 550 185.5 557.5Q190 565 196 569L326 678Q333 684 344 687Q355 690 368 690H627Q650 690 664.5 681.5Q679 673 686 651L773 444Q784 415 792 395.5Q800 376 804.5 359.5Q809 343 811 324.5Q813 306 813 280V36Q813 23 809.5 14Q806 5 799 -1L669 -109Q665 -113 656.5 -116Q648 -119 638 -119H487Q463 -119 450.5 -107.5Q438 -96 438 -73V37H430V36Q430 23 426.5 14Q423 5 416 -1Z" glyph-name="A.s_v" horiz-adv-x="1000" unicode="&#57926;" /><glyph d="M309 388Q309 397 305.5 404.5Q302 412 293 417V378H309ZM279 -1 149 -109Q145 -113 136.5 -116Q128 -119 118 -119H-29Q-53 -119 -64 -108Q-75 -97 -75 -73V422Q-75 469 -62.5 508.5Q-50 548 -16 576L114 684Q148 712 208.5 728.5Q269 745 367 745Q464 745 526 729Q588 713 622.5 685Q657 657 669.5 617.5Q682 578 682 531V36Q682 23 678.5 14Q675 5 668 -1L538 -109Q534 -113 525.5 -116Q517 -119 507 -119H355Q331 -119 320 -108Q309 -97 309 -73V66H293V36Q293 23 289.5 14Q286 5 279 -1Z" glyph-name="A.salt" horiz-adv-x="736" unicode="&#57600;" /><glyph d="M438 368Q438 375 436 382Q434 389 428 393V358H438ZM414 -1 284 -109Q280 -113 271.5 -116Q263 -119 253 -119H106Q82 -119 71 -108Q60 -97 60 -73V382Q60 429 72.5 468.5Q85 508 119 536L248 645Q282 673 342 689Q402 705 499 705Q596 705 657.5 689Q719 673 753 645Q787 617 799 577.5Q811 538 811 491V36Q811 23 807.5 14Q804 5 797 -1L667 -109Q663 -113 654.5 -116Q646 -119 636 -119H484Q460 -119 449 -108Q438 -97 438 -73V46H428V36Q428 23 424.5 14Q421 5 414 -1Z" glyph-name="A.salt_s_v" horiz-adv-x="1000" unicode="&#57945;" /><glyph d="M439 389Q439 396 437 403Q435 410 429 414V379H439ZM107 -119Q83 -119 72 -107.5Q61 -96 61 -72V423Q61 470 73.5 510Q86 550 120 578L249 686Q283 714 343 730Q403 746 499 746Q596 746 657.5 730Q719 714 752.5 686Q786 658 798 618.5Q810 579 810 532V37Q810 24 806 14.5Q802 5 795 -1L666 -109Q661 -113 653 -116Q645 -119 635 -119H485Q461 -119 450 -107.5Q439 -96 439 -72V67H429V37Q429 24 425 14.5Q421 5 414 -1L285 -109Q280 -113 272 -116Q264 -119 254 -119Z" glyph-name="A.salt_v" horiz-adv-x="1000" unicode="&#57837;" /><glyph d="M414 -1 284 -109Q280 -113 271.5 -116Q263 -119 253 -119H106Q81 -119 70.5 -108Q60 -97 60 -73V191Q60 217 62 235.5Q64 254 68.5 270.5Q73 287 81 306Q89 325 100 354L176 581Q179 590 183.5 597.5Q188 605 194 609L324 718Q331 724 342 727Q353 730 366 730H625Q648 730 662.5 721.5Q677 713 684 691L771 464Q782 435 790 415.5Q798 396 802.5 379.5Q807 363 809 344.5Q811 326 811 300V36Q811 23 807.5 14Q804 5 797 -1L667 -109Q663 -113 654.5 -116Q646 -119 636 -119H485Q461 -119 448.5 -107.5Q436 -96 436 -73V57H428V36Q428 23 424.5 14Q421 5 414 -1Z" glyph-name="A.v" horiz-adv-x="1000" unicode="&#65313;" /><glyph d="M268 -1 138 -109Q134 -113 125.5 -116Q117 -119 107 -119H-39Q-63 -119 -74 -108Q-85 -97 -85 -73V181Q-85 226 -77.5 261Q-70 296 -55 334L32 573Q35 586 40.5 594Q46 602 53 607L181 715Q190 723 202.5 726.5Q215 730 232 730H920Q944 730 955 719Q966 708 966 684V567Q966 554 962.5 545Q959 536 952 530L866 459Q876 454 880.5 444Q885 434 885 418V311Q885 298 881.5 289Q878 280 871 274L782 199H920Q944 199 955 188Q966 177 966 153V36Q966 23 962.5 14Q959 5 952 -1L822 -109Q818 -113 809.5 -116Q801 -119 791 -119H347Q323 -119 312 -108Q301 -97 301 -73V57H282V36Q282 23 278.5 14Q275 5 268 -1Z" glyph-name="AE" horiz-adv-x="1005" unicode="&#198;" /><glyph d="M309 417H293V378H309ZM279 -1 149 -109Q145 -113 136.5 -116Q128 -119 118 -119H-29Q-53 -119 -64 -108Q-75 -97 -75 -73V407Q-75 454 -62.5 493.5Q-50 533 -16 561L114 669Q148 697 208.5 713.5Q269 730 367 730H928Q952 730 963 719Q974 708 974 684V567Q974 554 970.5 545Q967 536 960 530L874 459Q884 454 888.5 444Q893 434 893 418V311Q893 298 889.5 289Q886 280 879 274L790 199H928Q952 199 963 188Q974 177 974 153V36Q974 23 970.5 14Q967 5 960 -1L830 -109Q826 -113 817.5 -116Q809 -119 799 -119H355Q331 -119 320 -108Q309 -97 309 -73V66H293V36Q293 23 289.5 14Q286 5 279 -1Z" glyph-name="AE.salt" horiz-adv-x="1013" unicode="&#57653;" /><glyph d="M341 -32 248 -109Q244 -113 235.5 -116Q227 -119 217 -119H86Q62 -119 51 -108Q40 -97 40 -73V407Q40 457 54 498.5Q68 540 102 568L231 677Q261 702 309.5 716Q358 730 429 730H785Q809 730 820 719Q831 708 831 684V567Q831 554 827.5 545Q824 536 817 530L738 464H784Q808 464 819 453.5Q830 443 830 418V311Q830 298 826.5 289Q823 280 816 274L727 199H785Q809 199 820 188Q831 177 831 153V36Q831 23 827.5 14Q824 5 817 -1L687 -109Q683 -113 674.5 -116Q666 -119 656 -119H387Q363 -119 352 -108Q341 -97 341 -73Z" glyph-name="AE.salt_v" horiz-adv-x="1000" unicode="&#57892;" /><glyph d="M331 -32 238 -109Q234 -113 225.5 -116Q217 -119 207 -119H76Q52 -119 41 -108Q30 -97 30 -73V181Q30 226 37.5 261Q45 296 60 335L155 573Q158 586 163.5 594Q169 602 176 607L304 715Q313 723 325.5 726.5Q338 730 355 730H775Q799 730 810 719Q821 708 821 684V567Q821 554 817.5 545Q814 536 807 530L728 464H774Q798 464 809 453.5Q820 443 820 418V311Q820 298 816.5 289Q813 280 806 274L717 199H775Q799 199 810 188Q821 177 821 153V36Q821 23 817.5 14Q814 5 807 -1L677 -109Q673 -113 664.5 -116Q656 -119 646 -119H377Q353 -119 342 -108Q331 -97 331 -73Z" glyph-name="AE.v" horiz-adv-x="1000" unicode="&#57824;" /><glyph d="M139 -109Q135 -113 126.5 -116Q118 -119 108 -119H-39Q-63 -119 -74 -108Q-85 -97 -85 -73V191Q-85 222 -75.5 261.5Q-66 301 -45 355L41 581Q44 590 48.5 596.5Q53 603 58 608L59 609L187 716Q195 723 206 726.5Q217 730 231 730H500Q523 730 537.5 720.5Q552 711 559 691L646 464Q667 410 676.5 370.5Q686 331 686 300V36Q686 23 682.5 14Q679 5 672 -1L542 -109Q538 -113 529.5 -116Q521 -119 511 -119H360Q335 -119 323 -107.5Q311 -96 311 -73V57H283V36Q283 23 279.5 14Q276 5 269 -1ZM61 634Q39 631 27.5 642.5Q16 654 16 677V773Q16 786 19.5 794.5Q23 803 29 808L159 917Q163 921 171.5 924Q180 927 190 928L539 971Q561 974 572.5 962.5Q584 951 584 928V832Q584 819 580.5 810Q577 801 570 797L441 688Q436 684 428 681.5Q420 679 410 677Z" glyph-name="Aacute" horiz-adv-x="730" unicode="&#193;" /><glyph d="M309 388Q309 397 305.5 404.5Q302 412 293 417V378H309ZM279 -1 149 -109Q145 -113 136.5 -116Q128 -119 118 -119H-29Q-53 -119 -64 -108Q-75 -97 -75 -73V422Q-75 469 -62.5 508.5Q-50 548 -16 576L114 684Q148 712 208.5 728.5Q269 745 367 745Q464 745 526 729Q588 713 622.5 685Q657 657 669.5 617.5Q682 578 682 531V36Q682 23 678.5 14Q675 5 668 -1L538 -109Q534 -113 525.5 -116Q517 -119 507 -119H355Q331 -119 320 -108Q309 -97 309 -73V66H293V36Q293 23 289.5 14Q286 5 279 -1ZM74 634Q52 631 40.5 642.5Q29 654 29 677V773Q29 786 32.5 794.5Q36 803 42 808L172 917Q176 921 184.5 924Q193 927 203 928L552 971Q574 974 585.5 962.5Q597 951 597 928V832Q597 819 593.5 810Q590 801 583 797L454 688Q449 684 441 681.5Q433 679 423 677Z" glyph-name="Aacute.salt" horiz-adv-x="736" unicode="&#57602;" /><glyph d="M196 594Q174 591 162.5 602.5Q151 614 151 637V733Q151 746 154.5 754.5Q158 763 164 768L294 877Q298 881 306.5 884Q315 887 325 888L674 931Q696 934 707.5 922.5Q719 911 719 888V792Q719 779 715.5 770Q712 761 705 757L576 648Q571 644 563 641.5Q555 639 545 637ZM438 368Q438 375 436 382Q434 389 428 393V358H438ZM414 -1 284 -109Q280 -113 271.5 -116Q263 -119 253 -119H106Q82 -119 71 -108Q60 -97 60 -73V382Q60 429 72.5 468.5Q85 508 119 536L248 645Q282 673 342 689Q402 705 499 705Q596 705 657.5 689Q719 673 753 645Q787 617 799 577.5Q811 538 811 491V36Q811 23 807.5 14Q804 5 797 -1L667 -109Q663 -113 654.5 -116Q646 -119 636 -119H484Q460 -119 449 -108Q438 -97 438 -73V46H428V36Q428 23 424.5 14Q421 5 414 -1Z" glyph-name="Aacute.salt_v" horiz-adv-x="1000" unicode="&#57839;" /><glyph d="M416 -1 286 -109Q282 -113 273.5 -116Q265 -119 255 -119H108Q83 -119 72.5 -108Q62 -97 62 -73V171Q62 197 64 215.5Q66 234 70.5 250.5Q75 267 83 286Q91 305 102 334L178 541Q181 550 185.5 557.5Q190 565 196 569L326 678Q333 684 344 687Q355 690 368 690H627Q650 690 664.5 681.5Q679 673 686 651L773 444Q784 415 792 395.5Q800 376 804.5 359.5Q809 343 811 324.5Q813 306 813 280V36Q813 23 809.5 14Q806 5 799 -1L669 -109Q665 -113 656.5 -116Q648 -119 638 -119H487Q463 -119 450.5 -107.5Q438 -96 438 -73V37H430V36Q430 23 426.5 14Q423 5 416 -1ZM197 594Q175 591 163.5 602.5Q152 614 152 637V733Q152 746 155.5 754.5Q159 763 165 768L295 877Q299 881 307.5 884Q316 887 326 888L675 931Q697 934 708.5 922.5Q720 911 720 888V792Q720 779 716.5 770Q713 761 706 757L577 648Q572 644 564 641.5Q556 639 546 637Z" glyph-name="Aacute.v" horiz-adv-x="1000" unicode="&#57739;" /><glyph d="M139 -109Q135 -113 126.5 -116Q118 -119 108 -119H-39Q-63 -119 -74 -108Q-85 -97 -85 -73V191Q-85 222 -75.5 261.5Q-66 301 -45 355L41 581Q44 590 48.5 596.5Q53 603 58 608L59 609L187 716Q195 723 206 726.5Q217 730 231 730H500Q523 730 537.5 720.5Q552 711 559 691L646 464Q667 410 676.5 370.5Q686 331 686 300V36Q686 23 682.5 14Q679 5 672 -1L542 -109Q538 -113 529.5 -116Q521 -119 511 -119H360Q335 -119 323 -107.5Q311 -96 311 -73V57H283V36Q283 23 279.5 14Q276 5 269 -1ZM236 635Q167 635 122.5 646.5Q78 658 53 678Q28 698 18.5 726.5Q9 755 9 788V832Q9 845 12.5 854Q16 863 23 869L152 978Q157 982 165.5 984.5Q174 987 184 987H280Q301 987 310 978.5Q319 970 319 946V925Q319 918 323 912.5Q327 907 337 905L427 980L426 979Q430 983 437 985Q444 987 455 987H546Q570 987 581 976Q592 965 592 941V897Q592 864 582.5 836Q573 808 548 788L419 680Q394 659 350 647Q306 635 236 635Z" glyph-name="Abreve" horiz-adv-x="730" unicode="&#258;" /><glyph d="M309 388Q309 397 305.5 404.5Q302 412 293 417V378H309ZM279 -1 149 -109Q145 -113 136.5 -116Q128 -119 118 -119H-29Q-53 -119 -64 -108Q-75 -97 -75 -73V422Q-75 469 -62.5 508.5Q-50 548 -16 576L114 684Q148 712 208.5 728.5Q269 745 367 745Q464 745 526 729Q588 713 622.5 685Q657 657 669.5 617.5Q682 578 682 531V36Q682 23 678.5 14Q675 5 668 -1L538 -109Q534 -113 525.5 -116Q517 -119 507 -119H355Q331 -119 320 -108Q309 -97 309 -73V66H293V36Q293 23 289.5 14Q286 5 279 -1ZM239 635Q170 635 125.5 646.5Q81 658 56 678Q31 698 21.5 726.5Q12 755 12 788V832Q12 845 15.5 854Q19 863 26 869L155 978Q160 982 168.5 984.5Q177 987 187 987H283Q304 987 313 978.5Q322 970 322 946V925Q322 918 326 912.5Q330 907 340 905L430 980L429 979Q433 983 440 985Q447 987 458 987H549Q573 987 584 976Q595 965 595 941V897Q595 864 585.5 836Q576 808 551 788L422 680Q397 659 353 647Q309 635 239 635Z" glyph-name="Abreve.salt" horiz-adv-x="736" unicode="&#57608;" /><glyph d="M438 368Q438 375 436 382Q434 389 428 393V358H438ZM414 -1 284 -109Q280 -113 271.5 -116Q263 -119 253 -119H106Q82 -119 71 -108Q60 -97 60 -73V382Q60 429 72.5 468.5Q85 508 119 536L248 645Q282 673 342 689Q402 705 499 705Q596 705 657.5 689Q719 673 753 645Q787 617 799 577.5Q811 538 811 491V36Q811 23 807.5 14Q804 5 797 -1L667 -109Q663 -113 654.5 -116Q646 -119 636 -119H484Q460 -119 449 -108Q438 -97 438 -73V46H428V36Q428 23 424.5 14Q421 5 414 -1ZM371 595Q302 595 257.5 606.5Q213 618 188 638Q163 658 153.5 686.5Q144 715 144 748V792Q144 805 147.5 814Q151 823 158 829L287 938Q292 942 300.5 944.5Q309 947 319 947H415Q436 947 445 938.5Q454 930 454 906V885Q454 878 458 872.5Q462 867 472 865L562 940L561 939Q565 943 572 945Q579 947 590 947H681Q705 947 716 936Q727 925 727 901V857Q727 824 717.5 796Q708 768 683 748L554 640Q529 619 485 607Q441 595 371 595Z" glyph-name="Abreve.salt_v" horiz-adv-x="1000" unicode="&#57845;" /><glyph d="M416 -1 286 -109Q282 -113 273.5 -116Q265 -119 255 -119H108Q83 -119 72.5 -108Q62 -97 62 -73V171Q62 197 64 215.5Q66 234 70.5 250.5Q75 267 83 286Q91 305 102 334L178 541Q181 550 185.5 557.5Q190 565 196 569L326 678Q333 684 344 687Q355 690 368 690H627Q650 690 664.5 681.5Q679 673 686 651L773 444Q784 415 792 395.5Q800 376 804.5 359.5Q809 343 811 324.5Q813 306 813 280V36Q813 23 809.5 14Q806 5 799 -1L669 -109Q665 -113 656.5 -116Q648 -119 638 -119H487Q463 -119 450.5 -107.5Q438 -96 438 -73V37H430V36Q430 23 426.5 14Q423 5 416 -1ZM372 595Q303 595 258.5 606.5Q214 618 189 638Q164 658 154.5 686.5Q145 715 145 748V792Q145 805 148.5 814Q152 823 159 829L288 938Q293 942 301.5 944.5Q310 947 320 947H416Q437 947 446 938.5Q455 930 455 906V885Q455 878 459 872.5Q463 867 473 865L563 940L562 939Q566 943 573 945Q580 947 591 947H682Q706 947 717 936Q728 925 728 901V857Q728 824 718.5 796Q709 768 684 748L555 640Q530 619 486 607Q442 595 372 595Z" glyph-name="Abreve.v" horiz-adv-x="1000" unicode="&#57745;" /><glyph d="M139 -109Q135 -113 126.5 -116Q118 -119 108 -119H-39Q-63 -119 -74 -108Q-85 -97 -85 -73V191Q-85 222 -75.5 261.5Q-66 301 -45 355L41 581Q44 590 48.5 596.5Q53 603 58 608L59 609L187 716Q195 723 206 726.5Q217 730 231 730H500Q523 730 537.5 720.5Q552 711 559 691L646 464Q667 410 676.5 370.5Q686 331 686 300V36Q686 23 682.5 14Q679 5 672 -1L542 -109Q538 -113 529.5 -116Q521 -119 511 -119H360Q335 -119 323 -107.5Q311 -96 311 -73V57H283V36Q283 23 279.5 14Q276 5 269 -1ZM236 635Q167 635 122.5 646.5Q78 658 53 678Q28 698 18.5 726.5Q9 755 9 788V832Q9 845 12.5 854Q16 863 23 869L152 978Q157 982 165.5 984.5Q174 987 184 987H280Q301 987 310 978.5Q319 970 319 946V925Q319 918 323 912.5Q327 907 337 905L427 980L426 979Q430 983 437 985Q444 987 455 987H546Q570 987 581 976Q592 965 592 941V897Q592 864 582.5 836Q573 808 548 788L419 680Q394 659 350 647Q306 635 236 635ZM221 875Q200 871 187.5 882.5Q175 894 175 918V1024Q175 1037 178.5 1045Q182 1053 188 1058L317 1166Q322 1170 330 1173Q338 1176 348 1179L485 1212Q506 1216 518.5 1204.5Q531 1193 531 1169V1063Q531 1050 527.5 1042.5Q524 1035 518 1030L388 921Q384 917 376 914Q368 911 358 908Z" glyph-name="Abreveacute" horiz-adv-x="730" unicode="&#7854;" /><glyph d="M139 -109Q135 -113 126.5 -116Q118 -119 108 -119H-39Q-63 -119 -74 -108Q-85 -97 -85 -73V191Q-85 222 -75.5 261.5Q-66 301 -45 355L41 581Q44 590 48.5 596.5Q53 603 58 608L59 609L187 716Q195 723 206 726.5Q217 730 231 730H500Q523 730 537.5 720.5Q552 711 559 691L646 464Q667 410 676.5 370.5Q686 331 686 300V36Q686 23 682.5 14Q679 5 672 -1L542 -109Q538 -113 529.5 -116Q521 -119 511 -119H360Q335 -119 323 -107.5Q311 -96 311 -73V57H283V36Q283 23 279.5 14Q276 5 269 -1ZM236 635Q167 635 122.5 646.5Q78 658 53 678Q28 698 18.5 726.5Q9 755 9 788V832Q9 845 12.5 854Q16 863 23 869L152 978Q157 982 165.5 984.5Q174 987 184 987H280Q301 987 310 978.5Q319 970 319 946V925Q319 918 323 912.5Q327 907 337 905L427 980L426 979Q430 983 437 985Q444 987 455 987H546Q570 987 581 976Q592 965 592 941V897Q592 864 582.5 836Q573 808 548 788L419 680Q394 659 350 647Q306 635 236 635ZM315 -359H157Q133 -359 122 -348Q111 -337 111 -313V-186Q111 -173 114.5 -164Q118 -155 125 -149L254 -40Q259 -36 267.5 -33.5Q276 -31 286 -31H444Q468 -31 479 -42Q490 -53 490 -77V-204Q490 -217 486.5 -226Q483 -235 476 -241L346 -349Q342 -353 333.5 -356Q325 -359 315 -359Z" glyph-name="Abrevedotbelow" horiz-adv-x="730" unicode="&#7862;" /><glyph d="M139 -109Q135 -113 126.5 -116Q118 -119 108 -119H-39Q-63 -119 -74 -108Q-85 -97 -85 -73V191Q-85 222 -75.5 261.5Q-66 301 -45 355L41 581Q44 590 48.5 596.5Q53 603 58 608L59 609L187 716Q195 723 206 726.5Q217 730 231 730H500Q523 730 537.5 720.5Q552 711 559 691L646 464Q667 410 676.5 370.5Q686 331 686 300V36Q686 23 682.5 14Q679 5 672 -1L542 -109Q538 -113 529.5 -116Q521 -119 511 -119H360Q335 -119 323 -107.5Q311 -96 311 -73V57H283V36Q283 23 279.5 14Q276 5 269 -1ZM236 635Q167 635 122.5 646.5Q78 658 53 678Q28 698 18.5 726.5Q9 755 9 788V832Q9 845 12.5 854Q16 863 23 869L152 978Q157 982 165.5 984.5Q174 987 184 987H280Q301 987 310 978.5Q319 970 319 946V925Q319 918 323 912.5Q327 907 337 905L427 980L426 979Q430 983 437 985Q444 987 455 987H546Q570 987 581 976Q592 965 592 941V897Q592 864 582.5 836Q573 808 548 788L419 680Q394 659 350 647Q306 635 236 635ZM285 882Q279 877 271 875Q263 873 254 875L117 908Q94 914 83.5 922.5Q73 931 73 954V1060Q73 1073 76.5 1082Q80 1091 87 1097L217 1206Q222 1210 230 1212Q238 1214 248 1212L385 1179Q408 1173 418.5 1164.5Q429 1156 429 1133V1027Q429 1014 425 1005Q421 996 414 990Z" glyph-name="Abrevegrave" horiz-adv-x="730" unicode="&#7856;" /><glyph d="M139 -109Q135 -113 126.5 -116Q118 -119 108 -119H-39Q-63 -119 -74 -108Q-85 -97 -85 -73V191Q-85 222 -75.5 261.5Q-66 301 -45 355L41 581Q44 590 48.5 596.5Q53 603 58 608L59 609L187 716Q195 723 206 726.5Q217 730 231 730H500Q523 730 537.5 720.5Q552 711 559 691L646 464Q667 410 676.5 370.5Q686 331 686 300V36Q686 23 682.5 14Q679 5 672 -1L542 -109Q538 -113 529.5 -116Q521 -119 511 -119H360Q335 -119 323 -107.5Q311 -96 311 -73V57H283V36Q283 23 279.5 14Q276 5 269 -1ZM236 635Q167 635 122.5 646.5Q78 658 53 678Q28 698 18.5 726.5Q9 755 9 788V832Q9 845 12.5 854Q16 863 23 869L152 978Q157 982 165.5 984.5Q174 987 184 987H280Q301 987 310 978.5Q319 970 319 946V925Q319 918 323 912.5Q327 907 337 905L427 980L426 979Q430 983 437 985Q444 987 455 987H546Q570 987 581 976Q592 965 592 941V897Q592 864 582.5 836Q573 808 548 788L419 680Q394 659 350 647Q306 635 236 635ZM201 879Q186 877 178.5 882.5Q171 888 169 903V904L158 982Q156 991 158.5 997.5Q161 1004 165 1008L203 1040H145Q130 1040 123 1047Q116 1054 116 1069V1142Q116 1150 118.5 1155.5Q121 1161 125 1165L254 1274Q258 1277 262.5 1278.5Q267 1280 274 1280H442Q498 1280 529 1251Q560 1222 560 1168V1104Q560 1077 552 1059.5Q544 1042 531 1030L402 921Q391 912 375.5 906.5Q360 901 341 898Z" glyph-name="Abrevehookabove" horiz-adv-x="730" unicode="&#7858;" /><glyph d="M139 -109Q135 -113 126.5 -116Q118 -119 108 -119H-39Q-63 -119 -74 -108Q-85 -97 -85 -73V191Q-85 222 -75.5 261.5Q-66 301 -45 355L41 581Q44 590 48.5 596.5Q53 603 58 608L59 609L187 716Q195 723 206 726.5Q217 730 231 730H500Q523 730 537.5 720.5Q552 711 559 691L646 464Q667 410 676.5 370.5Q686 331 686 300V36Q686 23 682.5 14Q679 5 672 -1L542 -109Q538 -113 529.5 -116Q521 -119 511 -119H360Q335 -119 323 -107.5Q311 -96 311 -73V57H283V36Q283 23 279.5 14Q276 5 269 -1ZM236 635Q167 635 122.5 646.5Q78 658 53 678Q28 698 18.5 726.5Q9 755 9 788V832Q9 845 12.5 854Q16 863 23 869L152 978Q157 982 165.5 984.5Q174 987 184 987H280Q301 987 310 978.5Q319 970 319 946V925Q319 918 323 912.5Q327 907 337 905L427 980L426 979Q430 983 437 985Q444 987 455 987H546Q570 987 581 976Q592 965 592 941V897Q592 864 582.5 836Q573 808 548 788L419 680Q394 659 350 647Q306 635 236 635ZM411 908Q387 901 370 897.5Q353 894 337 894Q321 894 301 896.5Q281 899 250 903L234 905L206 909Q178 913 160 914.5Q142 916 127 914.5Q112 913 98 909.5Q84 906 65 900Q40 893 28 902Q16 911 16 936V1037Q16 1050 19.5 1058.5Q23 1067 31 1074L160 1182Q164 1186 171.5 1189.5Q179 1193 187 1196H188V1197Q212 1204 228.5 1207.5Q245 1211 261.5 1211Q278 1211 297.5 1208.5Q317 1206 348 1202L365 1200L387 1197Q419 1192 438 1190Q457 1188 471 1189Q485 1190 499 1194Q513 1198 534 1205Q559 1212 571 1203Q583 1194 583 1169V1068Q583 1055 579 1046.5Q575 1038 568 1032L438 923Q434 919 427 915.5Q420 912 412 909H411Z" glyph-name="Abrevetilde" horiz-adv-x="730" unicode="&#7860;" /><glyph d="M139 -109Q135 -113 126.5 -116Q118 -119 108 -119H-39Q-63 -119 -74 -108Q-85 -97 -85 -73V191Q-85 222 -75.5 261.5Q-66 301 -45 355L41 581Q44 590 48.5 596.5Q53 603 58 608L59 609L187 716Q195 723 206 726.5Q217 730 231 730H500Q523 730 537.5 720.5Q552 711 559 691L646 464Q667 410 676.5 370.5Q686 331 686 300V36Q686 23 682.5 14Q679 5 672 -1L542 -109Q538 -113 529.5 -116Q521 -119 511 -119H360Q335 -119 323 -107.5Q311 -96 311 -73V57H283V36Q283 23 279.5 14Q276 5 269 -1ZM238 633H237Q227 633 218 634Q209 635 202 639L64 689Q34 700 25 710Q16 720 16 751V832Q16 849 18.5 859Q21 869 27 873L156 982Q161 986 171.5 986.5Q182 987 200 982L337 942Q353 938 365 938Q377 938 393 942L530 982Q563 992 573.5 984.5Q584 977 584 941V860Q584 841 580 831Q576 821 568 814L439 705Q433 701 425.5 697Q418 693 408 689H407L280 643Q270 639 259 636.5Q248 634 238 633Z" glyph-name="Acaron" horiz-adv-x="730" unicode="&#461;" /><glyph d="M139 -109Q135 -113 126.5 -116Q118 -119 108 -119H-39Q-63 -119 -74 -108Q-85 -97 -85 -73V191Q-85 222 -75.5 261.5Q-66 301 -45 355L41 581Q44 590 48.5 596.5Q53 603 58 608L59 609L187 716Q195 723 206 726.5Q217 730 231 730H500Q523 730 537.5 720.5Q552 711 559 691L646 464Q667 410 676.5 370.5Q686 331 686 300V36Q686 23 682.5 14Q679 5 672 -1L542 -109Q538 -113 529.5 -116Q521 -119 511 -119H360Q335 -119 323 -107.5Q311 -96 311 -73V57H283V36Q283 23 279.5 14Q276 5 269 -1ZM70 638Q37 628 26.5 635.5Q16 643 16 679V760Q16 779 19.5 789Q23 799 30 806L161 915L160 914Q165 919 173.5 923Q182 927 193 931L320 977Q330 981 341.5 983.5Q353 986 363 987Q373 987 382 986Q391 985 398 981L536 931Q566 920 575 910Q584 900 584 869V788Q584 772 581 762Q578 752 574 748L573 747L443 639Q438 635 428 634.5Q418 634 400 638L263 678Q247 682 235 682Q223 682 207 678Z" glyph-name="Acircumflex" horiz-adv-x="730" unicode="&#194;" /><glyph d="M309 388Q309 397 305.5 404.5Q302 412 293 417V378H309ZM279 -1 149 -109Q145 -113 136.5 -116Q128 -119 118 -119H-29Q-53 -119 -64 -108Q-75 -97 -75 -73V422Q-75 469 -62.5 508.5Q-50 548 -16 576L114 684Q148 712 208.5 728.5Q269 745 367 745Q464 745 526 729Q588 713 622.5 685Q657 657 669.5 617.5Q682 578 682 531V36Q682 23 678.5 14Q675 5 668 -1L538 -109Q534 -113 525.5 -116Q517 -119 507 -119H355Q331 -119 320 -108Q309 -97 309 -73V66H293V36Q293 23 289.5 14Q286 5 279 -1ZM73 638Q40 628 29.5 635.5Q19 643 19 679V760Q19 779 22.5 789Q26 799 33 806L164 915L163 914Q168 919 176.5 923Q185 927 196 931L323 977Q333 981 344.5 983.5Q356 986 366 987Q376 987 385 986Q394 985 401 981L539 931Q569 920 578 910Q587 900 587 869V788Q587 772 584 762Q581 752 577 748L576 747L446 639Q441 635 431 634.5Q421 634 403 638L266 678Q250 682 238 682Q226 682 210 678Z" glyph-name="Acircumflex.salt" horiz-adv-x="736" unicode="&#57603;" /><glyph d="M438 368Q438 375 436 382Q434 389 428 393V358H438ZM414 -1 284 -109Q280 -113 271.5 -116Q263 -119 253 -119H106Q82 -119 71 -108Q60 -97 60 -73V382Q60 429 72.5 468.5Q85 508 119 536L248 645Q282 673 342 689Q402 705 499 705Q596 705 657.5 689Q719 673 753 645Q787 617 799 577.5Q811 538 811 491V36Q811 23 807.5 14Q804 5 797 -1L667 -109Q663 -113 654.5 -116Q646 -119 636 -119H484Q460 -119 449 -108Q438 -97 438 -73V46H428V36Q428 23 424.5 14Q421 5 414 -1ZM205 598Q172 588 161.5 595.5Q151 603 151 639V720Q151 739 154.5 749Q158 759 165 766L296 875L295 874Q300 879 308.5 883Q317 887 328 891L455 937Q465 941 476.5 943.5Q488 946 498 947Q508 947 517 946Q526 945 533 941L671 891Q701 880 710 870Q719 860 719 829V748Q719 732 716 722Q713 712 709 708L708 707L578 599Q573 595 563 594.5Q553 594 535 598L398 638Q382 642 370 642Q358 642 342 638Z" glyph-name="Acircumflex.salt_v" horiz-adv-x="1000" unicode="&#57840;" /><glyph d="M206 598Q173 588 162.5 595.5Q152 603 152 639V720Q152 739 155.5 749Q159 759 166 766L297 875L296 874Q301 879 309.5 883Q318 887 329 891L456 937Q466 941 477.5 943.5Q489 946 499 947Q509 947 518 946Q527 945 534 941L672 891Q702 880 711 870Q720 860 720 829V748Q720 732 717 722Q714 712 710 708L709 707L579 599Q574 595 564 594.5Q554 594 536 598L399 638Q383 642 371 642Q359 642 343 638ZM416 -1 286 -109Q282 -113 273.5 -116Q265 -119 255 -119H108Q83 -119 72.5 -108Q62 -97 62 -73V171Q62 197 64 215.5Q66 234 70.5 250.5Q75 267 83 286Q91 305 102 334L178 541Q181 550 185.5 557.5Q190 565 196 569L326 678Q333 684 344 687Q355 690 368 690H627Q650 690 664.5 681.5Q679 673 686 651L773 444Q784 415 792 395.5Q800 376 804.5 359.5Q809 343 811 324.5Q813 306 813 280V36Q813 23 809.5 14Q806 5 799 -1L669 -109Q665 -113 656.5 -116Q648 -119 638 -119H487Q463 -119 450.5 -107.5Q438 -96 438 -73V37H430V36Q430 23 426.5 14Q423 5 416 -1Z" glyph-name="Acircumflex.v" horiz-adv-x="1000" unicode="&#57740;" /><glyph d="M139 -109Q135 -113 126.5 -116Q118 -119 108 -119H-39Q-63 -119 -74 -108Q-85 -97 -85 -73V191Q-85 222 -75.5 261.5Q-66 301 -45 355L41 581Q44 590 48.5 596.5Q53 603 58 608L59 609L187 716Q195 723 206 726.5Q217 730 231 730H500Q523 730 537.5 720.5Q552 711 559 691L646 464Q667 410 676.5 370.5Q686 331 686 300V36Q686 23 682.5 14Q679 5 672 -1L542 -109Q538 -113 529.5 -116Q521 -119 511 -119H360Q335 -119 323 -107.5Q311 -96 311 -73V57H283V36Q283 23 279.5 14Q276 5 269 -1ZM70 638Q37 628 26.5 635.5Q16 643 16 679V760Q16 779 19.5 789Q23 799 30 806L161 915L160 914Q165 919 173.5 923Q182 927 193 931L320 977Q330 981 341.5 983.5Q353 986 363 987Q373 987 382 986Q391 985 398 981L536 931Q566 920 575 910Q584 900 584 869V788Q584 772 581 762Q578 752 574 748L573 747L443 639Q438 635 428 634.5Q418 634 400 638L263 678Q247 682 235 682Q223 682 207 678ZM314 875Q293 871 280.5 882.5Q268 894 268 918V1024Q268 1037 271.5 1045Q275 1053 281 1058L410 1166Q415 1170 423 1173Q431 1176 441 1179L578 1212Q599 1216 611.5 1204.5Q624 1193 624 1169V1063Q624 1050 620.5 1042.5Q617 1035 611 1030L481 921Q477 917 469 914Q461 911 451 908Z" glyph-name="Acircumflexacute" horiz-adv-x="730" unicode="&#7844;" /><glyph d="M139 -109Q135 -113 126.5 -116Q118 -119 108 -119H-39Q-63 -119 -74 -108Q-85 -97 -85 -73V191Q-85 222 -75.5 261.5Q-66 301 -45 355L41 581Q44 590 48.5 596.5Q53 603 58 608L59 609L187 716Q195 723 206 726.5Q217 730 231 730H500Q523 730 537.5 720.5Q552 711 559 691L646 464Q667 410 676.5 370.5Q686 331 686 300V36Q686 23 682.5 14Q679 5 672 -1L542 -109Q538 -113 529.5 -116Q521 -119 511 -119H360Q335 -119 323 -107.5Q311 -96 311 -73V57H283V36Q283 23 279.5 14Q276 5 269 -1ZM70 638Q37 628 26.5 635.5Q16 643 16 679V760Q16 779 19.5 789Q23 799 30 806L161 915L160 914Q165 919 173.5 923Q182 927 193 931L320 977Q330 981 341.5 983.5Q353 986 363 987Q373 987 382 986Q391 985 398 981L536 931Q566 920 575 910Q584 900 584 869V788Q584 772 581 762Q578 752 574 748L573 747L443 639Q438 635 428 634.5Q418 634 400 638L263 678Q247 682 235 682Q223 682 207 678ZM315 -359H157Q133 -359 122 -348Q111 -337 111 -313V-186Q111 -173 114.5 -164Q118 -155 125 -149L254 -40Q259 -36 267.5 -33.5Q276 -31 286 -31H444Q468 -31 479 -42Q490 -53 490 -77V-204Q490 -217 486.5 -226Q483 -235 476 -241L346 -349Q342 -353 333.5 -356Q325 -359 315 -359Z" glyph-name="Acircumflexdotbelow" horiz-adv-x="730" unicode="&#7852;" /><glyph d="M139 -109Q135 -113 126.5 -116Q118 -119 108 -119H-39Q-63 -119 -74 -108Q-85 -97 -85 -73V191Q-85 222 -75.5 261.5Q-66 301 -45 355L41 581Q44 590 48.5 596.5Q53 603 58 608L59 609L187 716Q195 723 206 726.5Q217 730 231 730H500Q523 730 537.5 720.5Q552 711 559 691L646 464Q667 410 676.5 370.5Q686 331 686 300V36Q686 23 682.5 14Q679 5 672 -1L542 -109Q538 -113 529.5 -116Q521 -119 511 -119H360Q335 -119 323 -107.5Q311 -96 311 -73V57H283V36Q283 23 279.5 14Q276 5 269 -1ZM70 638Q37 628 26.5 635.5Q16 643 16 679V760Q16 779 19.5 789Q23 799 30 806L161 915L160 914Q165 919 173.5 923Q182 927 193 931L320 977Q330 981 341.5 983.5Q353 986 363 987Q373 987 382 986Q391 985 398 981L536 931Q566 920 575 910Q584 900 584 869V788Q584 772 581 762Q578 752 574 748L573 747L443 639Q438 635 428 634.5Q418 634 400 638L263 678Q247 682 235 682Q223 682 207 678ZM459 857Q453 852 445 850Q437 848 428 850L291 883Q268 889 257.5 897.5Q247 906 247 929V1035Q247 1048 250.5 1057Q254 1066 261 1072L391 1181Q396 1185 404 1187Q412 1189 422 1187L559 1154Q582 1148 592.5 1139.5Q603 1131 603 1108V1002Q603 989 599 980Q595 971 588 965Z" glyph-name="Acircumflexgrave" horiz-adv-x="730" unicode="&#7846;" /><glyph d="M139 -109Q135 -113 126.5 -116Q118 -119 108 -119H-39Q-63 -119 -74 -108Q-85 -97 -85 -73V191Q-85 222 -75.5 261.5Q-66 301 -45 355L41 581Q44 590 48.5 596.5Q53 603 58 608L59 609L187 716Q195 723 206 726.5Q217 730 231 730H500Q523 730 537.5 720.5Q552 711 559 691L646 464Q667 410 676.5 370.5Q686 331 686 300V36Q686 23 682.5 14Q679 5 672 -1L542 -109Q538 -113 529.5 -116Q521 -119 511 -119H360Q335 -119 323 -107.5Q311 -96 311 -73V57H283V36Q283 23 279.5 14Q276 5 269 -1ZM70 638Q37 628 26.5 635.5Q16 643 16 679V760Q16 779 19.5 789Q23 799 30 806L161 915L160 914Q165 919 173.5 923Q182 927 193 931L320 977Q330 981 341.5 983.5Q353 986 363 987Q373 987 382 986Q391 985 398 981L536 931Q566 920 575 910Q584 900 584 869V788Q584 772 581 762Q578 752 574 748L573 747L443 639Q438 635 428 634.5Q418 634 400 638L263 678Q247 682 235 682Q223 682 207 678ZM350 853Q335 851 327.5 856.5Q320 862 318 877V878L307 956Q305 965 307.5 971.5Q310 978 314 982L352 1014H294Q279 1014 272 1021Q265 1028 265 1043V1116Q265 1124 267.5 1129.5Q270 1135 274 1139L403 1248Q407 1251 411.5 1252.5Q416 1254 423 1254H591Q647 1254 678 1225Q709 1196 709 1142V1078Q709 1051 701 1033.5Q693 1016 680 1004L551 895Q540 886 524.5 880.5Q509 875 490 872Z" glyph-name="Acircumflexhookabove" horiz-adv-x="730" unicode="&#7848;" /><glyph d="M139 -109Q135 -113 126.5 -116Q118 -119 108 -119H-39Q-63 -119 -74 -108Q-85 -97 -85 -73V191Q-85 222 -75.5 261.5Q-66 301 -45 355L41 581Q44 590 48.5 596.5Q53 603 58 608L59 609L187 716Q195 723 206 726.5Q217 730 231 730H500Q523 730 537.5 720.5Q552 711 559 691L646 464Q667 410 676.5 370.5Q686 331 686 300V36Q686 23 682.5 14Q679 5 672 -1L542 -109Q538 -113 529.5 -116Q521 -119 511 -119H360Q335 -119 323 -107.5Q311 -96 311 -73V57H283V36Q283 23 279.5 14Q276 5 269 -1ZM70 638Q37 628 26.5 635.5Q16 643 16 679V760Q16 779 19.5 789Q23 799 30 806L161 915L160 914Q165 919 173.5 923Q182 927 193 931L320 977Q330 981 341.5 983.5Q353 986 363 987Q373 987 382 986Q391 985 398 981L536 931Q566 920 575 910Q584 900 584 869V788Q584 772 581 762Q578 752 574 748L573 747L443 639Q438 635 428 634.5Q418 634 400 638L263 678Q247 682 235 682Q223 682 207 678ZM411 898Q387 891 370 887.5Q353 884 337 884Q321 884 301 886.5Q281 889 250 893L234 895L206 899Q178 903 160 904.5Q142 906 127 904.5Q112 903 98 899.5Q84 896 65 890Q40 883 28 892Q16 901 16 926V1027Q16 1040 19.5 1048.5Q23 1057 31 1064L160 1172Q164 1176 171.5 1179.5Q179 1183 187 1186H188V1187Q212 1194 228.5 1197.5Q245 1201 261.5 1201Q278 1201 297.5 1198.5Q317 1196 348 1192L365 1190L387 1187Q419 1182 438 1180Q457 1178 471 1179Q485 1180 499 1184Q513 1188 534 1195Q559 1202 571 1193Q583 1184 583 1159V1058Q583 1045 579 1036.5Q575 1028 568 1022L438 913Q434 909 427 905.5Q420 902 412 899H411Z" glyph-name="Acircumflextilde" horiz-adv-x="730" unicode="&#7850;" /><glyph d="M139 -109Q135 -113 126.5 -116Q118 -119 108 -119H-39Q-63 -119 -74 -108Q-85 -97 -85 -73V191Q-85 222 -75.5 261.5Q-66 301 -45 355L41 581Q44 590 48.5 596.5Q53 603 58 608L59 609L187 716Q195 723 206 726.5Q217 730 231 730H500Q523 730 537.5 720.5Q552 711 559 691L646 464Q667 410 676.5 370.5Q686 331 686 300V36Q686 23 682.5 14Q679 5 672 -1L542 -109Q538 -113 529.5 -116Q521 -119 511 -119H360Q335 -119 323 -107.5Q311 -96 311 -73V57H283V36Q283 23 279.5 14Q276 5 269 -1ZM251 690 204 651Q199 646 191.5 643.5Q184 641 174 641H36Q14 641 3 651.5Q-8 662 -8 684V805Q-8 818 -4.5 826Q-1 834 5 839L134 948Q139 952 147 954.5Q155 957 165 957H303Q325 957 335.5 946.5Q346 936 346 914V908L393 948Q398 952 405.5 954.5Q413 957 423 957H561Q583 957 593.5 946.5Q604 936 604 914V793Q604 781 600.5 772.5Q597 764 591 759L462 651Q457 646 449.5 643.5Q442 641 432 641H294Q272 641 261.5 651.5Q251 662 251 684Z" glyph-name="Adieresis" horiz-adv-x="730" unicode="&#196;" /><glyph d="M309 388Q309 397 305.5 404.5Q302 412 293 417V378H309ZM279 -1 149 -109Q145 -113 136.5 -116Q128 -119 118 -119H-29Q-53 -119 -64 -108Q-75 -97 -75 -73V422Q-75 469 -62.5 508.5Q-50 548 -16 576L114 684Q148 712 208.5 728.5Q269 745 367 745Q464 745 526 729Q588 713 622.5 685Q657 657 669.5 617.5Q682 578 682 531V36Q682 23 678.5 14Q675 5 668 -1L538 -109Q534 -113 525.5 -116Q517 -119 507 -119H355Q331 -119 320 -108Q309 -97 309 -73V66H293V36Q293 23 289.5 14Q286 5 279 -1ZM254 690 207 651Q202 646 194.5 643.5Q187 641 177 641H39Q17 641 6 651.5Q-5 662 -5 684V805Q-5 818 -1.5 826Q2 834 8 839L137 948Q142 952 150 954.5Q158 957 168 957H306Q328 957 338.5 946.5Q349 936 349 914V908L396 948Q401 952 408.5 954.5Q416 957 426 957H564Q586 957 596.5 946.5Q607 936 607 914V793Q607 781 603.5 772.5Q600 764 594 759L465 651Q460 646 452.5 643.5Q445 641 435 641H297Q275 641 264.5 651.5Q254 662 254 684Z" glyph-name="Adieresis.salt" horiz-adv-x="736" unicode="&#57605;" /><glyph d="M438 368Q438 375 436 382Q434 389 428 393V358H438ZM414 -1 284 -109Q280 -113 271.5 -116Q263 -119 253 -119H106Q82 -119 71 -108Q60 -97 60 -73V382Q60 429 72.5 468.5Q85 508 119 536L248 645Q282 673 342 689Q402 705 499 705Q596 705 657.5 689Q719 673 753 645Q787 617 799 577.5Q811 538 811 491V36Q811 23 807.5 14Q804 5 797 -1L667 -109Q663 -113 654.5 -116Q646 -119 636 -119H484Q460 -119 449 -108Q438 -97 438 -73V46H428V36Q428 23 424.5 14Q421 5 414 -1ZM386 650 339 611Q334 606 326.5 603.5Q319 601 309 601H171Q149 601 138 611.5Q127 622 127 644V765Q127 778 130.5 786Q134 794 140 799L269 908Q274 912 282 914.5Q290 917 300 917H438Q460 917 470.5 906.5Q481 896 481 874V868L528 908Q533 912 540.5 914.5Q548 917 558 917H696Q718 917 728.5 906.5Q739 896 739 874V753Q739 741 735.5 732.5Q732 724 726 719L597 611Q592 606 584.5 603.5Q577 601 567 601H429Q407 601 396.5 611.5Q386 622 386 644Z" glyph-name="Adieresis.salt_v" horiz-adv-x="1000" unicode="&#57842;" /><glyph d="M387 650 340 611Q335 606 327.5 603.5Q320 601 310 601H172Q150 601 139 611.5Q128 622 128 644V765Q128 778 131.5 786Q135 794 141 799L270 908Q275 912 283 914.5Q291 917 301 917H439Q461 917 471.5 906.5Q482 896 482 874V868L529 908Q534 912 541.5 914.5Q549 917 559 917H697Q719 917 729.5 906.5Q740 896 740 874V753Q740 741 736.5 732.5Q733 724 727 719L598 611Q593 606 585.5 603.5Q578 601 568 601H430Q408 601 397.5 611.5Q387 622 387 644ZM416 -1 286 -109Q282 -113 273.5 -116Q265 -119 255 -119H108Q83 -119 72.5 -108Q62 -97 62 -73V171Q62 197 64 215.5Q66 234 70.5 250.5Q75 267 83 286Q91 305 102 334L178 541Q181 550 185.5 557.5Q190 565 196 569L326 678Q333 684 344 687Q355 690 368 690H627Q650 690 664.5 681.5Q679 673 686 651L773 444Q784 415 792 395.5Q800 376 804.5 359.5Q809 343 811 324.5Q813 306 813 280V36Q813 23 809.5 14Q806 5 799 -1L669 -109Q665 -113 656.5 -116Q648 -119 638 -119H487Q463 -119 450.5 -107.5Q438 -96 438 -73V37H430V36Q430 23 426.5 14Q423 5 416 -1Z" glyph-name="Adieresis.v" horiz-adv-x="1000" unicode="&#57742;" /><glyph d="M139 -109Q135 -113 126.5 -116Q118 -119 108 -119H-39Q-63 -119 -74 -108Q-85 -97 -85 -73V191Q-85 222 -75.5 261.5Q-66 301 -45 355L41 581Q44 590 48.5 596.5Q53 603 58 608L59 609L187 716Q195 723 206 726.5Q217 730 231 730H500Q523 730 537.5 720.5Q552 711 559 691L646 464Q667 410 676.5 370.5Q686 331 686 300V36Q686 23 682.5 14Q679 5 672 -1L542 -109Q538 -113 529.5 -116Q521 -119 511 -119H360Q335 -119 323 -107.5Q311 -96 311 -73V57H283V36Q283 23 279.5 14Q276 5 269 -1ZM315 -359H157Q133 -359 122 -348Q111 -337 111 -313V-186Q111 -173 114.5 -164Q118 -155 125 -149L254 -40Q259 -36 267.5 -33.5Q276 -31 286 -31H444Q468 -31 479 -42Q490 -53 490 -77V-204Q490 -217 486.5 -226Q483 -235 476 -241L346 -349Q342 -353 333.5 -356Q325 -359 315 -359Z" glyph-name="Adotbelow" horiz-adv-x="730" unicode="&#7840;" /><glyph d="M139 -109Q135 -113 126.5 -116Q118 -119 108 -119H-39Q-63 -119 -74 -108Q-85 -97 -85 -73V191Q-85 222 -75.5 261.5Q-66 301 -45 355L41 581Q44 590 48.5 596.5Q53 603 58 608L59 609L187 716Q195 723 206 726.5Q217 730 231 730H500Q523 730 537.5 720.5Q552 711 559 691L646 464Q667 410 676.5 370.5Q686 331 686 300V36Q686 23 682.5 14Q679 5 672 -1L542 -109Q538 -113 529.5 -116Q521 -119 511 -119H360Q335 -119 323 -107.5Q311 -96 311 -73V57H283V36Q283 23 279.5 14Q276 5 269 -1ZM441 642Q436 638 428 635.5Q420 633 410 634L61 677Q37 680 26.5 690Q16 700 16 723V819Q16 832 19.5 840.5Q23 849 30 855L159 964Q165 968 172.5 970Q180 972 190 971L539 928Q563 925 573.5 915Q584 905 584 882V786Q584 773 580.5 764.5Q577 756 570 750Z" glyph-name="Agrave" horiz-adv-x="730" unicode="&#192;" /><glyph d="M309 388Q309 397 305.5 404.5Q302 412 293 417V378H309ZM279 -1 149 -109Q145 -113 136.5 -116Q128 -119 118 -119H-29Q-53 -119 -64 -108Q-75 -97 -75 -73V422Q-75 469 -62.5 508.5Q-50 548 -16 576L114 684Q148 712 208.5 728.5Q269 745 367 745Q464 745 526 729Q588 713 622.5 685Q657 657 669.5 617.5Q682 578 682 531V36Q682 23 678.5 14Q675 5 668 -1L538 -109Q534 -113 525.5 -116Q517 -119 507 -119H355Q331 -119 320 -108Q309 -97 309 -73V66H293V36Q293 23 289.5 14Q286 5 279 -1ZM444 642Q439 638 431 635.5Q423 633 413 634L64 677Q40 680 29.5 690Q19 700 19 723V819Q19 832 22.5 840.5Q26 849 33 855L162 964Q168 968 175.5 970Q183 972 193 971L542 928Q566 925 576.5 915Q587 905 587 882V786Q587 773 583.5 764.5Q580 756 573 750Z" glyph-name="Agrave.salt" horiz-adv-x="736" unicode="&#57601;" /><glyph d="M576 602Q571 598 563 595.5Q555 593 545 594L196 637Q172 640 161.5 650Q151 660 151 683V779Q151 792 154.5 800.5Q158 809 165 815L294 924Q300 928 307.5 930Q315 932 325 931L674 888Q698 885 708.5 875Q719 865 719 842V746Q719 733 715.5 724.5Q712 716 705 710ZM438 368Q438 375 436 382Q434 389 428 393V358H438ZM414 -1 284 -109Q280 -113 271.5 -116Q263 -119 253 -119H106Q82 -119 71 -108Q60 -97 60 -73V382Q60 429 72.5 468.5Q85 508 119 536L248 645Q282 673 342 689Q402 705 499 705Q596 705 657.5 689Q719 673 753 645Q787 617 799 577.5Q811 538 811 491V36Q811 23 807.5 14Q804 5 797 -1L667 -109Q663 -113 654.5 -116Q646 -119 636 -119H484Q460 -119 449 -108Q438 -97 438 -73V46H428V36Q428 23 424.5 14Q421 5 414 -1Z" glyph-name="Agrave.salt_v" horiz-adv-x="1000" unicode="&#57838;" /><glyph d="M416 -1 286 -109Q282 -113 273.5 -116Q265 -119 255 -119H108Q83 -119 72.5 -108Q62 -97 62 -73V171Q62 197 64 215.5Q66 234 70.5 250.5Q75 267 83 286Q91 305 102 334L178 541Q181 550 185.5 557.5Q190 565 196 569L326 678Q333 684 344 687Q355 690 368 690H627Q650 690 664.5 681.5Q679 673 686 651L773 444Q784 415 792 395.5Q800 376 804.5 359.5Q809 343 811 324.5Q813 306 813 280V36Q813 23 809.5 14Q806 5 799 -1L669 -109Q665 -113 656.5 -116Q648 -119 638 -119H487Q463 -119 450.5 -107.5Q438 -96 438 -73V37H430V36Q430 23 426.5 14Q423 5 416 -1ZM577 602Q572 598 564 595.5Q556 593 546 594L197 637Q173 640 162.5 650Q152 660 152 683V779Q152 792 155.5 800.5Q159 809 166 815L295 924Q301 928 308.5 930Q316 932 326 931L675 888Q699 885 709.5 875Q720 865 720 842V746Q720 733 716.5 724.5Q713 716 706 710Z" glyph-name="Agrave.v" horiz-adv-x="1000" unicode="&#57738;" /><glyph d="M139 -109Q135 -113 126.5 -116Q118 -119 108 -119H-39Q-63 -119 -74 -108Q-85 -97 -85 -73V191Q-85 222 -75.5 261.5Q-66 301 -45 355L41 581Q44 590 48.5 596.5Q53 603 58 608L59 609L187 716Q195 723 206 726.5Q217 730 231 730H500Q523 730 537.5 720.5Q552 711 559 691L646 464Q667 410 676.5 370.5Q686 331 686 300V36Q686 23 682.5 14Q679 5 672 -1L542 -109Q538 -113 529.5 -116Q521 -119 511 -119H360Q335 -119 323 -107.5Q311 -96 311 -73V57H283V36Q283 23 279.5 14Q276 5 269 -1ZM171 629Q156 627 148.5 632.5Q141 638 139 653V654L128 732Q126 741 128.5 747.5Q131 754 135 758L173 790H115Q100 790 93 797Q86 804 86 819V892Q86 900 88.5 905.5Q91 911 95 915L224 1024Q228 1027 232.5 1028.5Q237 1030 244 1030H412Q468 1030 499 1001Q530 972 530 918V854Q530 827 522 809.5Q514 792 501 780L372 671Q361 662 345.5 656.5Q330 651 311 648Z" glyph-name="Ahookabove" horiz-adv-x="730" unicode="&#7842;" /><glyph d="M139 -109Q135 -113 126.5 -116Q118 -119 108 -119H-39Q-63 -119 -74 -108Q-85 -97 -85 -73V191Q-85 222 -75.5 261.5Q-66 301 -45 355L41 581Q44 590 48.5 596.5Q53 603 58 608L59 609L187 716Q195 723 206 726.5Q217 730 231 730H500Q523 730 537.5 720.5Q552 711 559 691L646 464Q667 410 676.5 370.5Q686 331 686 300V36Q686 23 682.5 14Q679 5 672 -1L542 -109Q538 -113 529.5 -116Q521 -119 511 -119H360Q335 -119 323 -107.5Q311 -96 311 -73V57H283V36Q283 23 279.5 14Q276 5 269 -1ZM409 641H62Q38 641 27 652Q16 663 16 687V780Q16 793 19.5 802Q23 811 30 817L159 926Q164 930 172.5 932.5Q181 935 191 935H538Q562 935 573 924Q584 913 584 889V796Q584 783 580.5 774Q577 765 570 759L440 651Q436 647 427.5 644Q419 641 409 641Z" glyph-name="Amacron" horiz-adv-x="730" unicode="&#256;" /><glyph d="M309 388Q309 397 305.5 404.5Q302 412 293 417V378H309ZM279 -1 149 -109Q145 -113 136.5 -116Q128 -119 118 -119H-29Q-53 -119 -64 -108Q-75 -97 -75 -73V422Q-75 469 -62.5 508.5Q-50 548 -16 576L114 684Q148 712 208.5 728.5Q269 745 367 745Q464 745 526 729Q588 713 622.5 685Q657 657 669.5 617.5Q682 578 682 531V36Q682 23 678.5 14Q675 5 668 -1L538 -109Q534 -113 525.5 -116Q517 -119 507 -119H355Q331 -119 320 -108Q309 -97 309 -73V66H293V36Q293 23 289.5 14Q286 5 279 -1ZM412 641H65Q41 641 30 652Q19 663 19 687V780Q19 793 22.5 802Q26 811 33 817L162 926Q167 930 175.5 932.5Q184 935 194 935H541Q565 935 576 924Q587 913 587 889V796Q587 783 583.5 774Q580 765 573 759L443 651Q439 647 430.5 644Q422 641 412 641Z" glyph-name="Amacron.salt" horiz-adv-x="736" unicode="&#57607;" /><glyph d="M438 368Q438 375 436 382Q434 389 428 393V358H438ZM414 -1 284 -109Q280 -113 271.5 -116Q263 -119 253 -119H106Q82 -119 71 -108Q60 -97 60 -73V382Q60 429 72.5 468.5Q85 508 119 536L248 645Q282 673 342 689Q402 705 499 705Q596 705 657.5 689Q719 673 753 645Q787 617 799 577.5Q811 538 811 491V36Q811 23 807.5 14Q804 5 797 -1L667 -109Q663 -113 654.5 -116Q646 -119 636 -119H484Q460 -119 449 -108Q438 -97 438 -73V46H428V36Q428 23 424.5 14Q421 5 414 -1ZM544 601H197Q173 601 162 612Q151 623 151 647V740Q151 753 154.5 762Q158 771 165 777L294 886Q299 890 307.5 892.5Q316 895 326 895H673Q697 895 708 884Q719 873 719 849V756Q719 743 715.5 734Q712 725 705 719L575 611Q571 607 562.5 604Q554 601 544 601Z" glyph-name="Amacron.salt_v" horiz-adv-x="1000" unicode="&#57844;" /><glyph d="M545 601H198Q174 601 163 612Q152 623 152 647V740Q152 753 155.5 762Q159 771 166 777L295 886Q300 890 308.5 892.5Q317 895 327 895H674Q698 895 709 884Q720 873 720 849V756Q720 743 716.5 734Q713 725 706 719L576 611Q572 607 563.5 604Q555 601 545 601ZM416 -1 286 -109Q282 -113 273.5 -116Q265 -119 255 -119H108Q83 -119 72.5 -108Q62 -97 62 -73V171Q62 197 64 215.5Q66 234 70.5 250.5Q75 267 83 286Q91 305 102 334L178 541Q181 550 185.5 557.5Q190 565 196 569L326 678Q333 684 344 687Q355 690 368 690H627Q650 690 664.5 681.5Q679 673 686 651L773 444Q784 415 792 395.5Q800 376 804.5 359.5Q809 343 811 324.5Q813 306 813 280V36Q813 23 809.5 14Q806 5 799 -1L669 -109Q665 -113 656.5 -116Q648 -119 638 -119H487Q463 -119 450.5 -107.5Q438 -96 438 -73V37H430V36Q430 23 426.5 14Q423 5 416 -1Z" glyph-name="Amacron.v" horiz-adv-x="1000" unicode="&#57744;" /><glyph d="M514 -305H403Q334 -305 307.5 -270Q281 -235 292 -158L311 -54V57H283V36Q283 23 279.5 14Q276 5 269 -1L139 -109Q135 -113 126.5 -116Q118 -119 108 -119H-39Q-63 -119 -74 -108Q-85 -97 -85 -73V191Q-85 222 -75.5 261.5Q-66 301 -45 355L41 581Q44 590 48.5 596.5Q53 603 58 608L59 609L187 716Q195 723 206 726.5Q217 730 231 730H500Q523 730 537.5 720.5Q552 711 559 691L646 464Q667 410 676.5 370.5Q686 331 686 300V36Q686 23 682.5 14Q679 5 672 -1L630 -36H640Q667 -36 676.5 -45.5Q686 -55 686 -80V-152Q686 -165 683 -174Q680 -183 675 -188L544 -297Q540 -301 532 -303Q524 -305 514 -305Z" glyph-name="Aogonek" horiz-adv-x="730" unicode="&#260;" /><glyph d="M510 -305H399Q330 -305 303.5 -270Q277 -235 288 -158L309 -43V66H293V36Q293 23 289.5 14Q286 5 279 -1L149 -109Q145 -113 136.5 -116Q128 -119 118 -119H-29Q-53 -119 -64 -108Q-75 -97 -75 -73V422Q-75 469 -62.5 508.5Q-50 548 -16 576L114 684Q148 712 208.5 728.5Q269 745 367 745Q464 745 526 729Q588 713 622.5 685Q657 657 669.5 617.5Q682 578 682 531V36Q682 23 678.5 14Q675 5 668 -1L626 -36H636Q663 -36 672.5 -45.5Q682 -55 682 -80V-152Q682 -165 679 -174Q676 -183 671 -188L540 -297Q536 -301 528 -303Q520 -305 510 -305ZM309 388Q309 397 305.5 404.5Q302 412 293 417V378H309Z" glyph-name="Aogonek.salt" horiz-adv-x="736" unicode="&#57609;" /><glyph d="M641 -305H530Q461 -305 434.5 -270Q408 -235 419 -158L438 -54V46H428V36Q428 23 424.5 14Q421 5 414 -1L284 -109Q280 -113 271.5 -116Q263 -119 253 -119H106Q82 -119 71 -108Q60 -97 60 -73V382Q60 429 72.5 468.5Q85 508 119 536L248 645Q282 673 342 689Q402 705 499 705Q596 705 657.5 689Q719 673 753 645Q787 617 799 577.5Q811 538 811 491V36Q811 23 807.5 14Q804 5 797 -1L755 -36H767Q794 -36 803.5 -45.5Q813 -55 813 -80V-152Q813 -165 810 -174Q807 -183 802 -188L671 -297Q667 -301 659 -303Q651 -305 641 -305ZM438 368Q438 375 436 382Q434 389 428 393V358H438Z" glyph-name="Aogonek.salt_v" horiz-adv-x="1000" unicode="&#57846;" /><glyph d="M639 -265H528Q459 -265 432.5 -230Q406 -195 417 -118L438 -3V77H430V76Q430 63 426.5 54Q423 45 416 39L286 -69Q282 -73 273.5 -76Q265 -79 255 -79H108Q83 -79 72.5 -68Q62 -57 62 -33V211Q62 237 64 255.5Q66 274 70.5 290.5Q75 307 83 326Q91 345 102 374L178 581Q181 590 185.5 597.5Q190 605 196 609L326 718Q333 724 344 727Q355 730 368 730H627Q650 730 664.5 721.5Q679 713 686 691L773 484Q784 455 792 435.5Q800 416 804.5 399.5Q809 383 811 364.5Q813 346 813 320V76Q813 63 809.5 54Q806 45 799 39L757 4H765Q792 4 801.5 -5.5Q811 -15 811 -40V-112Q811 -125 808 -134Q805 -143 800 -148L669 -257Q665 -261 657 -263Q649 -265 639 -265Z" glyph-name="Aogonek.v" horiz-adv-x="1000" unicode="&#57746;" /><glyph d="M269 -1 139 -109Q135 -113 126.5 -116Q118 -119 108 -119H-39Q-63 -119 -74 -108Q-85 -97 -85 -73V191Q-85 222 -75.5 261.5Q-66 301 -45 355L37 569Q22 588 15.5 611.5Q9 635 9 662V720Q9 753 18 781Q27 809 52 829L182 938Q207 958 251.5 970Q296 982 365 982Q434 982 478.5 970.5Q523 959 548 939Q573 919 582.5 890.5Q592 862 592 829V771Q592 744 585.5 720.5Q579 697 564 678L646 464Q667 410 676.5 370.5Q686 331 686 300V36Q686 23 682.5 14Q679 5 672 -1L542 -109Q538 -113 529.5 -116Q521 -119 511 -119H360Q335 -119 323 -107.5Q311 -96 311 -73V57H283V36Q283 23 279.5 14Q276 5 269 -1Z" glyph-name="Aring" horiz-adv-x="730" unicode="&#197;" /><glyph d="M309 388Q309 397 305.5 404.5Q302 412 293 417V378H309ZM279 -1 149 -109Q145 -113 136.5 -116Q128 -119 118 -119H-29Q-53 -119 -64 -108Q-75 -97 -75 -73V422Q-75 469 -62.5 508Q-50 547 -16 575L17 603Q13 616 11 631Q9 646 9 662V720Q9 753 18 781Q27 809 52 829L182 938Q207 958 251.5 970Q296 982 365 982Q434 982 478.5 970.5Q523 959 548 939Q573 919 582.5 890.5Q592 862 592 829V771Q592 754 589.5 738.5Q587 723 582 709Q640 682 661 635.5Q682 589 682 531V36Q682 23 678.5 14Q675 5 668 -1L538 -109Q534 -113 525.5 -116Q517 -119 507 -119H355Q331 -119 320 -108Q309 -97 309 -73V66H293V36Q293 23 289.5 14Q286 5 279 -1Z" glyph-name="Aring.salt" horiz-adv-x="736" unicode="&#57606;" /><glyph d="M415 -1 285 -109Q281 -113 272.5 -116Q264 -119 254 -119H107Q83 -119 72 -108Q61 -97 61 -73V383Q61 431 73 470.5Q85 510 119 538L150 563Q146 576 143.5 591.5Q141 607 141 623V681Q141 714 150 742Q159 770 184 790L314 899Q339 919 383.5 931Q428 943 497 943Q566 943 610.5 931.5Q655 920 680 900Q705 880 714.5 851.5Q724 823 724 790V732Q724 715 721.5 699.5Q719 684 714 670Q771 643 790.5 596.5Q810 550 810 492V36Q810 23 806.5 14Q803 5 796 -1L666 -109Q662 -113 653.5 -116Q645 -119 635 -119H483Q459 -119 448 -108Q437 -97 437 -73V47H429V36Q429 23 425.5 14Q422 5 415 -1Z" glyph-name="Aring.salt_v" horiz-adv-x="1000" unicode="&#57843;" /><glyph d="M283 -109Q279 -113 270.5 -116Q262 -119 252 -119H106Q82 -119 71 -108Q60 -97 60 -73V161Q60 206 67.5 241Q75 276 90 314L150 488Q154 498 159.5 506.5Q165 515 172 521L176 524Q158 543 151 568.5Q144 594 144 622V680Q144 713 153 741Q162 769 187 789L317 898Q342 918 386.5 930Q431 942 500 942Q569 942 613.5 930.5Q658 919 683 899Q708 879 717.5 850.5Q727 822 727 789V731Q727 702 719.5 677Q712 652 695 633Q703 628 710 618.5Q717 609 721 596L781 424Q796 385 803.5 350Q811 315 811 270V36Q811 23 807.5 14Q804 5 797 -1L668 -110Q662 -114 654 -116.5Q646 -119 636 -119H482Q458 -119 447 -108Q436 -97 436 -73V37H427V36Q427 23 423.5 14Q420 5 413 -1Z" glyph-name="Aring.v" horiz-adv-x="1000" unicode="&#57743;" /><glyph d="M139 -109Q135 -113 126.5 -116Q118 -119 108 -119H-39Q-63 -119 -74 -108Q-85 -97 -85 -73V191Q-85 222 -75.5 261.5Q-66 301 -45 355L41 581Q44 590 48.5 596.5Q53 603 58 608L59 609L187 716Q195 723 206 726.5Q217 730 231 730H500Q523 730 537.5 720.5Q552 711 559 691L646 464Q667 410 676.5 370.5Q686 331 686 300V36Q686 23 682.5 14Q679 5 672 -1L542 -109Q538 -113 529.5 -116Q521 -119 511 -119H360Q335 -119 323 -107.5Q311 -96 311 -73V57H283V36Q283 23 279.5 14Q276 5 269 -1ZM411 648Q387 641 370 637.5Q353 634 337 634Q321 634 301 636.5Q281 639 250 643L234 645L206 649Q178 653 160 654.5Q142 656 127 654.5Q112 653 98 649.5Q84 646 65 640Q40 633 28 642Q16 651 16 676V777Q16 790 19.5 798.5Q23 807 31 814L160 922Q164 926 171.5 929.5Q179 933 187 936H188V937Q212 944 228.5 947.5Q245 951 261.5 951Q278 951 297.5 948.5Q317 946 348 942L365 940L387 937Q419 932 438 930Q457 928 471 929Q485 930 499 934Q513 938 534 945Q559 952 571 943Q583 934 583 909V808Q583 795 579 786.5Q575 778 568 772L438 663Q434 659 427 655.5Q420 652 412 649H411Z" glyph-name="Atilde" horiz-adv-x="730" unicode="&#195;" /><glyph d="M309 388Q309 397 305.5 404.5Q302 412 293 417V378H309ZM279 -1 149 -109Q145 -113 136.5 -116Q128 -119 118 -119H-29Q-53 -119 -64 -108Q-75 -97 -75 -73V422Q-75 469 -62.5 508.5Q-50 548 -16 576L114 684Q148 712 208.5 728.5Q269 745 367 745Q464 745 526 729Q588 713 622.5 685Q657 657 669.5 617.5Q682 578 682 531V36Q682 23 678.5 14Q675 5 668 -1L538 -109Q534 -113 525.5 -116Q517 -119 507 -119H355Q331 -119 320 -108Q309 -97 309 -73V66H293V36Q293 23 289.5 14Q286 5 279 -1ZM414 648Q390 641 373 637.5Q356 634 340 634Q324 634 304 636.5Q284 639 253 643L237 645L209 649Q181 653 163 654.5Q145 656 130 654.5Q115 653 101 649.5Q87 646 68 640Q43 633 31 642Q19 651 19 676V777Q19 790 22.5 798.5Q26 807 34 814L163 922Q167 926 174.5 929.5Q182 933 190 936H191V937Q215 944 231.5 947.5Q248 951 264.5 951Q281 951 300.5 948.5Q320 946 351 942L368 940L390 937Q422 932 441 930Q460 928 474 929Q488 930 502 934Q516 938 537 945Q562 952 574 943Q586 934 586 909V808Q586 795 582 786.5Q578 778 571 772L441 663Q437 659 430 655.5Q423 652 415 649H414Z" glyph-name="Atilde.salt" horiz-adv-x="736" unicode="&#57604;" /><glyph d="M438 368Q438 375 436 382Q434 389 428 393V358H438ZM414 -1 284 -109Q280 -113 271.5 -116Q263 -119 253 -119H106Q82 -119 71 -108Q60 -97 60 -73V382Q60 429 72.5 468.5Q85 508 119 536L248 645Q282 673 342 689Q402 705 499 705Q596 705 657.5 689Q719 673 753 645Q787 617 799 577.5Q811 538 811 491V36Q811 23 807.5 14Q804 5 797 -1L667 -109Q663 -113 654.5 -116Q646 -119 636 -119H484Q460 -119 449 -108Q438 -97 438 -73V46H428V36Q428 23 424.5 14Q421 5 414 -1ZM546 608Q522 601 505 597.5Q488 594 472 594Q456 594 436 596.5Q416 599 385 603L369 605L341 609Q313 613 295 614.5Q277 616 262 614.5Q247 613 233 609.5Q219 606 200 600Q175 593 163 602Q151 611 151 636V737Q151 750 154.5 758.5Q158 767 166 774L295 882Q299 886 306.5 889.5Q314 893 322 896H323V897Q347 904 363.5 907.5Q380 911 396.5 911Q413 911 432.5 908.5Q452 906 483 902L500 900L522 897Q554 892 573 890Q592 888 606 889Q620 890 634 894Q648 898 669 905Q694 912 706 903Q718 894 718 869V768Q718 755 714 746.5Q710 738 703 732L573 623Q569 619 562 615.5Q555 612 547 609H546Z" glyph-name="Atilde.salt_v" horiz-adv-x="1000" unicode="&#57841;" /><glyph d="M416 -1 286 -109Q282 -113 273.5 -116Q265 -119 255 -119H108Q83 -119 72.5 -108Q62 -97 62 -73V171Q62 197 64 215.5Q66 234 70.5 250.5Q75 267 83 286Q91 305 102 334L178 541Q181 550 185.5 557.5Q190 565 196 569L326 678Q333 684 344 687Q355 690 368 690H627Q650 690 664.5 681.5Q679 673 686 651L773 444Q784 415 792 395.5Q800 376 804.5 359.5Q809 343 811 324.5Q813 306 813 280V36Q813 23 809.5 14Q806 5 799 -1L669 -109Q665 -113 656.5 -116Q648 -119 638 -119H487Q463 -119 450.5 -107.5Q438 -96 438 -73V37H430V36Q430 23 426.5 14Q423 5 416 -1ZM547 608Q523 601 506 597.5Q489 594 473 594Q457 594 437 596.5Q417 599 386 603L370 605L342 609Q314 613 296 614.5Q278 616 263 614.5Q248 613 234 609.5Q220 606 201 600Q176 593 164 602Q152 611 152 636V737Q152 750 155.5 758.5Q159 767 167 774L296 882Q300 886 307.5 889.5Q315 893 323 896H324V897Q348 904 364.5 907.5Q381 911 397.5 911Q414 911 433.5 908.5Q453 906 484 902L501 900L523 897Q555 892 574 890Q593 888 607 889Q621 890 635 894Q649 898 670 905Q695 912 707 903Q719 894 719 869V768Q719 755 715 746.5Q711 738 704 732L574 623Q570 619 563 615.5Q556 612 548 609H547Z" glyph-name="Atilde.v" horiz-adv-x="1000" unicode="&#57741;" /><glyph d="M-24 -119Q-48 -119 -59 -108Q-70 -97 -70 -73V575Q-70 588 -66.5 597Q-63 606 -56 612L73 721Q78 725 86.5 727.5Q95 730 105 730H424Q528 730 577 689.5Q626 649 626 567V519Q626 484 616.5 459Q607 434 588 419L585 417Q639 405 666 365.5Q693 326 693 256V164Q693 119 680 86.5Q667 54 641 32L512 -77Q487 -98 449 -108.5Q411 -119 360 -119Z" glyph-name="B" horiz-adv-x="725" unicode="B" /><glyph d="M108 -118Q84 -118 73 -107Q62 -96 62 -72V576Q62 589 65.5 598Q69 607 76 613L205 722Q210 726 218.5 728.5Q227 731 237 731H547Q655 731 702 684Q749 637 749 568V520Q749 487 740 461.5Q731 436 711 419L708 417Q755 404 785.5 363.5Q816 323 816 257V165Q816 124 802.5 91Q789 58 761 35L632 -73Q607 -95 569.5 -106.5Q532 -118 483 -118Z" glyph-name="B.v" horiz-adv-x="1000" unicode="&#65314;" /><glyph d="M419 -119H175Q44 -119 -18.5 -66Q-81 -13 -81 95V406Q-81 461 -65 501.5Q-49 542 -18 569L112 678Q143 704 191 717Q239 730 304 730H548Q572 730 583 719Q594 708 594 684V563Q594 550 590.5 541Q587 532 580 526L450 418Q446 414 437.5 411Q429 408 419 408H296V239Q296 218 309 209.5Q322 201 347 201H548Q572 201 583 190Q594 179 594 155V36Q594 23 590.5 14Q587 5 580 -1L450 -109Q446 -113 437.5 -116Q429 -119 419 -119Z" glyph-name="C" horiz-adv-x="628" unicode="C" /><glyph d="M626 -119H313Q239 -119 189.5 -103Q140 -87 110.5 -59Q81 -31 69 8.5Q57 48 57 95V366Q57 417 71.5 459Q86 501 120 529L249 638Q278 663 325.5 676.5Q373 690 442 690H755Q779 690 790 679Q801 668 801 644V523Q801 510 797.5 501Q794 492 787 486L657 378Q653 374 644.5 371Q636 368 626 368H434V239Q434 222 444 211.5Q454 201 485 201H755Q779 201 790 190Q801 179 801 155V36Q801 23 797.5 14Q794 5 787 -1L657 -109Q653 -113 644.5 -116Q636 -119 626 -119Z" glyph-name="C.s_v" horiz-adv-x="1000" unicode="&#57927;" /><glyph d="M626 -119H313Q239 -119 189.5 -103Q140 -87 110.5 -59Q81 -31 69 8.5Q57 48 57 95V406Q57 457 71.5 499Q86 541 120 569L249 678Q278 703 325.5 716.5Q373 730 442 730H755Q779 730 790 719Q801 708 801 684V563Q801 550 797.5 541Q794 532 787 526L657 418Q653 414 644.5 411Q636 408 626 408H434V239Q434 222 444 211.5Q454 201 485 201H755Q779 201 790 190Q801 179 801 155V36Q801 23 797.5 14Q794 5 787 -1L657 -109Q653 -113 644.5 -116Q636 -119 626 -119Z" glyph-name="C.v" horiz-adv-x="1000" unicode="&#65315;" /><glyph d="M419 -119H175Q44 -119 -18.5 -66Q-81 -13 -81 95V406Q-81 461 -65 501.5Q-49 542 -18 569L112 678Q143 704 191 717Q239 730 304 730H548Q572 730 583 719Q594 708 594 684V563Q594 550 590.5 541Q587 532 580 526L450 418Q446 414 437.5 411Q429 408 419 408H296V239Q296 218 309 209.5Q322 201 347 201H548Q572 201 583 190Q594 179 594 155V36Q594 23 590.5 14Q587 5 580 -1L450 -109Q446 -113 437.5 -116Q429 -119 419 -119ZM71 634Q49 631 37.5 642.5Q26 654 26 677V773Q26 786 29.5 794.5Q33 803 39 808L169 917Q173 921 181.5 924Q190 927 200 928L549 971Q571 974 582.5 962.5Q594 951 594 928V832Q594 819 590.5 810Q587 801 580 797L451 688Q446 684 438 681.5Q430 679 420 677Z" glyph-name="Cacute" horiz-adv-x="628" unicode="&#262;" /><glyph d="M626 -119H313Q239 -119 189.5 -103Q140 -87 110.5 -59Q81 -31 69 8.5Q57 48 57 95V366Q57 417 71.5 459Q86 501 120 529L249 638Q278 663 325.5 676.5Q373 690 442 690H755Q779 690 790 679Q801 668 801 644V523Q801 510 797.5 501Q794 492 787 486L657 378Q653 374 644.5 371Q636 368 626 368H434V239Q434 222 444 211.5Q454 201 485 201H755Q779 201 790 190Q801 179 801 155V36Q801 23 797.5 14Q794 5 787 -1L657 -109Q653 -113 644.5 -116Q636 -119 626 -119ZM206 594Q184 591 172.5 602.5Q161 614 161 637V733Q161 746 164.5 754.5Q168 763 174 768L304 877Q308 881 316.5 884Q325 887 335 888L684 931Q706 934 717.5 922.5Q729 911 729 888V792Q729 779 725.5 770Q722 761 715 757L586 648Q581 644 573 641.5Q565 639 555 637Z" glyph-name="Cacute.v" horiz-adv-x="1000" unicode="&#57748;" /><glyph d="M419 -119H175Q44 -119 -18.5 -66Q-81 -13 -81 95V406Q-81 461 -65 501.5Q-49 542 -18 569L112 678Q143 704 191 717Q239 730 304 730H548Q572 730 583 719Q594 708 594 684V563Q594 550 590.5 541Q587 532 580 526L450 418Q446 414 437.5 411Q429 408 419 408H296V239Q296 218 309 209.5Q322 201 347 201H548Q572 201 583 190Q594 179 594 155V36Q594 23 590.5 14Q587 5 580 -1L450 -109Q446 -113 437.5 -116Q429 -119 419 -119ZM218 633H217Q207 633 198 634Q189 635 182 639L44 689Q14 700 5 710Q-4 720 -4 751V832Q-4 849 -1.5 859Q1 869 7 873L136 982Q141 986 151.5 986.5Q162 987 180 982L317 942Q333 938 345 938Q357 938 373 942L510 982Q543 992 553.5 984.5Q564 977 564 941V860Q564 841 560 831Q556 821 548 814L419 705Q413 701 405.5 697Q398 693 388 689H387L260 643Q250 639 239 636.5Q228 634 218 633Z" glyph-name="Ccaron" horiz-adv-x="628" unicode="&#268;" /><glyph d="M383 593H382Q372 593 363 594Q354 595 347 599L209 649Q179 660 170 670Q161 680 161 711V792Q161 809 163.5 819Q166 829 172 833L301 942Q306 946 316.5 946.5Q327 947 345 942L482 902Q498 898 510 898Q522 898 538 902L675 942Q708 952 718.5 944.5Q729 937 729 901V820Q729 801 725 791Q721 781 713 774L584 665Q578 661 570.5 657Q563 653 553 649H552L425 603Q415 599 404 596.5Q393 594 383 593ZM626 -119H313Q239 -119 189.5 -103Q140 -87 110.5 -59Q81 -31 69 8.5Q57 48 57 95V366Q57 417 71.5 459Q86 501 120 529L249 638Q278 663 325.5 676.5Q373 690 442 690H755Q779 690 790 679Q801 668 801 644V523Q801 510 797.5 501Q794 492 787 486L657 378Q653 374 644.5 371Q636 368 626 368H434V239Q434 222 444 211.5Q454 201 485 201H755Q779 201 790 190Q801 179 801 155V36Q801 23 797.5 14Q794 5 787 -1L657 -109Q653 -113 644.5 -116Q636 -119 626 -119Z" glyph-name="Ccaron.v" horiz-adv-x="1000" unicode="&#57751;" /><glyph d="M261 -245H135Q101 -245 94 -230Q87 -215 95 -192L123 -117Q19 -107 -31 -54.5Q-81 -2 -81 95V406Q-81 461 -65 501.5Q-49 542 -18 569L112 678Q143 704 191 717Q239 730 304 730H548Q572 730 583 719Q594 708 594 684V563Q594 550 590.5 541Q587 532 580 526L450 418Q446 414 437.5 411Q429 408 419 408H296V239Q296 218 309 209.5Q322 201 347 201H548Q572 201 583 190Q594 179 594 155V36Q594 23 590.5 14Q587 5 580 -1L450 -109Q448 -111 444.5 -113Q441 -115 437 -116Q436 -119 433.5 -121.5Q431 -124 429 -125L300 -233Q293 -239 283.5 -242Q274 -245 261 -245Z" glyph-name="Ccedilla" horiz-adv-x="628" unicode="&#199;" /><glyph d="M445 -193Q438 -199 428.5 -202Q419 -205 406 -205H280Q246 -205 239 -190Q232 -175 240 -152L268 -77Q147 -67 102 -9.5Q57 48 57 135V406Q57 457 71.5 499Q86 541 120 569L249 678Q278 703 325.5 716.5Q373 730 442 730H755Q779 730 790 719Q801 708 801 684V563Q801 550 797.5 541Q794 532 787 526L657 418Q653 414 644.5 411Q636 408 626 408H434V279Q434 262 444 251.5Q454 241 485 241H755Q779 241 790 230Q801 219 801 195V76Q801 63 797.5 54Q794 45 787 39L657 -69Q653 -73 644.5 -76Q636 -79 626 -79H580Q579 -80 577 -82Q575 -84 574 -85Z" glyph-name="Ccedilla.v" horiz-adv-x="1000" unicode="&#57747;" /><glyph d="M419 -119H175Q44 -119 -18.5 -66Q-81 -13 -81 95V406Q-81 461 -65 501.5Q-49 542 -18 569L112 678Q143 704 191 717Q239 730 304 730H548Q572 730 583 719Q594 708 594 684V563Q594 550 590.5 541Q587 532 580 526L450 418Q446 414 437.5 411Q429 408 419 408H296V239Q296 218 309 209.5Q322 201 347 201H548Q572 201 583 190Q594 179 594 155V36Q594 23 590.5 14Q587 5 580 -1L450 -109Q446 -113 437.5 -116Q429 -119 419 -119ZM50 638Q17 628 6.5 635.5Q-4 643 -4 679V760Q-4 779 -0.5 789Q3 799 10 806L141 915L140 914Q145 919 153.5 923Q162 927 173 931L300 977Q310 981 321.5 983.5Q333 986 343 987Q353 987 362 986Q371 985 378 981L516 931Q546 920 555 910Q564 900 564 869V788Q564 772 561 762Q558 752 554 748L553 747L423 639Q418 635 408 634.5Q398 634 380 638L243 678Q227 682 215 682Q203 682 187 678Z" glyph-name="Ccircumflex" horiz-adv-x="628" unicode="&#264;" /><glyph d="M215 598Q182 588 171.5 595.5Q161 603 161 639V720Q161 739 164.5 749Q168 759 175 766L306 875L305 874Q310 879 318.5 883Q327 887 338 891L465 937Q475 941 486.5 943.5Q498 946 508 947Q518 947 527 946Q536 945 543 941L681 891Q711 880 720 870Q729 860 729 829V748Q729 732 726 722Q723 712 719 708L718 707L588 599Q583 595 573 594.5Q563 594 545 598L408 638Q392 642 380 642Q368 642 352 638ZM626 -119H313Q239 -119 189.5 -103Q140 -87 110.5 -59Q81 -31 69 8.5Q57 48 57 95V366Q57 417 71.5 459Q86 501 120 529L249 638Q278 663 325.5 676.5Q373 690 442 690H755Q779 690 790 679Q801 668 801 644V523Q801 510 797.5 501Q794 492 787 486L657 378Q653 374 644.5 371Q636 368 626 368H434V239Q434 222 444 211.5Q454 201 485 201H755Q779 201 790 190Q801 179 801 155V36Q801 23 797.5 14Q794 5 787 -1L657 -109Q653 -113 644.5 -116Q636 -119 626 -119Z" glyph-name="Ccircumflex.v" horiz-adv-x="1000" unicode="&#57749;" /><glyph d="M419 -119H175Q44 -119 -18.5 -66Q-81 -13 -81 95V406Q-81 461 -65 501.5Q-49 542 -18 569L112 678Q143 704 191 717Q239 730 304 730H548Q572 730 583 719Q594 708 594 684V563Q594 550 590.5 541Q587 532 580 526L450 418Q446 414 437.5 411Q429 408 419 408H296V239Q296 218 309 209.5Q322 201 347 201H548Q572 201 583 190Q594 179 594 155V36Q594 23 590.5 14Q587 5 580 -1L450 -109Q446 -113 437.5 -116Q429 -119 419 -119ZM306 641H148Q124 641 113 652Q102 663 102 687V814Q102 827 105.5 836Q109 845 116 851L245 960Q250 964 258.5 966.5Q267 969 277 969H435Q459 969 470 958Q481 947 481 923V796Q481 783 477.5 774Q474 765 467 759L337 651Q333 647 324.5 644Q316 641 306 641Z" glyph-name="Cdotaccent" horiz-adv-x="628" unicode="&#266;" /><glyph d="M461 601H303Q279 601 268 612Q257 623 257 647V774Q257 787 260.5 796Q264 805 271 811L400 920Q405 924 413.5 926.5Q422 929 432 929H590Q614 929 625 918Q636 907 636 883V756Q636 743 632.5 734Q629 725 622 719L492 611Q488 607 479.5 604Q471 601 461 601ZM626 -119H313Q239 -119 189.5 -103Q140 -87 110.5 -59Q81 -31 69 8.5Q57 48 57 95V366Q57 417 71.5 459Q86 501 120 529L249 638Q278 663 325.5 676.5Q373 690 442 690H755Q779 690 790 679Q801 668 801 644V523Q801 510 797.5 501Q794 492 787 486L657 378Q653 374 644.5 371Q636 368 626 368H434V239Q434 222 444 211.5Q454 201 485 201H755Q779 201 790 190Q801 179 801 155V36Q801 23 797.5 14Q794 5 787 -1L657 -109Q653 -113 644.5 -116Q636 -119 626 -119Z" glyph-name="Cdotaccent.v" horiz-adv-x="1000" unicode="&#57750;" /><glyph d="M505 -66Q474 -92 426 -105.5Q378 -119 313 -119H-24Q-48 -119 -59 -108Q-70 -97 -70 -73V575Q-70 588 -66.5 597Q-63 606 -56 612L73 721Q78 725 86.5 727.5Q95 730 105 730H442Q573 730 635.5 677Q698 624 698 516V204Q698 150 682 109.5Q666 69 635 42ZM323 372Q323 385 319 394Q315 403 306 407V199H323Z" glyph-name="D" horiz-adv-x="746" unicode="D" /><glyph d="M623 -66Q593 -91 546 -105Q499 -119 430 -119H107Q83 -119 72 -108Q61 -97 61 -73V535Q61 548 64.5 557Q68 566 75 572L204 681Q209 685 217.5 687.5Q226 690 236 690H559Q633 690 682.5 674Q732 658 761.5 630Q791 602 803 562.5Q815 523 815 476V204Q815 154 800.5 112.5Q786 71 752 43ZM454 332Q454 345 450 354Q446 363 437 367V199H454Z" glyph-name="D.s_v" horiz-adv-x="1000" unicode="&#57928;" /><glyph d="M623 -66Q593 -91 546 -105Q499 -119 430 -119H107Q83 -119 72 -108Q61 -97 61 -73V575Q61 588 64.5 597Q68 606 75 612L204 721Q209 725 217.5 727.5Q226 730 236 730H559Q633 730 682.5 714Q732 698 761.5 670Q791 642 803 602.5Q815 563 815 516V204Q815 154 800.5 112.5Q786 71 752 43ZM454 372Q454 385 450 394Q446 403 437 407V199H454Z" glyph-name="D.v" horiz-adv-x="1000" unicode="&#65316;" /><glyph d="M505 -66Q474 -92 426 -105.5Q378 -119 313 -119H-24Q-48 -119 -59 -108Q-70 -97 -70 -73V575Q-70 588 -66.5 597Q-63 606 -56 612L73 721Q78 725 86.5 727.5Q95 730 105 730H442Q573 730 635.5 677Q698 624 698 516V204Q698 150 682 109.5Q666 69 635 42ZM323 372Q323 385 319 394Q315 403 306 407V199H323ZM246 633H245Q235 633 226 634Q217 635 210 639L72 689Q42 700 33 710Q24 720 24 751V832Q24 849 26.5 859Q29 869 35 873L164 982Q169 986 179.5 986.5Q190 987 208 982L345 942Q361 938 373 938Q385 938 401 942L538 982Q571 992 581.5 984.5Q592 977 592 941V860Q592 841 588 831Q584 821 576 814L447 705Q441 701 433.5 697Q426 693 416 689H415L288 643Q278 639 267 636.5Q256 634 246 633Z" glyph-name="Dcaron" horiz-adv-x="746" unicode="&#270;" /><glyph d="M623 -66Q593 -91 546 -105Q499 -119 430 -119H107Q83 -119 72 -108Q61 -97 61 -73V535Q61 548 64.5 557Q68 566 75 572L204 681Q209 685 217.5 687.5Q226 690 236 690H559Q633 690 682.5 674Q732 658 761.5 630Q791 602 803 562.5Q815 523 815 476V204Q815 154 800.5 112.5Q786 71 752 43ZM454 332Q454 345 450 354Q446 363 437 367V199H454ZM373 593H372Q362 593 353 594Q344 595 337 599L199 649Q169 660 160 670Q151 680 151 711V792Q151 809 153.5 819Q156 829 162 833L291 942Q296 946 306.5 946.5Q317 947 335 942L472 902Q488 898 500 898Q512 898 528 902L665 942Q698 952 708.5 944.5Q719 937 719 901V820Q719 801 715 791Q711 781 703 774L574 665Q568 661 560.5 657Q553 653 543 649H542L415 603Q405 599 394 596.5Q383 594 373 593Z" glyph-name="Dcaron.v" horiz-adv-x="1000" unicode="&#57752;" /><glyph d="M-14 -119Q-38 -119 -49 -108Q-60 -97 -60 -73V146H-73Q-97 146 -108 156.5Q-119 167 -119 192V299Q-119 312 -115.5 321Q-112 330 -105 336L-60 374V575Q-60 588 -56.5 597Q-53 606 -46 612L83 721Q88 725 96.5 727.5Q105 730 115 730H452Q526 730 575.5 714Q625 698 654.5 670Q684 642 696 602.5Q708 563 708 516V204Q708 154 693.5 112.5Q679 71 645 43L516 -66Q486 -91 439 -105Q392 -119 323 -119ZM333 199V228L313 211V199Z" glyph-name="Dcroat" horiz-adv-x="756" unicode="&#272;" /><glyph d="M107 -119Q83 -119 72 -108Q61 -97 61 -73V146H48Q24 146 13 156.5Q2 167 2 192V299Q2 312 5.5 321Q9 330 16 336L61 374V575Q61 588 64.5 597Q68 606 75 612L204 721Q209 725 217.5 727.5Q226 730 236 730H554Q628 730 677.5 714Q727 698 756.5 670Q786 642 798 602.5Q810 563 810 516V204Q810 154 795.5 112.5Q781 71 747 43L618 -66Q588 -91 541 -105Q494 -119 425 -119Z" glyph-name="Dcroat.v" horiz-adv-x="1000" unicode="&#57828;" /><glyph d="M505 -66Q474 -92 426 -105.5Q378 -119 313 -119H-24Q-48 -119 -59 -108Q-70 -97 -70 -73V575Q-70 588 -66.5 597Q-63 606 -56 612L73 721Q78 725 86.5 727.5Q95 730 105 730H442Q573 730 635.5 677Q698 624 698 516V204Q698 150 682 109.5Q666 69 635 42ZM323 372Q323 385 319 394Q315 403 306 407V199H323ZM323 -359H165Q141 -359 130 -348Q119 -337 119 -313V-186Q119 -173 122.5 -164Q126 -155 133 -149L262 -40Q267 -36 275.5 -33.5Q284 -31 294 -31H452Q476 -31 487 -42Q498 -53 498 -77V-204Q498 -217 494.5 -226Q491 -235 484 -241L354 -349Q350 -353 341.5 -356Q333 -359 323 -359Z" glyph-name="Ddotbelow" horiz-adv-x="746" unicode="&#7692;" /><glyph d="M511 -119H-39Q-63 -119 -74 -108Q-85 -97 -85 -73V61Q-85 106 -75.5 150Q-66 194 -56 233L31 573L32 574Q36 585 41.5 593.5Q47 602 54 607L183 716Q193 723 204.5 726.5Q216 730 232 730H499Q527 730 543 719Q559 708 569 683L570 682V681L657 342Q667 303 676.5 259Q686 215 686 170V36Q686 23 682.5 14Q679 5 672 -1L543 -110Q537 -114 529 -116.5Q521 -119 511 -119Z" glyph-name="Delta" horiz-adv-x="730" unicode="&#8710;" /><glyph d="M505 -66Q474 -92 426 -105.5Q378 -119 313 -119H-24Q-48 -119 -59 -108Q-70 -97 -70 -73V575Q-70 588 -66.5 597Q-63 606 -56 612L73 721Q78 725 86.5 727.5Q95 730 105 730H442Q573 730 635.5 677Q698 624 698 516V204Q698 150 682 109.5Q666 69 635 42ZM323 372Q323 385 319 394Q315 403 306 407V199H323ZM412 -341H65Q41 -341 30 -330Q19 -319 19 -295V-202Q19 -189 22.5 -180Q26 -171 33 -165L162 -56Q167 -52 175.5 -49.5Q184 -47 194 -47H541Q565 -47 576 -58Q587 -69 587 -93V-186Q587 -199 583.5 -208Q580 -217 573 -223L443 -331Q439 -335 430.5 -338Q422 -341 412 -341Z" glyph-name="Dlinebelow" horiz-adv-x="746" unicode="&#7694;" /><glyph d="M440 -119H-24Q-48 -119 -59 -108Q-70 -97 -70 -73V575Q-70 588 -66.5 597Q-63 606 -56 612L73 721Q78 725 86.5 727.5Q95 730 105 730H569Q593 730 604 719Q615 708 615 684V567Q615 554 611.5 545Q608 536 601 530L515 459Q525 454 529.5 444Q534 434 534 418V311Q534 298 530.5 289Q527 280 520 274L431 199H569Q593 199 604 188Q615 177 615 153V36Q615 23 611.5 14Q608 5 601 -1L471 -109Q467 -113 458.5 -116Q450 -119 440 -119Z" glyph-name="E" horiz-adv-x="654" unicode="E" /><glyph d="M625 -119H107Q83 -119 72 -108Q61 -97 61 -73V535Q61 548 64.5 557Q68 566 75 572L204 681Q209 685 217.5 687.5Q226 690 236 690H754Q778 690 789 679Q800 668 800 644V531Q800 518 796.5 509Q793 500 786 494L707 428Q713 423 716 414Q719 405 719 392V297Q719 284 715.5 275Q712 266 705 260L627 195H754Q778 195 789 184Q800 173 800 149V36Q800 23 796.5 14Q793 5 786 -1L656 -109Q652 -113 643.5 -116Q635 -119 625 -119Z" glyph-name="E.s_v" horiz-adv-x="1000" unicode="&#57929;" /><glyph d="M429 -119H175Q101 -119 51.5 -103Q2 -87 -27.5 -59Q-57 -31 -69 8.5Q-81 48 -81 95V406Q-81 457 -66.5 499Q-52 541 -18 569L111 678Q140 703 187.5 716.5Q235 730 304 730H558Q582 730 593 719Q604 708 604 684V567Q604 554 600.5 545Q597 536 590 530L505 459Q515 455 519.5 444.5Q524 434 524 418V311Q524 298 520.5 289Q517 280 510 274L421 199H558Q582 199 593 188Q604 177 604 153V36Q604 23 600.5 14Q597 5 590 -1L460 -109Q456 -113 447.5 -116Q439 -119 429 -119Z" glyph-name="E.salt" horiz-adv-x="643" unicode="&#57610;" /><glyph d="M625 -119H313Q239 -119 189.5 -103Q140 -87 110.5 -59Q81 -31 69 8.5Q57 48 57 95V366Q57 417 71.5 459Q86 501 120 529L249 638Q278 663 325.5 676.5Q373 690 442 690H754Q778 690 789 679Q800 668 800 644V531Q800 518 796.5 509Q793 500 786 494L707 428Q713 423 716 414Q719 405 719 392V297Q719 284 715.5 275Q712 266 705 260L627 195H754Q778 195 789 184Q800 173 800 149V36Q800 23 796.5 14Q793 5 786 -1L656 -109Q652 -113 643.5 -116Q635 -119 625 -119Z" glyph-name="E.salt_s_v" horiz-adv-x="1000" unicode="&#57946;" /><glyph d="M626 -119H313Q239 -119 189.5 -100Q140 -81 110.5 -49Q81 -17 69 25.5Q57 68 57 115V406Q57 457 71.5 499Q86 541 120 569L249 678Q278 703 325.5 716.5Q373 730 442 730H755Q779 730 790 719Q801 708 801 684V567Q801 554 797.5 545Q794 536 787 530L701 459Q711 454 715.5 444Q720 434 720 418V311Q720 298 716.5 289Q713 280 706 274L617 199H755Q779 199 790 188Q801 177 801 153V36Q801 23 797.5 14Q794 5 787 -1L657 -109Q653 -113 644.5 -116Q636 -119 626 -119Z" glyph-name="E.salt_v" horiz-adv-x="1000" unicode="&#57847;" /><glyph d="M626 -119H108Q84 -119 73 -108Q62 -97 62 -73V575Q62 588 65.5 597Q69 606 76 612L205 721Q210 725 218.5 727.5Q227 730 237 730H755Q779 730 790 719Q801 708 801 684V567Q801 554 797.5 545Q794 536 787 530L701 459Q711 454 715.5 444Q720 434 720 418V311Q720 298 716.5 289Q713 280 706 274L617 199H755Q779 199 790 188Q801 177 801 153V36Q801 23 797.5 14Q794 5 787 -1L657 -109Q653 -113 644.5 -116Q636 -119 626 -119Z" glyph-name="E.v" horiz-adv-x="1000" unicode="&#65317;" /><glyph d="M440 -119H-24Q-48 -119 -59 -108Q-70 -97 -70 -73V575Q-70 588 -66.5 597Q-63 606 -56 612L73 721Q78 725 86.5 727.5Q95 730 105 730H569Q593 730 604 719Q615 708 615 684V567Q615 554 611.5 545Q608 536 601 530L515 459Q525 454 529.5 444Q534 434 534 418V311Q534 298 530.5 289Q527 280 520 274L431 199H569Q593 199 604 188Q615 177 615 153V36Q615 23 611.5 14Q608 5 601 -1L471 -109Q467 -113 458.5 -116Q450 -119 440 -119ZM53 634Q31 631 19.5 642.5Q8 654 8 677V773Q8 786 11.5 794.5Q15 803 21 808L151 917Q155 921 163.5 924Q172 927 182 928L531 971Q553 974 564.5 962.5Q576 951 576 928V832Q576 819 572.5 810Q569 801 562 797L433 688Q428 684 420 681.5Q412 679 402 677Z" glyph-name="Eacute" horiz-adv-x="654" unicode="&#201;" /><glyph d="M429 -119H175Q101 -119 51.5 -103Q2 -87 -27.5 -59Q-57 -31 -69 8.5Q-81 48 -81 95V406Q-81 457 -66.5 499Q-52 541 -18 569L111 678Q140 703 187.5 716.5Q235 730 304 730H558Q582 730 593 719Q604 708 604 684V567Q604 554 600.5 545Q597 536 590 530L505 459Q515 455 519.5 444.5Q524 434 524 418V311Q524 298 520.5 289Q517 280 510 274L421 199H558Q582 199 593 188Q604 177 604 153V36Q604 23 600.5 14Q597 5 590 -1L460 -109Q456 -113 447.5 -116Q439 -119 429 -119ZM53 634Q31 631 19.5 642.5Q8 654 8 677V773Q8 786 11.5 794.5Q15 803 21 808L151 917Q155 921 163.5 924Q172 927 182 928L531 971Q553 974 564.5 962.5Q576 951 576 928V832Q576 819 572.5 810Q569 801 562 797L433 688Q428 684 420 681.5Q412 679 402 677Z" glyph-name="Eacute.salt" horiz-adv-x="643" unicode="&#57612;" /><glyph d="M196 594Q174 591 162.5 602.5Q151 614 151 637V733Q151 746 154.5 754.5Q158 763 164 768L294 877Q298 881 306.5 884Q315 887 325 888L674 931Q696 934 707.5 922.5Q719 911 719 888V792Q719 779 715.5 770Q712 761 705 757L576 648Q571 644 563 641.5Q555 639 545 637ZM625 -119H313Q239 -119 189.5 -103Q140 -87 110.5 -59Q81 -31 69 8.5Q57 48 57 95V366Q57 417 71.5 459Q86 501 120 529L249 638Q278 663 325.5 676.5Q373 690 442 690H754Q778 690 789 679Q800 668 800 644V531Q800 518 796.5 509Q793 500 786 494L707 428Q713 423 716 414Q719 405 719 392V297Q719 284 715.5 275Q712 266 705 260L627 195H754Q778 195 789 184Q800 173 800 149V36Q800 23 796.5 14Q793 5 786 -1L656 -109Q652 -113 643.5 -116Q635 -119 625 -119Z" glyph-name="Eacute.salt_v" horiz-adv-x="1000" unicode="&#57849;" /><glyph d="M196 594Q174 591 162.5 602.5Q151 614 151 637V733Q151 746 154.5 754.5Q158 763 164 768L294 877Q298 881 306.5 884Q315 887 325 888L674 931Q696 934 707.5 922.5Q719 911 719 888V792Q719 779 715.5 770Q712 761 705 757L576 648Q571 644 563 641.5Q555 639 545 637ZM625 -119H107Q83 -119 72 -108Q61 -97 61 -73V535Q61 548 64.5 557Q68 566 75 572L204 681Q209 685 217.5 687.5Q226 690 236 690H754Q778 690 789 679Q800 668 800 644V531Q800 518 796.5 509Q793 500 786 494L707 428Q713 423 716 414Q719 405 719 392V297Q719 284 715.5 275Q712 266 705 260L627 195H754Q778 195 789 184Q800 173 800 149V36Q800 23 796.5 14Q793 5 786 -1L656 -109Q652 -113 643.5 -116Q635 -119 625 -119Z" glyph-name="Eacute.v" horiz-adv-x="1000" unicode="&#57754;" /><glyph d="M440 -119H-24Q-48 -119 -59 -108Q-70 -97 -70 -73V575Q-70 588 -66.5 597Q-63 606 -56 612L73 721Q78 725 86.5 727.5Q95 730 105 730H569Q593 730 604 719Q615 708 615 684V567Q615 554 611.5 545Q608 536 601 530L515 459Q525 454 529.5 444Q534 434 534 418V311Q534 298 530.5 289Q527 280 520 274L431 199H569Q593 199 604 188Q615 177 615 153V36Q615 23 611.5 14Q608 5 601 -1L471 -109Q467 -113 458.5 -116Q450 -119 440 -119ZM218 635Q149 635 104.5 646.5Q60 658 35 678Q10 698 0.5 726.5Q-9 755 -9 788V832Q-9 845 -5.5 854Q-2 863 5 869L134 978Q139 982 147.5 984.5Q156 987 166 987H262Q283 987 292 978.5Q301 970 301 946V925Q301 918 305 912.5Q309 907 319 905L409 980L408 979Q412 983 419 985Q426 987 437 987H528Q552 987 563 976Q574 965 574 941V897Q574 864 564.5 836Q555 808 530 788L401 680Q376 659 332 647Q288 635 218 635Z" glyph-name="Ebreve" horiz-adv-x="654" unicode="&#276;" /><glyph d="M429 -119H175Q101 -119 51.5 -103Q2 -87 -27.5 -59Q-57 -31 -69 8.5Q-81 48 -81 95V406Q-81 457 -66.5 499Q-52 541 -18 569L111 678Q140 703 187.5 716.5Q235 730 304 730H558Q582 730 593 719Q604 708 604 684V567Q604 554 600.5 545Q597 536 590 530L505 459Q515 455 519.5 444.5Q524 434 524 418V311Q524 298 520.5 289Q517 280 510 274L421 199H558Q582 199 593 188Q604 177 604 153V36Q604 23 600.5 14Q597 5 590 -1L460 -109Q456 -113 447.5 -116Q439 -119 429 -119ZM228 635Q159 635 114.5 646.5Q70 658 45 678Q20 698 10.5 726.5Q1 755 1 788V832Q1 845 4.5 854Q8 863 15 869L144 978Q149 982 157.5 984.5Q166 987 176 987H272Q293 987 302 978.5Q311 970 311 946V925Q311 918 315 912.5Q319 907 329 905L419 980L418 979Q422 983 429 985Q436 987 447 987H538Q562 987 573 976Q584 965 584 941V897Q584 864 574.5 836Q565 808 540 788L411 680Q386 659 342 647Q298 635 228 635Z" glyph-name="Ebreve.salt" horiz-adv-x="643" unicode="&#57616;" /><glyph d="M625 -119H313Q239 -119 189.5 -103Q140 -87 110.5 -59Q81 -31 69 8.5Q57 48 57 95V366Q57 417 71.5 459Q86 501 120 529L249 638Q278 663 325.5 676.5Q373 690 442 690H754Q778 690 789 679Q800 668 800 644V531Q800 518 796.5 509Q793 500 786 494L707 428Q713 423 716 414Q719 405 719 392V297Q719 284 715.5 275Q712 266 705 260L627 195H754Q778 195 789 184Q800 173 800 149V36Q800 23 796.5 14Q793 5 786 -1L656 -109Q652 -113 643.5 -116Q635 -119 625 -119ZM371 595Q302 595 257.5 606.5Q213 618 188 638Q163 658 153.5 686.5Q144 715 144 748V792Q144 805 147.5 814Q151 823 158 829L287 938Q292 942 300.5 944.5Q309 947 319 947H415Q436 947 445 938.5Q454 930 454 906V885Q454 878 458 872.5Q462 867 472 865L562 940L561 939Q565 943 572 945Q579 947 590 947H681Q705 947 716 936Q727 925 727 901V857Q727 824 717.5 796Q708 768 683 748L554 640Q529 619 485 607Q441 595 371 595Z" glyph-name="Ebreve.salt_v" horiz-adv-x="1000" unicode="&#57853;" /><glyph d="M625 -119H107Q83 -119 72 -108Q61 -97 61 -73V535Q61 548 64.5 557Q68 566 75 572L204 681Q209 685 217.5 687.5Q226 690 236 690H754Q778 690 789 679Q800 668 800 644V531Q800 518 796.5 509Q793 500 786 494L707 428Q713 423 716 414Q719 405 719 392V297Q719 284 715.5 275Q712 266 705 260L627 195H754Q778 195 789 184Q800 173 800 149V36Q800 23 796.5 14Q793 5 786 -1L656 -109Q652 -113 643.5 -116Q635 -119 625 -119ZM371 595Q302 595 257.5 606.5Q213 618 188 638Q163 658 153.5 686.5Q144 715 144 748V792Q144 805 147.5 814Q151 823 158 829L287 938Q292 942 300.5 944.5Q309 947 319 947H415Q436 947 445 938.5Q454 930 454 906V885Q454 878 458 872.5Q462 867 472 865L562 940L561 939Q565 943 572 945Q579 947 590 947H681Q705 947 716 936Q727 925 727 901V857Q727 824 717.5 796Q708 768 683 748L554 640Q529 619 485 607Q441 595 371 595Z" glyph-name="Ebreve.v" horiz-adv-x="1000" unicode="&#57758;" /><glyph d="M440 -119H-24Q-48 -119 -59 -108Q-70 -97 -70 -73V575Q-70 588 -66.5 597Q-63 606 -56 612L73 721Q78 725 86.5 727.5Q95 730 105 730H569Q593 730 604 719Q615 708 615 684V567Q615 554 611.5 545Q608 536 601 530L515 459Q525 454 529.5 444Q534 434 534 418V311Q534 298 530.5 289Q527 280 520 274L431 199H569Q593 199 604 188Q615 177 615 153V36Q615 23 611.5 14Q608 5 601 -1L471 -109Q467 -113 458.5 -116Q450 -119 440 -119ZM217 633H216Q206 633 197 634Q188 635 181 639L43 689Q13 700 4 710Q-5 720 -5 751V832Q-5 849 -2.5 859Q0 869 6 873L135 982Q140 986 150.5 986.5Q161 987 179 982L316 942Q332 938 344 938Q356 938 372 942L509 982Q542 992 552.5 984.5Q563 977 563 941V860Q563 841 559 831Q555 821 547 814L418 705Q412 701 404.5 697Q397 693 387 689H386L259 643Q249 639 238 636.5Q227 634 217 633Z" glyph-name="Ecaron" horiz-adv-x="654" unicode="&#282;" /><glyph d="M429 -119H175Q101 -119 51.5 -103Q2 -87 -27.5 -59Q-57 -31 -69 8.5Q-81 48 -81 95V406Q-81 457 -66.5 499Q-52 541 -18 569L111 678Q140 703 187.5 716.5Q235 730 304 730H558Q582 730 593 719Q604 708 604 684V567Q604 554 600.5 545Q597 536 590 530L505 459Q515 455 519.5 444.5Q524 434 524 418V311Q524 298 520.5 289Q517 280 510 274L421 199H558Q582 199 593 188Q604 177 604 153V36Q604 23 600.5 14Q597 5 590 -1L460 -109Q456 -113 447.5 -116Q439 -119 429 -119ZM227 633H226Q216 633 207 634Q198 635 191 639L53 689Q23 700 14 710Q5 720 5 751V832Q5 849 7.5 859Q10 869 16 873L145 982Q150 986 160.5 986.5Q171 987 189 982L326 942Q342 938 354 938Q366 938 382 942L519 982Q552 992 562.5 984.5Q573 977 573 941V860Q573 841 569 831Q565 821 557 814L428 705Q422 701 414.5 697Q407 693 397 689H396L269 643Q259 639 248 636.5Q237 634 227 633Z" glyph-name="Ecaron.salt" horiz-adv-x="643" unicode="&#57619;" /><glyph d="M625 -119H313Q239 -119 189.5 -103Q140 -87 110.5 -59Q81 -31 69 8.5Q57 48 57 95V366Q57 417 71.5 459Q86 501 120 529L249 638Q278 663 325.5 676.5Q373 690 442 690H754Q778 690 789 679Q800 668 800 644V531Q800 518 796.5 509Q793 500 786 494L707 428Q713 423 716 414Q719 405 719 392V297Q719 284 715.5 275Q712 266 705 260L627 195H754Q778 195 789 184Q800 173 800 149V36Q800 23 796.5 14Q793 5 786 -1L656 -109Q652 -113 643.5 -116Q635 -119 625 -119ZM373 593H372Q362 593 353 594Q344 595 337 599L199 649Q169 660 160 670Q151 680 151 711V792Q151 809 153.5 819Q156 829 162 833L291 942Q296 946 306.5 946.5Q317 947 335 942L472 902Q488 898 500 898Q512 898 528 902L665 942Q698 952 708.5 944.5Q719 937 719 901V820Q719 801 715 791Q711 781 703 774L574 665Q568 661 560.5 657Q553 653 543 649H542L415 603Q405 599 394 596.5Q383 594 373 593Z" glyph-name="Ecaron.salt_v" horiz-adv-x="1000" unicode="&#57856;" /><glyph d="M625 -119H107Q83 -119 72 -108Q61 -97 61 -73V535Q61 548 64.5 557Q68 566 75 572L204 681Q209 685 217.5 687.5Q226 690 236 690H754Q778 690 789 679Q800 668 800 644V531Q800 518 796.5 509Q793 500 786 494L707 428Q713 423 716 414Q719 405 719 392V297Q719 284 715.5 275Q712 266 705 260L627 195H754Q778 195 789 184Q800 173 800 149V36Q800 23 796.5 14Q793 5 786 -1L656 -109Q652 -113 643.5 -116Q635 -119 625 -119ZM373 593H372Q362 593 353 594Q344 595 337 599L199 649Q169 660 160 670Q151 680 151 711V792Q151 809 153.5 819Q156 829 162 833L291 942Q296 946 306.5 946.5Q317 947 335 942L472 902Q488 898 500 898Q512 898 528 902L665 942Q698 952 708.5 944.5Q719 937 719 901V820Q719 801 715 791Q711 781 703 774L574 665Q568 661 560.5 657Q553 653 543 649H542L415 603Q405 599 394 596.5Q383 594 373 593Z" glyph-name="Ecaron.v" horiz-adv-x="1000" unicode="&#57761;" /><glyph d="M440 -119H-24Q-48 -119 -59 -108Q-70 -97 -70 -73V575Q-70 588 -66.5 597Q-63 606 -56 612L73 721Q78 725 86.5 727.5Q95 730 105 730H569Q593 730 604 719Q615 708 615 684V567Q615 554 611.5 545Q608 536 601 530L515 459Q525 454 529.5 444Q534 434 534 418V311Q534 298 530.5 289Q527 280 520 274L431 199H569Q593 199 604 188Q615 177 615 153V36Q615 23 611.5 14Q608 5 601 -1L471 -109Q467 -113 458.5 -116Q450 -119 440 -119ZM42 638Q9 628 -1.5 635.5Q-12 643 -12 679V760Q-12 779 -8.5 789Q-5 799 2 806L133 915L132 914Q137 919 145.5 923Q154 927 165 931L292 977Q302 981 313.5 983.5Q325 986 335 987Q345 987 354 986Q363 985 370 981L508 931Q538 920 547 910Q556 900 556 869V788Q556 772 553 762Q550 752 546 748L545 747L415 639Q410 635 400 634.5Q390 634 372 638L235 678Q219 682 207 682Q195 682 179 678Z" glyph-name="Ecircumflex" horiz-adv-x="654" unicode="&#202;" /><glyph d="M429 -119H175Q101 -119 51.5 -103Q2 -87 -27.5 -59Q-57 -31 -69 8.5Q-81 48 -81 95V406Q-81 457 -66.5 499Q-52 541 -18 569L111 678Q140 703 187.5 716.5Q235 730 304 730H558Q582 730 593 719Q604 708 604 684V567Q604 554 600.5 545Q597 536 590 530L505 459Q515 455 519.5 444.5Q524 434 524 418V311Q524 298 520.5 289Q517 280 510 274L421 199H558Q582 199 593 188Q604 177 604 153V36Q604 23 600.5 14Q597 5 590 -1L460 -109Q456 -113 447.5 -116Q439 -119 429 -119ZM52 638Q19 628 8.5 635.5Q-2 643 -2 679V760Q-2 779 1.5 789Q5 799 12 806L143 915L142 914Q147 919 155.5 923Q164 927 175 931L302 977Q312 981 323.5 983.5Q335 986 345 987Q355 987 364 986Q373 985 380 981L518 931Q548 920 557 910Q566 900 566 869V788Q566 772 563 762Q560 752 556 748L555 747L425 639Q420 635 410 634.5Q400 634 382 638L245 678Q229 682 217 682Q205 682 189 678Z" glyph-name="Ecircumflex.salt" horiz-adv-x="643" unicode="&#57613;" /><glyph d="M205 598Q172 588 161.5 595.5Q151 603 151 639V720Q151 739 154.5 749Q158 759 165 766L296 875L295 874Q300 879 308.5 883Q317 887 328 891L455 937Q465 941 476.5 943.5Q488 946 498 947Q508 947 517 946Q526 945 533 941L671 891Q701 880 710 870Q719 860 719 829V748Q719 732 716 722Q713 712 709 708L708 707L578 599Q573 595 563 594.5Q553 594 535 598L398 638Q382 642 370 642Q358 642 342 638ZM625 -119H313Q239 -119 189.5 -103Q140 -87 110.5 -59Q81 -31 69 8.5Q57 48 57 95V366Q57 417 71.5 459Q86 501 120 529L249 638Q278 663 325.5 676.5Q373 690 442 690H754Q778 690 789 679Q800 668 800 644V531Q800 518 796.5 509Q793 500 786 494L707 428Q713 423 716 414Q719 405 719 392V297Q719 284 715.5 275Q712 266 705 260L627 195H754Q778 195 789 184Q800 173 800 149V36Q800 23 796.5 14Q793 5 786 -1L656 -109Q652 -113 643.5 -116Q635 -119 625 -119Z" glyph-name="Ecircumflex.salt_v" horiz-adv-x="1000" unicode="&#57850;" /><glyph d="M205 598Q172 588 161.5 595.5Q151 603 151 639V720Q151 739 154.5 749Q158 759 165 766L296 875L295 874Q300 879 308.5 883Q317 887 328 891L455 937Q465 941 476.5 943.5Q488 946 498 947Q508 947 517 946Q526 945 533 941L671 891Q701 880 710 870Q719 860 719 829V748Q719 732 716 722Q713 712 709 708L708 707L578 599Q573 595 563 594.5Q553 594 535 598L398 638Q382 642 370 642Q358 642 342 638ZM625 -119H107Q83 -119 72 -108Q61 -97 61 -73V535Q61 548 64.5 557Q68 566 75 572L204 681Q209 685 217.5 687.5Q226 690 236 690H754Q778 690 789 679Q800 668 800 644V531Q800 518 796.5 509Q793 500 786 494L707 428Q713 423 716 414Q719 405 719 392V297Q719 284 715.5 275Q712 266 705 260L627 195H754Q778 195 789 184Q800 173 800 149V36Q800 23 796.5 14Q793 5 786 -1L656 -109Q652 -113 643.5 -116Q635 -119 625 -119Z" glyph-name="Ecircumflex.v" horiz-adv-x="1000" unicode="&#57755;" /><glyph d="M440 -119H-24Q-48 -119 -59 -108Q-70 -97 -70 -73V575Q-70 588 -66.5 597Q-63 606 -56 612L73 721Q78 725 86.5 727.5Q95 730 105 730H569Q593 730 604 719Q615 708 615 684V567Q615 554 611.5 545Q608 536 601 530L515 459Q525 454 529.5 444Q534 434 534 418V311Q534 298 530.5 289Q527 280 520 274L431 199H569Q593 199 604 188Q615 177 615 153V36Q615 23 611.5 14Q608 5 601 -1L471 -109Q467 -113 458.5 -116Q450 -119 440 -119ZM42 638Q9 628 -1.5 635.5Q-12 643 -12 679V760Q-12 779 -8.5 789Q-5 799 2 806L133 915L132 914Q137 919 145.5 923Q154 927 165 931L292 977Q302 981 313.5 983.5Q325 986 335 987Q345 987 354 986Q363 985 370 981L508 931Q538 920 547 910Q556 900 556 869V788Q556 772 553 762Q550 752 546 748L545 747L415 639Q410 635 400 634.5Q390 634 372 638L235 678Q219 682 207 682Q195 682 179 678ZM286 875Q265 871 252.5 882.5Q240 894 240 918V1024Q240 1037 243.5 1045Q247 1053 253 1058L382 1166Q387 1170 395 1173Q403 1176 413 1179L550 1212Q571 1216 583.5 1204.5Q596 1193 596 1169V1063Q596 1050 592.5 1042.5Q589 1035 583 1030L453 921Q449 917 441 914Q433 911 423 908Z" glyph-name="Ecircumflexacute" horiz-adv-x="654" unicode="&#7870;" /><glyph d="M440 -119H-24Q-48 -119 -59 -108Q-70 -97 -70 -73V575Q-70 588 -66.5 597Q-63 606 -56 612L73 721Q78 725 86.5 727.5Q95 730 105 730H569Q593 730 604 719Q615 708 615 684V567Q615 554 611.5 545Q608 536 601 530L515 459Q525 454 529.5 444Q534 434 534 418V311Q534 298 530.5 289Q527 280 520 274L431 199H569Q593 199 604 188Q615 177 615 153V36Q615 23 611.5 14Q608 5 601 -1L471 -109Q467 -113 458.5 -116Q450 -119 440 -119ZM42 638Q9 628 -1.5 635.5Q-12 643 -12 679V760Q-12 779 -8.5 789Q-5 799 2 806L133 915L132 914Q137 919 145.5 923Q154 927 165 931L292 977Q302 981 313.5 983.5Q325 986 335 987Q345 987 354 986Q363 985 370 981L508 931Q538 920 547 910Q556 900 556 869V788Q556 772 553 762Q550 752 546 748L545 747L415 639Q410 635 400 634.5Q390 634 372 638L235 678Q219 682 207 682Q195 682 179 678ZM277 -359H119Q95 -359 84 -348Q73 -337 73 -313V-186Q73 -173 76.5 -164Q80 -155 87 -149L216 -40Q221 -36 229.5 -33.5Q238 -31 248 -31H406Q430 -31 441 -42Q452 -53 452 -77V-204Q452 -217 448.5 -226Q445 -235 438 -241L308 -349Q304 -353 295.5 -356Q287 -359 277 -359Z" glyph-name="Ecircumflexdotbelow" horiz-adv-x="654" unicode="&#7878;" /><glyph d="M440 -119H-24Q-48 -119 -59 -108Q-70 -97 -70 -73V575Q-70 588 -66.5 597Q-63 606 -56 612L73 721Q78 725 86.5 727.5Q95 730 105 730H569Q593 730 604 719Q615 708 615 684V567Q615 554 611.5 545Q608 536 601 530L515 459Q525 454 529.5 444Q534 434 534 418V311Q534 298 530.5 289Q527 280 520 274L431 199H569Q593 199 604 188Q615 177 615 153V36Q615 23 611.5 14Q608 5 601 -1L471 -109Q467 -113 458.5 -116Q450 -119 440 -119ZM42 638Q9 628 -1.5 635.5Q-12 643 -12 679V760Q-12 779 -8.5 789Q-5 799 2 806L133 915L132 914Q137 919 145.5 923Q154 927 165 931L292 977Q302 981 313.5 983.5Q325 986 335 987Q345 987 354 986Q363 985 370 981L508 931Q538 920 547 910Q556 900 556 869V788Q556 772 553 762Q550 752 546 748L545 747L415 639Q410 635 400 634.5Q390 634 372 638L235 678Q219 682 207 682Q195 682 179 678ZM431 857Q425 852 417 850Q409 848 400 850L263 883Q240 889 229.5 897.5Q219 906 219 929V1035Q219 1048 222.5 1057Q226 1066 233 1072L363 1181Q368 1185 376 1187Q384 1189 394 1187L531 1154Q554 1148 564.5 1139.5Q575 1131 575 1108V1002Q575 989 571 980Q567 971 560 965Z" glyph-name="Ecircumflexgrave" horiz-adv-x="654" unicode="&#7872;" /><glyph d="M440 -119H-24Q-48 -119 -59 -108Q-70 -97 -70 -73V575Q-70 588 -66.5 597Q-63 606 -56 612L73 721Q78 725 86.5 727.5Q95 730 105 730H569Q593 730 604 719Q615 708 615 684V567Q615 554 611.5 545Q608 536 601 530L515 459Q525 454 529.5 444Q534 434 534 418V311Q534 298 530.5 289Q527 280 520 274L431 199H569Q593 199 604 188Q615 177 615 153V36Q615 23 611.5 14Q608 5 601 -1L471 -109Q467 -113 458.5 -116Q450 -119 440 -119ZM42 638Q9 628 -1.5 635.5Q-12 643 -12 679V760Q-12 779 -8.5 789Q-5 799 2 806L133 915L132 914Q137 919 145.5 923Q154 927 165 931L292 977Q302 981 313.5 983.5Q325 986 335 987Q345 987 354 986Q363 985 370 981L508 931Q538 920 547 910Q556 900 556 869V788Q556 772 553 762Q550 752 546 748L545 747L415 639Q410 635 400 634.5Q390 634 372 638L235 678Q219 682 207 682Q195 682 179 678ZM322 853Q307 851 299.5 856.5Q292 862 290 877V878L279 956Q277 965 279.5 971.5Q282 978 286 982L324 1014H266Q251 1014 244 1021Q237 1028 237 1043V1116Q237 1124 239.5 1129.5Q242 1135 246 1139L375 1248Q379 1251 383.5 1252.5Q388 1254 395 1254H563Q619 1254 650 1225Q681 1196 681 1142V1078Q681 1051 673 1033.5Q665 1016 652 1004L523 895Q512 886 496.5 880.5Q481 875 462 872Z" glyph-name="Ecircumflexhookabove" horiz-adv-x="654" unicode="&#7874;" /><glyph d="M440 -119H-24Q-48 -119 -59 -108Q-70 -97 -70 -73V575Q-70 588 -66.5 597Q-63 606 -56 612L73 721Q78 725 86.5 727.5Q95 730 105 730H569Q593 730 604 719Q615 708 615 684V567Q615 554 611.5 545Q608 536 601 530L515 459Q525 454 529.5 444Q534 434 534 418V311Q534 298 530.5 289Q527 280 520 274L431 199H569Q593 199 604 188Q615 177 615 153V36Q615 23 611.5 14Q608 5 601 -1L471 -109Q467 -113 458.5 -116Q450 -119 440 -119ZM42 638Q9 628 -1.5 635.5Q-12 643 -12 679V760Q-12 779 -8.5 789Q-5 799 2 806L133 915L132 914Q137 919 145.5 923Q154 927 165 931L292 977Q302 981 313.5 983.5Q325 986 335 987Q345 987 354 986Q363 985 370 981L508 931Q538 920 547 910Q556 900 556 869V788Q556 772 553 762Q550 752 546 748L545 747L415 639Q410 635 400 634.5Q390 634 372 638L235 678Q219 682 207 682Q195 682 179 678ZM383 898Q359 891 342 887.5Q325 884 309 884Q293 884 273 886.5Q253 889 222 893L206 895L178 899Q150 903 132 904.5Q114 906 99 904.5Q84 903 70 899.5Q56 896 37 890Q12 883 0 892Q-12 901 -12 926V1027Q-12 1040 -8.5 1048.5Q-5 1057 3 1064L132 1172Q136 1176 143.5 1179.5Q151 1183 159 1186H160V1187Q184 1194 200.5 1197.5Q217 1201 233.5 1201Q250 1201 269.5 1198.5Q289 1196 320 1192L337 1190L359 1187Q391 1182 410 1180Q429 1178 443 1179Q457 1180 471 1184Q485 1188 506 1195Q531 1202 543 1193Q555 1184 555 1159V1058Q555 1045 551 1036.5Q547 1028 540 1022L410 913Q406 909 399 905.5Q392 902 384 899H383Z" glyph-name="Ecircumflextilde" horiz-adv-x="654" unicode="&#7876;" /><glyph d="M440 -119H-24Q-48 -119 -59 -108Q-70 -97 -70 -73V575Q-70 588 -66.5 597Q-63 606 -56 612L73 721Q78 725 86.5 727.5Q95 730 105 730H569Q593 730 604 719Q615 708 615 684V567Q615 554 611.5 545Q608 536 601 530L515 459Q525 454 529.5 444Q534 434 534 418V311Q534 298 530.5 289Q527 280 520 274L431 199H569Q593 199 604 188Q615 177 615 153V36Q615 23 611.5 14Q608 5 601 -1L471 -109Q467 -113 458.5 -116Q450 -119 440 -119ZM233 690 186 651Q181 646 173.5 643.5Q166 641 156 641H18Q-4 641 -15 651.5Q-26 662 -26 684V805Q-26 818 -22.5 826Q-19 834 -13 839L116 948Q121 952 129 954.5Q137 957 147 957H285Q307 957 317.5 946.5Q328 936 328 914V908L375 948Q380 952 387.5 954.5Q395 957 405 957H543Q565 957 575.5 946.5Q586 936 586 914V793Q586 781 582.5 772.5Q579 764 573 759L444 651Q439 646 431.5 643.5Q424 641 414 641H276Q254 641 243.5 651.5Q233 662 233 684Z" glyph-name="Edieresis" horiz-adv-x="654" unicode="&#203;" /><glyph d="M429 -119H175Q101 -119 51.5 -103Q2 -87 -27.5 -59Q-57 -31 -69 8.5Q-81 48 -81 95V406Q-81 457 -66.5 499Q-52 541 -18 569L111 678Q140 703 187.5 716.5Q235 730 304 730H558Q582 730 593 719Q604 708 604 684V567Q604 554 600.5 545Q597 536 590 530L505 459Q515 455 519.5 444.5Q524 434 524 418V311Q524 298 520.5 289Q517 280 510 274L421 199H558Q582 199 593 188Q604 177 604 153V36Q604 23 600.5 14Q597 5 590 -1L460 -109Q456 -113 447.5 -116Q439 -119 429 -119ZM243 690 196 651Q191 646 183.5 643.5Q176 641 166 641H28Q6 641 -5 651.5Q-16 662 -16 684V805Q-16 818 -12.5 826Q-9 834 -3 839L126 948Q131 952 139 954.5Q147 957 157 957H295Q317 957 327.5 946.5Q338 936 338 914V908L385 948Q390 952 397.5 954.5Q405 957 415 957H553Q575 957 585.5 946.5Q596 936 596 914V793Q596 781 592.5 772.5Q589 764 583 759L454 651Q449 646 441.5 643.5Q434 641 424 641H286Q264 641 253.5 651.5Q243 662 243 684Z" glyph-name="Edieresis.salt" horiz-adv-x="643" unicode="&#57614;" /><glyph d="M625 -119H313Q239 -119 189.5 -103Q140 -87 110.5 -59Q81 -31 69 8.5Q57 48 57 95V366Q57 417 71.5 459Q86 501 120 529L249 638Q278 663 325.5 676.5Q373 690 442 690H754Q778 690 789 679Q800 668 800 644V531Q800 518 796.5 509Q793 500 786 494L707 428Q713 423 716 414Q719 405 719 392V297Q719 284 715.5 275Q712 266 705 260L627 195H754Q778 195 789 184Q800 173 800 149V36Q800 23 796.5 14Q793 5 786 -1L656 -109Q652 -113 643.5 -116Q635 -119 625 -119ZM386 650 339 611Q334 606 326.5 603.5Q319 601 309 601H171Q149 601 138 611.5Q127 622 127 644V765Q127 778 130.5 786Q134 794 140 799L269 908Q274 912 282 914.5Q290 917 300 917H438Q460 917 470.5 906.5Q481 896 481 874V868L528 908Q533 912 540.5 914.5Q548 917 558 917H696Q718 917 728.5 906.5Q739 896 739 874V753Q739 741 735.5 732.5Q732 724 726 719L597 611Q592 606 584.5 603.5Q577 601 567 601H429Q407 601 396.5 611.5Q386 622 386 644Z" glyph-name="Edieresis.salt_v" horiz-adv-x="1000" unicode="&#57851;" /><glyph d="M625 -119H107Q83 -119 72 -108Q61 -97 61 -73V535Q61 548 64.5 557Q68 566 75 572L204 681Q209 685 217.5 687.5Q226 690 236 690H754Q778 690 789 679Q800 668 800 644V531Q800 518 796.5 509Q793 500 786 494L707 428Q713 423 716 414Q719 405 719 392V297Q719 284 715.5 275Q712 266 705 260L627 195H754Q778 195 789 184Q800 173 800 149V36Q800 23 796.5 14Q793 5 786 -1L656 -109Q652 -113 643.5 -116Q635 -119 625 -119ZM386 650 339 611Q334 606 326.5 603.5Q319 601 309 601H171Q149 601 138 611.5Q127 622 127 644V765Q127 778 130.5 786Q134 794 140 799L269 908Q274 912 282 914.5Q290 917 300 917H438Q460 917 470.5 906.5Q481 896 481 874V868L528 908Q533 912 540.5 914.5Q548 917 558 917H696Q718 917 728.5 906.5Q739 896 739 874V753Q739 741 735.5 732.5Q732 724 726 719L597 611Q592 606 584.5 603.5Q577 601 567 601H429Q407 601 396.5 611.5Q386 622 386 644Z" glyph-name="Edieresis.v" horiz-adv-x="1000" unicode="&#57756;" /><glyph d="M440 -119H-24Q-48 -119 -59 -108Q-70 -97 -70 -73V575Q-70 588 -66.5 597Q-63 606 -56 612L73 721Q78 725 86.5 727.5Q95 730 105 730H569Q593 730 604 719Q615 708 615 684V567Q615 554 611.5 545Q608 536 601 530L515 459Q525 454 529.5 444Q534 434 534 418V311Q534 298 530.5 289Q527 280 520 274L431 199H569Q593 199 604 188Q615 177 615 153V36Q615 23 611.5 14Q608 5 601 -1L471 -109Q467 -113 458.5 -116Q450 -119 440 -119ZM276 641H118Q94 641 83 652Q72 663 72 687V814Q72 827 75.5 836Q79 845 86 851L215 960Q220 964 228.5 966.5Q237 969 247 969H405Q429 969 440 958Q451 947 451 923V796Q451 783 447.5 774Q444 765 437 759L307 651Q303 647 294.5 644Q286 641 276 641Z" glyph-name="Edotaccent" horiz-adv-x="654" unicode="&#278;" /><glyph d="M429 -119H175Q101 -119 51.5 -103Q2 -87 -27.5 -59Q-57 -31 -69 8.5Q-81 48 -81 95V406Q-81 457 -66.5 499Q-52 541 -18 569L111 678Q140 703 187.5 716.5Q235 730 304 730H558Q582 730 593 719Q604 708 604 684V567Q604 554 600.5 545Q597 536 590 530L505 459Q515 455 519.5 444.5Q524 434 524 418V311Q524 298 520.5 289Q517 280 510 274L421 199H558Q582 199 593 188Q604 177 604 153V36Q604 23 600.5 14Q597 5 590 -1L460 -109Q456 -113 447.5 -116Q439 -119 429 -119ZM308 641H150Q126 641 115 652Q104 663 104 687V814Q104 827 107.5 836Q111 845 118 851L247 960Q252 964 260.5 966.5Q269 969 279 969H437Q461 969 472 958Q483 947 483 923V796Q483 783 479.5 774Q476 765 469 759L339 651Q335 647 326.5 644Q318 641 308 641Z" glyph-name="Edotaccent.salt" horiz-adv-x="643" unicode="&#57617;" /><glyph d="M451 601H293Q269 601 258 612Q247 623 247 647V774Q247 787 250.5 796Q254 805 261 811L390 920Q395 924 403.5 926.5Q412 929 422 929H580Q604 929 615 918Q626 907 626 883V756Q626 743 622.5 734Q619 725 612 719L482 611Q478 607 469.5 604Q461 601 451 601ZM625 -119H313Q239 -119 189.5 -103Q140 -87 110.5 -59Q81 -31 69 8.5Q57 48 57 95V366Q57 417 71.5 459Q86 501 120 529L249 638Q278 663 325.5 676.5Q373 690 442 690H754Q778 690 789 679Q800 668 800 644V531Q800 518 796.5 509Q793 500 786 494L707 428Q713 423 716 414Q719 405 719 392V297Q719 284 715.5 275Q712 266 705 260L627 195H754Q778 195 789 184Q800 173 800 149V36Q800 23 796.5 14Q793 5 786 -1L656 -109Q652 -113 643.5 -116Q635 -119 625 -119Z" glyph-name="Edotaccent.salt_v" horiz-adv-x="1000" unicode="&#57854;" /><glyph d="M451 601H293Q269 601 258 612Q247 623 247 647V774Q247 787 250.5 796Q254 805 261 811L390 920Q395 924 403.5 926.5Q412 929 422 929H580Q604 929 615 918Q626 907 626 883V756Q626 743 622.5 734Q619 725 612 719L482 611Q478 607 469.5 604Q461 601 451 601ZM625 -119H107Q83 -119 72 -108Q61 -97 61 -73V535Q61 548 64.5 557Q68 566 75 572L204 681Q209 685 217.5 687.5Q226 690 236 690H754Q778 690 789 679Q800 668 800 644V531Q800 518 796.5 509Q793 500 786 494L707 428Q713 423 716 414Q719 405 719 392V297Q719 284 715.5 275Q712 266 705 260L627 195H754Q778 195 789 184Q800 173 800 149V36Q800 23 796.5 14Q793 5 786 -1L656 -109Q652 -113 643.5 -116Q635 -119 625 -119Z" glyph-name="Edotaccent.v" horiz-adv-x="1000" unicode="&#57759;" /><glyph d="M440 -119H-24Q-48 -119 -59 -108Q-70 -97 -70 -73V575Q-70 588 -66.5 597Q-63 606 -56 612L73 721Q78 725 86.5 727.5Q95 730 105 730H569Q593 730 604 719Q615 708 615 684V567Q615 554 611.5 545Q608 536 601 530L515 459Q525 454 529.5 444Q534 434 534 418V311Q534 298 530.5 289Q527 280 520 274L431 199H569Q593 199 604 188Q615 177 615 153V36Q615 23 611.5 14Q608 5 601 -1L471 -109Q467 -113 458.5 -116Q450 -119 440 -119ZM290 -359H132Q108 -359 97 -348Q86 -337 86 -313V-186Q86 -173 89.5 -164Q93 -155 100 -149L229 -40Q234 -36 242.5 -33.5Q251 -31 261 -31H419Q443 -31 454 -42Q465 -53 465 -77V-204Q465 -217 461.5 -226Q458 -235 451 -241L321 -349Q317 -353 308.5 -356Q300 -359 290 -359Z" glyph-name="Edotbelow" horiz-adv-x="654" unicode="&#7864;" /><glyph d="M440 -119H-24Q-48 -119 -59 -108Q-70 -97 -70 -73V575Q-70 588 -66.5 597Q-63 606 -56 612L73 721Q78 725 86.5 727.5Q95 730 105 730H569Q593 730 604 719Q615 708 615 684V567Q615 554 611.5 545Q608 536 601 530L515 459Q525 454 529.5 444Q534 434 534 418V311Q534 298 530.5 289Q527 280 520 274L431 199H569Q593 199 604 188Q615 177 615 153V36Q615 23 611.5 14Q608 5 601 -1L471 -109Q467 -113 458.5 -116Q450 -119 440 -119ZM403 642Q398 638 390 635.5Q382 633 372 634L23 677Q-1 680 -11.5 690Q-22 700 -22 723V819Q-22 832 -18.5 840.5Q-15 849 -8 855L121 964Q127 968 134.5 970Q142 972 152 971L501 928Q525 925 535.5 915Q546 905 546 882V786Q546 773 542.5 764.5Q539 756 532 750Z" glyph-name="Egrave" horiz-adv-x="654" unicode="&#200;" /><glyph d="M429 -119H175Q101 -119 51.5 -103Q2 -87 -27.5 -59Q-57 -31 -69 8.5Q-81 48 -81 95V406Q-81 457 -66.5 499Q-52 541 -18 569L111 678Q140 703 187.5 716.5Q235 730 304 730H558Q582 730 593 719Q604 708 604 684V567Q604 554 600.5 545Q597 536 590 530L505 459Q515 455 519.5 444.5Q524 434 524 418V311Q524 298 520.5 289Q517 280 510 274L421 199H558Q582 199 593 188Q604 177 604 153V36Q604 23 600.5 14Q597 5 590 -1L460 -109Q456 -113 447.5 -116Q439 -119 429 -119ZM413 642Q408 638 400 635.5Q392 633 382 634L33 677Q9 680 -1.5 690Q-12 700 -12 723V819Q-12 832 -8.5 840.5Q-5 849 2 855L131 964Q137 968 144.5 970Q152 972 162 971L511 928Q535 925 545.5 915Q556 905 556 882V786Q556 773 552.5 764.5Q549 756 542 750Z" glyph-name="Egrave.salt" horiz-adv-x="643" unicode="&#57611;" /><glyph d="M625 -119H313Q239 -119 189.5 -103Q140 -87 110.5 -59Q81 -31 69 8.5Q57 48 57 95V366Q57 417 71.5 459Q86 501 120 529L249 638Q278 663 325.5 676.5Q373 690 442 690H754Q778 690 789 679Q800 668 800 644V531Q800 518 796.5 509Q793 500 786 494L707 428Q713 423 716 414Q719 405 719 392V297Q719 284 715.5 275Q712 266 705 260L627 195H754Q778 195 789 184Q800 173 800 149V36Q800 23 796.5 14Q793 5 786 -1L656 -109Q652 -113 643.5 -116Q635 -119 625 -119ZM576 602Q571 598 563 595.5Q555 593 545 594L196 637Q172 640 161.5 650Q151 660 151 683V779Q151 792 154.5 800.5Q158 809 165 815L294 924Q300 928 307.5 930Q315 932 325 931L674 888Q698 885 708.5 875Q719 865 719 842V746Q719 733 715.5 724.5Q712 716 705 710Z" glyph-name="Egrave.salt_v" horiz-adv-x="1000" unicode="&#57848;" /><glyph d="M625 -119H107Q83 -119 72 -108Q61 -97 61 -73V535Q61 548 64.5 557Q68 566 75 572L204 681Q209 685 217.5 687.5Q226 690 236 690H754Q778 690 789 679Q800 668 800 644V531Q800 518 796.5 509Q793 500 786 494L707 428Q713 423 716 414Q719 405 719 392V297Q719 284 715.5 275Q712 266 705 260L627 195H754Q778 195 789 184Q800 173 800 149V36Q800 23 796.5 14Q793 5 786 -1L656 -109Q652 -113 643.5 -116Q635 -119 625 -119ZM576 602Q571 598 563 595.5Q555 593 545 594L196 637Q172 640 161.5 650Q151 660 151 683V779Q151 792 154.5 800.5Q158 809 165 815L294 924Q300 928 307.5 930Q315 932 325 931L674 888Q698 885 708.5 875Q719 865 719 842V746Q719 733 715.5 724.5Q712 716 705 710Z" glyph-name="Egrave.v" horiz-adv-x="1000" unicode="&#57753;" /><glyph d="M440 -119H-24Q-48 -119 -59 -108Q-70 -97 -70 -73V575Q-70 588 -66.5 597Q-63 606 -56 612L73 721Q78 725 86.5 727.5Q95 730 105 730H569Q593 730 604 719Q615 708 615 684V567Q615 554 611.5 545Q608 536 601 530L515 459Q525 454 529.5 444Q534 434 534 418V311Q534 298 530.5 289Q527 280 520 274L431 199H569Q593 199 604 188Q615 177 615 153V36Q615 23 611.5 14Q608 5 601 -1L471 -109Q467 -113 458.5 -116Q450 -119 440 -119ZM141 629Q126 627 118.5 632.5Q111 638 109 653V654L98 732Q96 741 98.5 747.5Q101 754 105 758L143 790H85Q70 790 63 797Q56 804 56 819V892Q56 900 58.5 905.5Q61 911 65 915L194 1024Q198 1027 202.5 1028.5Q207 1030 214 1030H382Q438 1030 469 1001Q500 972 500 918V854Q500 827 492 809.5Q484 792 471 780L342 671Q331 662 315.5 656.5Q300 651 281 648Z" glyph-name="Ehookabove" horiz-adv-x="654" unicode="&#7866;" /><glyph d="M440 -119H-24Q-48 -119 -59 -108Q-70 -97 -70 -73V575Q-70 588 -66.5 597Q-63 606 -56 612L73 721Q78 725 86.5 727.5Q95 730 105 730H569Q593 730 604 719Q615 708 615 684V567Q615 554 611.5 545Q608 536 601 530L515 459Q525 454 529.5 444Q534 434 534 418V311Q534 298 530.5 289Q527 280 520 274L431 199H569Q593 199 604 188Q615 177 615 153V36Q615 23 611.5 14Q608 5 601 -1L471 -109Q467 -113 458.5 -116Q450 -119 440 -119ZM381 641H34Q10 641 -1 652Q-12 663 -12 687V780Q-12 793 -8.5 802Q-5 811 2 817L131 926Q136 930 144.5 932.5Q153 935 163 935H510Q534 935 545 924Q556 913 556 889V796Q556 783 552.5 774Q549 765 542 759L412 651Q408 647 399.5 644Q391 641 381 641Z" glyph-name="Emacron" horiz-adv-x="654" unicode="&#274;" /><glyph d="M429 -119H175Q101 -119 51.5 -103Q2 -87 -27.5 -59Q-57 -31 -69 8.5Q-81 48 -81 95V406Q-81 457 -66.5 499Q-52 541 -18 569L111 678Q140 703 187.5 716.5Q235 730 304 730H558Q582 730 593 719Q604 708 604 684V567Q604 554 600.5 545Q597 536 590 530L505 459Q515 455 519.5 444.5Q524 434 524 418V311Q524 298 520.5 289Q517 280 510 274L421 199H558Q582 199 593 188Q604 177 604 153V36Q604 23 600.5 14Q597 5 590 -1L460 -109Q456 -113 447.5 -116Q439 -119 429 -119ZM401 641H54Q30 641 19 652Q8 663 8 687V780Q8 793 11.5 802Q15 811 22 817L151 926Q156 930 164.5 932.5Q173 935 183 935H530Q554 935 565 924Q576 913 576 889V796Q576 783 572.5 774Q569 765 562 759L432 651Q428 647 419.5 644Q411 641 401 641Z" glyph-name="Emacron.salt" horiz-adv-x="643" unicode="&#57615;" /><glyph d="M544 601H197Q173 601 162 612Q151 623 151 647V740Q151 753 154.5 762Q158 771 165 777L294 886Q299 890 307.5 892.5Q316 895 326 895H673Q697 895 708 884Q719 873 719 849V756Q719 743 715.5 734Q712 725 705 719L575 611Q571 607 562.5 604Q554 601 544 601ZM625 -119H313Q239 -119 189.5 -103Q140 -87 110.5 -59Q81 -31 69 8.5Q57 48 57 95V366Q57 417 71.5 459Q86 501 120 529L249 638Q278 663 325.5 676.5Q373 690 442 690H754Q778 690 789 679Q800 668 800 644V531Q800 518 796.5 509Q793 500 786 494L707 428Q713 423 716 414Q719 405 719 392V297Q719 284 715.5 275Q712 266 705 260L627 195H754Q778 195 789 184Q800 173 800 149V36Q800 23 796.5 14Q793 5 786 -1L656 -109Q652 -113 643.5 -116Q635 -119 625 -119Z" glyph-name="Emacron.salt_v" horiz-adv-x="1000" unicode="&#57852;" /><glyph d="M544 601H197Q173 601 162 612Q151 623 151 647V740Q151 753 154.5 762Q158 771 165 777L294 886Q299 890 307.5 892.5Q316 895 326 895H673Q697 895 708 884Q719 873 719 849V756Q719 743 715.5 734Q712 725 705 719L575 611Q571 607 562.5 604Q554 601 544 601ZM625 -119H107Q83 -119 72 -108Q61 -97 61 -73V535Q61 548 64.5 557Q68 566 75 572L204 681Q209 685 217.5 687.5Q226 690 236 690H754Q778 690 789 679Q800 668 800 644V531Q800 518 796.5 509Q793 500 786 494L707 428Q713 423 716 414Q719 405 719 392V297Q719 284 715.5 275Q712 266 705 260L627 195H754Q778 195 789 184Q800 173 800 149V36Q800 23 796.5 14Q793 5 786 -1L656 -109Q652 -113 643.5 -116Q635 -119 625 -119Z" glyph-name="Emacron.v" horiz-adv-x="1000" unicode="&#57757;" /><glyph d="M307 -209H262Q238 -209 227 -198Q216 -187 216 -163V-59L155 -110Q149 -114 141 -116.5Q133 -119 123 -119H-29Q-53 -119 -64 -108Q-75 -97 -75 -73V422Q-75 468 -62 507Q-49 546 -15 574L114 683Q149 712 211.5 728.5Q274 745 373 745Q470 745 532.5 729Q595 713 630 685Q665 657 678.5 617.5Q692 578 692 531V114Q692 64 677.5 22.5Q663 -19 629 -47L500 -156Q470 -181 423 -195Q376 -209 307 -209ZM314 383Q314 392 310.5 399.5Q307 407 298 412V50L314 64Z" glyph-name="Eng" horiz-adv-x="746" unicode="&#330;" /><glyph d="M425 -209H380Q356 -209 345 -198Q334 -187 334 -163V-74L291 -110Q285 -114 277 -116.5Q269 -119 259 -119H107Q83 -119 72 -108Q61 -97 61 -73V403Q61 450 74 489Q87 528 121 556L251 665Q285 693 345.5 709.5Q406 726 500 726Q594 726 654.5 710Q715 694 749.5 666Q784 638 797 598.5Q810 559 810 512V115Q810 64 795.5 22.5Q781 -19 747 -48L617 -156Q588 -181 540.5 -195Q493 -209 425 -209Z" glyph-name="Eng.v" horiz-adv-x="1000" unicode="&#57833;" /><glyph d="M443 -305H332Q263 -305 236.5 -270Q210 -235 221 -158L228 -119H-24Q-48 -119 -59 -108Q-70 -97 -70 -73V575Q-70 588 -66.5 597Q-63 606 -56 612L73 721Q78 725 86.5 727.5Q95 730 105 730H569Q593 730 604 719Q615 708 615 684V567Q615 554 611.5 545Q608 536 601 530L515 459Q525 454 529.5 444Q534 434 534 418V311Q534 298 530.5 289Q527 280 520 274L431 199H569Q593 199 604 188Q615 177 615 153V36Q615 23 611.5 14Q608 5 601 -1L559 -36H569Q596 -36 605.5 -45.5Q615 -55 615 -80V-152Q615 -165 612 -174Q609 -183 604 -188L473 -297Q469 -301 461 -303Q453 -305 443 -305Z" glyph-name="Eogonek" horiz-adv-x="654" unicode="&#280;" /><glyph d="M432 -305H321Q252 -305 225.5 -270Q199 -235 210 -158L217 -119H175Q101 -119 51.5 -103Q2 -87 -27.5 -59Q-57 -31 -69 8.5Q-81 48 -81 95V406Q-81 457 -66.5 499Q-52 541 -18 569L111 678Q140 703 187.5 716.5Q235 730 304 730H558Q582 730 593 719Q604 708 604 684V567Q604 554 600.5 545Q597 536 590 530L505 459Q515 455 519.5 444.5Q524 434 524 418V311Q524 298 520.5 289Q517 280 510 274L421 199H558Q582 199 593 188Q604 177 604 153V36Q604 23 600.5 14Q597 5 590 -1L548 -36H558Q585 -36 594.5 -45.5Q604 -55 604 -80V-152Q604 -165 601 -174Q598 -183 593 -188L462 -297Q458 -301 450 -303Q442 -305 432 -305Z" glyph-name="Eogonek.salt" horiz-adv-x="643" unicode="&#57618;" /><glyph d="M628 -265H517Q448 -265 421.5 -230Q395 -195 406 -118L413 -79H313Q239 -79 189.5 -63Q140 -47 110.5 -19Q81 9 69 48.5Q57 88 57 135V406Q57 457 71.5 499Q86 541 120 569L249 678Q278 703 325.5 716.5Q373 730 442 730H754Q778 730 789 719Q800 708 800 684V571Q800 558 796.5 549Q793 540 786 534L707 468Q713 463 716 454Q719 445 719 432V337Q719 324 715.5 315Q712 306 705 300L627 235H754Q778 235 789 224Q800 213 800 189V76Q800 63 796.5 54Q793 45 786 39L744 4H754Q781 4 790.5 -5.5Q800 -15 800 -40V-112Q800 -125 797 -134Q794 -143 789 -148L658 -257Q654 -261 646 -263Q638 -265 628 -265Z" glyph-name="Eogonek.salt_v" horiz-adv-x="1000" unicode="&#57855;" /><glyph d="M628 -265H517Q448 -265 421.5 -230Q395 -195 406 -118L413 -79H107Q83 -79 72 -68Q61 -57 61 -33V575Q61 588 64.5 597Q68 606 75 612L204 721Q209 725 217.5 727.5Q226 730 236 730H754Q778 730 789 719Q800 708 800 684V571Q800 558 796.5 549Q793 540 786 534L707 468Q713 463 716 454Q719 445 719 432V337Q719 324 715.5 315Q712 306 705 300L627 235H754Q778 235 789 224Q800 213 800 189V76Q800 63 796.5 54Q793 45 786 39L744 4H754Q781 4 790.5 -5.5Q800 -15 800 -40V-112Q800 -125 797 -134Q794 -143 789 -148L658 -257Q654 -261 646 -263Q638 -265 628 -265Z" glyph-name="Eogonek.v" horiz-adv-x="1000" unicode="&#57760;" /><glyph d="M-14 -119Q-38 -119 -49 -108Q-60 -97 -60 -73V146H-73Q-97 146 -108 156.5Q-119 167 -119 192V299Q-119 312 -115.5 321Q-112 330 -105 336L-60 374V575Q-60 588 -56.5 597Q-53 606 -46 612L83 721Q88 725 96.5 727.5Q105 730 115 730H452Q526 730 575.5 714Q625 698 654.5 670Q684 642 696 602.5Q708 563 708 516V204Q708 154 693.5 112.5Q679 71 645 43L516 -66Q486 -91 439 -105Q392 -119 323 -119ZM333 199V228L313 211V199Z" glyph-name="Eth" horiz-adv-x="756" unicode="&#208;" /><glyph d="M107 -119Q83 -119 72 -108Q61 -97 61 -73V146H48Q24 146 13 156.5Q2 167 2 192V299Q2 312 5.5 321Q9 330 16 336L61 374V575Q61 588 64.5 597Q68 606 75 612L204 721Q209 725 217.5 727.5Q226 730 236 730H554Q628 730 677.5 714Q727 698 756.5 670Q786 642 798 602.5Q810 563 810 516V204Q810 154 795.5 112.5Q781 71 747 43L618 -66Q588 -91 541 -105Q494 -119 425 -119Z" glyph-name="Eth.v" horiz-adv-x="1000" unicode="&#57825;" /><glyph d="M440 -119H-24Q-48 -119 -59 -108Q-70 -97 -70 -73V575Q-70 588 -66.5 597Q-63 606 -56 612L73 721Q78 725 86.5 727.5Q95 730 105 730H569Q593 730 604 719Q615 708 615 684V567Q615 554 611.5 545Q608 536 601 530L515 459Q525 454 529.5 444Q534 434 534 418V311Q534 298 530.5 289Q527 280 520 274L431 199H569Q593 199 604 188Q615 177 615 153V36Q615 23 611.5 14Q608 5 601 -1L471 -109Q467 -113 458.5 -116Q450 -119 440 -119ZM383 648Q359 641 342 637.5Q325 634 309 634Q293 634 273 636.5Q253 639 222 643L206 645L178 649Q150 653 132 654.5Q114 656 99 654.5Q84 653 70 649.5Q56 646 37 640Q12 633 0 642Q-12 651 -12 676V777Q-12 790 -8.5 798.5Q-5 807 3 814L132 922Q136 926 143.5 929.5Q151 933 159 936H160V937Q184 944 200.5 947.5Q217 951 233.5 951Q250 951 269.5 948.5Q289 946 320 942L337 940L359 937Q391 932 410 930Q429 928 443 929Q457 930 471 934Q485 938 506 945Q531 952 543 943Q555 934 555 909V808Q555 795 551 786.5Q547 778 540 772L410 663Q406 659 399 655.5Q392 652 384 649H383Z" glyph-name="Etilde" horiz-adv-x="654" unicode="&#7868;" /><glyph d="M439 -119H195Q121 -119 71.5 -103Q22 -87 -7.5 -59Q-37 -31 -49 8.5Q-61 48 -61 95V100H-65Q-83 100 -91 106.5Q-99 113 -99 133V205Q-99 216 -96.5 222.5Q-94 229 -89 233L-61 257V260H-65Q-83 260 -91 266.5Q-99 273 -99 293V365Q-99 376 -96.5 382.5Q-94 389 -89 393L-61 417Q-60 464 -45 503Q-30 542 2 569L131 678Q160 703 207.5 716.5Q255 730 324 730H568Q592 730 603 719Q614 708 614 684V573Q614 560 610.5 551Q607 542 600 536L510 460V402Q510 392 507.5 386Q505 380 501 376L468 348H476Q494 348 502 341Q510 334 510 314V242Q510 232 507.5 226Q505 220 501 216L471 191H568Q592 191 603 180Q614 169 614 145V36Q614 23 610.5 14Q607 5 600 -1L470 -109Q466 -113 457.5 -116Q449 -119 439 -119Z" glyph-name="Euro" horiz-adv-x="648" unicode="&#8364;" /><glyph d="M131 -119H-24Q-48 -119 -59 -108Q-70 -97 -70 -73V575Q-70 588 -66.5 597Q-63 606 -56 612L73 721Q78 725 86.5 727.5Q95 730 105 730H551Q575 730 586 719Q597 708 597 684V565Q597 552 593.5 543Q590 534 583 528L471 435Q494 435 505 424Q516 413 516 389V269Q516 256 512.5 247Q509 238 502 232L372 124Q368 120 359.5 117Q351 114 341 114H306V36Q306 23 302.5 14Q299 5 292 -1L162 -109Q158 -113 149.5 -116Q141 -119 131 -119Z" glyph-name="F" horiz-adv-x="618" unicode="F" /><glyph d="M263 -119H108Q84 -119 73 -107.5Q62 -96 62 -72V576Q62 589 65.5 598Q69 607 76 613L205 722Q210 726 218.5 728.5Q227 731 237 731H755Q779 731 790 720Q801 709 801 685V566Q801 553 797.5 544Q794 535 787 529L675 436Q698 436 709 425Q720 414 720 390V270Q720 257 716.5 248Q713 239 706 233L576 125Q572 121 563.5 118Q555 115 545 115H438V37Q438 24 434 14.5Q430 5 423 -1L294 -109Q289 -113 281 -116Q273 -119 263 -119Z" glyph-name="F.v" horiz-adv-x="1000" unicode="&#65318;" /><glyph d="M490 -119H175Q44 -119 -18.5 -66Q-81 -13 -81 95V407Q-81 462 -65 502Q-49 542 -18 569L111 678Q142 704 190.5 717Q239 730 304 730H554Q578 730 589 719Q600 708 600 684V563Q600 550 596.5 541Q593 532 586 526L456 418Q452 414 443.5 411Q435 408 425 408H295V264Q296 266 298.5 268.5Q301 271 303 273L432 382Q437 386 445.5 388.5Q454 391 464 391H619Q643 391 654 380Q665 369 665 345V36Q665 23 661.5 14Q658 5 651 -1L521 -109Q517 -113 508.5 -116Q500 -119 490 -119Z" glyph-name="G" horiz-adv-x="708" unicode="G" /><glyph d="M635 -119H312Q238 -119 188.5 -103Q139 -87 109.5 -59Q80 -31 68 8.5Q56 48 56 95V367Q56 417 70 459Q84 501 118 529L247 637Q277 662 324.5 676Q372 690 441 690H699Q723 690 734 679Q745 668 745 644V523Q745 510 741.5 501Q738 492 731 486L601 378Q597 374 588.5 371Q580 368 570 368H432V238Q432 233 432.5 227.5Q433 222 434 218Q435 231 438 239.5Q441 248 448 253L577 362Q582 366 590.5 368.5Q599 371 609 371H764Q788 371 799 360Q810 349 810 325V36Q810 23 806.5 14Q803 5 796 -1L666 -109Q662 -113 653.5 -116Q645 -119 635 -119Z" glyph-name="G.s_v" horiz-adv-x="1000" unicode="&#57930;" /><glyph d="M635 -119H312Q238 -119 188.5 -103Q139 -87 109.5 -59Q80 -31 68 8.5Q56 48 56 95V407Q56 457 70 499Q84 541 118 569L247 677Q277 702 324.5 716Q372 730 441 730H699Q723 730 734 719Q745 708 745 684V563Q745 550 741.5 541Q738 532 731 526L601 418Q597 414 588.5 411Q580 408 570 408H432V238Q432 233 432.5 227.5Q433 222 434 218V236Q434 249 437.5 258Q441 267 448 273L577 382Q582 386 590.5 388.5Q599 391 609 391H764Q788 391 799 380Q810 369 810 345V36Q810 23 806.5 14Q803 5 796 -1L666 -109Q662 -113 653.5 -116Q645 -119 635 -119Z" glyph-name="G.v" horiz-adv-x="1000" unicode="&#65319;" /><glyph d="M490 -119H175Q44 -119 -18.5 -66Q-81 -13 -81 95V407Q-81 462 -65 502Q-49 542 -18 569L111 678Q142 704 190.5 717Q239 730 304 730H554Q578 730 589 719Q600 708 600 684V563Q600 550 596.5 541Q593 532 586 526L456 418Q452 414 443.5 411Q435 408 425 408H295V264Q296 266 298.5 268.5Q301 271 303 273L432 382Q437 386 445.5 388.5Q454 391 464 391H619Q643 391 654 380Q665 369 665 345V36Q665 23 661.5 14Q658 5 651 -1L521 -109Q517 -113 508.5 -116Q500 -119 490 -119ZM245 635Q176 635 131.5 646.5Q87 658 62 678Q37 698 27.5 726.5Q18 755 18 788V832Q18 845 21.5 854Q25 863 32 869L161 978Q166 982 174.5 984.5Q183 987 193 987H289Q310 987 319 978.5Q328 970 328 946V925Q328 918 332 912.5Q336 907 346 905L436 980L435 979Q439 983 446 985Q453 987 464 987H555Q579 987 590 976Q601 965 601 941V897Q601 864 591.5 836Q582 808 557 788L428 680Q403 659 359 647Q315 635 245 635Z" glyph-name="Gbreve" horiz-adv-x="708" unicode="&#286;" /><glyph d="M635 -119H312Q238 -119 188.5 -103Q139 -87 109.5 -59Q80 -31 68 8.5Q56 48 56 95V367Q56 417 70 459Q84 501 118 529L247 637Q277 662 324.5 676Q372 690 441 690H699Q723 690 734 679Q745 668 745 644V523Q745 510 741.5 501Q738 492 731 486L601 378Q597 374 588.5 371Q580 368 570 368H432V238Q432 233 432.5 227.5Q433 222 434 218Q435 231 438 239.5Q441 248 448 253L577 362Q582 366 590.5 368.5Q599 371 609 371H764Q788 371 799 360Q810 349 810 325V36Q810 23 806.5 14Q803 5 796 -1L666 -109Q662 -113 653.5 -116Q645 -119 635 -119ZM371 595Q302 595 257.5 606.5Q213 618 188 638Q163 658 153.5 686.5Q144 715 144 748V792Q144 805 147.5 814Q151 823 158 829L287 938Q292 942 300.5 944.5Q309 947 319 947H415Q436 947 445 938.5Q454 930 454 906V885Q454 878 458 872.5Q462 867 472 865L562 940L561 939Q565 943 572 945Q579 947 590 947H681Q705 947 716 936Q727 925 727 901V857Q727 824 717.5 796Q708 768 683 748L554 640Q529 619 485 607Q441 595 371 595Z" glyph-name="Gbreve.v" horiz-adv-x="1000" unicode="&#57763;" /><glyph d="M490 -119H175Q44 -119 -18.5 -66Q-81 -13 -81 95V407Q-81 462 -65 502Q-49 542 -18 569L111 678Q142 704 190.5 717Q239 730 304 730H554Q578 730 589 719Q600 708 600 684V563Q600 550 596.5 541Q593 532 586 526L456 418Q452 414 443.5 411Q435 408 425 408H295V264Q296 266 298.5 268.5Q301 271 303 273L432 382Q437 386 445.5 388.5Q454 391 464 391H619Q643 391 654 380Q665 369 665 345V36Q665 23 661.5 14Q658 5 651 -1L521 -109Q517 -113 508.5 -116Q500 -119 490 -119ZM228 633H227Q217 633 208 634Q199 635 192 639L54 689Q24 700 15 710Q6 720 6 751V832Q6 849 8.5 859Q11 869 17 873L146 982Q151 986 161.5 986.5Q172 987 190 982L327 942Q343 938 355 938Q367 938 383 942L520 982Q553 992 563.5 984.5Q574 977 574 941V860Q574 841 570 831Q566 821 558 814L429 705Q423 701 415.5 697Q408 693 398 689H397L270 643Q260 639 249 636.5Q238 634 228 633Z" glyph-name="Gcaron" horiz-adv-x="708" unicode="&#486;" /><glyph d="M490 -119H175Q44 -119 -18.5 -66Q-81 -13 -81 95V407Q-81 462 -65 502Q-49 542 -18 569L111 678Q142 704 190.5 717Q239 730 304 730H554Q578 730 589 719Q600 708 600 684V563Q600 550 596.5 541Q593 532 586 526L456 418Q452 414 443.5 411Q435 408 425 408H295V264Q296 266 298.5 268.5Q301 271 303 273L432 382Q437 386 445.5 388.5Q454 391 464 391H619Q643 391 654 380Q665 369 665 345V36Q665 23 661.5 14Q658 5 651 -1L521 -109Q517 -113 508.5 -116Q500 -119 490 -119ZM86 638Q53 628 42.5 635.5Q32 643 32 679V760Q32 779 35.5 789Q39 799 46 806L177 915L176 914Q181 919 189.5 923Q198 927 209 931L336 977Q346 981 357.5 983.5Q369 986 379 987Q389 987 398 986Q407 985 414 981L552 931Q582 920 591 910Q600 900 600 869V788Q600 772 597 762Q594 752 590 748L589 747L459 639Q454 635 444 634.5Q434 634 416 638L279 678Q263 682 251 682Q239 682 223 678Z" glyph-name="Gcircumflex" horiz-adv-x="708" unicode="&#284;" /><glyph d="M635 -119H312Q238 -119 188.5 -103Q139 -87 109.5 -59Q80 -31 68 8.5Q56 48 56 95V367Q56 417 70 459Q84 501 118 529L247 637Q277 662 324.5 676Q372 690 441 690H699Q723 690 734 679Q745 668 745 644V523Q745 510 741.5 501Q738 492 731 486L601 378Q597 374 588.5 371Q580 368 570 368H432V238Q432 233 432.5 227.5Q433 222 434 218Q435 231 438 239.5Q441 248 448 253L577 362Q582 366 590.5 368.5Q599 371 609 371H764Q788 371 799 360Q810 349 810 325V36Q810 23 806.5 14Q803 5 796 -1L666 -109Q662 -113 653.5 -116Q645 -119 635 -119ZM205 598Q172 588 161.5 595.5Q151 603 151 639V720Q151 739 154.5 749Q158 759 165 766L296 875L295 874Q300 879 308.5 883Q317 887 328 891L455 937Q465 941 476.5 943.5Q488 946 498 947Q508 947 517 946Q526 945 533 941L671 891Q701 880 710 870Q719 860 719 829V748Q719 732 716 722Q713 712 709 708L708 707L578 599Q573 595 563 594.5Q553 594 535 598L398 638Q382 642 370 642Q358 642 342 638Z" glyph-name="Gcircumflex.v" horiz-adv-x="1000" unicode="&#57762;" /><glyph d="M490 -119H175Q44 -119 -18.5 -66Q-81 -13 -81 95V407Q-81 462 -65 502Q-49 542 -18 569L111 678Q142 704 190.5 717Q239 730 304 730H554Q578 730 589 719Q600 708 600 684V563Q600 550 596.5 541Q593 532 586 526L456 418Q452 414 443.5 411Q435 408 425 408H295V264Q296 266 298.5 268.5Q301 271 303 273L432 382Q437 386 445.5 388.5Q454 391 464 391H619Q643 391 654 380Q665 369 665 345V36Q665 23 661.5 14Q658 5 651 -1L521 -109Q517 -113 508.5 -116Q500 -119 490 -119ZM236 -481H170Q149 -481 139.5 -471.5Q130 -462 130 -440V-406Q130 -393 133 -385.5Q136 -378 142 -374L172 -349H166Q140 -349 129.5 -338.5Q119 -328 119 -300V-191Q119 -175 122 -165.5Q125 -156 132 -150L262 -42L261 -43Q265 -39 273.5 -36Q282 -33 295 -33H453Q479 -33 489.5 -43.5Q500 -54 500 -82V-234Q500 -271 488.5 -298.5Q477 -326 457 -343L328 -452Q311 -466 287.5 -473.5Q264 -481 236 -481Z" glyph-name="Gcommaaccent" horiz-adv-x="708" unicode="&#290;" /><glyph d="M635 -79H312Q238 -79 188.5 -63Q139 -47 109.5 -19Q80 9 68 48.5Q56 88 56 135V407Q56 457 70 499Q84 541 118 569L247 677Q277 702 324.5 716Q372 730 441 730H699Q723 730 734 719Q745 708 745 684V563Q745 550 741.5 541Q738 532 731 526L601 418Q597 414 588.5 411Q580 408 570 408H432V278Q432 273 432.5 267.5Q433 262 434 258Q435 271 438 279.5Q441 288 448 293L577 402Q582 406 590.5 408.5Q599 411 609 411H764Q788 411 799 400Q810 389 810 365V76Q810 63 806.5 54Q803 45 796 39L666 -69Q662 -73 653.5 -76Q645 -79 635 -79ZM363 -409H297Q276 -409 266.5 -399.5Q257 -390 257 -368V-344Q257 -331 260 -323.5Q263 -316 269 -312L299 -287H293Q267 -287 256.5 -276.5Q246 -266 246 -238V-159Q246 -143 249 -133Q252 -123 259 -117L389 -9Q394 -5 402 -2.5Q410 0 422 0H580Q606 0 616.5 -10.5Q627 -21 627 -50V-162Q627 -199 615.5 -226.5Q604 -254 584 -271L455 -380Q438 -394 414.5 -401.5Q391 -409 363 -409Z" glyph-name="Gcommaaccent.v" horiz-adv-x="1000" unicode="&#57765;" /><glyph d="M490 -119H175Q44 -119 -18.5 -66Q-81 -13 -81 95V407Q-81 462 -65 502Q-49 542 -18 569L111 678Q142 704 190.5 717Q239 730 304 730H554Q578 730 589 719Q600 708 600 684V563Q600 550 596.5 541Q593 532 586 526L456 418Q452 414 443.5 411Q435 408 425 408H295V264Q296 266 298.5 268.5Q301 271 303 273L432 382Q437 386 445.5 388.5Q454 391 464 391H619Q643 391 654 380Q665 369 665 345V36Q665 23 661.5 14Q658 5 651 -1L521 -109Q517 -113 508.5 -116Q500 -119 490 -119ZM325 641H167Q143 641 132 652Q121 663 121 687V814Q121 827 124.5 836Q128 845 135 851L264 960Q269 964 277.5 966.5Q286 969 296 969H454Q478 969 489 958Q500 947 500 923V796Q500 783 496.5 774Q493 765 486 759L356 651Q352 647 343.5 644Q335 641 325 641Z" glyph-name="Gdotaccent" horiz-adv-x="708" unicode="&#288;" /><glyph d="M635 -119H312Q238 -119 188.5 -103Q139 -87 109.5 -59Q80 -31 68 8.5Q56 48 56 95V367Q56 417 70 459Q84 501 118 529L247 637Q277 662 324.5 676Q372 690 441 690H699Q723 690 734 679Q745 668 745 644V523Q745 510 741.5 501Q738 492 731 486L601 378Q597 374 588.5 371Q580 368 570 368H432V238Q432 233 432.5 227.5Q433 222 434 218Q435 231 438 239.5Q441 248 448 253L577 362Q582 366 590.5 368.5Q599 371 609 371H764Q788 371 799 360Q810 349 810 325V36Q810 23 806.5 14Q803 5 796 -1L666 -109Q662 -113 653.5 -116Q645 -119 635 -119ZM451 601H293Q269 601 258 612Q247 623 247 647V774Q247 787 250.5 796Q254 805 261 811L390 920Q395 924 403.5 926.5Q412 929 422 929H580Q604 929 615 918Q626 907 626 883V756Q626 743 622.5 734Q619 725 612 719L482 611Q478 607 469.5 604Q461 601 451 601Z" glyph-name="Gdotaccent.v" horiz-adv-x="1000" unicode="&#57764;" /><glyph d="M217 -64 162 -109Q158 -113 149.5 -116Q141 -119 131 -119H-24Q-48 -119 -59 -108Q-70 -97 -70 -73V575Q-70 588 -66.5 597Q-63 606 -56 612L74 721Q79 725 87 727.5Q95 730 105 730H476Q570 730 612.5 672.5Q655 615 630 526L609 454Q662 441 698.5 400Q735 359 735 289V166Q735 126 720.5 92.5Q706 59 678 36L548 -73Q522 -95 484.5 -107Q447 -119 401 -119H263Q239 -119 228 -108Q217 -97 217 -73Z" glyph-name="Germandbls" horiz-adv-x="759" unicode="&#7838;" /><glyph d="M328 -80 293 -109Q289 -113 280.5 -116Q272 -119 262 -119H107Q83 -119 72 -108Q61 -97 61 -73V575Q61 588 64.5 597Q68 606 75 612L205 721Q210 725 218 727.5Q226 730 236 730H592Q685 730 724.5 674.5Q764 619 746 527L730 445Q767 435 793.5 395.5Q820 356 820 289V166Q820 123 805 89.5Q790 56 762 32L633 -77Q610 -97 576 -108Q542 -119 502 -119H374Q352 -119 340.5 -109.5Q329 -100 328 -80Z" glyph-name="Germandbls.v" horiz-adv-x="1000" unicode="&#57836;" /><glyph d="M490 -119H175Q44 -119 -18.5 -66Q-81 -13 -81 95V407Q-81 462 -65 502Q-49 542 -18 569L111 678Q142 704 190.5 717Q239 730 304 730H554Q578 730 589 719Q600 708 600 684V563Q600 550 596.5 541Q593 532 586 526L456 418Q452 414 443.5 411Q435 408 425 408H295V264Q296 266 298.5 268.5Q301 271 303 273L432 382Q437 386 445.5 388.5Q454 391 464 391H619Q643 391 654 380Q665 369 665 345V36Q665 23 661.5 14Q658 5 651 -1L521 -109Q517 -113 508.5 -116Q500 -119 490 -119ZM425 641H78Q54 641 43 652Q32 663 32 687V780Q32 793 35.5 802Q39 811 46 817L175 926Q180 930 188.5 932.5Q197 935 207 935H554Q578 935 589 924Q600 913 600 889V796Q600 783 596.5 774Q593 765 586 759L456 651Q452 647 443.5 644Q435 641 425 641Z" glyph-name="Gmacron" horiz-adv-x="708" unicode="&#7712;" /><glyph d="M292 -1 162 -109Q158 -113 149.5 -116Q141 -119 131 -119H-24Q-48 -119 -59 -108Q-70 -97 -70 -73V575Q-70 588 -66.5 597Q-63 606 -56 612L73 721Q78 725 86.5 727.5Q95 730 105 730H260Q284 730 295 719Q306 708 306 684V477H324V575Q324 588 327.5 597Q331 606 338 612L467 721Q472 725 480.5 727.5Q489 730 499 730H654Q678 730 689 719Q700 708 700 684V36Q700 23 696.5 14Q693 5 686 -1L556 -109Q552 -113 543.5 -116Q535 -119 525 -119H370Q346 -119 335 -108Q324 -97 324 -73V139H306V36Q306 23 302.5 14Q299 5 292 -1Z" glyph-name="H" horiz-adv-x="759" unicode="H" /><glyph d="M423 -1 293 -109Q289 -113 280.5 -116Q272 -119 262 -119H107Q83 -119 72 -108Q61 -97 61 -73V535Q61 548 64.5 557Q68 566 75 572L204 681Q209 685 217.5 687.5Q226 690 236 690H391Q415 690 426 679Q437 668 437 644V556Q438 561 441 565Q444 569 448 572L577 681Q582 685 590.5 687.5Q599 690 609 690H764Q788 690 799 679Q810 668 810 644V36Q810 23 806.5 14Q803 5 796 -1L666 -109Q662 -113 653.5 -116Q645 -119 635 -119H480Q456 -119 445 -108Q434 -97 434 -73V15Q433 10 430 6Q427 2 423 -1Z" glyph-name="H.s_v" horiz-adv-x="1000" unicode="&#57931;" /><glyph d="M423 -1 293 -109Q289 -113 280.5 -116Q272 -119 262 -119H107Q83 -119 72 -108Q61 -97 61 -73V575Q61 588 64.5 597Q68 606 75 612L204 721Q209 725 217.5 727.5Q226 730 236 730H391Q415 730 426 719Q437 708 437 684V596Q438 601 441 605Q444 609 448 612L577 721Q582 725 590.5 727.5Q599 730 609 730H764Q788 730 799 719Q810 708 810 684V36Q810 23 806.5 14Q803 5 796 -1L666 -109Q662 -113 653.5 -116Q645 -119 635 -119H480Q456 -119 445 -108Q434 -97 434 -73V15Q433 10 430 6Q427 2 423 -1Z" glyph-name="H.v" horiz-adv-x="1000" unicode="&#65320;" /><glyph d="M299 -1 169 -109Q165 -113 156.5 -116Q148 -119 138 -119H-14Q-38 -119 -49 -108Q-60 -97 -60 -73V306H-63Q-87 306 -98 316.5Q-109 327 -109 352V449Q-109 462 -105.5 471Q-102 480 -95 486L-60 516V575Q-60 588 -56.5 597Q-53 606 -46 612L83 721Q88 725 96.5 727.5Q105 730 115 730H267Q291 730 302 719Q313 708 313 684V604H344Q345 607 347.5 609Q350 611 351 612L480 721Q485 725 493.5 727.5Q502 730 512 730H664Q688 730 699 719Q710 708 710 684V604H713Q737 604 748 593.5Q759 583 759 558V461Q759 448 755.5 439Q752 430 745 424L710 394V36Q710 23 706.5 14Q703 5 696 -1L566 -109Q562 -113 553.5 -116Q545 -119 535 -119H383Q359 -119 348 -108Q337 -97 337 -73V29H313Q312 19 308.5 11.5Q305 4 299 -1Z" glyph-name="Hbar" horiz-adv-x="779" unicode="&#294;" /><glyph d="M419 -1 289 -109Q285 -113 276.5 -116Q268 -119 258 -119H106Q82 -119 71 -108Q60 -97 60 -73V306H57Q33 306 22 316.5Q11 327 11 352V449Q11 462 14.5 471Q18 480 25 486L60 516V575Q60 588 63.5 597Q67 606 74 612L203 721Q208 725 216.5 727.5Q225 730 235 730H387Q411 730 422 719Q433 708 433 684V604H444Q445 607 447.5 609Q450 611 451 612L580 721Q585 725 593.5 727.5Q602 730 612 730H764Q788 730 799 719Q810 708 810 684V604H813Q837 604 848 593.5Q859 583 859 558V461Q859 448 855.5 439Q852 430 845 424L810 394V36Q810 23 806.5 14Q803 5 796 -1L666 -109Q662 -113 653.5 -116Q645 -119 635 -119H483Q459 -119 448 -108Q437 -97 437 -73V29H433Q432 19 428.5 11.5Q425 4 419 -1Z" glyph-name="Hbar.v" horiz-adv-x="1000" unicode="&#57829;" /><glyph d="M292 -1 162 -109Q158 -113 149.5 -116Q141 -119 131 -119H-24Q-48 -119 -59 -108Q-70 -97 -70 -73V575Q-70 588 -66.5 597Q-63 606 -56 612L73 721Q78 725 86.5 727.5Q95 730 105 730H260Q284 730 295 719Q306 708 306 684V477H324V575Q324 588 327.5 597Q331 606 338 612L467 721Q472 725 480.5 727.5Q489 730 499 730H654Q678 730 689 719Q700 708 700 684V36Q700 23 696.5 14Q693 5 686 -1L556 -109Q552 -113 543.5 -116Q535 -119 525 -119H370Q346 -119 335 -108Q324 -97 324 -73V139H306V36Q306 23 302.5 14Q299 5 292 -1ZM251 -385Q182 -385 137.5 -373.5Q93 -362 68 -342Q43 -322 33.5 -293.5Q24 -265 24 -232V-188Q24 -175 27.5 -166Q31 -157 38 -151L167 -42Q172 -38 180.5 -35.5Q189 -33 199 -33H295Q316 -33 325 -41.5Q334 -50 334 -74V-95Q334 -102 338 -107.5Q342 -113 352 -115L442 -40L441 -41Q445 -37 452 -35Q459 -33 470 -33H561Q585 -33 596 -44Q607 -55 607 -79V-123Q607 -156 597.5 -184Q588 -212 563 -232L434 -340Q409 -361 365 -373Q321 -385 251 -385Z" glyph-name="Hbrevebelow" horiz-adv-x="759" unicode="&#7722;" /><glyph d="M292 -1 162 -109Q158 -113 149.5 -116Q141 -119 131 -119H-24Q-48 -119 -59 -108Q-70 -97 -70 -73V575Q-70 588 -66.5 597Q-63 606 -56 612L73 721Q78 725 86.5 727.5Q95 730 105 730H260Q284 730 295 719Q306 708 306 684V477H324V575Q324 588 327.5 597Q331 606 338 612L467 721Q472 725 480.5 727.5Q489 730 499 730H654Q678 730 689 719Q700 708 700 684V36Q700 23 696.5 14Q693 5 686 -1L556 -109Q552 -113 543.5 -116Q535 -119 525 -119H370Q346 -119 335 -108Q324 -97 324 -73V139H306V36Q306 23 302.5 14Q299 5 292 -1ZM84 638Q51 628 40.5 635.5Q30 643 30 679V760Q30 779 33.5 789Q37 799 44 806L175 915L174 914Q179 919 187.5 923Q196 927 207 931L334 977Q344 981 355.5 983.5Q367 986 377 987Q387 987 396 986Q405 985 412 981L550 931Q580 920 589 910Q598 900 598 869V788Q598 772 595 762Q592 752 588 748L587 747L457 639Q452 635 442 634.5Q432 634 414 638L277 678Q261 682 249 682Q237 682 221 678Z" glyph-name="Hcircumflex" horiz-adv-x="759" unicode="&#292;" /><glyph d="M423 -1 293 -109Q289 -113 280.5 -116Q272 -119 262 -119H107Q83 -119 72 -108Q61 -97 61 -73V535Q61 548 64.5 557Q68 566 75 572L204 681Q209 685 217.5 687.5Q226 690 236 690H391Q415 690 426 679Q437 668 437 644V556Q438 561 441 565Q444 569 448 572L577 681Q582 685 590.5 687.5Q599 690 609 690H764Q788 690 799 679Q810 668 810 644V36Q810 23 806.5 14Q803 5 796 -1L666 -109Q662 -113 653.5 -116Q645 -119 635 -119H480Q456 -119 445 -108Q434 -97 434 -73V15Q433 10 430 6Q427 2 423 -1ZM205 598Q172 588 161.5 595.5Q151 603 151 639V720Q151 739 154.5 749Q158 759 165 766L296 875L295 874Q300 879 308.5 883Q317 887 328 891L455 937Q465 941 476.5 943.5Q488 946 498 947Q508 947 517 946Q526 945 533 941L671 891Q701 880 710 870Q719 860 719 829V748Q719 732 716 722Q713 712 709 708L708 707L578 599Q573 595 563 594.5Q553 594 535 598L398 638Q382 642 370 642Q358 642 342 638Z" glyph-name="Hcircumflex.v" horiz-adv-x="1000" unicode="&#57766;" /><glyph d="M292 -1 162 -109Q158 -113 149.5 -116Q141 -119 131 -119H-24Q-48 -119 -59 -108Q-70 -97 -70 -73V575Q-70 588 -66.5 597Q-63 606 -56 612L73 721Q78 725 86.5 727.5Q95 730 105 730H260Q284 730 295 719Q306 708 306 684V477H324V575Q324 588 327.5 597Q331 606 338 612L467 721Q472 725 480.5 727.5Q489 730 499 730H654Q678 730 689 719Q700 708 700 684V36Q700 23 696.5 14Q693 5 686 -1L556 -109Q552 -113 543.5 -116Q535 -119 525 -119H370Q346 -119 335 -108Q324 -97 324 -73V139H306V36Q306 23 302.5 14Q299 5 292 -1ZM330 -359H172Q148 -359 137 -348Q126 -337 126 -313V-186Q126 -173 129.5 -164Q133 -155 140 -149L269 -40Q274 -36 282.5 -33.5Q291 -31 301 -31H459Q483 -31 494 -42Q505 -53 505 -77V-204Q505 -217 501.5 -226Q498 -235 491 -241L361 -349Q357 -353 348.5 -356Q340 -359 330 -359Z" glyph-name="Hdotbelow" horiz-adv-x="759" unicode="&#7716;" /><glyph d="M386 -119H-40Q-64 -119 -75 -108Q-86 -97 -86 -73V46Q-86 59 -82.5 68Q-79 77 -72 83L49 185V408H-40Q-64 408 -75 419Q-86 430 -86 454V575Q-86 588 -82.5 597Q-79 606 -72 612L57 721Q62 725 70.5 727.5Q79 730 89 730H515Q539 730 550 719Q561 708 561 684V563Q561 550 557.5 541Q554 532 547 526L428 426V201H515Q539 201 550 190Q561 179 561 155V36Q561 23 557.5 14Q554 5 547 -1L417 -109Q413 -113 404.5 -116Q396 -119 386 -119Z" glyph-name="I" horiz-adv-x="605" unicode="I" /><glyph d="M787 -1 657 -109Q653 -113 644.5 -116Q636 -119 626 -119H116Q92 -119 81 -108Q70 -97 70 -73V46Q70 59 73.5 68Q77 77 84 83L213 192Q217 196 224 198Q231 200 240 201V368H116Q92 368 81 379Q70 390 70 414V535Q70 548 73.5 557Q77 566 84 572L213 681Q218 685 226.5 687.5Q235 690 245 690H755Q779 690 790 679Q801 668 801 644V523Q801 510 797.5 501Q794 492 787 486L657 378L658 379Q654 375 647 372Q640 369 631 368V201H755Q779 201 790 190Q801 179 801 155V36Q801 23 797.5 14Q794 5 787 -1Z" glyph-name="I.s_v" horiz-adv-x="1000" unicode="&#57932;" /><glyph d="M136 -119H-23Q-47 -119 -58 -108Q-69 -97 -69 -73V575Q-69 588 -65.5 597Q-62 606 -55 612L74 721Q79 725 87.5 727.5Q96 730 106 730H265Q289 730 300 719Q311 708 311 684V36Q311 23 307.5 14Q304 5 297 -1L167 -109Q163 -113 154.5 -116Q146 -119 136 -119Z" glyph-name="I.salt" horiz-adv-x="371" unicode="&#57620;" /><glyph d="M450 -119H291Q267 -119 256 -108Q245 -97 245 -73V535Q245 548 248.5 557Q252 566 259 572L388 681Q393 685 401.5 687.5Q410 690 420 690H579Q603 690 614 679Q625 668 625 644V36Q625 23 621.5 14Q618 5 611 -1L481 -109Q477 -113 468.5 -116Q460 -119 450 -119Z" glyph-name="I.salt_s_v" horiz-adv-x="1000" unicode="&#57947;" /><glyph d="M450 -119H291Q267 -119 256 -108Q245 -97 245 -73V575Q245 588 248.5 597Q252 606 259 612L388 721Q393 725 401.5 727.5Q410 730 420 730H579Q603 730 614 719Q625 708 625 684V36Q625 23 621.5 14Q618 5 611 -1L481 -109Q477 -113 468.5 -116Q460 -119 450 -119Z" glyph-name="I.salt_v" horiz-adv-x="1000" unicode="&#57857;" /><glyph d="M787 -1 657 -109Q653 -113 644.5 -116Q636 -119 626 -119H116Q92 -119 81 -108Q70 -97 70 -73V46Q70 59 73.5 68Q77 77 84 83L213 192Q217 196 224 198Q231 200 240 201V408H116Q92 408 81 419Q70 430 70 454V575Q70 588 73.5 597Q77 606 84 612L213 721Q218 725 226.5 727.5Q235 730 245 730H755Q779 730 790 719Q801 708 801 684V563Q801 550 797.5 541Q794 532 787 526L657 418L658 419Q654 415 647 412Q640 409 631 408V201H755Q779 201 790 190Q801 179 801 155V36Q801 23 797.5 14Q794 5 787 -1Z" glyph-name="I.v" horiz-adv-x="1000" unicode="&#65321;" /><glyph d="M338 -119H-24Q-48 -119 -59 -108Q-70 -97 -70 -73V48Q-70 61 -66.5 70Q-63 79 -56 85L69 191H-24Q-48 191 -59 202Q-70 213 -70 237V575Q-70 588 -66.5 597Q-63 606 -56 612L73 721Q78 725 86.5 727.5Q95 730 105 730H260Q284 730 295 719Q306 708 306 684V593L457 721Q462 725 470.5 727.5Q479 730 489 730H644Q668 730 679 719Q690 708 690 684V210Q690 153 671.5 110Q653 67 619 39L490 -70Q462 -93 423.5 -106Q385 -119 338 -119ZM164 203H292V309Z" glyph-name="IJ" horiz-adv-x="744" unicode="&#306;" /><glyph d="M136 -119H-23Q-47 -119 -58 -108Q-69 -97 -69 -73V575Q-69 588 -65.5 597Q-62 606 -55 612L74 721Q79 725 87.5 727.5Q96 730 106 730H265Q289 730 300 719Q311 708 311 684V36Q311 23 307.5 14Q304 5 297 -1L167 -109Q163 -113 154.5 -116Q146 -119 136 -119ZM547 -134Q456 -134 397.5 -118Q339 -102 305.5 -74Q272 -46 259.5 -6.5Q247 33 247 80V242Q247 255 250.5 264.5Q254 274 260 279L390 388Q395 392 403 394.5Q411 397 422 397H567Q578 397 586.5 394.5Q595 392 601 387V575Q601 588 604.5 597Q608 606 615 612L744 721Q749 725 757.5 727.5Q766 730 776 730H933Q957 730 968 719Q979 708 979 684V189Q979 142 965.5 102.5Q952 63 918 35L789 -74Q755 -102 697 -118Q639 -134 547 -134Z" glyph-name="IJ.salt" horiz-adv-x="1033" unicode="&#57654;" /><glyph d="M451 290H292Q268 290 257 301Q246 312 246 336V944Q246 957 249.5 966Q253 975 260 981L389 1090Q394 1094 402.5 1096.5Q411 1099 421 1099H580Q604 1099 615 1088Q626 1077 626 1053V445Q626 432 622.5 423Q619 414 612 408L482 300Q478 296 469.5 293Q461 290 451 290ZM369 -485Q275 -485 214.5 -469Q154 -453 120.5 -425Q87 -397 74.5 -357.5Q62 -318 62 -271V-109Q62 -96 65.5 -86.5Q69 -77 75 -72L205 37Q210 41 218 43.5Q226 46 237 46H382Q406 46 417 35.5Q428 25 428 0V179Q428 192 431.5 201Q435 210 442 216L576 330Q581 334 589.5 336.5Q598 339 608 339H765Q789 339 800 328Q811 317 811 293V-162Q811 -208 797.5 -247.5Q784 -287 750 -315L621 -423Q587 -452 526 -468.5Q465 -485 369 -485Z" glyph-name="IJ.salt_v" horiz-adv-x="1000" unicode="&#57893;" /><glyph d="M386 -119H-40Q-64 -119 -75 -108Q-86 -97 -86 -73V46Q-86 59 -82.5 68Q-79 77 -72 83L49 185V408H-40Q-64 408 -75 419Q-86 430 -86 454V575Q-86 588 -82.5 597Q-79 606 -72 612L57 721Q62 725 70.5 727.5Q79 730 89 730H515Q539 730 550 719Q561 708 561 684V563Q561 550 557.5 541Q554 532 547 526L428 426V201H515Q539 201 550 190Q561 179 561 155V36Q561 23 557.5 14Q554 5 547 -1L417 -109Q413 -113 404.5 -116Q396 -119 386 -119ZM777 -134Q686 -134 627.5 -118Q569 -102 535.5 -74Q502 -46 489.5 -6.5Q477 33 477 80V242Q477 255 480.5 264.5Q484 274 490 279L620 388Q625 392 633 394.5Q641 397 652 397H797Q808 397 816.5 394.5Q825 392 831 387V575Q831 588 834.5 597Q838 606 845 612L974 721Q979 725 987.5 727.5Q996 730 1006 730H1163Q1187 730 1198 719Q1209 708 1209 684V189Q1209 142 1195.5 102.5Q1182 63 1148 35L1019 -74Q985 -102 927 -118Q869 -134 777 -134Z" glyph-name="IJ.stack" horiz-adv-x="1263" unicode="&#57655;" /><glyph d="M787 411 657 303Q653 299 644.5 296Q636 293 626 293H116Q92 293 81 304Q70 315 70 339V458Q70 471 73.5 480Q77 489 84 495L213 604Q217 608 224 610Q231 612 240 613V780H116Q92 780 81 791Q70 802 70 826V947Q70 960 73.5 969Q77 978 84 984L213 1093Q218 1097 226.5 1099.5Q235 1102 245 1102H755Q779 1102 790 1091Q801 1080 801 1056V935Q801 922 797.5 913Q794 904 787 898L657 790L658 791Q654 787 647 784Q640 781 631 780V613H755Q779 613 790 602Q801 591 801 567V448Q801 435 797.5 426Q794 417 787 411ZM368 -502Q274 -502 213.5 -486Q153 -470 119.5 -442Q86 -414 73.5 -374.5Q61 -335 61 -288V-126Q61 -113 64.5 -103.5Q68 -94 74 -89L204 20Q209 24 217 26.5Q225 29 236 29H381Q405 29 416 18.5Q427 8 427 -17V162Q427 175 430.5 184Q434 193 441 199L575 313Q580 317 588.5 319.5Q597 322 607 322H764Q788 322 799 311Q810 300 810 276V-179Q810 -225 796.5 -264.5Q783 -304 749 -332L620 -440Q586 -469 525 -485.5Q464 -502 368 -502Z" glyph-name="IJ.stack_v" horiz-adv-x="1000" unicode="&#57894;" /><glyph d="M458 -119H107Q83 -119 72 -108Q61 -97 61 -73V48Q61 61 64.5 70Q68 79 75 85L204 194Q209 198 217.5 200.5Q226 203 236 203H434V345Q433 340 430 336Q427 332 423 329L293 221Q289 217 280.5 214Q272 211 262 211H107Q83 211 72 222Q61 233 61 257V575Q61 588 64.5 597Q68 606 75 612L204 721Q209 725 217.5 727.5Q226 730 236 730H391Q415 730 426 719Q437 708 437 684V602L448 612L577 721Q582 725 590.5 727.5Q599 730 609 730H764Q788 730 799 719Q810 708 810 684V210Q810 153 791.5 110Q773 67 739 39L610 -70Q582 -93 543.5 -106Q505 -119 458 -119Z" glyph-name="IJ.v" horiz-adv-x="1000" unicode="&#57830;" /><glyph d="M423 -1 293 -109Q289 -113 280.5 -116Q272 -119 262 -119H107Q83 -119 72 -108Q61 -97 61 -73V575Q61 588 64.5 597Q68 606 75 612L204 721Q209 725 217.5 727.5Q226 730 236 730H391Q415 730 426 719Q437 708 437 684V596Q438 601 441 605Q444 609 448 612L577 721Q582 725 590.5 727.5Q599 730 609 730H764Q788 730 799 719Q810 708 810 684V36Q810 23 806.5 14Q803 5 796 -1L666 -109Q662 -113 653.5 -116Q645 -119 635 -119H480Q456 -119 445 -108Q434 -97 434 -73V15Q433 10 430 6Q427 2 423 -1Z" glyph-name="I_I.salt_v" horiz-adv-x="1000" unicode="&#57858;" /><glyph d="M386 -119H-40Q-64 -119 -75 -108Q-86 -97 -86 -73V46Q-86 59 -82.5 68Q-79 77 -72 83L49 185V408H-40Q-64 408 -75 419Q-86 430 -86 454V575Q-86 588 -82.5 597Q-79 606 -72 612L57 721Q62 725 70.5 727.5Q79 730 89 730H515Q539 730 550 719Q561 708 561 684V563Q561 550 557.5 541Q554 532 547 526L428 426V201H515Q539 201 550 190Q561 179 561 155V36Q561 23 557.5 14Q554 5 547 -1L417 -109Q413 -113 404.5 -116Q396 -119 386 -119ZM-2 634Q-24 631 -35.5 642.5Q-47 654 -47 677V773Q-47 786 -43.5 794.5Q-40 803 -34 808L96 917Q100 921 108.5 924Q117 927 127 928L476 971Q498 974 509.5 962.5Q521 951 521 928V832Q521 819 517.5 810Q514 801 507 797L378 688Q373 684 365 681.5Q357 679 347 677Z" glyph-name="Iacute" horiz-adv-x="605" unicode="&#205;" /><glyph d="M136 -119H-23Q-47 -119 -58 -108Q-69 -97 -69 -73V575Q-69 588 -65.5 597Q-62 606 -55 612L-15 646L-102 634Q-124 631 -135.5 642.5Q-147 654 -147 677V773Q-147 786 -143.5 794.5Q-140 803 -134 808L-5 917Q-1 921 7.5 924Q16 927 26 928L346 971Q368 974 379.5 962.5Q391 951 391 928V832Q391 819 387.5 810Q384 801 377 797L292 725Q302 720 306.5 710Q311 700 311 684V36Q311 23 307.5 14Q304 5 297 -1L167 -109Q163 -113 154.5 -116Q146 -119 136 -119Z" glyph-name="Iacute.salt" horiz-adv-x="371" unicode="&#57622;" /><glyph d="M196 594Q174 591 162.5 602.5Q151 614 151 637V733Q151 746 154.5 754.5Q158 763 164 768L294 877Q298 881 306.5 884Q315 887 325 888L674 931Q696 934 707.5 922.5Q719 911 719 888V792Q719 779 715.5 770Q712 761 705 757L576 648Q571 644 563 641.5Q555 639 545 637ZM450 -119H291Q267 -119 256 -108Q245 -97 245 -73V535Q245 548 248.5 557Q252 566 259 572L388 681Q393 685 401.5 687.5Q410 690 420 690H579Q603 690 614 679Q625 668 625 644V36Q625 23 621.5 14Q618 5 611 -1L481 -109Q477 -113 468.5 -116Q460 -119 450 -119Z" glyph-name="Iacute.salt_v" horiz-adv-x="1000" unicode="&#57860;" /><glyph d="M787 -1 657 -109Q653 -113 644.5 -116Q636 -119 626 -119H116Q92 -119 81 -108Q70 -97 70 -73V46Q70 59 73.5 68Q77 77 84 83L213 192Q217 196 224 198Q231 200 240 201V368H116Q92 368 81 379Q70 390 70 414V535Q70 548 73.5 557Q77 566 84 572L213 681Q218 685 226.5 687.5Q235 690 245 690H755Q779 690 790 679Q801 668 801 644V523Q801 510 797.5 501Q794 492 787 486L657 378L658 379Q654 375 647 372Q640 369 631 368V201H755Q779 201 790 190Q801 179 801 155V36Q801 23 797.5 14Q794 5 787 -1ZM196 594Q174 591 162.5 602.5Q151 614 151 637V733Q151 746 154.5 754.5Q158 763 164 768L294 877Q298 881 306.5 884Q315 887 325 888L674 931Q696 934 707.5 922.5Q719 911 719 888V792Q719 779 715.5 770Q712 761 705 757L576 648Q571 644 563 641.5Q555 639 545 637Z" glyph-name="Iacute.v" horiz-adv-x="1000" unicode="&#57768;" /><glyph d="M386 -119H-40Q-64 -119 -75 -108Q-86 -97 -86 -73V46Q-86 59 -82.5 68Q-79 77 -72 83L49 185V408H-40Q-64 408 -75 419Q-86 430 -86 454V575Q-86 588 -82.5 597Q-79 606 -72 612L57 721Q62 725 70.5 727.5Q79 730 89 730H515Q539 730 550 719Q561 708 561 684V563Q561 550 557.5 541Q554 532 547 526L428 426V201H515Q539 201 550 190Q561 179 561 155V36Q561 23 557.5 14Q554 5 547 -1L417 -109Q413 -113 404.5 -116Q396 -119 386 -119ZM173 635Q104 635 59.5 646.5Q15 658 -10 678Q-35 698 -44.5 726.5Q-54 755 -54 788V832Q-54 845 -50.5 854Q-47 863 -40 869L89 978Q94 982 102.5 984.5Q111 987 121 987H217Q238 987 247 978.5Q256 970 256 946V925Q256 918 260 912.5Q264 907 274 905L364 980L363 979Q367 983 374 985Q381 987 392 987H483Q507 987 518 976Q529 965 529 941V897Q529 864 519.5 836Q510 808 485 788L356 680Q331 659 287 647Q243 635 173 635Z" glyph-name="Ibreve" horiz-adv-x="605" unicode="&#300;" /><glyph d="M136 -119H-23Q-47 -119 -58 -108Q-69 -97 -69 -73V575Q-69 588 -65.5 597Q-62 606 -55 612L74 721Q79 725 87.5 727.5Q96 730 106 730H265Q289 730 300 719Q311 708 311 684V36Q311 23 307.5 14Q304 5 297 -1L167 -109Q163 -113 154.5 -116Q146 -119 136 -119ZM56 635Q-13 635 -57.5 646.5Q-102 658 -127 678Q-152 698 -161.5 726.5Q-171 755 -171 788V832Q-171 845 -167.5 854Q-164 863 -157 869L-28 978Q-23 982 -14.5 984.5Q-6 987 4 987H100Q121 987 130 978.5Q139 970 139 946V925Q139 918 143 912.5Q147 907 157 905L247 980L246 979Q250 983 257 985Q264 987 275 987H366Q390 987 401 976Q412 965 412 941V897Q412 864 402.5 836Q393 808 368 788L239 680Q214 659 170 647Q126 635 56 635Z" glyph-name="Ibreve.salt" horiz-adv-x="371" unicode="&#57627;" /><glyph d="M450 -119H291Q267 -119 256 -108Q245 -97 245 -73V535Q245 548 248.5 557Q252 566 259 572L388 681Q393 685 401.5 687.5Q410 690 420 690H579Q603 690 614 679Q625 668 625 644V36Q625 23 621.5 14Q618 5 611 -1L481 -109Q477 -113 468.5 -116Q460 -119 450 -119ZM371 595Q302 595 257.5 606.5Q213 618 188 638Q163 658 153.5 686.5Q144 715 144 748V792Q144 805 147.5 814Q151 823 158 829L287 938Q292 942 300.5 944.5Q309 947 319 947H415Q436 947 445 938.5Q454 930 454 906V885Q454 878 458 872.5Q462 867 472 865L562 940L561 939Q565 943 572 945Q579 947 590 947H681Q705 947 716 936Q727 925 727 901V857Q727 824 717.5 796Q708 768 683 748L554 640Q529 619 485 607Q441 595 371 595Z" glyph-name="Ibreve.salt_v" horiz-adv-x="1000" unicode="&#57865;" /><glyph d="M787 -1 657 -109Q653 -113 644.5 -116Q636 -119 626 -119H116Q92 -119 81 -108Q70 -97 70 -73V46Q70 59 73.5 68Q77 77 84 83L213 192Q217 196 224 198Q231 200 240 201V368H116Q92 368 81 379Q70 390 70 414V535Q70 548 73.5 557Q77 566 84 572L213 681Q218 685 226.5 687.5Q235 690 245 690H755Q779 690 790 679Q801 668 801 644V523Q801 510 797.5 501Q794 492 787 486L657 378L658 379Q654 375 647 372Q640 369 631 368V201H755Q779 201 790 190Q801 179 801 155V36Q801 23 797.5 14Q794 5 787 -1ZM371 595Q302 595 257.5 606.5Q213 618 188 638Q163 658 153.5 686.5Q144 715 144 748V792Q144 805 147.5 814Q151 823 158 829L287 938Q292 942 300.5 944.5Q309 947 319 947H415Q436 947 445 938.5Q454 930 454 906V885Q454 878 458 872.5Q462 867 472 865L562 940L561 939Q565 943 572 945Q579 947 590 947H681Q705 947 716 936Q727 925 727 901V857Q727 824 717.5 796Q708 768 683 748L554 640Q529 619 485 607Q441 595 371 595Z" glyph-name="Ibreve.v" horiz-adv-x="1000" unicode="&#57773;" /><glyph d="M386 -119H-40Q-64 -119 -75 -108Q-86 -97 -86 -73V46Q-86 59 -82.5 68Q-79 77 -72 83L49 185V408H-40Q-64 408 -75 419Q-86 430 -86 454V575Q-86 588 -82.5 597Q-79 606 -72 612L57 721Q62 725 70.5 727.5Q79 730 89 730H515Q539 730 550 719Q561 708 561 684V563Q561 550 557.5 541Q554 532 547 526L428 426V201H515Q539 201 550 190Q561 179 561 155V36Q561 23 557.5 14Q554 5 547 -1L417 -109Q413 -113 404.5 -116Q396 -119 386 -119ZM176 633H175Q165 633 156 634Q147 635 140 639L2 689Q-28 700 -37 710Q-46 720 -46 751V832Q-46 849 -43.5 859Q-41 869 -35 873L94 982Q99 986 109.5 986.5Q120 987 138 982L275 942Q291 938 303 938Q315 938 331 942L468 982Q501 992 511.5 984.5Q522 977 522 941V860Q522 841 518 831Q514 821 506 814L377 705Q371 701 363.5 697Q356 693 346 689H345L218 643Q208 639 197 636.5Q186 634 176 633Z" glyph-name="Icaron" horiz-adv-x="605" unicode="&#463;" /><glyph d="M386 -119H-40Q-64 -119 -75 -108Q-86 -97 -86 -73V46Q-86 59 -82.5 68Q-79 77 -72 83L49 185V408H-40Q-64 408 -75 419Q-86 430 -86 454V575Q-86 588 -82.5 597Q-79 606 -72 612L57 721Q62 725 70.5 727.5Q79 730 89 730H515Q539 730 550 719Q561 708 561 684V563Q561 550 557.5 541Q554 532 547 526L428 426V201H515Q539 201 550 190Q561 179 561 155V36Q561 23 557.5 14Q554 5 547 -1L417 -109Q413 -113 404.5 -116Q396 -119 386 -119ZM7 638Q-26 628 -36.5 635.5Q-47 643 -47 679V760Q-47 779 -43.5 789Q-40 799 -33 806L98 915L97 914Q102 919 110.5 923Q119 927 130 931L257 977Q267 981 278.5 983.5Q290 986 300 987Q310 987 319 986Q328 985 335 981L473 931Q503 920 512 910Q521 900 521 869V788Q521 772 518 762Q515 752 511 748L510 747L380 639Q375 635 365 634.5Q355 634 337 638L200 678Q184 682 172 682Q160 682 144 678Z" glyph-name="Icircumflex" horiz-adv-x="605" unicode="&#206;" /><glyph d="M136 -119H-23Q-47 -119 -58 -108Q-69 -97 -69 -73V575Q-69 588 -65.5 597Q-62 606 -55 612L74 721Q79 725 87.5 727.5Q96 730 106 730H265Q289 730 300 719Q311 708 311 684V36Q311 23 307.5 14Q304 5 297 -1L167 -109Q163 -113 154.5 -116Q146 -119 136 -119ZM-109 638Q-142 628 -152.5 635.5Q-163 643 -163 679V760Q-163 779 -159.5 789Q-156 799 -149 806L-18 915L-19 914Q-14 919 -5.5 923Q3 927 14 931L141 977Q151 981 162.5 983.5Q174 986 184 987Q194 987 203 986Q212 985 219 981L357 931Q387 920 396 910Q405 900 405 869V788Q405 772 402 762Q399 752 395 748L394 747L264 639Q259 635 249 634.5Q239 634 221 638L84 678Q68 682 56 682Q44 682 28 678Z" glyph-name="Icircumflex.salt" horiz-adv-x="371" unicode="&#57623;" /><glyph d="M450 -119H291Q267 -119 256 -108Q245 -97 245 -73V535Q245 548 248.5 557Q252 566 259 572L388 681Q393 685 401.5 687.5Q410 690 420 690H579Q603 690 614 679Q625 668 625 644V36Q625 23 621.5 14Q618 5 611 -1L481 -109Q477 -113 468.5 -116Q460 -119 450 -119ZM205 598Q172 588 161.5 595.5Q151 603 151 639V720Q151 739 154.5 749Q158 759 165 766L296 875L295 874Q300 879 308.5 883Q317 887 328 891L455 937Q465 941 476.5 943.5Q488 946 498 947Q508 947 517 946Q526 945 533 941L671 891Q701 880 710 870Q719 860 719 829V748Q719 732 716 722Q713 712 709 708L708 707L578 599Q573 595 563 594.5Q553 594 535 598L398 638Q382 642 370 642Q358 642 342 638Z" glyph-name="Icircumflex.salt_v" horiz-adv-x="1000" unicode="&#57861;" /><glyph d="M787 -1 657 -109Q653 -113 644.5 -116Q636 -119 626 -119H116Q92 -119 81 -108Q70 -97 70 -73V46Q70 59 73.5 68Q77 77 84 83L213 192Q217 196 224 198Q231 200 240 201V368H116Q92 368 81 379Q70 390 70 414V535Q70 548 73.5 557Q77 566 84 572L213 681Q218 685 226.5 687.5Q235 690 245 690H755Q779 690 790 679Q801 668 801 644V523Q801 510 797.5 501Q794 492 787 486L657 378L658 379Q654 375 647 372Q640 369 631 368V201H755Q779 201 790 190Q801 179 801 155V36Q801 23 797.5 14Q794 5 787 -1ZM205 598Q172 588 161.5 595.5Q151 603 151 639V720Q151 739 154.5 749Q158 759 165 766L296 875L295 874Q300 879 308.5 883Q317 887 328 891L455 937Q465 941 476.5 943.5Q488 946 498 947Q508 947 517 946Q526 945 533 941L671 891Q701 880 710 870Q719 860 719 829V748Q719 732 716 722Q713 712 709 708L708 707L578 599Q573 595 563 594.5Q553 594 535 598L398 638Q382 642 370 642Q358 642 342 638Z" glyph-name="Icircumflex.v" horiz-adv-x="1000" unicode="&#57769;" /><glyph d="M386 -119H-40Q-64 -119 -75 -108Q-86 -97 -86 -73V46Q-86 59 -82.5 68Q-79 77 -72 83L49 185V408H-40Q-64 408 -75 419Q-86 430 -86 454V575Q-86 588 -82.5 597Q-79 606 -72 612L57 721Q62 725 70.5 727.5Q79 730 89 730H515Q539 730 550 719Q561 708 561 684V563Q561 550 557.5 541Q554 532 547 526L428 426V201H515Q539 201 550 190Q561 179 561 155V36Q561 23 557.5 14Q554 5 547 -1L417 -109Q413 -113 404.5 -116Q396 -119 386 -119ZM188 690 141 651Q136 646 128.5 643.5Q121 641 111 641H-27Q-49 641 -60 651.5Q-71 662 -71 684V805Q-71 818 -67.5 826Q-64 834 -58 839L71 948Q76 952 84 954.5Q92 957 102 957H240Q262 957 272.5 946.5Q283 936 283 914V908L330 948Q335 952 342.5 954.5Q350 957 360 957H498Q520 957 530.5 946.5Q541 936 541 914V793Q541 781 537.5 772.5Q534 764 528 759L399 651Q394 646 386.5 643.5Q379 641 369 641H231Q209 641 198.5 651.5Q188 662 188 684Z" glyph-name="Idieresis" horiz-adv-x="605" unicode="&#207;" /><glyph d="M136 -119H-23Q-47 -119 -58 -108Q-69 -97 -69 -73V575Q-69 588 -65.5 597Q-62 606 -55 612L74 721Q79 725 87.5 727.5Q96 730 106 730H265Q289 730 300 719Q311 708 311 684V36Q311 23 307.5 14Q304 5 297 -1L167 -109Q163 -113 154.5 -116Q146 -119 136 -119ZM71 690 24 651Q19 646 11.5 643.5Q4 641 -6 641H-144Q-166 641 -177 651.5Q-188 662 -188 684V805Q-188 818 -184.5 826Q-181 834 -175 839L-46 948Q-41 952 -33 954.5Q-25 957 -15 957H123Q145 957 155.5 946.5Q166 936 166 914V908L213 948Q218 952 225.5 954.5Q233 957 243 957H381Q403 957 413.5 946.5Q424 936 424 914V793Q424 781 420.5 772.5Q417 764 411 759L282 651Q277 646 269.5 643.5Q262 641 252 641H114Q92 641 81.5 651.5Q71 662 71 684Z" glyph-name="Idieresis.salt" horiz-adv-x="371" unicode="&#57624;" /><glyph d="M386 650 339 611Q334 606 326.5 603.5Q319 601 309 601H171Q149 601 138 611.5Q127 622 127 644V765Q127 778 130.5 786Q134 794 140 799L269 908Q274 912 282 914.5Q290 917 300 917H438Q460 917 470.5 906.5Q481 896 481 874V868L528 908Q533 912 540.5 914.5Q548 917 558 917H696Q718 917 728.5 906.5Q739 896 739 874V753Q739 741 735.5 732.5Q732 724 726 719L597 611Q592 606 584.5 603.5Q577 601 567 601H429Q407 601 396.5 611.5Q386 622 386 644ZM450 -119H291Q267 -119 256 -108Q245 -97 245 -73V535Q245 548 248.5 557Q252 566 259 572L388 681Q393 685 401.5 687.5Q410 690 420 690H579Q603 690 614 679Q625 668 625 644V36Q625 23 621.5 14Q618 5 611 -1L481 -109Q477 -113 468.5 -116Q460 -119 450 -119Z" glyph-name="Idieresis.salt_v" horiz-adv-x="1000" unicode="&#57862;" /><glyph d="M787 -1 657 -109Q653 -113 644.5 -116Q636 -119 626 -119H116Q92 -119 81 -108Q70 -97 70 -73V46Q70 59 73.5 68Q77 77 84 83L213 192Q217 196 224 198Q231 200 240 201V368H116Q92 368 81 379Q70 390 70 414V535Q70 548 73.5 557Q77 566 84 572L213 681Q218 685 226.5 687.5Q235 690 245 690H755Q779 690 790 679Q801 668 801 644V523Q801 510 797.5 501Q794 492 787 486L657 378L658 379Q654 375 647 372Q640 369 631 368V201H755Q779 201 790 190Q801 179 801 155V36Q801 23 797.5 14Q794 5 787 -1ZM386 650 339 611Q334 606 326.5 603.5Q319 601 309 601H171Q149 601 138 611.5Q127 622 127 644V765Q127 778 130.5 786Q134 794 140 799L269 908Q274 912 282 914.5Q290 917 300 917H438Q460 917 470.5 906.5Q481 896 481 874V868L528 908Q533 912 540.5 914.5Q548 917 558 917H696Q718 917 728.5 906.5Q739 896 739 874V753Q739 741 735.5 732.5Q732 724 726 719L597 611Q592 606 584.5 603.5Q577 601 567 601H429Q407 601 396.5 611.5Q386 622 386 644Z" glyph-name="Idieresis.v" horiz-adv-x="1000" unicode="&#57770;" /><glyph d="M386 -119H-40Q-64 -119 -75 -108Q-86 -97 -86 -73V46Q-86 59 -82.5 68Q-79 77 -72 83L49 185V408H-40Q-64 408 -75 419Q-86 430 -86 454V575Q-86 588 -82.5 597Q-79 606 -72 612L57 721Q62 725 70.5 727.5Q79 730 89 730H515Q539 730 550 719Q561 708 561 684V563Q561 550 557.5 541Q554 532 547 526L428 426V201H515Q539 201 550 190Q561 179 561 155V36Q561 23 557.5 14Q554 5 547 -1L417 -109Q413 -113 404.5 -116Q396 -119 386 -119ZM253 641H95Q71 641 60 652Q49 663 49 687V814Q49 827 52.5 836Q56 845 63 851L192 960Q197 964 205.5 966.5Q214 969 224 969H382Q406 969 417 958Q428 947 428 923V796Q428 783 424.5 774Q421 765 414 759L284 651Q280 647 271.5 644Q263 641 253 641Z" glyph-name="Idotaccent" horiz-adv-x="605" unicode="&#304;" /><glyph d="M136 -119H-23Q-47 -119 -58 -108Q-69 -97 -69 -73V575Q-69 588 -65.5 597Q-62 606 -55 612L74 721Q79 725 87.5 727.5Q96 730 106 730H265Q289 730 300 719Q311 708 311 684V36Q311 23 307.5 14Q304 5 297 -1L167 -109Q163 -113 154.5 -116Q146 -119 136 -119ZM135 641H-23Q-47 641 -58 652Q-69 663 -69 687V814Q-69 827 -65.5 836Q-62 845 -55 851L74 960Q79 964 87.5 966.5Q96 969 106 969H264Q288 969 299 958Q310 947 310 923V796Q310 783 306.5 774Q303 765 296 759L166 651Q162 647 153.5 644Q145 641 135 641Z" glyph-name="Idotaccent.salt" horiz-adv-x="371" unicode="&#57629;" /><glyph d="M451 601H293Q269 601 258 612Q247 623 247 647V774Q247 787 250.5 796Q254 805 261 811L390 920Q395 924 403.5 926.5Q412 929 422 929H580Q604 929 615 918Q626 907 626 883V756Q626 743 622.5 734Q619 725 612 719L482 611Q478 607 469.5 604Q461 601 451 601ZM450 -119H291Q267 -119 256 -108Q245 -97 245 -73V535Q245 548 248.5 557Q252 566 259 572L388 681Q393 685 401.5 687.5Q410 690 420 690H579Q603 690 614 679Q625 668 625 644V36Q625 23 621.5 14Q618 5 611 -1L481 -109Q477 -113 468.5 -116Q460 -119 450 -119Z" glyph-name="Idotaccent.salt_v" horiz-adv-x="1000" unicode="&#57867;" /><glyph d="M787 -1 657 -109Q653 -113 644.5 -116Q636 -119 626 -119H116Q92 -119 81 -108Q70 -97 70 -73V46Q70 59 73.5 68Q77 77 84 83L213 192Q217 196 224 198Q231 200 240 201V368H116Q92 368 81 379Q70 390 70 414V535Q70 548 73.5 557Q77 566 84 572L213 681Q218 685 226.5 687.5Q235 690 245 690H755Q779 690 790 679Q801 668 801 644V523Q801 510 797.5 501Q794 492 787 486L657 378L658 379Q654 375 647 372Q640 369 631 368V201H755Q779 201 790 190Q801 179 801 155V36Q801 23 797.5 14Q794 5 787 -1ZM451 601H293Q269 601 258 612Q247 623 247 647V774Q247 787 250.5 796Q254 805 261 811L390 920Q395 924 403.5 926.5Q412 929 422 929H580Q604 929 615 918Q626 907 626 883V756Q626 743 622.5 734Q619 725 612 719L482 611Q478 607 469.5 604Q461 601 451 601Z" glyph-name="Idotaccent.v" horiz-adv-x="1000" unicode="&#57775;" /><glyph d="M386 -119H-40Q-64 -119 -75 -108Q-86 -97 -86 -73V46Q-86 59 -82.5 68Q-79 77 -72 83L49 185V408H-40Q-64 408 -75 419Q-86 430 -86 454V575Q-86 588 -82.5 597Q-79 606 -72 612L57 721Q62 725 70.5 727.5Q79 730 89 730H515Q539 730 550 719Q561 708 561 684V563Q561 550 557.5 541Q554 532 547 526L428 426V201H515Q539 201 550 190Q561 179 561 155V36Q561 23 557.5 14Q554 5 547 -1L417 -109Q413 -113 404.5 -116Q396 -119 386 -119ZM253 -359H95Q71 -359 60 -348Q49 -337 49 -313V-186Q49 -173 52.5 -164Q56 -155 63 -149L192 -40Q197 -36 205.5 -33.5Q214 -31 224 -31H382Q406 -31 417 -42Q428 -53 428 -77V-204Q428 -217 424.5 -226Q421 -235 414 -241L284 -349Q280 -353 271.5 -356Q263 -359 253 -359Z" glyph-name="Idotbelow" horiz-adv-x="605" unicode="&#7882;" /><glyph d="M386 -119H-40Q-64 -119 -75 -108Q-86 -97 -86 -73V46Q-86 59 -82.5 68Q-79 77 -72 83L49 185V408H-40Q-64 408 -75 419Q-86 430 -86 454V575Q-86 588 -82.5 597Q-79 606 -72 612L57 721Q62 725 70.5 727.5Q79 730 89 730H515Q539 730 550 719Q561 708 561 684V563Q561 550 557.5 541Q554 532 547 526L428 426V201H515Q539 201 550 190Q561 179 561 155V36Q561 23 557.5 14Q554 5 547 -1L417 -109Q413 -113 404.5 -116Q396 -119 386 -119ZM378 642Q373 638 365 635.5Q357 633 347 634L-2 677Q-26 680 -36.5 690Q-47 700 -47 723V819Q-47 832 -43.5 840.5Q-40 849 -33 855L96 964Q102 968 109.5 970Q117 972 127 971L476 928Q500 925 510.5 915Q521 905 521 882V786Q521 773 517.5 764.5Q514 756 507 750Z" glyph-name="Igrave" horiz-adv-x="605" unicode="&#204;" /><glyph d="M136 -119H-23Q-47 -119 -58 -108Q-69 -97 -69 -73V575Q-69 588 -65.5 597Q-62 606 -55 612L3 661L-106 675Q-130 678 -140.5 688Q-151 698 -151 721V817Q-151 830 -147.5 838.5Q-144 847 -137 853L-8 962Q-3 966 5 968Q13 970 23 969L344 928Q368 925 378.5 915Q389 905 389 882V786Q389 773 385.5 764.5Q382 756 375 750L310 696Q311 693 311 690Q311 687 311 684V36Q311 23 307.5 14Q304 5 297 -1L167 -109Q163 -113 154.5 -116Q146 -119 136 -119Z" glyph-name="Igrave.salt" horiz-adv-x="371" unicode="&#57621;" /><glyph d="M450 -119H291Q267 -119 256 -108Q245 -97 245 -73V535Q245 548 248.5 557Q252 566 259 572L388 681Q393 685 401.5 687.5Q410 690 420 690H579Q603 690 614 679Q625 668 625 644V36Q625 23 621.5 14Q618 5 611 -1L481 -109Q477 -113 468.5 -116Q460 -119 450 -119ZM576 602Q571 598 563 595.5Q555 593 545 594L196 637Q172 640 161.5 650Q151 660 151 683V779Q151 792 154.5 800.5Q158 809 165 815L294 924Q300 928 307.5 930Q315 932 325 931L674 888Q698 885 708.5 875Q719 865 719 842V746Q719 733 715.5 724.5Q712 716 705 710Z" glyph-name="Igrave.salt_v" horiz-adv-x="1000" unicode="&#57859;" /><glyph d="M787 -1 657 -109Q653 -113 644.5 -116Q636 -119 626 -119H116Q92 -119 81 -108Q70 -97 70 -73V46Q70 59 73.5 68Q77 77 84 83L213 192Q217 196 224 198Q231 200 240 201V368H116Q92 368 81 379Q70 390 70 414V535Q70 548 73.5 557Q77 566 84 572L213 681Q218 685 226.5 687.5Q235 690 245 690H755Q779 690 790 679Q801 668 801 644V523Q801 510 797.5 501Q794 492 787 486L657 378L658 379Q654 375 647 372Q640 369 631 368V201H755Q779 201 790 190Q801 179 801 155V36Q801 23 797.5 14Q794 5 787 -1ZM576 602Q571 598 563 595.5Q555 593 545 594L196 637Q172 640 161.5 650Q151 660 151 683V779Q151 792 154.5 800.5Q158 809 165 815L294 924Q300 928 307.5 930Q315 932 325 931L674 888Q698 885 708.5 875Q719 865 719 842V746Q719 733 715.5 724.5Q712 716 705 710Z" glyph-name="Igrave.v" horiz-adv-x="1000" unicode="&#57767;" /><glyph d="M386 -119H-40Q-64 -119 -75 -108Q-86 -97 -86 -73V46Q-86 59 -82.5 68Q-79 77 -72 83L49 185V408H-40Q-64 408 -75 419Q-86 430 -86 454V575Q-86 588 -82.5 597Q-79 606 -72 612L57 721Q62 725 70.5 727.5Q79 730 89 730H515Q539 730 550 719Q561 708 561 684V563Q561 550 557.5 541Q554 532 547 526L428 426V201H515Q539 201 550 190Q561 179 561 155V36Q561 23 557.5 14Q554 5 547 -1L417 -109Q413 -113 404.5 -116Q396 -119 386 -119ZM101 629Q86 627 78.5 632.5Q71 638 69 653V654L58 732Q56 741 58.5 747.5Q61 754 65 758L103 790H45Q30 790 23 797Q16 804 16 819V892Q16 900 18.5 905.5Q21 911 25 915L154 1024Q158 1027 162.5 1028.5Q167 1030 174 1030H342Q398 1030 429 1001Q460 972 460 918V854Q460 827 452 809.5Q444 792 431 780L302 671Q291 662 275.5 656.5Q260 651 241 648Z" glyph-name="Ihookabove" horiz-adv-x="605" unicode="&#7880;" /><glyph d="M386 -119H-40Q-64 -119 -75 -108Q-86 -97 -86 -73V46Q-86 59 -82.5 68Q-79 77 -72 83L49 185V408H-40Q-64 408 -75 419Q-86 430 -86 454V575Q-86 588 -82.5 597Q-79 606 -72 612L57 721Q62 725 70.5 727.5Q79 730 89 730H515Q539 730 550 719Q561 708 561 684V563Q561 550 557.5 541Q554 532 547 526L428 426V201H515Q539 201 550 190Q561 179 561 155V36Q561 23 557.5 14Q554 5 547 -1L417 -109Q413 -113 404.5 -116Q396 -119 386 -119ZM346 641H-1Q-25 641 -36 652Q-47 663 -47 687V780Q-47 793 -43.5 802Q-40 811 -33 817L96 926Q101 930 109.5 932.5Q118 935 128 935H475Q499 935 510 924Q521 913 521 889V796Q521 783 517.5 774Q514 765 507 759L377 651Q373 647 364.5 644Q356 641 346 641Z" glyph-name="Imacron" horiz-adv-x="605" unicode="&#298;" /><glyph d="M136 -119H-23Q-47 -119 -58 -108Q-69 -97 -69 -73V575Q-69 588 -65.5 597Q-62 606 -55 612L74 721Q79 725 87.5 727.5Q96 730 106 730H265Q289 730 300 719Q311 708 311 684V36Q311 23 307.5 14Q304 5 297 -1L167 -109Q163 -113 154.5 -116Q146 -119 136 -119ZM230 641H-117Q-141 641 -152 652Q-163 663 -163 687V780Q-163 793 -159.5 802Q-156 811 -149 817L-20 926Q-15 930 -6.5 932.5Q2 935 12 935H359Q383 935 394 924Q405 913 405 889V796Q405 783 401.5 774Q398 765 391 759L261 651Q257 647 248.5 644Q240 641 230 641Z" glyph-name="Imacron.salt" horiz-adv-x="371" unicode="&#57626;" /><glyph d="M450 -119H291Q267 -119 256 -108Q245 -97 245 -73V535Q245 548 248.5 557Q252 566 259 572L388 681Q393 685 401.5 687.5Q410 690 420 690H579Q603 690 614 679Q625 668 625 644V36Q625 23 621.5 14Q618 5 611 -1L481 -109Q477 -113 468.5 -116Q460 -119 450 -119ZM544 601H197Q173 601 162 612Q151 623 151 647V740Q151 753 154.5 762Q158 771 165 777L294 886Q299 890 307.5 892.5Q316 895 326 895H673Q697 895 708 884Q719 873 719 849V756Q719 743 715.5 734Q712 725 705 719L575 611Q571 607 562.5 604Q554 601 544 601Z" glyph-name="Imacron.salt_v" horiz-adv-x="1000" unicode="&#57864;" /><glyph d="M787 -1 657 -109Q653 -113 644.5 -116Q636 -119 626 -119H116Q92 -119 81 -108Q70 -97 70 -73V46Q70 59 73.5 68Q77 77 84 83L213 192Q217 196 224 198Q231 200 240 201V368H116Q92 368 81 379Q70 390 70 414V535Q70 548 73.5 557Q77 566 84 572L213 681Q218 685 226.5 687.5Q235 690 245 690H755Q779 690 790 679Q801 668 801 644V523Q801 510 797.5 501Q794 492 787 486L657 378L658 379Q654 375 647 372Q640 369 631 368V201H755Q779 201 790 190Q801 179 801 155V36Q801 23 797.5 14Q794 5 787 -1ZM544 601H197Q173 601 162 612Q151 623 151 647V740Q151 753 154.5 762Q158 771 165 777L294 886Q299 890 307.5 892.5Q316 895 326 895H673Q697 895 708 884Q719 873 719 849V756Q719 743 715.5 734Q712 725 705 719L575 611Q571 607 562.5 604Q554 601 544 601Z" glyph-name="Imacron.v" horiz-adv-x="1000" unicode="&#57772;" /><glyph d="M389 -305H278Q209 -305 182.5 -270Q156 -235 167 -158L174 -119H-40Q-64 -119 -75 -108Q-86 -97 -86 -73V46Q-86 59 -82.5 68Q-79 77 -72 83L49 185V408H-40Q-64 408 -75 419Q-86 430 -86 454V575Q-86 588 -82.5 597Q-79 606 -72 612L57 721Q62 725 70.5 727.5Q79 730 89 730H515Q539 730 550 719Q561 708 561 684V563Q561 550 557.5 541Q554 532 547 526L428 426V201H515Q539 201 550 190Q561 179 561 155V36Q561 23 557.5 14Q554 5 547 -1L505 -36H515Q542 -36 551.5 -45.5Q561 -55 561 -80V-152Q561 -165 558 -174Q555 -183 550 -188L419 -297Q415 -301 407 -303Q399 -305 389 -305Z" glyph-name="Iogonek" horiz-adv-x="605" unicode="&#302;" /><glyph d="M135 -305H24Q-45 -305 -71.5 -270Q-98 -235 -87 -158L-69 -59V575Q-69 588 -65.5 597Q-62 606 -55 612L74 721Q79 725 87.5 727.5Q96 730 106 730H265Q289 730 300 719Q311 708 311 684V36Q311 23 307.5 14Q304 5 297 -1L255 -36H261Q288 -36 297.5 -45.5Q307 -55 307 -80V-152Q307 -165 304 -174Q301 -183 296 -188L165 -297Q161 -301 153 -303Q145 -305 135 -305Z" glyph-name="Iogonek.salt" horiz-adv-x="371" unicode="&#57628;" /><glyph d="M450 -305H339Q270 -305 243.5 -270Q217 -235 228 -158L246 -59V535Q246 548 249.5 557Q253 566 260 572L389 681Q394 685 402.5 687.5Q411 690 421 690H580Q604 690 615 679Q626 668 626 644V36Q626 23 622.5 14Q619 5 612 -1L570 -36H576Q603 -36 612.5 -45.5Q622 -55 622 -80V-152Q622 -165 619 -174Q616 -183 611 -188L480 -297Q476 -301 468 -303Q460 -305 450 -305Z" glyph-name="Iogonek.salt_v" horiz-adv-x="1000" unicode="&#57866;" /><glyph d="M659 -257Q655 -261 647 -263Q639 -265 629 -265H518Q449 -265 422.5 -230Q396 -195 407 -118L414 -79H116Q92 -79 81 -68Q70 -57 70 -33V86Q70 99 73.5 108Q77 117 84 123L213 232Q217 236 224 238Q231 240 240 241V408H116Q92 408 81 419Q70 430 70 454V575Q70 588 73.5 597Q77 606 84 612L213 721Q218 725 226.5 727.5Q235 730 245 730H755Q779 730 790 719Q801 708 801 684V563Q801 550 797.5 541Q794 532 787 526L657 418L658 419Q654 415 647 412Q640 409 631 408V241H755Q779 241 790 230Q801 219 801 195V76Q801 63 797.5 54Q794 45 787 39L745 4H755Q782 4 791.5 -5.5Q801 -15 801 -40V-112Q801 -125 798 -134Q795 -143 790 -148Z" glyph-name="Iogonek.v" horiz-adv-x="1000" unicode="&#57774;" /><glyph d="M386 -119H-40Q-64 -119 -75 -108Q-86 -97 -86 -73V46Q-86 59 -82.5 68Q-79 77 -72 83L49 185V408H-40Q-64 408 -75 419Q-86 430 -86 454V575Q-86 588 -82.5 597Q-79 606 -72 612L57 721Q62 725 70.5 727.5Q79 730 89 730H515Q539 730 550 719Q561 708 561 684V563Q561 550 557.5 541Q554 532 547 526L428 426V201H515Q539 201 550 190Q561 179 561 155V36Q561 23 557.5 14Q554 5 547 -1L417 -109Q413 -113 404.5 -116Q396 -119 386 -119ZM348 648Q324 641 307 637.5Q290 634 274 634Q258 634 238 636.5Q218 639 187 643L171 645L143 649Q115 653 97 654.5Q79 656 64 654.5Q49 653 35 649.5Q21 646 2 640Q-23 633 -35 642Q-47 651 -47 676V777Q-47 790 -43.5 798.5Q-40 807 -32 814L97 922Q101 926 108.5 929.5Q116 933 124 936H125V937Q149 944 165.5 947.5Q182 951 198.5 951Q215 951 234.5 948.5Q254 946 285 942L302 940L324 937Q356 932 375 930Q394 928 408 929Q422 930 436 934Q450 938 471 945Q496 952 508 943Q520 934 520 909V808Q520 795 516 786.5Q512 778 505 772L375 663Q371 659 364 655.5Q357 652 349 649H348Z" glyph-name="Itilde" horiz-adv-x="605" unicode="&#296;" /><glyph d="M136 -119H-23Q-47 -119 -58 -108Q-69 -97 -69 -73V575Q-69 588 -65.5 597Q-62 606 -55 612L74 721Q79 725 87.5 727.5Q96 730 106 730H265Q289 730 300 719Q311 708 311 684V36Q311 23 307.5 14Q304 5 297 -1L167 -109Q163 -113 154.5 -116Q146 -119 136 -119ZM232 648Q208 641 191 637.5Q174 634 158 634Q142 634 122 636.5Q102 639 71 643L55 645L27 649Q-1 653 -19 654.5Q-37 656 -52 654.5Q-67 653 -81 649.5Q-95 646 -114 640Q-139 633 -151 642Q-163 651 -163 676V777Q-163 790 -159.5 798.5Q-156 807 -148 814L-19 922Q-15 926 -7.5 929.5Q0 933 8 936H9V937Q33 944 49.5 947.5Q66 951 82.5 951Q99 951 118.5 948.5Q138 946 169 942L186 940L208 937Q240 932 259 930Q278 928 292 929Q306 930 320 934Q334 938 355 945Q380 952 392 943Q404 934 404 909V808Q404 795 400 786.5Q396 778 389 772L259 663Q255 659 248 655.5Q241 652 233 649H232Z" glyph-name="Itilde.salt" horiz-adv-x="371" unicode="&#57625;" /><glyph d="M546 608Q522 601 505 597.5Q488 594 472 594Q456 594 436 596.5Q416 599 385 603L369 605L341 609Q313 613 295 614.5Q277 616 262 614.5Q247 613 233 609.5Q219 606 200 600Q175 593 163 602Q151 611 151 636V737Q151 750 154.5 758.5Q158 767 166 774L295 882Q299 886 306.5 889.5Q314 893 322 896H323V897Q347 904 363.5 907.5Q380 911 396.5 911Q413 911 432.5 908.5Q452 906 483 902L500 900L522 897Q554 892 573 890Q592 888 606 889Q620 890 634 894Q648 898 669 905Q694 912 706 903Q718 894 718 869V768Q718 755 714 746.5Q710 738 703 732L573 623Q569 619 562 615.5Q555 612 547 609H546ZM450 -119H291Q267 -119 256 -108Q245 -97 245 -73V535Q245 548 248.5 557Q252 566 259 572L388 681Q393 685 401.5 687.5Q410 690 420 690H579Q603 690 614 679Q625 668 625 644V36Q625 23 621.5 14Q618 5 611 -1L481 -109Q477 -113 468.5 -116Q460 -119 450 -119Z" glyph-name="Itilde.salt_v" horiz-adv-x="1000" unicode="&#57863;" /><glyph d="M787 -1 657 -109Q653 -113 644.5 -116Q636 -119 626 -119H116Q92 -119 81 -108Q70 -97 70 -73V46Q70 59 73.5 68Q77 77 84 83L213 192Q217 196 224 198Q231 200 240 201V368H116Q92 368 81 379Q70 390 70 414V535Q70 548 73.5 557Q77 566 84 572L213 681Q218 685 226.5 687.5Q235 690 245 690H755Q779 690 790 679Q801 668 801 644V523Q801 510 797.5 501Q794 492 787 486L657 378L658 379Q654 375 647 372Q640 369 631 368V201H755Q779 201 790 190Q801 179 801 155V36Q801 23 797.5 14Q794 5 787 -1ZM546 608Q522 601 505 597.5Q488 594 472 594Q456 594 436 596.5Q416 599 385 603L369 605L341 609Q313 613 295 614.5Q277 616 262 614.5Q247 613 233 609.5Q219 606 200 600Q175 593 163 602Q151 611 151 636V737Q151 750 154.5 758.5Q158 767 166 774L295 882Q299 886 306.5 889.5Q314 893 322 896H323V897Q347 904 363.5 907.5Q380 911 396.5 911Q413 911 432.5 908.5Q452 906 483 902L500 900L522 897Q554 892 573 890Q592 888 606 889Q620 890 634 894Q648 898 669 905Q694 912 706 903Q718 894 718 869V768Q718 755 714 746.5Q710 738 703 732L573 623Q569 619 562 615.5Q555 612 547 609H546Z" glyph-name="Itilde.v" horiz-adv-x="1000" unicode="&#57771;" /><glyph d="M202 -134Q111 -134 52.5 -118Q-6 -102 -39.5 -74Q-73 -46 -85.5 -6.5Q-98 33 -98 80V242Q-98 255 -94.5 264.5Q-91 274 -85 279L45 388Q50 392 58 394.5Q66 397 77 397H222Q233 397 241.5 394.5Q250 392 256 387V575Q256 588 259.5 597Q263 606 270 612L399 721Q404 725 412.5 727.5Q421 730 431 730H588Q612 730 623 719Q634 708 634 684V189Q634 142 620.5 102.5Q607 63 573 35L444 -74Q410 -102 352 -118Q294 -134 202 -134Z" glyph-name="J" horiz-adv-x="688" unicode="J" /><glyph d="M368 -134Q274 -134 213.5 -118Q153 -102 119.5 -74Q86 -46 73.5 -6.5Q61 33 61 80V242Q61 255 64.5 264.5Q68 274 74 279L204 388Q209 392 217 394.5Q225 397 236 397H381Q405 397 416 386.5Q427 376 427 351V530Q427 543 430.5 552Q434 561 441 567L575 681Q580 685 588.5 687.5Q597 690 607 690H764Q788 690 799 679Q810 668 810 644V189Q810 143 796.5 103.5Q783 64 749 36L620 -72Q586 -101 525 -117.5Q464 -134 368 -134Z" glyph-name="J.s_v" horiz-adv-x="1000" unicode="&#57933;" /><glyph d="M368 -135Q274 -135 213.5 -119Q153 -103 119.5 -74.5Q86 -46 73.5 -6.5Q61 33 61 80V242Q61 255 64.5 264.5Q68 274 74 279L204 388Q209 392 217 394.5Q225 397 236 397H381Q405 397 416 386.5Q427 376 427 351V571Q427 584 430.5 593Q434 602 441 608L575 721Q580 725 588.5 727.5Q597 730 607 730H764Q788 730 799 719Q810 708 810 684V189Q810 143 796.5 103.5Q783 64 749 36L620 -73Q586 -102 525 -118.5Q464 -135 368 -135Z" glyph-name="J.v" horiz-adv-x="1000" unicode="&#65322;" /><glyph d="M202 -134Q111 -134 52.5 -118Q-6 -102 -39.5 -74Q-73 -46 -85.5 -6.5Q-98 33 -98 80V242Q-98 255 -94.5 264.5Q-91 274 -85 279L45 388Q50 392 58 394.5Q66 397 77 397H222Q233 397 241.5 394.5Q250 392 256 387V575Q256 588 259.5 597Q263 606 270 612L399 721Q404 725 412.5 727.5Q421 730 431 730H588Q612 730 623 719Q634 708 634 684V189Q634 142 620.5 102.5Q607 63 573 35L444 -74Q410 -102 352 -118Q294 -134 202 -134ZM207 638Q174 628 163.5 635.5Q153 643 153 679V760Q153 779 156.5 789Q160 799 167 806L298 915L297 914Q302 919 310.5 923Q319 927 330 931L457 977Q467 981 478.5 983.5Q490 986 500 987Q510 987 519 986Q528 985 535 981L673 931Q703 920 712 910Q721 900 721 869V788Q721 772 718 762Q715 752 711 748L710 747L580 639Q575 635 565 634.5Q555 634 537 638L400 678Q384 682 372 682Q360 682 344 678Z" glyph-name="Jcircumflex" horiz-adv-x="688" unicode="&#308;" /><glyph d="M368 -134Q274 -134 213.5 -118Q153 -102 119.5 -74Q86 -46 73.5 -6.5Q61 33 61 80V242Q61 255 64.5 264.5Q68 274 74 279L204 388Q209 392 217 394.5Q225 397 236 397H381Q405 397 416 386.5Q427 376 427 351V530Q427 543 430.5 552Q434 561 441 567L575 681Q580 685 588.5 687.5Q597 690 607 690H764Q788 690 799 679Q810 668 810 644V189Q810 143 796.5 103.5Q783 64 749 36L620 -72Q586 -101 525 -117.5Q464 -134 368 -134ZM295 598Q262 588 251.5 595.5Q241 603 241 639V720Q241 739 244.5 749Q248 759 255 766L386 875L385 874Q390 879 398.5 883Q407 887 418 891L545 937Q555 941 566.5 943.5Q578 946 588 947Q598 947 607 946Q616 945 623 941L761 891Q791 880 800 870Q809 860 809 829V748Q809 732 806 722Q803 712 799 708L798 707L668 599Q663 595 653 594.5Q643 594 625 598L488 638Q472 642 460 642Q448 642 432 638Z" glyph-name="Jcircumflex.v" horiz-adv-x="1000" unicode="&#57776;" /><glyph d="M292 -1 162 -109Q158 -113 149.5 -116Q141 -119 131 -119H-24Q-48 -119 -59 -108Q-70 -97 -70 -73V575Q-70 588 -66.5 597Q-63 606 -56 612L73 721Q78 725 86.5 727.5Q95 730 105 730H260Q284 730 295 719Q306 708 306 684V593Q309 597 312 601.5Q315 606 319 609L448 718Q455 724 465.5 727Q476 730 489 730H643Q668 730 676 717.5Q684 705 674 683L578 463Q632 456 664 417Q696 378 696 318V36Q696 23 692.5 14Q689 5 682 -1L552 -109Q548 -113 539.5 -116Q531 -119 521 -119H367Q343 -119 332 -108Q321 -97 321 -73V122Q321 132 317 138Q313 144 306 145V36Q306 23 302.5 14Q299 5 292 -1Z" glyph-name="K" horiz-adv-x="746" unicode="K" /><glyph d="M423 -1 293 -109Q289 -113 280.5 -116Q272 -119 262 -119H107Q83 -119 72 -108Q61 -97 61 -73V535Q61 548 64.5 557Q68 566 75 572L204 681Q209 685 217.5 687.5Q226 690 236 690H391Q415 690 426 679Q437 668 437 644V572L562 678Q569 684 579.5 687Q590 690 603 690H757Q782 690 790 677.5Q798 665 788 643L692 443Q746 436 778 397Q810 358 810 298V36Q810 23 806.5 14Q803 5 796 -1L666 -109Q662 -113 653.5 -116Q645 -119 635 -119H481Q457 -119 446 -108Q435 -97 435 -73V18Q434 12 430.5 7.5Q427 3 423 -1Z" glyph-name="K.s_v" horiz-adv-x="1000" unicode="&#57934;" /><glyph d="M424 -1 294 -109Q290 -113 281.5 -116Q273 -119 263 -119H108Q84 -119 73 -108Q62 -97 62 -73V575Q62 588 65.5 597Q69 606 76 612L205 721Q210 725 218.5 727.5Q227 730 237 730H392Q416 730 427 719Q438 708 438 684V612L563 718Q570 724 580.5 727Q591 730 604 730H758Q783 730 791 717.5Q799 705 789 683L693 463Q747 456 779 417Q811 378 811 318V36Q811 23 807.5 14Q804 5 797 -1L667 -109Q663 -113 654.5 -116Q646 -119 636 -119H482Q458 -119 447 -108Q436 -97 436 -73V18Q435 12 431.5 7.5Q428 3 424 -1Z" glyph-name="K.v" horiz-adv-x="1000" unicode="&#65323;" /><glyph d="M292 -1 162 -109Q158 -113 149.5 -116Q141 -119 131 -119H-24Q-48 -119 -59 -108Q-70 -97 -70 -73V575Q-70 588 -66.5 597Q-63 606 -56 612L73 721Q78 725 86.5 727.5Q95 730 105 730H260Q284 730 295 719Q306 708 306 684V593Q309 597 312 601.5Q315 606 319 609L448 718Q455 724 465.5 727Q476 730 489 730H643Q668 730 676 717.5Q684 705 674 683L578 463Q632 456 664 417Q696 378 696 318V36Q696 23 692.5 14Q689 5 682 -1L552 -109Q548 -113 539.5 -116Q531 -119 521 -119H367Q343 -119 332 -108Q321 -97 321 -73V122Q321 132 317 138Q313 144 306 145V36Q306 23 302.5 14Q299 5 292 -1ZM235 -481H169Q148 -481 138.5 -471.5Q129 -462 129 -440V-406Q129 -393 132 -385.5Q135 -378 141 -374L171 -349H165Q139 -349 128.5 -338.5Q118 -328 118 -300V-191Q118 -175 121 -165.5Q124 -156 131 -150L261 -42L260 -43Q264 -39 272.5 -36Q281 -33 294 -33H452Q478 -33 488.5 -43.5Q499 -54 499 -82V-234Q499 -271 487.5 -298.5Q476 -326 456 -343L327 -452Q310 -466 286.5 -473.5Q263 -481 235 -481Z" glyph-name="Kcommaaccent" horiz-adv-x="746" unicode="&#310;" /><glyph d="M423 39 293 -69Q289 -73 280.5 -76Q272 -79 262 -79H107Q83 -79 72 -68Q61 -57 61 -33V575Q61 588 64.5 597Q68 606 75 612L204 721Q209 725 217.5 727.5Q226 730 236 730H391Q415 730 426 719Q437 708 437 684V612L562 718Q569 724 579.5 727Q590 730 603 730H757Q782 730 790 717.5Q798 705 788 683L692 483Q746 476 778 437Q810 398 810 338V76Q810 63 806.5 54Q803 45 796 39L666 -69Q662 -73 653.5 -76Q645 -79 635 -79H481Q457 -79 446 -68Q435 -57 435 -33V58Q434 52 430.5 47.5Q427 43 423 39ZM363 -409H297Q276 -409 266.5 -399.5Q257 -390 257 -368V-344Q257 -331 260 -323.5Q263 -316 269 -312L299 -287H293Q267 -287 256.5 -276.5Q246 -266 246 -238V-159Q246 -143 249 -133Q252 -123 259 -117L389 -9Q394 -5 402 -2.5Q410 0 422 0H580Q606 0 616.5 -10.5Q627 -21 627 -50V-162Q627 -199 615.5 -226.5Q604 -254 584 -271L455 -380Q438 -394 414.5 -401.5Q391 -409 363 -409Z" glyph-name="Kcommaaccent.v" horiz-adv-x="1000" unicode="&#57777;" /><glyph d="M485 -119H-24Q-48 -119 -59 -108Q-70 -97 -70 -73V575Q-70 588 -66.5 597Q-63 606 -56 612L73 721Q78 725 86.5 727.5Q95 730 105 730H260Q284 730 295 719Q306 708 306 684V277L308 279L437 388Q442 392 450.5 394.5Q459 397 469 397H614Q638 397 649 386Q660 375 660 351V36Q660 23 656.5 14Q653 5 646 -1L516 -109Q512 -113 503.5 -116Q495 -119 485 -119Z" glyph-name="L" horiz-adv-x="695" unicode="L" /><glyph d="M635 -119H107Q83 -119 72 -108Q61 -97 61 -73V535Q61 548 64.5 557Q68 566 75 572L204 681Q209 685 217.5 687.5Q226 690 236 690H391Q415 690 426 679Q437 668 437 644V199H447V235Q447 248 450.5 257Q454 266 461 272L587 378Q592 382 600.5 384.5Q609 387 619 387H764Q788 387 799 376Q810 365 810 341V36Q810 23 806.5 14Q803 5 796 -1L666 -109Q662 -113 653.5 -116Q645 -119 635 -119Z" glyph-name="L.s_v" horiz-adv-x="1000" unicode="&#57935;" /><glyph d="M422 -119H-24Q-48 -119 -59 -108Q-70 -97 -70 -73V575Q-70 588 -66.5 597Q-63 606 -56 612L73 721Q78 725 86.5 727.5Q95 730 105 730H260Q284 730 295 719Q306 708 306 684V203H551Q575 203 586 192Q597 181 597 157V36Q597 23 593.5 14Q590 5 583 -1L453 -109Q449 -113 440.5 -116Q432 -119 422 -119Z" glyph-name="L.salt" horiz-adv-x="615" unicode="&#57630;" /><glyph d="M626 -119H108Q84 -119 73 -108Q62 -97 62 -73V535Q62 548 65.5 557Q69 566 76 572L205 681Q210 685 218.5 687.5Q227 690 237 690H392Q416 690 427 679Q438 668 438 644V201H755Q779 201 790 190Q801 179 801 155V36Q801 23 797.5 14Q794 5 787 -1L657 -109Q653 -113 644.5 -116Q636 -119 626 -119Z" glyph-name="L.salt_s_v" horiz-adv-x="1000" unicode="&#57874;" /><glyph d="M626 -119H108Q84 -119 73 -108Q62 -97 62 -73V575Q62 588 65.5 597Q69 606 76 612L205 721Q210 725 218.5 727.5Q227 730 237 730H392Q416 730 427 719Q438 708 438 684V203H755Q779 203 790 192Q801 181 801 157V36Q801 23 797.5 14Q794 5 787 -1L657 -109Q653 -113 644.5 -116Q636 -119 626 -119Z" glyph-name="L.salt_v" horiz-adv-x="1000" unicode="&#57868;" /><glyph d="M636 -119H108Q84 -119 73 -108Q62 -97 62 -73V575Q62 588 65.5 597Q69 606 76 612L205 721Q210 725 218.5 727.5Q227 730 237 730H392Q416 730 427 719Q438 708 438 684V199H448V243Q448 256 451.5 265Q455 274 462 280L588 388Q593 392 601.5 394.5Q610 397 620 397H765Q789 397 800 386Q811 375 811 351V36Q811 23 807.5 14Q804 5 797 -1L667 -109Q663 -113 654.5 -116Q646 -119 636 -119Z" glyph-name="L.v" horiz-adv-x="1000" unicode="&#65324;" /><glyph d="M485 -119H-24Q-48 -119 -59 -108Q-70 -97 -70 -73V575Q-70 588 -66.5 597Q-63 606 -56 612L73 721Q78 725 86.5 727.5Q95 730 105 730H260Q284 730 295 719Q306 708 306 684V277L308 279L437 388Q442 392 450.5 394.5Q459 397 469 397H614Q638 397 649 386Q660 375 660 351V36Q660 23 656.5 14Q653 5 646 -1L516 -109Q512 -113 503.5 -116Q495 -119 485 -119ZM-25 634Q-47 631 -58.5 642.5Q-70 654 -70 677V773Q-70 786 -66.5 794.5Q-63 803 -57 808L73 917Q77 921 85.5 924Q94 927 104 928L453 971Q475 974 486.5 962.5Q498 951 498 928V832Q498 819 494.5 810Q491 801 484 797L355 688Q350 684 342 681.5Q334 679 324 677Z" glyph-name="Lacute" horiz-adv-x="695" unicode="&#313;" /><glyph d="M422 -119H-24Q-48 -119 -59 -108Q-70 -97 -70 -73V575Q-70 588 -66.5 597Q-63 606 -56 612L73 721Q78 725 86.5 727.5Q95 730 105 730H260Q284 730 295 719Q306 708 306 684V203H551Q575 203 586 192Q597 181 597 157V36Q597 23 593.5 14Q590 5 583 -1L453 -109Q449 -113 440.5 -116Q432 -119 422 -119ZM-25 634Q-47 631 -58.5 642.5Q-70 654 -70 677V773Q-70 786 -66.5 794.5Q-63 803 -57 808L73 917Q77 921 85.5 924Q94 927 104 928L453 971Q475 974 486.5 962.5Q498 951 498 928V832Q498 819 494.5 810Q491 801 484 797L355 688Q350 684 342 681.5Q334 679 324 677Z" glyph-name="Lacute.salt" horiz-adv-x="615" unicode="&#57631;" /><glyph d="M626 -119H108Q84 -119 73 -108Q62 -97 62 -73V535Q62 548 65.5 557Q69 566 76 572L205 681Q210 685 218.5 687.5Q227 690 237 690H392Q416 690 427 679Q438 668 438 644V201H755Q779 201 790 190Q801 179 801 155V36Q801 23 797.5 14Q794 5 787 -1L657 -109Q653 -113 644.5 -116Q636 -119 626 -119ZM106 594Q84 591 72.5 602.5Q61 614 61 637V733Q61 746 64.5 754.5Q68 763 74 768L204 877Q208 881 216.5 884Q225 887 235 888L584 931Q606 934 617.5 922.5Q629 911 629 888V792Q629 779 625.5 770Q622 761 615 757L486 648Q481 644 473 641.5Q465 639 455 637Z" glyph-name="Lacute.salt_v" horiz-adv-x="1000" unicode="&#57869;" /><glyph d="M635 -119H107Q83 -119 72 -108Q61 -97 61 -73V535Q61 548 64.5 557Q68 566 75 572L204 681Q209 685 217.5 687.5Q226 690 236 690H391Q415 690 426 679Q437 668 437 644V199H447V235Q447 248 450.5 257Q454 266 461 272L587 378Q592 382 600.5 384.5Q609 387 619 387H764Q788 387 799 376Q810 365 810 341V36Q810 23 806.5 14Q803 5 796 -1L666 -109Q662 -113 653.5 -116Q645 -119 635 -119ZM106 594Q84 591 72.5 602.5Q61 614 61 637V733Q61 746 64.5 754.5Q68 763 74 768L204 877Q208 881 216.5 884Q225 887 235 888L584 931Q606 934 617.5 922.5Q629 911 629 888V792Q629 779 625.5 770Q622 761 615 757L486 648Q481 644 473 641.5Q465 639 455 637Z" glyph-name="Lacute.v" horiz-adv-x="1000" unicode="&#57778;" /><glyph d="M485 -119H-24Q-48 -119 -59 -108Q-70 -97 -70 -73V575Q-70 588 -66.5 597Q-63 606 -56 612L73 721Q78 725 86.5 727.5Q95 730 105 730H260Q284 730 295 719Q306 708 306 684V277L308 279L437 388Q442 392 450.5 394.5Q459 397 469 397H614Q638 397 649 386Q660 375 660 351V36Q660 23 656.5 14Q653 5 646 -1L516 -109Q512 -113 503.5 -116Q495 -119 485 -119ZM430 333H306Q281 333 268.5 345Q256 357 260 381L293 576Q295 589 298.5 598Q302 607 309 613L438 721Q443 725 450.5 727.5Q458 730 468 730H606Q631 730 644 717Q657 704 652 682L605 486Q602 473 598 464.5Q594 456 588 450L459 342V343Q455 338 447.5 335.5Q440 333 430 333Z" glyph-name="Lcaron" horiz-adv-x="695" unicode="&#317;" /><glyph d="M422 -119H-24Q-48 -119 -59 -108Q-70 -97 -70 -73V575Q-70 588 -66.5 597Q-63 606 -56 612L73 721Q78 725 86.5 727.5Q95 730 105 730H260Q284 730 295 719Q306 708 306 684V203H551Q575 203 586 192Q597 181 597 157V36Q597 23 593.5 14Q590 5 583 -1L453 -109Q449 -113 440.5 -116Q432 -119 422 -119ZM400 333H276Q251 333 238.5 345Q226 357 230 381L263 576Q265 589 268.5 598Q272 607 279 613L408 721Q413 725 420.5 727.5Q428 730 438 730H576Q601 730 614 717Q627 704 622 682L575 486Q572 473 568 464.5Q564 456 558 450L429 342V343Q425 338 417.5 335.5Q410 333 400 333Z" glyph-name="Lcaron.salt" horiz-adv-x="615" unicode="&#57633;" /><glyph d="M626 -119H108Q84 -119 73 -108Q62 -97 62 -73V575Q62 588 65.5 597Q69 606 76 612L205 721Q210 725 218.5 727.5Q227 730 237 730H392Q416 730 427 719Q438 708 438 684V203H755Q779 203 790 192Q801 181 801 157V36Q801 23 797.5 14Q794 5 787 -1L657 -109Q653 -113 644.5 -116Q636 -119 626 -119ZM605 333H481Q456 333 443.5 345Q431 357 435 381L468 576Q470 589 473.5 598Q477 607 484 613L613 721Q618 725 625.5 727.5Q633 730 643 730H781Q806 730 819 717Q832 704 827 682L780 486Q777 473 773 464.5Q769 456 763 450L634 342V343Q630 338 622.5 335.5Q615 333 605 333Z" glyph-name="Lcaron.salt_v" horiz-adv-x="1000" unicode="&#57871;" /><glyph d="M636 -119H108Q84 -119 73 -108Q62 -97 62 -73V575Q62 588 65.5 597Q69 606 76 612L205 721Q210 725 218.5 727.5Q227 730 237 730H392Q416 730 427 719Q438 708 438 684V199H448V243Q448 256 451.5 265Q455 274 462 280L588 388Q593 392 601.5 394.5Q610 397 620 397H765Q789 397 800 386Q811 375 811 351V36Q811 23 807.5 14Q804 5 797 -1L667 -109Q663 -113 654.5 -116Q646 -119 636 -119ZM605 333H481Q456 333 443.5 345Q431 357 435 381L468 576Q470 589 473.5 598Q477 607 484 613L613 721Q618 725 625.5 727.5Q633 730 643 730H781Q806 730 819 717Q832 704 827 682L780 486Q777 473 773 464.5Q769 456 763 450L634 342V343Q630 338 622.5 335.5Q615 333 605 333Z" glyph-name="Lcaron.v" horiz-adv-x="1000" unicode="&#57780;" /><glyph d="M485 -119H-24Q-48 -119 -59 -108Q-70 -97 -70 -73V575Q-70 588 -66.5 597Q-63 606 -56 612L73 721Q78 725 86.5 727.5Q95 730 105 730H260Q284 730 295 719Q306 708 306 684V277L308 279L437 388Q442 392 450.5 394.5Q459 397 469 397H614Q638 397 649 386Q660 375 660 351V36Q660 23 656.5 14Q653 5 646 -1L516 -109Q512 -113 503.5 -116Q495 -119 485 -119ZM226 -481H160Q139 -481 129.5 -471.5Q120 -462 120 -440V-406Q120 -393 123 -385.5Q126 -378 132 -374L162 -349H156Q130 -349 119.5 -338.5Q109 -328 109 -300V-191Q109 -175 112 -165.5Q115 -156 122 -150L252 -42L251 -43Q255 -39 263.5 -36Q272 -33 285 -33H443Q469 -33 479.5 -43.5Q490 -54 490 -82V-234Q490 -271 478.5 -298.5Q467 -326 447 -343L318 -452Q301 -466 277.5 -473.5Q254 -481 226 -481Z" glyph-name="Lcommaaccent" horiz-adv-x="695" unicode="&#315;" /><glyph d="M422 -119H-24Q-48 -119 -59 -108Q-70 -97 -70 -73V575Q-70 588 -66.5 597Q-63 606 -56 612L73 721Q78 725 86.5 727.5Q95 730 105 730H260Q284 730 295 719Q306 708 306 684V203H551Q575 203 586 192Q597 181 597 157V36Q597 23 593.5 14Q590 5 583 -1L453 -109Q449 -113 440.5 -116Q432 -119 422 -119ZM196 -481H130Q109 -481 99.5 -471.5Q90 -462 90 -440V-406Q90 -393 93 -385.5Q96 -378 102 -374L132 -349H126Q100 -349 89.5 -338.5Q79 -328 79 -300V-191Q79 -175 82 -165.5Q85 -156 92 -150L222 -42L221 -43Q225 -39 233.5 -36Q242 -33 255 -33H413Q439 -33 449.5 -43.5Q460 -54 460 -82V-234Q460 -271 448.5 -298.5Q437 -326 417 -343L288 -452Q271 -466 247.5 -473.5Q224 -481 196 -481Z" glyph-name="Lcommaaccent.salt" horiz-adv-x="615" unicode="&#57632;" /><glyph d="M626 -79H108Q84 -79 73 -68Q62 -57 62 -33V575Q62 588 65.5 597Q69 606 76 612L205 721Q210 725 218.5 727.5Q227 730 237 730H392Q416 730 427 719Q438 708 438 684V241H755Q779 241 790 230Q801 219 801 195V76Q801 63 797.5 54Q794 45 787 39L657 -69Q653 -73 644.5 -76Q636 -79 626 -79ZM363 -409H297Q276 -409 266.5 -399.5Q257 -390 257 -368V-344Q257 -331 260 -323.5Q263 -316 269 -312L299 -287H293Q267 -287 256.5 -276.5Q246 -266 246 -238V-159Q246 -143 249 -133Q252 -123 259 -117L389 -9Q394 -5 402 -2.5Q410 0 422 0H580Q606 0 616.5 -10.5Q627 -21 627 -50V-162Q627 -199 615.5 -226.5Q604 -254 584 -271L455 -380Q438 -394 414.5 -401.5Q391 -409 363 -409Z" glyph-name="Lcommaaccent.salt_v" horiz-adv-x="1000" unicode="&#57870;" /><glyph d="M635 -79H107Q83 -79 72 -68Q61 -57 61 -33V575Q61 588 64.5 597Q68 606 75 612L204 721Q209 725 217.5 727.5Q226 730 236 730H391Q415 730 426 719Q437 708 437 684V239H447V275Q447 288 450.5 297Q454 306 461 312L587 418Q592 422 600.5 424.5Q609 427 619 427H764Q788 427 799 416Q810 405 810 381V76Q810 63 806.5 54Q803 45 796 39L666 -69Q662 -73 653.5 -76Q645 -79 635 -79ZM363 -409H297Q276 -409 266.5 -399.5Q257 -390 257 -368V-344Q257 -331 260 -323.5Q263 -316 269 -312L299 -287H293Q267 -287 256.5 -276.5Q246 -266 246 -238V-159Q246 -143 249 -133Q252 -123 259 -117L389 -9Q394 -5 402 -2.5Q410 0 422 0H580Q606 0 616.5 -10.5Q627 -21 627 -50V-162Q627 -199 615.5 -226.5Q604 -254 584 -271L455 -380Q438 -394 414.5 -401.5Q391 -409 363 -409Z" glyph-name="Lcommaaccent.v" horiz-adv-x="1000" unicode="&#57779;" /><glyph d="M485 -119H-24Q-48 -119 -59 -108Q-70 -97 -70 -73V575Q-70 588 -66.5 597Q-63 606 -56 612L73 721Q78 725 86.5 727.5Q95 730 105 730H260Q284 730 295 719Q306 708 306 684V470L427 572Q432 576 440.5 578.5Q449 581 459 581H604Q628 581 639 570Q650 559 650 535V408Q650 395 646.5 386Q643 377 636 371L571 317H614Q638 317 649 306Q660 295 660 271V36Q660 23 656.5 14Q653 5 646 -1L516 -109Q512 -113 503.5 -116Q495 -119 485 -119ZM330 253Q323 253 316.5 254Q310 255 306 257V199H308L372 253Z" glyph-name="Ldot" horiz-adv-x="695" unicode="&#319;" /><glyph d="M422 -119H-24Q-48 -119 -59 -108Q-70 -97 -70 -73V575Q-70 588 -66.5 597Q-63 606 -56 612L73 721Q78 725 86.5 727.5Q95 730 105 730H260Q284 730 295 719Q306 708 306 684V203H551Q575 203 586 192Q597 181 597 157V36Q597 23 593.5 14Q590 5 583 -1L453 -109Q449 -113 440.5 -116Q432 -119 422 -119ZM441 211H283Q259 211 248 222Q237 233 237 257V384Q237 397 240.5 406Q244 415 251 421L380 530Q385 534 393.5 536.5Q402 539 412 539H570Q594 539 605 528Q616 517 616 493V366Q616 353 612.5 344Q609 335 602 329L472 221Q468 217 459.5 214Q451 211 441 211Z" glyph-name="Ldot.salt" horiz-adv-x="615" unicode="&#57634;" /><glyph d="M626 -79H108Q84 -79 73 -68Q62 -57 62 -33V575Q62 588 65.5 597Q69 606 76 612L205 721Q210 725 218.5 727.5Q227 730 237 730H392Q416 730 427 719Q438 708 438 684V241H755Q779 241 790 230Q801 219 801 195V76Q801 63 797.5 54Q794 45 787 39L657 -69Q653 -73 644.5 -76Q636 -79 626 -79ZM467 -339H309Q285 -339 274 -328Q263 -317 263 -293V-166Q263 -153 266.5 -144Q270 -135 277 -129L406 -20Q411 -16 419.5 -13.5Q428 -11 438 -11H596Q620 -11 631 -22Q642 -33 642 -57V-184Q642 -197 638.5 -206Q635 -215 628 -221L498 -329Q494 -333 485.5 -336Q477 -339 467 -339Z" glyph-name="Ldot.salt_v" horiz-adv-x="1000" unicode="&#57872;" /><glyph d="M467 -339H309Q285 -339 274 -328Q263 -317 263 -293V-166Q263 -153 266.5 -144Q270 -135 277 -129L336 -79H107Q83 -79 72 -68Q61 -57 61 -33V575Q61 588 64.5 597Q68 606 75 612L204 721Q209 725 217.5 727.5Q226 730 236 730H391Q415 730 426 719Q437 708 437 684V239H447V275Q447 288 450.5 297Q454 306 461 312L587 418Q592 422 600.5 424.5Q609 427 619 427H764Q788 427 799 416Q810 405 810 381V76Q810 63 806.5 54Q803 45 796 39L666 -69Q662 -73 656 -75.5Q650 -78 642 -79V-184Q642 -197 638.5 -206Q635 -215 628 -221L498 -329Q494 -333 485.5 -336Q477 -339 467 -339Z" glyph-name="Ldot.v" horiz-adv-x="1000" unicode="&#57831;" /><glyph d="M485 -119H-24Q-48 -119 -59 -108Q-70 -97 -70 -73V575Q-70 588 -66.5 597Q-63 606 -56 612L73 721Q78 725 86.5 727.5Q95 730 105 730H260Q284 730 295 719Q306 708 306 684V277L308 279L437 388Q442 392 450.5 394.5Q459 397 469 397H614Q638 397 649 386Q660 375 660 351V36Q660 23 656.5 14Q653 5 646 -1L516 -109Q512 -113 503.5 -116Q495 -119 485 -119ZM313 -359H155Q131 -359 120 -348Q109 -337 109 -313V-186Q109 -173 112.5 -164Q116 -155 123 -149L252 -40Q257 -36 265.5 -33.5Q274 -31 284 -31H442Q466 -31 477 -42Q488 -53 488 -77V-204Q488 -217 484.5 -226Q481 -235 474 -241L344 -349Q340 -353 331.5 -356Q323 -359 313 -359Z" glyph-name="Ldotbelow" horiz-adv-x="695" unicode="&#7734;" /><glyph d="M485 -119H-24Q-48 -119 -59 -108Q-70 -97 -70 -73V575Q-70 588 -66.5 597Q-63 606 -56 612L73 721Q78 725 86.5 727.5Q95 730 105 730H260Q284 730 295 719Q306 708 306 684V277L308 279L437 388Q442 392 450.5 394.5Q459 397 469 397H614Q638 397 649 386Q660 375 660 351V36Q660 23 656.5 14Q653 5 646 -1L516 -109Q512 -113 503.5 -116Q495 -119 485 -119ZM313 -359H155Q131 -359 120 -348Q109 -337 109 -313V-186Q109 -173 112.5 -164Q116 -155 123 -149L252 -40Q257 -36 265.5 -33.5Q274 -31 284 -31H442Q466 -31 477 -42Q488 -53 488 -77V-204Q488 -217 484.5 -226Q481 -235 474 -241L344 -349Q340 -353 331.5 -356Q323 -359 313 -359ZM394 641H47Q23 641 12 652Q1 663 1 687V780Q1 793 4.5 802Q8 811 15 817L144 926Q149 930 157.5 932.5Q166 935 176 935H523Q547 935 558 924Q569 913 569 889V796Q569 783 565.5 774Q562 765 555 759L425 651Q421 647 412.5 644Q404 641 394 641Z" glyph-name="Ldotbelowmacron" horiz-adv-x="695" unicode="&#7736;" /><glyph d="M485 -119H-24Q-48 -119 -59 -108Q-70 -97 -70 -73V575Q-70 588 -66.5 597Q-63 606 -56 612L73 721Q78 725 86.5 727.5Q95 730 105 730H260Q284 730 295 719Q306 708 306 684V277L308 279L437 388Q442 392 450.5 394.5Q459 397 469 397H614Q638 397 649 386Q660 375 660 351V36Q660 23 656.5 14Q653 5 646 -1L516 -109Q512 -113 503.5 -116Q495 -119 485 -119ZM392 -324H45Q21 -324 10 -313Q-1 -302 -1 -278V-185Q-1 -172 2.5 -163Q6 -154 13 -148L142 -39Q147 -35 155.5 -32.5Q164 -30 174 -30H521Q545 -30 556 -41Q567 -52 567 -76V-169Q567 -182 563.5 -191Q560 -200 553 -206L423 -314Q419 -318 410.5 -321Q402 -324 392 -324Z" glyph-name="Llinebelow" horiz-adv-x="695" unicode="&#7738;" /><glyph d="M495 -119H-14Q-38 -119 -49 -108Q-60 -97 -60 -73V168L-71 166Q-95 162 -107 174Q-119 186 -119 212V319Q-119 329 -116 338.5Q-113 348 -106 354L-60 393V575Q-60 588 -56.5 597Q-53 606 -46 612L83 721Q88 725 96.5 727.5Q105 730 115 730H270Q294 730 305 719Q316 708 316 684V517L362 524Q386 528 398 516Q410 504 410 478V371Q410 367 409.5 363Q409 359 408 355L447 388Q452 392 460.5 394.5Q469 397 479 397H624Q648 397 659 386Q670 375 670 351V36Q670 23 666.5 14Q663 5 656 -1L526 -109Q522 -113 513.5 -116Q505 -119 495 -119Z" glyph-name="Lslash" horiz-adv-x="705" unicode="&#321;" /><glyph d="M432 -119H-14Q-38 -119 -49 -108Q-60 -97 -60 -73V168L-71 166Q-95 162 -107 174Q-119 186 -119 212V319Q-119 329 -116 338.5Q-113 348 -106 354L-60 393V575Q-60 588 -56.5 597Q-53 606 -46 612L83 721Q88 725 96.5 727.5Q105 730 115 730H270Q294 730 305 719Q316 708 316 684V517L362 524Q386 528 398 516Q410 504 410 478V371Q410 361 407 351.5Q404 342 397 336L316 267V203H561Q585 203 596 192Q607 181 607 157V36Q607 23 603.5 14Q600 5 593 -1L463 -109Q459 -113 450.5 -116Q442 -119 432 -119Z" glyph-name="Lslash.salt" horiz-adv-x="625" unicode="&#57635;" /><glyph d="M626 -119H108Q84 -119 73 -108Q62 -97 62 -73V168L51 166Q27 162 15 174Q3 186 3 212V319Q3 329 6 338.5Q9 348 16 354L62 392V575Q62 588 65.5 597Q69 606 76 612L205 721Q210 725 218.5 727.5Q227 730 237 730H392Q416 730 427 719Q438 708 438 684V515L484 522Q508 526 520 514Q532 502 532 476V371Q532 361 529.5 351Q527 341 520 335L438 267V203H755Q779 203 790 192Q801 181 801 157V36Q801 23 797.5 14Q794 5 787 -1L657 -109Q653 -113 644.5 -116Q636 -119 626 -119Z" glyph-name="Lslash.salt_v" horiz-adv-x="1000" unicode="&#57873;" /><glyph d="M636 -119H108Q84 -119 73 -108Q62 -97 62 -73V168L51 166Q27 162 15 174Q3 186 3 212V319Q3 329 6 338.5Q9 348 16 354L62 392V575Q62 588 65.5 597Q69 606 76 612L205 721Q210 725 218.5 727.5Q227 730 237 730H392Q416 730 427 719Q438 708 438 684V515L484 522Q508 526 520 514Q532 502 532 476V371Q532 361 529.5 351Q527 341 520 335L438 267V199H448V243Q448 256 451.5 265Q455 274 462 280L588 388Q593 392 601.5 394.5Q610 397 620 397H765Q789 397 800 386Q811 375 811 351V36Q811 23 807.5 14Q804 5 797 -1L667 -109Q663 -113 654.5 -116Q646 -119 636 -119Z" glyph-name="Lslash.v" horiz-adv-x="1000" unicode="&#57832;" /><glyph d="M286 -1 156 -109Q152 -113 143.5 -116Q135 -119 125 -119H-24Q-48 -119 -59 -108Q-70 -97 -70 -73V575Q-70 588 -66.5 597Q-63 606 -56 612L73 721Q78 725 86.5 727.5Q95 730 105 730H266Q285 730 297.5 722Q310 714 321 695L389 570L398 586Q402 593 406.5 599.5Q411 606 416 610L545 718Q553 724 561.5 727Q570 730 582 730H744Q768 730 779 719Q790 708 790 684V36Q790 23 786.5 14Q783 5 776 -1L646 -109Q642 -113 633.5 -116Q625 -119 615 -119H461Q436 -119 425.5 -108Q415 -97 415 -73V191L356 142Q348 135 337.5 131.5Q327 128 313 128H300V36Q300 23 296.5 14Q293 5 286 -1Z" glyph-name="M" horiz-adv-x="849" unicode="M" /><glyph d="M155 -110Q149 -114 141 -116.5Q133 -119 123 -119H-29Q-53 -119 -64 -108Q-75 -97 -75 -73V422Q-75 471 -62 512.5Q-49 554 -15 582L115 690Q146 716 198 730.5Q250 745 328 745Q403 745 453.5 732Q504 719 535 696Q566 719 616.5 732Q667 745 742 745Q825 745 878.5 729.5Q932 714 962.5 686Q993 658 1004.5 618Q1016 578 1016 531V36Q1016 23 1012.5 14Q1009 5 1002 -1L872 -109Q868 -113 859.5 -116Q851 -119 841 -119H689Q664 -119 653.5 -108Q643 -97 643 -73V-1L513 -109Q509 -113 500.5 -116Q492 -119 482 -119H330Q306 -119 295 -108Q284 -97 284 -73V-1Z" glyph-name="M.salt" horiz-adv-x="1070" unicode="&#57636;" /><glyph d="M207 -110Q201 -114 193 -116.5Q185 -119 175 -119H58Q34 -119 23 -108Q12 -97 12 -73V422Q12 478 26.5 522Q41 566 74 594L204 702Q228 722 264 733.5Q300 745 350 745Q404 745 441 733Q478 721 499 700L505 705Q528 724 563 734.5Q598 745 649 745Q767 745 812.5 686Q858 627 858 531V36Q858 23 854.5 14Q851 5 844 -1L714 -109Q710 -113 701.5 -116Q693 -119 683 -119H566Q541 -119 530.5 -108Q520 -97 520 -73V-59L460 -109Q456 -113 447.5 -116Q439 -119 429 -119H312Q288 -119 277 -108Q266 -97 266 -73V-60Z" glyph-name="M.salt_v" horiz-adv-x="1000" unicode="&#57875;" /><glyph d="M249 -109Q245 -113 236.5 -116Q228 -119 218 -119H86Q62 -119 51 -108Q40 -97 40 -73L44 575Q44 588 47.5 597Q51 606 58 612L187 721Q192 725 200.5 727.5Q209 730 219 730H350Q372 730 392.5 722Q413 714 424 695V694L461 602L466 607L595 714Q604 722 615.5 726Q627 730 643 730H783Q808 730 818.5 719Q829 708 829 684L833 36Q833 23 829.5 14Q826 5 819 -1L690 -110Q684 -114 676 -116.5Q668 -119 658 -119H507Q483 -119 472 -108Q461 -97 461 -73L457 157L419 125Q414 120 407.5 116.5Q401 113 394 112L393 36Q393 23 389.5 14Q386 5 379 -1Z" glyph-name="M.v" horiz-adv-x="1000" unicode="&#65325;" /><glyph d="M286 -1 156 -109Q152 -113 143.5 -116Q135 -119 125 -119H-24Q-48 -119 -59 -108Q-70 -97 -70 -73V575Q-70 588 -66.5 597Q-63 606 -56 612L73 721Q78 725 86.5 727.5Q95 730 105 730H266Q285 730 297.5 722Q310 714 321 695L389 570L398 586Q402 593 406.5 599.5Q411 606 416 610L545 718Q553 724 561.5 727Q570 730 582 730H744Q768 730 779 719Q790 708 790 684V36Q790 23 786.5 14Q783 5 776 -1L646 -109Q642 -113 633.5 -116Q625 -119 615 -119H461Q436 -119 425.5 -108Q415 -97 415 -73V191L356 142Q348 135 337.5 131.5Q327 128 313 128H300V36Q300 23 296.5 14Q293 5 286 -1ZM374 -359H216Q192 -359 181 -348Q170 -337 170 -313V-186Q170 -173 173.5 -164Q177 -155 184 -149L313 -40Q318 -36 326.5 -33.5Q335 -31 345 -31H503Q527 -31 538 -42Q549 -53 549 -77V-204Q549 -217 545.5 -226Q542 -235 535 -241L405 -349Q401 -353 392.5 -356Q384 -359 374 -359Z" glyph-name="Mdotbelow" horiz-adv-x="849" unicode="&#7746;" /><glyph d="M287 -1 157 -109Q153 -113 144.5 -116Q136 -119 126 -119H-24Q-48 -119 -59 -108Q-70 -97 -70 -73V575Q-70 588 -66.5 597Q-63 606 -56 612L73 721Q78 725 86.5 727.5Q95 730 105 730H209Q231 730 246 723Q261 716 276 700L345 620L466 721Q471 725 479.5 727.5Q488 730 498 730H648Q672 730 683 719Q694 708 694 684V36Q694 23 690.5 14Q687 5 680 -1L550 -109Q546 -113 537.5 -116Q529 -119 519 -119H369Q345 -119 334 -108Q323 -97 323 -73V46L301 73V36Q301 23 297.5 14Q294 5 287 -1Z" glyph-name="N" horiz-adv-x="753" unicode="N" /><glyph d="M418 -1 288 -109Q284 -113 275.5 -116Q267 -119 257 -119H107Q83 -119 72 -108Q61 -97 61 -73V535Q61 548 64.5 557Q68 566 75 572L204 681Q209 685 217.5 687.5Q226 690 236 690H340Q362 690 377 683Q392 676 406 660L471 587L583 681Q588 685 596.5 687.5Q605 690 615 690H765Q789 690 800 679Q811 668 811 644V36Q811 23 807.5 14Q804 5 797 -1L667 -109Q663 -113 654.5 -116Q646 -119 636 -119H486Q462 -119 451 -108Q440 -97 440 -73V26L432 36Q432 22 428.5 13.5Q425 5 418 -1Z" glyph-name="N.s_v" horiz-adv-x="1000" unicode="&#57936;" /><glyph d="M155 -110Q149 -114 141 -116.5Q133 -119 123 -119H-29Q-53 -119 -64 -108Q-75 -97 -75 -73V422Q-75 468 -62 507Q-49 546 -15 574L114 683Q149 712 211.5 728.5Q274 745 373 745Q470 745 532.5 729Q595 713 630 685Q665 657 678.5 617.5Q692 578 692 531V36Q692 23 688.5 14Q685 5 678 -1L548 -109Q544 -113 535.5 -116Q527 -119 517 -119H360Q336 -119 325 -108Q314 -97 314 -73V383Q314 392 310.5 399.5Q307 407 298 412V36Q298 23 294.5 14Q291 5 284 -1Z" glyph-name="N.salt" horiz-adv-x="746" unicode="&#57637;" /><glyph d="M291 -110Q285 -114 277 -116.5Q269 -119 259 -119H107Q83 -119 72 -108Q61 -97 61 -73V382Q61 430 73.5 469.5Q86 509 120 537L249 645Q283 673 343 689Q403 705 500 705Q597 705 658 689Q719 673 752.5 645Q786 617 798 577.5Q810 538 810 491V36Q810 23 806.5 14Q803 5 796 -1L666 -109Q662 -113 653.5 -116Q645 -119 635 -119H478Q454 -119 443 -108Q432 -97 432 -73V18Q431 12 427.5 7.5Q424 3 420 -1Z" glyph-name="N.salt_s_v" horiz-adv-x="1000" unicode="&#57948;" /><glyph d="M259 -119H107Q83 -119 72 -107.5Q61 -96 61 -72V423Q61 471 73.5 510.5Q86 550 120 578L249 686Q283 714 343 730Q403 746 500 746Q597 746 658 730Q719 714 752.5 686Q786 658 798 618.5Q810 579 810 532V37Q810 24 806 14.5Q802 5 795 -1L666 -109Q661 -113 653 -116Q645 -119 635 -119H478Q454 -119 443 -107.5Q432 -96 432 -72V19Q431 13 427.5 8Q424 3 420 -1L290 -109Q285 -113 277 -116Q269 -119 259 -119Z" glyph-name="N.salt_v" horiz-adv-x="1000" unicode="&#57876;" /><glyph d="M418 -1 288 -109Q284 -113 275.5 -116Q267 -119 257 -119H107Q83 -119 72 -108Q61 -97 61 -73V575Q61 588 64.5 597Q68 606 75 612L204 721Q209 725 217.5 727.5Q226 730 236 730H340Q362 730 377 723Q392 716 407 699L467 624L583 721Q588 725 596.5 727.5Q605 730 615 730H765Q789 730 800 719Q811 708 811 684V36Q811 23 807.5 14Q804 5 797 -1L667 -109Q663 -113 654.5 -116Q646 -119 636 -119H486Q462 -119 451 -108Q440 -97 440 -73V47L432 57V36Q432 23 428.5 14Q425 5 418 -1Z" glyph-name="N.v" horiz-adv-x="1000" unicode="&#65326;" /><glyph d="M287 -1 157 -109Q153 -113 144.5 -116Q136 -119 126 -119H-24Q-48 -119 -59 -108Q-70 -97 -70 -73V575Q-70 588 -66.5 597Q-63 606 -56 612L73 721Q78 725 86.5 727.5Q95 730 105 730H209Q231 730 246 723Q261 716 276 700L345 620L466 721Q471 725 479.5 727.5Q488 730 498 730H648Q672 730 683 719Q694 708 694 684V36Q694 23 690.5 14Q687 5 680 -1L550 -109Q546 -113 537.5 -116Q529 -119 519 -119H369Q345 -119 334 -108Q323 -97 323 -73V46L301 73V36Q301 23 297.5 14Q294 5 287 -1ZM82 634Q60 631 48.5 642.5Q37 654 37 677V773Q37 786 40.5 794.5Q44 803 50 808L180 917Q184 921 192.5 924Q201 927 211 928L560 971Q582 974 593.5 962.5Q605 951 605 928V832Q605 819 601.5 810Q598 801 591 797L462 688Q457 684 449 681.5Q441 679 431 677Z" glyph-name="Nacute" horiz-adv-x="753" unicode="&#323;" /><glyph d="M155 -110Q149 -114 141 -116.5Q133 -119 123 -119H-29Q-53 -119 -64 -108Q-75 -97 -75 -73V422Q-75 468 -62 507Q-49 546 -15 574L114 683Q149 712 211.5 728.5Q274 745 373 745Q470 745 532.5 729Q595 713 630 685Q665 657 678.5 617.5Q692 578 692 531V36Q692 23 688.5 14Q685 5 678 -1L548 -109Q544 -113 535.5 -116Q527 -119 517 -119H360Q336 -119 325 -108Q314 -97 314 -73V383Q314 392 310.5 399.5Q307 407 298 412V36Q298 23 294.5 14Q291 5 284 -1ZM79 634Q57 631 45.5 642.5Q34 654 34 677V773Q34 786 37.5 794.5Q41 803 47 808L177 917Q181 921 189.5 924Q198 927 208 928L557 971Q579 974 590.5 962.5Q602 951 602 928V832Q602 819 598.5 810Q595 801 588 797L459 688Q454 684 446 681.5Q438 679 428 677Z" glyph-name="Nacute.salt" horiz-adv-x="746" unicode="&#57639;" /><glyph d="M196 594Q174 591 162.5 602.5Q151 614 151 637V733Q151 746 154.5 754.5Q158 763 164 768L294 877Q298 881 306.5 884Q315 887 325 888L674 931Q696 934 707.5 922.5Q719 911 719 888V792Q719 779 715.5 770Q712 761 705 757L576 648Q571 644 563 641.5Q555 639 545 637ZM291 -110Q285 -114 277 -116.5Q269 -119 259 -119H107Q83 -119 72 -108Q61 -97 61 -73V382Q61 430 73.5 469.5Q86 509 120 537L249 645Q283 673 343 689Q403 705 500 705Q597 705 658 689Q719 673 752.5 645Q786 617 798 577.5Q810 538 810 491V36Q810 23 806.5 14Q803 5 796 -1L666 -109Q662 -113 653.5 -116Q645 -119 635 -119H478Q454 -119 443 -108Q432 -97 432 -73V18Q431 12 427.5 7.5Q424 3 420 -1Z" glyph-name="Nacute.salt_v" horiz-adv-x="1000" unicode="&#57878;" /><glyph d="M418 -1 288 -109Q284 -113 275.5 -116Q267 -119 257 -119H107Q83 -119 72 -108Q61 -97 61 -73V535Q61 548 64.5 557Q68 566 75 572L204 681Q209 685 217.5 687.5Q226 690 236 690H340Q362 690 377 683Q392 676 406 660L471 587L583 681Q588 685 596.5 687.5Q605 690 615 690H765Q789 690 800 679Q811 668 811 644V36Q811 23 807.5 14Q804 5 797 -1L667 -109Q663 -113 654.5 -116Q646 -119 636 -119H486Q462 -119 451 -108Q440 -97 440 -73V26L432 36Q432 22 428.5 13.5Q425 5 418 -1ZM196 594Q174 591 162.5 602.5Q151 614 151 637V733Q151 746 154.5 754.5Q158 763 164 768L294 877Q298 881 306.5 884Q315 887 325 888L674 931Q696 934 707.5 922.5Q719 911 719 888V792Q719 779 715.5 770Q712 761 705 757L576 648Q571 644 563 641.5Q555 639 545 637Z" glyph-name="Nacute.v" horiz-adv-x="1000" unicode="&#57782;" /><glyph d="M287 -1 157 -109Q153 -113 144.5 -116Q136 -119 126 -119H-24Q-48 -119 -59 -108Q-70 -97 -70 -73V575Q-70 588 -66.5 597Q-63 606 -56 612L73 721Q78 725 86.5 727.5Q95 730 105 730H209Q231 730 246 723Q261 716 276 700L345 620L466 721Q471 725 479.5 727.5Q488 730 498 730H648Q672 730 683 719Q694 708 694 684V36Q694 23 690.5 14Q687 5 680 -1L550 -109Q546 -113 537.5 -116Q529 -119 519 -119H369Q345 -119 334 -108Q323 -97 323 -73V46L301 73V36Q301 23 297.5 14Q294 5 287 -1ZM239 633H238Q228 633 219 634Q210 635 203 639L65 689Q35 700 26 710Q17 720 17 751V832Q17 849 19.5 859Q22 869 28 873L157 982Q162 986 172.5 986.5Q183 987 201 982L338 942Q354 938 366 938Q378 938 394 942L531 982Q564 992 574.5 984.5Q585 977 585 941V860Q585 841 581 831Q577 821 569 814L440 705Q434 701 426.5 697Q419 693 409 689H408L281 643Q271 639 260 636.5Q249 634 239 633Z" glyph-name="Ncaron" horiz-adv-x="753" unicode="&#327;" /><glyph d="M155 -110Q149 -114 141 -116.5Q133 -119 123 -119H-29Q-53 -119 -64 -108Q-75 -97 -75 -73V422Q-75 468 -62 507Q-49 546 -15 574L114 683Q149 712 211.5 728.5Q274 745 373 745Q470 745 532.5 729Q595 713 630 685Q665 657 678.5 617.5Q692 578 692 531V36Q692 23 688.5 14Q685 5 678 -1L548 -109Q544 -113 535.5 -116Q527 -119 517 -119H360Q336 -119 325 -108Q314 -97 314 -73V383Q314 392 310.5 399.5Q307 407 298 412V36Q298 23 294.5 14Q291 5 284 -1ZM246 633H245Q235 633 226 634Q217 635 210 639L72 689Q42 700 33 710Q24 720 24 751V832Q24 849 26.5 859Q29 869 35 873L164 982Q169 986 179.5 986.5Q190 987 208 982L345 942Q361 938 373 938Q385 938 401 942L538 982Q571 992 581.5 984.5Q592 977 592 941V860Q592 841 588 831Q584 821 576 814L447 705Q441 701 433.5 697Q426 693 416 689H415L288 643Q278 639 267 636.5Q256 634 246 633Z" glyph-name="Ncaron.salt" horiz-adv-x="746" unicode="&#57641;" /><glyph d="M373 593H372Q362 593 353 594Q344 595 337 599L199 649Q169 660 160 670Q151 680 151 711V792Q151 809 153.5 819Q156 829 162 833L291 942Q296 946 306.5 946.5Q317 947 335 942L472 902Q488 898 500 898Q512 898 528 902L665 942Q698 952 708.5 944.5Q719 937 719 901V820Q719 801 715 791Q711 781 703 774L574 665Q568 661 560.5 657Q553 653 543 649H542L415 603Q405 599 394 596.5Q383 594 373 593ZM291 -110Q285 -114 277 -116.5Q269 -119 259 -119H107Q83 -119 72 -108Q61 -97 61 -73V382Q61 430 73.5 469.5Q86 509 120 537L249 645Q283 673 343 689Q403 705 500 705Q597 705 658 689Q719 673 752.5 645Q786 617 798 577.5Q810 538 810 491V36Q810 23 806.5 14Q803 5 796 -1L666 -109Q662 -113 653.5 -116Q645 -119 635 -119H478Q454 -119 443 -108Q432 -97 432 -73V18Q431 12 427.5 7.5Q424 3 420 -1Z" glyph-name="Ncaron.salt_v" horiz-adv-x="1000" unicode="&#57880;" /></font>
</defs>
</svg>
